
<svg xmlns="http://www.w3.org/2000/svg" version="1.1" xmlns:xlink="http://www.w3.org/1999/xlink" preserveAspectRatio="none" x="0px" y="0px" width="864px" height="486px" viewBox="0 0 864 486">
<defs>
<linearGradient id="Gradient_1" gradientUnits="userSpaceOnUse" x1="281.1875" y1="36.9375" x2="276.51250000000005" y2="60.3625" spreadMethod="pad">
<stop  offset="0%" stop-color="#590D39"/>

<stop  offset="19.607843137254903%" stop-color="#9C1862"/>

<stop  offset="22.745098039215687%" stop-color="#A01964"/>

<stop  offset="34.11764705882353%" stop-color="#AA1A6C"/>

<stop  offset="73.72549019607843%" stop-color="#BD1D78"/>

<stop  offset="100%" stop-color="#BF1D79"/>
</linearGradient>

<filter id="Filter_1" x="-20%" y="-20%" width="140%" height="140%" color-interpolation-filters="sRGB">
<feColorMatrix in="SourceGraphic" type="matrix" values="1 0 0 0 -0.06274509803921569 0 1 0 0 -0.0784313725490196 0 0 1 0 -0.06274509803921569 0 0 0 1 0" result="result1"/>
</filter>

<filter id="Filter_2" x="-20%" y="-20%" width="140%" height="140%" color-interpolation-filters="sRGB">
<feColorMatrix in="SourceGraphic" type="matrix" values="0.57 0 0 0 0.1843137254901961 0 0.57 0 0 0.28627450980392155 0 0 0.57 0 0.37254901960784315 0 0 0 1 0" result="result1"/>
</filter>

<g id="RD_Prun_Tail_2_Layer1_0_FILL">
<path fill="#EE4143" stroke="none" d="
M 143.4 -106.25
Q 137.35 -104.5 130.35 -101.25 123.4 -98 116.05 -93.25 108.75 -88.55 101.6 -82.45 96.25 -77.95 91.25 -72.75 86.25 -67.6 81.6 -62.05 78.75 -57.85 75.6 -53.5 72.5 -49.15 69 -45 62.1 -36.5 53.75 -29.25 45.35 -22 36.4 -16.6 27.5 -11.25 19 -8.35 10.45 -5.5 3.35 -5.8 0.1 -5.8 -2.2 -4.5 -4.5 -3.15 -5.6 -1.1 -6.65 1 -6.2 3.2 -5.75 5.45 -3.5 7.15 -1.25 8.9 3.15 9.55 18.25 11.55 32.6 10.85 46.95 10.1 60.4 7.5 73.8 4.85 86.1 1.1 92.2 -0.7 98.15 -3 104.1 -5.25 109.6 -7.55 115.1 -9.9 119.85 -11.9 126.1 -14.4 131.95 -15.85 137.8 -17.35 143.15 -18.2 153.85 -19.65 162.65 -19.35 171.5 -19.05 178.45 -17.8 185.4 -16.55 190.55 -15.25 195.65 -13.95 199 -13.45 199 -13.5 197.2 -15.05 195.4 -16.6 192.1 -18.8 188.8 -21 184.3 -23.15 180.95 -24.7 177.6 -25.9 174.2 -27.1 171.35 -27.9 168.5 -28.7 166.7 -29.05 165.6 -29.25 165.15 -29.3 167.55 -29.35 171.4 -29.4 175.55 -29.5 180.85 -29.3 186.15 -29.1 191.9 -28.4 197.65 -27.7 203.3 -26.25 208.9 -24.8 213.75 -22.3 217.95 -20.4 221.2 -18.2 224.45 -16 226.6 -13.95 228.75 -11.9 229.75 -10.5 231.25 -8.3 231.65 -7.05 232.05 -5.8 232.1 -5.75
L 232.55 -7.1
Q 233.05 -8.45 233.2 -10.9 233.35 -13.35 232.5 -16.7 231.8 -19.2 230.45 -21.65 229.05 -24.1 227.6 -26.1 226.15 -28.15 225.1 -29.35 224.05 -30.55 224 -30.55 227.15 -29.35 231.05 -27.75 234.95 -26.15 239 -23.9 243.1 -21.6 246.7 -18.45 250.35 -15.3 253 -11.05 255.9 -6.8 257.4 -2.4 258.85 2 259.4 5.75 259.95 9.5 260 11.75 260.05 13.8 260 14.05 262.5 7.65 263.3 0.75 264.05 -6.1 262.65 -13.15 262.7 -13.2 263.5 -10.9 264.25 -8.6 265 -4.65 265.75 -0.65 265.85 4.4 265.95 9.5 264.7 15.05 263.6 20.55 261.7 25.5 259.8 30.45 257.8 34.35 255.8 38.2 254.4 40.5 253 42.7 252.85 42.95 257.2 38.1 261.45 31.8 265.65 25.5 268.95 18.2 272.2 10.9 273.7 3.05 275.2 -4.85 274.2 -12.9 273.6 -19.2 272 -24.55 270.35 -29.85 268.3 -34.05 266.2 -38.25 264.3 -41.15 262.4 -44.05 261.2 -45.55 260 -47.05 260.15 -47
L 262 -45.2
Q 263.85 -43.4 266.65 -40.05 269.45 -36.65 272.35 -32 275.25 -27.35 277.35 -21.65 279.55 -16.15 280.5 -10.7 281.45 -5.25 281.65 -0.8 281.8 3.7 281.7 6.45 281.55 9.15 281.6 9.25 282.95 1.6 282.9 -6.6 282.8 -14.75 280.9 -23.2 279 -31.65 274.85 -40.1 268.35 -52.8 258.05 -62.8 247.75 -72.85 234.55 -80 225.7 -84.95 215.5 -88.15 205.35 -91.4 194.35 -92.8 183.35 -94.25 171.95 -93.7 160.4 -93.15 148.35 -90.35 136.3 -87.5 124.35 -82.15 112.45 -76.8 101.25 -68.75 101.25 -68.85 103.25 -71.2 105.3 -73.55 108.85 -77.3 112.4 -81.05 117.05 -85.35 120.5 -88.65 124.25 -91.8 128 -94.9 131.65 -97.65 135.3 -100.4 138.35 -102.6 141.4 -104.8 143.4 -106.25 Z"/>
</g>

<g id="RD_Prun_Tail_2_Layer1_1_FILL">
<path fill="#F37033" stroke="none" d="
M 143.4 -106.25
Q 137.35 -104.5 130.35 -101.25 123.4 -98 116.05 -93.25 108.75 -88.55 101.6 -82.45 96.25 -77.95 91.25 -72.75 86.25 -67.6 81.6 -62.05 78.75 -57.85 75.6 -53.5 72.5 -49.15 69 -45 62.1 -36.5 53.75 -29.25 45.35 -22 36.4 -16.6 27.5 -11.25 19 -8.35 10.45 -5.5 3.35 -5.8 0.1 -5.8 -2.2 -4.5 -4.5 -3.15 -5.6 -1.1 -6.65 1 -6.2 3.2 -5.75 5.45 -3.5 7.15 -1.25 8.9 3.15 9.55 14.1 11.05 24.8 11 35.55 11 45.8 9.8 57.05 7.85 68.3 4.35 79.55 0.9 90.5 -3.95 101.4 -8.75 111.6 -14.8 124.7 -22.6 137.3 -27.25 149.9 -31.9 162.5 -33.65 175.3 -35.65 186.45 -34.85 197.6 -34.05 206.65 -31.35 215.75 -28.7 222.2 -25.1 228.65 -21.5 232.05 -17.9 230.9 -21.05 229.05 -23.95 227.15 -26.85 225.65 -28.7 224.2 -30.45 224.05 -30.55 227.15 -29.35 231.05 -27.75 234.95 -26.15 239 -23.9 243.1 -21.6 246.7 -18.45 250.35 -15.3 253 -11.05 255.9 -6.8 257.4 -2.4 258.85 2 259.4 5.75 259.95 9.5 260 11.75 260.05 13.8 260 14.05 262.5 7.65 263.3 0.75 264.05 -6.1 262.65 -13.15 262.7 -13.2 263.5 -10.9 264.25 -8.6 265 -4.65 265.75 -0.65 265.85 4.4 265.95 9.5 264.7 15.05 263.6 20.55 261.7 25.5 259.8 30.45 257.8 34.35 255.8 38.2 254.4 40.5 253 42.7 252.85 42.95 257.2 38.1 261.45 31.8 265.65 25.5 268.95 18.2 272.2 10.9 273.7 3.05 275.2 -4.85 274.2 -12.9 273.6 -19.2 272 -24.55 270.35 -29.85 268.3 -34.05 266.2 -38.25 264.3 -41.15 262.4 -44.05 261.2 -45.55 260 -47.05 260.15 -47
L 262 -45.2
Q 263.85 -43.4 266.65 -40.05 269.45 -36.65 272.35 -32 275.25 -27.35 277.35 -21.65 279.55 -16.15 280.5 -10.7 281.45 -5.25 281.65 -0.8 281.8 3.7 281.7 6.45 281.55 9.15 281.6 9.25 282.95 1.6 282.9 -6.6 282.8 -14.75 280.9 -23.2 279 -31.65 274.85 -40.1 268.35 -52.8 258.05 -62.8 247.75 -72.85 234.55 -80 225.7 -84.95 215.5 -88.15 205.35 -91.4 194.35 -92.8 183.35 -94.25 171.95 -93.7 160.4 -93.15 148.35 -90.35 136.3 -87.5 124.35 -82.15 112.45 -76.8 101.25 -68.75 101.25 -68.85 103.25 -71.2 105.3 -73.55 108.85 -77.3 112.4 -81.05 117.05 -85.35 120.5 -88.65 124.25 -91.8 128 -94.9 131.65 -97.65 135.3 -100.4 138.35 -102.6 141.4 -104.8 143.4 -106.25 Z"/>
</g>

<g id="RD_Prun_Tail_2_Layer1_2_FILL">
<path fill="#FDF6AF" stroke="none" d="
M 143.4 -106.25
Q 137.35 -104.5 130.35 -101.25 123.4 -98 116.05 -93.25 108.75 -88.55 101.6 -82.45 96.25 -77.95 91.25 -72.75 86.25 -67.6 81.6 -62.05 78.75 -57.85 75.6 -53.5 72.5 -49.15 69 -45 62.1 -36.5 53.75 -29.25 45.35 -22 36.4 -16.6 27.5 -11.25 19 -8.35 10.45 -5.5 3.35 -5.8 0.1 -5.8 -2.2 -4.5 -4.5 -3.15 -5.6 -1.1 -6.65 1 -6.2 3.2 -5.75 5.45 -3.5 7.15 -1.25 8.9 3.15 9.55 4.2 9.7 10.15 9.85 16.1 10 25.9 9.1 35.7 8.15 48.35 5.05 57.8 2.7 68.05 -1.15 78.35 -4.95 89.15 -10.35 94.5 -13.05 99.8 -16.2 105.15 -19.4 110.4 -22.65 115.1 -25.6 119.95 -28.35 124.8 -31.1 129.9 -33.3 140.05 -38 150.7 -40.75 161.4 -43.5 171.9 -44.4 182.45 -45.3 192.1 -44.5 201.8 -43.7 209.9 -41.4 218.25 -38.95 224.45 -35.75 230.7 -32.6 234.95 -29.35 239.2 -26.15 241.7 -23.55 244.15 -21 245.05 -19.75 248.35 -17.25 251 -13.8 253.65 -10.4 255.55 -6.55 257.4 -2.7 258.4 0.95 259.35 4.65 259.7 7.6 260 10.55 260 12.3
L 260 14.05
Q 262.5 7.65 263.3 0.75 264.05 -6.1 262.65 -13.15 262.7 -13.2 263.5 -10.9 264.25 -8.6 265 -4.65 265.75 -0.65 265.85 4.4 265.95 9.5 264.7 15.05 263.6 20.55 261.7 25.5 259.8 30.45 257.8 34.35 255.8 38.2 254.4 40.5 253 42.7 252.85 42.95 257.2 38.1 261.45 31.8 265.65 25.5 268.95 18.2 272.2 10.9 273.7 3.05 275.2 -4.85 274.2 -12.9 273.6 -19.2 272 -24.55 270.35 -29.85 268.3 -34.05 266.2 -38.25 264.3 -41.15 262.4 -44.05 261.2 -45.55 260 -47.05 260.15 -47
L 262 -45.2
Q 263.85 -43.4 266.65 -40.05 269.45 -36.65 272.35 -32 275.25 -27.35 277.35 -21.65 279.55 -16.15 280.5 -10.7 281.45 -5.25 281.65 -0.8 281.8 3.7 281.7 6.45 281.55 9.15 281.6 9.25 282.95 1.6 282.9 -6.6 282.8 -14.75 280.9 -23.2 279 -31.65 274.85 -40.1 268.35 -52.8 258.05 -62.8 247.75 -72.85 234.55 -80 225.7 -84.95 215.5 -88.15 205.35 -91.4 194.35 -92.8 183.35 -94.25 171.95 -93.7 160.4 -93.15 148.35 -90.35 136.3 -87.5 124.35 -82.15 112.45 -76.8 101.25 -68.75 101.25 -68.85 103.25 -71.2 105.3 -73.55 108.85 -77.3 112.4 -81.05 117.05 -85.35 120.5 -88.65 124.25 -91.8 128 -94.9 131.65 -97.65 135.3 -100.4 138.35 -102.6 141.4 -104.8 143.4 -106.25 Z"/>
</g>

<g id="RD_Prun_Tail_2_Layer1_3_FILL">
<path fill="#662F89" stroke="none" d="
M 143.4 -106.25
Q 137.35 -104.5 130.35 -101.25 123.4 -98 116.05 -93.25 108.75 -88.55 101.6 -82.45 96.25 -77.95 91.25 -72.75 86.25 -67.6 81.6 -62.05 78.75 -57.85 75.6 -53.5 72.5 -49.15 69 -45 62.1 -36.5 53.75 -29.25 45.35 -22 36.4 -16.6 27.5 -11.25 18.95 -8.35 10.45 -5.5 3.3 -5.8 0.4 -5.75 -1.8 -4.65 -4 -3.55 -5.2 -1.8 -6.4 0 -6.35 2.05 7.3 3.15 20.9 1.55 34.45 -0.1 47.55 -4.05 60.65 -8 72.95 -13.85 82.3 -18.05 91 -23.45 99.7 -28.85 108.1 -34.55 116.55 -40.05 125.65 -44.45 134.75 -48.85 144.35 -51.95 157.15 -56 170.55 -57.6 184 -59.2 197.35 -57.95 210.7 -56.65 223.35 -52.05 229.6 -49.75 235.45 -46.5 241.35 -43.3 246.5 -39.15 251.6 -34.95 255.7 -29.75 259.8 -24.55 262.3 -18.45 264.8 -12.3 265.65 -5.75 266.5 0.8 265.7 7.3 265.4 13.75 263.55 20 261.65 26.25 259.2 31.4 256.8 36.55 254.95 39.65 253.45 42.1 253 42.75 257.3 37.95 261.45 31.8 265.65 25.5 268.9 18.2 272.2 10.9 273.7 3.05 275.2 -4.85 274.2 -12.9 273.6 -19.2 272 -24.55 270.35 -29.85 268.3 -34.05 266.2 -38.25 264.3 -41.15 262.4 -44.05 261.2 -45.55 260 -47.05 260.15 -47
L 262 -45.2
Q 263.85 -43.4 266.65 -40.05 269.45 -36.65 272.35 -32 275.25 -27.35 277.35 -21.65 279.5 -16.15 280.5 -10.7 281.45 -5.25 281.6 -0.8 281.8 3.7 281.7 6.45 281.55 9.15 281.6 9.25 282.95 1.6 282.9 -6.6 282.8 -14.75 280.9 -23.2 279 -31.65 274.85 -40.1 268.3 -52.8 258.05 -62.8 247.75 -72.85 234.55 -80 225.65 -84.95 215.5 -88.15 205.35 -91.4 194.35 -92.8 183.35 -94.25 171.9 -93.7 160.4 -93.15 148.35 -90.35 136.3 -87.5 124.35 -82.15 112.4 -76.8 101.2 -68.75 101.25 -68.85 103.25 -71.2 105.3 -73.55 108.85 -77.3 112.4 -81.05 117.05 -85.35 120.5 -88.65 124.25 -91.8 128 -94.9 131.65 -97.65 135.3 -100.4 138.35 -102.6 141.4 -104.8 143.4 -106.25 Z"/>
</g>

<g id="RD_Prun_Tail_2_Layer1_4_FILL">
<path fill="#1D98D5" stroke="none" d="
M 15.65 -7.5
Q 8.95 -5.7 3.3 -5.8 0.4 -5.8 -1.8 -4.7 -4 -3.6 -5.2 -1.8 -6.4 0 -6.35 2.05 7.3 3.15 20.9 1.5 34.45 -0.1 47.55 -4.05 60.65 -8 72.95 -13.85 82.3 -18.05 91 -23.45 99.7 -28.85 108.1 -34.55 116.55 -40.1 125.65 -44.5 134.75 -48.9 144.35 -51.95 157.15 -56 170.55 -57.6 184 -59.25 197.35 -57.95 210.7 -56.65 223.35 -52.05 229.6 -49.75 235.45 -46.55 241.35 -43.3 246.5 -39.15 251.6 -34.95 255.7 -29.75 259.8 -24.55 262.3 -18.45 264.8 -12.35 265.65 -5.8 266.5 0.75 265.7 7.3 265.4 13.75 263.55 20 261.65 26.25 259.2 31.4 256.8 36.55 254.95 39.65 253.45 42.1 253 42.7 257.3 37.95 261.45 31.8 265.65 25.5 268.9 18.2 272.2 10.9 273.7 3.05 275.2 -4.85 274.2 -12.9 273.6 -19.25 272 -24.55 270.35 -29.9 268.3 -34.05 266.2 -38.25 264.3 -41.15 262.4 -44.05 261.2 -45.55 260 -47.05 260.15 -47 260.15 -47.05 262 -45.2 263.85 -43.4 266.65 -40.05 269.45 -36.7 272.35 -32 275.25 -27.35 277.35 -21.65 279.5 -16.15 280.5 -10.7 281.45 -5.3 281.6 -0.8 281.8 3.7 281.7 6.4 281.55 9.1 281.6 9.2 283.15 0.8 282.85 -8.2 282.55 -17.15 280.05 -26.45 277.55 -35.95 272.25 -44.9 266.95 -53.9 259.5 -61.3 259.05 -61.7 256.5 -63.7 253.95 -65.65 249.25 -68.55 244.55 -71.45 237.65 -74.55 230.75 -77.65 221.75 -80.1 212.75 -82.6 202.05 -83.8 191.4 -85 179.65 -84.35 167.95 -83.8 155.4 -81.05 142.85 -78.3 130.2 -73.25 117.55 -68.15 105.5 -60.6 101.05 -57.9 96.7 -54.65 92.3 -51.45 88.6 -48.65 85.2 -46 81.75 -43.4 78.3 -40.8 74.65 -38.45 67.4 -33.5 59.65 -29.25 51.95 -24.95 43.55 -21.2 36.6 -16.2 29.45 -12.75 22.3 -9.25 15.65 -7.5 Z"/>
</g>

<g id="RD_Prun_Tail_2_Layer1_5_FILL">
<path fill="#62BC4D" stroke="none" d="
M 7.45 -5.85
Q 5.15 -5.7 3.3 -5.75 0.4 -5.75 -1.8 -4.65 -4 -3.55 -5.2 -1.75 -6.4 0 -6.35 2.05 7.3 3.15 20.9 1.55 34.45 -0.1 47.55 -4 60.65 -7.95 72.95 -13.8 82.3 -18 91 -23.4 99.7 -28.8 108.1 -34.5 116.55 -40.05 125.65 -44.45 134.75 -48.85 144.35 -51.95 157.15 -56 170.55 -57.6 184 -59.2 197.35 -57.95 210.7 -56.65 223.35 -52.05 229.6 -49.7 235.45 -46.5 241.35 -43.3 246.5 -39.1 251.6 -34.9 255.7 -29.7 259.8 -24.5 262.3 -18.4 264.8 -12.3 265.65 -5.75 266.5 0.8 265.7 7.35 265.4 13.8 263.55 20.05 261.65 26.3 259.2 31.4 256.8 36.55 254.95 39.7 253.55 41.95 253.05 42.65 256.45 38.7 259.75 34.15 263.25 29.35 266.25 23.9 269.25 18.4 271.35 12.25 273.5 6 274.15 -0.45 274.8 -6.9 274.15 -13.1 273.55 -19.3 271.9 -24.7 270.8 -28.6 268.15 -33.15 265.5 -37.7 261.4 -42.45 257.35 -47.15 251.8 -51.6 246.3 -56.05 239.4 -59.75 230.3 -64.85 219 -68.05 207.75 -71.25 194.95 -72.15 182.2 -73.05 168.75 -71.3 155.3 -69.9 141.5 -65.2 127.7 -60.55 114.55 -53.35 101.45 -46.2 90.05 -37.25 78.9 -29.45 66.35 -23.05 53.85 -16.65 40.3 -12.25 26.75 -7.85 12.55 -6.1 9.8 -5.95 7.45 -5.85 Z"/>
</g>

<g id="RD_Prun_Tail_2_Layer1_6_FILL">
<path fill="#3A54A5" stroke="none" d="
M 244.9 52.3
Q 243.8134765625 53.83359375 243.45 54.35 243.87890625 53.871875 245.3 52.55
L 244.9 52.3
M 280.1 19.35
Q 280.6005859375 17.8955078125 281.05 16.3
L 280.5 16.1 280.1 19.35
M 261.65 -16.3
Q 261.8990234375 -15.0865234375 262.1 -13.9
L 262.75 -14
Q 261.8 -16 261.65 -16.3
M 162.9 -29.6
L 164.7 -29.15 164.55 -29.7
Q 163.6537109375 -29.6390625 162.9 -29.6 Z"/>

<path fill="#1D9AD6" stroke="none" d="
M 139.1 -101.25
Q 143.15 -104.05 145.75 -105.65 148.3 -107.25 148.35 -107.25 143.55 -106.7 137.25 -104.9 130.95 -103.15 124 -100.05 117.1 -96.95 110.35 -92.5 107.2 -90.5 103 -87.1 98.75 -83.7 94.1 -79.2 91.8 -77 89.45 -74.6 87.05 -72.2 84.85 -69.6
L 80.3 -64.35
Q 78.85 -62.3 77.55 -60.35 74 -54.8 70.25 -49.95 66.45 -45.1 63.25 -41.45 60 -37.8 58.05 -35.8 56.15 -34 52 -30.7 47.85 -27.45 42.25 -23.8 36.7 -20.1 30.5 -16.95 25.85 -14.6 21.3 -12.8 16.75 -10.95 12.85 -9.7 8.9 -8.45 6.2 -7.75 3.5 -7.05 2.5 -6.9 0.1 -6.35 -2.05 -5.25 -4.2 -4.2 -5.65 -2.6 -7.05 -1 -7.3 1.15 -7.45 3.25 -6.5 5.3 -5.55 7.4 -3.1 9 -0.65 10.55 3.6 11.1 19.45 13.1 34.4 12.25 49.35 11.4 63.25 8.6 77.15 5.75 89.9 1.8 94.6 0.15 99.25 -1.5 103.95 -3.1 108.3 -5 112.8 -6.95 116.95 -8.7 121.05 -10.45 123.9 -11.35 136.6 -15.65 147.5 -16.75 154 -17.55 160.75 -17.65 167.45 -17.7 173.75 -17.2 180.05 -16.65 185.3 -15.55 190.55 -14.55 194.25 -13.45 197.95 -12.35 200.2 -11.65 202.45 -10.95 203.3 -11.1 201.65 -13.35 197.7 -16.55 193.7 -19.75 188.25 -22.85 182.8 -26 176.8 -27.95 181.9 -28 187.6 -27.4 193.35 -26.85 199.1 -25.55 204.85 -24.3 210.1 -22.3 215.35 -20.3 219.5 -17.45 223.7 -14.55 226 -12.35 228.25 -10.15 229.2 -8.6 230.15 -7.05 230.35 -6.15 230.6 -5.25 230.75 -5 230.95 -4.3 231.15 -3.3 231.4 -2.35 231.45 -1.55 232.1 -2.4 232.6 -3.6 233.05 -4.75 233.55 -5.85 234.8 -9.15 234.65 -12.35 234.55 -15.5 233.6 -18.25 232.65 -21.05 231.4 -23.25 230.15 -25.4 229.2 -26.8 233.6 -25.05 238.15 -22.45 242.7 -19.85 246.65 -16.15 250.65 -12.4 253.35 -7.2 255.4 -3.5 256.45 0.2 257.5 3.9 257.9 7.05 258.3 10.2 258.3 12.25 258.35 14.25 258.3 14.6 258.25 18.6 257.65 22.7 260.4 17.75 262.3 12.35 264.2 7 264.9 1.25 265.25 4.15 264.85 8.15 264.4 12.1 263.3 16.65 262.2 21.2 260.45 25.85 258.7 30.5 256.25 34.75 253.1 40.45 250.1 44.9 247.1 49.35 245.15 52 245.025390625 52.170703125 244.9 52.3
L 245.3 52.55
Q 247.45 50.6 251.05 46.95 254.65 43.3 258.85 38.1 263.1 32.9 267.15 26.25 269.75 21.8 271.8 16.75 273.8 11.7 275 6.3 276.15 0.95 276.3 -4.4 276.45 -9.7 275.8 -14.4 275.15 -19.1 274.1 -22.9 273.05 -26.75 272 -29.45 273.3 -27.35 274.25 -25 275.2 -22.65 276.2 -20.3 279 -12.7 280.05 -5.6 281.05 1.5 281 7.15 280.9 12.85 280.5 16.1
L 281.05 16.3
Q 282.075390625 12.8857421875 282.9 8.9 284.1 3.05 284.45 -3.55 284.75 -10.1 283.75 -17.05 282.9 -24 280.55 -30.85 278.2 -37.75 274.8 -43.9 271.4 -50.05 267.4 -54.85 258.4 -66 247.05 -74.4 235.75 -82.85 221.6 -88.65 207.25 -94.25 190.95 -96.05 174.65 -97.85 156.7 -94.9 150.95 -94 144.35 -91.75 137.8 -89.5 131.1 -86.4 124.4 -83.35 118.35 -79.95 112.25 -76.6 107.55 -73.45 109.8 -76 113.35 -79.6 116.9 -83.25 121.3 -87.2 125.65 -91.15 130.35 -94.8 135 -98.45 139.1 -101.25
M 77.5 -53
Q 79.05 -55.3 80.7 -57.7 82.35 -60.05 84.6 -62.75 92.1 -71.55 100.45 -79.1 108.85 -86.55 117.55 -92.15 126.25 -97.7 134.35 -101.2 129.7 -98.05 124.9 -94 120.1 -90 115.75 -85.8 111.35 -81.65 107.9 -78.1 104.45 -74.5 102.5 -72.25 100.5 -70.05 100.55 -69.85 98.65 -67.5 96.75 -65.2 94.85 -62.9 93.2 -60.5 95.5 -62.5 98 -64.3 100.5 -66.1 102.95 -68 110.5 -73.45 118.95 -77.8 127.35 -82.1 136.3 -85.15 145.25 -88.25 154.4 -90 171.65 -93.25 187.85 -92 204.05 -90.7 218.4 -85.55 232.75 -80.45 244.5 -72.2 256.25 -64 264.6 -53.4 269.25 -47.85 272.55 -41.5 275.9 -35.15 277.95 -28.55 280.05 -21.95 280.8 -15.55 279.3 -21.6 276.35 -27.55 273.4 -33.55 269.6 -38.7 265.8 -43.85 261.75 -47.5 258.1 -50.8 254.2 -53.7 250.35 -56.6 246.3 -58.95 249.9 -56 253.2 -52.65 256.45 -49.25 259.4 -45.6 259.4 -45.5 260.65 -43.85 261.95 -42.25 263.9 -39.15 265.9 -36.05 267.9 -31.55 269.9 -27.1 271.35 -21.3 272.95 -15.6 273.1 -9.25 273.25 -2.95 272.05 3.55 270.85 10 268.4 16.1 266 22.2 262.55 27.35 264.25 23.25 265.35 18.4 266.45 13.6 266.75 8.6 267.05 3.65 266.4 -0.8 265.75 -5.25 264.7 -8.6 263.65 -12 262.75 -14
L 262.1 -13.9
Q 262.80859375 -9.2572265625 262.65 -4.7 262.45 1.05 260.85 6.4 260.5 2.55 258.8 -2.15 257.1 -6.85 254.2 -11.4 251.3 -15.95 247.35 -19.35 243.4 -22.7 238.95 -25 234.55 -27.35 230.35 -28.95 226.2599609375 -30.526953125 223.1 -31.65 223.3490234375 -31.4251953125 224.25 -30.25 225.35 -28.75 226.95 -26.2 228.5 -23.65 229.9 -20.65 231.35 -17.6 232 -14.75 232.7 -11.85 232.05 -9.65 231.15 -11.45 228.4 -14.25 225.65 -17 220.35 -20.3 215.1 -23.4 208.55 -25.65 202 -27.9 195 -29 188.3 -29.9 182.05 -30.05 175.8 -30.2 170.8 -30 167.099609375 -29.8150390625 164.55 -29.7
L 164.7 -29.15
Q 166.5 -28.65 169.5 -27.75 172.55 -26.85 176.15 -25.55 179.7 -24.15 183.1 -22.45 186.5 -20.75 189.35 -19.1 192.15 -17.4 194 -16.05 192.45 -16.55 188 -17.75 183.55 -19 176.8 -20.1 170.05 -21.15 161.65 -21.35 153.2 -21.5 143.65 -19.9 137.1 -18.9 130.9 -17.15 124.75 -15.35 118 -12.7 111.3 -10.05 103.15 -6.35 91.75 -2 82.15 0.75 72.6 3.5 65.9 4.75 56.5 6.9 46.35 8.15 36.25 9.4 25.6 9.5 15 9.55 4.1 8.15 0.85 7.75 -0.95 6.65 -2.75 5.6 -3.4 4.2 -4.1 2.8 -3.9 1.45 -3.7 0 -2.3 -1.3 -0.9 -2.55 1.2 -3.5 3.3 -4.45 5.7 -4.85 9.15 -5.4 14.25 -6.9 19.4 -8.4 25.5 -10.95 31.65 -13.5 38.2 -17.3 44.75 -21.1 51.2 -26 57.65 -30.9 63.5 -36.55 69.35 -42.25 74 -48.35 75.95 -50.75 77.5 -53 Z"/>
</g>

<g id="RD_FrontLeg_3_4_hoof_6_Layer0_0_FILL">
<path fill="#9EDBF8" stroke="none" d="
M -0.95 -17.2
Q -8.6921875 -16.7904296875 -12.35 -12.4 -15.971875 -8.0099609375 -18.15 -4 -20.324609375 0.0544921875 -21.9 7.4 -23.42421875 14.7861328125 -17.1 18.5 -10.7796875 22.268359375 0.15 20.85 11.0783203125 19.4369140625 14.05 14.5 17.0837890625 9.596484375 17.4 1.25 17.7197265625 -7.051171875 12.3 -12.35 6.8671875 -17.5837890625 -0.95 -17.2 Z"/>
</g>

<g id="RD_KneePatch_1_Layer0_0_FILL">
<path fill="#6DABDD" stroke="none" d="
M 10.75 -8.3
L 10.75 -8.45
Q 10.999609375 -9.6171875 11 -10.9 11.0111328125 -16.75078125 6.7 -21.15 2.4033203125 -25.5216796875 -3.55 -25.85 -9.52421875 -26.1814453125 -13.85 -22.55 -18.2634765625 -18.8869140625 -18.25 -13.75
L -18.25 -13.7
Q -18.333203125 -9.8595703125 -15.45 -3.75
L -15.4 -3.65 -15.4 -3.6
Q -12.6767578125 2.0408203125 -9.8 10.1
L -9.75 10.2
Q -9.74140625 10.22421875 -9.75 10.25
L -9.75 10.25
Q -6.684765625 18.7166015625 -4.1 21.8
L -4.05 21.85
Q -1.2443359375 25.3462890625 3.45 25.6
L 3.5 25.6
Q 8.171875 25.7728515625 11.55 22.6 14.949609375 19.4423828125 15.4 15.75 15.955859375 12.0994140625 13.1 9.2 8.4591796875 3.042578125 10.65 -7.8 10.721875 -8.034375 10.75 -8.3 Z"/>
</g>

<g id="RD_HindLeg_3_4rear_lower_2_Layer1_0_FILL">
<path fill="#9EDBF8" stroke="none" d="
M -5.65 -3.6
Q -13.0958984375 2.169140625 -8.9 12.2 -5.18671875 19.70546875 7.6 6.9 17.0154296875 -1.388671875 11.5 -5.15 1.836328125 -8.4703125 -5.65 -3.6 Z"/>
</g>

<g id="RD_HindLeg_3_4rear_lower_2_Layer0_0_FILL">
<path fill="#9EDBF8" stroke="none" d="
M -10.2 3.35
Q -15.7921875 31.9404296875 -8.9 59.25
L 24.35 43.05
Q 15.0326171875 27.90546875 13.4 -2.55
L -10.2 3.35 Z"/>
</g>

<g id="RD_HindLeg_3_4_top_3_Layer1_0_FILL">
<path fill="#6DABDD" stroke="none" d="
M -19.65 44.3
Q -19.6541015625 43.8923828125 -19.7 43.45 -19.7474609375 43.891015625 -19.8 44.3
L -19.65 44.3
M 0.85 -4.4
L 0.85 -4.4
Q -8.440625 -7.578515625 -18.8 -4.85 -20.7306640625 -4.3076171875 -22.7 -3.6 -35.693359375 1.456640625 -37.3 12.75 -36.67265625 13.8740234375 -36.05 14.95 -35.9734375 15.0919921875 -35.9 15.2
L -35.5 15.95
Q -32.348046875 1.869921875 -18.8 -1.8 -4.6494140625 -5.201171875 3.15 0.8 4.996875 2.69765625 6.85 5.45 8.5537109375 7.9505859375 9.85 11.55 10.773828125 14.0306640625 11.95 18.6 13.480078125 24.059375 14 30.65 14.6548828125 37.772265625 13.95 44.3
L 16.5 44.3
Q 17.1921875 37.8173828125 16.9 31 16.514453125 22.81796875 14.85 16.7 12.33671875 7.5259765625 8.9 2.55 6.02890625 -1.5513671875 3.15 -3.35 2.012890625 -4.0341796875 0.85 -4.4
L 0.85 -4.4 Z"/>

<path fill="#9EDBF8" stroke="none" d="
M 6.85 5.45
Q 4.996875 2.69765625 3.15 0.8 -4.6494140625 -5.201171875 -18.8 -1.8 -32.348046875 1.869921875 -35.5 15.95
L -35.9 15.2
Q -41.54375 35.5021484375 -19.7 43.4
L -19.7 43.45
Q -19.6541015625 43.8923828125 -19.65 44.3
L 13.95 44.3
Q 14.6548828125 37.772265625 14 30.65 13.480078125 24.059375 11.95 18.6 10.773828125 14.0306640625 9.85 11.55 8.5537109375 7.9505859375 6.85 5.45 Z"/>
</g>

<g id="RD_HindLeg_3_4_top_3_Layer0_0_FILL">
<path fill="#6DABDD" stroke="none" d="
M 8.7 79.1
L 8.7 79.1
Q -3.7240234375 82.317578125 -15.9 55.05 -20.4896484375 46.2076171875 -20.85 37.15 -20.8546875 36.330078125 -20.85 35.45
L -20.85 35.4
Q -22.584375 41.745703125 -21.75 46.8 -20.8296875 51.911328125 -17.95 57.6
L -17.95 57.6
Q -11.971484375 69.1169921875 -6.05 75 -5.2890625 76.075390625 -4.35 77.05
L -4.35 77
Q -0.276953125 80.9404296875 5.2 80.6 7.4673828125 80.5080078125 8.7 79.1
M 14.45 15.7
L 10.9 14.4
Q 12.36328125 19.052734375 13 21.7 14.323046875 26.6453125 14.55 32.3 14.936328125 39.9142578125 12.65 49.15 10.4171875 58.4453125 9.3 62.55 8.17265625 66.672265625 9.1 73.05 9.75390625 77.3060546875 8.75 79.05 9.4486328125 78.3134765625 9.8 77.2 9.9109375 76.9609375 9.95 76.7 10.304296875 75.502734375 10.2 71.5 10.1513671875 67.5421875 11.45 63 12.7974609375 58.489453125 15.1 49.55 17.4509765625 40.6375 17.45 33.45 17.5064453125 26.2955078125 16.1 20.75 15.6138671875 18.894921875 14.45 15.7 Z"/>

<path fill="#9EDBF8" stroke="none" d="
M 12.65 49.15
Q 14.936328125 39.9142578125 14.55 32.3 14.323046875 26.6453125 13 21.7 12.36328125 19.052734375 10.9 14.4
L -8.9 17.15 -20.85 35.45
Q -20.8546875 36.330078125 -20.85 37.15 -20.4896484375 46.2076171875 -15.9 55.05 -3.7240234375 82.317578125 8.7 79.1
L 8.7 79.1 8.75 79.1
Q 8.764453125 79.1033203125 8.75 79.05 9.75390625 77.3060546875 9.1 73.05 8.17265625 66.672265625 9.3 62.55 10.4171875 58.4453125 12.65 49.15 Z"/>
</g>

<g id="RD_KneePatch_0_Layer0_0_FILL">
<path fill="#9EDBF8" stroke="none" d="
M 6.95 -3.8
Q 7.6271484375 -8.4921875 7.65 -8.75
L 7.65 -8.75
Q 7.6830078125 -8.7876953125 7.7 -8.85 7.850390625 -9.7474609375 7.85 -10.75 7.8390625 -15.39921875 4.4 -18.9 0.946484375 -22.4283203125 -3.85 -22.7 -8.6259765625 -22.9685546875 -12.1 -20.1 -15.376171875 -17.3716796875 -15.4 -13.55
L -15.4 -13.55
Q -15.40625 -10.530078125 -12.6 -4.2
L -12.4 -3.7
Q -12.324609375 -3.590625 -12.3 -3.5 -12.2001953125 -3.3171875 -12.15 -3.15 -12.0654296875 -3.0400390625 -12 -2.95
L -12 -2.9 -11.95 -2.8
Q -9.565234375 2.4005859375 -7.1 9.35 -7.0333984375 9.4712890625 -7.05 9.6 -4.2322265625 17.2533203125 -1.9 20.1
L -1.9 20.1
Q 0.112890625 22.6044921875 3.45 22.75 6.435546875 22.852734375 8.7 21.1
L 8.7 21.15
Q 19.876171875 11.2931640625 12.45 5.8 11.055859375 5.381640625 9.7 4.45 9.7404296875 4.5390625 9.75 4.6 8.476171875 3.9505859375 7.75 2.7 6.5830078125 1.1353515625 6.75 -1.95 6.7810546875 -2.8294921875 6.9 -3.8
L 6.95 -3.8 Z"/>
</g>

<g id="WingcycleBACK_0_Layer10_0_FILL">
<path fill="#6DABDD" stroke="none" d="
M 37.1 -31.5
Q 36.9337890625 -31.7923828125 36.65 -32 29.7408203125 -36.956640625 19.45 -27.5 10.6431640625 -19.3396484375 -1 0.25 -0.2255859375 1.8009765625 0.55 3.45 1.590234375 5.63984375 2.6 7.9 21.5359375 0.659765625 32.1 -10.55
L 32.1 -10.55
Q 42.445703125 -22.2884765625 37.1 -31.5 Z"/>
</g>

<g id="WingcycleBACK_0_Layer9_0_FILL">
<path fill="#6DABDD" stroke="none" d="
M 48.45 -87.15
Q 48.2017578125 -87.4244140625 47.8 -87.55 36.4708984375 -91.2404296875 22.65 -65.9
L 22.65 -65.85
Q 10.2498046875 -42.6376953125 -3 -3.65 -1.2603515625 -0.3990234375 0.55 3.45 0.5947265625 3.5439453125 0.65 3.65 20.2513671875 -15.9509765625 33.4 -36.15
L 33.4 -36.15
Q 59.1951171875 -76.438671875 48.45 -87.15 Z"/>
</g>

<g id="WingcycleBACK_0_Layer8_0_FILL">
<path fill="#6DABDD" stroke="none" d="
M 39.95 -136.3
Q 38.201171875 -137.0595703125 35.9 -136.4 35.8396484375 -136.3765625 35.75 -136.35 18.709375 -130.31015625 11.3 -84.6 10.2119140625 -77.963671875 9.3 -70.75
L 9.3 -70.75
Q 3.1037109375 -24.0564453125 -4.45 -6.3 -2.7513671875 -3.3140625 -1 0.25 19.923828125 -43.2966796875 29.9 -72.15 38.199609375 -96.059765625 41.2 -109.15 42.1669921875 -113.164453125 42.7 -116.5 45.618359375 -134.03671875 40 -136.25 39.9986328125 -136.2748046875 39.95 -136.3 Z"/>
</g>

<g id="WingcycleBACK_0_Layer7_0_FILL">
<path fill="#6DABDD" stroke="none" d="
M 8.8 -140.7
Q 6.096484375 -141.85390625 2.5 -139.3 2.355859375 -139.1451171875 2.2 -139 -12.843359375 -120.0134765625 -6.1 -64.15 -2.2759765625 -32.2111328125 -5.7 -8.5 -4.78671875 -7.0611328125 -2.7 -3.05 6.570703125 -23.932421875 11.35 -53.55
L 11.35 -53.6
Q 16.2986328125 -84.5990234375 15.9 -109.25
L 15.9 -109.3
Q 15.9740234375 -128.0640625 13.1 -135.4 11.44921875 -139.7919921875 8.8 -140.7 Z"/>
</g>

<g id="WingcycleBACK_0_Layer5_0_FILL">
<path fill="#9EDBF8" stroke="none" d="
M 34.65 -29.6
Q 29.413671875 -32.5275390625 21.45 -25.2 12.5908203125 -16.9498046875 0.7 3.25
L 1.65 4.95
Q 19.8130859375 -1.989453125 29.9 -12.7 38.3166015625 -22.207421875 34.65 -29.6 Z"/>
</g>

<g id="WingcycleBACK_0_Layer4_0_FILL">
<path fill="#9EDBF8" stroke="none" d="
M 25.25 -64.35
L 25.25 -64.4
Q 12.521484375 -40.5158203125 -1.1 0.05 -0.93671875 0.3951171875 -0.8 0.7 18.1619140625 -18.2669921875 30.9 -37.85
L 30.9 -37.85
Q 54.600390625 -74.864453125 46.6 -84.65 37.3291015625 -86.5267578125 25.25 -64.35 Z"/>
</g>

<g id="WingcycleBACK_0_Layer3_0_FILL">
<path fill="#9EDBF8" stroke="none" d="
M 38.3 -109.85
Q 39.219921875 -113.7509765625 39.7 -117
L 39.7 -117.05
Q 42.1447265625 -131.4853515625 38.75 -133.45
L 38.8 -133.45
Q 37.9078125 -133.7611328125 36.7 -133.45 21.2595703125 -127.4001953125 14.25 -84.15 13.178125 -77.5201171875 12.25 -70.4 6.18828125 -24.620703125 -1.25 -6.2 17.75859375 -46.13828125 27.1 -73.2 35.3337890625 -96.8462890625 38.3 -109.85 Z"/>
</g>

<g id="WingcycleBACK_0_Layer2_0_FILL">
<path fill="#9EDBF8" stroke="none" d="
M 12.85 -109.2
L 12.85 -109.25
Q 12.9587890625 -127.2185546875 10.3 -134.25 9.2521484375 -137.0671875 7.7 -137.8 6.3109375 -138.19453125 4.4 -136.9 -9.5876953125 -118.378515625 -3.15 -64.6 -0.547265625 -43.1681640625 -1.7 -26.15 -2.387109375 -19.0310546875 -3.85 -13.45
L -3.85 -13.5
Q -4.5908203125 -10.6203125 -5.55 -8.2 -4.330078125 -6.141015625 -3.1 -3.8 -1.2689453125 -7.5638671875 0 -12.45
L 0 -12.45
Q 1.5998046875 -18.4451171875 2.35 -26.15 5.9609375 -38.9314453125 8.4 -54.05 13.3138671875 -84.7814453125 12.85 -109.2 Z"/>
</g>

<g id="WingcycleBACK_0_Layer1_0_FILL">
<path fill="#9EDBF8" stroke="none" d="
M 9.2 -81.2
Q 7.1 -81.2 6.6 -70.35 4.9 -41.25 4.9 -41.1 4.15 -37.2 4.15 -36.2 1.1 -21.5 1.1 -21.35 1.1 -20.25 0.25 -18.45 -0.6 -16.65 -0.6 -16.2 -0.6 -12.95 -4.05 -5.7
L -4.1 -5.65
Q -2.31015625 -0.9751953125 -0.55 2 1.2587890625 4.974609375 2.4 7.7 7.9810546875 3.8025390625 18.5 -5.65 14.6986328125 -7.0439453125 2.75 3.05 2.8 2.791015625 2.8 2.5 2.7181640625 2.3537109375 2.65 2.2 9.75 -3.635546875 9.75 -4.9 9.75 -8 14.55 -15.35 19.35 -22.75 19.35 -24.5 19.4 -26.45 17.35 -26.45 17.15 -26.45 7.65 -12.6 4.936328125 -8.621875 3 -5.7 4.335546875 -9.9765625 7.25 -16.75 12.65 -29.35 12.65 -31.65 12.65 -32.65 13.4 -34.7 13.35 -36.95 11.65 -36.95 9.5 -36.95 6.1 -25.1 6.4 -27.15 7.75 -31.85 9.05 -36.4 9.3 -38.4 12.4 -38.5 12.4 -42 12.4 -43 11.5 -55 12.15 -81.2 9.2 -81.2 Z"/>
</g>

<g id="RD_FrontLeg_3_4_hoof_11_Layer0_0_FILL">
<path fill="#6DABDD" stroke="none" d="
M 17 -14.7
L 17 -14.75
Q 13.2947265625 -22.103515625 5.85 -24.55 -1.5326171875 -26.9390625 -8.25 -22.9
L -8.3 -22.9
Q -14.2681640625 -19.2318359375 -16.65 -12.25 -16.7095703125 -12.1240234375 -16.75 -12 -18.8623046875 -5.1681640625 -20.1 3.15 -20.090234375 3.22890625 -20.1 3.3 -20.9037109375 14.259375 -8.95 21.8 -8.87421875 21.828125 -8.8 21.85 -2.87265625 24.74140625 3.8 22.85
L 3.85 22.8
Q 18.45859375 17.8275390625 19.55 4.35
L 19.55 4.45
Q 20.3158203125 -0.8623046875 19.1 -7.5 18.6923828125 -11.2048828125 17 -14.7
M 14.6 -13.25
L 14.6 -13.3
Q 15.707421875 -11.0302734375 16.15 -8.7 16.17109375 -8.456640625 16.2 -8.25 16.312109375 -7.805078125 16.4 -7.4 16.6583984375 -5.9748046875 16.8 -4.65 17.44453125 0.0908203125 16.9 4 16.8861328125 4.065625 16.85 4.1 15.7603515625 15.616796875 3.05 19.95
L 3.1 19.9
Q -2.6326171875 21.560546875 -7.75 19.1
L -7.6 19.15
Q -17.842578125 12.691796875 -17.4 3.45 -16.7109375 -1.0279296875 -15.8 -5.1 -15.2990234375 -7.1427734375 -14.75 -9.1
L -14.65 -9.45
Q -14.5974609375 -9.6119140625 -14.55 -9.8 -14.376953125 -10.4140625 -14.2 -11.05 -14.1177734375 -11.2125 -14.1 -11.4
L -14.05 -11.4
Q -11.9736328125 -17.192578125 -6.95 -20.25
L -7 -20.25
Q -1.2203125 -23.706640625 5.1 -21.65 11.4658203125 -19.561328125 14.6 -13.25 Z"/>

<path fill="#9EDBF8" stroke="none" d="
M 14.6 -13.3
L 14.6 -13.25
Q 11.4658203125 -19.561328125 5.1 -21.65 -1.2203125 -23.706640625 -7 -20.25
L -6.95 -20.25
Q -11.9736328125 -17.192578125 -14.05 -11.4
L -14.1 -11.4
Q -14.1177734375 -11.2125 -14.2 -11.05 -14.376953125 -10.4140625 -14.55 -9.8 -14.5974609375 -9.6119140625 -14.65 -9.45
L -14.75 -9.1
Q -15.2990234375 -7.1427734375 -15.8 -5.1 -16.7109375 -1.0279296875 -17.4 3.45 -17.842578125 12.691796875 -7.6 19.15
L -7.75 19.1
Q -2.6326171875 21.560546875 3.1 19.9
L 3.05 19.95
Q 15.7603515625 15.616796875 16.85 4.1 16.8861328125 4.065625 16.9 4 17.44453125 0.0908203125 16.8 -4.65 16.6583984375 -5.9748046875 16.4 -7.4 16.312109375 -7.805078125 16.2 -8.25 16.17109375 -8.456640625 16.15 -8.7 15.707421875 -11.0302734375 14.6 -13.3 Z"/>
</g>

<g id="RD_FrontLeg_3_4_upper_20_Layer1_0_FILL">
<path fill="#9EDBF8" stroke="none" d="
M 5.5 -1.05
L -5.95 -1.05
Q -23.45 30.8 -32.7 58.35
L 11.65 62.95
Q 12.4 41.65 5.5 -1.05 Z"/>
</g>

<g id="RD_HoofWrinkle_2_Layer0_0_FILL">
<path fill="#6DABDD" stroke="none" d="
M -6.15 0.85
Q -6.28046875 0.943359375 -6.4 1.05
L -6.05 1
Q 0.4029296875 -1.28125 5.95 0.8
L 6.4 0.9
Q 6.229296875 0.7560546875 6.05 0.6 3.57890625 -1.2400390625 -0.2 -1.1 -3.897265625 -1.0052734375 -6.15 0.85 Z"/>
</g>

<g id="RD_Torso_0_Layer1_0_FILL">
<path fill="#6DABDD" stroke="none" d="
M 23.2 -25.3
L 23.15 -25.3
Q 13.6134765625 -36.3685546875 0.1 -36.35 -13.413671875 -36.3685546875 -23 -25.3
L -23 -25.3
Q -33.85 -12.65 -33.5 1.85 -33 18.5 -26.15 26.5 -21.66640625 31.7732421875 -13.9 34.5 -7.2111328125 36.9048828125 0.1 36.9 17.13203125 36.8990234375 25.65 26.85 28.45 23.6 30.65 17.8 33.45 10.3 33.7 1.85 34.05 -12.65 23.2 -25.3
M 0.1 -33.35
Q 12.2779296875 -33.331640625 20.9 -23.35
L 20.9 -23.35 20.9 -23.35
Q 30.45 -12.15 30.7 1.85 30.95 16.1 23.35 24.9 15.568359375 33.90078125 0.1 33.9 -6.6890625 33.8951171875 -12.9 31.65 -19.83359375 29.2265625 -23.85 24.55 -30.2 17 -30.5 1.15 -30.7 -11.65 -20.7 -23.35
L -20.75 -23.35 -20.7 -23.35
Q -12.069921875 -33.331640625 0.1 -33.35 Z"/>

<path fill="#F4B6D1" stroke="none" d="
M -20.7 -23.35
L -20.7 -23.35 -20.75 -23.35 -20.7 -23.35
M 20.9 -23.35
L 20.9 -23.35 20.9 -23.35 20.9 -23.35 Z"/>

<path fill="#9EDBF8" stroke="none" d="
M 20.9 -23.35
Q 12.2779296875 -33.331640625 0.1 -33.35 -12.069921875 -33.331640625 -20.7 -23.35
L -20.7 -23.35
Q -30.7 -11.65 -30.5 1.15 -30.2 17 -23.85 24.55 -19.83359375 29.2265625 -12.9 31.65 -6.6890625 33.8951171875 0.1 33.9 15.568359375 33.90078125 23.35 24.9 30.95 16.1 30.7 1.85 30.45 -12.15 20.9 -23.35
L 20.9 -23.35 Z"/>
</g>

<g id="RD_Prun_Mane_cycle_3_Layer0_0_FILL">
<path fill="#1D9AD6" stroke="none" d="
M 22.95 -36.85
Q 12.1 -36.55 0.65 -36.75 -10.75 -37 -22.2 -37.5
L -22.55 53.8
Q -9.8 51.15 2.95 48.3 15.65 45.35 28.7 41.75 41.7 38.1 55.2 33.35 62 30.9 68.4 28 74.85 25.1 80.8 22 86.8 18.9 92.2 15.85 96.4 13.5 100.5 11.2 104.55 8.85 108.4 6.7 110.95 5.3 113.5 3.9 116.05 2.5 118.4 1.3 120.75 0.1 122.65 -0.75 117.7 -0.9 112 -0.3 106.2 0.25 99.9 1.25 93.65 2.3 87.15 3.35 80.7 4.4 74.4 5.2 82.25 0.3 89.85 -4.75 97.45 -9.8 105.1 -14.7 108.9 -17.15 113.1 -19.45 117.25 -21.75 121.85 -23.45 126.2 -25.15 130.65 -26.65 135.1 -28.15 139.35 -29.55 134.7 -30.45 129.9 -31.35 125 -32.25 119.65 -32.75 114.35 -33.3 108.25 -32.9 100.45 -32.6 93.2 -32.05 85.9 -31.55 79.05 -31.1 82.7 -33.95 86.35 -36.75 90.05 -39.6 94.25 -42.5 96.3 -43.95 98.45 -45.4 100.55 -46.85 102.9 -48.25 104.5 -49.2 106.1 -50.15 107.7 -51.1 109.7 -52.05 111.7 -53 114.6 -53.95 111.55 -53.55 109.3 -53.15 107.15 -52.8 105.35 -52.4 103.55 -52 101.7 -51.6 99.05 -51 96.6 -50.4 94.1 -49.8 91.7 -49.15 88.45 -48.3 85.5 -47.5 82.55 -46.7 79.7 -45.95 76.95 -45.2 74.05 -44.45 68.2 -42.85 63.1 -41.65 57.95 -40.45 53.2 -39.6 48.4 -38.75 43.6 -38.2 33.85 -37.15 22.95 -36.85 Z"/>
</g>

<g id="RD_Prun_Mane_cycle_3_Layer0_1_FILL">
<path fill="#672E8A" stroke="none" d="
M 122.65 -0.75
Q 117.7 -0.9 112 -0.35 106.2 0.25 99.9 1.25 93.65 2.3 87.15 3.35 80.7 4.4 74.4 5.2 78.25 2.7 81.95 0.15 85.7 -2.35 89.35 -4.9 80.85 -1.3 71.9 1.9 62.95 5.05 53.7 7.6 44.45 10.15 35.05 11.65 21 14.1 7 15.65 -7.05 17.2 -21.05 18.3
L -22.55 53.85
Q -9.8 51.15 2.95 48.25 15.65 45.4 28.7 41.75 41.7 38.15 55.2 33.4 62 30.9 68.4 28 74.85 25.1 80.8 22 86.8 18.9 92.2 15.85 96.4 13.55 100.5 11.2 104.55 8.85 108.4 6.7 110.95 5.3 113.5 3.9 116.05 2.5 118.4 1.3 120.75 0.1 122.65 -0.75 Z"/>
</g>

<g id="RD_Prun_Mane_cycle_3_Layer0_2_FILL">
<path fill="#62BC4E" stroke="none" d="
M 22.95 -36.85
Q 12.1 -36.55 0.65 -36.75 -10.75 -37 -22.25 -37.5
L -22.35 -8.1
Q -6.05 -8.7 10.05 -9.95 26.15 -11.25 41.55 -13.8 51.45 -15.5 61.25 -18.5 71.05 -21.55 81.3 -25.2 91.55 -28.9 102.75 -32.65 96.45 -32.35 90.55 -31.9 84.65 -31.45 79 -31.1 82.7 -33.95 86.35 -36.75 90.05 -39.6 94.2 -42.5 96.3 -43.95 98.4 -45.4 100.55 -46.85 102.85 -48.25 104.5 -49.2 106.05 -50.15 107.7 -51.1 109.65 -52.05 111.65 -53 114.55 -53.95 111.5 -53.55 109.3 -53.15 107.1 -52.8 105.3 -52.4 103.55 -52 101.7 -51.6 99.05 -51 96.6 -50.4 94.1 -49.8 91.7 -49.15 88.4 -48.3 85.45 -47.5 82.5 -46.7 79.7 -45.95 76.9 -45.2 74.05 -44.45 68.2 -42.85 63.1 -41.65 57.95 -40.45 53.15 -39.6 48.4 -38.75 43.6 -38.2 33.8 -37.15 22.95 -36.85 Z"/>
</g>

<g id="RD_Prun_Mane_cycle_3_Layer0_3_FILL">
<path fill="#1D9AD6" stroke="none" d="
M 38.65 -40.75
Q 34.95 -40.35 30.65 -40 26.35 -39.65 21.8 -39.4 17.2 -39.2 12.55 -39.05 6.95 -38.85 1.7 -38.8 -3.55 -38.7 -8.1 -38.7 -12.65 -38.7 -16.1 -38.8 -19.5 -38.8 -21.45 -38.85 -23.4 -38.85 -23.45 -38.85 -23.1 7.65 -22.65 54.15 -22.6 54.1 -20.15 53.7 -17.7 53.35 -13.3 52.55 -8.9 51.75 -3 50.7 2.9 49.6 9.85 48.15 16.75 46.75 24.25 45 30.4 43.55 36.85 41.85 43.25 40.2 49.55 38.25 55.8 36.3 61.6 34.15 67.2 32 71.8 29.95 76.4 27.95 79.75 26.25 83.1 24.6 84.9 23.5 87.6 21.9 90.9 19.85 94.2 17.75 97.75 15.45 101.25 13.15 104.75 10.85 108.2 8.5 111.25 6.4 113.25 5 115.2 3.8 117.1 2.55 118.6 1.6 120.1 0.6 120.9 0 122.8 -1.05 124.05 -1.65
L 125.3 -2.2 124 -2.35
Q 122.75 -2.5 120.65 -2.65 119.6 -2.8 117.8 -2.8 116.05 -2.75 113.85 -2.55 111.55 -2.35 109.1 -2.1 105.4 -1.65 101.3 -0.95 97.2 -0.3 93 0.5 88.8 1.3 84.85 2.2 80.9 3.1 77.45 3.95 81.9 1.9 86.85 -0.95 91.75 -3.9 97 -7.2 102.3 -10.55 107.75 -13.8 113.2 -17.05 118.65 -19.85 124.35 -22.2 129.2 -24.05 134.1 -25.9 137.75 -27.25 141.45 -28.55 143.45 -29.3 145.5 -30 145.5 -30.05 145.4 -30.05 142.3 -30.75 139.25 -31.5 133.85 -32.55 128.4 -33.6 121.15 -34.5 112.55 -34.95 104.9 -34.45 97.25 -33.95 90.95 -33 84.65 -32.1 79.95 -31.3 82.85 -32.9 86.65 -35.35 90.45 -37.85 94.85 -40.7 99.25 -43.55 103.9 -46.25 105.7 -47.25 107.5 -48.2 109.25 -49.2 111.3 -50.1 113.2 -50.75 114.55 -51.25 115.85 -51.75 116.8 -52.15 117.8 -52.5 118.75 -52.9 121.45 -53.95 122.85 -54.5 124.3 -55 124.3 -55.05 124.25 -55.05 121.8 -55.05 119.3 -55.05 114.05 -54.75 109.45 -54.25 105.6 -53.65 101.75 -53 98.15 -52.3 94.5 -51.6 90.55 -50.75 84.95 -49.5 79.6 -48.35 74.25 -47.2 69.5 -46.2 64.8 -45.15 61.05 -44.45 57.35 -43.7 54.95 -43.3 52.3 -42.75 48.25 -42.05 44.15 -41.35 38.65 -40.75
M 0.65 -35.2
Q 11.3 -35 21.55 -35.25 31.75 -35.5 41.2 -36.35 47.85 -36.95 54.75 -38.35 61.7 -39.7 69.2 -41.65 76.7 -43.55 85.1 -45.75 93.5 -48 103.2 -50.35 98.95 -47.75 95.05 -45.05 91.2 -42.4 87.55 -39.65 84.2 -37.05 80.8 -34.45 77.35 -31.85 74 -29.3 80.8 -29.65 87.75 -30.15 94.7 -30.65 102.2 -31.1 104.75 -31.2 107.2 -31.3 109.7 -31.4 112.45 -31.45 115.15 -31.45 118.3 -31.3 122.25 -31 125.9 -30.4 129.6 -29.85 133.15 -29.2 128.6 -27.65 124.1 -26.05 119.6 -24.4 114.85 -22.2 110.55 -19.95 106.55 -17.45 102.55 -15.05 98.65 -12.45 90.9 -7.35 83.2 -2.25 75.45 2.85 67.1 7.65 75.6 6.7 83.95 5.4 92.3 4.05 100.3 2.85 108.3 1.55 115.85 0.85 108.9 4.55 101.5 8.8 94.05 13.05 86 17.4 78 21.8 69.25 25.85 60.45 29.9 50.9 33.2 38.5 37.35 26.5 40.65 14.5 43.95 2.65 46.7 -9.2 49.35 -20.95 51.85
L -20.75 -35.85
Q -10.05 -35.4 0.65 -35.2 Z"/>
</g>

<g id="RD_Neck_0_Layer0_0_FILL">
<path fill="#F4B6D1" stroke="none" d="
M -8.5 -95
L -9.05 -95.1 -9.05 -95.05 -8.5 -95
M 17.15 -95.1
L 17.65 -95.1 17.65 -95.15 17.15 -95.1 Z"/>

<path fill="#9EDBF8" stroke="none" d="
M 17.1 -93.6
L 17.15 -95.1 17.65 -95.15
Q 17.35 -105.8 4.4 -107.35 -8.35 -106.95 -9.05 -95.1
L -8.5 -95 -8.6 -93.5
Q -9 -84.8 -14.05 -36.5 -15 -27.3 -15.7 -19.6
L -15.8 -18.7 -15.8 -18.65 -15.85 -18.1
Q -16.3 -13.5 -18.2 -8 -18.39453125 -5.665625 -1.15 -0.05 24.5900390625 -5.5109375 24.5 -7.4 22.65 -12.8 22.35 -17.25
L 22.35 -17.4 22.25 -18.75
Q 21.65 -26.9 20.8 -36.7 16.9 -82.4 17.1 -93.6 Z"/>

<path fill="#6DABDD" stroke="none" d="
M 4.65 -109.35
Q 4.55 -109.35 4.5 -109.35 -10.35 -108.95 -11.05 -95.15
L -11.5 -95.15 -11.6 -93.65
Q -12 -85 -17.05 -36.8 -18 -27.6 -18.7 -19.85
L -18.85 -18.4
Q -18.85 -18.35 -18.85 -18.25 -19.3 -13.65 -18.2 -8 -16.3 -13.5 -15.85 -18.1
L -15.8 -18.65 -15.8 -18.7 -15.7 -19.6
Q -15 -27.3 -14.05 -36.5 -9 -84.8 -8.6 -93.5
L -8.5 -95 -9.05 -95.05 -9.05 -95.1
Q -8.35 -106.95 4.4 -107.35 17.35 -105.8 17.65 -95.15
L 17.65 -95.1 17.15 -95.1 17.1 -93.6
Q 16.9 -82.4 20.8 -36.7 21.65 -26.9 22.25 -18.75
L 22.35 -17.4 22.35 -17.25
Q 22.65 -12.8 24.5 -7.4 25.65 -12.95 25.35 -17.35 25.35 -17.4 25.35 -17.45
L 25.25 -18.95
Q 24.65 -27.1 23.8 -36.95 19.9 -82.4 20.1 -93.55
L 20.15 -95.05 19.65 -95.05
Q 19.55 -107.6 4.65 -109.35 Z"/>
</g>

<g id="Wingcycle_0_Layer9_0_FILL">
<path fill="#6DABDD" stroke="none" d="
M 37.1 -31.5
Q 36.9337890625 -31.7923828125 36.65 -32 29.7408203125 -36.956640625 19.45 -27.5 10.6431640625 -19.3396484375 -1 0.25 -0.2255859375 1.8009765625 0.55 3.45 1.590234375 5.63984375 2.45 7.6 21.5359375 0.659765625 32.1 -10.55
L 32.1 -10.55
Q 42.445703125 -22.2884765625 37.1 -31.5 Z"/>
</g>

<g id="Wingcycle_0_Layer8_0_FILL">
<path fill="#6DABDD" stroke="none" d="
M 48.45 -87.15
Q 48.2017578125 -87.4244140625 47.8 -87.55 36.4708984375 -91.2404296875 22.65 -65.9
L 22.65 -65.85
Q 10.2498046875 -42.6376953125 -3 -3.65 -1.2603515625 -0.3990234375 0.55 3.45 0.5947265625 3.5439453125 0.65 3.65 0.6751953125 3.6248046875 0.7 3.6 20.2681640625 -15.9767578125 33.4 -36.15
L 33.4 -36.15
Q 59.1951171875 -76.438671875 48.45 -87.15 Z"/>
</g>

<g id="Wingcycle_0_Layer7_0_FILL">
<path fill="#6DABDD" stroke="none" d="
M 39.95 -136.3
Q 38.201171875 -137.0595703125 35.9 -136.4 35.8396484375 -136.3765625 35.75 -136.35 18.709375 -130.31015625 11.3 -84.6 10.2119140625 -77.963671875 9.3 -70.75
L 9.3 -70.75
Q 3.1037109375 -24.0564453125 -4.45 -6.3 -2.7513671875 -3.3140625 -1 0.25 19.923828125 -43.2966796875 29.9 -72.15 38.199609375 -96.059765625 41.2 -109.15 42.1669921875 -113.164453125 42.7 -116.5 45.618359375 -134.03671875 40 -136.25 39.9986328125 -136.2748046875 39.95 -136.3 Z"/>
</g>

<g id="Wingcycle_0_Layer6_0_FILL">
<path fill="#6DABDD" stroke="none" d="
M 8.8 -140.7
Q 6.096484375 -141.85390625 2.5 -139.3 2.355859375 -139.1451171875 2.2 -139 -12.843359375 -120.0134765625 -6.1 -64.15 -2.2759765625 -32.2111328125 -5.7 -8.4 -4.78671875 -7.0611328125 -2.7 -3.05 6.570703125 -23.932421875 11.35 -53.55
L 11.35 -53.6
Q 16.2986328125 -84.5990234375 15.9 -109.25
L 15.9 -109.3
Q 15.9740234375 -128.0640625 13.1 -135.4 11.44921875 -139.7919921875 8.8 -140.7 Z"/>
</g>

<g id="Wingcycle_0_Layer5_0_FILL">
<path fill="#9EDBF8" stroke="none" d="
M 34.65 -29.6
Q 29.413671875 -32.5275390625 21.45 -25.2 12.5908203125 -16.9498046875 0.7 3.25
L 1.65 4.95
Q 19.8130859375 -1.989453125 29.9 -12.7 38.3166015625 -22.207421875 34.65 -29.6 Z"/>
</g>

<g id="Wingcycle_0_Layer4_0_FILL">
<path fill="#9EDBF8" stroke="none" d="
M 25.25 -64.35
L 25.25 -64.4
Q 12.521484375 -40.5158203125 -1.1 0.05 -0.93671875 0.3951171875 -0.8 0.7 18.1619140625 -18.2669921875 30.9 -37.85
L 30.9 -37.85
Q 54.600390625 -74.864453125 46.6 -84.65 37.3291015625 -86.5267578125 25.25 -64.35 Z"/>
</g>

<g id="Wingcycle_0_Layer3_0_FILL">
<path fill="#9EDBF8" stroke="none" d="
M 38.75 -133.5
Q 37.875 -133.7525390625 36.7 -133.45 21.2595703125 -127.4001953125 14.25 -84.15 13.178125 -77.5201171875 12.25 -70.4 6.18828125 -24.620703125 -1.25 -6.2 17.75859375 -46.13828125 27.1 -73.2 35.3337890625 -96.8462890625 38.3 -109.85 39.219921875 -113.7509765625 39.7 -117
L 39.7 -117.05
Q 42.1447265625 -131.4853515625 38.75 -133.45
L 38.8 -133.45
Q 38.7751953125 -133.45859375 38.75 -133.5 Z"/>
</g>

<g id="Wingcycle_0_Layer2_0_FILL">
<path fill="#9EDBF8" stroke="none" d="
M 12.85 -109.2
L 12.85 -109.25
Q 12.9587890625 -127.2185546875 10.3 -134.25 9.2521484375 -137.0671875 7.7 -137.8 6.3109375 -138.19453125 4.4 -136.9 -9.5876953125 -118.378515625 -3.15 -64.6 -0.547265625 -43.1681640625 -1.7 -26.15 -2.387109375 -19.0310546875 -3.85 -13.45
L -3.85 -13.5
Q -4.5908203125 -10.6203125 -5.55 -8.2 -4.330078125 -6.141015625 -3.1 -3.8 -1.2689453125 -7.5638671875 0 -12.45
L 0 -12.45
Q 1.5998046875 -18.4451171875 2.35 -26.15 5.9609375 -38.9314453125 8.4 -54.05 13.3138671875 -84.7814453125 12.85 -109.2 Z"/>
</g>

<g id="Wingcycle_0_Layer1_0_FILL">
<path fill="#9EDBF8" stroke="none" d="
M 9.2 -81.2
Q 7.1 -81.2 6.6 -70.35 4.9 -41.25 4.9 -41.1 4.15 -37.2 4.15 -36.2 1.1 -21.5 1.1 -21.35 1.1 -20.25 0.25 -18.45 -0.6 -16.65 -0.6 -16.2 -0.6 -12.95 -4.05 -5.7
L -4.1 -5.65
Q -1.916015625 -1.372265625 -0.35 1.8 1.266796875 4.9638671875 2.2 7.15 5.952734375 3.0478515625 18.5 -5.65 14.6986328125 -7.0439453125 2.75 3.05 2.8 2.791015625 2.8 2.5 2.7181640625 2.3537109375 2.65 2.2 9.75 -3.635546875 9.75 -4.9 9.75 -8 14.55 -15.35 19.35 -22.75 19.35 -24.5 19.4 -26.45 17.35 -26.45 17.15 -26.45 7.65 -12.6 4.936328125 -8.621875 3 -5.7 4.335546875 -9.9765625 7.25 -16.75 12.65 -29.35 12.65 -31.65 12.65 -32.65 13.4 -34.7 13.35 -36.95 11.65 -36.95 9.5 -36.95 6.1 -25.1 6.4 -27.15 7.75 -31.85 9.05 -36.4 9.3 -38.4 12.4 -38.5 12.4 -42 12.4 -43 11.5 -55 12.15 -81.2 9.2 -81.2 Z"/>
</g>

<g id="Wingcycle_0_Layer0_0_FILL">
<path fill="#6DABDD" stroke="none" d="
M 3.05 -75.5
L 2.85 -75.65 2.55 -75.65
Q -1.729296875 -76.1626953125 -3.6 -70.75 -5.1396484375 -66.25625 -4.75 -56.95 -4.7294921875 -56.43046875 -4.35 -56.1 -3.966796875 -55.726171875 -3.45 -55.75 -2.93046875 -55.769921875 -2.6 -56.15 -2.2265625 -56.533203125 -2.25 -57.05 -2.6103515625 -65.744140625 -1.2 -69.95 -0.1298828125 -73.0658203125 2.1 -73.15 10.2064453125 -67.9724609375 7.9 -33
L 9.45 -36.15
Q 18.3248046875 -54.3033203125 24.6 -52.45 27.626171875 -49.301171875 27.1 -43.7 25.4216796875 -26.041015625 5.05 -10.55
L 8.4 -11.85
Q 18.034375 -15.794140625 20.85 -11.2 23.51875 -4.7509765625 6.6 3.15 6.1546875 3.3931640625 5.95 3.85 5.8013671875 4.3578125 6 4.8 6.2427734375 5.29609375 6.7 5.45 7.20703125 5.648046875 7.65 5.4 27.4037109375 -3.812890625 23.05 -12.35
L 23.05 -12.4 23.05 -12.4
Q 20.7173828125 -16.9025390625 14.5 -16.15 28.1263671875 -27.2498046875 29.6 -43.45 30.2552734375 -50.6037109375 26.1 -54.45
L 25.9 -54.65 25.7 -54.75
Q 18.67265625 -57.7228515625 10.2 -42.95 12.348828125 -70.6638671875 3.05 -75.5 Z"/>
</g>

<g id="RD_Skull_2_Layer0_0_FILL">
<path fill="#6DABDD" stroke="none" d="
M 6.5 -52
Q 3.8232421875 -52.20390625 0.9 -52.25 -3.4978515625 -52.3205078125 -7.7 -51.65 -12.3541015625 -50.8947265625 -16.75 -49.2 -18.8431640625 -48.379296875 -20.75 -47.4 -26.1625 -44.578125 -30.1 -40.4 -30.1439453125 -40.3251953125 -30.25 -40.25 -30.637890625 -39.783203125 -31.05 -39.3 -31.219921875 -39.1001953125 -31.4 -38.9 -31.4419921875 -38.85 -31.5 -38.8 -32.3697265625 -37.730078125 -33.2 -36.65 -46.1 -20.0744140625 -46.1 -1.1 -46.1 11.3 -43.4 20.4 -40.6 29.75 -34.65 36.5 -27.65 44.55 -18.5 48.75 -9.25 53.05 1.5 53.05 22.65 53.05 37 36.5 42.8 29.9 45.45 20.1 47.85 11.1 47.9 -1.7 47.8548828125 -21.3345703125 36.05 -36.65 35.2205078125 -37.7357421875 34.3 -38.8 34.2921875 -38.8501953125 34.25 -38.9 33.8369140625 -39.4025390625 33.4 -39.9 33.247265625 -40.076171875 33.1 -40.25 33.019921875 -40.3251953125 32.95 -40.4 29.2015625 -44.5505859375 24.15 -47.25 20.981640625 -48.9029296875 17.3 -50 13.7369140625 -51.0845703125 9.45 -51.65 8.0302734375 -51.842578125 6.5 -52
M 30.35 -38.8
Q 30.7716796875 -38.38359375 31.15 -37.95 31.7154296875 -37.3041015625 32.25 -36.65 44.8521484375 -21.4498046875 44.9 -1.7 44.85 10.45 42.6 18.95 40.15 28.25 34.75 34.55 21.25 50.05 1.5 50.05 -8.55 50.05 -17.25 46.05 -25.8 42.1 -32.4 34.55 -38 28.1 -40.6 19.25 -43.1 10.65 -43.1 -1.1 -43.1 -20.5748046875 -29.4 -36.65 -29.10546875 -37.00078125 -28.8 -37.35 -28.15 -38.0984375 -27.5 -38.8 -27.4234375 -38.8501953125 -27.4 -38.9 -26.6900390625 -39.5982421875 -26 -40.25 -25.883984375 -40.325390625 -25.8 -40.4 -23.431640625 -42.5267578125 -20.75 -44.15 -17.675390625 -45.96484375 -14.2 -47.15 -7.25 -49.55 0.9 -49.25 10.95 -48.85 16.65 -47.2 20.4560546875 -46.0625 23.7 -44.15 26.42265625 -42.547265625 28.75 -40.4 28.8318359375 -40.325390625 28.9 -40.25 29.6146484375 -39.5994140625 30.25 -38.9 30.3234375 -38.85 30.35 -38.8 Z"/>

<path fill="#9EDBF8" stroke="none" d="
M 31.15 -37.95
Q 30.7716796875 -38.38359375 30.35 -38.8 30.3234375 -38.85 30.25 -38.9 29.6146484375 -39.5994140625 28.9 -40.25 28.8318359375 -40.325390625 28.75 -40.4 26.42265625 -42.547265625 23.7 -44.15 20.4560546875 -46.0625 16.65 -47.2 10.95 -48.85 0.9 -49.25 -7.25 -49.55 -14.2 -47.15 -17.675390625 -45.96484375 -20.75 -44.15 -23.431640625 -42.5267578125 -25.8 -40.4 -25.883984375 -40.325390625 -26 -40.25 -26.6900390625 -39.5982421875 -27.4 -38.9 -27.4234375 -38.8501953125 -27.5 -38.8 -28.15 -38.0984375 -28.8 -37.35 -29.10546875 -37.00078125 -29.4 -36.65 -43.1 -20.5748046875 -43.1 -1.1 -43.1 10.65 -40.6 19.25 -38 28.1 -32.4 34.55 -25.8 42.1 -17.25 46.05 -8.55 50.05 1.5 50.05 21.25 50.05 34.75 34.55 40.15 28.25 42.6 18.95 44.85 10.45 44.9 -1.7 44.8521484375 -21.4498046875 32.25 -36.65 31.7154296875 -37.3041015625 31.15 -37.95 Z"/>
</g>

<g id="RD_Mouth_front_chin__offcenter_0_Layer1_0_FILL">
<path fill="#9EDBF8" stroke="none" d="
M 37 3
Q 35.4482421875 1.9125 32.5 3.5 11.965625 12.7740234375 -7.2 2.65 -15.0669921875 10.61171875 -30.45 4.2 -34.428515625 2.26328125 -35.1 3.05 -26.379296875 13.5955078125 -14.6 17.85 3.9671875 24.438671875 20.35 16.8 31.5595703125 11.51484375 37 3 Z"/>
</g>

<g id="RD_Hair_07_9_Layer0_0_FILL">
<path fill="#FDF6AE" stroke="none" d="
M 8.55 -0.95
Q 6.398046875 -3.252734375 4 -5.7 1.6525390625 -8.1046875 -7.5 -14.6 -5.7623046875 -3.8810546875 -4.15 6 -0.330078125 1.0494140625 6.3 1.75 10.7513671875 1.3603515625 8.55 -0.95 Z"/>

<path fill="#1E98D5" stroke="none" d="
M 4 -5.7
Q 6.398046875 -3.252734375 8.55 -0.95 10.7513671875 1.3603515625 6.3 1.75 -0.330078125 1.0494140625 -4.15 6 -5.039453125 10.891015625 -3.65 9.65 -0.7775390625 5.3033203125 8.1 3.55 16.9814453125 1.8451171875 3.45 -9.7
L -5.35 -16.3
Q -9.184765625 -17.27734375 -7.5 -14.6 1.6525390625 -8.1046875 4 -5.7 Z"/>
</g>

<g id="RD_Ear_1_Layer1_0_FILL">
<path fill="#9EDBF8" stroke="none" d="
M 2.45 -35.95
Q 0.95 -33.9 0 -30.55 -0.8 -27.75 -2.05 -18.8
L -3.15 -10.35
Q -3.116796875 -10.236328125 -3.1 -10.15 2.44375 8.682421875 9.05 22.35 14.6 19.45 17.75 9.75 20.45 1.45 20.2 -4.95
L 20.2 -5
Q 19.9 -11.55 18.15 -17.5 16.5 -23.1 13.2 -29.1 8.85 -37.1 4.4 -37.75 3.55 -37.55 2.45 -35.95
M 9.35 -27.8
Q 14.55 -18.3 14.7 -10.15 14.8462890625 -2.0525390625 9.8 6.35 9.6794921875 6.5888671875 9.55 6.8
L 9.7 6.35
Q 15.65 -8.15 9.35 -27.8 Z"/>

<path fill="#6DABDD" stroke="none" d="
M 14.7 -10.15
Q 14.55 -18.3 9.35 -27.8 15.65 -8.15 9.7 6.35
L 9.55 6.8
Q 9.6794921875 6.5888671875 9.8 6.35 14.8462890625 -2.0525390625 14.7 -10.15
M 15.85 -30.55
Q 13 -35.75 9.45 -38.55 6.65 -40.8 4.65 -40.75
L 4.6 -40.75
Q 2.85 -41.05 0.95 -38.85 -1.1 -36.45 -2.85 -31.55 -4.3 -27.4 -4.65 -20.95 -5.0384765625 -13.7126953125 -3.3 -10.3
L -3.3 -10.3
Q -3.24765625 -10.1875 -3.2 -10.1
L -3.15 -10.35 -2.05 -18.8
Q -0.8 -27.75 0 -30.55 0.95 -33.9 2.45 -35.95 3.55 -37.55 4.4 -37.75 8.85 -37.1 13.2 -29.1 16.5 -23.1 18.15 -17.5 19.9 -11.55 20.2 -5
L 20.2 -4.95
Q 20.45 1.45 17.75 9.75 14.6 19.45 9.05 22.35
L 9.65 22.5
Q 15.5001953125 20.8228515625 19.5 11.75 23.5525390625 2.6892578125 23.2 -5.1 22.9 -12 21.05 -18.25 19.3 -24.2 15.85 -30.55 Z"/>
</g>

<g id="Mask_Mask_RD2_Eyewhite_3_4_1_Layer1_0_FILL">
<path fill="#FFFFFF" stroke="none" d="
M 19.8 -17.45
Q 18.8931640625 -19.258984375 17.7 -20.7
L 17.7 -20.65
Q 13.5314453125 -24.9595703125 7.3 -25.2 2.1509765625 -25.3900390625 -3.35 -22.8
L -3.35 -22.85
Q -5.1125 -21.846875 -6.85 -20.55 -8.8 -18.75 -10.55 -16.85 -12.1 -15.2 -13.4 -13.35 -14.85 -11.3 -16.1 -9.2 -17.35 -7 -18.45 -4.7 -19 -3.6 -19.55 -2.4 -20.067578125 -0.894921875 -20.5 0.65 -23.4314453125 11.3853515625 -19.45 19.15 -15.521484375 26.9826171875 -7.05 27.3 -6.3294921875 27.3373046875 -5.65 27.3 2.151171875 27.0375 9.6 20.25 16.1873046875 14.3169921875 19.35 6.15 20.1560546875 4.2439453125 20.75 2.2 22.1896484375 -3.109765625 21.95 -7.7 21.83984375 -13.462890625 19.8 -17.45 Z"/>
</g>

<g id="RD2_Eyewhite_3_4_1_Layer1_0_FILL">
<path fill="#FFFFFF" stroke="none" d="
M 19.8 -17.45
Q 18.8931640625 -19.258984375 17.7 -20.7
L 17.7 -20.65
Q 13.5314453125 -24.9595703125 7.3 -25.2 2.1509765625 -25.3900390625 -3.35 -22.8
L -3.35 -22.85
Q -5.1125 -21.846875 -6.85 -20.55 -8.8 -18.75 -10.55 -16.85 -12.1 -15.2 -13.4 -13.35 -14.85 -11.3 -16.1 -9.2 -17.35 -7 -18.45 -4.7 -19 -3.6 -19.55 -2.4 -20.067578125 -0.894921875 -20.5 0.65 -23.4314453125 11.3853515625 -19.45 19.15 -15.521484375 26.9826171875 -7.05 27.3 -6.3294921875 27.3373046875 -5.65 27.3 2.151171875 27.0375 9.6 20.25 16.1873046875 14.3169921875 19.35 6.15 20.1560546875 4.2439453125 20.75 2.2 22.1896484375 -3.109765625 21.95 -7.7 21.83984375 -13.462890625 19.8 -17.45 Z"/>
</g>

<g id="RD2_Iris_0_Layer2_0_FILL">
<path fill="url(#Gradient_1)" stroke="none" d="
M 17.7 -13.05
Q 13.45 -21.1 5.25 -22.95 -3 -24.85 -10.3 -19.4 -17.6 -14 -19.75 -4.45 -21.95 5.05 -17.7 13.1 -13.45 21.15 -5.2 23 3 24.85 10.3 19.45 17.6 14 19.8 4.5 21.95 -5 17.7 -13.05 Z"/>
</g>

<g id="RD2_Iris_0_Layer1_0_FILL">
<path fill="#FFB8E0" stroke="none" d="
M -6.5 7.8
Q -17.7408203125 11.0453125 -18.7 11 -17.71953125 13.7845703125 -15.6 16.55
L 0.15 6.6 -6.5 7.8 Z"/>
</g>

<g id="RD2_Iris_0_Layer0_0_FILL">
<path fill="#DB53A2" stroke="none" d="
M -20.2 5.15
Q -19.7849609375 8.212109375 -18.65 11.05
L 0.45 6.45 -20.2 5.15 Z"/>
</g>

<g id="RD2_Pupil_0_Layer0_0_FILL">
<path fill="#000000" stroke="none" d="
M 12.45 -9.6
Q 10.5203125 -15.9396484375 5.5 -17.45 0.487109375 -18.9677734375 -4.7 -14.75 -9.854296875 -10.4658203125 -12.15 -2.95 -14.402734375 4.56015625 -12.5 10.9 -10.484375 17.37421875 -5.45 18.9 -0.4265625 20.40234375 4.7 16.1 9.91484375 11.9001953125 12.15 4.4 14.43828125 -3.12578125 12.45 -9.6 Z"/>
</g>

<g id="RD2_Hilights_0_Layer1_0_FILL">
<path fill="#FFFFFF" stroke="none" d="
M -8.15 11.5
Q -8.11953125 11.614453125 -8.1 11.7 -8.0240234375 11.8134765625 -7.95 11.95 -7.7912109375 12.381640625 -7.55 12.75 -7.4705078125 12.844140625 -7.4 12.9 -7.2078125 13.113671875 -6.95 13.3 -6.50546875 13.6888671875 -6.05 13.8 -5.996875 13.8515625 -5.95 13.85 -5.6171875 13.9560546875 -5.2 13.95 -3.9484375 13.97890625 -3.4 12.75 -3.3849609375 12.698046875 -3.4 12.65 -3.1736328125 12.1291015625 -3.25 11.35 -3.259765625 11.128515625 -3.35 10.85 -3.3462890625 10.7740234375 -3.4 10.7 -3.7330078125 9.7962890625 -4.4 9.15 -4.435546875 9.108203125 -4.5 9.05 -4.72890625 8.870703125 -4.9 8.75 -5.579296875 8.305859375 -6.3 8.4 -7.123828125 8.352734375 -7.65 8.9 -7.813671875 9.0921875 -8 9.35 -8.0568359375 9.446484375 -8.1 9.55 -8.510546875 10.357421875 -8.15 11.5
M 3.85 -8.7
L 3.8 -8.75
Q 1.3921875 -11.8771484375 -1.15 -11.7 -4.233984375 -11.8736328125 -5.6 -8.2
L -5.6 -8.15
Q -6.528125 -5.45625 -5.75 -1.6 -5.0052734375 2.07265625 -3.05 4.6
L -3.05 4.6
Q -0.6041015625 7.82109375 2 7.65 5.12890625 7.837890625 6.4 4 7.375390625 1.40078125 6.6 -2.4
L 6.6 -2.45
Q 5.8041015625 -6.1376953125 3.85 -8.7 Z"/>
</g>

<g id="RD2_Iris_2_Layer2_0_FILL">
<path fill="url(#Gradient_1)" stroke="none" d="
M 17.7 -13.05
Q 13.45 -21.1 5.25 -22.95 -3 -24.85 -10.3 -19.4 -17.6 -14 -19.75 -4.45 -21.95 5.05 -17.7 13.1 -13.45 21.15 -5.2 23 3 24.85 10.3 19.45 17.6 14 19.8 4.5 21.95 -5 17.7 -13.05 Z"/>
</g>

<g id="RD2_Iris_2_Layer1_0_FILL">
<path fill="#FFB8E0" stroke="none" d="
M 13.45 16.85
Q 16.0119140625 13.9716796875 17.35 11.1 16.4345703125 11.1580078125 5.55 8.1
L -0.15 6.5 13.45 16.85 Z"/>
</g>

<g id="RD2_Iris_2_Layer0_0_FILL">
<path fill="#DB53A2" stroke="none" d="
M 17.35 11.4
Q 18.9265625 8.2283203125 19.75 5.1 9.7240234375 5.888671875 -0.25 6.5
L 17.35 11.4 Z"/>
</g>

<g id="RD2_Blink_front_0_Layer2_0_FILL">
<path fill="#000000" stroke="none" d="
M 21.9 -5.65
L 23.1 -7.3
Q 23.1501953125 -11.0392578125 22.05 -14.9 21.50234375 -16.8623046875 18.45 -20.35 15.1640625 -24.176953125 10.6 -25 1.2861328125 -26.751171875 -7.55 -20.4 -11.2509765625 -17.658984375 -14.3 -13.75 -17.4216796875 -9.651953125 -19.9 -2.9 -20.3908203125 -1.584375 -20.65 -0.25 -21.45 3.05 -21.55 5.3 -22.05 12.45 -21.05 15.3 -20.5654296875 16.36484375 -20.6 16.05 -21.7583984375 11.3294921875 -18.4 -0.35
L -17.55 -3
Q -15.6931640625 -8.214453125 -12.6 -12.2 -9.701171875 -15.798828125 -7.15 -17.95 8.8515625 -29.4330078125 18.45 -16.6 21.2458984375 -12.47421875 21.9 -5.65 Z"/>
</g>

<g id="RD2_Blink_front_0_Layer1_0_FILL">
<path fill="#000000" stroke="none" d="
M 34.5 -5.75
Q 34.45 -6.95 22.25 -8.95
L 22.65 -6.8
Q 34.55 -4.55 34.5 -5.75 Z"/>
</g>

<g id="RD2_Blink_front_0_Layer1_1_FILL">
<path fill="#000000" stroke="none" d="
M 21 -16.15
L 21.9 -14.05
Q 36.65 -16.1 36.25 -17.25 36.05 -17.8 29.15 -17.1 21.9 -16.25 21 -16.15 Z"/>
</g>

<g id="RD2_Blink_front_0_Layer1_2_FILL">
<path fill="#000000" stroke="none" d="
M 18.2 -19.05
Q 28 -25.85 26.8 -26.7 26 -27.15 16.95 -21.2
L 18.2 -19.05 Z"/>
</g>

<g id="RD2_Blink_front_100_Layer2_0_FILL">
<path fill="#000000" stroke="none" d="
M 21.9 -5.65
L 23.1 -7.3
Q 23.1501953125 -11.0392578125 22.05 -14.9 21.50234375 -16.8623046875 18.45 -20.35 15.1640625 -24.176953125 10.6 -25 1.2861328125 -26.751171875 -7.55 -20.4 -11.2509765625 -17.658984375 -14.3 -13.75 -17.4216796875 -9.651953125 -19.9 -2.9 -20.3908203125 -1.584375 -20.65 -0.25 -21.203125 2.1416015625 -21.4 5.3 -21.922265625 12.8583984375 -21.05 15.3 -20.5654296875 16.36484375 -20.6 16.05 -21.7583984375 11.3294921875 -18.4 -0.35
L -17.55 -3
Q -15.6931640625 -8.214453125 -12.6 -12.2 -9.701171875 -15.798828125 -7.15 -17.95 8.8515625 -29.4330078125 18.45 -16.6 21.2458984375 -12.47421875 21.9 -5.65 Z"/>
</g>

<g id="RD_Brow_front_1_Layer2_0_FILL">
<path fill="#9EDBF8" stroke="none" d="
M 3.1 -1.5
Q 8.665625 -11.21171875 2.1 -17.25 1.5234375 -21.40078125 -9.4 -25.45 -20.3255859375 -29.4990234375 -34.15 -13.7 -40.514453125 0.240625 -34.85 -1.55 -21.6294921875 -0.3052734375 -6.05 -1.7 -6.0109375 -1.5755859375 -6 -1.5
L 3.1 -1.5 Z"/>
</g>

<g id="RD_Lashes_02_6_Layer0_0_FILL">
<path fill="#000000" stroke="none" d="
M -0.05 5.95
L -0.3 8
Q 8.85 9.6 9.15 8.4 9.35 7.3 -0.05 5.95 Z"/>
</g>

<g id="RD_Lashes_02_6_Layer0_1_FILL">
<path fill="#000000" stroke="none" d="
M 0.25 1.75
L 0.15 3.95
Q 11.25 3.35 11.4 2.2 11.45 1.6 6.35 1.65 0.9 1.75 0.25 1.75 Z"/>
</g>

<g id="RD_Lashes_02_6_Layer0_2_FILL">
<path fill="#000000" stroke="none" d="
M 10.65 -2.75
Q 10.562890625 -3.4384765625 0.55 -2.3 -5.8814453125 -1.6576171875 -0.3 -0.1 10.7623046875 -1.566796875 10.65 -2.75 Z"/>
</g>

<g id="RD_Brow_front_1_Layer0_0_FILL">
<path fill="#000000" stroke="none" d="
M -1.1 -2
Q -3 -1.9 -15.25 -1.75 -27.6 -1.6 -30.8 -2.15 -33.65 -3.3 -33.95 -7.2
L -34 -7.2
Q -34.8 -5.2 -34.3 -2.85 -33.85 -0.55 -32.25 -0.25 -30.45 0.05 -16.45 0.3 -1.9 0.5 1 0.1 1.05 0.05 1.15 0.05 4.85 -1.3 1.05 -2.1 0.8 -2.15 -1.1 -2 Z"/>
</g>

<g id="RD_Mouth_front_hole__0_Layer4_0_FILL">
<path fill="#6DABDD" stroke="none" d="
M 10.3 3.5
L 10.25 3.45 10.25 3.5
Q 9.644140625 7.4646484375 7.15 10.1 4.3 13.15 0.05 13.2 -4.35 13.1 -6.7 10.4 -9.45 7.1 -10.5 2.9
L -10.55 2.85 -10.5 3.35
Q -10.9 7.8 -7.75 11.55 -7.5890625 11.7296875 -7.45 11.9 -4.50859375 14.9052734375 -0.25 15 4.7 15.05 7.55 12.05 10.4 8.95 10.3 3.5 Z"/>
</g>

<g id="RD_Mouth_front_nostril__0_Layer2_0_FILL">
<path fill="#6DABDD" stroke="none" d="
M -7.35 3.35
Q -6.7 5.05 -3.5 4.15 -5.65 3.2 -6 2.3 -6.5 1.25 -6.2 -0.15 -8 1.9 -7.35 3.35
M 4.05 4
Q 6.9 4.85 7.7 3.2 8.4 1.6 6.75 -0.3 7 1.05 6.55 2.1 6.15 3.1 4.05 4 Z"/>
</g>

<g id="RD_Cheek_0_Layer1_0_FILL">
<path fill="#9EDBF8" stroke="none" d="
M -13.65 -3.75
Q -16.0267578125 -3.7431640625 -18.3 -3.7 -20.0263671875 -3.6904296875 -20.9 -3.8 -21.223046875 -3.733984375 -21.55 -3.7
L -20.55 -1.2
Q -20.5072265625 -1.092578125 -20.45 -1
L -18 5.3
Q -0.6107421875 15.3609375 11.3 8.45 14.9248046875 5.441796875 14.75 2.15 13.9091796875 2.18671875 12.85 2 11.7677734375 1.863671875 10.45 1.45 9.4078125 1.183203125 8.2 0.75 -4.2572265625 -4.6009765625 -13.65 -3.75 Z"/>

<path fill="#6DABDD" stroke="none" d="
M -18.3 -3.7
Q -16.0267578125 -3.7431640625 -13.65 -3.75 -4.2572265625 -4.6009765625 8.2 0.75 9.4078125 1.183203125 10.45 1.45 11.7677734375 1.863671875 12.85 2 13.9091796875 2.18671875 14.75 2.15 14.90078125 2.1408203125 15.05 2.1 14.90234375 2.0078125 14.75 1.9 14.6515625 1.8080078125 14.55 1.7 13.4794921875 0.9662109375 12.35 0.4 -2.715234375 -6.280859375 -14.1 -5.55 -17.2962890625 -5.154296875 -20.3 -4.9
L -20.35 -4.85
Q -22.91953125 -4.0283203125 -20.9 -3.8 -20.0263671875 -3.6904296875 -18.3 -3.7 Z"/>
</g>

<g id="RD_Cheek_0_Layer0_0_FILL">
<path fill="#6DABDD" stroke="none" d="
M -18 -1.55
L -17.9 -1.35
Q -17.54609375 -1.069921875 -16.4 -0.6
L -16.4 -0.6
Q -13.845703125 0.619140625 -10.8 1.65
L -7.85 2.15
Q -12.6994140625 -0.2359375 -14.55 -1.05 -17.6279296875 -1.697265625 -18 -1.55 Z"/>
</g>

<g id="RD_Wrinkle_0_Layer0_0_FILL">
<path fill="#6DABDD" stroke="none" d="
M 6.4 0.9
Q 6.229296875 0.7560546875 6.05 0.6 3.57890625 -1.2400390625 -0.2 -1.1 -3.897265625 -1.0052734375 -6.15 0.85 -6.28046875 0.943359375 -6.4 1.05
L -6.05 1
Q 0.6 0 5.95 0.8
L 6.4 0.9 Z"/>
</g>

<g id="RD_Hair_01_19_Layer3_0_FILL">
<path fill="#1E98D5" stroke="none" d="
M 16.85 -5.25
L 13.4 -4.25
Q 0.05 -0.65 -11.3 6.2 -12.45 6.95 -13.55 7.65 -33.95 20.75 -47.9 44.55 -48.75 36.35 -47.85 28.1 -43.6 4.45 -32.35 -14.5
L -30.05 -18.1 -30.15 -18.2
Q -43.1 -3.9 -48.55 17.15 -49.9 21.85 -50.55 26.6 -52.2 37.95 -50.3 49.45
L -49.7 53.65 -49.6 53.65 -47.5 49.9
Q -33.35 23.95 -11.95 10.2
L -11.9 10.15
Q 1.5 1.4 12.85 -2.05 14.15 -2.55 15.6 -2.95 21.3 -4.75 27 -6.1 21.95 -6.25 16.85 -5.25
M 35.75 -28.15
Q 36.9 -29.3 35 -31.9 33.3 -33.25 31.65 -34.45 28.95 -36.45 26.4 -38.05 24.1 -39.6 22 -40.8 19.95 -40.2 18.05 -39.6 18.6 -39.25 19.25 -38.95 19.5 -38.8 19.9 -38.6 20 -38.5 20.2 -38.4 22.7 -36.95 25.35 -35.3 28.4 -33.25 31.65 -30.9 33.3 -29.7 35.75 -28.15 Z"/>

<path fill="#F37033" stroke="none" d="
M 19.9 -38.6
Q 19.5 -38.8 19.25 -38.95 18.6 -39.25 18.05 -39.6 -6.9 -52.4 -29.45 -18.95
L -29.5 -18.9
Q -29.551171875 -18.823046875 -29.6 -18.75 -29.7640625 -18.523046875 -29.95 -18.3
L -30.05 -18.1 -32.35 -14.5
Q -43.6 4.45 -47.85 28.1 -48.75 36.35 -47.9 44.55 -33.95 20.75 -13.55 7.65 -12.45 6.95 -11.3 6.2 3.7 -20.85 19.9 -38.6 Z"/>

<path fill="#FDF6AE" stroke="none" d="
M 31.65 -30.9
Q 28.4 -33.25 25.35 -35.3 22.7 -36.95 20.2 -38.4 20 -38.5 19.9 -38.6 3.7 -20.85 -11.3 6.2 0.05 -0.65 13.4 -4.25
L 16.85 -5.25
Q 21.95 -6.25 27 -6.1 28.75 -6.5 30.55 -6.85 32.85 -7.35 35.05 -7.75 37 -11.45 35.7 -13.05
L 35.75 -28.15
Q 33.3 -29.7 31.65 -30.9 Z"/>
</g>

<g id="RD_Hair_01_19_Layer2_0_FILL">
<path fill="#1E98D5" stroke="none" d="
M -34 -5.1
Q -34 -5.1361328125 -33.95 -5.2
L -35.1 -4.5 -34 -5.1
M -48 -2.5
Q -47.35 -3.95 -46.55 -5.4 -40.55 -18.75 -29.55 -28.6 -28.95 -29.1 -28.35 -29.65 -20.6 -36.4 -15.05 -40.2 -12.45 -42.1 -10.3 -43.35
L -5.5 -46.1
Q -9.4 -45.2 -13.6 -42.95 -15.85 -41.75 -19.2 -39.65 -19.3 -39.6 -19.35 -39.6 -41.4 -24.8 -50.7 -4.95 -54.25 2.45 -57.3 21.5 -46.6 6.55 -43.15 3.1 -38.65 -1.15 -34.1 -5 -49.75 5.6 -53.3 10.9 -51.05 3.85 -48 -2.5
M 27.4 -34.7
Q 28.9 -35.05 30.5 -35.35 28.4 -36.75 26.45 -38.1 25.7 -38.6 25 -39.05 23.45 -40 22.05 -40.85 21.85 -40.9 21.75 -41.05
L 21.7 -41
Q 17.4 -43.45 13.25 -45.2
L 4 -45.2
Q 6.6 -44.5 9.35 -43.5 9.95 -43.3 10.55 -43.05 14.25 -41.6 18.1 -39.6 18.1 -39.55 18.15 -39.5
L 19.8 -38.7 19.85 -38.65 27.4 -34.7 Z"/>

<path fill="#F37033" stroke="none" d="
M 19.8 -38.7
L 18.15 -39.5
Q 18.1 -39.55 18.1 -39.6 14.25 -41.6 10.55 -43.05 9.95 -43.3 9.35 -43.5 -18.6 -28.15 -46.55 -5.4 -47.35 -3.95 -48 -2.5 -51.05 3.85 -53.3 10.9 -49.75 5.6 -34.1 -5 -34.05 -5.05 -34 -5.1
L -35.1 -4.5 -33.95 -5.2
Q -34 -5.1361328125 -34 -5.1
L -33.9 -5.2
Q -11.95 -23.85 19.8 -38.7 Z"/>

<path fill="#EE4144" stroke="none" d="
M 9.35 -43.5
Q 6.6 -44.5 4 -45.2 -3.55 -47.1 -5.5 -46.1
L -10.3 -43.35
Q -12.45 -42.1 -15.05 -40.2 -20.6 -36.4 -28.35 -29.65 -28.95 -29.1 -29.55 -28.6 -40.55 -18.75 -46.55 -5.4 -18.6 -28.15 9.35 -43.5 Z"/>
</g>

<g id="RD_Hair_01_19_Layer1_0_FILL">
<path fill="#EE4144" stroke="none" d="
M 3.6 -43.4
Q 8.75 -43.5 8.8 -43.5 3.25 -45.55 -2.25 -46.45 -3.7 -46.65 -5.15 -46.75 -12.9 -47.2 -21.1 -44.55 -30.05 -41.65 -35.9 -36.1 -21.75 -41.1 -10.7 -42.1 -1.6 -43.3 3.6 -43.4 Z"/>

<path fill="#1E98D5" stroke="none" d="
M 22 -40.85
Q 21.85 -40.95 21.7 -41.05 18.6 -42.8 15.65 -44.15 13.95 -44.95 12.35 -45.6 12 -45.75 11.65 -45.9 3.05 -49.25 -5.6 -49.8 -14.25 -50.35 -26.95 -44.6 -39.7 -38.9 -49.25 -27.65 -28.3 -37.55 -12.25 -41.7
L -10.7 -42.1
Q -21.75 -41.1 -35.9 -36.1 -30.05 -41.65 -21.1 -44.55 -12.9 -47.2 -5.15 -46.75 -3.7 -46.65 -2.25 -46.45 3.25 -45.55 8.8 -43.5 11.15 -42.65 13.55 -41.6 13.7 -41.5 13.9 -41.4 18.05 -41.2 21.95 -40.85
L 22 -40.85 Z"/>
</g>

<g id="RD_Hair_01_19_Layer0_0_FILL">
<path fill="#FDF6AE" stroke="none" d="
M 16.95 -5.35
L 15.15 -2.2
Q 11.15 5.05 1.65 12.75 17.3 9.65 30.4 -6.65 30.5 -6.75 30.6 -6.9 31.15 -7.6 31.7 -8.35 33.4 -10.6 35.65 -13.1 24.95 -11.4 16.65 -5.25
L 16.95 -5.35 Z"/>

<path fill="#1E98D5" stroke="none" d="
M 15.15 -2.2
L 16.95 -5.35 16.65 -5.25
Q 14.7 -3.8 12.9 -2.15 7.6 5.5 -3.4 13
L -6.95 15.45 -6.7 16 -2.5 15.75
Q 15.9 15.4 31.7 -3.55 33.45 -5.6 35.15 -7.85 37.1 -11.5 35.75 -13.15
L 35.65 -13.1
Q 33.4 -10.6 31.7 -8.35 31.15 -7.6 30.6 -6.9 30.5 -6.75 30.4 -6.65 17.3 9.65 1.65 12.75 11.15 5.05 15.15 -2.2 Z"/>
</g>

<g id="RD_FrontLeg_3_4_hoof_16_Layer0_0_FILL">
<path fill="#9EDBF8" stroke="none" d="
M 13.5 -14.1
Q 8.6158203125 -21.20703125 1.25 -21.55 -6.066015625 -21.8431640625 -11.7 -15.75 -17.3447265625 -9.60234375 -18.25 -1.05 -19.15 7.5 -14.5 13.9 -9.9 20.35 -2.5 20.85 4.95 21.35 10.8 15.7 16.6 10.1 17.5 1.55 18.39453125 -6.9978515625 13.5 -14.1 Z"/>
</g>

<g id="RD_FrontLeg_3_4_upper_21_Layer1_0_FILL">
<path fill="#9EDBF8" stroke="none" d="
M 19.9 41.4
Q 17.5806640625 23.57890625 3.65 -1.05
L -4.65 -1.05
Q -20.1865234375 21.3873046875 -20.15 41.4
L 19.9 41.4 Z"/>
</g>

<path id="RD_FrontLeg_3_4_hoof_6_Layer0_0_1_STROKES" stroke="#6DABDD" stroke-width="3" stroke-linejoin="round" stroke-linecap="round" fill="none" d="
M -0.925 -17.175
Q 6.8671875 -17.5837890625 12.3 -12.325 17.7197265625 -7.051171875 17.4 1.275 17.0837890625 9.596484375 14.075 14.525 11.0783203125 19.4369140625 0.15 20.85 -10.7796875 22.268359375 -17.1 18.525 -23.42421875 14.7861328125 -21.875 7.425 -20.324609375 0.0544921875 -18.15 -3.975 -15.971875 -8.0099609375 -12.325 -12.4 -8.6921875 -16.7904296875 -0.925 -17.175 Z"/>

<path id="RD_HindLeg_3_4rear_lower_2_Layer1_0_1_STROKES" stroke="#6DABDD" stroke-width="3" stroke-linejoin="round" stroke-linecap="round" fill="none" d="
M -5.65 -3.6
Q 1.836328125 -8.4703125 11.5 -5.15 17.0154296875 -1.388671875 7.6 6.9 -5.18671875 19.70546875 -8.9 12.2 -13.0958984375 2.169140625 -5.65 -3.6 Z"/>

<path id="RD_HindLeg_3_4rear_lower_2_Layer0_0_1_STROKES" stroke="#6DABDD" stroke-width="3" stroke-linejoin="round" stroke-linecap="round" fill="none" d="
M -8.9 59.25
Q -15.7921875 31.9404296875 -10.2 3.35
M 13.4 -2.55
Q 15.0326171875 27.90546875 24.35 43.05"/>

<path id="RD_FrontLeg_3_4_upper_20_Layer1_0_1_STROKES" stroke="#6DABDD" stroke-width="3" stroke-linejoin="round" stroke-linecap="round" fill="none" d="
M -32.7 58.35
Q -23.45 30.8 -5.95 -1.05
M 11.65 62.95
Q 12.4 41.65 5.5 -1.05"/>

<path id="RD_Mouth_front_chin__offcenter_0_Layer1_0_1_STROKES" stroke="#6DABDD" stroke-width="3" stroke-linejoin="round" stroke-linecap="round" fill="none" d="
M 37 3
Q 31.5595703125 11.51484375 20.35 16.8 3.9671875 24.438671875 -14.6 17.85 -26.379296875 13.5955078125 -35.1 3.05"/>

<path id="RD_Hair_01_19_Layer3_0_1_STROKES" stroke="#C7C616" stroke-width="0.05" stroke-linejoin="round" stroke-linecap="round" fill="none" d="
M -30.15 -18.2
Q -30.05 -18.3 -30 -18.4 -29.8 -18.6 -29.55 -18.85 -29.5 -18.95 -29.45 -18.95
M -29.5 -18.9
L -29.55 -18.85
Q -29.5763671875 -18.797265625 -29.6 -18.75 -29.7640625 -18.523046875 -29.95 -18.3
L -30.05 -18.1"/>

<path id="RD_FrontLeg_3_4_hoof_16_Layer0_0_1_STROKES" stroke="#6DABDD" stroke-width="3" stroke-linejoin="round" stroke-linecap="round" fill="none" d="
M -11.7 -15.725
Q -17.3447265625 -9.60234375 -18.25 -1.05 -19.15 7.5 -14.5 13.9 -9.9 20.35 -2.5 20.85 4.95 21.35 10.8 15.7 16.6 10.1 17.5 1.55 18.39453125 -6.9978515625 13.5 -14.1 8.6158203125 -21.20703125 1.275 -21.525 -6.066015625 -21.8431640625 -11.7 -15.725 Z"/>

<path id="RD_FrontLeg_3_4_upper_21_Layer1_0_1_STROKES" stroke="#6DABDD" stroke-width="3" stroke-linejoin="round" stroke-linecap="round" fill="none" d="
M 19.9 41.4
Q 17.5806640625 23.57890625 3.65 -1.05
M -20.15 41.4
Q -20.1865234375 21.3873046875 -4.65 -1.05"/>
</defs>

<g transform="matrix( 1.555694580078125, 0.330963134765625, -0.330963134765625, 1.555694580078125, 347.75,219.9) ">
<g transform="matrix( 0.2110137939453125, 0, 0, 0.3922576904296875, -8.7,0.8) ">
<g transform="matrix( 1, 0, -0.0531768798828125, 1, 25.9,1) ">
<g transform="matrix( 1, 0, 0, 1, 0,0) ">
<use xlink:href="#RD_Prun_Tail_2_Layer1_0_FILL"/>
</g>

<g transform="matrix( 1, 0, 0, 1, 0,0) ">
<use xlink:href="#RD_Prun_Tail_2_Layer1_1_FILL"/>
</g>

<g transform="matrix( 1, 0, 0, 1, 0,0) ">
<use xlink:href="#RD_Prun_Tail_2_Layer1_2_FILL"/>
</g>

<g transform="matrix( 1, 0, 0, 1, 0,0) ">
<use xlink:href="#RD_Prun_Tail_2_Layer1_3_FILL"/>
</g>

<g transform="matrix( 1, 0, 0, 1, 0,0) ">
<use xlink:href="#RD_Prun_Tail_2_Layer1_4_FILL"/>
</g>

<g transform="matrix( 1, 0, 0, 1, 0,0) ">
<use xlink:href="#RD_Prun_Tail_2_Layer1_5_FILL"/>
</g>

<g transform="matrix( 1, 0, 0, 1, 0,0) ">
<use xlink:href="#RD_Prun_Tail_2_Layer1_6_FILL"/>
</g>
</g>
</g>

<g transform="matrix( 0.4132843017578125, -0.5472412109375, 0.6434783935546875, 0.6175537109375, -44.4,13.35) ">
<g transform="matrix( 0.8339996337890625, -0.3087158203125, 0.5523681640625, 0.6643524169921875, 13.15,66.7) ">
<g transform="matrix( 1, 0, 0, 1, 0,0) ">
<use filter="url(#Filter_1)" xlink:href="#RD_FrontLeg_3_4_hoof_6_Layer0_0_FILL"/>

<use filter="url(#Filter_1)" xlink:href="#RD_FrontLeg_3_4_hoof_6_Layer0_0_1_STROKES"/>
</g>
</g>

<g transform="matrix( 0.7404632568359375, -0.3578338623046875, 0.0124969482421875, 0.6438751220703125, 12,46.45) ">
<g transform="matrix( 1, 0, 0, 1, 0,0) ">
<use filter="url(#Filter_1)" xlink:href="#RD_KneePatch_1_Layer0_0_FILL"/>
</g>
</g>

<g transform="matrix( 0.9890594482421875, 0.223388671875, -0.159027099609375, 0.6988067626953125, 14.45,31.6) ">
<g transform="matrix( 1, 0, 0, 1, 0,0) ">
<use filter="url(#Filter_1)" xlink:href="#RD_HindLeg_3_4rear_lower_2_Layer1_0_FILL"/>

<use filter="url(#Filter_1)" xlink:href="#RD_HindLeg_3_4rear_lower_2_Layer1_0_1_STROKES"/>
</g>

<g transform="matrix( 1, 0, 0, 1, 0,0) ">
<use filter="url(#Filter_1)" xlink:href="#RD_HindLeg_3_4rear_lower_2_Layer0_0_FILL"/>

<use filter="url(#Filter_1)" xlink:href="#RD_HindLeg_3_4rear_lower_2_Layer0_0_1_STROKES"/>
</g>
</g>

<g transform="matrix( 1.05706787109375, 0, -0.2399139404296875, 0.793365478515625, 17.7,-4.6) ">
<g transform="matrix( 1, 0, 0, 1, 0,0) ">
<use filter="url(#Filter_1)" xlink:href="#RD_HindLeg_3_4_top_3_Layer1_0_FILL"/>
</g>

<g transform="matrix( 1, 0, 0, 1, 0,0) ">
<use filter="url(#Filter_1)" xlink:href="#RD_HindLeg_3_4_top_3_Layer0_0_FILL"/>
</g>
</g>

<g transform="matrix( 0.832244873046875, -0.314788818359375, -0.1527099609375, 0.5664520263671875, 8.95,45.8) ">
<g transform="matrix( 1, 0, 0, 1, 0,0) ">
<use filter="url(#Filter_1)" xlink:href="#RD_KneePatch_0_Layer0_0_FILL"/>
</g>
</g>
</g>

<g transform="matrix( 0.4132843017578125, -0.5472412109375, 0.6434783935546875, 0.6175537109375, -9.65,9.45) ">
<g transform="matrix( 0.8339996337890625, -0.3087158203125, 0.5523681640625, 0.6643524169921875, 13.15,66.7) ">
<g transform="matrix( 1, 0, 0, 1, 0,0) ">
<use xlink:href="#RD_FrontLeg_3_4_hoof_6_Layer0_0_FILL"/>

<use xlink:href="#RD_FrontLeg_3_4_hoof_6_Layer0_0_1_STROKES"/>
</g>
</g>

<g transform="matrix( 0.7404632568359375, -0.3578338623046875, 0.0124969482421875, 0.6438751220703125, 12,46.45) ">
<g transform="matrix( 1, 0, 0, 1, 0,0) ">
<use xlink:href="#RD_KneePatch_1_Layer0_0_FILL"/>
</g>
</g>

<g transform="matrix( 0.9890594482421875, 0.223388671875, -0.159027099609375, 0.6988067626953125, 14.45,31.6) ">
<g transform="matrix( 1, 0, 0, 1, 0,0) ">
<use xlink:href="#RD_HindLeg_3_4rear_lower_2_Layer1_0_FILL"/>

<use xlink:href="#RD_HindLeg_3_4rear_lower_2_Layer1_0_1_STROKES"/>
</g>

<g transform="matrix( 1, 0, 0, 1, 0,0) ">
<use xlink:href="#RD_HindLeg_3_4rear_lower_2_Layer0_0_FILL"/>

<use xlink:href="#RD_HindLeg_3_4rear_lower_2_Layer0_0_1_STROKES"/>
</g>
</g>

<g transform="matrix( 1.05706787109375, 0, -0.2399139404296875, 0.793365478515625, 17.7,-4.6) ">
<g transform="matrix( 1, 0, 0, 1, 0,0) ">
<use xlink:href="#RD_HindLeg_3_4_top_3_Layer1_0_FILL"/>
</g>

<g transform="matrix( 1, 0, 0, 1, 0,0) ">
<use xlink:href="#RD_HindLeg_3_4_top_3_Layer0_0_FILL"/>
</g>
</g>

<g transform="matrix( 0.832244873046875, -0.314788818359375, -0.1527099609375, 0.5664520263671875, 8.95,45.8) ">
<g transform="matrix( 1, 0, 0, 1, 0,0) ">
<use xlink:href="#RD_KneePatch_0_Layer0_0_FILL"/>
</g>
</g>
</g>

<g transform="matrix( -0.9999847412109375, 0, 0, 0.9999847412109375, -53.35,11.25) ">
<g transform="matrix( 1, 0, 0, 1, 0,0) ">
<use filter="url(#Filter_2)" xlink:href="#WingcycleBACK_0_Layer10_0_FILL"/>
</g>

<g transform="matrix( 1, 0, 0, 1, 0,0) ">
<use filter="url(#Filter_2)" xlink:href="#WingcycleBACK_0_Layer9_0_FILL"/>
</g>

<g transform="matrix( 1, 0, 0, 1, 0,0) ">
<use filter="url(#Filter_2)" xlink:href="#WingcycleBACK_0_Layer8_0_FILL"/>
</g>

<g transform="matrix( 1, 0, 0, 1, 0,0) ">
<use filter="url(#Filter_2)" xlink:href="#WingcycleBACK_0_Layer7_0_FILL"/>
</g>

<g transform="matrix( 1, 0, 0, 1, 0,0) ">
<use filter="url(#Filter_2)" xlink:href="#WingcycleBACK_0_Layer5_0_FILL"/>
</g>

<g transform="matrix( 1, 0, 0, 1, 0,0) ">
<use filter="url(#Filter_2)" xlink:href="#WingcycleBACK_0_Layer4_0_FILL"/>
</g>

<g transform="matrix( 1, 0, 0, 1, 0,0) ">
<use filter="url(#Filter_2)" xlink:href="#WingcycleBACK_0_Layer3_0_FILL"/>
</g>

<g transform="matrix( 1, 0, 0, 1, 0,0) ">
<use filter="url(#Filter_2)" xlink:href="#WingcycleBACK_0_Layer2_0_FILL"/>
</g>

<g transform="matrix( 1, 0, 0, 1, 0,0) ">
<use filter="url(#Filter_2)" xlink:href="#WingcycleBACK_0_Layer1_0_FILL"/>
</g>
</g>

<g transform="matrix( 0.6026611328125, 0.7979888916015625, -0.7890167236328125, 0.5959014892578125, -37.9,40.3) ">
<g transform="matrix( 1.243988037109375, 0.0895233154296875, -0.0872650146484375, 1.056610107421875, -9.4,63.65) ">
<g transform="matrix( 1, 0, 0, 1, 0,0) ">
<use xlink:href="#RD_FrontLeg_3_4_hoof_11_Layer0_0_FILL"/>
</g>
</g>

<g transform="matrix( 0.99993896484375, -0.00445556640625, -0.0002593994140625, 0.999969482421875, 1.9,0.4) ">
<g transform="matrix( 1, 0, 0, 1, 0,0) ">
<use xlink:href="#RD_FrontLeg_3_4_upper_20_Layer1_0_FILL"/>

<use xlink:href="#RD_FrontLeg_3_4_upper_20_Layer1_0_1_STROKES"/>
</g>
</g>

<g transform="matrix( 2.197784423828125, 0.1581268310546875, -0.257781982421875, 3.119873046875, -10.05,65.3) ">
<g transform="matrix( 1, 0, 0, 1, 0,0) ">
<use xlink:href="#RD_HoofWrinkle_2_Layer0_0_FILL"/>
</g>
</g>
</g>

<g transform="matrix( 1, 0, 0, 1, -19.95,24.8) ">
<g transform="matrix( 1, 0, 0, 1, 0,0) ">
<use xlink:href="#RD_Torso_0_Layer1_0_FILL"/>
</g>
</g>

<g transform="matrix( 0.1369476318359375, 0.00579833984375, -0.0221405029296875, 0.5221099853515625, -12.8,19.05) ">
<g transform="matrix( 0.9226226806640625, -0.112213134765625, 0.4949951171875, 0.9591064453125, -67.2,-51.5) ">
<g transform="matrix( 1, 0, 0, 1, 0,0) ">
<use xlink:href="#RD_Prun_Mane_cycle_3_Layer0_0_FILL"/>
</g>

<g transform="matrix( 1, 0, 0, 1, 0,0) ">
<use xlink:href="#RD_Prun_Mane_cycle_3_Layer0_1_FILL"/>
</g>

<g transform="matrix( 1, 0, 0, 1, 0,0) ">
<use xlink:href="#RD_Prun_Mane_cycle_3_Layer0_2_FILL"/>
</g>

<g transform="matrix( 1, 0, 0, 1, 0,0) ">
<use xlink:href="#RD_Prun_Mane_cycle_3_Layer0_3_FILL"/>
</g>
</g>
</g>

<g transform="matrix( 0.9025726318359375, -0.670166015625, 0.353546142578125, 0.6069183349609375, -24.25,20.75) ">
<g transform="matrix( 1, 0, 0, 1, 0,0) ">
<use xlink:href="#RD_Neck_0_Layer0_0_FILL"/>
</g>
</g>

<g transform="matrix( 0.9999847412109375, 0, 0, 0.9999847412109375, 3.9,11.25) ">
<g transform="matrix( 1, 0, 0, 1, 0,0) ">
<use xlink:href="#Wingcycle_0_Layer9_0_FILL"/>
</g>

<g transform="matrix( 1, 0, 0, 1, 0,0) ">
<use xlink:href="#Wingcycle_0_Layer8_0_FILL"/>
</g>

<g transform="matrix( 1, 0, 0, 1, 0,0) ">
<use xlink:href="#Wingcycle_0_Layer7_0_FILL"/>
</g>

<g transform="matrix( 1, 0, 0, 1, 0,0) ">
<use xlink:href="#Wingcycle_0_Layer6_0_FILL"/>
</g>

<g transform="matrix( 1, 0, 0, 1, 0,0) ">
<use xlink:href="#Wingcycle_0_Layer5_0_FILL"/>
</g>

<g transform="matrix( 1, 0, 0, 1, 0,0) ">
<use xlink:href="#Wingcycle_0_Layer4_0_FILL"/>
</g>

<g transform="matrix( 1, 0, 0, 1, 0,0) ">
<use xlink:href="#Wingcycle_0_Layer3_0_FILL"/>
</g>

<g transform="matrix( 1, 0, 0, 1, 0,0) ">
<use xlink:href="#Wingcycle_0_Layer2_0_FILL"/>
</g>

<g transform="matrix( 1, 0, 0, 1, 0,0) ">
<use xlink:href="#Wingcycle_0_Layer1_0_FILL"/>
</g>

<g transform="matrix( 1, 0, 0, 1, 0,0) ">
<use xlink:href="#Wingcycle_0_Layer0_0_FILL"/>
</g>
</g>

<g transform="matrix( 1, 0, 0, 1, -53.85,10.05) ">
<g transform="matrix( 1, 0, 0, 1.001922607421875, -6.4,-5.3) ">
<g transform="matrix( 1, 0, 0, 1, 0,0) ">
<use xlink:href="#RD_Skull_2_Layer0_0_FILL"/>
</g>
</g>

<g transform="matrix( 0.9992218017578125, 0.01165771484375, -0.1327056884765625, 1.042236328125, -6,25.45) ">
<g transform="matrix( 1, 0, 0, 1, 0,0) ">
<use xlink:href="#RD_Mouth_front_chin__offcenter_0_Layer1_0_FILL"/>

<use xlink:href="#RD_Mouth_front_chin__offcenter_0_Layer1_0_1_STROKES"/>
</g>
</g>

<g transform="matrix( 0.972503662109375, 0, 0.15093994140625, 1.0177459716796875, 25.6,-48.8) ">
<g transform="matrix( 1, 0, 0, 1, 0,0) ">
<use xlink:href="#RD_Hair_07_9_Layer0_0_FILL"/>
</g>
</g>

<g transform="matrix( -0.8562469482421875, -0.0888671875, -0.10308837890625, 0.993377685546875, -39.25,-31.85) ">
<g transform="matrix( 1, 0, 0, 1, 0,0) ">
<use xlink:href="#RD_Ear_1_Layer1_0_FILL"/>
</g>
</g>

<g transform="matrix( 0.997467041015625, 0.063507080078125, -0.063507080078125, 0.997467041015625, 29.85,-28.65) ">
<g transform="matrix( 1, 0, 0, 1, 0,0) ">
<use xlink:href="#RD_Ear_1_Layer1_0_FILL"/>
</g>
</g>

<mask id="Mask_Mask_1">
<g transform="matrix( -0.6017608642578125, -0.1415863037109375, -0.1660003662109375, 1.02447509765625, -35.6,-1.15) ">
<g transform="matrix( 1, 0, 0, 1, 0,0) ">
<use xlink:href="#Mask_Mask_RD2_Eyewhite_3_4_1_Layer1_0_FILL"/>
</g>
</g>
</mask>

<g mask="url(#Mask_Mask_1)">
<g transform="matrix( -0.6017608642578125, -0.1415863037109375, -0.1660003662109375, 1.02447509765625, -35.6,-1.15) ">
<g transform="matrix( 1, 0, 0, 1, 0,0) ">
<use xlink:href="#RD2_Eyewhite_3_4_1_Layer1_0_FILL"/>
</g>
</g>
</g>

<g mask="url(#Mask_Mask_1)">
<g transform="matrix( 0.47186279296875, -0.0417938232421875, 0.13232421875, 0.74530029296875, -32.1,0.35) ">
<g transform="matrix( 1, 0, 0, 1, 0,0) ">
<use xlink:href="#RD2_Iris_0_Layer2_0_FILL"/>
</g>

<g transform="matrix( 1, 0, 0, 1, 0,0) ">
<use xlink:href="#RD2_Iris_0_Layer1_0_FILL"/>
</g>

<g transform="matrix( 1, 0, 0, 1, 0,0) ">
<use xlink:href="#RD2_Iris_0_Layer0_0_FILL"/>
</g>
</g>
</g>

<g mask="url(#Mask_Mask_1)">
<g transform="matrix( -0.476593017578125, 0.0044097900390625, 0.006805419921875, 0.6275482177734375, -30.85,-0.15) ">
<g transform="matrix( 1, 0, 0, 1, 0,0) ">
<use xlink:href="#RD2_Pupil_0_Layer0_0_FILL"/>
</g>
</g>
</g>

<g mask="url(#Mask_Mask_1)">
<g transform="matrix( 0.6511688232421875, -0.0670928955078125, 0.172882080078125, 0.6851348876953125, -29.85,-7.7) ">
<g transform="matrix( 1, 0, 0, 1, 0,0) ">
<use xlink:href="#RD2_Hilights_0_Layer1_0_FILL"/>
</g>
</g>
</g>

<mask id="Mask_Mask_2">
<g transform="matrix( 0.859771728515625, 0, 0.1278076171875, 1.0453338623046875, 17.2,0.35) ">
<g transform="matrix( 1, 0, 0, 1, 0,0) ">
<use xlink:href="#Mask_Mask_RD2_Eyewhite_3_4_1_Layer1_0_FILL"/>
</g>
</g>
</mask>

<g mask="url(#Mask_Mask_2)">
<g transform="matrix( 0.859771728515625, 0, 0.1278076171875, 1.0453338623046875, 17.2,0.35) ">
<g transform="matrix( 1, 0, 0, 1, 0,0) ">
<use xlink:href="#RD2_Eyewhite_3_4_1_Layer1_0_FILL"/>
</g>
</g>
</g>

<g mask="url(#Mask_Mask_2)">
<g transform="matrix( -0.5610198974609375, -0.0517425537109375, -0.0706787109375, 0.736236572265625, 26,-1.8) ">
<g transform="matrix( 1, 0, 0, 1, 0,0) ">
<use xlink:href="#RD2_Iris_2_Layer2_0_FILL"/>
</g>

<g transform="matrix( 1, 0, 0, 1, 0,0) ">
<use xlink:href="#RD2_Iris_2_Layer1_0_FILL"/>
</g>

<g transform="matrix( 1, 0, 0, 1, 0,0) ">
<use xlink:href="#RD2_Iris_2_Layer0_0_FILL"/>
</g>
</g>
</g>

<g mask="url(#Mask_Mask_2)">
<g transform="matrix( 0.53680419921875, 0.0115814208984375, 0.08184814453125, 0.643402099609375, 27.95,-1.55) ">
<g transform="matrix( 1, 0, 0, 1, 0,0) ">
<use xlink:href="#RD2_Pupil_0_Layer0_0_FILL"/>
</g>
</g>
</g>

<g mask="url(#Mask_Mask_2)">
<g transform="matrix( 0.6678314208984375, 0.2051849365234375, 0.0124053955078125, 0.67279052734375, 30.35,-7.4) ">
<g transform="matrix( 1, 0, 0, 1, 0,0) ">
<use xlink:href="#RD2_Hilights_0_Layer1_0_FILL"/>
</g>
</g>
</g>

<g transform="matrix( -0.6017608642578125, -0.1415863037109375, -0.1660003662109375, 1.02447509765625, -35.6,-1.15) ">
<g transform="matrix( 1, 0, 0, 1, 0,0) ">
<use xlink:href="#RD2_Blink_front_0_Layer2_0_FILL"/>
</g>

<g transform="matrix( 1, 0, 0, 1, 0,0) ">
<use xlink:href="#RD2_Blink_front_0_Layer1_0_FILL"/>
</g>

<g transform="matrix( 1, 0, 0, 1, 0,0) ">
<use xlink:href="#RD2_Blink_front_0_Layer1_1_FILL"/>
</g>

<g transform="matrix( 1, 0, 0, 1, 0,0) ">
<use xlink:href="#RD2_Blink_front_0_Layer1_2_FILL"/>
</g>
</g>

<g transform="matrix( 0.8662109375, -0.0929107666015625, 0.1739959716796875, 1.01947021484375, 17.05,0.3) ">
<g transform="matrix( 1, 0, 0, 1, 0,0) ">
<use xlink:href="#RD2_Blink_front_100_Layer2_0_FILL"/>
</g>
</g>

<g transform="matrix( -0.60809326171875, -0.5243072509765625, -0.508544921875, 0.857421875, -42.8,-20.85) ">
<g transform="matrix( 1, 0, 0, 1, 0,0) ">
<use xlink:href="#RD_Brow_front_1_Layer2_0_FILL"/>
</g>

<g transform="matrix( 1, 0, 0, 1, 1.7,-0.05) ">
<g transform="matrix( 1, 0, 0, 1, 0,0) ">
<use xlink:href="#RD_Lashes_02_6_Layer0_0_FILL"/>
</g>

<g transform="matrix( 1, 0, 0, 1, 0,0) ">
<use xlink:href="#RD_Lashes_02_6_Layer0_1_FILL"/>
</g>

<g transform="matrix( 1, 0, 0, 1, 0,0) ">
<use xlink:href="#RD_Lashes_02_6_Layer0_2_FILL"/>
</g>
</g>

<g transform="matrix( 1, 0, 0, 1, 0,0) ">
<use xlink:href="#RD_Brow_front_1_Layer0_0_FILL"/>
</g>
</g>

<g transform="matrix( 0.924713134765625, -0.4334564208984375, 0.457275390625, 0.8568572998046875, 30.45,-17.85) ">
<g transform="matrix( 1, 0, 0, 1, 0,0) ">
<use xlink:href="#RD_Brow_front_1_Layer2_0_FILL"/>
</g>

<g transform="matrix( 1, 0, 0, 1, 1.7,-0.05) ">
<g transform="matrix( 1, 0, 0, 1, 0,0) ">
<use xlink:href="#RD_Lashes_02_6_Layer0_0_FILL"/>
</g>

<g transform="matrix( 1, 0, 0, 1, 0,0) ">
<use xlink:href="#RD_Lashes_02_6_Layer0_1_FILL"/>
</g>

<g transform="matrix( 1, 0, 0, 1, 0,0) ">
<use xlink:href="#RD_Lashes_02_6_Layer0_2_FILL"/>
</g>
</g>

<g transform="matrix( 1, 0, 0, 1, 0,0) ">
<use xlink:href="#RD_Brow_front_1_Layer0_0_FILL"/>
</g>
</g>

<g transform="matrix( 1.04473876953125, -0.17791748046875, 0.2764129638671875, 0.92706298828125, -14.35,25.7) ">
<g transform="matrix( 1, 0, 0, 1, 0,0) ">
<use xlink:href="#RD_Mouth_front_hole__0_Layer4_0_FILL"/>
</g>
</g>

<g transform="matrix( 1.00201416015625, 0.0025787353515625, 0.08404541015625, 0.9959716796875, -18.15,22.15) ">
<g transform="matrix( 1, 0, 0, 1, 0,0) ">
<use xlink:href="#RD_Mouth_front_nostril__0_Layer2_0_FILL"/>
</g>
</g>

<g transform="matrix( 0.85284423828125, -0.37200927734375, 0.05682373046875, 0.930206298828125, 21.5,19.2) ">
<g transform="matrix( 1, 0, 0, 1, 0,0) ">
<use xlink:href="#RD_Cheek_0_Layer1_0_FILL"/>
</g>

<g transform="matrix( 1, 0, 0, 1, 0,0) ">
<use xlink:href="#RD_Cheek_0_Layer0_0_FILL"/>
</g>
</g>

<g transform="matrix( 0.9800262451171875, 0.032135009765625, -0.1204071044921875, 0.9931640625, -16.75,25.2) ">
<g transform="matrix( 1, 0, 0, 1, 0.65,-8.5) ">
<g transform="matrix( 1, 0, 0, 1, 0,0) ">
<use xlink:href="#RD_Wrinkle_0_Layer0_0_FILL"/>
</g>
</g>
</g>

<g transform="matrix( 1.07415771484375, 0.0653076171875, 0.0907745361328125, 0.991790771484375, -13.5,-33.7) ">
<g transform="matrix( 1, 0, 0, 1, 0,0) ">
<use xlink:href="#RD_Hair_01_19_Layer3_0_FILL"/>

<use xlink:href="#RD_Hair_01_19_Layer3_0_1_STROKES"/>
</g>

<g transform="matrix( 1, 0, 0, 1, 0,0) ">
<use xlink:href="#RD_Hair_01_19_Layer2_0_FILL"/>
</g>

<g transform="matrix( 1, 0, 0, 1, 0,0) ">
<use xlink:href="#RD_Hair_01_19_Layer1_0_FILL"/>
</g>

<g transform="matrix( 1, 0, 0, 1, 0,0) ">
<use xlink:href="#RD_Hair_01_19_Layer0_0_FILL"/>
</g>
</g>
</g>

<g transform="matrix( -0.3125457763671875, -1.02899169921875, -0.8546295166015625, 0.2658233642578125, -2.3,49.05) ">
<g transform="matrix( 1.108154296875, 0.09967041015625, -0.077728271484375, 1.1765594482421875, -8.35,40.1) ">
<g transform="matrix( 1, 0, 0, 1, 0,0) ">
<use xlink:href="#RD_FrontLeg_3_4_hoof_16_Layer0_0_FILL"/>

<use xlink:href="#RD_FrontLeg_3_4_hoof_16_Layer0_0_1_STROKES"/>
</g>
</g>

<g transform="matrix( 0.9623260498046875, 0.271636962890625, -0.27618408203125, 0.9610443115234375, 2.7,0.35) ">
<g transform="matrix( 1, 0, 0, 1, 0,0) ">
<use xlink:href="#RD_FrontLeg_3_4_upper_21_Layer1_0_FILL"/>

<use xlink:href="#RD_FrontLeg_3_4_upper_21_Layer1_0_1_STROKES"/>
</g>
</g>

<g transform="matrix( 1.9949188232421875, 0.1793975830078125, -0.257781982421875, 3.89984130859375, -5.95,23.45) ">
<g transform="matrix( 1, 0, 0, 1, 0,0) ">
<use xlink:href="#RD_HoofWrinkle_2_Layer0_0_FILL"/>
</g>
</g>
</g>
</g>
</svg>
