
<svg xmlns="http://www.w3.org/2000/svg" version="1.1" xmlns:xlink="http://www.w3.org/1999/xlink" preserveAspectRatio="none" x="0px" y="0px" width="864px" height="486px" viewBox="0 0 864 486">
<defs>
<linearGradient id="Gradient_1" gradientUnits="userSpaceOnUse" x1="281.1875" y1="36.9375" x2="276.51250000000005" y2="60.3625" spreadMethod="pad">
<stop  offset="0%" stop-color="#590D39"/>

<stop  offset="19.607843137254903%" stop-color="#9C1862"/>

<stop  offset="22.745098039215687%" stop-color="#A01964"/>

<stop  offset="34.11764705882353%" stop-color="#AA1A6C"/>

<stop  offset="73.72549019607843%" stop-color="#BD1D78"/>

<stop  offset="100%" stop-color="#BF1D79"/>
</linearGradient>

<filter id="Filter_1" x="-20%" y="-20%" width="140%" height="140%" color-interpolation-filters="sRGB">
<feColorMatrix in="SourceGraphic" type="matrix" values="1 0 0 0 -0.06274509803921569 0 1 0 0 -0.0784313725490196 0 0 1 0 -0.06274509803921569 0 0 0 1 0" result="result1"/>
</filter>

<filter id="Filter_2" x="-20%" y="-20%" width="140%" height="140%" color-interpolation-filters="sRGB">
<feColorMatrix in="SourceGraphic" type="matrix" values="0.57 0 0 0 0.1843137254901961 0 0.57 0 0 0.28627450980392155 0 0 0.57 0 0.37254901960784315 0 0 0 1 0" result="result1"/>
</filter>

<g id="RD_Prun_Tail_4_Layer1_0_FILL">
<path fill="#EE4143" stroke="none" d="
M 7.05 -0.2
Q 4.65 -2.45 2 -3.1 -0.6 -3.75 -2.85 -3 -5.1 -2.2 -6.25 -0.3 -7.4 1.65 -6.85 4.55 -6.3 7.45 -3.4 11.05 4.35 20.35 13.65 27.4 23 34.45 33.25 39.5 43.55 44.5 54.05 47.7 64.55 50.9 74.65 52.45 88.05 54.6 100.8 55.05 113.5 55.5 125.3 54.7 137.05 53.9 147.65 52.25 155.6 51.1 162.9 49.5
L 170.1 48
Q 171.6 47.7 172.9 47.5 174.2 47.3 175.5 47.1 185.8 45.55 194.3 44.95 202.75 44.3 209.4 43.95 216.1 43.6 221.2 42.9 221.15 42.8 218.2 42 215.25 41.2 210.45 40.1 205.65 39 200 38.15 195.8 37.55 191.75 37.15 187.7 36.8 184.35 36.65 181 36.5 178.9 36.55 177.65 36.55 177.1 36.6 180.6 35.85 186.5 34.65 192.8 33.3 200.95 31.9 209.1 30.55 218.2 29.65 227.3 28.75 236.5 28.9 245.75 28.95 254.05 29.75 262.3 30.55 268.7 31.6 275.1 32.7 278.7 33.5 281.8 34.2 282.15 34.35 281.85 34.15 279.7 32.85 277.3 31.4 273.2 29.25 269.15 27.05 264.15 24.8 260.55 23.1 257 21.7 253.5 20.3 250.55 19.25 247.65 18.2 245.85 17.65 244.05 17.05 243.85 17.05 247.9 16.65 253.25 16.15 258.6 15.6 264.8 15.15 271 14.65 277.55 14.4 284.05 14.1 290.35 14.25 296.65 14.4 302.25 14.85 307.8 15.3 312.1 15.85 316.35 16.4 318.8 16.8 321.2 17.2 321.25 17.25 314.75 13.6 307.8 10.45 300.85 7.35 293.6 4.85 293.65 4.8 296.15 5.3 298.65 5.8 302.9 6.8 307.1 7.8 312.3 9.3 317.5 10.8 323 12.8 328.5 14.8 333.45 17.3 338.35 19.75 342.2 22.1 346.05 24.45 348.3 26.1 349.75 27.15 350.35 27.65 345.65 22.8 339.8 18.2 333.75 13.45 326.95 9.15 320.15 4.9 313.15 1.3 306.15 -2.35 299.45 -5.15 292.75 -8 286.9 -10 281.1 -12.05 276.65 -13.4 272.25 -14.7 269.8 -15.4 267.3 -16.05 267.3 -16.1 267.35 -16.1 269.6 -15.85 271.85 -15.65 275.65 -15.15 279.5 -14.65 284.25 -13.9 289 -13.15 294.1 -12.05 299.2 -11 303.9 -9.75 308.65 -8.5 312.45 -7.35 316.2 -6.2 318.5 -5.45 320.75 -4.75 320.9 -4.8 308.35 -10.45 294.8 -15.95 281.2 -21.4 265.8 -25.75 250.4 -30.1 232.35 -32.3 218.8 -33.8 203.75 -32.95 188.7 -32.1 172.65 -28.1 167.4 -26.8 161.9 -25 156.45 -23.2 151.05 -21.05 145.7 -18.9 140.8 -16.6 128.3 -10.7 114.5 -4.65 114.55 -4.65 116.3 -6.25 118.05 -7.85 120.8 -10.6 123.55 -13.35 126.7 -16.75 129.7 -20.05 132.65 -23.6 135.6 -27.15 138.4 -30.4 141.25 -33.65 143.95 -36.1 142 -35.2 139.85 -34.1 137.7 -32.95 135.85 -31.85 132.95 -30 129.8 -27.6 126.6 -25.3 123.15 -22.7 119.65 -20.05 115.85 -17.35 110.85 -13.65 105.2 -9.95 99.6 -6.2 93.45 -2.75 87.3 0.7 80.6 3.55 70.45 8 60 10.3 49.55 12.6 39.35 12.05 32.6 11.7 26.55 10 20.45 8.3 15.5 5.65 10.55 3 7.05 -0.2 Z"/>
</g>

<g id="RD_Prun_Tail_4_Layer1_1_FILL">
<path fill="#F37033" stroke="none" d="
M 7.05 -0.2
Q 4.65 -2.45 2 -3.1 -0.6 -3.75 -2.85 -3 -5.1 -2.2 -6.25 -0.3 -7.4 1.65 -6.85 4.55 -6.3 7.45 -3.4 11.05 4.1 19.95 13.2 27 22.3 34.05 32.3 39.05 46.25 45.25 61.15 47.8 76.05 50.4 91.15 50.15 106.2 49.85 120.8 47.4 135.4 45 148.8 41.15 162.15 37.35 173.65 32.8 187.15 28.5 199.8 26.2 212.45 23.95 223.85 23.25 235.25 22.5 245 22.85 254.75 23.15 262.45 24 257.85 21.95 253.7 20.4 249.55 18.85 246.8 17.95 244.1 17.05 243.85 17.05 247.9 16.65 253.25 16.15 258.6 15.6 264.8 15.15 271 14.65 277.55 14.4 284.05 14.1 290.35 14.25 296.65 14.4 302.25 14.85 307.8 15.3 312.1 15.85 316.35 16.4 318.8 16.8 321.2 17.2 321.25 17.25 314.75 13.6 307.8 10.45 300.85 7.35 293.6 4.85 293.65 4.8 296.15 5.3 298.65 5.8 302.9 6.8 307.1 7.8 312.3 9.3 317.5 10.8 323 12.8 328.5 14.8 333.45 17.3 338.35 19.75 342.2 22.1 346.05 24.45 348.3 26.1 349.75 27.15 350.35 27.65 345.65 22.8 339.8 18.2 333.75 13.45 326.95 9.15 320.15 4.9 313.15 1.3 306.15 -2.35 299.45 -5.15 292.75 -8 286.9 -10 281.1 -12.05 276.65 -13.4 272.25 -14.7 269.8 -15.4 267.3 -16.05 267.3 -16.1 267.35 -16.1 269.6 -15.85 271.85 -15.65 275.65 -15.15 279.5 -14.65 284.25 -13.9 289 -13.15 294.1 -12.05 299.2 -11 303.9 -9.75 308.65 -8.5 312.45 -7.35 316.2 -6.2 318.5 -5.45 320.75 -4.75 320.9 -4.8 308.35 -10.45 294.8 -15.95 281.2 -21.4 265.8 -25.75 250.4 -30.1 232.35 -32.3 218.8 -33.8 203.75 -32.95 188.7 -32.1 172.65 -28.1 167.4 -26.8 161.9 -25 156.45 -23.2 151.05 -21.05 145.7 -18.9 140.8 -16.6 128.3 -10.7 114.5 -4.65 114.55 -4.65 116.3 -6.25 118.05 -7.85 120.8 -10.6 123.55 -13.35 126.7 -16.75 129.7 -20.05 132.65 -23.6 135.6 -27.15 138.4 -30.4 141.25 -33.65 143.95 -36.1 142 -35.2 139.85 -34.1 137.7 -32.95 135.85 -31.85 132.95 -30 129.8 -27.6 126.6 -25.3 123.15 -22.7 119.65 -20.05 115.85 -17.35 110.85 -13.65 105.2 -9.95 99.6 -6.2 93.45 -2.75 87.3 0.7 80.6 3.55 70.45 8 60 10.3 49.55 12.6 39.35 12.05 32.6 11.7 26.55 10 20.45 8.3 15.5 5.65 10.55 3 7.05 -0.2 Z"/>
</g>

<g id="RD_Prun_Tail_4_Layer1_2_FILL">
<path fill="#FDF6AF" stroke="none" d="
M 7.05 -0.2
Q 4.65 -2.45 2 -3.1 -0.6 -3.75 -2.85 -3 -5.1 -2.2 -6.25 -0.3 -7.4 1.65 -6.85 4.55 -6.3 7.45 -3.4 11.05 -2.9 11.55 -0.15 14.25 2.55 16.95 7.55 20.85 12.6 24.75 20 28.95 27.4 33.15 37.3 36.65 47.2 40.15 58.75 41.9 70.3 43.6 82.9 43.55 95.55 43.5 108.6 41.65 121.7 39.8 134.6 36.15 141.05 34.4 147.35 32.3 153.7 30.15 159.85 27.8 165.65 25.6 171.15 23.7 176.6 21.8 182.15 20.25 193.15 17.15 203.65 15.3 214.15 13.45 223.7 12.75 236.55 11.85 246.9 12.25 257.25 12.6 264.4 13.4 271.6 14.2 274.8 14.55 281.5 14.05 288.2 14.15 294.85 14.25 300.8 14.7 306.75 15.15 311.4 15.7 316 16.25 318.65 16.7 320.8 17.05 321.2 17.2 314.7 13.6 307.8 10.45 300.85 7.35 293.6 4.85 293.65 4.8 296.15 5.3 298.65 5.8 302.9 6.8 307.1 7.8 312.3 9.3 317.5 10.8 323 12.8 328.5 14.8 333.45 17.3 338.35 19.75 342.2 22.1 346.05 24.45 348.3 26.1 349.75 27.15 350.35 27.65 345.65 22.8 339.8 18.2 333.75 13.45 326.95 9.15 320.15 4.9 313.15 1.3 306.15 -2.35 299.45 -5.15 292.75 -8 286.9 -10 281.1 -12.05 276.65 -13.4 272.25 -14.7 269.8 -15.4 267.3 -16.05 267.3 -16.1 267.35 -16.1 269.6 -15.85 271.85 -15.65 275.65 -15.15 279.5 -14.65 284.25 -13.9 289 -13.15 294.1 -12.05 299.2 -11 303.9 -9.75 308.65 -8.5 312.45 -7.35 316.2 -6.2 318.5 -5.45 320.75 -4.75 320.9 -4.8 308.35 -10.45 294.8 -15.95 281.2 -21.4 265.8 -25.75 250.4 -30.1 232.35 -32.3 218.8 -33.8 203.75 -32.95 188.7 -32.1 172.65 -28.1 167.4 -26.8 161.9 -25 156.45 -23.2 151.05 -21.05 145.7 -18.9 140.8 -16.6 128.3 -10.7 114.5 -4.65 114.55 -4.65 116.3 -6.25 118.05 -7.85 120.8 -10.6 123.55 -13.35 126.7 -16.75 129.7 -20.05 132.65 -23.6 135.6 -27.15 138.4 -30.4 141.25 -33.65 143.95 -36.1 142 -35.2 139.85 -34.1 137.7 -32.95 135.85 -31.85 132.95 -30 129.8 -27.6 126.6 -25.3 123.15 -22.7 119.65 -20.05 115.85 -17.35 110.85 -13.65 105.2 -9.95 99.6 -6.2 93.45 -2.75 87.3 0.7 80.6 3.55 70.45 8 60 10.3 49.55 12.6 39.35 12.05 32.6 11.7 26.55 10 20.45 8.3 15.5 5.65 10.55 3 7.05 -0.2 Z"/>
</g>

<g id="RD_Prun_Tail_4_Layer1_3_FILL">
<path fill="#662F89" stroke="none" d="
M 7.05 -0.2
Q 4.85 -2.2 2.45 -2.95 0.05 -3.7 -2.1 -3.25 -4.2 -2.8 -5.55 -1.25 3.85 9.55 15.95 17.05 28 24.55 41.7 28.6 55.4 32.65 69.6 33.1 83.8 33.7 97.8 31.95 111.8 30.15 125.45 26.4 139.1 22.65 152.15 17.3 171.35 8.65 191.8 3.75 212.25 -1.15 233.2 -2.2 254.15 -3.2 274.85 -0.15 295.55 2.9 315.25 10.2 321.7 11.95 327.95 14.75 334.15 17.55 339.3 20.45 344.4 23.3 347.45 25.45 349 26.5 349.8 27.15 345.3 22.55 339.75 18.2 333.7 13.45 326.95 9.15 320.15 4.9 313.15 1.3 306.15 -2.35 299.45 -5.15 292.7 -8 286.9 -10 281.05 -12.05 276.65 -13.4 272.25 -14.7 269.8 -15.4 267.3 -16.05 267.3 -16.1 267.35 -16.1 269.6 -15.85 271.85 -15.65 275.65 -15.15 279.45 -14.65 284.25 -13.9 289 -13.15 294.1 -12.05 299.2 -11 303.9 -9.75 308.65 -8.5 312.45 -7.35 316.2 -6.2 318.5 -5.45 320.75 -4.75 320.9 -4.8 308.35 -10.45 294.8 -15.95 281.2 -21.4 265.8 -25.75 250.4 -30.1 232.35 -32.3 218.8 -33.8 203.75 -32.95 188.7 -32.1 172.65 -28.1 167.4 -26.8 161.9 -25 156.45 -23.2 151.05 -21.05 145.65 -18.9 140.75 -16.6 128.3 -10.7 114.5 -4.65 114.55 -4.65 116.3 -6.25 118 -7.85 120.8 -10.6 123.55 -13.35 126.65 -16.75 129.7 -20.05 132.65 -23.6 135.6 -27.15 138.4 -30.4 141.25 -33.65 143.95 -36.1 142 -35.2 139.85 -34.1 137.7 -32.95 135.85 -31.85 132.95 -30 129.8 -27.6 126.6 -25.3 123.1 -22.7 119.65 -20.05 115.85 -17.35 110.8 -13.65 105.2 -9.95 99.6 -6.2 93.45 -2.75 87.3 0.7 80.6 3.55 70.45 8 60 10.3 49.5 12.6 39.35 12.05 32.6 11.7 26.5 10 20.45 8.3 15.5 5.65 10.5 3 7.05 -0.2 Z"/>
</g>

<g id="RD_Prun_Tail_4_Layer1_4_FILL">
<path fill="#1D98D5" stroke="none" d="
M 7.05 -0.2
Q 4.85 -2.2 2.45 -2.95 0.05 -3.7 -2.1 -3.25 -4.2 -2.8 -5.55 -1.25 3.85 9.5 15.95 17 28 24.5 41.7 28.6 55.4 32.65 69.6 33.1 83.8 33.7 97.8 31.9 111.8 30.15 125.45 26.4 139.1 22.65 152.15 17.3 171.35 8.65 191.8 3.75 212.25 -1.2 233.2 -2.2 254.15 -3.2 274.85 -0.2 295.55 2.85 315.25 10.15 321.7 11.95 327.95 14.75 334.15 17.5 339.3 20.4 344.4 23.3 347.45 25.45 349.05 26.55 349.85 27.2 345.3 22.5 339.75 18.15 333.7 13.4 326.95 9.15 320.15 4.85 313.15 1.25 306.15 -2.4 299.45 -5.2 292.7 -8 286.9 -10.05 281.05 -12.05 276.65 -13.4 272.25 -14.7 269.8 -15.4 267.3 -16.05 267.3 -16.1 267.35 -16.1 269.6 -15.9 271.85 -15.65 275.65 -15.15 279.45 -14.7 284.25 -13.9 289 -13.15 294.1 -12.05 299.2 -11.05 303.9 -9.8 308.65 -8.55 312.45 -7.35 316.2 -6.2 318.5 -5.5 320.75 -4.75 320.9 -4.8 311.75 -8.9 302.05 -12.95 292.3 -17.05 281.8 -20.75 271.25 -24.45 259.75 -27.4 259.1 -27.5 253.2 -28.05 247.3 -28.6 236.9 -28.55 226.55 -28.45 212.6 -26.7 198.65 -25 181.95 -20.5 173.7 -18.25 165.1 -15.1 156.45 -12 147.7 -8 140.2 -4.55 132.5 -1.45 124.8 1.65 116.6 4.3 105.8 7.85 94.25 10.15 82.7 12.45 70.9 13.05 59.15 13.65 47.65 12 39.3 12.6 31.55 11.1 23.85 9.65 17.55 6.7 11.2 3.75 7.05 -0.2 Z"/>
</g>

<g id="RD_Prun_Tail_4_Layer1_5_FILL">
<path fill="#62BC4D" stroke="none" d="
M 7.05 -0.2
Q 4.85 -2.2 2.45 -2.95 0.05 -3.7 -2.1 -3.25 -4.2 -2.8 -5.55 -1.25 3.85 9.5 15.95 17 28 24.5 41.7 28.6 55.4 32.65 69.6 33.1 83.8 33.7 97.8 31.95 111.8 30.15 125.45 26.4 139.1 22.65 152.15 17.3 171.35 8.65 191.8 3.75 212.25 -1.2 233.2 -2.2 254.15 -3.2 274.85 -0.2 295.55 2.85 315.25 10.15 321.7 11.95 327.95 14.75 334.15 17.5 339.3 20.4 344.4 23.3 347.45 25.45 349.05 26.55 349.85 27.2 344.3 21.45 337.25 16.2 329.7 10.6 321.3 5.8 312.95 0.95 304.65 -2.85 296.35 -6.65 289.05 -9.25 283.55 -11 275.15 -12.7 266.75 -14.4 255.85 -15.35 244.95 -16.3 231.95 -15.95 218.95 -15.55 204.35 -13.15 189.75 -10.7 174 -5.65 167.45 -3.55 161 -0.95 154.55 1.65 148.25 4.3 141.95 6.95 135.9 9.2 126.5 12.75 116.55 15.45 106.6 18.2 96.2 19.85 82.35 22.15 68.05 21.85 53.75 21.5 40.05 17.7 26.4 13.9 14.3 5.75 9.75 2.3 7.05 -0.2 Z"/>
</g>

<g id="RD_Prun_Tail_4_Layer1_6_FILL">
<path fill="#3A54A5" stroke="none" d="
M 361.55 39.3
Q 361.39140625 39.1962890625 360.45 37.9
L 360.1 38
Q 361.3544921875 39.2095703125 361.55 39.3
M 326.85 -2.5
Q 329.540625 -1.7447265625 329.7 -1.65 328.4947265625 -2.3236328125 327.2 -3
L 326.85 -2.5
M 148.3 -37.7
Q 147.621484375 -37.53046875 146.85 -37.3
L 147.05 -36.6
Q 148.25 -37.65 148.3 -37.7
M 174.8 36.75
Q 175.2724609375 36.73203125 176.7 36.8
L 176.45 36.4
Q 175.5904296875 36.59609375 174.8 36.75 Z"/>

<path fill="#1D9AD6" stroke="none" d="
M 7.2 -1.55
Q 5.05 -2.8 2.65 -3.55 0.3 -4.25 -1.85 -4.1 -4.05 -3.95 -5.65 -2.55 -7.2 -1.15 -7.9 1.05 -8.65 3.25 -7.85 6.15 -7.05 9.05 -4.1 12.5 4.1 22.2 14 29.5 23.85 36.8 34.65 41.9 45.45 47 56.45 50.15 67.4 53.3 77.8 54.7 91.85 56.85 105.05 57.15 118.2 57.4 130.4 56.35 142.6 55.3 153.6 53.4 157.4 52.8 161.2 51.95 164.95 51.15 168.85 50.25 171.4 49.7 173.4 49.3 175.4 48.9 177.25 48.55 179.1 48.25 181.1 47.9 186.9 46.95 192.4 46.3 197.9 45.65 202.85 45.25 209.5 44.8 214.8 44.55 220.1 44.35 223.6 44.15 227.1 43.9 228.3 43.45 225.55 42.5 221.25 41.25 216.95 40.05 211.75 38.85 206.55 37.6 201.05 36.7 195.6 35.75 190.5 35.4 196.1 34.2 202.85 33.15 209.6 32.1 217 31.4 224.4 30.7 231.95 30.5 239.5 30.3 246.7 30.8 253.95 31.25 260.25 32.05 266.5 32.85 271.35 33.7 276.2 34.55 279.05 35.25 281.95 35.9 282.4 36.1 284.6 36.65 286.85 37.2 289.1 37.75 291.2 38.5 289.4 37.1 287.45 35.85 285.5 34.6 283.5 33.35 275.8 28.65 269.65 25.6 263.45 22.55 259 20.75 254.5 18.95 251.85 18 257.85 17.35 265.15 16.8 272.4 16.25 280.05 16 287.7 15.75 294.85 16.05 302.05 16.4 307.9 17.1 313.75 17.75 317.4 18.4 321.05 19 321.65 19.1 325.9 20 330.2 21.15 325.2 17.65 319.8 14.7 314.4 11.8 308.8 9.15 311.8 10 315.85 11.35 319.9 12.65 324.45 14.5 329.05 16.35 333.65 18.65 338.3 20.95 342.55 23.7 346.75 26.45 350.2 29.25 353.65 32 356.15 34.3 358.7 36.65 360.1 38
L 360.45 37.9
Q 360.1205078125 37.483984375 359.7 36.9 357.9 34.45 354.55 30.35 351.15 26.25 346.15 21.45 341.15 16.6 334.65 12 328.2 7.35 321.2 3.5 314.2 -0.4 307.45 -3.4 300.7 -6.45 295.1 -8.65 289.45 -10.8 285.75 -12.05 287.9 -11.75 290.1 -11.25 292.3 -10.75 294.5 -10.3 301.45 -8.85 307.75 -7.35 314.1 -5.85 319.05 -4.55 324 -3.3 326.85 -2.5
L 327.2 -3
Q 322.163671875 -5.6669921875 316.2 -8.45 308.7 -12 300.45 -15.4 292.25 -18.75 284 -21.7 275.8 -24.6 268.25 -26.7 257.1 -30 244.7 -32.45 232.3 -34.9 218.55 -35.6 204.85 -36.3 189.75 -34.3 174.65 -32.3 158.2 -26.7 150.45 -23.8 143.6 -20.05 136.75 -16.3 130.75 -12.85 124.75 -9.4 119.6 -7.25 121.5 -9.05 124.15 -11.8 126.75 -14.55 129.6 -17.8 132.45 -21.05 135.05 -24.35 136.7 -26.65 139.1 -29.1 141.5 -31.55 143.75 -33.55 145.8 -35.5 147.05 -36.6
L 146.85 -37.3
Q 145.41796875 -36.8607421875 143.7 -36.2 141.05 -35.2 138.45 -34.05 135.8 -32.9 133.9 -31.95 128 -28.9 121.65 -24.65 119.05 -22.85 114.95 -19.85 110.85 -16.8 105.75 -13.25 100.7 -9.7 95.05 -6.35 89.45 -3 83.9 -0.35 78.35 2.3 73.85 4.1 69.3 5.9 66.75 6.6 64.2 7.45 59.3 8.25 54.35 9 48 9.15 41.65 9.35 34.9 8.3 29.85 7.6 25.2 6.2 20.6 4.8 16.8 3.2 13.05 1.6 10.5 0.3 8 -1 7.2 -1.55
M 101.6 -5.5
Q 108.7 -9.95 114.9 -14.45 121.1 -18.95 126.5 -23.05 131.95 -27.1 136.55 -30.3 133.75 -26.4 130.05 -22.15 126.35 -17.95 122.75 -14.25 119.2 -10.55 116.75 -8.2 114.35 -5.9 114.1 -5.85 110.7 -2.8 107.1 0.15 109.25 -0.65 111.4 -1.55 113.55 -2.45 115.7 -3.3 125.25 -7.55 134.7 -11.95 137.1 -13.15 139.4 -14.2 141.7 -15.3 144.45 -16.5 150.55 -19.3 156.8 -21.55 172.75 -27.3 187.85 -29.65 202.9 -32 216.9 -31.75 230.9 -31.5 243.5 -29.35 256.1 -27.2 267.1 -23.9 275.8 -21.35 284.15 -18.3 292.5 -15.3 300.3 -12.15 295.05 -13.35 289.45 -14.4 283.8 -15.45 278.35 -16.2 272.9 -17 268.2 -17.4 259.45 -18.25 250.6 -18.5 259.2 -16.8 267.55 -14.5 267.65 -14.5 270.75 -13.65 273.8 -12.8 279.15 -11.05 284.45 -9.35 291.25 -6.75 298.1 -4.15 305.65 -0.65 313.25 2.8 320.85 7.15 328.45 11.5 335.35 16.7 330.45 14.1 324.6 12 318.8 9.95 312.9 8.45 307 6.9 302 5.95 297.05 4.95 293.8 4.5 290.6 4.05 290.1 4.1 302.2 8.5 313.15 14.75 307.95 13.65 300.75 13.3 293.5 12.95 285.35 13.15 277.15 13.35 269.05 13.85 260.95 14.4 254 15.1 247 15.8 242.2 16.5 242.3 16.5 244.35 17.3 246.35 18.1 249.75 19.55 253.15 21 257.3 22.85 261.4 24.75 265.7 26.85 269.95 28.95 273.75 31.15 268.65 30 261.5 29.15 254.3 28.3 245.85 27.9 237.4 27.55 228.5 27.9 219.55 28.25 211 29.5 202.95 30.6 195.9 32.05 188.8 33.5 183.35 34.8 179.3005859375 35.7939453125 176.45 36.4
L 176.7 36.8
Q 178.75 36.9 182.25 37.25 185.75 37.55 190 38.05 194.3 38.55 198.7 39.2 203.1 39.8 207 40.6 210.85 41.35 213.6 42.2 211.1 42.35 205.5 42.45 199.9 42.55 191.85 43.15 183.8 43.75 174 45.4 171.8 45.75 168.75 46.4 165.7 47.05 162.3 47.8 155.7 49.3 148.8 50.4 137.7 52.5 126.5 53.3 115.3 54.05 104.6 53.75 93.9 53.45 84.35 52.35 74.8 51.2 67 49.55 59.2 47.9 53.7 45.95 43.6 42.95 33.75 38.05 23.85 33.15 14.85 26.3 5.8 19.45 -1.7 10.65 -3.95 8.05 -4.6 6 -5.25 3.9 -4.8 2.45 -4.35 0.95 -3.3 0.05 -2.15 -0.85 -0.25 -0.8 1.65 -0.75 3.9 0.05 6.1 0.85 8.2 2.1 11.2 4.05 16.1 6.25 21 8.5 27.4 10.2 33.8 11.9 41.2 12.4 48.6 12.9 56.35 11.9 64.15 10.9 71.8 8.55 79.5 6.25 86.6 2.8 94.55 -1.05 101.6 -5.5 Z"/>
</g>

<g id="RD_FrontLeg_3_4_hoof_6_Layer0_0_FILL">
<path fill="#9EDBF8" stroke="none" d="
M -0.95 -17.2
Q -8.6921875 -16.7904296875 -12.35 -12.4 -15.971875 -8.0099609375 -18.15 -4 -20.324609375 0.0544921875 -21.9 7.4 -23.42421875 14.7861328125 -17.1 18.5 -10.7796875 22.268359375 0.15 20.85 11.0783203125 19.4369140625 14.05 14.5 17.0837890625 9.596484375 17.4 1.25 17.7197265625 -7.051171875 12.3 -12.35 6.8671875 -17.5837890625 -0.95 -17.2 Z"/>
</g>

<g id="RD_KneePatch_1_Layer0_0_FILL">
<path fill="#6DABDD" stroke="none" d="
M 10.75 -8.3
L 10.75 -8.45
Q 10.999609375 -9.6171875 11 -10.9 11.0111328125 -16.75078125 6.7 -21.15 2.4033203125 -25.5216796875 -3.55 -25.85 -9.52421875 -26.1814453125 -13.85 -22.55 -18.2634765625 -18.8869140625 -18.25 -13.75
L -18.25 -13.7
Q -18.333203125 -9.8595703125 -15.45 -3.75
L -15.4 -3.65 -15.4 -3.6
Q -12.6767578125 2.0408203125 -9.8 10.1
L -9.75 10.2
Q -9.74140625 10.22421875 -9.75 10.25
L -9.75 10.25
Q -6.684765625 18.7166015625 -4.1 21.8
L -4.05 21.85
Q -1.2443359375 25.3462890625 3.45 25.6
L 3.5 25.6
Q 8.171875 25.7728515625 11.55 22.6 14.949609375 19.4423828125 15.4 15.75 15.955859375 12.0994140625 13.1 9.2 8.4591796875 3.042578125 10.65 -7.8 10.721875 -8.034375 10.75 -8.3 Z"/>
</g>

<g id="RD_HindLeg_3_4rear_lower_2_Layer1_0_FILL">
<path fill="#9EDBF8" stroke="none" d="
M -5.65 -3.6
Q -13.0958984375 2.169140625 -8.9 12.2 -5.18671875 19.70546875 7.6 6.9 17.0154296875 -1.388671875 11.5 -5.15 1.836328125 -8.4703125 -5.65 -3.6 Z"/>
</g>

<g id="RD_HindLeg_3_4rear_lower_2_Layer0_0_FILL">
<path fill="#9EDBF8" stroke="none" d="
M -10.2 3.35
Q -15.7921875 31.9404296875 -8.9 59.25
L 24.35 43.05
Q 15.0326171875 27.90546875 13.4 -2.55
L -10.2 3.35 Z"/>
</g>

<g id="RD_HindLeg_3_4_top_3_Layer1_0_FILL">
<path fill="#6DABDD" stroke="none" d="
M -19.65 44.3
Q -19.6541015625 43.8923828125 -19.7 43.45 -19.7474609375 43.891015625 -19.8 44.3
L -19.65 44.3
M 0.85 -4.4
L 0.85 -4.4
Q -8.440625 -7.578515625 -18.8 -4.85 -20.7306640625 -4.3076171875 -22.7 -3.6 -35.693359375 1.456640625 -37.3 12.75 -36.67265625 13.8740234375 -36.05 14.95 -35.9734375 15.0919921875 -35.9 15.2
L -35.5 15.95
Q -32.348046875 1.869921875 -18.8 -1.8 -4.6494140625 -5.201171875 3.15 0.8 4.996875 2.69765625 6.85 5.45 8.5537109375 7.9505859375 9.85 11.55 10.773828125 14.0306640625 11.95 18.6 13.480078125 24.059375 14 30.65 14.6548828125 37.772265625 13.95 44.3
L 16.5 44.3
Q 17.1921875 37.8173828125 16.9 31 16.514453125 22.81796875 14.85 16.7 12.33671875 7.5259765625 8.9 2.55 6.02890625 -1.5513671875 3.15 -3.35 2.012890625 -4.0341796875 0.85 -4.4
L 0.85 -4.4 Z"/>

<path fill="#9EDBF8" stroke="none" d="
M 6.85 5.45
Q 4.996875 2.69765625 3.15 0.8 -4.6494140625 -5.201171875 -18.8 -1.8 -32.348046875 1.869921875 -35.5 15.95
L -35.9 15.2
Q -41.54375 35.5021484375 -19.7 43.4
L -19.7 43.45
Q -19.6541015625 43.8923828125 -19.65 44.3
L 13.95 44.3
Q 14.6548828125 37.772265625 14 30.65 13.480078125 24.059375 11.95 18.6 10.773828125 14.0306640625 9.85 11.55 8.5537109375 7.9505859375 6.85 5.45 Z"/>
</g>

<g id="RD_HindLeg_3_4_top_3_Layer0_0_FILL">
<path fill="#6DABDD" stroke="none" d="
M 8.7 79.1
L 8.7 79.1
Q -3.7240234375 82.317578125 -15.9 55.05 -20.4896484375 46.2076171875 -20.85 37.15 -20.8546875 36.330078125 -20.85 35.45
L -20.85 35.4
Q -22.584375 41.745703125 -21.75 46.8 -20.8296875 51.911328125 -17.95 57.6
L -17.95 57.6
Q -11.971484375 69.1169921875 -6.05 75 -5.2890625 76.075390625 -4.35 77.05
L -4.35 77
Q -0.276953125 80.9404296875 5.2 80.6 7.4673828125 80.5080078125 8.7 79.1
M 14.45 15.7
L 10.9 14.4
Q 12.36328125 19.052734375 13 21.7 14.323046875 26.6453125 14.55 32.3 14.936328125 39.9142578125 12.65 49.15 10.4171875 58.4453125 9.3 62.55 8.17265625 66.672265625 9.1 73.05 9.75390625 77.3060546875 8.75 79.05 9.4486328125 78.3134765625 9.8 77.2 9.9109375 76.9609375 9.95 76.7 10.304296875 75.502734375 10.2 71.5 10.1513671875 67.5421875 11.45 63 12.7974609375 58.489453125 15.1 49.55 17.4509765625 40.6375 17.45 33.45 17.5064453125 26.2955078125 16.1 20.75 15.6138671875 18.894921875 14.45 15.7 Z"/>

<path fill="#9EDBF8" stroke="none" d="
M 12.65 49.15
Q 14.936328125 39.9142578125 14.55 32.3 14.323046875 26.6453125 13 21.7 12.36328125 19.052734375 10.9 14.4
L -8.9 17.15 -20.85 35.45
Q -20.8546875 36.330078125 -20.85 37.15 -20.4896484375 46.2076171875 -15.9 55.05 -3.7240234375 82.317578125 8.7 79.1
L 8.7 79.1 8.75 79.1
Q 8.764453125 79.1033203125 8.75 79.05 9.75390625 77.3060546875 9.1 73.05 8.17265625 66.672265625 9.3 62.55 10.4171875 58.4453125 12.65 49.15 Z"/>
</g>

<g id="RD_KneePatch_0_Layer0_0_FILL">
<path fill="#9EDBF8" stroke="none" d="
M 6.95 -3.8
Q 7.6271484375 -8.4921875 7.65 -8.75
L 7.65 -8.75
Q 7.6830078125 -8.7876953125 7.7 -8.85 7.850390625 -9.7474609375 7.85 -10.75 7.8390625 -15.39921875 4.4 -18.9 0.946484375 -22.4283203125 -3.85 -22.7 -8.6259765625 -22.9685546875 -12.1 -20.1 -15.376171875 -17.3716796875 -15.4 -13.55
L -15.4 -13.55
Q -15.40625 -10.530078125 -12.6 -4.2
L -12.4 -3.7
Q -12.324609375 -3.590625 -12.3 -3.5 -12.2001953125 -3.3171875 -12.15 -3.15 -12.0654296875 -3.0400390625 -12 -2.95
L -12 -2.9 -11.95 -2.8
Q -9.565234375 2.4005859375 -7.1 9.35 -7.0333984375 9.4712890625 -7.05 9.6 -4.2322265625 17.2533203125 -1.9 20.1
L -1.9 20.1
Q 0.112890625 22.6044921875 3.45 22.75 6.435546875 22.852734375 8.7 21.1
L 8.7 21.15
Q 19.876171875 11.2931640625 12.45 5.8 11.055859375 5.381640625 9.7 4.45 9.7404296875 4.5390625 9.75 4.6 8.476171875 3.9505859375 7.75 2.7 6.5830078125 1.1353515625 6.75 -1.95 6.7810546875 -2.8294921875 6.9 -3.8
L 6.95 -3.8 Z"/>
</g>

<g id="WingcycleBACK_10_Layer10_0_FILL">
<path fill="#6DABDD" stroke="none" d="
M 35.7 -23.75
L 35.75 -23.75
Q 16.769140625 -26.4125 -1.3 -0.35 -0.372265625 1.4890625 0.55 3.45 1.2173828125 4.8548828125 1.85 6.3 9.59375 -0.7189453125 21.4 -1.55 35.2083984375 -2.5791015625 42.75 -5.8 51.642578125 -9.4822265625 49.15 -16.25
L 49.15 -16.25
Q 47.1916015625 -22.6359375 35.7 -23.75 Z"/>
</g>

<g id="WingcycleBACK_10_Layer9_0_FILL">
<path fill="#6DABDD" stroke="none" d="
M 48.45 -51.4
L 48.5 -51.4
Q 23.6794921875 -44.778515625 -2.65 -3 -1.2298828125 -0.308984375 0.2 2.75 21.609375 -20.807421875 58.35 -30.45 58.4224609375 -30.46171875 58.45 -30.5 72.7130859375 -35.13671875 78.5 -39.75 85.337109375 -45.14921875 81.95 -50.55 81.7603515625 -50.872265625 81.45 -51.1 70.8044921875 -57.93984375 48.45 -51.4 Z"/>
</g>

<g id="WingcycleBACK_10_Layer8_0_FILL">
<path fill="#6DABDD" stroke="none" d="
M 58.55 -54.7
Q 72.9939453125 -62.8251953125 80.4 -70.25 90.1234375 -79.9880859375 91.9 -85.5 93.0498046875 -88.915234375 91.6 -91 90.3830078125 -93.0853515625 86.75 -93.8 86.72578125 -93.815234375 86.65 -93.85 60.884375 -100.785546875 32.8 -67 6.55390625 -35.556640625 -4.45 -6.3 -2.759375 -3.3275390625 -1 0.2 30.03671875 -38.7552734375 58.55 -54.7 Z"/>
</g>

<g id="WingcycleBACK_10_Layer7_0_FILL">
<path fill="#6DABDD" stroke="none" d="
M 56.4 -101
Q 53.8103515625 -104.794140625 45.25 -104 45.114453125 -103.9880859375 44.95 -103.95 15.85078125 -95.6009765625 3.95 -61.2 -6.1009765625 -31.9990234375 -6.45 -9.9 -4.948046875 -7.4046875 -2.5 -2.7 2.5615234375 -12.67421875 11.35 -29.55 20.4416015625 -46.990625 31 -56.95
L 31.05 -57
Q 50.2259765625 -75.396875 56 -89.5 59.298046875 -97.401953125 56.4 -101 Z"/>
</g>

<g id="WingcycleBACK_10_Layer5_0_FILL">
<path fill="#9EDBF8" stroke="none" d="
M 35.35 -20.9
L 35.3 -20.9
Q 17.558984375 -22.9646484375 0.25 2.9 0.4033203125 3.166015625 0.5 3.4 8.81953125 -3.591015625 21.15 -4.5 34.229296875 -5.381640625 41.4 -8.4 47.4787109375 -10.9826171875 46.1 -15.4 44.344140625 -19.9681640625 35.35 -20.9 Z"/>
</g>

<g id="WingcycleBACK_10_Layer4_0_FILL">
<path fill="#9EDBF8" stroke="none" d="
M 76.4 -42.05
Q 80.8623046875 -45.5248046875 79.35 -48.9 69.6044921875 -54.458984375 49.55 -48.65
L 49.5 -48.6
Q 25.896484375 -42.0658203125 0.6 -2.25 22.111328125 -23.9615234375 57.3 -33.25 70.86953125 -37.687890625 76.4 -42.05 Z"/>
</g>

<g id="WingcycleBACK_10_Layer3_0_FILL">
<path fill="#9EDBF8" stroke="none" d="
M 56.85 -57.25
Q 70.86171875 -65.0833984375 78 -72.3 87.121875 -81.3779296875 88.85 -86.45 89.518359375 -88.399609375 88.85 -89.6 88.15859375 -90.530859375 86.3 -90.95 86.224609375 -90.9322265625 86.15 -90.95 86.087109375 -90.95703125 86 -91 61.916796875 -97.133203125 35.3 -65.2 8.555859375 -33.0705078125 -2.2 -3.25 28.5767578125 -41.41171875 56.85 -57.25 Z"/>
</g>

<g id="WingcycleBACK_10_Layer2_0_FILL">
<path fill="#9EDBF8" stroke="none" d="
M 53.8 -99.55
Q 51.91015625 -101.7201171875 46 -101.25 18.3236328125 -93.0548828125 7 -60.15 1.58046875 -44.4623046875 -1.25 -31.15 -4.2435546875 -20.6966796875 -6.1 -9.85 -6.1291015625 -9.53984375 -6.2 -9.25 -4.6265625 -6.719921875 -3 -3.7 -2.6076171875 -6.4267578125 -2.15 -9.15
L -2.15 -9.2
Q -1.9740234375 -10.069140625 -1.85 -10.95 2.456640625 -19.316015625 8.5 -30.95 17.82578125 -48.8037109375 28.65 -59
L 28.7 -59
Q 47.358984375 -76.959375 53.05 -90.6 55.623046875 -96.7798828125 53.8 -99.55 Z"/>
</g>

<g id="WingcycleBACK_10_Layer1_0_FILL">
<path fill="#9EDBF8" stroke="none" d="
M 42.3 -71.05
Q 42.45 -73.25 40.7 -73.25 40.65 -73.25 32.2 -65.25 30.8 -65.25 22.3 -54.25 13.55 -43 10.05 -36.35 -3.4490234375 -15.382421875 -4.45 -6.25 -2.376171875 -1.8234375 -0.75 1.15 0.866796875 4.1126953125 1.4 5.6 9.2505859375 -1.419921875 9.9 -3.75 10.6103515625 -6.026171875 10.2 -6.45 6.9708984375 -4.33359375 4.5 -2.55 5.0671875 -3.1650390625 5.65 -3.85 7.8201171875 -6.4158203125 9.4 -8.35 10.04921875 -7.1 11.5 -7.1 13.65 -7.1 22.8 -18.4 22.79609375 -18.48515625 22.8 -18.6 23.425390625 -19.282421875 24.05 -20.05
L 23 -21.2
Q 22.2740234375 -20.871484375 21.6 -20.55 21.3869140625 -20.6 21.15 -20.6 16.85 -17.8 13.7 -17.1
L 13.8 -17.3
Q 15.95 -18.8 18.65 -23.25 21.75 -28.25 23.7 -30.2 24.05 -30.55 31.85 -36.2 37 -39.95 37 -42.65 37.1 -44.65 35.5 -44.65 34.5 -45.45 33.5 -45.45 21.1703125 -32.844140625 15 -24.7 14.6443359375 -25.1 13.9 -25.1 12.85 -25.1 12.15 -24 11.3 -22.65 10.5 -22.3 12.95 -25.75 12.95 -26.6 12.95 -27.35 11.25 -28.6 11.4 -28.85 11.4 -29.8 11.55 -30.55 12.15 -30.55 14.35 -30.55 17.65 -38 20.95 -45.45 22.05 -45.45 26 -45.45 31.25 -57.95 32.75 -60.45 42.3 -71.05 Z"/>
</g>

<g id="RD_FrontLeg_3_4_hoof_11_Layer0_0_FILL">
<path fill="#6DABDD" stroke="none" d="
M 17 -14.7
L 17 -14.75
Q 13.2947265625 -22.103515625 5.85 -24.55 -1.5326171875 -26.9390625 -8.25 -22.9
L -8.3 -22.9
Q -14.2681640625 -19.2318359375 -16.65 -12.25 -16.7095703125 -12.1240234375 -16.75 -12 -18.8623046875 -5.1681640625 -20.1 3.15 -20.090234375 3.22890625 -20.1 3.3 -20.9037109375 14.259375 -8.95 21.8 -8.87421875 21.828125 -8.8 21.85 -2.87265625 24.74140625 3.8 22.85
L 3.85 22.8
Q 18.45859375 17.8275390625 19.55 4.35
L 19.55 4.45
Q 20.3158203125 -0.8623046875 19.1 -7.5 18.6923828125 -11.2048828125 17 -14.7
M 14.6 -13.25
L 14.6 -13.3
Q 15.707421875 -11.0302734375 16.15 -8.7 16.17109375 -8.456640625 16.2 -8.25 16.312109375 -7.805078125 16.4 -7.4 16.6583984375 -5.9748046875 16.8 -4.65 17.44453125 0.0908203125 16.9 4 16.8861328125 4.065625 16.85 4.1 15.7603515625 15.616796875 3.05 19.95
L 3.1 19.9
Q -2.6326171875 21.560546875 -7.75 19.1
L -7.6 19.15
Q -17.842578125 12.691796875 -17.4 3.45 -16.7109375 -1.0279296875 -15.8 -5.1 -15.2990234375 -7.1427734375 -14.75 -9.1
L -14.65 -9.45
Q -14.5974609375 -9.6119140625 -14.55 -9.8 -14.376953125 -10.4140625 -14.2 -11.05 -14.1177734375 -11.2125 -14.1 -11.4
L -14.05 -11.4
Q -11.9736328125 -17.192578125 -6.95 -20.25
L -7 -20.25
Q -1.2203125 -23.706640625 5.1 -21.65 11.4658203125 -19.561328125 14.6 -13.25 Z"/>

<path fill="#9EDBF8" stroke="none" d="
M 14.6 -13.3
L 14.6 -13.25
Q 11.4658203125 -19.561328125 5.1 -21.65 -1.2203125 -23.706640625 -7 -20.25
L -6.95 -20.25
Q -11.9736328125 -17.192578125 -14.05 -11.4
L -14.1 -11.4
Q -14.1177734375 -11.2125 -14.2 -11.05 -14.376953125 -10.4140625 -14.55 -9.8 -14.5974609375 -9.6119140625 -14.65 -9.45
L -14.75 -9.1
Q -15.2990234375 -7.1427734375 -15.8 -5.1 -16.7109375 -1.0279296875 -17.4 3.45 -17.842578125 12.691796875 -7.6 19.15
L -7.75 19.1
Q -2.6326171875 21.560546875 3.1 19.9
L 3.05 19.95
Q 15.7603515625 15.616796875 16.85 4.1 16.8861328125 4.065625 16.9 4 17.44453125 0.0908203125 16.8 -4.65 16.6583984375 -5.9748046875 16.4 -7.4 16.312109375 -7.805078125 16.2 -8.25 16.17109375 -8.456640625 16.15 -8.7 15.707421875 -11.0302734375 14.6 -13.3 Z"/>
</g>

<g id="RD_FrontLeg_3_4_upper_20_Layer1_0_FILL">
<path fill="#9EDBF8" stroke="none" d="
M 5.5 -1.05
L -5.95 -1.05
Q -23.45 30.8 -32.7 58.35
L 11.65 62.95
Q 12.4 41.65 5.5 -1.05 Z"/>
</g>

<g id="RD_HoofWrinkle_2_Layer0_0_FILL">
<path fill="#6DABDD" stroke="none" d="
M -6.15 0.85
Q -6.28046875 0.943359375 -6.4 1.05
L -6.05 1
Q 0.4029296875 -1.28125 5.95 0.8
L 6.4 0.9
Q 6.229296875 0.7560546875 6.05 0.6 3.57890625 -1.2400390625 -0.2 -1.1 -3.897265625 -1.0052734375 -6.15 0.85 Z"/>
</g>

<g id="RD_Torso_0_Layer1_0_FILL">
<path fill="#6DABDD" stroke="none" d="
M 23.2 -25.3
L 23.15 -25.3
Q 13.6134765625 -36.3685546875 0.1 -36.35 -13.413671875 -36.3685546875 -23 -25.3
L -23 -25.3
Q -33.85 -12.65 -33.5 1.85 -33 18.5 -26.15 26.5 -21.66640625 31.7732421875 -13.9 34.5 -7.2111328125 36.9048828125 0.1 36.9 17.13203125 36.8990234375 25.65 26.85 28.45 23.6 30.65 17.8 33.45 10.3 33.7 1.85 34.05 -12.65 23.2 -25.3
M 0.1 -33.35
Q 12.2779296875 -33.331640625 20.9 -23.35
L 20.9 -23.35 20.9 -23.35
Q 30.45 -12.15 30.7 1.85 30.95 16.1 23.35 24.9 15.568359375 33.90078125 0.1 33.9 -6.6890625 33.8951171875 -12.9 31.65 -19.83359375 29.2265625 -23.85 24.55 -30.2 17 -30.5 1.15 -30.7 -11.65 -20.7 -23.35
L -20.75 -23.35 -20.7 -23.35
Q -12.069921875 -33.331640625 0.1 -33.35 Z"/>

<path fill="#F4B6D1" stroke="none" d="
M -20.7 -23.35
L -20.7 -23.35 -20.75 -23.35 -20.7 -23.35
M 20.9 -23.35
L 20.9 -23.35 20.9 -23.35 20.9 -23.35 Z"/>

<path fill="#9EDBF8" stroke="none" d="
M 20.9 -23.35
Q 12.2779296875 -33.331640625 0.1 -33.35 -12.069921875 -33.331640625 -20.7 -23.35
L -20.7 -23.35
Q -30.7 -11.65 -30.5 1.15 -30.2 17 -23.85 24.55 -19.83359375 29.2265625 -12.9 31.65 -6.6890625 33.8951171875 0.1 33.9 15.568359375 33.90078125 23.35 24.9 30.95 16.1 30.7 1.85 30.45 -12.15 20.9 -23.35
L 20.9 -23.35 Z"/>
</g>

<g id="RD_Prun_Mane_cycle_5_Layer0_0_FILL">
<path fill="#1D9AD6" stroke="none" d="
M 36.25 -35.75
Q 33.6 -36.15 31.1 -36.5 25.9 -37.2 20.9 -37.6 15.9 -38 10.95 -38.25 1.15 -38.6 -8.35 -38.3 -17.85 -38.05 -27.05 -37.3 -22.1 8.05 -17.2 53.45 -10.15 50.6 -3.1 48.1 3.95 45.65 10.85 43.75 14.3 42.75 17.7 41.95 21.15 41.1 24.45 40.45 26.15 40.05 27.8 39.8 29.4 39.6 31.1 39.3 32.6 39.2 33.8 39.1 35 38.95 36.15 38.85 37.35 38.7 38.75 38.65 42.65 38.45 46.8 38.35 48.9 38.45 50.7 38.45 52.45 38.45 54.15 38.4 55.85 38.35 57.75 38.25 63.15 38 69.05 37.15 71.45 36.7 73.95 36.2 76.45 35.65 78.95 35.05 85.55 33.4 92.2 31.05 98.8 28.65 105.15 25.3 111.5 21.95 117.4 17.4 110.25 19.95 103.4 21.15 96.55 22.3 89.9 22.35 83.3 22.35 76.9 21.6 70.5 20.8 64.2 19.5 71.1 18.05 77.8 15.7 84.5 13.35 90.6 10.2 96.65 7 101.75 3.05 106.8 -0.95 110.5 -5.7 114.2 -10.5 116.05 -16.05 114.65 -15.15 113.3 -14.3 112.25 -13.8 111.2 -13.35 109.1 -12.5 106.8 -12 102.2 -10.95 97.2 -10.9 92.25 -10.85 87.15 -11.65 82.05 -12.4 76.85 -13.85 81.05 -16.2 84.55 -18.9 88 -21.65 90.35 -24.55 92.75 -27.5 93.7 -30.4 90.75 -29.25 86 -28.6 81.35 -27.95 75.55 -28.05 72.75 -28.15 70.85 -28.3 68.9 -28.5 67.2 -28.8 65.5 -29.1 63.45 -29.65 61.4 -30.15 58.4 -30.9 55.4 -31.7 51 -32.8 49.55 -33.15 47.85 -33.5 46.1 -33.9 44.45 -34.2 42.8 -34.55 41.5 -34.8 38.9 -35.3 36.25 -35.75 Z"/>
</g>

<g id="RD_Prun_Mane_cycle_5_Layer0_1_FILL">
<path fill="#672E8A" stroke="none" d="
M 103.4 21.15
Q 96.55 22.35 89.95 22.35 83.35 22.4 76.95 21.65 70.55 20.9 64.25 19.6 68.75 18.6 72.8 17.2 76.85 15.8 80.8 14.25 74.3 15.3 67.55 15.55 60.8 15.75 54.1 15 47.55 14.15 41.35 13.45 35.1 12.85 29.05 12.7 16.85 12.5 4.6 14 -7.65 15.5 -19.8 18.05 -18.55 35.75 -17.15 53.5 -10.1 50.6 -3.1 48.15 3.95 45.7 10.9 43.75 14.35 42.8 17.75 41.95 21.15 41.1 24.5 40.5 26.2 40.15 27.8 39.9 29.45 39.65 31.1 39.35 32.6 39.25 33.85 39.1 35.05 39 36.2 38.9 37.35 38.75 38.75 38.7 42.7 38.5 46.8 38.4 48.9 38.5 50.7 38.5 52.5 38.5 54.2 38.4 55.9 38.35 57.75 38.3 63.2 38.05 69.05 37.2 71.5 36.75 74 36.25 76.5 35.7 78.95 35.1 85.6 33.5 92.2 31.1 98.85 28.7 105.2 25.35 111.55 22 117.4 17.45 110.3 20 103.4 21.15 Z"/>
</g>

<g id="RD_Prun_Mane_cycle_5_Layer0_2_FILL">
<path fill="#62BC4E" stroke="none" d="
M 36.25 -35.75
Q 33.6 -36.15 31.1 -36.5 25.9 -37.2 20.9 -37.6 15.9 -38 10.95 -38.25 1.15 -38.6 -8.35 -38.3 -17.85 -38.05 -27.05 -37.3
L -23.9 -8.1
Q -13.5 -9.75 -2.85 -10.8 7.85 -11.9 18.8 -11.9 29.7 -11.9 40.8 -10.45 45 -9.9 48.9 -9.25 52.85 -8.65 56.7 -7.95 58.7 -7.65 60.85 -7.4 62.95 -7.2 65.05 -7.05 67.2 -6.95 69.05 -7 73.35 -7.1 77.65 -7.55 81.95 -8 86 -8.85 90.05 -9.65 93.65 -10.95 85.4 -11.45 76.85 -13.85 81.05 -16.2 84.55 -18.9 88 -21.65 90.35 -24.55 92.75 -27.5 93.7 -30.4 90.75 -29.25 86 -28.6 81.35 -27.95 75.55 -28.05 72.75 -28.15 70.85 -28.3 68.9 -28.5 67.2 -28.8 65.5 -29.1 63.45 -29.65 61.4 -30.15 58.4 -30.9 55.4 -31.7 51 -32.8 49.55 -33.15 47.85 -33.5 46.1 -33.9 44.45 -34.2 42.8 -34.55 41.5 -34.8 38.9 -35.3 36.25 -35.75 Z"/>
</g>

<g id="RD_Prun_Mane_cycle_5_Layer0_3_FILL">
<path fill="#1D9AD6" stroke="none" d="
M 34.65 -38.7
Q 29 -39.55 23.2 -40 17.4 -40.5 11.9 -40.4 5.25 -40.5 -0.8 -40.35 -6.8 -40.15 -11.85 -39.85 -16.85 -39.5 -20.6 -39.15 -24.3 -38.8 -26.3 -38.6 -28.35 -38.35 -28.3 -38.4 -25.5 -15.3 -22.75 7.75 -19.95 30.8 -17.25 53.85 -17.25 53.9 -15.4 53.25 -13.55 52.65 -10.3 51.55 -7 50.5 -2.7 49.2 1.65 47.9 6.6 46.65 11.55 45.35 16.7 44.3 19.9 43.65 23.1 43.15 26.3 42.6 29.3 42.25 32.85 41.95 36.05 41.75 39.3 41.6 42.75 41.6 46.65 41.75 50.55 41.8 54.45 41.8 58 41.65 61.6 41.5 64.5 41.25 67.4 40.95 69.35 40.55 72.6 39.85 76.55 38.75 80.6 37.6 85 36.05 89.4 34.45 93.85 32.5 98.25 30.55 102.25 28.2 106.3 25.9 109.6 23.55 112.9 21.15 115.25 19.15 117.65 17.1 118.9 15.85
L 120.15 14.6 118.6 15.2
Q 117.05 15.8 114.3 16.65 111.6 17.55 107.95 18.4 104.35 19.2 100.25 19.65 94.7 20.35 88.9 20.4 83.15 20.45 77.65 20.2 72.2 19.9 67.55 19.55 72.2 19 77.55 17.5 82.9 15.95 88.4 13.55 93.85 11.15 98.8 7.95 103.7 4.8 107.5 0.9 110.05 -1.65 111.8 -4.1 113.5 -6.55 114.65 -8.85 115.8 -11.15 116.6 -13.25 118.15 -16.6 119 -18.55
L 119.85 -20.45 118.35 -19.5
Q 116.85 -18.6 114.3 -16.95 112.85 -16 111.7 -15.4 110.6 -14.85 109.35 -14.5 106.95 -13.65 103.8 -13.15 100.65 -12.55 97.2 -12.45 93.7 -12.35 90.2 -12.5 86.7 -12.7 83.45 -13.05 80.25 -13.4 77.65 -13.65 80.1 -14.45 82.9 -16.05 85.65 -17.6 88.2 -19.65 90.7 -21.7 92.4 -23.9 94.1 -26.1 94.75 -27.8 95.4 -29.55 95.4 -30.5 95.45 -31.45 95.4 -31.4 95.55 -31.5 94.55 -31.25 93.6 -31 91.4 -30.7 89.1 -30.4 85.4 -30.2 82.7 -30.15 79.45 -30.3 76.2 -30.5 72.9 -30.85 71.65 -31 70.85 -31.15 70.05 -31.25 69.45 -31.45 68.85 -31.6 68.1 -31.75 67.1 -32 66.05 -32.25 65 -32.5 64.1 -32.7 63.55 -32.9 61.05 -33.55 58.5 -34.2 54.5 -35.1 50.5 -36 45.4 -36.95 40.35 -37.9 34.65 -38.7
M 62.4 -28.15
Q 65.2 -27.45 67.45 -27.05 69.75 -26.65 71.85 -26.55 77.6 -26.15 82.55 -26.5 87.5 -26.9 91.25 -27.9 89.5 -25.15 86.75 -22.55 84 -20 80.45 -17.65 76.9 -15.3 72.8 -13.35 79.7 -11.2 86.6 -10.1 93.55 -9 100.15 -9.4 106.8 -9.8 112.75 -12.25 110.9 -8.2 107.6 -4.4 104.25 -0.6 99.85 2.7 95.45 6 90.45 8.6 82.9 12.5 74.45 15.3 66.05 18.1 56.8 19.25 59.75 20.1 62.85 20.9 65.95 21.75 69.25 22.25 75.3 23.3 81.6 23.75 87.95 24.2 94.6 23.8 101.2 23.45 108.1 21.9 99.5 26.95 90.4 30.1 81.3 33.25 72.15 35.05 67.25 36.1 62.15 36.45 57.05 36.85 52.25 36.9 47.4 36.95 43.25 37 39.1 37.05 35.95 37.35 27.2 38.2 18.6 40.2 10.05 42.2 1.4 45.05 -7.25 47.95 -16.2 51.45 -20.7 7.85 -25.3 -35.75 -13.95 -36.65 -1.95 -36.8 10 -36.9 22.4 -35.8 34.75 -34.7 47.35 -31.9 52.25 -30.75 55.9 -29.8 59.6 -28.9 62.4 -28.15 Z"/>
</g>

<g id="RD_Neck_0_Layer0_0_FILL">
<path fill="#F4B6D1" stroke="none" d="
M -8.5 -95
L -9.05 -95.1 -9.05 -95.05 -8.5 -95
M 17.15 -95.1
L 17.65 -95.1 17.65 -95.15 17.15 -95.1 Z"/>

<path fill="#9EDBF8" stroke="none" d="
M 17.1 -93.6
L 17.15 -95.1 17.65 -95.15
Q 17.35 -105.8 4.4 -107.35 -8.35 -106.95 -9.05 -95.1
L -8.5 -95 -8.6 -93.5
Q -9 -84.8 -14.05 -36.5 -15 -27.3 -15.7 -19.6
L -15.8 -18.7 -15.8 -18.65 -15.85 -18.1
Q -16.3 -13.5 -18.2 -8 -18.39453125 -5.665625 -1.15 -0.05 24.5900390625 -5.5109375 24.5 -7.4 22.65 -12.8 22.35 -17.25
L 22.35 -17.4 22.25 -18.75
Q 21.65 -26.9 20.8 -36.7 16.9 -82.4 17.1 -93.6 Z"/>

<path fill="#6DABDD" stroke="none" d="
M 4.65 -109.35
Q 4.55 -109.35 4.5 -109.35 -10.35 -108.95 -11.05 -95.15
L -11.5 -95.15 -11.6 -93.65
Q -12 -85 -17.05 -36.8 -18 -27.6 -18.7 -19.85
L -18.85 -18.4
Q -18.85 -18.35 -18.85 -18.25 -19.3 -13.65 -18.2 -8 -16.3 -13.5 -15.85 -18.1
L -15.8 -18.65 -15.8 -18.7 -15.7 -19.6
Q -15 -27.3 -14.05 -36.5 -9 -84.8 -8.6 -93.5
L -8.5 -95 -9.05 -95.05 -9.05 -95.1
Q -8.35 -106.95 4.4 -107.35 17.35 -105.8 17.65 -95.15
L 17.65 -95.1 17.15 -95.1 17.1 -93.6
Q 16.9 -82.4 20.8 -36.7 21.65 -26.9 22.25 -18.75
L 22.35 -17.4 22.35 -17.25
Q 22.65 -12.8 24.5 -7.4 25.65 -12.95 25.35 -17.35 25.35 -17.4 25.35 -17.45
L 25.25 -18.95
Q 24.65 -27.1 23.8 -36.95 19.9 -82.4 20.1 -93.55
L 20.15 -95.05 19.65 -95.05
Q 19.55 -107.6 4.65 -109.35 Z"/>
</g>

<g id="Wingcycle_10_Layer9_0_FILL">
<path fill="#6DABDD" stroke="none" d="
M 35.7 -23.75
L 35.75 -23.75
Q 16.769140625 -26.4125 -1.3 -0.35 -0.372265625 1.4890625 0.55 3.45 1.2173828125 4.8548828125 1.85 6.3 9.59375 -0.7189453125 21.4 -1.55 35.2083984375 -2.5791015625 42.75 -5.8 51.642578125 -9.4822265625 49.15 -16.25
L 49.15 -16.25
Q 47.1958984375 -22.6220703125 35.75 -23.75
L 35.7 -23.75 Z"/>
</g>

<g id="Wingcycle_10_Layer8_0_FILL">
<path fill="#6DABDD" stroke="none" d="
M 48.45 -51.4
L 48.5 -51.4
Q 23.6794921875 -44.778515625 -2.65 -3 -1.2298828125 -0.308984375 0.2 2.75 21.609375 -20.807421875 58.35 -30.45 58.4224609375 -30.46171875 58.45 -30.5 72.7130859375 -35.13671875 78.5 -39.75 85.337109375 -45.14921875 81.95 -50.55 81.7603515625 -50.872265625 81.45 -51.1 70.8044921875 -57.93984375 48.45 -51.4 Z"/>
</g>

<g id="Wingcycle_10_Layer7_0_FILL">
<path fill="#6DABDD" stroke="none" d="
M 58.55 -54.7
Q 72.9939453125 -62.8251953125 80.4 -70.25 90.1234375 -79.9880859375 91.9 -85.5 93.0498046875 -88.915234375 91.6 -91 90.3830078125 -93.0853515625 86.75 -93.8 86.72578125 -93.815234375 86.65 -93.85 60.884375 -100.785546875 32.8 -67 6.55390625 -35.556640625 -4.45 -6.3 -2.759375 -3.3275390625 -1 0.2 30.03671875 -38.7552734375 58.55 -54.7 Z"/>
</g>

<g id="Wingcycle_10_Layer6_0_FILL">
<path fill="#6DABDD" stroke="none" d="
M 56.4 -101
Q 53.8103515625 -104.794140625 45.25 -104 45.114453125 -103.9880859375 44.95 -103.95 15.85078125 -95.6009765625 3.95 -61.2 -6.1009765625 -31.9990234375 -6.4 -9.65 -4.948046875 -7.4046875 -2.5 -2.7 2.5615234375 -12.67421875 11.35 -29.55 20.4416015625 -46.990625 31 -56.95
L 31.05 -57
Q 50.2259765625 -75.396875 56 -89.5 59.298046875 -97.401953125 56.4 -101 Z"/>
</g>

<g id="Wingcycle_10_Layer5_0_FILL">
<path fill="#9EDBF8" stroke="none" d="
M 35.35 -20.9
L 35.3 -20.9
Q 17.558984375 -22.9646484375 0.25 2.9 0.4033203125 3.166015625 0.5 3.4 8.81953125 -3.591015625 21.15 -4.5 34.229296875 -5.381640625 41.4 -8.4 47.4787109375 -10.9826171875 46.1 -15.4 44.344140625 -19.9681640625 35.35 -20.9 Z"/>
</g>

<g id="Wingcycle_10_Layer4_0_FILL">
<path fill="#9EDBF8" stroke="none" d="
M 76.4 -42.05
Q 80.8623046875 -45.5248046875 79.35 -48.9 69.6044921875 -54.458984375 49.55 -48.65
L 49.5 -48.6
Q 25.896484375 -42.0658203125 0.6 -2.25 22.111328125 -23.9615234375 57.3 -33.25 70.86953125 -37.687890625 76.4 -42.05 Z"/>
</g>

<g id="Wingcycle_10_Layer3_0_FILL">
<path fill="#9EDBF8" stroke="none" d="
M 56.85 -57.25
Q 70.86171875 -65.0833984375 78 -72.3 87.121875 -81.3779296875 88.85 -86.45 89.518359375 -88.399609375 88.85 -89.6 88.15859375 -90.530859375 86.3 -90.95 86.224609375 -90.9322265625 86.15 -90.95 86.087109375 -90.95703125 86 -91 61.916796875 -97.133203125 35.3 -65.2 8.555859375 -33.0705078125 -2.2 -3.25 28.5767578125 -41.41171875 56.85 -57.25 Z"/>
</g>

<g id="Wingcycle_10_Layer2_0_FILL">
<path fill="#9EDBF8" stroke="none" d="
M 53.8 -99.55
Q 51.91015625 -101.7201171875 46 -101.25 18.3236328125 -93.0548828125 7 -60.15 1.58046875 -44.4623046875 -1.25 -31.15 -4.2435546875 -20.6966796875 -6.1 -9.85 -6.1291015625 -9.53984375 -6.2 -9.25 -4.914453125 -6.2400390625 -3 -3.7 -2.6076171875 -6.4267578125 -2.15 -9.15
L -2.15 -9.2
Q -1.9740234375 -10.069140625 -1.85 -10.95 2.456640625 -19.316015625 8.5 -30.95 17.82578125 -48.8037109375 28.65 -59
L 28.7 -59
Q 47.358984375 -76.959375 53.05 -90.6 55.623046875 -96.7798828125 53.8 -99.55 Z"/>
</g>

<g id="Wingcycle_10_Layer1_0_FILL">
<path fill="#9EDBF8" stroke="none" d="
M 42.3 -71.05
Q 42.45 -73.25 40.7 -73.25 40.65 -73.25 32.2 -65.25 30.8 -65.25 22.3 -54.25 13.55 -43 10.05 -36.35 -3.4490234375 -15.382421875 -4.55 -6.05 -2.0732421875 -1.8966796875 -0.6 1.1 0.8658203125 4.1037109375 1.45 5.65 9.354296875 -5.35703125 9.9 -5.7 10.4484375 -5.9978515625 10.2 -6.45 6.9708984375 -4.33359375 4.5 -2.55 5.0671875 -3.1650390625 5.65 -3.85 7.8201171875 -6.4158203125 9.4 -8.35 10.04921875 -7.1 11.5 -7.1 13.65 -7.1 22.8 -18.4 22.79609375 -18.48515625 22.8 -18.6 23.425390625 -19.282421875 24.05 -20.05
L 23 -21.2
Q 22.2740234375 -20.871484375 21.6 -20.55 21.3869140625 -20.6 21.15 -20.6 16.85 -17.8 13.7 -17.1
L 13.8 -17.3
Q 15.95 -18.8 18.65 -23.25 21.75 -28.25 23.7 -30.2 24.05 -30.55 31.85 -36.2 37 -39.95 37 -42.65 37.1 -44.65 35.5 -44.65 34.5 -45.45 33.5 -45.45 21.1703125 -32.844140625 15 -24.7 14.6443359375 -25.1 13.9 -25.1 12.85 -25.1 12.15 -24 11.3 -22.65 10.5 -22.3 12.95 -25.75 12.95 -26.6 12.95 -27.35 11.25 -28.6 11.4 -28.85 11.4 -29.8 11.55 -30.55 12.15 -30.55 14.35 -30.55 17.65 -38 20.95 -45.45 22.05 -45.45 26 -45.45 31.25 -57.95 32.75 -60.45 42.3 -71.05 Z"/>
</g>

<g id="Wingcycle_10_Layer0_0_FILL">
<path fill="#6DABDD" stroke="none" d="
M 17.4 -66.2
L 17.1 -66.3
Q 7.1763671875 -69.9880859375 0.45 -49.35 0.28984375 -48.8369140625 0.5 -48.4 0.7599609375 -47.9248046875 1.25 -47.8 1.7515625 -47.6017578125 2.2 -47.85 2.687109375 -48.0716796875 2.85 -48.6 8.509765625 -65.9619140625 15.95 -64.05 22.0037109375 -56.2435546875 11.3 -36.4
L 8.55 -28.15 10.6 -31.3
Q 10.6150390625 -31.2984375 10.6 -31.35 21.8716796875 -48.98046875 29.8 -47.55 35.0919921875 -45.0650390625 32.8 -38.55 30.184765625 -31.065234375 21.25 -23.15
L 21.25 -23.15
Q 13.75390625 -16.52109375 5.75 -8.4
L 8.85 -10.2
Q 13.8341796875 -13.0544921875 17 -13.25 19.6634765625 -13.3521484375 20.85 -11.2
L 20.8 -11.3
Q 22.111328125 -8.34765625 19 -5.8 15.2435546875 -2.712890625 6 -0.1 5.5046875 0.0443359375 5.25 0.5 5.002734375 0.9525390625 5.15 1.45 5.294140625 1.94609375 5.75 2.2 6.2017578125 2.4470703125 6.7 2.3 16.6064453125 -0.487109375 20.6 -3.85 25.3396484375 -7.753125 23.05 -12.35
L 23.05 -12.4 23.05 -12.4
Q 21.136328125 -15.8482421875 16.9 -15.7 16.6361328125 -15.691796875 16.3 -15.7 19.2869140625 -18.0580078125 22.9 -21.25
L 22.9 -21.3
Q 32.4154296875 -29.7349609375 35.15 -37.75 38.2830078125 -46.66328125 30.7 -49.9
L 30.6 -49.95 30.45 -50
Q 24.37109375 -51.551171875 16.95 -43.8 23.555078125 -59.5658203125 17.6 -65.95
L 17.4 -66.2 Z"/>
</g>

<g id="RD_Skull_2_Layer0_0_FILL">
<path fill="#6DABDD" stroke="none" d="
M 6.5 -52
Q 3.8232421875 -52.20390625 0.9 -52.25 -3.4978515625 -52.3205078125 -7.7 -51.65 -12.3541015625 -50.8947265625 -16.75 -49.2 -18.8431640625 -48.379296875 -20.75 -47.4 -26.1625 -44.578125 -30.1 -40.4 -30.1439453125 -40.3251953125 -30.25 -40.25 -30.637890625 -39.783203125 -31.05 -39.3 -31.219921875 -39.1001953125 -31.4 -38.9 -31.4419921875 -38.85 -31.5 -38.8 -32.3697265625 -37.730078125 -33.2 -36.65 -46.1 -20.0744140625 -46.1 -1.1 -46.1 11.3 -43.4 20.4 -40.6 29.75 -34.65 36.5 -27.65 44.55 -18.5 48.75 -9.25 53.05 1.5 53.05 22.65 53.05 37 36.5 42.8 29.9 45.45 20.1 47.85 11.1 47.9 -1.7 47.8548828125 -21.3345703125 36.05 -36.65 35.2205078125 -37.7357421875 34.3 -38.8 34.2921875 -38.8501953125 34.25 -38.9 33.8369140625 -39.4025390625 33.4 -39.9 33.247265625 -40.076171875 33.1 -40.25 33.019921875 -40.3251953125 32.95 -40.4 29.2015625 -44.5505859375 24.15 -47.25 20.981640625 -48.9029296875 17.3 -50 13.7369140625 -51.0845703125 9.45 -51.65 8.0302734375 -51.842578125 6.5 -52
M 30.35 -38.8
Q 30.7716796875 -38.38359375 31.15 -37.95 31.7154296875 -37.3041015625 32.25 -36.65 44.8521484375 -21.4498046875 44.9 -1.7 44.85 10.45 42.6 18.95 40.15 28.25 34.75 34.55 21.25 50.05 1.5 50.05 -8.55 50.05 -17.25 46.05 -25.8 42.1 -32.4 34.55 -38 28.1 -40.6 19.25 -43.1 10.65 -43.1 -1.1 -43.1 -20.5748046875 -29.4 -36.65 -29.10546875 -37.00078125 -28.8 -37.35 -28.15 -38.0984375 -27.5 -38.8 -27.4234375 -38.8501953125 -27.4 -38.9 -26.6900390625 -39.5982421875 -26 -40.25 -25.883984375 -40.325390625 -25.8 -40.4 -23.431640625 -42.5267578125 -20.75 -44.15 -17.675390625 -45.96484375 -14.2 -47.15 -7.25 -49.55 0.9 -49.25 10.95 -48.85 16.65 -47.2 20.4560546875 -46.0625 23.7 -44.15 26.42265625 -42.547265625 28.75 -40.4 28.8318359375 -40.325390625 28.9 -40.25 29.6146484375 -39.5994140625 30.25 -38.9 30.3234375 -38.85 30.35 -38.8 Z"/>

<path fill="#9EDBF8" stroke="none" d="
M 31.15 -37.95
Q 30.7716796875 -38.38359375 30.35 -38.8 30.3234375 -38.85 30.25 -38.9 29.6146484375 -39.5994140625 28.9 -40.25 28.8318359375 -40.325390625 28.75 -40.4 26.42265625 -42.547265625 23.7 -44.15 20.4560546875 -46.0625 16.65 -47.2 10.95 -48.85 0.9 -49.25 -7.25 -49.55 -14.2 -47.15 -17.675390625 -45.96484375 -20.75 -44.15 -23.431640625 -42.5267578125 -25.8 -40.4 -25.883984375 -40.325390625 -26 -40.25 -26.6900390625 -39.5982421875 -27.4 -38.9 -27.4234375 -38.8501953125 -27.5 -38.8 -28.15 -38.0984375 -28.8 -37.35 -29.10546875 -37.00078125 -29.4 -36.65 -43.1 -20.5748046875 -43.1 -1.1 -43.1 10.65 -40.6 19.25 -38 28.1 -32.4 34.55 -25.8 42.1 -17.25 46.05 -8.55 50.05 1.5 50.05 21.25 50.05 34.75 34.55 40.15 28.25 42.6 18.95 44.85 10.45 44.9 -1.7 44.8521484375 -21.4498046875 32.25 -36.65 31.7154296875 -37.3041015625 31.15 -37.95 Z"/>
</g>

<g id="RD_Mouth_front_chin__offcenter_0_Layer1_0_FILL">
<path fill="#9EDBF8" stroke="none" d="
M 37 3
Q 35.4482421875 1.9125 32.5 3.5 11.965625 12.7740234375 -7.2 2.65 -15.0669921875 10.61171875 -30.45 4.2 -34.428515625 2.26328125 -35.1 3.05 -26.379296875 13.5955078125 -14.6 17.85 3.9671875 24.438671875 20.35 16.8 31.5595703125 11.51484375 37 3 Z"/>
</g>

<g id="RD_Hair_07_9_Layer0_0_FILL">
<path fill="#FDF6AE" stroke="none" d="
M 8.55 -0.95
Q 6.398046875 -3.252734375 4 -5.7 1.6525390625 -8.1046875 -7.5 -14.6 -5.7623046875 -3.8810546875 -4.15 6 -0.330078125 1.0494140625 6.3 1.75 10.7513671875 1.3603515625 8.55 -0.95 Z"/>

<path fill="#1E98D5" stroke="none" d="
M 4 -5.7
Q 6.398046875 -3.252734375 8.55 -0.95 10.7513671875 1.3603515625 6.3 1.75 -0.330078125 1.0494140625 -4.15 6 -5.039453125 10.891015625 -3.65 9.65 -0.7775390625 5.3033203125 8.1 3.55 16.9814453125 1.8451171875 3.45 -9.7
L -5.35 -16.3
Q -9.184765625 -17.27734375 -7.5 -14.6 1.6525390625 -8.1046875 4 -5.7 Z"/>
</g>

<g id="RD_Ear_1_Layer1_0_FILL">
<path fill="#9EDBF8" stroke="none" d="
M 2.45 -35.95
Q 0.95 -33.9 0 -30.55 -0.8 -27.75 -2.05 -18.8
L -3.15 -10.35
Q -3.116796875 -10.236328125 -3.1 -10.15 2.44375 8.682421875 9.05 22.35 14.6 19.45 17.75 9.75 20.45 1.45 20.2 -4.95
L 20.2 -5
Q 19.9 -11.55 18.15 -17.5 16.5 -23.1 13.2 -29.1 8.85 -37.1 4.4 -37.75 3.55 -37.55 2.45 -35.95
M 9.35 -27.8
Q 14.55 -18.3 14.7 -10.15 14.8462890625 -2.0525390625 9.8 6.35 9.6794921875 6.5888671875 9.55 6.8
L 9.7 6.35
Q 15.65 -8.15 9.35 -27.8 Z"/>

<path fill="#6DABDD" stroke="none" d="
M 14.7 -10.15
Q 14.55 -18.3 9.35 -27.8 15.65 -8.15 9.7 6.35
L 9.55 6.8
Q 9.6794921875 6.5888671875 9.8 6.35 14.8462890625 -2.0525390625 14.7 -10.15
M 15.85 -30.55
Q 13 -35.75 9.45 -38.55 6.65 -40.8 4.65 -40.75
L 4.6 -40.75
Q 2.85 -41.05 0.95 -38.85 -1.1 -36.45 -2.85 -31.55 -4.3 -27.4 -4.65 -20.95 -5.0384765625 -13.7126953125 -3.3 -10.3
L -3.3 -10.3
Q -3.24765625 -10.1875 -3.2 -10.1
L -3.15 -10.35 -2.05 -18.8
Q -0.8 -27.75 0 -30.55 0.95 -33.9 2.45 -35.95 3.55 -37.55 4.4 -37.75 8.85 -37.1 13.2 -29.1 16.5 -23.1 18.15 -17.5 19.9 -11.55 20.2 -5
L 20.2 -4.95
Q 20.45 1.45 17.75 9.75 14.6 19.45 9.05 22.35
L 9.65 22.5
Q 15.5001953125 20.8228515625 19.5 11.75 23.5525390625 2.6892578125 23.2 -5.1 22.9 -12 21.05 -18.25 19.3 -24.2 15.85 -30.55 Z"/>
</g>

<g id="Mask_Mask_RD2_Eyewhite_3_4_1_Layer1_0_FILL">
<path fill="#FFFFFF" stroke="none" d="
M 19.8 -17.45
Q 18.8931640625 -19.258984375 17.7 -20.7
L 17.7 -20.65
Q 13.5314453125 -24.9595703125 7.3 -25.2 2.1509765625 -25.3900390625 -3.35 -22.8
L -3.35 -22.85
Q -5.1125 -21.846875 -6.85 -20.55 -8.8 -18.75 -10.55 -16.85 -12.1 -15.2 -13.4 -13.35 -14.85 -11.3 -16.1 -9.2 -17.35 -7 -18.45 -4.7 -19 -3.6 -19.55 -2.4 -20.067578125 -0.894921875 -20.5 0.65 -23.4314453125 11.3853515625 -19.45 19.15 -15.521484375 26.9826171875 -7.05 27.3 -6.3294921875 27.3373046875 -5.65 27.3 2.151171875 27.0375 9.6 20.25 16.1873046875 14.3169921875 19.35 6.15 20.1560546875 4.2439453125 20.75 2.2 22.1896484375 -3.109765625 21.95 -7.7 21.83984375 -13.462890625 19.8 -17.45 Z"/>
</g>

<g id="RD2_Eyewhite_3_4_1_Layer1_0_FILL">
<path fill="#FFFFFF" stroke="none" d="
M 19.8 -17.45
Q 18.8931640625 -19.258984375 17.7 -20.7
L 17.7 -20.65
Q 13.5314453125 -24.9595703125 7.3 -25.2 2.1509765625 -25.3900390625 -3.35 -22.8
L -3.35 -22.85
Q -5.1125 -21.846875 -6.85 -20.55 -8.8 -18.75 -10.55 -16.85 -12.1 -15.2 -13.4 -13.35 -14.85 -11.3 -16.1 -9.2 -17.35 -7 -18.45 -4.7 -19 -3.6 -19.55 -2.4 -20.067578125 -0.894921875 -20.5 0.65 -23.4314453125 11.3853515625 -19.45 19.15 -15.521484375 26.9826171875 -7.05 27.3 -6.3294921875 27.3373046875 -5.65 27.3 2.151171875 27.0375 9.6 20.25 16.1873046875 14.3169921875 19.35 6.15 20.1560546875 4.2439453125 20.75 2.2 22.1896484375 -3.109765625 21.95 -7.7 21.83984375 -13.462890625 19.8 -17.45 Z"/>
</g>

<g id="RD2_Iris_0_Layer2_0_FILL">
<path fill="url(#Gradient_1)" stroke="none" d="
M 17.7 -13.05
Q 13.45 -21.1 5.25 -22.95 -3 -24.85 -10.3 -19.4 -17.6 -14 -19.75 -4.45 -21.95 5.05 -17.7 13.1 -13.45 21.15 -5.2 23 3 24.85 10.3 19.45 17.6 14 19.8 4.5 21.95 -5 17.7 -13.05 Z"/>
</g>

<g id="RD2_Iris_0_Layer1_0_FILL">
<path fill="#FFB8E0" stroke="none" d="
M -6.5 7.8
Q -17.7408203125 11.0453125 -18.7 11 -17.71953125 13.7845703125 -15.6 16.55
L 0.15 6.6 -6.5 7.8 Z"/>
</g>

<g id="RD2_Iris_0_Layer0_0_FILL">
<path fill="#DB53A2" stroke="none" d="
M -20.2 5.15
Q -19.7849609375 8.212109375 -18.65 11.05
L 0.45 6.45 -20.2 5.15 Z"/>
</g>

<g id="RD2_Pupil_0_Layer0_0_FILL">
<path fill="#000000" stroke="none" d="
M 12.45 -9.6
Q 10.5203125 -15.9396484375 5.5 -17.45 0.487109375 -18.9677734375 -4.7 -14.75 -9.854296875 -10.4658203125 -12.15 -2.95 -14.402734375 4.56015625 -12.5 10.9 -10.484375 17.37421875 -5.45 18.9 -0.4265625 20.40234375 4.7 16.1 9.91484375 11.9001953125 12.15 4.4 14.43828125 -3.12578125 12.45 -9.6 Z"/>
</g>

<g id="RD2_Hilights_0_Layer1_0_FILL">
<path fill="#FFFFFF" stroke="none" d="
M -8.15 11.5
Q -8.11953125 11.614453125 -8.1 11.7 -8.0240234375 11.8134765625 -7.95 11.95 -7.7912109375 12.381640625 -7.55 12.75 -7.4705078125 12.844140625 -7.4 12.9 -7.2078125 13.113671875 -6.95 13.3 -6.50546875 13.6888671875 -6.05 13.8 -5.996875 13.8515625 -5.95 13.85 -5.6171875 13.9560546875 -5.2 13.95 -3.9484375 13.97890625 -3.4 12.75 -3.3849609375 12.698046875 -3.4 12.65 -3.1736328125 12.1291015625 -3.25 11.35 -3.259765625 11.128515625 -3.35 10.85 -3.3462890625 10.7740234375 -3.4 10.7 -3.7330078125 9.7962890625 -4.4 9.15 -4.435546875 9.108203125 -4.5 9.05 -4.72890625 8.870703125 -4.9 8.75 -5.579296875 8.305859375 -6.3 8.4 -7.123828125 8.352734375 -7.65 8.9 -7.813671875 9.0921875 -8 9.35 -8.0568359375 9.446484375 -8.1 9.55 -8.510546875 10.357421875 -8.15 11.5
M 3.85 -8.7
L 3.8 -8.75
Q 1.3921875 -11.8771484375 -1.15 -11.7 -4.233984375 -11.8736328125 -5.6 -8.2
L -5.6 -8.15
Q -6.528125 -5.45625 -5.75 -1.6 -5.0052734375 2.07265625 -3.05 4.6
L -3.05 4.6
Q -0.6041015625 7.82109375 2 7.65 5.12890625 7.837890625 6.4 4 7.375390625 1.40078125 6.6 -2.4
L 6.6 -2.45
Q 5.8041015625 -6.1376953125 3.85 -8.7 Z"/>
</g>

<g id="RD2_Iris_2_Layer2_0_FILL">
<path fill="url(#Gradient_1)" stroke="none" d="
M 17.7 -13.05
Q 13.45 -21.1 5.25 -22.95 -3 -24.85 -10.3 -19.4 -17.6 -14 -19.75 -4.45 -21.95 5.05 -17.7 13.1 -13.45 21.15 -5.2 23 3 24.85 10.3 19.45 17.6 14 19.8 4.5 21.95 -5 17.7 -13.05 Z"/>
</g>

<g id="RD2_Iris_2_Layer1_0_FILL">
<path fill="#FFB8E0" stroke="none" d="
M 13.45 16.85
Q 16.0119140625 13.9716796875 17.35 11.1 16.4345703125 11.1580078125 5.55 8.1
L -0.15 6.5 13.45 16.85 Z"/>
</g>

<g id="RD2_Iris_2_Layer0_0_FILL">
<path fill="#DB53A2" stroke="none" d="
M 17.35 11.4
Q 18.9265625 8.2283203125 19.75 5.1 9.7240234375 5.888671875 -0.25 6.5
L 17.35 11.4 Z"/>
</g>

<g id="RD2_Blink_front_0_Layer2_0_FILL">
<path fill="#000000" stroke="none" d="
M 21.9 -5.65
L 23.1 -7.3
Q 23.1501953125 -11.0392578125 22.05 -14.9 21.50234375 -16.8623046875 18.45 -20.35 15.1640625 -24.176953125 10.6 -25 1.2861328125 -26.751171875 -7.55 -20.4 -11.2509765625 -17.658984375 -14.3 -13.75 -17.4216796875 -9.651953125 -19.9 -2.9 -20.3908203125 -1.584375 -20.65 -0.25 -21.45 3.05 -21.55 5.3 -22.05 12.45 -21.05 15.3 -20.5654296875 16.36484375 -20.6 16.05 -21.7583984375 11.3294921875 -18.4 -0.35
L -17.55 -3
Q -15.6931640625 -8.214453125 -12.6 -12.2 -9.701171875 -15.798828125 -7.15 -17.95 8.8515625 -29.4330078125 18.45 -16.6 21.2458984375 -12.47421875 21.9 -5.65 Z"/>
</g>

<g id="RD2_Blink_front_0_Layer1_0_FILL">
<path fill="#000000" stroke="none" d="
M 34.5 -5.75
Q 34.45 -6.95 22.25 -8.95
L 22.65 -6.8
Q 34.55 -4.55 34.5 -5.75 Z"/>
</g>

<g id="RD2_Blink_front_0_Layer1_1_FILL">
<path fill="#000000" stroke="none" d="
M 21 -16.15
L 21.9 -14.05
Q 36.65 -16.1 36.25 -17.25 36.05 -17.8 29.15 -17.1 21.9 -16.25 21 -16.15 Z"/>
</g>

<g id="RD2_Blink_front_0_Layer1_2_FILL">
<path fill="#000000" stroke="none" d="
M 18.2 -19.05
Q 28 -25.85 26.8 -26.7 26 -27.15 16.95 -21.2
L 18.2 -19.05 Z"/>
</g>

<g id="RD2_Blink_front_100_Layer2_0_FILL">
<path fill="#000000" stroke="none" d="
M 21.9 -5.65
L 23.1 -7.3
Q 23.1501953125 -11.0392578125 22.05 -14.9 21.50234375 -16.8623046875 18.45 -20.35 15.1640625 -24.176953125 10.6 -25 1.2861328125 -26.751171875 -7.55 -20.4 -11.2509765625 -17.658984375 -14.3 -13.75 -17.4216796875 -9.651953125 -19.9 -2.9 -20.3908203125 -1.584375 -20.65 -0.25 -21.203125 2.1416015625 -21.4 5.3 -21.922265625 12.8583984375 -21.05 15.3 -20.5654296875 16.36484375 -20.6 16.05 -21.7583984375 11.3294921875 -18.4 -0.35
L -17.55 -3
Q -15.6931640625 -8.214453125 -12.6 -12.2 -9.701171875 -15.798828125 -7.15 -17.95 8.8515625 -29.4330078125 18.45 -16.6 21.2458984375 -12.47421875 21.9 -5.65 Z"/>
</g>

<g id="RD_Brow_front_1_Layer2_0_FILL">
<path fill="#9EDBF8" stroke="none" d="
M 3.1 -1.5
Q 8.665625 -11.21171875 2.1 -17.25 1.5234375 -21.40078125 -9.4 -25.45 -20.3255859375 -29.4990234375 -34.15 -13.7 -40.514453125 0.240625 -34.85 -1.55 -21.6294921875 -0.3052734375 -6.05 -1.7 -6.0109375 -1.5755859375 -6 -1.5
L 3.1 -1.5 Z"/>
</g>

<g id="RD_Lashes_02_6_Layer0_0_FILL">
<path fill="#000000" stroke="none" d="
M -0.05 5.95
L -0.3 8
Q 8.85 9.6 9.15 8.4 9.35 7.3 -0.05 5.95 Z"/>
</g>

<g id="RD_Lashes_02_6_Layer0_1_FILL">
<path fill="#000000" stroke="none" d="
M 0.25 1.75
L 0.15 3.95
Q 11.25 3.35 11.4 2.2 11.45 1.6 6.35 1.65 0.9 1.75 0.25 1.75 Z"/>
</g>

<g id="RD_Lashes_02_6_Layer0_2_FILL">
<path fill="#000000" stroke="none" d="
M 10.65 -2.75
Q 10.562890625 -3.4384765625 0.55 -2.3 -5.8814453125 -1.6576171875 -0.3 -0.1 10.7623046875 -1.566796875 10.65 -2.75 Z"/>
</g>

<g id="RD_Brow_front_1_Layer0_0_FILL">
<path fill="#000000" stroke="none" d="
M -1.1 -2
Q -3 -1.9 -15.25 -1.75 -27.6 -1.6 -30.8 -2.15 -33.65 -3.3 -33.95 -7.2
L -34 -7.2
Q -34.8 -5.2 -34.3 -2.85 -33.85 -0.55 -32.25 -0.25 -30.45 0.05 -16.45 0.3 -1.9 0.5 1 0.1 1.05 0.05 1.15 0.05 4.85 -1.3 1.05 -2.1 0.8 -2.15 -1.1 -2 Z"/>
</g>

<g id="RD_Mouth_front_hole__0_Layer4_0_FILL">
<path fill="#6DABDD" stroke="none" d="
M 10.3 3.5
L 10.25 3.45 10.25 3.5
Q 9.644140625 7.4646484375 7.15 10.1 4.3 13.15 0.05 13.2 -4.35 13.1 -6.7 10.4 -9.45 7.1 -10.5 2.9
L -10.55 2.85 -10.5 3.35
Q -10.9 7.8 -7.75 11.55 -7.5890625 11.7296875 -7.45 11.9 -4.50859375 14.9052734375 -0.25 15 4.7 15.05 7.55 12.05 10.4 8.95 10.3 3.5 Z"/>
</g>

<g id="RD_Mouth_front_nostril__0_Layer2_0_FILL">
<path fill="#6DABDD" stroke="none" d="
M -7.35 3.35
Q -6.7 5.05 -3.5 4.15 -5.65 3.2 -6 2.3 -6.5 1.25 -6.2 -0.15 -8 1.9 -7.35 3.35
M 4.05 4
Q 6.9 4.85 7.7 3.2 8.4 1.6 6.75 -0.3 7 1.05 6.55 2.1 6.15 3.1 4.05 4 Z"/>
</g>

<g id="RD_Cheek_0_Layer1_0_FILL">
<path fill="#9EDBF8" stroke="none" d="
M -13.65 -3.75
Q -16.0267578125 -3.7431640625 -18.3 -3.7 -20.0263671875 -3.6904296875 -20.9 -3.8 -21.223046875 -3.733984375 -21.55 -3.7
L -20.55 -1.2
Q -20.5072265625 -1.092578125 -20.45 -1
L -18 5.3
Q -0.6107421875 15.3609375 11.3 8.45 14.9248046875 5.441796875 14.75 2.15 13.9091796875 2.18671875 12.85 2 11.7677734375 1.863671875 10.45 1.45 9.4078125 1.183203125 8.2 0.75 -4.2572265625 -4.6009765625 -13.65 -3.75 Z"/>

<path fill="#6DABDD" stroke="none" d="
M -18.3 -3.7
Q -16.0267578125 -3.7431640625 -13.65 -3.75 -4.2572265625 -4.6009765625 8.2 0.75 9.4078125 1.183203125 10.45 1.45 11.7677734375 1.863671875 12.85 2 13.9091796875 2.18671875 14.75 2.15 14.90078125 2.1408203125 15.05 2.1 14.90234375 2.0078125 14.75 1.9 14.6515625 1.8080078125 14.55 1.7 13.4794921875 0.9662109375 12.35 0.4 -2.715234375 -6.280859375 -14.1 -5.55 -17.2962890625 -5.154296875 -20.3 -4.9
L -20.35 -4.85
Q -22.91953125 -4.0283203125 -20.9 -3.8 -20.0263671875 -3.6904296875 -18.3 -3.7 Z"/>
</g>

<g id="RD_Cheek_0_Layer0_0_FILL">
<path fill="#6DABDD" stroke="none" d="
M -18 -1.55
L -17.9 -1.35
Q -17.54609375 -1.069921875 -16.4 -0.6
L -16.4 -0.6
Q -13.845703125 0.619140625 -10.8 1.65
L -7.85 2.15
Q -12.6994140625 -0.2359375 -14.55 -1.05 -17.6279296875 -1.697265625 -18 -1.55 Z"/>
</g>

<g id="RD_Wrinkle_0_Layer0_0_FILL">
<path fill="#6DABDD" stroke="none" d="
M 6.4 0.9
Q 6.229296875 0.7560546875 6.05 0.6 3.57890625 -1.2400390625 -0.2 -1.1 -3.897265625 -1.0052734375 -6.15 0.85 -6.28046875 0.943359375 -6.4 1.05
L -6.05 1
Q 0.6 0 5.95 0.8
L 6.4 0.9 Z"/>
</g>

<g id="RD_Hair_01_19_Layer3_0_FILL">
<path fill="#1E98D5" stroke="none" d="
M 16.85 -5.25
L 13.4 -4.25
Q 0.05 -0.65 -11.3 6.2 -12.45 6.95 -13.55 7.65 -33.95 20.75 -47.9 44.55 -48.75 36.35 -47.85 28.1 -43.6 4.45 -32.35 -14.5
L -30.05 -18.1 -30.15 -18.2
Q -43.1 -3.9 -48.55 17.15 -49.9 21.85 -50.55 26.6 -52.2 37.95 -50.3 49.45
L -49.7 53.65 -49.6 53.65 -47.5 49.9
Q -33.35 23.95 -11.95 10.2
L -11.9 10.15
Q 1.5 1.4 12.85 -2.05 14.15 -2.55 15.6 -2.95 21.3 -4.75 27 -6.1 21.95 -6.25 16.85 -5.25
M 35.75 -28.15
Q 36.9 -29.3 35 -31.9 33.3 -33.25 31.65 -34.45 28.95 -36.45 26.4 -38.05 24.1 -39.6 22 -40.8 19.95 -40.2 18.05 -39.6 18.6 -39.25 19.25 -38.95 19.5 -38.8 19.9 -38.6 20 -38.5 20.2 -38.4 22.7 -36.95 25.35 -35.3 28.4 -33.25 31.65 -30.9 33.3 -29.7 35.75 -28.15 Z"/>

<path fill="#F37033" stroke="none" d="
M 19.9 -38.6
Q 19.5 -38.8 19.25 -38.95 18.6 -39.25 18.05 -39.6 -6.9 -52.4 -29.45 -18.95
L -29.5 -18.9
Q -29.551171875 -18.823046875 -29.6 -18.75 -29.7640625 -18.523046875 -29.95 -18.3
L -30.05 -18.1 -32.35 -14.5
Q -43.6 4.45 -47.85 28.1 -48.75 36.35 -47.9 44.55 -33.95 20.75 -13.55 7.65 -12.45 6.95 -11.3 6.2 3.7 -20.85 19.9 -38.6 Z"/>

<path fill="#FDF6AE" stroke="none" d="
M 31.65 -30.9
Q 28.4 -33.25 25.35 -35.3 22.7 -36.95 20.2 -38.4 20 -38.5 19.9 -38.6 3.7 -20.85 -11.3 6.2 0.05 -0.65 13.4 -4.25
L 16.85 -5.25
Q 21.95 -6.25 27 -6.1 28.75 -6.5 30.55 -6.85 32.85 -7.35 35.05 -7.75 37 -11.45 35.7 -13.05
L 35.75 -28.15
Q 33.3 -29.7 31.65 -30.9 Z"/>
</g>

<g id="RD_Hair_01_19_Layer2_0_FILL">
<path fill="#1E98D5" stroke="none" d="
M -34 -5.1
Q -34 -5.1361328125 -33.95 -5.2
L -35.1 -4.5 -34 -5.1
M -48 -2.5
Q -47.35 -3.95 -46.55 -5.4 -40.55 -18.75 -29.55 -28.6 -28.95 -29.1 -28.35 -29.65 -20.6 -36.4 -15.05 -40.2 -12.45 -42.1 -10.3 -43.35
L -5.5 -46.1
Q -9.4 -45.2 -13.6 -42.95 -15.85 -41.75 -19.2 -39.65 -19.3 -39.6 -19.35 -39.6 -41.4 -24.8 -50.7 -4.95 -54.25 2.45 -57.3 21.5 -46.6 6.55 -43.15 3.1 -38.65 -1.15 -34.1 -5 -49.75 5.6 -53.3 10.9 -51.05 3.85 -48 -2.5
M 27.4 -34.7
Q 28.9 -35.05 30.5 -35.35 28.4 -36.75 26.45 -38.1 25.7 -38.6 25 -39.05 23.45 -40 22.05 -40.85 21.85 -40.9 21.75 -41.05
L 21.7 -41
Q 17.4 -43.45 13.25 -45.2
L 4 -45.2
Q 6.6 -44.5 9.35 -43.5 9.95 -43.3 10.55 -43.05 14.25 -41.6 18.1 -39.6 18.1 -39.55 18.15 -39.5
L 19.8 -38.7 19.85 -38.65 27.4 -34.7 Z"/>

<path fill="#F37033" stroke="none" d="
M 19.8 -38.7
L 18.15 -39.5
Q 18.1 -39.55 18.1 -39.6 14.25 -41.6 10.55 -43.05 9.95 -43.3 9.35 -43.5 -18.6 -28.15 -46.55 -5.4 -47.35 -3.95 -48 -2.5 -51.05 3.85 -53.3 10.9 -49.75 5.6 -34.1 -5 -34.05 -5.05 -34 -5.1
L -35.1 -4.5 -33.95 -5.2
Q -34 -5.1361328125 -34 -5.1
L -33.9 -5.2
Q -11.95 -23.85 19.8 -38.7 Z"/>

<path fill="#EE4144" stroke="none" d="
M 9.35 -43.5
Q 6.6 -44.5 4 -45.2 -3.55 -47.1 -5.5 -46.1
L -10.3 -43.35
Q -12.45 -42.1 -15.05 -40.2 -20.6 -36.4 -28.35 -29.65 -28.95 -29.1 -29.55 -28.6 -40.55 -18.75 -46.55 -5.4 -18.6 -28.15 9.35 -43.5 Z"/>
</g>

<g id="RD_Hair_01_19_Layer1_0_FILL">
<path fill="#EE4144" stroke="none" d="
M 3.6 -43.4
Q 8.75 -43.5 8.8 -43.5 3.25 -45.55 -2.25 -46.45 -3.7 -46.65 -5.15 -46.75 -12.9 -47.2 -21.1 -44.55 -30.05 -41.65 -35.9 -36.1 -21.75 -41.1 -10.7 -42.1 -1.6 -43.3 3.6 -43.4 Z"/>

<path fill="#1E98D5" stroke="none" d="
M 22 -40.85
Q 21.85 -40.95 21.7 -41.05 18.6 -42.8 15.65 -44.15 13.95 -44.95 12.35 -45.6 12 -45.75 11.65 -45.9 3.05 -49.25 -5.6 -49.8 -14.25 -50.35 -26.95 -44.6 -39.7 -38.9 -49.25 -27.65 -28.3 -37.55 -12.25 -41.7
L -10.7 -42.1
Q -21.75 -41.1 -35.9 -36.1 -30.05 -41.65 -21.1 -44.55 -12.9 -47.2 -5.15 -46.75 -3.7 -46.65 -2.25 -46.45 3.25 -45.55 8.8 -43.5 11.15 -42.65 13.55 -41.6 13.7 -41.5 13.9 -41.4 18.05 -41.2 21.95 -40.85
L 22 -40.85 Z"/>
</g>

<g id="RD_Hair_01_19_Layer0_0_FILL">
<path fill="#FDF6AE" stroke="none" d="
M 16.95 -5.35
L 15.15 -2.2
Q 11.15 5.05 1.65 12.75 17.3 9.65 30.4 -6.65 30.5 -6.75 30.6 -6.9 31.15 -7.6 31.7 -8.35 33.4 -10.6 35.65 -13.1 24.95 -11.4 16.65 -5.25
L 16.95 -5.35 Z"/>

<path fill="#1E98D5" stroke="none" d="
M 15.15 -2.2
L 16.95 -5.35 16.65 -5.25
Q 14.7 -3.8 12.9 -2.15 7.6 5.5 -3.4 13
L -6.95 15.45 -6.7 16 -2.5 15.75
Q 15.9 15.4 31.7 -3.55 33.45 -5.6 35.15 -7.85 37.1 -11.5 35.75 -13.15
L 35.65 -13.1
Q 33.4 -10.6 31.7 -8.35 31.15 -7.6 30.6 -6.9 30.5 -6.75 30.4 -6.65 17.3 9.65 1.65 12.75 11.15 5.05 15.15 -2.2 Z"/>
</g>

<g id="RD_FrontLeg_3_4_hoof_16_Layer0_0_FILL">
<path fill="#9EDBF8" stroke="none" d="
M 13.5 -14.1
Q 8.6158203125 -21.20703125 1.25 -21.55 -6.066015625 -21.8431640625 -11.7 -15.75 -17.3447265625 -9.60234375 -18.25 -1.05 -19.15 7.5 -14.5 13.9 -9.9 20.35 -2.5 20.85 4.95 21.35 10.8 15.7 16.6 10.1 17.5 1.55 18.39453125 -6.9978515625 13.5 -14.1 Z"/>
</g>

<g id="RD_FrontLeg_3_4_upper_21_Layer1_0_FILL">
<path fill="#9EDBF8" stroke="none" d="
M 19.9 41.4
Q 17.5806640625 23.57890625 3.65 -1.05
L -4.65 -1.05
Q -20.1865234375 21.3873046875 -20.15 41.4
L 19.9 41.4 Z"/>
</g>

<path id="RD_FrontLeg_3_4_hoof_6_Layer0_0_1_STROKES" stroke="#6DABDD" stroke-width="3" stroke-linejoin="round" stroke-linecap="round" fill="none" d="
M -0.925 -17.175
Q 6.8671875 -17.5837890625 12.3 -12.325 17.7197265625 -7.051171875 17.4 1.275 17.0837890625 9.596484375 14.075 14.525 11.0783203125 19.4369140625 0.15 20.85 -10.7796875 22.268359375 -17.1 18.525 -23.42421875 14.7861328125 -21.875 7.425 -20.324609375 0.0544921875 -18.15 -3.975 -15.971875 -8.0099609375 -12.325 -12.4 -8.6921875 -16.7904296875 -0.925 -17.175 Z"/>

<path id="RD_HindLeg_3_4rear_lower_2_Layer1_0_1_STROKES" stroke="#6DABDD" stroke-width="3" stroke-linejoin="round" stroke-linecap="round" fill="none" d="
M -5.65 -3.6
Q 1.836328125 -8.4703125 11.5 -5.15 17.0154296875 -1.388671875 7.6 6.9 -5.18671875 19.70546875 -8.9 12.2 -13.0958984375 2.169140625 -5.65 -3.6 Z"/>

<path id="RD_HindLeg_3_4rear_lower_2_Layer0_0_1_STROKES" stroke="#6DABDD" stroke-width="3" stroke-linejoin="round" stroke-linecap="round" fill="none" d="
M -8.9 59.25
Q -15.7921875 31.9404296875 -10.2 3.35
M 13.4 -2.55
Q 15.0326171875 27.90546875 24.35 43.05"/>

<path id="RD_FrontLeg_3_4_upper_20_Layer1_0_1_STROKES" stroke="#6DABDD" stroke-width="3" stroke-linejoin="round" stroke-linecap="round" fill="none" d="
M -32.7 58.35
Q -23.45 30.8 -5.95 -1.05
M 11.65 62.95
Q 12.4 41.65 5.5 -1.05"/>

<path id="RD_Mouth_front_chin__offcenter_0_Layer1_0_1_STROKES" stroke="#6DABDD" stroke-width="3" stroke-linejoin="round" stroke-linecap="round" fill="none" d="
M 37 3
Q 31.5595703125 11.51484375 20.35 16.8 3.9671875 24.438671875 -14.6 17.85 -26.379296875 13.5955078125 -35.1 3.05"/>

<path id="RD_Hair_01_19_Layer3_0_1_STROKES" stroke="#C7C616" stroke-width="0.05" stroke-linejoin="round" stroke-linecap="round" fill="none" d="
M -30.15 -18.2
Q -30.05 -18.3 -30 -18.4 -29.8 -18.6 -29.55 -18.85 -29.5 -18.95 -29.45 -18.95
M -29.5 -18.9
L -29.55 -18.85
Q -29.5763671875 -18.797265625 -29.6 -18.75 -29.7640625 -18.523046875 -29.95 -18.3
L -30.05 -18.1"/>

<path id="RD_FrontLeg_3_4_hoof_16_Layer0_0_1_STROKES" stroke="#6DABDD" stroke-width="3" stroke-linejoin="round" stroke-linecap="round" fill="none" d="
M -11.7 -15.725
Q -17.3447265625 -9.60234375 -18.25 -1.05 -19.15 7.5 -14.5 13.9 -9.9 20.35 -2.5 20.85 4.95 21.35 10.8 15.7 16.6 10.1 17.5 1.55 18.39453125 -6.9978515625 13.5 -14.1 8.6158203125 -21.20703125 1.275 -21.525 -6.066015625 -21.8431640625 -11.7 -15.725 Z"/>

<path id="RD_FrontLeg_3_4_upper_21_Layer1_0_1_STROKES" stroke="#6DABDD" stroke-width="3" stroke-linejoin="round" stroke-linecap="round" fill="none" d="
M 19.9 41.4
Q 17.5806640625 23.57890625 3.65 -1.05
M -20.15 41.4
Q -20.1865234375 21.3873046875 -4.65 -1.05"/>
</defs>

<g transform="matrix( 1.555694580078125, 0.330963134765625, -0.330963134765625, 1.555694580078125, 347.75,219.9) ">
<g transform="matrix( 0.2110137939453125, 0, 0, 0.3922576904296875, -8.7,0.8) ">
<g transform="matrix( 0.9984588623046875, 0.02655029296875, -0.05743408203125, 0.999786376953125, 25.5,-7.1) ">
<g transform="matrix( 1, 0, 0, 1, 0,0) ">
<use xlink:href="#RD_Prun_Tail_4_Layer1_0_FILL"/>
</g>

<g transform="matrix( 1, 0, 0, 1, 0,0) ">
<use xlink:href="#RD_Prun_Tail_4_Layer1_1_FILL"/>
</g>

<g transform="matrix( 1, 0, 0, 1, 0,0) ">
<use xlink:href="#RD_Prun_Tail_4_Layer1_2_FILL"/>
</g>

<g transform="matrix( 1, 0, 0, 1, 0,0) ">
<use xlink:href="#RD_Prun_Tail_4_Layer1_3_FILL"/>
</g>

<g transform="matrix( 1, 0, 0, 1, 0,0) ">
<use xlink:href="#RD_Prun_Tail_4_Layer1_4_FILL"/>
</g>

<g transform="matrix( 1, 0, 0, 1, 0,0) ">
<use xlink:href="#RD_Prun_Tail_4_Layer1_5_FILL"/>
</g>

<g transform="matrix( 1, 0, 0, 1, 0,0) ">
<use xlink:href="#RD_Prun_Tail_4_Layer1_6_FILL"/>
</g>
</g>
</g>

<g transform="matrix( 0.4132843017578125, -0.5472412109375, 0.6434783935546875, 0.6175537109375, -44.4,13.35) ">
<g transform="matrix( 0.8339996337890625, -0.3087158203125, 0.5523681640625, 0.6643524169921875, 13.15,66.7) ">
<g transform="matrix( 1, 0, 0, 1, 0,0) ">
<use filter="url(#Filter_1)" xlink:href="#RD_FrontLeg_3_4_hoof_6_Layer0_0_FILL"/>

<use filter="url(#Filter_1)" xlink:href="#RD_FrontLeg_3_4_hoof_6_Layer0_0_1_STROKES"/>
</g>
</g>

<g transform="matrix( 0.7404632568359375, -0.3578338623046875, 0.0124969482421875, 0.6438751220703125, 12,46.45) ">
<g transform="matrix( 1, 0, 0, 1, 0,0) ">
<use filter="url(#Filter_1)" xlink:href="#RD_KneePatch_1_Layer0_0_FILL"/>
</g>
</g>

<g transform="matrix( 0.9890594482421875, 0.223388671875, -0.159027099609375, 0.6988067626953125, 14.45,31.6) ">
<g transform="matrix( 1, 0, 0, 1, 0,0) ">
<use filter="url(#Filter_1)" xlink:href="#RD_HindLeg_3_4rear_lower_2_Layer1_0_FILL"/>

<use filter="url(#Filter_1)" xlink:href="#RD_HindLeg_3_4rear_lower_2_Layer1_0_1_STROKES"/>
</g>

<g transform="matrix( 1, 0, 0, 1, 0,0) ">
<use filter="url(#Filter_1)" xlink:href="#RD_HindLeg_3_4rear_lower_2_Layer0_0_FILL"/>

<use filter="url(#Filter_1)" xlink:href="#RD_HindLeg_3_4rear_lower_2_Layer0_0_1_STROKES"/>
</g>
</g>

<g transform="matrix( 1.05706787109375, 0, -0.2399139404296875, 0.793365478515625, 17.7,-4.6) ">
<g transform="matrix( 1, 0, 0, 1, 0,0) ">
<use filter="url(#Filter_1)" xlink:href="#RD_HindLeg_3_4_top_3_Layer1_0_FILL"/>
</g>

<g transform="matrix( 1, 0, 0, 1, 0,0) ">
<use filter="url(#Filter_1)" xlink:href="#RD_HindLeg_3_4_top_3_Layer0_0_FILL"/>
</g>
</g>

<g transform="matrix( 0.832244873046875, -0.314788818359375, -0.1527099609375, 0.5664520263671875, 8.95,45.8) ">
<g transform="matrix( 1, 0, 0, 1, 0,0) ">
<use filter="url(#Filter_1)" xlink:href="#RD_KneePatch_0_Layer0_0_FILL"/>
</g>
</g>
</g>

<g transform="matrix( 0.4132843017578125, -0.5472412109375, 0.6434783935546875, 0.6175537109375, -9.65,9.45) ">
<g transform="matrix( 0.8339996337890625, -0.3087158203125, 0.5523681640625, 0.6643524169921875, 13.15,66.7) ">
<g transform="matrix( 1, 0, 0, 1, 0,0) ">
<use xlink:href="#RD_FrontLeg_3_4_hoof_6_Layer0_0_FILL"/>

<use xlink:href="#RD_FrontLeg_3_4_hoof_6_Layer0_0_1_STROKES"/>
</g>
</g>

<g transform="matrix( 0.7404632568359375, -0.3578338623046875, 0.0124969482421875, 0.6438751220703125, 12,46.45) ">
<g transform="matrix( 1, 0, 0, 1, 0,0) ">
<use xlink:href="#RD_KneePatch_1_Layer0_0_FILL"/>
</g>
</g>

<g transform="matrix( 0.9890594482421875, 0.223388671875, -0.159027099609375, 0.6988067626953125, 14.45,31.6) ">
<g transform="matrix( 1, 0, 0, 1, 0,0) ">
<use xlink:href="#RD_HindLeg_3_4rear_lower_2_Layer1_0_FILL"/>

<use xlink:href="#RD_HindLeg_3_4rear_lower_2_Layer1_0_1_STROKES"/>
</g>

<g transform="matrix( 1, 0, 0, 1, 0,0) ">
<use xlink:href="#RD_HindLeg_3_4rear_lower_2_Layer0_0_FILL"/>

<use xlink:href="#RD_HindLeg_3_4rear_lower_2_Layer0_0_1_STROKES"/>
</g>
</g>

<g transform="matrix( 1.05706787109375, 0, -0.2399139404296875, 0.793365478515625, 17.7,-4.6) ">
<g transform="matrix( 1, 0, 0, 1, 0,0) ">
<use xlink:href="#RD_HindLeg_3_4_top_3_Layer1_0_FILL"/>
</g>

<g transform="matrix( 1, 0, 0, 1, 0,0) ">
<use xlink:href="#RD_HindLeg_3_4_top_3_Layer0_0_FILL"/>
</g>
</g>

<g transform="matrix( 0.832244873046875, -0.314788818359375, -0.1527099609375, 0.5664520263671875, 8.95,45.8) ">
<g transform="matrix( 1, 0, 0, 1, 0,0) ">
<use xlink:href="#RD_KneePatch_0_Layer0_0_FILL"/>
</g>
</g>
</g>

<g transform="matrix( -0.9999847412109375, 0, 0, 0.9999847412109375, -53.35,11.25) ">
<g transform="matrix( 1, 0, 0, 1, 0,0) ">
<use filter="url(#Filter_2)" xlink:href="#WingcycleBACK_10_Layer10_0_FILL"/>
</g>

<g transform="matrix( 1, 0, 0, 1, 0,0) ">
<use filter="url(#Filter_2)" xlink:href="#WingcycleBACK_10_Layer9_0_FILL"/>
</g>

<g transform="matrix( 1, 0, 0, 1, 0,0) ">
<use filter="url(#Filter_2)" xlink:href="#WingcycleBACK_10_Layer8_0_FILL"/>
</g>

<g transform="matrix( 1, 0, 0, 1, 0,0) ">
<use filter="url(#Filter_2)" xlink:href="#WingcycleBACK_10_Layer7_0_FILL"/>
</g>

<g transform="matrix( 1, 0, 0, 1, 0,0) ">
<use filter="url(#Filter_2)" xlink:href="#WingcycleBACK_10_Layer5_0_FILL"/>
</g>

<g transform="matrix( 1, 0, 0, 1, 0,0) ">
<use filter="url(#Filter_2)" xlink:href="#WingcycleBACK_10_Layer4_0_FILL"/>
</g>

<g transform="matrix( 1, 0, 0, 1, 0,0) ">
<use filter="url(#Filter_2)" xlink:href="#WingcycleBACK_10_Layer3_0_FILL"/>
</g>

<g transform="matrix( 1, 0, 0, 1, 0,0) ">
<use filter="url(#Filter_2)" xlink:href="#WingcycleBACK_10_Layer2_0_FILL"/>
</g>

<g transform="matrix( 1, 0, 0, 1, 0,0) ">
<use filter="url(#Filter_2)" xlink:href="#WingcycleBACK_10_Layer1_0_FILL"/>
</g>
</g>

<g transform="matrix( 0.6026611328125, 0.7979888916015625, -0.7890167236328125, 0.5959014892578125, -37.9,40.3) ">
<g transform="matrix( 1.243988037109375, 0.0895233154296875, -0.0872650146484375, 1.056610107421875, -9.4,63.65) ">
<g transform="matrix( 1, 0, 0, 1, 0,0) ">
<use xlink:href="#RD_FrontLeg_3_4_hoof_11_Layer0_0_FILL"/>
</g>
</g>

<g transform="matrix( 0.99993896484375, -0.00445556640625, -0.0002593994140625, 0.999969482421875, 1.9,0.4) ">
<g transform="matrix( 1, 0, 0, 1, 0,0) ">
<use xlink:href="#RD_FrontLeg_3_4_upper_20_Layer1_0_FILL"/>

<use xlink:href="#RD_FrontLeg_3_4_upper_20_Layer1_0_1_STROKES"/>
</g>
</g>

<g transform="matrix( 2.197784423828125, 0.1581268310546875, -0.257781982421875, 3.119873046875, -10.05,65.3) ">
<g transform="matrix( 1, 0, 0, 1, 0,0) ">
<use xlink:href="#RD_HoofWrinkle_2_Layer0_0_FILL"/>
</g>
</g>
</g>

<g transform="matrix( 1, 0, 0, 1, -19.95,24.8) ">
<g transform="matrix( 1, 0, 0, 1, 0,0) ">
<use xlink:href="#RD_Torso_0_Layer1_0_FILL"/>
</g>
</g>

<g transform="matrix( 0.1369476318359375, 0.00579833984375, -0.0221405029296875, 0.5221099853515625, -12.8,19.05) ">
<g transform="matrix( 0.9937744140625, -0.07440185546875, 0.5210418701171875, 0.9585723876953125, -66.05,-44.55) ">
<g transform="matrix( 1, 0, 0, 1, 0,0) ">
<use xlink:href="#RD_Prun_Mane_cycle_5_Layer0_0_FILL"/>
</g>

<g transform="matrix( 1, 0, 0, 1, 0,0) ">
<use xlink:href="#RD_Prun_Mane_cycle_5_Layer0_1_FILL"/>
</g>

<g transform="matrix( 1, 0, 0, 1, 0,0) ">
<use xlink:href="#RD_Prun_Mane_cycle_5_Layer0_2_FILL"/>
</g>

<g transform="matrix( 1, 0, 0, 1, 0,0) ">
<use xlink:href="#RD_Prun_Mane_cycle_5_Layer0_3_FILL"/>
</g>
</g>
</g>

<g transform="matrix( 0.9025726318359375, -0.670166015625, 0.353546142578125, 0.6069183349609375, -24.25,20.75) ">
<g transform="matrix( 1, 0, 0, 1, 0,0) ">
<use xlink:href="#RD_Neck_0_Layer0_0_FILL"/>
</g>
</g>

<g transform="matrix( 0.9999847412109375, 0, 0, 0.9999847412109375, 3.9,11.25) ">
<g transform="matrix( 1, 0, 0, 1, 0,0) ">
<use xlink:href="#Wingcycle_10_Layer9_0_FILL"/>
</g>

<g transform="matrix( 1, 0, 0, 1, 0,0) ">
<use xlink:href="#Wingcycle_10_Layer8_0_FILL"/>
</g>

<g transform="matrix( 1, 0, 0, 1, 0,0) ">
<use xlink:href="#Wingcycle_10_Layer7_0_FILL"/>
</g>

<g transform="matrix( 1, 0, 0, 1, 0,0) ">
<use xlink:href="#Wingcycle_10_Layer6_0_FILL"/>
</g>

<g transform="matrix( 1, 0, 0, 1, 0,0) ">
<use xlink:href="#Wingcycle_10_Layer5_0_FILL"/>
</g>

<g transform="matrix( 1, 0, 0, 1, 0,0) ">
<use xlink:href="#Wingcycle_10_Layer4_0_FILL"/>
</g>

<g transform="matrix( 1, 0, 0, 1, 0,0) ">
<use xlink:href="#Wingcycle_10_Layer3_0_FILL"/>
</g>

<g transform="matrix( 1, 0, 0, 1, 0,0) ">
<use xlink:href="#Wingcycle_10_Layer2_0_FILL"/>
</g>

<g transform="matrix( 1, 0, 0, 1, 0,0) ">
<use xlink:href="#Wingcycle_10_Layer1_0_FILL"/>
</g>

<g transform="matrix( 1, 0, 0, 1, 0,0) ">
<use xlink:href="#Wingcycle_10_Layer0_0_FILL"/>
</g>
</g>

<g transform="matrix( 1, 0, 0, 1, -53.85,10.05) ">
<g transform="matrix( 1, 0, 0, 1.001922607421875, -6.4,-5.3) ">
<g transform="matrix( 1, 0, 0, 1, 0,0) ">
<use xlink:href="#RD_Skull_2_Layer0_0_FILL"/>
</g>
</g>

<g transform="matrix( 0.9992218017578125, 0.01165771484375, -0.1327056884765625, 1.042236328125, -6,25.45) ">
<g transform="matrix( 1, 0, 0, 1, 0,0) ">
<use xlink:href="#RD_Mouth_front_chin__offcenter_0_Layer1_0_FILL"/>

<use xlink:href="#RD_Mouth_front_chin__offcenter_0_Layer1_0_1_STROKES"/>
</g>
</g>

<g transform="matrix( 0.972503662109375, 0, 0.15093994140625, 1.0177459716796875, 25.6,-48.8) ">
<g transform="matrix( 1, 0, 0, 1, 0,0) ">
<use xlink:href="#RD_Hair_07_9_Layer0_0_FILL"/>
</g>
</g>

<g transform="matrix( -0.8562469482421875, -0.0888671875, -0.10308837890625, 0.993377685546875, -39.25,-31.85) ">
<g transform="matrix( 1, 0, 0, 1, 0,0) ">
<use xlink:href="#RD_Ear_1_Layer1_0_FILL"/>
</g>
</g>

<g transform="matrix( 0.997467041015625, 0.063507080078125, -0.063507080078125, 0.997467041015625, 29.85,-28.65) ">
<g transform="matrix( 1, 0, 0, 1, 0,0) ">
<use xlink:href="#RD_Ear_1_Layer1_0_FILL"/>
</g>
</g>

<mask id="Mask_Mask_1">
<g transform="matrix( -0.6017608642578125, -0.1415863037109375, -0.1660003662109375, 1.02447509765625, -35.6,-1.15) ">
<g transform="matrix( 1, 0, 0, 1, 0,0) ">
<use xlink:href="#Mask_Mask_RD2_Eyewhite_3_4_1_Layer1_0_FILL"/>
</g>
</g>
</mask>

<g mask="url(#Mask_Mask_1)">
<g transform="matrix( -0.6017608642578125, -0.1415863037109375, -0.1660003662109375, 1.02447509765625, -35.6,-1.15) ">
<g transform="matrix( 1, 0, 0, 1, 0,0) ">
<use xlink:href="#RD2_Eyewhite_3_4_1_Layer1_0_FILL"/>
</g>
</g>
</g>

<g mask="url(#Mask_Mask_1)">
<g transform="matrix( 0.47186279296875, -0.0417938232421875, 0.13232421875, 0.74530029296875, -32.1,0.35) ">
<g transform="matrix( 1, 0, 0, 1, 0,0) ">
<use xlink:href="#RD2_Iris_0_Layer2_0_FILL"/>
</g>

<g transform="matrix( 1, 0, 0, 1, 0,0) ">
<use xlink:href="#RD2_Iris_0_Layer1_0_FILL"/>
</g>

<g transform="matrix( 1, 0, 0, 1, 0,0) ">
<use xlink:href="#RD2_Iris_0_Layer0_0_FILL"/>
</g>
</g>
</g>

<g mask="url(#Mask_Mask_1)">
<g transform="matrix( -0.476593017578125, 0.0044097900390625, 0.006805419921875, 0.6275482177734375, -30.85,-0.15) ">
<g transform="matrix( 1, 0, 0, 1, 0,0) ">
<use xlink:href="#RD2_Pupil_0_Layer0_0_FILL"/>
</g>
</g>
</g>

<g mask="url(#Mask_Mask_1)">
<g transform="matrix( 0.6511688232421875, -0.0670928955078125, 0.172882080078125, 0.6851348876953125, -29.85,-7.7) ">
<g transform="matrix( 1, 0, 0, 1, 0,0) ">
<use xlink:href="#RD2_Hilights_0_Layer1_0_FILL"/>
</g>
</g>
</g>

<mask id="Mask_Mask_2">
<g transform="matrix( 0.859771728515625, 0, 0.1278076171875, 1.0453338623046875, 17.2,0.35) ">
<g transform="matrix( 1, 0, 0, 1, 0,0) ">
<use xlink:href="#Mask_Mask_RD2_Eyewhite_3_4_1_Layer1_0_FILL"/>
</g>
</g>
</mask>

<g mask="url(#Mask_Mask_2)">
<g transform="matrix( 0.859771728515625, 0, 0.1278076171875, 1.0453338623046875, 17.2,0.35) ">
<g transform="matrix( 1, 0, 0, 1, 0,0) ">
<use xlink:href="#RD2_Eyewhite_3_4_1_Layer1_0_FILL"/>
</g>
</g>
</g>

<g mask="url(#Mask_Mask_2)">
<g transform="matrix( -0.5610198974609375, -0.0517425537109375, -0.0706787109375, 0.736236572265625, 26,-1.8) ">
<g transform="matrix( 1, 0, 0, 1, 0,0) ">
<use xlink:href="#RD2_Iris_2_Layer2_0_FILL"/>
</g>

<g transform="matrix( 1, 0, 0, 1, 0,0) ">
<use xlink:href="#RD2_Iris_2_Layer1_0_FILL"/>
</g>

<g transform="matrix( 1, 0, 0, 1, 0,0) ">
<use xlink:href="#RD2_Iris_2_Layer0_0_FILL"/>
</g>
</g>
</g>

<g mask="url(#Mask_Mask_2)">
<g transform="matrix( 0.53680419921875, 0.0115814208984375, 0.08184814453125, 0.643402099609375, 27.95,-1.55) ">
<g transform="matrix( 1, 0, 0, 1, 0,0) ">
<use xlink:href="#RD2_Pupil_0_Layer0_0_FILL"/>
</g>
</g>
</g>

<g mask="url(#Mask_Mask_2)">
<g transform="matrix( 0.6678314208984375, 0.2051849365234375, 0.0124053955078125, 0.67279052734375, 30.35,-7.4) ">
<g transform="matrix( 1, 0, 0, 1, 0,0) ">
<use xlink:href="#RD2_Hilights_0_Layer1_0_FILL"/>
</g>
</g>
</g>

<g transform="matrix( -0.6017608642578125, -0.1415863037109375, -0.1660003662109375, 1.02447509765625, -35.6,-1.15) ">
<g transform="matrix( 1, 0, 0, 1, 0,0) ">
<use xlink:href="#RD2_Blink_front_0_Layer2_0_FILL"/>
</g>

<g transform="matrix( 1, 0, 0, 1, 0,0) ">
<use xlink:href="#RD2_Blink_front_0_Layer1_0_FILL"/>
</g>

<g transform="matrix( 1, 0, 0, 1, 0,0) ">
<use xlink:href="#RD2_Blink_front_0_Layer1_1_FILL"/>
</g>

<g transform="matrix( 1, 0, 0, 1, 0,0) ">
<use xlink:href="#RD2_Blink_front_0_Layer1_2_FILL"/>
</g>
</g>

<g transform="matrix( 0.8662109375, -0.0929107666015625, 0.1739959716796875, 1.01947021484375, 17.05,0.3) ">
<g transform="matrix( 1, 0, 0, 1, 0,0) ">
<use xlink:href="#RD2_Blink_front_100_Layer2_0_FILL"/>
</g>
</g>

<g transform="matrix( -0.60809326171875, -0.5243072509765625, -0.508544921875, 0.857421875, -42.8,-20.85) ">
<g transform="matrix( 1, 0, 0, 1, 0,0) ">
<use xlink:href="#RD_Brow_front_1_Layer2_0_FILL"/>
</g>

<g transform="matrix( 1, 0, 0, 1, 1.7,-0.05) ">
<g transform="matrix( 1, 0, 0, 1, 0,0) ">
<use xlink:href="#RD_Lashes_02_6_Layer0_0_FILL"/>
</g>

<g transform="matrix( 1, 0, 0, 1, 0,0) ">
<use xlink:href="#RD_Lashes_02_6_Layer0_1_FILL"/>
</g>

<g transform="matrix( 1, 0, 0, 1, 0,0) ">
<use xlink:href="#RD_Lashes_02_6_Layer0_2_FILL"/>
</g>
</g>

<g transform="matrix( 1, 0, 0, 1, 0,0) ">
<use xlink:href="#RD_Brow_front_1_Layer0_0_FILL"/>
</g>
</g>

<g transform="matrix( 0.924713134765625, -0.4334564208984375, 0.457275390625, 0.8568572998046875, 30.45,-17.85) ">
<g transform="matrix( 1, 0, 0, 1, 0,0) ">
<use xlink:href="#RD_Brow_front_1_Layer2_0_FILL"/>
</g>

<g transform="matrix( 1, 0, 0, 1, 1.7,-0.05) ">
<g transform="matrix( 1, 0, 0, 1, 0,0) ">
<use xlink:href="#RD_Lashes_02_6_Layer0_0_FILL"/>
</g>

<g transform="matrix( 1, 0, 0, 1, 0,0) ">
<use xlink:href="#RD_Lashes_02_6_Layer0_1_FILL"/>
</g>

<g transform="matrix( 1, 0, 0, 1, 0,0) ">
<use xlink:href="#RD_Lashes_02_6_Layer0_2_FILL"/>
</g>
</g>

<g transform="matrix( 1, 0, 0, 1, 0,0) ">
<use xlink:href="#RD_Brow_front_1_Layer0_0_FILL"/>
</g>
</g>

<g transform="matrix( 1.04473876953125, -0.17791748046875, 0.2764129638671875, 0.92706298828125, -14.35,25.7) ">
<g transform="matrix( 1, 0, 0, 1, 0,0) ">
<use xlink:href="#RD_Mouth_front_hole__0_Layer4_0_FILL"/>
</g>
</g>

<g transform="matrix( 1.00201416015625, 0.0025787353515625, 0.08404541015625, 0.9959716796875, -18.15,22.15) ">
<g transform="matrix( 1, 0, 0, 1, 0,0) ">
<use xlink:href="#RD_Mouth_front_nostril__0_Layer2_0_FILL"/>
</g>
</g>

<g transform="matrix( 0.85284423828125, -0.37200927734375, 0.05682373046875, 0.930206298828125, 21.5,19.2) ">
<g transform="matrix( 1, 0, 0, 1, 0,0) ">
<use xlink:href="#RD_Cheek_0_Layer1_0_FILL"/>
</g>

<g transform="matrix( 1, 0, 0, 1, 0,0) ">
<use xlink:href="#RD_Cheek_0_Layer0_0_FILL"/>
</g>
</g>

<g transform="matrix( 0.9800262451171875, 0.032135009765625, -0.1204071044921875, 0.9931640625, -16.75,25.2) ">
<g transform="matrix( 1, 0, 0, 1, 0.65,-8.5) ">
<g transform="matrix( 1, 0, 0, 1, 0,0) ">
<use xlink:href="#RD_Wrinkle_0_Layer0_0_FILL"/>
</g>
</g>
</g>

<g transform="matrix( 1.07415771484375, 0.0653076171875, 0.0907745361328125, 0.991790771484375, -13.5,-33.7) ">
<g transform="matrix( 1, 0, 0, 1, 0,0) ">
<use xlink:href="#RD_Hair_01_19_Layer3_0_FILL"/>

<use xlink:href="#RD_Hair_01_19_Layer3_0_1_STROKES"/>
</g>

<g transform="matrix( 1, 0, 0, 1, 0,0) ">
<use xlink:href="#RD_Hair_01_19_Layer2_0_FILL"/>
</g>

<g transform="matrix( 1, 0, 0, 1, 0,0) ">
<use xlink:href="#RD_Hair_01_19_Layer1_0_FILL"/>
</g>

<g transform="matrix( 1, 0, 0, 1, 0,0) ">
<use xlink:href="#RD_Hair_01_19_Layer0_0_FILL"/>
</g>
</g>
</g>

<g transform="matrix( -0.3125457763671875, -1.02899169921875, -0.8546295166015625, 0.2658233642578125, -2.3,49.05) ">
<g transform="matrix( 1.108154296875, 0.09967041015625, -0.077728271484375, 1.1765594482421875, -8.35,40.1) ">
<g transform="matrix( 1, 0, 0, 1, 0,0) ">
<use xlink:href="#RD_FrontLeg_3_4_hoof_16_Layer0_0_FILL"/>

<use xlink:href="#RD_FrontLeg_3_4_hoof_16_Layer0_0_1_STROKES"/>
</g>
</g>

<g transform="matrix( 0.9623260498046875, 0.271636962890625, -0.27618408203125, 0.9610443115234375, 2.7,0.35) ">
<g transform="matrix( 1, 0, 0, 1, 0,0) ">
<use xlink:href="#RD_FrontLeg_3_4_upper_21_Layer1_0_FILL"/>

<use xlink:href="#RD_FrontLeg_3_4_upper_21_Layer1_0_1_STROKES"/>
</g>
</g>

<g transform="matrix( 1.9949188232421875, 0.1793975830078125, -0.257781982421875, 3.89984130859375, -5.95,23.45) ">
<g transform="matrix( 1, 0, 0, 1, 0,0) ">
<use xlink:href="#RD_HoofWrinkle_2_Layer0_0_FILL"/>
</g>
</g>
</g>
</g>
</svg>
