
<svg xmlns="http://www.w3.org/2000/svg" version="1.1" xmlns:xlink="http://www.w3.org/1999/xlink" preserveAspectRatio="none" x="0px" y="0px" width="864px" height="486px" viewBox="0 0 864 486">
<defs>
<linearGradient id="Gradient_1" gradientUnits="userSpaceOnUse" x1="281.1875" y1="36.9375" x2="276.51250000000005" y2="60.3625" spreadMethod="pad">
<stop  offset="0%" stop-color="#590D39"/>

<stop  offset="19.607843137254903%" stop-color="#9C1862"/>

<stop  offset="22.745098039215687%" stop-color="#A01964"/>

<stop  offset="34.11764705882353%" stop-color="#AA1A6C"/>

<stop  offset="73.72549019607843%" stop-color="#BD1D78"/>

<stop  offset="100%" stop-color="#BF1D79"/>
</linearGradient>

<filter id="Filter_1" x="-20%" y="-20%" width="140%" height="140%" color-interpolation-filters="sRGB">
<feColorMatrix in="SourceGraphic" type="matrix" values="1 0 0 0 -0.06274509803921569 0 1 0 0 -0.0784313725490196 0 0 1 0 -0.06274509803921569 0 0 0 1 0" result="result1"/>
</filter>

<filter id="Filter_2" x="-20%" y="-20%" width="140%" height="140%" color-interpolation-filters="sRGB">
<feColorMatrix in="SourceGraphic" type="matrix" values="0.57 0 0 0 0.1843137254901961 0 0.57 0 0 0.28627450980392155 0 0 0.57 0 0.37254901960784315 0 0 0 1 0" result="result1"/>
</filter>

<g id="RD_Prun_Tail_5_Layer1_0_FILL">
<path fill="#EE4143" stroke="none" d="
M 18.85 -10.75
Q 9.25 -8.3 2.15 -6.65 -1.25 -5.9 -3.2 -4.1 -5.1 -2.25 -5.55 0 -6 2.25 -5 4.3 -4 6.3 -1.5 7.55 0.95 8.75 4.9 8.45 18.05 7.95 29.85 10 41.6 12.05 52 15.85 62.35 19.7 71.25 24.55 77.85 28.2 83.65 32.25 89.4 36.3 94.45 40.6 97 42.65 99.35 44.85 101.7 47.05 103.95 49.2 106 51.3 108.3 53.55 110.55 55.8 113.5 58.45 127.8 71.9 142.2 81.55 156.6 91.2 170.15 96.8 183.75 102.45 195.55 103.7 195.5 103.7 192.9 102.6 190.3 101.5 186.15 99.5 182 97.45 177.15 94.75 172.3 92.05 167.7 88.8 162.95 85.6 158.85 82.45 154.8 79.25 151.65 76.6 148.5 74 146.65 72.4 145.75 71.65 145.25 71.25 148.75 73.55 155.2 76.75 162.35 80.35 172.55 84.05 179.3 86.5 187.3 88.4 195.35 90.25 203.95 91.3 212.6 92.3 221.1 92.2 229.75 92.1 237.55 91.15 245.35 90.25 252.1 88.9 258.8 87.55 264.3 86.05 272.1 83.9 276.15 82.65
L 280.25 81.4
Q 280.2 81.35 276.95 81.45 273.7 81.55 268.25 81.65 262.8 81.8 256.2 81.8 251.4 81.75 246.8 81.45 242.25 81.15 238.5 80.8 234.75 80.4 232.5 80.1 230.25 79.85 230.1 79.8 235 79.1 241 77.2 246.95 75.25 253.3 72.45 259.65 69.65 265.75 66.4 271.9 63.15 277.1 59.85 284.35 55.4 290.15 52.2 295.95 48.95 299.4 47.15 302.85 45.4 303.1 45.35 296.15 45.9 289.15 47.25 282.15 48.55 275 50.2 275.15 50.15 277.25 49.25 279.45 48.35 283.25 46.85 287.1 45.4 291.9 43.75 296.75 42.1 302 40.7 307.25 39.25 312.35 38.45 317.45 37.65 321.65 37.3 325.85 37 328.45 36.95 330.45 36.95 331.05 37 324.8 35.9 317.7 35.55 310.45 35.2 302.95 35.5 295.4 35.8 288.15 36.65 280.85 37.5 274.35 38.7 265.6 40.15 259 40.95 252.4 41.8 248.75 42.1 246.05 42.3 245.35 42.35 245.85 42.25 247.3 41.8 249.6 41.15 253.5 39.85 257.4 38.55 262.15 36.95 266.9 35.35 271.7 33.7 276.55 32.05 280.7 30.65 284.85 29.2 287.55 28.3 289.701171875 27.5537109375 290.4 27.35 277.8642578125 29.9623046875 265.45 31.75 252.95 33.5 240.95 33.5 228.95 33.55 217.7 30.9 210.9 29.4 204.2 27.2 197.45 24.95 190.2 22 183 19 174.65 15.15 166.35 11.3 156.4 6.55 146.45 1.8 134.3 -3.95 134.2 -4.05 135.9 -3.7 137.65 -3.4 140.5 -2.95 143.4 -2.45 146.7 -2.1 150 -1.7 153.1 -1.7 157.65 -1.5 162 -1.6 166.35 -1.75 169.85 -2.05 173.35 -2.4 175.4 -2.8 172 -4.15 167.85 -5.2 163.7 -6.3 158.25 -7.6 152.85 -8.9 145.75 -10.85 133.55 -14.7 119.85 -17.1 106.15 -19.55 92.05 -20 77.95 -20.6 64.8 -19.25 51.7 -17.9 40.05 -15.55 28.45 -13.2 18.85 -10.75 Z"/>
</g>

<g id="RD_Prun_Tail_5_Layer1_1_FILL">
<path fill="#F37033" stroke="none" d="
M 18.85 -10.75
Q 9.25 -8.3 2.15 -6.65 -1.25 -5.9 -3.2 -4.1 -5.1 -2.25 -5.55 0 -6 2.25 -5 4.3 -4 6.3 -1.5 7.55 0.95 8.75 4.9 8.45 14.45 8.05 23.4 9.1 32.3 10.15 40.45 12.3 54.35 15 67.8 20.1 81.25 25.15 93.45 32.3 97.65 34.7 101.5 37.25 105.35 39.75 109.2 42.5 113.1 45.25 117.3 48.3 130.65 57.95 145 65.7 159.3 73.45 174.4 78.6 189.5 83.75 204.7 85.3 214.55 86.3 223.5 85.95 232.45 85.6 240.15 84.45 247.8 83.3 253.8 81.75 249.35 81.65 245.2 81.35 241 81.05 237.65 80.7 234.3 80.35 232.25 80.1 230.2 79.8 230.1 79.8 235 79.1 241 77.2 246.95 75.25 253.3 72.45 259.65 69.65 265.75 66.4 271.9 63.15 277.1 59.85 284.35 55.4 290.15 52.2 295.95 48.95 299.4 47.15 302.85 45.4 303.1 45.35 296.15 45.9 289.15 47.25 282.15 48.55 275 50.2 275.15 50.15 277.25 49.25 279.45 48.35 283.25 46.85 287.1 45.4 291.9 43.75 296.75 42.1 302 40.7 307.25 39.25 312.35 38.45 317.45 37.65 321.65 37.3 325.85 37 328.45 36.95 330.45 36.95 331.05 37 324.8 35.9 317.7 35.55 310.45 35.2 302.95 35.5 295.4 35.8 288.15 36.65 280.85 37.5 274.35 38.7 265.6 40.15 259 40.95 252.4 41.8 248.75 42.1 246.05 42.3 245.35 42.35 245.85 42.25 247.3 41.8 249.6 41.15 253.5 39.85 257.4 38.55 262.15 36.95 266.9 35.35 271.7 33.7 276.55 32.05 280.7 30.65 284.85 29.2 287.55 28.3 289.701171875 27.5537109375 290.4 27.35 277.8642578125 29.9623046875 265.45 31.75 252.95 33.5 240.95 33.5 228.95 33.55 217.7 30.9 210.9 29.4 204.2 27.2 197.45 24.95 190.2 22 183 19 174.65 15.15 166.35 11.3 156.4 6.55 146.45 1.8 134.3 -3.95 134.2 -4.05 135.9 -3.7 137.65 -3.4 140.5 -2.95 143.4 -2.45 146.7 -2.1 150 -1.7 153.1 -1.7 157.65 -1.5 162 -1.6 166.35 -1.75 169.85 -2.05 173.35 -2.4 175.4 -2.8 172 -4.15 167.85 -5.2 163.7 -6.3 158.25 -7.6 152.85 -8.9 145.75 -10.85 133.55 -14.7 119.85 -17.1 106.15 -19.55 92.05 -20 77.95 -20.6 64.8 -19.25 51.7 -17.9 40.05 -15.55 28.45 -13.2 18.85 -10.75 Z"/>
</g>

<g id="RD_Prun_Tail_5_Layer1_2_FILL">
<path fill="#FDF6AF" stroke="none" d="
M 18.85 -10.75
Q 9.25 -8.3 2.15 -6.65 -1.25 -5.9 -3.2 -4.1 -5.1 -2.25 -5.55 0 -6 2.25 -5 4.3 -4 6.3 -1.5 7.55 0.95 8.75 4.9 8.45 5.85 8.35 10.9 7.85 16 7.35 24.45 7.3 32.9 7.3 43.9 8.7 55 10.15 67.5 13.9 80 17.7 92.9 23.85 105.8 30 118.05 38.55 128.05 45.55 138.9 51.75 149.75 57.95 161.05 62.85 172.4 67.8 183.85 70.95 195.3 74.1 206.55 75 217.65 75.8 227 75.15 236.35 74.45 243.7 73 251 71.55 255.95 70.05 260.9 68.55 263.15 67.75 271.1 63.45 278.1 59.3 285.05 55.15 290.7 51.85 294.25 49.8 297.05 48.35 299.85 46.9 301.5 46.15
L 303.1 45.35
Q 296.15 45.9 289.15 47.25 282.15 48.55 275 50.2 275.15 50.15 277.25 49.25 279.45 48.35 283.25 46.85 287.1 45.4 291.9 43.75 296.75 42.1 302 40.7 307.25 39.25 312.35 38.45 317.45 37.65 321.65 37.3 325.85 37 328.45 36.95 330.45 36.95 331.05 37 324.8 35.9 317.7 35.55 310.45 35.2 302.95 35.5 295.4 35.8 288.15 36.65 280.85 37.5 274.35 38.7 265.6 40.15 259 40.95 252.4 41.8 248.75 42.1 246.05 42.3 245.35 42.35 245.85 42.25 247.3 41.8 249.6 41.15 253.5 39.85 257.4 38.55 262.15 36.95 266.9 35.35 271.7 33.7 276.55 32.05 280.7 30.65 284.85 29.2 287.55 28.3 289.701171875 27.5537109375 290.4 27.35 277.8642578125 29.9623046875 265.45 31.75 252.95 33.5 240.95 33.5 228.95 33.55 217.7 30.9 210.9 29.4 204.2 27.2 197.45 24.95 190.2 22 183 19 174.65 15.15 166.35 11.3 156.4 6.55 146.45 1.8 134.3 -3.95 134.2 -4.05 135.9 -3.7 137.65 -3.4 140.5 -2.95 143.4 -2.45 146.7 -2.1 150 -1.7 153.1 -1.7 157.65 -1.5 162 -1.6 166.35 -1.75 169.85 -2.05 173.35 -2.4 175.4 -2.8 172 -4.15 167.85 -5.2 163.7 -6.3 158.25 -7.6 152.85 -8.9 145.75 -10.85 133.55 -14.7 119.85 -17.1 106.15 -19.55 92.05 -20 77.95 -20.6 64.8 -19.25 51.7 -17.9 40.05 -15.55 28.45 -13.2 18.85 -10.75 Z"/>
</g>

<g id="RD_Prun_Tail_5_Layer1_3_FILL">
<path fill="#662F89" stroke="none" d="
M 18.8 -10.75
Q 9.2 -8.3 2.1 -6.65 -1.05 -6 -2.9 -4.4 -4.75 -2.8 -5.35 -0.8 -6 1.25 -5.45 3.2 7.3 0.15 20.4 -0.65 33.45 -1.45 46.45 0 59.45 1.4 72.05 4.9 91 10.1 108.45 19.25 114.25 22.2 119.8 25.65 125.35 29.1 130.95 32.6 136.5 36.15 142.35 39.3 153.8 45.7 166.15 50.7 178.5 55.7 191.45 58.5 204.4 61.3 217.85 61 227.95 60.95 237.7 59.1 247.45 57.25 256.95 54.4 266.5 51.55 275.85 48.45 285.25 45.4 294.6 42.85 299.3 41.15 304.3 40.05 309.3 38.9 314 38.25 318.7 37.55 322.55 37.25 326.35 36.95 328.7 36.9 329.8 36.9 330.45 36.9 324.4 35.9 317.65 35.55 310.45 35.2 302.9 35.5 295.4 35.8 288.15 36.65 280.85 37.5 274.35 38.7 265.55 40.15 258.95 40.95 252.4 41.8 248.75 42.1 246 42.3 245.3 42.35 245.8 42.25 247.25 41.8 249.55 41.15 253.45 39.85 257.35 38.55 262.1 36.95 266.85 35.35 271.7 33.7 276.55 32.05 280.65 30.65 284.8 29.2 287.5 28.3 289.6955078125 27.553515625 290.4 27.35 277.814453125 29.9623046875 265.45 31.75 252.95 33.5 240.9 33.5 228.9 33.55 217.65 30.9 210.9 29.4 204.15 27.2 197.45 24.95 190.2 22 182.95 19 174.65 15.15 166.35 11.3 156.35 6.55 146.4 1.8 134.25 -3.95 134.15 -4.05 135.9 -3.7 137.65 -3.4 140.5 -2.95 143.35 -2.45 146.7 -2.1 150 -1.7 153.1 -1.7 157.6 -1.5 161.95 -1.6 166.3 -1.75 169.85 -2.05 173.35 -2.4 175.4 -2.8 172 -4.15 167.85 -5.2 163.65 -6.3 158.25 -7.6 152.85 -8.9 145.75 -10.85 133.55 -14.7 119.85 -17.1 106.15 -19.55 92.05 -20 77.9 -20.6 64.8 -19.25 51.65 -17.9 40.05 -15.55 28.4 -13.2 18.8 -10.75 Z"/>
</g>

<g id="RD_Prun_Tail_5_Layer1_4_FILL">
<path fill="#1D98D5" stroke="none" d="
M 15.2 -9.75
Q 7.95 -7.85 2.1 -6.65 -1.05 -6 -2.9 -4.4 -4.75 -2.8 -5.35 -0.8 -6 1.25 -5.45 3.2 7.3 0.15 20.4 -0.65 33.45 -1.45 46.45 -0.05 59.45 1.35 72.05 4.85 91 10.1 108.45 19.25 114.25 22.2 119.8 25.65 125.35 29.1 130.95 32.6 136.5 36.1 142.35 39.25 153.8 45.65 166.15 50.7 178.5 55.7 191.45 58.5 204.4 61.3 217.85 61 227.95 60.95 237.7 59.1 247.45 57.25 256.95 54.4 266.5 51.55 275.85 48.45 285.25 45.35 294.6 42.8 299.3 41.15 304.3 40.05 309.3 38.9 314 38.25 318.7 37.55 322.55 37.25 326.35 36.95 328.7 36.9 329.8 36.9 330.45 36.9 324.4 35.9 317.65 35.55 310.45 35.2 302.9 35.5 295.4 35.8 288.15 36.65 280.85 37.5 274.35 38.7 265.55 40.15 258.95 40.95 252.4 41.8 248.75 42.1 246 42.3 245.3 42.35 245.8 42.25 247.25 41.8 249.55 41.15 253.45 39.85 257.35 38.55 262.1 36.95 266.85 35.35 271.7 33.7 276.55 32.05 280.65 30.65 284.8 29.2 287.5 28.3 289.8375 27.5208984375 290.5 27.35 281.2443359375 29.159375 272.15 30.7 262.95 32.25 253.95 33.05 244.95 33.85 236.3 33.4 235.7 33.2 231.7 33.85 227.7 34.5 220.8 34.8 213.85 35.15 204.5 34.1 195.15 33.05 183.8 29.5 172.1 25.9 158.7 19.45 155.35 17.9 151.9 16.15 148.5 14.35 145 12.5
L 129.35 3.85
Q 117.7 -2.4 104.65 -7.05 91.55 -11.75 77.7 -14.4 63.8 -17.1 49.7 -17.35 39.75 -15.75 31.15 -13.7 22.5 -11.7 15.2 -9.75 Z"/>
</g>

<g id="RD_Prun_Tail_5_Layer1_5_FILL">
<path fill="#62BC4D" stroke="none" d="
M 11.95 -8.3
Q 5.95 -7.45 2.1 -6.65 -1.05 -6 -2.9 -4.4 -4.75 -2.8 -5.35 -0.8 -6 1.25 -5.45 3.2 7.3 0.15 20.4 -0.65 33.45 -1.45 46.45 -0.05 59.45 1.35 72.05 4.85 91 10.1 108.45 19.25 114.25 22.2 119.8 25.65 125.35 29.1 130.95 32.6 136.5 36.15 142.35 39.3 153.8 45.7 166.15 50.7 178.5 55.7 191.45 58.5 204.4 61.3 217.85 61 227.95 60.95 237.7 59.1 247.45 57.25 256.95 54.4 266.5 51.55 275.85 48.45 285.25 45.4 294.6 42.85 299.3 41.15 304.3 40.05 309.3 38.9 314 38.25 318.7 37.55 322.55 37.25 326.35 36.95 328.7 36.9 329.95 36.85 330.6 36.95 323.15 35.5 314.7 35.35 305.85 35.2 296.8 35.95 287.75 36.65 279.4 37.85 271.1 39.05 264.35 40.2 259.25 41.25 252.2 42.9 245.15 44.55 236.35 45.85 227.5 47.2 217.2 47.2 206.9 47.25 195.3 45.1 183.75 42.95 171.15 37.7 155.45 31.5 138.95 21.95 133.65 18.7 127.55 15.2 121.45 11.7 114.85 8.4 108.25 5.05 101.45 2.4 87.75 -3.2 72.85 -6.5 57.95 -9.75 42.55 -10.3 27.2 -10.85 11.95 -8.3 Z"/>
</g>

<g id="RD_Prun_Tail_5_Layer1_6_FILL">
<path fill="#3A54A5" stroke="none" d="
M 299.05 25
Q 297.7689453125 25.14921875 296.45 25.3
L 296.45 25.9
Q 298.7203125 25.0861328125 299.05 25
M 343.05 39.05
Q 345.2298828125 39.2900390625 345.65 39.25 345.231640625 39.2369140625 343.05 38.55
L 343.05 39.05
M 144.6 70.35
Q 143.5220703125 69.7037109375 142.65 69.1
L 144.35 70.8 144.6 70.35 Z"/>

<path fill="#1D9AD6" stroke="none" d="
M 33.3 -17.65
Q 25.15 -16 18.3 -13.9 11.45 -11.75 6.9 -9.95 2.3 -8.15 1 -7.55 -2.85 -5.95 -4.9 -3.25 -6.95 -0.55 -6.6 2.6 -6.35 4.7 -4.8 6.45 -3.3 8.15 -0.65 9.15 1.95 10.1 5.55 9.9 18.95 9.5 31 11.75 43.05 14 53.5 18.15 64 22.25 72.75 27.4 85.9 35.25 95.9 44.35 99.25 47.35 102.25 50.35 105.25 53.35 108.55 56.65 111.85 59.9 116 63.6 123 69.85 131.25 75.9 139.55 81.95 148.6 87.25 157.65 92.5 166.95 96.45 173.9 99.4 180.4 101.4 186.95 103.35 192.45 104.5 197.95 105.6 201.7 105.95 205.5 106.3 206.95 106.05 204.05 105.15 200.15 103.75 196.25 102.3 191.8 100.35 187.4 98.4 182.85 95.95 176.05 92.35 169.9 88.2 163.8 84.05 158.75 80.2 165.4 83.25 174.1 86.2 182.75 89.15 193.25 91.25 203.75 93.25 214.55 93.65 225.35 94 235.45 92.95 240.4 92.5 245.2 91.7 250 90.9 253.6 90.15 262.5 88.25 268.25 86.55 274.15 84.9 277.45 83.9 280.75 82.9 281.3 82.7 286.3 81.2 291.25 79.75 286.15 79.7 280.95 79.75 265.5 80.2 255.15 80.05 244.75 79.9 239.7 79.25 246.6 77.35 254.15 73.95 261.7 70.55 268.9 66.6 276.05 62.65 281.85 59.05 288 55.3 292.85 52.6 297.7 49.9 300.75 48.45 303.75 46.95 304.4 46.7 308.1 44.95 311.95 43.45 300.6 43.6 289.15 45.6 292.8 44.25 298.3 42.7 303.75 41.2 310.1 40 316.45 38.8 322.75 38.45 329.05 38.15 334.25 38.4 339.45 38.65 342.6 39 342.8470703125 39.0279296875 343.05 39.05
L 343.05 38.55
Q 340.3 37.7 335.5 36.55 330.65 35.35 324.2 34.45 317.8 33.5 310.35 33.45 302.85 33.35 295.4 34.05 287.95 34.75 281.25 35.85 274.5 36.9 269.15 37.85 263.85 38.85 260.55 39.2 264.1 38 268 36.65 273.8 34.5 279.3 32.4 284.85 30.3 289.35 28.6 293.8 26.9 296.45 25.9
L 296.45 25.3
Q 291.0923828125 25.9912109375 285.1 26.95 277.55 28.15 269.85 29.35 262.15 30.55 255.05 31.3 248 32.05 242.4 31.95 233.55 32 225.45 30.5 217.4 29 209.6 26.45 204.6 24.75 199.3 22.65 194 20.5 188.05 17.9 182.15 15.35 175.25 12.3 170.75 10.45 164.85 8.35 159 6.25 152.75 3.9 146.5 1.5 140.95 -1.25 144.55 -0.6 149.3 -0.4 154.05 -0.2 159.05 -0.25 164.05 -0.35 168.3 -0.6 172.6 -0.9 175.2 -1.15 177.8 -1.45 177.8 -1.65 174.5 -3.7 168.9 -6.1 163.3 -8.5 156.1 -10.65 154.95 -11 153.6 -11.35 152.25 -11.65 150.15 -12.25 145.45 -13.75 139.8 -15.35 134.05 -16.85 127.65 -18.15 121.25 -19.5 114.65 -20.35 105.8 -21.6 97.7 -21.95 89.6 -22.35 83.35 -22.2 77.05 -22.1 73.65 -21.85 71.1 -21.8 66.8 -21.6 62.5 -21.4 57.05 -20.95 51.55 -20.55 45.5 -19.75 39.4 -18.95 33.3 -17.65
M 0.35 -3.9
Q 2.3 -5.3 4.75 -6.2 8.25 -7.35 13.7 -9.1 19.2 -10.85 26.4 -12.65 33.55 -14.45 42.15 -15.75 50.75 -17.15 60.25 -17.85 69.75 -18.6 79.7 -18.55 89.7 -18.55 99.65 -17.75 110.95 -16.9 121.75 -14.9 132.6 -12.9 142.4 -10 145.95 -8.85 148.65 -8.15 151.3 -7.45 153.5 -6.95 155.7 -6.45 157.85 -5.85 161.05 -5.2 163.9 -4.45 166.7 -3.7 169.2 -3.1 166.3 -2.85 162.85 -2.75 159.4 -2.7 155.8 -2.75 152.2 -2.85 148.85 -3.1 145.4 -3.35 142.15 -3.9 138.95 -4.4 136.85 -4.8 134.8 -5.15 134.85 -5.1 129.2 -5.9 123.7 -6.5 129.05 -4.4 134.35 -2.1 138.6 -0.15 142 1.45 145.35 3.1 148.35 4.5 151.35 5.95 154.35 7.35 163.25 11.65 171.6 15.4 182.05 20.25 191.05 23.95 200.1 27.6 208.1 30 216.5 32.4 225 33.7 233.5 35 242.5 34.95 249.25 35 256.6 34.25 263.95 33.45 271.4 32.3 266.9 33.85 262.25 35.45 257.6 37.05 253.25 38.45 248.9 39.85 245.25 40.8 241.7 41.7 238.35 42.45 235 43.15 231.6 43.7 235.05 43.9 238.55 43.9 242 43.95 245.7 43.75 245.8 43.8 248.5 43.6 251.15 43.4 255.95 42.85 260.75 42.3 267.25 41.25 273.7 40.25 281.35 39.1 289 37.95 297.2 37.25 305.4 36.55 313.45 36.85 308.35 37.55 302.75 39.15 297.2 40.75 291.85 42.75 286.5 44.75 282.1 46.65 277.7 48.5 274.95 49.8 272.15 51.1 271.7 51.25 277.7 50.25 283.7 49.25 289.75 48.25 295.45 47.75 292 49.55 287.2 52.4 282.4 55.3 276.7 58.7 271 62.1 264.85 65.55 258.6 69.1 251.95 72 245.3 74.9 239.1 76.85 232.9 78.75 228.05 79.45 228.05 79.55 230.6 80.05 233.2 80.55 237.55 81.2 241.95 81.85 247.4 82.4 252.9 82.95 258.65 83.15 264.4 83.4 269.7 83.05 266.75 83.85 263 84.9 259.25 85.9 254.35 86.95 250.2 87.85 244.85 88.8 239.5 89.7 233.85 90.25 226.25 91.05 218.1 90.95 210 90.9 201.85 89.95 193.7 89 186 87.1 175.35 84.45 166.75 81.1 158.15 77.75 152 74.55 147.53671875 72.20859375 144.6 70.35
L 144.35 70.8
Q 146.05 72.55 149.2 75.45 152.35 78.35 156.55 81.8 160.75 85.25 165.55 88.7 170.4 92.15 175.15 95.05 179.9 98 183.85 99.9 181.35 99.25 176.95 97.6 172.6 95.95 166.9 93.35 161.2 90.7 154.85 87.05 145.2 81.55 135.15 74.1 125.1 66.7 115.55 58.1 112.1 55.1 109.45 52.5 106.85 49.95 104.5 47.65 102.1 45.35 99.5 43.05 91.85 36.25 84.05 30.9 76.25 25.5 69.25 21.85 62.25 18.15 56.9 16.1 45.85 11.5 32.95 9 20 6.5 5.4 6.9 1.15 7.1 -0.95 5.6 -3.1 4.15 -3.35 2.05 -3.55 0.6 -2.55 -1 -1.55 -2.55 0.35 -3.9 Z"/>
</g>

<g id="RD_FrontLeg_3_4_hoof_6_Layer0_0_FILL">
<path fill="#9EDBF8" stroke="none" d="
M -0.95 -17.2
Q -8.6921875 -16.7904296875 -12.35 -12.4 -15.971875 -8.0099609375 -18.15 -4 -20.324609375 0.0544921875 -21.9 7.4 -23.42421875 14.7861328125 -17.1 18.5 -10.7796875 22.268359375 0.15 20.85 11.0783203125 19.4369140625 14.05 14.5 17.0837890625 9.596484375 17.4 1.25 17.7197265625 -7.051171875 12.3 -12.35 6.8671875 -17.5837890625 -0.95 -17.2 Z"/>
</g>

<g id="RD_KneePatch_1_Layer0_0_FILL">
<path fill="#6DABDD" stroke="none" d="
M 10.75 -8.3
L 10.75 -8.45
Q 10.999609375 -9.6171875 11 -10.9 11.0111328125 -16.75078125 6.7 -21.15 2.4033203125 -25.5216796875 -3.55 -25.85 -9.52421875 -26.1814453125 -13.85 -22.55 -18.2634765625 -18.8869140625 -18.25 -13.75
L -18.25 -13.7
Q -18.333203125 -9.8595703125 -15.45 -3.75
L -15.4 -3.65 -15.4 -3.6
Q -12.6767578125 2.0408203125 -9.8 10.1
L -9.75 10.2
Q -9.74140625 10.22421875 -9.75 10.25
L -9.75 10.25
Q -6.684765625 18.7166015625 -4.1 21.8
L -4.05 21.85
Q -1.2443359375 25.3462890625 3.45 25.6
L 3.5 25.6
Q 8.171875 25.7728515625 11.55 22.6 14.949609375 19.4423828125 15.4 15.75 15.955859375 12.0994140625 13.1 9.2 8.4591796875 3.042578125 10.65 -7.8 10.721875 -8.034375 10.75 -8.3 Z"/>
</g>

<g id="RD_HindLeg_3_4rear_lower_2_Layer1_0_FILL">
<path fill="#9EDBF8" stroke="none" d="
M -5.65 -3.6
Q -13.0958984375 2.169140625 -8.9 12.2 -5.18671875 19.70546875 7.6 6.9 17.0154296875 -1.388671875 11.5 -5.15 1.836328125 -8.4703125 -5.65 -3.6 Z"/>
</g>

<g id="RD_HindLeg_3_4rear_lower_2_Layer0_0_FILL">
<path fill="#9EDBF8" stroke="none" d="
M -10.2 3.35
Q -15.7921875 31.9404296875 -8.9 59.25
L 24.35 43.05
Q 15.0326171875 27.90546875 13.4 -2.55
L -10.2 3.35 Z"/>
</g>

<g id="RD_HindLeg_3_4_top_3_Layer1_0_FILL">
<path fill="#6DABDD" stroke="none" d="
M -19.65 44.3
Q -19.6541015625 43.8923828125 -19.7 43.45 -19.7474609375 43.891015625 -19.8 44.3
L -19.65 44.3
M 0.85 -4.4
L 0.85 -4.4
Q -8.440625 -7.578515625 -18.8 -4.85 -20.7306640625 -4.3076171875 -22.7 -3.6 -35.693359375 1.456640625 -37.3 12.75 -36.67265625 13.8740234375 -36.05 14.95 -35.9734375 15.0919921875 -35.9 15.2
L -35.5 15.95
Q -32.348046875 1.869921875 -18.8 -1.8 -4.6494140625 -5.201171875 3.15 0.8 4.996875 2.69765625 6.85 5.45 8.5537109375 7.9505859375 9.85 11.55 10.773828125 14.0306640625 11.95 18.6 13.480078125 24.059375 14 30.65 14.6548828125 37.772265625 13.95 44.3
L 16.5 44.3
Q 17.1921875 37.8173828125 16.9 31 16.514453125 22.81796875 14.85 16.7 12.33671875 7.5259765625 8.9 2.55 6.02890625 -1.5513671875 3.15 -3.35 2.012890625 -4.0341796875 0.85 -4.4
L 0.85 -4.4 Z"/>

<path fill="#9EDBF8" stroke="none" d="
M 6.85 5.45
Q 4.996875 2.69765625 3.15 0.8 -4.6494140625 -5.201171875 -18.8 -1.8 -32.348046875 1.869921875 -35.5 15.95
L -35.9 15.2
Q -41.54375 35.5021484375 -19.7 43.4
L -19.7 43.45
Q -19.6541015625 43.8923828125 -19.65 44.3
L 13.95 44.3
Q 14.6548828125 37.772265625 14 30.65 13.480078125 24.059375 11.95 18.6 10.773828125 14.0306640625 9.85 11.55 8.5537109375 7.9505859375 6.85 5.45 Z"/>
</g>

<g id="RD_HindLeg_3_4_top_3_Layer0_0_FILL">
<path fill="#6DABDD" stroke="none" d="
M 8.7 79.1
L 8.7 79.1
Q -3.7240234375 82.317578125 -15.9 55.05 -20.4896484375 46.2076171875 -20.85 37.15 -20.8546875 36.330078125 -20.85 35.45
L -20.85 35.4
Q -22.584375 41.745703125 -21.75 46.8 -20.8296875 51.911328125 -17.95 57.6
L -17.95 57.6
Q -11.971484375 69.1169921875 -6.05 75 -5.2890625 76.075390625 -4.35 77.05
L -4.35 77
Q -0.276953125 80.9404296875 5.2 80.6 7.4673828125 80.5080078125 8.7 79.1
M 14.45 15.7
L 10.9 14.4
Q 12.36328125 19.052734375 13 21.7 14.323046875 26.6453125 14.55 32.3 14.936328125 39.9142578125 12.65 49.15 10.4171875 58.4453125 9.3 62.55 8.17265625 66.672265625 9.1 73.05 9.75390625 77.3060546875 8.75 79.05 9.4486328125 78.3134765625 9.8 77.2 9.9109375 76.9609375 9.95 76.7 10.304296875 75.502734375 10.2 71.5 10.1513671875 67.5421875 11.45 63 12.7974609375 58.489453125 15.1 49.55 17.4509765625 40.6375 17.45 33.45 17.5064453125 26.2955078125 16.1 20.75 15.6138671875 18.894921875 14.45 15.7 Z"/>

<path fill="#9EDBF8" stroke="none" d="
M 12.65 49.15
Q 14.936328125 39.9142578125 14.55 32.3 14.323046875 26.6453125 13 21.7 12.36328125 19.052734375 10.9 14.4
L -8.9 17.15 -20.85 35.45
Q -20.8546875 36.330078125 -20.85 37.15 -20.4896484375 46.2076171875 -15.9 55.05 -3.7240234375 82.317578125 8.7 79.1
L 8.7 79.1 8.75 79.1
Q 8.764453125 79.1033203125 8.75 79.05 9.75390625 77.3060546875 9.1 73.05 8.17265625 66.672265625 9.3 62.55 10.4171875 58.4453125 12.65 49.15 Z"/>
</g>

<g id="RD_KneePatch_0_Layer0_0_FILL">
<path fill="#9EDBF8" stroke="none" d="
M 6.95 -3.8
Q 7.6271484375 -8.4921875 7.65 -8.75
L 7.65 -8.75
Q 7.6830078125 -8.7876953125 7.7 -8.85 7.850390625 -9.7474609375 7.85 -10.75 7.8390625 -15.39921875 4.4 -18.9 0.946484375 -22.4283203125 -3.85 -22.7 -8.6259765625 -22.9685546875 -12.1 -20.1 -15.376171875 -17.3716796875 -15.4 -13.55
L -15.4 -13.55
Q -15.40625 -10.530078125 -12.6 -4.2
L -12.4 -3.7
Q -12.324609375 -3.590625 -12.3 -3.5 -12.2001953125 -3.3171875 -12.15 -3.15 -12.0654296875 -3.0400390625 -12 -2.95
L -12 -2.9 -11.95 -2.8
Q -9.565234375 2.4005859375 -7.1 9.35 -7.0333984375 9.4712890625 -7.05 9.6 -4.2322265625 17.2533203125 -1.9 20.1
L -1.9 20.1
Q 0.112890625 22.6044921875 3.45 22.75 6.435546875 22.852734375 8.7 21.1
L 8.7 21.15
Q 19.876171875 11.2931640625 12.45 5.8 11.055859375 5.381640625 9.7 4.45 9.7404296875 4.5390625 9.75 4.6 8.476171875 3.9505859375 7.75 2.7 6.5830078125 1.1353515625 6.75 -1.95 6.7810546875 -2.8294921875 6.9 -3.8
L 6.95 -3.8 Z"/>
</g>

<g id="WingcycleBACK_11_Layer10_0_FILL">
<path fill="#6DABDD" stroke="none" d="
M 30.25 -29.45
L 30.3 -29.45
Q 15.1015625 -27.3708984375 -1.15 -0.1 -0.311328125 1.6189453125 0.55 3.45 1.418359375 5.2779296875 2.25 7.15 11.0265625 0.81015625 21.05 -2.8
L 21.05 -2.8
Q 28.2046875 -5.4453125 33.5 -8.5 36.6455078125 -10.3330078125 38.9 -12.35
L 38.85 -12.35
Q 45.1744140625 -17.6716796875 42.05 -26.65 41.9322265625 -27.054296875 41.6 -27.35 37.515234375 -30.7193359375 30.25 -29.45 Z"/>
</g>

<g id="WingcycleBACK_11_Layer9_0_FILL">
<path fill="#6DABDD" stroke="none" d="
M 65.5 -72.9
Q 65.25703125 -73.20390625 64.9 -73.35 53.719140625 -77.9689453125 35.95 -63.7
L 35.95 -63.7
Q 16.7103515625 -48.6904296875 -2.85 -3.35 -1.237109375 -0.342578125 0.4 3.15 26.175390625 -26.3072265625 50.55 -45 50.5986328125 -45.0375 50.6 -45.1 72.92265625 -64.3373046875 65.5 -72.9 Z"/>
</g>

<g id="WingcycleBACK_11_Layer8_0_FILL">
<path fill="#6DABDD" stroke="none" d="
M 65.6 -118
Q 63.9552734375 -119.95234375 60.3 -120 60.2416015625 -120.0048828125 60.15 -120 37.31171875 -117.9330078125 20.1 -77
L 20.1 -77
Q 17.9115234375 -71.8134765625 15.95 -66.45 1.8974609375 -28.051953125 -4.8 -6.85 -2.945703125 -3.68046875 -1.05 0.2 24.4908203125 -46.288671875 44.35 -71.3 54.759375 -84.638671875 60.2 -94.5 66.8857421875 -106.4541015625 67.2 -112.5 67.415234375 -116.165625 65.6 -118 Z"/>
</g>

<g id="WingcycleBACK_11_Layer7_0_FILL">
<path fill="#6DABDD" stroke="none" d="
M 28.65 -125.95
Q 28.6267578125 -125.9123046875 28.6 -125.9 25.745703125 -125.2189453125 22.2 -123.05 22.1388671875 -122.9787109375 22.05 -122.95 1.328125 -106.7693359375 -2.6 -65.7 -2.9484375 -62.087109375 -3.15 -58.4 -5.2654296875 -30.5916015625 -6.45 -9.65 -4.962109375 -7.41015625 -2.6 -2.85 3.158984375 -15.471484375 9.4 -34.7 12.025 -42.4125 14.6 -49.9
L 14.6 -49.95
Q 18.60078125 -61.6419921875 22.7 -70.85
L 22.7 -70.85
Q 28.706640625 -84.6703125 32.2 -95.45
L 32.2 -95.45
Q 35.6857421875 -106.4763671875 36.5 -114
L 36.5 -114.05
Q 37.0751953125 -120.5455078125 35.3 -123.4 33.34609375 -126.91015625 28.65 -125.95 Z"/>
</g>

<g id="WingcycleBACK_11_Layer5_0_FILL">
<path fill="#9EDBF8" stroke="none" d="
M 39.3 -25.2
Q 36.1294921875 -27.4109375 30.75 -26.5
L 30.7 -26.45
Q 16.291796875 -24.1154296875 0.4 3.15 0.4837890625 3.309375 0.55 3.45 0.769921875 3.9130859375 1 4.35 9.9013671875 -1.94296875 20 -5.65 26.8494140625 -8.1205078125 31.9 -11.1
L 31.9 -11.1
Q 34.7859375 -12.7486328125 36.85 -14.55 41.415625 -18.575 39.3 -25.2 Z"/>
</g>

<g id="WingcycleBACK_11_Layer4_0_FILL">
<path fill="#9EDBF8" stroke="none" d="
M 48.6 -47.35
Q 48.6365234375 -47.363671875 48.65 -47.4 67.74765625 -63.9033203125 63.3 -70.75 53.5142578125 -73.9529296875 37.9 -61.4 18.653125 -46.228515625 -1.05 0.1 -1.0376953125 0.1494140625 -1.05 0.15 24.4521484375 -28.78125 48.6 -47.35 Z"/>
</g>

<g id="WingcycleBACK_11_Layer3_0_FILL">
<path fill="#9EDBF8" stroke="none" d="
M 64.1 -112.65
Q 64.256640625 -114.8564453125 63.3 -116 62.32109375 -116.97734375 60.25 -117 39.172265625 -114.476953125 22.95 -75.85 20.8103515625 -70.7482421875 18.85 -65.45 3.8544921875 -24.465625 -2.75 -3.15
L -2.75 -3.15
Q 22.3234375 -48.4890625 41.9 -73.1
L 41.9 -73.1
Q 52.169921875 -86.19375 57.5 -95.9 63.744921875 -107.046484375 64.1 -112.65 Z"/>
</g>

<g id="WingcycleBACK_11_Layer2_0_FILL">
<path fill="#9EDBF8" stroke="none" d="
M 29.25 -123.05
Q 26.8923828125 -122.4193359375 23.95 -120.6 4.2189453125 -104.9123046875 0.45 -65.45 0.139453125 -61.8552734375 -0.1 -58.2
L -0.1 -58.2
Q -1.040234375 -45.6509765625 -1.95 -34.75 -4.1201171875 -20.712890625 -6.25 -9.35 -4.76015625 -6.9275390625 -3.2 -4.05 -2.7681640625 -6.19609375 -2.35 -8.5 -1.87421875 -10.8861328125 -1.45 -13.45 2.4234375 -23.094140625 6.5 -35.6 9.076171875 -43.3244140625 11.65 -50.9 15.737109375 -62.6826171875 19.9 -72.05 25.83828125 -85.6275390625 29.25 -96.3 32.639453125 -106.9900390625 33.4 -114.3 33.89296875 -119.6076171875 32.6 -121.95 31.610546875 -123.499609375 29.3 -123.05 29.299609375 -123.0390625 29.25 -123.05 Z"/>
</g>

<g id="WingcycleBACK_11_Layer1_0_FILL">
<path fill="#9EDBF8" stroke="none" d="
M 28.3 -95.8
Q 28.3 -97.3 26.85 -97.3 25.85 -97.3 19.6 -73.75 15.45 -64.3 14.1 -60.75 13.25 -58.5 12 -53.45 11 -49.3 9.9 -47.25 7.75 -43.2 3.8 -31.9 0.1 -21.35 0.1 -20.25 0.1 -18.6 -1.9 -14.2 -3.95 -9.85 -3.95 -8.9 -4.27421875 -7.571484375 -4.55 -6.45 -2.40625 -1.8091796875 -0.75 1.2 0.9142578125 4.219921875 2.15 6.85 17.707421875 -8.5439453125 13.1 -7 8.5015625 -5.4001953125 8.25 -5.1
L 7.6 -4.6
Q 8.4603515625 -5.766015625 9.4 -7.15 9.95 -7.75 15.2 -13.7 20.25 -19.5 20.25 -20.35 20.35 -22.3 18.75 -22.3 18.55 -22.3 7.75 -10.7 5.0634765625 -7.803125 3.05 -5.6 3.1455078125 -5.9103515625 3.25 -6.25 6.2 -16.05 10.25 -22.25 24.55 -44.2 24.55 -45.4 24.462109375 -46.367578125 23.95 -46.8 24.449609375 -47.169921875 25.1 -47.7 27.95 -50 27.95 -50.6 27.85 -51.85 26.55 -51.85 24.35 -51.85 24.1 -50.9 24.2 -49.75 23.9 -49.4 21.25 -47.15 21.25 -46.6 21.25 -46.314453125 21.25 -46.15 19.003125 -44.164453125 15.15 -37.8 9.2 -27.3 7.7 -24.7 5.4681640625 -21.28515625 3.8 -18.7 3.998046875 -22.9880859375 13.7 -49.35 23.6 -76.3 23.6 -77.15 23.6 -79.7 28.3 -95.8 Z"/>
</g>

<g id="RD_FrontLeg_3_4_hoof_11_Layer0_0_FILL">
<path fill="#6DABDD" stroke="none" d="
M 17 -14.7
L 17 -14.75
Q 13.2947265625 -22.103515625 5.85 -24.55 -1.5326171875 -26.9390625 -8.25 -22.9
L -8.3 -22.9
Q -14.2681640625 -19.2318359375 -16.65 -12.25 -16.7095703125 -12.1240234375 -16.75 -12 -18.8623046875 -5.1681640625 -20.1 3.15 -20.090234375 3.22890625 -20.1 3.3 -20.9037109375 14.259375 -8.95 21.8 -8.87421875 21.828125 -8.8 21.85 -2.87265625 24.74140625 3.8 22.85
L 3.85 22.8
Q 18.45859375 17.8275390625 19.55 4.35
L 19.55 4.45
Q 20.3158203125 -0.8623046875 19.1 -7.5 18.6923828125 -11.2048828125 17 -14.7
M 14.6 -13.25
L 14.6 -13.3
Q 15.707421875 -11.0302734375 16.15 -8.7 16.17109375 -8.456640625 16.2 -8.25 16.312109375 -7.805078125 16.4 -7.4 16.6583984375 -5.9748046875 16.8 -4.65 17.44453125 0.0908203125 16.9 4 16.8861328125 4.065625 16.85 4.1 15.7603515625 15.616796875 3.05 19.95
L 3.1 19.9
Q -2.6326171875 21.560546875 -7.75 19.1
L -7.6 19.15
Q -17.842578125 12.691796875 -17.4 3.45 -16.7109375 -1.0279296875 -15.8 -5.1 -15.2990234375 -7.1427734375 -14.75 -9.1
L -14.65 -9.45
Q -14.5974609375 -9.6119140625 -14.55 -9.8 -14.376953125 -10.4140625 -14.2 -11.05 -14.1177734375 -11.2125 -14.1 -11.4
L -14.05 -11.4
Q -11.9736328125 -17.192578125 -6.95 -20.25
L -7 -20.25
Q -1.2203125 -23.706640625 5.1 -21.65 11.4658203125 -19.561328125 14.6 -13.25 Z"/>

<path fill="#9EDBF8" stroke="none" d="
M 14.6 -13.3
L 14.6 -13.25
Q 11.4658203125 -19.561328125 5.1 -21.65 -1.2203125 -23.706640625 -7 -20.25
L -6.95 -20.25
Q -11.9736328125 -17.192578125 -14.05 -11.4
L -14.1 -11.4
Q -14.1177734375 -11.2125 -14.2 -11.05 -14.376953125 -10.4140625 -14.55 -9.8 -14.5974609375 -9.6119140625 -14.65 -9.45
L -14.75 -9.1
Q -15.2990234375 -7.1427734375 -15.8 -5.1 -16.7109375 -1.0279296875 -17.4 3.45 -17.842578125 12.691796875 -7.6 19.15
L -7.75 19.1
Q -2.6326171875 21.560546875 3.1 19.9
L 3.05 19.95
Q 15.7603515625 15.616796875 16.85 4.1 16.8861328125 4.065625 16.9 4 17.44453125 0.0908203125 16.8 -4.65 16.6583984375 -5.9748046875 16.4 -7.4 16.312109375 -7.805078125 16.2 -8.25 16.17109375 -8.456640625 16.15 -8.7 15.707421875 -11.0302734375 14.6 -13.3 Z"/>
</g>

<g id="RD_FrontLeg_3_4_upper_20_Layer1_0_FILL">
<path fill="#9EDBF8" stroke="none" d="
M 5.5 -1.05
L -5.95 -1.05
Q -23.45 30.8 -32.7 58.35
L 11.65 62.95
Q 12.4 41.65 5.5 -1.05 Z"/>
</g>

<g id="RD_HoofWrinkle_2_Layer0_0_FILL">
<path fill="#6DABDD" stroke="none" d="
M -6.15 0.85
Q -6.28046875 0.943359375 -6.4 1.05
L -6.05 1
Q 0.4029296875 -1.28125 5.95 0.8
L 6.4 0.9
Q 6.229296875 0.7560546875 6.05 0.6 3.57890625 -1.2400390625 -0.2 -1.1 -3.897265625 -1.0052734375 -6.15 0.85 Z"/>
</g>

<g id="RD_Torso_0_Layer1_0_FILL">
<path fill="#6DABDD" stroke="none" d="
M 23.2 -25.3
L 23.15 -25.3
Q 13.6134765625 -36.3685546875 0.1 -36.35 -13.413671875 -36.3685546875 -23 -25.3
L -23 -25.3
Q -33.85 -12.65 -33.5 1.85 -33 18.5 -26.15 26.5 -21.66640625 31.7732421875 -13.9 34.5 -7.2111328125 36.9048828125 0.1 36.9 17.13203125 36.8990234375 25.65 26.85 28.45 23.6 30.65 17.8 33.45 10.3 33.7 1.85 34.05 -12.65 23.2 -25.3
M 0.1 -33.35
Q 12.2779296875 -33.331640625 20.9 -23.35
L 20.9 -23.35 20.9 -23.35
Q 30.45 -12.15 30.7 1.85 30.95 16.1 23.35 24.9 15.568359375 33.90078125 0.1 33.9 -6.6890625 33.8951171875 -12.9 31.65 -19.83359375 29.2265625 -23.85 24.55 -30.2 17 -30.5 1.15 -30.7 -11.65 -20.7 -23.35
L -20.75 -23.35 -20.7 -23.35
Q -12.069921875 -33.331640625 0.1 -33.35 Z"/>

<path fill="#F4B6D1" stroke="none" d="
M -20.7 -23.35
L -20.7 -23.35 -20.75 -23.35 -20.7 -23.35
M 20.9 -23.35
L 20.9 -23.35 20.9 -23.35 20.9 -23.35 Z"/>

<path fill="#9EDBF8" stroke="none" d="
M 20.9 -23.35
Q 12.2779296875 -33.331640625 0.1 -33.35 -12.069921875 -33.331640625 -20.7 -23.35
L -20.7 -23.35
Q -30.7 -11.65 -30.5 1.15 -30.2 17 -23.85 24.55 -19.83359375 29.2265625 -12.9 31.65 -6.6890625 33.8951171875 0.1 33.9 15.568359375 33.90078125 23.35 24.9 30.95 16.1 30.7 1.85 30.45 -12.15 20.9 -23.35
L 20.9 -23.35 Z"/>
</g>

<g id="RD_Prun_Mane_cycle_6_Layer0_0_FILL">
<path fill="#1D9AD6" stroke="none" d="
M 79.45 -29.25
Q 78.15 -29.65 76.55 -30.2 72.45 -31.55 68.05 -32.9 65.8 -33.55 63.45 -34.25 61.1 -34.9 58 -35.65 55.35 -36.25 52.65 -36.8 49.9 -37.3 47.3 -37.75 33.3 -39.75 20.4 -40 7.5 -40.25 -4.75 -39.35 -16.95 -38.45 -28.8 -37 -21.95 8.1 -15.2 53.2 -5.85 48.95 3.5 45.3 12.85 41.65 21.95 38.8 31.05 36.05 39.6 34.4 41.75 34 43.75 33.7 45.8 33.4 48.05 33.25 50.3 33.1 53.05 33.15 55.05 33.2 57.05 33.2 59 33.25 61.3 33.35 66.35 33.75 71.7 33.8 74.4 33.8 77.35 33.65 80.3 33.55 83.25 33.15 85.7 32.7 88.1 32.25 90.5 31.8 92.95 31.15 97.8 30 102.6 28.4 107.35 26.8 112.25 24.6 105.05 25.35 98.45 25 91.9 24.6 85.65 23.55 81.05 22.9 76.75 21.6 72.45 20.3 68.55 18.7 64.65 17.05 61.25 15.4 65.2 15.25 69.6 15.05 74 14.85 78.25 14.2 82.55 13.45 86.55 12.2 90.5 11 94.35 9.55 99.55 7.6 104 5 108.4 2.4 112.55 -0.8 116.7 -3.9 120.95 -7.5 114.45 -6.7 108.95 -6.65 103.5 -6.6 98.65 -7.7 95.25 -8.4 91.7 -9.4 88.2 -10.35 85.15 -11.6 82.05 -12.8 80 -14.35 81.55 -14.9 82.75 -15.6 83.95 -16.25 84.75 -17 86.25 -17.8 87.75 -18.55 89.35 -19.3 90.75 -20.2 93.6 -21.85 95.95 -23.8 98.3 -25.7 99.7 -27.6 97.85 -27.4 95.4 -27.3 92.9 -27.15 90.2 -27.3 89.35 -27.35 88.3 -27.4 87.3 -27.45 86.4 -27.55 85.45 -27.6 85.05 -27.7 84.75 -27.8 83.9 -28 83.05 -28.2 81.85 -28.55 80.75 -28.8 79.45 -29.25 Z"/>
</g>

<g id="RD_Prun_Mane_cycle_6_Layer0_1_FILL">
<path fill="#672E8A" stroke="none" d="
M 83.25 33.15
Q 85.7 32.65 88.1 32.25 90.5 31.8 92.95 31.15 97.8 30 102.6 28.4 107.35 26.8 112.25 24.6 105.05 25.3 98.5 25 91.9 24.6 85.65 23.5 81.05 22.9 76.75 21.6 72.45 20.3 68.55 18.65 64.65 17.05 61.25 15.4 65.15 15.15 69.45 14.85 73.75 14.55 77.9 13.85 73.4 13.5 69.2 12.8 64.9 12.1 60.8 11.3 56.7 10.5 52.65 9.95 46.75 9.2 40.75 9.1 34.75 8.95 28.75 9.4 16.7 10.3 4.65 12.55 -7.4 14.8 -19.3 17.9 -17.25 35.55 -15.2 53.2 -5.9 48.95 3.5 45.25 12.85 41.65 21.95 38.8 31.05 36.05 39.6 34.4 41.75 34 43.75 33.7 45.8 33.4 48.05 33.25 50.3 33.1 53.05 33.15 55.05 33.2 57.05 33.2 59.05 33.25 61.3 33.35 66.4 33.75 71.75 33.8 74.4 33.8 77.35 33.65 80.3 33.5 83.25 33.15 Z"/>
</g>

<g id="RD_Prun_Mane_cycle_6_Layer0_2_FILL">
<path fill="#62BC4E" stroke="none" d="
M 16.9 -14.2
Q 27.5 -15.05 38.55 -14.7 46.85 -14.35 55.5 -12.9 59.7 -12.1 63.55 -11.25 67.4 -10.45 71.15 -9.55 74.45 -8.8 77.45 -8.35 80.45 -7.85 82.95 -7.8 84.55 -7.75 86.6 -7.85 88.7 -7.95 90.9 -8.1 93.05 -8.3 94.95 -8.5 90.7 -9.6 86.45 -11.05 85.25 -11.35 84.5 -11.8 83.7 -12.15 83.15 -12.55 81.65 -13.4 80 -14.35 81.55 -14.9 82.75 -15.6 83.95 -16.25 84.75 -17 86.25 -17.8 87.75 -18.55 89.35 -19.3 90.75 -20.2 93.6 -21.85 95.95 -23.8 98.3 -25.7 99.7 -27.6 97.85 -27.4 95.4 -27.3 92.9 -27.15 90.2 -27.3 89.35 -27.35 88.3 -27.4 87.3 -27.45 86.4 -27.55 85.45 -27.6 85.05 -27.7 84.75 -27.8 83.9 -28 83.05 -28.2 81.85 -28.55 80.75 -28.8 79.45 -29.25 78.15 -29.65 76.55 -30.2 72.45 -31.55 68.05 -32.9 65.8 -33.55 63.45 -34.25 61.1 -34.9 58 -35.65 55.35 -36.25 52.65 -36.8 49.9 -37.3 47.3 -37.75 33.3 -39.75 20.4 -40 7.5 -40.25 -4.75 -39.35 -16.95 -38.45 -28.8 -37
L -24.4 -8
Q -14.3 -10.1 -4.05 -11.75 6.25 -13.4 16.9 -14.2 Z"/>
</g>

<g id="RD_Prun_Mane_cycle_6_Layer0_3_FILL">
<path fill="#1D9AD6" stroke="none" d="
M 30.25 -42.4
Q 24.75 -42.65 19.25 -42.6 13.75 -42.55 8.45 -42.3 2.1 -41.95 -3.65 -41.45 -9.45 -40.9 -14.25 -40.35 -19.1 -39.75 -22.65 -39.25 -26.2 -38.75 -28.1 -38.45
L -30.05 -38.15
Q -22.55 7.7 -15.2 53.5 -15.15 53.5 -13.35 52.8 -11.5 52.05 -8.2 50.85 -4.95 49.6 -0.65 48.1 3.65 46.55 8.6 44.95 13.55 43.35 18.85 41.85 23.2 40.65 27.4 39.65 31.7 38.65 35.6 38 39.5 37.25 42.8 36.85 45.1 36.45 47.7 36.45 50.3 36.35 52.8 36.45 55.3 36.5 57.25 36.5 59.15 36.5 60.85 36.6 64.25 36.75 68.55 36.7 72.9 36.6 78.15 36.1 81.1 35.8 83.45 35.25 85.75 34.75 87.8 34.15 89.95 33.6 92.1 32.9 94.25 32.2 96.25 31.5 100.35 30.15 103.85 28.55 107.3 27 109.9 25.65 112.55 24.3 113.95 23.4 115.35 22.55 115.25 22.55
L 113.8 22.7
Q 112.25 22.9 109.55 23.05 106.8 23.2 103.25 23.15 99.75 23.15 95.85 22.75 91.8 22.35 87.8 21.8 83.8 21.3 79.15 20.35 74.8 19.35 71.05 18.1 67.25 16.85 64.1 15.9 67 16.15 70.55 16.25 74.05 16.3 77.9 15.95 81.7 15.6 85.55 14.6 91.2 13.1 96.55 10.95 101.9 8.8 106.35 6.05 110.6 3.2 114.2 0.35 117.75 -2.5 120.4 -4.85 123.05 -7.15 124.55 -8.55 126.05 -9.9 126.15 -9.85 126.2 -9.95 124.45 -9.7 122.7 -9.5 119.8 -9.2 116.85 -8.9 113.25 -8.65 109.7 -8.45 106 -8.5 102.75 -8.7 99.05 -9.35 95.3 -9.95 91.7 -10.85 89.9 -11.2 88.1 -11.7 86.35 -12.15 84.75 -12.5 82.8 -13.4 80.65 -14.15 81.85 -14.35 82.75 -14.65 83.7 -15 84.8 -15.55 85.9 -16.1 87.75 -16.8 90.2 -17.8 92.4 -19 94.65 -20.3 96.45 -21.6 98.35 -22.95 99.5 -24.15 100.65 -25.4 101.3 -26.4 102.2 -27.45 102.75 -28.1 103.25 -28.7 103.3 -28.75 102.95 -28.65 101.4 -28.5 99.9 -28.4 97 -28.5 94.15 -28.6 89.85 -29.1 88.8 -29.25 87.6 -29.45 86.45 -29.6 85.6 -29.8 84.8 -29.95 84.9 -30.15 84.1 -30.45 82.95 -30.9 81.8 -31.35 80.35 -31.95
L 78.95 -32.45
Q 78.8 -32.55 78.6 -32.6 78.4 -32.7 78.5 -32.7
L 77.35 -33.1
Q 75.2 -33.9 73.15 -34.6 69.05 -36.05 65.8 -37 64.3 -37.45 61.7 -38.15 59.1 -38.75 55.8 -39.45 52.4 -40.15 48.65 -40.7 44.9 -41.3 41.05 -41.65 35.75 -42.2 30.25 -42.4
M 63.2 -32.7
Q 65.45 -32.05 67.5 -31.45 69.55 -30.8 71.55 -30.2 73.5 -29.55 75.45 -28.9
L 77.4 -28.3
Q 77.45 -28.25 77.8 -28.15 78.2 -28.05 78.45 -27.95 83.7 -26.25 85.9 -26 88.65 -25.8 91.25 -25.7 93.85 -25.65 96.15 -25.75 94.1 -24 91.55 -22.4 89.05 -20.8 86.2 -19.4 85.15 -18.9 84.6 -18.45 84.05 -18 83.5 -17.55 83 -17.1 82 -16.75 80.85 -16.15 79.4 -15.7 77.95 -15.25 76.35 -14.9 78.55 -13.5 80.65 -12.3 82.7 -11.15 84.25 -10.25 86.6 -9.3 89.25 -8.55 91.85 -7.75 94.45 -7.1 98 -6.2 101.35 -5.7 104.7 -5.2 108.3 -5.1 111.85 -5 115.95 -5.45 111.9 -2 107.6 0.9 103.35 3.75 98.55 6.05 93.8 8.3 88.35 10 84.4 11.55 80.15 12.25 75.95 13.05 71.6 13.3 67.25 13.65 63 13.75 58.75 13.9 54.8 14.2 59.85 16.45 64.9 18.8 67.8 20.05 70.75 21.2 73.65 22.35 76.9 23.25 81.6 24.45 85.75 25.15 89.95 25.9 94.05 26.25 98.2 26.6 102.75 26.65 93.95 29.6 85 31.2 81.7 31.75 78.25 32 74.75 32.2 71.35 32.2 67.95 32.1 64.95 32 62.45 31.85 60.4 31.75 58.35 31.6 56.6 31.6 52.8 31.5 49.35 31.6 47.15 31.7 45.15 31.95 43.2 32.2 41.25 32.55 39.35 32.9 37.25 33.3 29.05 34.95 20.5 37.65 11.95 40.3 3.25 43.7 -5.5 47.15 -14.2 51.05 -20.55 7.7 -27 -35.65 -15.95 -36.95 -4.6 -37.8 6.75 -38.6 18.7 -38.45 30.65 -38.3 43.45 -36.7 48.2 -36.1 53.3 -35.05 58.4 -34.1 63.2 -32.7 Z"/>
</g>

<g id="RD_Neck_0_Layer0_0_FILL">
<path fill="#F4B6D1" stroke="none" d="
M -8.5 -95
L -9.05 -95.1 -9.05 -95.05 -8.5 -95
M 17.15 -95.1
L 17.65 -95.1 17.65 -95.15 17.15 -95.1 Z"/>

<path fill="#9EDBF8" stroke="none" d="
M 17.1 -93.6
L 17.15 -95.1 17.65 -95.15
Q 17.35 -105.8 4.4 -107.35 -8.35 -106.95 -9.05 -95.1
L -8.5 -95 -8.6 -93.5
Q -9 -84.8 -14.05 -36.5 -15 -27.3 -15.7 -19.6
L -15.8 -18.7 -15.8 -18.65 -15.85 -18.1
Q -16.3 -13.5 -18.2 -8 -18.39453125 -5.665625 -1.15 -0.05 24.5900390625 -5.5109375 24.5 -7.4 22.65 -12.8 22.35 -17.25
L 22.35 -17.4 22.25 -18.75
Q 21.65 -26.9 20.8 -36.7 16.9 -82.4 17.1 -93.6 Z"/>

<path fill="#6DABDD" stroke="none" d="
M 4.65 -109.35
Q 4.55 -109.35 4.5 -109.35 -10.35 -108.95 -11.05 -95.15
L -11.5 -95.15 -11.6 -93.65
Q -12 -85 -17.05 -36.8 -18 -27.6 -18.7 -19.85
L -18.85 -18.4
Q -18.85 -18.35 -18.85 -18.25 -19.3 -13.65 -18.2 -8 -16.3 -13.5 -15.85 -18.1
L -15.8 -18.65 -15.8 -18.7 -15.7 -19.6
Q -15 -27.3 -14.05 -36.5 -9 -84.8 -8.6 -93.5
L -8.5 -95 -9.05 -95.05 -9.05 -95.1
Q -8.35 -106.95 4.4 -107.35 17.35 -105.8 17.65 -95.15
L 17.65 -95.1 17.15 -95.1 17.1 -93.6
Q 16.9 -82.4 20.8 -36.7 21.65 -26.9 22.25 -18.75
L 22.35 -17.4 22.35 -17.25
Q 22.65 -12.8 24.5 -7.4 25.65 -12.95 25.35 -17.35 25.35 -17.4 25.35 -17.45
L 25.25 -18.95
Q 24.65 -27.1 23.8 -36.95 19.9 -82.4 20.1 -93.55
L 20.15 -95.05 19.65 -95.05
Q 19.55 -107.6 4.65 -109.35 Z"/>
</g>

<g id="Wingcycle_11_Layer9_0_FILL">
<path fill="#6DABDD" stroke="none" d="
M 30.25 -29.45
L 30.3 -29.45
Q 15.1015625 -27.3708984375 -1.15 -0.1 -0.311328125 1.6189453125 0.55 3.45 1.418359375 5.2779296875 2.25 7.15 11.0265625 0.81015625 21.05 -2.8
L 21.05 -2.8
Q 28.2046875 -5.4453125 33.5 -8.5 36.6455078125 -10.3330078125 38.9 -12.35
L 38.85 -12.35
Q 45.1744140625 -17.6716796875 42.05 -26.65 41.9322265625 -27.054296875 41.6 -27.35 37.515234375 -30.7193359375 30.25 -29.45 Z"/>
</g>

<g id="Wingcycle_11_Layer8_0_FILL">
<path fill="#6DABDD" stroke="none" d="
M 65.5 -72.9
Q 65.25703125 -73.20390625 64.9 -73.35 53.7279296875 -77.9654296875 35.95 -63.7
L 35.95 -63.7 35.95 -63.7
Q 16.7103515625 -48.6904296875 -2.85 -3.35 -1.237109375 -0.342578125 0.4 3.15 26.175390625 -26.3072265625 50.55 -45 50.5986328125 -45.0375 50.6 -45.1 72.92265625 -64.3373046875 65.5 -72.9 Z"/>
</g>

<g id="Wingcycle_11_Layer7_0_FILL">
<path fill="#6DABDD" stroke="none" d="
M 65.6 -118
Q 63.9552734375 -119.95234375 60.3 -120 60.2416015625 -120.0048828125 60.15 -120 37.31171875 -117.9330078125 20.1 -77
L 20.1 -77
Q 17.9115234375 -71.8134765625 15.95 -66.45 1.8974609375 -28.051953125 -4.8 -6.85 -2.945703125 -3.68046875 -1.05 0.2 24.4908203125 -46.288671875 44.35 -71.3 54.759375 -84.638671875 60.2 -94.5 66.8857421875 -106.4541015625 67.2 -112.5 67.415234375 -116.165625 65.6 -118 Z"/>
</g>

<g id="Wingcycle_11_Layer6_0_FILL">
<path fill="#6DABDD" stroke="none" d="
M 28.65 -125.95
Q 28.6267578125 -125.9123046875 28.6 -125.9 25.745703125 -125.2189453125 22.2 -123.05 22.1388671875 -122.9787109375 22.05 -122.95 1.328125 -106.7693359375 -2.6 -65.7 -2.9484375 -62.087109375 -3.15 -58.4 -5.2654296875 -30.5916015625 -6.4 -9.65 -4.962109375 -7.41015625 -2.6 -2.85 3.158984375 -15.471484375 9.4 -34.7 12.025 -42.4125 14.6 -49.9
L 14.6 -49.95
Q 18.60078125 -61.6419921875 22.7 -70.85
L 22.7 -70.85
Q 28.706640625 -84.6703125 32.2 -95.45
L 32.2 -95.45
Q 35.6857421875 -106.4763671875 36.5 -114
L 36.5 -114.05
Q 37.0751953125 -120.5455078125 35.3 -123.4 33.34609375 -126.91015625 28.65 -125.95 Z"/>
</g>

<g id="Wingcycle_11_Layer5_0_FILL">
<path fill="#9EDBF8" stroke="none" d="
M 39.3 -25.2
Q 36.1294921875 -27.4109375 30.75 -26.5
L 30.7 -26.45
Q 16.291796875 -24.1154296875 0.4 3.15 0.4837890625 3.309375 0.55 3.45 0.769921875 3.9130859375 1 4.35 9.9013671875 -1.94296875 20 -5.65 26.8494140625 -8.1205078125 31.9 -11.1
L 31.9 -11.1
Q 34.7859375 -12.7486328125 36.85 -14.55 41.415625 -18.575 39.3 -25.2 Z"/>
</g>

<g id="Wingcycle_11_Layer4_0_FILL">
<path fill="#9EDBF8" stroke="none" d="
M 48.6 -47.35
Q 48.6365234375 -47.363671875 48.65 -47.4 67.74765625 -63.9033203125 63.3 -70.75 53.5142578125 -73.9529296875 37.9 -61.4 18.653125 -46.228515625 -1.05 0.1 -1.0376953125 0.1494140625 -1.05 0.15
L -1 0.15
Q 24.46328125 -28.7896484375 48.6 -47.35 Z"/>
</g>

<g id="Wingcycle_11_Layer3_0_FILL">
<path fill="#9EDBF8" stroke="none" d="
M 64.1 -112.65
Q 64.256640625 -114.8564453125 63.3 -116 62.32109375 -116.97734375 60.25 -117 39.172265625 -114.476953125 22.95 -75.85 20.8103515625 -70.7482421875 18.85 -65.45 3.8544921875 -24.465625 -2.75 -3.15
L -2.75 -3.15
Q 22.3234375 -48.4890625 41.9 -73.1
L 41.9 -73.1 41.95 -73.1
Q 52.1755859375 -86.20390625 57.5 -95.9 63.744921875 -107.046484375 64.1 -112.65 Z"/>
</g>

<g id="Wingcycle_11_Layer2_0_FILL">
<path fill="#9EDBF8" stroke="none" d="
M 29.25 -123.05
Q 26.8923828125 -122.4193359375 23.95 -120.6 4.2189453125 -104.9123046875 0.45 -65.45 0.139453125 -61.8552734375 -0.1 -58.2
L -0.1 -58.2
Q -1.040234375 -45.6509765625 -1.95 -34.75 -4.1201171875 -20.712890625 -6.25 -9.35 -4.94453125 -6.4666015625 -3.2 -4.05 -2.7681640625 -6.19609375 -2.35 -8.5 -1.87421875 -10.8861328125 -1.45 -13.45 2.4234375 -23.094140625 6.5 -35.6 9.076171875 -43.3244140625 11.65 -50.9 15.737109375 -62.6826171875 19.9 -72.05 25.83828125 -85.6275390625 29.25 -96.3 32.639453125 -106.9900390625 33.4 -114.3 33.89296875 -119.6076171875 32.6 -121.95 31.610546875 -123.499609375 29.3 -123.05 29.299609375 -123.0390625 29.25 -123.05 Z"/>
</g>

<g id="Wingcycle_11_Layer1_0_FILL">
<path fill="#9EDBF8" stroke="none" d="
M 28.3 -95.8
Q 28.3 -97.3 26.85 -97.3 25.85 -97.3 19.6 -73.75 15.45 -64.3 14.1 -60.75 13.25 -58.5 12 -53.45 11 -49.3 9.9 -47.25 7.75 -43.2 3.8 -31.9 0.1 -21.35 0.1 -20.25 0.1 -18.6 -1.9 -14.2 -3.95 -9.85 -3.95 -8.9 -4.27421875 -7.571484375 -4.55 -6.45 -2.2529296875 -1.6931640625 -0.7 1.25 0.9130859375 4.2314453125 2.05 6.65 8.8392578125 -0.9080078125 8.65 -3.15 8.503515625 -5.3974609375 8.25 -5.1
L 7.6 -4.6
Q 8.4603515625 -5.766015625 9.4 -7.15 9.95 -7.75 15.2 -13.7 20.25 -19.5 20.25 -20.35 20.35 -22.3 18.75 -22.3 18.55 -22.3 7.75 -10.7 5.0634765625 -7.803125 3.05 -5.6 3.1455078125 -5.9103515625 3.25 -6.25 6.2 -16.05 10.25 -22.25 24.55 -44.2 24.55 -45.4 24.462109375 -46.367578125 23.95 -46.8 24.449609375 -47.169921875 25.1 -47.7 27.95 -50 27.95 -50.6 27.85 -51.85 26.55 -51.85 24.35 -51.85 24.1 -50.9 24.2 -49.75 23.9 -49.4 21.25 -47.15 21.25 -46.6 21.25 -46.314453125 21.25 -46.15 19.003125 -44.164453125 15.15 -37.8 9.2 -27.3 7.7 -24.7 5.4681640625 -21.28515625 3.8 -18.7 3.998046875 -22.9880859375 13.7 -49.35 23.6 -76.3 23.6 -77.15 23.6 -79.7 28.3 -95.8 Z"/>
</g>

<g id="Wingcycle_11_Layer0_0_FILL">
<path fill="#6DABDD" stroke="none" d="
M 5.25 -9.5
L 4.7 -10.4 5.2 -9.5 5.25 -9.5
M 9.55 -71.25
L 9.4 -71.4 9.15 -71.45
Q 3.9486328125 -72.98203125 0.65 -67.75 -2.204296875 -63.183203125 -3.4 -52.8 -3.453125 -52.2853515625 -3.15 -51.9 -2.807421875 -51.4642578125 -2.3 -51.4 -1.7845703125 -51.346484375 -1.4 -51.7 -0.9646484375 -51.991796875 -0.9 -52.5 0.204296875 -62.166796875 2.8 -66.45 4.92890625 -69.8515625 8.2 -69.1 15.521875 -62.8392578125 8.2 -30.85
L 10 -34
Q 19.5623046875 -51.4376953125 26.45 -50.3 26.87265625 -50.1162109375 27.2 -49.9
L 27.15 -49.95
Q 30.4787109375 -47.2796875 29.45 -40.05 27.443359375 -31.4869140625 20.15 -23.8
L 20.15 -23.85
Q 13.5275390625 -17.1025390625 5.25 -9.5
L 8.55 -11.1
Q 8.600390625 -11.099609375 8.65 -11.15 13.632421875 -13.530859375 16.85 -13.5 19.6107421875 -13.4236328125 20.85 -11.2 22.0498046875 -8.83125 19.55 -6.4 16.44140625 -3.3947265625 8.55 -0.35 8.0634765625 -0.1296875 7.85 0.35 7.638671875 0.822265625 7.8 1.3 8.0197265625 1.7859375 8.5 2 8.9728515625 2.2107421875 9.45 2 17.9583984375 -1.3052734375 21.3 -4.65 25.3013671875 -8.5205078125 23.05 -12.4 21.1388671875 -15.8265625 16.9 -16 16.1349609375 -16.00546875 15.25 -15.9 18.5458984375 -18.6212890625 21.95 -22.1
L 21.95 -22.1
Q 29.813671875 -30.3681640625 31.9 -39.6
L 31.9 -39.65 31.95 -39.7
Q 33.221484375 -48.72265625 28.65 -51.95
L 28.6 -52
Q 28.071484375 -52.3548828125 27.4 -52.65
L 27.15 -52.75
Q 20.443359375 -54.5111328125 12.25 -42.6 17.50390625 -65.4443359375 9.55 -71.25 Z"/>
</g>

<g id="RD_Skull_2_Layer0_0_FILL">
<path fill="#6DABDD" stroke="none" d="
M 6.5 -52
Q 3.8232421875 -52.20390625 0.9 -52.25 -3.4978515625 -52.3205078125 -7.7 -51.65 -12.3541015625 -50.8947265625 -16.75 -49.2 -18.8431640625 -48.379296875 -20.75 -47.4 -26.1625 -44.578125 -30.1 -40.4 -30.1439453125 -40.3251953125 -30.25 -40.25 -30.637890625 -39.783203125 -31.05 -39.3 -31.219921875 -39.1001953125 -31.4 -38.9 -31.4419921875 -38.85 -31.5 -38.8 -32.3697265625 -37.730078125 -33.2 -36.65 -46.1 -20.0744140625 -46.1 -1.1 -46.1 11.3 -43.4 20.4 -40.6 29.75 -34.65 36.5 -27.65 44.55 -18.5 48.75 -9.25 53.05 1.5 53.05 22.65 53.05 37 36.5 42.8 29.9 45.45 20.1 47.85 11.1 47.9 -1.7 47.8548828125 -21.3345703125 36.05 -36.65 35.2205078125 -37.7357421875 34.3 -38.8 34.2921875 -38.8501953125 34.25 -38.9 33.8369140625 -39.4025390625 33.4 -39.9 33.247265625 -40.076171875 33.1 -40.25 33.019921875 -40.3251953125 32.95 -40.4 29.2015625 -44.5505859375 24.15 -47.25 20.981640625 -48.9029296875 17.3 -50 13.7369140625 -51.0845703125 9.45 -51.65 8.0302734375 -51.842578125 6.5 -52
M 30.35 -38.8
Q 30.7716796875 -38.38359375 31.15 -37.95 31.7154296875 -37.3041015625 32.25 -36.65 44.8521484375 -21.4498046875 44.9 -1.7 44.85 10.45 42.6 18.95 40.15 28.25 34.75 34.55 21.25 50.05 1.5 50.05 -8.55 50.05 -17.25 46.05 -25.8 42.1 -32.4 34.55 -38 28.1 -40.6 19.25 -43.1 10.65 -43.1 -1.1 -43.1 -20.5748046875 -29.4 -36.65 -29.10546875 -37.00078125 -28.8 -37.35 -28.15 -38.0984375 -27.5 -38.8 -27.4234375 -38.8501953125 -27.4 -38.9 -26.6900390625 -39.5982421875 -26 -40.25 -25.883984375 -40.325390625 -25.8 -40.4 -23.431640625 -42.5267578125 -20.75 -44.15 -17.675390625 -45.96484375 -14.2 -47.15 -7.25 -49.55 0.9 -49.25 10.95 -48.85 16.65 -47.2 20.4560546875 -46.0625 23.7 -44.15 26.42265625 -42.547265625 28.75 -40.4 28.8318359375 -40.325390625 28.9 -40.25 29.6146484375 -39.5994140625 30.25 -38.9 30.3234375 -38.85 30.35 -38.8 Z"/>

<path fill="#9EDBF8" stroke="none" d="
M 31.15 -37.95
Q 30.7716796875 -38.38359375 30.35 -38.8 30.3234375 -38.85 30.25 -38.9 29.6146484375 -39.5994140625 28.9 -40.25 28.8318359375 -40.325390625 28.75 -40.4 26.42265625 -42.547265625 23.7 -44.15 20.4560546875 -46.0625 16.65 -47.2 10.95 -48.85 0.9 -49.25 -7.25 -49.55 -14.2 -47.15 -17.675390625 -45.96484375 -20.75 -44.15 -23.431640625 -42.5267578125 -25.8 -40.4 -25.883984375 -40.325390625 -26 -40.25 -26.6900390625 -39.5982421875 -27.4 -38.9 -27.4234375 -38.8501953125 -27.5 -38.8 -28.15 -38.0984375 -28.8 -37.35 -29.10546875 -37.00078125 -29.4 -36.65 -43.1 -20.5748046875 -43.1 -1.1 -43.1 10.65 -40.6 19.25 -38 28.1 -32.4 34.55 -25.8 42.1 -17.25 46.05 -8.55 50.05 1.5 50.05 21.25 50.05 34.75 34.55 40.15 28.25 42.6 18.95 44.85 10.45 44.9 -1.7 44.8521484375 -21.4498046875 32.25 -36.65 31.7154296875 -37.3041015625 31.15 -37.95 Z"/>
</g>

<g id="RD_Mouth_front_chin__offcenter_0_Layer1_0_FILL">
<path fill="#9EDBF8" stroke="none" d="
M 37 3
Q 35.4482421875 1.9125 32.5 3.5 11.965625 12.7740234375 -7.2 2.65 -15.0669921875 10.61171875 -30.45 4.2 -34.428515625 2.26328125 -35.1 3.05 -26.379296875 13.5955078125 -14.6 17.85 3.9671875 24.438671875 20.35 16.8 31.5595703125 11.51484375 37 3 Z"/>
</g>

<g id="RD_Hair_07_9_Layer0_0_FILL">
<path fill="#FDF6AE" stroke="none" d="
M 8.55 -0.95
Q 6.398046875 -3.252734375 4 -5.7 1.6525390625 -8.1046875 -7.5 -14.6 -5.7623046875 -3.8810546875 -4.15 6 -0.330078125 1.0494140625 6.3 1.75 10.7513671875 1.3603515625 8.55 -0.95 Z"/>

<path fill="#1E98D5" stroke="none" d="
M 4 -5.7
Q 6.398046875 -3.252734375 8.55 -0.95 10.7513671875 1.3603515625 6.3 1.75 -0.330078125 1.0494140625 -4.15 6 -5.039453125 10.891015625 -3.65 9.65 -0.7775390625 5.3033203125 8.1 3.55 16.9814453125 1.8451171875 3.45 -9.7
L -5.35 -16.3
Q -9.184765625 -17.27734375 -7.5 -14.6 1.6525390625 -8.1046875 4 -5.7 Z"/>
</g>

<g id="RD_Ear_1_Layer1_0_FILL">
<path fill="#9EDBF8" stroke="none" d="
M 2.45 -35.95
Q 0.95 -33.9 0 -30.55 -0.8 -27.75 -2.05 -18.8
L -3.15 -10.35
Q -3.116796875 -10.236328125 -3.1 -10.15 2.44375 8.682421875 9.05 22.35 14.6 19.45 17.75 9.75 20.45 1.45 20.2 -4.95
L 20.2 -5
Q 19.9 -11.55 18.15 -17.5 16.5 -23.1 13.2 -29.1 8.85 -37.1 4.4 -37.75 3.55 -37.55 2.45 -35.95
M 9.35 -27.8
Q 14.55 -18.3 14.7 -10.15 14.8462890625 -2.0525390625 9.8 6.35 9.6794921875 6.5888671875 9.55 6.8
L 9.7 6.35
Q 15.65 -8.15 9.35 -27.8 Z"/>

<path fill="#6DABDD" stroke="none" d="
M 14.7 -10.15
Q 14.55 -18.3 9.35 -27.8 15.65 -8.15 9.7 6.35
L 9.55 6.8
Q 9.6794921875 6.5888671875 9.8 6.35 14.8462890625 -2.0525390625 14.7 -10.15
M 15.85 -30.55
Q 13 -35.75 9.45 -38.55 6.65 -40.8 4.65 -40.75
L 4.6 -40.75
Q 2.85 -41.05 0.95 -38.85 -1.1 -36.45 -2.85 -31.55 -4.3 -27.4 -4.65 -20.95 -5.0384765625 -13.7126953125 -3.3 -10.3
L -3.3 -10.3
Q -3.24765625 -10.1875 -3.2 -10.1
L -3.15 -10.35 -2.05 -18.8
Q -0.8 -27.75 0 -30.55 0.95 -33.9 2.45 -35.95 3.55 -37.55 4.4 -37.75 8.85 -37.1 13.2 -29.1 16.5 -23.1 18.15 -17.5 19.9 -11.55 20.2 -5
L 20.2 -4.95
Q 20.45 1.45 17.75 9.75 14.6 19.45 9.05 22.35
L 9.65 22.5
Q 15.5001953125 20.8228515625 19.5 11.75 23.5525390625 2.6892578125 23.2 -5.1 22.9 -12 21.05 -18.25 19.3 -24.2 15.85 -30.55 Z"/>
</g>

<g id="Mask_Mask_RD2_Eyewhite_3_4_1_Layer1_0_FILL">
<path fill="#FFFFFF" stroke="none" d="
M 19.8 -17.45
Q 18.8931640625 -19.258984375 17.7 -20.7
L 17.7 -20.65
Q 13.5314453125 -24.9595703125 7.3 -25.2 2.1509765625 -25.3900390625 -3.35 -22.8
L -3.35 -22.85
Q -5.1125 -21.846875 -6.85 -20.55 -8.8 -18.75 -10.55 -16.85 -12.1 -15.2 -13.4 -13.35 -14.85 -11.3 -16.1 -9.2 -17.35 -7 -18.45 -4.7 -19 -3.6 -19.55 -2.4 -20.067578125 -0.894921875 -20.5 0.65 -23.4314453125 11.3853515625 -19.45 19.15 -15.521484375 26.9826171875 -7.05 27.3 -6.3294921875 27.3373046875 -5.65 27.3 2.151171875 27.0375 9.6 20.25 16.1873046875 14.3169921875 19.35 6.15 20.1560546875 4.2439453125 20.75 2.2 22.1896484375 -3.109765625 21.95 -7.7 21.83984375 -13.462890625 19.8 -17.45 Z"/>
</g>

<g id="RD2_Eyewhite_3_4_1_Layer1_0_FILL">
<path fill="#FFFFFF" stroke="none" d="
M 19.8 -17.45
Q 18.8931640625 -19.258984375 17.7 -20.7
L 17.7 -20.65
Q 13.5314453125 -24.9595703125 7.3 -25.2 2.1509765625 -25.3900390625 -3.35 -22.8
L -3.35 -22.85
Q -5.1125 -21.846875 -6.85 -20.55 -8.8 -18.75 -10.55 -16.85 -12.1 -15.2 -13.4 -13.35 -14.85 -11.3 -16.1 -9.2 -17.35 -7 -18.45 -4.7 -19 -3.6 -19.55 -2.4 -20.067578125 -0.894921875 -20.5 0.65 -23.4314453125 11.3853515625 -19.45 19.15 -15.521484375 26.9826171875 -7.05 27.3 -6.3294921875 27.3373046875 -5.65 27.3 2.151171875 27.0375 9.6 20.25 16.1873046875 14.3169921875 19.35 6.15 20.1560546875 4.2439453125 20.75 2.2 22.1896484375 -3.109765625 21.95 -7.7 21.83984375 -13.462890625 19.8 -17.45 Z"/>
</g>

<g id="RD2_Iris_0_Layer2_0_FILL">
<path fill="url(#Gradient_1)" stroke="none" d="
M 17.7 -13.05
Q 13.45 -21.1 5.25 -22.95 -3 -24.85 -10.3 -19.4 -17.6 -14 -19.75 -4.45 -21.95 5.05 -17.7 13.1 -13.45 21.15 -5.2 23 3 24.85 10.3 19.45 17.6 14 19.8 4.5 21.95 -5 17.7 -13.05 Z"/>
</g>

<g id="RD2_Iris_0_Layer1_0_FILL">
<path fill="#FFB8E0" stroke="none" d="
M -6.5 7.8
Q -17.7408203125 11.0453125 -18.7 11 -17.71953125 13.7845703125 -15.6 16.55
L 0.15 6.6 -6.5 7.8 Z"/>
</g>

<g id="RD2_Iris_0_Layer0_0_FILL">
<path fill="#DB53A2" stroke="none" d="
M -20.2 5.15
Q -19.7849609375 8.212109375 -18.65 11.05
L 0.45 6.45 -20.2 5.15 Z"/>
</g>

<g id="RD2_Pupil_0_Layer0_0_FILL">
<path fill="#000000" stroke="none" d="
M 12.45 -9.6
Q 10.5203125 -15.9396484375 5.5 -17.45 0.487109375 -18.9677734375 -4.7 -14.75 -9.854296875 -10.4658203125 -12.15 -2.95 -14.402734375 4.56015625 -12.5 10.9 -10.484375 17.37421875 -5.45 18.9 -0.4265625 20.40234375 4.7 16.1 9.91484375 11.9001953125 12.15 4.4 14.43828125 -3.12578125 12.45 -9.6 Z"/>
</g>

<g id="RD2_Hilights_0_Layer1_0_FILL">
<path fill="#FFFFFF" stroke="none" d="
M -8.15 11.5
Q -8.11953125 11.614453125 -8.1 11.7 -8.0240234375 11.8134765625 -7.95 11.95 -7.7912109375 12.381640625 -7.55 12.75 -7.4705078125 12.844140625 -7.4 12.9 -7.2078125 13.113671875 -6.95 13.3 -6.50546875 13.6888671875 -6.05 13.8 -5.996875 13.8515625 -5.95 13.85 -5.6171875 13.9560546875 -5.2 13.95 -3.9484375 13.97890625 -3.4 12.75 -3.3849609375 12.698046875 -3.4 12.65 -3.1736328125 12.1291015625 -3.25 11.35 -3.259765625 11.128515625 -3.35 10.85 -3.3462890625 10.7740234375 -3.4 10.7 -3.7330078125 9.7962890625 -4.4 9.15 -4.435546875 9.108203125 -4.5 9.05 -4.72890625 8.870703125 -4.9 8.75 -5.579296875 8.305859375 -6.3 8.4 -7.123828125 8.352734375 -7.65 8.9 -7.813671875 9.0921875 -8 9.35 -8.0568359375 9.446484375 -8.1 9.55 -8.510546875 10.357421875 -8.15 11.5
M 3.85 -8.7
L 3.8 -8.75
Q 1.3921875 -11.8771484375 -1.15 -11.7 -4.233984375 -11.8736328125 -5.6 -8.2
L -5.6 -8.15
Q -6.528125 -5.45625 -5.75 -1.6 -5.0052734375 2.07265625 -3.05 4.6
L -3.05 4.6
Q -0.6041015625 7.82109375 2 7.65 5.12890625 7.837890625 6.4 4 7.375390625 1.40078125 6.6 -2.4
L 6.6 -2.45
Q 5.8041015625 -6.1376953125 3.85 -8.7 Z"/>
</g>

<g id="RD2_Iris_2_Layer2_0_FILL">
<path fill="url(#Gradient_1)" stroke="none" d="
M 17.7 -13.05
Q 13.45 -21.1 5.25 -22.95 -3 -24.85 -10.3 -19.4 -17.6 -14 -19.75 -4.45 -21.95 5.05 -17.7 13.1 -13.45 21.15 -5.2 23 3 24.85 10.3 19.45 17.6 14 19.8 4.5 21.95 -5 17.7 -13.05 Z"/>
</g>

<g id="RD2_Iris_2_Layer1_0_FILL">
<path fill="#FFB8E0" stroke="none" d="
M 13.45 16.85
Q 16.0119140625 13.9716796875 17.35 11.1 16.4345703125 11.1580078125 5.55 8.1
L -0.15 6.5 13.45 16.85 Z"/>
</g>

<g id="RD2_Iris_2_Layer0_0_FILL">
<path fill="#DB53A2" stroke="none" d="
M 17.35 11.4
Q 18.9265625 8.2283203125 19.75 5.1 9.7240234375 5.888671875 -0.25 6.5
L 17.35 11.4 Z"/>
</g>

<g id="RD2_Blink_front_0_Layer2_0_FILL">
<path fill="#000000" stroke="none" d="
M 21.9 -5.65
L 23.1 -7.3
Q 23.1501953125 -11.0392578125 22.05 -14.9 21.50234375 -16.8623046875 18.45 -20.35 15.1640625 -24.176953125 10.6 -25 1.2861328125 -26.751171875 -7.55 -20.4 -11.2509765625 -17.658984375 -14.3 -13.75 -17.4216796875 -9.651953125 -19.9 -2.9 -20.3908203125 -1.584375 -20.65 -0.25 -21.45 3.05 -21.55 5.3 -22.05 12.45 -21.05 15.3 -20.5654296875 16.36484375 -20.6 16.05 -21.7583984375 11.3294921875 -18.4 -0.35
L -17.55 -3
Q -15.6931640625 -8.214453125 -12.6 -12.2 -9.701171875 -15.798828125 -7.15 -17.95 8.8515625 -29.4330078125 18.45 -16.6 21.2458984375 -12.47421875 21.9 -5.65 Z"/>
</g>

<g id="RD2_Blink_front_0_Layer1_0_FILL">
<path fill="#000000" stroke="none" d="
M 34.5 -5.75
Q 34.45 -6.95 22.25 -8.95
L 22.65 -6.8
Q 34.55 -4.55 34.5 -5.75 Z"/>
</g>

<g id="RD2_Blink_front_0_Layer1_1_FILL">
<path fill="#000000" stroke="none" d="
M 21 -16.15
L 21.9 -14.05
Q 36.65 -16.1 36.25 -17.25 36.05 -17.8 29.15 -17.1 21.9 -16.25 21 -16.15 Z"/>
</g>

<g id="RD2_Blink_front_0_Layer1_2_FILL">
<path fill="#000000" stroke="none" d="
M 18.2 -19.05
Q 28 -25.85 26.8 -26.7 26 -27.15 16.95 -21.2
L 18.2 -19.05 Z"/>
</g>

<g id="RD2_Blink_front_100_Layer2_0_FILL">
<path fill="#000000" stroke="none" d="
M 21.9 -5.65
L 23.1 -7.3
Q 23.1501953125 -11.0392578125 22.05 -14.9 21.50234375 -16.8623046875 18.45 -20.35 15.1640625 -24.176953125 10.6 -25 1.2861328125 -26.751171875 -7.55 -20.4 -11.2509765625 -17.658984375 -14.3 -13.75 -17.4216796875 -9.651953125 -19.9 -2.9 -20.3908203125 -1.584375 -20.65 -0.25 -21.203125 2.1416015625 -21.4 5.3 -21.922265625 12.8583984375 -21.05 15.3 -20.5654296875 16.36484375 -20.6 16.05 -21.7583984375 11.3294921875 -18.4 -0.35
L -17.55 -3
Q -15.6931640625 -8.214453125 -12.6 -12.2 -9.701171875 -15.798828125 -7.15 -17.95 8.8515625 -29.4330078125 18.45 -16.6 21.2458984375 -12.47421875 21.9 -5.65 Z"/>
</g>

<g id="RD_Brow_front_1_Layer2_0_FILL">
<path fill="#9EDBF8" stroke="none" d="
M 3.1 -1.5
Q 8.665625 -11.21171875 2.1 -17.25 1.5234375 -21.40078125 -9.4 -25.45 -20.3255859375 -29.4990234375 -34.15 -13.7 -40.514453125 0.240625 -34.85 -1.55 -21.6294921875 -0.3052734375 -6.05 -1.7 -6.0109375 -1.5755859375 -6 -1.5
L 3.1 -1.5 Z"/>
</g>

<g id="RD_Lashes_02_6_Layer0_0_FILL">
<path fill="#000000" stroke="none" d="
M -0.05 5.95
L -0.3 8
Q 8.85 9.6 9.15 8.4 9.35 7.3 -0.05 5.95 Z"/>
</g>

<g id="RD_Lashes_02_6_Layer0_1_FILL">
<path fill="#000000" stroke="none" d="
M 0.25 1.75
L 0.15 3.95
Q 11.25 3.35 11.4 2.2 11.45 1.6 6.35 1.65 0.9 1.75 0.25 1.75 Z"/>
</g>

<g id="RD_Lashes_02_6_Layer0_2_FILL">
<path fill="#000000" stroke="none" d="
M 10.65 -2.75
Q 10.562890625 -3.4384765625 0.55 -2.3 -5.8814453125 -1.6576171875 -0.3 -0.1 10.7623046875 -1.566796875 10.65 -2.75 Z"/>
</g>

<g id="RD_Brow_front_1_Layer0_0_FILL">
<path fill="#000000" stroke="none" d="
M -1.1 -2
Q -3 -1.9 -15.25 -1.75 -27.6 -1.6 -30.8 -2.15 -33.65 -3.3 -33.95 -7.2
L -34 -7.2
Q -34.8 -5.2 -34.3 -2.85 -33.85 -0.55 -32.25 -0.25 -30.45 0.05 -16.45 0.3 -1.9 0.5 1 0.1 1.05 0.05 1.15 0.05 4.85 -1.3 1.05 -2.1 0.8 -2.15 -1.1 -2 Z"/>
</g>

<g id="RD_Mouth_front_hole__0_Layer4_0_FILL">
<path fill="#6DABDD" stroke="none" d="
M 10.3 3.5
L 10.25 3.45 10.25 3.5
Q 9.644140625 7.4646484375 7.15 10.1 4.3 13.15 0.05 13.2 -4.35 13.1 -6.7 10.4 -9.45 7.1 -10.5 2.9
L -10.55 2.85 -10.5 3.35
Q -10.9 7.8 -7.75 11.55 -7.5890625 11.7296875 -7.45 11.9 -4.50859375 14.9052734375 -0.25 15 4.7 15.05 7.55 12.05 10.4 8.95 10.3 3.5 Z"/>
</g>

<g id="RD_Mouth_front_nostril__0_Layer2_0_FILL">
<path fill="#6DABDD" stroke="none" d="
M -7.35 3.35
Q -6.7 5.05 -3.5 4.15 -5.65 3.2 -6 2.3 -6.5 1.25 -6.2 -0.15 -8 1.9 -7.35 3.35
M 4.05 4
Q 6.9 4.85 7.7 3.2 8.4 1.6 6.75 -0.3 7 1.05 6.55 2.1 6.15 3.1 4.05 4 Z"/>
</g>

<g id="RD_Cheek_0_Layer1_0_FILL">
<path fill="#9EDBF8" stroke="none" d="
M -13.65 -3.75
Q -16.0267578125 -3.7431640625 -18.3 -3.7 -20.0263671875 -3.6904296875 -20.9 -3.8 -21.223046875 -3.733984375 -21.55 -3.7
L -20.55 -1.2
Q -20.5072265625 -1.092578125 -20.45 -1
L -18 5.3
Q -0.6107421875 15.3609375 11.3 8.45 14.9248046875 5.441796875 14.75 2.15 13.9091796875 2.18671875 12.85 2 11.7677734375 1.863671875 10.45 1.45 9.4078125 1.183203125 8.2 0.75 -4.2572265625 -4.6009765625 -13.65 -3.75 Z"/>

<path fill="#6DABDD" stroke="none" d="
M -18.3 -3.7
Q -16.0267578125 -3.7431640625 -13.65 -3.75 -4.2572265625 -4.6009765625 8.2 0.75 9.4078125 1.183203125 10.45 1.45 11.7677734375 1.863671875 12.85 2 13.9091796875 2.18671875 14.75 2.15 14.90078125 2.1408203125 15.05 2.1 14.90234375 2.0078125 14.75 1.9 14.6515625 1.8080078125 14.55 1.7 13.4794921875 0.9662109375 12.35 0.4 -2.715234375 -6.280859375 -14.1 -5.55 -17.2962890625 -5.154296875 -20.3 -4.9
L -20.35 -4.85
Q -22.91953125 -4.0283203125 -20.9 -3.8 -20.0263671875 -3.6904296875 -18.3 -3.7 Z"/>
</g>

<g id="RD_Cheek_0_Layer0_0_FILL">
<path fill="#6DABDD" stroke="none" d="
M -18 -1.55
L -17.9 -1.35
Q -17.54609375 -1.069921875 -16.4 -0.6
L -16.4 -0.6
Q -13.845703125 0.619140625 -10.8 1.65
L -7.85 2.15
Q -12.6994140625 -0.2359375 -14.55 -1.05 -17.6279296875 -1.697265625 -18 -1.55 Z"/>
</g>

<g id="RD_Wrinkle_0_Layer0_0_FILL">
<path fill="#6DABDD" stroke="none" d="
M 6.4 0.9
Q 6.229296875 0.7560546875 6.05 0.6 3.57890625 -1.2400390625 -0.2 -1.1 -3.897265625 -1.0052734375 -6.15 0.85 -6.28046875 0.943359375 -6.4 1.05
L -6.05 1
Q 0.6 0 5.95 0.8
L 6.4 0.9 Z"/>
</g>

<g id="RD_Hair_01_19_Layer3_0_FILL">
<path fill="#1E98D5" stroke="none" d="
M 16.85 -5.25
L 13.4 -4.25
Q 0.05 -0.65 -11.3 6.2 -12.45 6.95 -13.55 7.65 -33.95 20.75 -47.9 44.55 -48.75 36.35 -47.85 28.1 -43.6 4.45 -32.35 -14.5
L -30.05 -18.1 -30.15 -18.2
Q -43.1 -3.9 -48.55 17.15 -49.9 21.85 -50.55 26.6 -52.2 37.95 -50.3 49.45
L -49.7 53.65 -49.6 53.65 -47.5 49.9
Q -33.35 23.95 -11.95 10.2
L -11.9 10.15
Q 1.5 1.4 12.85 -2.05 14.15 -2.55 15.6 -2.95 21.3 -4.75 27 -6.1 21.95 -6.25 16.85 -5.25
M 35.75 -28.15
Q 36.9 -29.3 35 -31.9 33.3 -33.25 31.65 -34.45 28.95 -36.45 26.4 -38.05 24.1 -39.6 22 -40.8 19.95 -40.2 18.05 -39.6 18.6 -39.25 19.25 -38.95 19.5 -38.8 19.9 -38.6 20 -38.5 20.2 -38.4 22.7 -36.95 25.35 -35.3 28.4 -33.25 31.65 -30.9 33.3 -29.7 35.75 -28.15 Z"/>

<path fill="#F37033" stroke="none" d="
M 19.9 -38.6
Q 19.5 -38.8 19.25 -38.95 18.6 -39.25 18.05 -39.6 -6.9 -52.4 -29.45 -18.95
L -29.5 -18.9
Q -29.551171875 -18.823046875 -29.6 -18.75 -29.7640625 -18.523046875 -29.95 -18.3
L -30.05 -18.1 -32.35 -14.5
Q -43.6 4.45 -47.85 28.1 -48.75 36.35 -47.9 44.55 -33.95 20.75 -13.55 7.65 -12.45 6.95 -11.3 6.2 3.7 -20.85 19.9 -38.6 Z"/>

<path fill="#FDF6AE" stroke="none" d="
M 31.65 -30.9
Q 28.4 -33.25 25.35 -35.3 22.7 -36.95 20.2 -38.4 20 -38.5 19.9 -38.6 3.7 -20.85 -11.3 6.2 0.05 -0.65 13.4 -4.25
L 16.85 -5.25
Q 21.95 -6.25 27 -6.1 28.75 -6.5 30.55 -6.85 32.85 -7.35 35.05 -7.75 37 -11.45 35.7 -13.05
L 35.75 -28.15
Q 33.3 -29.7 31.65 -30.9 Z"/>
</g>

<g id="RD_Hair_01_19_Layer2_0_FILL">
<path fill="#1E98D5" stroke="none" d="
M -34 -5.1
Q -34 -5.1361328125 -33.95 -5.2
L -35.1 -4.5 -34 -5.1
M -48 -2.5
Q -47.35 -3.95 -46.55 -5.4 -40.55 -18.75 -29.55 -28.6 -28.95 -29.1 -28.35 -29.65 -20.6 -36.4 -15.05 -40.2 -12.45 -42.1 -10.3 -43.35
L -5.5 -46.1
Q -9.4 -45.2 -13.6 -42.95 -15.85 -41.75 -19.2 -39.65 -19.3 -39.6 -19.35 -39.6 -41.4 -24.8 -50.7 -4.95 -54.25 2.45 -57.3 21.5 -46.6 6.55 -43.15 3.1 -38.65 -1.15 -34.1 -5 -49.75 5.6 -53.3 10.9 -51.05 3.85 -48 -2.5
M 27.4 -34.7
Q 28.9 -35.05 30.5 -35.35 28.4 -36.75 26.45 -38.1 25.7 -38.6 25 -39.05 23.45 -40 22.05 -40.85 21.85 -40.9 21.75 -41.05
L 21.7 -41
Q 17.4 -43.45 13.25 -45.2
L 4 -45.2
Q 6.6 -44.5 9.35 -43.5 9.95 -43.3 10.55 -43.05 14.25 -41.6 18.1 -39.6 18.1 -39.55 18.15 -39.5
L 19.8 -38.7 19.85 -38.65 27.4 -34.7 Z"/>

<path fill="#F37033" stroke="none" d="
M 19.8 -38.7
L 18.15 -39.5
Q 18.1 -39.55 18.1 -39.6 14.25 -41.6 10.55 -43.05 9.95 -43.3 9.35 -43.5 -18.6 -28.15 -46.55 -5.4 -47.35 -3.95 -48 -2.5 -51.05 3.85 -53.3 10.9 -49.75 5.6 -34.1 -5 -34.05 -5.05 -34 -5.1
L -35.1 -4.5 -33.95 -5.2
Q -34 -5.1361328125 -34 -5.1
L -33.9 -5.2
Q -11.95 -23.85 19.8 -38.7 Z"/>

<path fill="#EE4144" stroke="none" d="
M 9.35 -43.5
Q 6.6 -44.5 4 -45.2 -3.55 -47.1 -5.5 -46.1
L -10.3 -43.35
Q -12.45 -42.1 -15.05 -40.2 -20.6 -36.4 -28.35 -29.65 -28.95 -29.1 -29.55 -28.6 -40.55 -18.75 -46.55 -5.4 -18.6 -28.15 9.35 -43.5 Z"/>
</g>

<g id="RD_Hair_01_19_Layer1_0_FILL">
<path fill="#EE4144" stroke="none" d="
M 3.6 -43.4
Q 8.75 -43.5 8.8 -43.5 3.25 -45.55 -2.25 -46.45 -3.7 -46.65 -5.15 -46.75 -12.9 -47.2 -21.1 -44.55 -30.05 -41.65 -35.9 -36.1 -21.75 -41.1 -10.7 -42.1 -1.6 -43.3 3.6 -43.4 Z"/>

<path fill="#1E98D5" stroke="none" d="
M 22 -40.85
Q 21.85 -40.95 21.7 -41.05 18.6 -42.8 15.65 -44.15 13.95 -44.95 12.35 -45.6 12 -45.75 11.65 -45.9 3.05 -49.25 -5.6 -49.8 -14.25 -50.35 -26.95 -44.6 -39.7 -38.9 -49.25 -27.65 -28.3 -37.55 -12.25 -41.7
L -10.7 -42.1
Q -21.75 -41.1 -35.9 -36.1 -30.05 -41.65 -21.1 -44.55 -12.9 -47.2 -5.15 -46.75 -3.7 -46.65 -2.25 -46.45 3.25 -45.55 8.8 -43.5 11.15 -42.65 13.55 -41.6 13.7 -41.5 13.9 -41.4 18.05 -41.2 21.95 -40.85
L 22 -40.85 Z"/>
</g>

<g id="RD_Hair_01_19_Layer0_0_FILL">
<path fill="#FDF6AE" stroke="none" d="
M 16.95 -5.35
L 15.15 -2.2
Q 11.15 5.05 1.65 12.75 17.3 9.65 30.4 -6.65 30.5 -6.75 30.6 -6.9 31.15 -7.6 31.7 -8.35 33.4 -10.6 35.65 -13.1 24.95 -11.4 16.65 -5.25
L 16.95 -5.35 Z"/>

<path fill="#1E98D5" stroke="none" d="
M 15.15 -2.2
L 16.95 -5.35 16.65 -5.25
Q 14.7 -3.8 12.9 -2.15 7.6 5.5 -3.4 13
L -6.95 15.45 -6.7 16 -2.5 15.75
Q 15.9 15.4 31.7 -3.55 33.45 -5.6 35.15 -7.85 37.1 -11.5 35.75 -13.15
L 35.65 -13.1
Q 33.4 -10.6 31.7 -8.35 31.15 -7.6 30.6 -6.9 30.5 -6.75 30.4 -6.65 17.3 9.65 1.65 12.75 11.15 5.05 15.15 -2.2 Z"/>
</g>

<g id="RD_FrontLeg_3_4_hoof_16_Layer0_0_FILL">
<path fill="#9EDBF8" stroke="none" d="
M 13.5 -14.1
Q 8.6158203125 -21.20703125 1.25 -21.55 -6.066015625 -21.8431640625 -11.7 -15.75 -17.3447265625 -9.60234375 -18.25 -1.05 -19.15 7.5 -14.5 13.9 -9.9 20.35 -2.5 20.85 4.95 21.35 10.8 15.7 16.6 10.1 17.5 1.55 18.39453125 -6.9978515625 13.5 -14.1 Z"/>
</g>

<g id="RD_FrontLeg_3_4_upper_21_Layer1_0_FILL">
<path fill="#9EDBF8" stroke="none" d="
M 19.9 41.4
Q 17.5806640625 23.57890625 3.65 -1.05
L -4.65 -1.05
Q -20.1865234375 21.3873046875 -20.15 41.4
L 19.9 41.4 Z"/>
</g>

<path id="RD_FrontLeg_3_4_hoof_6_Layer0_0_1_STROKES" stroke="#6DABDD" stroke-width="3" stroke-linejoin="round" stroke-linecap="round" fill="none" d="
M -0.925 -17.175
Q 6.8671875 -17.5837890625 12.3 -12.325 17.7197265625 -7.051171875 17.4 1.275 17.0837890625 9.596484375 14.075 14.525 11.0783203125 19.4369140625 0.15 20.85 -10.7796875 22.268359375 -17.1 18.525 -23.42421875 14.7861328125 -21.875 7.425 -20.324609375 0.0544921875 -18.15 -3.975 -15.971875 -8.0099609375 -12.325 -12.4 -8.6921875 -16.7904296875 -0.925 -17.175 Z"/>

<path id="RD_HindLeg_3_4rear_lower_2_Layer1_0_1_STROKES" stroke="#6DABDD" stroke-width="3" stroke-linejoin="round" stroke-linecap="round" fill="none" d="
M -5.65 -3.6
Q 1.836328125 -8.4703125 11.5 -5.15 17.0154296875 -1.388671875 7.6 6.9 -5.18671875 19.70546875 -8.9 12.2 -13.0958984375 2.169140625 -5.65 -3.6 Z"/>

<path id="RD_HindLeg_3_4rear_lower_2_Layer0_0_1_STROKES" stroke="#6DABDD" stroke-width="3" stroke-linejoin="round" stroke-linecap="round" fill="none" d="
M -8.9 59.25
Q -15.7921875 31.9404296875 -10.2 3.35
M 13.4 -2.55
Q 15.0326171875 27.90546875 24.35 43.05"/>

<path id="RD_FrontLeg_3_4_upper_20_Layer1_0_1_STROKES" stroke="#6DABDD" stroke-width="3" stroke-linejoin="round" stroke-linecap="round" fill="none" d="
M -32.7 58.35
Q -23.45 30.8 -5.95 -1.05
M 11.65 62.95
Q 12.4 41.65 5.5 -1.05"/>

<path id="RD_Mouth_front_chin__offcenter_0_Layer1_0_1_STROKES" stroke="#6DABDD" stroke-width="3" stroke-linejoin="round" stroke-linecap="round" fill="none" d="
M 37 3
Q 31.5595703125 11.51484375 20.35 16.8 3.9671875 24.438671875 -14.6 17.85 -26.379296875 13.5955078125 -35.1 3.05"/>

<path id="RD_Hair_01_19_Layer3_0_1_STROKES" stroke="#C7C616" stroke-width="0.05" stroke-linejoin="round" stroke-linecap="round" fill="none" d="
M -30.15 -18.2
Q -30.05 -18.3 -30 -18.4 -29.8 -18.6 -29.55 -18.85 -29.5 -18.95 -29.45 -18.95
M -29.5 -18.9
L -29.55 -18.85
Q -29.5763671875 -18.797265625 -29.6 -18.75 -29.7640625 -18.523046875 -29.95 -18.3
L -30.05 -18.1"/>

<path id="RD_FrontLeg_3_4_hoof_16_Layer0_0_1_STROKES" stroke="#6DABDD" stroke-width="3" stroke-linejoin="round" stroke-linecap="round" fill="none" d="
M -11.7 -15.725
Q -17.3447265625 -9.60234375 -18.25 -1.05 -19.15 7.5 -14.5 13.9 -9.9 20.35 -2.5 20.85 4.95 21.35 10.8 15.7 16.6 10.1 17.5 1.55 18.39453125 -6.9978515625 13.5 -14.1 8.6158203125 -21.20703125 1.275 -21.525 -6.066015625 -21.8431640625 -11.7 -15.725 Z"/>

<path id="RD_FrontLeg_3_4_upper_21_Layer1_0_1_STROKES" stroke="#6DABDD" stroke-width="3" stroke-linejoin="round" stroke-linecap="round" fill="none" d="
M 19.9 41.4
Q 17.5806640625 23.57890625 3.65 -1.05
M -20.15 41.4
Q -20.1865234375 21.3873046875 -4.65 -1.05"/>
</defs>

<g transform="matrix( 1.555694580078125, 0.330963134765625, -0.330963134765625, 1.555694580078125, 347.75,219.9) ">
<g transform="matrix( 0.2110137939453125, 0, 0, 0.3922576904296875, -8.7,0.8) ">
<g transform="matrix( 0.9990692138671875, 0.0177764892578125, -0.061920166015625, 0.9998931884765625, 24.8,-5.65) ">
<g transform="matrix( 1, 0, 0, 1, 0,0) ">
<use xlink:href="#RD_Prun_Tail_5_Layer1_0_FILL"/>
</g>

<g transform="matrix( 1, 0, 0, 1, 0,0) ">
<use xlink:href="#RD_Prun_Tail_5_Layer1_1_FILL"/>
</g>

<g transform="matrix( 1, 0, 0, 1, 0,0) ">
<use xlink:href="#RD_Prun_Tail_5_Layer1_2_FILL"/>
</g>

<g transform="matrix( 1, 0, 0, 1, 0,0) ">
<use xlink:href="#RD_Prun_Tail_5_Layer1_3_FILL"/>
</g>

<g transform="matrix( 1, 0, 0, 1, 0,0) ">
<use xlink:href="#RD_Prun_Tail_5_Layer1_4_FILL"/>
</g>

<g transform="matrix( 1, 0, 0, 1, 0,0) ">
<use xlink:href="#RD_Prun_Tail_5_Layer1_5_FILL"/>
</g>

<g transform="matrix( 1, 0, 0, 1, 0,0) ">
<use xlink:href="#RD_Prun_Tail_5_Layer1_6_FILL"/>
</g>
</g>
</g>

<g transform="matrix( 0.4132843017578125, -0.5472412109375, 0.6434783935546875, 0.6175537109375, -44.4,13.35) ">
<g transform="matrix( 0.8339996337890625, -0.3087158203125, 0.5523681640625, 0.6643524169921875, 13.15,66.7) ">
<g transform="matrix( 1, 0, 0, 1, 0,0) ">
<use filter="url(#Filter_1)" xlink:href="#RD_FrontLeg_3_4_hoof_6_Layer0_0_FILL"/>

<use filter="url(#Filter_1)" xlink:href="#RD_FrontLeg_3_4_hoof_6_Layer0_0_1_STROKES"/>
</g>
</g>

<g transform="matrix( 0.7404632568359375, -0.3578338623046875, 0.0124969482421875, 0.6438751220703125, 12,46.45) ">
<g transform="matrix( 1, 0, 0, 1, 0,0) ">
<use filter="url(#Filter_1)" xlink:href="#RD_KneePatch_1_Layer0_0_FILL"/>
</g>
</g>

<g transform="matrix( 0.9890594482421875, 0.223388671875, -0.159027099609375, 0.6988067626953125, 14.45,31.6) ">
<g transform="matrix( 1, 0, 0, 1, 0,0) ">
<use filter="url(#Filter_1)" xlink:href="#RD_HindLeg_3_4rear_lower_2_Layer1_0_FILL"/>

<use filter="url(#Filter_1)" xlink:href="#RD_HindLeg_3_4rear_lower_2_Layer1_0_1_STROKES"/>
</g>

<g transform="matrix( 1, 0, 0, 1, 0,0) ">
<use filter="url(#Filter_1)" xlink:href="#RD_HindLeg_3_4rear_lower_2_Layer0_0_FILL"/>

<use filter="url(#Filter_1)" xlink:href="#RD_HindLeg_3_4rear_lower_2_Layer0_0_1_STROKES"/>
</g>
</g>

<g transform="matrix( 1.05706787109375, 0, -0.2399139404296875, 0.793365478515625, 17.7,-4.6) ">
<g transform="matrix( 1, 0, 0, 1, 0,0) ">
<use filter="url(#Filter_1)" xlink:href="#RD_HindLeg_3_4_top_3_Layer1_0_FILL"/>
</g>

<g transform="matrix( 1, 0, 0, 1, 0,0) ">
<use filter="url(#Filter_1)" xlink:href="#RD_HindLeg_3_4_top_3_Layer0_0_FILL"/>
</g>
</g>

<g transform="matrix( 0.832244873046875, -0.314788818359375, -0.1527099609375, 0.5664520263671875, 8.95,45.8) ">
<g transform="matrix( 1, 0, 0, 1, 0,0) ">
<use filter="url(#Filter_1)" xlink:href="#RD_KneePatch_0_Layer0_0_FILL"/>
</g>
</g>
</g>

<g transform="matrix( 0.4132843017578125, -0.5472412109375, 0.6434783935546875, 0.6175537109375, -9.65,9.45) ">
<g transform="matrix( 0.8339996337890625, -0.3087158203125, 0.5523681640625, 0.6643524169921875, 13.15,66.7) ">
<g transform="matrix( 1, 0, 0, 1, 0,0) ">
<use xlink:href="#RD_FrontLeg_3_4_hoof_6_Layer0_0_FILL"/>

<use xlink:href="#RD_FrontLeg_3_4_hoof_6_Layer0_0_1_STROKES"/>
</g>
</g>

<g transform="matrix( 0.7404632568359375, -0.3578338623046875, 0.0124969482421875, 0.6438751220703125, 12,46.45) ">
<g transform="matrix( 1, 0, 0, 1, 0,0) ">
<use xlink:href="#RD_KneePatch_1_Layer0_0_FILL"/>
</g>
</g>

<g transform="matrix( 0.9890594482421875, 0.223388671875, -0.159027099609375, 0.6988067626953125, 14.45,31.6) ">
<g transform="matrix( 1, 0, 0, 1, 0,0) ">
<use xlink:href="#RD_HindLeg_3_4rear_lower_2_Layer1_0_FILL"/>

<use xlink:href="#RD_HindLeg_3_4rear_lower_2_Layer1_0_1_STROKES"/>
</g>

<g transform="matrix( 1, 0, 0, 1, 0,0) ">
<use xlink:href="#RD_HindLeg_3_4rear_lower_2_Layer0_0_FILL"/>

<use xlink:href="#RD_HindLeg_3_4rear_lower_2_Layer0_0_1_STROKES"/>
</g>
</g>

<g transform="matrix( 1.05706787109375, 0, -0.2399139404296875, 0.793365478515625, 17.7,-4.6) ">
<g transform="matrix( 1, 0, 0, 1, 0,0) ">
<use xlink:href="#RD_HindLeg_3_4_top_3_Layer1_0_FILL"/>
</g>

<g transform="matrix( 1, 0, 0, 1, 0,0) ">
<use xlink:href="#RD_HindLeg_3_4_top_3_Layer0_0_FILL"/>
</g>
</g>

<g transform="matrix( 0.832244873046875, -0.314788818359375, -0.1527099609375, 0.5664520263671875, 8.95,45.8) ">
<g transform="matrix( 1, 0, 0, 1, 0,0) ">
<use xlink:href="#RD_KneePatch_0_Layer0_0_FILL"/>
</g>
</g>
</g>

<g transform="matrix( -0.9999847412109375, 0, 0, 0.9999847412109375, -53.35,11.25) ">
<g transform="matrix( 1, 0, 0, 1, 0,0) ">
<use filter="url(#Filter_2)" xlink:href="#WingcycleBACK_11_Layer10_0_FILL"/>
</g>

<g transform="matrix( 1, 0, 0, 1, 0,0) ">
<use filter="url(#Filter_2)" xlink:href="#WingcycleBACK_11_Layer9_0_FILL"/>
</g>

<g transform="matrix( 1, 0, 0, 1, 0,0) ">
<use filter="url(#Filter_2)" xlink:href="#WingcycleBACK_11_Layer8_0_FILL"/>
</g>

<g transform="matrix( 1, 0, 0, 1, 0,0) ">
<use filter="url(#Filter_2)" xlink:href="#WingcycleBACK_11_Layer7_0_FILL"/>
</g>

<g transform="matrix( 1, 0, 0, 1, 0,0) ">
<use filter="url(#Filter_2)" xlink:href="#WingcycleBACK_11_Layer5_0_FILL"/>
</g>

<g transform="matrix( 1, 0, 0, 1, 0,0) ">
<use filter="url(#Filter_2)" xlink:href="#WingcycleBACK_11_Layer4_0_FILL"/>
</g>

<g transform="matrix( 1, 0, 0, 1, 0,0) ">
<use filter="url(#Filter_2)" xlink:href="#WingcycleBACK_11_Layer3_0_FILL"/>
</g>

<g transform="matrix( 1, 0, 0, 1, 0,0) ">
<use filter="url(#Filter_2)" xlink:href="#WingcycleBACK_11_Layer2_0_FILL"/>
</g>

<g transform="matrix( 1, 0, 0, 1, 0,0) ">
<use filter="url(#Filter_2)" xlink:href="#WingcycleBACK_11_Layer1_0_FILL"/>
</g>
</g>

<g transform="matrix( 0.6026611328125, 0.7979888916015625, -0.7890167236328125, 0.5959014892578125, -37.9,40.3) ">
<g transform="matrix( 1.243988037109375, 0.0895233154296875, -0.0872650146484375, 1.056610107421875, -9.4,63.65) ">
<g transform="matrix( 1, 0, 0, 1, 0,0) ">
<use xlink:href="#RD_FrontLeg_3_4_hoof_11_Layer0_0_FILL"/>
</g>
</g>

<g transform="matrix( 0.99993896484375, -0.00445556640625, -0.0002593994140625, 0.999969482421875, 1.9,0.4) ">
<g transform="matrix( 1, 0, 0, 1, 0,0) ">
<use xlink:href="#RD_FrontLeg_3_4_upper_20_Layer1_0_FILL"/>

<use xlink:href="#RD_FrontLeg_3_4_upper_20_Layer1_0_1_STROKES"/>
</g>
</g>

<g transform="matrix( 2.197784423828125, 0.1581268310546875, -0.257781982421875, 3.119873046875, -10.05,65.3) ">
<g transform="matrix( 1, 0, 0, 1, 0,0) ">
<use xlink:href="#RD_HoofWrinkle_2_Layer0_0_FILL"/>
</g>
</g>
</g>

<g transform="matrix( 1, 0, 0, 1, -19.95,24.8) ">
<g transform="matrix( 1, 0, 0, 1, 0,0) ">
<use xlink:href="#RD_Torso_0_Layer1_0_FILL"/>
</g>
</g>

<g transform="matrix( 0.1369476318359375, 0.00579833984375, -0.0221405029296875, 0.5221099853515625, -12.8,19.05) ">
<g transform="matrix( 1.0125579833984375, 0.0885162353515625, 0.4949951171875, 0.9591064453125, -60.75,-48.05) ">
<g transform="matrix( 1, 0, 0, 1, 0,0) ">
<use xlink:href="#RD_Prun_Mane_cycle_6_Layer0_0_FILL"/>
</g>

<g transform="matrix( 1, 0, 0, 1, 0,0) ">
<use xlink:href="#RD_Prun_Mane_cycle_6_Layer0_1_FILL"/>
</g>

<g transform="matrix( 1, 0, 0, 1, 0,0) ">
<use xlink:href="#RD_Prun_Mane_cycle_6_Layer0_2_FILL"/>
</g>

<g transform="matrix( 1, 0, 0, 1, 0,0) ">
<use xlink:href="#RD_Prun_Mane_cycle_6_Layer0_3_FILL"/>
</g>
</g>
</g>

<g transform="matrix( 0.9025726318359375, -0.670166015625, 0.353546142578125, 0.6069183349609375, -24.25,20.75) ">
<g transform="matrix( 1, 0, 0, 1, 0,0) ">
<use xlink:href="#RD_Neck_0_Layer0_0_FILL"/>
</g>
</g>

<g transform="matrix( 0.9999847412109375, 0, 0, 0.9999847412109375, 3.9,11.25) ">
<g transform="matrix( 1, 0, 0, 1, 0,0) ">
<use xlink:href="#Wingcycle_11_Layer9_0_FILL"/>
</g>

<g transform="matrix( 1, 0, 0, 1, 0,0) ">
<use xlink:href="#Wingcycle_11_Layer8_0_FILL"/>
</g>

<g transform="matrix( 1, 0, 0, 1, 0,0) ">
<use xlink:href="#Wingcycle_11_Layer7_0_FILL"/>
</g>

<g transform="matrix( 1, 0, 0, 1, 0,0) ">
<use xlink:href="#Wingcycle_11_Layer6_0_FILL"/>
</g>

<g transform="matrix( 1, 0, 0, 1, 0,0) ">
<use xlink:href="#Wingcycle_11_Layer5_0_FILL"/>
</g>

<g transform="matrix( 1, 0, 0, 1, 0,0) ">
<use xlink:href="#Wingcycle_11_Layer4_0_FILL"/>
</g>

<g transform="matrix( 1, 0, 0, 1, 0,0) ">
<use xlink:href="#Wingcycle_11_Layer3_0_FILL"/>
</g>

<g transform="matrix( 1, 0, 0, 1, 0,0) ">
<use xlink:href="#Wingcycle_11_Layer2_0_FILL"/>
</g>

<g transform="matrix( 1, 0, 0, 1, 0,0) ">
<use xlink:href="#Wingcycle_11_Layer1_0_FILL"/>
</g>

<g transform="matrix( 1, 0, 0, 1, 0,0) ">
<use xlink:href="#Wingcycle_11_Layer0_0_FILL"/>
</g>
</g>

<g transform="matrix( 1, 0, 0, 1, -53.85,10.05) ">
<g transform="matrix( 1, 0, 0, 1.001922607421875, -6.4,-5.3) ">
<g transform="matrix( 1, 0, 0, 1, 0,0) ">
<use xlink:href="#RD_Skull_2_Layer0_0_FILL"/>
</g>
</g>

<g transform="matrix( 0.9992218017578125, 0.01165771484375, -0.1327056884765625, 1.042236328125, -6,25.45) ">
<g transform="matrix( 1, 0, 0, 1, 0,0) ">
<use xlink:href="#RD_Mouth_front_chin__offcenter_0_Layer1_0_FILL"/>

<use xlink:href="#RD_Mouth_front_chin__offcenter_0_Layer1_0_1_STROKES"/>
</g>
</g>

<g transform="matrix( 0.972503662109375, 0, 0.15093994140625, 1.0177459716796875, 25.6,-48.8) ">
<g transform="matrix( 1, 0, 0, 1, 0,0) ">
<use xlink:href="#RD_Hair_07_9_Layer0_0_FILL"/>
</g>
</g>

<g transform="matrix( -0.8562469482421875, -0.0888671875, -0.10308837890625, 0.993377685546875, -39.25,-31.85) ">
<g transform="matrix( 1, 0, 0, 1, 0,0) ">
<use xlink:href="#RD_Ear_1_Layer1_0_FILL"/>
</g>
</g>

<g transform="matrix( 0.997467041015625, 0.063507080078125, -0.063507080078125, 0.997467041015625, 29.85,-28.65) ">
<g transform="matrix( 1, 0, 0, 1, 0,0) ">
<use xlink:href="#RD_Ear_1_Layer1_0_FILL"/>
</g>
</g>

<mask id="Mask_Mask_1">
<g transform="matrix( -0.6017608642578125, -0.1415863037109375, -0.1660003662109375, 1.02447509765625, -35.6,-1.15) ">
<g transform="matrix( 1, 0, 0, 1, 0,0) ">
<use xlink:href="#Mask_Mask_RD2_Eyewhite_3_4_1_Layer1_0_FILL"/>
</g>
</g>
</mask>

<g mask="url(#Mask_Mask_1)">
<g transform="matrix( -0.6017608642578125, -0.1415863037109375, -0.1660003662109375, 1.02447509765625, -35.6,-1.15) ">
<g transform="matrix( 1, 0, 0, 1, 0,0) ">
<use xlink:href="#RD2_Eyewhite_3_4_1_Layer1_0_FILL"/>
</g>
</g>
</g>

<g mask="url(#Mask_Mask_1)">
<g transform="matrix( 0.47186279296875, -0.0417938232421875, 0.13232421875, 0.74530029296875, -32.1,0.35) ">
<g transform="matrix( 1, 0, 0, 1, 0,0) ">
<use xlink:href="#RD2_Iris_0_Layer2_0_FILL"/>
</g>

<g transform="matrix( 1, 0, 0, 1, 0,0) ">
<use xlink:href="#RD2_Iris_0_Layer1_0_FILL"/>
</g>

<g transform="matrix( 1, 0, 0, 1, 0,0) ">
<use xlink:href="#RD2_Iris_0_Layer0_0_FILL"/>
</g>
</g>
</g>

<g mask="url(#Mask_Mask_1)">
<g transform="matrix( -0.476593017578125, 0.0044097900390625, 0.006805419921875, 0.6275482177734375, -30.85,-0.15) ">
<g transform="matrix( 1, 0, 0, 1, 0,0) ">
<use xlink:href="#RD2_Pupil_0_Layer0_0_FILL"/>
</g>
</g>
</g>

<g mask="url(#Mask_Mask_1)">
<g transform="matrix( 0.6511688232421875, -0.0670928955078125, 0.172882080078125, 0.6851348876953125, -29.85,-7.7) ">
<g transform="matrix( 1, 0, 0, 1, 0,0) ">
<use xlink:href="#RD2_Hilights_0_Layer1_0_FILL"/>
</g>
</g>
</g>

<mask id="Mask_Mask_2">
<g transform="matrix( 0.859771728515625, 0, 0.1278076171875, 1.0453338623046875, 17.2,0.35) ">
<g transform="matrix( 1, 0, 0, 1, 0,0) ">
<use xlink:href="#Mask_Mask_RD2_Eyewhite_3_4_1_Layer1_0_FILL"/>
</g>
</g>
</mask>

<g mask="url(#Mask_Mask_2)">
<g transform="matrix( 0.859771728515625, 0, 0.1278076171875, 1.0453338623046875, 17.2,0.35) ">
<g transform="matrix( 1, 0, 0, 1, 0,0) ">
<use xlink:href="#RD2_Eyewhite_3_4_1_Layer1_0_FILL"/>
</g>
</g>
</g>

<g mask="url(#Mask_Mask_2)">
<g transform="matrix( -0.5610198974609375, -0.0517425537109375, -0.0706787109375, 0.736236572265625, 26,-1.8) ">
<g transform="matrix( 1, 0, 0, 1, 0,0) ">
<use xlink:href="#RD2_Iris_2_Layer2_0_FILL"/>
</g>

<g transform="matrix( 1, 0, 0, 1, 0,0) ">
<use xlink:href="#RD2_Iris_2_Layer1_0_FILL"/>
</g>

<g transform="matrix( 1, 0, 0, 1, 0,0) ">
<use xlink:href="#RD2_Iris_2_Layer0_0_FILL"/>
</g>
</g>
</g>

<g mask="url(#Mask_Mask_2)">
<g transform="matrix( 0.53680419921875, 0.0115814208984375, 0.08184814453125, 0.643402099609375, 27.95,-1.55) ">
<g transform="matrix( 1, 0, 0, 1, 0,0) ">
<use xlink:href="#RD2_Pupil_0_Layer0_0_FILL"/>
</g>
</g>
</g>

<g mask="url(#Mask_Mask_2)">
<g transform="matrix( 0.6678314208984375, 0.2051849365234375, 0.0124053955078125, 0.67279052734375, 30.35,-7.4) ">
<g transform="matrix( 1, 0, 0, 1, 0,0) ">
<use xlink:href="#RD2_Hilights_0_Layer1_0_FILL"/>
</g>
</g>
</g>

<g transform="matrix( -0.6017608642578125, -0.1415863037109375, -0.1660003662109375, 1.02447509765625, -35.6,-1.15) ">
<g transform="matrix( 1, 0, 0, 1, 0,0) ">
<use xlink:href="#RD2_Blink_front_0_Layer2_0_FILL"/>
</g>

<g transform="matrix( 1, 0, 0, 1, 0,0) ">
<use xlink:href="#RD2_Blink_front_0_Layer1_0_FILL"/>
</g>

<g transform="matrix( 1, 0, 0, 1, 0,0) ">
<use xlink:href="#RD2_Blink_front_0_Layer1_1_FILL"/>
</g>

<g transform="matrix( 1, 0, 0, 1, 0,0) ">
<use xlink:href="#RD2_Blink_front_0_Layer1_2_FILL"/>
</g>
</g>

<g transform="matrix( 0.8662109375, -0.0929107666015625, 0.1739959716796875, 1.01947021484375, 17.05,0.3) ">
<g transform="matrix( 1, 0, 0, 1, 0,0) ">
<use xlink:href="#RD2_Blink_front_100_Layer2_0_FILL"/>
</g>
</g>

<g transform="matrix( -0.60809326171875, -0.5243072509765625, -0.508544921875, 0.857421875, -42.8,-20.85) ">
<g transform="matrix( 1, 0, 0, 1, 0,0) ">
<use xlink:href="#RD_Brow_front_1_Layer2_0_FILL"/>
</g>

<g transform="matrix( 1, 0, 0, 1, 1.7,-0.05) ">
<g transform="matrix( 1, 0, 0, 1, 0,0) ">
<use xlink:href="#RD_Lashes_02_6_Layer0_0_FILL"/>
</g>

<g transform="matrix( 1, 0, 0, 1, 0,0) ">
<use xlink:href="#RD_Lashes_02_6_Layer0_1_FILL"/>
</g>

<g transform="matrix( 1, 0, 0, 1, 0,0) ">
<use xlink:href="#RD_Lashes_02_6_Layer0_2_FILL"/>
</g>
</g>

<g transform="matrix( 1, 0, 0, 1, 0,0) ">
<use xlink:href="#RD_Brow_front_1_Layer0_0_FILL"/>
</g>
</g>

<g transform="matrix( 0.924713134765625, -0.4334564208984375, 0.457275390625, 0.8568572998046875, 30.45,-17.85) ">
<g transform="matrix( 1, 0, 0, 1, 0,0) ">
<use xlink:href="#RD_Brow_front_1_Layer2_0_FILL"/>
</g>

<g transform="matrix( 1, 0, 0, 1, 1.7,-0.05) ">
<g transform="matrix( 1, 0, 0, 1, 0,0) ">
<use xlink:href="#RD_Lashes_02_6_Layer0_0_FILL"/>
</g>

<g transform="matrix( 1, 0, 0, 1, 0,0) ">
<use xlink:href="#RD_Lashes_02_6_Layer0_1_FILL"/>
</g>

<g transform="matrix( 1, 0, 0, 1, 0,0) ">
<use xlink:href="#RD_Lashes_02_6_Layer0_2_FILL"/>
</g>
</g>

<g transform="matrix( 1, 0, 0, 1, 0,0) ">
<use xlink:href="#RD_Brow_front_1_Layer0_0_FILL"/>
</g>
</g>

<g transform="matrix( 1.04473876953125, -0.17791748046875, 0.2764129638671875, 0.92706298828125, -14.35,25.7) ">
<g transform="matrix( 1, 0, 0, 1, 0,0) ">
<use xlink:href="#RD_Mouth_front_hole__0_Layer4_0_FILL"/>
</g>
</g>

<g transform="matrix( 1.00201416015625, 0.0025787353515625, 0.08404541015625, 0.9959716796875, -18.15,22.15) ">
<g transform="matrix( 1, 0, 0, 1, 0,0) ">
<use xlink:href="#RD_Mouth_front_nostril__0_Layer2_0_FILL"/>
</g>
</g>

<g transform="matrix( 0.85284423828125, -0.37200927734375, 0.05682373046875, 0.930206298828125, 21.5,19.2) ">
<g transform="matrix( 1, 0, 0, 1, 0,0) ">
<use xlink:href="#RD_Cheek_0_Layer1_0_FILL"/>
</g>

<g transform="matrix( 1, 0, 0, 1, 0,0) ">
<use xlink:href="#RD_Cheek_0_Layer0_0_FILL"/>
</g>
</g>

<g transform="matrix( 0.9800262451171875, 0.032135009765625, -0.1204071044921875, 0.9931640625, -16.75,25.2) ">
<g transform="matrix( 1, 0, 0, 1, 0.65,-8.5) ">
<g transform="matrix( 1, 0, 0, 1, 0,0) ">
<use xlink:href="#RD_Wrinkle_0_Layer0_0_FILL"/>
</g>
</g>
</g>

<g transform="matrix( 1.07415771484375, 0.0653076171875, 0.0907745361328125, 0.991790771484375, -13.5,-33.7) ">
<g transform="matrix( 1, 0, 0, 1, 0,0) ">
<use xlink:href="#RD_Hair_01_19_Layer3_0_FILL"/>

<use xlink:href="#RD_Hair_01_19_Layer3_0_1_STROKES"/>
</g>

<g transform="matrix( 1, 0, 0, 1, 0,0) ">
<use xlink:href="#RD_Hair_01_19_Layer2_0_FILL"/>
</g>

<g transform="matrix( 1, 0, 0, 1, 0,0) ">
<use xlink:href="#RD_Hair_01_19_Layer1_0_FILL"/>
</g>

<g transform="matrix( 1, 0, 0, 1, 0,0) ">
<use xlink:href="#RD_Hair_01_19_Layer0_0_FILL"/>
</g>
</g>
</g>

<g transform="matrix( -0.3125457763671875, -1.02899169921875, -0.8546295166015625, 0.2658233642578125, -2.3,49.05) ">
<g transform="matrix( 1.108154296875, 0.09967041015625, -0.077728271484375, 1.1765594482421875, -8.35,40.1) ">
<g transform="matrix( 1, 0, 0, 1, 0,0) ">
<use xlink:href="#RD_FrontLeg_3_4_hoof_16_Layer0_0_FILL"/>

<use xlink:href="#RD_FrontLeg_3_4_hoof_16_Layer0_0_1_STROKES"/>
</g>
</g>

<g transform="matrix( 0.9623260498046875, 0.271636962890625, -0.27618408203125, 0.9610443115234375, 2.7,0.35) ">
<g transform="matrix( 1, 0, 0, 1, 0,0) ">
<use xlink:href="#RD_FrontLeg_3_4_upper_21_Layer1_0_FILL"/>

<use xlink:href="#RD_FrontLeg_3_4_upper_21_Layer1_0_1_STROKES"/>
</g>
</g>

<g transform="matrix( 1.9949188232421875, 0.1793975830078125, -0.257781982421875, 3.89984130859375, -5.95,23.45) ">
<g transform="matrix( 1, 0, 0, 1, 0,0) ">
<use xlink:href="#RD_HoofWrinkle_2_Layer0_0_FILL"/>
</g>
</g>
</g>
</g>
</svg>
