
<svg xmlns="http://www.w3.org/2000/svg" version="1.1" xmlns:xlink="http://www.w3.org/1999/xlink" preserveAspectRatio="none" x="0px" y="0px" width="864px" height="486px" viewBox="0 0 864 486">
<defs>
<linearGradient id="Gradient_1" gradientUnits="userSpaceOnUse" x1="281.1875" y1="36.9375" x2="276.51250000000005" y2="60.3625" spreadMethod="pad">
<stop  offset="0%" stop-color="#590D39"/>

<stop  offset="19.607843137254903%" stop-color="#9C1862"/>

<stop  offset="22.745098039215687%" stop-color="#A01964"/>

<stop  offset="34.11764705882353%" stop-color="#AA1A6C"/>

<stop  offset="73.72549019607843%" stop-color="#BD1D78"/>

<stop  offset="100%" stop-color="#BF1D79"/>
</linearGradient>

<filter id="Filter_1" x="-20%" y="-20%" width="140%" height="140%" color-interpolation-filters="sRGB">
<feColorMatrix in="SourceGraphic" type="matrix" values="1 0 0 0 -0.06274509803921569 0 1 0 0 -0.0784313725490196 0 0 1 0 -0.06274509803921569 0 0 0 1 0" result="result1"/>
</filter>

<filter id="Filter_2" x="-20%" y="-20%" width="140%" height="140%" color-interpolation-filters="sRGB">
<feColorMatrix in="SourceGraphic" type="matrix" values="0.57 0 0 0 0.1843137254901961 0 0.57 0 0 0.28627450980392155 0 0 0.57 0 0.37254901960784315 0 0 0 1 0" result="result1"/>
</filter>

<g id="RD_Prun_Tail_1_Layer1_0_FILL">
<path fill="#EE4143" stroke="none" d="
M 116.2 -107.2
Q 106.35 -104.45 95.75 -99.75 87.3 -96.4 79.3 -91.85 71.3 -87.25 64.05 -81.8 56.8 -76.35 50.55 -70.45 41.15 -61.6 33.15 -52.5 25.15 -43.4 18.45 -34.85 11.8 -26.25 6.25 -18.95 0.75 -11.65 -3.75 -6.3 -6.3 -3.1 -6.2 -0.05 -6.1 3 -4.05 5 -2.05 7 1.1 6.95 4.25 6.95 7.7 3.95 17.15 -3.55 27.15 -8.9 37.15 -14.3 47.1 -17.9 57.05 -21.55 66.4 -23.9 73.4 -25.65 79.85 -26.5 86.35 -27.4 92.1 -27.45 95.9 -27.55 99.4 -27.25 102.85 -26.9 106.35 -26.45 109.85 -25.95 113.7 -25.45 124.6 -23.75 133 -21.4 141.4 -19 147.65 -16.55 153.9 -14.05 158.4 -12.05 162.85 -10.05 165.85 -9.05 165.9 -9.1 164.5 -10.85 163.1 -12.6 160.4 -15.25 157.75 -17.95 154 -20.75 151.25 -22.9 148.4 -24.7 145.5 -26.5 143 -27.85 140.5 -29.2 138.9 -29.95 137.9 -30.4 137.45 -30.55 139.65 -30.1 143.25 -29.35 147.15 -28.6 151.95 -27.45 156.8 -26.35 161.9 -24.75 167 -23.2 171.8 -21.15 176.55 -19.05 180.3 -16.4 185.15 -13 187.95 -9.85 190.8 -6.7 192.1 -4.2 193.45 -1.65 193.85 -0.1 194.3 1.4 194.45 1.55
L 194.85 0
Q 195.3 -1.55 195.65 -4.15 196 -6.75 195.65 -9.95 195.4 -13.15 194.25 -16.3 193.15 -19.4 192.05 -21.45 190.9 -23.5 190.75 -23.55 194.25 -21.8 198.75 -19.1 203.2 -16.35 207.65 -12.35 212.1 -8.35 215.5 -2.75 218.1 1.4 219.8 5.6 221.5 9.75 222.45 13.25 223.45 16.7 223.85 18.8 224.2 20.65 224.2 20.9 225.55 14.65 225.9 8.25 226.25 1.8 225.25 -4.65 225.3 -4.6 225.95 -2.55 226.6 -0.45 227.4 3.15 228.2 6.75 228.7 11.4 229.2 16 229 21.1 228.9 26.2 228.3 30.95 227.65 35.75 226.85 39.55 226 43.4 225.35 45.75 224.85 47.55 224.65 48.1 228.1 40.9 231.1 32.3 234.1 23.55 235.75 14.15 237.35 4.75 236.7 -4.45 236.25 -11.35 234.8 -17.15 233.35 -22.9 231.6 -27.1 229.85 -31.35 228.6 -33.65 227.35 -35.95 227.4 -35.95
L 228.8 -34.1
Q 230.2 -32.3 232.3 -29.05 234.45 -25.8 236.6 -21.5 238.75 -17.2 240.3 -12.25 241.95 -7.35 242.85 -2.7 243.75 1.95 244.15 5.7 244.55 9.45 244.7 11.7 244.8 13.95 244.9 14.05 245.35 7.6 245.2 0.7 245.1 -6.2 243.95 -13.55 242.85 -20.95 240.25 -28.7 237.5 -36.45 233.1 -43.9 228.7 -51.3 222.7 -58.05 216.7 -64.8 209.2 -70.5 193.9 -81.85 175.15 -87.85 156.35 -93.85 135.1 -93.75 113.9 -93.7 91.3 -87 91.5 -87.1 93.95 -88.55 96.35 -90.05 100.2 -92.4 104.05 -94.7 108.6 -97.35 113.2 -100.05 118.15 -102.55 123.05 -105.05 127.25 -107.05 131.5 -109.05 134.05 -110.35 126.05 -109.95 116.2 -107.2 Z"/>
</g>

<g id="RD_Prun_Tail_1_Layer1_1_FILL">
<path fill="#F37033" stroke="none" d="
M 116.2 -107.2
Q 106.35 -104.45 95.75 -99.75 87.3 -96.4 79.3 -91.85 71.3 -87.25 64.05 -81.8 56.8 -76.35 50.55 -70.45 41.15 -61.6 33.15 -52.5 25.15 -43.4 18.45 -34.85 11.8 -26.25 6.25 -18.95 0.75 -11.65 -3.75 -6.3 -6.3 -3.1 -6.2 -0.05 -6.1 3 -4.05 5 -2.05 7 1.1 6.95 4.25 6.95 7.7 3.95 14.55 -1.65 21.8 -5.9 29.1 -10.2 36.4 -13.5 48.35 -19.85 61.05 -25 73.75 -30.1 86.2 -32.95 94.05 -34.75 102.5 -35.45 110.95 -36.1 119.5 -36 128 -35.9 136 -35.4 147.9 -34.4 158 -31.9 168.15 -29.4 175.7 -25.85 180.7 -23.6 184.5 -21 188.3 -18.4 191.05 -15.85 193.75 -13.25 195.55 -11.1 195.1 -14.1 194 -16.95 192.9 -19.8 191.9 -21.65 190.9 -23.5 190.75 -23.55 194.25 -21.8 198.75 -19.1 203.2 -16.35 207.65 -12.35 212.1 -8.35 215.5 -2.75 218.1 1.4 219.8 5.6 221.5 9.75 222.45 13.25 223.45 16.7 223.85 18.8 224.2 20.65 224.2 20.9 225.55 14.65 225.9 8.25 226.25 1.8 225.25 -4.65 225.3 -4.6 225.95 -2.55 226.6 -0.45 227.4 3.15 228.2 6.75 228.7 11.4 229.2 16 229 21.1 228.9 26.2 228.3 30.95 227.65 35.75 226.85 39.55 226 43.4 225.35 45.75 224.85 47.55 224.65 48.1 228.1 40.9 231.1 32.3 234.1 23.55 235.75 14.15 237.35 4.75 236.7 -4.45 236.25 -11.35 234.8 -17.15 233.35 -22.9 231.6 -27.1 229.85 -31.35 228.6 -33.65 227.35 -35.95 227.4 -35.95
L 228.8 -34.1
Q 230.2 -32.3 232.3 -29.05 234.45 -25.8 236.6 -21.5 238.75 -17.2 240.3 -12.25 241.95 -7.35 242.85 -2.7 243.75 1.95 244.15 5.7 244.55 9.45 244.7 11.7 244.8 13.95 244.9 14.05 245.35 7.6 245.2 0.7 245.1 -6.2 243.95 -13.55 242.85 -20.95 240.25 -28.7 237.5 -36.45 233.1 -43.9 228.7 -51.3 222.7 -58.05 216.7 -64.8 209.2 -70.5 193.9 -81.85 175.15 -87.85 156.35 -93.85 135.1 -93.75 113.9 -93.7 91.3 -87 91.5 -87.1 93.95 -88.55 96.35 -90.05 100.2 -92.4 104.05 -94.7 108.6 -97.35 113.2 -100.05 118.15 -102.55 123.05 -105.05 127.25 -107.05 131.5 -109.05 134.05 -110.35 126.05 -109.95 116.2 -107.2 Z"/>
</g>

<g id="RD_Prun_Tail_1_Layer1_2_FILL">
<path fill="#FDF6AF" stroke="none" d="
M 116.2 -107.2
Q 106.35 -104.45 95.75 -99.75 87.3 -96.4 79.3 -91.85 71.3 -87.25 64.05 -81.8 56.8 -76.35 50.55 -70.45 41.15 -61.6 33.15 -52.5 25.15 -43.4 18.45 -34.85 11.8 -26.25 6.25 -18.95 0.75 -11.65 -3.75 -6.3 -6.3 -3.1 -6.2 -0.05 -6.1 3 -4.05 5 -2.05 7 1.1 6.95 4.25 6.95 7.7 3.95 8.35 3.4 11.8 0.15 15.25 -3.05 21.5 -7.9 27.7 -12.8 36.65 -18.35 43.35 -22.45 51.3 -26.65 59.25 -30.8 68.15 -34.45 77.1 -38.15 86.65 -40.65 96.2 -43.2 106.05 -44 116.45 -45.1 126.75 -45.05 137 -45 146.65 -43.9 156.3 -42.8 164.85 -40.6 173.35 -38.45 180.3 -35.25 187.3 -32.1 192.25 -28.55 197.2 -24.95 200.5 -21.6 203.8 -18.2 205.7 -15.55 207.6 -12.95 208.45 -11.65 212.05 -8.4 214.75 -4.15 217.4 0.1 219.3 4.5 221.15 8.9 222.25 12.65 223.4 16.35 223.85 18.65 224.2 20.45 224.25 20.85 225.55 14.6 225.9 8.25 226.25 1.8 225.25 -4.65 225.3 -4.6 225.95 -2.55 226.6 -0.45 227.4 3.15 228.2 6.75 228.7 11.4 229.2 16 229 21.1 228.9 26.2 228.3 30.95 227.65 35.75 226.85 39.55 226 43.4 225.35 45.75 224.85 47.55 224.65 48.1 228.1 40.9 231.1 32.3 234.1 23.55 235.75 14.15 237.35 4.75 236.7 -4.45 236.25 -11.35 234.8 -17.15 233.35 -22.9 231.6 -27.1 229.85 -31.35 228.6 -33.65 227.35 -35.95 227.4 -35.95
L 228.8 -34.1
Q 230.2 -32.3 232.3 -29.05 234.45 -25.8 236.6 -21.5 238.75 -17.2 240.3 -12.25 241.95 -7.35 242.85 -2.7 243.75 1.95 244.15 5.7 244.55 9.45 244.7 11.7 244.8 13.95 244.9 14.05 245.35 7.6 245.2 0.7 245.1 -6.2 243.95 -13.55 242.85 -20.95 240.25 -28.7 237.5 -36.45 233.1 -43.9 228.7 -51.3 222.7 -58.05 216.7 -64.8 209.2 -70.5 193.9 -81.85 175.15 -87.85 156.35 -93.85 135.1 -93.75 113.9 -93.7 91.3 -87 91.5 -87.1 93.95 -88.55 96.35 -90.05 100.2 -92.4 104.05 -94.7 108.6 -97.35 113.2 -100.05 118.15 -102.55 123.05 -105.05 127.25 -107.05 131.5 -109.05 134.05 -110.35 126.05 -109.95 116.2 -107.2 Z"/>
</g>

<g id="RD_Prun_Tail_1_Layer1_3_FILL">
<path fill="#662F89" stroke="none" d="
M 116.2 -107.2
Q 106.35 -104.45 95.75 -99.75 87.3 -96.4 79.35 -91.85 71.35 -87.25 64.1 -81.8 56.85 -76.35 50.6 -70.45 41.15 -61.6 33.15 -52.5 25.2 -43.4 18.5 -34.85 11.8 -26.25 6.3 -18.95 0.75 -11.65 -3.7 -6.3 -5.7 -4 -6.05 -1.7 -6.45 0.55 -5.65 2.5 -4.85 4.45 -3.25 5.65 4.45 -3.85 13.6 -11.85 22.75 -19.9 32.9 -26.65 43.1 -33.35 53.85 -39.05 61.95 -43.3 70.4 -46.7 78.85 -50.15 87.65 -52.55 96.45 -54.85 105.5 -55.9 114.6 -57 123.7 -57.5 135.8 -58.05 147.95 -57.1 160.15 -56.15 171.85 -53.1 183.55 -50.05 194.25 -44.4 202.4 -40.25 208.95 -34.05 215.5 -27.85 220.1 -20.15 224.7 -12.5 227 -3.8 229.3 4.9 228.9 14.05 229.35 19.8 228.85 25.7 228.35 31.65 227.4 36.7 226.45 41.7 225.6 44.85 224.9 47.35 224.65 48.05 228.15 40.85 231.1 32.3 234.15 23.55 235.75 14.15 237.35 4.75 236.7 -4.45 236.3 -11.35 234.85 -17.15 233.35 -22.9 231.6 -27.1 229.85 -31.35 228.6 -33.65
L 227.4 -35.95
Q 227.45 -35.95 228.85 -34.1 230.25 -32.3 232.35 -29.05 234.45 -25.8 236.6 -21.5 238.75 -17.2 240.3 -12.25 241.95 -7.35 242.85 -2.7 243.75 1.95 244.15 5.7 244.6 9.45 244.7 11.7 244.85 13.95 244.95 14.05 245.35 7.6 245.25 0.7 245.1 -6.2 244 -13.55 242.85 -20.95 240.25 -28.7 237.55 -36.45 233.15 -43.9 228.7 -51.3 222.75 -58.05 216.75 -64.8 209.25 -70.5 193.95 -81.85 175.15 -87.85 156.35 -93.85 135.15 -93.75 113.9 -93.7 91.3 -87 91.55 -87.1 93.95 -88.55 96.35 -90.05 100.2 -92.4 104.05 -94.7 108.6 -97.35 113.25 -100.05 118.15 -102.55 123.05 -105.05 127.3 -107.05 131.55 -109.05 134.1 -110.35 126.05 -109.95 116.2 -107.2 Z"/>
</g>

<g id="RD_Prun_Tail_1_Layer1_4_FILL">
<path fill="#1D98D5" stroke="none" d="
M 67.65 -69.35
Q 55.75 -64 44.9 -57 34.05 -50 24.2 -41.9 18.35 -34.8 13.35 -28.25 8.4 -21.7 4.15 -16.1 -0.05 -10.55 -3.7 -6.3 -5.7 -4 -6.05 -1.7 -6.45 0.6 -5.65 2.5 -4.85 4.45 -3.25 5.65 4.45 -3.85 13.6 -11.85 22.75 -19.9 32.9 -26.65 43.1 -33.35 53.85 -39.05 61.95 -43.3 70.4 -46.7 78.85 -50.15 87.65 -52.55 96.45 -54.85 105.5 -55.9 114.6 -57 123.7 -57.5 135.8 -58.05 147.95 -57.1 160.15 -56.15 171.85 -53.1 183.55 -50.05 194.25 -44.4 202.4 -40.25 208.95 -34.05 215.5 -27.85 220.1 -20.15 224.7 -12.45 227 -3.8 229.3 4.9 228.9 14.05 229.35 19.8 228.85 25.7 228.35 31.65 227.4 36.7 226.45 41.7 225.6 44.85 224.9 47.35 224.65 48.05 228.15 40.85 231.1 32.3 234.15 23.55 235.75 14.15 237.35 4.75 236.7 -4.45 236.3 -11.35 234.85 -17.15 233.35 -22.9 231.6 -27.1 229.85 -31.35 228.6 -33.65
L 227.4 -35.95
Q 227.45 -35.95 228.85 -34.1 230.25 -32.3 232.35 -29.05 234.45 -25.8 236.6 -21.5 238.75 -17.2 240.3 -12.25 241.95 -7.35 242.85 -2.7 243.75 1.95 244.15 5.7 244.6 9.45 244.7 11.75 244.85 14 244.95 14.1 245.5 7.15 245.25 -0.6 245 -8.3 243.45 -16.5 241.95 -24.7 238.6 -33.05 235.2 -41.4 229.5 -49.6 229.15 -49.95 227.1 -52.15 225.05 -54.3 221.15 -57.6 217.2 -60.9 211.2 -64.7 205.25 -68.55 197.45 -71.95 189.65 -75.35 180.4 -77.9 171.15 -80.45 160.8 -81.8 129.3 -85.85 92.7 -77.85 79.6 -74.7 67.65 -69.35 Z"/>
</g>

<g id="RD_Prun_Tail_1_Layer1_5_FILL">
<path fill="#62BC4D" stroke="none" d="
M 13.6 -11.85
Q 22.75 -19.9 32.9 -26.65 43.1 -33.35 53.85 -39.05 61.95 -43.25 70.4 -46.7 78.85 -50.15 87.65 -52.55 96.45 -54.8 105.5 -55.9 114.6 -57 123.7 -57.45 135.8 -58.05 147.95 -57.1 160.15 -56.15 171.85 -53.1 183.55 -50.05 194.25 -44.4 202.4 -40.2 208.95 -34.05 215.5 -27.85 220.1 -20.15 224.7 -12.45 227 -3.8 229.3 4.9 228.9 14.05 229.35 19.8 228.85 25.75 228.35 31.65 227.4 36.7 226.45 41.75 225.6 44.85 224.9 47.45 224.65 48.1 227.9 41.7 230.6 34 233.35 26.15 235.05 17.7 236.75 9.2 236.95 0.85 237.15 -7.5 235.3 -15 234.25 -19.5 231.3 -25.55 228.4 -31.55 223.2 -37.95 218.05 -44.35 210.35 -50.15 202.65 -56.05 193 -60.4 183.3 -64.75 172.15 -67.45 161 -70.1 148.95 -70.95 139.9 -71.6 130.5 -71.3 121.1 -71.05 111.5 -69.9 105.2 -69.3 98.5 -68.05 91.8 -66.8 85.05 -64.9 78.25 -63 71.85 -60.35 52.55 -52.3 35 -40.55 17.5 -28.8 2.65 -13.1 -1.3 -9.05 -3.7 -6.3 -5.7 -4 -6.05 -1.7 -6.45 0.6 -5.65 2.55 -4.85 4.45 -3.25 5.7 4.45 -3.85 13.6 -11.85 Z"/>
</g>

<g id="RD_Prun_Tail_1_Layer1_6_FILL">
<path fill="#3A54A5" stroke="none" d="
M 220.1 58.45
Q 219.43515625 60.4150390625 219.3 60.8 219.4755859375 60.42421875 220.6 58.55
L 220.1 58.45
M 244.8 20
Q 244.95 22.7 244.95 22.75 245.1505859375 21.496484375 245.3 20.15
L 244.8 20
M 225.35 -5.35
Q 224.55 -7.2 224.45 -7.5 224.6046875 -6.3861328125 224.7 -5.3
L 225.35 -5.35
M 135.5 -31.3
L 137.05 -30.45 137.05 -31
Q 136.2162109375 -31.159375 135.5 -31.3 Z"/>

<path fill="#1D9AD6" stroke="none" d="
M 117.3 -109.25
Q 111.15 -108.2 104.95 -106.2 102.5 -105.35 98 -103.55 93.55 -101.75 87.95 -99.15 82.35 -96.5 76.55 -93.15 70.75 -89.8 65.6 -85.85 58.6 -80.7 53 -75.65 47.4 -70.55 43.4 -66.4 39.45 -62.3 37.4 -60 35.2 -57.75 31.15 -53.55 27.1 -49.4 22.2 -44 17.25 -38.55 12.5 -32.6 8.9 -28.15 5.85 -23.9 2.85 -19.6 0.55 -15.95 -1.8 -12.3 -3.2 -9.75 -4.65 -7.25 -5.05 -6.35 -6.95 -2.9 -6.85 0.35 -6.7 3.55 -4.45 5.85 -2.95 7.35 -0.75 7.85 1.5 8.35 4.05 7.6 6.6 6.85 9.1 4.75 18.85 -2.85 29.15 -8.25 39.45 -13.6 49.65 -17.15 59.9 -20.7 69.45 -22.85 76.55 -24.4 83.1 -25.05 89.6 -25.75 95.3 -25.55 98.2 -25.45 100.8 -25.15 103.4 -24.85 106 -24.5 109 -24.05 111.9 -23.7 114.8 -23.3 117.5 -22.75 124.2 -21.65 130.75 -20.15 137.25 -18.65 143.1 -16.85 148.95 -15.1 153.6 -13.15 158.35 -11.25 161.55 -9.65 164.8 -8.1 166.65 -7.15 168.55 -6.2 169.3 -6.25 168.6 -7.95 166.6 -10.5 164.65 -13.05 161.75 -16 158.85 -18.95 155.35 -21.75 151.85 -24.6 148.1 -26.8 152.7 -25.95 157.85 -24.45 162.95 -22.95 167.95 -20.95 172.95 -18.95 177.2 -16.55 181.4 -14.15 184.2 -11.45 188.1 -7.85 189.9 -4.9 191.7 -2 192.3 -0.05 192.85 1.85 193.05 2.35 193.6 4.4 193.9 6.8 195.05 4.25 195.9 1.65 197.45 -3.4 197.35 -7.5 197.25 -11.55 196.4 -14.6 195.55 -17.65 194.75 -19.55 198.3 -17.7 202.15 -14.8 206 -11.9 209.6 -7.95 213.15 -4.05 215.75 0.95 217.75 4.6 219.05 8.15 220.35 11.7 221.15 14.65 221.9 17.6 222.25 19.5 222.6 21.4 222.65 21.7 223.05 23.55 223.25 25.45 223.5 27.3 223.65 29.2 226.95 19.2 227.5 8.6 228.05 12.15 228.1 17.4 228.15 22.6 227.5 28.55 226.9 34.55 225.45 40.25 224.05 45.95 222.6 50.6 221.2 55.25 220.25 58.05 220.177734375 58.258984375 220.1 58.45
L 220.6 58.55
Q 221.95 56.3 224.15 52.2 226.35 48.15 228.9 42.7 231.4 37.2 233.7 30.65 236.15 24.15 237.3 17 238.45 9.85 238.55 2.95 238.65 -3.95 237.95 -9.7 237.25 -15.5 235.95 -19.2 236.75 -17.25 237.6 -15.2 238.45 -13.15 239.05 -11 241.15 -4.35 242.35 1.7 243.55 7.75 244.1 12.5 244.65 17.25 244.8 20
L 245.3 20.15
Q 246.0703125 14.9154296875 246.55 8.6 247.15 0.7 246.4 -8.25 245.9 -14.2 244.45 -20.25 242.95 -26.3 240.75 -32.05 238.5 -37.75 235.7 -42.7 229.45 -54 220.1 -63.55 210.7 -73.1 198.75 -80.2 186.75 -87.35 172.7 -91.55 158.6 -95.75 143 -96.35 137.95 -96.6 132.05 -96 126.2 -95.35 120.1 -94.25 114.05 -93.1 108.4 -91.75 102.75 -90.45 98.15 -89.25 100.45 -90.95 104.15 -93.15 107.9 -95.35 112.4 -97.75 116.85 -100.15 121.35 -102.45 125.8 -104.7 129.6 -106.5 133.4 -108.3 135.75 -109.35 137.8451171875 -110.2416015625 138.25 -110.25 134.1982421875 -110.698046875 128.85 -110.5 123.4 -110.25 117.3 -109.25
M 110.5 -103.55
Q 118.55 -106.25 125.75 -107.65 120.25 -105.15 114.45 -101.95 108.6 -98.75 103.45 -95.65 98.3 -92.6 94.95 -90.55 91.55 -88.45 91 -88.2 88.45 -86.75 86.15 -85.1 83.8 -83.45 81.5 -81.85 84.25 -82.85 87 -83.8 89.75 -84.8 92.65 -85.6 104.5 -89.15 116.2 -90.8 127.9 -92.4 140.1 -92.1 155.3 -91.65 169.25 -87.95 183.2 -84.3 195.4 -77.65 207.75 -70.95 217.2 -61.7 226.65 -52.45 232.85 -41.6 237.6 -32.95 240.2 -24.1 242.75 -15.25 243.4 -6.9 242.2 -12.1 240 -17.4 237.75 -22.75 234.9 -27.6 232.1 -32.45 229 -36.2 226.25 -39.7 223.1 -42.85 219.95 -46 216.65 -48.65 219.4 -45.5 221.9 -41.95 224.4 -38.4 226.45 -34.65 226.5 -34.55 228 -31.7 229.45 -28.9 231.35 -23.8 233.2 -18.75 234.45 -11.95 235.7 -5.1 235.4 2.5 235.15 10.1 233.65 17.75 232.1 25.45 229.55 32.45 230.1 28.5 230.25 24.05 230.45 19.6 230.1 15.1 229.8 10.65 228.95 6.6 228.15 2.6 227.15 -0.45 226.15 -3.5 225.35 -5.35
L 224.7 -5.3
Q 225.169140625 -0.996484375 225.05 3.25 224.9 8.55 224 13.75 223.1 10.2 221.3 5.75 219.45 1.35 216.8 -3.05 214.1 -7.45 210.55 -11 207.15 -14.55 203.4 -17.15 199.7 -19.7 196.2 -21.55 192.75 -23.35 190.2 -24.65 190.25 -24.6 191.3 -22.4 192.3 -20.15 193.5 -16.55 194.55 -13.1 194.7 -9.45 194.9 -5.85 194.35 -2.9 193.75 -5 191.5 -7.95 189.25 -10.9 185.5 -14.05 181.7 -17.25 176.5 -20.05 171.3 -22.9 164.8 -24.85 158.85 -26.75 153.15 -27.95 147.5 -29.2 142.9 -29.95 139.4765625 -30.5453125 137.05 -31
L 137.05 -30.45
Q 138.65 -29.6 141.3 -28.1 143.9 -26.55 146.95 -24.6 149.95 -22.6 152.8 -20.35 155.6 -18.1 157.9 -15.95 160.25 -13.85 161.7 -12.25 160.3 -13.05 156.45 -14.9 152.55 -16.8 146.5 -19.1 140.45 -21.4 132.45 -23.55 124.45 -25.65 114.75 -26.95 110.05 -27.6 105.05 -28.1 101 -28.65 96.7 -28.8 92.4 -28.95 88 -28.7 83.6 -28.45 79.3 -27.8 70.6 -26.55 63.25 -24.6 55.85 -22.65 50.85 -20.9 39.9 -17.15 28.85 -11.5 17.75 -5.9 7.15 2.45 4.1 5 1.6 5.05 -0.9 5.1 -2.4 3.6 -3.45 2.55 -3.7 0.8 -3.9 -1 -3.3 -3.15 -2.75 -5.3 -1.45 -7.4 0.7 -11.05 4.65 -16.65 8.65 -22.2 14.15 -29.1 19.65 -36 26.4 -43.6 33.2 -51.2 40.95 -58.9 48.65 -66.65 57.1 -73.85 65.15 -80.75 74.4 -86.7 83.65 -92.65 93.85 -96.9 102.5 -100.85 110.5 -103.55 Z"/>
</g>

<g id="RD_FrontLeg_3_4_hoof_6_Layer0_0_FILL">
<path fill="#9EDBF8" stroke="none" d="
M -0.95 -17.2
Q -8.6921875 -16.7904296875 -12.35 -12.4 -15.971875 -8.0099609375 -18.15 -4 -20.324609375 0.0544921875 -21.9 7.4 -23.42421875 14.7861328125 -17.1 18.5 -10.7796875 22.268359375 0.15 20.85 11.0783203125 19.4369140625 14.05 14.5 17.0837890625 9.596484375 17.4 1.25 17.7197265625 -7.051171875 12.3 -12.35 6.8671875 -17.5837890625 -0.95 -17.2 Z"/>
</g>

<g id="RD_KneePatch_1_Layer0_0_FILL">
<path fill="#6DABDD" stroke="none" d="
M 10.75 -8.3
L 10.75 -8.45
Q 10.999609375 -9.6171875 11 -10.9 11.0111328125 -16.75078125 6.7 -21.15 2.4033203125 -25.5216796875 -3.55 -25.85 -9.52421875 -26.1814453125 -13.85 -22.55 -18.2634765625 -18.8869140625 -18.25 -13.75
L -18.25 -13.7
Q -18.333203125 -9.8595703125 -15.45 -3.75
L -15.4 -3.65 -15.4 -3.6
Q -12.6767578125 2.0408203125 -9.8 10.1
L -9.75 10.2
Q -9.74140625 10.22421875 -9.75 10.25
L -9.75 10.25
Q -6.684765625 18.7166015625 -4.1 21.8
L -4.05 21.85
Q -1.2443359375 25.3462890625 3.45 25.6
L 3.5 25.6
Q 8.171875 25.7728515625 11.55 22.6 14.949609375 19.4423828125 15.4 15.75 15.955859375 12.0994140625 13.1 9.2 8.4591796875 3.042578125 10.65 -7.8 10.721875 -8.034375 10.75 -8.3 Z"/>
</g>

<g id="RD_HindLeg_3_4rear_lower_2_Layer1_0_FILL">
<path fill="#9EDBF8" stroke="none" d="
M -5.65 -3.6
Q -13.0958984375 2.169140625 -8.9 12.2 -5.18671875 19.70546875 7.6 6.9 17.0154296875 -1.388671875 11.5 -5.15 1.836328125 -8.4703125 -5.65 -3.6 Z"/>
</g>

<g id="RD_HindLeg_3_4rear_lower_2_Layer0_0_FILL">
<path fill="#9EDBF8" stroke="none" d="
M -10.2 3.35
Q -15.7921875 31.9404296875 -8.9 59.25
L 24.35 43.05
Q 15.0326171875 27.90546875 13.4 -2.55
L -10.2 3.35 Z"/>
</g>

<g id="RD_HindLeg_3_4_top_3_Layer1_0_FILL">
<path fill="#6DABDD" stroke="none" d="
M -19.65 44.3
Q -19.6541015625 43.8923828125 -19.7 43.45 -19.7474609375 43.891015625 -19.8 44.3
L -19.65 44.3
M 0.85 -4.4
L 0.85 -4.4
Q -8.440625 -7.578515625 -18.8 -4.85 -20.7306640625 -4.3076171875 -22.7 -3.6 -35.693359375 1.456640625 -37.3 12.75 -36.67265625 13.8740234375 -36.05 14.95 -35.9734375 15.0919921875 -35.9 15.2
L -35.5 15.95
Q -32.348046875 1.869921875 -18.8 -1.8 -4.6494140625 -5.201171875 3.15 0.8 4.996875 2.69765625 6.85 5.45 8.5537109375 7.9505859375 9.85 11.55 10.773828125 14.0306640625 11.95 18.6 13.480078125 24.059375 14 30.65 14.6548828125 37.772265625 13.95 44.3
L 16.5 44.3
Q 17.1921875 37.8173828125 16.9 31 16.514453125 22.81796875 14.85 16.7 12.33671875 7.5259765625 8.9 2.55 6.02890625 -1.5513671875 3.15 -3.35 2.012890625 -4.0341796875 0.85 -4.4
L 0.85 -4.4 Z"/>

<path fill="#9EDBF8" stroke="none" d="
M 6.85 5.45
Q 4.996875 2.69765625 3.15 0.8 -4.6494140625 -5.201171875 -18.8 -1.8 -32.348046875 1.869921875 -35.5 15.95
L -35.9 15.2
Q -41.54375 35.5021484375 -19.7 43.4
L -19.7 43.45
Q -19.6541015625 43.8923828125 -19.65 44.3
L 13.95 44.3
Q 14.6548828125 37.772265625 14 30.65 13.480078125 24.059375 11.95 18.6 10.773828125 14.0306640625 9.85 11.55 8.5537109375 7.9505859375 6.85 5.45 Z"/>
</g>

<g id="RD_HindLeg_3_4_top_3_Layer0_0_FILL">
<path fill="#6DABDD" stroke="none" d="
M 8.7 79.1
L 8.7 79.1
Q -3.7240234375 82.317578125 -15.9 55.05 -20.4896484375 46.2076171875 -20.85 37.15 -20.8546875 36.330078125 -20.85 35.45
L -20.85 35.4
Q -22.584375 41.745703125 -21.75 46.8 -20.8296875 51.911328125 -17.95 57.6
L -17.95 57.6
Q -11.971484375 69.1169921875 -6.05 75 -5.2890625 76.075390625 -4.35 77.05
L -4.35 77
Q -0.276953125 80.9404296875 5.2 80.6 7.4673828125 80.5080078125 8.7 79.1
M 14.45 15.7
L 10.9 14.4
Q 12.36328125 19.052734375 13 21.7 14.323046875 26.6453125 14.55 32.3 14.936328125 39.9142578125 12.65 49.15 10.4171875 58.4453125 9.3 62.55 8.17265625 66.672265625 9.1 73.05 9.75390625 77.3060546875 8.75 79.05 9.4486328125 78.3134765625 9.8 77.2 9.9109375 76.9609375 9.95 76.7 10.304296875 75.502734375 10.2 71.5 10.1513671875 67.5421875 11.45 63 12.7974609375 58.489453125 15.1 49.55 17.4509765625 40.6375 17.45 33.45 17.5064453125 26.2955078125 16.1 20.75 15.6138671875 18.894921875 14.45 15.7 Z"/>

<path fill="#9EDBF8" stroke="none" d="
M 12.65 49.15
Q 14.936328125 39.9142578125 14.55 32.3 14.323046875 26.6453125 13 21.7 12.36328125 19.052734375 10.9 14.4
L -8.9 17.15 -20.85 35.45
Q -20.8546875 36.330078125 -20.85 37.15 -20.4896484375 46.2076171875 -15.9 55.05 -3.7240234375 82.317578125 8.7 79.1
L 8.7 79.1 8.75 79.1
Q 8.764453125 79.1033203125 8.75 79.05 9.75390625 77.3060546875 9.1 73.05 8.17265625 66.672265625 9.3 62.55 10.4171875 58.4453125 12.65 49.15 Z"/>
</g>

<g id="RD_KneePatch_0_Layer0_0_FILL">
<path fill="#9EDBF8" stroke="none" d="
M 6.95 -3.8
Q 7.6271484375 -8.4921875 7.65 -8.75
L 7.65 -8.75
Q 7.6830078125 -8.7876953125 7.7 -8.85 7.850390625 -9.7474609375 7.85 -10.75 7.8390625 -15.39921875 4.4 -18.9 0.946484375 -22.4283203125 -3.85 -22.7 -8.6259765625 -22.9685546875 -12.1 -20.1 -15.376171875 -17.3716796875 -15.4 -13.55
L -15.4 -13.55
Q -15.40625 -10.530078125 -12.6 -4.2
L -12.4 -3.7
Q -12.324609375 -3.590625 -12.3 -3.5 -12.2001953125 -3.3171875 -12.15 -3.15 -12.0654296875 -3.0400390625 -12 -2.95
L -12 -2.9 -11.95 -2.8
Q -9.565234375 2.4005859375 -7.1 9.35 -7.0333984375 9.4712890625 -7.05 9.6 -4.2322265625 17.2533203125 -1.9 20.1
L -1.9 20.1
Q 0.112890625 22.6044921875 3.45 22.75 6.435546875 22.852734375 8.7 21.1
L 8.7 21.15
Q 19.876171875 11.2931640625 12.45 5.8 11.055859375 5.381640625 9.7 4.45 9.7404296875 4.5390625 9.75 4.6 8.476171875 3.9505859375 7.75 2.7 6.5830078125 1.1353515625 6.75 -1.95 6.7810546875 -2.8294921875 6.9 -3.8
L 6.95 -3.8 Z"/>
</g>

<g id="WingcycleBACK_2_Layer10_0_FILL">
<path fill="#6DABDD" stroke="none" d="
M 37 -6.65
Q 37.050390625 -6.6880859375 37.1 -6.75 50.335546875 -19.6349609375 46.5 -29 46.4103515625 -29.2171875 46.25 -29.45 41.7830078125 -35.2716796875 28.7 -26.4 17.4875 -18.74375 -0.9 0.45 -0.1814453125 1.894921875 0.55 3.45 1.6841796875 5.8375 2.75 8.3 22.6921875 5.3236328125 37 -6.65 Z"/>
</g>

<g id="WingcycleBACK_2_Layer9_0_FILL">
<path fill="#6DABDD" stroke="none" d="
M 65.65 -83.3
Q 65.4716796875 -83.60859375 65.15 -83.8 56.523828125 -89.20234375 37.15 -62.55 17.97109375 -35.28359375 -2.55 -2.8 -1.01953125 0.11328125 0.55 3.45 0.68203125 3.7279296875 0.8 4 24.068359375 -5.96015625 44.75 -30.2 44.7619140625 -30.201953125 44.75 -30.25 75.3140625 -68.884765625 65.65 -83.3 Z"/>
</g>

<g id="WingcycleBACK_2_Layer8_0_FILL">
<path fill="#6DABDD" stroke="none" d="
M 54.25 -120.2
Q 54.1228515625 -120.2875 53.95 -120.4 51.979296875 -121.60625 49.7 -121.35 49.701953125 -121.3375 49.65 -121.35 35.936328125 -119.6966796875 24.15 -74.15
L 24.15 -74.15
Q 22.4 -67.6875 20.75 -61.45
L 20.75 -61.45
Q 9.494140625 -20.58046875 -3.85 -5.2 -2.3642578125 -2.5275390625 -0.85 0.55 31.3185546875 -34.1439453125 43.25 -60.35
L 43.25 -60.35
Q 53.001171875 -81.4240234375 55.65 -94.45 56.443359375 -98.1314453125 56.75 -101.25
L 56.75 -101.3
Q 58.0880859375 -116.7912109375 54.25 -120.2 Z"/>
</g>

<g id="WingcycleBACK_2_Layer7_0_FILL">
<path fill="#6DABDD" stroke="none" d="
M 22.55 -112.7
Q 18.5953125 -120.483984375 11 -117.45 10.58671875 -117.2828125 10.3 -116.95 -0.312890625 -102.48671875 3.05 -59.75 5.533203125 -27.4564453125 -4.7 -6.8 -3.9439453125 -5.4736328125 -2.3 -2.3 11.3244140625 -17.971484375 19.2 -39.35
L 19.2 -39.35
Q 27.4521484375 -62.1361328125 26.4 -90 26.066015625 -105.989453125 22.55 -112.7 Z"/>
</g>

<g id="WingcycleBACK_2_Layer5_0_FILL">
<path fill="#9EDBF8" stroke="none" d="
M 34.95 -9.15
L 35 -9.2
Q 45.9251953125 -19.7537109375 43.35 -27.05 39.850390625 -30.1693359375 29.8 -23.4 18.70859375 -15.8029296875 0.4 3.15 0.483984375 3.309765625 0.55 3.45 0.976171875 4.347265625 1.4 5.25 21.019921875 2.30234375 34.95 -9.15 Z"/>
</g>

<g id="WingcycleBACK_2_Layer4_0_FILL">
<path fill="#9EDBF8" stroke="none" d="
M 39.3 -60.55
L 39.25 -60.55
Q 19.8236328125 -32.852734375 -0.95 0.35 -0.7232421875 0.79140625 -0.5 1.25 22.0111328125 -8.2244140625 42.05 -31.8
L 42 -31.75
Q 70.12578125 -67.3908203125 62.65 -80.75 56.01953125 -83.6927734375 39.3 -60.55 Z"/>
</g>

<g id="WingcycleBACK_2_Layer3_0_FILL">
<path fill="#9EDBF8" stroke="none" d="
M 50.05 -118.45
L 50.15 -118.4
Q 38.225 -116.3228515625 27.05 -73.4 25.3681640625 -66.9033203125 23.65 -60.65 12.3994140625 -19.65703125 -1.05 -3.8 29.043359375 -36.596875 40.5 -61.55 50.0509765625 -82.28671875 52.65 -95.05
L 52.65 -95.1
Q 53.428515625 -98.5953125 53.7 -101.6 54.873828125 -114.8208984375 52.2 -117.95 51.20546875 -118.521875 50.05 -118.45 Z"/>
</g>

<g id="WingcycleBACK_2_Layer2_0_FILL">
<path fill="#9EDBF8" stroke="none" d="
M 19.7 -111.45
Q 17.1787109375 -116.3333984375 12.65 -115.05 3.0220703125 -100.82890625 6.2 -60.05 8.16171875 -34.83828125 2 -17.3 1.1291015625 -15.2119140625 0.1 -13.35 -1.981640625 -9.5576171875 -4.6 -6.55 -3.607421875 -4.797265625 -2.6 -2.85 0.9283203125 -6.534765625 3.6 -11.4 6.3671875 -16.3693359375 8.25 -22.65 12.770703125 -30.805859375 16.15 -40.1 24.284765625 -62.46015625 23.2 -89.8
L 23.2 -89.85
Q 22.903515625 -105.033203125 19.7 -111.45 Z"/>
</g>

<g id="WingcycleBACK_2_Layer1_0_FILL">
<path fill="#9EDBF8" stroke="none" d="
M 18.1 -57.7
Q 17.85 -57.45 17.1 -53.9 16.35 -50.4 16.35 -49.45 16.35 -44.9 14.9 -43.75 13.4 -42.6 13.4 -39.3 13.4 -31.6669921875 -3.45 -4.45 -1.906640625 -0.7244140625 -0.4 2 1.1587890625 4.730859375 2.55 7.95 4.0865234375 7.07890625 9.35 4.55 14.61328125 2.0828125 15.5 -0.55 8.2853515625 0.596484375 3.9 1.7 5.560546875 -0.01796875 5.05 -1.55 4.539453125 -3.0263671875 1.95 -2.25 9.35 -15.15 14.15 -29.3 15.6 -28.35 16.4 -30.1 17 -31.35 17 -32.85 17 -33.3279296875 17.15 -34.85 17.4982421875 -35.39453125 18.2 -37.5 19 -40.1 19 -40.95 19 -41.95 19.95 -51
L 20.45 -61.4
Q 20.45 -62.35 19.25 -64.4
L 18.95 -64.4
Q 19.29140625 -61.858203125 18.6 -56.3 18.383203125 -56.8998046875 18.1 -57.7 Z"/>
</g>

<g id="RD_FrontLeg_3_4_hoof_11_Layer0_0_FILL">
<path fill="#6DABDD" stroke="none" d="
M 17 -14.7
L 17 -14.75
Q 13.2947265625 -22.103515625 5.85 -24.55 -1.5326171875 -26.9390625 -8.25 -22.9
L -8.3 -22.9
Q -14.2681640625 -19.2318359375 -16.65 -12.25 -16.7095703125 -12.1240234375 -16.75 -12 -18.8623046875 -5.1681640625 -20.1 3.15 -20.090234375 3.22890625 -20.1 3.3 -20.9037109375 14.259375 -8.95 21.8 -8.87421875 21.828125 -8.8 21.85 -2.87265625 24.74140625 3.8 22.85
L 3.85 22.8
Q 18.45859375 17.8275390625 19.55 4.35
L 19.55 4.45
Q 20.3158203125 -0.8623046875 19.1 -7.5 18.6923828125 -11.2048828125 17 -14.7
M 14.6 -13.25
L 14.6 -13.3
Q 15.707421875 -11.0302734375 16.15 -8.7 16.17109375 -8.456640625 16.2 -8.25 16.312109375 -7.805078125 16.4 -7.4 16.6583984375 -5.9748046875 16.8 -4.65 17.44453125 0.0908203125 16.9 4 16.8861328125 4.065625 16.85 4.1 15.7603515625 15.616796875 3.05 19.95
L 3.1 19.9
Q -2.6326171875 21.560546875 -7.75 19.1
L -7.6 19.15
Q -17.842578125 12.691796875 -17.4 3.45 -16.7109375 -1.0279296875 -15.8 -5.1 -15.2990234375 -7.1427734375 -14.75 -9.1
L -14.65 -9.45
Q -14.5974609375 -9.6119140625 -14.55 -9.8 -14.376953125 -10.4140625 -14.2 -11.05 -14.1177734375 -11.2125 -14.1 -11.4
L -14.05 -11.4
Q -11.9736328125 -17.192578125 -6.95 -20.25
L -7 -20.25
Q -1.2203125 -23.706640625 5.1 -21.65 11.4658203125 -19.561328125 14.6 -13.25 Z"/>

<path fill="#9EDBF8" stroke="none" d="
M 14.6 -13.3
L 14.6 -13.25
Q 11.4658203125 -19.561328125 5.1 -21.65 -1.2203125 -23.706640625 -7 -20.25
L -6.95 -20.25
Q -11.9736328125 -17.192578125 -14.05 -11.4
L -14.1 -11.4
Q -14.1177734375 -11.2125 -14.2 -11.05 -14.376953125 -10.4140625 -14.55 -9.8 -14.5974609375 -9.6119140625 -14.65 -9.45
L -14.75 -9.1
Q -15.2990234375 -7.1427734375 -15.8 -5.1 -16.7109375 -1.0279296875 -17.4 3.45 -17.842578125 12.691796875 -7.6 19.15
L -7.75 19.1
Q -2.6326171875 21.560546875 3.1 19.9
L 3.05 19.95
Q 15.7603515625 15.616796875 16.85 4.1 16.8861328125 4.065625 16.9 4 17.44453125 0.0908203125 16.8 -4.65 16.6583984375 -5.9748046875 16.4 -7.4 16.312109375 -7.805078125 16.2 -8.25 16.17109375 -8.456640625 16.15 -8.7 15.707421875 -11.0302734375 14.6 -13.3 Z"/>
</g>

<g id="RD_FrontLeg_3_4_upper_20_Layer1_0_FILL">
<path fill="#9EDBF8" stroke="none" d="
M 5.5 -1.05
L -5.95 -1.05
Q -23.45 30.8 -32.7 58.35
L 11.65 62.95
Q 12.4 41.65 5.5 -1.05 Z"/>
</g>

<g id="RD_HoofWrinkle_2_Layer0_0_FILL">
<path fill="#6DABDD" stroke="none" d="
M -6.15 0.85
Q -6.28046875 0.943359375 -6.4 1.05
L -6.05 1
Q 0.4029296875 -1.28125 5.95 0.8
L 6.4 0.9
Q 6.229296875 0.7560546875 6.05 0.6 3.57890625 -1.2400390625 -0.2 -1.1 -3.897265625 -1.0052734375 -6.15 0.85 Z"/>
</g>

<g id="RD_Torso_0_Layer1_0_FILL">
<path fill="#6DABDD" stroke="none" d="
M 23.2 -25.3
L 23.15 -25.3
Q 13.6134765625 -36.3685546875 0.1 -36.35 -13.413671875 -36.3685546875 -23 -25.3
L -23 -25.3
Q -33.85 -12.65 -33.5 1.85 -33 18.5 -26.15 26.5 -21.66640625 31.7732421875 -13.9 34.5 -7.2111328125 36.9048828125 0.1 36.9 17.13203125 36.8990234375 25.65 26.85 28.45 23.6 30.65 17.8 33.45 10.3 33.7 1.85 34.05 -12.65 23.2 -25.3
M 0.1 -33.35
Q 12.2779296875 -33.331640625 20.9 -23.35
L 20.9 -23.35 20.9 -23.35
Q 30.45 -12.15 30.7 1.85 30.95 16.1 23.35 24.9 15.568359375 33.90078125 0.1 33.9 -6.6890625 33.8951171875 -12.9 31.65 -19.83359375 29.2265625 -23.85 24.55 -30.2 17 -30.5 1.15 -30.7 -11.65 -20.7 -23.35
L -20.75 -23.35 -20.7 -23.35
Q -12.069921875 -33.331640625 0.1 -33.35 Z"/>

<path fill="#F4B6D1" stroke="none" d="
M -20.7 -23.35
L -20.7 -23.35 -20.75 -23.35 -20.7 -23.35
M 20.9 -23.35
L 20.9 -23.35 20.9 -23.35 20.9 -23.35 Z"/>

<path fill="#9EDBF8" stroke="none" d="
M 20.9 -23.35
Q 12.2779296875 -33.331640625 0.1 -33.35 -12.069921875 -33.331640625 -20.7 -23.35
L -20.7 -23.35
Q -30.7 -11.65 -30.5 1.15 -30.2 17 -23.85 24.55 -19.83359375 29.2265625 -12.9 31.65 -6.6890625 33.8951171875 0.1 33.9 15.568359375 33.90078125 23.35 24.9 30.95 16.1 30.7 1.85 30.45 -12.15 20.9 -23.35
L 20.9 -23.35 Z"/>
</g>

<g id="RD_Prun_Mane_cycle_2_Layer0_0_FILL">
<path fill="#672E8A" stroke="none" d="
M 106.75 0.95
L 106.7 0.9
Q 106.55 0.85 106.35 0.8 105.7 0.65 105.2 0.85 105.9 0.8 106.75 0.95
M 77.95 -4.65
Q 73.95 -5 70.35 -5.15 66.6 -5.15 63.05 -4.95 59.35 -4.65 55.6 -4.15 62.15 -9.35 70.25 -13.15 70.65 -13.4 71.2 -13.65 67.2 -12.8 63.6 -11.55 57.15 -9.45 51.5 -6.9 45.7 -4.15 40.25 -1.55 34.55 1.15 29 3.65 21.45 7.05 13.5 10.05 5.4 12.95 -2.95 15.05 -11.4 17.1 -20.65 18.15 -20.25 34.95 -19.85 51.75 -9.55 49.55 -0.25 46.5 8.85 43.3 17.3 39.5 25.55 35.6 32.95 31.45 40.25 27.1 46.75 22.95 50 20.7 53.4 18.6 56.85 16.4 59.9 14.4 62.85 12.5 65.95 10.8 68.95 8.85 71.9 7.5 74.6 6.1 78.25 4.9 81.7 3.55 85.75 2.6 89.6 1.35 93.25 0.65 96.7 -0.15 99.7 -0.55 97 -1.65 93.45 -2.5 89.8 -3.15 85.9 -3.75 81.85 -4.2 77.95 -4.65 Z"/>

<path fill="#1D9AD6" stroke="none" d="
M 59.4 -60.85
Q 51.9 -59.8 47 -58.35 42.2 -57.1 39.2 -55.85 36.65 -55.05 33.45 -53.8 30.15 -52.45 26.2 -50.9 22.35 -49.3 18.1 -47.7 13.8 -46.05 9.65 -44.55 5.3 -43.1 1.35 -42 -3.45 -40.6 -8 -40 -12.4 -39.2 -15.95 -39 -19.35 -38.8 -21.55 -38.8 -23.75 -38.6 -23.95 -38.75 -23.45 -15.35 -22.95 7.65 -22.45 30.8 -21.75 54.15 -21.65 54.1 -19.7 53.8 -17.6 53.45 -14.05 52.65 -10.35 51.85 -5.6 50.65 -0.85 49.35 4.5 47.8 9.85 46.05 15.6 43.9 21.2 41.65 26.75 39 35.1 34.75 42.25 30.85 49.5 26.6 55.3 23.1 61.2 19.6 65.3 17.1 69.35 14.45 71.15 13.6 72.4 12.45 75.25 11.1 77.85 9.65 81.4 8.35 84.8 6.8 88.35 5.65 91.85 4.2 94.9 3.3 97.2 2.05 99.85 1.55 102.4 0.95 104.75 0.9 105 0.8 105.2 0.85 105.7 0.65 106.35 0.8 106.55 0.85 106.7 0.9
L 106.75 0.9
Q 106.6 0.85 106.4 0.8 107.5 0.65 108.4 0.7 109.6119140625 0.658203125 109.85 0.7 109.6263671875 0.6017578125 108.65 0.05 107.45 -0.65 105.45 -1.7 103.35 -2.8 100.8 -3.9 98.15 -4.95 95.1 -5.8 91.55 -6.65 87.6 -7.25 83.4 -7.85 79.35 -8.2 75 -8.35 71.4 -8.3 67.5 -8 64.6 -7.5 68.45 -9.25 73.5 -11.15 78.55 -13 84.75 -14.85 88.6 -16.05 92.85 -17.05 96.9 -18.15 101.3 -18.6 105.55 -19.15 109.8 -18.9 116 -18.75 121.2 -18.15 126.45 -17.65 130.1 -17.15 133.8 -16.55 135.85 -16.3 137.7 -15.85 137.9 -16 137.65 -15.9 135.35 -18.15 132.85 -20.2 128.35 -23.8 123.7 -27.3 117.4 -31.55 114.85 -33 112.25 -34.65 109.35 -36.15 105.8 -37.6 101.9 -38.9 98.6 -40 95 -40.9 92 -41.55 85.6 -42.8 80.35 -43.45 74.9 -43.95 71 -44 74.65 -45 79.65 -46.55 84.4 -48.1 90.75 -49.4 97 -50.7 104.6 -51 108.85 -50.9 112.05 -50.6 115.25 -50.45 117.65 -50.1 120.1 -49.8 121.9 -49.65 124.65 -49.15 126.15 -49 126.9 -48.9 127.65 -48.8 126.45 -49.35 125.4 -50.05 123.2 -51.4 118.6 -53.55 116.3 -54.55 112.95 -55.9 109.35 -57.25 104.75 -58.4 100.25 -59.35 96.35 -60.05 92.25 -60.65 88.55 -61.05 80.85 -61.7 74.15 -61.7 70.65 -61.6 67.5 -61.7 65.7 -61.4 63.45 -61.3 61.25 -61 59.4 -60.85
M 47.8 -53.45
Q 52.4 -54.9 58.15 -55.95 62.4 -56.7 66.25 -57.05 69.85 -57.4 73.4 -57.55 76.8 -57.65 80.35 -57.7 84 -57.6 87.85 -57.5 91.55 -57.35 96.05 -56.8 100.15 -56.3 105.45 -55.2 99.4 -55 94.7 -54.15 89.85 -53.25 85.8 -52.1 81.55 -50.85 78.05 -49.35 74.25 -47.8 70.6 -46.25 66.85 -44.5 62.85 -42.7 66.1 -42.65 68.9 -42.4 71.65 -42 74.35 -41.75 76.8 -41.3 79.65 -40.85 83.7 -40.2 87.9 -39.3 89.1 -38.95 90.3 -38.8 88.65 -38.7 87.2 -38.75 82.2 -38.5 77.6 -38.2 72.95 -37.7 68.25 -36.95 63.5 -36.05 58.55 -34.9 52.45 -32.95 47.55 -31 42.55 -28.9 38.15 -26.95 33.6 -24.9 29.45 -23.05 20.8 -19 12.5 -15.9 4.1 -12.65 -4.5 -10.75 -12.55 -8.75 -21.2 -8.15 -21.4 -22 -21.75 -35.85 -13.95 -35.45 -6.55 -36.6 0.9 -37.7 8.75 -40 16.65 -42.2 25.35 -45.55 28.6 -46.8 32 -48 35.35 -49.2 39.1 -50.55 43.25 -52 47.8 -53.45
M 70.35 -5.15
Q 73.95 -5 77.95 -4.65 81.85 -4.2 85.9 -3.75 89.8 -3.15 93.45 -2.5 97 -1.65 99.7 -0.55 96.7 -0.15 93.25 0.65 89.6 1.35 85.75 2.6 81.7 3.55 78.25 4.9 74.6 6.1 71.9 7.5 68.95 8.85 65.95 10.8 62.85 12.5 59.9 14.4 56.85 16.4 53.4 18.6 50 20.7 46.75 22.95 40.25 27.1 32.95 31.45 25.55 35.6 17.3 39.5 8.85 43.3 -0.25 46.5 -9.55 49.55 -19.85 51.75 -20.25 34.95 -20.65 18.15 -11.4 17.1 -2.95 15.05 5.4 12.95 13.5 10.05 21.45 7.05 29 3.65 34.55 1.15 40.25 -1.55 45.7 -4.15 51.5 -6.9 57.15 -9.45 63.6 -11.55 67.2 -12.8 71.2 -13.65 70.65 -13.4 70.25 -13.15 62.15 -9.35 55.6 -4.15 59.35 -4.65 63.05 -4.95 66.6 -5.15 70.35 -5.15 Z"/>

<path fill="#62BC4E" stroke="none" d="
M 58.15 -55.95
Q 52.4 -54.9 47.8 -53.45 43.25 -52 39.1 -50.55 35.35 -49.2 32 -48 28.6 -46.8 25.35 -45.55 16.65 -42.2 8.75 -40 0.9 -37.7 -6.55 -36.6 -13.95 -35.45 -21.75 -35.85 -21.4 -22 -21.2 -8.15 -12.55 -8.75 -4.5 -10.75 4.1 -12.65 12.5 -15.9 20.8 -19 29.45 -23.05 33.6 -24.9 38.15 -26.95 42.55 -28.9 47.55 -31 52.45 -32.95 58.55 -34.9 63.5 -36.05 68.25 -36.95 72.95 -37.7 77.6 -38.2 82.2 -38.5 87.2 -38.75 88.65 -38.7 90.3 -38.8 89.1 -38.95 87.9 -39.3 83.7 -40.2 79.65 -40.85 76.8 -41.3 74.35 -41.75 71.65 -42 68.9 -42.4 66.1 -42.65 62.85 -42.7 66.85 -44.5 70.6 -46.25 74.25 -47.8 78.05 -49.35 81.55 -50.85 85.8 -52.1 89.85 -53.25 94.7 -54.15 99.4 -55 105.45 -55.2 100.15 -56.3 96.05 -56.8 91.55 -57.35 87.85 -57.5 84 -57.6 80.35 -57.7 76.8 -57.65 73.4 -57.55 69.85 -57.4 66.25 -57.05 62.4 -56.7 58.15 -55.95 Z"/>
</g>

<g id="RD_Neck_0_Layer0_0_FILL">
<path fill="#F4B6D1" stroke="none" d="
M -8.5 -95
L -9.05 -95.1 -9.05 -95.05 -8.5 -95
M 17.15 -95.1
L 17.65 -95.1 17.65 -95.15 17.15 -95.1 Z"/>

<path fill="#9EDBF8" stroke="none" d="
M 17.1 -93.6
L 17.15 -95.1 17.65 -95.15
Q 17.35 -105.8 4.4 -107.35 -8.35 -106.95 -9.05 -95.1
L -8.5 -95 -8.6 -93.5
Q -9 -84.8 -14.05 -36.5 -15 -27.3 -15.7 -19.6
L -15.8 -18.7 -15.8 -18.65 -15.85 -18.1
Q -16.3 -13.5 -18.2 -8 -18.39453125 -5.665625 -1.15 -0.05 24.5900390625 -5.5109375 24.5 -7.4 22.65 -12.8 22.35 -17.25
L 22.35 -17.4 22.25 -18.75
Q 21.65 -26.9 20.8 -36.7 16.9 -82.4 17.1 -93.6 Z"/>

<path fill="#6DABDD" stroke="none" d="
M 4.65 -109.35
Q 4.55 -109.35 4.5 -109.35 -10.35 -108.95 -11.05 -95.15
L -11.5 -95.15 -11.6 -93.65
Q -12 -85 -17.05 -36.8 -18 -27.6 -18.7 -19.85
L -18.85 -18.4
Q -18.85 -18.35 -18.85 -18.25 -19.3 -13.65 -18.2 -8 -16.3 -13.5 -15.85 -18.1
L -15.8 -18.65 -15.8 -18.7 -15.7 -19.6
Q -15 -27.3 -14.05 -36.5 -9 -84.8 -8.6 -93.5
L -8.5 -95 -9.05 -95.05 -9.05 -95.1
Q -8.35 -106.95 4.4 -107.35 17.35 -105.8 17.65 -95.15
L 17.65 -95.1 17.15 -95.1 17.1 -93.6
Q 16.9 -82.4 20.8 -36.7 21.65 -26.9 22.25 -18.75
L 22.35 -17.4 22.35 -17.25
Q 22.65 -12.8 24.5 -7.4 25.65 -12.95 25.35 -17.35 25.35 -17.4 25.35 -17.45
L 25.25 -18.95
Q 24.65 -27.1 23.8 -36.95 19.9 -82.4 20.1 -93.55
L 20.15 -95.05 19.65 -95.05
Q 19.55 -107.6 4.65 -109.35 Z"/>
</g>

<g id="Wingcycle_2_Layer9_0_FILL">
<path fill="#6DABDD" stroke="none" d="
M 37 -6.65
Q 37.050390625 -6.6880859375 37.1 -6.75 50.335546875 -19.6349609375 46.5 -29 46.4103515625 -29.2171875 46.25 -29.45 41.7830078125 -35.2716796875 28.7 -26.4 17.4875 -18.74375 -0.9 0.45 -0.1814453125 1.894921875 0.55 3.45 1.6841796875 5.8375 2.75 8.3 22.6921875 5.3236328125 37 -6.65 Z"/>
</g>

<g id="Wingcycle_2_Layer8_0_FILL">
<path fill="#6DABDD" stroke="none" d="
M 65.65 -83.3
Q 65.4716796875 -83.60859375 65.15 -83.8 56.523828125 -89.20234375 37.15 -62.55 17.97109375 -35.28359375 -2.55 -2.8 -1.01953125 0.11328125 0.55 3.45 0.68203125 3.7279296875 0.8 4 24.068359375 -5.96015625 44.75 -30.2 44.7619140625 -30.201953125 44.75 -30.25 75.3140625 -68.884765625 65.65 -83.3 Z"/>
</g>

<g id="Wingcycle_2_Layer7_0_FILL">
<path fill="#6DABDD" stroke="none" d="
M 54.25 -120.2
Q 54.1228515625 -120.2875 53.95 -120.4 51.979296875 -121.60625 49.7 -121.35 49.701953125 -121.3375 49.65 -121.35 35.936328125 -119.6966796875 24.15 -74.15
L 24.15 -74.15
Q 22.4 -67.6875 20.75 -61.45
L 20.75 -61.45
Q 9.494140625 -20.58046875 -3.85 -5.2 -2.3642578125 -2.5275390625 -0.85 0.55 31.3185546875 -34.1439453125 43.25 -60.35
L 43.25 -60.35
Q 53.001171875 -81.4240234375 55.65 -94.45 56.443359375 -98.1314453125 56.75 -101.25
L 56.75 -101.3
Q 58.0880859375 -116.7912109375 54.25 -120.2 Z"/>
</g>

<g id="Wingcycle_2_Layer6_0_FILL">
<path fill="#6DABDD" stroke="none" d="
M 22.55 -112.7
Q 18.5953125 -120.483984375 11 -117.45 10.58671875 -117.2828125 10.3 -116.95 -0.312890625 -102.48671875 3.05 -59.75 5.533203125 -27.4564453125 -4.7 -6.75 -3.9439453125 -5.4736328125 -2.3 -2.3 11.3244140625 -17.971484375 19.2 -39.35
L 19.2 -39.35
Q 27.4521484375 -62.1361328125 26.4 -90 26.066015625 -105.989453125 22.55 -112.7 Z"/>
</g>

<g id="Wingcycle_2_Layer5_0_FILL">
<path fill="#9EDBF8" stroke="none" d="
M 34.95 -9.15
L 35 -9.2
Q 45.9251953125 -19.7537109375 43.35 -27.05 39.850390625 -30.1693359375 29.8 -23.4 18.70859375 -15.8029296875 0.4 3.15 0.483984375 3.309765625 0.55 3.45 0.976171875 4.347265625 1.4 5.25 21.019921875 2.30234375 34.95 -9.15 Z"/>
</g>

<g id="Wingcycle_2_Layer4_0_FILL">
<path fill="#9EDBF8" stroke="none" d="
M 39.3 -60.55
L 39.25 -60.55
Q 19.8236328125 -32.852734375 -0.95 0.35 -0.7232421875 0.79140625 -0.5 1.25 22.5650390625 -6.5015625 42.05 -31.8
L 42 -31.75
Q 70.12578125 -67.3908203125 62.65 -80.75 56.01953125 -83.6927734375 39.3 -60.55 Z"/>
</g>

<g id="Wingcycle_2_Layer3_0_FILL">
<path fill="#9EDBF8" stroke="none" d="
M 50.15 -118.45
Q 50.1125 -118.428125 50.05 -118.45
L 50.15 -118.4
Q 38.225 -116.3228515625 27.05 -73.4 25.3681640625 -66.9033203125 23.65 -60.65 12.3994140625 -19.65703125 -1.05 -3.8 29.043359375 -36.596875 40.5 -61.55 50.0509765625 -82.28671875 52.65 -95.05
L 52.65 -95.1
Q 53.428515625 -98.5953125 53.7 -101.6 54.873828125 -114.8208984375 52.2 -117.95 51.2384765625 -118.5029296875 50.15 -118.45 Z"/>
</g>

<g id="Wingcycle_2_Layer2_0_FILL">
<path fill="#9EDBF8" stroke="none" d="
M 19.7 -111.45
Q 17.1787109375 -116.3333984375 12.65 -115.05 3.0220703125 -100.82890625 6.2 -60.05 8.16171875 -34.83828125 2 -17.3 1.1291015625 -15.2119140625 0.1 -13.35 -1.981640625 -9.5576171875 -4.6 -6.55 -3.8046875 -4.6 -2.6 -2.85 0.9283203125 -6.534765625 3.6 -11.4 6.3671875 -16.3693359375 8.25 -22.65 12.770703125 -30.805859375 16.15 -40.1 24.284765625 -62.46015625 23.2 -89.8
L 23.2 -89.85
Q 22.903515625 -105.033203125 19.7 -111.45 Z"/>
</g>

<g id="Wingcycle_2_Layer1_0_FILL">
<path fill="#9EDBF8" stroke="none" d="
M 18.95 -64.4
Q 19.2880859375 -61.8314453125 18.6 -56.3 18.383203125 -56.8998046875 18.1 -57.7 17.85 -57.45 17.1 -53.9 16.35 -50.4 16.35 -49.45 16.35 -44.9 14.9 -43.75 13.4 -42.6 13.4 -39.3 13.4 -31.6669921875 -3.45 -4.35 -1.6201171875 -0.7490234375 -0.25 2 1.16328125 4.7390625 2.45 7.65 4.0490234375 5.8326171875 9.2 3.55 14.3390625 1.2595703125 15.5 -0.55 8.2853515625 0.596484375 3.9 1.7 4.3 0.7244140625 4.3 -0.25 4.3 -1.05 1.95 -2.25 9.35 -15.15 14.15 -29.3 15.6 -28.35 16.4 -30.1 17 -31.35 17 -32.85 17 -33.3279296875 17.15 -34.85 17.4982421875 -35.39453125 18.2 -37.5 19 -40.1 19 -40.95 19 -41.95 19.95 -51
L 20.45 -61.4
Q 20.45 -62.35 19.25 -64.4
L 18.95 -64.4 18.95 -64.4 Z"/>
</g>

<g id="Wingcycle_2_Layer0_0_FILL">
<path fill="#6DABDD" stroke="none" d="
M 13.9 -50.15
L 13.95 -50.15
Q 16.6630859375 -51.3716796875 18.05 -50
L 18.1 -49.95 18.1 -49.9
Q 21.4564453125 -46.392578125 19.1 -37.85 17.9470703125 -33.6892578125 14.45 -23.85
L 16.65 -26.85
Q 30.397265625 -45.8076171875 36.6 -43.3
L 36.5 -43.4
Q 41.058984375 -40.3037109375 36.85 -31.55 30.4685546875 -18.224609375 12.2 -6.4
L 15.55 -7.75
Q 23.1234375 -10.95703125 27.3 -11.15 30.471484375 -11.278515625 31.25 -9.4 31.609765625 -2.8173828125 7.95 4.3 7.4521484375 4.4466796875 7.2 4.9 6.9521484375 5.3560546875 7.1 5.85 7.246484375 6.348828125 7.7 6.6 8.155078125 6.84765625 8.65 6.7 35.050390625 -1.2408203125 33.75 -9.75
L 33.7 -9.85 33.7 -9.95
Q 32.6908203125 -13.8681640625 27.2 -13.65 26.27109375 -13.617578125 25.2 -13.45 34.2078125 -20.190234375 39.1 -30.45 44.45703125 -41.603515625 37.8 -45.5
L 37.7 -45.6 37.65 -45.6
Q 31.7388671875 -48.5072265625 21.4 -36.85 21.453125 -37.0068359375 21.5 -37.2 24.3232421875 -47.4349609375 19.95 -51.65 19.907421875 -51.6697265625 19.85 -51.7
L 19.9 -51.65
Q 17.5544921875 -54.5140625 12.95 -52.5 12.9505859375 -52.4615234375 12.9 -52.45
L 12.95 -52.45
Q 6.2337890625 -49.9140625 3.4 -34.55 3.33125 -34.0224609375 3.6 -33.6 3.91875 -33.17109375 4.4 -33.1 4.927734375 -32.980859375 5.35 -33.3 5.778515625 -33.56875 5.85 -34.1 8.3666015625 -47.68828125 13.9 -50.15 Z"/>
</g>

<g id="RD_Skull_2_Layer0_0_FILL">
<path fill="#6DABDD" stroke="none" d="
M 6.5 -52
Q 3.8232421875 -52.20390625 0.9 -52.25 -3.4978515625 -52.3205078125 -7.7 -51.65 -12.3541015625 -50.8947265625 -16.75 -49.2 -18.8431640625 -48.379296875 -20.75 -47.4 -26.1625 -44.578125 -30.1 -40.4 -30.1439453125 -40.3251953125 -30.25 -40.25 -30.637890625 -39.783203125 -31.05 -39.3 -31.219921875 -39.1001953125 -31.4 -38.9 -31.4419921875 -38.85 -31.5 -38.8 -32.3697265625 -37.730078125 -33.2 -36.65 -46.1 -20.0744140625 -46.1 -1.1 -46.1 11.3 -43.4 20.4 -40.6 29.75 -34.65 36.5 -27.65 44.55 -18.5 48.75 -9.25 53.05 1.5 53.05 22.65 53.05 37 36.5 42.8 29.9 45.45 20.1 47.85 11.1 47.9 -1.7 47.8548828125 -21.3345703125 36.05 -36.65 35.2205078125 -37.7357421875 34.3 -38.8 34.2921875 -38.8501953125 34.25 -38.9 33.8369140625 -39.4025390625 33.4 -39.9 33.247265625 -40.076171875 33.1 -40.25 33.019921875 -40.3251953125 32.95 -40.4 29.2015625 -44.5505859375 24.15 -47.25 20.981640625 -48.9029296875 17.3 -50 13.7369140625 -51.0845703125 9.45 -51.65 8.0302734375 -51.842578125 6.5 -52
M 30.35 -38.8
Q 30.7716796875 -38.38359375 31.15 -37.95 31.7154296875 -37.3041015625 32.25 -36.65 44.8521484375 -21.4498046875 44.9 -1.7 44.85 10.45 42.6 18.95 40.15 28.25 34.75 34.55 21.25 50.05 1.5 50.05 -8.55 50.05 -17.25 46.05 -25.8 42.1 -32.4 34.55 -38 28.1 -40.6 19.25 -43.1 10.65 -43.1 -1.1 -43.1 -20.5748046875 -29.4 -36.65 -29.10546875 -37.00078125 -28.8 -37.35 -28.15 -38.0984375 -27.5 -38.8 -27.4234375 -38.8501953125 -27.4 -38.9 -26.6900390625 -39.5982421875 -26 -40.25 -25.883984375 -40.325390625 -25.8 -40.4 -23.431640625 -42.5267578125 -20.75 -44.15 -17.675390625 -45.96484375 -14.2 -47.15 -7.25 -49.55 0.9 -49.25 10.95 -48.85 16.65 -47.2 20.4560546875 -46.0625 23.7 -44.15 26.42265625 -42.547265625 28.75 -40.4 28.8318359375 -40.325390625 28.9 -40.25 29.6146484375 -39.5994140625 30.25 -38.9 30.3234375 -38.85 30.35 -38.8 Z"/>

<path fill="#9EDBF8" stroke="none" d="
M 31.15 -37.95
Q 30.7716796875 -38.38359375 30.35 -38.8 30.3234375 -38.85 30.25 -38.9 29.6146484375 -39.5994140625 28.9 -40.25 28.8318359375 -40.325390625 28.75 -40.4 26.42265625 -42.547265625 23.7 -44.15 20.4560546875 -46.0625 16.65 -47.2 10.95 -48.85 0.9 -49.25 -7.25 -49.55 -14.2 -47.15 -17.675390625 -45.96484375 -20.75 -44.15 -23.431640625 -42.5267578125 -25.8 -40.4 -25.883984375 -40.325390625 -26 -40.25 -26.6900390625 -39.5982421875 -27.4 -38.9 -27.4234375 -38.8501953125 -27.5 -38.8 -28.15 -38.0984375 -28.8 -37.35 -29.10546875 -37.00078125 -29.4 -36.65 -43.1 -20.5748046875 -43.1 -1.1 -43.1 10.65 -40.6 19.25 -38 28.1 -32.4 34.55 -25.8 42.1 -17.25 46.05 -8.55 50.05 1.5 50.05 21.25 50.05 34.75 34.55 40.15 28.25 42.6 18.95 44.85 10.45 44.9 -1.7 44.8521484375 -21.4498046875 32.25 -36.65 31.7154296875 -37.3041015625 31.15 -37.95 Z"/>
</g>

<g id="RD_Mouth_front_chin__offcenter_0_Layer1_0_FILL">
<path fill="#9EDBF8" stroke="none" d="
M 37 3
Q 35.4482421875 1.9125 32.5 3.5 11.965625 12.7740234375 -7.2 2.65 -15.0669921875 10.61171875 -30.45 4.2 -34.428515625 2.26328125 -35.1 3.05 -26.379296875 13.5955078125 -14.6 17.85 3.9671875 24.438671875 20.35 16.8 31.5595703125 11.51484375 37 3 Z"/>
</g>

<g id="RD_Hair_07_9_Layer0_0_FILL">
<path fill="#FDF6AE" stroke="none" d="
M 8.55 -0.95
Q 6.398046875 -3.252734375 4 -5.7 1.6525390625 -8.1046875 -7.5 -14.6 -5.7623046875 -3.8810546875 -4.15 6 -0.330078125 1.0494140625 6.3 1.75 10.7513671875 1.3603515625 8.55 -0.95 Z"/>

<path fill="#1E98D5" stroke="none" d="
M 4 -5.7
Q 6.398046875 -3.252734375 8.55 -0.95 10.7513671875 1.3603515625 6.3 1.75 -0.330078125 1.0494140625 -4.15 6 -5.039453125 10.891015625 -3.65 9.65 -0.7775390625 5.3033203125 8.1 3.55 16.9814453125 1.8451171875 3.45 -9.7
L -5.35 -16.3
Q -9.184765625 -17.27734375 -7.5 -14.6 1.6525390625 -8.1046875 4 -5.7 Z"/>
</g>

<g id="RD_Ear_1_Layer1_0_FILL">
<path fill="#9EDBF8" stroke="none" d="
M 2.45 -35.95
Q 0.95 -33.9 0 -30.55 -0.8 -27.75 -2.05 -18.8
L -3.15 -10.35
Q -3.116796875 -10.236328125 -3.1 -10.15 2.44375 8.682421875 9.05 22.35 14.6 19.45 17.75 9.75 20.45 1.45 20.2 -4.95
L 20.2 -5
Q 19.9 -11.55 18.15 -17.5 16.5 -23.1 13.2 -29.1 8.85 -37.1 4.4 -37.75 3.55 -37.55 2.45 -35.95
M 9.35 -27.8
Q 14.55 -18.3 14.7 -10.15 14.8462890625 -2.0525390625 9.8 6.35 9.6794921875 6.5888671875 9.55 6.8
L 9.7 6.35
Q 15.65 -8.15 9.35 -27.8 Z"/>

<path fill="#6DABDD" stroke="none" d="
M 14.7 -10.15
Q 14.55 -18.3 9.35 -27.8 15.65 -8.15 9.7 6.35
L 9.55 6.8
Q 9.6794921875 6.5888671875 9.8 6.35 14.8462890625 -2.0525390625 14.7 -10.15
M 15.85 -30.55
Q 13 -35.75 9.45 -38.55 6.65 -40.8 4.65 -40.75
L 4.6 -40.75
Q 2.85 -41.05 0.95 -38.85 -1.1 -36.45 -2.85 -31.55 -4.3 -27.4 -4.65 -20.95 -5.0384765625 -13.7126953125 -3.3 -10.3
L -3.3 -10.3
Q -3.24765625 -10.1875 -3.2 -10.1
L -3.15 -10.35 -2.05 -18.8
Q -0.8 -27.75 0 -30.55 0.95 -33.9 2.45 -35.95 3.55 -37.55 4.4 -37.75 8.85 -37.1 13.2 -29.1 16.5 -23.1 18.15 -17.5 19.9 -11.55 20.2 -5
L 20.2 -4.95
Q 20.45 1.45 17.75 9.75 14.6 19.45 9.05 22.35
L 9.65 22.5
Q 15.5001953125 20.8228515625 19.5 11.75 23.5525390625 2.6892578125 23.2 -5.1 22.9 -12 21.05 -18.25 19.3 -24.2 15.85 -30.55 Z"/>
</g>

<g id="Mask_Mask_RD2_Eyewhite_3_4_1_Layer1_0_FILL">
<path fill="#FFFFFF" stroke="none" d="
M 19.8 -17.45
Q 18.8931640625 -19.258984375 17.7 -20.7
L 17.7 -20.65
Q 13.5314453125 -24.9595703125 7.3 -25.2 2.1509765625 -25.3900390625 -3.35 -22.8
L -3.35 -22.85
Q -5.1125 -21.846875 -6.85 -20.55 -8.8 -18.75 -10.55 -16.85 -12.1 -15.2 -13.4 -13.35 -14.85 -11.3 -16.1 -9.2 -17.35 -7 -18.45 -4.7 -19 -3.6 -19.55 -2.4 -20.067578125 -0.894921875 -20.5 0.65 -23.4314453125 11.3853515625 -19.45 19.15 -15.521484375 26.9826171875 -7.05 27.3 -6.3294921875 27.3373046875 -5.65 27.3 2.151171875 27.0375 9.6 20.25 16.1873046875 14.3169921875 19.35 6.15 20.1560546875 4.2439453125 20.75 2.2 22.1896484375 -3.109765625 21.95 -7.7 21.83984375 -13.462890625 19.8 -17.45 Z"/>
</g>

<g id="RD2_Eyewhite_3_4_1_Layer1_0_FILL">
<path fill="#FFFFFF" stroke="none" d="
M 19.8 -17.45
Q 18.8931640625 -19.258984375 17.7 -20.7
L 17.7 -20.65
Q 13.5314453125 -24.9595703125 7.3 -25.2 2.1509765625 -25.3900390625 -3.35 -22.8
L -3.35 -22.85
Q -5.1125 -21.846875 -6.85 -20.55 -8.8 -18.75 -10.55 -16.85 -12.1 -15.2 -13.4 -13.35 -14.85 -11.3 -16.1 -9.2 -17.35 -7 -18.45 -4.7 -19 -3.6 -19.55 -2.4 -20.067578125 -0.894921875 -20.5 0.65 -23.4314453125 11.3853515625 -19.45 19.15 -15.521484375 26.9826171875 -7.05 27.3 -6.3294921875 27.3373046875 -5.65 27.3 2.151171875 27.0375 9.6 20.25 16.1873046875 14.3169921875 19.35 6.15 20.1560546875 4.2439453125 20.75 2.2 22.1896484375 -3.109765625 21.95 -7.7 21.83984375 -13.462890625 19.8 -17.45 Z"/>
</g>

<g id="RD2_Iris_0_Layer2_0_FILL">
<path fill="url(#Gradient_1)" stroke="none" d="
M 17.7 -13.05
Q 13.45 -21.1 5.25 -22.95 -3 -24.85 -10.3 -19.4 -17.6 -14 -19.75 -4.45 -21.95 5.05 -17.7 13.1 -13.45 21.15 -5.2 23 3 24.85 10.3 19.45 17.6 14 19.8 4.5 21.95 -5 17.7 -13.05 Z"/>
</g>

<g id="RD2_Iris_0_Layer1_0_FILL">
<path fill="#FFB8E0" stroke="none" d="
M -6.5 7.8
Q -17.7408203125 11.0453125 -18.7 11 -17.71953125 13.7845703125 -15.6 16.55
L 0.15 6.6 -6.5 7.8 Z"/>
</g>

<g id="RD2_Iris_0_Layer0_0_FILL">
<path fill="#DB53A2" stroke="none" d="
M -20.2 5.15
Q -19.7849609375 8.212109375 -18.65 11.05
L 0.45 6.45 -20.2 5.15 Z"/>
</g>

<g id="RD2_Pupil_0_Layer0_0_FILL">
<path fill="#000000" stroke="none" d="
M 12.45 -9.6
Q 10.5203125 -15.9396484375 5.5 -17.45 0.487109375 -18.9677734375 -4.7 -14.75 -9.854296875 -10.4658203125 -12.15 -2.95 -14.402734375 4.56015625 -12.5 10.9 -10.484375 17.37421875 -5.45 18.9 -0.4265625 20.40234375 4.7 16.1 9.91484375 11.9001953125 12.15 4.4 14.43828125 -3.12578125 12.45 -9.6 Z"/>
</g>

<g id="RD2_Hilights_0_Layer1_0_FILL">
<path fill="#FFFFFF" stroke="none" d="
M -8.15 11.5
Q -8.11953125 11.614453125 -8.1 11.7 -8.0240234375 11.8134765625 -7.95 11.95 -7.7912109375 12.381640625 -7.55 12.75 -7.4705078125 12.844140625 -7.4 12.9 -7.2078125 13.113671875 -6.95 13.3 -6.50546875 13.6888671875 -6.05 13.8 -5.996875 13.8515625 -5.95 13.85 -5.6171875 13.9560546875 -5.2 13.95 -3.9484375 13.97890625 -3.4 12.75 -3.3849609375 12.698046875 -3.4 12.65 -3.1736328125 12.1291015625 -3.25 11.35 -3.259765625 11.128515625 -3.35 10.85 -3.3462890625 10.7740234375 -3.4 10.7 -3.7330078125 9.7962890625 -4.4 9.15 -4.435546875 9.108203125 -4.5 9.05 -4.72890625 8.870703125 -4.9 8.75 -5.579296875 8.305859375 -6.3 8.4 -7.123828125 8.352734375 -7.65 8.9 -7.813671875 9.0921875 -8 9.35 -8.0568359375 9.446484375 -8.1 9.55 -8.510546875 10.357421875 -8.15 11.5
M 3.85 -8.7
L 3.8 -8.75
Q 1.3921875 -11.8771484375 -1.15 -11.7 -4.233984375 -11.8736328125 -5.6 -8.2
L -5.6 -8.15
Q -6.528125 -5.45625 -5.75 -1.6 -5.0052734375 2.07265625 -3.05 4.6
L -3.05 4.6
Q -0.6041015625 7.82109375 2 7.65 5.12890625 7.837890625 6.4 4 7.375390625 1.40078125 6.6 -2.4
L 6.6 -2.45
Q 5.8041015625 -6.1376953125 3.85 -8.7 Z"/>
</g>

<g id="RD2_Iris_2_Layer2_0_FILL">
<path fill="url(#Gradient_1)" stroke="none" d="
M 17.7 -13.05
Q 13.45 -21.1 5.25 -22.95 -3 -24.85 -10.3 -19.4 -17.6 -14 -19.75 -4.45 -21.95 5.05 -17.7 13.1 -13.45 21.15 -5.2 23 3 24.85 10.3 19.45 17.6 14 19.8 4.5 21.95 -5 17.7 -13.05 Z"/>
</g>

<g id="RD2_Iris_2_Layer1_0_FILL">
<path fill="#FFB8E0" stroke="none" d="
M 13.45 16.85
Q 16.0119140625 13.9716796875 17.35 11.1 16.4345703125 11.1580078125 5.55 8.1
L -0.15 6.5 13.45 16.85 Z"/>
</g>

<g id="RD2_Iris_2_Layer0_0_FILL">
<path fill="#DB53A2" stroke="none" d="
M 17.35 11.4
Q 18.9265625 8.2283203125 19.75 5.1 9.7240234375 5.888671875 -0.25 6.5
L 17.35 11.4 Z"/>
</g>

<g id="RD2_Blink_front_0_Layer2_0_FILL">
<path fill="#000000" stroke="none" d="
M 21.9 -5.65
L 23.1 -7.3
Q 23.1501953125 -11.0392578125 22.05 -14.9 21.50234375 -16.8623046875 18.45 -20.35 15.1640625 -24.176953125 10.6 -25 1.2861328125 -26.751171875 -7.55 -20.4 -11.2509765625 -17.658984375 -14.3 -13.75 -17.4216796875 -9.651953125 -19.9 -2.9 -20.3908203125 -1.584375 -20.65 -0.25 -21.45 3.05 -21.55 5.3 -22.05 12.45 -21.05 15.3 -20.5654296875 16.36484375 -20.6 16.05 -21.7583984375 11.3294921875 -18.4 -0.35
L -17.55 -3
Q -15.6931640625 -8.214453125 -12.6 -12.2 -9.701171875 -15.798828125 -7.15 -17.95 8.8515625 -29.4330078125 18.45 -16.6 21.2458984375 -12.47421875 21.9 -5.65 Z"/>
</g>

<g id="RD2_Blink_front_0_Layer1_0_FILL">
<path fill="#000000" stroke="none" d="
M 34.5 -5.75
Q 34.45 -6.95 22.25 -8.95
L 22.65 -6.8
Q 34.55 -4.55 34.5 -5.75 Z"/>
</g>

<g id="RD2_Blink_front_0_Layer1_1_FILL">
<path fill="#000000" stroke="none" d="
M 21 -16.15
L 21.9 -14.05
Q 36.65 -16.1 36.25 -17.25 36.05 -17.8 29.15 -17.1 21.9 -16.25 21 -16.15 Z"/>
</g>

<g id="RD2_Blink_front_0_Layer1_2_FILL">
<path fill="#000000" stroke="none" d="
M 18.2 -19.05
Q 28 -25.85 26.8 -26.7 26 -27.15 16.95 -21.2
L 18.2 -19.05 Z"/>
</g>

<g id="RD2_Blink_front_100_Layer2_0_FILL">
<path fill="#000000" stroke="none" d="
M 21.9 -5.65
L 23.1 -7.3
Q 23.1501953125 -11.0392578125 22.05 -14.9 21.50234375 -16.8623046875 18.45 -20.35 15.1640625 -24.176953125 10.6 -25 1.2861328125 -26.751171875 -7.55 -20.4 -11.2509765625 -17.658984375 -14.3 -13.75 -17.4216796875 -9.651953125 -19.9 -2.9 -20.3908203125 -1.584375 -20.65 -0.25 -21.203125 2.1416015625 -21.4 5.3 -21.922265625 12.8583984375 -21.05 15.3 -20.5654296875 16.36484375 -20.6 16.05 -21.7583984375 11.3294921875 -18.4 -0.35
L -17.55 -3
Q -15.6931640625 -8.214453125 -12.6 -12.2 -9.701171875 -15.798828125 -7.15 -17.95 8.8515625 -29.4330078125 18.45 -16.6 21.2458984375 -12.47421875 21.9 -5.65 Z"/>
</g>

<g id="RD_Brow_front_1_Layer2_0_FILL">
<path fill="#9EDBF8" stroke="none" d="
M 3.1 -1.5
Q 8.665625 -11.21171875 2.1 -17.25 1.5234375 -21.40078125 -9.4 -25.45 -20.3255859375 -29.4990234375 -34.15 -13.7 -40.514453125 0.240625 -34.85 -1.55 -21.6294921875 -0.3052734375 -6.05 -1.7 -6.0109375 -1.5755859375 -6 -1.5
L 3.1 -1.5 Z"/>
</g>

<g id="RD_Lashes_02_6_Layer0_0_FILL">
<path fill="#000000" stroke="none" d="
M -0.05 5.95
L -0.3 8
Q 8.85 9.6 9.15 8.4 9.35 7.3 -0.05 5.95 Z"/>
</g>

<g id="RD_Lashes_02_6_Layer0_1_FILL">
<path fill="#000000" stroke="none" d="
M 0.25 1.75
L 0.15 3.95
Q 11.25 3.35 11.4 2.2 11.45 1.6 6.35 1.65 0.9 1.75 0.25 1.75 Z"/>
</g>

<g id="RD_Lashes_02_6_Layer0_2_FILL">
<path fill="#000000" stroke="none" d="
M 10.65 -2.75
Q 10.562890625 -3.4384765625 0.55 -2.3 -5.8814453125 -1.6576171875 -0.3 -0.1 10.7623046875 -1.566796875 10.65 -2.75 Z"/>
</g>

<g id="RD_Brow_front_1_Layer0_0_FILL">
<path fill="#000000" stroke="none" d="
M -1.1 -2
Q -3 -1.9 -15.25 -1.75 -27.6 -1.6 -30.8 -2.15 -33.65 -3.3 -33.95 -7.2
L -34 -7.2
Q -34.8 -5.2 -34.3 -2.85 -33.85 -0.55 -32.25 -0.25 -30.45 0.05 -16.45 0.3 -1.9 0.5 1 0.1 1.05 0.05 1.15 0.05 4.85 -1.3 1.05 -2.1 0.8 -2.15 -1.1 -2 Z"/>
</g>

<g id="RD_Mouth_front_hole__0_Layer4_0_FILL">
<path fill="#6DABDD" stroke="none" d="
M 10.3 3.5
L 10.25 3.45 10.25 3.5
Q 9.644140625 7.4646484375 7.15 10.1 4.3 13.15 0.05 13.2 -4.35 13.1 -6.7 10.4 -9.45 7.1 -10.5 2.9
L -10.55 2.85 -10.5 3.35
Q -10.9 7.8 -7.75 11.55 -7.5890625 11.7296875 -7.45 11.9 -4.50859375 14.9052734375 -0.25 15 4.7 15.05 7.55 12.05 10.4 8.95 10.3 3.5 Z"/>
</g>

<g id="RD_Mouth_front_nostril__0_Layer2_0_FILL">
<path fill="#6DABDD" stroke="none" d="
M -7.35 3.35
Q -6.7 5.05 -3.5 4.15 -5.65 3.2 -6 2.3 -6.5 1.25 -6.2 -0.15 -8 1.9 -7.35 3.35
M 4.05 4
Q 6.9 4.85 7.7 3.2 8.4 1.6 6.75 -0.3 7 1.05 6.55 2.1 6.15 3.1 4.05 4 Z"/>
</g>

<g id="RD_Cheek_0_Layer1_0_FILL">
<path fill="#9EDBF8" stroke="none" d="
M -13.65 -3.75
Q -16.0267578125 -3.7431640625 -18.3 -3.7 -20.0263671875 -3.6904296875 -20.9 -3.8 -21.223046875 -3.733984375 -21.55 -3.7
L -20.55 -1.2
Q -20.5072265625 -1.092578125 -20.45 -1
L -18 5.3
Q -0.6107421875 15.3609375 11.3 8.45 14.9248046875 5.441796875 14.75 2.15 13.9091796875 2.18671875 12.85 2 11.7677734375 1.863671875 10.45 1.45 9.4078125 1.183203125 8.2 0.75 -4.2572265625 -4.6009765625 -13.65 -3.75 Z"/>

<path fill="#6DABDD" stroke="none" d="
M -18.3 -3.7
Q -16.0267578125 -3.7431640625 -13.65 -3.75 -4.2572265625 -4.6009765625 8.2 0.75 9.4078125 1.183203125 10.45 1.45 11.7677734375 1.863671875 12.85 2 13.9091796875 2.18671875 14.75 2.15 14.90078125 2.1408203125 15.05 2.1 14.90234375 2.0078125 14.75 1.9 14.6515625 1.8080078125 14.55 1.7 13.4794921875 0.9662109375 12.35 0.4 -2.715234375 -6.280859375 -14.1 -5.55 -17.2962890625 -5.154296875 -20.3 -4.9
L -20.35 -4.85
Q -22.91953125 -4.0283203125 -20.9 -3.8 -20.0263671875 -3.6904296875 -18.3 -3.7 Z"/>
</g>

<g id="RD_Cheek_0_Layer0_0_FILL">
<path fill="#6DABDD" stroke="none" d="
M -18 -1.55
L -17.9 -1.35
Q -17.54609375 -1.069921875 -16.4 -0.6
L -16.4 -0.6
Q -13.845703125 0.619140625 -10.8 1.65
L -7.85 2.15
Q -12.6994140625 -0.2359375 -14.55 -1.05 -17.6279296875 -1.697265625 -18 -1.55 Z"/>
</g>

<g id="RD_Wrinkle_0_Layer0_0_FILL">
<path fill="#6DABDD" stroke="none" d="
M 6.4 0.9
Q 6.229296875 0.7560546875 6.05 0.6 3.57890625 -1.2400390625 -0.2 -1.1 -3.897265625 -1.0052734375 -6.15 0.85 -6.28046875 0.943359375 -6.4 1.05
L -6.05 1
Q 0.6 0 5.95 0.8
L 6.4 0.9 Z"/>
</g>

<g id="RD_Hair_01_19_Layer3_0_FILL">
<path fill="#1E98D5" stroke="none" d="
M 16.85 -5.25
L 13.4 -4.25
Q 0.05 -0.65 -11.3 6.2 -12.45 6.95 -13.55 7.65 -33.95 20.75 -47.9 44.55 -48.75 36.35 -47.85 28.1 -43.6 4.45 -32.35 -14.5
L -30.05 -18.1 -30.15 -18.2
Q -43.1 -3.9 -48.55 17.15 -49.9 21.85 -50.55 26.6 -52.2 37.95 -50.3 49.45
L -49.7 53.65 -49.6 53.65 -47.5 49.9
Q -33.35 23.95 -11.95 10.2
L -11.9 10.15
Q 1.5 1.4 12.85 -2.05 14.15 -2.55 15.6 -2.95 21.3 -4.75 27 -6.1 21.95 -6.25 16.85 -5.25
M 35.75 -28.15
Q 36.9 -29.3 35 -31.9 33.3 -33.25 31.65 -34.45 28.95 -36.45 26.4 -38.05 24.1 -39.6 22 -40.8 19.95 -40.2 18.05 -39.6 18.6 -39.25 19.25 -38.95 19.5 -38.8 19.9 -38.6 20 -38.5 20.2 -38.4 22.7 -36.95 25.35 -35.3 28.4 -33.25 31.65 -30.9 33.3 -29.7 35.75 -28.15 Z"/>

<path fill="#F37033" stroke="none" d="
M 19.9 -38.6
Q 19.5 -38.8 19.25 -38.95 18.6 -39.25 18.05 -39.6 -6.9 -52.4 -29.45 -18.95
L -29.5 -18.9
Q -29.551171875 -18.823046875 -29.6 -18.75 -29.7640625 -18.523046875 -29.95 -18.3
L -30.05 -18.1 -32.35 -14.5
Q -43.6 4.45 -47.85 28.1 -48.75 36.35 -47.9 44.55 -33.95 20.75 -13.55 7.65 -12.45 6.95 -11.3 6.2 3.7 -20.85 19.9 -38.6 Z"/>

<path fill="#FDF6AE" stroke="none" d="
M 31.65 -30.9
Q 28.4 -33.25 25.35 -35.3 22.7 -36.95 20.2 -38.4 20 -38.5 19.9 -38.6 3.7 -20.85 -11.3 6.2 0.05 -0.65 13.4 -4.25
L 16.85 -5.25
Q 21.95 -6.25 27 -6.1 28.75 -6.5 30.55 -6.85 32.85 -7.35 35.05 -7.75 37 -11.45 35.7 -13.05
L 35.75 -28.15
Q 33.3 -29.7 31.65 -30.9 Z"/>
</g>

<g id="RD_Hair_01_19_Layer2_0_FILL">
<path fill="#1E98D5" stroke="none" d="
M -34 -5.1
Q -34 -5.1361328125 -33.95 -5.2
L -35.1 -4.5 -34 -5.1
M -48 -2.5
Q -47.35 -3.95 -46.55 -5.4 -40.55 -18.75 -29.55 -28.6 -28.95 -29.1 -28.35 -29.65 -20.6 -36.4 -15.05 -40.2 -12.45 -42.1 -10.3 -43.35
L -5.5 -46.1
Q -9.4 -45.2 -13.6 -42.95 -15.85 -41.75 -19.2 -39.65 -19.3 -39.6 -19.35 -39.6 -41.4 -24.8 -50.7 -4.95 -54.25 2.45 -57.3 21.5 -46.6 6.55 -43.15 3.1 -38.65 -1.15 -34.1 -5 -49.75 5.6 -53.3 10.9 -51.05 3.85 -48 -2.5
M 27.4 -34.7
Q 28.9 -35.05 30.5 -35.35 28.4 -36.75 26.45 -38.1 25.7 -38.6 25 -39.05 23.45 -40 22.05 -40.85 21.85 -40.9 21.75 -41.05
L 21.7 -41
Q 17.4 -43.45 13.25 -45.2
L 4 -45.2
Q 6.6 -44.5 9.35 -43.5 9.95 -43.3 10.55 -43.05 14.25 -41.6 18.1 -39.6 18.1 -39.55 18.15 -39.5
L 19.8 -38.7 19.85 -38.65 27.4 -34.7 Z"/>

<path fill="#F37033" stroke="none" d="
M 19.8 -38.7
L 18.15 -39.5
Q 18.1 -39.55 18.1 -39.6 14.25 -41.6 10.55 -43.05 9.95 -43.3 9.35 -43.5 -18.6 -28.15 -46.55 -5.4 -47.35 -3.95 -48 -2.5 -51.05 3.85 -53.3 10.9 -49.75 5.6 -34.1 -5 -34.05 -5.05 -34 -5.1
L -35.1 -4.5 -33.95 -5.2
Q -34 -5.1361328125 -34 -5.1
L -33.9 -5.2
Q -11.95 -23.85 19.8 -38.7 Z"/>

<path fill="#EE4144" stroke="none" d="
M 9.35 -43.5
Q 6.6 -44.5 4 -45.2 -3.55 -47.1 -5.5 -46.1
L -10.3 -43.35
Q -12.45 -42.1 -15.05 -40.2 -20.6 -36.4 -28.35 -29.65 -28.95 -29.1 -29.55 -28.6 -40.55 -18.75 -46.55 -5.4 -18.6 -28.15 9.35 -43.5 Z"/>
</g>

<g id="RD_Hair_01_19_Layer1_0_FILL">
<path fill="#EE4144" stroke="none" d="
M 3.6 -43.4
Q 8.75 -43.5 8.8 -43.5 3.25 -45.55 -2.25 -46.45 -3.7 -46.65 -5.15 -46.75 -12.9 -47.2 -21.1 -44.55 -30.05 -41.65 -35.9 -36.1 -21.75 -41.1 -10.7 -42.1 -1.6 -43.3 3.6 -43.4 Z"/>

<path fill="#1E98D5" stroke="none" d="
M 22 -40.85
Q 21.85 -40.95 21.7 -41.05 18.6 -42.8 15.65 -44.15 13.95 -44.95 12.35 -45.6 12 -45.75 11.65 -45.9 3.05 -49.25 -5.6 -49.8 -14.25 -50.35 -26.95 -44.6 -39.7 -38.9 -49.25 -27.65 -28.3 -37.55 -12.25 -41.7
L -10.7 -42.1
Q -21.75 -41.1 -35.9 -36.1 -30.05 -41.65 -21.1 -44.55 -12.9 -47.2 -5.15 -46.75 -3.7 -46.65 -2.25 -46.45 3.25 -45.55 8.8 -43.5 11.15 -42.65 13.55 -41.6 13.7 -41.5 13.9 -41.4 18.05 -41.2 21.95 -40.85
L 22 -40.85 Z"/>
</g>

<g id="RD_Hair_01_19_Layer0_0_FILL">
<path fill="#FDF6AE" stroke="none" d="
M 16.95 -5.35
L 15.15 -2.2
Q 11.15 5.05 1.65 12.75 17.3 9.65 30.4 -6.65 30.5 -6.75 30.6 -6.9 31.15 -7.6 31.7 -8.35 33.4 -10.6 35.65 -13.1 24.95 -11.4 16.65 -5.25
L 16.95 -5.35 Z"/>

<path fill="#1E98D5" stroke="none" d="
M 15.15 -2.2
L 16.95 -5.35 16.65 -5.25
Q 14.7 -3.8 12.9 -2.15 7.6 5.5 -3.4 13
L -6.95 15.45 -6.7 16 -2.5 15.75
Q 15.9 15.4 31.7 -3.55 33.45 -5.6 35.15 -7.85 37.1 -11.5 35.75 -13.15
L 35.65 -13.1
Q 33.4 -10.6 31.7 -8.35 31.15 -7.6 30.6 -6.9 30.5 -6.75 30.4 -6.65 17.3 9.65 1.65 12.75 11.15 5.05 15.15 -2.2 Z"/>
</g>

<g id="RD_FrontLeg_3_4_hoof_16_Layer0_0_FILL">
<path fill="#9EDBF8" stroke="none" d="
M 13.5 -14.1
Q 8.6158203125 -21.20703125 1.25 -21.55 -6.066015625 -21.8431640625 -11.7 -15.75 -17.3447265625 -9.60234375 -18.25 -1.05 -19.15 7.5 -14.5 13.9 -9.9 20.35 -2.5 20.85 4.95 21.35 10.8 15.7 16.6 10.1 17.5 1.55 18.39453125 -6.9978515625 13.5 -14.1 Z"/>
</g>

<g id="RD_FrontLeg_3_4_upper_21_Layer1_0_FILL">
<path fill="#9EDBF8" stroke="none" d="
M 19.9 41.4
Q 17.5806640625 23.57890625 3.65 -1.05
L -4.65 -1.05
Q -20.1865234375 21.3873046875 -20.15 41.4
L 19.9 41.4 Z"/>
</g>

<path id="RD_FrontLeg_3_4_hoof_6_Layer0_0_1_STROKES" stroke="#6DABDD" stroke-width="3" stroke-linejoin="round" stroke-linecap="round" fill="none" d="
M -0.925 -17.175
Q 6.8671875 -17.5837890625 12.3 -12.325 17.7197265625 -7.051171875 17.4 1.275 17.0837890625 9.596484375 14.075 14.525 11.0783203125 19.4369140625 0.15 20.85 -10.7796875 22.268359375 -17.1 18.525 -23.42421875 14.7861328125 -21.875 7.425 -20.324609375 0.0544921875 -18.15 -3.975 -15.971875 -8.0099609375 -12.325 -12.4 -8.6921875 -16.7904296875 -0.925 -17.175 Z"/>

<path id="RD_HindLeg_3_4rear_lower_2_Layer1_0_1_STROKES" stroke="#6DABDD" stroke-width="3" stroke-linejoin="round" stroke-linecap="round" fill="none" d="
M -5.65 -3.6
Q 1.836328125 -8.4703125 11.5 -5.15 17.0154296875 -1.388671875 7.6 6.9 -5.18671875 19.70546875 -8.9 12.2 -13.0958984375 2.169140625 -5.65 -3.6 Z"/>

<path id="RD_HindLeg_3_4rear_lower_2_Layer0_0_1_STROKES" stroke="#6DABDD" stroke-width="3" stroke-linejoin="round" stroke-linecap="round" fill="none" d="
M -8.9 59.25
Q -15.7921875 31.9404296875 -10.2 3.35
M 13.4 -2.55
Q 15.0326171875 27.90546875 24.35 43.05"/>

<path id="RD_FrontLeg_3_4_upper_20_Layer1_0_1_STROKES" stroke="#6DABDD" stroke-width="3" stroke-linejoin="round" stroke-linecap="round" fill="none" d="
M -32.7 58.35
Q -23.45 30.8 -5.95 -1.05
M 11.65 62.95
Q 12.4 41.65 5.5 -1.05"/>

<path id="RD_Mouth_front_chin__offcenter_0_Layer1_0_1_STROKES" stroke="#6DABDD" stroke-width="3" stroke-linejoin="round" stroke-linecap="round" fill="none" d="
M 37 3
Q 31.5595703125 11.51484375 20.35 16.8 3.9671875 24.438671875 -14.6 17.85 -26.379296875 13.5955078125 -35.1 3.05"/>

<path id="RD_Hair_01_19_Layer3_0_1_STROKES" stroke="#C7C616" stroke-width="0.05" stroke-linejoin="round" stroke-linecap="round" fill="none" d="
M -30.15 -18.2
Q -30.05 -18.3 -30 -18.4 -29.8 -18.6 -29.55 -18.85 -29.5 -18.95 -29.45 -18.95
M -29.5 -18.9
L -29.55 -18.85
Q -29.5763671875 -18.797265625 -29.6 -18.75 -29.7640625 -18.523046875 -29.95 -18.3
L -30.05 -18.1"/>

<path id="RD_FrontLeg_3_4_hoof_16_Layer0_0_1_STROKES" stroke="#6DABDD" stroke-width="3" stroke-linejoin="round" stroke-linecap="round" fill="none" d="
M -11.7 -15.725
Q -17.3447265625 -9.60234375 -18.25 -1.05 -19.15 7.5 -14.5 13.9 -9.9 20.35 -2.5 20.85 4.95 21.35 10.8 15.7 16.6 10.1 17.5 1.55 18.39453125 -6.9978515625 13.5 -14.1 8.6158203125 -21.20703125 1.275 -21.525 -6.066015625 -21.8431640625 -11.7 -15.725 Z"/>

<path id="RD_FrontLeg_3_4_upper_21_Layer1_0_1_STROKES" stroke="#6DABDD" stroke-width="3" stroke-linejoin="round" stroke-linecap="round" fill="none" d="
M 19.9 41.4
Q 17.5806640625 23.57890625 3.65 -1.05
M -20.15 41.4
Q -20.1865234375 21.3873046875 -4.65 -1.05"/>
</defs>

<g transform="matrix( 1.555694580078125, 0.330963134765625, -0.330963134765625, 1.555694580078125, 347.75,219.9) ">
<g transform="matrix( 0.2110137939453125, 0, 0, 0.3922576904296875, -8.7,0.8) ">
<g transform="matrix( 1, 0, -0.0488128662109375, 0.999969482421875, 25.65,0.6) ">
<g transform="matrix( 1, 0, 0, 1, 0,0) ">
<use xlink:href="#RD_Prun_Tail_1_Layer1_0_FILL"/>
</g>

<g transform="matrix( 1, 0, 0, 1, 0,0) ">
<use xlink:href="#RD_Prun_Tail_1_Layer1_1_FILL"/>
</g>

<g transform="matrix( 1, 0, 0, 1, 0,0) ">
<use xlink:href="#RD_Prun_Tail_1_Layer1_2_FILL"/>
</g>

<g transform="matrix( 1, 0, 0, 1, 0,0) ">
<use xlink:href="#RD_Prun_Tail_1_Layer1_3_FILL"/>
</g>

<g transform="matrix( 1, 0, 0, 1, 0,0) ">
<use xlink:href="#RD_Prun_Tail_1_Layer1_4_FILL"/>
</g>

<g transform="matrix( 1, 0, 0, 1, 0,0) ">
<use xlink:href="#RD_Prun_Tail_1_Layer1_5_FILL"/>
</g>

<g transform="matrix( 1, 0, 0, 1, 0,0) ">
<use xlink:href="#RD_Prun_Tail_1_Layer1_6_FILL"/>
</g>
</g>
</g>

<g transform="matrix( 0.4132843017578125, -0.5472412109375, 0.6434783935546875, 0.6175537109375, -44.4,13.35) ">
<g transform="matrix( 0.8339996337890625, -0.3087158203125, 0.5523681640625, 0.6643524169921875, 13.15,66.7) ">
<g transform="matrix( 1, 0, 0, 1, 0,0) ">
<use filter="url(#Filter_1)" xlink:href="#RD_FrontLeg_3_4_hoof_6_Layer0_0_FILL"/>

<use filter="url(#Filter_1)" xlink:href="#RD_FrontLeg_3_4_hoof_6_Layer0_0_1_STROKES"/>
</g>
</g>

<g transform="matrix( 0.7404632568359375, -0.3578338623046875, 0.0124969482421875, 0.6438751220703125, 12,46.45) ">
<g transform="matrix( 1, 0, 0, 1, 0,0) ">
<use filter="url(#Filter_1)" xlink:href="#RD_KneePatch_1_Layer0_0_FILL"/>
</g>
</g>

<g transform="matrix( 0.9890594482421875, 0.223388671875, -0.159027099609375, 0.6988067626953125, 14.45,31.6) ">
<g transform="matrix( 1, 0, 0, 1, 0,0) ">
<use filter="url(#Filter_1)" xlink:href="#RD_HindLeg_3_4rear_lower_2_Layer1_0_FILL"/>

<use filter="url(#Filter_1)" xlink:href="#RD_HindLeg_3_4rear_lower_2_Layer1_0_1_STROKES"/>
</g>

<g transform="matrix( 1, 0, 0, 1, 0,0) ">
<use filter="url(#Filter_1)" xlink:href="#RD_HindLeg_3_4rear_lower_2_Layer0_0_FILL"/>

<use filter="url(#Filter_1)" xlink:href="#RD_HindLeg_3_4rear_lower_2_Layer0_0_1_STROKES"/>
</g>
</g>

<g transform="matrix( 1.05706787109375, 0, -0.2399139404296875, 0.793365478515625, 17.7,-4.6) ">
<g transform="matrix( 1, 0, 0, 1, 0,0) ">
<use filter="url(#Filter_1)" xlink:href="#RD_HindLeg_3_4_top_3_Layer1_0_FILL"/>
</g>

<g transform="matrix( 1, 0, 0, 1, 0,0) ">
<use filter="url(#Filter_1)" xlink:href="#RD_HindLeg_3_4_top_3_Layer0_0_FILL"/>
</g>
</g>

<g transform="matrix( 0.832244873046875, -0.314788818359375, -0.1527099609375, 0.5664520263671875, 8.95,45.8) ">
<g transform="matrix( 1, 0, 0, 1, 0,0) ">
<use filter="url(#Filter_1)" xlink:href="#RD_KneePatch_0_Layer0_0_FILL"/>
</g>
</g>
</g>

<g transform="matrix( 0.4132843017578125, -0.5472412109375, 0.6434783935546875, 0.6175537109375, -9.65,9.45) ">
<g transform="matrix( 0.8339996337890625, -0.3087158203125, 0.5523681640625, 0.6643524169921875, 13.15,66.7) ">
<g transform="matrix( 1, 0, 0, 1, 0,0) ">
<use xlink:href="#RD_FrontLeg_3_4_hoof_6_Layer0_0_FILL"/>

<use xlink:href="#RD_FrontLeg_3_4_hoof_6_Layer0_0_1_STROKES"/>
</g>
</g>

<g transform="matrix( 0.7404632568359375, -0.3578338623046875, 0.0124969482421875, 0.6438751220703125, 12,46.45) ">
<g transform="matrix( 1, 0, 0, 1, 0,0) ">
<use xlink:href="#RD_KneePatch_1_Layer0_0_FILL"/>
</g>
</g>

<g transform="matrix( 0.9890594482421875, 0.223388671875, -0.159027099609375, 0.6988067626953125, 14.45,31.6) ">
<g transform="matrix( 1, 0, 0, 1, 0,0) ">
<use xlink:href="#RD_HindLeg_3_4rear_lower_2_Layer1_0_FILL"/>

<use xlink:href="#RD_HindLeg_3_4rear_lower_2_Layer1_0_1_STROKES"/>
</g>

<g transform="matrix( 1, 0, 0, 1, 0,0) ">
<use xlink:href="#RD_HindLeg_3_4rear_lower_2_Layer0_0_FILL"/>

<use xlink:href="#RD_HindLeg_3_4rear_lower_2_Layer0_0_1_STROKES"/>
</g>
</g>

<g transform="matrix( 1.05706787109375, 0, -0.2399139404296875, 0.793365478515625, 17.7,-4.6) ">
<g transform="matrix( 1, 0, 0, 1, 0,0) ">
<use xlink:href="#RD_HindLeg_3_4_top_3_Layer1_0_FILL"/>
</g>

<g transform="matrix( 1, 0, 0, 1, 0,0) ">
<use xlink:href="#RD_HindLeg_3_4_top_3_Layer0_0_FILL"/>
</g>
</g>

<g transform="matrix( 0.832244873046875, -0.314788818359375, -0.1527099609375, 0.5664520263671875, 8.95,45.8) ">
<g transform="matrix( 1, 0, 0, 1, 0,0) ">
<use xlink:href="#RD_KneePatch_0_Layer0_0_FILL"/>
</g>
</g>
</g>

<g transform="matrix( -0.9999847412109375, 0, 0, 0.9999847412109375, -53.35,11.25) ">
<g transform="matrix( 1, 0, 0, 1, 0,0) ">
<use filter="url(#Filter_2)" xlink:href="#WingcycleBACK_2_Layer10_0_FILL"/>
</g>

<g transform="matrix( 1, 0, 0, 1, 0,0) ">
<use filter="url(#Filter_2)" xlink:href="#WingcycleBACK_2_Layer9_0_FILL"/>
</g>

<g transform="matrix( 1, 0, 0, 1, 0,0) ">
<use filter="url(#Filter_2)" xlink:href="#WingcycleBACK_2_Layer8_0_FILL"/>
</g>

<g transform="matrix( 1, 0, 0, 1, 0,0) ">
<use filter="url(#Filter_2)" xlink:href="#WingcycleBACK_2_Layer7_0_FILL"/>
</g>

<g transform="matrix( 1, 0, 0, 1, 0,0) ">
<use filter="url(#Filter_2)" xlink:href="#WingcycleBACK_2_Layer5_0_FILL"/>
</g>

<g transform="matrix( 1, 0, 0, 1, 0,0) ">
<use filter="url(#Filter_2)" xlink:href="#WingcycleBACK_2_Layer4_0_FILL"/>
</g>

<g transform="matrix( 1, 0, 0, 1, 0,0) ">
<use filter="url(#Filter_2)" xlink:href="#WingcycleBACK_2_Layer3_0_FILL"/>
</g>

<g transform="matrix( 1, 0, 0, 1, 0,0) ">
<use filter="url(#Filter_2)" xlink:href="#WingcycleBACK_2_Layer2_0_FILL"/>
</g>

<g transform="matrix( 1, 0, 0, 1, 0,0) ">
<use filter="url(#Filter_2)" xlink:href="#WingcycleBACK_2_Layer1_0_FILL"/>
</g>
</g>

<g transform="matrix( 0.6026611328125, 0.7979888916015625, -0.7890167236328125, 0.5959014892578125, -37.9,40.3) ">
<g transform="matrix( 1.243988037109375, 0.0895233154296875, -0.0872650146484375, 1.056610107421875, -9.4,63.65) ">
<g transform="matrix( 1, 0, 0, 1, 0,0) ">
<use xlink:href="#RD_FrontLeg_3_4_hoof_11_Layer0_0_FILL"/>
</g>
</g>

<g transform="matrix( 0.99993896484375, -0.00445556640625, -0.0002593994140625, 0.999969482421875, 1.9,0.4) ">
<g transform="matrix( 1, 0, 0, 1, 0,0) ">
<use xlink:href="#RD_FrontLeg_3_4_upper_20_Layer1_0_FILL"/>

<use xlink:href="#RD_FrontLeg_3_4_upper_20_Layer1_0_1_STROKES"/>
</g>
</g>

<g transform="matrix( 2.197784423828125, 0.1581268310546875, -0.257781982421875, 3.119873046875, -10.05,65.3) ">
<g transform="matrix( 1, 0, 0, 1, 0,0) ">
<use xlink:href="#RD_HoofWrinkle_2_Layer0_0_FILL"/>
</g>
</g>
</g>

<g transform="matrix( 1, 0, 0, 1, -19.95,24.8) ">
<g transform="matrix( 1, 0, 0, 1, 0,0) ">
<use xlink:href="#RD_Torso_0_Layer1_0_FILL"/>
</g>
</g>

<g transform="matrix( 0.1369476318359375, 0.00579833984375, -0.0221405029296875, 0.5221099853515625, -12.8,19.05) ">
<g transform="matrix( 1.0715789794921875, 0.006256103515625, 0.477081298828125, 0.971038818359375, -58.9,-57.5) ">
<g transform="matrix( 1, 0, 0, 1, 0,0) ">
<use xlink:href="#RD_Prun_Mane_cycle_2_Layer0_0_FILL"/>
</g>
</g>
</g>

<g transform="matrix( 0.9025726318359375, -0.670166015625, 0.353546142578125, 0.6069183349609375, -24.25,20.75) ">
<g transform="matrix( 1, 0, 0, 1, 0,0) ">
<use xlink:href="#RD_Neck_0_Layer0_0_FILL"/>
</g>
</g>

<g transform="matrix( 0.9999847412109375, 0, 0, 0.9999847412109375, 3.9,11.25) ">
<g transform="matrix( 1, 0, 0, 1, 0,0) ">
<use xlink:href="#Wingcycle_2_Layer9_0_FILL"/>
</g>

<g transform="matrix( 1, 0, 0, 1, 0,0) ">
<use xlink:href="#Wingcycle_2_Layer8_0_FILL"/>
</g>

<g transform="matrix( 1, 0, 0, 1, 0,0) ">
<use xlink:href="#Wingcycle_2_Layer7_0_FILL"/>
</g>

<g transform="matrix( 1, 0, 0, 1, 0,0) ">
<use xlink:href="#Wingcycle_2_Layer6_0_FILL"/>
</g>

<g transform="matrix( 1, 0, 0, 1, 0,0) ">
<use xlink:href="#Wingcycle_2_Layer5_0_FILL"/>
</g>

<g transform="matrix( 1, 0, 0, 1, 0,0) ">
<use xlink:href="#Wingcycle_2_Layer4_0_FILL"/>
</g>

<g transform="matrix( 1, 0, 0, 1, 0,0) ">
<use xlink:href="#Wingcycle_2_Layer3_0_FILL"/>
</g>

<g transform="matrix( 1, 0, 0, 1, 0,0) ">
<use xlink:href="#Wingcycle_2_Layer2_0_FILL"/>
</g>

<g transform="matrix( 1, 0, 0, 1, 0,0) ">
<use xlink:href="#Wingcycle_2_Layer1_0_FILL"/>
</g>

<g transform="matrix( 1, 0, 0, 1, 0,0) ">
<use xlink:href="#Wingcycle_2_Layer0_0_FILL"/>
</g>
</g>

<g transform="matrix( 1, 0, 0, 1, -53.85,10.05) ">
<g transform="matrix( 1, 0, 0, 1.001922607421875, -6.4,-5.3) ">
<g transform="matrix( 1, 0, 0, 1, 0,0) ">
<use xlink:href="#RD_Skull_2_Layer0_0_FILL"/>
</g>
</g>

<g transform="matrix( 0.9992218017578125, 0.01165771484375, -0.1327056884765625, 1.042236328125, -6,25.45) ">
<g transform="matrix( 1, 0, 0, 1, 0,0) ">
<use xlink:href="#RD_Mouth_front_chin__offcenter_0_Layer1_0_FILL"/>

<use xlink:href="#RD_Mouth_front_chin__offcenter_0_Layer1_0_1_STROKES"/>
</g>
</g>

<g transform="matrix( 0.972503662109375, 0, 0.15093994140625, 1.0177459716796875, 25.6,-48.8) ">
<g transform="matrix( 1, 0, 0, 1, 0,0) ">
<use xlink:href="#RD_Hair_07_9_Layer0_0_FILL"/>
</g>
</g>

<g transform="matrix( -0.8562469482421875, -0.0888671875, -0.10308837890625, 0.993377685546875, -39.25,-31.85) ">
<g transform="matrix( 1, 0, 0, 1, 0,0) ">
<use xlink:href="#RD_Ear_1_Layer1_0_FILL"/>
</g>
</g>

<g transform="matrix( 0.997467041015625, 0.063507080078125, -0.063507080078125, 0.997467041015625, 29.85,-28.65) ">
<g transform="matrix( 1, 0, 0, 1, 0,0) ">
<use xlink:href="#RD_Ear_1_Layer1_0_FILL"/>
</g>
</g>

<mask id="Mask_Mask_1">
<g transform="matrix( -0.6017608642578125, -0.1415863037109375, -0.1660003662109375, 1.02447509765625, -35.6,-1.15) ">
<g transform="matrix( 1, 0, 0, 1, 0,0) ">
<use xlink:href="#Mask_Mask_RD2_Eyewhite_3_4_1_Layer1_0_FILL"/>
</g>
</g>
</mask>

<g mask="url(#Mask_Mask_1)">
<g transform="matrix( -0.6017608642578125, -0.1415863037109375, -0.1660003662109375, 1.02447509765625, -35.6,-1.15) ">
<g transform="matrix( 1, 0, 0, 1, 0,0) ">
<use xlink:href="#RD2_Eyewhite_3_4_1_Layer1_0_FILL"/>
</g>
</g>
</g>

<g mask="url(#Mask_Mask_1)">
<g transform="matrix( 0.47186279296875, -0.0417938232421875, 0.13232421875, 0.74530029296875, -32.1,0.35) ">
<g transform="matrix( 1, 0, 0, 1, 0,0) ">
<use xlink:href="#RD2_Iris_0_Layer2_0_FILL"/>
</g>

<g transform="matrix( 1, 0, 0, 1, 0,0) ">
<use xlink:href="#RD2_Iris_0_Layer1_0_FILL"/>
</g>

<g transform="matrix( 1, 0, 0, 1, 0,0) ">
<use xlink:href="#RD2_Iris_0_Layer0_0_FILL"/>
</g>
</g>
</g>

<g mask="url(#Mask_Mask_1)">
<g transform="matrix( -0.476593017578125, 0.0044097900390625, 0.006805419921875, 0.6275482177734375, -30.85,-0.15) ">
<g transform="matrix( 1, 0, 0, 1, 0,0) ">
<use xlink:href="#RD2_Pupil_0_Layer0_0_FILL"/>
</g>
</g>
</g>

<g mask="url(#Mask_Mask_1)">
<g transform="matrix( 0.6511688232421875, -0.0670928955078125, 0.172882080078125, 0.6851348876953125, -29.85,-7.7) ">
<g transform="matrix( 1, 0, 0, 1, 0,0) ">
<use xlink:href="#RD2_Hilights_0_Layer1_0_FILL"/>
</g>
</g>
</g>

<mask id="Mask_Mask_2">
<g transform="matrix( 0.859771728515625, 0, 0.1278076171875, 1.0453338623046875, 17.2,0.35) ">
<g transform="matrix( 1, 0, 0, 1, 0,0) ">
<use xlink:href="#Mask_Mask_RD2_Eyewhite_3_4_1_Layer1_0_FILL"/>
</g>
</g>
</mask>

<g mask="url(#Mask_Mask_2)">
<g transform="matrix( 0.859771728515625, 0, 0.1278076171875, 1.0453338623046875, 17.2,0.35) ">
<g transform="matrix( 1, 0, 0, 1, 0,0) ">
<use xlink:href="#RD2_Eyewhite_3_4_1_Layer1_0_FILL"/>
</g>
</g>
</g>

<g mask="url(#Mask_Mask_2)">
<g transform="matrix( -0.5610198974609375, -0.0517425537109375, -0.0706787109375, 0.736236572265625, 26,-1.8) ">
<g transform="matrix( 1, 0, 0, 1, 0,0) ">
<use xlink:href="#RD2_Iris_2_Layer2_0_FILL"/>
</g>

<g transform="matrix( 1, 0, 0, 1, 0,0) ">
<use xlink:href="#RD2_Iris_2_Layer1_0_FILL"/>
</g>

<g transform="matrix( 1, 0, 0, 1, 0,0) ">
<use xlink:href="#RD2_Iris_2_Layer0_0_FILL"/>
</g>
</g>
</g>

<g mask="url(#Mask_Mask_2)">
<g transform="matrix( 0.53680419921875, 0.0115814208984375, 0.08184814453125, 0.643402099609375, 27.95,-1.55) ">
<g transform="matrix( 1, 0, 0, 1, 0,0) ">
<use xlink:href="#RD2_Pupil_0_Layer0_0_FILL"/>
</g>
</g>
</g>

<g mask="url(#Mask_Mask_2)">
<g transform="matrix( 0.6678314208984375, 0.2051849365234375, 0.0124053955078125, 0.67279052734375, 30.35,-7.4) ">
<g transform="matrix( 1, 0, 0, 1, 0,0) ">
<use xlink:href="#RD2_Hilights_0_Layer1_0_FILL"/>
</g>
</g>
</g>

<g transform="matrix( -0.6017608642578125, -0.1415863037109375, -0.1660003662109375, 1.02447509765625, -35.6,-1.15) ">
<g transform="matrix( 1, 0, 0, 1, 0,0) ">
<use xlink:href="#RD2_Blink_front_0_Layer2_0_FILL"/>
</g>

<g transform="matrix( 1, 0, 0, 1, 0,0) ">
<use xlink:href="#RD2_Blink_front_0_Layer1_0_FILL"/>
</g>

<g transform="matrix( 1, 0, 0, 1, 0,0) ">
<use xlink:href="#RD2_Blink_front_0_Layer1_1_FILL"/>
</g>

<g transform="matrix( 1, 0, 0, 1, 0,0) ">
<use xlink:href="#RD2_Blink_front_0_Layer1_2_FILL"/>
</g>
</g>

<g transform="matrix( 0.8662109375, -0.0929107666015625, 0.1739959716796875, 1.01947021484375, 17.05,0.3) ">
<g transform="matrix( 1, 0, 0, 1, 0,0) ">
<use xlink:href="#RD2_Blink_front_100_Layer2_0_FILL"/>
</g>
</g>

<g transform="matrix( -0.60809326171875, -0.5243072509765625, -0.508544921875, 0.857421875, -42.8,-20.85) ">
<g transform="matrix( 1, 0, 0, 1, 0,0) ">
<use xlink:href="#RD_Brow_front_1_Layer2_0_FILL"/>
</g>

<g transform="matrix( 1, 0, 0, 1, 1.7,-0.05) ">
<g transform="matrix( 1, 0, 0, 1, 0,0) ">
<use xlink:href="#RD_Lashes_02_6_Layer0_0_FILL"/>
</g>

<g transform="matrix( 1, 0, 0, 1, 0,0) ">
<use xlink:href="#RD_Lashes_02_6_Layer0_1_FILL"/>
</g>

<g transform="matrix( 1, 0, 0, 1, 0,0) ">
<use xlink:href="#RD_Lashes_02_6_Layer0_2_FILL"/>
</g>
</g>

<g transform="matrix( 1, 0, 0, 1, 0,0) ">
<use xlink:href="#RD_Brow_front_1_Layer0_0_FILL"/>
</g>
</g>

<g transform="matrix( 0.924713134765625, -0.4334564208984375, 0.457275390625, 0.8568572998046875, 30.45,-17.85) ">
<g transform="matrix( 1, 0, 0, 1, 0,0) ">
<use xlink:href="#RD_Brow_front_1_Layer2_0_FILL"/>
</g>

<g transform="matrix( 1, 0, 0, 1, 1.7,-0.05) ">
<g transform="matrix( 1, 0, 0, 1, 0,0) ">
<use xlink:href="#RD_Lashes_02_6_Layer0_0_FILL"/>
</g>

<g transform="matrix( 1, 0, 0, 1, 0,0) ">
<use xlink:href="#RD_Lashes_02_6_Layer0_1_FILL"/>
</g>

<g transform="matrix( 1, 0, 0, 1, 0,0) ">
<use xlink:href="#RD_Lashes_02_6_Layer0_2_FILL"/>
</g>
</g>

<g transform="matrix( 1, 0, 0, 1, 0,0) ">
<use xlink:href="#RD_Brow_front_1_Layer0_0_FILL"/>
</g>
</g>

<g transform="matrix( 1.04473876953125, -0.17791748046875, 0.2764129638671875, 0.92706298828125, -14.35,25.7) ">
<g transform="matrix( 1, 0, 0, 1, 0,0) ">
<use xlink:href="#RD_Mouth_front_hole__0_Layer4_0_FILL"/>
</g>
</g>

<g transform="matrix( 1.00201416015625, 0.0025787353515625, 0.08404541015625, 0.9959716796875, -18.15,22.15) ">
<g transform="matrix( 1, 0, 0, 1, 0,0) ">
<use xlink:href="#RD_Mouth_front_nostril__0_Layer2_0_FILL"/>
</g>
</g>

<g transform="matrix( 0.85284423828125, -0.37200927734375, 0.05682373046875, 0.930206298828125, 21.5,19.2) ">
<g transform="matrix( 1, 0, 0, 1, 0,0) ">
<use xlink:href="#RD_Cheek_0_Layer1_0_FILL"/>
</g>

<g transform="matrix( 1, 0, 0, 1, 0,0) ">
<use xlink:href="#RD_Cheek_0_Layer0_0_FILL"/>
</g>
</g>

<g transform="matrix( 0.9800262451171875, 0.032135009765625, -0.1204071044921875, 0.9931640625, -16.75,25.2) ">
<g transform="matrix( 1, 0, 0, 1, 0.65,-8.5) ">
<g transform="matrix( 1, 0, 0, 1, 0,0) ">
<use xlink:href="#RD_Wrinkle_0_Layer0_0_FILL"/>
</g>
</g>
</g>

<g transform="matrix( 1.07415771484375, 0.0653076171875, 0.0907745361328125, 0.991790771484375, -13.5,-33.7) ">
<g transform="matrix( 1, 0, 0, 1, 0,0) ">
<use xlink:href="#RD_Hair_01_19_Layer3_0_FILL"/>

<use xlink:href="#RD_Hair_01_19_Layer3_0_1_STROKES"/>
</g>

<g transform="matrix( 1, 0, 0, 1, 0,0) ">
<use xlink:href="#RD_Hair_01_19_Layer2_0_FILL"/>
</g>

<g transform="matrix( 1, 0, 0, 1, 0,0) ">
<use xlink:href="#RD_Hair_01_19_Layer1_0_FILL"/>
</g>

<g transform="matrix( 1, 0, 0, 1, 0,0) ">
<use xlink:href="#RD_Hair_01_19_Layer0_0_FILL"/>
</g>
</g>
</g>

<g transform="matrix( -0.3125457763671875, -1.02899169921875, -0.8546295166015625, 0.2658233642578125, -2.3,49.05) ">
<g transform="matrix( 1.108154296875, 0.09967041015625, -0.077728271484375, 1.1765594482421875, -8.35,40.1) ">
<g transform="matrix( 1, 0, 0, 1, 0,0) ">
<use xlink:href="#RD_FrontLeg_3_4_hoof_16_Layer0_0_FILL"/>

<use xlink:href="#RD_FrontLeg_3_4_hoof_16_Layer0_0_1_STROKES"/>
</g>
</g>

<g transform="matrix( 0.9623260498046875, 0.271636962890625, -0.27618408203125, 0.9610443115234375, 2.7,0.35) ">
<g transform="matrix( 1, 0, 0, 1, 0,0) ">
<use xlink:href="#RD_FrontLeg_3_4_upper_21_Layer1_0_FILL"/>

<use xlink:href="#RD_FrontLeg_3_4_upper_21_Layer1_0_1_STROKES"/>
</g>
</g>

<g transform="matrix( 1.9949188232421875, 0.1793975830078125, -0.257781982421875, 3.89984130859375, -5.95,23.45) ">
<g transform="matrix( 1, 0, 0, 1, 0,0) ">
<use xlink:href="#RD_HoofWrinkle_2_Layer0_0_FILL"/>
</g>
</g>
</g>
</g>
</svg>
