
<svg xmlns="http://www.w3.org/2000/svg" version="1.1" xmlns:xlink="http://www.w3.org/1999/xlink" preserveAspectRatio="none" x="0px" y="0px" width="864px" height="486px" viewBox="0 0 864 486">
<defs>
<linearGradient id="Gradient_1" gradientUnits="userSpaceOnUse" x1="281.1875" y1="36.9375" x2="276.51250000000005" y2="60.3625" spreadMethod="pad">
<stop  offset="0%" stop-color="#590D39"/>

<stop  offset="19.607843137254903%" stop-color="#9C1862"/>

<stop  offset="22.745098039215687%" stop-color="#A01964"/>

<stop  offset="34.11764705882353%" stop-color="#AA1A6C"/>

<stop  offset="73.72549019607843%" stop-color="#BD1D78"/>

<stop  offset="100%" stop-color="#BF1D79"/>
</linearGradient>

<filter id="Filter_1" x="-20%" y="-20%" width="140%" height="140%" color-interpolation-filters="sRGB">
<feColorMatrix in="SourceGraphic" type="matrix" values="1 0 0 0 -0.06274509803921569 0 1 0 0 -0.0784313725490196 0 0 1 0 -0.06274509803921569 0 0 0 1 0" result="result1"/>
</filter>

<filter id="Filter_2" x="-20%" y="-20%" width="140%" height="140%" color-interpolation-filters="sRGB">
<feColorMatrix in="SourceGraphic" type="matrix" values="0.57 0 0 0 0.1843137254901961 0 0.57 0 0 0.28627450980392155 0 0 0.57 0 0.37254901960784315 0 0 0 1 0" result="result1"/>
</filter>

<g id="RD_Prun_Tail_3_Layer1_0_FILL">
<path fill="#EE4143" stroke="none" d="
M 6.85 -0.95
Q 4.3 -2.9 1.55 -3.3 -1.15 -3.7 -3.35 -2.75 -5.55 -1.85 -6.5 0.2 -7.5 2.2 -6.65 5.05 -5.75 7.9 -2.3 11.35 7.3 19.95 18.05 25.4 28.85 30.9 40.2 33.8 51.5 36.7 62.75 37.6 74 38.45 84.5 37.85 95.1 37.3 105.25 35.25 115.4 33.15 124.75 30.1 134.1 27.05 142.3 23.6 150.5 20.15 157.2 16.85 167.85 13 177.4 11.15 186.95 9.3 195.15 8.65 203.4 7.95 210.1 7.65 216.8 7.35 221.75 6.55 221.7 6.55 218.85 5.7 215.95 4.85 211.15 3.75 206.35 2.65 200.55 1.9 196.4 1.25 192.45 0.9 188.45 0.6 185.2 0.55 182 0.45 180 0.55 178.65 0.6 178.1 0.7 181.45 0 187.25 -1.45 193.35 -2.9 201.45 -4.35 209.85 -5.85 218.9 -6.65 227.9 -7.45 236.6 -7.05 242.35 -6.8 247.6 -6.05 252.9 -5.35 257.25 -4.3 261.65 -3.25 264.65 -2.1 267.65 -0.95 269.3 -0.1 270.9 0.7 271.6 1.15 272.25 1.6 272.3 1.55 272.4 1.65 271.55 0.05 270.7 -1.5 268.5 -4 266.3 -6.5 262.2 -9.25 259.3 -11.25 256.25 -12.95 253.15 -14.65 250.45 -15.9 247.75 -17.15 246 -17.85 244.3 -18.55 244.15 -18.55 248.05 -18.7 253.25 -18.8 258.4 -18.95 264.2 -18.75 269.95 -18.55 275.6 -17.65 281.25 -16.8 286 -15 290.95 -13.3 294.3 -10.5 297.6 -7.65 299.55 -4.7 301.5 -1.75 302.25 0.3 302.85 1.85 302.95 2.25 303.6 -4.3 300.9 -10.7 298.15 -17.15 292.65 -22.4
L 293.9 -21.45
Q 295.3 -20.5 297.45 -18.55 299.6 -16.55 301.8 -13.6 304.05 -10.65 305.7 -6.7 307.35 -2.8 307.7 2.1 308.05 8.05 306.9 13.45 305.7 18.9 304 23.15 302.25 27.45 300.85 29.95 299.4 32.45 299.3 32.6 302.15 28.85 304.8 24.5 307.5 20.15 309.6 15.1 311.65 10.05 312.65 4.25 313.65 -1.65 312.6 -7.65 311.55 -13.65 308.85 -19.05 306.2 -24.5 302.35 -28.65 296.45 -34.85 290.8 -38.8 285.15 -42.8 280.55 -45.05 276 -47.25 273.35 -48.25 270.7 -49.2 270.8 -49.35 270.8 -49.25 273.2 -48.75 275.65 -48.2 279.7 -46.95 283.8 -45.7 288.9 -43.5 293.95 -41.3 299.3 -37.95 303.8 -35.4 307.4 -31.85 310.95 -28.35 313.65 -24.65 316.3 -20.9 318.05 -17.65 319.75 -14.45 320.6 -12.4 321.05 -11.25 321.25 -10.7 318.85 -19.85 313.7 -27.45 308.4 -35.25 301.3 -41.3 294.2 -47.4 286.35 -51.65 274.7 -58 261.9 -62.2 249.1 -66.4 234.6 -68.4 220 -70.25 204.5 -69.3 189.05 -68.4 172.25 -64 163.8 -61.65 155.15 -58.15 146.5 -54.65 137.9 -49.7 132.15 -46.5 126.5 -42.35 120.8 -38.25 116.1 -34.25 111.45 -30.3 108.65 -27.5 108.75 -27.7 109.3 -28.65 109.95 -29.85 111 -31.95 112.05 -34.05 113.35 -36.65 114.2 -38.1 115.65 -40.05 117.1 -42.05 118.5 -44 122.45 -49.3 126.85 -54.45 131.3 -59.55 135.15 -63.65 139 -67.8 141.35 -70.2 137.05 -68 132.3 -64.8 127.6 -61.65 122.65 -57.5 117.7 -53.4 112.8 -48.3 111.65 -47.1 110.3 -45.75 108.95 -44.35 108.3 -43.45 107.1 -41.75 105.8 -39.9 102.45 -35.05 98.5 -30 94.5 -25 89.8 -20.15 85.05 -15.35 79.45 -11.1 73.8 -6.9 67.4 -3.4 61 0.1 54.25 2.4 47.5 4.75 40.7 5.6 33.85 6.55 27.5 6 21.15 5.5 15.85 3.7 10.55 1.9 6.85 -0.95 Z"/>
</g>

<g id="RD_Prun_Tail_3_Layer1_1_FILL">
<path fill="#F37033" stroke="none" d="
M 6.85 -0.95
Q 4.3 -2.9 1.55 -3.3 -1.15 -3.7 -3.35 -2.75 -5.55 -1.85 -6.5 0.2 -7.5 2.2 -6.65 5.05 -5.75 7.9 -2.3 11.35 3.75 17.05 10.55 21.25 17.35 25.45 24.6 28.45 31.8 31.45 39.1 33.5 51.6 36.25 64.65 36.3 77.65 36.3 90.6 33.85 103.5 31.4 115.8 26.75 124.9 23.2 133.45 18.6 142.05 14 149.6 9.15 161.8 1.65 174.65 -3.05 183.15 -6.1 191.8 -8.15 200.45 -10.25 208.75 -11.45 217 -12.65 224.5 -13.05 235.7 -13.6 244.9 -12.7 254.15 -11.8 260.85 -10.2 258 -12.05 255.15 -13.55 252.25 -15.1 249.8 -16.2 247.35 -17.3 245.8 -17.95 244.3 -18.55 244.15 -18.55 248.05 -18.7 253.25 -18.8 258.4 -18.95 264.2 -18.75 269.95 -18.55 275.6 -17.65 281.25 -16.8 286 -15 290.95 -13.3 294.3 -10.5 297.6 -7.65 299.55 -4.7 301.5 -1.75 302.25 0.3 302.85 1.85 302.95 2.25 303.6 -4.3 300.9 -10.7 298.15 -17.15 292.65 -22.4
L 293.9 -21.45
Q 295.3 -20.5 297.45 -18.55 299.6 -16.55 301.8 -13.6 304.05 -10.65 305.7 -6.7 307.35 -2.8 307.7 2.1 308.05 8.05 306.9 13.45 305.7 18.9 304 23.15 302.25 27.45 300.85 29.95 299.4 32.45 299.3 32.6 302.15 28.85 304.8 24.5 307.5 20.15 309.6 15.1 311.65 10.05 312.65 4.25 313.65 -1.65 312.6 -7.65 311.55 -13.65 308.85 -19.05 306.2 -24.5 302.35 -28.65 296.45 -34.85 290.8 -38.8 285.15 -42.8 280.55 -45.05 276 -47.25 273.35 -48.25 270.7 -49.2 270.8 -49.35 270.8 -49.25 273.2 -48.75 275.65 -48.2 279.7 -46.95 283.8 -45.7 288.9 -43.5 293.95 -41.3 299.3 -37.95 303.8 -35.4 307.4 -31.85 310.95 -28.35 313.65 -24.65 316.3 -20.9 318.05 -17.65 319.75 -14.45 320.6 -12.4 321.05 -11.25 321.25 -10.7 318.85 -19.85 313.7 -27.45 308.4 -35.25 301.3 -41.3 294.2 -47.4 286.35 -51.65 274.7 -58 261.9 -62.2 249.1 -66.4 234.6 -68.4 220 -70.25 204.5 -69.3 189.05 -68.4 172.25 -64 163.8 -61.65 155.15 -58.15 146.5 -54.65 137.9 -49.7 132.15 -46.5 126.5 -42.35 120.8 -38.25 116.1 -34.25 111.45 -30.3 108.65 -27.5 108.75 -27.7 109.3 -28.65 109.95 -29.85 111 -31.95 112.05 -34.05 113.35 -36.65 114.2 -38.1 115.65 -40.05 117.1 -42.05 118.5 -44 122.45 -49.3 126.85 -54.45 131.3 -59.55 135.15 -63.65 139 -67.8 141.35 -70.2 137.05 -68 132.3 -64.8 127.6 -61.65 122.65 -57.5 117.7 -53.4 112.8 -48.3 111.65 -47.1 110.3 -45.75 108.95 -44.35 108.3 -43.45 107.1 -41.75 105.8 -39.9 102.45 -35.05 98.5 -30 94.5 -25 89.8 -20.15 85.05 -15.35 79.45 -11.1 73.8 -6.9 67.4 -3.4 61 0.1 54.25 2.4 47.5 4.75 40.7 5.6 33.85 6.55 27.5 6 21.15 5.5 15.85 3.7 10.55 1.9 6.85 -0.95 Z"/>
</g>

<g id="RD_Prun_Tail_3_Layer1_2_FILL">
<path fill="#FDF6AF" stroke="none" d="
M 6.85 -0.95
Q 4.3 -2.9 1.55 -3.3 -1.15 -3.7 -3.35 -2.75 -5.55 -1.85 -6.5 0.2 -7.5 2.2 -6.65 5.05 -5.75 7.9 -2.3 11.35 -1.75 11.95 1.5 14.35 4.75 16.8 10.6 19.9 16.4 23.05 24.7 25.9 33 28.7 43.65 30.15 54.15 31.75 66.2 31 78.25 30.3 91 27.2 103.7 24.1 116.25 18.55 128.85 13 140.4 5 150.3 -2.15 161 -7.25 171.7 -12.4 182.65 -15.75 193.55 -19.15 204.15 -21 214.75 -22.9 224.5 -23.5 234.1 -24.1 242.2 -23.6 250.3 -23.05 256.6 -21.95 262.9 -20.85 267.1 -19.75 271.35 -18.65 273.25 -18.05 280.75 -17.15 286.8 -14.65 292.9 -12.2 296.75 -8.25 299.2 -5.7 300.55 -3.25 301.9 -0.8 302.4 0.8 302.9 2.2 302.9 2.4 303.65 -4.25 300.9 -10.7 298.15 -17.15 292.65 -22.4
L 293.9 -21.45
Q 295.3 -20.5 297.45 -18.55 299.6 -16.55 301.8 -13.6 304.05 -10.65 305.7 -6.7 307.35 -2.8 307.7 2.1 308.05 8.05 306.9 13.45 305.7 18.9 304 23.15 302.25 27.45 300.85 29.95 299.4 32.45 299.3 32.6 302.15 28.85 304.8 24.5 307.5 20.15 309.6 15.1 311.65 10.05 312.65 4.25 313.65 -1.65 312.6 -7.65 311.55 -13.65 308.85 -19.05 306.2 -24.5 302.35 -28.65 296.45 -34.85 290.8 -38.8 285.15 -42.8 280.55 -45.05 276 -47.25 273.35 -48.25 270.7 -49.2 270.8 -49.35 270.8 -49.25 273.2 -48.75 275.65 -48.2 279.7 -46.95 283.8 -45.7 288.9 -43.5 293.95 -41.3 299.3 -37.95 303.8 -35.4 307.4 -31.85 310.95 -28.35 313.65 -24.65 316.3 -20.9 318.05 -17.65 319.75 -14.45 320.6 -12.4 321.05 -11.25 321.25 -10.7 318.85 -19.85 313.7 -27.45 308.4 -35.25 301.3 -41.3 294.2 -47.4 286.35 -51.65 274.7 -58 261.9 -62.2 249.1 -66.4 234.6 -68.4 220 -70.25 204.5 -69.3 189.05 -68.4 172.25 -64 163.8 -61.65 155.15 -58.15 146.5 -54.65 137.9 -49.7 132.15 -46.5 126.5 -42.35 120.8 -38.25 116.1 -34.25 111.45 -30.3 108.65 -27.5 108.75 -27.7 109.3 -28.65 109.95 -29.85 111 -31.95 112.05 -34.05 113.35 -36.65 114.2 -38.1 115.65 -40.05 117.1 -42.05 118.5 -44 122.45 -49.3 126.85 -54.45 131.3 -59.55 135.15 -63.65 139 -67.8 141.35 -70.2 137.05 -68 132.3 -64.8 127.6 -61.65 122.65 -57.5 117.7 -53.4 112.8 -48.3 111.65 -47.1 110.3 -45.75 108.95 -44.35 108.3 -43.45 107.1 -41.75 105.8 -39.9 102.45 -35.05 98.5 -30 94.5 -25 89.8 -20.15 85.05 -15.35 79.45 -11.1 73.8 -6.9 67.4 -3.4 61 0.1 54.25 2.4 47.5 4.75 40.7 5.6 33.85 6.55 27.5 6 21.15 5.5 15.85 3.7 10.55 1.9 6.85 -0.95 Z"/>
</g>

<g id="RD_Prun_Tail_3_Layer1_3_FILL">
<path fill="#662F89" stroke="none" d="
M 6.85 -0.95
Q 4.5 -2.6 2 -3.15 -0.5 -3.65 -2.6 -3.1 -4.7 -2.5 -5.9 -0.8 2.1 6.9 11.75 11.8 21.4 16.75 32.05 19.15 42.7 21.6 53.65 21.75 64.65 21.9 75.25 20.05 85.95 18.3 96.25 14.75 106.5 11.15 116.1 6.05 122.6 2.75 128.55 -1.3 134.5 -5.4 140.35 -9.5 146.2 -13.6 152.45 -16.95 164.95 -23.8 178.5 -28.4 192 -33 206.05 -35.45 220.15 -37.9 234.35 -38.3 245 -38.4 255.6 -37 266.2 -35.65 276.25 -32.3 282.9 -30.15 288.95 -26.5 295 -22.85 299.5 -17.7 304 -12.5 306 -5.8 307.85 -0.6 307.8 4.8 307.75 10.15 306.5 15.15 305.25 20.1 303.6 24.05 301.95 28 300.65 30.3 299.85 31.8 299.55 32.3 302.2 28.7 304.8 24.5 307.5 20.15 309.6 15.1 311.65 10.05 312.65 4.25 313.65 -1.65 312.6 -7.65 311.55 -13.65 308.85 -19.05 306.2 -24.5 302.35 -28.65 296.45 -34.85 290.75 -38.8 285.1 -42.8 280.55 -45.05 275.95 -47.25 273.3 -48.25 270.65 -49.2 270.75 -49.35 270.8 -49.25 273.2 -48.75 275.6 -48.2 279.7 -46.95 283.8 -45.7 288.85 -43.5 293.9 -41.3 299.25 -37.95 303.8 -35.4 307.35 -31.85 310.95 -28.35 313.6 -24.65 316.25 -20.9 318 -17.65 319.75 -14.45 320.6 -12.4 321.05 -11.25 321.25 -10.7 318.85 -19.85 313.65 -27.45 308.4 -35.25 301.3 -41.3 294.2 -47.4 286.35 -51.65 274.7 -58 261.9 -62.2 249.05 -66.4 234.6 -68.4 220 -70.25 204.5 -69.3 189 -68.4 172.2 -64 163.8 -61.65 155.15 -58.15 146.5 -54.65 137.85 -49.7 132.15 -46.5 126.45 -42.35 120.8 -38.25 116.1 -34.25 111.4 -30.25 108.6 -27.5
L 109.25 -28.65
Q 109.9 -29.85 110.95 -31.95 112.05 -34.05 113.35 -36.65 114.15 -38.1 115.6 -40.05 117.05 -42.05 118.45 -44 122.45 -49.3 126.85 -54.45 131.25 -59.55 135.15 -63.65 139 -67.8 141.35 -70.2 137 -68 132.3 -64.8 127.55 -61.65 122.65 -57.5 117.65 -53.4 112.75 -48.3 111.6 -47.1 110.3 -45.75 108.95 -44.35 108.3 -43.45 107.05 -41.75 105.8 -39.9 102.45 -35.05 98.45 -30 94.5 -25 89.75 -20.15 85.05 -15.35 79.4 -11.1 73.8 -6.9 67.4 -3.4 61 0.1 54.2 2.4 47.45 4.75 40.65 5.6 33.8 6.55 27.5 6 21.15 5.5 15.85 3.7 10.55 1.9 6.85 -0.95 Z"/>
</g>

<g id="RD_Prun_Tail_3_Layer1_4_FILL">
<path fill="#1D98D5" stroke="none" d="
M 6.85 -0.95
Q 4.5 -2.6 2 -3.15 -0.5 -3.65 -2.6 -3.1 -4.7 -2.5 -5.9 -0.8 2.1 6.9 11.75 11.8 21.4 16.75 32.05 19.15 42.7 21.6 53.65 21.75 64.65 21.9 75.25 20.05 85.95 18.3 96.25 14.75 106.5 11.15 116.1 6.05 122.6 2.75 128.55 -1.3 134.5 -5.4 140.35 -9.5 146.2 -13.6 152.45 -16.95 164.95 -23.8 178.5 -28.4 192 -33 206.05 -35.45 220.15 -37.9 234.35 -38.3 245 -38.4 255.6 -37 266.2 -35.65 276.25 -32.3 282.9 -30.15 288.95 -26.5 295 -22.85 299.5 -17.7 304 -12.5 306 -5.8 307.85 -0.6 307.8 4.8 307.75 10.15 306.5 15.15 305.25 20.1 303.6 24.05 301.95 28 300.65 30.3 299.85 31.8 299.55 32.3 302.2 28.7 304.8 24.5 307.5 20.15 309.6 15.1 311.65 10.05 312.65 4.25 313.65 -1.65 312.6 -7.65 311.55 -13.65 308.85 -19.05 306.2 -24.5 302.35 -28.65 296.45 -34.85 290.75 -38.8 285.1 -42.8 280.55 -45.05 275.95 -47.25 273.3 -48.25 270.65 -49.2 270.75 -49.35 270.8 -49.3 273.2 -48.75 275.6 -48.2 279.7 -46.95 283.8 -45.7 288.85 -43.5 293.9 -41.3 299.25 -37.95 303.8 -35.4 307.35 -31.85 310.95 -28.35 313.6 -24.65 316.25 -20.9 318 -17.7 319.75 -14.45 320.6 -12.45 321.1 -11.15 321.3 -10.65 319.55 -17.25 316.3 -23.15 312.95 -29.2 308.4 -34.35 303.85 -39.5 298.5 -43.6 290.5 -49.65 281.8 -54 273.1 -58.4 263.8 -61.55 263.3 -61.75 259.05 -62.55 254.85 -63.3 247.4 -63.95 239.95 -64.55 229.9 -64.35 219.85 -64.1 207.7 -62.35 195.55 -60.6 181.95 -56.6 173.35 -54.15 164.35 -50.6 155.3 -47.05 146.15 -42.1 140.15 -39 134.05 -34.85 127.95 -30.75 122.6 -26.65 117.25 -22.55 113.35 -19.6 104.3 -12.95 93.95 -7.9 83.6 -2.8 72.25 0.25 60.95 3.35 49 3.95 40.7 6.15 32.75 6.2 24.75 6.2 18.05 4.35 11.3 2.5 6.85 -0.95 Z"/>
</g>

<g id="RD_Prun_Tail_3_Layer1_5_FILL">
<path fill="#62BC4D" stroke="none" d="
M 6.85 -0.95
Q 4.5 -2.6 2 -3.15 -0.5 -3.7 -2.6 -3.1 -4.7 -2.55 -5.9 -0.85 2.1 6.85 11.75 11.8 21.4 16.75 32.05 19.15 42.7 21.55 53.65 21.75 64.65 21.9 75.25 20.05 85.95 18.25 96.25 14.7 106.5 11.15 116.1 6.05 122.6 2.75 128.55 -1.35 134.5 -5.4 140.35 -9.5 146.2 -13.6 152.45 -16.95 164.95 -23.8 178.5 -28.4 192 -33 206.05 -35.45 220.15 -37.9 234.35 -38.3 245 -38.4 255.6 -37.05 266.2 -35.7 276.25 -32.35 282.9 -30.2 288.95 -26.55 295 -22.9 299.5 -17.7 304 -12.55 306 -5.85 307.85 -0.65 307.8 4.75 307.75 10.15 306.5 15.1 305.25 20.1 303.6 24.05 301.95 28 300.65 30.3 299.75 31.95 299.45 32.45 302.7 28 305.85 22.65 309.05 17.2 311.15 10.8 313.2 4.35 313.05 -3.05 312.9 -8.65 311.05 -13.75 309.25 -18.9 306.35 -23.35 303.45 -27.85 299.95 -31.4 296.45 -34.95 292.9 -37.4 287.45 -41.45 278.7 -44.75 270 -48 258.55 -49.95 247.15 -51.9 233.6 -51.95 220.05 -51.95 204.95 -49.5 189.85 -47 173.8 -41.45 163.8 -37.95 153.75 -33 143.7 -28.05 134.1 -21.3 128 -16.8 122.3 -12.8 116.6 -8.85 110.75 -5.45 104.9 -2 98.3 0.9 88.8 5.15 78.35 7.85 67.85 10.5 57 11.2 46.1 11.85 35.4 10.15 24.7 8.45 14.7 3.95 12.3 2.55 10.25 1.35 8.25 0.2 6.85 -0.95 Z"/>
</g>

<g id="RD_Prun_Tail_3_Layer1_6_FILL">
<path fill="#3A54A5" stroke="none" d="
M 291.55 42.95
Q 289.9029296875 45.508984375 289.95 45.65 290 45.6 292.05 43.25
L 291.55 42.95
M 323.65 1.9
Q 323.70703125 1.0216796875 323.7 0.1
L 323.4 0.1
Q 323.6 1.9 323.65 1.9
M 178.35 0.2
Q 177.11171875 0.5244140625 176.05 0.75 176.6869140625 0.7298828125 178.65 0.8
L 178.35 0.2
M 289.75 -24.4
Q 290.7421875 -23.5228515625 291.65 -22.6
L 292.1 -23.1
Q 290.1 -24.2 289.75 -24.4 Z"/>

<path fill="#1D9AD6" stroke="none" d="
M 12.1 -0.3
Q 7.95 -1.6 6.8 -2.35 4.55 -3.3 2.15 -3.85 -0.3 -4.35 -2.5 -4.05 -4.65 -3.8 -6.15 -2.2 -7.5 -0.65 -8.05 1.6 -8.65 3.85 -7.55 6.7 -6.45 9.55 -2.85 12.9 9.35 22.9 22.4 28.85 35.4 34.8 48.75 37.35 62.1 39.9 75.25 39.8 88.35 39.7 100.8 37.6 113.25 35.55 124.45 32.2 135.65 28.85 145.15 24.9 154.65 21 161.85 17.2 169.7 14.25 178.35 12.5 187.05 10.7 195.45 9.8 203.85 8.85 210.9 8.45 217.95 8 222.65 7.8 227.3 7.55 228.5 7.15 226.05 6.1 221.85 4.85 217.6 3.6 212.4 2.45 207.15 1.25 201.65 0.35 196.15 -0.55 191.15 -0.85 196.6 -2.1 203.4 -3.2 210.2 -4.3 217.55 -5 224.95 -5.7 232.25 -5.7 239.5 -5.7 245.95 -4.75 252.6 -3.95 257.85 -2.6 263.1 -1.25 266.15 0.05 269.05 1.4 270.25 2.15 271.5 2.85 271.6 3 272.95 4.1 273.1 4.45 274.05 3.1 273.3 0.65 272.55 -1.75 270.7 -3.95 268.9 -6.15 266.6 -8 264.3 -9.85 262.2 -11.25 259.1 -13.4 256.35 -14.85 253.6 -16.3 251.7 -17.15 256.05 -17.35 260.95 -17.25 265.85 -17.15 270.8 -16.65 275.75 -16.1 280.3 -15.05 284.8 -13.95 288.35 -12.15 292.1 -10.4 294.6 -7.95 297.15 -5.5 298.6 -3.05 300.1 -0.6 300.75 1.15 301.4 2.9 301.4 3.35 302.35 7 302.4 11.25 304.4 5.85 304.55 0.15 304.7 -5.55 302.55 -11.1 304.15 -8.6 305.4 -4.7 306.65 -0.85 306.8 4 306.85 8.85 305.6 13.95 304.4 19.05 302.35 23.7 299.5 29.95 296.6 34.85 293.75 39.75 291.8 42.65 291.6873046875 42.819140625 291.55 42.95
L 292.05 43.25
Q 294.05 40.95 297.6 36.9 299.95 34.2 302.6 30.65 305.3 27.15 307.85 22.8 310.4 18.4 312.35 13.1 314.5 7.85 314.9 1.65 315.3 -4.55 313.95 -10.7 312.55 -16.85 309.4 -22 306.3 -27.1 302.7 -30.85 299.15 -34.6 295.8 -37.15 292.5 -39.75 290.05 -41.35 292.3 -40.2 294.6 -39 296.9 -37.8 299.15 -36.15 303.95 -33 308 -29.1 312.05 -25.2 315.1 -20.9 318.1 -16.6 319.85 -12.35 321.55 -8.15 322.35 -4.95 323.15 -1.7 323.4 0.1
L 323.7 0.1
Q 323.8072265625 -5.2568359375 322.35 -11.3 320.6 -18.35 316.9 -25.25 313.2 -32.1 307.65 -37.7 302.15 -43.35 296.2 -47.45 290.2 -51.6 284.3 -54.6 278.4 -57.6 273.1 -59.8 260.95 -64.7 247.75 -67.95 234.55 -71.2 220.15 -72.05 205.75 -72.9 189.95 -70.6 174.2 -68.25 156.85 -61.9 151.35 -59.8 145.1 -56.2 138.8 -52.6 132.55 -48.2 129.45 -45.9 126.5 -43.6 123.5 -41.35 120.75 -38.9 119.4 -37.75 118.05 -36.55 116.7 -35.4 115.55 -34.4 113.95 -32.9 112.45 -31.55 112.75 -32.85 114.5 -35.6 116.2 -38.35 118.8 -41.9 121.4 -45.45 124.4 -49.2 127.4 -52.95 130.25 -56.25 134.3 -60.85 137.9 -64.5 141.5 -68.1 143.75 -70.2 146 -72.3 146.05 -72.35 141.35 -70.75 135.35 -67.65 129.4 -64.55 122.9 -60.05 116.45 -55.5 110.35 -49.6 108.95 -48.2 107.25 -46.45 106.7 -45.8 106.3 -45.25 105.9 -44.65 105.4 -43.95 104.5 -42.65 103.45 -41.05 102.45 -39.45 101.25 -37.9 98.95 -34.6 96.15 -31.05 93.4 -27.5 90.25 -24.1 86.1 -19.5 81.6 -15.7 77.1 -11.9 73.15 -9.25 69.25 -6.55 66.85 -5.25 64.5 -3.95 59.75 -2.2 55 -0.4 48.7 1.05 42.45 2.45 35.45 2.7 28.5 3 22.4 2.05 16.3 1.05 12.1 -0.3
M 133.15 -63.4
Q 129.9 -60 126.4 -55.9 122.9 -51.8 119.55 -47.5 116.25 -43.2 113.45 -39.2 110.95 -34.55 109.5 -31.65 108.05 -28.7 107.85 -28.6 105.6 -24.8 103.15 -20.9 106.65 -23.8 110.1 -26.65 112 -28.45 113.8 -30.1 115.6 -31.75 117.9 -33.7 120.8 -36.1 123.75 -38.4 126.7 -40.7 129.8 -42.75 135.9 -47 142.4 -50.45 148.85 -53.95 155.5 -56.65 172.25 -63.15 187.95 -65.9 203.7 -68.6 218.35 -68.2 232.95 -67.8 246.25 -64.9 259.6 -62 271.45 -57.2 280.85 -53.35 289.75 -48 298.6 -42.65 306.15 -34.7 300.8 -39.25 294.75 -42.35 288.75 -45.45 282.85 -47.45 276.9 -49.4 271.9 -50.6 267.15 -51.75 262.55 -52.45 257.95 -53.15 253.25 -53.65 257.75 -52.45 262.1 -51 266.45 -49.6 270.8 -47.8 270.95 -47.7 274.15 -46.4 277.35 -45.1 282.7 -42.2 288.05 -39.25 294.6 -34.3 297.8 -31.75 300.8 -28.4 303.75 -25 306.15 -20.95 308.6 -16.85 310.05 -12.2 312.2 -5.1 311.4 2 310.65 9.1 307.95 15.15 309.2 10.6 309.1 5.3 309 0 307.45 -5 305.85 -10 302.75 -13.65 299.85 -17.4 297 -19.65 294.15 -21.95 292.1 -23.1
L 291.65 -22.6
Q 295.1265625 -19.1453125 297.5 -15.15 300.5 -10.1 301.15 -4.75 299.25 -8.05 295.55 -11 291.85 -13.95 286.75 -16.05 281.65 -18.15 275.55 -18.85 269.5 -19.7 263.35 -19.8 257.25 -19.9 251.85 -19.65 246.4626953125 -19.4005859375 242.55 -19.25 242.7380859375 -19.2130859375 244.5 -18.4 246.5 -17.45 249.65 -15.75 252.8 -14.05 256.35 -11.85 259.9 -9.65 263.1 -7.15 266.3 -4.7 268.4 -2.2 265.25 -3.85 259.25 -5.3 253.25 -6.75 245.4 -7.65 237.55 -8.5 228.85 -8.4 220.2 -8.3 211.7 -6.9 203.4 -5.8 196.4 -4.3 189.4 -2.75 184.15 -1.35 180.83359375 -0.433984375 178.35 0.2
L 178.65 0.8
Q 181.5 0.95 186.05 1.35 190.6 1.75 195.85 2.4 201.1 3.05 205.95 3.9 210.8 4.75 214.3 5.8 211.65 6 206.05 6.1 200.45 6.2 192.7 6.85 184.95 7.55 175.9 9.4 166.85 11.25 157.4 14.95 155.35 15.65 152.2 17.15 149.05 18.65 145.55 20.35 142.25 22 138.8 23.35 135.3 24.75 131.95 26.1 125.05 28.7 118.15 30.65 111.3 32.55 104.7 33.85 95.85 35.5 87.95 36.1 80.05 36.65 73.45 36.55 66.9 36.4 62 35.9 51.25 34.9 40.3 32.1 29.35 29.35 18.95 24.15 8.5 19 -0.65 10.8 -3.35 8.3 -4.25 6.3 -5.15 4.25 -4.85 2.75 -4.5 1.2 -3.55 0.25 -2.5 -0.75 -0.55 -0.85 1.4 -0.95 3.75 -0.4 6.05 0.15 8.15 1.2 11.3 2.8 16.5 4.15 21.7 5.5 28.4 5.95 35.05 6.45 42.55 5.55 50.05 4.55 57.65 2 65.2 -0.55 72.15 -4.4 79.1 -8.3 84.8 -13.3 91.25 -18.9 96.45 -24.95 101.65 -31 105.85 -37 106.9 -38.55 107.9 -39.95 108.85 -41.4 110 -42.85 113.85 -47 117.7 -50.85 125.6 -58.25 133.15 -63.4 Z"/>
</g>

<g id="RD_FrontLeg_3_4_hoof_6_Layer0_0_FILL">
<path fill="#9EDBF8" stroke="none" d="
M -0.95 -17.2
Q -8.6921875 -16.7904296875 -12.35 -12.4 -15.971875 -8.0099609375 -18.15 -4 -20.324609375 0.0544921875 -21.9 7.4 -23.42421875 14.7861328125 -17.1 18.5 -10.7796875 22.268359375 0.15 20.85 11.0783203125 19.4369140625 14.05 14.5 17.0837890625 9.596484375 17.4 1.25 17.7197265625 -7.051171875 12.3 -12.35 6.8671875 -17.5837890625 -0.95 -17.2 Z"/>
</g>

<g id="RD_KneePatch_1_Layer0_0_FILL">
<path fill="#6DABDD" stroke="none" d="
M 10.75 -8.3
L 10.75 -8.45
Q 10.999609375 -9.6171875 11 -10.9 11.0111328125 -16.75078125 6.7 -21.15 2.4033203125 -25.5216796875 -3.55 -25.85 -9.52421875 -26.1814453125 -13.85 -22.55 -18.2634765625 -18.8869140625 -18.25 -13.75
L -18.25 -13.7
Q -18.333203125 -9.8595703125 -15.45 -3.75
L -15.4 -3.65 -15.4 -3.6
Q -12.6767578125 2.0408203125 -9.8 10.1
L -9.75 10.2
Q -9.74140625 10.22421875 -9.75 10.25
L -9.75 10.25
Q -6.684765625 18.7166015625 -4.1 21.8
L -4.05 21.85
Q -1.2443359375 25.3462890625 3.45 25.6
L 3.5 25.6
Q 8.171875 25.7728515625 11.55 22.6 14.949609375 19.4423828125 15.4 15.75 15.955859375 12.0994140625 13.1 9.2 8.4591796875 3.042578125 10.65 -7.8 10.721875 -8.034375 10.75 -8.3 Z"/>
</g>

<g id="RD_HindLeg_3_4rear_lower_2_Layer1_0_FILL">
<path fill="#9EDBF8" stroke="none" d="
M -5.65 -3.6
Q -13.0958984375 2.169140625 -8.9 12.2 -5.18671875 19.70546875 7.6 6.9 17.0154296875 -1.388671875 11.5 -5.15 1.836328125 -8.4703125 -5.65 -3.6 Z"/>
</g>

<g id="RD_HindLeg_3_4rear_lower_2_Layer0_0_FILL">
<path fill="#9EDBF8" stroke="none" d="
M -10.2 3.35
Q -15.7921875 31.9404296875 -8.9 59.25
L 24.35 43.05
Q 15.0326171875 27.90546875 13.4 -2.55
L -10.2 3.35 Z"/>
</g>

<g id="RD_HindLeg_3_4_top_3_Layer1_0_FILL">
<path fill="#6DABDD" stroke="none" d="
M -19.65 44.3
Q -19.6541015625 43.8923828125 -19.7 43.45 -19.7474609375 43.891015625 -19.8 44.3
L -19.65 44.3
M 0.85 -4.4
L 0.85 -4.4
Q -8.440625 -7.578515625 -18.8 -4.85 -20.7306640625 -4.3076171875 -22.7 -3.6 -35.693359375 1.456640625 -37.3 12.75 -36.67265625 13.8740234375 -36.05 14.95 -35.9734375 15.0919921875 -35.9 15.2
L -35.5 15.95
Q -32.348046875 1.869921875 -18.8 -1.8 -4.6494140625 -5.201171875 3.15 0.8 4.996875 2.69765625 6.85 5.45 8.5537109375 7.9505859375 9.85 11.55 10.773828125 14.0306640625 11.95 18.6 13.480078125 24.059375 14 30.65 14.6548828125 37.772265625 13.95 44.3
L 16.5 44.3
Q 17.1921875 37.8173828125 16.9 31 16.514453125 22.81796875 14.85 16.7 12.33671875 7.5259765625 8.9 2.55 6.02890625 -1.5513671875 3.15 -3.35 2.012890625 -4.0341796875 0.85 -4.4
L 0.85 -4.4 Z"/>

<path fill="#9EDBF8" stroke="none" d="
M 6.85 5.45
Q 4.996875 2.69765625 3.15 0.8 -4.6494140625 -5.201171875 -18.8 -1.8 -32.348046875 1.869921875 -35.5 15.95
L -35.9 15.2
Q -41.54375 35.5021484375 -19.7 43.4
L -19.7 43.45
Q -19.6541015625 43.8923828125 -19.65 44.3
L 13.95 44.3
Q 14.6548828125 37.772265625 14 30.65 13.480078125 24.059375 11.95 18.6 10.773828125 14.0306640625 9.85 11.55 8.5537109375 7.9505859375 6.85 5.45 Z"/>
</g>

<g id="RD_HindLeg_3_4_top_3_Layer0_0_FILL">
<path fill="#6DABDD" stroke="none" d="
M 8.7 79.1
L 8.7 79.1
Q -3.7240234375 82.317578125 -15.9 55.05 -20.4896484375 46.2076171875 -20.85 37.15 -20.8546875 36.330078125 -20.85 35.45
L -20.85 35.4
Q -22.584375 41.745703125 -21.75 46.8 -20.8296875 51.911328125 -17.95 57.6
L -17.95 57.6
Q -11.971484375 69.1169921875 -6.05 75 -5.2890625 76.075390625 -4.35 77.05
L -4.35 77
Q -0.276953125 80.9404296875 5.2 80.6 7.4673828125 80.5080078125 8.7 79.1
M 14.45 15.7
L 10.9 14.4
Q 12.36328125 19.052734375 13 21.7 14.323046875 26.6453125 14.55 32.3 14.936328125 39.9142578125 12.65 49.15 10.4171875 58.4453125 9.3 62.55 8.17265625 66.672265625 9.1 73.05 9.75390625 77.3060546875 8.75 79.05 9.4486328125 78.3134765625 9.8 77.2 9.9109375 76.9609375 9.95 76.7 10.304296875 75.502734375 10.2 71.5 10.1513671875 67.5421875 11.45 63 12.7974609375 58.489453125 15.1 49.55 17.4509765625 40.6375 17.45 33.45 17.5064453125 26.2955078125 16.1 20.75 15.6138671875 18.894921875 14.45 15.7 Z"/>

<path fill="#9EDBF8" stroke="none" d="
M 12.65 49.15
Q 14.936328125 39.9142578125 14.55 32.3 14.323046875 26.6453125 13 21.7 12.36328125 19.052734375 10.9 14.4
L -8.9 17.15 -20.85 35.45
Q -20.8546875 36.330078125 -20.85 37.15 -20.4896484375 46.2076171875 -15.9 55.05 -3.7240234375 82.317578125 8.7 79.1
L 8.7 79.1 8.75 79.1
Q 8.764453125 79.1033203125 8.75 79.05 9.75390625 77.3060546875 9.1 73.05 8.17265625 66.672265625 9.3 62.55 10.4171875 58.4453125 12.65 49.15 Z"/>
</g>

<g id="RD_KneePatch_0_Layer0_0_FILL">
<path fill="#9EDBF8" stroke="none" d="
M 6.95 -3.8
Q 7.6271484375 -8.4921875 7.65 -8.75
L 7.65 -8.75
Q 7.6830078125 -8.7876953125 7.7 -8.85 7.850390625 -9.7474609375 7.85 -10.75 7.8390625 -15.39921875 4.4 -18.9 0.946484375 -22.4283203125 -3.85 -22.7 -8.6259765625 -22.9685546875 -12.1 -20.1 -15.376171875 -17.3716796875 -15.4 -13.55
L -15.4 -13.55
Q -15.40625 -10.530078125 -12.6 -4.2
L -12.4 -3.7
Q -12.324609375 -3.590625 -12.3 -3.5 -12.2001953125 -3.3171875 -12.15 -3.15 -12.0654296875 -3.0400390625 -12 -2.95
L -12 -2.9 -11.95 -2.8
Q -9.565234375 2.4005859375 -7.1 9.35 -7.0333984375 9.4712890625 -7.05 9.6 -4.2322265625 17.2533203125 -1.9 20.1
L -1.9 20.1
Q 0.112890625 22.6044921875 3.45 22.75 6.435546875 22.852734375 8.7 21.1
L 8.7 21.15
Q 19.876171875 11.2931640625 12.45 5.8 11.055859375 5.381640625 9.7 4.45 9.7404296875 4.5390625 9.75 4.6 8.476171875 3.9505859375 7.75 2.7 6.5830078125 1.1353515625 6.75 -1.95 6.7810546875 -2.8294921875 6.9 -3.8
L 6.95 -3.8 Z"/>
</g>

<g id="WingcycleBACK_1_Layer10_0_FILL">
<path fill="#6DABDD" stroke="none" d="
M 39.6 -30.9
Q 39.4810546875 -31.13359375 39.25 -31.35 33.17265625 -36.5900390625 22.15 -27.25 12.666796875 -19.233984375 -0.95 0.35 -0.20234375 1.8505859375 0.55 3.45 1.6251953125 5.7134765625 2.65 8.05 22.3080078125 2.6916015625 33.95 -9.25 34.0005859375 -9.2896484375 34 -9.35 44.8591796875 -21.7701171875 39.6 -30.9 Z"/>
</g>

<g id="WingcycleBACK_1_Layer9_0_FILL">
<path fill="#6DABDD" stroke="none" d="
M 53.05 -86.35
Q 52.8037109375 -86.6509765625 52.45 -86.8 42.3251953125 -91.1734375 27 -64.8 12.605078125 -39.3505859375 -2.8 -3.3 -1.1568359375 -0.17890625 0.55 3.45 0.6185546875 3.5943359375 0.65 3.75 21.735546875 -11.3896484375 37.4 -34.05
L 37.45 -34.1
Q 63.7599609375 -74.0498046875 53.05 -86.35 Z"/>
</g>

<g id="WingcycleBACK_1_Layer8_0_FILL">
<path fill="#6DABDD" stroke="none" d="
M 39.75 -132.9
L 39.7 -132.9
Q 24.4009765625 -128.6765625 15.9 -81.8 14.675 -75.0126953125 13.5 -68.15 5.7623046875 -23.144140625 -4.15 -5.75 -2.569140625 -2.9525390625 -0.95 0.35 24.6013671875 -40.5666015625 35 -69 43.458984375 -92.23046875 45.95 -105.6 46.79453125 -109.592578125 47.1 -112.9 48.8740234375 -129.653515625 44.1 -132.45 44.040234375 -132.5048828125 43.95 -132.55 42.029296875 -133.4978515625 39.75 -132.9 Z"/>
</g>

<g id="WingcycleBACK_1_Layer7_0_FILL">
<path fill="#6DABDD" stroke="none" d="
M 10.8 -134.75
Q 8.0279296875 -136.0515625 4.4 -133.95 4.116796875 -133.7884765625 3.9 -133.55 -8.480859375 -116.2173828125 -2.9 -64.95 0.8880859375 -31.014453125 -5.25 -7.8 -4.453515625 -6.435546875 -2.6 -2.85 8.2775390625 -21.7681640625 14.1 -48.3 20.1572265625 -76.2005859375 18.95 -103.95
L 18.95 -104
Q 18.5341796875 -122.037890625 15.35 -129.4 13.5240234375 -133.6423828125 10.8 -134.75 Z"/>
</g>

<g id="WingcycleBACK_1_Layer5_0_FILL">
<path fill="#9EDBF8" stroke="none" d="
M 31.85 -11.5
Q 40.6814453125 -21.5697265625 37.1 -28.9 32.5306640625 -31.932421875 24 -24.7 14.482421875 -16.6140625 0.6 3.35
L 1.45 5.15
Q 20.5798828125 -0.0015625 31.85 -11.5 Z"/>
</g>

<g id="WingcycleBACK_1_Layer4_0_FILL">
<path fill="#9EDBF8" stroke="none" d="
M 29.45 -63.3
Q 29.4640625 -63.24921875 29.45 -63.25 14.780078125 -37.1451171875 -1.05 0.15 -0.8466796875 0.54765625 -0.65 0.95 19.6681640625 -13.7822265625 34.85 -35.75
L 34.85 -35.8
Q 59.11171875 -72.62265625 50.8 -84 42.79296875 -86.2037109375 29.45 -63.3 Z"/>
</g>

<g id="WingcycleBACK_1_Layer3_0_FILL">
<path fill="#9EDBF8" stroke="none" d="
M 43 -106.15
Q 43.790234375 -109.9736328125 44.1 -113.2 45.5890625 -127.1875 42.55 -129.85 41.5673828125 -130.234765625 40.45 -129.95 26.8875 -125.4404296875 18.85 -81.25 17.6494140625 -74.475 16.45 -67.7 8.8689453125 -23.6408203125 -0.85 -5.6 22.39765625 -43.369140625 32.15 -70.05 40.525 -92.9396484375 43 -106.15
L 43 -106.15 Z"/>
</g>

<g id="WingcycleBACK_1_Layer2_0_FILL">
<path fill="#9EDBF8" stroke="none" d="
M 15.85 -103.8
L 15.85 -103.8
Q 15.506640625 -121.1134765625 12.55 -128.15 11.29921875 -131.0984375 9.55 -131.95 8.089453125 -132.515625 6.15 -131.55 -5.2494140625 -114.5875 0.15 -65.35 2.8359375 -41.2064453125 0.05 -23.1 -0.8552734375 -18.380078125 -2.2 -14.4 -3.4982421875 -10.6369140625 -5.2 -7.55 -4.0560546875 -5.647265625 -2.9 -3.5 -0.2830078125 -7.6373046875 1.6 -13.1 3.56640625 -18.834765625 4.7 -26.1 8.4541015625 -36.65234375 11.1 -48.9 17.0869140625 -76.4130859375 15.85 -103.8 Z"/>
</g>

<g id="WingcycleBACK_1_Layer1_0_FILL">
<path fill="#9EDBF8" stroke="none" d="
M 13.05 -83.15
Q 12.95 -82.5 12.95 -81.5 12.7984375 -78.9025390625 12.65 -76.85 12.248828125 -79.772265625 11.5 -80.35
L 10.95 -80.35
Q 11.85 -71.8 8.9 -50.2 8.0626953125 -44.0875 7.15 -37.7 6.9203125 -37.1755859375 6.65 -36.45 5.8 -34.2 5.8 -33.1 5.8 -30.15 4.25 -25.35 1.6 -17.25 1.55 -17.05 0.5 -13.1 -2.95 -7 -3.467578125 -6.090234375 -3.9 -5.35 -1.829296875 -1.0587890625 -0.25 2 1.333203125 5.1048828125 2.55 7.8 6.41328125 5.0662109375 13.55 -1 13.5 -1.35 11.75 -1.4 6.6560546875 0.3572265625 3.35 1.75 3.5224609375 1.1123046875 3.8 0.3
L 3.85 0.3
Q 5.6 0.3 9.75 -6.15 9.75 -7.45 8.45 -7.45 7.423828125 -6.8484375 6.85 -6.65 6.88671875 -6.673828125 6.9 -6.7 10.6 -14.05 10.6 -14.7 10.6 -15.5 8.55 -16.4 8.7 -17 9.7 -18.95 10.55 -20.65 10.55 -21.45 10.55 -21.85 9.25 -23.25 9.25 -24.4 11.1 -27.15 11.1 -28.79609375 9.75 -29 9.8783203125 -30.3841796875 10.3 -33.55 10.5970703125 -34.4634765625 10.95 -35.55 10.931640625 -35.6203125 10.9 -35.7 11.1607421875 -36.315234375 11.45 -37.05 11.45 -38.05 12.15 -43.1 12.15 -46.9 12.95 -50 13.75 -53.05 13.75 -54.65 13.75 -55.05625 13.85 -57.6 15.05 -66.6966796875 15.05 -76.1 15.05 -79.9 13.85 -83.2
L 13.55 -83.2
Q 13.53125 -83.06171875 13.5 -82.95 13.4818359375 -83.0435546875 13.45 -83.15
L 13.05 -83.15 Z"/>
</g>

<g id="RD_FrontLeg_3_4_hoof_11_Layer0_0_FILL">
<path fill="#6DABDD" stroke="none" d="
M 17 -14.7
L 17 -14.75
Q 13.2947265625 -22.103515625 5.85 -24.55 -1.5326171875 -26.9390625 -8.25 -22.9
L -8.3 -22.9
Q -14.2681640625 -19.2318359375 -16.65 -12.25 -16.7095703125 -12.1240234375 -16.75 -12 -18.8623046875 -5.1681640625 -20.1 3.15 -20.090234375 3.22890625 -20.1 3.3 -20.9037109375 14.259375 -8.95 21.8 -8.87421875 21.828125 -8.8 21.85 -2.87265625 24.74140625 3.8 22.85
L 3.85 22.8
Q 18.45859375 17.8275390625 19.55 4.35
L 19.55 4.45
Q 20.3158203125 -0.8623046875 19.1 -7.5 18.6923828125 -11.2048828125 17 -14.7
M 14.6 -13.25
L 14.6 -13.3
Q 15.707421875 -11.0302734375 16.15 -8.7 16.17109375 -8.456640625 16.2 -8.25 16.312109375 -7.805078125 16.4 -7.4 16.6583984375 -5.9748046875 16.8 -4.65 17.44453125 0.0908203125 16.9 4 16.8861328125 4.065625 16.85 4.1 15.7603515625 15.616796875 3.05 19.95
L 3.1 19.9
Q -2.6326171875 21.560546875 -7.75 19.1
L -7.6 19.15
Q -17.842578125 12.691796875 -17.4 3.45 -16.7109375 -1.0279296875 -15.8 -5.1 -15.2990234375 -7.1427734375 -14.75 -9.1
L -14.65 -9.45
Q -14.5974609375 -9.6119140625 -14.55 -9.8 -14.376953125 -10.4140625 -14.2 -11.05 -14.1177734375 -11.2125 -14.1 -11.4
L -14.05 -11.4
Q -11.9736328125 -17.192578125 -6.95 -20.25
L -7 -20.25
Q -1.2203125 -23.706640625 5.1 -21.65 11.4658203125 -19.561328125 14.6 -13.25 Z"/>

<path fill="#9EDBF8" stroke="none" d="
M 14.6 -13.3
L 14.6 -13.25
Q 11.4658203125 -19.561328125 5.1 -21.65 -1.2203125 -23.706640625 -7 -20.25
L -6.95 -20.25
Q -11.9736328125 -17.192578125 -14.05 -11.4
L -14.1 -11.4
Q -14.1177734375 -11.2125 -14.2 -11.05 -14.376953125 -10.4140625 -14.55 -9.8 -14.5974609375 -9.6119140625 -14.65 -9.45
L -14.75 -9.1
Q -15.2990234375 -7.1427734375 -15.8 -5.1 -16.7109375 -1.0279296875 -17.4 3.45 -17.842578125 12.691796875 -7.6 19.15
L -7.75 19.1
Q -2.6326171875 21.560546875 3.1 19.9
L 3.05 19.95
Q 15.7603515625 15.616796875 16.85 4.1 16.8861328125 4.065625 16.9 4 17.44453125 0.0908203125 16.8 -4.65 16.6583984375 -5.9748046875 16.4 -7.4 16.312109375 -7.805078125 16.2 -8.25 16.17109375 -8.456640625 16.15 -8.7 15.707421875 -11.0302734375 14.6 -13.3 Z"/>
</g>

<g id="RD_FrontLeg_3_4_upper_20_Layer1_0_FILL">
<path fill="#9EDBF8" stroke="none" d="
M 5.5 -1.05
L -5.95 -1.05
Q -23.45 30.8 -32.7 58.35
L 11.65 62.95
Q 12.4 41.65 5.5 -1.05 Z"/>
</g>

<g id="RD_HoofWrinkle_2_Layer0_0_FILL">
<path fill="#6DABDD" stroke="none" d="
M -6.15 0.85
Q -6.28046875 0.943359375 -6.4 1.05
L -6.05 1
Q 0.4029296875 -1.28125 5.95 0.8
L 6.4 0.9
Q 6.229296875 0.7560546875 6.05 0.6 3.57890625 -1.2400390625 -0.2 -1.1 -3.897265625 -1.0052734375 -6.15 0.85 Z"/>
</g>

<g id="RD_Torso_0_Layer1_0_FILL">
<path fill="#6DABDD" stroke="none" d="
M 23.2 -25.3
L 23.15 -25.3
Q 13.6134765625 -36.3685546875 0.1 -36.35 -13.413671875 -36.3685546875 -23 -25.3
L -23 -25.3
Q -33.85 -12.65 -33.5 1.85 -33 18.5 -26.15 26.5 -21.66640625 31.7732421875 -13.9 34.5 -7.2111328125 36.9048828125 0.1 36.9 17.13203125 36.8990234375 25.65 26.85 28.45 23.6 30.65 17.8 33.45 10.3 33.7 1.85 34.05 -12.65 23.2 -25.3
M 0.1 -33.35
Q 12.2779296875 -33.331640625 20.9 -23.35
L 20.9 -23.35 20.9 -23.35
Q 30.45 -12.15 30.7 1.85 30.95 16.1 23.35 24.9 15.568359375 33.90078125 0.1 33.9 -6.6890625 33.8951171875 -12.9 31.65 -19.83359375 29.2265625 -23.85 24.55 -30.2 17 -30.5 1.15 -30.7 -11.65 -20.7 -23.35
L -20.75 -23.35 -20.7 -23.35
Q -12.069921875 -33.331640625 0.1 -33.35 Z"/>

<path fill="#F4B6D1" stroke="none" d="
M -20.7 -23.35
L -20.7 -23.35 -20.75 -23.35 -20.7 -23.35
M 20.9 -23.35
L 20.9 -23.35 20.9 -23.35 20.9 -23.35 Z"/>

<path fill="#9EDBF8" stroke="none" d="
M 20.9 -23.35
Q 12.2779296875 -33.331640625 0.1 -33.35 -12.069921875 -33.331640625 -20.7 -23.35
L -20.7 -23.35
Q -30.7 -11.65 -30.5 1.15 -30.2 17 -23.85 24.55 -19.83359375 29.2265625 -12.9 31.65 -6.6890625 33.8951171875 0.1 33.9 15.568359375 33.90078125 23.35 24.9 30.95 16.1 30.7 1.85 30.45 -12.15 20.9 -23.35
L 20.9 -23.35 Z"/>
</g>

<g id="RD_Prun_Mane_cycle_4_Layer0_0_FILL">
<path fill="#1D9AD6" stroke="none" d="
M 36.8 -30.8
Q 34.7 -31.15 32.95 -31.5 30.1 -32 27.45 -32.55 24.75 -33.05 21.85 -33.55 19 -34.1 15.65 -34.6 5.8 -36.25 -4.35 -36.95 -14.5 -37.7 -24.9 -37.4 -22.15 8.15 -19.65 53.75 -13.6 51.35 -7.05 49.6 -0.45 47.85 6.6 46.8 9.05 46.4 11.85 46.1 14.6 45.85 17.55 45.6 20.5 45.35 23.3 45.1 25.55 45.05 27.3 44.9 29.05 44.75 30.65 44.6 32.25 44.4 34.05 44.25 36.6 43.95 39.3 43.55 41.95 43.15 44.55 42.75 54.05 40.9 63.6 38.35 73.15 35.8 82.5 32.15 91.85 28.5 100.85 23.4 109.85 18.3 118.25 11.4 109.1 15.15 100.4 16.85 91.65 18.55 83.2 18.9 74.7 19.2 66.45 18.75 72.85 16.15 79.15 13 85.45 9.85 91.2 6.1 97 2.35 101.9 -2 106.8 -6.35 110.4 -11.35 114.05 -16.35 116 -22 113 -19.95 111.05 -19.15 108.85 -18.2 106.45 -17.5 104.15 -16.8 101.6 -16.35 99.1 -15.95 96.55 -15.6 91.3 -15.15 85.8 -15.35 80.35 -15.5 74.7 -16.2 78.9 -19.05 82.4 -22.25 86 -25.4 88.55 -28.65 91.1 -31.95 92.3 -35.1 90 -34 86.8 -33.05 83.55 -32.1 79.75 -31.35 75.85 -30.55 71.6 -30.05 65.25 -29.4 58.7 -29.35 52.2 -29.25 45 -29.85 43.2 -29.95 41.05 -30.25 38.9 -30.5 36.8 -30.8 Z"/>
</g>

<g id="RD_Prun_Mane_cycle_4_Layer0_1_FILL">
<path fill="#672E8A" stroke="none" d="
M 82.5 32.15
Q 91.85 28.5 100.8 23.4 109.85 18.3 118.25 11.4 109.1 15.15 100.35 16.85 91.65 18.55 83.15 18.9 74.7 19.2 66.4 18.8 74.45 15.35 81.85 11.15 69.05 14.75 55.9 16.3 42.7 17.85 29.15 17.5 20.2 16.9 11.9 16.6 3.55 16.3 -4.5 16.65 -12.5 17 -20.5 18.2 -20.2 36 -19.65 53.75 -13.65 51.35 -7.05 49.6 -0.5 47.9 6.6 46.75 9.05 46.4 11.8 46.1 14.6 45.85 17.55 45.6 20.45 45.4 23.3 45.1 25.5 45.05 27.25 44.95 29.05 44.75 30.65 44.6 32.25 44.4 34.05 44.25 36.6 44 39.25 43.55 41.95 43.15 44.55 42.8 54.1 40.9 63.6 38.35 73.15 35.8 82.5 32.15 Z"/>
</g>

<g id="RD_Prun_Mane_cycle_4_Layer0_2_FILL">
<path fill="#62BC4E" stroke="none" d="
M 36.8 -30.8
Q 34.7 -31.15 32.95 -31.5 30.1 -32 27.45 -32.55 24.75 -33.05 21.85 -33.55 19 -34.1 15.65 -34.6 5.8 -36.25 -4.35 -36.95 -14.5 -37.7 -24.9 -37.4
L -23.15 -8.1
Q -14.95 -8.9 -6.75 -9 1.5 -9.1 9.7 -8.55 15.25 -8.15 20.35 -7.65 25.45 -7.1 30.25 -6.7 35 -6.25 39.55 -6.2 48.85 -6.1 58.2 -7.05 67.5 -7.95 76.3 -10 85.1 -12.1 92.75 -15.35 83.95 -15 74.7 -16.2 78.9 -19.05 82.4 -22.25 86 -25.4 88.55 -28.65 91.1 -31.95 92.3 -35.1 90 -34 86.8 -33.05 83.55 -32.1 79.75 -31.35 75.85 -30.55 71.6 -30.05 65.25 -29.4 58.7 -29.35 52.2 -29.25 45 -29.85 43.2 -29.95 41.05 -30.25 38.9 -30.5 36.8 -30.8 Z"/>
</g>

<g id="RD_Prun_Mane_cycle_4_Layer0_3_FILL">
<path fill="#1D9AD6" stroke="none" d="
M 39.15 -33.5
Q 37.9 -33.65 36.65 -33.85 36.35 -33.85 35.8 -33.9 35.25 -34 34.9 -34
L 31.45 -34.6
Q 29.1 -34.95 26.8 -35.35 24.5 -35.75 22.05 -36.05 19.65 -36.45 16.85 -36.85 10.2 -37.85 3.85 -38.35 -2.45 -38.85 -7.95 -38.95 -13.45 -39.1 -17.55 -39 -21.7 -38.95 -24 -38.85
L -26.1 -38.75
Q -24.45 -15.55 -22.8 7.6 -21.15 30.85 -19.65 54.05 -19.5 54.05 -17.15 53.3 -14.8 52.5 -10.5 51.45 -6.2 50.35 -0.2 49.35 5.8 48.35 13.3 47.95 17.35 47.75 21.5 47.5
L 23.55 47.4
Q 24.65 47.5 25.15 47.5 25.65 47.5 25.95 47.4 26.2 47.4 26.75 47.4
L 31.65 47.05
Q 34.05 46.9 36.5 46.65 39 46.35 41.45 46.1 42.15 46 43.05 45.9 43.9 45.8 44.65 45.7 45.35 45.6 45.7 45.45 47.9 45.1 49.95 44.75 55.45 43.75 60.1 42.65 64.7 41.55 68.2 40.5 71.75 39.45 73.8 38.65 76.95 37.55 80.7 35.9 84.4 34.25 88.45 32.2 92.45 30.15 96.5 27.8 100.5 25.4 104.25 22.85 107.95 20.25 111 17.7 114.05 15.2 116.25 13.05 118.45 10.95 119.65 9.7 120.85 8.4 120.8 8.35 120.8 8.4 119.3 9.05 117.85 9.7 115.15 10.7 112.55 11.65 109.05 12.7 105.55 13.7 101.55 14.5 96.2 15.6 90.55 16.25 84.9 16.95 79.45 17.35 74.1 17.8 69.5 18.1 73.95 16.85 79.1 14.7 84.2 12.5 89.35 9.5 94.55 6.55 99.25 2.95 103.95 -0.65 107.6 -4.7 110.1 -7.4 111.75 -9.95 113.45 -12.5 114.6 -14.9 115.7 -17.25 116.55 -19.35 118.05 -22.8 118.9 -24.7 119.75 -26.6 119.75 -26.65 119.7 -26.65 118.25 -25.7 116.8 -24.75 114.2 -23.05 112.8 -22 111.6 -21.4 110.35 -20.85 109.2 -20.35 106.55 -19.35 103.4 -18.55 100.1 -17.75 96.45 -17.35 92.75 -16.9 89 -16.7 85.25 -16.5 81.8 -16.4 78.35 -16.35 75.5 -16.25 78 -17.4 80.85 -19.35 83.7 -21.25 86.35 -23.65 89 -25.95 90.85 -28.4 92.7 -30.8 93.45 -32.7 94.2 -34.55 94.35 -35.6 94.45 -36.65 94.5 -36.65 94.5 -36.7 93.35 -36.3 92.2 -35.9 89.55 -35.2 86.95 -34.55 82.6 -33.85 79.35 -33.3 75.7 -33.05 72.05 -32.75 68.45 -32.65 64.85 -32.55 61.7 -32.55 58.6 -32.6 56.4 -32.65 54.15 -32.7 50.25 -32.8 49.5 -32.8 48.9 -32.85 48.25 -32.85 47.5 -32.9 46.75 -32.9 45.6 -32.95 43.65 -33.15 41.55 -33.25 40.45 -33.3 39.15 -33.5
M 21.5 -32.05
Q 28.2 -30.9 33.65 -29.9 39.1 -28.9 42.85 -28.5 49.1 -27.85 55.45 -27.8 61.85 -27.7 67.9 -28.2 74.05 -28.7 79.5 -29.7 84.95 -30.75 89.45 -32.3 87.45 -29.35 84.55 -26.35 81.65 -23.4 78.1 -20.6 74.5 -17.8 70.55 -15.25 78.05 -14.15 85.4 -13.8 92.75 -13.55 99.65 -14.5 106.55 -15.55 112.6 -18.25 110.75 -14.05 107.45 -10 104.2 -6.05 99.95 -2.4 95.75 1.25 90.95 4.35 83.75 9.1 75.75 12.9 67.8 16.75 59.35 19.75 67.35 20.45 75.55 20.55 83.75 20.65 92.15 19.7 100.6 18.75 109.45 16.25 98.7 23.4 87.35 28.35 76 33.25 64.25 36.5 52.45 39.75 40.45 41.7 37.1 42.2 33.95 42.6 30.85 43 27.75 43.2 24.6 43.45 21.3 43.65 18.7 43.9 16 44.1 13.25 44.3 10.7 44.6 8.1 44.85 6 45.25 -7.25 47.3 -18.7 51.7 -20.75 7.9 -23.05 -35.9 -15.55 -36.25 -7.85 -35.75 -0.15 -35.25 7.35 -34.25 14.8 -33.2 21.5 -32.05 Z"/>
</g>

<g id="RD_Neck_0_Layer0_0_FILL">
<path fill="#F4B6D1" stroke="none" d="
M -8.5 -95
L -9.05 -95.1 -9.05 -95.05 -8.5 -95
M 17.15 -95.1
L 17.65 -95.1 17.65 -95.15 17.15 -95.1 Z"/>

<path fill="#9EDBF8" stroke="none" d="
M 17.1 -93.6
L 17.15 -95.1 17.65 -95.15
Q 17.35 -105.8 4.4 -107.35 -8.35 -106.95 -9.05 -95.1
L -8.5 -95 -8.6 -93.5
Q -9 -84.8 -14.05 -36.5 -15 -27.3 -15.7 -19.6
L -15.8 -18.7 -15.8 -18.65 -15.85 -18.1
Q -16.3 -13.5 -18.2 -8 -18.39453125 -5.665625 -1.15 -0.05 24.5900390625 -5.5109375 24.5 -7.4 22.65 -12.8 22.35 -17.25
L 22.35 -17.4 22.25 -18.75
Q 21.65 -26.9 20.8 -36.7 16.9 -82.4 17.1 -93.6 Z"/>

<path fill="#6DABDD" stroke="none" d="
M 4.65 -109.35
Q 4.55 -109.35 4.5 -109.35 -10.35 -108.95 -11.05 -95.15
L -11.5 -95.15 -11.6 -93.65
Q -12 -85 -17.05 -36.8 -18 -27.6 -18.7 -19.85
L -18.85 -18.4
Q -18.85 -18.35 -18.85 -18.25 -19.3 -13.65 -18.2 -8 -16.3 -13.5 -15.85 -18.1
L -15.8 -18.65 -15.8 -18.7 -15.7 -19.6
Q -15 -27.3 -14.05 -36.5 -9 -84.8 -8.6 -93.5
L -8.5 -95 -9.05 -95.05 -9.05 -95.1
Q -8.35 -106.95 4.4 -107.35 17.35 -105.8 17.65 -95.15
L 17.65 -95.1 17.15 -95.1 17.1 -93.6
Q 16.9 -82.4 20.8 -36.7 21.65 -26.9 22.25 -18.75
L 22.35 -17.4 22.35 -17.25
Q 22.65 -12.8 24.5 -7.4 25.65 -12.95 25.35 -17.35 25.35 -17.4 25.35 -17.45
L 25.25 -18.95
Q 24.65 -27.1 23.8 -36.95 19.9 -82.4 20.1 -93.55
L 20.15 -95.05 19.65 -95.05
Q 19.55 -107.6 4.65 -109.35 Z"/>
</g>

<g id="Wingcycle_1_Layer9_0_FILL">
<path fill="#6DABDD" stroke="none" d="
M 39.6 -30.9
Q 39.4810546875 -31.13359375 39.25 -31.35 33.17265625 -36.5900390625 22.15 -27.25 12.666796875 -19.233984375 -0.95 0.35 -0.20234375 1.8505859375 0.55 3.45 1.6251953125 5.7134765625 2.65 8.05 22.3080078125 2.6916015625 33.95 -9.25 34.0005859375 -9.2896484375 34 -9.35 44.8591796875 -21.7701171875 39.6 -30.9 Z"/>
</g>

<g id="Wingcycle_1_Layer8_0_FILL">
<path fill="#6DABDD" stroke="none" d="
M 53.05 -86.35
Q 52.8037109375 -86.6509765625 52.45 -86.8 42.3251953125 -91.1734375 27 -64.8 12.605078125 -39.3505859375 -2.8 -3.3 -1.1568359375 -0.17890625 0.55 3.45 0.6185546875 3.5943359375 0.65 3.75 0.71171875 3.7236328125 0.75 3.7 21.762890625 -11.4291015625 37.4 -34.05
L 37.45 -34.1
Q 63.7599609375 -74.0498046875 53.05 -86.35 Z"/>
</g>

<g id="Wingcycle_1_Layer7_0_FILL">
<path fill="#6DABDD" stroke="none" d="
M 39.75 -132.9
L 39.7 -132.9
Q 24.4009765625 -128.6765625 15.9 -81.8 14.675 -75.0126953125 13.5 -68.15 5.7623046875 -23.144140625 -4.15 -5.75 -2.569140625 -2.9525390625 -0.95 0.35 24.6013671875 -40.5666015625 35 -69 43.458984375 -92.23046875 45.95 -105.6 46.79453125 -109.592578125 47.1 -112.9 48.8740234375 -129.653515625 44.1 -132.45 44.040234375 -132.5048828125 43.95 -132.55 42.029296875 -133.4978515625 39.75 -132.9 Z"/>
</g>

<g id="Wingcycle_1_Layer6_0_FILL">
<path fill="#6DABDD" stroke="none" d="
M 10.8 -134.75
Q 8.0279296875 -136.0515625 4.4 -133.95 4.116796875 -133.7884765625 3.9 -133.55 -8.480859375 -116.2173828125 -2.9 -64.95 0.8880859375 -31.014453125 -5.2 -7.75 -4.453515625 -6.435546875 -2.6 -2.85 8.2775390625 -21.7681640625 14.1 -48.3 20.1572265625 -76.2005859375 18.95 -103.95
L 18.95 -104
Q 18.5341796875 -122.037890625 15.35 -129.4 13.5240234375 -133.6423828125 10.8 -134.75 Z"/>
</g>

<g id="Wingcycle_1_Layer5_0_FILL">
<path fill="#9EDBF8" stroke="none" d="
M 31.85 -11.5
Q 40.6814453125 -21.5697265625 37.1 -28.9 32.5306640625 -31.932421875 24 -24.7 14.482421875 -16.6140625 0.6 3.35
L 1.45 5.15
Q 20.5798828125 -0.0015625 31.85 -11.5 Z"/>
</g>

<g id="Wingcycle_1_Layer4_0_FILL">
<path fill="#9EDBF8" stroke="none" d="
M 29.45 -63.3
Q 29.4640625 -63.24921875 29.45 -63.25 14.780078125 -37.1451171875 -1.05 0.15 -0.8466796875 0.54765625 -0.65 0.95 19.6681640625 -13.7822265625 34.85 -35.75
L 34.85 -35.8
Q 59.11171875 -72.62265625 50.8 -84 42.79296875 -86.2037109375 29.45 -63.3 Z"/>
</g>

<g id="Wingcycle_1_Layer3_0_FILL">
<path fill="#9EDBF8" stroke="none" d="
M 43 -106.15
Q 43.790234375 -109.9736328125 44.1 -113.2 45.5890625 -127.1875 42.55 -129.85 41.5673828125 -130.234765625 40.45 -129.95 26.8875 -125.4404296875 18.85 -81.25 17.6494140625 -74.475 16.45 -67.7 8.8689453125 -23.6408203125 -0.85 -5.6 22.39765625 -43.369140625 32.15 -70.05 40.525 -92.9396484375 43 -106.15
L 43 -106.15 Z"/>
</g>

<g id="Wingcycle_1_Layer2_0_FILL">
<path fill="#9EDBF8" stroke="none" d="
M 15.85 -103.8
L 15.85 -103.8
Q 15.506640625 -121.1134765625 12.55 -128.15 11.29921875 -131.0984375 9.55 -131.95 8.089453125 -132.515625 6.15 -131.55 -5.2494140625 -114.5875 0.15 -65.35 2.8359375 -41.2064453125 0.05 -23.1 -0.8552734375 -18.380078125 -2.2 -14.4 -3.4982421875 -10.6369140625 -5.2 -7.55 -4.2552734375 -5.3484375 -2.9 -3.5 -0.2830078125 -7.6373046875 1.6 -13.1 3.56640625 -18.834765625 4.7 -26.1 8.4541015625 -36.65234375 11.1 -48.9 17.0869140625 -76.4130859375 15.85 -103.8 Z"/>
</g>

<g id="Wingcycle_1_Layer1_0_FILL">
<path fill="#9EDBF8" stroke="none" d="
M 13.05 -83.15
Q 12.95 -82.5 12.95 -81.5 12.7984375 -78.9025390625 12.65 -76.85 12.248828125 -79.772265625 11.5 -80.35
L 10.95 -80.35
Q 11.85 -71.8 8.9 -50.2 8.0626953125 -44.0875 7.15 -37.7 6.9203125 -37.1755859375 6.65 -36.45 5.8 -34.2 5.8 -33.1 5.8 -30.15 4.25 -25.35 1.6 -17.25 1.55 -17.05 0.5 -13.1 -2.95 -7 -3.467578125 -6.090234375 -4 -5.25 -1.7384765625 -1.415625 0.55 3.45 1.33515625 5.103125 2.35 7.45 4.6478515625 5.2197265625 13.55 -1 13.5 -1.35 11.75 -1.4 6.6560546875 0.3572265625 3.35 1.75 3.5224609375 1.1123046875 3.8 0.3
L 3.85 0.3
Q 5.6 0.3 9.75 -6.15 9.75 -7.45 8.45 -7.45 7.423828125 -6.8484375 6.85 -6.65 6.88671875 -6.673828125 6.9 -6.7 10.6 -14.05 10.6 -14.7 10.6 -15.5 8.55 -16.4 8.7 -17 9.7 -18.95 10.55 -20.65 10.55 -21.45 10.55 -21.85 9.25 -23.25 9.25 -24.4 11.1 -27.15 11.1 -28.79609375 9.75 -29 9.8783203125 -30.3841796875 10.3 -33.55 10.5970703125 -34.4634765625 10.95 -35.55 10.931640625 -35.6203125 10.9 -35.7 11.1607421875 -36.315234375 11.45 -37.05 11.45 -38.05 12.15 -43.1 12.15 -46.9 12.95 -50 13.75 -53.05 13.75 -54.65 13.75 -55.05625 13.85 -57.6 15.05 -66.6966796875 15.05 -76.1 15.05 -79.9 13.85 -83.2
L 13.55 -83.2
Q 13.53125 -83.06171875 13.5 -82.95 13.4818359375 -83.0435546875 13.45 -83.15
L 13.05 -83.15 Z"/>
</g>

<g id="Wingcycle_1_Layer0_0_FILL">
<path fill="#6DABDD" stroke="none" d="
M 10.75 -61.2
L 10.75 -61.15
Q 13.492578125 -57.1919921875 12.7 -49.05 11.8693359375 -40.2296875 10.4 -28.75
L 12.25 -31.85
Q 23.3494140625 -50.6173828125 29.7 -48.55 33.362890625 -45.390234375 31.55 -38.2 27.426171875 -22.419140625 7.4 -8.4
L 10.65 -9.75
Q 10.7373046875 -9.7763671875 10.8 -9.8 17.26015625 -12.51484375 21.1 -12.55 24.18359375 -12.5212890625 25.25 -10.45 27.09609375 -3.9978515625 7.2 3.6 6.716015625 3.8189453125 6.5 4.3 6.288671875 4.770703125 6.45 5.25 6.66875 5.734765625 7.15 5.95 7.619921875 6.1611328125 8.1 5.95 30.7224609375 -2.7095703125 27.65 -11.25
L 27.6 -11.3 27.6 -11.35
Q 26.0939453125 -15.01640625 21.1 -15.05 19.9298828125 -15.0384765625 18.5 -14.8 30.4716796875 -24.0189453125 33.95 -37.55
L 33.95 -37.55
Q 36.2962890625 -46.7765625 31.1 -50.65
L 30.95 -50.75 30.8 -50.8
Q 23.9626953125 -53.903125 13.85 -39.05 14.7087890625 -43.688671875 15.2 -48.8 16.107421875 -58.108203125 12.8 -62.6
L 12.85 -62.55
Q 10.7701171875 -65.7685546875 7.15 -65.75
L 7 -65.75
Q -0.4658203125 -65.2224609375 -1.55 -46.7 -1.574609375 -46.1619140625 -1.25 -45.8 -0.8849609375 -45.383984375 -0.4 -45.35 0.138671875 -45.325 0.5 -45.7 0.9154296875 -46.014453125 0.95 -46.55 1.8666015625 -62.3931640625 7.25 -63.25 9.4662109375 -63.174609375 10.75 -61.2 Z"/>
</g>

<g id="RD_Skull_2_Layer0_0_FILL">
<path fill="#6DABDD" stroke="none" d="
M 6.5 -52
Q 3.8232421875 -52.20390625 0.9 -52.25 -3.4978515625 -52.3205078125 -7.7 -51.65 -12.3541015625 -50.8947265625 -16.75 -49.2 -18.8431640625 -48.379296875 -20.75 -47.4 -26.1625 -44.578125 -30.1 -40.4 -30.1439453125 -40.3251953125 -30.25 -40.25 -30.637890625 -39.783203125 -31.05 -39.3 -31.219921875 -39.1001953125 -31.4 -38.9 -31.4419921875 -38.85 -31.5 -38.8 -32.3697265625 -37.730078125 -33.2 -36.65 -46.1 -20.0744140625 -46.1 -1.1 -46.1 11.3 -43.4 20.4 -40.6 29.75 -34.65 36.5 -27.65 44.55 -18.5 48.75 -9.25 53.05 1.5 53.05 22.65 53.05 37 36.5 42.8 29.9 45.45 20.1 47.85 11.1 47.9 -1.7 47.8548828125 -21.3345703125 36.05 -36.65 35.2205078125 -37.7357421875 34.3 -38.8 34.2921875 -38.8501953125 34.25 -38.9 33.8369140625 -39.4025390625 33.4 -39.9 33.247265625 -40.076171875 33.1 -40.25 33.019921875 -40.3251953125 32.95 -40.4 29.2015625 -44.5505859375 24.15 -47.25 20.981640625 -48.9029296875 17.3 -50 13.7369140625 -51.0845703125 9.45 -51.65 8.0302734375 -51.842578125 6.5 -52
M 30.35 -38.8
Q 30.7716796875 -38.38359375 31.15 -37.95 31.7154296875 -37.3041015625 32.25 -36.65 44.8521484375 -21.4498046875 44.9 -1.7 44.85 10.45 42.6 18.95 40.15 28.25 34.75 34.55 21.25 50.05 1.5 50.05 -8.55 50.05 -17.25 46.05 -25.8 42.1 -32.4 34.55 -38 28.1 -40.6 19.25 -43.1 10.65 -43.1 -1.1 -43.1 -20.5748046875 -29.4 -36.65 -29.10546875 -37.00078125 -28.8 -37.35 -28.15 -38.0984375 -27.5 -38.8 -27.4234375 -38.8501953125 -27.4 -38.9 -26.6900390625 -39.5982421875 -26 -40.25 -25.883984375 -40.325390625 -25.8 -40.4 -23.431640625 -42.5267578125 -20.75 -44.15 -17.675390625 -45.96484375 -14.2 -47.15 -7.25 -49.55 0.9 -49.25 10.95 -48.85 16.65 -47.2 20.4560546875 -46.0625 23.7 -44.15 26.42265625 -42.547265625 28.75 -40.4 28.8318359375 -40.325390625 28.9 -40.25 29.6146484375 -39.5994140625 30.25 -38.9 30.3234375 -38.85 30.35 -38.8 Z"/>

<path fill="#9EDBF8" stroke="none" d="
M 31.15 -37.95
Q 30.7716796875 -38.38359375 30.35 -38.8 30.3234375 -38.85 30.25 -38.9 29.6146484375 -39.5994140625 28.9 -40.25 28.8318359375 -40.325390625 28.75 -40.4 26.42265625 -42.547265625 23.7 -44.15 20.4560546875 -46.0625 16.65 -47.2 10.95 -48.85 0.9 -49.25 -7.25 -49.55 -14.2 -47.15 -17.675390625 -45.96484375 -20.75 -44.15 -23.431640625 -42.5267578125 -25.8 -40.4 -25.883984375 -40.325390625 -26 -40.25 -26.6900390625 -39.5982421875 -27.4 -38.9 -27.4234375 -38.8501953125 -27.5 -38.8 -28.15 -38.0984375 -28.8 -37.35 -29.10546875 -37.00078125 -29.4 -36.65 -43.1 -20.5748046875 -43.1 -1.1 -43.1 10.65 -40.6 19.25 -38 28.1 -32.4 34.55 -25.8 42.1 -17.25 46.05 -8.55 50.05 1.5 50.05 21.25 50.05 34.75 34.55 40.15 28.25 42.6 18.95 44.85 10.45 44.9 -1.7 44.8521484375 -21.4498046875 32.25 -36.65 31.7154296875 -37.3041015625 31.15 -37.95 Z"/>
</g>

<g id="RD_Mouth_front_chin__offcenter_0_Layer1_0_FILL">
<path fill="#9EDBF8" stroke="none" d="
M 37 3
Q 35.4482421875 1.9125 32.5 3.5 11.965625 12.7740234375 -7.2 2.65 -15.0669921875 10.61171875 -30.45 4.2 -34.428515625 2.26328125 -35.1 3.05 -26.379296875 13.5955078125 -14.6 17.85 3.9671875 24.438671875 20.35 16.8 31.5595703125 11.51484375 37 3 Z"/>
</g>

<g id="RD_Hair_07_9_Layer0_0_FILL">
<path fill="#FDF6AE" stroke="none" d="
M 8.55 -0.95
Q 6.398046875 -3.252734375 4 -5.7 1.6525390625 -8.1046875 -7.5 -14.6 -5.7623046875 -3.8810546875 -4.15 6 -0.330078125 1.0494140625 6.3 1.75 10.7513671875 1.3603515625 8.55 -0.95 Z"/>

<path fill="#1E98D5" stroke="none" d="
M 4 -5.7
Q 6.398046875 -3.252734375 8.55 -0.95 10.7513671875 1.3603515625 6.3 1.75 -0.330078125 1.0494140625 -4.15 6 -5.039453125 10.891015625 -3.65 9.65 -0.7775390625 5.3033203125 8.1 3.55 16.9814453125 1.8451171875 3.45 -9.7
L -5.35 -16.3
Q -9.184765625 -17.27734375 -7.5 -14.6 1.6525390625 -8.1046875 4 -5.7 Z"/>
</g>

<g id="RD_Ear_1_Layer1_0_FILL">
<path fill="#9EDBF8" stroke="none" d="
M 2.45 -35.95
Q 0.95 -33.9 0 -30.55 -0.8 -27.75 -2.05 -18.8
L -3.15 -10.35
Q -3.116796875 -10.236328125 -3.1 -10.15 2.44375 8.682421875 9.05 22.35 14.6 19.45 17.75 9.75 20.45 1.45 20.2 -4.95
L 20.2 -5
Q 19.9 -11.55 18.15 -17.5 16.5 -23.1 13.2 -29.1 8.85 -37.1 4.4 -37.75 3.55 -37.55 2.45 -35.95
M 9.35 -27.8
Q 14.55 -18.3 14.7 -10.15 14.8462890625 -2.0525390625 9.8 6.35 9.6794921875 6.5888671875 9.55 6.8
L 9.7 6.35
Q 15.65 -8.15 9.35 -27.8 Z"/>

<path fill="#6DABDD" stroke="none" d="
M 14.7 -10.15
Q 14.55 -18.3 9.35 -27.8 15.65 -8.15 9.7 6.35
L 9.55 6.8
Q 9.6794921875 6.5888671875 9.8 6.35 14.8462890625 -2.0525390625 14.7 -10.15
M 15.85 -30.55
Q 13 -35.75 9.45 -38.55 6.65 -40.8 4.65 -40.75
L 4.6 -40.75
Q 2.85 -41.05 0.95 -38.85 -1.1 -36.45 -2.85 -31.55 -4.3 -27.4 -4.65 -20.95 -5.0384765625 -13.7126953125 -3.3 -10.3
L -3.3 -10.3
Q -3.24765625 -10.1875 -3.2 -10.1
L -3.15 -10.35 -2.05 -18.8
Q -0.8 -27.75 0 -30.55 0.95 -33.9 2.45 -35.95 3.55 -37.55 4.4 -37.75 8.85 -37.1 13.2 -29.1 16.5 -23.1 18.15 -17.5 19.9 -11.55 20.2 -5
L 20.2 -4.95
Q 20.45 1.45 17.75 9.75 14.6 19.45 9.05 22.35
L 9.65 22.5
Q 15.5001953125 20.8228515625 19.5 11.75 23.5525390625 2.6892578125 23.2 -5.1 22.9 -12 21.05 -18.25 19.3 -24.2 15.85 -30.55 Z"/>
</g>

<g id="Mask_Mask_RD2_Eyewhite_3_4_1_Layer1_0_FILL">
<path fill="#FFFFFF" stroke="none" d="
M 19.8 -17.45
Q 18.8931640625 -19.258984375 17.7 -20.7
L 17.7 -20.65
Q 13.5314453125 -24.9595703125 7.3 -25.2 2.1509765625 -25.3900390625 -3.35 -22.8
L -3.35 -22.85
Q -5.1125 -21.846875 -6.85 -20.55 -8.8 -18.75 -10.55 -16.85 -12.1 -15.2 -13.4 -13.35 -14.85 -11.3 -16.1 -9.2 -17.35 -7 -18.45 -4.7 -19 -3.6 -19.55 -2.4 -20.067578125 -0.894921875 -20.5 0.65 -23.4314453125 11.3853515625 -19.45 19.15 -15.521484375 26.9826171875 -7.05 27.3 -6.3294921875 27.3373046875 -5.65 27.3 2.151171875 27.0375 9.6 20.25 16.1873046875 14.3169921875 19.35 6.15 20.1560546875 4.2439453125 20.75 2.2 22.1896484375 -3.109765625 21.95 -7.7 21.83984375 -13.462890625 19.8 -17.45 Z"/>
</g>

<g id="RD2_Eyewhite_3_4_1_Layer1_0_FILL">
<path fill="#FFFFFF" stroke="none" d="
M 19.8 -17.45
Q 18.8931640625 -19.258984375 17.7 -20.7
L 17.7 -20.65
Q 13.5314453125 -24.9595703125 7.3 -25.2 2.1509765625 -25.3900390625 -3.35 -22.8
L -3.35 -22.85
Q -5.1125 -21.846875 -6.85 -20.55 -8.8 -18.75 -10.55 -16.85 -12.1 -15.2 -13.4 -13.35 -14.85 -11.3 -16.1 -9.2 -17.35 -7 -18.45 -4.7 -19 -3.6 -19.55 -2.4 -20.067578125 -0.894921875 -20.5 0.65 -23.4314453125 11.3853515625 -19.45 19.15 -15.521484375 26.9826171875 -7.05 27.3 -6.3294921875 27.3373046875 -5.65 27.3 2.151171875 27.0375 9.6 20.25 16.1873046875 14.3169921875 19.35 6.15 20.1560546875 4.2439453125 20.75 2.2 22.1896484375 -3.109765625 21.95 -7.7 21.83984375 -13.462890625 19.8 -17.45 Z"/>
</g>

<g id="RD2_Iris_0_Layer2_0_FILL">
<path fill="url(#Gradient_1)" stroke="none" d="
M 17.7 -13.05
Q 13.45 -21.1 5.25 -22.95 -3 -24.85 -10.3 -19.4 -17.6 -14 -19.75 -4.45 -21.95 5.05 -17.7 13.1 -13.45 21.15 -5.2 23 3 24.85 10.3 19.45 17.6 14 19.8 4.5 21.95 -5 17.7 -13.05 Z"/>
</g>

<g id="RD2_Iris_0_Layer1_0_FILL">
<path fill="#FFB8E0" stroke="none" d="
M -6.5 7.8
Q -17.7408203125 11.0453125 -18.7 11 -17.71953125 13.7845703125 -15.6 16.55
L 0.15 6.6 -6.5 7.8 Z"/>
</g>

<g id="RD2_Iris_0_Layer0_0_FILL">
<path fill="#DB53A2" stroke="none" d="
M -20.2 5.15
Q -19.7849609375 8.212109375 -18.65 11.05
L 0.45 6.45 -20.2 5.15 Z"/>
</g>

<g id="RD2_Pupil_0_Layer0_0_FILL">
<path fill="#000000" stroke="none" d="
M 12.45 -9.6
Q 10.5203125 -15.9396484375 5.5 -17.45 0.487109375 -18.9677734375 -4.7 -14.75 -9.854296875 -10.4658203125 -12.15 -2.95 -14.402734375 4.56015625 -12.5 10.9 -10.484375 17.37421875 -5.45 18.9 -0.4265625 20.40234375 4.7 16.1 9.91484375 11.9001953125 12.15 4.4 14.43828125 -3.12578125 12.45 -9.6 Z"/>
</g>

<g id="RD2_Hilights_0_Layer1_0_FILL">
<path fill="#FFFFFF" stroke="none" d="
M -8.15 11.5
Q -8.11953125 11.614453125 -8.1 11.7 -8.0240234375 11.8134765625 -7.95 11.95 -7.7912109375 12.381640625 -7.55 12.75 -7.4705078125 12.844140625 -7.4 12.9 -7.2078125 13.113671875 -6.95 13.3 -6.50546875 13.6888671875 -6.05 13.8 -5.996875 13.8515625 -5.95 13.85 -5.6171875 13.9560546875 -5.2 13.95 -3.9484375 13.97890625 -3.4 12.75 -3.3849609375 12.698046875 -3.4 12.65 -3.1736328125 12.1291015625 -3.25 11.35 -3.259765625 11.128515625 -3.35 10.85 -3.3462890625 10.7740234375 -3.4 10.7 -3.7330078125 9.7962890625 -4.4 9.15 -4.435546875 9.108203125 -4.5 9.05 -4.72890625 8.870703125 -4.9 8.75 -5.579296875 8.305859375 -6.3 8.4 -7.123828125 8.352734375 -7.65 8.9 -7.813671875 9.0921875 -8 9.35 -8.0568359375 9.446484375 -8.1 9.55 -8.510546875 10.357421875 -8.15 11.5
M 3.85 -8.7
L 3.8 -8.75
Q 1.3921875 -11.8771484375 -1.15 -11.7 -4.233984375 -11.8736328125 -5.6 -8.2
L -5.6 -8.15
Q -6.528125 -5.45625 -5.75 -1.6 -5.0052734375 2.07265625 -3.05 4.6
L -3.05 4.6
Q -0.6041015625 7.82109375 2 7.65 5.12890625 7.837890625 6.4 4 7.375390625 1.40078125 6.6 -2.4
L 6.6 -2.45
Q 5.8041015625 -6.1376953125 3.85 -8.7 Z"/>
</g>

<g id="RD2_Iris_2_Layer2_0_FILL">
<path fill="url(#Gradient_1)" stroke="none" d="
M 17.7 -13.05
Q 13.45 -21.1 5.25 -22.95 -3 -24.85 -10.3 -19.4 -17.6 -14 -19.75 -4.45 -21.95 5.05 -17.7 13.1 -13.45 21.15 -5.2 23 3 24.85 10.3 19.45 17.6 14 19.8 4.5 21.95 -5 17.7 -13.05 Z"/>
</g>

<g id="RD2_Iris_2_Layer1_0_FILL">
<path fill="#FFB8E0" stroke="none" d="
M 13.45 16.85
Q 16.0119140625 13.9716796875 17.35 11.1 16.4345703125 11.1580078125 5.55 8.1
L -0.15 6.5 13.45 16.85 Z"/>
</g>

<g id="RD2_Iris_2_Layer0_0_FILL">
<path fill="#DB53A2" stroke="none" d="
M 17.35 11.4
Q 18.9265625 8.2283203125 19.75 5.1 9.7240234375 5.888671875 -0.25 6.5
L 17.35 11.4 Z"/>
</g>

<g id="RD2_Blink_front_0_Layer2_0_FILL">
<path fill="#000000" stroke="none" d="
M 21.9 -5.65
L 23.1 -7.3
Q 23.1501953125 -11.0392578125 22.05 -14.9 21.50234375 -16.8623046875 18.45 -20.35 15.1640625 -24.176953125 10.6 -25 1.2861328125 -26.751171875 -7.55 -20.4 -11.2509765625 -17.658984375 -14.3 -13.75 -17.4216796875 -9.651953125 -19.9 -2.9 -20.3908203125 -1.584375 -20.65 -0.25 -21.45 3.05 -21.55 5.3 -22.05 12.45 -21.05 15.3 -20.5654296875 16.36484375 -20.6 16.05 -21.7583984375 11.3294921875 -18.4 -0.35
L -17.55 -3
Q -15.6931640625 -8.214453125 -12.6 -12.2 -9.701171875 -15.798828125 -7.15 -17.95 8.8515625 -29.4330078125 18.45 -16.6 21.2458984375 -12.47421875 21.9 -5.65 Z"/>
</g>

<g id="RD2_Blink_front_0_Layer1_0_FILL">
<path fill="#000000" stroke="none" d="
M 34.5 -5.75
Q 34.45 -6.95 22.25 -8.95
L 22.65 -6.8
Q 34.55 -4.55 34.5 -5.75 Z"/>
</g>

<g id="RD2_Blink_front_0_Layer1_1_FILL">
<path fill="#000000" stroke="none" d="
M 21 -16.15
L 21.9 -14.05
Q 36.65 -16.1 36.25 -17.25 36.05 -17.8 29.15 -17.1 21.9 -16.25 21 -16.15 Z"/>
</g>

<g id="RD2_Blink_front_0_Layer1_2_FILL">
<path fill="#000000" stroke="none" d="
M 18.2 -19.05
Q 28 -25.85 26.8 -26.7 26 -27.15 16.95 -21.2
L 18.2 -19.05 Z"/>
</g>

<g id="RD2_Blink_front_100_Layer2_0_FILL">
<path fill="#000000" stroke="none" d="
M 21.9 -5.65
L 23.1 -7.3
Q 23.1501953125 -11.0392578125 22.05 -14.9 21.50234375 -16.8623046875 18.45 -20.35 15.1640625 -24.176953125 10.6 -25 1.2861328125 -26.751171875 -7.55 -20.4 -11.2509765625 -17.658984375 -14.3 -13.75 -17.4216796875 -9.651953125 -19.9 -2.9 -20.3908203125 -1.584375 -20.65 -0.25 -21.203125 2.1416015625 -21.4 5.3 -21.922265625 12.8583984375 -21.05 15.3 -20.5654296875 16.36484375 -20.6 16.05 -21.7583984375 11.3294921875 -18.4 -0.35
L -17.55 -3
Q -15.6931640625 -8.214453125 -12.6 -12.2 -9.701171875 -15.798828125 -7.15 -17.95 8.8515625 -29.4330078125 18.45 -16.6 21.2458984375 -12.47421875 21.9 -5.65 Z"/>
</g>

<g id="RD_Brow_front_1_Layer2_0_FILL">
<path fill="#9EDBF8" stroke="none" d="
M 3.1 -1.5
Q 8.665625 -11.21171875 2.1 -17.25 1.5234375 -21.40078125 -9.4 -25.45 -20.3255859375 -29.4990234375 -34.15 -13.7 -40.514453125 0.240625 -34.85 -1.55 -21.6294921875 -0.3052734375 -6.05 -1.7 -6.0109375 -1.5755859375 -6 -1.5
L 3.1 -1.5 Z"/>
</g>

<g id="RD_Lashes_02_6_Layer0_0_FILL">
<path fill="#000000" stroke="none" d="
M -0.05 5.95
L -0.3 8
Q 8.85 9.6 9.15 8.4 9.35 7.3 -0.05 5.95 Z"/>
</g>

<g id="RD_Lashes_02_6_Layer0_1_FILL">
<path fill="#000000" stroke="none" d="
M 0.25 1.75
L 0.15 3.95
Q 11.25 3.35 11.4 2.2 11.45 1.6 6.35 1.65 0.9 1.75 0.25 1.75 Z"/>
</g>

<g id="RD_Lashes_02_6_Layer0_2_FILL">
<path fill="#000000" stroke="none" d="
M 10.65 -2.75
Q 10.562890625 -3.4384765625 0.55 -2.3 -5.8814453125 -1.6576171875 -0.3 -0.1 10.7623046875 -1.566796875 10.65 -2.75 Z"/>
</g>

<g id="RD_Brow_front_1_Layer0_0_FILL">
<path fill="#000000" stroke="none" d="
M -1.1 -2
Q -3 -1.9 -15.25 -1.75 -27.6 -1.6 -30.8 -2.15 -33.65 -3.3 -33.95 -7.2
L -34 -7.2
Q -34.8 -5.2 -34.3 -2.85 -33.85 -0.55 -32.25 -0.25 -30.45 0.05 -16.45 0.3 -1.9 0.5 1 0.1 1.05 0.05 1.15 0.05 4.85 -1.3 1.05 -2.1 0.8 -2.15 -1.1 -2 Z"/>
</g>

<g id="RD_Mouth_front_hole__0_Layer4_0_FILL">
<path fill="#6DABDD" stroke="none" d="
M 10.3 3.5
L 10.25 3.45 10.25 3.5
Q 9.644140625 7.4646484375 7.15 10.1 4.3 13.15 0.05 13.2 -4.35 13.1 -6.7 10.4 -9.45 7.1 -10.5 2.9
L -10.55 2.85 -10.5 3.35
Q -10.9 7.8 -7.75 11.55 -7.5890625 11.7296875 -7.45 11.9 -4.50859375 14.9052734375 -0.25 15 4.7 15.05 7.55 12.05 10.4 8.95 10.3 3.5 Z"/>
</g>

<g id="RD_Mouth_front_nostril__0_Layer2_0_FILL">
<path fill="#6DABDD" stroke="none" d="
M -7.35 3.35
Q -6.7 5.05 -3.5 4.15 -5.65 3.2 -6 2.3 -6.5 1.25 -6.2 -0.15 -8 1.9 -7.35 3.35
M 4.05 4
Q 6.9 4.85 7.7 3.2 8.4 1.6 6.75 -0.3 7 1.05 6.55 2.1 6.15 3.1 4.05 4 Z"/>
</g>

<g id="RD_Cheek_0_Layer1_0_FILL">
<path fill="#9EDBF8" stroke="none" d="
M -13.65 -3.75
Q -16.0267578125 -3.7431640625 -18.3 -3.7 -20.0263671875 -3.6904296875 -20.9 -3.8 -21.223046875 -3.733984375 -21.55 -3.7
L -20.55 -1.2
Q -20.5072265625 -1.092578125 -20.45 -1
L -18 5.3
Q -0.6107421875 15.3609375 11.3 8.45 14.9248046875 5.441796875 14.75 2.15 13.9091796875 2.18671875 12.85 2 11.7677734375 1.863671875 10.45 1.45 9.4078125 1.183203125 8.2 0.75 -4.2572265625 -4.6009765625 -13.65 -3.75 Z"/>

<path fill="#6DABDD" stroke="none" d="
M -18.3 -3.7
Q -16.0267578125 -3.7431640625 -13.65 -3.75 -4.2572265625 -4.6009765625 8.2 0.75 9.4078125 1.183203125 10.45 1.45 11.7677734375 1.863671875 12.85 2 13.9091796875 2.18671875 14.75 2.15 14.90078125 2.1408203125 15.05 2.1 14.90234375 2.0078125 14.75 1.9 14.6515625 1.8080078125 14.55 1.7 13.4794921875 0.9662109375 12.35 0.4 -2.715234375 -6.280859375 -14.1 -5.55 -17.2962890625 -5.154296875 -20.3 -4.9
L -20.35 -4.85
Q -22.91953125 -4.0283203125 -20.9 -3.8 -20.0263671875 -3.6904296875 -18.3 -3.7 Z"/>
</g>

<g id="RD_Cheek_0_Layer0_0_FILL">
<path fill="#6DABDD" stroke="none" d="
M -18 -1.55
L -17.9 -1.35
Q -17.54609375 -1.069921875 -16.4 -0.6
L -16.4 -0.6
Q -13.845703125 0.619140625 -10.8 1.65
L -7.85 2.15
Q -12.6994140625 -0.2359375 -14.55 -1.05 -17.6279296875 -1.697265625 -18 -1.55 Z"/>
</g>

<g id="RD_Wrinkle_0_Layer0_0_FILL">
<path fill="#6DABDD" stroke="none" d="
M 6.4 0.9
Q 6.229296875 0.7560546875 6.05 0.6 3.57890625 -1.2400390625 -0.2 -1.1 -3.897265625 -1.0052734375 -6.15 0.85 -6.28046875 0.943359375 -6.4 1.05
L -6.05 1
Q 0.6 0 5.95 0.8
L 6.4 0.9 Z"/>
</g>

<g id="RD_Hair_01_19_Layer3_0_FILL">
<path fill="#1E98D5" stroke="none" d="
M 16.85 -5.25
L 13.4 -4.25
Q 0.05 -0.65 -11.3 6.2 -12.45 6.95 -13.55 7.65 -33.95 20.75 -47.9 44.55 -48.75 36.35 -47.85 28.1 -43.6 4.45 -32.35 -14.5
L -30.05 -18.1 -30.15 -18.2
Q -43.1 -3.9 -48.55 17.15 -49.9 21.85 -50.55 26.6 -52.2 37.95 -50.3 49.45
L -49.7 53.65 -49.6 53.65 -47.5 49.9
Q -33.35 23.95 -11.95 10.2
L -11.9 10.15
Q 1.5 1.4 12.85 -2.05 14.15 -2.55 15.6 -2.95 21.3 -4.75 27 -6.1 21.95 -6.25 16.85 -5.25
M 35.75 -28.15
Q 36.9 -29.3 35 -31.9 33.3 -33.25 31.65 -34.45 28.95 -36.45 26.4 -38.05 24.1 -39.6 22 -40.8 19.95 -40.2 18.05 -39.6 18.6 -39.25 19.25 -38.95 19.5 -38.8 19.9 -38.6 20 -38.5 20.2 -38.4 22.7 -36.95 25.35 -35.3 28.4 -33.25 31.65 -30.9 33.3 -29.7 35.75 -28.15 Z"/>

<path fill="#F37033" stroke="none" d="
M 19.9 -38.6
Q 19.5 -38.8 19.25 -38.95 18.6 -39.25 18.05 -39.6 -6.9 -52.4 -29.45 -18.95
L -29.5 -18.9
Q -29.551171875 -18.823046875 -29.6 -18.75 -29.7640625 -18.523046875 -29.95 -18.3
L -30.05 -18.1 -32.35 -14.5
Q -43.6 4.45 -47.85 28.1 -48.75 36.35 -47.9 44.55 -33.95 20.75 -13.55 7.65 -12.45 6.95 -11.3 6.2 3.7 -20.85 19.9 -38.6 Z"/>

<path fill="#FDF6AE" stroke="none" d="
M 31.65 -30.9
Q 28.4 -33.25 25.35 -35.3 22.7 -36.95 20.2 -38.4 20 -38.5 19.9 -38.6 3.7 -20.85 -11.3 6.2 0.05 -0.65 13.4 -4.25
L 16.85 -5.25
Q 21.95 -6.25 27 -6.1 28.75 -6.5 30.55 -6.85 32.85 -7.35 35.05 -7.75 37 -11.45 35.7 -13.05
L 35.75 -28.15
Q 33.3 -29.7 31.65 -30.9 Z"/>
</g>

<g id="RD_Hair_01_19_Layer2_0_FILL">
<path fill="#1E98D5" stroke="none" d="
M -34 -5.1
Q -34 -5.1361328125 -33.95 -5.2
L -35.1 -4.5 -34 -5.1
M -48 -2.5
Q -47.35 -3.95 -46.55 -5.4 -40.55 -18.75 -29.55 -28.6 -28.95 -29.1 -28.35 -29.65 -20.6 -36.4 -15.05 -40.2 -12.45 -42.1 -10.3 -43.35
L -5.5 -46.1
Q -9.4 -45.2 -13.6 -42.95 -15.85 -41.75 -19.2 -39.65 -19.3 -39.6 -19.35 -39.6 -41.4 -24.8 -50.7 -4.95 -54.25 2.45 -57.3 21.5 -46.6 6.55 -43.15 3.1 -38.65 -1.15 -34.1 -5 -49.75 5.6 -53.3 10.9 -51.05 3.85 -48 -2.5
M 27.4 -34.7
Q 28.9 -35.05 30.5 -35.35 28.4 -36.75 26.45 -38.1 25.7 -38.6 25 -39.05 23.45 -40 22.05 -40.85 21.85 -40.9 21.75 -41.05
L 21.7 -41
Q 17.4 -43.45 13.25 -45.2
L 4 -45.2
Q 6.6 -44.5 9.35 -43.5 9.95 -43.3 10.55 -43.05 14.25 -41.6 18.1 -39.6 18.1 -39.55 18.15 -39.5
L 19.8 -38.7 19.85 -38.65 27.4 -34.7 Z"/>

<path fill="#F37033" stroke="none" d="
M 19.8 -38.7
L 18.15 -39.5
Q 18.1 -39.55 18.1 -39.6 14.25 -41.6 10.55 -43.05 9.95 -43.3 9.35 -43.5 -18.6 -28.15 -46.55 -5.4 -47.35 -3.95 -48 -2.5 -51.05 3.85 -53.3 10.9 -49.75 5.6 -34.1 -5 -34.05 -5.05 -34 -5.1
L -35.1 -4.5 -33.95 -5.2
Q -34 -5.1361328125 -34 -5.1
L -33.9 -5.2
Q -11.95 -23.85 19.8 -38.7 Z"/>

<path fill="#EE4144" stroke="none" d="
M 9.35 -43.5
Q 6.6 -44.5 4 -45.2 -3.55 -47.1 -5.5 -46.1
L -10.3 -43.35
Q -12.45 -42.1 -15.05 -40.2 -20.6 -36.4 -28.35 -29.65 -28.95 -29.1 -29.55 -28.6 -40.55 -18.75 -46.55 -5.4 -18.6 -28.15 9.35 -43.5 Z"/>
</g>

<g id="RD_Hair_01_19_Layer1_0_FILL">
<path fill="#EE4144" stroke="none" d="
M 3.6 -43.4
Q 8.75 -43.5 8.8 -43.5 3.25 -45.55 -2.25 -46.45 -3.7 -46.65 -5.15 -46.75 -12.9 -47.2 -21.1 -44.55 -30.05 -41.65 -35.9 -36.1 -21.75 -41.1 -10.7 -42.1 -1.6 -43.3 3.6 -43.4 Z"/>

<path fill="#1E98D5" stroke="none" d="
M 22 -40.85
Q 21.85 -40.95 21.7 -41.05 18.6 -42.8 15.65 -44.15 13.95 -44.95 12.35 -45.6 12 -45.75 11.65 -45.9 3.05 -49.25 -5.6 -49.8 -14.25 -50.35 -26.95 -44.6 -39.7 -38.9 -49.25 -27.65 -28.3 -37.55 -12.25 -41.7
L -10.7 -42.1
Q -21.75 -41.1 -35.9 -36.1 -30.05 -41.65 -21.1 -44.55 -12.9 -47.2 -5.15 -46.75 -3.7 -46.65 -2.25 -46.45 3.25 -45.55 8.8 -43.5 11.15 -42.65 13.55 -41.6 13.7 -41.5 13.9 -41.4 18.05 -41.2 21.95 -40.85
L 22 -40.85 Z"/>
</g>

<g id="RD_Hair_01_19_Layer0_0_FILL">
<path fill="#FDF6AE" stroke="none" d="
M 16.95 -5.35
L 15.15 -2.2
Q 11.15 5.05 1.65 12.75 17.3 9.65 30.4 -6.65 30.5 -6.75 30.6 -6.9 31.15 -7.6 31.7 -8.35 33.4 -10.6 35.65 -13.1 24.95 -11.4 16.65 -5.25
L 16.95 -5.35 Z"/>

<path fill="#1E98D5" stroke="none" d="
M 15.15 -2.2
L 16.95 -5.35 16.65 -5.25
Q 14.7 -3.8 12.9 -2.15 7.6 5.5 -3.4 13
L -6.95 15.45 -6.7 16 -2.5 15.75
Q 15.9 15.4 31.7 -3.55 33.45 -5.6 35.15 -7.85 37.1 -11.5 35.75 -13.15
L 35.65 -13.1
Q 33.4 -10.6 31.7 -8.35 31.15 -7.6 30.6 -6.9 30.5 -6.75 30.4 -6.65 17.3 9.65 1.65 12.75 11.15 5.05 15.15 -2.2 Z"/>
</g>

<g id="RD_FrontLeg_3_4_hoof_16_Layer0_0_FILL">
<path fill="#9EDBF8" stroke="none" d="
M 13.5 -14.1
Q 8.6158203125 -21.20703125 1.25 -21.55 -6.066015625 -21.8431640625 -11.7 -15.75 -17.3447265625 -9.60234375 -18.25 -1.05 -19.15 7.5 -14.5 13.9 -9.9 20.35 -2.5 20.85 4.95 21.35 10.8 15.7 16.6 10.1 17.5 1.55 18.39453125 -6.9978515625 13.5 -14.1 Z"/>
</g>

<g id="RD_FrontLeg_3_4_upper_21_Layer1_0_FILL">
<path fill="#9EDBF8" stroke="none" d="
M 19.9 41.4
Q 17.5806640625 23.57890625 3.65 -1.05
L -4.65 -1.05
Q -20.1865234375 21.3873046875 -20.15 41.4
L 19.9 41.4 Z"/>
</g>

<path id="RD_FrontLeg_3_4_hoof_6_Layer0_0_1_STROKES" stroke="#6DABDD" stroke-width="3" stroke-linejoin="round" stroke-linecap="round" fill="none" d="
M -0.925 -17.175
Q 6.8671875 -17.5837890625 12.3 -12.325 17.7197265625 -7.051171875 17.4 1.275 17.0837890625 9.596484375 14.075 14.525 11.0783203125 19.4369140625 0.15 20.85 -10.7796875 22.268359375 -17.1 18.525 -23.42421875 14.7861328125 -21.875 7.425 -20.324609375 0.0544921875 -18.15 -3.975 -15.971875 -8.0099609375 -12.325 -12.4 -8.6921875 -16.7904296875 -0.925 -17.175 Z"/>

<path id="RD_HindLeg_3_4rear_lower_2_Layer1_0_1_STROKES" stroke="#6DABDD" stroke-width="3" stroke-linejoin="round" stroke-linecap="round" fill="none" d="
M -5.65 -3.6
Q 1.836328125 -8.4703125 11.5 -5.15 17.0154296875 -1.388671875 7.6 6.9 -5.18671875 19.70546875 -8.9 12.2 -13.0958984375 2.169140625 -5.65 -3.6 Z"/>

<path id="RD_HindLeg_3_4rear_lower_2_Layer0_0_1_STROKES" stroke="#6DABDD" stroke-width="3" stroke-linejoin="round" stroke-linecap="round" fill="none" d="
M -8.9 59.25
Q -15.7921875 31.9404296875 -10.2 3.35
M 13.4 -2.55
Q 15.0326171875 27.90546875 24.35 43.05"/>

<path id="RD_FrontLeg_3_4_upper_20_Layer1_0_1_STROKES" stroke="#6DABDD" stroke-width="3" stroke-linejoin="round" stroke-linecap="round" fill="none" d="
M -32.7 58.35
Q -23.45 30.8 -5.95 -1.05
M 11.65 62.95
Q 12.4 41.65 5.5 -1.05"/>

<path id="RD_Mouth_front_chin__offcenter_0_Layer1_0_1_STROKES" stroke="#6DABDD" stroke-width="3" stroke-linejoin="round" stroke-linecap="round" fill="none" d="
M 37 3
Q 31.5595703125 11.51484375 20.35 16.8 3.9671875 24.438671875 -14.6 17.85 -26.379296875 13.5955078125 -35.1 3.05"/>

<path id="RD_Hair_01_19_Layer3_0_1_STROKES" stroke="#C7C616" stroke-width="0.05" stroke-linejoin="round" stroke-linecap="round" fill="none" d="
M -30.15 -18.2
Q -30.05 -18.3 -30 -18.4 -29.8 -18.6 -29.55 -18.85 -29.5 -18.95 -29.45 -18.95
M -29.5 -18.9
L -29.55 -18.85
Q -29.5763671875 -18.797265625 -29.6 -18.75 -29.7640625 -18.523046875 -29.95 -18.3
L -30.05 -18.1"/>

<path id="RD_FrontLeg_3_4_hoof_16_Layer0_0_1_STROKES" stroke="#6DABDD" stroke-width="3" stroke-linejoin="round" stroke-linecap="round" fill="none" d="
M -11.7 -15.725
Q -17.3447265625 -9.60234375 -18.25 -1.05 -19.15 7.5 -14.5 13.9 -9.9 20.35 -2.5 20.85 4.95 21.35 10.8 15.7 16.6 10.1 17.5 1.55 18.39453125 -6.9978515625 13.5 -14.1 8.6158203125 -21.20703125 1.275 -21.525 -6.066015625 -21.8431640625 -11.7 -15.725 Z"/>

<path id="RD_FrontLeg_3_4_upper_21_Layer1_0_1_STROKES" stroke="#6DABDD" stroke-width="3" stroke-linejoin="round" stroke-linecap="round" fill="none" d="
M 19.9 41.4
Q 17.5806640625 23.57890625 3.65 -1.05
M -20.15 41.4
Q -20.1865234375 21.3873046875 -4.65 -1.05"/>
</defs>

<g transform="matrix( 1.555694580078125, 0.330963134765625, -0.330963134765625, 1.555694580078125, 347.75,219.9) ">
<g transform="matrix( 0.2110137939453125, 0, 0, 0.3922576904296875, -8.7,0.8) ">
<g transform="matrix( 0.99786376953125, 0.0376129150390625, -0.056793212890625, 0.9998626708984375, 26.2,-2.55) ">
<g transform="matrix( 1, 0, 0, 1, 0,0) ">
<use xlink:href="#RD_Prun_Tail_3_Layer1_0_FILL"/>
</g>

<g transform="matrix( 1, 0, 0, 1, 0,0) ">
<use xlink:href="#RD_Prun_Tail_3_Layer1_1_FILL"/>
</g>

<g transform="matrix( 1, 0, 0, 1, 0,0) ">
<use xlink:href="#RD_Prun_Tail_3_Layer1_2_FILL"/>
</g>

<g transform="matrix( 1, 0, 0, 1, 0,0) ">
<use xlink:href="#RD_Prun_Tail_3_Layer1_3_FILL"/>
</g>

<g transform="matrix( 1, 0, 0, 1, 0,0) ">
<use xlink:href="#RD_Prun_Tail_3_Layer1_4_FILL"/>
</g>

<g transform="matrix( 1, 0, 0, 1, 0,0) ">
<use xlink:href="#RD_Prun_Tail_3_Layer1_5_FILL"/>
</g>

<g transform="matrix( 1, 0, 0, 1, 0,0) ">
<use xlink:href="#RD_Prun_Tail_3_Layer1_6_FILL"/>
</g>
</g>
</g>

<g transform="matrix( 0.4132843017578125, -0.5472412109375, 0.6434783935546875, 0.6175537109375, -44.4,13.35) ">
<g transform="matrix( 0.8339996337890625, -0.3087158203125, 0.5523681640625, 0.6643524169921875, 13.15,66.7) ">
<g transform="matrix( 1, 0, 0, 1, 0,0) ">
<use filter="url(#Filter_1)" xlink:href="#RD_FrontLeg_3_4_hoof_6_Layer0_0_FILL"/>

<use filter="url(#Filter_1)" xlink:href="#RD_FrontLeg_3_4_hoof_6_Layer0_0_1_STROKES"/>
</g>
</g>

<g transform="matrix( 0.7404632568359375, -0.3578338623046875, 0.0124969482421875, 0.6438751220703125, 12,46.45) ">
<g transform="matrix( 1, 0, 0, 1, 0,0) ">
<use filter="url(#Filter_1)" xlink:href="#RD_KneePatch_1_Layer0_0_FILL"/>
</g>
</g>

<g transform="matrix( 0.9890594482421875, 0.223388671875, -0.159027099609375, 0.6988067626953125, 14.45,31.6) ">
<g transform="matrix( 1, 0, 0, 1, 0,0) ">
<use filter="url(#Filter_1)" xlink:href="#RD_HindLeg_3_4rear_lower_2_Layer1_0_FILL"/>

<use filter="url(#Filter_1)" xlink:href="#RD_HindLeg_3_4rear_lower_2_Layer1_0_1_STROKES"/>
</g>

<g transform="matrix( 1, 0, 0, 1, 0,0) ">
<use filter="url(#Filter_1)" xlink:href="#RD_HindLeg_3_4rear_lower_2_Layer0_0_FILL"/>

<use filter="url(#Filter_1)" xlink:href="#RD_HindLeg_3_4rear_lower_2_Layer0_0_1_STROKES"/>
</g>
</g>

<g transform="matrix( 1.05706787109375, 0, -0.2399139404296875, 0.793365478515625, 17.7,-4.6) ">
<g transform="matrix( 1, 0, 0, 1, 0,0) ">
<use filter="url(#Filter_1)" xlink:href="#RD_HindLeg_3_4_top_3_Layer1_0_FILL"/>
</g>

<g transform="matrix( 1, 0, 0, 1, 0,0) ">
<use filter="url(#Filter_1)" xlink:href="#RD_HindLeg_3_4_top_3_Layer0_0_FILL"/>
</g>
</g>

<g transform="matrix( 0.832244873046875, -0.314788818359375, -0.1527099609375, 0.5664520263671875, 8.95,45.8) ">
<g transform="matrix( 1, 0, 0, 1, 0,0) ">
<use filter="url(#Filter_1)" xlink:href="#RD_KneePatch_0_Layer0_0_FILL"/>
</g>
</g>
</g>

<g transform="matrix( 0.4132843017578125, -0.5472412109375, 0.6434783935546875, 0.6175537109375, -9.65,9.45) ">
<g transform="matrix( 0.8339996337890625, -0.3087158203125, 0.5523681640625, 0.6643524169921875, 13.15,66.7) ">
<g transform="matrix( 1, 0, 0, 1, 0,0) ">
<use xlink:href="#RD_FrontLeg_3_4_hoof_6_Layer0_0_FILL"/>

<use xlink:href="#RD_FrontLeg_3_4_hoof_6_Layer0_0_1_STROKES"/>
</g>
</g>

<g transform="matrix( 0.7404632568359375, -0.3578338623046875, 0.0124969482421875, 0.6438751220703125, 12,46.45) ">
<g transform="matrix( 1, 0, 0, 1, 0,0) ">
<use xlink:href="#RD_KneePatch_1_Layer0_0_FILL"/>
</g>
</g>

<g transform="matrix( 0.9890594482421875, 0.223388671875, -0.159027099609375, 0.6988067626953125, 14.45,31.6) ">
<g transform="matrix( 1, 0, 0, 1, 0,0) ">
<use xlink:href="#RD_HindLeg_3_4rear_lower_2_Layer1_0_FILL"/>

<use xlink:href="#RD_HindLeg_3_4rear_lower_2_Layer1_0_1_STROKES"/>
</g>

<g transform="matrix( 1, 0, 0, 1, 0,0) ">
<use xlink:href="#RD_HindLeg_3_4rear_lower_2_Layer0_0_FILL"/>

<use xlink:href="#RD_HindLeg_3_4rear_lower_2_Layer0_0_1_STROKES"/>
</g>
</g>

<g transform="matrix( 1.05706787109375, 0, -0.2399139404296875, 0.793365478515625, 17.7,-4.6) ">
<g transform="matrix( 1, 0, 0, 1, 0,0) ">
<use xlink:href="#RD_HindLeg_3_4_top_3_Layer1_0_FILL"/>
</g>

<g transform="matrix( 1, 0, 0, 1, 0,0) ">
<use xlink:href="#RD_HindLeg_3_4_top_3_Layer0_0_FILL"/>
</g>
</g>

<g transform="matrix( 0.832244873046875, -0.314788818359375, -0.1527099609375, 0.5664520263671875, 8.95,45.8) ">
<g transform="matrix( 1, 0, 0, 1, 0,0) ">
<use xlink:href="#RD_KneePatch_0_Layer0_0_FILL"/>
</g>
</g>
</g>

<g transform="matrix( -0.9999847412109375, 0, 0, 0.9999847412109375, -53.35,11.25) ">
<g transform="matrix( 1, 0, 0, 1, 0,0) ">
<use filter="url(#Filter_2)" xlink:href="#WingcycleBACK_1_Layer10_0_FILL"/>
</g>

<g transform="matrix( 1, 0, 0, 1, 0,0) ">
<use filter="url(#Filter_2)" xlink:href="#WingcycleBACK_1_Layer9_0_FILL"/>
</g>

<g transform="matrix( 1, 0, 0, 1, 0,0) ">
<use filter="url(#Filter_2)" xlink:href="#WingcycleBACK_1_Layer8_0_FILL"/>
</g>

<g transform="matrix( 1, 0, 0, 1, 0,0) ">
<use filter="url(#Filter_2)" xlink:href="#WingcycleBACK_1_Layer7_0_FILL"/>
</g>

<g transform="matrix( 1, 0, 0, 1, 0,0) ">
<use filter="url(#Filter_2)" xlink:href="#WingcycleBACK_1_Layer5_0_FILL"/>
</g>

<g transform="matrix( 1, 0, 0, 1, 0,0) ">
<use filter="url(#Filter_2)" xlink:href="#WingcycleBACK_1_Layer4_0_FILL"/>
</g>

<g transform="matrix( 1, 0, 0, 1, 0,0) ">
<use filter="url(#Filter_2)" xlink:href="#WingcycleBACK_1_Layer3_0_FILL"/>
</g>

<g transform="matrix( 1, 0, 0, 1, 0,0) ">
<use filter="url(#Filter_2)" xlink:href="#WingcycleBACK_1_Layer2_0_FILL"/>
</g>

<g transform="matrix( 1, 0, 0, 1, 0,0) ">
<use filter="url(#Filter_2)" xlink:href="#WingcycleBACK_1_Layer1_0_FILL"/>
</g>
</g>

<g transform="matrix( 0.6026611328125, 0.7979888916015625, -0.7890167236328125, 0.5959014892578125, -37.9,40.3) ">
<g transform="matrix( 1.243988037109375, 0.0895233154296875, -0.0872650146484375, 1.056610107421875, -9.4,63.65) ">
<g transform="matrix( 1, 0, 0, 1, 0,0) ">
<use xlink:href="#RD_FrontLeg_3_4_hoof_11_Layer0_0_FILL"/>
</g>
</g>

<g transform="matrix( 0.99993896484375, -0.00445556640625, -0.0002593994140625, 0.999969482421875, 1.9,0.4) ">
<g transform="matrix( 1, 0, 0, 1, 0,0) ">
<use xlink:href="#RD_FrontLeg_3_4_upper_20_Layer1_0_FILL"/>

<use xlink:href="#RD_FrontLeg_3_4_upper_20_Layer1_0_1_STROKES"/>
</g>
</g>

<g transform="matrix( 2.197784423828125, 0.1581268310546875, -0.257781982421875, 3.119873046875, -10.05,65.3) ">
<g transform="matrix( 1, 0, 0, 1, 0,0) ">
<use xlink:href="#RD_HoofWrinkle_2_Layer0_0_FILL"/>
</g>
</g>
</g>

<g transform="matrix( 1, 0, 0, 1, -19.95,24.8) ">
<g transform="matrix( 1, 0, 0, 1, 0,0) ">
<use xlink:href="#RD_Torso_0_Layer1_0_FILL"/>
</g>
</g>

<g transform="matrix( 0.1369476318359375, 0.00579833984375, -0.0221405029296875, 0.5221099853515625, -12.8,19.05) ">
<g transform="matrix( 0.9700775146484375, -0.1681671142578125, 0.564208984375, 0.9489593505859375, -68.95,-43.3) ">
<g transform="matrix( 1, 0, 0, 1, 0,0) ">
<use xlink:href="#RD_Prun_Mane_cycle_4_Layer0_0_FILL"/>
</g>

<g transform="matrix( 1, 0, 0, 1, 0,0) ">
<use xlink:href="#RD_Prun_Mane_cycle_4_Layer0_1_FILL"/>
</g>

<g transform="matrix( 1, 0, 0, 1, 0,0) ">
<use xlink:href="#RD_Prun_Mane_cycle_4_Layer0_2_FILL"/>
</g>

<g transform="matrix( 1, 0, 0, 1, 0,0) ">
<use xlink:href="#RD_Prun_Mane_cycle_4_Layer0_3_FILL"/>
</g>
</g>
</g>

<g transform="matrix( 0.9025726318359375, -0.670166015625, 0.353546142578125, 0.6069183349609375, -24.25,20.75) ">
<g transform="matrix( 1, 0, 0, 1, 0,0) ">
<use xlink:href="#RD_Neck_0_Layer0_0_FILL"/>
</g>
</g>

<g transform="matrix( 0.9999847412109375, 0, 0, 0.9999847412109375, 3.9,11.25) ">
<g transform="matrix( 1, 0, 0, 1, 0,0) ">
<use xlink:href="#Wingcycle_1_Layer9_0_FILL"/>
</g>

<g transform="matrix( 1, 0, 0, 1, 0,0) ">
<use xlink:href="#Wingcycle_1_Layer8_0_FILL"/>
</g>

<g transform="matrix( 1, 0, 0, 1, 0,0) ">
<use xlink:href="#Wingcycle_1_Layer7_0_FILL"/>
</g>

<g transform="matrix( 1, 0, 0, 1, 0,0) ">
<use xlink:href="#Wingcycle_1_Layer6_0_FILL"/>
</g>

<g transform="matrix( 1, 0, 0, 1, 0,0) ">
<use xlink:href="#Wingcycle_1_Layer5_0_FILL"/>
</g>

<g transform="matrix( 1, 0, 0, 1, 0,0) ">
<use xlink:href="#Wingcycle_1_Layer4_0_FILL"/>
</g>

<g transform="matrix( 1, 0, 0, 1, 0,0) ">
<use xlink:href="#Wingcycle_1_Layer3_0_FILL"/>
</g>

<g transform="matrix( 1, 0, 0, 1, 0,0) ">
<use xlink:href="#Wingcycle_1_Layer2_0_FILL"/>
</g>

<g transform="matrix( 1, 0, 0, 1, 0,0) ">
<use xlink:href="#Wingcycle_1_Layer1_0_FILL"/>
</g>

<g transform="matrix( 1, 0, 0, 1, 0,0) ">
<use xlink:href="#Wingcycle_1_Layer0_0_FILL"/>
</g>
</g>

<g transform="matrix( 1, 0, 0, 1, -53.85,10.05) ">
<g transform="matrix( 1, 0, 0, 1.001922607421875, -6.4,-5.3) ">
<g transform="matrix( 1, 0, 0, 1, 0,0) ">
<use xlink:href="#RD_Skull_2_Layer0_0_FILL"/>
</g>
</g>

<g transform="matrix( 0.9992218017578125, 0.01165771484375, -0.1327056884765625, 1.042236328125, -6,25.45) ">
<g transform="matrix( 1, 0, 0, 1, 0,0) ">
<use xlink:href="#RD_Mouth_front_chin__offcenter_0_Layer1_0_FILL"/>

<use xlink:href="#RD_Mouth_front_chin__offcenter_0_Layer1_0_1_STROKES"/>
</g>
</g>

<g transform="matrix( 0.972503662109375, 0, 0.15093994140625, 1.0177459716796875, 25.6,-48.8) ">
<g transform="matrix( 1, 0, 0, 1, 0,0) ">
<use xlink:href="#RD_Hair_07_9_Layer0_0_FILL"/>
</g>
</g>

<g transform="matrix( -0.8562469482421875, -0.0888671875, -0.10308837890625, 0.993377685546875, -39.25,-31.85) ">
<g transform="matrix( 1, 0, 0, 1, 0,0) ">
<use xlink:href="#RD_Ear_1_Layer1_0_FILL"/>
</g>
</g>

<g transform="matrix( 0.997467041015625, 0.063507080078125, -0.063507080078125, 0.997467041015625, 29.85,-28.65) ">
<g transform="matrix( 1, 0, 0, 1, 0,0) ">
<use xlink:href="#RD_Ear_1_Layer1_0_FILL"/>
</g>
</g>

<mask id="Mask_Mask_1">
<g transform="matrix( -0.6017608642578125, -0.1415863037109375, -0.1660003662109375, 1.02447509765625, -35.6,-1.15) ">
<g transform="matrix( 1, 0, 0, 1, 0,0) ">
<use xlink:href="#Mask_Mask_RD2_Eyewhite_3_4_1_Layer1_0_FILL"/>
</g>
</g>
</mask>

<g mask="url(#Mask_Mask_1)">
<g transform="matrix( -0.6017608642578125, -0.1415863037109375, -0.1660003662109375, 1.02447509765625, -35.6,-1.15) ">
<g transform="matrix( 1, 0, 0, 1, 0,0) ">
<use xlink:href="#RD2_Eyewhite_3_4_1_Layer1_0_FILL"/>
</g>
</g>
</g>

<g mask="url(#Mask_Mask_1)">
<g transform="matrix( 0.47186279296875, -0.0417938232421875, 0.13232421875, 0.74530029296875, -32.1,0.35) ">
<g transform="matrix( 1, 0, 0, 1, 0,0) ">
<use xlink:href="#RD2_Iris_0_Layer2_0_FILL"/>
</g>

<g transform="matrix( 1, 0, 0, 1, 0,0) ">
<use xlink:href="#RD2_Iris_0_Layer1_0_FILL"/>
</g>

<g transform="matrix( 1, 0, 0, 1, 0,0) ">
<use xlink:href="#RD2_Iris_0_Layer0_0_FILL"/>
</g>
</g>
</g>

<g mask="url(#Mask_Mask_1)">
<g transform="matrix( -0.476593017578125, 0.0044097900390625, 0.006805419921875, 0.6275482177734375, -30.85,-0.15) ">
<g transform="matrix( 1, 0, 0, 1, 0,0) ">
<use xlink:href="#RD2_Pupil_0_Layer0_0_FILL"/>
</g>
</g>
</g>

<g mask="url(#Mask_Mask_1)">
<g transform="matrix( 0.6511688232421875, -0.0670928955078125, 0.172882080078125, 0.6851348876953125, -29.85,-7.7) ">
<g transform="matrix( 1, 0, 0, 1, 0,0) ">
<use xlink:href="#RD2_Hilights_0_Layer1_0_FILL"/>
</g>
</g>
</g>

<mask id="Mask_Mask_2">
<g transform="matrix( 0.859771728515625, 0, 0.1278076171875, 1.0453338623046875, 17.2,0.35) ">
<g transform="matrix( 1, 0, 0, 1, 0,0) ">
<use xlink:href="#Mask_Mask_RD2_Eyewhite_3_4_1_Layer1_0_FILL"/>
</g>
</g>
</mask>

<g mask="url(#Mask_Mask_2)">
<g transform="matrix( 0.859771728515625, 0, 0.1278076171875, 1.0453338623046875, 17.2,0.35) ">
<g transform="matrix( 1, 0, 0, 1, 0,0) ">
<use xlink:href="#RD2_Eyewhite_3_4_1_Layer1_0_FILL"/>
</g>
</g>
</g>

<g mask="url(#Mask_Mask_2)">
<g transform="matrix( -0.5610198974609375, -0.0517425537109375, -0.0706787109375, 0.736236572265625, 26,-1.8) ">
<g transform="matrix( 1, 0, 0, 1, 0,0) ">
<use xlink:href="#RD2_Iris_2_Layer2_0_FILL"/>
</g>

<g transform="matrix( 1, 0, 0, 1, 0,0) ">
<use xlink:href="#RD2_Iris_2_Layer1_0_FILL"/>
</g>

<g transform="matrix( 1, 0, 0, 1, 0,0) ">
<use xlink:href="#RD2_Iris_2_Layer0_0_FILL"/>
</g>
</g>
</g>

<g mask="url(#Mask_Mask_2)">
<g transform="matrix( 0.53680419921875, 0.0115814208984375, 0.08184814453125, 0.643402099609375, 27.95,-1.55) ">
<g transform="matrix( 1, 0, 0, 1, 0,0) ">
<use xlink:href="#RD2_Pupil_0_Layer0_0_FILL"/>
</g>
</g>
</g>

<g mask="url(#Mask_Mask_2)">
<g transform="matrix( 0.6678314208984375, 0.2051849365234375, 0.0124053955078125, 0.67279052734375, 30.35,-7.4) ">
<g transform="matrix( 1, 0, 0, 1, 0,0) ">
<use xlink:href="#RD2_Hilights_0_Layer1_0_FILL"/>
</g>
</g>
</g>

<g transform="matrix( -0.6017608642578125, -0.1415863037109375, -0.1660003662109375, 1.02447509765625, -35.6,-1.15) ">
<g transform="matrix( 1, 0, 0, 1, 0,0) ">
<use xlink:href="#RD2_Blink_front_0_Layer2_0_FILL"/>
</g>

<g transform="matrix( 1, 0, 0, 1, 0,0) ">
<use xlink:href="#RD2_Blink_front_0_Layer1_0_FILL"/>
</g>

<g transform="matrix( 1, 0, 0, 1, 0,0) ">
<use xlink:href="#RD2_Blink_front_0_Layer1_1_FILL"/>
</g>

<g transform="matrix( 1, 0, 0, 1, 0,0) ">
<use xlink:href="#RD2_Blink_front_0_Layer1_2_FILL"/>
</g>
</g>

<g transform="matrix( 0.8662109375, -0.0929107666015625, 0.1739959716796875, 1.01947021484375, 17.05,0.3) ">
<g transform="matrix( 1, 0, 0, 1, 0,0) ">
<use xlink:href="#RD2_Blink_front_100_Layer2_0_FILL"/>
</g>
</g>

<g transform="matrix( -0.60809326171875, -0.5243072509765625, -0.508544921875, 0.857421875, -42.8,-20.85) ">
<g transform="matrix( 1, 0, 0, 1, 0,0) ">
<use xlink:href="#RD_Brow_front_1_Layer2_0_FILL"/>
</g>

<g transform="matrix( 1, 0, 0, 1, 1.7,-0.05) ">
<g transform="matrix( 1, 0, 0, 1, 0,0) ">
<use xlink:href="#RD_Lashes_02_6_Layer0_0_FILL"/>
</g>

<g transform="matrix( 1, 0, 0, 1, 0,0) ">
<use xlink:href="#RD_Lashes_02_6_Layer0_1_FILL"/>
</g>

<g transform="matrix( 1, 0, 0, 1, 0,0) ">
<use xlink:href="#RD_Lashes_02_6_Layer0_2_FILL"/>
</g>
</g>

<g transform="matrix( 1, 0, 0, 1, 0,0) ">
<use xlink:href="#RD_Brow_front_1_Layer0_0_FILL"/>
</g>
</g>

<g transform="matrix( 0.924713134765625, -0.4334564208984375, 0.457275390625, 0.8568572998046875, 30.45,-17.85) ">
<g transform="matrix( 1, 0, 0, 1, 0,0) ">
<use xlink:href="#RD_Brow_front_1_Layer2_0_FILL"/>
</g>

<g transform="matrix( 1, 0, 0, 1, 1.7,-0.05) ">
<g transform="matrix( 1, 0, 0, 1, 0,0) ">
<use xlink:href="#RD_Lashes_02_6_Layer0_0_FILL"/>
</g>

<g transform="matrix( 1, 0, 0, 1, 0,0) ">
<use xlink:href="#RD_Lashes_02_6_Layer0_1_FILL"/>
</g>

<g transform="matrix( 1, 0, 0, 1, 0,0) ">
<use xlink:href="#RD_Lashes_02_6_Layer0_2_FILL"/>
</g>
</g>

<g transform="matrix( 1, 0, 0, 1, 0,0) ">
<use xlink:href="#RD_Brow_front_1_Layer0_0_FILL"/>
</g>
</g>

<g transform="matrix( 1.04473876953125, -0.17791748046875, 0.2764129638671875, 0.92706298828125, -14.35,25.7) ">
<g transform="matrix( 1, 0, 0, 1, 0,0) ">
<use xlink:href="#RD_Mouth_front_hole__0_Layer4_0_FILL"/>
</g>
</g>

<g transform="matrix( 1.00201416015625, 0.0025787353515625, 0.08404541015625, 0.9959716796875, -18.15,22.15) ">
<g transform="matrix( 1, 0, 0, 1, 0,0) ">
<use xlink:href="#RD_Mouth_front_nostril__0_Layer2_0_FILL"/>
</g>
</g>

<g transform="matrix( 0.85284423828125, -0.37200927734375, 0.05682373046875, 0.930206298828125, 21.5,19.2) ">
<g transform="matrix( 1, 0, 0, 1, 0,0) ">
<use xlink:href="#RD_Cheek_0_Layer1_0_FILL"/>
</g>

<g transform="matrix( 1, 0, 0, 1, 0,0) ">
<use xlink:href="#RD_Cheek_0_Layer0_0_FILL"/>
</g>
</g>

<g transform="matrix( 0.9800262451171875, 0.032135009765625, -0.1204071044921875, 0.9931640625, -16.75,25.2) ">
<g transform="matrix( 1, 0, 0, 1, 0.65,-8.5) ">
<g transform="matrix( 1, 0, 0, 1, 0,0) ">
<use xlink:href="#RD_Wrinkle_0_Layer0_0_FILL"/>
</g>
</g>
</g>

<g transform="matrix( 1.07415771484375, 0.0653076171875, 0.0907745361328125, 0.991790771484375, -13.5,-33.7) ">
<g transform="matrix( 1, 0, 0, 1, 0,0) ">
<use xlink:href="#RD_Hair_01_19_Layer3_0_FILL"/>

<use xlink:href="#RD_Hair_01_19_Layer3_0_1_STROKES"/>
</g>

<g transform="matrix( 1, 0, 0, 1, 0,0) ">
<use xlink:href="#RD_Hair_01_19_Layer2_0_FILL"/>
</g>

<g transform="matrix( 1, 0, 0, 1, 0,0) ">
<use xlink:href="#RD_Hair_01_19_Layer1_0_FILL"/>
</g>

<g transform="matrix( 1, 0, 0, 1, 0,0) ">
<use xlink:href="#RD_Hair_01_19_Layer0_0_FILL"/>
</g>
</g>
</g>

<g transform="matrix( -0.3125457763671875, -1.02899169921875, -0.8546295166015625, 0.2658233642578125, -2.3,49.05) ">
<g transform="matrix( 1.108154296875, 0.09967041015625, -0.077728271484375, 1.1765594482421875, -8.35,40.1) ">
<g transform="matrix( 1, 0, 0, 1, 0,0) ">
<use xlink:href="#RD_FrontLeg_3_4_hoof_16_Layer0_0_FILL"/>

<use xlink:href="#RD_FrontLeg_3_4_hoof_16_Layer0_0_1_STROKES"/>
</g>
</g>

<g transform="matrix( 0.9623260498046875, 0.271636962890625, -0.27618408203125, 0.9610443115234375, 2.7,0.35) ">
<g transform="matrix( 1, 0, 0, 1, 0,0) ">
<use xlink:href="#RD_FrontLeg_3_4_upper_21_Layer1_0_FILL"/>

<use xlink:href="#RD_FrontLeg_3_4_upper_21_Layer1_0_1_STROKES"/>
</g>
</g>

<g transform="matrix( 1.9949188232421875, 0.1793975830078125, -0.257781982421875, 3.89984130859375, -5.95,23.45) ">
<g transform="matrix( 1, 0, 0, 1, 0,0) ">
<use xlink:href="#RD_HoofWrinkle_2_Layer0_0_FILL"/>
</g>
</g>
</g>
</g>
</svg>
