
<svg xmlns="http://www.w3.org/2000/svg" version="1.1" xmlns:xlink="http://www.w3.org/1999/xlink" preserveAspectRatio="none" x="0px" y="0px" width="864px" height="486px" viewBox="0 0 864 486">
<defs>
<linearGradient id="Gradient_1" gradientUnits="userSpaceOnUse" x1="281.1875" y1="36.9375" x2="276.51250000000005" y2="60.3625" spreadMethod="pad">
<stop  offset="0%" stop-color="#590D39"/>

<stop  offset="19.607843137254903%" stop-color="#9C1862"/>

<stop  offset="22.745098039215687%" stop-color="#A01964"/>

<stop  offset="34.11764705882353%" stop-color="#AA1A6C"/>

<stop  offset="73.72549019607843%" stop-color="#BD1D78"/>

<stop  offset="100%" stop-color="#BF1D79"/>
</linearGradient>

<filter id="Filter_1" x="-20%" y="-20%" width="140%" height="140%" color-interpolation-filters="sRGB">
<feColorMatrix in="SourceGraphic" type="matrix" values="1 0 0 0 -0.06274509803921569 0 1 0 0 -0.0784313725490196 0 0 1 0 -0.06274509803921569 0 0 0 1 0" result="result1"/>
</filter>

<filter id="Filter_2" x="-20%" y="-20%" width="140%" height="140%" color-interpolation-filters="sRGB">
<feColorMatrix in="SourceGraphic" type="matrix" values="0.57 0 0 0 0.1843137254901961 0 0.57 0 0 0.28627450980392155 0 0 0.57 0 0.37254901960784315 0 0 0 1 0" result="result1"/>
</filter>

<g id="RD_Prun_Tail_6_Layer1_0_FILL">
<path fill="#EE4143" stroke="none" d="
M 34.35 -25.3
Q 23.1 -20.8 14.4 -16.05 5.75 -11.35 -1.05 -6.95 -4.85 -3.9 -5.45 -0.8 -6 2.25 -4.3 4.55 -2.6 6.8 0.5 7.4 3.65 7.95 7.3 5.95 15.45 2.95 23.8 2.1 32.2 1.3 40.1 2.3 48 3.25 54.8 5.65 61.55 8.05 66.6 11.45 71.8 14.9 75.35 18.8 78.9 22.75 81.2 27.05 83.45 31.3 84.8 35.7 85.15 36.75 85.45 37.9 85.7 39.05 86 40.1 86.45 41.4 87.2 43.25 87.95 45.1 88.6 46.8 94.1 60.7 101.45 72.8 108.8 84.9 117.85 94.7 124 101.2 130.65 106.25 137.3 111.3 143.9 114.85 150.5 118.35 156.6 120.25 156.25 120.05 154 118.55 151.4 116.85 147.3 113.75 143.2 110.65 138.65 106.5 134.05 102.35 130.05 97.5 125.9 92.7 122.75 88.15 119.6 83.55 117.4 79.8 115.25 76 114.05 73.75 113.5 72.7 113.15 72.1 114.75 74.3 117.35 77.4 120.5 81.1 125.2 85.5 129.9 89.9 136.35 94.55 142.7 99.3 150.8 103.2 158.85 107.1 167.8 109.75 176.7 112.35 185.65 113.35 194.75 114.35 202.7 114.25 210.7 114.1 217.4 113.35 224.05 112.65 229.2 111.8 236.95 110.5 241.25 109.6 245.6 108.75 245.65 108.7 245.6 108.7 243.65 108.6 241.7 108.45 238.35 108.25 234.95 108 230.7 107.6 226.45 107.25 221.85 106.7 217.2 106.25 212.75 105.5 208.3 104.8 204.65 104.05 201 103.25 198.8 102.75 196.6 102.2 196.4 102.15 203.55 101.9 211.75 99.65 219.95 97.45 228.3 94.05 236.7 90.7 244.3 86.95 251.95 83.25 257.95 79.95 264 76.7 267.5 74.7 270.7 72.85 271.05 72.75 264.05 73.9 257.05 75 250 76.1 242.95 77.1 243.2 77.05 245.9 76.15 248.75 75.15 253.5 73.6 258.25 72 263.95 70.1 269.65 68.25 275.4 66.4 281.1 64.55 286 63 290.85 61.5 293.9 60.7 295.45 60.25 296.35 60.1 288.4 60.85 279.55 61.85 270.15 62.9 260.75 63.95 251.4 64.95 243 65.65 234.65 66.35 228.25 66.5 221.85 66.6 218.2 66.5 214.6 66.4 214.55 66.35 214.6 66.4 216.35 66.05 218.15 65.75 221.25 65.15 224.3 64.5 228.15 63.65 232 62.8 236.1 61.7 240.2 60.65 244.1 59.55 248.05 58.45 251.25 57.5 254.45 56.55 256.35 55.9 258.25 55.3 258.3 55.15 241.1 58.55 223.2 58.05 214.15 57.85 205.7 56.4 197.2 55 190.3 52.2 185.55 50.3 181.6 47.9 177.6 45.55 173.85 42.5 170.1 39.5 166.05 35.65 159.85 29.75 152.4 21.25 150.5 19.15 148.6 16.85 146.65 14.5 144.6 12.1 142.6 9.6 140.45 7.05 138.6 4.6 136.95 2.55 135.25 0.5 133.3 -1.55 133.25 -1.8 134.95 -0.5 136.6 0.8 139.25 2.75 141.9 4.7 144.75 6.55 147.65 8.4 150.1 9.3 153.9 11 157.6 12.35 161.3 13.65 164.35 14.4 167.4 15.1 169.25 15.15 166.15 12.45 160.85 8.7 159.55 7.7 158.1 6.7 156.65 5.7 155.15 4.5 154.05 3.65 153.05 2.95 152.05 2.2 150.75 1.1 149.4 -0.05 147.35 -2.25 140.1 -9.6 130.85 -15.8 121.55 -22.05 111.05 -26.3 100.55 -30.55 89.7 -31.95 79 -33.55 69.2 -32.9 59.35 -32.25 50.55 -30.15 41.8 -28.05 34.35 -25.3 Z"/>
</g>

<g id="RD_Prun_Tail_6_Layer1_1_FILL">
<path fill="#F37033" stroke="none" d="
M 34.35 -25.3
Q 23.1 -20.8 14.4 -16.05 5.75 -11.35 -1.05 -6.95 -4.85 -3.9 -5.45 -0.8 -6 2.25 -4.3 4.55 -2.6 6.8 0.5 7.4 3.65 7.95 7.3 5.95 12.35 3.95 17.85 2.95 23.35 1.95 28.85 1.75 34.3 1.6 39.35 2.2 48.1 2.45 56.2 4.6 64.3 6.7 71.2 10.5 78.1 14.3 83.2 19.55 85.95 22.4 88.05 25.2 90.15 28 92.1 31.4 94.1 34.75 96.4 39.2 100.35 46.45 104.9 53.4 109.5 60.35 114.85 66.8 121.85 75.5 130.65 82.95 139.45 90.35 149.35 95.8 159.25 101.25 169.55 104 179.8 106.75 189 107.5 198.2 108.25 205.95 107.8 213.7 107.35 219.7 106.45 215.3 105.95 211.2 105.25 207.05 104.55 203.8 103.85 200.5 103.15 198.55 102.65 196.55 102.2 196.4 102.15 203.55 101.9 211.75 99.65 219.95 97.45 228.3 94.05 236.7 90.7 244.3 86.95 251.95 83.25 257.95 79.95 264 76.7 267.5 74.7 270.7 72.85 271.05 72.75 264.05 73.9 257.05 75 250 76.1 242.95 77.1 243.2 77.05 245.9 76.15 248.75 75.15 253.5 73.6 258.25 72 263.95 70.1 269.65 68.25 275.4 66.4 281.1 64.55 286 63 290.85 61.5 293.9 60.7 295.45 60.25 296.35 60.1 288.4 60.85 279.55 61.85 270.15 62.9 260.75 63.95 251.4 64.95 243 65.65 234.65 66.35 228.25 66.5 221.85 66.6 218.2 66.5 214.6 66.4 214.55 66.35 214.6 66.4 216.35 66.05 218.15 65.75 221.25 65.15 224.3 64.5 228.15 63.65 232 62.8 236.1 61.7 240.2 60.65 244.1 59.55 248.05 58.45 251.25 57.5 254.45 56.55 256.35 55.9 258.25 55.3 258.3 55.15 241.1 58.55 223.2 58.05 214.15 57.85 205.7 56.4 197.2 55 190.3 52.2 185.55 50.3 181.6 47.9 177.6 45.55 173.85 42.5 170.1 39.5 166.05 35.65 159.85 29.75 152.4 21.25 150.5 19.15 148.6 16.85 146.65 14.5 144.6 12.1 142.6 9.6 140.45 7.05 138.6 4.6 136.95 2.55 135.25 0.5 133.3 -1.55 133.25 -1.8 134.95 -0.5 136.6 0.8 139.25 2.75 141.9 4.7 144.75 6.55 147.65 8.4 150.1 9.3 153.9 11 157.6 12.35 161.3 13.65 164.35 14.4 167.4 15.1 169.25 15.15 166.15 12.45 160.85 8.7 159.55 7.7 158.1 6.7 156.65 5.7 155.15 4.5 154.05 3.65 153.05 2.95 152.05 2.2 150.75 1.1 149.4 -0.05 147.35 -2.25 140.1 -9.6 130.85 -15.8 121.55 -22.05 111.05 -26.3 100.55 -30.55 89.7 -31.95 79 -33.55 69.2 -32.9 59.35 -32.25 50.55 -30.15 41.8 -28.05 34.35 -25.3 Z"/>
</g>

<g id="RD_Prun_Tail_6_Layer1_2_FILL">
<path fill="#FDF6AF" stroke="none" d="
M 34.35 -25.3
Q 23.1 -20.8 14.4 -16.05 5.75 -11.35 -1.05 -6.95 -4.85 -3.9 -5.45 -0.8 -6 2.25 -4.3 4.55 -2.6 6.8 0.5 7.4 3.65 7.95 7.3 5.95 7.65 5.75 10.15 4.6 12.65 3.45 17.1 2 21.6 0.55 27.85 -0.6 34.1 -1.7 42 -1.85 49.85 -2.2 58.25 -0.45 66.7 1.3 74.8 5.3 82.95 9.3 89.8 15.65 96.65 22 101.35 30.8 107.25 41.3 114.6 51.4 121.95 61.55 131.15 70.25 137.15 76.1 144.1 80.8 151.05 85.55 158.45 88.9 165.85 92.3 173.2 94.15 184.45 96.7 193.85 97.15 203.2 97.6 210.5 96.85 217.75 96.05 222.65 95 227.55 93.95 229.85 93.5 238 90.05 245.35 86.4 252.7 82.8 258.5 79.7 264.25 76.55 267.6 74.65 270.95 72.75 271.1 72.75 264.05 73.9 257.05 75 250 76.1 242.95 77.1 243.2 77.05 245.9 76.15 248.75 75.15 253.5 73.6 258.25 72 263.95 70.1 269.65 68.25 275.4 66.4 281.1 64.55 286 63 290.85 61.5 293.9 60.7 295.45 60.25 296.35 60.1 288.4 60.85 279.55 61.85 270.15 62.9 260.75 63.95 251.4 64.95 243 65.65 234.65 66.35 228.25 66.5 221.85 66.6 218.2 66.5 214.6 66.4 214.55 66.35 214.6 66.4 216.35 66.05 218.15 65.75 221.25 65.15 224.3 64.5 228.15 63.65 232 62.8 236.1 61.7 240.2 60.65 244.1 59.55 248.05 58.45 251.25 57.5 254.45 56.55 256.35 55.9 258.25 55.3 258.3 55.15 241.1 58.55 223.2 58.05 214.15 57.85 205.7 56.4 197.2 55 190.3 52.2 185.55 50.3 181.6 47.9 177.6 45.55 173.85 42.5 170.1 39.5 166.05 35.65 159.85 29.75 152.4 21.25 150.5 19.15 148.6 16.85 146.65 14.5 144.6 12.1 142.6 9.6 140.45 7.05 138.6 4.6 136.95 2.55 135.25 0.5 133.3 -1.55 133.25 -1.8 134.95 -0.5 136.6 0.8 139.25 2.75 141.9 4.7 144.75 6.55 147.65 8.4 150.1 9.3 153.9 11 157.6 12.35 161.3 13.65 164.35 14.4 167.4 15.1 169.25 15.15 166.15 12.45 160.85 8.7 159.55 7.7 158.1 6.7 156.65 5.7 155.15 4.5 154.05 3.65 153.05 2.95 152.05 2.2 150.75 1.1 149.4 -0.05 147.35 -2.25 140.1 -9.6 130.85 -15.8 121.55 -22.05 111.05 -26.3 100.55 -30.55 89.7 -31.95 79 -33.55 69.2 -32.9 59.35 -32.25 50.55 -30.15 41.8 -28.05 34.35 -25.3 Z"/>
</g>

<g id="RD_Prun_Tail_6_Layer1_3_FILL">
<path fill="#662F89" stroke="none" d="
M 18.3 -6.65
Q 24.4 -8.5 30.6 -9.6 39.95 -11.15 49.5 -10.85 59 -10.55 68.2 -8.2 77.4 -5.7 85.6 -1 93.85 3.7 100.5 10.5 104.95 14.95 108.5 20.2 112.05 25.45 115.45 30.9 118.85 36.35 122.85 41.45 128.5 49.2 135.4 56.1 142.35 63 150.4 68.5 158.45 74 167.5 77.55 176.6 81.05 186.5 82.05 196.3 83.05 205.95 82.3 215.6 81.55 225.1 79.7 234.6 77.85 243.9 75.4 253.25 73 262.5 70.6 268.25 68.55 274.25 66.65 280.2 64.75 285.35 63.25 290.5 61.7 293.75 60.85 296.6 60.1 297.25 60 288.9 60.8 279.55 61.85 270.15 62.9 260.75 63.95 251.4 64.95 243 65.65 234.65 66.35 228.25 66.5 221.85 66.6 218.2 66.5 214.8 66.4 214.6 66.35 214.75 66.35 216.35 66.05 218.15 65.75 221.25 65.15 224.3 64.5 228.15 63.65 231.95 62.8 236.1 61.7 240.2 60.65 244.1 59.55 248.05 58.45 251.25 57.5 254.45 56.55 256.35 55.9 258.25 55.3 258.3 55.15 241.1 58.55 223.2 58.05 214.15 57.85 205.7 56.4 197.2 55 190.3 52.2 185.55 50.3 181.6 47.9 177.6 45.55 173.85 42.5 170.1 39.5 166.05 35.65 159.85 29.75 152.4 21.25 150.5 19.15 148.6 16.85 146.65 14.5 144.6 12.1 142.6 9.6 140.45 7.05 138.6 4.6 136.95 2.55 135.25 0.5 133.3 -1.55 133.25 -1.8 134.95 -0.5 136.6 0.8 139.25 2.75 141.85 4.7 144.75 6.55 147.65 8.4 150.1 9.3 153.9 11 157.6 12.35 161.3 13.65 164.35 14.4 167.4 15.1 169.2 15.15 166.15 12.45 160.85 8.7 159.55 7.7 158.1 6.7 156.65 5.7 155.15 4.5 154.05 3.65 153.05 2.95 152.05 2.2 150.7 1.1 149.4 -0.05 147.3 -2.25 140.1 -9.6 130.85 -15.8 121.55 -22.05 111.05 -26.3 100.55 -30.55 89.7 -31.95 79 -33.55 69.15 -32.9 59.3 -32.25 50.55 -30.15 41.8 -28.05 34.35 -25.3 23.1 -20.8 14.4 -16.05 5.75 -11.35 -1.05 -6.95 -4.05 -4.75 -5 -2.5 -5.95 -0.2 -5.45 1.85 -4.95 3.9 -3.65 5.4 1 1 6.6 -1.9 12.2 -4.85 18.3 -6.65 Z"/>
</g>

<g id="RD_Prun_Tail_6_Layer1_4_FILL">
<path fill="#1D98D5" stroke="none" d="
M 18.3 -6.7
Q 24.4 -8.5 30.6 -9.6 39.95 -11.2 49.5 -10.9 59 -10.6 68.2 -8.2 77.4 -5.7 85.6 -1 93.85 3.7 100.5 10.5 104.95 14.95 108.5 20.15 112.05 25.4 115.45 30.85 118.85 36.3 122.85 41.4 128.5 49.15 135.4 56.05 142.35 63 150.4 68.5 158.45 74 167.5 77.5 176.6 81.05 186.5 82.05 196.3 83 205.95 82.3 215.6 81.55 225.1 79.65 234.6 77.8 243.9 75.4 253.25 73 262.5 70.6 268.25 68.5 274.25 66.6 280.2 64.7 285.35 63.2 290.5 61.7 293.75 60.85 296.6 60.1 297.25 60 288.9 60.8 279.55 61.85 270.15 62.9 260.75 63.9 251.4 64.95 243 65.65 234.65 66.35 228.25 66.45 221.85 66.6 218.2 66.45 214.6 66.35 214.55 66.35
L 216.35 66.05
Q 218.15 65.7 221.25 65.1 224.3 64.5 228.15 63.65 231.95 62.8 236.1 61.7 240.2 60.6 244.1 59.5 248.05 58.4 251.25 57.45 254.45 56.5 256.35 55.85 258.25 55.25 258.3 55.1 245.75 57.6 232.75 58 219.75 58.4 206.9 56.65 206.5 56.4 203.9 56.55 201.35 56.75 197.05 56.7 192.8 56.65 187.35 55.75 181.9 54.85 175.7 52.5 169.5 50.15 163.05 45.75 154.6 39.85 145.55 29.65 141.15 24.55 136.7 18.65
L 132.3 12.5
Q 130.75 10.25 129.15 8.05 127.55 5.85 125.75 3.75 121.05 -2.05 115.25 -7.15 109.45 -12.25 102.75 -16.35 96.05 -20.45 88.6 -23.15 77.65 -27.3 66.25 -28.55 54.85 -29.75 43.95 -28.5 34 -25.45 25.85 -21.75 17.7 -18.05 11.05 -14.25 4.4 -10.4 -1.05 -6.95 -4.05 -4.8 -5 -2.5 -5.95 -0.25 -5.45 1.8 -4.95 3.85 -3.65 5.35 1 0.95 6.6 -1.95 12.2 -4.85 18.3 -6.7 Z"/>
</g>

<g id="RD_Prun_Tail_6_Layer1_5_FILL">
<path fill="#62BC4D" stroke="none" d="
M 18.3 -6.7
Q 24.4 -8.5 30.6 -9.6 39.95 -11.2 49.5 -10.9 59 -10.6 68.2 -8.2 77.4 -5.7 85.6 -1 93.85 3.7 100.5 10.5 104.95 14.95 108.5 20.15 112.05 25.4 115.45 30.85 118.85 36.3 122.85 41.4 128.5 49.15 135.4 56.05 142.35 63 150.4 68.5 158.45 74 167.5 77.5 176.6 81.05 186.5 82.05 196.3 83 205.95 82.3 215.6 81.55 225.1 79.65 234.6 77.8 243.9 75.4 253.25 73 262.5 70.6 268.25 68.5 274.25 66.6 280.2 64.7 285.35 63.2 290.5 61.7 293.75 60.85 296.65 60.1 297.25 60 289.75 60.7 281.35 61.65 272.9 62.6 264.35 63.55 255.8 64.5 247.9 65.2 240 65.95 233.45 66.25 229.4 66.5 223.8 67.3 218.2 68.1 211.4 68.7 204.6 69.35 197 69.1 189.35 68.9 181.3 67.1 173.25 65.3 165.15 61.2 157.05 57.1 149.25 50.05 143.45 44.9 137.9 38.5 132.35 32.05 127.2 24.6 124.85 21.1 121.95 16.7 119 12.25 115.25 7.75 111.55 3.4 107.15 -0.5 102.8 -4.45 97.85 -7.7 87.7 -14.25 76.4 -17.55 65.1 -20.9 53.35 -21.25 41.6 -21.6 30.15 -19.2 18.7 -16.8 8.2 -11.9 5.35 -10.7 3.05 -9.4 0.7 -8.05 -1.05 -6.95 -4.05 -4.8 -5 -2.5 -5.95 -0.25 -5.45 1.8 -4.95 3.85 -3.65 5.35 1 0.95 6.6 -1.95 12.2 -4.85 18.3 -6.7 Z"/>
</g>

<g id="RD_Prun_Tail_6_Layer1_6_FILL">
<path fill="#3A54A5" stroke="none" d="
M 308.85 58.4
Q 310.6033203125 57.9943359375 311.2 57.9 310.5791015625 57.931640625 308.7 58
L 308.85 58.4
M 263.35 53.15
L 263.4 53.75 265.65 52.75
Q 264.5365234375 52.96875 263.35 53.15
M 111.45 69.05
Q 111.4 69 112.45 71.35
L 112.8 70.95
Q 112.0322265625 69.93203125 111.45 69.05 Z"/>

<path fill="#1D9AD6" stroke="none" d="
M 39.25 -30.25
Q 33.1 -28.55 27.3 -26.05 21.45 -23.75 16.4 -20.9 11.35 -18.1 7.35 -15.3 3.4 -12.5 0.85 -10.35 -1.7 -8.2 -2.5 -7.25 -5.85 -3.8 -6.2 -0.55 -6.6 2.7 -4.9 5.35 -3.75 7.2 -1.55 7.95 0.7 8.65 3.35 8.4 6 8.15 8.4 7.05 16.75 4.15 25.2 3.5 33.7 2.85 41.65 4.05 49.55 5.2 56.25 7.85 62.9 10.45 67.65 14.15 72.6 17.85 75.75 21.95 78.85 26 80.8 30.45 82.1 33.3 82.95 36.25 83.8 39.2 85.05 43.05 86.3 46.95 88.8 52.55 92.55 61.35 98.1 70.65 103.7 79.95 111 88.7 118.3 97.5 127.35 104.75 134.1 110.25 140.75 114.05 147.4 117.9 153.15 120.3 158.9 122.65 163 123.75 167.05 124.85 168.65 124.85 165.6 123.45 161.65 121.25 157.7 119.05 153.3 116.05 148.9 113.05 144.5 109.4 137.85 103.85 132.55 97.7 127.25 91.55 123.35 85.9 127.15 89.5 132.15 93.4 137.15 97.25 143.25 100.9 149.4 104.5 156.55 107.45 163.65 110.4 171.15 112.25 178.65 114.1 186.1 114.95 193.6 115.8 200.6 115.8 214.25 115.45 224.2 114.1 234.15 112.75 239.9 111.45 245.65 110.2 246.7 110.05 249.5 109.5 252.15 108.85 254.85 108.2 257.7 107.55 254.8 107.5 252.1 107.35 249.4 107.25 246.6 107.1 236.05 106.5 228.25 105.7 220.45 104.95 214.95 104.15 209.5 103.3 206.05 102.65 214.75 100.95 223.75 97.65 232.8 94.3 241.25 90.35 249.65 86.4 256.5 82.7 263.35 79.05 267.6 76.6 271.85 74.2 272.55 73.95 274.4 72.9 276.15 71.9 277.9 70.95 279.8 69.95 274.25 70.65 268.5 71.6 262.8 72.5 257.1 73.35 260.8 71.95 266.15 70.2 271.5 68.5 277.6 66.75 283.7 65 289.65 63.35 295.6 61.75 300.55 60.45 305.45 59.2 308.45 58.5 308.6578125 58.4505859375 308.85 58.4
L 308.7 58
Q 305.95 58.1 301.15 58.35 296.35 58.6 290.15 59.05 283.95 59.5 277 60.2 270 61 263.05 61.8 256.05 62.6 249.7 63.25 243.35 63.95 238.25 64.4 233.15 64.8 229.95 64.85 233.45 64.05 237.15 63.1 242.9 61.55 248.05 59.75 253.2 57.95 257.15 56.35 261.15 54.75 263.4 53.75
L 263.35 53.15
Q 258.6978515625 54.0189453125 253.25 54.7 246.5 55.55 239.3 56 232.15 56.45 225.3 56.45 218.5 56.45 212.85 55.8 204.25 54.95 197.15 52.6 190 50.3 184.45 46.8 180.75 44.5 177.5 41.9 174.2 39.3 170.65 35.95 167.1 32.65 162.65 28.25 159.7 25.45 155.65 21.9 151.65 18.3 147.3 14 142.95 9.7 139.05 4.6 142.15 7.05 146.2 9.05 150.3 11.05 154.6 12.55 158.85 14.05 162.5 15.1 166.15 16.1 168.4 16.55 170.65 16.95 170.7 16.8 169 14.2 165.5 10.55 161.95 6.95 156.8 2.65 155.95 1.85 155 1.2 154 0.5 152.3 -1.1 148.25 -5.4 142.7 -10.15 137.1 -14.9 130.25 -19.25 123.4 -23.65 115.9 -26.9 108.35 -30.25 101.15 -32.05 93.9 -33.85 87.65 -34.55 81.35 -35.2 76.55 -35.2 71.8 -35.2 69.15 -34.85 66.3 -34.85 61.6 -34.4 56.95 -33.95 51.2 -32.95 45.4 -31.95 39.25 -30.25
M 1.75 -7.5
Q 4.85 -10 9.75 -13.15 14.7 -16.35 21.4 -19.7 28.1 -23 36.55 -25.8 44.9 -28.7 54.9 -30.25 64.9 -31.8 75.95 -31.5 87 -31.2 98.45 -28.45 107 -26.35 115.1 -22.6 123.2 -18.8 130.5 -13.85 137.75 -8.9 143.75 -3.25 147.05 0.15 149.2 1.95 151.3 3.8 152.9 4.9 154.45 6.05 156.1 7.3 160.85 10.75 164.35 13.25 161.85 12.65 158.9 11.65 155.95 10.6 152.95 9.3 149.9 8 147.15 6.5 145.95 6.1 144.35 5 142.8 3.9 141.25 2.65 139.7 1.4 138.5 0.55 136.6 -0.85 135.5 -1.6 134.4 -2.35 134.3 -2.4 128.95 -6.1 123.15 -9.1 128.35 -4.65 132.85 0.35 136.55 4.65 138.95 7.65 141.4 10.65 143.25 12.95 145.1 15.3 147.15 17.55 152.95 24.4 158.35 30.05 162.9 34.85 166.9 38.5 170.85 42.15 174.65 44.95 178.45 47.75 182.6 50.1 188.85 53.55 196.4 55.75 204 57.95 212.65 58.8 219.55 59.45 226.6 59.5 233.6 59.6 240.55 59.05 236.3 60.2 231.8 61.3 227.3 62.4 223 63.35 218.65 64.25 214.95 64.85 208 66.05 201.65 66.4 204.75 67 208.15 67.35 211.6 67.65 215.1 67.85 215.25 67.85 217.85 67.95 220.5 68 225.2 68 229.85 67.95 236.15 67.6 242.4 67.25 249.7 66.55 257.05 65.85 264.85 64.95 272.7 64.1 280.4 63.25 275.7 64.75 270.35 66.65 265 68.55 259.8 70.45 254.55 72.4 250.2 74.05 245.8 75.7 243 76.75 240.2 77.8 239.7 77.9 251.65 76.8 263.5 75.5 259.3 77.9 253.05 81.2 246.8 84.5 239.3 88.05 231.8 91.6 223.85 94.65 215.95 97.75 208.35 99.65 200.8 101.55 194.4 101.55 194.4 101.7 196.95 102.5 199.5 103.25 203.75 104.3 208.05 105.4 213.35 106.45 218.65 107.55 224.2 108.35 229.75 109.15 234.85 109.35 230.9 110.05 225.55 110.9 220.2 111.75 213.6 112.35 207 112.95 199.2 112.95 191.25 112.95 182.75 111.75 174.25 110.55 165.85 108 157.4 105.5 149.8 101.6 141.65 97.45 135.3 92.8 128.9 88.15 124.15 83.65 119.45 79.1 116.3 75.3 114.2291015625 72.873046875 112.8 70.95
L 112.45 71.35
Q 113.45 73.65 115.5 77.65 117.55 81.65 120.65 86.6 123.75 91.6 127.9 96.7 132 101.75 136.45 106.15 140.85 110.6 144.8 113.6 142.2 112.3 137.75 109.3 133.35 106.3 128 101.7 122.7 97.1 117.35 91 112 84.95 107.15 77.85 102.3 70.75 98.15 63.05 93.95 55.35 90.65 47.35 88.65 42.75 87.65 39.8 86.7 36.8 86 34.55 85.3 32.3 84.15 29.85 81.05 22.9 76.05 17.5 72.75 13.95 68.95 11.25 65.15 8.6 61.4 6.75 57.65 4.9 54.55 3.95 47.9 1.55 40 0.65 32.1 -0.25 23.7 0.6 15.3 1.45 7.1 4.35 3.9 5.85 1.4 5.5 -1.15 5.1 -2.35 3.4 -3.25 2.25 -3.1 0.35 -2.9 -1.5 -1.7 -3.6 -0.45 -5.7 1.75 -7.5 Z"/>
</g>

<g id="RD_FrontLeg_3_4_hoof_6_Layer0_0_FILL">
<path fill="#9EDBF8" stroke="none" d="
M -0.95 -17.2
Q -8.6921875 -16.7904296875 -12.35 -12.4 -15.971875 -8.0099609375 -18.15 -4 -20.324609375 0.0544921875 -21.9 7.4 -23.42421875 14.7861328125 -17.1 18.5 -10.7796875 22.268359375 0.15 20.85 11.0783203125 19.4369140625 14.05 14.5 17.0837890625 9.596484375 17.4 1.25 17.7197265625 -7.051171875 12.3 -12.35 6.8671875 -17.5837890625 -0.95 -17.2 Z"/>
</g>

<g id="RD_KneePatch_1_Layer0_0_FILL">
<path fill="#6DABDD" stroke="none" d="
M 10.75 -8.3
L 10.75 -8.45
Q 10.999609375 -9.6171875 11 -10.9 11.0111328125 -16.75078125 6.7 -21.15 2.4033203125 -25.5216796875 -3.55 -25.85 -9.52421875 -26.1814453125 -13.85 -22.55 -18.2634765625 -18.8869140625 -18.25 -13.75
L -18.25 -13.7
Q -18.333203125 -9.8595703125 -15.45 -3.75
L -15.4 -3.65 -15.4 -3.6
Q -12.6767578125 2.0408203125 -9.8 10.1
L -9.75 10.2
Q -9.74140625 10.22421875 -9.75 10.25
L -9.75 10.25
Q -6.684765625 18.7166015625 -4.1 21.8
L -4.05 21.85
Q -1.2443359375 25.3462890625 3.45 25.6
L 3.5 25.6
Q 8.171875 25.7728515625 11.55 22.6 14.949609375 19.4423828125 15.4 15.75 15.955859375 12.0994140625 13.1 9.2 8.4591796875 3.042578125 10.65 -7.8 10.721875 -8.034375 10.75 -8.3 Z"/>
</g>

<g id="RD_HindLeg_3_4rear_lower_2_Layer1_0_FILL">
<path fill="#9EDBF8" stroke="none" d="
M -5.65 -3.6
Q -13.0958984375 2.169140625 -8.9 12.2 -5.18671875 19.70546875 7.6 6.9 17.0154296875 -1.388671875 11.5 -5.15 1.836328125 -8.4703125 -5.65 -3.6 Z"/>
</g>

<g id="RD_HindLeg_3_4rear_lower_2_Layer0_0_FILL">
<path fill="#9EDBF8" stroke="none" d="
M -10.2 3.35
Q -15.7921875 31.9404296875 -8.9 59.25
L 24.35 43.05
Q 15.0326171875 27.90546875 13.4 -2.55
L -10.2 3.35 Z"/>
</g>

<g id="RD_HindLeg_3_4_top_3_Layer1_0_FILL">
<path fill="#6DABDD" stroke="none" d="
M -19.65 44.3
Q -19.6541015625 43.8923828125 -19.7 43.45 -19.7474609375 43.891015625 -19.8 44.3
L -19.65 44.3
M 0.85 -4.4
L 0.85 -4.4
Q -8.440625 -7.578515625 -18.8 -4.85 -20.7306640625 -4.3076171875 -22.7 -3.6 -35.693359375 1.456640625 -37.3 12.75 -36.67265625 13.8740234375 -36.05 14.95 -35.9734375 15.0919921875 -35.9 15.2
L -35.5 15.95
Q -32.348046875 1.869921875 -18.8 -1.8 -4.6494140625 -5.201171875 3.15 0.8 4.996875 2.69765625 6.85 5.45 8.5537109375 7.9505859375 9.85 11.55 10.773828125 14.0306640625 11.95 18.6 13.480078125 24.059375 14 30.65 14.6548828125 37.772265625 13.95 44.3
L 16.5 44.3
Q 17.1921875 37.8173828125 16.9 31 16.514453125 22.81796875 14.85 16.7 12.33671875 7.5259765625 8.9 2.55 6.02890625 -1.5513671875 3.15 -3.35 2.012890625 -4.0341796875 0.85 -4.4
L 0.85 -4.4 Z"/>

<path fill="#9EDBF8" stroke="none" d="
M 6.85 5.45
Q 4.996875 2.69765625 3.15 0.8 -4.6494140625 -5.201171875 -18.8 -1.8 -32.348046875 1.869921875 -35.5 15.95
L -35.9 15.2
Q -41.54375 35.5021484375 -19.7 43.4
L -19.7 43.45
Q -19.6541015625 43.8923828125 -19.65 44.3
L 13.95 44.3
Q 14.6548828125 37.772265625 14 30.65 13.480078125 24.059375 11.95 18.6 10.773828125 14.0306640625 9.85 11.55 8.5537109375 7.9505859375 6.85 5.45 Z"/>
</g>

<g id="RD_HindLeg_3_4_top_3_Layer0_0_FILL">
<path fill="#6DABDD" stroke="none" d="
M 8.7 79.1
L 8.7 79.1
Q -3.7240234375 82.317578125 -15.9 55.05 -20.4896484375 46.2076171875 -20.85 37.15 -20.8546875 36.330078125 -20.85 35.45
L -20.85 35.4
Q -22.584375 41.745703125 -21.75 46.8 -20.8296875 51.911328125 -17.95 57.6
L -17.95 57.6
Q -11.971484375 69.1169921875 -6.05 75 -5.2890625 76.075390625 -4.35 77.05
L -4.35 77
Q -0.276953125 80.9404296875 5.2 80.6 7.4673828125 80.5080078125 8.7 79.1
M 14.45 15.7
L 10.9 14.4
Q 12.36328125 19.052734375 13 21.7 14.323046875 26.6453125 14.55 32.3 14.936328125 39.9142578125 12.65 49.15 10.4171875 58.4453125 9.3 62.55 8.17265625 66.672265625 9.1 73.05 9.75390625 77.3060546875 8.75 79.05 9.4486328125 78.3134765625 9.8 77.2 9.9109375 76.9609375 9.95 76.7 10.304296875 75.502734375 10.2 71.5 10.1513671875 67.5421875 11.45 63 12.7974609375 58.489453125 15.1 49.55 17.4509765625 40.6375 17.45 33.45 17.5064453125 26.2955078125 16.1 20.75 15.6138671875 18.894921875 14.45 15.7 Z"/>

<path fill="#9EDBF8" stroke="none" d="
M 12.65 49.15
Q 14.936328125 39.9142578125 14.55 32.3 14.323046875 26.6453125 13 21.7 12.36328125 19.052734375 10.9 14.4
L -8.9 17.15 -20.85 35.45
Q -20.8546875 36.330078125 -20.85 37.15 -20.4896484375 46.2076171875 -15.9 55.05 -3.7240234375 82.317578125 8.7 79.1
L 8.7 79.1 8.75 79.1
Q 8.764453125 79.1033203125 8.75 79.05 9.75390625 77.3060546875 9.1 73.05 8.17265625 66.672265625 9.3 62.55 10.4171875 58.4453125 12.65 49.15 Z"/>
</g>

<g id="RD_KneePatch_0_Layer0_0_FILL">
<path fill="#9EDBF8" stroke="none" d="
M 6.95 -3.8
Q 7.6271484375 -8.4921875 7.65 -8.75
L 7.65 -8.75
Q 7.6830078125 -8.7876953125 7.7 -8.85 7.850390625 -9.7474609375 7.85 -10.75 7.8390625 -15.39921875 4.4 -18.9 0.946484375 -22.4283203125 -3.85 -22.7 -8.6259765625 -22.9685546875 -12.1 -20.1 -15.376171875 -17.3716796875 -15.4 -13.55
L -15.4 -13.55
Q -15.40625 -10.530078125 -12.6 -4.2
L -12.4 -3.7
Q -12.324609375 -3.590625 -12.3 -3.5 -12.2001953125 -3.3171875 -12.15 -3.15 -12.0654296875 -3.0400390625 -12 -2.95
L -12 -2.9 -11.95 -2.8
Q -9.565234375 2.4005859375 -7.1 9.35 -7.0333984375 9.4712890625 -7.05 9.6 -4.2322265625 17.2533203125 -1.9 20.1
L -1.9 20.1
Q 0.112890625 22.6044921875 3.45 22.75 6.435546875 22.852734375 8.7 21.1
L 8.7 21.15
Q 19.876171875 11.2931640625 12.45 5.8 11.055859375 5.381640625 9.7 4.45 9.7404296875 4.5390625 9.75 4.6 8.476171875 3.9505859375 7.75 2.7 6.5830078125 1.1353515625 6.75 -1.95 6.7810546875 -2.8294921875 6.9 -3.8
L 6.95 -3.8 Z"/>
</g>

<g id="WingcycleBACK_4_Layer10_0_FILL">
<path fill="#9EDBF8" stroke="none" d="
M 42.85 9.75
Q 42.5236328125 9.63671875 42.2 9.45 40.05 8.15 39.05 7.75 38.970703125 7.717578125 38.9 7.65 36.438671875 6.7078125 32.6 6.1 31.773828125 5.9978515625 30.85 5.9 30.111328125 5.8009765625 29.3 5.7 24.56953125 5.25 18.2 5.25 17.4814453125 5.1314453125 16.35 5.15 15.21171875 5.1697265625 14.45 5.05 13.744140625 4.9341796875 13 4.75 12.2505859375 4.605859375 11.95 4.55 10.778515625 4.313671875 9.55 3.9 8.951953125 3.72578125 8.35 3.5 5.98671875 2.640625 4.95 1.8 2.1548828125 2.0318359375 0.35 3.45 -0.6837890625 4.28828125 -1.15 5.3 -1.730859375 5.3828125 -2.2 5.8 -2.230078125 7.9451171875 -1.9 11.8 -1.8138671875 12.8423828125 -1.7 13.95 -1.3884765625 17.2142578125 -0.9 21.4 0.5576171875 33.127734375 7.55 52.45 14.5404296875 71.8255859375 25 72.4 26.444140625 72.4787109375 27.75 72.3 32.053125 71.8111328125 35.3 68.8 35.6869140625 68.49609375 36.05 68.15 36.2123046875 67.978515625 36.35 67.8 29.7087890625 65.981640625 25.95 61.8 20.9556640625 56.2828125 21.75 55.4 22.1966796875 56.24609375 26.4 59.8 30.601171875 63.3546875 36.8 65.9 39.332421875 67.0724609375 42 67.8
L 42.65 67.95
Q 45.2015625 67.9873046875 47.6 67.8 47.8884765625 67.685546875 48.15 67.55 48.708984375 67.624609375 49.15 67.65 61.5515625 66.2416015625 69.8 58.5 74 54.5625 76.4 49.6 78.4 45.384765625 78.4 42.05 78.4 40.584765625 76.4 39.7 75.25 39.1873046875 74.1 39.05 71.8630859375 38.8548828125 68.85 39.4 68.68984375 39.4611328125 68.5 39.5
L 60.3 43.8
Q 58.6947265625 44.7240234375 57 45.35 47.385546875 49.13515625 34.8 44.5 43.5625 44.4875 52.3 44.45 57.2193359375 43.0837890625 61.25 40.8 62.881640625 39.8927734375 64.35 38.8 65.1087890625 38.3021484375 65.8 37.75 67.5810546875 36.3296875 68.8 35.1 70.1361328125 33.73671875 70.8 32.6 70.974609375 32.27890625 71.1 31.95 71.52265625 31.1068359375 71.45 30.35 71.3001953125 27.656640625 70.4 26.2 69.15 24.178515625 66.8 23.95 63.89453125 23.66015625 56.6 25.3 49.2984375 26.94140625 44.9 27.15 40.5109375 27.416015625 36.45 25.4 32.437109375 23.4365234375 30.35 21.45 37.7318359375 21.8740234375 40.8 19.55 44.3 16.7701171875 44.3 13.65 44.29765625 11.9701171875 42.95 9.9 42.9015625 9.85078125 42.85 9.75
M 55.75 42.2
L 52.25 44.35 52.2 44.35 52.2 44.3
Q 54.0560546875 43.1755859375 55.75 42.2 Z"/>

<path fill="#6DABDD" stroke="none" d="
M 52.25 44.35
L 55.75 42.2
Q 54.0560546875 43.1755859375 52.2 44.3
L 52.2 44.35 52.25 44.35
M 73.4 24.55
Q 71.63359375 21.5892578125 67.95 21.1 64.2677734375 20.605859375 54.75 23.1 49.2943359375 24.58359375 44.45 24.45 40.9330078125 24.378125 37.75 23.45 39.1552734375 23.1892578125 40.35 22.9 44.9310546875 21.7310546875 46.4 19.95 49.5 16.32578125 49.5 11.65 49.203125 10.0513671875 46 7.85 44.1060546875 6.5865234375 41.65 5.8 39.1994140625 5.0029296875 37.95 4.65 36.748046875 4.3537109375 35.1 4.1 30.846484375 3.3 27.2 3.3 21.15 3.3 15.8 3 12.8 3 4.65 1.2
L 4.35 1.2
Q 4.5486328125 1.5123046875 4.95 1.8 5.98671875 2.640625 8.35 3.5 8.951953125 3.72578125 9.55 3.9 10.778515625 4.313671875 11.95 4.55 12.2505859375 4.605859375 13 4.75 13.744140625 4.9341796875 14.45 5.05 15.21171875 5.1697265625 16.35 5.15 17.4814453125 5.1314453125 18.2 5.25 24.56953125 5.25 29.3 5.7 30.111328125 5.8009765625 30.85 5.9 31.773828125 5.9978515625 32.6 6.1 36.438671875 6.7078125 38.9 7.65 38.970703125 7.717578125 39.05 7.75 40.05 8.15 42.2 9.45 42.5236328125 9.63671875 42.85 9.75 42.9015625 9.85078125 42.95 9.9 44.29765625 11.9701171875 44.3 13.65 44.3 16.7701171875 40.8 19.55 37.7318359375 21.8740234375 30.35 21.45 32.437109375 23.4365234375 36.45 25.4 40.5109375 27.416015625 44.9 27.15 49.2984375 26.94140625 56.6 25.3 63.89453125 23.66015625 66.8 23.95 69.15 24.178515625 70.4 26.2 71.3001953125 27.656640625 71.45 30.35 71.52265625 31.1068359375 71.1 31.95 70.974609375 32.27890625 70.8 32.6 70.1361328125 33.73671875 68.8 35.1 67.5810546875 36.3296875 65.8 37.75 65.1087890625 38.3021484375 64.35 38.8 62.881640625 39.8927734375 61.25 40.8 57.2193359375 43.0837890625 52.3 44.45 43.5625 44.4875 34.8 44.5 47.385546875 49.13515625 57 45.35 58.6947265625 44.7240234375 60.3 43.8
L 68.5 39.5
Q 68.68984375 39.4611328125 68.85 39.4 71.8630859375 38.8548828125 74.1 39.05 75.25 39.1873046875 76.4 39.7 78.4 40.584765625 78.4 42.05 78.4 45.384765625 76.4 49.6 74 54.5625 69.8 58.5 61.5515625 66.2416015625 49.15 67.65 48.3904296875 67.7380859375 47.6 67.8 45.2015625 67.9873046875 42.65 67.95
L 42 67.8
Q 39.332421875 67.0724609375 36.8 65.9 30.601171875 63.3546875 26.4 59.8 22.1966796875 56.24609375 21.75 55.4 20.9556640625 56.2828125 25.95 61.8 29.7087890625 65.981640625 36.35 67.8 36.2123046875 67.978515625 36.05 68.15 35.6869140625 68.49609375 35.3 68.8 32.053125 71.8111328125 27.75 72.3 26.444140625 72.4787109375 25 72.4 14.5404296875 71.8255859375 7.55 52.45 0.5576171875 33.127734375 -0.9 21.4 -1.3884765625 17.2142578125 -1.7 13.95 -1.8138671875 12.8423828125 -1.9 11.8 -2.230078125 7.9451171875 -2.2 5.8 -2.2033203125 5.663671875 -2.2 5.5
L -2.45 5.6
Q -2.940625 6.733203125 -3.1 8.1 -3.2498046875 9.4681640625 -3.3 10.1 -3.3048828125 10.7345703125 -3.3 12.2 -2.50859375 28.5044921875 4.4 51.3 11.315625 74.1046875 22.35 74.85 33.4279296875 75.6408203125 39.3 69.7 41.2640625 70.668359375 51.75 70.1 62.23046875 69.58828125 70.1 62.85 77.965625 56.1087890625 79.5 51.35 81.094921875 46.5931640625 81.1 44.25 81.85 42.3177734375 80.95 40.55 79.290625 37.4169921875 72.2 36.5 75 33.56796875 75 30.15 75.20546875 27.564453125 73.4 24.55 Z"/>
</g>

<g id="RD_FrontLeg_3_4_hoof_11_Layer0_0_FILL">
<path fill="#6DABDD" stroke="none" d="
M 17 -14.7
L 17 -14.75
Q 13.2947265625 -22.103515625 5.85 -24.55 -1.5326171875 -26.9390625 -8.25 -22.9
L -8.3 -22.9
Q -14.2681640625 -19.2318359375 -16.65 -12.25 -16.7095703125 -12.1240234375 -16.75 -12 -18.8623046875 -5.1681640625 -20.1 3.15 -20.090234375 3.22890625 -20.1 3.3 -20.9037109375 14.259375 -8.95 21.8 -8.87421875 21.828125 -8.8 21.85 -2.87265625 24.74140625 3.8 22.85
L 3.85 22.8
Q 18.45859375 17.8275390625 19.55 4.35
L 19.55 4.45
Q 20.3158203125 -0.8623046875 19.1 -7.5 18.6923828125 -11.2048828125 17 -14.7
M 14.6 -13.25
L 14.6 -13.3
Q 15.707421875 -11.0302734375 16.15 -8.7 16.17109375 -8.456640625 16.2 -8.25 16.312109375 -7.805078125 16.4 -7.4 16.6583984375 -5.9748046875 16.8 -4.65 17.44453125 0.0908203125 16.9 4 16.8861328125 4.065625 16.85 4.1 15.7603515625 15.616796875 3.05 19.95
L 3.1 19.9
Q -2.6326171875 21.560546875 -7.75 19.1
L -7.6 19.15
Q -17.842578125 12.691796875 -17.4 3.45 -16.7109375 -1.0279296875 -15.8 -5.1 -15.2990234375 -7.1427734375 -14.75 -9.1
L -14.65 -9.45
Q -14.5974609375 -9.6119140625 -14.55 -9.8 -14.376953125 -10.4140625 -14.2 -11.05 -14.1177734375 -11.2125 -14.1 -11.4
L -14.05 -11.4
Q -11.9736328125 -17.192578125 -6.95 -20.25
L -7 -20.25
Q -1.2203125 -23.706640625 5.1 -21.65 11.4658203125 -19.561328125 14.6 -13.25 Z"/>

<path fill="#9EDBF8" stroke="none" d="
M 14.6 -13.3
L 14.6 -13.25
Q 11.4658203125 -19.561328125 5.1 -21.65 -1.2203125 -23.706640625 -7 -20.25
L -6.95 -20.25
Q -11.9736328125 -17.192578125 -14.05 -11.4
L -14.1 -11.4
Q -14.1177734375 -11.2125 -14.2 -11.05 -14.376953125 -10.4140625 -14.55 -9.8 -14.5974609375 -9.6119140625 -14.65 -9.45
L -14.75 -9.1
Q -15.2990234375 -7.1427734375 -15.8 -5.1 -16.7109375 -1.0279296875 -17.4 3.45 -17.842578125 12.691796875 -7.6 19.15
L -7.75 19.1
Q -2.6326171875 21.560546875 3.1 19.9
L 3.05 19.95
Q 15.7603515625 15.616796875 16.85 4.1 16.8861328125 4.065625 16.9 4 17.44453125 0.0908203125 16.8 -4.65 16.6583984375 -5.9748046875 16.4 -7.4 16.312109375 -7.805078125 16.2 -8.25 16.17109375 -8.456640625 16.15 -8.7 15.707421875 -11.0302734375 14.6 -13.3 Z"/>
</g>

<g id="RD_FrontLeg_3_4_upper_20_Layer1_0_FILL">
<path fill="#9EDBF8" stroke="none" d="
M 5.5 -1.05
L -5.95 -1.05
Q -23.45 30.8 -32.7 58.35
L 11.65 62.95
Q 12.4 41.65 5.5 -1.05 Z"/>
</g>

<g id="RD_HoofWrinkle_2_Layer0_0_FILL">
<path fill="#6DABDD" stroke="none" d="
M -6.15 0.85
Q -6.28046875 0.943359375 -6.4 1.05
L -6.05 1
Q 0.4029296875 -1.28125 5.95 0.8
L 6.4 0.9
Q 6.229296875 0.7560546875 6.05 0.6 3.57890625 -1.2400390625 -0.2 -1.1 -3.897265625 -1.0052734375 -6.15 0.85 Z"/>
</g>

<g id="RD_Torso_0_Layer1_0_FILL">
<path fill="#6DABDD" stroke="none" d="
M 23.2 -25.3
L 23.15 -25.3
Q 13.6134765625 -36.3685546875 0.1 -36.35 -13.413671875 -36.3685546875 -23 -25.3
L -23 -25.3
Q -33.85 -12.65 -33.5 1.85 -33 18.5 -26.15 26.5 -21.66640625 31.7732421875 -13.9 34.5 -7.2111328125 36.9048828125 0.1 36.9 17.13203125 36.8990234375 25.65 26.85 28.45 23.6 30.65 17.8 33.45 10.3 33.7 1.85 34.05 -12.65 23.2 -25.3
M 0.1 -33.35
Q 12.2779296875 -33.331640625 20.9 -23.35
L 20.9 -23.35 20.9 -23.35
Q 30.45 -12.15 30.7 1.85 30.95 16.1 23.35 24.9 15.568359375 33.90078125 0.1 33.9 -6.6890625 33.8951171875 -12.9 31.65 -19.83359375 29.2265625 -23.85 24.55 -30.2 17 -30.5 1.15 -30.7 -11.65 -20.7 -23.35
L -20.75 -23.35 -20.7 -23.35
Q -12.069921875 -33.331640625 0.1 -33.35 Z"/>

<path fill="#F4B6D1" stroke="none" d="
M -20.7 -23.35
L -20.7 -23.35 -20.75 -23.35 -20.7 -23.35
M 20.9 -23.35
L 20.9 -23.35 20.9 -23.35 20.9 -23.35 Z"/>

<path fill="#9EDBF8" stroke="none" d="
M 20.9 -23.35
Q 12.2779296875 -33.331640625 0.1 -33.35 -12.069921875 -33.331640625 -20.7 -23.35
L -20.7 -23.35
Q -30.7 -11.65 -30.5 1.15 -30.2 17 -23.85 24.55 -19.83359375 29.2265625 -12.9 31.65 -6.6890625 33.8951171875 0.1 33.9 15.568359375 33.90078125 23.35 24.9 30.95 16.1 30.7 1.85 30.45 -12.15 20.9 -23.35
L 20.9 -23.35 Z"/>
</g>

<g id="RD_Prun_Mane_cycle_7_Layer0_0_FILL">
<path fill="#1D9AD6" stroke="none" d="
M 79.55 -37.95
Q 76.8 -38.85 73.55 -39.65 67.9 -41.1 62.4 -42 59.65 -42.4 56.9 -42.75 54.2 -43.1 51.55 -43.3 50.55 -43.35 49.75 -43.45 48.9 -43.5 47.95 -43.55 47.05 -43.6 45.8 -43.65 43.1 -43.75 40.55 -43.75 27.35 -43.6 15.45 -42.6 3.6 -41.55 -7.6 -40.05 -18.8 -38.5 -30 -36.8
L -13.8 52.9
Q -4.1 48.3 5.65 43.9 15.45 39.5 24.9 35.6 34.35 31.75 43.05 28.8 44.8 28.05 46.85 27.45 48.85 26.85 51 26.4 53.1 25.9 55.1 25.5 57.2 25.1 59.1 24.8 60.95 24.5 62.95 24.4 64.95 24.25 67.4 24.4 70.95 24.55 74.8 25 76 25.15 77.6 25.4 79.25 25.7 80.95 25.95 82.65 26.25 84.25 26.4 87.4 26.8 90.85 27 94.3 27.15 97.5 27.15 100.75 27.15 103.25 26.9 99.7 25.7 95.6 24.15 91.55 22.6 87.4 20.7 83.35 18.8 79.75 16.65 74.95 13.7 70.3 11.2 65.65 8.7 60.95 6.9 65.7 5.95 70.95 5.9 76.15 5.9 81.6 6.2 87 6.5 92.4 6.45 97.75 6.25 102.95 5.55 108.2 4.8 113.65 4.05 119.15 3.3 125.35 3.15 124.6 2.75 123.95 2.35 123.3 1.95 122.45 1.5 121.45 1.1 120.8 0.85 120.2 0.6 119.75 0.35 119.3 0.15 118.7 -0.1 115.7 -1.55 112.8 -2.9 110.9 -3.85 108.9 -4.75 106.9 -5.65 105.05 -6.6 103.2 -7.5 101.85 -8.35 99.55 -9.75 97.45 -11.25 95.3 -12.7 93.2 -14.4 91.9 -15.5 90.05 -16.75 88.15 -18.1 86.05 -19.5 83.95 -20.85 81.95 -22.15 85.1 -22.15 88.3 -22.1 91.45 -22 94.15 -22.1 96.8 -22.2 98.5 -22.75 101.55 -23.4 104.3 -24.45 105.25 -24.75 106.1 -25.15 106.95 -25.5 108.05 -25.85 109.15 -26.15 110.65 -26.4 110.1 -26.55 109.75 -26.6 109.3 -26.75 108.4 -26.95
L 107.25 -27.25
Q 106.05 -27.55 104.9 -27.95 102.65 -28.7 100.3 -29.65 99.55 -30 97.9 -30.7 96.3 -31.45 94.1 -32.4 91.9 -33.35 89.45 -34.3 87.05 -35.3 84.75 -36.15 82.25 -37.05 79.55 -37.95 Z"/>
</g>

<g id="RD_Prun_Mane_cycle_7_Layer0_1_FILL">
<path fill="#672E8A" stroke="none" d="
M 81 26
Q 82.7 26.3 84.3 26.45 87.45 26.85 90.9 27.05 94.35 27.2 97.55 27.2 100.8 27.15 103.25 26.9 99.7 25.7 95.6 24.15 91.55 22.6 87.45 20.75 83.35 18.85 79.8 16.7 75 13.75 70.35 11.25 65.7 8.7 60.95 6.9 64.55 6.15 68.3 5.85 72 5.55 76 5.55 68.15 3.35 60.3 2.85 52.45 2.35 44.6 3.1 36.7 3.9 28.75 5.6 16.8 8 4.9 11.15 -7 14.25 -18.9 17.8
L -13.75 52.95
Q -4.1 48.3 5.7 43.9 15.45 39.5 24.95 35.65 34.4 31.8 43.05 28.8 44.85 28.05 46.9 27.45 48.9 26.85 51.05 26.4 53.15 25.9 55.15 25.5 57.2 25.15 59.15 24.8 61 24.55 63 24.4 65 24.25 67.45 24.45 71 24.6 74.85 25.05 76.05 25.15 77.65 25.45 79.25 25.75 81 26 Z"/>
</g>

<g id="RD_Prun_Mane_cycle_7_Layer0_2_FILL">
<path fill="#62BC4E" stroke="none" d="
M 14.7 -16.6
Q 24.8 -18.4 35.3 -19.65 43.3 -20.6 51.95 -20.45 60.6 -20.3 69.3 -18.75 75.35 -17.55 80.75 -15.85 86.15 -14.15 90.7 -12.6 95.2 -11.1 98.65 -10.35 95.1 -12.8 91.75 -15.55 87.2 -18.85 81.95 -22.15 85.1 -22.15 88.3 -22.1 91.45 -22 94.15 -22.1 96.8 -22.2 98.5 -22.75 101.55 -23.4 104.3 -24.45 105.25 -24.75 106.1 -25.15 106.95 -25.5 108.05 -25.85 109.15 -26.15 110.65 -26.4 110.1 -26.55 109.75 -26.6 109.3 -26.75 108.4 -26.95
L 107.25 -27.25
Q 106.05 -27.55 104.9 -27.95 102.65 -28.7 100.3 -29.65 99.55 -30 97.9 -30.7 96.3 -31.45 94.1 -32.4 91.9 -33.35 89.45 -34.3 87.05 -35.3 84.75 -36.15 82.25 -37.05 79.55 -37.95 76.8 -38.85 73.55 -39.65 67.9 -41.1 62.4 -42 59.65 -42.4 56.9 -42.75 54.2 -43.1 51.55 -43.3 50.55 -43.35 49.75 -43.45 48.9 -43.5 47.95 -43.55 47.05 -43.6 45.8 -43.65 43.1 -43.75 40.55 -43.75 27.35 -43.6 15.45 -42.6 3.6 -41.55 -7.6 -40.05 -18.8 -38.5 -30 -36.8
L -24.75 -7.95
Q -15 -10.3 -5.2 -12.55 4.6 -14.75 14.7 -16.6 Z"/>
</g>

<g id="RD_Prun_Mane_cycle_7_Layer0_3_FILL">
<path fill="#1D9AD6" stroke="none" d="
M 34.15 -46.75
Q 26.85 -46.35 19.25 -45.6 11.65 -44.8 4.3 -43.8 -3 -42.8 -9.4 -41.8 -15.8 -40.75 -20.75 -39.9 -25.65 -39 -28.45 -38.5 -31.25 -37.95 -31.3 -37.95 -22.55 7.65 -13.8 53.25 -13.75 53.25 -11.85 52.4 -9.95 51.6 -6.55 50.2 -3.15 48.8 1.4 46.95 5.9 45.15 11.1 43.1 16.3 41.1 21.8 39 26.3 37.35 30.85 35.75 35.4 34.2 39.4 32.9 43.35 31.6 46.25 30.7 49.6 29.8 52.4 29.25 55.2 28.7 57.3 28.35 59.35 28 60.4 27.75 64.1 26.95 70.9 27.05 77.7 27.2 87.25 27.9 93.3 27.9 97.5 27.45 101.7 27 103.95 26.6 106.15 26.15 106.25 26.2 106.2 26.15 104.15 25.4 102.15 24.6 98.4 23.15 94.65 21.65 89.65 19.45 84.6 17 80.05 14.45 75.5 11.9 71.35 9.95 67.25 7.95 63.55 7.1 67.3 7.05 72.2 7.35 77.1 7.65 82.6 8.2 88.35 8.8 94 8.55 99.65 8.3 104.8 7.4 108.4 6.9 111.55 6.4 114.7 5.85 117.6 5.45 120.5 5 123.35 4.95 126.85 4.65 128.8 4.5 130.75 4.35 130.75 4.3
L 129.3 3.45
Q 127.85 2.6 125.3 1.05 121.8 -0.8 118.15 -2.5 114.45 -4.15 110.45 -6.05 106.05 -7.8 102.7 -9.75 99.35 -11.65 96.35 -13.7 93.35 -15.7 90.15 -17.75 86.95 -19.75 82.9 -21.7 84.5 -21.5 86.6 -21.25 88.7 -20.95 90.85 -20.75 93 -20.55 94.8 -20.55 97.25 -20.7 99.6 -21.15 102 -21.6 104.1 -22.2 104.85 -22.4 105.45 -22.65 106.1 -22.85 106.75 -23.15 107.4 -23.35 108.3 -23.5 111 -24 113.05 -24.4 115.1 -24.8 116.25 -25.05
L 117.4 -25.3 115.55 -25.85
Q 113.75 -26.4 110.6 -27.3 108.8 -27.8 107.65 -28.2 106.5 -28.65 105.45 -29.15 103.15 -30.1 100.55 -31.5 99.85 -31.9 99.25 -32.25 98.65 -32.6 97.7 -33.1
L 92.45 -35.65
Q 87 -38.25 80.85 -40.5 73.8 -42.9 68.35 -44.1 62.95 -45.3 59.05 -45.8 54.2 -46.75 47.85 -46.95 41.45 -47.15 34.15 -46.75
M 14.1 -40.9
Q 25.05 -41.85 37 -42.2 39.95 -42.25 43.3 -42.15 46.65 -42.1 50.15 -41.85 53.6 -41.6 56.9 -41.15 61.95 -40.6 67.05 -39.55 72.15 -38.55 77.8 -36.85 82.9 -35.25 87.3 -33.55 91.7 -31.8 95.65 -30.05 97.7 -29.1 99.25 -28.45 100.8 -27.8 102.15 -27.25 103.55 -26.75 105.1 -26.25 102.65 -25.3 99.95 -24.6 97.3 -23.9 94.05 -23.6 89.8 -23.75 85.35 -23.75 80.9 -23.8 76.2 -23.65 83.05 -19.9 88.65 -15.9 90.65 -14.5 92.1 -13.4 93.55 -12.25 94.85 -11.25 96.15 -10.25 97.75 -9.15 100.4 -7.3 103.9 -5.5 107.4 -3.7 111.35 -1.9 115.25 -0.1 119.15 1.75 114.9 2.25 110.8 2.85 106.7 3.4 102.55 3.95 98.75 4.6 94.75 4.8 90.75 5 86.65 4.85 81.05 4.4 75.65 4.3 70.2 4.25 65 4.75 59.85 5.2 54.9 6.5 58.25 7.45 61.25 8.65 64.3 9.85 67.2 11.3 70.15 12.8 73.2 14.55 75.95 16.25 79.45 18.2 82.9 20.2 86.85 22.15 90.75 24.05 94.85 25.55 90.3 25.45 85.75 24.95 81.15 24.45 76.7 23.65 73.1 23.2 69.65 22.95 66.25 22.7 63.25 22.8 59.7 23.1 55.8 23.75 51.95 24.45 48 25.5 44.05 26.6 40.45 28.05 32.05 31 23.2 34.6 14.35 38.25 5.3 42.35 -3.8 46.4 -12.85 50.7
L -28.3 -35.5
Q -17.9 -37.1 -7.4 -38.5 3.05 -39.9 14.1 -40.9 Z"/>
</g>

<g id="RD_Neck_0_Layer0_0_FILL">
<path fill="#F4B6D1" stroke="none" d="
M -8.5 -95
L -9.05 -95.1 -9.05 -95.05 -8.5 -95
M 17.15 -95.1
L 17.65 -95.1 17.65 -95.15 17.15 -95.1 Z"/>

<path fill="#9EDBF8" stroke="none" d="
M 17.1 -93.6
L 17.15 -95.1 17.65 -95.15
Q 17.35 -105.8 4.4 -107.35 -8.35 -106.95 -9.05 -95.1
L -8.5 -95 -8.6 -93.5
Q -9 -84.8 -14.05 -36.5 -15 -27.3 -15.7 -19.6
L -15.8 -18.7 -15.8 -18.65 -15.85 -18.1
Q -16.3 -13.5 -18.2 -8 -18.39453125 -5.665625 -1.15 -0.05 24.5900390625 -5.5109375 24.5 -7.4 22.65 -12.8 22.35 -17.25
L 22.35 -17.4 22.25 -18.75
Q 21.65 -26.9 20.8 -36.7 16.9 -82.4 17.1 -93.6 Z"/>

<path fill="#6DABDD" stroke="none" d="
M 4.65 -109.35
Q 4.55 -109.35 4.5 -109.35 -10.35 -108.95 -11.05 -95.15
L -11.5 -95.15 -11.6 -93.65
Q -12 -85 -17.05 -36.8 -18 -27.6 -18.7 -19.85
L -18.85 -18.4
Q -18.85 -18.35 -18.85 -18.25 -19.3 -13.65 -18.2 -8 -16.3 -13.5 -15.85 -18.1
L -15.8 -18.65 -15.8 -18.7 -15.7 -19.6
Q -15 -27.3 -14.05 -36.5 -9 -84.8 -8.6 -93.5
L -8.5 -95 -9.05 -95.05 -9.05 -95.1
Q -8.35 -106.95 4.4 -107.35 17.35 -105.8 17.65 -95.15
L 17.65 -95.1 17.15 -95.1 17.1 -93.6
Q 16.9 -82.4 20.8 -36.7 21.65 -26.9 22.25 -18.75
L 22.35 -17.4 22.35 -17.25
Q 22.65 -12.8 24.5 -7.4 25.65 -12.95 25.35 -17.35 25.35 -17.4 25.35 -17.45
L 25.25 -18.95
Q 24.65 -27.1 23.8 -36.95 19.9 -82.4 20.1 -93.55
L 20.15 -95.05 19.65 -95.05
Q 19.55 -107.6 4.65 -109.35 Z"/>
</g>

<g id="Wingcycle_4_Layer9_0_FILL">
<path fill="#9EDBF8" stroke="none" d="
M 37.65 10.9
Q 37.65 8.3 33.3 6.75 32.6294921875 6.5052734375 31.9 6.3 30.703125 5.7958984375 29.05 5.3 23.45 3.6 19.7 3.6 16.85 3.6 3 6.05 1.977734375 6.05 1.2 6.3 0.265625 5.3 -0.9 5.3 -2.1 5.3 -2.85 6.65 -3.45 7.7 -2.2 8.55 -0.15 20 2.25 20 3.5 20 4.25 18.75 4.85 17.8 4.85 16.95 4.78125 16.4919921875 4.7 16.05 5.975390625 16.95 6.9 16.95 9.313671875 16.95 9.45 13.8 9.56953125 13.7826171875 9.7 13.75 14.1 12.6 16.9 12.6 17.65 12.6 24.75 12.15 28.15 12.15 31.25 13.25 34.35 14.3 35 14.3 36.25 14.3 37.05 12.95 37.65 11.9 37.65 10.9 Z"/>
</g>

<g id="Wingcycle_4_Layer8_0_FILL">
<path fill="#9EDBF8" stroke="none" d="
M 42.85 9.75
Q 42.5236328125 9.63671875 42.2 9.45 40.05 8.15 39.05 7.75 38.970703125 7.717578125 38.9 7.65 36.438671875 6.7078125 32.6 6.1 31.0890625 5.8955078125 29.3 5.7 25.742578125 6.112109375 20.85 6.75 19.9197265625 6.90078125 19.05 7 19.0138671875 6.05625 16.9 5.05 15.5291015625 4.85 15 4.85 13.821875 4.85 12.55 4.65 11.1017578125 4.416015625 9.55 3.9 8.951953125 3.72578125 8.35 3.5 5.98671875 2.640625 4.95 1.8 2.153515625 2.0341796875 0.2 3.55 -1.751171875 5.0611328125 -1.5 6.6 -2.17890625 6.5830078125 -2.1 9.3 -2.01484375 10.4740234375 -1.9 11.8 -1.5693359375 15.730859375 -0.9 21.4 0.5576171875 33.127734375 7.55 52.45 14.5404296875 71.8255859375 25 72.4 26.444140625 72.4787109375 27.75 72.3 31.5984375 71.279296875 35.3 68.8 38.541796875 65.9021484375 40.8 60.6 46.083203125 48.2640625 45.55 44.4 45.016796875 40.5333984375 42.85 37.85 40.74453125 35.2138671875 39.4 35.05 37.3 34.8705078125 29.9 42.1 21.8 50.0205078125 19.7 50.85 18.500390625 51.653515625 23.85 45.1 29.1986328125 38.54765625 38.6 32.3 44.94921875 32.92109375 46.95 38.05 49.001953125 43.22109375 48.9 45.15 48.7978515625 47.0810546875 47.35 53 45.9005859375 58.9720703125 43.3 63.55 43.11015625 63.9056640625 42.9 64.2 42.15234375 65.5091796875 41.35 66.65 40.9197265625 67.28828125 40.45 67.85 44.183984375 68.066796875 47.6 67.8 47.8884765625 67.685546875 48.15 67.55 48.708984375 67.624609375 49.15 67.65 61.5515625 66.2416015625 69.8 58.5 74 54.5625 76.4 49.6 78.4 45.384765625 78.4 42.05 78.4 40.584765625 76.4 39.7 75.25 39.1873046875 74.1 39.05 71.723046875 38.841015625 68.5 39.5
L 60.3 43.8
Q 53.384765625 46.178515625 52.8 45
L 52.3 44.45
Q 57.2193359375 43.0837890625 61.25 40.8 62.881640625 39.8927734375 64.35 38.8 65.1087890625 38.3021484375 65.8 37.75 67.5810546875 36.3296875 68.8 35.1 70.1361328125 33.73671875 70.8 32.6 70.974609375 32.27890625 71.1 31.95 71.52265625 31.1068359375 71.45 30.35 71.3001953125 27.656640625 70.4 26.2 69.15 24.178515625 66.8 23.95 63.89453125 23.66015625 56.6 25.3 49.2984375 26.94140625 44.9 27.15 40.5109375 27.416015625 36.45 25.4 32.437109375 23.4365234375 30.35 21.45 37.7318359375 21.8740234375 40.8 19.55 44.3 16.7701171875 44.3 13.65 44.29765625 11.9701171875 42.95 9.9 42.9015625 9.85078125 42.85 9.75
M 52.25 44.35
L 52.2 44.35 52.2 44.3 52.25 44.3 52.25 44.35
M 13.75 6.65
Q 14.959765625 6.9845703125 16.3 7.35 6.6064453125 8.6923828125 6.4 8.65 3.778515625 8.419140625 2 8
L 6.45 6.75
Q 12.330078125 7.7677734375 13.75 6.65 Z"/>

<path fill="#6DABDD" stroke="none" d="
M 52.2 44.35
L 52.25 44.35 52.25 44.3 52.2 44.3 52.2 44.35
M 73.4 24.55
Q 71.63359375 21.5892578125 67.95 21.1 64.2677734375 20.605859375 54.75 23.1 49.2943359375 24.58359375 44.45 24.45 40.9330078125 24.378125 37.75 23.45 39.1552734375 23.1892578125 40.35 22.9 44.9310546875 21.7310546875 46.4 19.95 49.5 16.32578125 49.3 12.2 49.203125 10.0513671875 46 7.85 44.2759765625 6.6974609375 39.65 5.2
L 39.4 5.1 39.25 5.1
Q 30.748046875 3.3048828125 26 3.3 21.147265625 3.300390625 15.8 3 12.8 3 4.65 1.2
L 4.35 1.2
Q 4.3966796875 1.2732421875 4.45 1.35 4.6427734375 1.5857421875 4.95 1.8 5.98671875 2.640625 8.35 3.5 8.951953125 3.72578125 9.55 3.9 11.1017578125 4.416015625 12.55 4.65 13.821875 4.85 15 4.85 15.5291015625 4.85 16.9 5.05 17.4783203125 5.1322265625 18.2 5.25 24.56953125 5.25 29.3 5.7 31.0890625 5.8955078125 32.6 6.1 36.438671875 6.7078125 38.9 7.65 38.970703125 7.717578125 39.05 7.75 40.05 8.15 42.2 9.45 42.5236328125 9.63671875 42.85 9.75 42.9015625 9.85078125 42.95 9.9 44.29765625 11.9701171875 44.3 13.65 44.3 16.7701171875 40.8 19.55 37.7318359375 21.8740234375 30.35 21.45 32.437109375 23.4365234375 36.45 25.4 40.5109375 27.416015625 44.9 27.15 49.2984375 26.94140625 56.6 25.3 63.89453125 23.66015625 66.8 23.95 69.15 24.178515625 70.4 26.2 71.3001953125 27.656640625 71.45 30.35 71.52265625 31.1068359375 71.1 31.95 70.974609375 32.27890625 70.8 32.6 70.1361328125 33.73671875 68.8 35.1 67.5810546875 36.3296875 65.8 37.75 65.1087890625 38.3021484375 64.35 38.8 62.881640625 39.8927734375 61.25 40.8 57.2193359375 43.0837890625 52.3 44.45
L 52.8 45
Q 53.384765625 46.178515625 60.3 43.8
L 68.5 39.5
Q 71.723046875 38.841015625 74.1 39.05 75.25 39.1873046875 76.4 39.7 78.4 40.584765625 78.4 42.05 78.4 45.384765625 76.4 49.6 74 54.5625 69.8 58.5 61.5515625 66.2416015625 49.15 67.65 48.3904296875 67.7380859375 47.6 67.8 44.183984375 68.066796875 40.45 67.85 40.9197265625 67.28828125 41.35 66.65 42.15234375 65.5091796875 42.9 64.2 43.11015625 63.9056640625 43.3 63.55 45.9005859375 58.9720703125 47.35 53 48.7978515625 47.0810546875 48.9 45.15 49.001953125 43.22109375 46.95 38.05 44.94921875 32.92109375 38.6 32.3 29.1986328125 38.54765625 23.85 45.1 18.500390625 51.653515625 19.7 50.85 21.8 50.0205078125 29.9 42.1 37.3 34.8705078125 39.4 35.05 40.74453125 35.2138671875 42.85 37.85 45.016796875 40.5333984375 45.55 44.4 46.083203125 48.2640625 40.8 60.6 38.541796875 65.9021484375 35.3 68.8 32.053125 71.8111328125 27.75 72.3 26.444140625 72.4787109375 25 72.4 14.5404296875 71.8255859375 7.55 52.45 0.5576171875 33.127734375 -0.9 21.4 -1.5693359375 15.730859375 -1.9 11.8 -2.01484375 10.4740234375 -2.1 9.3 -2.235546875 6.9765625 -2.85 5.5
L -2.9 5.45
Q -3.25625 6.65703125 -3.3 12.2 -2.50859375 28.5044921875 4.4 51.3 11.315625 74.1046875 22.35 74.85 33.4279296875 75.6408203125 39.3 69.7 41.2640625 70.668359375 51.75 70.1 62.23046875 69.58828125 70.1 62.85 77.965625 56.1087890625 79.5 51.35 81.094921875 46.5931640625 81.1 44.25 81.85 42.3177734375 80.95 40.55 79.290625 37.4169921875 72.2 36.5 75 33.56796875 75 30.15 75.20546875 27.564453125 73.4 24.55 Z"/>
</g>

<g id="RD_Skull_2_Layer0_0_FILL">
<path fill="#6DABDD" stroke="none" d="
M 6.5 -52
Q 3.8232421875 -52.20390625 0.9 -52.25 -3.4978515625 -52.3205078125 -7.7 -51.65 -12.3541015625 -50.8947265625 -16.75 -49.2 -18.8431640625 -48.379296875 -20.75 -47.4 -26.1625 -44.578125 -30.1 -40.4 -30.1439453125 -40.3251953125 -30.25 -40.25 -30.637890625 -39.783203125 -31.05 -39.3 -31.219921875 -39.1001953125 -31.4 -38.9 -31.4419921875 -38.85 -31.5 -38.8 -32.3697265625 -37.730078125 -33.2 -36.65 -46.1 -20.0744140625 -46.1 -1.1 -46.1 11.3 -43.4 20.4 -40.6 29.75 -34.65 36.5 -27.65 44.55 -18.5 48.75 -9.25 53.05 1.5 53.05 22.65 53.05 37 36.5 42.8 29.9 45.45 20.1 47.85 11.1 47.9 -1.7 47.8548828125 -21.3345703125 36.05 -36.65 35.2205078125 -37.7357421875 34.3 -38.8 34.2921875 -38.8501953125 34.25 -38.9 33.8369140625 -39.4025390625 33.4 -39.9 33.247265625 -40.076171875 33.1 -40.25 33.019921875 -40.3251953125 32.95 -40.4 29.2015625 -44.5505859375 24.15 -47.25 20.981640625 -48.9029296875 17.3 -50 13.7369140625 -51.0845703125 9.45 -51.65 8.0302734375 -51.842578125 6.5 -52
M 30.35 -38.8
Q 30.7716796875 -38.38359375 31.15 -37.95 31.7154296875 -37.3041015625 32.25 -36.65 44.8521484375 -21.4498046875 44.9 -1.7 44.85 10.45 42.6 18.95 40.15 28.25 34.75 34.55 21.25 50.05 1.5 50.05 -8.55 50.05 -17.25 46.05 -25.8 42.1 -32.4 34.55 -38 28.1 -40.6 19.25 -43.1 10.65 -43.1 -1.1 -43.1 -20.5748046875 -29.4 -36.65 -29.10546875 -37.00078125 -28.8 -37.35 -28.15 -38.0984375 -27.5 -38.8 -27.4234375 -38.8501953125 -27.4 -38.9 -26.6900390625 -39.5982421875 -26 -40.25 -25.883984375 -40.325390625 -25.8 -40.4 -23.431640625 -42.5267578125 -20.75 -44.15 -17.675390625 -45.96484375 -14.2 -47.15 -7.25 -49.55 0.9 -49.25 10.95 -48.85 16.65 -47.2 20.4560546875 -46.0625 23.7 -44.15 26.42265625 -42.547265625 28.75 -40.4 28.8318359375 -40.325390625 28.9 -40.25 29.6146484375 -39.5994140625 30.25 -38.9 30.3234375 -38.85 30.35 -38.8 Z"/>

<path fill="#9EDBF8" stroke="none" d="
M 31.15 -37.95
Q 30.7716796875 -38.38359375 30.35 -38.8 30.3234375 -38.85 30.25 -38.9 29.6146484375 -39.5994140625 28.9 -40.25 28.8318359375 -40.325390625 28.75 -40.4 26.42265625 -42.547265625 23.7 -44.15 20.4560546875 -46.0625 16.65 -47.2 10.95 -48.85 0.9 -49.25 -7.25 -49.55 -14.2 -47.15 -17.675390625 -45.96484375 -20.75 -44.15 -23.431640625 -42.5267578125 -25.8 -40.4 -25.883984375 -40.325390625 -26 -40.25 -26.6900390625 -39.5982421875 -27.4 -38.9 -27.4234375 -38.8501953125 -27.5 -38.8 -28.15 -38.0984375 -28.8 -37.35 -29.10546875 -37.00078125 -29.4 -36.65 -43.1 -20.5748046875 -43.1 -1.1 -43.1 10.65 -40.6 19.25 -38 28.1 -32.4 34.55 -25.8 42.1 -17.25 46.05 -8.55 50.05 1.5 50.05 21.25 50.05 34.75 34.55 40.15 28.25 42.6 18.95 44.85 10.45 44.9 -1.7 44.8521484375 -21.4498046875 32.25 -36.65 31.7154296875 -37.3041015625 31.15 -37.95 Z"/>
</g>

<g id="RD_Mouth_front_chin__offcenter_0_Layer1_0_FILL">
<path fill="#9EDBF8" stroke="none" d="
M 37 3
Q 35.4482421875 1.9125 32.5 3.5 11.965625 12.7740234375 -7.2 2.65 -15.0669921875 10.61171875 -30.45 4.2 -34.428515625 2.26328125 -35.1 3.05 -26.379296875 13.5955078125 -14.6 17.85 3.9671875 24.438671875 20.35 16.8 31.5595703125 11.51484375 37 3 Z"/>
</g>

<g id="RD_Hair_07_9_Layer0_0_FILL">
<path fill="#FDF6AE" stroke="none" d="
M 8.55 -0.95
Q 6.398046875 -3.252734375 4 -5.7 1.6525390625 -8.1046875 -7.5 -14.6 -5.7623046875 -3.8810546875 -4.15 6 -0.330078125 1.0494140625 6.3 1.75 10.7513671875 1.3603515625 8.55 -0.95 Z"/>

<path fill="#1E98D5" stroke="none" d="
M 4 -5.7
Q 6.398046875 -3.252734375 8.55 -0.95 10.7513671875 1.3603515625 6.3 1.75 -0.330078125 1.0494140625 -4.15 6 -5.039453125 10.891015625 -3.65 9.65 -0.7775390625 5.3033203125 8.1 3.55 16.9814453125 1.8451171875 3.45 -9.7
L -5.35 -16.3
Q -9.184765625 -17.27734375 -7.5 -14.6 1.6525390625 -8.1046875 4 -5.7 Z"/>
</g>

<g id="RD_Ear_1_Layer1_0_FILL">
<path fill="#9EDBF8" stroke="none" d="
M 2.45 -35.95
Q 0.95 -33.9 0 -30.55 -0.8 -27.75 -2.05 -18.8
L -3.15 -10.35
Q -3.116796875 -10.236328125 -3.1 -10.15 2.44375 8.682421875 9.05 22.35 14.6 19.45 17.75 9.75 20.45 1.45 20.2 -4.95
L 20.2 -5
Q 19.9 -11.55 18.15 -17.5 16.5 -23.1 13.2 -29.1 8.85 -37.1 4.4 -37.75 3.55 -37.55 2.45 -35.95
M 9.35 -27.8
Q 14.55 -18.3 14.7 -10.15 14.8462890625 -2.0525390625 9.8 6.35 9.6794921875 6.5888671875 9.55 6.8
L 9.7 6.35
Q 15.65 -8.15 9.35 -27.8 Z"/>

<path fill="#6DABDD" stroke="none" d="
M 14.7 -10.15
Q 14.55 -18.3 9.35 -27.8 15.65 -8.15 9.7 6.35
L 9.55 6.8
Q 9.6794921875 6.5888671875 9.8 6.35 14.8462890625 -2.0525390625 14.7 -10.15
M 15.85 -30.55
Q 13 -35.75 9.45 -38.55 6.65 -40.8 4.65 -40.75
L 4.6 -40.75
Q 2.85 -41.05 0.95 -38.85 -1.1 -36.45 -2.85 -31.55 -4.3 -27.4 -4.65 -20.95 -5.0384765625 -13.7126953125 -3.3 -10.3
L -3.3 -10.3
Q -3.24765625 -10.1875 -3.2 -10.1
L -3.15 -10.35 -2.05 -18.8
Q -0.8 -27.75 0 -30.55 0.95 -33.9 2.45 -35.95 3.55 -37.55 4.4 -37.75 8.85 -37.1 13.2 -29.1 16.5 -23.1 18.15 -17.5 19.9 -11.55 20.2 -5
L 20.2 -4.95
Q 20.45 1.45 17.75 9.75 14.6 19.45 9.05 22.35
L 9.65 22.5
Q 15.5001953125 20.8228515625 19.5 11.75 23.5525390625 2.6892578125 23.2 -5.1 22.9 -12 21.05 -18.25 19.3 -24.2 15.85 -30.55 Z"/>
</g>

<g id="Mask_Mask_RD2_Eyewhite_3_4_1_Layer1_0_FILL">
<path fill="#FFFFFF" stroke="none" d="
M 19.8 -17.45
Q 18.8931640625 -19.258984375 17.7 -20.7
L 17.7 -20.65
Q 13.5314453125 -24.9595703125 7.3 -25.2 2.1509765625 -25.3900390625 -3.35 -22.8
L -3.35 -22.85
Q -5.1125 -21.846875 -6.85 -20.55 -8.8 -18.75 -10.55 -16.85 -12.1 -15.2 -13.4 -13.35 -14.85 -11.3 -16.1 -9.2 -17.35 -7 -18.45 -4.7 -19 -3.6 -19.55 -2.4 -20.067578125 -0.894921875 -20.5 0.65 -23.4314453125 11.3853515625 -19.45 19.15 -15.521484375 26.9826171875 -7.05 27.3 -6.3294921875 27.3373046875 -5.65 27.3 2.151171875 27.0375 9.6 20.25 16.1873046875 14.3169921875 19.35 6.15 20.1560546875 4.2439453125 20.75 2.2 22.1896484375 -3.109765625 21.95 -7.7 21.83984375 -13.462890625 19.8 -17.45 Z"/>
</g>

<g id="RD2_Eyewhite_3_4_1_Layer1_0_FILL">
<path fill="#FFFFFF" stroke="none" d="
M 19.8 -17.45
Q 18.8931640625 -19.258984375 17.7 -20.7
L 17.7 -20.65
Q 13.5314453125 -24.9595703125 7.3 -25.2 2.1509765625 -25.3900390625 -3.35 -22.8
L -3.35 -22.85
Q -5.1125 -21.846875 -6.85 -20.55 -8.8 -18.75 -10.55 -16.85 -12.1 -15.2 -13.4 -13.35 -14.85 -11.3 -16.1 -9.2 -17.35 -7 -18.45 -4.7 -19 -3.6 -19.55 -2.4 -20.067578125 -0.894921875 -20.5 0.65 -23.4314453125 11.3853515625 -19.45 19.15 -15.521484375 26.9826171875 -7.05 27.3 -6.3294921875 27.3373046875 -5.65 27.3 2.151171875 27.0375 9.6 20.25 16.1873046875 14.3169921875 19.35 6.15 20.1560546875 4.2439453125 20.75 2.2 22.1896484375 -3.109765625 21.95 -7.7 21.83984375 -13.462890625 19.8 -17.45 Z"/>
</g>

<g id="RD2_Iris_0_Layer2_0_FILL">
<path fill="url(#Gradient_1)" stroke="none" d="
M 17.7 -13.05
Q 13.45 -21.1 5.25 -22.95 -3 -24.85 -10.3 -19.4 -17.6 -14 -19.75 -4.45 -21.95 5.05 -17.7 13.1 -13.45 21.15 -5.2 23 3 24.85 10.3 19.45 17.6 14 19.8 4.5 21.95 -5 17.7 -13.05 Z"/>
</g>

<g id="RD2_Iris_0_Layer1_0_FILL">
<path fill="#FFB8E0" stroke="none" d="
M -6.5 7.8
Q -17.7408203125 11.0453125 -18.7 11 -17.71953125 13.7845703125 -15.6 16.55
L 0.15 6.6 -6.5 7.8 Z"/>
</g>

<g id="RD2_Iris_0_Layer0_0_FILL">
<path fill="#DB53A2" stroke="none" d="
M -20.2 5.15
Q -19.7849609375 8.212109375 -18.65 11.05
L 0.45 6.45 -20.2 5.15 Z"/>
</g>

<g id="RD2_Pupil_0_Layer0_0_FILL">
<path fill="#000000" stroke="none" d="
M 12.45 -9.6
Q 10.5203125 -15.9396484375 5.5 -17.45 0.487109375 -18.9677734375 -4.7 -14.75 -9.854296875 -10.4658203125 -12.15 -2.95 -14.402734375 4.56015625 -12.5 10.9 -10.484375 17.37421875 -5.45 18.9 -0.4265625 20.40234375 4.7 16.1 9.91484375 11.9001953125 12.15 4.4 14.43828125 -3.12578125 12.45 -9.6 Z"/>
</g>

<g id="RD2_Hilights_0_Layer1_0_FILL">
<path fill="#FFFFFF" stroke="none" d="
M -8.15 11.5
Q -8.11953125 11.614453125 -8.1 11.7 -8.0240234375 11.8134765625 -7.95 11.95 -7.7912109375 12.381640625 -7.55 12.75 -7.4705078125 12.844140625 -7.4 12.9 -7.2078125 13.113671875 -6.95 13.3 -6.50546875 13.6888671875 -6.05 13.8 -5.996875 13.8515625 -5.95 13.85 -5.6171875 13.9560546875 -5.2 13.95 -3.9484375 13.97890625 -3.4 12.75 -3.3849609375 12.698046875 -3.4 12.65 -3.1736328125 12.1291015625 -3.25 11.35 -3.259765625 11.128515625 -3.35 10.85 -3.3462890625 10.7740234375 -3.4 10.7 -3.7330078125 9.7962890625 -4.4 9.15 -4.435546875 9.108203125 -4.5 9.05 -4.72890625 8.870703125 -4.9 8.75 -5.579296875 8.305859375 -6.3 8.4 -7.123828125 8.352734375 -7.65 8.9 -7.813671875 9.0921875 -8 9.35 -8.0568359375 9.446484375 -8.1 9.55 -8.510546875 10.357421875 -8.15 11.5
M 3.85 -8.7
L 3.8 -8.75
Q 1.3921875 -11.8771484375 -1.15 -11.7 -4.233984375 -11.8736328125 -5.6 -8.2
L -5.6 -8.15
Q -6.528125 -5.45625 -5.75 -1.6 -5.0052734375 2.07265625 -3.05 4.6
L -3.05 4.6
Q -0.6041015625 7.82109375 2 7.65 5.12890625 7.837890625 6.4 4 7.375390625 1.40078125 6.6 -2.4
L 6.6 -2.45
Q 5.8041015625 -6.1376953125 3.85 -8.7 Z"/>
</g>

<g id="RD2_Iris_2_Layer2_0_FILL">
<path fill="url(#Gradient_1)" stroke="none" d="
M 17.7 -13.05
Q 13.45 -21.1 5.25 -22.95 -3 -24.85 -10.3 -19.4 -17.6 -14 -19.75 -4.45 -21.95 5.05 -17.7 13.1 -13.45 21.15 -5.2 23 3 24.85 10.3 19.45 17.6 14 19.8 4.5 21.95 -5 17.7 -13.05 Z"/>
</g>

<g id="RD2_Iris_2_Layer1_0_FILL">
<path fill="#FFB8E0" stroke="none" d="
M 13.45 16.85
Q 16.0119140625 13.9716796875 17.35 11.1 16.4345703125 11.1580078125 5.55 8.1
L -0.15 6.5 13.45 16.85 Z"/>
</g>

<g id="RD2_Iris_2_Layer0_0_FILL">
<path fill="#DB53A2" stroke="none" d="
M 17.35 11.4
Q 18.9265625 8.2283203125 19.75 5.1 9.7240234375 5.888671875 -0.25 6.5
L 17.35 11.4 Z"/>
</g>

<g id="RD2_Blink_front_0_Layer2_0_FILL">
<path fill="#000000" stroke="none" d="
M 21.9 -5.65
L 23.1 -7.3
Q 23.1501953125 -11.0392578125 22.05 -14.9 21.50234375 -16.8623046875 18.45 -20.35 15.1640625 -24.176953125 10.6 -25 1.2861328125 -26.751171875 -7.55 -20.4 -11.2509765625 -17.658984375 -14.3 -13.75 -17.4216796875 -9.651953125 -19.9 -2.9 -20.3908203125 -1.584375 -20.65 -0.25 -21.45 3.05 -21.55 5.3 -22.05 12.45 -21.05 15.3 -20.5654296875 16.36484375 -20.6 16.05 -21.7583984375 11.3294921875 -18.4 -0.35
L -17.55 -3
Q -15.6931640625 -8.214453125 -12.6 -12.2 -9.701171875 -15.798828125 -7.15 -17.95 8.8515625 -29.4330078125 18.45 -16.6 21.2458984375 -12.47421875 21.9 -5.65 Z"/>
</g>

<g id="RD2_Blink_front_0_Layer1_0_FILL">
<path fill="#000000" stroke="none" d="
M 34.5 -5.75
Q 34.45 -6.95 22.25 -8.95
L 22.65 -6.8
Q 34.55 -4.55 34.5 -5.75 Z"/>
</g>

<g id="RD2_Blink_front_0_Layer1_1_FILL">
<path fill="#000000" stroke="none" d="
M 21 -16.15
L 21.9 -14.05
Q 36.65 -16.1 36.25 -17.25 36.05 -17.8 29.15 -17.1 21.9 -16.25 21 -16.15 Z"/>
</g>

<g id="RD2_Blink_front_0_Layer1_2_FILL">
<path fill="#000000" stroke="none" d="
M 18.2 -19.05
Q 28 -25.85 26.8 -26.7 26 -27.15 16.95 -21.2
L 18.2 -19.05 Z"/>
</g>

<g id="RD2_Blink_front_100_Layer2_0_FILL">
<path fill="#000000" stroke="none" d="
M 21.9 -5.65
L 23.1 -7.3
Q 23.1501953125 -11.0392578125 22.05 -14.9 21.50234375 -16.8623046875 18.45 -20.35 15.1640625 -24.176953125 10.6 -25 1.2861328125 -26.751171875 -7.55 -20.4 -11.2509765625 -17.658984375 -14.3 -13.75 -17.4216796875 -9.651953125 -19.9 -2.9 -20.3908203125 -1.584375 -20.65 -0.25 -21.203125 2.1416015625 -21.4 5.3 -21.922265625 12.8583984375 -21.05 15.3 -20.5654296875 16.36484375 -20.6 16.05 -21.7583984375 11.3294921875 -18.4 -0.35
L -17.55 -3
Q -15.6931640625 -8.214453125 -12.6 -12.2 -9.701171875 -15.798828125 -7.15 -17.95 8.8515625 -29.4330078125 18.45 -16.6 21.2458984375 -12.47421875 21.9 -5.65 Z"/>
</g>

<g id="RD_Brow_front_1_Layer2_0_FILL">
<path fill="#9EDBF8" stroke="none" d="
M 3.1 -1.5
Q 8.665625 -11.21171875 2.1 -17.25 1.5234375 -21.40078125 -9.4 -25.45 -20.3255859375 -29.4990234375 -34.15 -13.7 -40.514453125 0.240625 -34.85 -1.55 -21.6294921875 -0.3052734375 -6.05 -1.7 -6.0109375 -1.5755859375 -6 -1.5
L 3.1 -1.5 Z"/>
</g>

<g id="RD_Lashes_02_6_Layer0_0_FILL">
<path fill="#000000" stroke="none" d="
M -0.05 5.95
L -0.3 8
Q 8.85 9.6 9.15 8.4 9.35 7.3 -0.05 5.95 Z"/>
</g>

<g id="RD_Lashes_02_6_Layer0_1_FILL">
<path fill="#000000" stroke="none" d="
M 0.25 1.75
L 0.15 3.95
Q 11.25 3.35 11.4 2.2 11.45 1.6 6.35 1.65 0.9 1.75 0.25 1.75 Z"/>
</g>

<g id="RD_Lashes_02_6_Layer0_2_FILL">
<path fill="#000000" stroke="none" d="
M 10.65 -2.75
Q 10.562890625 -3.4384765625 0.55 -2.3 -5.8814453125 -1.6576171875 -0.3 -0.1 10.7623046875 -1.566796875 10.65 -2.75 Z"/>
</g>

<g id="RD_Brow_front_1_Layer0_0_FILL">
<path fill="#000000" stroke="none" d="
M -1.1 -2
Q -3 -1.9 -15.25 -1.75 -27.6 -1.6 -30.8 -2.15 -33.65 -3.3 -33.95 -7.2
L -34 -7.2
Q -34.8 -5.2 -34.3 -2.85 -33.85 -0.55 -32.25 -0.25 -30.45 0.05 -16.45 0.3 -1.9 0.5 1 0.1 1.05 0.05 1.15 0.05 4.85 -1.3 1.05 -2.1 0.8 -2.15 -1.1 -2 Z"/>
</g>

<g id="RD_Mouth_front_hole__0_Layer4_0_FILL">
<path fill="#6DABDD" stroke="none" d="
M 10.3 3.5
L 10.25 3.45 10.25 3.5
Q 9.644140625 7.4646484375 7.15 10.1 4.3 13.15 0.05 13.2 -4.35 13.1 -6.7 10.4 -9.45 7.1 -10.5 2.9
L -10.55 2.85 -10.5 3.35
Q -10.9 7.8 -7.75 11.55 -7.5890625 11.7296875 -7.45 11.9 -4.50859375 14.9052734375 -0.25 15 4.7 15.05 7.55 12.05 10.4 8.95 10.3 3.5 Z"/>
</g>

<g id="RD_Mouth_front_nostril__0_Layer2_0_FILL">
<path fill="#6DABDD" stroke="none" d="
M -7.35 3.35
Q -6.7 5.05 -3.5 4.15 -5.65 3.2 -6 2.3 -6.5 1.25 -6.2 -0.15 -8 1.9 -7.35 3.35
M 4.05 4
Q 6.9 4.85 7.7 3.2 8.4 1.6 6.75 -0.3 7 1.05 6.55 2.1 6.15 3.1 4.05 4 Z"/>
</g>

<g id="RD_Cheek_0_Layer1_0_FILL">
<path fill="#9EDBF8" stroke="none" d="
M -13.65 -3.75
Q -16.0267578125 -3.7431640625 -18.3 -3.7 -20.0263671875 -3.6904296875 -20.9 -3.8 -21.223046875 -3.733984375 -21.55 -3.7
L -20.55 -1.2
Q -20.5072265625 -1.092578125 -20.45 -1
L -18 5.3
Q -0.6107421875 15.3609375 11.3 8.45 14.9248046875 5.441796875 14.75 2.15 13.9091796875 2.18671875 12.85 2 11.7677734375 1.863671875 10.45 1.45 9.4078125 1.183203125 8.2 0.75 -4.2572265625 -4.6009765625 -13.65 -3.75 Z"/>

<path fill="#6DABDD" stroke="none" d="
M -18.3 -3.7
Q -16.0267578125 -3.7431640625 -13.65 -3.75 -4.2572265625 -4.6009765625 8.2 0.75 9.4078125 1.183203125 10.45 1.45 11.7677734375 1.863671875 12.85 2 13.9091796875 2.18671875 14.75 2.15 14.90078125 2.1408203125 15.05 2.1 14.90234375 2.0078125 14.75 1.9 14.6515625 1.8080078125 14.55 1.7 13.4794921875 0.9662109375 12.35 0.4 -2.715234375 -6.280859375 -14.1 -5.55 -17.2962890625 -5.154296875 -20.3 -4.9
L -20.35 -4.85
Q -22.91953125 -4.0283203125 -20.9 -3.8 -20.0263671875 -3.6904296875 -18.3 -3.7 Z"/>
</g>

<g id="RD_Cheek_0_Layer0_0_FILL">
<path fill="#6DABDD" stroke="none" d="
M -18 -1.55
L -17.9 -1.35
Q -17.54609375 -1.069921875 -16.4 -0.6
L -16.4 -0.6
Q -13.845703125 0.619140625 -10.8 1.65
L -7.85 2.15
Q -12.6994140625 -0.2359375 -14.55 -1.05 -17.6279296875 -1.697265625 -18 -1.55 Z"/>
</g>

<g id="RD_Wrinkle_0_Layer0_0_FILL">
<path fill="#6DABDD" stroke="none" d="
M 6.4 0.9
Q 6.229296875 0.7560546875 6.05 0.6 3.57890625 -1.2400390625 -0.2 -1.1 -3.897265625 -1.0052734375 -6.15 0.85 -6.28046875 0.943359375 -6.4 1.05
L -6.05 1
Q 0.6 0 5.95 0.8
L 6.4 0.9 Z"/>
</g>

<g id="RD_Hair_01_19_Layer3_0_FILL">
<path fill="#1E98D5" stroke="none" d="
M 16.85 -5.25
L 13.4 -4.25
Q 0.05 -0.65 -11.3 6.2 -12.45 6.95 -13.55 7.65 -33.95 20.75 -47.9 44.55 -48.75 36.35 -47.85 28.1 -43.6 4.45 -32.35 -14.5
L -30.05 -18.1 -30.15 -18.2
Q -43.1 -3.9 -48.55 17.15 -49.9 21.85 -50.55 26.6 -52.2 37.95 -50.3 49.45
L -49.7 53.65 -49.6 53.65 -47.5 49.9
Q -33.35 23.95 -11.95 10.2
L -11.9 10.15
Q 1.5 1.4 12.85 -2.05 14.15 -2.55 15.6 -2.95 21.3 -4.75 27 -6.1 21.95 -6.25 16.85 -5.25
M 35.75 -28.15
Q 36.9 -29.3 35 -31.9 33.3 -33.25 31.65 -34.45 28.95 -36.45 26.4 -38.05 24.1 -39.6 22 -40.8 19.95 -40.2 18.05 -39.6 18.6 -39.25 19.25 -38.95 19.5 -38.8 19.9 -38.6 20 -38.5 20.2 -38.4 22.7 -36.95 25.35 -35.3 28.4 -33.25 31.65 -30.9 33.3 -29.7 35.75 -28.15 Z"/>

<path fill="#F37033" stroke="none" d="
M 19.9 -38.6
Q 19.5 -38.8 19.25 -38.95 18.6 -39.25 18.05 -39.6 -6.9 -52.4 -29.45 -18.95
L -29.5 -18.9
Q -29.551171875 -18.823046875 -29.6 -18.75 -29.7640625 -18.523046875 -29.95 -18.3
L -30.05 -18.1 -32.35 -14.5
Q -43.6 4.45 -47.85 28.1 -48.75 36.35 -47.9 44.55 -33.95 20.75 -13.55 7.65 -12.45 6.95 -11.3 6.2 3.7 -20.85 19.9 -38.6 Z"/>

<path fill="#FDF6AE" stroke="none" d="
M 31.65 -30.9
Q 28.4 -33.25 25.35 -35.3 22.7 -36.95 20.2 -38.4 20 -38.5 19.9 -38.6 3.7 -20.85 -11.3 6.2 0.05 -0.65 13.4 -4.25
L 16.85 -5.25
Q 21.95 -6.25 27 -6.1 28.75 -6.5 30.55 -6.85 32.85 -7.35 35.05 -7.75 37 -11.45 35.7 -13.05
L 35.75 -28.15
Q 33.3 -29.7 31.65 -30.9 Z"/>
</g>

<g id="RD_Hair_01_19_Layer2_0_FILL">
<path fill="#1E98D5" stroke="none" d="
M -34 -5.1
Q -34 -5.1361328125 -33.95 -5.2
L -35.1 -4.5 -34 -5.1
M -48 -2.5
Q -47.35 -3.95 -46.55 -5.4 -40.55 -18.75 -29.55 -28.6 -28.95 -29.1 -28.35 -29.65 -20.6 -36.4 -15.05 -40.2 -12.45 -42.1 -10.3 -43.35
L -5.5 -46.1
Q -9.4 -45.2 -13.6 -42.95 -15.85 -41.75 -19.2 -39.65 -19.3 -39.6 -19.35 -39.6 -41.4 -24.8 -50.7 -4.95 -54.25 2.45 -57.3 21.5 -46.6 6.55 -43.15 3.1 -38.65 -1.15 -34.1 -5 -49.75 5.6 -53.3 10.9 -51.05 3.85 -48 -2.5
M 27.4 -34.7
Q 28.9 -35.05 30.5 -35.35 28.4 -36.75 26.45 -38.1 25.7 -38.6 25 -39.05 23.45 -40 22.05 -40.85 21.85 -40.9 21.75 -41.05
L 21.7 -41
Q 17.4 -43.45 13.25 -45.2
L 4 -45.2
Q 6.6 -44.5 9.35 -43.5 9.95 -43.3 10.55 -43.05 14.25 -41.6 18.1 -39.6 18.1 -39.55 18.15 -39.5
L 19.8 -38.7 19.85 -38.65 27.4 -34.7 Z"/>

<path fill="#F37033" stroke="none" d="
M 19.8 -38.7
L 18.15 -39.5
Q 18.1 -39.55 18.1 -39.6 14.25 -41.6 10.55 -43.05 9.95 -43.3 9.35 -43.5 -18.6 -28.15 -46.55 -5.4 -47.35 -3.95 -48 -2.5 -51.05 3.85 -53.3 10.9 -49.75 5.6 -34.1 -5 -34.05 -5.05 -34 -5.1
L -35.1 -4.5 -33.95 -5.2
Q -34 -5.1361328125 -34 -5.1
L -33.9 -5.2
Q -11.95 -23.85 19.8 -38.7 Z"/>

<path fill="#EE4144" stroke="none" d="
M 9.35 -43.5
Q 6.6 -44.5 4 -45.2 -3.55 -47.1 -5.5 -46.1
L -10.3 -43.35
Q -12.45 -42.1 -15.05 -40.2 -20.6 -36.4 -28.35 -29.65 -28.95 -29.1 -29.55 -28.6 -40.55 -18.75 -46.55 -5.4 -18.6 -28.15 9.35 -43.5 Z"/>
</g>

<g id="RD_Hair_01_19_Layer1_0_FILL">
<path fill="#EE4144" stroke="none" d="
M 3.6 -43.4
Q 8.75 -43.5 8.8 -43.5 3.25 -45.55 -2.25 -46.45 -3.7 -46.65 -5.15 -46.75 -12.9 -47.2 -21.1 -44.55 -30.05 -41.65 -35.9 -36.1 -21.75 -41.1 -10.7 -42.1 -1.6 -43.3 3.6 -43.4 Z"/>

<path fill="#1E98D5" stroke="none" d="
M 22 -40.85
Q 21.85 -40.95 21.7 -41.05 18.6 -42.8 15.65 -44.15 13.95 -44.95 12.35 -45.6 12 -45.75 11.65 -45.9 3.05 -49.25 -5.6 -49.8 -14.25 -50.35 -26.95 -44.6 -39.7 -38.9 -49.25 -27.65 -28.3 -37.55 -12.25 -41.7
L -10.7 -42.1
Q -21.75 -41.1 -35.9 -36.1 -30.05 -41.65 -21.1 -44.55 -12.9 -47.2 -5.15 -46.75 -3.7 -46.65 -2.25 -46.45 3.25 -45.55 8.8 -43.5 11.15 -42.65 13.55 -41.6 13.7 -41.5 13.9 -41.4 18.05 -41.2 21.95 -40.85
L 22 -40.85 Z"/>
</g>

<g id="RD_Hair_01_19_Layer0_0_FILL">
<path fill="#FDF6AE" stroke="none" d="
M 16.95 -5.35
L 15.15 -2.2
Q 11.15 5.05 1.65 12.75 17.3 9.65 30.4 -6.65 30.5 -6.75 30.6 -6.9 31.15 -7.6 31.7 -8.35 33.4 -10.6 35.65 -13.1 24.95 -11.4 16.65 -5.25
L 16.95 -5.35 Z"/>

<path fill="#1E98D5" stroke="none" d="
M 15.15 -2.2
L 16.95 -5.35 16.65 -5.25
Q 14.7 -3.8 12.9 -2.15 7.6 5.5 -3.4 13
L -6.95 15.45 -6.7 16 -2.5 15.75
Q 15.9 15.4 31.7 -3.55 33.45 -5.6 35.15 -7.85 37.1 -11.5 35.75 -13.15
L 35.65 -13.1
Q 33.4 -10.6 31.7 -8.35 31.15 -7.6 30.6 -6.9 30.5 -6.75 30.4 -6.65 17.3 9.65 1.65 12.75 11.15 5.05 15.15 -2.2 Z"/>
</g>

<g id="RD_FrontLeg_3_4_hoof_16_Layer0_0_FILL">
<path fill="#9EDBF8" stroke="none" d="
M 13.5 -14.1
Q 8.6158203125 -21.20703125 1.25 -21.55 -6.066015625 -21.8431640625 -11.7 -15.75 -17.3447265625 -9.60234375 -18.25 -1.05 -19.15 7.5 -14.5 13.9 -9.9 20.35 -2.5 20.85 4.95 21.35 10.8 15.7 16.6 10.1 17.5 1.55 18.39453125 -6.9978515625 13.5 -14.1 Z"/>
</g>

<g id="RD_FrontLeg_3_4_upper_21_Layer1_0_FILL">
<path fill="#9EDBF8" stroke="none" d="
M 19.9 41.4
Q 17.5806640625 23.57890625 3.65 -1.05
L -4.65 -1.05
Q -20.1865234375 21.3873046875 -20.15 41.4
L 19.9 41.4 Z"/>
</g>

<path id="RD_FrontLeg_3_4_hoof_6_Layer0_0_1_STROKES" stroke="#6DABDD" stroke-width="3" stroke-linejoin="round" stroke-linecap="round" fill="none" d="
M -0.925 -17.175
Q 6.8671875 -17.5837890625 12.3 -12.325 17.7197265625 -7.051171875 17.4 1.275 17.0837890625 9.596484375 14.075 14.525 11.0783203125 19.4369140625 0.15 20.85 -10.7796875 22.268359375 -17.1 18.525 -23.42421875 14.7861328125 -21.875 7.425 -20.324609375 0.0544921875 -18.15 -3.975 -15.971875 -8.0099609375 -12.325 -12.4 -8.6921875 -16.7904296875 -0.925 -17.175 Z"/>

<path id="RD_HindLeg_3_4rear_lower_2_Layer1_0_1_STROKES" stroke="#6DABDD" stroke-width="3" stroke-linejoin="round" stroke-linecap="round" fill="none" d="
M -5.65 -3.6
Q 1.836328125 -8.4703125 11.5 -5.15 17.0154296875 -1.388671875 7.6 6.9 -5.18671875 19.70546875 -8.9 12.2 -13.0958984375 2.169140625 -5.65 -3.6 Z"/>

<path id="RD_HindLeg_3_4rear_lower_2_Layer0_0_1_STROKES" stroke="#6DABDD" stroke-width="3" stroke-linejoin="round" stroke-linecap="round" fill="none" d="
M -8.9 59.25
Q -15.7921875 31.9404296875 -10.2 3.35
M 13.4 -2.55
Q 15.0326171875 27.90546875 24.35 43.05"/>

<path id="RD_FrontLeg_3_4_upper_20_Layer1_0_1_STROKES" stroke="#6DABDD" stroke-width="3" stroke-linejoin="round" stroke-linecap="round" fill="none" d="
M -32.7 58.35
Q -23.45 30.8 -5.95 -1.05
M 11.65 62.95
Q 12.4 41.65 5.5 -1.05"/>

<path id="RD_Mouth_front_chin__offcenter_0_Layer1_0_1_STROKES" stroke="#6DABDD" stroke-width="3" stroke-linejoin="round" stroke-linecap="round" fill="none" d="
M 37 3
Q 31.5595703125 11.51484375 20.35 16.8 3.9671875 24.438671875 -14.6 17.85 -26.379296875 13.5955078125 -35.1 3.05"/>

<path id="RD_Hair_01_19_Layer3_0_1_STROKES" stroke="#C7C616" stroke-width="0.05" stroke-linejoin="round" stroke-linecap="round" fill="none" d="
M -30.15 -18.2
Q -30.05 -18.3 -30 -18.4 -29.8 -18.6 -29.55 -18.85 -29.5 -18.95 -29.45 -18.95
M -29.5 -18.9
L -29.55 -18.85
Q -29.5763671875 -18.797265625 -29.6 -18.75 -29.7640625 -18.523046875 -29.95 -18.3
L -30.05 -18.1"/>

<path id="RD_FrontLeg_3_4_hoof_16_Layer0_0_1_STROKES" stroke="#6DABDD" stroke-width="3" stroke-linejoin="round" stroke-linecap="round" fill="none" d="
M -11.7 -15.725
Q -17.3447265625 -9.60234375 -18.25 -1.05 -19.15 7.5 -14.5 13.9 -9.9 20.35 -2.5 20.85 4.95 21.35 10.8 15.7 16.6 10.1 17.5 1.55 18.39453125 -6.9978515625 13.5 -14.1 8.6158203125 -21.20703125 1.275 -21.525 -6.066015625 -21.8431640625 -11.7 -15.725 Z"/>

<path id="RD_FrontLeg_3_4_upper_21_Layer1_0_1_STROKES" stroke="#6DABDD" stroke-width="3" stroke-linejoin="round" stroke-linecap="round" fill="none" d="
M 19.9 41.4
Q 17.5806640625 23.57890625 3.65 -1.05
M -20.15 41.4
Q -20.1865234375 21.3873046875 -4.65 -1.05"/>
</defs>

<g transform="matrix( 1.555694580078125, 0.330963134765625, -0.330963134765625, 1.555694580078125, 347.75,219.9) ">
<g transform="matrix( 0.2110137939453125, 0, 0, 0.3922576904296875, -8.7,0.8) ">
<g transform="matrix( 0.9992828369140625, 0.013153076171875, -0.0619659423828125, 0.9998626708984375, 25.4,-3.4) ">
<g transform="matrix( 1, 0, 0, 1, 0,0) ">
<use xlink:href="#RD_Prun_Tail_6_Layer1_0_FILL"/>
</g>

<g transform="matrix( 1, 0, 0, 1, 0,0) ">
<use xlink:href="#RD_Prun_Tail_6_Layer1_1_FILL"/>
</g>

<g transform="matrix( 1, 0, 0, 1, 0,0) ">
<use xlink:href="#RD_Prun_Tail_6_Layer1_2_FILL"/>
</g>

<g transform="matrix( 1, 0, 0, 1, 0,0) ">
<use xlink:href="#RD_Prun_Tail_6_Layer1_3_FILL"/>
</g>

<g transform="matrix( 1, 0, 0, 1, 0,0) ">
<use xlink:href="#RD_Prun_Tail_6_Layer1_4_FILL"/>
</g>

<g transform="matrix( 1, 0, 0, 1, 0,0) ">
<use xlink:href="#RD_Prun_Tail_6_Layer1_5_FILL"/>
</g>

<g transform="matrix( 1, 0, 0, 1, 0,0) ">
<use xlink:href="#RD_Prun_Tail_6_Layer1_6_FILL"/>
</g>
</g>
</g>

<g transform="matrix( 0.4132843017578125, -0.5472412109375, 0.6434783935546875, 0.6175537109375, -44.4,13.35) ">
<g transform="matrix( 0.8339996337890625, -0.3087158203125, 0.5523681640625, 0.6643524169921875, 13.15,66.7) ">
<g transform="matrix( 1, 0, 0, 1, 0,0) ">
<use filter="url(#Filter_1)" xlink:href="#RD_FrontLeg_3_4_hoof_6_Layer0_0_FILL"/>

<use filter="url(#Filter_1)" xlink:href="#RD_FrontLeg_3_4_hoof_6_Layer0_0_1_STROKES"/>
</g>
</g>

<g transform="matrix( 0.7404632568359375, -0.3578338623046875, 0.0124969482421875, 0.6438751220703125, 12,46.45) ">
<g transform="matrix( 1, 0, 0, 1, 0,0) ">
<use filter="url(#Filter_1)" xlink:href="#RD_KneePatch_1_Layer0_0_FILL"/>
</g>
</g>

<g transform="matrix( 0.9890594482421875, 0.223388671875, -0.159027099609375, 0.6988067626953125, 14.45,31.6) ">
<g transform="matrix( 1, 0, 0, 1, 0,0) ">
<use filter="url(#Filter_1)" xlink:href="#RD_HindLeg_3_4rear_lower_2_Layer1_0_FILL"/>

<use filter="url(#Filter_1)" xlink:href="#RD_HindLeg_3_4rear_lower_2_Layer1_0_1_STROKES"/>
</g>

<g transform="matrix( 1, 0, 0, 1, 0,0) ">
<use filter="url(#Filter_1)" xlink:href="#RD_HindLeg_3_4rear_lower_2_Layer0_0_FILL"/>

<use filter="url(#Filter_1)" xlink:href="#RD_HindLeg_3_4rear_lower_2_Layer0_0_1_STROKES"/>
</g>
</g>

<g transform="matrix( 1.05706787109375, 0, -0.2399139404296875, 0.793365478515625, 17.7,-4.6) ">
<g transform="matrix( 1, 0, 0, 1, 0,0) ">
<use filter="url(#Filter_1)" xlink:href="#RD_HindLeg_3_4_top_3_Layer1_0_FILL"/>
</g>

<g transform="matrix( 1, 0, 0, 1, 0,0) ">
<use filter="url(#Filter_1)" xlink:href="#RD_HindLeg_3_4_top_3_Layer0_0_FILL"/>
</g>
</g>

<g transform="matrix( 0.832244873046875, -0.314788818359375, -0.1527099609375, 0.5664520263671875, 8.95,45.8) ">
<g transform="matrix( 1, 0, 0, 1, 0,0) ">
<use filter="url(#Filter_1)" xlink:href="#RD_KneePatch_0_Layer0_0_FILL"/>
</g>
</g>
</g>

<g transform="matrix( 0.4132843017578125, -0.5472412109375, 0.6434783935546875, 0.6175537109375, -9.65,9.45) ">
<g transform="matrix( 0.8339996337890625, -0.3087158203125, 0.5523681640625, 0.6643524169921875, 13.15,66.7) ">
<g transform="matrix( 1, 0, 0, 1, 0,0) ">
<use xlink:href="#RD_FrontLeg_3_4_hoof_6_Layer0_0_FILL"/>

<use xlink:href="#RD_FrontLeg_3_4_hoof_6_Layer0_0_1_STROKES"/>
</g>
</g>

<g transform="matrix( 0.7404632568359375, -0.3578338623046875, 0.0124969482421875, 0.6438751220703125, 12,46.45) ">
<g transform="matrix( 1, 0, 0, 1, 0,0) ">
<use xlink:href="#RD_KneePatch_1_Layer0_0_FILL"/>
</g>
</g>

<g transform="matrix( 0.9890594482421875, 0.223388671875, -0.159027099609375, 0.6988067626953125, 14.45,31.6) ">
<g transform="matrix( 1, 0, 0, 1, 0,0) ">
<use xlink:href="#RD_HindLeg_3_4rear_lower_2_Layer1_0_FILL"/>

<use xlink:href="#RD_HindLeg_3_4rear_lower_2_Layer1_0_1_STROKES"/>
</g>

<g transform="matrix( 1, 0, 0, 1, 0,0) ">
<use xlink:href="#RD_HindLeg_3_4rear_lower_2_Layer0_0_FILL"/>

<use xlink:href="#RD_HindLeg_3_4rear_lower_2_Layer0_0_1_STROKES"/>
</g>
</g>

<g transform="matrix( 1.05706787109375, 0, -0.2399139404296875, 0.793365478515625, 17.7,-4.6) ">
<g transform="matrix( 1, 0, 0, 1, 0,0) ">
<use xlink:href="#RD_HindLeg_3_4_top_3_Layer1_0_FILL"/>
</g>

<g transform="matrix( 1, 0, 0, 1, 0,0) ">
<use xlink:href="#RD_HindLeg_3_4_top_3_Layer0_0_FILL"/>
</g>
</g>

<g transform="matrix( 0.832244873046875, -0.314788818359375, -0.1527099609375, 0.5664520263671875, 8.95,45.8) ">
<g transform="matrix( 1, 0, 0, 1, 0,0) ">
<use xlink:href="#RD_KneePatch_0_Layer0_0_FILL"/>
</g>
</g>
</g>

<g transform="matrix( -0.9999847412109375, 0, 0, 0.9999847412109375, -53.35,11.25) ">
<g transform="matrix( 1, 0, 0, 1, 0,0) ">
<use filter="url(#Filter_2)" xlink:href="#WingcycleBACK_4_Layer10_0_FILL"/>
</g>
</g>

<g transform="matrix( 0.6026611328125, 0.7979888916015625, -0.7890167236328125, 0.5959014892578125, -37.9,40.3) ">
<g transform="matrix( 1.243988037109375, 0.0895233154296875, -0.0872650146484375, 1.056610107421875, -9.4,63.65) ">
<g transform="matrix( 1, 0, 0, 1, 0,0) ">
<use xlink:href="#RD_FrontLeg_3_4_hoof_11_Layer0_0_FILL"/>
</g>
</g>

<g transform="matrix( 0.99993896484375, -0.00445556640625, -0.0002593994140625, 0.999969482421875, 1.9,0.4) ">
<g transform="matrix( 1, 0, 0, 1, 0,0) ">
<use xlink:href="#RD_FrontLeg_3_4_upper_20_Layer1_0_FILL"/>

<use xlink:href="#RD_FrontLeg_3_4_upper_20_Layer1_0_1_STROKES"/>
</g>
</g>

<g transform="matrix( 2.197784423828125, 0.1581268310546875, -0.257781982421875, 3.119873046875, -10.05,65.3) ">
<g transform="matrix( 1, 0, 0, 1, 0,0) ">
<use xlink:href="#RD_HoofWrinkle_2_Layer0_0_FILL"/>
</g>
</g>
</g>

<g transform="matrix( 1, 0, 0, 1, -19.95,24.8) ">
<g transform="matrix( 1, 0, 0, 1, 0,0) ">
<use xlink:href="#RD_Torso_0_Layer1_0_FILL"/>
</g>
</g>

<g transform="matrix( 0.1369476318359375, 0.00579833984375, -0.0221405029296875, 0.5221099853515625, -12.8,19.05) ">
<g transform="matrix( 0.7606201171875, 0.1392974853515625, 0.310333251953125, 1.0655364990234375, -59.45,-45.2) ">
<g transform="matrix( 1, 0, 0, 1, 0,0) ">
<use xlink:href="#RD_Prun_Mane_cycle_7_Layer0_0_FILL"/>
</g>

<g transform="matrix( 1, 0, 0, 1, 0,0) ">
<use xlink:href="#RD_Prun_Mane_cycle_7_Layer0_1_FILL"/>
</g>

<g transform="matrix( 1, 0, 0, 1, 0,0) ">
<use xlink:href="#RD_Prun_Mane_cycle_7_Layer0_2_FILL"/>
</g>

<g transform="matrix( 1, 0, 0, 1, 0,0) ">
<use xlink:href="#RD_Prun_Mane_cycle_7_Layer0_3_FILL"/>
</g>
</g>
</g>

<g transform="matrix( 0.9025726318359375, -0.670166015625, 0.353546142578125, 0.6069183349609375, -24.25,20.75) ">
<g transform="matrix( 1, 0, 0, 1, 0,0) ">
<use xlink:href="#RD_Neck_0_Layer0_0_FILL"/>
</g>
</g>

<g transform="matrix( 0.9999847412109375, 0, 0, 0.9999847412109375, 3.9,11.25) ">
<g transform="matrix( 1, 0, 0, 1, 0,0) ">
<use xlink:href="#Wingcycle_4_Layer9_0_FILL"/>
</g>

<g transform="matrix( 1, 0, 0, 1, 0,0) ">
<use xlink:href="#Wingcycle_4_Layer8_0_FILL"/>
</g>
</g>

<g transform="matrix( 1, 0, 0, 1, -53.85,10.05) ">
<g transform="matrix( 1, 0, 0, 1.001922607421875, -6.4,-5.3) ">
<g transform="matrix( 1, 0, 0, 1, 0,0) ">
<use xlink:href="#RD_Skull_2_Layer0_0_FILL"/>
</g>
</g>

<g transform="matrix( 0.9992218017578125, 0.01165771484375, -0.1327056884765625, 1.042236328125, -6,25.45) ">
<g transform="matrix( 1, 0, 0, 1, 0,0) ">
<use xlink:href="#RD_Mouth_front_chin__offcenter_0_Layer1_0_FILL"/>

<use xlink:href="#RD_Mouth_front_chin__offcenter_0_Layer1_0_1_STROKES"/>
</g>
</g>

<g transform="matrix( 0.972503662109375, 0, 0.15093994140625, 1.0177459716796875, 25.6,-48.8) ">
<g transform="matrix( 1, 0, 0, 1, 0,0) ">
<use xlink:href="#RD_Hair_07_9_Layer0_0_FILL"/>
</g>
</g>

<g transform="matrix( -0.8562469482421875, -0.0888671875, -0.10308837890625, 0.993377685546875, -39.25,-31.85) ">
<g transform="matrix( 1, 0, 0, 1, 0,0) ">
<use xlink:href="#RD_Ear_1_Layer1_0_FILL"/>
</g>
</g>

<g transform="matrix( 0.997467041015625, 0.063507080078125, -0.063507080078125, 0.997467041015625, 29.85,-28.65) ">
<g transform="matrix( 1, 0, 0, 1, 0,0) ">
<use xlink:href="#RD_Ear_1_Layer1_0_FILL"/>
</g>
</g>

<mask id="Mask_Mask_1">
<g transform="matrix( -0.6017608642578125, -0.1415863037109375, -0.1660003662109375, 1.02447509765625, -35.6,-1.15) ">
<g transform="matrix( 1, 0, 0, 1, 0,0) ">
<use xlink:href="#Mask_Mask_RD2_Eyewhite_3_4_1_Layer1_0_FILL"/>
</g>
</g>
</mask>

<g mask="url(#Mask_Mask_1)">
<g transform="matrix( -0.6017608642578125, -0.1415863037109375, -0.1660003662109375, 1.02447509765625, -35.6,-1.15) ">
<g transform="matrix( 1, 0, 0, 1, 0,0) ">
<use xlink:href="#RD2_Eyewhite_3_4_1_Layer1_0_FILL"/>
</g>
</g>
</g>

<g mask="url(#Mask_Mask_1)">
<g transform="matrix( 0.47186279296875, -0.0417938232421875, 0.13232421875, 0.74530029296875, -32.1,0.35) ">
<g transform="matrix( 1, 0, 0, 1, 0,0) ">
<use xlink:href="#RD2_Iris_0_Layer2_0_FILL"/>
</g>

<g transform="matrix( 1, 0, 0, 1, 0,0) ">
<use xlink:href="#RD2_Iris_0_Layer1_0_FILL"/>
</g>

<g transform="matrix( 1, 0, 0, 1, 0,0) ">
<use xlink:href="#RD2_Iris_0_Layer0_0_FILL"/>
</g>
</g>
</g>

<g mask="url(#Mask_Mask_1)">
<g transform="matrix( -0.476593017578125, 0.0044097900390625, 0.006805419921875, 0.6275482177734375, -30.85,-0.15) ">
<g transform="matrix( 1, 0, 0, 1, 0,0) ">
<use xlink:href="#RD2_Pupil_0_Layer0_0_FILL"/>
</g>
</g>
</g>

<g mask="url(#Mask_Mask_1)">
<g transform="matrix( 0.6511688232421875, -0.0670928955078125, 0.172882080078125, 0.6851348876953125, -29.85,-7.7) ">
<g transform="matrix( 1, 0, 0, 1, 0,0) ">
<use xlink:href="#RD2_Hilights_0_Layer1_0_FILL"/>
</g>
</g>
</g>

<mask id="Mask_Mask_2">
<g transform="matrix( 0.859771728515625, 0, 0.1278076171875, 1.0453338623046875, 17.2,0.35) ">
<g transform="matrix( 1, 0, 0, 1, 0,0) ">
<use xlink:href="#Mask_Mask_RD2_Eyewhite_3_4_1_Layer1_0_FILL"/>
</g>
</g>
</mask>

<g mask="url(#Mask_Mask_2)">
<g transform="matrix( 0.859771728515625, 0, 0.1278076171875, 1.0453338623046875, 17.2,0.35) ">
<g transform="matrix( 1, 0, 0, 1, 0,0) ">
<use xlink:href="#RD2_Eyewhite_3_4_1_Layer1_0_FILL"/>
</g>
</g>
</g>

<g mask="url(#Mask_Mask_2)">
<g transform="matrix( -0.5610198974609375, -0.0517425537109375, -0.0706787109375, 0.736236572265625, 26,-1.8) ">
<g transform="matrix( 1, 0, 0, 1, 0,0) ">
<use xlink:href="#RD2_Iris_2_Layer2_0_FILL"/>
</g>

<g transform="matrix( 1, 0, 0, 1, 0,0) ">
<use xlink:href="#RD2_Iris_2_Layer1_0_FILL"/>
</g>

<g transform="matrix( 1, 0, 0, 1, 0,0) ">
<use xlink:href="#RD2_Iris_2_Layer0_0_FILL"/>
</g>
</g>
</g>

<g mask="url(#Mask_Mask_2)">
<g transform="matrix( 0.53680419921875, 0.0115814208984375, 0.08184814453125, 0.643402099609375, 27.95,-1.55) ">
<g transform="matrix( 1, 0, 0, 1, 0,0) ">
<use xlink:href="#RD2_Pupil_0_Layer0_0_FILL"/>
</g>
</g>
</g>

<g mask="url(#Mask_Mask_2)">
<g transform="matrix( 0.6678314208984375, 0.2051849365234375, 0.0124053955078125, 0.67279052734375, 30.35,-7.4) ">
<g transform="matrix( 1, 0, 0, 1, 0,0) ">
<use xlink:href="#RD2_Hilights_0_Layer1_0_FILL"/>
</g>
</g>
</g>

<g transform="matrix( -0.6017608642578125, -0.1415863037109375, -0.1660003662109375, 1.02447509765625, -35.6,-1.15) ">
<g transform="matrix( 1, 0, 0, 1, 0,0) ">
<use xlink:href="#RD2_Blink_front_0_Layer2_0_FILL"/>
</g>

<g transform="matrix( 1, 0, 0, 1, 0,0) ">
<use xlink:href="#RD2_Blink_front_0_Layer1_0_FILL"/>
</g>

<g transform="matrix( 1, 0, 0, 1, 0,0) ">
<use xlink:href="#RD2_Blink_front_0_Layer1_1_FILL"/>
</g>

<g transform="matrix( 1, 0, 0, 1, 0,0) ">
<use xlink:href="#RD2_Blink_front_0_Layer1_2_FILL"/>
</g>
</g>

<g transform="matrix( 0.8662109375, -0.0929107666015625, 0.1739959716796875, 1.01947021484375, 17.05,0.3) ">
<g transform="matrix( 1, 0, 0, 1, 0,0) ">
<use xlink:href="#RD2_Blink_front_100_Layer2_0_FILL"/>
</g>
</g>

<g transform="matrix( -0.60809326171875, -0.5243072509765625, -0.508544921875, 0.857421875, -42.8,-20.85) ">
<g transform="matrix( 1, 0, 0, 1, 0,0) ">
<use xlink:href="#RD_Brow_front_1_Layer2_0_FILL"/>
</g>

<g transform="matrix( 1, 0, 0, 1, 1.7,-0.05) ">
<g transform="matrix( 1, 0, 0, 1, 0,0) ">
<use xlink:href="#RD_Lashes_02_6_Layer0_0_FILL"/>
</g>

<g transform="matrix( 1, 0, 0, 1, 0,0) ">
<use xlink:href="#RD_Lashes_02_6_Layer0_1_FILL"/>
</g>

<g transform="matrix( 1, 0, 0, 1, 0,0) ">
<use xlink:href="#RD_Lashes_02_6_Layer0_2_FILL"/>
</g>
</g>

<g transform="matrix( 1, 0, 0, 1, 0,0) ">
<use xlink:href="#RD_Brow_front_1_Layer0_0_FILL"/>
</g>
</g>

<g transform="matrix( 0.924713134765625, -0.4334564208984375, 0.457275390625, 0.8568572998046875, 30.45,-17.85) ">
<g transform="matrix( 1, 0, 0, 1, 0,0) ">
<use xlink:href="#RD_Brow_front_1_Layer2_0_FILL"/>
</g>

<g transform="matrix( 1, 0, 0, 1, 1.7,-0.05) ">
<g transform="matrix( 1, 0, 0, 1, 0,0) ">
<use xlink:href="#RD_Lashes_02_6_Layer0_0_FILL"/>
</g>

<g transform="matrix( 1, 0, 0, 1, 0,0) ">
<use xlink:href="#RD_Lashes_02_6_Layer0_1_FILL"/>
</g>

<g transform="matrix( 1, 0, 0, 1, 0,0) ">
<use xlink:href="#RD_Lashes_02_6_Layer0_2_FILL"/>
</g>
</g>

<g transform="matrix( 1, 0, 0, 1, 0,0) ">
<use xlink:href="#RD_Brow_front_1_Layer0_0_FILL"/>
</g>
</g>

<g transform="matrix( 1.04473876953125, -0.17791748046875, 0.2764129638671875, 0.92706298828125, -14.35,25.7) ">
<g transform="matrix( 1, 0, 0, 1, 0,0) ">
<use xlink:href="#RD_Mouth_front_hole__0_Layer4_0_FILL"/>
</g>
</g>

<g transform="matrix( 1.00201416015625, 0.0025787353515625, 0.08404541015625, 0.9959716796875, -18.15,22.15) ">
<g transform="matrix( 1, 0, 0, 1, 0,0) ">
<use xlink:href="#RD_Mouth_front_nostril__0_Layer2_0_FILL"/>
</g>
</g>

<g transform="matrix( 0.85284423828125, -0.37200927734375, 0.05682373046875, 0.930206298828125, 21.5,19.2) ">
<g transform="matrix( 1, 0, 0, 1, 0,0) ">
<use xlink:href="#RD_Cheek_0_Layer1_0_FILL"/>
</g>

<g transform="matrix( 1, 0, 0, 1, 0,0) ">
<use xlink:href="#RD_Cheek_0_Layer0_0_FILL"/>
</g>
</g>

<g transform="matrix( 0.9800262451171875, 0.032135009765625, -0.1204071044921875, 0.9931640625, -16.75,25.2) ">
<g transform="matrix( 1, 0, 0, 1, 0.65,-8.5) ">
<g transform="matrix( 1, 0, 0, 1, 0,0) ">
<use xlink:href="#RD_Wrinkle_0_Layer0_0_FILL"/>
</g>
</g>
</g>

<g transform="matrix( 1.07415771484375, 0.0653076171875, 0.0907745361328125, 0.991790771484375, -13.5,-33.7) ">
<g transform="matrix( 1, 0, 0, 1, 0,0) ">
<use xlink:href="#RD_Hair_01_19_Layer3_0_FILL"/>

<use xlink:href="#RD_Hair_01_19_Layer3_0_1_STROKES"/>
</g>

<g transform="matrix( 1, 0, 0, 1, 0,0) ">
<use xlink:href="#RD_Hair_01_19_Layer2_0_FILL"/>
</g>

<g transform="matrix( 1, 0, 0, 1, 0,0) ">
<use xlink:href="#RD_Hair_01_19_Layer1_0_FILL"/>
</g>

<g transform="matrix( 1, 0, 0, 1, 0,0) ">
<use xlink:href="#RD_Hair_01_19_Layer0_0_FILL"/>
</g>
</g>
</g>

<g transform="matrix( -0.3125457763671875, -1.02899169921875, -0.8546295166015625, 0.2658233642578125, -2.3,49.05) ">
<g transform="matrix( 1.108154296875, 0.09967041015625, -0.077728271484375, 1.1765594482421875, -8.35,40.1) ">
<g transform="matrix( 1, 0, 0, 1, 0,0) ">
<use xlink:href="#RD_FrontLeg_3_4_hoof_16_Layer0_0_FILL"/>

<use xlink:href="#RD_FrontLeg_3_4_hoof_16_Layer0_0_1_STROKES"/>
</g>
</g>

<g transform="matrix( 0.9623260498046875, 0.271636962890625, -0.27618408203125, 0.9610443115234375, 2.7,0.35) ">
<g transform="matrix( 1, 0, 0, 1, 0,0) ">
<use xlink:href="#RD_FrontLeg_3_4_upper_21_Layer1_0_FILL"/>

<use xlink:href="#RD_FrontLeg_3_4_upper_21_Layer1_0_1_STROKES"/>
</g>
</g>

<g transform="matrix( 1.9949188232421875, 0.1793975830078125, -0.257781982421875, 3.89984130859375, -5.95,23.45) ">
<g transform="matrix( 1, 0, 0, 1, 0,0) ">
<use xlink:href="#RD_HoofWrinkle_2_Layer0_0_FILL"/>
</g>
</g>
</g>
</g>
</svg>
