
<svg xmlns="http://www.w3.org/2000/svg" version="1.1" xmlns:xlink="http://www.w3.org/1999/xlink" preserveAspectRatio="none" x="0px" y="0px" width="864px" height="486px" viewBox="0 0 864 486">
<defs>
<linearGradient id="Gradient_1" gradientUnits="userSpaceOnUse" x1="281.1875" y1="36.9375" x2="276.51250000000005" y2="60.3625" spreadMethod="pad">
<stop  offset="0%" stop-color="#590D39"/>

<stop  offset="19.607843137254903%" stop-color="#9C1862"/>

<stop  offset="22.745098039215687%" stop-color="#A01964"/>

<stop  offset="34.11764705882353%" stop-color="#AA1A6C"/>

<stop  offset="73.72549019607843%" stop-color="#BD1D78"/>

<stop  offset="100%" stop-color="#BF1D79"/>
</linearGradient>

<filter id="Filter_1" x="-20%" y="-20%" width="140%" height="140%" color-interpolation-filters="sRGB">
<feColorMatrix in="SourceGraphic" type="matrix" values="1 0 0 0 -0.06274509803921569 0 1 0 0 -0.0784313725490196 0 0 1 0 -0.06274509803921569 0 0 0 1 0" result="result1"/>
</filter>

<filter id="Filter_2" x="-20%" y="-20%" width="140%" height="140%" color-interpolation-filters="sRGB">
<feColorMatrix in="SourceGraphic" type="matrix" values="0.57 0 0 0 0.1843137254901961 0 0.57 0 0 0.28627450980392155 0 0 0.57 0 0.37254901960784315 0 0 0 1 0" result="result1"/>
</filter>

<g id="RD_Prun_Tail_7_Layer1_0_FILL">
<path fill="#EE4143" stroke="none" d="
M 80.75 -65.55
Q 70.6 -63.35 62.1 -59.35 49.3 -53.25 39.3 -46 29.35 -38.75 21.6 -31.35 13.85 -24 7.75 -17.5 1.65 -11 -3.45 -6.4 -6.25 -3.5 -6.35 -0.5 -6.4 2.5 -4.55 4.6 -2.65 6.75 0.4 7.05 3.45 7.35 6.9 4.9 16.55 -0.95 26.65 -4.55 36.75 -8.1 46.35 -9.5 55.95 -10.9 64.1 -10.3 72.45 -9.65 78.35 -7.25 84.3 -4.85 88.1 -1.5 91.9 1.9 94 5.6 97.1 11.1 99.5 17.5 101.95 23.85 104.1 30.4 106.25 36.95 108.6 42.95 110.95 49 113.9 53.9 113.85 53.8 113.65 52 113.45 50.15 113.1 47.05 112.75 44 112.3 40.2 111.9 36.45 111.4 32.5 111.1 27.75 110.55 23.6 110 19.45 109.5 16.8 109.05 14.7 108.85 14.2 110.6 17.25 113.8 23.9 117.15 30.75 122.35 40.9 127.55 51 134.85 63.9 138.65 70.3 143.65 76.45 148.65 82.55 154.2 87.8 159.75 93 165.25 96.65 170.75 100.35 175.2 102.6 179.6 104.8 182.2 105.75 184 106.4 184.6 106.65 184.05 106.35 182.55 105.35 180.35 103.9 176.9 101.25 173.5 98.55 169.7 95 165.95 91.4 162.7 87.15 159.4 82.95 156.95 78.95 154.55 74.95 152.9 71.65 151.3 68.4 150.45 66.4 149.6 64.45 149.5 64.3 152.35 67.8 157.25 71.75 162.15 75.65 168.4 79.2 174.65 82.7 181.65 85.05 188.7 87.35 195.8 87.7 202.6 88.15 208.15 87.65 213.7 87.15 217.75 86.25 221.75 85.35 223.95 84.65 225.9 84 226.15 84 219.3 83.55 212.55 82.25 205.9 80.95 199.65 78.55 200.1 78.65 201.65 78.9 203.9 79.3 207.65 79.6 211.45 79.95 216.15 79.9 220.8 79.9 225.75 79.2 230.65 78.65 235.25 77.75 239.8 76.9 243.45 76 247.1 75.1 249.3 74.5 250.954296875 74.0404296875 251.5 73.95 245.9009765625 74.650390625 239.75 74.7 233.45 74.8 227.15 74.15 220.85 73.45 215.05 72.05 209.25 70.6 204.55 68.4 199.95 66.15 196.65 63.7 193.4 61.3 191.35 59.15 189.3 57 188.3 55.65 187.7 54.8 187.45 54.5 187.85 54.85 189.3 55.85 191.25 57.25 194.5 59 197.75 60.75 201.7 61.95 204.7 62.8 207.75 63.25 210.75 63.7 213.3 63.9 215.85 64.05 217.4 64 218.95 63.95 219.05 63.75 209.35 62.65 202.9 58.15 196.5 53.65 192.3 46.2 188.1 38.7 185.1 28.75 183.4 23.7 181.1 17.3 178.8 10.95 175.5 3.6 172.2 -3.75 167.55 -11.8 163.8 -18 158.85 -24.35 153.95 -30.65 147.3 -36.9 142.85 -41.1 137.2 -45 131.55 -48.9 125 -52.05 118.45 -55.2 111.3 -57.1
L 113.25 -57
Q 115.2 -56.95 118.6 -56.55 122 -56.2 126.4 -55.4 130.8 -54.6 135.7 -53.2 142.5 -51.1 148.65 -48.6 154.8 -46.1 159.6 -43.85 164.4 -41.55 167.2 -40.25 164.2 -43.4 159.95 -46.8 155.7 -50.15 150.25 -53.55 144.3 -57.3 137.55 -60.15 130.75 -63.05 123 -65 112.5 -67.65 101.7 -67.7 90.9 -67.75 80.75 -65.55 Z"/>
</g>

<g id="RD_Prun_Tail_7_Layer1_1_FILL">
<path fill="#F37033" stroke="none" d="
M 80.75 -65.55
Q 70.6 -63.35 62.1 -59.35 49.3 -53.25 39.3 -46 29.35 -38.75 21.6 -31.35 13.85 -24 7.75 -17.5 1.65 -11 -3.45 -6.4 -6.25 -3.5 -6.35 -0.5 -6.4 2.5 -4.55 4.6 -2.65 6.75 0.4 7.05 3.45 7.35 6.9 4.9 13.8 0.55 21.25 -2.45 28.7 -5.45 35.9 -7.35 43.8 -10.05 51.85 -11.6 59.9 -13.15 67.55 -13.3 75.15 -13.45 81.8 -11.95 88.45 -10.4 93.65 -7.4 98.9 -4.4 103.25 0 107.65 4.4 111.7 10.2 115.65 15.85 119.2 22.25 122.75 28.65 126.2 35.4 129.6 42.15 133.15 48.8 136.8 55.8 141.25 62.45 145.65 69.15 150.7 74.95 155.75 80.8 161.2 85.15 157.3 79.9 154.75 75.2 152.2 70.5 150.95 67.5 149.65 64.5 149.5 64.3 152.35 67.8 157.25 71.75 162.15 75.65 168.4 79.2 174.65 82.7 181.65 85.05 188.7 87.35 195.8 87.7 202.6 88.15 208.15 87.65 213.7 87.15 217.75 86.25 221.75 85.35 223.95 84.65 225.9 84 226.15 84 219.3 83.55 212.55 82.25 205.9 80.95 199.65 78.55 200.1 78.65 201.65 78.9 203.9 79.3 207.65 79.6 211.45 79.95 216.15 79.9 220.8 79.9 225.75 79.2 230.65 78.65 235.25 77.75 239.8 76.9 243.45 76 247.1 75.1 249.3 74.5 250.954296875 74.0404296875 251.5 73.95 245.9009765625 74.650390625 239.75 74.7 233.45 74.8 227.15 74.15 220.85 73.45 215.05 72.05 209.25 70.6 204.55 68.4 199.95 66.15 196.65 63.7 193.4 61.3 191.35 59.15 189.3 57 188.3 55.65 187.7 54.8 187.45 54.5 187.85 54.85 189.3 55.85 191.25 57.25 194.5 59 197.75 60.75 201.7 61.95 204.7 62.8 207.75 63.25 210.75 63.7 213.3 63.9 215.85 64.05 217.4 64 218.95 63.95 219.05 63.75 209.35 62.65 202.9 58.15 196.5 53.65 192.3 46.2 188.1 38.7 185.1 28.75 183.4 23.7 181.1 17.3 178.8 10.95 175.5 3.6 172.2 -3.75 167.55 -11.8 163.8 -18 158.85 -24.35 153.95 -30.65 147.3 -36.9 142.85 -41.1 137.2 -45 131.55 -48.9 125 -52.05 118.45 -55.2 111.3 -57.1
L 113.25 -57
Q 115.2 -56.95 118.6 -56.55 122 -56.2 126.4 -55.4 130.8 -54.6 135.7 -53.2 142.5 -51.1 148.65 -48.6 154.8 -46.1 159.6 -43.85 164.4 -41.55 167.2 -40.25 164.2 -43.4 159.95 -46.8 155.7 -50.15 150.25 -53.55 144.3 -57.3 137.55 -60.15 130.75 -63.05 123 -65 112.5 -67.65 101.7 -67.7 90.9 -67.75 80.75 -65.55 Z"/>
</g>

<g id="RD_Prun_Tail_7_Layer1_2_FILL">
<path fill="#FDF6AF" stroke="none" d="
M 80.75 -65.55
Q 70.6 -63.35 62.1 -59.35 49.3 -53.25 39.3 -46 29.35 -38.75 21.6 -31.35 13.85 -24 7.75 -17.5 1.65 -11 -3.45 -6.4 -6.25 -3.5 -6.35 -0.5 -6.4 2.5 -4.55 4.6 -2.65 6.75 0.4 7.05 3.45 7.35 6.9 4.9 7.5 4.45 11.1 1.85 14.7 -0.75 21.15 -4.45 27.6 -8.2 36.75 -12 43.5 -14.9 51.5 -17 59.5 -19.1 68.05 -19.7 76.6 -20.35 84.9 -18.85 93.15 -17.3 100.45 -12.95 107.7 -8.7 113.65 -2.2 119.55 4.35 124.55 12.2 129.55 20.05 133.95 28.3 138.35 36.6 142.6 44.35 147 52.35 152 59.4 156.95 66.4 162.25 71.6 167.5 76.7 171.85 79.8 176.2 82.85 178.75 83.95 186.5 86.65 193.55 87.45 200.65 88.2 206.65 87.75 212.6 87.35 217 86.35 221.4 85.4 223.8 84.65 225.7 84.05 226.1 84 219.25 83.55 212.55 82.25 205.9 80.95 199.65 78.55 200.1 78.65 201.65 78.9 203.9 79.3 207.65 79.6 211.45 79.95 216.15 79.9 220.8 79.9 225.75 79.2 230.65 78.65 235.25 77.75 239.8 76.9 243.45 76 247.1 75.1 249.3 74.5 250.954296875 74.0404296875 251.5 73.95 245.9009765625 74.650390625 239.75 74.7 233.45 74.8 227.15 74.15 220.85 73.45 215.05 72.05 209.25 70.6 204.55 68.4 199.95 66.15 196.65 63.7 193.4 61.3 191.35 59.15 189.3 57 188.3 55.65 187.7 54.8 187.45 54.5 187.85 54.85 189.3 55.85 191.25 57.25 194.5 59 197.75 60.75 201.7 61.95 204.7 62.8 207.75 63.25 210.75 63.7 213.3 63.9 215.85 64.05 217.4 64 218.95 63.95 219.05 63.75 209.35 62.65 202.9 58.15 196.5 53.65 192.3 46.2 188.1 38.7 185.1 28.75 183.4 23.7 181.1 17.3 178.8 10.95 175.5 3.6 172.2 -3.75 167.55 -11.8 163.8 -18 158.85 -24.35 153.95 -30.65 147.3 -36.9 142.85 -41.1 137.2 -45 131.55 -48.9 125 -52.05 118.45 -55.2 111.3 -57.1
L 113.25 -57
Q 115.2 -56.95 118.6 -56.55 122 -56.2 126.4 -55.4 130.8 -54.6 135.7 -53.2 142.5 -51.1 148.65 -48.6 154.8 -46.1 159.6 -43.85 164.4 -41.55 167.2 -40.25 164.2 -43.4 159.95 -46.8 155.7 -50.15 150.25 -53.55 144.3 -57.3 137.55 -60.15 130.75 -63.05 123 -65 112.5 -67.65 101.7 -67.7 90.9 -67.75 80.75 -65.55 Z"/>
</g>

<g id="RD_Prun_Tail_7_Layer1_3_FILL">
<path fill="#662F89" stroke="none" d="
M 80.75 -65.55
Q 70.6 -63.35 62.1 -59.35 49.25 -53.25 39.3 -46 29.3 -38.75 21.55 -31.35 13.85 -24 7.75 -17.5 1.65 -11 -3.45 -6.4 -5.65 -4.3 -6.15 -2.1 -6.7 0.1 -6 2.05 -5.3 4 -3.8 5.35 4.3 -3.05 13.95 -9.55 23.65 -16.1 34.35 -20.75 45.05 -25.45 56.3 -28.25 64.75 -30.45 73.5 -30.65 82.25 -30.85 90.7 -29 99.15 -27.1 106.75 -23.1 114.4 -19.1 120.65 -12.85 127 -6.85 132.15 0.1 137.35 7.05 141.85 14.6 146.3 22.1 150.65 29.8 155 37.45 159.7 44.95 164.45 52.45 170.6 59.05 176.7 65.65 184.4 70.5 192.15 75.3 200.95 77.5 209.75 79.7 218.7 79.75 224.45 79.55 230.15 78.65 235.9 77.75 240.7 76.65 245.5 75.55 248.45 74.75 251.45 73.95 251.75 73.9 246 74.65 239.75 74.7 233.45 74.8 227.15 74.15 220.8 73.45 215.05 72.05 209.25 70.6 204.55 68.4 199.9 66.15 196.65 63.7 193.35 61.3 191.3 59.15 189.25 57 188.3 55.65 187.7 54.8 187.5 54.5 187.9 54.85 189.25 55.85 191.2 57.25 194.45 59 197.75 60.75 201.65 61.95 204.7 62.8 207.7 63.25 210.75 63.7 213.3 63.9 215.8 64.05 217.4 64 218.95 63.95 219.05 63.75 209.3 62.65 202.9 58.15 196.45 53.65 192.25 46.2 188.1 38.7 185.1 28.75 183.4 23.7 181.1 17.3 178.75 10.95 175.5 3.6 172.2 -3.75 167.5 -11.8 163.8 -18 158.85 -24.35 153.9 -30.65 147.25 -36.9 142.8 -41.1 137.15 -45 131.5 -48.9 124.95 -52.05 118.4 -55.2 111.25 -57.1 111.3 -57.1 113.25 -57 115.2 -56.95 118.6 -56.55 122 -56.2 126.35 -55.4 130.75 -54.6 135.65 -53.2 142.5 -51.1 148.65 -48.6 154.8 -46.1 159.6 -43.85 164.4 -41.55 167.15 -40.25 164.2 -43.4 159.95 -46.8 155.7 -50.15 150.2 -53.55 144.3 -57.3 137.5 -60.15 130.75 -63.05 122.95 -65 112.5 -67.65 101.7 -67.7 90.85 -67.75 80.75 -65.55 Z"/>
</g>

<g id="RD_Prun_Tail_7_Layer1_4_FILL">
<path fill="#1D98D5" stroke="none" d="
M 13.95 -9.55
Q 23.65 -16.05 34.35 -20.75 45.05 -25.4 56.3 -28.2 64.75 -30.4 73.5 -30.6 82.25 -30.8 90.7 -28.95 99.15 -27.1 106.75 -23.1 114.4 -19.1 120.65 -12.85 127 -6.8 132.15 0.15 137.35 7.1 141.85 14.6 146.3 22.15 150.65 29.85 155 37.5 159.7 45 164.45 52.5 170.6 59.1 176.7 65.7 184.4 70.55 192.15 75.35 200.95 77.55 209.75 79.7 218.7 79.8 224.45 79.6 230.15 78.7 235.9 77.8 240.7 76.7 245.5 75.6 248.45 74.8 251.45 74 251.75 73.95 246 74.7 239.75 74.75 233.45 74.8 227.15 74.15 220.8 73.5 215.05 72.05 209.25 70.65 204.55 68.4 199.9 66.2 196.65 63.75 193.35 61.3 191.3 59.15 189.25 57.05 188.3 55.7 187.7 54.85 187.5 54.55 187.9 54.9 189.25 55.9 191.2 57.25 194.45 59 197.75 60.75 201.65 61.95 204.7 62.8 207.7 63.3 210.75 63.75 213.3 63.9 215.8 64.05 217.4 64 218.95 63.95 219.05 63.8 208.7 62.65 201.65 57.3 194.6 51.9 190.75 43.25 190.5 42.95 188.6 40.6 186.7 38.25 183.3 33.3 179.9 28.2 174.9 19.35 169.9 10.5 162.45 -1.45 158.55 -7.6 153.6 -14.05 148.65 -20.5 142.15 -26.95 137.9 -31.25 132.5 -35.4 127.1 -39.5 120.85 -42.9 114.55 -46.3 107.7 -48.55 97.25 -52 86.35 -52.5 75.5 -53.05 65.3 -51.15 55.2 -49.3 45.9 -45.7 36.65 -42.1 28.3 -37.3 21.4 -31.25 15.7 -25.6 10.05 -19.95 5.3 -15.1 0.6 -10.2 -3.45 -6.4 -5.65 -4.3 -6.15 -2.1 -6.7 0.15 -6 2.1 -5.3 4.05 -3.8 5.4 4.3 -3 13.95 -9.55 Z"/>
</g>

<g id="RD_Prun_Tail_7_Layer1_5_FILL">
<path fill="#62BC4D" stroke="none" d="
M 13.95 -9.55
Q 23.65 -16.05 34.35 -20.75 45.05 -25.4 56.3 -28.2 64.75 -30.4 73.5 -30.6 82.25 -30.8 90.7 -28.95 99.15 -27.1 106.75 -23.1 114.4 -19.1 120.65 -12.85 127 -6.8 132.15 0.15 137.35 7.1 141.85 14.65 146.3 22.15 150.65 29.85 155 37.5 159.7 45 164.45 52.5 170.6 59.1 176.7 65.7 184.4 70.55 192.15 75.35 200.95 77.55 209.75 79.7 218.7 79.8 224.45 79.6 230.15 78.7 235.9 77.8 240.7 76.7 245.5 75.6 248.45 74.8 251.45 74 251.75 73.95 244.8 74.95 237.15 74.8 229.5 74.65 222.05 73.45 214.6 72.25 208.3 70 202.05 67.8 197.85 64.65 195.05 63.05 191.45 60.5 187.9 57.9 183.95 54 180 50.1 175.95 44.55 171.85 38.95 167.65 31.5 163.45 24.05 158.4 15.25 153.35 6.4 146.85 -3.2 141.8 -10.35 135.35 -17.35 128.95 -24.3 120.2 -30.35 114.45 -34.25 107.8 -37 101.15 -39.75 94.05 -41.25 86.9 -42.7 79.7 -42.7 65.2 -42.55 51.8 -38.6 38.35 -34.7 26.25 -27.9 14.1 -21.1 3.45 -12.35 -0.85 -8.9 -3.45 -6.4 -5.65 -4.3 -6.15 -2.05 -6.7 0.15 -6 2.1 -5.3 4.05 -3.8 5.4 4.3 -3 13.95 -9.55 Z"/>
</g>

<g id="RD_Prun_Tail_7_Layer1_6_FILL">
<path fill="#3A54A5" stroke="none" d="
M 225.15 63.25
Q 224.229296875 63.2193359375 223.25 63.15
L 223.2 63.75
Q 225.15 63.3 225.15 63.25
M 262.3 72.1
Q 264.5546875 71.4 264.6 71.4 264.55 71.35 262.05 71.6
L 262.3 72.1
M 108.4 12.6
Q 108.5255859375 13.0169921875 108.75 14.7
L 109.3 14.3
Q 108.82578125 13.396875 108.4 12.6
M 198.75 78.05
Q 196.65 77.7 196.3 77.6 197.3783203125 78.1443359375 198.45 78.65
L 198.75 78.05 Z"/>

<path fill="#1D9AD6" stroke="none" d="
M 70.45 -65.1
Q 64.25 -62.9 59.35 -60.5 54.4 -58.1 50.9 -56 47.4 -53.9 45.45 -52.6 43.2 -51.3 39.8 -49.1 36.4 -46.85 32.3 -43.9 28.15 -40.95 23.85 -37.45 19.5 -33.9 15.45 -30.05 11.4 -26.25 7.9 -22.5 4.4 -18.7 1.75 -15.45 -0.95 -12.15 -2.65 -9.85 -4.3 -7.5 -4.8 -6.6 -7.05 -3.35 -7.05 -0.2 -7.05 2.95 -5 5.35 -3.65 7 -1.45 7.7 0.7 8.35 3.2 7.9 5.75 7.45 8.2 5.8 15.55 1.4 23.3 -1.65 31 -4.75 38.65 -6.45 46.25 -8.2 53.25 -8.65 60.3 -9.15 66.3 -8.4 74.6 -7.3 80.05 -4.6 85.5 -1.85 88.75 1.75 92.05 5.4 93.85 9.15 95.45 12.4 97.45 17 99.5 21.6 101.55 26.8 103.65 32.05 105.35 37.1 107.75 43.2 109.9 48.25 112 53.25 113.75 56.75 115.55 60.2 116.9 61.7 115.95 57.9 115.4 53.3 114.85 48.7 114.25 43.45 113.9 40.75 113.75 38.3 113.55 35.85 113 32.85 112.85 30.55 112.65 28.35 112.45 26.1 112.2 24.1 115.15 29.4 118.85 37.3 122.55 45.25 127.9 55.05 133.25 64.8 141.1 75.7 145.9 82.3 151.55 87.55 157.15 92.8 162.85 96.75 168.5 100.65 173.3 103.3 178.15 105.9 181.3 107.2 184.45 108.5 185.15 108.55 188.7 109.75 192.3 110.8 195.9 111.8 199.35 112.4 196.2 111.15 193.05 109.45 189.85 107.8 186.85 106.05 178 100.25 172.3 95 166.65 89.75 163.3 85.3 159.95 80.85 158.05 77.4 156.15 73.95 154.85 71.85 158.7 75.5 164.1 78.75 169.45 82.05 175.7 84.6 181.9 87.1 188.3 88.5 194.75 89.9 200.65 89.75 208.4 89.6 214.15 88.6 219.95 87.6 223.35 86.6 226.75 85.6 227.25 85.45 231.2 84.25 234.9 82.75 223.9 82.85 213.1 80.75 216.85 80.9 222.1 80.5 227.35 80.1 233.2 79.25 239.05 78.35 244.6 77 250.15 75.6 254.7 74.35 259.2 73.05 261.85 72.25 262.0990234375 72.1716796875 262.3 72.1
L 262.05 71.6
Q 259.5 71.9 255.15 72.25 250.75 72.6 245.15 72.8 239.6 72.95 233.4 72.7 227.15 72.55 221.25 71.45 215.35 70.4 210.35 68.7 205.4 67.05 201.8 65.2 198.2 63.35 196.5 61.65 197.7 62.25 199 62.7 200.35 63.1 201.7 63.55 206.15 64.75 210.3 64.85 214.5 65 217.85 64.65 221.25 64.25 223.2 63.75
L 223.25 63.15
Q 221.121875 62.9658203125 218.8 62.55 215.5 61.95 212.2 60.85 208.9 59.75 206.05 58.15 201.75 55.75 198.8 52.6 195.85 49.4 193.95 45.95 191.95 42.55 190.5 38.55 189 34.6 187.6 29.85 186.2 25.1 184.45 19.5 182.45 13.6 179.85 6.8 177.3 0.05 173.2 -7.65 169.1 -15.3 162.65 -24 159.6 -28.05 154.95 -32.5 150.25 -36.95 144.4 -41.25 140.5 -44.15 136.15 -46.7 131.8 -49.25 127.5 -51.35 123.2 -53.4 119.45 -54.8 122.1 -54.6 125.85 -53.9 129.6 -53.15 134 -52 138.35 -50.85 142.8 -49.3 147.25 -47.75 151.3 -45.95 156.75 -43.65 160.95 -41.55 165.2 -39.45 167.65 -38.1 170.1 -36.75 170.15 -36.7 167.7 -40.3 163.35 -44.85 159.05 -49.35 152.7 -54.1 146.35 -58.8 137.7 -62.9 133.95 -64.8 127.95 -66.5 121.95 -68.2 114.6 -69.25 107.25 -70.3 99.4 -70.3 91.55 -70.25 84.15 -68.7 76.7 -67.3 70.45 -65.1
M 48.7 -50.65
Q 58.55 -56.3 70.15 -60.6 77.45 -63.25 85.65 -64.6 93.85 -65.95 102.4 -65.85 110.95 -65.75 119.25 -63.95 127.45 -62.35 134.8 -59.35 142.2 -56.35 148.3 -52.7 154.45 -49.05 158.8 -45.55 154.9 -47.4 149.85 -49.45 144.85 -51.5 139.45 -53.3 134.1 -55.1 129.15 -56.1 124.2 -57.15 120.3 -57.6 116.4 -58.1 114.1 -58.2 111.8 -58.3 111.65 -58.3 105.1 -58.6 98.9 -57.85 105.4 -57.05 111.85 -55.2 126.45 -51.05 138.55 -42 144.3 -37.7 149 -33.05 153.65 -28.4 157.5 -23.55 163.95 -15.2 168.2 -7.55 172.5 0.1 175.4 7.05 178.3 14 180.6 20.2 182.65 26.1 184.4 31.05 186.1 36 187.85 40.2 189.6 44.35 191.75 47.9 194.3 52.25 197.65 55.65 201.05 59.05 205.6 61.4 200.85 60.45 196.45 58.35 192 56.25 188.55 53.5 186.4 51.9 184.45 49.95 182.45 48.05 180.55 45.95 181.85 48.5 183.3 50.95 184.8 53.45 186.55 55.65 186.6 55.75 187.9 57.45 189.2 59.1 191.9 61.7 194.65 64.25 198.9 67 203.25 69.75 209.25 71.8 215.2 73.85 222.15 75 229.05 76.1 236.2 76.15 232.55 76.95 228.35 77.6 224.1 78.25 219.8 78.65 215.45 79.05 211.4 79.05 207.35 79.05 204.05 78.7 200.8 78.4 198.75 78.05
L 198.45 78.65
Q 202.612109375 80.56640625 207 81.95 212.55 83.7 218.3 84.75 214.45 85.65 208.75 86.3 203.05 86.95 196.15 86.55 189.2 86.15 181.65 83.8 174.2 81.45 167.8 77.75 161.45 74.1 156.55 70 151.7 65.95 148.8 62.45 148.75 62.4 149.55 64.8 150.35 67.15 152.1 71.15 153.85 75.2 156.6 80.1 159.4 85 163.35 90.05 167.3 95.05 172.45 99.45 167.85 96.9 162.6 92.95 157.4 89.05 152.2 83.95 147.05 78.9 142.6 72.9 138.1 67 134.5 61.1 130.9 55.2 128.05 49.7 125.15 44.2 122.75 39.55 119.1 32.35 116.3 27.15 113.5 21.95 111.55 18.35 110.2654296875 16.0697265625 109.3 14.3
L 108.75 14.7
Q 109 16.95 109.35 20.75 109.75 24.55 110.15 29.1 110.55 33.65 110.95 38.15 111.35 42.65 111.65 46.3 110.75 44.35 109.55 40.8 108.4 37.2 106.9 32.6 105.4 28 103.65 23 101.85 18.05 99.8 13.3 97.7 8.6 95.3 4.75 92.2 -0.2 87.1 -4 82.05 -7.8 75.1 -9.75 70.6 -11.05 66 -11.55 61.4 -12.05 57.3 -11.95 53.15 -11.9 50.1 -11.55 43.25 -10.8 35.9 -8.95 28.55 -7.1 21.1 -4.05 13.6 -1 6.45 3.35 3.45 5.4 1 5.2 -1.45 5 -2.85 3.4 -3.85 2.3 -3.95 0.55 -4.1 -1.25 -3.35 -3.3 -2.6 -5.35 -1.15 -7.3 1.45 -10.45 5.85 -15.45 10.3 -20.4 16.55 -26.45 22.8 -32.45 30.85 -38.7 38.9 -44.95 48.7 -50.65 Z"/>
</g>

<g id="RD_FrontLeg_3_4_hoof_6_Layer0_0_FILL">
<path fill="#9EDBF8" stroke="none" d="
M -0.95 -17.2
Q -8.6921875 -16.7904296875 -12.35 -12.4 -15.971875 -8.0099609375 -18.15 -4 -20.324609375 0.0544921875 -21.9 7.4 -23.42421875 14.7861328125 -17.1 18.5 -10.7796875 22.268359375 0.15 20.85 11.0783203125 19.4369140625 14.05 14.5 17.0837890625 9.596484375 17.4 1.25 17.7197265625 -7.051171875 12.3 -12.35 6.8671875 -17.5837890625 -0.95 -17.2 Z"/>
</g>

<g id="RD_KneePatch_1_Layer0_0_FILL">
<path fill="#6DABDD" stroke="none" d="
M 10.75 -8.3
L 10.75 -8.45
Q 10.999609375 -9.6171875 11 -10.9 11.0111328125 -16.75078125 6.7 -21.15 2.4033203125 -25.5216796875 -3.55 -25.85 -9.52421875 -26.1814453125 -13.85 -22.55 -18.2634765625 -18.8869140625 -18.25 -13.75
L -18.25 -13.7
Q -18.333203125 -9.8595703125 -15.45 -3.75
L -15.4 -3.65 -15.4 -3.6
Q -12.6767578125 2.0408203125 -9.8 10.1
L -9.75 10.2
Q -9.74140625 10.22421875 -9.75 10.25
L -9.75 10.25
Q -6.684765625 18.7166015625 -4.1 21.8
L -4.05 21.85
Q -1.2443359375 25.3462890625 3.45 25.6
L 3.5 25.6
Q 8.171875 25.7728515625 11.55 22.6 14.949609375 19.4423828125 15.4 15.75 15.955859375 12.0994140625 13.1 9.2 8.4591796875 3.042578125 10.65 -7.8 10.721875 -8.034375 10.75 -8.3 Z"/>
</g>

<g id="RD_HindLeg_3_4rear_lower_2_Layer1_0_FILL">
<path fill="#9EDBF8" stroke="none" d="
M -5.65 -3.6
Q -13.0958984375 2.169140625 -8.9 12.2 -5.18671875 19.70546875 7.6 6.9 17.0154296875 -1.388671875 11.5 -5.15 1.836328125 -8.4703125 -5.65 -3.6 Z"/>
</g>

<g id="RD_HindLeg_3_4rear_lower_2_Layer0_0_FILL">
<path fill="#9EDBF8" stroke="none" d="
M -10.2 3.35
Q -15.7921875 31.9404296875 -8.9 59.25
L 24.35 43.05
Q 15.0326171875 27.90546875 13.4 -2.55
L -10.2 3.35 Z"/>
</g>

<g id="RD_HindLeg_3_4_top_3_Layer1_0_FILL">
<path fill="#6DABDD" stroke="none" d="
M -19.65 44.3
Q -19.6541015625 43.8923828125 -19.7 43.45 -19.7474609375 43.891015625 -19.8 44.3
L -19.65 44.3
M 0.85 -4.4
L 0.85 -4.4
Q -8.440625 -7.578515625 -18.8 -4.85 -20.7306640625 -4.3076171875 -22.7 -3.6 -35.693359375 1.456640625 -37.3 12.75 -36.67265625 13.8740234375 -36.05 14.95 -35.9734375 15.0919921875 -35.9 15.2
L -35.5 15.95
Q -32.348046875 1.869921875 -18.8 -1.8 -4.6494140625 -5.201171875 3.15 0.8 4.996875 2.69765625 6.85 5.45 8.5537109375 7.9505859375 9.85 11.55 10.773828125 14.0306640625 11.95 18.6 13.480078125 24.059375 14 30.65 14.6548828125 37.772265625 13.95 44.3
L 16.5 44.3
Q 17.1921875 37.8173828125 16.9 31 16.514453125 22.81796875 14.85 16.7 12.33671875 7.5259765625 8.9 2.55 6.02890625 -1.5513671875 3.15 -3.35 2.012890625 -4.0341796875 0.85 -4.4
L 0.85 -4.4 Z"/>

<path fill="#9EDBF8" stroke="none" d="
M 6.85 5.45
Q 4.996875 2.69765625 3.15 0.8 -4.6494140625 -5.201171875 -18.8 -1.8 -32.348046875 1.869921875 -35.5 15.95
L -35.9 15.2
Q -41.54375 35.5021484375 -19.7 43.4
L -19.7 43.45
Q -19.6541015625 43.8923828125 -19.65 44.3
L 13.95 44.3
Q 14.6548828125 37.772265625 14 30.65 13.480078125 24.059375 11.95 18.6 10.773828125 14.0306640625 9.85 11.55 8.5537109375 7.9505859375 6.85 5.45 Z"/>
</g>

<g id="RD_HindLeg_3_4_top_3_Layer0_0_FILL">
<path fill="#6DABDD" stroke="none" d="
M 8.7 79.1
L 8.7 79.1
Q -3.7240234375 82.317578125 -15.9 55.05 -20.4896484375 46.2076171875 -20.85 37.15 -20.8546875 36.330078125 -20.85 35.45
L -20.85 35.4
Q -22.584375 41.745703125 -21.75 46.8 -20.8296875 51.911328125 -17.95 57.6
L -17.95 57.6
Q -11.971484375 69.1169921875 -6.05 75 -5.2890625 76.075390625 -4.35 77.05
L -4.35 77
Q -0.276953125 80.9404296875 5.2 80.6 7.4673828125 80.5080078125 8.7 79.1
M 14.45 15.7
L 10.9 14.4
Q 12.36328125 19.052734375 13 21.7 14.323046875 26.6453125 14.55 32.3 14.936328125 39.9142578125 12.65 49.15 10.4171875 58.4453125 9.3 62.55 8.17265625 66.672265625 9.1 73.05 9.75390625 77.3060546875 8.75 79.05 9.4486328125 78.3134765625 9.8 77.2 9.9109375 76.9609375 9.95 76.7 10.304296875 75.502734375 10.2 71.5 10.1513671875 67.5421875 11.45 63 12.7974609375 58.489453125 15.1 49.55 17.4509765625 40.6375 17.45 33.45 17.5064453125 26.2955078125 16.1 20.75 15.6138671875 18.894921875 14.45 15.7 Z"/>

<path fill="#9EDBF8" stroke="none" d="
M 12.65 49.15
Q 14.936328125 39.9142578125 14.55 32.3 14.323046875 26.6453125 13 21.7 12.36328125 19.052734375 10.9 14.4
L -8.9 17.15 -20.85 35.45
Q -20.8546875 36.330078125 -20.85 37.15 -20.4896484375 46.2076171875 -15.9 55.05 -3.7240234375 82.317578125 8.7 79.1
L 8.7 79.1 8.75 79.1
Q 8.764453125 79.1033203125 8.75 79.05 9.75390625 77.3060546875 9.1 73.05 8.17265625 66.672265625 9.3 62.55 10.4171875 58.4453125 12.65 49.15 Z"/>
</g>

<g id="RD_KneePatch_0_Layer0_0_FILL">
<path fill="#9EDBF8" stroke="none" d="
M 6.95 -3.8
Q 7.6271484375 -8.4921875 7.65 -8.75
L 7.65 -8.75
Q 7.6830078125 -8.7876953125 7.7 -8.85 7.850390625 -9.7474609375 7.85 -10.75 7.8390625 -15.39921875 4.4 -18.9 0.946484375 -22.4283203125 -3.85 -22.7 -8.6259765625 -22.9685546875 -12.1 -20.1 -15.376171875 -17.3716796875 -15.4 -13.55
L -15.4 -13.55
Q -15.40625 -10.530078125 -12.6 -4.2
L -12.4 -3.7
Q -12.324609375 -3.590625 -12.3 -3.5 -12.2001953125 -3.3171875 -12.15 -3.15 -12.0654296875 -3.0400390625 -12 -2.95
L -12 -2.9 -11.95 -2.8
Q -9.565234375 2.4005859375 -7.1 9.35 -7.0333984375 9.4712890625 -7.05 9.6 -4.2322265625 17.2533203125 -1.9 20.1
L -1.9 20.1
Q 0.112890625 22.6044921875 3.45 22.75 6.435546875 22.852734375 8.7 21.1
L 8.7 21.15
Q 19.876171875 11.2931640625 12.45 5.8 11.055859375 5.381640625 9.7 4.45 9.7404296875 4.5390625 9.75 4.6 8.476171875 3.9505859375 7.75 2.7 6.5830078125 1.1353515625 6.75 -1.95 6.7810546875 -2.8294921875 6.9 -3.8
L 6.95 -3.8 Z"/>
</g>

<g id="WingcycleBACK_5_Layer10_0_FILL">
<path fill="#9EDBF8" stroke="none" d="
M 3.15 -1.2
Q 3.518359375 -0.6158203125 3 -1.3 1.162109375 -0.344921875 -0.25 2.2 -0.8505859375 3.3072265625 -1.6 4.4 -1.9630859375 4.6068359375 -2.5 4.8 -0.0783203125 13.8912109375 -1.35 25 -1.8587890625 28.7435546875 -3 38.45 -6.5578125 67.74296875 0.3 100.5 0.682421875 102.2609375 1 103.35 3.99609375 112.78515625 10.25 119.5 16.059765625 125.448828125 21.55 124.8 23.481640625 124.361328125 24.3 123.15 24.834375 121.471484375 23.85 119.65 20.308984375 113.1267578125 14.75 99.7 9.0125 83.6923828125 7.95 77.1 6.72109375 69.6240234375 5.5 62.95 6.692578125 66.1708984375 8.1 69.3 20.3642578125 104.3408203125 31.3 113.35 35.2791015625 117.054296875 41.7 117.75 47.7587890625 118.319140625 47.55 114.9 46.9412109375 112.7546875 29.05 85.7 10.86171875 55.8673828125 9.1 49.5 11.113671875 51.7470703125 13.05 54.7 19.825 64.813671875 32 79.05 40.1912109375 87.7611328125 44.25 90.1 47.76640625 92.339453125 49.85 92.8 52.158984375 93.183203125 53.85 90.95 55.508984375 88.6189453125 53.05 84.35 50.847265625 80.8794921875 45.1 74 37.4271484375 65.1951171875 33.2 59.7 25.4974609375 49.7626953125 20.6 41.2 20.2431640625 40.8634765625 20.25 40.7 20.0302734375 40.625 20.15 40.45 17.9041015625 35.7123046875 17.2 34.65 17.722265625 35.2716796875 23.25 41.9 28.5759765625 47.183984375 34.9 54.95 41.7630859375 62.027734375 42.6 57.3 43.6359375 51.0693359375 38.9 44.4 30.975390625 34.2890625 25.6 26.2 19.765625 17.5341796875 17 12.05 12.2658203125 6.2294921875 8.7 2.9 7.9908203125 2.276953125 7.65 1.95 5.637890625 0.3046875 3.15 -1.2 Z"/>

<path fill="#6DABDD" stroke="none" d="
M 3.15 -1.25
L 3.15 -1.2
Q 5.637890625 0.3046875 7.65 1.95 7.9908203125 2.276953125 8.7 2.9 12.2658203125 6.2294921875 17 12.05 19.765625 17.5341796875 25.6 26.2 30.975390625 34.2890625 38.9 44.4 43.6359375 51.0693359375 42.6 57.3 41.7630859375 62.027734375 34.9 54.95 28.5759765625 47.183984375 23.25 41.9 17.722265625 35.2716796875 17.2 34.65 17.9041015625 35.7123046875 20.15 40.45 20.0302734375 40.625 20.25 40.7 20.2431640625 40.8634765625 20.6 41.2 25.4974609375 49.7626953125 33.2 59.7 37.4271484375 65.1951171875 45.1 74 50.847265625 80.8794921875 53.05 84.35 55.508984375 88.6189453125 53.85 90.95 52.158984375 93.183203125 49.85 92.8 47.76640625 92.339453125 44.25 90.1 40.1912109375 87.7611328125 32 79.05 19.825 64.813671875 13.05 54.7 11.113671875 51.7470703125 9.1 49.5 10.86171875 55.8673828125 29.05 85.7 46.9412109375 112.7546875 47.55 114.9 47.7587890625 118.319140625 41.7 117.75 35.2791015625 117.054296875 31.3 113.35 20.3642578125 104.3408203125 8.1 69.3 6.692578125 66.1708984375 5.5 62.95 6.72109375 69.6240234375 7.95 77.1 9.0125 83.6923828125 14.75 99.7 20.308984375 113.1267578125 23.85 119.65 24.834375 121.471484375 24.3 123.15 23.481640625 124.361328125 21.55 124.8 16.059765625 125.448828125 10.25 119.5 3.99609375 112.78515625 1 103.35 0.682421875 102.2609375 0.3 100.5 -6.5578125 67.74296875 -3 38.45 -1.8587890625 28.7435546875 -1.35 25 -0.0783203125 13.8912109375 -2.5 4.8 -2.5216796875 4.348046875 -2.6 4.5 -3.1333984375 14.5689453125 -4.2 24.85 -4.439453125 26.880078125 -4.7 28.9 -10.6775390625 67.7916015625 -1.9 100.85 -1.3869140625 102.841015625 -0.85 104.4 2.7142578125 113.98203125 9.5 121.3 15.6654296875 127.5802734375 22.35 126.4 25.256640625 125.7517578125 26.05 124 27.131640625 121.863671875 25.75 118.9 10.4251953125 85.144921875 10.45 80.9 17.075 97.341015625 21.7 104.65 25.833203125 111.46171875 29.8 114.6 33.5826171875 117.6818359375 36.75 118.8 41.6265625 120.5541015625 47.5 119.4 48.6205078125 119.0453125 49.55 117.8 50.1671875 116.1365234375 49.7 114.05 48.1111328125 110.1771484375 37.4 95.3 22.7677734375 74.1306640625 16.65 62.5 37.726953125 88.6994140625 43.55 92.45 51.67578125 97.572265625 56.15 92.65 59.6966796875 88.46640625 47.95 74.5 32.764453125 57.4158203125 28.5 49.9 28.321484375 49.3625 30.7 52.8 33.89375 56.7890625 36.7 59.2 40.0892578125 62.0087890625 41.85 62.05 43.7404296875 61.789453125 44.85 58.7 45.7439453125 55.2767578125 44.55 50.75 42.9037109375 45.6078125 39.45 41.8 33.9955078125 35.87265625 23.85 19.65 23.7126953125 19.6072265625 23.75 19.55 21.444140625 14.4904296875 17.95 9.8 15.3353515625 6.2451171875 9.65 1.55 5.914453125 -1.3556640625 3.15 -1.25 Z"/>
</g>

<g id="RD_FrontLeg_3_4_hoof_11_Layer0_0_FILL">
<path fill="#6DABDD" stroke="none" d="
M 17 -14.7
L 17 -14.75
Q 13.2947265625 -22.103515625 5.85 -24.55 -1.5326171875 -26.9390625 -8.25 -22.9
L -8.3 -22.9
Q -14.2681640625 -19.2318359375 -16.65 -12.25 -16.7095703125 -12.1240234375 -16.75 -12 -18.8623046875 -5.1681640625 -20.1 3.15 -20.090234375 3.22890625 -20.1 3.3 -20.9037109375 14.259375 -8.95 21.8 -8.87421875 21.828125 -8.8 21.85 -2.87265625 24.74140625 3.8 22.85
L 3.85 22.8
Q 18.45859375 17.8275390625 19.55 4.35
L 19.55 4.45
Q 20.3158203125 -0.8623046875 19.1 -7.5 18.6923828125 -11.2048828125 17 -14.7
M 14.6 -13.25
L 14.6 -13.3
Q 15.707421875 -11.0302734375 16.15 -8.7 16.17109375 -8.456640625 16.2 -8.25 16.312109375 -7.805078125 16.4 -7.4 16.6583984375 -5.9748046875 16.8 -4.65 17.44453125 0.0908203125 16.9 4 16.8861328125 4.065625 16.85 4.1 15.7603515625 15.616796875 3.05 19.95
L 3.1 19.9
Q -2.6326171875 21.560546875 -7.75 19.1
L -7.6 19.15
Q -17.842578125 12.691796875 -17.4 3.45 -16.7109375 -1.0279296875 -15.8 -5.1 -15.2990234375 -7.1427734375 -14.75 -9.1
L -14.65 -9.45
Q -14.5974609375 -9.6119140625 -14.55 -9.8 -14.376953125 -10.4140625 -14.2 -11.05 -14.1177734375 -11.2125 -14.1 -11.4
L -14.05 -11.4
Q -11.9736328125 -17.192578125 -6.95 -20.25
L -7 -20.25
Q -1.2203125 -23.706640625 5.1 -21.65 11.4658203125 -19.561328125 14.6 -13.25 Z"/>

<path fill="#9EDBF8" stroke="none" d="
M 14.6 -13.3
L 14.6 -13.25
Q 11.4658203125 -19.561328125 5.1 -21.65 -1.2203125 -23.706640625 -7 -20.25
L -6.95 -20.25
Q -11.9736328125 -17.192578125 -14.05 -11.4
L -14.1 -11.4
Q -14.1177734375 -11.2125 -14.2 -11.05 -14.376953125 -10.4140625 -14.55 -9.8 -14.5974609375 -9.6119140625 -14.65 -9.45
L -14.75 -9.1
Q -15.2990234375 -7.1427734375 -15.8 -5.1 -16.7109375 -1.0279296875 -17.4 3.45 -17.842578125 12.691796875 -7.6 19.15
L -7.75 19.1
Q -2.6326171875 21.560546875 3.1 19.9
L 3.05 19.95
Q 15.7603515625 15.616796875 16.85 4.1 16.8861328125 4.065625 16.9 4 17.44453125 0.0908203125 16.8 -4.65 16.6583984375 -5.9748046875 16.4 -7.4 16.312109375 -7.805078125 16.2 -8.25 16.17109375 -8.456640625 16.15 -8.7 15.707421875 -11.0302734375 14.6 -13.3 Z"/>
</g>

<g id="RD_FrontLeg_3_4_upper_20_Layer1_0_FILL">
<path fill="#9EDBF8" stroke="none" d="
M 5.5 -1.05
L -5.95 -1.05
Q -23.45 30.8 -32.7 58.35
L 11.65 62.95
Q 12.4 41.65 5.5 -1.05 Z"/>
</g>

<g id="RD_HoofWrinkle_2_Layer0_0_FILL">
<path fill="#6DABDD" stroke="none" d="
M -6.15 0.85
Q -6.28046875 0.943359375 -6.4 1.05
L -6.05 1
Q 0.4029296875 -1.28125 5.95 0.8
L 6.4 0.9
Q 6.229296875 0.7560546875 6.05 0.6 3.57890625 -1.2400390625 -0.2 -1.1 -3.897265625 -1.0052734375 -6.15 0.85 Z"/>
</g>

<g id="RD_Torso_0_Layer1_0_FILL">
<path fill="#6DABDD" stroke="none" d="
M 23.2 -25.3
L 23.15 -25.3
Q 13.6134765625 -36.3685546875 0.1 -36.35 -13.413671875 -36.3685546875 -23 -25.3
L -23 -25.3
Q -33.85 -12.65 -33.5 1.85 -33 18.5 -26.15 26.5 -21.66640625 31.7732421875 -13.9 34.5 -7.2111328125 36.9048828125 0.1 36.9 17.13203125 36.8990234375 25.65 26.85 28.45 23.6 30.65 17.8 33.45 10.3 33.7 1.85 34.05 -12.65 23.2 -25.3
M 0.1 -33.35
Q 12.2779296875 -33.331640625 20.9 -23.35
L 20.9 -23.35 20.9 -23.35
Q 30.45 -12.15 30.7 1.85 30.95 16.1 23.35 24.9 15.568359375 33.90078125 0.1 33.9 -6.6890625 33.8951171875 -12.9 31.65 -19.83359375 29.2265625 -23.85 24.55 -30.2 17 -30.5 1.15 -30.7 -11.65 -20.7 -23.35
L -20.75 -23.35 -20.7 -23.35
Q -12.069921875 -33.331640625 0.1 -33.35 Z"/>

<path fill="#F4B6D1" stroke="none" d="
M -20.7 -23.35
L -20.7 -23.35 -20.75 -23.35 -20.7 -23.35
M 20.9 -23.35
L 20.9 -23.35 20.9 -23.35 20.9 -23.35 Z"/>

<path fill="#9EDBF8" stroke="none" d="
M 20.9 -23.35
Q 12.2779296875 -33.331640625 0.1 -33.35 -12.069921875 -33.331640625 -20.7 -23.35
L -20.7 -23.35
Q -30.7 -11.65 -30.5 1.15 -30.2 17 -23.85 24.55 -19.83359375 29.2265625 -12.9 31.65 -6.6890625 33.8951171875 0.1 33.9 15.568359375 33.90078125 23.35 24.9 30.95 16.1 30.7 1.85 30.45 -12.15 20.9 -23.35
L 20.9 -23.35 Z"/>
</g>

<g id="RD_Prun_Mane_cycle_8_Layer0_0_FILL">
<path fill="#1D9AD6" stroke="none" d="
M 31.05 -49.4
Q 24.2 -48.55 17.65 -47.05 11.15 -45.55 5.5 -43.95 -0.15 -42.35 -4.5 -41.05 -9.35 -39.65 -13 -38.85 -16.65 -38.05 -19.5 -37.7 -22.35 -37.35 -24.9 -37.4 -22.35 8.15 -19.3 53.7 -13.3 52.25 -7.8 50.35 -2.25 48.4 2.85 46.1 7.85 43.8 11.85 41.5 15.8 39.2 19.45 36.95 24.4 33.8 28.2 31.2 32 28.6 35.3 26.35 38.6 24.15 42.1 22.25 47.35 19.45 53.05 17.4 58.8 15.35 65.15 14.35 69.4 13.65 73.75 13.35 78.1 13.1 82.3 13.25 86.5 13.45 90.25 14.1 87.3 11.35 83.45 8.95 79.6 6.5 75.15 4.45 70.7 2.45 65.9 0.8 61.15 -0.75 56.35 -1.85 63.2 -4.2 70.65 -5.45 78.1 -6.7 85.95 -6.8 89.9 -6.85 93.95 -6.4 98 -5.95 102.2 -4.8 106.45 -3.7 110.7 -1.5 112.1 -0.8 113.55 0.15 114.9 1.05 116.2 1.9 117.45 2.7 118.45 3.3 117.8 1.9 117.1 0.4 116 -1.4 114.85 -3.25 113.65 -4.95 112.35 -6.6 111 -8.3 109.65 -9.8 106.85 -12.8 103.85 -15.4 100.85 -18 97.7 -20.15 91.5 -24.55 85.1 -28 78.75 -31.4 71.9 -34.1 78.15 -35.25 84.6 -35.95 91.05 -36.6 98.15 -36.2 105.3 -35.85 113.45 -33.95 106.05 -38.15 99.2 -40.85 92.35 -43.65 85.8 -45.4 79.2 -47.2 72.45 -48.4 62.3 -50.25 51.8 -50.45 41.3 -50.7 31.05 -49.4 Z"/>
</g>

<g id="RD_Prun_Mane_cycle_8_Layer0_1_FILL">
<path fill="#672E8A" stroke="none" d="
M 56.35 -1.9
Q 63.05 -4.35 70.35 -5.8 58.85 -6.65 47.8 -4.85 36.7 -3.05 26.25 1.1 21.1 3.15 15.75 5.6 10.4 8.05 4.65 10.5 -1.05 12.95 -7.25 14.95 -13.5 16.95 -20.3 18.1 -19.6 35.9 -19.35 53.7 -13.3 52.25 -7.8 50.3 -2.3 48.4 2.85 46.1 7.8 43.8 11.85 41.5 15.85 39.2 19.4 36.95 24.4 33.8 28.2 31.2 32 28.55 35.3 26.35 38.6 24.15 42.15 22.25 47.35 19.45 53.05 17.4 58.8 15.35 65.15 14.3 69.4 13.6 73.75 13.35 78.1 13.1 82.3 13.25 86.5 13.45 90.25 14.1 87.3 11.35 83.45 8.9 79.6 6.45 75.15 4.45 70.65 2.4 65.9 0.8 61.1 -0.8 56.35 -1.9 Z"/>
</g>

<g id="RD_Prun_Mane_cycle_8_Layer0_2_FILL">
<path fill="#62BC4E" stroke="none" d="
M 31.05 -49.4
Q 24.2 -48.55 17.65 -47.05 11.15 -45.55 5.5 -43.95 -0.15 -42.35 -4.5 -41.05 -9.35 -39.65 -13 -38.85 -16.65 -38.05 -19.5 -37.7 -22.35 -37.35 -24.9 -37.4
L -23.2 -8.1
Q -17.35 -8.75 -11.45 -10.6 -5.5 -12.45 0.75 -14.95 7.05 -17.4 14 -20 20.95 -22.6 28.8 -24.75 39.25 -27.45 50.05 -28.2 60.8 -28.95 71.7 -27.75 82.55 -26.45 93.25 -23.2 88.1 -26.45 82.8 -29.15 77.5 -31.9 71.9 -34.1 78.15 -35.25 84.6 -35.95 91.05 -36.6 98.15 -36.2 105.3 -35.85 113.45 -33.95 106.05 -38.15 99.2 -40.85 92.35 -43.65 85.8 -45.4 79.2 -47.2 72.45 -48.4 62.3 -50.25 51.8 -50.45 41.3 -50.7 31.05 -49.4 Z"/>
</g>

<g id="RD_Prun_Mane_cycle_8_Layer0_3_FILL">
<path fill="#1D9AD6" stroke="none" d="
M 68.15 -51.9
Q 62.2 -52.95 57.1 -53.4 51.95 -53.9 48.3 -53.75 45.85 -53.8 42.15 -53.6 38.5 -53.45 33.9 -52.9 29.35 -52.4 24.2 -51.35 20.4 -50.65 16.4 -49.7 12.45 -48.7 8.5 -47.55 6.2 -46.85 3.8 -46.1 1.4 -45.4 -0.75 -44.7 -2.9 -44 -4.5 -43.45 -10.5 -41.55 -14.4 -40.55 -18.3 -39.5 -20.5 -39.2 -22.9 -38.9 -24.2 -38.8 -25.5 -38.75 -26 -38.7 -24.35 -15.5 -22.8 7.7 -21.25 30.85 -19.4 54.05
L -17.15 53.55
Q -15 53.1 -11.2 52.1 -7.4 51.05 -2.5 49.3 1.2 47.95 5.05 46.3 8.9 44.6 12.5 42.75 16 40.9 19.4 38.95 21 38.2 22.05 37.55 23.1 36.9 23.95 36.3 24.9 35.75 26 35.05 30 32.55 33.3 30.5 36.6 28.45 39.55 26.8 42.5 25.15 45.55 23.75 48.45 22.45 51 21.55 53.55 20.6 55.6 19.95 57.6 19.3 58.9 18.9 61.4 18.05 64.9 17.1 68.35 16.2 72.25 15.45 76.1 14.7 79.85 14.35 83.55 13.95 86.35 13.9 89.2 13.9 90.8 14 92.4 14.1 92.45 14.1
L 91.4 12.95
Q 90.4 11.75 88.2 9.95 86 8.05 82.55 6.05 79.15 4 75.05 2.25 70.9 0.55 66.7 -0.6 62.55 -1.75 58.85 -2.05 62.55 -2.65 67.1 -3.25 71.7 -3.9 76.8 -4.3 81.95 -4.75 87.35 -4.65 92.7 -4.55 98 -3.65 101.45 -3.1 104.8 -1.9 108.1 -0.65 111 0.8 113.8 2.3 115.9 3.7 118.8 5.35 120.45 6.3 122.05 7.25 122.1 7.25
L 121.45 5.7
Q 120.75 4.25 119.55 1.6 119.15 0.45 118 -1.55 116.9 -3.5 115.3 -5.75 113.75 -7.9 111.9 -10 110.05 -12.1 107.95 -14.1 103.7 -18.1 99.05 -21.3 94.4 -24.5 89.75 -27 85.05 -29.45 80.75 -31.15 76.45 -32.85 72.9 -33.8 76.4 -34 80.95 -34.2 85.55 -34.4 90.8 -34.4 96.1 -34.35 101.6 -33.65 105.7 -33.25 109.55 -32.3 113.35 -31.4 116.5 -30.35 119.55 -29.3 121.4 -28.55 123.2 -27.75 123.2 -27.7 123.2 -27.75 122.05 -28.7 120.85 -29.7 118.7 -31.3 116.5 -32.95 113.55 -34.85 109.1 -37.7 103.6 -40.4 98.1 -43.1 92.2 -45.3 86.4 -47.55 80.25 -49.2 74.05 -50.85 68.15 -51.9
M 4.45 -42
Q 7.1 -42.8 9.7 -43.45 18.4 -45.8 27.65 -47.3 37.25 -48.75 46.85 -48.9 56.35 -49.05 65.95 -47.8 72.35 -46.95 78.4 -45.6 84.55 -44.25 90.65 -42.3 96.85 -40.3 103.3 -37.45 96.35 -38.15 90.1 -37.85 83.8 -37.65 77.95 -36.75 72.05 -35.85 66.3 -34.5 73.15 -32.15 79.55 -29.05 85.9 -25.95 92 -22.15 96.05 -19.6 100.05 -16.5 104.05 -13.45 107.65 -9.65 111.3 -5.85 114.25 -1.25 109.75 -3.95 105.4 -5.5 100.95 -7 96.7 -7.65 92.45 -8.25 88.35 -8.3 84.2 -8.35 80.3 -8.2 72.35 -7.6 64.9 -5.9 57.4 -4.15 50.65 -1.35 56.9 -0.35 63.05 1.5 69.2 3.4 74.8 6.05 80.4 8.65 85.15 11.9 81.3 11.6 77.2 11.7 73.05 11.75 69 12.2 64.9 12.7 61.05 13.6 55.3 14.8 49.9 16.95 44.55 19.05 39.8 21.85 36.2 23.75 32.15 26.6 28.1 29.4 23.3 32.7 18.45 36 12.5 39.4 6.55 42.8 -0.9 45.95 -8.3 49.05 -17.45 51.55 -21 7.9 -24.15 -35.85 -21.6 -35.8 -18.85 -36.2 -16.1 -36.55 -12.65 -37.3 -9.2 -38.1 -4.65 -39.35 -2.85 -39.85 -0.5 -40.55 1.85 -41.25 4.45 -42 Z"/>
</g>

<g id="RD_Neck_0_Layer0_0_FILL">
<path fill="#F4B6D1" stroke="none" d="
M -8.5 -95
L -9.05 -95.1 -9.05 -95.05 -8.5 -95
M 17.15 -95.1
L 17.65 -95.1 17.65 -95.15 17.15 -95.1 Z"/>

<path fill="#9EDBF8" stroke="none" d="
M 17.1 -93.6
L 17.15 -95.1 17.65 -95.15
Q 17.35 -105.8 4.4 -107.35 -8.35 -106.95 -9.05 -95.1
L -8.5 -95 -8.6 -93.5
Q -9 -84.8 -14.05 -36.5 -15 -27.3 -15.7 -19.6
L -15.8 -18.7 -15.8 -18.65 -15.85 -18.1
Q -16.3 -13.5 -18.2 -8 -18.39453125 -5.665625 -1.15 -0.05 24.5900390625 -5.5109375 24.5 -7.4 22.65 -12.8 22.35 -17.25
L 22.35 -17.4 22.25 -18.75
Q 21.65 -26.9 20.8 -36.7 16.9 -82.4 17.1 -93.6 Z"/>

<path fill="#6DABDD" stroke="none" d="
M 4.65 -109.35
Q 4.55 -109.35 4.5 -109.35 -10.35 -108.95 -11.05 -95.15
L -11.5 -95.15 -11.6 -93.65
Q -12 -85 -17.05 -36.8 -18 -27.6 -18.7 -19.85
L -18.85 -18.4
Q -18.85 -18.35 -18.85 -18.25 -19.3 -13.65 -18.2 -8 -16.3 -13.5 -15.85 -18.1
L -15.8 -18.65 -15.8 -18.7 -15.7 -19.6
Q -15 -27.3 -14.05 -36.5 -9 -84.8 -8.6 -93.5
L -8.5 -95 -9.05 -95.05 -9.05 -95.1
Q -8.35 -106.95 4.4 -107.35 17.35 -105.8 17.65 -95.15
L 17.65 -95.1 17.15 -95.1 17.1 -93.6
Q 16.9 -82.4 20.8 -36.7 21.65 -26.9 22.25 -18.75
L 22.35 -17.4 22.35 -17.25
Q 22.65 -12.8 24.5 -7.4 25.65 -12.95 25.35 -17.35 25.35 -17.4 25.35 -17.45
L 25.25 -18.95
Q 24.65 -27.1 23.8 -36.95 19.9 -82.4 20.1 -93.55
L 20.15 -95.05 19.65 -95.05
Q 19.55 -107.6 4.65 -109.35 Z"/>
</g>

<g id="Wingcycle_5_Layer8_0_FILL">
<path fill="#9EDBF8" stroke="none" d="
M 10.5 4.45
Q 7.9951171875 2.2798828125 7.65 1.95 5.5701171875 0.2498046875 4.2 -0.55 1.162109375 -0.344921875 -0.25 2.2 -0.8505859375 3.3072265625 -1.6 4.4 -1.9630859375 4.6068359375 -2.5 4.8 -0.0783203125 13.8912109375 -1.35 25 -1.8587890625 28.7435546875 -3 38.45 -6.5578125 67.74296875 0.3 100.5 0.682421875 102.2609375 1 103.35 3.99609375 112.78515625 10.25 119.5 16.059765625 125.448828125 21.55 124.8 23.481640625 124.361328125 24.3 123.15 24.834375 121.471484375 23.85 119.65 20.308984375 113.1267578125 14.75 99.7 9.0125 83.6923828125 7.95 77.1 6.72109375 69.6240234375 5.5 62.95 6.692578125 66.1708984375 8.1 69.3 20.3642578125 104.3408203125 31.3 113.35 35.2791015625 117.054296875 41.7 117.75 47.7587890625 118.319140625 47.55 114.9 46.9412109375 112.7546875 29.05 85.7 10.86171875 55.8673828125 9.1 49.5 11.113671875 51.7470703125 13.05 54.7 19.825 64.813671875 32 79.05 40.1912109375 87.7611328125 44.25 90.1 47.76640625 92.339453125 49.85 92.8 52.158984375 93.183203125 53.85 90.95 55.508984375 88.6189453125 53.05 84.35 50.847265625 80.8794921875 45.1 74 37.4271484375 65.1951171875 33.2 59.7 25.4974609375 49.7626953125 20.6 41.2 20.2431640625 40.8634765625 20.25 40.7 20.0302734375 40.625 20.15 40.45 17.9041015625 35.7123046875 17.2 34.65 17.722265625 35.2716796875 23.25 41.9 28.5759765625 47.183984375 34.9 54.95 41.7630859375 62.027734375 42.6 57.3 43.6359375 51.0693359375 38.9 44.4 30.975390625 34.2890625 25.6 26.2 19.765625 17.5341796875 17.05 11.95 13.045703125 6.6642578125 10.5 4.45 Z"/>

<path fill="#6DABDD" stroke="none" d="
M 3.2 -1.4
Q 3.5982421875 -1.074609375 4.2 -0.55 5.5701171875 0.2498046875 7.65 1.95 7.9951171875 2.2798828125 10.5 4.45 13.045703125 6.6642578125 17.05 11.95 19.765625 17.5341796875 25.6 26.2 30.975390625 34.2890625 38.9 44.4 43.6359375 51.0693359375 42.6 57.3 41.7630859375 62.027734375 34.9 54.95 28.5759765625 47.183984375 23.25 41.9 17.722265625 35.2716796875 17.2 34.65 17.9041015625 35.7123046875 20.15 40.45 20.0302734375 40.625 20.25 40.7 20.2431640625 40.8634765625 20.6 41.2 25.4974609375 49.7626953125 33.2 59.7 37.4271484375 65.1951171875 45.1 74 50.847265625 80.8794921875 53.05 84.35 55.508984375 88.6189453125 53.85 90.95 52.158984375 93.183203125 49.85 92.8 47.76640625 92.339453125 44.25 90.1 40.1912109375 87.7611328125 32 79.05 19.825 64.813671875 13.05 54.7 11.113671875 51.7470703125 9.1 49.5 10.86171875 55.8673828125 29.05 85.7 46.9412109375 112.7546875 47.55 114.9 47.7587890625 118.319140625 41.7 117.75 35.2791015625 117.054296875 31.3 113.35 20.3642578125 104.3408203125 8.1 69.3 6.692578125 66.1708984375 5.5 62.95 6.72109375 69.6240234375 7.95 77.1 9.0125 83.6923828125 14.75 99.7 20.308984375 113.1267578125 23.85 119.65 24.834375 121.471484375 24.3 123.15 23.481640625 124.361328125 21.55 124.8 16.059765625 125.448828125 10.25 119.5 3.99609375 112.78515625 1 103.35 0.682421875 102.2609375 0.3 100.5 -6.5578125 67.74296875 -3 38.45 -1.8587890625 28.7435546875 -1.35 25 -0.0783203125 13.8912109375 -2.5 4.8 -2.5216796875 4.348046875 -2.6 4.5 -2.6080078125 4.65 -2.65 4.8 -3.148828125 14.7224609375 -4.2 24.85 -4.439453125 26.880078125 -4.7 28.9 -10.6775390625 67.7916015625 -1.9 100.85 -1.3869140625 102.841015625 -0.85 104.4 2.7142578125 113.98203125 9.5 121.3 15.6654296875 127.5802734375 22.35 126.4 25.256640625 125.7517578125 26.05 124 27.131640625 121.863671875 25.75 118.9 10.4251953125 85.144921875 10.45 80.9 17.075 97.341015625 21.7 104.65 25.833203125 111.46171875 29.8 114.6 33.5826171875 117.6818359375 36.75 118.8 41.6265625 120.5541015625 47.5 119.4 48.6205078125 119.0453125 49.55 117.8 50.1671875 116.1365234375 49.7 114.05 48.1111328125 110.1771484375 37.4 95.3 22.7677734375 74.1306640625 16.65 62.5 37.726953125 88.6994140625 43.55 92.45 51.67578125 97.572265625 56.15 92.65 59.6966796875 88.46640625 47.95 74.5 32.764453125 57.4158203125 28.5 49.9 28.321484375 49.3625 30.7 52.8 33.89375 56.7890625 36.7 59.2 40.0892578125 62.0087890625 41.85 62.05 43.7404296875 61.789453125 44.85 58.7 45.7439453125 55.2767578125 44.55 50.75 42.9037109375 45.6078125 39.45 41.8 33.9955078125 35.87265625 23.85 19.65 23.7126953125 19.6072265625 23.75 19.55 21.4361328125 14.4931640625 17.75 9.25 15.8494140625 6.4873046875 12.6 3.65 8.6458984375 0.15859375 3.2 -1.4 Z"/>
</g>

<g id="RD_Skull_2_Layer0_0_FILL">
<path fill="#6DABDD" stroke="none" d="
M 6.5 -52
Q 3.8232421875 -52.20390625 0.9 -52.25 -3.4978515625 -52.3205078125 -7.7 -51.65 -12.3541015625 -50.8947265625 -16.75 -49.2 -18.8431640625 -48.379296875 -20.75 -47.4 -26.1625 -44.578125 -30.1 -40.4 -30.1439453125 -40.3251953125 -30.25 -40.25 -30.637890625 -39.783203125 -31.05 -39.3 -31.219921875 -39.1001953125 -31.4 -38.9 -31.4419921875 -38.85 -31.5 -38.8 -32.3697265625 -37.730078125 -33.2 -36.65 -46.1 -20.0744140625 -46.1 -1.1 -46.1 11.3 -43.4 20.4 -40.6 29.75 -34.65 36.5 -27.65 44.55 -18.5 48.75 -9.25 53.05 1.5 53.05 22.65 53.05 37 36.5 42.8 29.9 45.45 20.1 47.85 11.1 47.9 -1.7 47.8548828125 -21.3345703125 36.05 -36.65 35.2205078125 -37.7357421875 34.3 -38.8 34.2921875 -38.8501953125 34.25 -38.9 33.8369140625 -39.4025390625 33.4 -39.9 33.247265625 -40.076171875 33.1 -40.25 33.019921875 -40.3251953125 32.95 -40.4 29.2015625 -44.5505859375 24.15 -47.25 20.981640625 -48.9029296875 17.3 -50 13.7369140625 -51.0845703125 9.45 -51.65 8.0302734375 -51.842578125 6.5 -52
M 30.35 -38.8
Q 30.7716796875 -38.38359375 31.15 -37.95 31.7154296875 -37.3041015625 32.25 -36.65 44.8521484375 -21.4498046875 44.9 -1.7 44.85 10.45 42.6 18.95 40.15 28.25 34.75 34.55 21.25 50.05 1.5 50.05 -8.55 50.05 -17.25 46.05 -25.8 42.1 -32.4 34.55 -38 28.1 -40.6 19.25 -43.1 10.65 -43.1 -1.1 -43.1 -20.5748046875 -29.4 -36.65 -29.10546875 -37.00078125 -28.8 -37.35 -28.15 -38.0984375 -27.5 -38.8 -27.4234375 -38.8501953125 -27.4 -38.9 -26.6900390625 -39.5982421875 -26 -40.25 -25.883984375 -40.325390625 -25.8 -40.4 -23.431640625 -42.5267578125 -20.75 -44.15 -17.675390625 -45.96484375 -14.2 -47.15 -7.25 -49.55 0.9 -49.25 10.95 -48.85 16.65 -47.2 20.4560546875 -46.0625 23.7 -44.15 26.42265625 -42.547265625 28.75 -40.4 28.8318359375 -40.325390625 28.9 -40.25 29.6146484375 -39.5994140625 30.25 -38.9 30.3234375 -38.85 30.35 -38.8 Z"/>

<path fill="#9EDBF8" stroke="none" d="
M 31.15 -37.95
Q 30.7716796875 -38.38359375 30.35 -38.8 30.3234375 -38.85 30.25 -38.9 29.6146484375 -39.5994140625 28.9 -40.25 28.8318359375 -40.325390625 28.75 -40.4 26.42265625 -42.547265625 23.7 -44.15 20.4560546875 -46.0625 16.65 -47.2 10.95 -48.85 0.9 -49.25 -7.25 -49.55 -14.2 -47.15 -17.675390625 -45.96484375 -20.75 -44.15 -23.431640625 -42.5267578125 -25.8 -40.4 -25.883984375 -40.325390625 -26 -40.25 -26.6900390625 -39.5982421875 -27.4 -38.9 -27.4234375 -38.8501953125 -27.5 -38.8 -28.15 -38.0984375 -28.8 -37.35 -29.10546875 -37.00078125 -29.4 -36.65 -43.1 -20.5748046875 -43.1 -1.1 -43.1 10.65 -40.6 19.25 -38 28.1 -32.4 34.55 -25.8 42.1 -17.25 46.05 -8.55 50.05 1.5 50.05 21.25 50.05 34.75 34.55 40.15 28.25 42.6 18.95 44.85 10.45 44.9 -1.7 44.8521484375 -21.4498046875 32.25 -36.65 31.7154296875 -37.3041015625 31.15 -37.95 Z"/>
</g>

<g id="RD_Mouth_front_chin__offcenter_0_Layer1_0_FILL">
<path fill="#9EDBF8" stroke="none" d="
M 37 3
Q 35.4482421875 1.9125 32.5 3.5 11.965625 12.7740234375 -7.2 2.65 -15.0669921875 10.61171875 -30.45 4.2 -34.428515625 2.26328125 -35.1 3.05 -26.379296875 13.5955078125 -14.6 17.85 3.9671875 24.438671875 20.35 16.8 31.5595703125 11.51484375 37 3 Z"/>
</g>

<g id="RD_Hair_07_9_Layer0_0_FILL">
<path fill="#FDF6AE" stroke="none" d="
M 8.55 -0.95
Q 6.398046875 -3.252734375 4 -5.7 1.6525390625 -8.1046875 -7.5 -14.6 -5.7623046875 -3.8810546875 -4.15 6 -0.330078125 1.0494140625 6.3 1.75 10.7513671875 1.3603515625 8.55 -0.95 Z"/>

<path fill="#1E98D5" stroke="none" d="
M 4 -5.7
Q 6.398046875 -3.252734375 8.55 -0.95 10.7513671875 1.3603515625 6.3 1.75 -0.330078125 1.0494140625 -4.15 6 -5.039453125 10.891015625 -3.65 9.65 -0.7775390625 5.3033203125 8.1 3.55 16.9814453125 1.8451171875 3.45 -9.7
L -5.35 -16.3
Q -9.184765625 -17.27734375 -7.5 -14.6 1.6525390625 -8.1046875 4 -5.7 Z"/>
</g>

<g id="RD_Ear_1_Layer1_0_FILL">
<path fill="#9EDBF8" stroke="none" d="
M 2.45 -35.95
Q 0.95 -33.9 0 -30.55 -0.8 -27.75 -2.05 -18.8
L -3.15 -10.35
Q -3.116796875 -10.236328125 -3.1 -10.15 2.44375 8.682421875 9.05 22.35 14.6 19.45 17.75 9.75 20.45 1.45 20.2 -4.95
L 20.2 -5
Q 19.9 -11.55 18.15 -17.5 16.5 -23.1 13.2 -29.1 8.85 -37.1 4.4 -37.75 3.55 -37.55 2.45 -35.95
M 9.35 -27.8
Q 14.55 -18.3 14.7 -10.15 14.8462890625 -2.0525390625 9.8 6.35 9.6794921875 6.5888671875 9.55 6.8
L 9.7 6.35
Q 15.65 -8.15 9.35 -27.8 Z"/>

<path fill="#6DABDD" stroke="none" d="
M 14.7 -10.15
Q 14.55 -18.3 9.35 -27.8 15.65 -8.15 9.7 6.35
L 9.55 6.8
Q 9.6794921875 6.5888671875 9.8 6.35 14.8462890625 -2.0525390625 14.7 -10.15
M 15.85 -30.55
Q 13 -35.75 9.45 -38.55 6.65 -40.8 4.65 -40.75
L 4.6 -40.75
Q 2.85 -41.05 0.95 -38.85 -1.1 -36.45 -2.85 -31.55 -4.3 -27.4 -4.65 -20.95 -5.0384765625 -13.7126953125 -3.3 -10.3
L -3.3 -10.3
Q -3.24765625 -10.1875 -3.2 -10.1
L -3.15 -10.35 -2.05 -18.8
Q -0.8 -27.75 0 -30.55 0.95 -33.9 2.45 -35.95 3.55 -37.55 4.4 -37.75 8.85 -37.1 13.2 -29.1 16.5 -23.1 18.15 -17.5 19.9 -11.55 20.2 -5
L 20.2 -4.95
Q 20.45 1.45 17.75 9.75 14.6 19.45 9.05 22.35
L 9.65 22.5
Q 15.5001953125 20.8228515625 19.5 11.75 23.5525390625 2.6892578125 23.2 -5.1 22.9 -12 21.05 -18.25 19.3 -24.2 15.85 -30.55 Z"/>
</g>

<g id="Mask_Mask_RD2_Eyewhite_3_4_1_Layer1_0_FILL">
<path fill="#FFFFFF" stroke="none" d="
M 19.8 -17.45
Q 18.8931640625 -19.258984375 17.7 -20.7
L 17.7 -20.65
Q 13.5314453125 -24.9595703125 7.3 -25.2 2.1509765625 -25.3900390625 -3.35 -22.8
L -3.35 -22.85
Q -5.1125 -21.846875 -6.85 -20.55 -8.8 -18.75 -10.55 -16.85 -12.1 -15.2 -13.4 -13.35 -14.85 -11.3 -16.1 -9.2 -17.35 -7 -18.45 -4.7 -19 -3.6 -19.55 -2.4 -20.067578125 -0.894921875 -20.5 0.65 -23.4314453125 11.3853515625 -19.45 19.15 -15.521484375 26.9826171875 -7.05 27.3 -6.3294921875 27.3373046875 -5.65 27.3 2.151171875 27.0375 9.6 20.25 16.1873046875 14.3169921875 19.35 6.15 20.1560546875 4.2439453125 20.75 2.2 22.1896484375 -3.109765625 21.95 -7.7 21.83984375 -13.462890625 19.8 -17.45 Z"/>
</g>

<g id="RD2_Eyewhite_3_4_1_Layer1_0_FILL">
<path fill="#FFFFFF" stroke="none" d="
M 19.8 -17.45
Q 18.8931640625 -19.258984375 17.7 -20.7
L 17.7 -20.65
Q 13.5314453125 -24.9595703125 7.3 -25.2 2.1509765625 -25.3900390625 -3.35 -22.8
L -3.35 -22.85
Q -5.1125 -21.846875 -6.85 -20.55 -8.8 -18.75 -10.55 -16.85 -12.1 -15.2 -13.4 -13.35 -14.85 -11.3 -16.1 -9.2 -17.35 -7 -18.45 -4.7 -19 -3.6 -19.55 -2.4 -20.067578125 -0.894921875 -20.5 0.65 -23.4314453125 11.3853515625 -19.45 19.15 -15.521484375 26.9826171875 -7.05 27.3 -6.3294921875 27.3373046875 -5.65 27.3 2.151171875 27.0375 9.6 20.25 16.1873046875 14.3169921875 19.35 6.15 20.1560546875 4.2439453125 20.75 2.2 22.1896484375 -3.109765625 21.95 -7.7 21.83984375 -13.462890625 19.8 -17.45 Z"/>
</g>

<g id="RD2_Iris_0_Layer2_0_FILL">
<path fill="url(#Gradient_1)" stroke="none" d="
M 17.7 -13.05
Q 13.45 -21.1 5.25 -22.95 -3 -24.85 -10.3 -19.4 -17.6 -14 -19.75 -4.45 -21.95 5.05 -17.7 13.1 -13.45 21.15 -5.2 23 3 24.85 10.3 19.45 17.6 14 19.8 4.5 21.95 -5 17.7 -13.05 Z"/>
</g>

<g id="RD2_Iris_0_Layer1_0_FILL">
<path fill="#FFB8E0" stroke="none" d="
M -6.5 7.8
Q -17.7408203125 11.0453125 -18.7 11 -17.71953125 13.7845703125 -15.6 16.55
L 0.15 6.6 -6.5 7.8 Z"/>
</g>

<g id="RD2_Iris_0_Layer0_0_FILL">
<path fill="#DB53A2" stroke="none" d="
M -20.2 5.15
Q -19.7849609375 8.212109375 -18.65 11.05
L 0.45 6.45 -20.2 5.15 Z"/>
</g>

<g id="RD2_Pupil_0_Layer0_0_FILL">
<path fill="#000000" stroke="none" d="
M 12.45 -9.6
Q 10.5203125 -15.9396484375 5.5 -17.45 0.487109375 -18.9677734375 -4.7 -14.75 -9.854296875 -10.4658203125 -12.15 -2.95 -14.402734375 4.56015625 -12.5 10.9 -10.484375 17.37421875 -5.45 18.9 -0.4265625 20.40234375 4.7 16.1 9.91484375 11.9001953125 12.15 4.4 14.43828125 -3.12578125 12.45 -9.6 Z"/>
</g>

<g id="RD2_Hilights_0_Layer1_0_FILL">
<path fill="#FFFFFF" stroke="none" d="
M -8.15 11.5
Q -8.11953125 11.614453125 -8.1 11.7 -8.0240234375 11.8134765625 -7.95 11.95 -7.7912109375 12.381640625 -7.55 12.75 -7.4705078125 12.844140625 -7.4 12.9 -7.2078125 13.113671875 -6.95 13.3 -6.50546875 13.6888671875 -6.05 13.8 -5.996875 13.8515625 -5.95 13.85 -5.6171875 13.9560546875 -5.2 13.95 -3.9484375 13.97890625 -3.4 12.75 -3.3849609375 12.698046875 -3.4 12.65 -3.1736328125 12.1291015625 -3.25 11.35 -3.259765625 11.128515625 -3.35 10.85 -3.3462890625 10.7740234375 -3.4 10.7 -3.7330078125 9.7962890625 -4.4 9.15 -4.435546875 9.108203125 -4.5 9.05 -4.72890625 8.870703125 -4.9 8.75 -5.579296875 8.305859375 -6.3 8.4 -7.123828125 8.352734375 -7.65 8.9 -7.813671875 9.0921875 -8 9.35 -8.0568359375 9.446484375 -8.1 9.55 -8.510546875 10.357421875 -8.15 11.5
M 3.85 -8.7
L 3.8 -8.75
Q 1.3921875 -11.8771484375 -1.15 -11.7 -4.233984375 -11.8736328125 -5.6 -8.2
L -5.6 -8.15
Q -6.528125 -5.45625 -5.75 -1.6 -5.0052734375 2.07265625 -3.05 4.6
L -3.05 4.6
Q -0.6041015625 7.82109375 2 7.65 5.12890625 7.837890625 6.4 4 7.375390625 1.40078125 6.6 -2.4
L 6.6 -2.45
Q 5.8041015625 -6.1376953125 3.85 -8.7 Z"/>
</g>

<g id="RD2_Iris_2_Layer2_0_FILL">
<path fill="url(#Gradient_1)" stroke="none" d="
M 17.7 -13.05
Q 13.45 -21.1 5.25 -22.95 -3 -24.85 -10.3 -19.4 -17.6 -14 -19.75 -4.45 -21.95 5.05 -17.7 13.1 -13.45 21.15 -5.2 23 3 24.85 10.3 19.45 17.6 14 19.8 4.5 21.95 -5 17.7 -13.05 Z"/>
</g>

<g id="RD2_Iris_2_Layer1_0_FILL">
<path fill="#FFB8E0" stroke="none" d="
M 13.45 16.85
Q 16.0119140625 13.9716796875 17.35 11.1 16.4345703125 11.1580078125 5.55 8.1
L -0.15 6.5 13.45 16.85 Z"/>
</g>

<g id="RD2_Iris_2_Layer0_0_FILL">
<path fill="#DB53A2" stroke="none" d="
M 17.35 11.4
Q 18.9265625 8.2283203125 19.75 5.1 9.7240234375 5.888671875 -0.25 6.5
L 17.35 11.4 Z"/>
</g>

<g id="RD2_Blink_front_0_Layer2_0_FILL">
<path fill="#000000" stroke="none" d="
M 21.9 -5.65
L 23.1 -7.3
Q 23.1501953125 -11.0392578125 22.05 -14.9 21.50234375 -16.8623046875 18.45 -20.35 15.1640625 -24.176953125 10.6 -25 1.2861328125 -26.751171875 -7.55 -20.4 -11.2509765625 -17.658984375 -14.3 -13.75 -17.4216796875 -9.651953125 -19.9 -2.9 -20.3908203125 -1.584375 -20.65 -0.25 -21.45 3.05 -21.55 5.3 -22.05 12.45 -21.05 15.3 -20.5654296875 16.36484375 -20.6 16.05 -21.7583984375 11.3294921875 -18.4 -0.35
L -17.55 -3
Q -15.6931640625 -8.214453125 -12.6 -12.2 -9.701171875 -15.798828125 -7.15 -17.95 8.8515625 -29.4330078125 18.45 -16.6 21.2458984375 -12.47421875 21.9 -5.65 Z"/>
</g>

<g id="RD2_Blink_front_0_Layer1_0_FILL">
<path fill="#000000" stroke="none" d="
M 34.5 -5.75
Q 34.45 -6.95 22.25 -8.95
L 22.65 -6.8
Q 34.55 -4.55 34.5 -5.75 Z"/>
</g>

<g id="RD2_Blink_front_0_Layer1_1_FILL">
<path fill="#000000" stroke="none" d="
M 21 -16.15
L 21.9 -14.05
Q 36.65 -16.1 36.25 -17.25 36.05 -17.8 29.15 -17.1 21.9 -16.25 21 -16.15 Z"/>
</g>

<g id="RD2_Blink_front_0_Layer1_2_FILL">
<path fill="#000000" stroke="none" d="
M 18.2 -19.05
Q 28 -25.85 26.8 -26.7 26 -27.15 16.95 -21.2
L 18.2 -19.05 Z"/>
</g>

<g id="RD2_Blink_front_100_Layer2_0_FILL">
<path fill="#000000" stroke="none" d="
M 21.9 -5.65
L 23.1 -7.3
Q 23.1501953125 -11.0392578125 22.05 -14.9 21.50234375 -16.8623046875 18.45 -20.35 15.1640625 -24.176953125 10.6 -25 1.2861328125 -26.751171875 -7.55 -20.4 -11.2509765625 -17.658984375 -14.3 -13.75 -17.4216796875 -9.651953125 -19.9 -2.9 -20.3908203125 -1.584375 -20.65 -0.25 -21.203125 2.1416015625 -21.4 5.3 -21.922265625 12.8583984375 -21.05 15.3 -20.5654296875 16.36484375 -20.6 16.05 -21.7583984375 11.3294921875 -18.4 -0.35
L -17.55 -3
Q -15.6931640625 -8.214453125 -12.6 -12.2 -9.701171875 -15.798828125 -7.15 -17.95 8.8515625 -29.4330078125 18.45 -16.6 21.2458984375 -12.47421875 21.9 -5.65 Z"/>
</g>

<g id="RD_Brow_front_1_Layer2_0_FILL">
<path fill="#9EDBF8" stroke="none" d="
M 3.1 -1.5
Q 8.665625 -11.21171875 2.1 -17.25 1.5234375 -21.40078125 -9.4 -25.45 -20.3255859375 -29.4990234375 -34.15 -13.7 -40.514453125 0.240625 -34.85 -1.55 -21.6294921875 -0.3052734375 -6.05 -1.7 -6.0109375 -1.5755859375 -6 -1.5
L 3.1 -1.5 Z"/>
</g>

<g id="RD_Lashes_02_6_Layer0_0_FILL">
<path fill="#000000" stroke="none" d="
M -0.05 5.95
L -0.3 8
Q 8.85 9.6 9.15 8.4 9.35 7.3 -0.05 5.95 Z"/>
</g>

<g id="RD_Lashes_02_6_Layer0_1_FILL">
<path fill="#000000" stroke="none" d="
M 0.25 1.75
L 0.15 3.95
Q 11.25 3.35 11.4 2.2 11.45 1.6 6.35 1.65 0.9 1.75 0.25 1.75 Z"/>
</g>

<g id="RD_Lashes_02_6_Layer0_2_FILL">
<path fill="#000000" stroke="none" d="
M 10.65 -2.75
Q 10.562890625 -3.4384765625 0.55 -2.3 -5.8814453125 -1.6576171875 -0.3 -0.1 10.7623046875 -1.566796875 10.65 -2.75 Z"/>
</g>

<g id="RD_Brow_front_1_Layer0_0_FILL">
<path fill="#000000" stroke="none" d="
M -1.1 -2
Q -3 -1.9 -15.25 -1.75 -27.6 -1.6 -30.8 -2.15 -33.65 -3.3 -33.95 -7.2
L -34 -7.2
Q -34.8 -5.2 -34.3 -2.85 -33.85 -0.55 -32.25 -0.25 -30.45 0.05 -16.45 0.3 -1.9 0.5 1 0.1 1.05 0.05 1.15 0.05 4.85 -1.3 1.05 -2.1 0.8 -2.15 -1.1 -2 Z"/>
</g>

<g id="RD_Mouth_front_hole__0_Layer4_0_FILL">
<path fill="#6DABDD" stroke="none" d="
M 10.3 3.5
L 10.25 3.45 10.25 3.5
Q 9.644140625 7.4646484375 7.15 10.1 4.3 13.15 0.05 13.2 -4.35 13.1 -6.7 10.4 -9.45 7.1 -10.5 2.9
L -10.55 2.85 -10.5 3.35
Q -10.9 7.8 -7.75 11.55 -7.5890625 11.7296875 -7.45 11.9 -4.50859375 14.9052734375 -0.25 15 4.7 15.05 7.55 12.05 10.4 8.95 10.3 3.5 Z"/>
</g>

<g id="RD_Mouth_front_nostril__0_Layer2_0_FILL">
<path fill="#6DABDD" stroke="none" d="
M -7.35 3.35
Q -6.7 5.05 -3.5 4.15 -5.65 3.2 -6 2.3 -6.5 1.25 -6.2 -0.15 -8 1.9 -7.35 3.35
M 4.05 4
Q 6.9 4.85 7.7 3.2 8.4 1.6 6.75 -0.3 7 1.05 6.55 2.1 6.15 3.1 4.05 4 Z"/>
</g>

<g id="RD_Cheek_0_Layer1_0_FILL">
<path fill="#9EDBF8" stroke="none" d="
M -13.65 -3.75
Q -16.0267578125 -3.7431640625 -18.3 -3.7 -20.0263671875 -3.6904296875 -20.9 -3.8 -21.223046875 -3.733984375 -21.55 -3.7
L -20.55 -1.2
Q -20.5072265625 -1.092578125 -20.45 -1
L -18 5.3
Q -0.6107421875 15.3609375 11.3 8.45 14.9248046875 5.441796875 14.75 2.15 13.9091796875 2.18671875 12.85 2 11.7677734375 1.863671875 10.45 1.45 9.4078125 1.183203125 8.2 0.75 -4.2572265625 -4.6009765625 -13.65 -3.75 Z"/>

<path fill="#6DABDD" stroke="none" d="
M -18.3 -3.7
Q -16.0267578125 -3.7431640625 -13.65 -3.75 -4.2572265625 -4.6009765625 8.2 0.75 9.4078125 1.183203125 10.45 1.45 11.7677734375 1.863671875 12.85 2 13.9091796875 2.18671875 14.75 2.15 14.90078125 2.1408203125 15.05 2.1 14.90234375 2.0078125 14.75 1.9 14.6515625 1.8080078125 14.55 1.7 13.4794921875 0.9662109375 12.35 0.4 -2.715234375 -6.280859375 -14.1 -5.55 -17.2962890625 -5.154296875 -20.3 -4.9
L -20.35 -4.85
Q -22.91953125 -4.0283203125 -20.9 -3.8 -20.0263671875 -3.6904296875 -18.3 -3.7 Z"/>
</g>

<g id="RD_Cheek_0_Layer0_0_FILL">
<path fill="#6DABDD" stroke="none" d="
M -18 -1.55
L -17.9 -1.35
Q -17.54609375 -1.069921875 -16.4 -0.6
L -16.4 -0.6
Q -13.845703125 0.619140625 -10.8 1.65
L -7.85 2.15
Q -12.6994140625 -0.2359375 -14.55 -1.05 -17.6279296875 -1.697265625 -18 -1.55 Z"/>
</g>

<g id="RD_Wrinkle_0_Layer0_0_FILL">
<path fill="#6DABDD" stroke="none" d="
M 6.4 0.9
Q 6.229296875 0.7560546875 6.05 0.6 3.57890625 -1.2400390625 -0.2 -1.1 -3.897265625 -1.0052734375 -6.15 0.85 -6.28046875 0.943359375 -6.4 1.05
L -6.05 1
Q 0.6 0 5.95 0.8
L 6.4 0.9 Z"/>
</g>

<g id="RD_Hair_01_19_Layer3_0_FILL">
<path fill="#1E98D5" stroke="none" d="
M 16.85 -5.25
L 13.4 -4.25
Q 0.05 -0.65 -11.3 6.2 -12.45 6.95 -13.55 7.65 -33.95 20.75 -47.9 44.55 -48.75 36.35 -47.85 28.1 -43.6 4.45 -32.35 -14.5
L -30.05 -18.1 -30.15 -18.2
Q -43.1 -3.9 -48.55 17.15 -49.9 21.85 -50.55 26.6 -52.2 37.95 -50.3 49.45
L -49.7 53.65 -49.6 53.65 -47.5 49.9
Q -33.35 23.95 -11.95 10.2
L -11.9 10.15
Q 1.5 1.4 12.85 -2.05 14.15 -2.55 15.6 -2.95 21.3 -4.75 27 -6.1 21.95 -6.25 16.85 -5.25
M 35.75 -28.15
Q 36.9 -29.3 35 -31.9 33.3 -33.25 31.65 -34.45 28.95 -36.45 26.4 -38.05 24.1 -39.6 22 -40.8 19.95 -40.2 18.05 -39.6 18.6 -39.25 19.25 -38.95 19.5 -38.8 19.9 -38.6 20 -38.5 20.2 -38.4 22.7 -36.95 25.35 -35.3 28.4 -33.25 31.65 -30.9 33.3 -29.7 35.75 -28.15 Z"/>

<path fill="#F37033" stroke="none" d="
M 19.9 -38.6
Q 19.5 -38.8 19.25 -38.95 18.6 -39.25 18.05 -39.6 -6.9 -52.4 -29.45 -18.95
L -29.5 -18.9
Q -29.551171875 -18.823046875 -29.6 -18.75 -29.7640625 -18.523046875 -29.95 -18.3
L -30.05 -18.1 -32.35 -14.5
Q -43.6 4.45 -47.85 28.1 -48.75 36.35 -47.9 44.55 -33.95 20.75 -13.55 7.65 -12.45 6.95 -11.3 6.2 3.7 -20.85 19.9 -38.6 Z"/>

<path fill="#FDF6AE" stroke="none" d="
M 31.65 -30.9
Q 28.4 -33.25 25.35 -35.3 22.7 -36.95 20.2 -38.4 20 -38.5 19.9 -38.6 3.7 -20.85 -11.3 6.2 0.05 -0.65 13.4 -4.25
L 16.85 -5.25
Q 21.95 -6.25 27 -6.1 28.75 -6.5 30.55 -6.85 32.85 -7.35 35.05 -7.75 37 -11.45 35.7 -13.05
L 35.75 -28.15
Q 33.3 -29.7 31.65 -30.9 Z"/>
</g>

<g id="RD_Hair_01_19_Layer2_0_FILL">
<path fill="#1E98D5" stroke="none" d="
M -34 -5.1
Q -34 -5.1361328125 -33.95 -5.2
L -35.1 -4.5 -34 -5.1
M -48 -2.5
Q -47.35 -3.95 -46.55 -5.4 -40.55 -18.75 -29.55 -28.6 -28.95 -29.1 -28.35 -29.65 -20.6 -36.4 -15.05 -40.2 -12.45 -42.1 -10.3 -43.35
L -5.5 -46.1
Q -9.4 -45.2 -13.6 -42.95 -15.85 -41.75 -19.2 -39.65 -19.3 -39.6 -19.35 -39.6 -41.4 -24.8 -50.7 -4.95 -54.25 2.45 -57.3 21.5 -46.6 6.55 -43.15 3.1 -38.65 -1.15 -34.1 -5 -49.75 5.6 -53.3 10.9 -51.05 3.85 -48 -2.5
M 27.4 -34.7
Q 28.9 -35.05 30.5 -35.35 28.4 -36.75 26.45 -38.1 25.7 -38.6 25 -39.05 23.45 -40 22.05 -40.85 21.85 -40.9 21.75 -41.05
L 21.7 -41
Q 17.4 -43.45 13.25 -45.2
L 4 -45.2
Q 6.6 -44.5 9.35 -43.5 9.95 -43.3 10.55 -43.05 14.25 -41.6 18.1 -39.6 18.1 -39.55 18.15 -39.5
L 19.8 -38.7 19.85 -38.65 27.4 -34.7 Z"/>

<path fill="#F37033" stroke="none" d="
M 19.8 -38.7
L 18.15 -39.5
Q 18.1 -39.55 18.1 -39.6 14.25 -41.6 10.55 -43.05 9.95 -43.3 9.35 -43.5 -18.6 -28.15 -46.55 -5.4 -47.35 -3.95 -48 -2.5 -51.05 3.85 -53.3 10.9 -49.75 5.6 -34.1 -5 -34.05 -5.05 -34 -5.1
L -35.1 -4.5 -33.95 -5.2
Q -34 -5.1361328125 -34 -5.1
L -33.9 -5.2
Q -11.95 -23.85 19.8 -38.7 Z"/>

<path fill="#EE4144" stroke="none" d="
M 9.35 -43.5
Q 6.6 -44.5 4 -45.2 -3.55 -47.1 -5.5 -46.1
L -10.3 -43.35
Q -12.45 -42.1 -15.05 -40.2 -20.6 -36.4 -28.35 -29.65 -28.95 -29.1 -29.55 -28.6 -40.55 -18.75 -46.55 -5.4 -18.6 -28.15 9.35 -43.5 Z"/>
</g>

<g id="RD_Hair_01_19_Layer1_0_FILL">
<path fill="#EE4144" stroke="none" d="
M 3.6 -43.4
Q 8.75 -43.5 8.8 -43.5 3.25 -45.55 -2.25 -46.45 -3.7 -46.65 -5.15 -46.75 -12.9 -47.2 -21.1 -44.55 -30.05 -41.65 -35.9 -36.1 -21.75 -41.1 -10.7 -42.1 -1.6 -43.3 3.6 -43.4 Z"/>

<path fill="#1E98D5" stroke="none" d="
M 22 -40.85
Q 21.85 -40.95 21.7 -41.05 18.6 -42.8 15.65 -44.15 13.95 -44.95 12.35 -45.6 12 -45.75 11.65 -45.9 3.05 -49.25 -5.6 -49.8 -14.25 -50.35 -26.95 -44.6 -39.7 -38.9 -49.25 -27.65 -28.3 -37.55 -12.25 -41.7
L -10.7 -42.1
Q -21.75 -41.1 -35.9 -36.1 -30.05 -41.65 -21.1 -44.55 -12.9 -47.2 -5.15 -46.75 -3.7 -46.65 -2.25 -46.45 3.25 -45.55 8.8 -43.5 11.15 -42.65 13.55 -41.6 13.7 -41.5 13.9 -41.4 18.05 -41.2 21.95 -40.85
L 22 -40.85 Z"/>
</g>

<g id="RD_Hair_01_19_Layer0_0_FILL">
<path fill="#FDF6AE" stroke="none" d="
M 16.95 -5.35
L 15.15 -2.2
Q 11.15 5.05 1.65 12.75 17.3 9.65 30.4 -6.65 30.5 -6.75 30.6 -6.9 31.15 -7.6 31.7 -8.35 33.4 -10.6 35.65 -13.1 24.95 -11.4 16.65 -5.25
L 16.95 -5.35 Z"/>

<path fill="#1E98D5" stroke="none" d="
M 15.15 -2.2
L 16.95 -5.35 16.65 -5.25
Q 14.7 -3.8 12.9 -2.15 7.6 5.5 -3.4 13
L -6.95 15.45 -6.7 16 -2.5 15.75
Q 15.9 15.4 31.7 -3.55 33.45 -5.6 35.15 -7.85 37.1 -11.5 35.75 -13.15
L 35.65 -13.1
Q 33.4 -10.6 31.7 -8.35 31.15 -7.6 30.6 -6.9 30.5 -6.75 30.4 -6.65 17.3 9.65 1.65 12.75 11.15 5.05 15.15 -2.2 Z"/>
</g>

<g id="RD_FrontLeg_3_4_hoof_16_Layer0_0_FILL">
<path fill="#9EDBF8" stroke="none" d="
M 13.5 -14.1
Q 8.6158203125 -21.20703125 1.25 -21.55 -6.066015625 -21.8431640625 -11.7 -15.75 -17.3447265625 -9.60234375 -18.25 -1.05 -19.15 7.5 -14.5 13.9 -9.9 20.35 -2.5 20.85 4.95 21.35 10.8 15.7 16.6 10.1 17.5 1.55 18.39453125 -6.9978515625 13.5 -14.1 Z"/>
</g>

<g id="RD_FrontLeg_3_4_upper_21_Layer1_0_FILL">
<path fill="#9EDBF8" stroke="none" d="
M 19.9 41.4
Q 17.5806640625 23.57890625 3.65 -1.05
L -4.65 -1.05
Q -20.1865234375 21.3873046875 -20.15 41.4
L 19.9 41.4 Z"/>
</g>

<path id="RD_FrontLeg_3_4_hoof_6_Layer0_0_1_STROKES" stroke="#6DABDD" stroke-width="3" stroke-linejoin="round" stroke-linecap="round" fill="none" d="
M -0.925 -17.175
Q 6.8671875 -17.5837890625 12.3 -12.325 17.7197265625 -7.051171875 17.4 1.275 17.0837890625 9.596484375 14.075 14.525 11.0783203125 19.4369140625 0.15 20.85 -10.7796875 22.268359375 -17.1 18.525 -23.42421875 14.7861328125 -21.875 7.425 -20.324609375 0.0544921875 -18.15 -3.975 -15.971875 -8.0099609375 -12.325 -12.4 -8.6921875 -16.7904296875 -0.925 -17.175 Z"/>

<path id="RD_HindLeg_3_4rear_lower_2_Layer1_0_1_STROKES" stroke="#6DABDD" stroke-width="3" stroke-linejoin="round" stroke-linecap="round" fill="none" d="
M -5.65 -3.6
Q 1.836328125 -8.4703125 11.5 -5.15 17.0154296875 -1.388671875 7.6 6.9 -5.18671875 19.70546875 -8.9 12.2 -13.0958984375 2.169140625 -5.65 -3.6 Z"/>

<path id="RD_HindLeg_3_4rear_lower_2_Layer0_0_1_STROKES" stroke="#6DABDD" stroke-width="3" stroke-linejoin="round" stroke-linecap="round" fill="none" d="
M -8.9 59.25
Q -15.7921875 31.9404296875 -10.2 3.35
M 13.4 -2.55
Q 15.0326171875 27.90546875 24.35 43.05"/>

<path id="RD_FrontLeg_3_4_upper_20_Layer1_0_1_STROKES" stroke="#6DABDD" stroke-width="3" stroke-linejoin="round" stroke-linecap="round" fill="none" d="
M -32.7 58.35
Q -23.45 30.8 -5.95 -1.05
M 11.65 62.95
Q 12.4 41.65 5.5 -1.05"/>

<path id="RD_Mouth_front_chin__offcenter_0_Layer1_0_1_STROKES" stroke="#6DABDD" stroke-width="3" stroke-linejoin="round" stroke-linecap="round" fill="none" d="
M 37 3
Q 31.5595703125 11.51484375 20.35 16.8 3.9671875 24.438671875 -14.6 17.85 -26.379296875 13.5955078125 -35.1 3.05"/>

<path id="RD_Hair_01_19_Layer3_0_1_STROKES" stroke="#C7C616" stroke-width="0.05" stroke-linejoin="round" stroke-linecap="round" fill="none" d="
M -30.15 -18.2
Q -30.05 -18.3 -30 -18.4 -29.8 -18.6 -29.55 -18.85 -29.5 -18.95 -29.45 -18.95
M -29.5 -18.9
L -29.55 -18.85
Q -29.5763671875 -18.797265625 -29.6 -18.75 -29.7640625 -18.523046875 -29.95 -18.3
L -30.05 -18.1"/>

<path id="RD_FrontLeg_3_4_hoof_16_Layer0_0_1_STROKES" stroke="#6DABDD" stroke-width="3" stroke-linejoin="round" stroke-linecap="round" fill="none" d="
M -11.7 -15.725
Q -17.3447265625 -9.60234375 -18.25 -1.05 -19.15 7.5 -14.5 13.9 -9.9 20.35 -2.5 20.85 4.95 21.35 10.8 15.7 16.6 10.1 17.5 1.55 18.39453125 -6.9978515625 13.5 -14.1 8.6158203125 -21.20703125 1.275 -21.525 -6.066015625 -21.8431640625 -11.7 -15.725 Z"/>

<path id="RD_FrontLeg_3_4_upper_21_Layer1_0_1_STROKES" stroke="#6DABDD" stroke-width="3" stroke-linejoin="round" stroke-linecap="round" fill="none" d="
M 19.9 41.4
Q 17.5806640625 23.57890625 3.65 -1.05
M -20.15 41.4
Q -20.1865234375 21.3873046875 -4.65 -1.05"/>
</defs>

<g transform="matrix( 1.555694580078125, 0.330963134765625, -0.330963134765625, 1.555694580078125, 347.75,219.9) ">
<g transform="matrix( 0.2110137939453125, 0, 0, 0.3922576904296875, -8.7,0.8) ">
<g transform="matrix( 1, 0, -0.071380615234375, 1, 27.35,3.15) ">
<g transform="matrix( 1, 0, 0, 1, 0,0) ">
<use xlink:href="#RD_Prun_Tail_7_Layer1_0_FILL"/>
</g>

<g transform="matrix( 1, 0, 0, 1, 0,0) ">
<use xlink:href="#RD_Prun_Tail_7_Layer1_1_FILL"/>
</g>

<g transform="matrix( 1, 0, 0, 1, 0,0) ">
<use xlink:href="#RD_Prun_Tail_7_Layer1_2_FILL"/>
</g>

<g transform="matrix( 1, 0, 0, 1, 0,0) ">
<use xlink:href="#RD_Prun_Tail_7_Layer1_3_FILL"/>
</g>

<g transform="matrix( 1, 0, 0, 1, 0,0) ">
<use xlink:href="#RD_Prun_Tail_7_Layer1_4_FILL"/>
</g>

<g transform="matrix( 1, 0, 0, 1, 0,0) ">
<use xlink:href="#RD_Prun_Tail_7_Layer1_5_FILL"/>
</g>

<g transform="matrix( 1, 0, 0, 1, 0,0) ">
<use xlink:href="#RD_Prun_Tail_7_Layer1_6_FILL"/>
</g>
</g>
</g>

<g transform="matrix( 0.4132843017578125, -0.5472412109375, 0.6434783935546875, 0.6175537109375, -44.4,13.35) ">
<g transform="matrix( 0.8339996337890625, -0.3087158203125, 0.5523681640625, 0.6643524169921875, 13.15,66.7) ">
<g transform="matrix( 1, 0, 0, 1, 0,0) ">
<use filter="url(#Filter_1)" xlink:href="#RD_FrontLeg_3_4_hoof_6_Layer0_0_FILL"/>

<use filter="url(#Filter_1)" xlink:href="#RD_FrontLeg_3_4_hoof_6_Layer0_0_1_STROKES"/>
</g>
</g>

<g transform="matrix( 0.7404632568359375, -0.3578338623046875, 0.0124969482421875, 0.6438751220703125, 12,46.45) ">
<g transform="matrix( 1, 0, 0, 1, 0,0) ">
<use filter="url(#Filter_1)" xlink:href="#RD_KneePatch_1_Layer0_0_FILL"/>
</g>
</g>

<g transform="matrix( 0.9890594482421875, 0.223388671875, -0.159027099609375, 0.6988067626953125, 14.45,31.6) ">
<g transform="matrix( 1, 0, 0, 1, 0,0) ">
<use filter="url(#Filter_1)" xlink:href="#RD_HindLeg_3_4rear_lower_2_Layer1_0_FILL"/>

<use filter="url(#Filter_1)" xlink:href="#RD_HindLeg_3_4rear_lower_2_Layer1_0_1_STROKES"/>
</g>

<g transform="matrix( 1, 0, 0, 1, 0,0) ">
<use filter="url(#Filter_1)" xlink:href="#RD_HindLeg_3_4rear_lower_2_Layer0_0_FILL"/>

<use filter="url(#Filter_1)" xlink:href="#RD_HindLeg_3_4rear_lower_2_Layer0_0_1_STROKES"/>
</g>
</g>

<g transform="matrix( 1.05706787109375, 0, -0.2399139404296875, 0.793365478515625, 17.7,-4.6) ">
<g transform="matrix( 1, 0, 0, 1, 0,0) ">
<use filter="url(#Filter_1)" xlink:href="#RD_HindLeg_3_4_top_3_Layer1_0_FILL"/>
</g>

<g transform="matrix( 1, 0, 0, 1, 0,0) ">
<use filter="url(#Filter_1)" xlink:href="#RD_HindLeg_3_4_top_3_Layer0_0_FILL"/>
</g>
</g>

<g transform="matrix( 0.832244873046875, -0.314788818359375, -0.1527099609375, 0.5664520263671875, 8.95,45.8) ">
<g transform="matrix( 1, 0, 0, 1, 0,0) ">
<use filter="url(#Filter_1)" xlink:href="#RD_KneePatch_0_Layer0_0_FILL"/>
</g>
</g>
</g>

<g transform="matrix( 0.4132843017578125, -0.5472412109375, 0.6434783935546875, 0.6175537109375, -9.65,9.45) ">
<g transform="matrix( 0.8339996337890625, -0.3087158203125, 0.5523681640625, 0.6643524169921875, 13.15,66.7) ">
<g transform="matrix( 1, 0, 0, 1, 0,0) ">
<use xlink:href="#RD_FrontLeg_3_4_hoof_6_Layer0_0_FILL"/>

<use xlink:href="#RD_FrontLeg_3_4_hoof_6_Layer0_0_1_STROKES"/>
</g>
</g>

<g transform="matrix( 0.7404632568359375, -0.3578338623046875, 0.0124969482421875, 0.6438751220703125, 12,46.45) ">
<g transform="matrix( 1, 0, 0, 1, 0,0) ">
<use xlink:href="#RD_KneePatch_1_Layer0_0_FILL"/>
</g>
</g>

<g transform="matrix( 0.9890594482421875, 0.223388671875, -0.159027099609375, 0.6988067626953125, 14.45,31.6) ">
<g transform="matrix( 1, 0, 0, 1, 0,0) ">
<use xlink:href="#RD_HindLeg_3_4rear_lower_2_Layer1_0_FILL"/>

<use xlink:href="#RD_HindLeg_3_4rear_lower_2_Layer1_0_1_STROKES"/>
</g>

<g transform="matrix( 1, 0, 0, 1, 0,0) ">
<use xlink:href="#RD_HindLeg_3_4rear_lower_2_Layer0_0_FILL"/>

<use xlink:href="#RD_HindLeg_3_4rear_lower_2_Layer0_0_1_STROKES"/>
</g>
</g>

<g transform="matrix( 1.05706787109375, 0, -0.2399139404296875, 0.793365478515625, 17.7,-4.6) ">
<g transform="matrix( 1, 0, 0, 1, 0,0) ">
<use xlink:href="#RD_HindLeg_3_4_top_3_Layer1_0_FILL"/>
</g>

<g transform="matrix( 1, 0, 0, 1, 0,0) ">
<use xlink:href="#RD_HindLeg_3_4_top_3_Layer0_0_FILL"/>
</g>
</g>

<g transform="matrix( 0.832244873046875, -0.314788818359375, -0.1527099609375, 0.5664520263671875, 8.95,45.8) ">
<g transform="matrix( 1, 0, 0, 1, 0,0) ">
<use xlink:href="#RD_KneePatch_0_Layer0_0_FILL"/>
</g>
</g>
</g>

<g transform="matrix( -0.9999847412109375, 0, 0, 0.9999847412109375, -53.35,11.25) ">
<g transform="matrix( 1, 0, 0, 1, 0,0) ">
<use filter="url(#Filter_2)" xlink:href="#WingcycleBACK_5_Layer10_0_FILL"/>
</g>
</g>

<g transform="matrix( 0.6026611328125, 0.7979888916015625, -0.7890167236328125, 0.5959014892578125, -37.9,40.3) ">
<g transform="matrix( 1.243988037109375, 0.0895233154296875, -0.0872650146484375, 1.056610107421875, -9.4,63.65) ">
<g transform="matrix( 1, 0, 0, 1, 0,0) ">
<use xlink:href="#RD_FrontLeg_3_4_hoof_11_Layer0_0_FILL"/>
</g>
</g>

<g transform="matrix( 0.99993896484375, -0.00445556640625, -0.0002593994140625, 0.999969482421875, 1.9,0.4) ">
<g transform="matrix( 1, 0, 0, 1, 0,0) ">
<use xlink:href="#RD_FrontLeg_3_4_upper_20_Layer1_0_FILL"/>

<use xlink:href="#RD_FrontLeg_3_4_upper_20_Layer1_0_1_STROKES"/>
</g>
</g>

<g transform="matrix( 2.197784423828125, 0.1581268310546875, -0.257781982421875, 3.119873046875, -10.05,65.3) ">
<g transform="matrix( 1, 0, 0, 1, 0,0) ">
<use xlink:href="#RD_HoofWrinkle_2_Layer0_0_FILL"/>
</g>
</g>
</g>

<g transform="matrix( 1, 0, 0, 1, -19.95,24.8) ">
<g transform="matrix( 1, 0, 0, 1, 0,0) ">
<use xlink:href="#RD_Torso_0_Layer1_0_FILL"/>
</g>
</g>

<g transform="matrix( 0.1369476318359375, 0.00579833984375, -0.0221405029296875, 0.5221099853515625, -12.8,19.05) ">
<g transform="matrix( 0.9725341796875, 0.2017364501953125, 0.2397918701171875, 1.1060028076171875, -64.4,-53.65) ">
<g transform="matrix( 1, 0, 0, 1, 0,0) ">
<use xlink:href="#RD_Prun_Mane_cycle_8_Layer0_0_FILL"/>
</g>

<g transform="matrix( 1, 0, 0, 1, 0,0) ">
<use xlink:href="#RD_Prun_Mane_cycle_8_Layer0_1_FILL"/>
</g>

<g transform="matrix( 1, 0, 0, 1, 0,0) ">
<use xlink:href="#RD_Prun_Mane_cycle_8_Layer0_2_FILL"/>
</g>

<g transform="matrix( 1, 0, 0, 1, 0,0) ">
<use xlink:href="#RD_Prun_Mane_cycle_8_Layer0_3_FILL"/>
</g>
</g>
</g>

<g transform="matrix( 0.9025726318359375, -0.670166015625, 0.353546142578125, 0.6069183349609375, -24.25,20.75) ">
<g transform="matrix( 1, 0, 0, 1, 0,0) ">
<use xlink:href="#RD_Neck_0_Layer0_0_FILL"/>
</g>
</g>

<g transform="matrix( 0.9999847412109375, 0, 0, 0.9999847412109375, 3.9,11.25) ">
<g transform="matrix( 1, 0, 0, 1, 0,0) ">
<use xlink:href="#Wingcycle_5_Layer8_0_FILL"/>
</g>
</g>

<g transform="matrix( 1, 0, 0, 1, -53.85,10.05) ">
<g transform="matrix( 1, 0, 0, 1.001922607421875, -6.4,-5.3) ">
<g transform="matrix( 1, 0, 0, 1, 0,0) ">
<use xlink:href="#RD_Skull_2_Layer0_0_FILL"/>
</g>
</g>

<g transform="matrix( 0.9992218017578125, 0.01165771484375, -0.1327056884765625, 1.042236328125, -6,25.45) ">
<g transform="matrix( 1, 0, 0, 1, 0,0) ">
<use xlink:href="#RD_Mouth_front_chin__offcenter_0_Layer1_0_FILL"/>

<use xlink:href="#RD_Mouth_front_chin__offcenter_0_Layer1_0_1_STROKES"/>
</g>
</g>

<g transform="matrix( 0.972503662109375, 0, 0.15093994140625, 1.0177459716796875, 25.6,-48.8) ">
<g transform="matrix( 1, 0, 0, 1, 0,0) ">
<use xlink:href="#RD_Hair_07_9_Layer0_0_FILL"/>
</g>
</g>

<g transform="matrix( -0.8562469482421875, -0.0888671875, -0.10308837890625, 0.993377685546875, -39.25,-31.85) ">
<g transform="matrix( 1, 0, 0, 1, 0,0) ">
<use xlink:href="#RD_Ear_1_Layer1_0_FILL"/>
</g>
</g>

<g transform="matrix( 0.997467041015625, 0.063507080078125, -0.063507080078125, 0.997467041015625, 29.85,-28.65) ">
<g transform="matrix( 1, 0, 0, 1, 0,0) ">
<use xlink:href="#RD_Ear_1_Layer1_0_FILL"/>
</g>
</g>

<mask id="Mask_Mask_1">
<g transform="matrix( -0.6017608642578125, -0.1415863037109375, -0.1660003662109375, 1.02447509765625, -35.6,-1.15) ">
<g transform="matrix( 1, 0, 0, 1, 0,0) ">
<use xlink:href="#Mask_Mask_RD2_Eyewhite_3_4_1_Layer1_0_FILL"/>
</g>
</g>
</mask>

<g mask="url(#Mask_Mask_1)">
<g transform="matrix( -0.6017608642578125, -0.1415863037109375, -0.1660003662109375, 1.02447509765625, -35.6,-1.15) ">
<g transform="matrix( 1, 0, 0, 1, 0,0) ">
<use xlink:href="#RD2_Eyewhite_3_4_1_Layer1_0_FILL"/>
</g>
</g>
</g>

<g mask="url(#Mask_Mask_1)">
<g transform="matrix( 0.47186279296875, -0.0417938232421875, 0.13232421875, 0.74530029296875, -32.1,0.35) ">
<g transform="matrix( 1, 0, 0, 1, 0,0) ">
<use xlink:href="#RD2_Iris_0_Layer2_0_FILL"/>
</g>

<g transform="matrix( 1, 0, 0, 1, 0,0) ">
<use xlink:href="#RD2_Iris_0_Layer1_0_FILL"/>
</g>

<g transform="matrix( 1, 0, 0, 1, 0,0) ">
<use xlink:href="#RD2_Iris_0_Layer0_0_FILL"/>
</g>
</g>
</g>

<g mask="url(#Mask_Mask_1)">
<g transform="matrix( -0.476593017578125, 0.0044097900390625, 0.006805419921875, 0.6275482177734375, -30.85,-0.15) ">
<g transform="matrix( 1, 0, 0, 1, 0,0) ">
<use xlink:href="#RD2_Pupil_0_Layer0_0_FILL"/>
</g>
</g>
</g>

<g mask="url(#Mask_Mask_1)">
<g transform="matrix( 0.6511688232421875, -0.0670928955078125, 0.172882080078125, 0.6851348876953125, -29.85,-7.7) ">
<g transform="matrix( 1, 0, 0, 1, 0,0) ">
<use xlink:href="#RD2_Hilights_0_Layer1_0_FILL"/>
</g>
</g>
</g>

<mask id="Mask_Mask_2">
<g transform="matrix( 0.859771728515625, 0, 0.1278076171875, 1.0453338623046875, 17.2,0.35) ">
<g transform="matrix( 1, 0, 0, 1, 0,0) ">
<use xlink:href="#Mask_Mask_RD2_Eyewhite_3_4_1_Layer1_0_FILL"/>
</g>
</g>
</mask>

<g mask="url(#Mask_Mask_2)">
<g transform="matrix( 0.859771728515625, 0, 0.1278076171875, 1.0453338623046875, 17.2,0.35) ">
<g transform="matrix( 1, 0, 0, 1, 0,0) ">
<use xlink:href="#RD2_Eyewhite_3_4_1_Layer1_0_FILL"/>
</g>
</g>
</g>

<g mask="url(#Mask_Mask_2)">
<g transform="matrix( -0.5610198974609375, -0.0517425537109375, -0.0706787109375, 0.736236572265625, 26,-1.8) ">
<g transform="matrix( 1, 0, 0, 1, 0,0) ">
<use xlink:href="#RD2_Iris_2_Layer2_0_FILL"/>
</g>

<g transform="matrix( 1, 0, 0, 1, 0,0) ">
<use xlink:href="#RD2_Iris_2_Layer1_0_FILL"/>
</g>

<g transform="matrix( 1, 0, 0, 1, 0,0) ">
<use xlink:href="#RD2_Iris_2_Layer0_0_FILL"/>
</g>
</g>
</g>

<g mask="url(#Mask_Mask_2)">
<g transform="matrix( 0.53680419921875, 0.0115814208984375, 0.08184814453125, 0.643402099609375, 27.95,-1.55) ">
<g transform="matrix( 1, 0, 0, 1, 0,0) ">
<use xlink:href="#RD2_Pupil_0_Layer0_0_FILL"/>
</g>
</g>
</g>

<g mask="url(#Mask_Mask_2)">
<g transform="matrix( 0.6678314208984375, 0.2051849365234375, 0.0124053955078125, 0.67279052734375, 30.35,-7.4) ">
<g transform="matrix( 1, 0, 0, 1, 0,0) ">
<use xlink:href="#RD2_Hilights_0_Layer1_0_FILL"/>
</g>
</g>
</g>

<g transform="matrix( -0.6017608642578125, -0.1415863037109375, -0.1660003662109375, 1.02447509765625, -35.6,-1.15) ">
<g transform="matrix( 1, 0, 0, 1, 0,0) ">
<use xlink:href="#RD2_Blink_front_0_Layer2_0_FILL"/>
</g>

<g transform="matrix( 1, 0, 0, 1, 0,0) ">
<use xlink:href="#RD2_Blink_front_0_Layer1_0_FILL"/>
</g>

<g transform="matrix( 1, 0, 0, 1, 0,0) ">
<use xlink:href="#RD2_Blink_front_0_Layer1_1_FILL"/>
</g>

<g transform="matrix( 1, 0, 0, 1, 0,0) ">
<use xlink:href="#RD2_Blink_front_0_Layer1_2_FILL"/>
</g>
</g>

<g transform="matrix( 0.8662109375, -0.0929107666015625, 0.1739959716796875, 1.01947021484375, 17.05,0.3) ">
<g transform="matrix( 1, 0, 0, 1, 0,0) ">
<use xlink:href="#RD2_Blink_front_100_Layer2_0_FILL"/>
</g>
</g>

<g transform="matrix( -0.60809326171875, -0.5243072509765625, -0.508544921875, 0.857421875, -42.8,-20.85) ">
<g transform="matrix( 1, 0, 0, 1, 0,0) ">
<use xlink:href="#RD_Brow_front_1_Layer2_0_FILL"/>
</g>

<g transform="matrix( 1, 0, 0, 1, 1.7,-0.05) ">
<g transform="matrix( 1, 0, 0, 1, 0,0) ">
<use xlink:href="#RD_Lashes_02_6_Layer0_0_FILL"/>
</g>

<g transform="matrix( 1, 0, 0, 1, 0,0) ">
<use xlink:href="#RD_Lashes_02_6_Layer0_1_FILL"/>
</g>

<g transform="matrix( 1, 0, 0, 1, 0,0) ">
<use xlink:href="#RD_Lashes_02_6_Layer0_2_FILL"/>
</g>
</g>

<g transform="matrix( 1, 0, 0, 1, 0,0) ">
<use xlink:href="#RD_Brow_front_1_Layer0_0_FILL"/>
</g>
</g>

<g transform="matrix( 0.924713134765625, -0.4334564208984375, 0.457275390625, 0.8568572998046875, 30.45,-17.85) ">
<g transform="matrix( 1, 0, 0, 1, 0,0) ">
<use xlink:href="#RD_Brow_front_1_Layer2_0_FILL"/>
</g>

<g transform="matrix( 1, 0, 0, 1, 1.7,-0.05) ">
<g transform="matrix( 1, 0, 0, 1, 0,0) ">
<use xlink:href="#RD_Lashes_02_6_Layer0_0_FILL"/>
</g>

<g transform="matrix( 1, 0, 0, 1, 0,0) ">
<use xlink:href="#RD_Lashes_02_6_Layer0_1_FILL"/>
</g>

<g transform="matrix( 1, 0, 0, 1, 0,0) ">
<use xlink:href="#RD_Lashes_02_6_Layer0_2_FILL"/>
</g>
</g>

<g transform="matrix( 1, 0, 0, 1, 0,0) ">
<use xlink:href="#RD_Brow_front_1_Layer0_0_FILL"/>
</g>
</g>

<g transform="matrix( 1.04473876953125, -0.17791748046875, 0.2764129638671875, 0.92706298828125, -14.35,25.7) ">
<g transform="matrix( 1, 0, 0, 1, 0,0) ">
<use xlink:href="#RD_Mouth_front_hole__0_Layer4_0_FILL"/>
</g>
</g>

<g transform="matrix( 1.00201416015625, 0.0025787353515625, 0.08404541015625, 0.9959716796875, -18.15,22.15) ">
<g transform="matrix( 1, 0, 0, 1, 0,0) ">
<use xlink:href="#RD_Mouth_front_nostril__0_Layer2_0_FILL"/>
</g>
</g>

<g transform="matrix( 0.85284423828125, -0.37200927734375, 0.05682373046875, 0.930206298828125, 21.5,19.2) ">
<g transform="matrix( 1, 0, 0, 1, 0,0) ">
<use xlink:href="#RD_Cheek_0_Layer1_0_FILL"/>
</g>

<g transform="matrix( 1, 0, 0, 1, 0,0) ">
<use xlink:href="#RD_Cheek_0_Layer0_0_FILL"/>
</g>
</g>

<g transform="matrix( 0.9800262451171875, 0.032135009765625, -0.1204071044921875, 0.9931640625, -16.75,25.2) ">
<g transform="matrix( 1, 0, 0, 1, 0.65,-8.5) ">
<g transform="matrix( 1, 0, 0, 1, 0,0) ">
<use xlink:href="#RD_Wrinkle_0_Layer0_0_FILL"/>
</g>
</g>
</g>

<g transform="matrix( 1.07415771484375, 0.0653076171875, 0.0907745361328125, 0.991790771484375, -13.5,-33.7) ">
<g transform="matrix( 1, 0, 0, 1, 0,0) ">
<use xlink:href="#RD_Hair_01_19_Layer3_0_FILL"/>

<use xlink:href="#RD_Hair_01_19_Layer3_0_1_STROKES"/>
</g>

<g transform="matrix( 1, 0, 0, 1, 0,0) ">
<use xlink:href="#RD_Hair_01_19_Layer2_0_FILL"/>
</g>

<g transform="matrix( 1, 0, 0, 1, 0,0) ">
<use xlink:href="#RD_Hair_01_19_Layer1_0_FILL"/>
</g>

<g transform="matrix( 1, 0, 0, 1, 0,0) ">
<use xlink:href="#RD_Hair_01_19_Layer0_0_FILL"/>
</g>
</g>
</g>

<g transform="matrix( -0.3125457763671875, -1.02899169921875, -0.8546295166015625, 0.2658233642578125, -2.3,49.05) ">
<g transform="matrix( 1.108154296875, 0.09967041015625, -0.077728271484375, 1.1765594482421875, -8.35,40.1) ">
<g transform="matrix( 1, 0, 0, 1, 0,0) ">
<use xlink:href="#RD_FrontLeg_3_4_hoof_16_Layer0_0_FILL"/>

<use xlink:href="#RD_FrontLeg_3_4_hoof_16_Layer0_0_1_STROKES"/>
</g>
</g>

<g transform="matrix( 0.9623260498046875, 0.271636962890625, -0.27618408203125, 0.9610443115234375, 2.7,0.35) ">
<g transform="matrix( 1, 0, 0, 1, 0,0) ">
<use xlink:href="#RD_FrontLeg_3_4_upper_21_Layer1_0_FILL"/>

<use xlink:href="#RD_FrontLeg_3_4_upper_21_Layer1_0_1_STROKES"/>
</g>
</g>

<g transform="matrix( 1.9949188232421875, 0.1793975830078125, -0.257781982421875, 3.89984130859375, -5.95,23.45) ">
<g transform="matrix( 1, 0, 0, 1, 0,0) ">
<use xlink:href="#RD_HoofWrinkle_2_Layer0_0_FILL"/>
</g>
</g>
</g>
</g>
</svg>
