
<svg xmlns="http://www.w3.org/2000/svg" version="1.1" xmlns:xlink="http://www.w3.org/1999/xlink" preserveAspectRatio="none" x="0px" y="0px" width="864px" height="486px" viewBox="0 0 864 486">
<defs>
<linearGradient id="Gradient_1" gradientUnits="userSpaceOnUse" x1="281.1875" y1="36.9375" x2="276.51250000000005" y2="60.3625" spreadMethod="pad">
<stop  offset="0%" stop-color="#590D39"/>

<stop  offset="19.607843137254903%" stop-color="#9C1862"/>

<stop  offset="22.745098039215687%" stop-color="#A01964"/>

<stop  offset="34.11764705882353%" stop-color="#AA1A6C"/>

<stop  offset="73.72549019607843%" stop-color="#BD1D78"/>

<stop  offset="100%" stop-color="#BF1D79"/>
</linearGradient>

<filter id="Filter_1" x="-20%" y="-20%" width="140%" height="140%" color-interpolation-filters="sRGB">
<feColorMatrix in="SourceGraphic" type="matrix" values="1 0 0 0 -0.06274509803921569 0 1 0 0 -0.0784313725490196 0 0 1 0 -0.06274509803921569 0 0 0 1 0" result="result1"/>
</filter>

<filter id="Filter_2" x="-20%" y="-20%" width="140%" height="140%" color-interpolation-filters="sRGB">
<feColorMatrix in="SourceGraphic" type="matrix" values="0.57 0 0 0 0.1843137254901961 0 0.57 0 0 0.28627450980392155 0 0 0.57 0 0.37254901960784315 0 0 0 1 0" result="result1"/>
</filter>

<g id="RD_Prun_Tail_0_Layer1_0_FILL">
<path fill="#EE4143" stroke="none" d="
M 108.45 -102.3
Q 99.4 -102.3 90.55 -100.45 86 -99.55 81.8 -98.4 77.6 -97.2 73.4 -95.65 69.15 -94.15 64.55 -92.25 57.6 -89.35 51.15 -85.55 44.75 -81.75 39.2 -77.25 28.3 -68 20.65 -58.05 13 -48.1 7.8 -38.4 2.65 -28.65 -0.75 -20.1 -4.1 -11.55 -6.45 -5.1 -7.5 -2.05 -6.85 0.35 -6.25 2.7 -4.5 4.15 -2.75 5.55 -0.5 5.75 1.8 6 4 4.75 6.2 3.55 7.75 0.6 12.15 -6.25 17.75 -11.5 23.35 -16.8 29.55 -20.6 35.75 -24.4 42.05 -26.85 48.4 -29.25 54.2 -30.45 60.05 -31.5 65.2 -31.35 70.35 -31.2 74.8 -30.1 79.95 -29 84.5 -27.55 89 -26.15 92.25 -24.15 96.65 -21.55 99 -18.95 101.35 -16.35 102.3 -14 103.25 -11.65 103.45 -9.8 103.75 -8 104.5 -5.6 105.3 -3.2 106.35 -0.7 107.45 1.8 108.65 3.95 108.65 3.9 108.7 2.55 108.75 1.15 108.85 -1.1 108.9 -3.35 108.95 -6 109 -8.65 109 -11.2 109.3 -14.4 108.95 -17.2 108.55 -20 107.95 -21.75 107.6 -22.9 107.35 -23.35 108.15 -22.45 109.05 -21.35 110.15 -20.1 111.45 -18.3 112.8 -16.55 114.45 -13.85 117.05 -9.6 120.05 -3.3 123 3 125.65 10.3 127.35 14.95 129.15 20.15 131 25.35 132.7 30.25 134.45 35.15 135.85 39 138.75 46.35 140.55 50.35 142.25 54.1 142.45 54.45 142.35 54.2 142.05 52.45 141.7 50.45 141.25 47.15 140.75 43.85 140.35 39.9 139.9 35.9 139.75 31.95 139.55 26.85 139.4 22.3 139.2 17.7 139.1 14.8 138.95 11.85 138.9 11.65 141.2 15.95 144.8 21.95 148.4 27.95 153.1 34.7 157.8 41.5 163.3 48 167.4 52.95 171.6 56.55 175.85 60.2 179.4 62.55 182.95 64.95 185.15 66.05
L 187.25 67.15
Q 182.15 62 178.5 56.1 174.9 50.25 172.45 44.15 172.65 44.5 173.6 45.9 174.8 47.75 177.15 50.7 179.45 53.7 182.75 57 186 60.3 190.1 63.25 194.25 66.2 198.5 68.05 202.7 69.85 206.3 70.8 209.95 71.8 212.2 72.1 214.45 72.45 214.65 72.45 208.85 71.05 203.8 67.9 198.7 64.7 194.6 60.3 190.45 55.9 187.6 50.85 184.7 45.8 183.3 40.75 181.1 33.9 179.85 28.35 178.65 22.8 178.15 19.45 177.725 16.52265625 177.6 16.1 177.7 16.370703125 178.25 17.7 178.85 19.3 179.95 21.9 181.1 24.5 182.55 27.65 184 30.75 185.75 33.9 188 38.15 190.35 41.3 192.65 44.4 194.3 46.1 195.95 47.75 196.2 47.75 192.45 42.95 190.45 36.5 188.45 30.05 187.25 22.05 186.1 14.1 184.85 4.7 183.6 -4.7 181.4 -15.4 179.95 -20.85 178.2 -26.7 176.4 -32.55 173.65 -38.75 170.9 -44.95 166.6 -51.55 162.3 -58.1 155.9 -65.1 149.15 -72.1 140.6 -77.2 132.05 -82.3 122.45 -85.35 112.85 -88.4 103 -89.3 93.15 -90.15 83.8 -88.75 83.9 -88.8 86.6 -89.85 89.3 -90.9 94.05 -92.35 98.8 -93.85 105.05 -95.15 109.7 -96.1 114.8 -96.5 119.95 -96.9 124.9 -96.85 129.85 -96.85 134.05 -96.55 138.25 -96.25 141.05 -95.8 134.3 -99 125.9 -100.65 117.55 -102.3 108.45 -102.3 Z"/>
</g>

<g id="RD_Prun_Tail_0_Layer1_1_FILL">
<path fill="#F37033" stroke="none" d="
M 108.45 -102.3
Q 99.4 -102.3 90.55 -100.45 86 -99.55 81.8 -98.4 77.6 -97.2 73.4 -95.65 69.15 -94.15 64.55 -92.25 57.6 -89.35 51.15 -85.55 44.75 -81.75 39.2 -77.25 28.3 -68 20.65 -58.05 13 -48.1 7.8 -38.4 2.65 -28.65 -0.75 -20.1 -4.1 -11.55 -6.45 -5.1 -7.5 -2.05 -6.85 0.35 -6.25 2.7 -4.5 4.15 -2.75 5.55 -0.5 5.75 1.8 6 4 4.75 6.2 3.55 7.75 0.6 12.05 -6.15 17.45 -11.3 22.85 -16.4 28.95 -20.15 35.4 -24.9 42.4 -28.5 49.45 -32.1 56.6 -34.2 63.8 -36.35 70.65 -36.65 78.2 -36.9 85.4 -36 92.6 -35.1 98.65 -33.15 104.7 -31.15 108.8 -28.15 112.1 -25.9 114.45 -23.35 116.8 -20.75 119.05 -17.3 121.35 -13.75 123.45 -9.75 125.6 -5.75 127.4 -1.55 129.8 3.85 131.9 9.4 134 14.9 135.95 20.2 137.85 25.5 139.7 30.15 139.5 25.35 139.35 21.25 139.2 17.1 139.1 14.45 138.95 11.85 138.9 11.65 141.2 15.95 144.8 21.95 148.4 27.95 153.1 34.7 157.8 41.5 163.3 48 167.4 52.95 171.6 56.55 175.85 60.2 179.4 62.55 182.95 64.95 185.15 66.05
L 187.25 67.15
Q 182.15 62 178.5 56.1 174.9 50.25 172.45 44.15 172.65 44.5 173.6 45.9 174.8 47.75 177.15 50.7 179.45 53.7 182.75 57 186 60.3 190.1 63.25 194.25 66.2 198.5 68.05 202.7 69.85 206.3 70.8 209.95 71.8 212.2 72.1 214.45 72.45 214.65 72.45 208.85 71.05 203.8 67.9 198.7 64.7 194.6 60.3 190.45 55.9 187.6 50.85 184.7 45.8 183.3 40.75 181.1 33.9 179.85 28.35 178.65 22.8 178.15 19.45 177.725 16.52265625 177.6 16.1 177.7 16.370703125 178.25 17.7 178.85 19.3 179.95 21.9 181.1 24.5 182.55 27.65 184 30.75 185.75 33.9 188 38.15 190.35 41.3 192.65 44.4 194.3 46.1 195.95 47.75 196.2 47.75 192.45 42.95 190.45 36.5 188.45 30.05 187.25 22.05 186.1 14.1 184.85 4.7 183.6 -4.7 181.4 -15.4 179.95 -20.85 178.2 -26.7 176.4 -32.55 173.65 -38.75 170.9 -44.95 166.6 -51.55 162.3 -58.1 155.9 -65.1 149.15 -72.1 140.6 -77.2 132.05 -82.3 122.45 -85.35 112.85 -88.4 103 -89.3 93.15 -90.15 83.8 -88.75 83.9 -88.8 86.6 -89.85 89.3 -90.9 94.05 -92.35 98.8 -93.85 105.05 -95.15 109.7 -96.1 114.8 -96.5 119.95 -96.9 124.9 -96.85 129.85 -96.85 134.05 -96.55 138.25 -96.25 141.05 -95.8 134.3 -99 125.9 -100.65 117.55 -102.3 108.45 -102.3 Z"/>
</g>

<g id="RD_Prun_Tail_0_Layer1_2_FILL">
<path fill="#FDF6AF" stroke="none" d="
M 108.45 -102.3
Q 99.4 -102.3 90.55 -100.45 86 -99.55 81.8 -98.4 77.6 -97.2 73.4 -95.65 69.15 -94.15 64.55 -92.25 57.6 -89.35 51.15 -85.55 44.75 -81.75 39.2 -77.25 28.3 -68 20.65 -58.05 13 -48.1 7.8 -38.4 2.65 -28.65 -0.75 -20.1 -4.1 -11.55 -6.45 -5.1 -7.5 -2.05 -6.85 0.35 -6.25 2.7 -4.5 4.15 -2.75 5.55 -0.5 5.75 1.8 6 4 4.75 6.2 3.55 7.75 0.6 8.05 0.15 9.25 -2.15 10.45 -4.4 12.85 -7.95 15.2 -11.5 19 -15.85 22.75 -20.15 28.25 -24.75 33.65 -29.35 40.55 -33.5 47.45 -37.65 55.35 -40.5 63.15 -43.35 71.95 -44.05 80.8 -44.75 90.05 -43.85 99.05 -42.8 106.7 -39.7 114.35 -36.6 119.9 -31.5 123.5 -28.25 126.6 -24 129.65 -19.75 132.25 -15 134.9 -10.3 137.05 -5.6 140.2 1.55 142.75 8.1 145.35 14.7 147.45 20.25 149.5 25.8 151.15 29.85 152.75 33.85 153.95 35.95 157.1 40.4 160.55 44.65 164 48.95 167.6 52.7 171.2 56.4 174.8 59.25 178.35 62.05 181.15 63.75 184 65.5 185.65 66.3 187.05 67 187.25 67.15 182.15 62 178.5 56.1 174.9 50.25 172.45 44.15 172.65 44.5 173.6 45.9 174.8 47.75 177.15 50.7 179.45 53.7 182.75 57 186 60.3 190.1 63.25 194.25 66.2 198.5 68.05 202.7 69.85 206.3 70.8 209.95 71.8 212.2 72.1 214.45 72.45 214.65 72.45 208.85 71.05 203.8 67.9 198.7 64.7 194.6 60.3 190.45 55.9 187.6 50.85 184.7 45.8 183.3 40.75 181.1 33.9 179.85 28.35 178.65 22.8 178.15 19.45 177.725 16.52265625 177.6 16.1 177.7 16.370703125 178.25 17.7 178.85 19.3 179.95 21.9 181.1 24.5 182.55 27.65 184 30.75 185.75 33.9 188 38.15 190.35 41.3 192.65 44.4 194.3 46.1 195.95 47.75 196.2 47.75 192.45 42.95 190.45 36.5 188.45 30.05 187.25 22.05 186.1 14.1 184.85 4.7 183.6 -4.7 181.4 -15.4 179.95 -20.85 178.2 -26.7 176.4 -32.55 173.65 -38.75 170.9 -44.95 166.6 -51.55 162.3 -58.1 155.9 -65.1 149.15 -72.1 140.6 -77.2 132.05 -82.3 122.45 -85.35 112.85 -88.4 103 -89.3 93.15 -90.15 83.8 -88.75 83.9 -88.8 86.6 -89.85 89.3 -90.9 94.05 -92.35 98.8 -93.85 105.05 -95.15 109.7 -96.1 114.8 -96.5 119.95 -96.9 124.9 -96.85 129.85 -96.85 134.05 -96.55 138.25 -96.25 141.05 -95.8 134.3 -99 125.9 -100.65 117.55 -102.3 108.45 -102.3 Z"/>
</g>

<g id="RD_Prun_Tail_0_Layer1_3_FILL">
<path fill="#662F89" stroke="none" d="
M 108.45 -102.3
Q 99.4 -102.3 90.55 -100.45 86 -99.55 81.8 -98.4 77.6 -97.2 73.4 -95.65 69.2 -94.15 64.6 -92.25 57.6 -89.35 51.2 -85.55 44.8 -81.75 39.25 -77.25 28.35 -68 20.65 -58.05 13 -48.1 7.8 -38.4 2.65 -28.65 -0.75 -20.1 -4.1 -11.55 -6.45 -5.1 -7.5 -2.25 -7 -0.05 -6.5 2.15 -5 3.6 -3.55 5.05 -1.6 5.6 1.7 -5.6 8.15 -15.15 14.55 -24.7 23.25 -32.4 31.95 -40.1 42 -45.65 52.05 -51.25 63.3 -53.8 74.55 -56.35 86.1 -55.95 97.65 -55.55 108.65 -52.35 117.2 -49.9 124.05 -45.05 130.9 -40.15 136.35 -33.5 141.8 -26.85 146.05 -19.25 150.3 -11.6 153.65 -3.75 157.15 4.1 160.15 12.3 163.2 20.5 166.55 28.65 169.85 36.75 174.2 44.4 178.55 52.1 184.65 58.85 188 62.2 192 64.6 195.95 66.95 199.9 68.55 203.8 70.1 207.1 70.95 210.4 71.85 212.45 72.2 214.5 72.5 214.65 72.45 208.85 71.05 203.8 67.9 198.7 64.7 194.6 60.3 190.5 55.9 187.6 50.85 184.7 45.8 183.3 40.75 181.1 33.9 179.9 28.35 178.65 22.8 178.15 19.45 177.725 16.52265625 177.6 16.1 177.7 16.370703125 178.25 17.7 178.9 19.3 180 21.9 181.1 24.5 182.55 27.65 184.05 30.75 185.75 33.9 188.05 38.15 190.35 41.3 192.7 44.4 194.3 46.1 195.95 47.75 196.2 47.75 192.45 42.95 190.45 36.5 188.45 30.05 187.3 22.05 186.1 14.1 184.85 4.7 183.65 -4.7 181.4 -15.4 180 -20.85 178.2 -26.7 176.4 -32.55 173.65 -38.75 170.9 -44.95 166.6 -51.55 162.3 -58.1 155.9 -65.1 149.2 -72.1 140.65 -77.2 132.1 -82.3 122.5 -85.35 112.85 -88.4 103 -89.3 93.15 -90.15 83.8 -88.75 83.9 -88.8 86.6 -89.85 89.3 -90.9 94.05 -92.35 98.8 -93.85 105.05 -95.15 109.7 -96.1 114.85 -96.5 119.95 -96.9 124.9 -96.85 129.9 -96.85 134.1 -96.55 138.3 -96.25 141.1 -95.8 134.3 -99 125.95 -100.65 117.55 -102.3 108.45 -102.3 Z"/>
</g>

<g id="RD_Prun_Tail_0_Layer1_4_FILL">
<path fill="#1D98D5" stroke="none" d="
M 8.15 -15.15
Q 14.55 -24.7 23.25 -32.4 31.95 -40.1 42 -45.65 52.05 -51.3 63.3 -53.8 74.55 -56.35 86.1 -55.95 97.65 -55.55 108.65 -52.35 117.2 -49.95 124.05 -45.05 130.9 -40.15 136.35 -33.5 141.8 -26.9 146.05 -19.25 150.3 -11.65 153.65 -3.75 157.15 4.1 160.15 12.3 163.2 20.5 166.55 28.65 169.85 36.75 174.2 44.4 178.55 52.05 184.65 58.85 188 62.2 192 64.55 195.95 66.95 199.9 68.5 203.8 70.05 207.1 70.95 210.4 71.8 212.45 72.15 214.5 72.5 214.65 72.4 208.85 71.05 203.8 67.85 198.7 64.7 194.6 60.3 190.5 55.9 187.6 50.85 184.7 45.8 183.3 40.75 181.1 33.9 179.9 28.35 178.65 22.8 178.15 19.45 177.7236328125 16.5126953125 177.6 16.1 177.697265625 16.3603515625 178.25 17.65 178.9 19.25 180 21.9 181.1 24.5 182.55 27.6 184.05 30.7 185.75 33.85 188.05 38.15 190.35 41.25 192.7 44.4 194.3 46.05 195.95 47.75 196.2 47.7 192.6 43.1 190.55 36.85 188.55 30.55 187.35 22.8 186.15 15.1 185.1 6.1 184.95 5.45 183.6 1.4 182.25 -2.6 179.15 -10.45 177 -15.65 174 -22.2 171 -28.8 166.25 -36.5 161.5 -44.2 154.05 -52.9 145.4 -62.7 134.05 -68.85 122.75 -75.05 109.85 -77.7 96.95 -80.4 83.55 -79.65 70.1 -78.9 57.15 -74.9 44.2 -70.9 32.75 -63.7 21.35 -56.55 12.5 -46.3 7.55 -38.35 4 -30.9 0.45 -23.4 -2.05 -16.85 -4.55 -10.3 -6.45 -5.1 -7.5 -2.25 -7 -0.05 -6.5 2.15 -5 3.55 -3.55 5 -1.6 5.6 1.7 -5.6 8.15 -15.15 Z"/>
</g>

<g id="RD_Prun_Tail_0_Layer1_5_FILL">
<path fill="#62BC4D" stroke="none" d="
M 80.9 -68.75
Q 71.05 -68.3 60.55 -65.75 46.75 -61.9 34.8 -54.45 22.9 -47.05 13.35 -36.7 3.85 -26.3 -2.65 -13.55 -5.2 -8.55 -6.45 -5.1 -7.5 -2.3 -7 -0.1 -6.5 2.1 -5 3.55 -3.55 5 -1.6 5.55 1.7 -5.6 8.15 -15.15 14.55 -24.75 23.25 -32.4 31.95 -40.1 42 -45.65 52.05 -51.3 63.3 -53.85 74.55 -56.35 86.1 -55.95 97.65 -55.55 108.65 -52.35 117.2 -49.95 124.05 -45.05 130.9 -40.15 136.35 -33.55 141.8 -26.9 146.05 -19.3 150.3 -11.65 153.65 -3.8 157.15 4.1 160.15 12.3 163.2 20.5 166.55 28.6 169.85 36.75 174.2 44.4 178.55 52.05 184.65 58.8 188 62.15 192 64.55 195.95 66.95 199.9 68.5 203.8 70.05 207.1 70.95 210.4 71.8 212.45 72.15 214.5 72.5 214.65 72.4 210.2 71.3 205.9 69 201.65 66.75 197.9 63.6 194.2 60.4 191.4 56.55 187.1 50.8 184.7 44.65 182.3 38.45 180.95 32.8 179.25 27.8 176.55 19.45 173.85 11.15 169.8 -0.1 167.55 -5.8 164.95 -12.15 162.3 -18.5 158.7 -25.3 155.1 -32.05 149.85 -38.9 144.65 -45.75 137.2 -52.4 129.6 -58.6 120.25 -62.55 110.85 -66.5 100.85 -67.95 90.75 -69.25 80.9 -68.75 Z"/>
</g>

<g id="RD_Prun_Tail_0_Layer1_6_FILL">
<path fill="#3A54A5" stroke="none" d="
M 225.15 74.25
Q 227.4095703125 74.2595703125 227.5 74.35 227.55 74.2 225.05 73.7
L 225.15 74.25
M 198.8 50.15
Q 200.25 50.95 200.25 50.9 199.71171875 50.4193359375 199.2 49.85
L 198.8 50.15
M 144.25 -93.5
Q 146.046875 -93.140625 146.2 -93.1 145.4681640625 -93.5828125 144.65 -94.1
L 144.25 -93.5
M 171 41.45
Q 171.4400390625 42.8609375 171.9 44.25
L 172.65 44
Q 171.2482421875 42.0458984375 171 41.45
M 107.3 -24.05
Q 106.975 -24.4 106.65 -24.75 106.6 -24.75 107 -23.55
L 107.3 -24.05 Z"/>

<path fill="#1D9AD6" stroke="none" d="
M 119.4 -103.4
Q 111.3 -105 103.1 -104.7 99.2 -104.65 93.95 -103.8 88.7 -103 82.75 -101.4 77.1 -99.75 70.85 -97.45 64.65 -95.2 57.85 -91.9 51.25 -88.7 45.85 -84.95 40.45 -81.25 36.25 -77.55 32.1 -73.9 29.2 -70.9 26.3 -67.9 24.7 -66.05 23 -64.25 20.35 -61.15 17.65 -58 14.5 -53.9 11.3 -49.8 8.1 -45 4.95 -40.2 2.25 -35 -0.55 -29.8 -2.45 -24.85 -4.35 -19.85 -5.5 -15.65 -6.65 -11.4 -7.2 -8.55 -7.7 -5.65 -7.75 -4.7 -8.35 -0.8 -7 2.05 -5.6 4.85 -2.7 6.15 -0.75 7.05 1.5 6.65 3.7 6.3 5.8 4.85 7.85 3.35 9.3 0.9 13.8 -6 19.55 -11.2 25.35 -16.45 31.75 -20.15 38.15 -23.8 44.6 -26.05 51 -28.3 56.8 -29.15 62.65 -29.95 67.6 -29.5 72.55 -29 77.3 -27.65 82.65 -26.45 86.8 -24.65 90.95 -22.85 93.95 -20.85 97.65 -18.25 99.55 -15.7 101.45 -13.2 102.25 -10.8 103.05 -8.4 103.5 -6.1 104.6 -2.95 105.8 0.35 107 3.65 108.05 6.1 109.1 8.55 109.85 9.25 110 6.8 110.15 3.35 110.25 -0.15 110.35 -4.05 110.45 -7.9 110.4 -11.45 110.4 -15 110.25 -17.5 111.65 -15.75 113.75 -12.1 115.8 -8.5 118.2 -3.5 120.55 1.45 122.9 7.25 125.25 13.1 127.2 19.25 129.3 25.55 131.55 31.75 133.85 37.95 135.9 43.15 138 48.35 139.45 51.75 140.9 55.1 141.35 55.8 142.7 58.5 144.2 61.25 145.65 64 147.45 66.9 146.4 63.75 145.6 60.8 144.85 57.85 144.25 55 142.35 44.2 141.8 37.15 141.2 30.15 141.15 25.8 141.1 21.4 140.9 18.65 143.65 23.3 147.35 29.1 151.05 34.95 155.55 41.05 160.05 47.1 165.1 52.5 168.9 56.7 172.65 59.75 176.45 62.8 179.6 64.8 182.75 66.8 184.8 67.85 186.85 68.85 187.2 69 189.25 69.8 191.25 70.6 193.25 71.4 195.35 71.85 190.6 68.45 186.75 64.25 182.95 60.1 180 55.45 182.4 58.35 186.55 61.7 190.7 65.1 195.95 68 201.25 70.85 206.9 72.25 212.55 73.45 217.2 73.85 221.85 74.25 224.65 74.25 224.912109375 74.25 225.15 74.25
L 225.05 73.7
Q 222.5 73.25 218.3 72.1 214.15 70.95 209.3 68.7 204.5 66.5 200 62.85 195.45 59.2 192.25 54.6 189.05 50 186.95 45.25 184.85 40.5 183.6 36.35 182.35 32.2 181.7 29.4 182.4 30.8 183.1 32.25 183.85 33.7 184.65 35.05 187.05 39.55 189.8 42.65 192.5 45.7 194.9 47.5 197.3 49.35 198.8 50.15
L 199.2 49.85
Q 197.0462890625 47.592578125 195.35 44.2 193.2 40 191.65 34.65 190.1 29.35 189.1 23.5 188.05 17.7 187.45 12 186.35 3.2 185.15 -6.15 183.75 -16.2 180.55 -27.45 178.85 -33.1 176.3 -39.1 173.8 -45.15 169.95 -51.65 167.5 -55.9 163.8 -60.55 160.1 -65.15 155.3 -69.6 150.55 -74.1 144.9 -77.8 139.4 -81.65 132.3 -84.2 125.25 -86.75 117.7 -88.15 110.15 -89.55 103.25 -89.9 96.3 -90.3 91.1 -89.75 94.1 -90.85 98.9 -92.15 103.75 -93.4 109.65 -94.35 115.6 -95.3 121.95 -95.45 126.7 -95.6 131.05 -95.3 135.4 -94.95 138.8 -94.45 142.25 -93.95 144.25 -93.5
L 144.65 -94.1
Q 140.36953125 -96.7021484375 134.5 -99.05 127.55 -101.8 119.4 -103.4
M 102.05 -100.25
Q 109.15 -100.8 116.15 -100.3 123.1 -99.75 129.5 -98.1 124.45 -98.3 118.9 -98 113.4 -97.7 108.15 -96.95 102.9 -96.15 98.55 -94.9 94.1 -93.8 90.8 -92.7 87.55 -91.55 85.7 -90.8 83.85 -90.05 83.7 -90.05 81.1 -89.05 78.6 -87.85 76.15 -86.65 73.75 -85.45 76.5 -85.95 79.2 -86.45 81.95 -87 84.85 -87.2 93.35 -88.2 102.65 -87.55 111.95 -86.9 121.35 -84.15 130.75 -81.35 139.6 -75.95 145 -72.7 149.75 -68.65 154.5 -64.6 158.35 -60.15 162.2 -55.75 164.9 -51.5 169 -45.1 171.8 -39.05 174.6 -33.05 176.45 -27.35 178.35 -21.7 179.65 -16.35 180.95 -10.95 181.9 -5.8 183.4 3.7 184.5 12.45 185.15 17.25 185.7 21.35 186.3 25.45 187.05 29.2 187.8 32.95 189 36.7 187.15 33.65 185.4 30.15 183.6 26.65 182 23 180.4 19.4 179.1 16
L 174 3.35 176.25 16.85
Q 176.3 17.05 176.7 19.5 177.1 21.95 177.9 26.05 178.75 30.15 180.15 35.45 181.5 40.7 183.95 46.55 186.45 52.35 190.4 57.75 194.35 63.15 200.15 67.2 195.8 65.75 191.6 62.85 187.4 59.95 183.7 56.45 180 52.9 177.15 49.6 174.3 46.25 172.65 44
L 171.9 44.25
Q 173.272265625 48.020703125 175 51.8 177.4 57.05 180.85 62 177.25 59.8 173 56.05 168.75 52.25 164.4 47.4 160.05 42.55 156.25 37.2 150.4 28.95 145.9 22 141.45 15.05 138.9 10.05 138.95 10.25 138.85 13.25 138.7 16.25 138.6 21.1 138.5 26 138.65 31.95 138.8 37.9 139.45 44 137.75 39.9 136.2 35.75 134.7 31.65 133.1 27.1 131.5 22.6 129.6 17.35 127.1 10.3 124.3 3.65 121.5 -3 118.6 -8.5 115.8 -13.7 113.6 -16.7 111.4 -19.75 109.7 -21.55 108.3875 -22.9 107.3 -24.05
L 107 -23.55
Q 107.4 -22.35 107.85 -20.4 108.3 -18.45 108.4 -16.15 108.25 -14 108.1 -11.35 108 -8.75 107.85 -6.15 107.75 -3.55 107.65 -1.45 107.3 -2.4 106.7 -4.2 106.15 -6 105.6 -8.1 105.05 -10.2 104.8 -12 104.35 -13.9 103.15 -16.15 101.9 -18.45 99.5 -20.85 97.15 -23.25 93.2 -25.5 89.2 -27.55 84.2 -29.15 79.2 -30.75 74.1 -31.7 69.05 -32.65 64.75 -32.75 60.05 -32.85 55.65 -32.15 51.25 -31.45 47.45 -30.35 43.65 -29.2 40.8 -28 34.6 -25.45 28.45 -21.65 22.25 -17.9 16.7 -12.65 11.1 -7.45 6.7 -0.55 4.9 2.5 2.6 3.4 0.3 4.25 -1.65 3.45 -3.05 2.9 -3.9 1.35 -4.75 -0.2 -5 -2.35 -5.25 -4.5 -4.75 -6.9 -4.05 -11 -1.75 -17.5 0.55 -23.95 4.55 -31.9 8.6 -39.8 14.5 -48.35 20.45 -56.9 28.45 -65.15 36.45 -73.4 46.7 -80.55 51.55 -83.75 56.8 -86.6 62.05 -89.45 67.65 -91.55 72.8 -93.6 77.75 -95.3 82.65 -96.95 87.95 -98.1 94.9 -99.65 102.05 -100.25 Z"/>
</g>

<g id="RD_FrontLeg_3_4_hoof_6_Layer0_0_FILL">
<path fill="#9EDBF8" stroke="none" d="
M -0.95 -17.2
Q -8.6921875 -16.7904296875 -12.35 -12.4 -15.971875 -8.0099609375 -18.15 -4 -20.324609375 0.0544921875 -21.9 7.4 -23.42421875 14.7861328125 -17.1 18.5 -10.7796875 22.268359375 0.15 20.85 11.0783203125 19.4369140625 14.05 14.5 17.0837890625 9.596484375 17.4 1.25 17.7197265625 -7.051171875 12.3 -12.35 6.8671875 -17.5837890625 -0.95 -17.2 Z"/>
</g>

<g id="RD_KneePatch_1_Layer0_0_FILL">
<path fill="#6DABDD" stroke="none" d="
M 10.75 -8.3
L 10.75 -8.45
Q 10.999609375 -9.6171875 11 -10.9 11.0111328125 -16.75078125 6.7 -21.15 2.4033203125 -25.5216796875 -3.55 -25.85 -9.52421875 -26.1814453125 -13.85 -22.55 -18.2634765625 -18.8869140625 -18.25 -13.75
L -18.25 -13.7
Q -18.333203125 -9.8595703125 -15.45 -3.75
L -15.4 -3.65 -15.4 -3.6
Q -12.6767578125 2.0408203125 -9.8 10.1
L -9.75 10.2
Q -9.74140625 10.22421875 -9.75 10.25
L -9.75 10.25
Q -6.684765625 18.7166015625 -4.1 21.8
L -4.05 21.85
Q -1.2443359375 25.3462890625 3.45 25.6
L 3.5 25.6
Q 8.171875 25.7728515625 11.55 22.6 14.949609375 19.4423828125 15.4 15.75 15.955859375 12.0994140625 13.1 9.2 8.4591796875 3.042578125 10.65 -7.8 10.721875 -8.034375 10.75 -8.3 Z"/>
</g>

<g id="RD_HindLeg_3_4rear_lower_2_Layer1_0_FILL">
<path fill="#9EDBF8" stroke="none" d="
M -5.65 -3.6
Q -13.0958984375 2.169140625 -8.9 12.2 -5.18671875 19.70546875 7.6 6.9 17.0154296875 -1.388671875 11.5 -5.15 1.836328125 -8.4703125 -5.65 -3.6 Z"/>
</g>

<g id="RD_HindLeg_3_4rear_lower_2_Layer0_0_FILL">
<path fill="#9EDBF8" stroke="none" d="
M -10.2 3.35
Q -15.7921875 31.9404296875 -8.9 59.25
L 24.35 43.05
Q 15.0326171875 27.90546875 13.4 -2.55
L -10.2 3.35 Z"/>
</g>

<g id="RD_HindLeg_3_4_top_3_Layer1_0_FILL">
<path fill="#6DABDD" stroke="none" d="
M -19.65 44.3
Q -19.6541015625 43.8923828125 -19.7 43.45 -19.7474609375 43.891015625 -19.8 44.3
L -19.65 44.3
M 0.85 -4.4
L 0.85 -4.4
Q -8.440625 -7.578515625 -18.8 -4.85 -20.7306640625 -4.3076171875 -22.7 -3.6 -35.693359375 1.456640625 -37.3 12.75 -36.67265625 13.8740234375 -36.05 14.95 -35.9734375 15.0919921875 -35.9 15.2
L -35.5 15.95
Q -32.348046875 1.869921875 -18.8 -1.8 -4.6494140625 -5.201171875 3.15 0.8 4.996875 2.69765625 6.85 5.45 8.5537109375 7.9505859375 9.85 11.55 10.773828125 14.0306640625 11.95 18.6 13.480078125 24.059375 14 30.65 14.6548828125 37.772265625 13.95 44.3
L 16.5 44.3
Q 17.1921875 37.8173828125 16.9 31 16.514453125 22.81796875 14.85 16.7 12.33671875 7.5259765625 8.9 2.55 6.02890625 -1.5513671875 3.15 -3.35 2.012890625 -4.0341796875 0.85 -4.4
L 0.85 -4.4 Z"/>

<path fill="#9EDBF8" stroke="none" d="
M 6.85 5.45
Q 4.996875 2.69765625 3.15 0.8 -4.6494140625 -5.201171875 -18.8 -1.8 -32.348046875 1.869921875 -35.5 15.95
L -35.9 15.2
Q -41.54375 35.5021484375 -19.7 43.4
L -19.7 43.45
Q -19.6541015625 43.8923828125 -19.65 44.3
L 13.95 44.3
Q 14.6548828125 37.772265625 14 30.65 13.480078125 24.059375 11.95 18.6 10.773828125 14.0306640625 9.85 11.55 8.5537109375 7.9505859375 6.85 5.45 Z"/>
</g>

<g id="RD_HindLeg_3_4_top_3_Layer0_0_FILL">
<path fill="#6DABDD" stroke="none" d="
M 8.7 79.1
L 8.7 79.1
Q -3.7240234375 82.317578125 -15.9 55.05 -20.4896484375 46.2076171875 -20.85 37.15 -20.8546875 36.330078125 -20.85 35.45
L -20.85 35.4
Q -22.584375 41.745703125 -21.75 46.8 -20.8296875 51.911328125 -17.95 57.6
L -17.95 57.6
Q -11.971484375 69.1169921875 -6.05 75 -5.2890625 76.075390625 -4.35 77.05
L -4.35 77
Q -0.276953125 80.9404296875 5.2 80.6 7.4673828125 80.5080078125 8.7 79.1
M 14.45 15.7
L 10.9 14.4
Q 12.36328125 19.052734375 13 21.7 14.323046875 26.6453125 14.55 32.3 14.936328125 39.9142578125 12.65 49.15 10.4171875 58.4453125 9.3 62.55 8.17265625 66.672265625 9.1 73.05 9.75390625 77.3060546875 8.75 79.05 9.4486328125 78.3134765625 9.8 77.2 9.9109375 76.9609375 9.95 76.7 10.304296875 75.502734375 10.2 71.5 10.1513671875 67.5421875 11.45 63 12.7974609375 58.489453125 15.1 49.55 17.4509765625 40.6375 17.45 33.45 17.5064453125 26.2955078125 16.1 20.75 15.6138671875 18.894921875 14.45 15.7 Z"/>

<path fill="#9EDBF8" stroke="none" d="
M 12.65 49.15
Q 14.936328125 39.9142578125 14.55 32.3 14.323046875 26.6453125 13 21.7 12.36328125 19.052734375 10.9 14.4
L -8.9 17.15 -20.85 35.45
Q -20.8546875 36.330078125 -20.85 37.15 -20.4896484375 46.2076171875 -15.9 55.05 -3.7240234375 82.317578125 8.7 79.1
L 8.7 79.1 8.75 79.1
Q 8.764453125 79.1033203125 8.75 79.05 9.75390625 77.3060546875 9.1 73.05 8.17265625 66.672265625 9.3 62.55 10.4171875 58.4453125 12.65 49.15 Z"/>
</g>

<g id="RD_KneePatch_0_Layer0_0_FILL">
<path fill="#9EDBF8" stroke="none" d="
M 6.95 -3.8
Q 7.6271484375 -8.4921875 7.65 -8.75
L 7.65 -8.75
Q 7.6830078125 -8.7876953125 7.7 -8.85 7.850390625 -9.7474609375 7.85 -10.75 7.8390625 -15.39921875 4.4 -18.9 0.946484375 -22.4283203125 -3.85 -22.7 -8.6259765625 -22.9685546875 -12.1 -20.1 -15.376171875 -17.3716796875 -15.4 -13.55
L -15.4 -13.55
Q -15.40625 -10.530078125 -12.6 -4.2
L -12.4 -3.7
Q -12.324609375 -3.590625 -12.3 -3.5 -12.2001953125 -3.3171875 -12.15 -3.15 -12.0654296875 -3.0400390625 -12 -2.95
L -12 -2.9 -11.95 -2.8
Q -9.565234375 2.4005859375 -7.1 9.35 -7.0333984375 9.4712890625 -7.05 9.6 -4.2322265625 17.2533203125 -1.9 20.1
L -1.9 20.1
Q 0.112890625 22.6044921875 3.45 22.75 6.435546875 22.852734375 8.7 21.1
L 8.7 21.15
Q 19.876171875 11.2931640625 12.45 5.8 11.055859375 5.381640625 9.7 4.45 9.7404296875 4.5390625 9.75 4.6 8.476171875 3.9505859375 7.75 2.7 6.5830078125 1.1353515625 6.75 -1.95 6.7810546875 -2.8294921875 6.9 -3.8
L 6.95 -3.8 Z"/>
</g>

<g id="WingcycleBACK_6_Layer10_0_FILL">
<path fill="#9EDBF8" stroke="none" d="
M 8.45 3.4
Q 7.9677734375 2.8767578125 7.45 2.35 5.8251953125 0.6986328125 4.3 -0.5 1.62109375 -0.30625 -0.6 2.1 -1.6041015625 3.17421875 -2.15 4.2 -2.612890625 4.3470703125 -3.1 4.5 -1.65 13.95 -3.9 24.75 -4.85 29.55 -8 43.5 -10.3 56.65 -10.75 61.5 -11.35 64.9 -12.8 71.8 -14 78 -14.1 82.4 -15.7 98.55 -15.65 103.05 -15.55 112.8 -11.95 119.8 -8.65 126.15 -3.1 125.9 -0.9 125.8 0.4 124.45 1.75 123 1.35 120.9 0.1 114.2 -1.25 100.4 -2.85 84.3 -2.4 77.35 -1.95 69.95 -1.95 63.1
L -0.6 69.6
Q 4.05 105.4 10.7 115.2 13.4 119.2 19.3 120.3 25.15 121.35 25.95 117.9 26.45 115.75 16.4 87.5 5.4 56.55 4.1 49.95 5.75 52.45 7.25 55.4 12.5 66.15 20.9 81.05 27 90.45 30 93 32.95 95.55 34.7 96 37 96.6 39.2 94.5 41.4 92.35 40.1 87.85 39.05 84.2 34.95 76.95 29.45 67.6 26.25 61.85 20.5 51.5 16.55 42.5
L 16.3 41.95 16.15 41.75
Q 14.65 36.7 13.85 35.65 14.3 36.05 19.1 43.35 23.95 49.2 28.75 57.2 34.3 64.75 35.95 60.1 38.2 54 34.3 47 27.85 36.446875 23.15 27.55 18.4978515625 18.7134765625 15.75 12.85 11.922265625 7.149609375 8.45 3.4 Z"/>

<path fill="#6DABDD" stroke="none" d="
M 3.35 -1.2
Q 3.8244140625 -0.8685546875 4.3 -0.5 5.8251953125 0.6986328125 7.45 2.35 7.9677734375 2.8767578125 8.45 3.4 11.922265625 7.149609375 15.75 12.85 18.4978515625 18.7134765625 23.15 27.55 27.85 36.446875 34.3 47 38.2 54 35.95 60.1 34.3 64.75 28.75 57.2 23.95 49.2 19.1 43.35 14.3 36.05 13.85 35.65 14.65 36.7 16.15 41.75
L 16.3 41.95 16.55 42.5
Q 20.5 51.5 26.25 61.85 29.45 67.6 34.95 76.95 39.05 84.2 40.1 87.85 41.4 92.35 39.2 94.5 37 96.6 34.7 96 32.95 95.55 30 93 27 90.45 20.9 81.05 12.5 66.15 7.25 55.4 5.75 52.45 4.1 49.95 5.4 56.55 16.4 87.5 26.45 115.75 25.95 117.9 25.15 121.35 19.3 120.3 13.4 119.2 10.7 115.2 4.05 105.4 -0.6 69.6
L -1.95 63.1
Q -1.95 69.95 -2.4 77.35 -2.85 84.3 -1.25 100.4 0.1 114.2 1.35 120.9 1.75 123 0.4 124.45 -0.9 125.8 -3.1 125.9 -8.65 126.15 -11.95 119.8 -15.55 112.8 -15.65 103.05 -15.7 98.55 -14.1 82.4 -14 78 -12.8 71.8 -11.35 64.9 -10.75 61.5 -10.3 56.65 -8 43.5 -4.85 29.55 -3.9 24.75 -1.65 13.95 -3.1 4.5 -3.05 4.15 -3.2 4.25
L -6.65 24.4 -10.95 42.5
Q -13.25 55.35 -13.45 60.65 -16.1 81.05 -16.25 82.45 -17.95 97.05 -17.7 103.95 -17.3 113.8 -13.35 121.55 -9.95 128.25 -2.85 127.55 0.15 127.25 1.9 125.4 3.85 123.35 3.45 120.3 -0.9 85.8 -0.8 81.35 2.1 98.25 4.25 105.85 6.25 113.05 8.85 116.3 11.55 119.65 14.2 121 18.25 123.1 24.35 122.4 25.8 122.25 26.95 120.95 28.3 119.45 28.25 117.2 28.15 113.2 22.05 97.65 13.35 75.6 9.45 63.45 24.5 91.35 28.75 95.2 35.15 101.05 40.95 96.35 45.6 92.55 37.55 77.65 26.65 59.7 23.3 51.7 23.15 51.3 25.05 54.75 27.55 59 29.75 61.55 32.55 64.75 34.35 64.8 36.2 64.85 37.85 61.65 39.5 58.5 38.95 53.7 38.3 48.5 35.25 44.4 30.6609375 38.187109375 22 21.2
L 21.95 21.15
Q 21.9560546875 21.1205078125 20.65 18.2 19.38515625 15.3349609375 17.25 11.95 15.1642578125 8.620703125 13.95 7 12.7408203125 5.3693359375 8.7 1.8 4.65078125 -1.7625 3.35 -1.2 Z"/>
</g>

<g id="RD_FrontLeg_3_4_hoof_11_Layer0_0_FILL">
<path fill="#6DABDD" stroke="none" d="
M 17 -14.7
L 17 -14.75
Q 13.2947265625 -22.103515625 5.85 -24.55 -1.5326171875 -26.9390625 -8.25 -22.9
L -8.3 -22.9
Q -14.2681640625 -19.2318359375 -16.65 -12.25 -16.7095703125 -12.1240234375 -16.75 -12 -18.8623046875 -5.1681640625 -20.1 3.15 -20.090234375 3.22890625 -20.1 3.3 -20.9037109375 14.259375 -8.95 21.8 -8.87421875 21.828125 -8.8 21.85 -2.87265625 24.74140625 3.8 22.85
L 3.85 22.8
Q 18.45859375 17.8275390625 19.55 4.35
L 19.55 4.45
Q 20.3158203125 -0.8623046875 19.1 -7.5 18.6923828125 -11.2048828125 17 -14.7
M 14.6 -13.25
L 14.6 -13.3
Q 15.707421875 -11.0302734375 16.15 -8.7 16.17109375 -8.456640625 16.2 -8.25 16.312109375 -7.805078125 16.4 -7.4 16.6583984375 -5.9748046875 16.8 -4.65 17.44453125 0.0908203125 16.9 4 16.8861328125 4.065625 16.85 4.1 15.7603515625 15.616796875 3.05 19.95
L 3.1 19.9
Q -2.6326171875 21.560546875 -7.75 19.1
L -7.6 19.15
Q -17.842578125 12.691796875 -17.4 3.45 -16.7109375 -1.0279296875 -15.8 -5.1 -15.2990234375 -7.1427734375 -14.75 -9.1
L -14.65 -9.45
Q -14.5974609375 -9.6119140625 -14.55 -9.8 -14.376953125 -10.4140625 -14.2 -11.05 -14.1177734375 -11.2125 -14.1 -11.4
L -14.05 -11.4
Q -11.9736328125 -17.192578125 -6.95 -20.25
L -7 -20.25
Q -1.2203125 -23.706640625 5.1 -21.65 11.4658203125 -19.561328125 14.6 -13.25 Z"/>

<path fill="#9EDBF8" stroke="none" d="
M 14.6 -13.3
L 14.6 -13.25
Q 11.4658203125 -19.561328125 5.1 -21.65 -1.2203125 -23.706640625 -7 -20.25
L -6.95 -20.25
Q -11.9736328125 -17.192578125 -14.05 -11.4
L -14.1 -11.4
Q -14.1177734375 -11.2125 -14.2 -11.05 -14.376953125 -10.4140625 -14.55 -9.8 -14.5974609375 -9.6119140625 -14.65 -9.45
L -14.75 -9.1
Q -15.2990234375 -7.1427734375 -15.8 -5.1 -16.7109375 -1.0279296875 -17.4 3.45 -17.842578125 12.691796875 -7.6 19.15
L -7.75 19.1
Q -2.6326171875 21.560546875 3.1 19.9
L 3.05 19.95
Q 15.7603515625 15.616796875 16.85 4.1 16.8861328125 4.065625 16.9 4 17.44453125 0.0908203125 16.8 -4.65 16.6583984375 -5.9748046875 16.4 -7.4 16.312109375 -7.805078125 16.2 -8.25 16.17109375 -8.456640625 16.15 -8.7 15.707421875 -11.0302734375 14.6 -13.3 Z"/>
</g>

<g id="RD_FrontLeg_3_4_upper_20_Layer1_0_FILL">
<path fill="#9EDBF8" stroke="none" d="
M 5.5 -1.05
L -5.95 -1.05
Q -23.45 30.8 -32.7 58.35
L 11.65 62.95
Q 12.4 41.65 5.5 -1.05 Z"/>
</g>

<g id="RD_HoofWrinkle_2_Layer0_0_FILL">
<path fill="#6DABDD" stroke="none" d="
M -6.15 0.85
Q -6.28046875 0.943359375 -6.4 1.05
L -6.05 1
Q 0.4029296875 -1.28125 5.95 0.8
L 6.4 0.9
Q 6.229296875 0.7560546875 6.05 0.6 3.57890625 -1.2400390625 -0.2 -1.1 -3.897265625 -1.0052734375 -6.15 0.85 Z"/>
</g>

<g id="RD_Torso_0_Layer1_0_FILL">
<path fill="#6DABDD" stroke="none" d="
M 23.2 -25.3
L 23.15 -25.3
Q 13.6134765625 -36.3685546875 0.1 -36.35 -13.413671875 -36.3685546875 -23 -25.3
L -23 -25.3
Q -33.85 -12.65 -33.5 1.85 -33 18.5 -26.15 26.5 -21.66640625 31.7732421875 -13.9 34.5 -7.2111328125 36.9048828125 0.1 36.9 17.13203125 36.8990234375 25.65 26.85 28.45 23.6 30.65 17.8 33.45 10.3 33.7 1.85 34.05 -12.65 23.2 -25.3
M 0.1 -33.35
Q 12.2779296875 -33.331640625 20.9 -23.35
L 20.9 -23.35 20.9 -23.35
Q 30.45 -12.15 30.7 1.85 30.95 16.1 23.35 24.9 15.568359375 33.90078125 0.1 33.9 -6.6890625 33.8951171875 -12.9 31.65 -19.83359375 29.2265625 -23.85 24.55 -30.2 17 -30.5 1.15 -30.7 -11.65 -20.7 -23.35
L -20.75 -23.35 -20.7 -23.35
Q -12.069921875 -33.331640625 0.1 -33.35 Z"/>

<path fill="#F4B6D1" stroke="none" d="
M -20.7 -23.35
L -20.7 -23.35 -20.75 -23.35 -20.7 -23.35
M 20.9 -23.35
L 20.9 -23.35 20.9 -23.35 20.9 -23.35 Z"/>

<path fill="#9EDBF8" stroke="none" d="
M 20.9 -23.35
Q 12.2779296875 -33.331640625 0.1 -33.35 -12.069921875 -33.331640625 -20.7 -23.35
L -20.7 -23.35
Q -30.7 -11.65 -30.5 1.15 -30.2 17 -23.85 24.55 -19.83359375 29.2265625 -12.9 31.65 -6.6890625 33.8951171875 0.1 33.9 15.568359375 33.90078125 23.35 24.9 30.95 16.1 30.7 1.85 30.45 -12.15 20.9 -23.35
L 20.9 -23.35 Z"/>
</g>

<g id="RD_Prun_Mane_cycle_1_Layer0_0_FILL">
<path fill="#1D9AD6" stroke="none" d="
M 71.7 -51.8
Q 66.35 -52.15 61.1 -52.1 55.9 -52.05 50.5 -51.55 44.6 -51 39.25 -50 33.85 -49.05 28.9 -47.75 21.1 -45.4 14.95 -43.6 8.8 -41.8 3.8 -40.55 -1.15 -39.3 -5.5 -38.55 -9.85 -37.8 -14.05 -37.55 -18.25 -37.3 -22.9 -37.55 -22.45 8.1 -21.65 53.75 -16.25 52.6 -10.95 51.2 -5.65 49.8 -0.55 48.05 2.05 47.2 4.5 46.25 6.95 45.25 9.85 44.2 14.75 42.1 19.2 39.8 25.2 36.75 30.5 33.55 35.85 30.4 40.3 27.4 44.75 24.45 48.05 22 52.6 18.5 58.4 15.8 64.25 13.1 70.75 11.35 77.25 9.6 84.05 8.95 90.8 8.35 97.3 8.95 92.1 5.5 86.1 2.9 80.1 0.3 73.55 -1.4 66.95 -3.05 60 -3.7 69.05 -7.85 79.45 -10.1 89.85 -12.35 101.05 -11.9 112.2 -11.5 123.65 -7.75 118.9 -13.05 113.1 -17.7 107.3 -22.3 100.7 -26.1 94.05 -29.95 87 -32.8 79.9 -35.7 72.65 -37.55 82.15 -40.4 92.45 -41.65 97.9 -42.15 103.3 -42.25 108.65 -42.3 114.45 -41.8 109.1 -44.05 103.85 -45.75 98.55 -47.5 92.95 -48.8 82.45 -51.15 71.7 -51.8 Z"/>
</g>

<g id="RD_Prun_Mane_cycle_1_Layer0_1_FILL">
<path fill="#672E8A" stroke="none" d="
M 73.5 -1.35
Q 66.9 -3 59.95 -3.65 66.65 -6.9 74.05 -9.15 68.15 -8.95 62.25 -8.1 56.35 -7.25 50.9 -5.65 48.15 -4.9 45.35 -3.9 42.55 -2.9 40.05 -1.85 34.5 0.6 28.9 3.15 21.5 6.7 13.35 9.8 5.25 12.9 -3.4 15.1 -12.05 17.3 -20.95 18.25 -21.2 36 -21.7 53.8 -16.25 52.65 -10.95 51.25 -5.7 49.85 -0.6 48.1 2.05 47.25 4.5 46.3 6.9 45.3 9.8 44.25 14.7 42.15 19.15 39.85 25.15 36.8 30.5 33.6 35.8 30.45 40.25 27.45 44.7 24.45 48 22.05 52.6 18.55 58.4 15.85 64.2 13.15 70.7 11.45 77.25 9.65 84 9 90.75 8.4 97.3 9 92.1 5.55 86.1 2.95 80.1 0.35 73.5 -1.35 Z"/>
</g>

<g id="RD_Prun_Mane_cycle_1_Layer0_2_FILL">
<path fill="#62BC4E" stroke="none" d="
M 71.7 -51.8
Q 66.35 -52.15 61.1 -52.1 55.9 -52.05 50.5 -51.55 44.6 -51 39.25 -50 33.85 -49.05 28.9 -47.75 21.1 -45.4 14.95 -43.6 8.8 -41.8 3.8 -40.55 -1.15 -39.3 -5.5 -38.55 -9.85 -37.8 -14.05 -37.55 -18.25 -37.3 -22.9 -37.55
L -22.55 -8.15
Q -15.9 -8.55 -9.55 -9.8 -3.25 -11.05 3 -13.05 9.25 -15 15.75 -17.5 22.3 -20 29.35 -22.95
L 32.8 -24.3
Q 33.8 -24.65 34.5 -24.85 35.2 -25.1 35.8 -25.3 36.4 -25.45 37.1 -25.75 41 -27 45.1 -28 49.35 -29.05 53.6 -29.7 57.9 -30.35 61.95 -30.7 70.35 -31.45 78.8 -31 87.25 -30.6 95.95 -28.65 90.25 -31.6 84.5 -33.75 78.75 -35.9 72.65 -37.55 82.15 -40.4 92.45 -41.65 97.9 -42.15 103.3 -42.25 108.65 -42.3 114.45 -41.8 109.1 -44.05 103.85 -45.75 98.55 -47.5 92.95 -48.8 82.45 -51.15 71.7 -51.8 Z"/>
</g>

<g id="RD_Prun_Mane_cycle_1_Layer0_3_FILL">
<path fill="#1D9AD6" stroke="none" d="
M 75.35 -54.05
Q 71 -54.6 66.9 -54.85 60.65 -55.2 55.6 -55.05 50.5 -54.95 46.1 -54.45 43.4 -54.1 39.65 -53.4 35.9 -52.75 31.35 -51.6 26.8 -50.5 21.75 -48.8 15.8 -46.95 9.4 -44.8 6.6 -43.9 4 -43.15 1.4 -42.35 -1 -41.75 -5.55 -40.55 -9.6 -39.95 -13.6 -39.35 -16.75 -39.15 -19.9 -38.9 -21.8 -38.9 -23.75 -38.9 -24 -38.85 -23.45 -15.6 -22.95 7.6 -22.5 30.85 -21.8 54.1 -21.75 54.05 -19.75 53.7 -17.8 53.4 -14.25 52.65 -10.65 51.9 -5.9 50.7 -2.3 49.7 1.65 48.45 5.65 47.2 10.4 45.45 14.75 43.8 18.95 41.8 23.15 39.85 27.3 37.75 31.6 35.5 35.05 33.45 38.5 31.4 41.75 29.45 43.4 28.45 45 27.45 46.6 26.5 48.1 25.6 48.05 25.4 48.75 24.9 49.45 24.45 50.35 23.9 51.25 23.4 51.8 23.05 54.05 21.7 55.75 20.75 57.45 19.8 59.1 19 60.95 18.25 62.4 17.65 63.8 17 64.8 16.6 67.35 15.45 70.8 14.15 74.3 12.9 78.15 11.75 82.05 10.65 85.75 10 89.65 9.25 92.8 9.05 95.95 8.8 97.85 8.8 99.75 8.8 99.75 8.85 99.75 8.8 98.3 7.7 96.9 6.55 94.2 4.85 91.55 3.15 87.75 1.45 84.1 -0.35 79.7 -1.65 75.3 -3 70.85 -3.65 66.4 -4.3 62.55 -4.2 66.3 -5.25 70.95 -6.35 75.6 -7.5 80.85 -8.35 86.1 -9.2 91.6 -9.65 97.15 -10.05 102.6 -9.7 106.2 -9.5 109.6 -9 113 -8.5 115.95 -7.85 118.95 -7.25 121.25 -6.65 124.6 -5.85 126.45 -5.4 128.15 -5 128.35 -5 128.2 -5.1 127.3 -6.2 126.25 -7.5 124.15 -9.8 122.1 -12.15 118.8 -15.15 115.6 -18.15 111.05 -21.5 106.7 -24.75 101.8 -27.45 96.85 -30.1 91.8 -32.2 86.8 -34.25 82.15 -35.55 77.5 -36.85 73.7 -37.35 76.35 -37.8 79.75 -38.25 83.15 -38.75 87.05 -39.15 90.95 -39.6 95.1 -39.8 99.2 -40.05 103.25 -39.95 107.3 -39.9 110.9 -39.6 114.5 -39.25 117.35 -38.85 120.15 -38.5 121.75 -38.15
L 123.4 -37.9
Q 123.35 -37.9 121 -39.25 118.65 -40.6 114.45 -42.65 110.25 -44.7 104.6 -46.9 99 -49.05 92.5 -50.75 88.35 -51.85 84 -52.65 79.7 -53.5 75.35 -54.05
M 52.05 -50.15
Q 55.4 -50.4 58.6 -50.5 61.8 -50.55 65.1 -50.5 75.05 -50.35 84.75 -48.8 94.45 -47.3 104.55 -43.9 97.55 -43.95 91.1 -43.15 84.7 -42.3 78.65 -40.8 72.65 -39.3 66.85 -37.3 76.55 -35.15 85.75 -31.55 94.95 -27.95 103.25 -22.75 111.6 -17.6 118.6 -10.75 109.55 -13.1 100.85 -13.5 92.2 -13.85 84.05 -12.6 75.9 -11.3 68.35 -8.7 60.85 -6.1 54.15 -2.6 60.75 -2.3 67.25 -1.1 73.75 0.05 79.85 2.1 85.9 4.15 91.2 7.05 84.85 7.1 78.6 8.1 72.35 9.15 66.5 11.05 60.6 12.95 55.45 15.65 50.3 18.4 46.1 21.75 39.75 25.85 33.3 30.05 29.8 32.2 25.85 34.45 21.9 36.7 17.75 38.75 8.9 43.15 -0.5 46.35 -9.95 49.55 -19.9 51.7 -21.05 7.9 -21.95 -35.95 -17.65 -35.75 -13.6 -36 -9.55 -36.25 -5.4 -36.95 -1.25 -37.65 3.3 -38.75 7.9 -39.9 13.3 -41.45 18.65 -43.05 25.2 -45.05 28.8 -46.1 32 -46.9 35.15 -47.65 38.3 -48.25 41.45 -48.85 45.05 -49.35 48.75 -49.9 52.05 -50.15 Z"/>
</g>

<g id="RD_Neck_0_Layer0_0_FILL">
<path fill="#F4B6D1" stroke="none" d="
M -8.5 -95
L -9.05 -95.1 -9.05 -95.05 -8.5 -95
M 17.15 -95.1
L 17.65 -95.1 17.65 -95.15 17.15 -95.1 Z"/>

<path fill="#9EDBF8" stroke="none" d="
M 17.1 -93.6
L 17.15 -95.1 17.65 -95.15
Q 17.35 -105.8 4.4 -107.35 -8.35 -106.95 -9.05 -95.1
L -8.5 -95 -8.6 -93.5
Q -9 -84.8 -14.05 -36.5 -15 -27.3 -15.7 -19.6
L -15.8 -18.7 -15.8 -18.65 -15.85 -18.1
Q -16.3 -13.5 -18.2 -8 -18.39453125 -5.665625 -1.15 -0.05 24.5900390625 -5.5109375 24.5 -7.4 22.65 -12.8 22.35 -17.25
L 22.35 -17.4 22.25 -18.75
Q 21.65 -26.9 20.8 -36.7 16.9 -82.4 17.1 -93.6 Z"/>

<path fill="#6DABDD" stroke="none" d="
M 4.65 -109.35
Q 4.55 -109.35 4.5 -109.35 -10.35 -108.95 -11.05 -95.15
L -11.5 -95.15 -11.6 -93.65
Q -12 -85 -17.05 -36.8 -18 -27.6 -18.7 -19.85
L -18.85 -18.4
Q -18.85 -18.35 -18.85 -18.25 -19.3 -13.65 -18.2 -8 -16.3 -13.5 -15.85 -18.1
L -15.8 -18.65 -15.8 -18.7 -15.7 -19.6
Q -15 -27.3 -14.05 -36.5 -9 -84.8 -8.6 -93.5
L -8.5 -95 -9.05 -95.05 -9.05 -95.1
Q -8.35 -106.95 4.4 -107.35 17.35 -105.8 17.65 -95.15
L 17.65 -95.1 17.15 -95.1 17.1 -93.6
Q 16.9 -82.4 20.8 -36.7 21.65 -26.9 22.25 -18.75
L 22.35 -17.4 22.35 -17.25
Q 22.65 -12.8 24.5 -7.4 25.65 -12.95 25.35 -17.35 25.35 -17.4 25.35 -17.45
L 25.25 -18.95
Q 24.65 -27.1 23.8 -36.95 19.9 -82.4 20.1 -93.55
L 20.15 -95.05 19.65 -95.05
Q 19.55 -107.6 4.65 -109.35 Z"/>
</g>

<g id="Wingcycle_6_Layer8_0_FILL">
<path fill="#9EDBF8" stroke="none" d="
M 8.45 3.4
Q 7.9677734375 2.8767578125 7.45 2.35 5.8251953125 0.6986328125 4.3 -0.5 1.62109375 -0.30625 -0.6 2.1 -1.6041015625 3.17421875 -2.15 4.2 -2.612890625 4.3470703125 -3.1 4.5 -1.65 13.95 -3.9 24.75 -4.85 29.55 -8 43.5 -10.3 56.65 -10.75 61.5 -11.35 64.9 -12.8 71.8 -14 78 -14.1 82.4 -15.7 98.55 -15.65 103.05 -15.55 112.8 -11.95 119.8 -8.65 126.15 -3.1 125.9 -0.9 125.8 0.4 124.45 1.75 123 1.35 120.9 0.1 114.2 -1.25 100.4 -2.85 84.3 -2.4 77.35 -1.95 69.95 -1.95 63.1
L -0.6 69.6
Q 4.05 105.4 10.7 115.2 13.4 119.2 19.3 120.3 25.15 121.35 25.95 117.9 26.45 115.75 16.4 87.5 5.4 56.55 4.1 49.95 5.75 52.45 7.25 55.4 12.5 66.15 20.9 81.05 27 90.45 30 93 32.95 95.55 34.7 96 37 96.6 39.2 94.5 41.4 92.35 40.1 87.85 39.05 84.2 34.95 76.95 29.45 67.6 26.25 61.85 20.5 51.5 16.55 42.5
L 16.3 41.95 16.15 41.75
Q 14.65 36.7 13.85 35.65 14.3 36.05 19.1 43.35 23.95 49.2 28.75 57.2 34.3 64.75 35.95 60.1 38.2 54 34.3 47 27.85 36.45 23.15 27.85 18.1998046875 18.819921875 15.95 12.9 11.922265625 7.149609375 8.45 3.4 Z"/>

<path fill="#6DABDD" stroke="none" d="
M 3.35 -1.2
Q 3.8244140625 -0.8685546875 4.3 -0.5 5.8251953125 0.6986328125 7.45 2.35 7.9677734375 2.8767578125 8.45 3.4 11.922265625 7.149609375 15.95 12.9 18.1998046875 18.819921875 23.15 27.85 27.85 36.45 34.3 47 38.2 54 35.95 60.1 34.3 64.75 28.75 57.2 23.95 49.2 19.1 43.35 14.3 36.05 13.85 35.65 14.65 36.7 16.15 41.75
L 16.3 41.95 16.55 42.5
Q 20.5 51.5 26.25 61.85 29.45 67.6 34.95 76.95 39.05 84.2 40.1 87.85 41.4 92.35 39.2 94.5 37 96.6 34.7 96 32.95 95.55 30 93 27 90.45 20.9 81.05 12.5 66.15 7.25 55.4 5.75 52.45 4.1 49.95 5.4 56.55 16.4 87.5 26.45 115.75 25.95 117.9 25.15 121.35 19.3 120.3 13.4 119.2 10.7 115.2 4.05 105.4 -0.6 69.6
L -1.95 63.1
Q -1.95 69.95 -2.4 77.35 -2.85 84.3 -1.25 100.4 0.1 114.2 1.35 120.9 1.75 123 0.4 124.45 -0.9 125.8 -3.1 125.9 -8.65 126.15 -11.95 119.8 -15.55 112.8 -15.65 103.05 -15.7 98.55 -14.1 82.4 -14 78 -12.8 71.8 -11.35 64.9 -10.75 61.5 -10.3 56.65 -8 43.5 -4.85 29.55 -3.9 24.75 -1.65 13.95 -3.1 4.5 -3.05 4.15 -3.2 4.25
L -6.65 24.4 -10.95 42.5
Q -13.25 55.35 -13.45 60.65 -16.1 81.05 -16.25 82.45 -17.95 97.05 -17.7 103.95 -17.3 113.8 -13.35 121.55 -9.95 128.25 -2.85 127.55 0.15 127.25 1.9 125.4 3.85 123.35 3.45 120.3 -0.9 85.8 -0.8 81.35 2.1 98.25 4.25 105.85 6.25 113.05 8.85 116.3 11.55 119.65 14.2 121 18.25 123.1 24.35 122.4 25.8 122.25 26.95 120.95 28.3 119.45 28.25 117.2 28.15 113.2 22.05 97.65 13.35 75.6 9.45 63.45 24.5 91.35 28.75 95.2 35.15 101.05 40.95 96.35 45.6 92.55 37.55 77.65 26.65 59.7 23.3 51.7 23.15 51.3 25.05 54.75 27.55 59 29.75 61.55 32.55 64.75 34.35 64.8 36.2 64.85 37.85 61.65 39.5 58.5 38.95 53.7 38.3 48.5 35.25 44.4 30.6609375 38.187109375 22 21.2
L 21.95 21.15
Q 21.9505859375 21.1251953125 21.9 21.05 20.69765625 17.276171875 17.95 12.2 12.93203125 3.73125 8.7 1.2 4.4705078125 -1.33125 3.35 -1.2 Z"/>
</g>

<g id="RD_Skull_2_Layer0_0_FILL">
<path fill="#6DABDD" stroke="none" d="
M 6.5 -52
Q 3.8232421875 -52.20390625 0.9 -52.25 -3.4978515625 -52.3205078125 -7.7 -51.65 -12.3541015625 -50.8947265625 -16.75 -49.2 -18.8431640625 -48.379296875 -20.75 -47.4 -26.1625 -44.578125 -30.1 -40.4 -30.1439453125 -40.3251953125 -30.25 -40.25 -30.637890625 -39.783203125 -31.05 -39.3 -31.219921875 -39.1001953125 -31.4 -38.9 -31.4419921875 -38.85 -31.5 -38.8 -32.3697265625 -37.730078125 -33.2 -36.65 -46.1 -20.0744140625 -46.1 -1.1 -46.1 11.3 -43.4 20.4 -40.6 29.75 -34.65 36.5 -27.65 44.55 -18.5 48.75 -9.25 53.05 1.5 53.05 22.65 53.05 37 36.5 42.8 29.9 45.45 20.1 47.85 11.1 47.9 -1.7 47.8548828125 -21.3345703125 36.05 -36.65 35.2205078125 -37.7357421875 34.3 -38.8 34.2921875 -38.8501953125 34.25 -38.9 33.8369140625 -39.4025390625 33.4 -39.9 33.247265625 -40.076171875 33.1 -40.25 33.019921875 -40.3251953125 32.95 -40.4 29.2015625 -44.5505859375 24.15 -47.25 20.981640625 -48.9029296875 17.3 -50 13.7369140625 -51.0845703125 9.45 -51.65 8.0302734375 -51.842578125 6.5 -52
M 30.35 -38.8
Q 30.7716796875 -38.38359375 31.15 -37.95 31.7154296875 -37.3041015625 32.25 -36.65 44.8521484375 -21.4498046875 44.9 -1.7 44.85 10.45 42.6 18.95 40.15 28.25 34.75 34.55 21.25 50.05 1.5 50.05 -8.55 50.05 -17.25 46.05 -25.8 42.1 -32.4 34.55 -38 28.1 -40.6 19.25 -43.1 10.65 -43.1 -1.1 -43.1 -20.5748046875 -29.4 -36.65 -29.10546875 -37.00078125 -28.8 -37.35 -28.15 -38.0984375 -27.5 -38.8 -27.4234375 -38.8501953125 -27.4 -38.9 -26.6900390625 -39.5982421875 -26 -40.25 -25.883984375 -40.325390625 -25.8 -40.4 -23.431640625 -42.5267578125 -20.75 -44.15 -17.675390625 -45.96484375 -14.2 -47.15 -7.25 -49.55 0.9 -49.25 10.95 -48.85 16.65 -47.2 20.4560546875 -46.0625 23.7 -44.15 26.42265625 -42.547265625 28.75 -40.4 28.8318359375 -40.325390625 28.9 -40.25 29.6146484375 -39.5994140625 30.25 -38.9 30.3234375 -38.85 30.35 -38.8 Z"/>

<path fill="#9EDBF8" stroke="none" d="
M 31.15 -37.95
Q 30.7716796875 -38.38359375 30.35 -38.8 30.3234375 -38.85 30.25 -38.9 29.6146484375 -39.5994140625 28.9 -40.25 28.8318359375 -40.325390625 28.75 -40.4 26.42265625 -42.547265625 23.7 -44.15 20.4560546875 -46.0625 16.65 -47.2 10.95 -48.85 0.9 -49.25 -7.25 -49.55 -14.2 -47.15 -17.675390625 -45.96484375 -20.75 -44.15 -23.431640625 -42.5267578125 -25.8 -40.4 -25.883984375 -40.325390625 -26 -40.25 -26.6900390625 -39.5982421875 -27.4 -38.9 -27.4234375 -38.8501953125 -27.5 -38.8 -28.15 -38.0984375 -28.8 -37.35 -29.10546875 -37.00078125 -29.4 -36.65 -43.1 -20.5748046875 -43.1 -1.1 -43.1 10.65 -40.6 19.25 -38 28.1 -32.4 34.55 -25.8 42.1 -17.25 46.05 -8.55 50.05 1.5 50.05 21.25 50.05 34.75 34.55 40.15 28.25 42.6 18.95 44.85 10.45 44.9 -1.7 44.8521484375 -21.4498046875 32.25 -36.65 31.7154296875 -37.3041015625 31.15 -37.95 Z"/>
</g>

<g id="RD_Mouth_front_chin__offcenter_0_Layer1_0_FILL">
<path fill="#9EDBF8" stroke="none" d="
M 37 3
Q 35.4482421875 1.9125 32.5 3.5 11.965625 12.7740234375 -7.2 2.65 -15.0669921875 10.61171875 -30.45 4.2 -34.428515625 2.26328125 -35.1 3.05 -26.379296875 13.5955078125 -14.6 17.85 3.9671875 24.438671875 20.35 16.8 31.5595703125 11.51484375 37 3 Z"/>
</g>

<g id="RD_Hair_07_9_Layer0_0_FILL">
<path fill="#FDF6AE" stroke="none" d="
M 8.55 -0.95
Q 6.398046875 -3.252734375 4 -5.7 1.6525390625 -8.1046875 -7.5 -14.6 -5.7623046875 -3.8810546875 -4.15 6 -0.330078125 1.0494140625 6.3 1.75 10.7513671875 1.3603515625 8.55 -0.95 Z"/>

<path fill="#1E98D5" stroke="none" d="
M 4 -5.7
Q 6.398046875 -3.252734375 8.55 -0.95 10.7513671875 1.3603515625 6.3 1.75 -0.330078125 1.0494140625 -4.15 6 -5.039453125 10.891015625 -3.65 9.65 -0.7775390625 5.3033203125 8.1 3.55 16.9814453125 1.8451171875 3.45 -9.7
L -5.35 -16.3
Q -9.184765625 -17.27734375 -7.5 -14.6 1.6525390625 -8.1046875 4 -5.7 Z"/>
</g>

<g id="RD_Ear_1_Layer1_0_FILL">
<path fill="#9EDBF8" stroke="none" d="
M 2.45 -35.95
Q 0.95 -33.9 0 -30.55 -0.8 -27.75 -2.05 -18.8
L -3.15 -10.35
Q -3.116796875 -10.236328125 -3.1 -10.15 2.44375 8.682421875 9.05 22.35 14.6 19.45 17.75 9.75 20.45 1.45 20.2 -4.95
L 20.2 -5
Q 19.9 -11.55 18.15 -17.5 16.5 -23.1 13.2 -29.1 8.85 -37.1 4.4 -37.75 3.55 -37.55 2.45 -35.95
M 9.35 -27.8
Q 14.55 -18.3 14.7 -10.15 14.8462890625 -2.0525390625 9.8 6.35 9.6794921875 6.5888671875 9.55 6.8
L 9.7 6.35
Q 15.65 -8.15 9.35 -27.8 Z"/>

<path fill="#6DABDD" stroke="none" d="
M 14.7 -10.15
Q 14.55 -18.3 9.35 -27.8 15.65 -8.15 9.7 6.35
L 9.55 6.8
Q 9.6794921875 6.5888671875 9.8 6.35 14.8462890625 -2.0525390625 14.7 -10.15
M 15.85 -30.55
Q 13 -35.75 9.45 -38.55 6.65 -40.8 4.65 -40.75
L 4.6 -40.75
Q 2.85 -41.05 0.95 -38.85 -1.1 -36.45 -2.85 -31.55 -4.3 -27.4 -4.65 -20.95 -5.0384765625 -13.7126953125 -3.3 -10.3
L -3.3 -10.3
Q -3.24765625 -10.1875 -3.2 -10.1
L -3.15 -10.35 -2.05 -18.8
Q -0.8 -27.75 0 -30.55 0.95 -33.9 2.45 -35.95 3.55 -37.55 4.4 -37.75 8.85 -37.1 13.2 -29.1 16.5 -23.1 18.15 -17.5 19.9 -11.55 20.2 -5
L 20.2 -4.95
Q 20.45 1.45 17.75 9.75 14.6 19.45 9.05 22.35
L 9.65 22.5
Q 15.5001953125 20.8228515625 19.5 11.75 23.5525390625 2.6892578125 23.2 -5.1 22.9 -12 21.05 -18.25 19.3 -24.2 15.85 -30.55 Z"/>
</g>

<g id="Mask_Mask_RD2_Eyewhite_3_4_1_Layer1_0_FILL">
<path fill="#FFFFFF" stroke="none" d="
M 19.8 -17.45
Q 18.8931640625 -19.258984375 17.7 -20.7
L 17.7 -20.65
Q 13.5314453125 -24.9595703125 7.3 -25.2 2.1509765625 -25.3900390625 -3.35 -22.8
L -3.35 -22.85
Q -5.1125 -21.846875 -6.85 -20.55 -8.8 -18.75 -10.55 -16.85 -12.1 -15.2 -13.4 -13.35 -14.85 -11.3 -16.1 -9.2 -17.35 -7 -18.45 -4.7 -19 -3.6 -19.55 -2.4 -20.067578125 -0.894921875 -20.5 0.65 -23.4314453125 11.3853515625 -19.45 19.15 -15.521484375 26.9826171875 -7.05 27.3 -6.3294921875 27.3373046875 -5.65 27.3 2.151171875 27.0375 9.6 20.25 16.1873046875 14.3169921875 19.35 6.15 20.1560546875 4.2439453125 20.75 2.2 22.1896484375 -3.109765625 21.95 -7.7 21.83984375 -13.462890625 19.8 -17.45 Z"/>
</g>

<g id="RD2_Eyewhite_3_4_1_Layer1_0_FILL">
<path fill="#FFFFFF" stroke="none" d="
M 19.8 -17.45
Q 18.8931640625 -19.258984375 17.7 -20.7
L 17.7 -20.65
Q 13.5314453125 -24.9595703125 7.3 -25.2 2.1509765625 -25.3900390625 -3.35 -22.8
L -3.35 -22.85
Q -5.1125 -21.846875 -6.85 -20.55 -8.8 -18.75 -10.55 -16.85 -12.1 -15.2 -13.4 -13.35 -14.85 -11.3 -16.1 -9.2 -17.35 -7 -18.45 -4.7 -19 -3.6 -19.55 -2.4 -20.067578125 -0.894921875 -20.5 0.65 -23.4314453125 11.3853515625 -19.45 19.15 -15.521484375 26.9826171875 -7.05 27.3 -6.3294921875 27.3373046875 -5.65 27.3 2.151171875 27.0375 9.6 20.25 16.1873046875 14.3169921875 19.35 6.15 20.1560546875 4.2439453125 20.75 2.2 22.1896484375 -3.109765625 21.95 -7.7 21.83984375 -13.462890625 19.8 -17.45 Z"/>
</g>

<g id="RD2_Iris_0_Layer2_0_FILL">
<path fill="url(#Gradient_1)" stroke="none" d="
M 17.7 -13.05
Q 13.45 -21.1 5.25 -22.95 -3 -24.85 -10.3 -19.4 -17.6 -14 -19.75 -4.45 -21.95 5.05 -17.7 13.1 -13.45 21.15 -5.2 23 3 24.85 10.3 19.45 17.6 14 19.8 4.5 21.95 -5 17.7 -13.05 Z"/>
</g>

<g id="RD2_Iris_0_Layer1_0_FILL">
<path fill="#FFB8E0" stroke="none" d="
M -6.5 7.8
Q -17.7408203125 11.0453125 -18.7 11 -17.71953125 13.7845703125 -15.6 16.55
L 0.15 6.6 -6.5 7.8 Z"/>
</g>

<g id="RD2_Iris_0_Layer0_0_FILL">
<path fill="#DB53A2" stroke="none" d="
M -20.2 5.15
Q -19.7849609375 8.212109375 -18.65 11.05
L 0.45 6.45 -20.2 5.15 Z"/>
</g>

<g id="RD2_Pupil_0_Layer0_0_FILL">
<path fill="#000000" stroke="none" d="
M 12.45 -9.6
Q 10.5203125 -15.9396484375 5.5 -17.45 0.487109375 -18.9677734375 -4.7 -14.75 -9.854296875 -10.4658203125 -12.15 -2.95 -14.402734375 4.56015625 -12.5 10.9 -10.484375 17.37421875 -5.45 18.9 -0.4265625 20.40234375 4.7 16.1 9.91484375 11.9001953125 12.15 4.4 14.43828125 -3.12578125 12.45 -9.6 Z"/>
</g>

<g id="RD2_Hilights_0_Layer1_0_FILL">
<path fill="#FFFFFF" stroke="none" d="
M -8.15 11.5
Q -8.11953125 11.614453125 -8.1 11.7 -8.0240234375 11.8134765625 -7.95 11.95 -7.7912109375 12.381640625 -7.55 12.75 -7.4705078125 12.844140625 -7.4 12.9 -7.2078125 13.113671875 -6.95 13.3 -6.50546875 13.6888671875 -6.05 13.8 -5.996875 13.8515625 -5.95 13.85 -5.6171875 13.9560546875 -5.2 13.95 -3.9484375 13.97890625 -3.4 12.75 -3.3849609375 12.698046875 -3.4 12.65 -3.1736328125 12.1291015625 -3.25 11.35 -3.259765625 11.128515625 -3.35 10.85 -3.3462890625 10.7740234375 -3.4 10.7 -3.7330078125 9.7962890625 -4.4 9.15 -4.435546875 9.108203125 -4.5 9.05 -4.72890625 8.870703125 -4.9 8.75 -5.579296875 8.305859375 -6.3 8.4 -7.123828125 8.352734375 -7.65 8.9 -7.813671875 9.0921875 -8 9.35 -8.0568359375 9.446484375 -8.1 9.55 -8.510546875 10.357421875 -8.15 11.5
M 3.85 -8.7
L 3.8 -8.75
Q 1.3921875 -11.8771484375 -1.15 -11.7 -4.233984375 -11.8736328125 -5.6 -8.2
L -5.6 -8.15
Q -6.528125 -5.45625 -5.75 -1.6 -5.0052734375 2.07265625 -3.05 4.6
L -3.05 4.6
Q -0.6041015625 7.82109375 2 7.65 5.12890625 7.837890625 6.4 4 7.375390625 1.40078125 6.6 -2.4
L 6.6 -2.45
Q 5.8041015625 -6.1376953125 3.85 -8.7 Z"/>
</g>

<g id="RD2_Iris_2_Layer2_0_FILL">
<path fill="url(#Gradient_1)" stroke="none" d="
M 17.7 -13.05
Q 13.45 -21.1 5.25 -22.95 -3 -24.85 -10.3 -19.4 -17.6 -14 -19.75 -4.45 -21.95 5.05 -17.7 13.1 -13.45 21.15 -5.2 23 3 24.85 10.3 19.45 17.6 14 19.8 4.5 21.95 -5 17.7 -13.05 Z"/>
</g>

<g id="RD2_Iris_2_Layer1_0_FILL">
<path fill="#FFB8E0" stroke="none" d="
M 13.45 16.85
Q 16.0119140625 13.9716796875 17.35 11.1 16.4345703125 11.1580078125 5.55 8.1
L -0.15 6.5 13.45 16.85 Z"/>
</g>

<g id="RD2_Iris_2_Layer0_0_FILL">
<path fill="#DB53A2" stroke="none" d="
M 17.35 11.4
Q 18.9265625 8.2283203125 19.75 5.1 9.7240234375 5.888671875 -0.25 6.5
L 17.35 11.4 Z"/>
</g>

<g id="RD2_Blink_front_0_Layer2_0_FILL">
<path fill="#000000" stroke="none" d="
M 21.9 -5.65
L 23.1 -7.3
Q 23.1501953125 -11.0392578125 22.05 -14.9 21.50234375 -16.8623046875 18.45 -20.35 15.1640625 -24.176953125 10.6 -25 1.2861328125 -26.751171875 -7.55 -20.4 -11.2509765625 -17.658984375 -14.3 -13.75 -17.4216796875 -9.651953125 -19.9 -2.9 -20.3908203125 -1.584375 -20.65 -0.25 -21.45 3.05 -21.55 5.3 -22.05 12.45 -21.05 15.3 -20.5654296875 16.36484375 -20.6 16.05 -21.7583984375 11.3294921875 -18.4 -0.35
L -17.55 -3
Q -15.6931640625 -8.214453125 -12.6 -12.2 -9.701171875 -15.798828125 -7.15 -17.95 8.8515625 -29.4330078125 18.45 -16.6 21.2458984375 -12.47421875 21.9 -5.65 Z"/>
</g>

<g id="RD2_Blink_front_0_Layer1_0_FILL">
<path fill="#000000" stroke="none" d="
M 34.5 -5.75
Q 34.45 -6.95 22.25 -8.95
L 22.65 -6.8
Q 34.55 -4.55 34.5 -5.75 Z"/>
</g>

<g id="RD2_Blink_front_0_Layer1_1_FILL">
<path fill="#000000" stroke="none" d="
M 21 -16.15
L 21.9 -14.05
Q 36.65 -16.1 36.25 -17.25 36.05 -17.8 29.15 -17.1 21.9 -16.25 21 -16.15 Z"/>
</g>

<g id="RD2_Blink_front_0_Layer1_2_FILL">
<path fill="#000000" stroke="none" d="
M 18.2 -19.05
Q 28 -25.85 26.8 -26.7 26 -27.15 16.95 -21.2
L 18.2 -19.05 Z"/>
</g>

<g id="RD2_Blink_front_100_Layer2_0_FILL">
<path fill="#000000" stroke="none" d="
M 21.9 -5.65
L 23.1 -7.3
Q 23.1501953125 -11.0392578125 22.05 -14.9 21.50234375 -16.8623046875 18.45 -20.35 15.1640625 -24.176953125 10.6 -25 1.2861328125 -26.751171875 -7.55 -20.4 -11.2509765625 -17.658984375 -14.3 -13.75 -17.4216796875 -9.651953125 -19.9 -2.9 -20.3908203125 -1.584375 -20.65 -0.25 -21.203125 2.1416015625 -21.4 5.3 -21.922265625 12.8583984375 -21.05 15.3 -20.5654296875 16.36484375 -20.6 16.05 -21.7583984375 11.3294921875 -18.4 -0.35
L -17.55 -3
Q -15.6931640625 -8.214453125 -12.6 -12.2 -9.701171875 -15.798828125 -7.15 -17.95 8.8515625 -29.4330078125 18.45 -16.6 21.2458984375 -12.47421875 21.9 -5.65 Z"/>
</g>

<g id="RD_Brow_front_1_Layer2_0_FILL">
<path fill="#9EDBF8" stroke="none" d="
M 3.1 -1.5
Q 8.665625 -11.21171875 2.1 -17.25 1.5234375 -21.40078125 -9.4 -25.45 -20.3255859375 -29.4990234375 -34.15 -13.7 -40.514453125 0.240625 -34.85 -1.55 -21.6294921875 -0.3052734375 -6.05 -1.7 -6.0109375 -1.5755859375 -6 -1.5
L 3.1 -1.5 Z"/>
</g>

<g id="RD_Lashes_02_6_Layer0_0_FILL">
<path fill="#000000" stroke="none" d="
M -0.05 5.95
L -0.3 8
Q 8.85 9.6 9.15 8.4 9.35 7.3 -0.05 5.95 Z"/>
</g>

<g id="RD_Lashes_02_6_Layer0_1_FILL">
<path fill="#000000" stroke="none" d="
M 0.25 1.75
L 0.15 3.95
Q 11.25 3.35 11.4 2.2 11.45 1.6 6.35 1.65 0.9 1.75 0.25 1.75 Z"/>
</g>

<g id="RD_Lashes_02_6_Layer0_2_FILL">
<path fill="#000000" stroke="none" d="
M 10.65 -2.75
Q 10.562890625 -3.4384765625 0.55 -2.3 -5.8814453125 -1.6576171875 -0.3 -0.1 10.7623046875 -1.566796875 10.65 -2.75 Z"/>
</g>

<g id="RD_Brow_front_1_Layer0_0_FILL">
<path fill="#000000" stroke="none" d="
M -1.1 -2
Q -3 -1.9 -15.25 -1.75 -27.6 -1.6 -30.8 -2.15 -33.65 -3.3 -33.95 -7.2
L -34 -7.2
Q -34.8 -5.2 -34.3 -2.85 -33.85 -0.55 -32.25 -0.25 -30.45 0.05 -16.45 0.3 -1.9 0.5 1 0.1 1.05 0.05 1.15 0.05 4.85 -1.3 1.05 -2.1 0.8 -2.15 -1.1 -2 Z"/>
</g>

<g id="RD_Mouth_front_hole__0_Layer4_0_FILL">
<path fill="#6DABDD" stroke="none" d="
M 10.3 3.5
L 10.25 3.45 10.25 3.5
Q 9.644140625 7.4646484375 7.15 10.1 4.3 13.15 0.05 13.2 -4.35 13.1 -6.7 10.4 -9.45 7.1 -10.5 2.9
L -10.55 2.85 -10.5 3.35
Q -10.9 7.8 -7.75 11.55 -7.5890625 11.7296875 -7.45 11.9 -4.50859375 14.9052734375 -0.25 15 4.7 15.05 7.55 12.05 10.4 8.95 10.3 3.5 Z"/>
</g>

<g id="RD_Mouth_front_nostril__0_Layer2_0_FILL">
<path fill="#6DABDD" stroke="none" d="
M -7.35 3.35
Q -6.7 5.05 -3.5 4.15 -5.65 3.2 -6 2.3 -6.5 1.25 -6.2 -0.15 -8 1.9 -7.35 3.35
M 4.05 4
Q 6.9 4.85 7.7 3.2 8.4 1.6 6.75 -0.3 7 1.05 6.55 2.1 6.15 3.1 4.05 4 Z"/>
</g>

<g id="RD_Cheek_0_Layer1_0_FILL">
<path fill="#9EDBF8" stroke="none" d="
M -13.65 -3.75
Q -16.0267578125 -3.7431640625 -18.3 -3.7 -20.0263671875 -3.6904296875 -20.9 -3.8 -21.223046875 -3.733984375 -21.55 -3.7
L -20.55 -1.2
Q -20.5072265625 -1.092578125 -20.45 -1
L -18 5.3
Q -0.6107421875 15.3609375 11.3 8.45 14.9248046875 5.441796875 14.75 2.15 13.9091796875 2.18671875 12.85 2 11.7677734375 1.863671875 10.45 1.45 9.4078125 1.183203125 8.2 0.75 -4.2572265625 -4.6009765625 -13.65 -3.75 Z"/>

<path fill="#6DABDD" stroke="none" d="
M -18.3 -3.7
Q -16.0267578125 -3.7431640625 -13.65 -3.75 -4.2572265625 -4.6009765625 8.2 0.75 9.4078125 1.183203125 10.45 1.45 11.7677734375 1.863671875 12.85 2 13.9091796875 2.18671875 14.75 2.15 14.90078125 2.1408203125 15.05 2.1 14.90234375 2.0078125 14.75 1.9 14.6515625 1.8080078125 14.55 1.7 13.4794921875 0.9662109375 12.35 0.4 -2.715234375 -6.280859375 -14.1 -5.55 -17.2962890625 -5.154296875 -20.3 -4.9
L -20.35 -4.85
Q -22.91953125 -4.0283203125 -20.9 -3.8 -20.0263671875 -3.6904296875 -18.3 -3.7 Z"/>
</g>

<g id="RD_Cheek_0_Layer0_0_FILL">
<path fill="#6DABDD" stroke="none" d="
M -18 -1.55
L -17.9 -1.35
Q -17.54609375 -1.069921875 -16.4 -0.6
L -16.4 -0.6
Q -13.845703125 0.619140625 -10.8 1.65
L -7.85 2.15
Q -12.6994140625 -0.2359375 -14.55 -1.05 -17.6279296875 -1.697265625 -18 -1.55 Z"/>
</g>

<g id="RD_Wrinkle_0_Layer0_0_FILL">
<path fill="#6DABDD" stroke="none" d="
M 6.4 0.9
Q 6.229296875 0.7560546875 6.05 0.6 3.57890625 -1.2400390625 -0.2 -1.1 -3.897265625 -1.0052734375 -6.15 0.85 -6.28046875 0.943359375 -6.4 1.05
L -6.05 1
Q 0.6 0 5.95 0.8
L 6.4 0.9 Z"/>
</g>

<g id="RD_Hair_01_19_Layer3_0_FILL">
<path fill="#1E98D5" stroke="none" d="
M 16.85 -5.25
L 13.4 -4.25
Q 0.05 -0.65 -11.3 6.2 -12.45 6.95 -13.55 7.65 -33.95 20.75 -47.9 44.55 -48.75 36.35 -47.85 28.1 -43.6 4.45 -32.35 -14.5
L -30.05 -18.1 -30.15 -18.2
Q -43.1 -3.9 -48.55 17.15 -49.9 21.85 -50.55 26.6 -52.2 37.95 -50.3 49.45
L -49.7 53.65 -49.6 53.65 -47.5 49.9
Q -33.35 23.95 -11.95 10.2
L -11.9 10.15
Q 1.5 1.4 12.85 -2.05 14.15 -2.55 15.6 -2.95 21.3 -4.75 27 -6.1 21.95 -6.25 16.85 -5.25
M 35.75 -28.15
Q 36.9 -29.3 35 -31.9 33.3 -33.25 31.65 -34.45 28.95 -36.45 26.4 -38.05 24.1 -39.6 22 -40.8 19.95 -40.2 18.05 -39.6 18.6 -39.25 19.25 -38.95 19.5 -38.8 19.9 -38.6 20 -38.5 20.2 -38.4 22.7 -36.95 25.35 -35.3 28.4 -33.25 31.65 -30.9 33.3 -29.7 35.75 -28.15 Z"/>

<path fill="#F37033" stroke="none" d="
M 19.9 -38.6
Q 19.5 -38.8 19.25 -38.95 18.6 -39.25 18.05 -39.6 -6.9 -52.4 -29.45 -18.95
L -29.5 -18.9
Q -29.551171875 -18.823046875 -29.6 -18.75 -29.7640625 -18.523046875 -29.95 -18.3
L -30.05 -18.1 -32.35 -14.5
Q -43.6 4.45 -47.85 28.1 -48.75 36.35 -47.9 44.55 -33.95 20.75 -13.55 7.65 -12.45 6.95 -11.3 6.2 3.7 -20.85 19.9 -38.6 Z"/>

<path fill="#FDF6AE" stroke="none" d="
M 31.65 -30.9
Q 28.4 -33.25 25.35 -35.3 22.7 -36.95 20.2 -38.4 20 -38.5 19.9 -38.6 3.7 -20.85 -11.3 6.2 0.05 -0.65 13.4 -4.25
L 16.85 -5.25
Q 21.95 -6.25 27 -6.1 28.75 -6.5 30.55 -6.85 32.85 -7.35 35.05 -7.75 37 -11.45 35.7 -13.05
L 35.75 -28.15
Q 33.3 -29.7 31.65 -30.9 Z"/>
</g>

<g id="RD_Hair_01_19_Layer2_0_FILL">
<path fill="#1E98D5" stroke="none" d="
M -34 -5.1
Q -34 -5.1361328125 -33.95 -5.2
L -35.1 -4.5 -34 -5.1
M -48 -2.5
Q -47.35 -3.95 -46.55 -5.4 -40.55 -18.75 -29.55 -28.6 -28.95 -29.1 -28.35 -29.65 -20.6 -36.4 -15.05 -40.2 -12.45 -42.1 -10.3 -43.35
L -5.5 -46.1
Q -9.4 -45.2 -13.6 -42.95 -15.85 -41.75 -19.2 -39.65 -19.3 -39.6 -19.35 -39.6 -41.4 -24.8 -50.7 -4.95 -54.25 2.45 -57.3 21.5 -46.6 6.55 -43.15 3.1 -38.65 -1.15 -34.1 -5 -49.75 5.6 -53.3 10.9 -51.05 3.85 -48 -2.5
M 27.4 -34.7
Q 28.9 -35.05 30.5 -35.35 28.4 -36.75 26.45 -38.1 25.7 -38.6 25 -39.05 23.45 -40 22.05 -40.85 21.85 -40.9 21.75 -41.05
L 21.7 -41
Q 17.4 -43.45 13.25 -45.2
L 4 -45.2
Q 6.6 -44.5 9.35 -43.5 9.95 -43.3 10.55 -43.05 14.25 -41.6 18.1 -39.6 18.1 -39.55 18.15 -39.5
L 19.8 -38.7 19.85 -38.65 27.4 -34.7 Z"/>

<path fill="#F37033" stroke="none" d="
M 19.8 -38.7
L 18.15 -39.5
Q 18.1 -39.55 18.1 -39.6 14.25 -41.6 10.55 -43.05 9.95 -43.3 9.35 -43.5 -18.6 -28.15 -46.55 -5.4 -47.35 -3.95 -48 -2.5 -51.05 3.85 -53.3 10.9 -49.75 5.6 -34.1 -5 -34.05 -5.05 -34 -5.1
L -35.1 -4.5 -33.95 -5.2
Q -34 -5.1361328125 -34 -5.1
L -33.9 -5.2
Q -11.95 -23.85 19.8 -38.7 Z"/>

<path fill="#EE4144" stroke="none" d="
M 9.35 -43.5
Q 6.6 -44.5 4 -45.2 -3.55 -47.1 -5.5 -46.1
L -10.3 -43.35
Q -12.45 -42.1 -15.05 -40.2 -20.6 -36.4 -28.35 -29.65 -28.95 -29.1 -29.55 -28.6 -40.55 -18.75 -46.55 -5.4 -18.6 -28.15 9.35 -43.5 Z"/>
</g>

<g id="RD_Hair_01_19_Layer1_0_FILL">
<path fill="#EE4144" stroke="none" d="
M 3.6 -43.4
Q 8.75 -43.5 8.8 -43.5 3.25 -45.55 -2.25 -46.45 -3.7 -46.65 -5.15 -46.75 -12.9 -47.2 -21.1 -44.55 -30.05 -41.65 -35.9 -36.1 -21.75 -41.1 -10.7 -42.1 -1.6 -43.3 3.6 -43.4 Z"/>

<path fill="#1E98D5" stroke="none" d="
M 22 -40.85
Q 21.85 -40.95 21.7 -41.05 18.6 -42.8 15.65 -44.15 13.95 -44.95 12.35 -45.6 12 -45.75 11.65 -45.9 3.05 -49.25 -5.6 -49.8 -14.25 -50.35 -26.95 -44.6 -39.7 -38.9 -49.25 -27.65 -28.3 -37.55 -12.25 -41.7
L -10.7 -42.1
Q -21.75 -41.1 -35.9 -36.1 -30.05 -41.65 -21.1 -44.55 -12.9 -47.2 -5.15 -46.75 -3.7 -46.65 -2.25 -46.45 3.25 -45.55 8.8 -43.5 11.15 -42.65 13.55 -41.6 13.7 -41.5 13.9 -41.4 18.05 -41.2 21.95 -40.85
L 22 -40.85 Z"/>
</g>

<g id="RD_Hair_01_19_Layer0_0_FILL">
<path fill="#FDF6AE" stroke="none" d="
M 16.95 -5.35
L 15.15 -2.2
Q 11.15 5.05 1.65 12.75 17.3 9.65 30.4 -6.65 30.5 -6.75 30.6 -6.9 31.15 -7.6 31.7 -8.35 33.4 -10.6 35.65 -13.1 24.95 -11.4 16.65 -5.25
L 16.95 -5.35 Z"/>

<path fill="#1E98D5" stroke="none" d="
M 15.15 -2.2
L 16.95 -5.35 16.65 -5.25
Q 14.7 -3.8 12.9 -2.15 7.6 5.5 -3.4 13
L -6.95 15.45 -6.7 16 -2.5 15.75
Q 15.9 15.4 31.7 -3.55 33.45 -5.6 35.15 -7.85 37.1 -11.5 35.75 -13.15
L 35.65 -13.1
Q 33.4 -10.6 31.7 -8.35 31.15 -7.6 30.6 -6.9 30.5 -6.75 30.4 -6.65 17.3 9.65 1.65 12.75 11.15 5.05 15.15 -2.2 Z"/>
</g>

<g id="RD_FrontLeg_3_4_hoof_16_Layer0_0_FILL">
<path fill="#9EDBF8" stroke="none" d="
M 13.5 -14.1
Q 8.6158203125 -21.20703125 1.25 -21.55 -6.066015625 -21.8431640625 -11.7 -15.75 -17.3447265625 -9.60234375 -18.25 -1.05 -19.15 7.5 -14.5 13.9 -9.9 20.35 -2.5 20.85 4.95 21.35 10.8 15.7 16.6 10.1 17.5 1.55 18.39453125 -6.9978515625 13.5 -14.1 Z"/>
</g>

<g id="RD_FrontLeg_3_4_upper_21_Layer1_0_FILL">
<path fill="#9EDBF8" stroke="none" d="
M 19.9 41.4
Q 17.5806640625 23.57890625 3.65 -1.05
L -4.65 -1.05
Q -20.1865234375 21.3873046875 -20.15 41.4
L 19.9 41.4 Z"/>
</g>

<path id="RD_FrontLeg_3_4_hoof_6_Layer0_0_1_STROKES" stroke="#6DABDD" stroke-width="3" stroke-linejoin="round" stroke-linecap="round" fill="none" d="
M -0.925 -17.175
Q 6.8671875 -17.5837890625 12.3 -12.325 17.7197265625 -7.051171875 17.4 1.275 17.0837890625 9.596484375 14.075 14.525 11.0783203125 19.4369140625 0.15 20.85 -10.7796875 22.268359375 -17.1 18.525 -23.42421875 14.7861328125 -21.875 7.425 -20.324609375 0.0544921875 -18.15 -3.975 -15.971875 -8.0099609375 -12.325 -12.4 -8.6921875 -16.7904296875 -0.925 -17.175 Z"/>

<path id="RD_HindLeg_3_4rear_lower_2_Layer1_0_1_STROKES" stroke="#6DABDD" stroke-width="3" stroke-linejoin="round" stroke-linecap="round" fill="none" d="
M -5.65 -3.6
Q 1.836328125 -8.4703125 11.5 -5.15 17.0154296875 -1.388671875 7.6 6.9 -5.18671875 19.70546875 -8.9 12.2 -13.0958984375 2.169140625 -5.65 -3.6 Z"/>

<path id="RD_HindLeg_3_4rear_lower_2_Layer0_0_1_STROKES" stroke="#6DABDD" stroke-width="3" stroke-linejoin="round" stroke-linecap="round" fill="none" d="
M -8.9 59.25
Q -15.7921875 31.9404296875 -10.2 3.35
M 13.4 -2.55
Q 15.0326171875 27.90546875 24.35 43.05"/>

<path id="RD_FrontLeg_3_4_upper_20_Layer1_0_1_STROKES" stroke="#6DABDD" stroke-width="3" stroke-linejoin="round" stroke-linecap="round" fill="none" d="
M -32.7 58.35
Q -23.45 30.8 -5.95 -1.05
M 11.65 62.95
Q 12.4 41.65 5.5 -1.05"/>

<path id="RD_Mouth_front_chin__offcenter_0_Layer1_0_1_STROKES" stroke="#6DABDD" stroke-width="3" stroke-linejoin="round" stroke-linecap="round" fill="none" d="
M 37 3
Q 31.5595703125 11.51484375 20.35 16.8 3.9671875 24.438671875 -14.6 17.85 -26.379296875 13.5955078125 -35.1 3.05"/>

<path id="RD_Hair_01_19_Layer3_0_1_STROKES" stroke="#C7C616" stroke-width="0.05" stroke-linejoin="round" stroke-linecap="round" fill="none" d="
M -30.15 -18.2
Q -30.05 -18.3 -30 -18.4 -29.8 -18.6 -29.55 -18.85 -29.5 -18.95 -29.45 -18.95
M -29.5 -18.9
L -29.55 -18.85
Q -29.5763671875 -18.797265625 -29.6 -18.75 -29.7640625 -18.523046875 -29.95 -18.3
L -30.05 -18.1"/>

<path id="RD_FrontLeg_3_4_hoof_16_Layer0_0_1_STROKES" stroke="#6DABDD" stroke-width="3" stroke-linejoin="round" stroke-linecap="round" fill="none" d="
M -11.7 -15.725
Q -17.3447265625 -9.60234375 -18.25 -1.05 -19.15 7.5 -14.5 13.9 -9.9 20.35 -2.5 20.85 4.95 21.35 10.8 15.7 16.6 10.1 17.5 1.55 18.39453125 -6.9978515625 13.5 -14.1 8.6158203125 -21.20703125 1.275 -21.525 -6.066015625 -21.8431640625 -11.7 -15.725 Z"/>

<path id="RD_FrontLeg_3_4_upper_21_Layer1_0_1_STROKES" stroke="#6DABDD" stroke-width="3" stroke-linejoin="round" stroke-linecap="round" fill="none" d="
M 19.9 41.4
Q 17.5806640625 23.57890625 3.65 -1.05
M -20.15 41.4
Q -20.1865234375 21.3873046875 -4.65 -1.05"/>
</defs>

<g transform="matrix( 1.555694580078125, 0.330963134765625, -0.330963134765625, 1.555694580078125, 347.75,219.9) ">
<g transform="matrix( 0.2110137939453125, 0, 0, 0.3922576904296875, -8.7,0.8) ">
<g transform="matrix( 1, 0, -0.049072265625, 1, 25.35,0.15) ">
<g transform="matrix( 1, 0, 0, 1, 0,0) ">
<use xlink:href="#RD_Prun_Tail_0_Layer1_0_FILL"/>
</g>

<g transform="matrix( 1, 0, 0, 1, 0,0) ">
<use xlink:href="#RD_Prun_Tail_0_Layer1_1_FILL"/>
</g>

<g transform="matrix( 1, 0, 0, 1, 0,0) ">
<use xlink:href="#RD_Prun_Tail_0_Layer1_2_FILL"/>
</g>

<g transform="matrix( 1, 0, 0, 1, 0,0) ">
<use xlink:href="#RD_Prun_Tail_0_Layer1_3_FILL"/>
</g>

<g transform="matrix( 1, 0, 0, 1, 0,0) ">
<use xlink:href="#RD_Prun_Tail_0_Layer1_4_FILL"/>
</g>

<g transform="matrix( 1, 0, 0, 1, 0,0) ">
<use xlink:href="#RD_Prun_Tail_0_Layer1_5_FILL"/>
</g>

<g transform="matrix( 1, 0, 0, 1, 0,0) ">
<use xlink:href="#RD_Prun_Tail_0_Layer1_6_FILL"/>
</g>
</g>
</g>

<g transform="matrix( 0.4132843017578125, -0.5472412109375, 0.6434783935546875, 0.6175537109375, -44.4,13.35) ">
<g transform="matrix( 0.8339996337890625, -0.3087158203125, 0.5523681640625, 0.6643524169921875, 13.15,66.7) ">
<g transform="matrix( 1, 0, 0, 1, 0,0) ">
<use filter="url(#Filter_1)" xlink:href="#RD_FrontLeg_3_4_hoof_6_Layer0_0_FILL"/>

<use filter="url(#Filter_1)" xlink:href="#RD_FrontLeg_3_4_hoof_6_Layer0_0_1_STROKES"/>
</g>
</g>

<g transform="matrix( 0.7404632568359375, -0.3578338623046875, 0.0124969482421875, 0.6438751220703125, 12,46.45) ">
<g transform="matrix( 1, 0, 0, 1, 0,0) ">
<use filter="url(#Filter_1)" xlink:href="#RD_KneePatch_1_Layer0_0_FILL"/>
</g>
</g>

<g transform="matrix( 0.9890594482421875, 0.223388671875, -0.159027099609375, 0.6988067626953125, 14.45,31.6) ">
<g transform="matrix( 1, 0, 0, 1, 0,0) ">
<use filter="url(#Filter_1)" xlink:href="#RD_HindLeg_3_4rear_lower_2_Layer1_0_FILL"/>

<use filter="url(#Filter_1)" xlink:href="#RD_HindLeg_3_4rear_lower_2_Layer1_0_1_STROKES"/>
</g>

<g transform="matrix( 1, 0, 0, 1, 0,0) ">
<use filter="url(#Filter_1)" xlink:href="#RD_HindLeg_3_4rear_lower_2_Layer0_0_FILL"/>

<use filter="url(#Filter_1)" xlink:href="#RD_HindLeg_3_4rear_lower_2_Layer0_0_1_STROKES"/>
</g>
</g>

<g transform="matrix( 1.05706787109375, 0, -0.2399139404296875, 0.793365478515625, 17.7,-4.6) ">
<g transform="matrix( 1, 0, 0, 1, 0,0) ">
<use filter="url(#Filter_1)" xlink:href="#RD_HindLeg_3_4_top_3_Layer1_0_FILL"/>
</g>

<g transform="matrix( 1, 0, 0, 1, 0,0) ">
<use filter="url(#Filter_1)" xlink:href="#RD_HindLeg_3_4_top_3_Layer0_0_FILL"/>
</g>
</g>

<g transform="matrix( 0.832244873046875, -0.314788818359375, -0.1527099609375, 0.5664520263671875, 8.95,45.8) ">
<g transform="matrix( 1, 0, 0, 1, 0,0) ">
<use filter="url(#Filter_1)" xlink:href="#RD_KneePatch_0_Layer0_0_FILL"/>
</g>
</g>
</g>

<g transform="matrix( 0.4132843017578125, -0.5472412109375, 0.6434783935546875, 0.6175537109375, -9.65,9.45) ">
<g transform="matrix( 0.8339996337890625, -0.3087158203125, 0.5523681640625, 0.6643524169921875, 13.15,66.7) ">
<g transform="matrix( 1, 0, 0, 1, 0,0) ">
<use xlink:href="#RD_FrontLeg_3_4_hoof_6_Layer0_0_FILL"/>

<use xlink:href="#RD_FrontLeg_3_4_hoof_6_Layer0_0_1_STROKES"/>
</g>
</g>

<g transform="matrix( 0.7404632568359375, -0.3578338623046875, 0.0124969482421875, 0.6438751220703125, 12,46.45) ">
<g transform="matrix( 1, 0, 0, 1, 0,0) ">
<use xlink:href="#RD_KneePatch_1_Layer0_0_FILL"/>
</g>
</g>

<g transform="matrix( 0.9890594482421875, 0.223388671875, -0.159027099609375, 0.6988067626953125, 14.45,31.6) ">
<g transform="matrix( 1, 0, 0, 1, 0,0) ">
<use xlink:href="#RD_HindLeg_3_4rear_lower_2_Layer1_0_FILL"/>

<use xlink:href="#RD_HindLeg_3_4rear_lower_2_Layer1_0_1_STROKES"/>
</g>

<g transform="matrix( 1, 0, 0, 1, 0,0) ">
<use xlink:href="#RD_HindLeg_3_4rear_lower_2_Layer0_0_FILL"/>

<use xlink:href="#RD_HindLeg_3_4rear_lower_2_Layer0_0_1_STROKES"/>
</g>
</g>

<g transform="matrix( 1.05706787109375, 0, -0.2399139404296875, 0.793365478515625, 17.7,-4.6) ">
<g transform="matrix( 1, 0, 0, 1, 0,0) ">
<use xlink:href="#RD_HindLeg_3_4_top_3_Layer1_0_FILL"/>
</g>

<g transform="matrix( 1, 0, 0, 1, 0,0) ">
<use xlink:href="#RD_HindLeg_3_4_top_3_Layer0_0_FILL"/>
</g>
</g>

<g transform="matrix( 0.832244873046875, -0.314788818359375, -0.1527099609375, 0.5664520263671875, 8.95,45.8) ">
<g transform="matrix( 1, 0, 0, 1, 0,0) ">
<use xlink:href="#RD_KneePatch_0_Layer0_0_FILL"/>
</g>
</g>
</g>

<g transform="matrix( -0.9999847412109375, 0, 0, 0.9999847412109375, -53.35,11.25) ">
<g transform="matrix( 1, 0, 0, 1, 0,0) ">
<use filter="url(#Filter_2)" xlink:href="#WingcycleBACK_6_Layer10_0_FILL"/>
</g>
</g>

<g transform="matrix( 0.6026611328125, 0.7979888916015625, -0.7890167236328125, 0.5959014892578125, -37.9,40.3) ">
<g transform="matrix( 1.243988037109375, 0.0895233154296875, -0.0872650146484375, 1.056610107421875, -9.4,63.65) ">
<g transform="matrix( 1, 0, 0, 1, 0,0) ">
<use xlink:href="#RD_FrontLeg_3_4_hoof_11_Layer0_0_FILL"/>
</g>
</g>

<g transform="matrix( 0.99993896484375, -0.00445556640625, -0.0002593994140625, 0.999969482421875, 1.9,0.4) ">
<g transform="matrix( 1, 0, 0, 1, 0,0) ">
<use xlink:href="#RD_FrontLeg_3_4_upper_20_Layer1_0_FILL"/>

<use xlink:href="#RD_FrontLeg_3_4_upper_20_Layer1_0_1_STROKES"/>
</g>
</g>

<g transform="matrix( 2.197784423828125, 0.1581268310546875, -0.257781982421875, 3.119873046875, -10.05,65.3) ">
<g transform="matrix( 1, 0, 0, 1, 0,0) ">
<use xlink:href="#RD_HoofWrinkle_2_Layer0_0_FILL"/>
</g>
</g>
</g>

<g transform="matrix( 1, 0, 0, 1, -19.95,24.8) ">
<g transform="matrix( 1, 0, 0, 1, 0,0) ">
<use xlink:href="#RD_Torso_0_Layer1_0_FILL"/>
</g>
</g>

<g transform="matrix( 0.1369476318359375, 0.00579833984375, -0.0221405029296875, 0.5221099853515625, -12.8,19.05) ">
<g transform="matrix( 1.104522705078125, 0.0838623046875, 0.4969329833984375, 0.970367431640625, -53.15,-60.15) ">
<g transform="matrix( 1, 0, 0, 1, 0,0) ">
<use xlink:href="#RD_Prun_Mane_cycle_1_Layer0_0_FILL"/>
</g>

<g transform="matrix( 1, 0, 0, 1, 0,0) ">
<use xlink:href="#RD_Prun_Mane_cycle_1_Layer0_1_FILL"/>
</g>

<g transform="matrix( 1, 0, 0, 1, 0,0) ">
<use xlink:href="#RD_Prun_Mane_cycle_1_Layer0_2_FILL"/>
</g>

<g transform="matrix( 1, 0, 0, 1, 0,0) ">
<use xlink:href="#RD_Prun_Mane_cycle_1_Layer0_3_FILL"/>
</g>
</g>
</g>

<g transform="matrix( 0.9025726318359375, -0.670166015625, 0.353546142578125, 0.6069183349609375, -24.25,20.75) ">
<g transform="matrix( 1, 0, 0, 1, 0,0) ">
<use xlink:href="#RD_Neck_0_Layer0_0_FILL"/>
</g>
</g>

<g transform="matrix( 0.9999847412109375, 0, 0, 0.9999847412109375, 3.9,11.25) ">
<g transform="matrix( 1, 0, 0, 1, 0,0) ">
<use xlink:href="#Wingcycle_6_Layer8_0_FILL"/>
</g>
</g>

<g transform="matrix( 1, 0, 0, 1, -53.85,10.05) ">
<g transform="matrix( 1, 0, 0, 1.001922607421875, -6.4,-5.3) ">
<g transform="matrix( 1, 0, 0, 1, 0,0) ">
<use xlink:href="#RD_Skull_2_Layer0_0_FILL"/>
</g>
</g>

<g transform="matrix( 0.9992218017578125, 0.01165771484375, -0.1327056884765625, 1.042236328125, -6,25.45) ">
<g transform="matrix( 1, 0, 0, 1, 0,0) ">
<use xlink:href="#RD_Mouth_front_chin__offcenter_0_Layer1_0_FILL"/>

<use xlink:href="#RD_Mouth_front_chin__offcenter_0_Layer1_0_1_STROKES"/>
</g>
</g>

<g transform="matrix( 0.972503662109375, 0, 0.15093994140625, 1.0177459716796875, 25.6,-48.8) ">
<g transform="matrix( 1, 0, 0, 1, 0,0) ">
<use xlink:href="#RD_Hair_07_9_Layer0_0_FILL"/>
</g>
</g>

<g transform="matrix( -0.8562469482421875, -0.0888671875, -0.10308837890625, 0.993377685546875, -39.25,-31.85) ">
<g transform="matrix( 1, 0, 0, 1, 0,0) ">
<use xlink:href="#RD_Ear_1_Layer1_0_FILL"/>
</g>
</g>

<g transform="matrix( 0.997467041015625, 0.063507080078125, -0.063507080078125, 0.997467041015625, 29.85,-28.65) ">
<g transform="matrix( 1, 0, 0, 1, 0,0) ">
<use xlink:href="#RD_Ear_1_Layer1_0_FILL"/>
</g>
</g>

<mask id="Mask_Mask_1">
<g transform="matrix( -0.6017608642578125, -0.1415863037109375, -0.1660003662109375, 1.02447509765625, -35.6,-1.15) ">
<g transform="matrix( 1, 0, 0, 1, 0,0) ">
<use xlink:href="#Mask_Mask_RD2_Eyewhite_3_4_1_Layer1_0_FILL"/>
</g>
</g>
</mask>

<g mask="url(#Mask_Mask_1)">
<g transform="matrix( -0.6017608642578125, -0.1415863037109375, -0.1660003662109375, 1.02447509765625, -35.6,-1.15) ">
<g transform="matrix( 1, 0, 0, 1, 0,0) ">
<use xlink:href="#RD2_Eyewhite_3_4_1_Layer1_0_FILL"/>
</g>
</g>
</g>

<g mask="url(#Mask_Mask_1)">
<g transform="matrix( 0.47186279296875, -0.0417938232421875, 0.13232421875, 0.74530029296875, -32.1,0.35) ">
<g transform="matrix( 1, 0, 0, 1, 0,0) ">
<use xlink:href="#RD2_Iris_0_Layer2_0_FILL"/>
</g>

<g transform="matrix( 1, 0, 0, 1, 0,0) ">
<use xlink:href="#RD2_Iris_0_Layer1_0_FILL"/>
</g>

<g transform="matrix( 1, 0, 0, 1, 0,0) ">
<use xlink:href="#RD2_Iris_0_Layer0_0_FILL"/>
</g>
</g>
</g>

<g mask="url(#Mask_Mask_1)">
<g transform="matrix( -0.476593017578125, 0.0044097900390625, 0.006805419921875, 0.6275482177734375, -30.85,-0.15) ">
<g transform="matrix( 1, 0, 0, 1, 0,0) ">
<use xlink:href="#RD2_Pupil_0_Layer0_0_FILL"/>
</g>
</g>
</g>

<g mask="url(#Mask_Mask_1)">
<g transform="matrix( 0.6511688232421875, -0.0670928955078125, 0.172882080078125, 0.6851348876953125, -29.85,-7.7) ">
<g transform="matrix( 1, 0, 0, 1, 0,0) ">
<use xlink:href="#RD2_Hilights_0_Layer1_0_FILL"/>
</g>
</g>
</g>

<mask id="Mask_Mask_2">
<g transform="matrix( 0.859771728515625, 0, 0.1278076171875, 1.0453338623046875, 17.2,0.35) ">
<g transform="matrix( 1, 0, 0, 1, 0,0) ">
<use xlink:href="#Mask_Mask_RD2_Eyewhite_3_4_1_Layer1_0_FILL"/>
</g>
</g>
</mask>

<g mask="url(#Mask_Mask_2)">
<g transform="matrix( 0.859771728515625, 0, 0.1278076171875, 1.0453338623046875, 17.2,0.35) ">
<g transform="matrix( 1, 0, 0, 1, 0,0) ">
<use xlink:href="#RD2_Eyewhite_3_4_1_Layer1_0_FILL"/>
</g>
</g>
</g>

<g mask="url(#Mask_Mask_2)">
<g transform="matrix( -0.5610198974609375, -0.0517425537109375, -0.0706787109375, 0.736236572265625, 26,-1.8) ">
<g transform="matrix( 1, 0, 0, 1, 0,0) ">
<use xlink:href="#RD2_Iris_2_Layer2_0_FILL"/>
</g>

<g transform="matrix( 1, 0, 0, 1, 0,0) ">
<use xlink:href="#RD2_Iris_2_Layer1_0_FILL"/>
</g>

<g transform="matrix( 1, 0, 0, 1, 0,0) ">
<use xlink:href="#RD2_Iris_2_Layer0_0_FILL"/>
</g>
</g>
</g>

<g mask="url(#Mask_Mask_2)">
<g transform="matrix( 0.53680419921875, 0.0115814208984375, 0.08184814453125, 0.643402099609375, 27.95,-1.55) ">
<g transform="matrix( 1, 0, 0, 1, 0,0) ">
<use xlink:href="#RD2_Pupil_0_Layer0_0_FILL"/>
</g>
</g>
</g>

<g mask="url(#Mask_Mask_2)">
<g transform="matrix( 0.6678314208984375, 0.2051849365234375, 0.0124053955078125, 0.67279052734375, 30.35,-7.4) ">
<g transform="matrix( 1, 0, 0, 1, 0,0) ">
<use xlink:href="#RD2_Hilights_0_Layer1_0_FILL"/>
</g>
</g>
</g>

<g transform="matrix( -0.6017608642578125, -0.1415863037109375, -0.1660003662109375, 1.02447509765625, -35.6,-1.15) ">
<g transform="matrix( 1, 0, 0, 1, 0,0) ">
<use xlink:href="#RD2_Blink_front_0_Layer2_0_FILL"/>
</g>

<g transform="matrix( 1, 0, 0, 1, 0,0) ">
<use xlink:href="#RD2_Blink_front_0_Layer1_0_FILL"/>
</g>

<g transform="matrix( 1, 0, 0, 1, 0,0) ">
<use xlink:href="#RD2_Blink_front_0_Layer1_1_FILL"/>
</g>

<g transform="matrix( 1, 0, 0, 1, 0,0) ">
<use xlink:href="#RD2_Blink_front_0_Layer1_2_FILL"/>
</g>
</g>

<g transform="matrix( 0.8662109375, -0.0929107666015625, 0.1739959716796875, 1.01947021484375, 17.05,0.3) ">
<g transform="matrix( 1, 0, 0, 1, 0,0) ">
<use xlink:href="#RD2_Blink_front_100_Layer2_0_FILL"/>
</g>
</g>

<g transform="matrix( -0.60809326171875, -0.5243072509765625, -0.508544921875, 0.857421875, -42.8,-20.85) ">
<g transform="matrix( 1, 0, 0, 1, 0,0) ">
<use xlink:href="#RD_Brow_front_1_Layer2_0_FILL"/>
</g>

<g transform="matrix( 1, 0, 0, 1, 1.7,-0.05) ">
<g transform="matrix( 1, 0, 0, 1, 0,0) ">
<use xlink:href="#RD_Lashes_02_6_Layer0_0_FILL"/>
</g>

<g transform="matrix( 1, 0, 0, 1, 0,0) ">
<use xlink:href="#RD_Lashes_02_6_Layer0_1_FILL"/>
</g>

<g transform="matrix( 1, 0, 0, 1, 0,0) ">
<use xlink:href="#RD_Lashes_02_6_Layer0_2_FILL"/>
</g>
</g>

<g transform="matrix( 1, 0, 0, 1, 0,0) ">
<use xlink:href="#RD_Brow_front_1_Layer0_0_FILL"/>
</g>
</g>

<g transform="matrix( 0.924713134765625, -0.4334564208984375, 0.457275390625, 0.8568572998046875, 30.45,-17.85) ">
<g transform="matrix( 1, 0, 0, 1, 0,0) ">
<use xlink:href="#RD_Brow_front_1_Layer2_0_FILL"/>
</g>

<g transform="matrix( 1, 0, 0, 1, 1.7,-0.05) ">
<g transform="matrix( 1, 0, 0, 1, 0,0) ">
<use xlink:href="#RD_Lashes_02_6_Layer0_0_FILL"/>
</g>

<g transform="matrix( 1, 0, 0, 1, 0,0) ">
<use xlink:href="#RD_Lashes_02_6_Layer0_1_FILL"/>
</g>

<g transform="matrix( 1, 0, 0, 1, 0,0) ">
<use xlink:href="#RD_Lashes_02_6_Layer0_2_FILL"/>
</g>
</g>

<g transform="matrix( 1, 0, 0, 1, 0,0) ">
<use xlink:href="#RD_Brow_front_1_Layer0_0_FILL"/>
</g>
</g>

<g transform="matrix( 1.04473876953125, -0.17791748046875, 0.2764129638671875, 0.92706298828125, -14.35,25.7) ">
<g transform="matrix( 1, 0, 0, 1, 0,0) ">
<use xlink:href="#RD_Mouth_front_hole__0_Layer4_0_FILL"/>
</g>
</g>

<g transform="matrix( 1.00201416015625, 0.0025787353515625, 0.08404541015625, 0.9959716796875, -18.15,22.15) ">
<g transform="matrix( 1, 0, 0, 1, 0,0) ">
<use xlink:href="#RD_Mouth_front_nostril__0_Layer2_0_FILL"/>
</g>
</g>

<g transform="matrix( 0.85284423828125, -0.37200927734375, 0.05682373046875, 0.930206298828125, 21.5,19.2) ">
<g transform="matrix( 1, 0, 0, 1, 0,0) ">
<use xlink:href="#RD_Cheek_0_Layer1_0_FILL"/>
</g>

<g transform="matrix( 1, 0, 0, 1, 0,0) ">
<use xlink:href="#RD_Cheek_0_Layer0_0_FILL"/>
</g>
</g>

<g transform="matrix( 0.9800262451171875, 0.032135009765625, -0.1204071044921875, 0.9931640625, -16.75,25.2) ">
<g transform="matrix( 1, 0, 0, 1, 0.65,-8.5) ">
<g transform="matrix( 1, 0, 0, 1, 0,0) ">
<use xlink:href="#RD_Wrinkle_0_Layer0_0_FILL"/>
</g>
</g>
</g>

<g transform="matrix( 1.07415771484375, 0.0653076171875, 0.0907745361328125, 0.991790771484375, -13.5,-33.7) ">
<g transform="matrix( 1, 0, 0, 1, 0,0) ">
<use xlink:href="#RD_Hair_01_19_Layer3_0_FILL"/>

<use xlink:href="#RD_Hair_01_19_Layer3_0_1_STROKES"/>
</g>

<g transform="matrix( 1, 0, 0, 1, 0,0) ">
<use xlink:href="#RD_Hair_01_19_Layer2_0_FILL"/>
</g>

<g transform="matrix( 1, 0, 0, 1, 0,0) ">
<use xlink:href="#RD_Hair_01_19_Layer1_0_FILL"/>
</g>

<g transform="matrix( 1, 0, 0, 1, 0,0) ">
<use xlink:href="#RD_Hair_01_19_Layer0_0_FILL"/>
</g>
</g>
</g>

<g transform="matrix( -0.3125457763671875, -1.02899169921875, -0.8546295166015625, 0.2658233642578125, -2.3,49.05) ">
<g transform="matrix( 1.108154296875, 0.09967041015625, -0.077728271484375, 1.1765594482421875, -8.35,40.1) ">
<g transform="matrix( 1, 0, 0, 1, 0,0) ">
<use xlink:href="#RD_FrontLeg_3_4_hoof_16_Layer0_0_FILL"/>

<use xlink:href="#RD_FrontLeg_3_4_hoof_16_Layer0_0_1_STROKES"/>
</g>
</g>

<g transform="matrix( 0.9623260498046875, 0.271636962890625, -0.27618408203125, 0.9610443115234375, 2.7,0.35) ">
<g transform="matrix( 1, 0, 0, 1, 0,0) ">
<use xlink:href="#RD_FrontLeg_3_4_upper_21_Layer1_0_FILL"/>

<use xlink:href="#RD_FrontLeg_3_4_upper_21_Layer1_0_1_STROKES"/>
</g>
</g>

<g transform="matrix( 1.9949188232421875, 0.1793975830078125, -0.257781982421875, 3.89984130859375, -5.95,23.45) ">
<g transform="matrix( 1, 0, 0, 1, 0,0) ">
<use xlink:href="#RD_HoofWrinkle_2_Layer0_0_FILL"/>
</g>
</g>
</g>
</g>
</svg>
