
<svg xmlns="http://www.w3.org/2000/svg" version="1.1" xmlns:xlink="http://www.w3.org/1999/xlink" preserveAspectRatio="none" x="0px" y="0px" width="864px" height="486px" viewBox="0 0 864 486">
<defs>
<linearGradient id="Gradient_1" gradientUnits="userSpaceOnUse" x1="-33.8" y1="-21.2875" x2="-46.900000000000006" y2="1.387500000000001" spreadMethod="pad">
<stop  offset="0%" stop-color="#015350"/>

<stop  offset="2.7450980392156863%" stop-color="#025B58"/>

<stop  offset="9.019607843137255%" stop-color="#046B67"/>

<stop  offset="14.901960784313726%" stop-color="#047672"/>

<stop  offset="19.607843137254903%" stop-color="#057975"/>

<stop  offset="28.235294117647058%" stop-color="#058581"/>

<stop  offset="42.35294117647059%" stop-color="#009590"/>

<stop  offset="58.03921568627451%" stop-color="#00A19D"/>

<stop  offset="75.68627450980392%" stop-color="#00AAA5"/>

<stop  offset="100%" stop-color="#00ADA8"/>
</linearGradient>

<filter id="Filter_1" x="-20%" y="-20%" width="140%" height="140%" color-interpolation-filters="sRGB">
<feColorMatrix in="SourceGraphic" type="matrix" values="1 0 0 0 0 0 1 0 0 0 0 0 1 0 0 0 0 0 0.21 0" result="result1"/>
</filter>

<filter id="Filter_2" x="-20%" y="-20%" width="140%" height="140%" color-interpolation-filters="sRGB">
<feColorMatrix in="SourceGraphic" type="matrix" values="1 0 0 0 0.0196078431372549 0 1 0 0 -0.06274509803921569 0 0 1 0 -0.12156862745098039 0 0 0 1 0" result="result1"/>
</filter>

<g id="FS_Shadow_0_Layer0_0_FILL">
<path fill="#000000" stroke="none" d="
M 46.4 155.05
Q 68.65 152.95 68.65 149.95 68.65 146.95 46.4 144.8 24.15 142.7 -7.4 142.7 -38.9 142.7 -61.2 144.8 -83.45 146.95 -83.45 149.95 -83.45 152.95 -61.2 155.05 -38.9 157.2 -7.4 157.2 24.15 157.2 46.4 155.05 Z"/>
</g>

<g id="FS_Mane_02_10_Layer0_0_FILL">
<path fill="#E781B3" stroke="none" d="
M -11.7 -19.9
L -11.75 -19.85 -11.7 -19.85 -11.7 -19.9
M 49.05 -20.05
Q 35.2607421875 -29.740234375 13.9 -27.4 -7.401171875 -25.020703125 -16.1 -14.3
L -16.1 -14.35
Q -22.4587890625 -4.97578125 -24.7 7.8 -26.04140625 15.72578125 -25.7 23.8 -25.4712890625 30.3470703125 -21.95 41.75 -19.0234375 50.96015625 -14.55 61.85 -11.274609375 69.6708984375 -6.25 79.4 -4.8521484375 82.0599609375 -0.3 90.4 1.7767578125 94.09140625 3 100.2 4.48359375 107.815625 3.3 114.2 2.3638671875 119.49921875 -1.15 123.05 -4.9646484375 126.8921875 -12.1 128.95 -13.8068359375 129.3287109375 -15.4 129.05 -19.3578125 129.1681640625 -20.6 135.05 -21.7826171875 140.9837890625 -17.55 144.75 -13.2701171875 148.5189453125 -4.7 149.95 3.8693359375 151.3748046875 13.6 145.85 23.5765625 140.1138671875 30.8 128.05 34.81953125 121.298046875 37.6 113.15 40.0322265625 106.226171875 41.2 99.45 42.4228515625 92.4037109375 42.3 86 42.1857421875 80.610546875 41.4 78.4
L 41.2 77.7 40.55 77.55
Q 38.1587890625 76.8271484375 35.8 73.35 32.0779296875 67.746484375 30.45 58.1 28.6798828125 47.6501953125 30.45 37.55 31.967578125 28.9044921875 35.8 21.95 40.1208984375 14.2466796875 47.05 9.2 69.4265625 -5.033203125 49.05 -20.05
M 21 -2
Q 8.461328125 -6.13359375 1.4 -2.75 -4.5580078125 0.091015625 -8.65 6.55 -12.232421875 12.2611328125 -13.4 18.95 -13.7826171875 21.1900390625 -13.5 24.85 -13.3171875 26.9279296875 -12.9 30.4 -12.5021484375 33.980859375 -10.3 40.95 -7.444921875 50.01328125 -3.05 59.4 -0.56640625 64.5111328125 8.1 79.75 15.6357421875 92.85390625 18.75 100.6 22.1001953125 109.1677734375 23.35 117.4 24.5650390625 125.4294921875 23.5 131.5 23.3533203125 132.491796875 23.1 133.4 18.2880859375 139.039453125 12.55 142.3 7.7369140625 145.0890625 2.8 145.9 16.7921875 128.5158203125 5 98.15
L 3.4 94.3 3.8 95.8
Q 2.449609375 91.2220703125 0.5 87.5 -1.5552734375 83.7314453125 -4.6 77.4 -8.71953125 68.849609375 -12.1 60.75 -21.7205078125 37.66484375 -22.1 26.15 -22.3904296875 18.33515625 -21.1 10.7 -19.0892578125 -0.7486328125 -13.65 -9.3
L -12.45 -11.1 -12.4 -11.1
Q -4.0328125 -22.4953125 28.05 -22.8 42.75546875 -22.797265625 52.25 -9.7 56.64140625 -1.2990234375 47.35 5.55 38.0583984375 12.4412109375 33.45 20.65 29.3681640625 28.016015625 27.8 37.05 26.558203125 44.217578125 27 51.7 27.412109375 58.603125 29.2 64.8 30.922265625 70.775390625 33.55 74.85 36.1384765625 78.643359375 39 79.85 39.5259765625 81.994921875 39.6 86 39.7478515625 92.1912109375 38.55 99 36.0982421875 113.288671875 28.75 125.5 26.9142578125 128.5732421875 24.9 131.2 25.8671875 125.0759765625 24.7 117.2 23.4623046875 108.8314453125 19.95 100.15 16.84375 92.25703125 9.3 79.1 0.5751953125 63.7908203125 -1.8 58.75 -6.08359375 49.6625 -9 39.75 -11.13984375 32.43515625 -11.5 28.65 -11.9392578125 23.9212890625 -11.1 19.05 -8.8259765625 5.9216796875 1.95 0.8 8.7748046875 -2.406640625 21 -2
M 5.4 113.85
Q 6.39765625 108.2255859375 5.2 101.65 15.02578125 129.497265625 1.7 145.65
L 1.4 146.05
Q -2.0123046875 146.426171875 -5.5 145.8 -10.9701171875 144.8818359375 -14.45 142.55 -18.0666015625 140.09921875 -17.4 136.1 -16.6806640625 132.1513671875 -14.45 132.05 -12.217578125 131.94765625 -10.65 131.55
L -10.55 131.6
Q 3.204296875 127.7853515625 5.4 113.85 Z"/>

<path fill="#F4B6D1" stroke="none" d="
M 5.2 101.65
Q 6.39765625 108.2255859375 5.4 113.85 3.204296875 127.7853515625 -10.55 131.6
L -10.65 131.55
Q -12.217578125 131.94765625 -14.45 132.05 -16.6806640625 132.1513671875 -17.4 136.1 -18.0666015625 140.09921875 -14.45 142.55 -10.9701171875 144.8818359375 -5.5 145.8 -2.0123046875 146.426171875 1.4 146.05
L 1.7 145.65
Q 15.02578125 129.497265625 5.2 101.65
M 1.4 -2.75
Q 8.461328125 -6.13359375 21 -2 8.7748046875 -2.406640625 1.95 0.8 -8.8259765625 5.9216796875 -11.1 19.05 -11.9392578125 23.9212890625 -11.5 28.65 -11.13984375 32.43515625 -9 39.75 -6.08359375 49.6625 -1.8 58.75 0.5751953125 63.7908203125 9.3 79.1 16.84375 92.25703125 19.95 100.15 23.4623046875 108.8314453125 24.7 117.2 25.8671875 125.0759765625 24.9 131.2 26.9142578125 128.5732421875 28.75 125.5 36.0982421875 113.288671875 38.55 99 39.7478515625 92.1912109375 39.6 86 39.5259765625 81.994921875 39 79.85 36.1384765625 78.643359375 33.55 74.85 30.922265625 70.775390625 29.2 64.8 27.412109375 58.603125 27 51.7 26.558203125 44.217578125 27.8 37.05 29.3681640625 28.016015625 33.45 20.65 38.0583984375 12.4412109375 47.35 5.55 56.64140625 -1.2990234375 52.25 -9.7 42.75546875 -22.797265625 28.05 -22.8 -4.0328125 -22.4953125 -12.4 -11.1
L -12.45 -11.1 -13.65 -9.3
Q -19.0892578125 -0.7486328125 -21.1 10.7 -22.3904296875 18.33515625 -22.1 26.15 -21.7205078125 37.66484375 -12.1 60.75 -8.71953125 68.849609375 -4.6 77.4 -1.5552734375 83.7314453125 0.5 87.5 2.449609375 91.2220703125 3.8 95.8
L 3.4 94.3 5 98.15
Q 16.7921875 128.5158203125 2.8 145.9 7.7369140625 145.0890625 12.55 142.3 18.2880859375 139.039453125 23.1 133.4 23.3533203125 132.491796875 23.5 131.5 24.5650390625 125.4294921875 23.35 117.4 22.1001953125 109.1677734375 18.75 100.6 15.6357421875 92.85390625 8.1 79.75 -0.56640625 64.5111328125 -3.05 59.4 -7.444921875 50.01328125 -10.3 40.95 -12.5021484375 33.980859375 -12.9 30.4 -13.3171875 26.9279296875 -13.5 24.85 -13.7826171875 21.1900390625 -13.4 18.95 -12.232421875 12.2611328125 -8.65 6.55 -4.5580078125 0.091015625 1.4 -2.75 Z"/>
</g>

<g id="FS_Mane_03_10_Layer0_0_FILL">
<path fill="#F4B6D1" stroke="none" d="
M -9.5 -28.15
Q -8.2111328125 -29.723828125 -6.35 -30.3
L -6.45 -30.3
Q -10.50703125 -30.9921875 -15.55 -25.9 -17.96796875 -23.3439453125 -18.7 -19.65 -19.5490234375 -14.755859375 -16.75 -9.3 -13.5080078125 -3.0037109375 -6 2.8 -4.3677734375 4.0669921875 -3.95 4.3 -0.179296875 -0.0869140625 -0.95 -5.65
L -2.8 -5.6
Q -3.5091796875 -5.6287109375 -4.25 -5.75 -8.970703125 -6.5748046875 -11.5 -11.15 -13.78515625 -15.391796875 -12.9 -20.65 -12.6607421875 -21.877734375 -12.45 -22.55 -11.279296875 -26.237109375 -9.5 -28.15 Z"/>

<path fill="#E781B3" stroke="none" d="
M 2.45 -16.85
Q 5.0701171875 -23.9013671875 1.05 -28.4 -0.2802734375 -29.8802734375 -1.9 -30.8 -7.5212890625 -33.5150390625 -13.7 -30.65 -15.691796875 -29.570703125 -17.45 -27.75 -20.580078125 -24.51640625 -21.35 -20.1 -22.371484375 -14.1341796875 -19.25 -7.5 -15.771484375 0.0228515625 -7.95 6.05 -7.84453125 6.1376953125 -7.8 6.2
L -7.75 6.2
Q -5.8369140625 7.443359375 -3.95 4.3 -4.3677734375 4.0669921875 -6 2.8 -13.5080078125 -3.0037109375 -16.75 -9.3 -19.5490234375 -14.755859375 -18.7 -19.65 -17.96796875 -23.3439453125 -15.55 -25.9 -10.50703125 -30.9921875 -6.45 -30.3
L -6.35 -30.3
Q -8.2111328125 -29.723828125 -9.5 -28.15 -11.279296875 -26.237109375 -12.45 -22.55 -12.6607421875 -21.877734375 -12.9 -20.65 -13.78515625 -15.391796875 -11.5 -11.15 -8.970703125 -6.5748046875 -4.25 -5.75 -3.5091796875 -5.6287109375 -2.8 -5.6
L -0.95 -5.65
Q -3.1458984375 -8.60234375 -5.1 -8.8 -6.2072265625 -9.16015625 -7.25 -9.85 -9.0302734375 -11.0021484375 -9.9 -12.55 -11.80625 -15.931640625 -11.05 -20.3
L -10.7 -21.85
Q -9.7646484375 -24.8662109375 -8.3 -26.5 -7.5619140625 -27.29921875 -6.35 -27.65 -5.17734375 -27.9541015625 -4 -27.75 -2.2580078125 -27.448046875 -0.2 -25.2 2.887109375 -21.9080078125 2.45 -16.85 Z"/>
</g>

<g id="FS_Tail_02_7_Layer0_0_FILL">
<path fill="#E781B3" stroke="none" d="
M -10.45 -9.3
Q -15.0126953125 -5.246484375 -15.45 -0.8
L -15.5 -0.8
Q -14.725 7.4103515625 -11.35 16.1 -8.971875 22.0837890625 -4.45 32.7 -0.10703125 45.6947265625 0 56.25 0.1388671875 63.9208984375 -1.8 70.7 -3.77578125 77.8736328125 -7.35 81.45 -9.9662109375 84.2306640625 -12.25 85.65 -12.577734375 85.8650390625 -15.95 87.7 -19.2818359375 89.5841796875 -18.65 94.3 -17.1908203125 99.0919921875 -12.55 98.75 -5.78984375 98.3341796875 -0.45 93.4 15.6748046875 78.5033203125 15.3 56.7 15.2876953125 53.0642578125 14.45 47.5 13.199609375 39.45859375 13.1 38.35 12.5501953125 33.994921875 10.65 22.15 9.351953125 13.96953125 9.3 10.55 9.323046875 6.512109375 10.35 3.05 10.568359375 2.3361328125 10.85 1.6 13.3580078125 -10.5771484375 4.65 -11.85 -5.8859375 -13.2921875 -10.45 -9.3
M -11.8 -1.05
L -11.8 -1.1
Q -11.71328125 -10.4068359375 2.25 -8.8 9.7791015625 -7.6271484375 7.85 3.25 7.8419921875 3.473828125 7.8 3.65 7.22734375 6.7732421875 7.25 10.65 7.3181640625 14.78125 8.05 21.75 8.1806640625 22.597265625 10 37.15 11.4720703125 49.878125 11.55 55.5 11.61640625 66.024609375 8.9 73.65 5.6720703125 82.985546875 -2.25 90.3 -7.3826171875 95.096875 -11 95.5 -14.5544921875 95.957421875 -14.9 92.4 -15.259765625 88.898046875 -11.9 87.1 -8.487109375 85.341796875 -5.45 82.15 2.249609375 74.062890625 2 55.85 1.87734375 42.8705078125 -1.85 31.7 -6.246484375 20.7228515625 -8.3 14.65 -11.06953125 6.572265625 -11.8 -1.05 Z"/>

<path fill="#F4B6D1" stroke="none" d="
M -11.8 -1.1
L -11.8 -1.05
Q -11.06953125 6.572265625 -8.3 14.65 -6.246484375 20.7228515625 -1.85 31.7 1.87734375 42.8705078125 2 55.85 2.249609375 74.062890625 -5.45 82.15 -8.487109375 85.341796875 -11.9 87.1 -15.259765625 88.898046875 -14.9 92.4 -14.5544921875 95.957421875 -11 95.5 -7.3826171875 95.096875 -2.25 90.3 5.6720703125 82.985546875 8.9 73.65 11.61640625 66.024609375 11.55 55.5 11.4720703125 49.878125 10 37.15 8.1806640625 22.597265625 8.05 21.75 7.3181640625 14.78125 7.25 10.65 7.22734375 6.7732421875 7.8 3.65 7.8419921875 3.473828125 7.85 3.25 9.7791015625 -7.6271484375 2.25 -8.8 -11.71328125 -10.4068359375 -11.8 -1.1 Z"/>
</g>

<g id="FS_Tail_01_7_Layer2_0_FILL">
<path fill="#F4B6D1" stroke="none" d="
M 120.2 24.15
L 120.2 24.15
Q 117.733203125 36.6115234375 106.95 53.35 99.6341796875 64.7140625 80.2 83.7 60.69140625 102.7564453125 55.85 110.05 47.1306640625 123.8763671875 47.65 133.75 48.20859375 144.5970703125 60.6 147.9 61.4720703125 148.139453125 62.4 148.3
L 62.4 148.35
Q 66.1404296875 138.45 72.1 128.6 71.54140625 128.5134765625 71 128.4 67.56796875 127.65859375 64.6 125.75
L 64.55 125.7 64.5 125.7
Q 61.39453125 123.3705078125 61.65 120.25 62.001171875 117.2134765625 65.35 113.95 67.6150390625 111.7380859375 72.4 108.55 75.0384765625 106.830859375 80.05 103.9 84.4517578125 101.4259765625 85.5 100.6 94.2662109375 94.282421875 97.3 91.4 105.4533203125 83.6326171875 111.2 72.5 114.49765625 65.715625 116.7 57.1 118.95703125 48.3466796875 119.8 38.85 120.541796875 31.1361328125 120.3 23.6 120.251953125 23.87421875 120.2 24.15
M 77.45 -4.8
Q 57.1546875 -21.1427734375 31.15 -14.55 16.148046875 -10.6859375 0.2 0.75
L -6 5.45
Q -5.9734375 5.7326171875 -5.95 6 -5.3599609375 9.10234375 1.15 5.9 17.5171875 -3.9466796875 29.65 -4.4 40.858203125 -4.76953125 48.3 2.3 55.0318359375 8.4876953125 58.7 20.7 61.207421875 29.9802734375 60.25 40.05 58.83671875 55.5556640625 49.15 73.1 45.83203125 79.0599609375 41 86.15 38.3822265625 90.10625 34.1 96.3 20.1875 117.3509765625 19.25 128 18.859375 132.2564453125 20.25 135.25 21.594921875 138.1482421875 24.85 140.45 29.5890625 143.8431640625 40.2 146.35 34.237109375 141.4431640625 36.5 130.8 38.028515625 123.5427734375 45 112.5 49.656640625 105.1181640625 59.9 91.45 72.15859375 75.1546875 76.2 69.25 84.812890625 56.7578125 88.7 47.85
L 88.7 47.85
Q 94.3318359375 33.6353515625 92.85 21.4 90.8740234375 6.0115234375 77.45 -4.8
M 30.85 -15.7
Q 57.4447265625 -22.45703125 78.2 -5.75 92.02578125 5.38828125 94.05 21.25 95.5681640625 33.764453125 89.8 48.3
L 89.8 48.35
Q 85.8869140625 57.3423828125 77.2 69.95 73.1412109375 75.8451171875 60.85 92.15 50.643359375 105.781640625 46 113.15 39.17109375 123.9576171875 37.65 131.05 35.3751953125 141.7701171875 42 146.25 42.7705078125 146.7416015625 43.6 147.15 43.9109375 147.215625 44.2 147.25 51.4845703125 148.7201171875 58.5 148.55 46.9537109375 144.696875 46.45 133.8 45.8693359375 123.6234375 54.85 109.4 59.70859375 102.0435546875 79.35 82.85 98.6654296875 63.9861328125 105.95 52.7 116.5666015625 36.187890625 119 23.9 119.350390625 22.100390625 119.55 20.25 119.773828125 18.217578125 119.8 16.1 119.7107421875 14.93125 119.55 13.75 118.02421875 0.70625 113.65 -9.7 108.8755859375 -21.0095703125 101.25 -28.1 92.9265625 -35.7375 81.65 -38.05 74.067578125 -39.5287109375 66.2 -39.25 43.938671875 -38.516796875 22.05 -22.75 11.0404296875 -14.837109375 -2.45 -0.25 -4.8697265625 1.8880859375 -5.65 3.85
L -0.5 -0.25
Q 15.651953125 -11.8140625 30.85 -15.7 Z"/>

<path fill="#E781B3" stroke="none" d="
M 20.25 -25.15
Q 12.2849609375 -19.0939453125 4.3 -11.05 0.045703125 -6.7857421875 -5.05 -1.15
L -5.8 -0.3
Q -9.7408203125 4.0421875 -8.6 7.8 -5.6587890625 12.634375 1.15 9.85
L 9.65 4.4
Q 20.065625 -1.111328125 29.4 -1.7 39.65078125 -1.994921875 46.35 4.35 52.6740234375 10.2921875 56.1 21.75 57.23203125 25.944921875 57.25 30.8 57.2552734375 33.9486328125 56.7 39.75 55.3580078125 54.487890625 45.45 71.85 42.103515625 77.66328125 37.15 84.85 34.448046875 88.807421875 30.05 95.1 22.4521484375 106.6228515625 18.75 114.15 14.7564453125 122.324609375 14.2 128.1 13.7373046875 132.8609375 15.8 137.1 17.7984375 141.0509765625 21.45 143.6 24.835546875 145.9375 30.15 147.75 34.6857421875 149.283203125 41.7 150.8 45.623828125 151.5775390625 50.85 151.9 55.571875 152.238671875 59.5 152.1 61.5330078125 152.0076171875 62.35 152 67.2609375 151.0923828125 62.4 148.35
L 62.4 148.3
Q 61.4720703125 148.139453125 60.6 147.9 48.20859375 144.5970703125 47.65 133.75 47.1306640625 123.8763671875 55.85 110.05 60.69140625 102.7564453125 80.2 83.7 99.6341796875 64.7140625 106.95 53.35 117.733203125 36.6115234375 120.2 24.15
L 120.2 24.15
Q 120.251953125 23.87421875 120.3 23.6 120.541796875 31.1361328125 119.8 38.85 118.95703125 48.3466796875 116.7 57.1 114.49765625 65.715625 111.2 72.5 105.4533203125 83.6326171875 97.3 91.4 94.2662109375 94.282421875 85.5 100.6 84.4517578125 101.4259765625 80.05 103.9 75.0384765625 106.830859375 72.4 108.55 67.6150390625 111.7380859375 65.35 113.95 62.001171875 117.2134765625 61.65 120.25 61.39453125 123.3705078125 64.5 125.7
L 64.55 125.7 64.6 125.75
Q 67.56796875 127.65859375 71 128.4 71.54140625 128.5134765625 72.1 128.6 72.1501953125 126.525 69.65 125.3 68.1873046875 124.6533203125 66.3 123.45 64.2451171875 121.88671875 64.4 120.15 64.51640625 118.42578125 67.1 115.8 69.483203125 112.74375 78.65 108.25 89.8607421875 102.7234375 95.4 98.45 100.477734375 94.5361328125 105.2 88.5 109.9423828125 82.468359375 113.65 75.2 117.369140625 67.640234375 120.15 58.1 123.1646484375 47.6849609375 124 38.4 125.2533203125 25.172265625 123.7 11.85 122.041015625 -2.412109375 117.55 -13.15 112.6201171875 -24.8388671875 104.6 -32.3 95.8376953125 -40.3966796875 83.9 -42.8 75.9375 -44.38671875 67.85 -44.1 44.118359375 -43.2166015625 20.25 -25.15
M 78.2 -5.75
Q 57.4447265625 -22.45703125 30.85 -15.7 15.651953125 -11.8140625 -0.5 -0.25
L -5.65 3.85
Q -4.8697265625 1.8880859375 -2.45 -0.25 11.0404296875 -14.837109375 22.05 -22.75 43.938671875 -38.516796875 66.2 -39.25 74.067578125 -39.5287109375 81.65 -38.05 92.9265625 -35.7375 101.25 -28.1 108.8755859375 -21.0095703125 113.65 -9.7 118.02421875 0.70625 119.55 13.75 119.7107421875 14.93125 119.8 16.1 119.773828125 18.217578125 119.55 20.25 119.350390625 22.100390625 119 23.9 116.5666015625 36.187890625 105.95 52.7 98.6654296875 63.9861328125 79.35 82.85 59.70859375 102.0435546875 54.85 109.4 45.8693359375 123.6234375 46.45 133.8 46.9537109375 144.696875 58.5 148.55 51.4845703125 148.7201171875 44.2 147.25 43.9109375 147.215625 43.6 147.15 42.7705078125 146.7416015625 42 146.25 35.3751953125 141.7701171875 37.65 131.05 39.17109375 123.9576171875 46 113.15 50.643359375 105.781640625 60.85 92.15 73.1412109375 75.8451171875 77.2 69.95 85.8869140625 57.3423828125 89.8 48.35
L 89.8 48.3
Q 95.5681640625 33.764453125 94.05 21.25 92.02578125 5.38828125 78.2 -5.75
M 31.15 -14.55
Q 57.1546875 -21.1427734375 77.45 -4.8 90.8740234375 6.0115234375 92.85 21.4 94.3318359375 33.6353515625 88.7 47.85
L 88.7 47.85
Q 84.812890625 56.7578125 76.2 69.25 72.15859375 75.1546875 59.9 91.45 49.656640625 105.1181640625 45 112.5 38.028515625 123.5427734375 36.5 130.8 34.237109375 141.4431640625 40.2 146.35 29.5890625 143.8431640625 24.85 140.45 21.594921875 138.1482421875 20.25 135.25 18.859375 132.2564453125 19.25 128 20.1875 117.3509765625 34.1 96.3 38.3822265625 90.10625 41 86.15 45.83203125 79.0599609375 49.15 73.1 58.83671875 55.5556640625 60.25 40.05 61.207421875 29.9802734375 58.7 20.7 55.0318359375 8.4876953125 48.3 2.3 40.858203125 -4.76953125 29.65 -4.4 17.5171875 -3.9466796875 1.15 5.9 -5.3599609375 9.10234375 -5.95 6 -5.9734375 5.7326171875 -6 5.45
L 0.2 0.75
Q 16.148046875 -10.6859375 31.15 -14.55 Z"/>
</g>

<g id="FS_Tail_03_7_Layer0_0_FILL">
<path fill="#F4B6D1" stroke="none" d="
M -3.4 3
Q -1.916015625 6.2953125 -2.35 9.45 -2.937109375 13.60390625 -6.6 16.8
L -6.75 16.9
Q -4.4609375 15.932421875 -3.4 15.35 4.877734375 10.8912109375 5.65 4.95
L -3.4 3 Z"/>

<path fill="#E781B3" stroke="none" d="
M 8.5 7.35
Q 8.9927734375 4.0912109375 5.65 4.95 4.877734375 10.8912109375 -3.4 15.35 -4.4609375 15.932421875 -6.75 16.9
L -6.6 16.8
Q -2.937109375 13.60390625 -2.35 9.45 -1.916015625 6.2953125 -3.4 3 -5.0291015625 3.1130859375 -4.55 5 -3.6341796875 7.315234375 -3.95 9.4 -4.3369140625 12.3056640625 -7.2 14.9 -7.9060546875 15.5185546875 -9.85 16.4 -12.3697265625 17.623828125 -14.85 18.2 -20.5748046875 19.5109375 -23.25 18.35 -26.5208984375 16.8767578125 -23 11.85 -28.7712890625 16.048046875 -26.4 18.85 -24.298828125 21.37265625 -17.8 21.35 -13.7451171875 21.3306640625 -8.5 19.8 -4.4376953125 18.549609375 -2.1 17.3 2.659765625 14.7564453125 5 12.55 7.5646484375 10.159765625 8.5 7.35 Z"/>
</g>

<g id="FS_FrontLeg_3_4_upper_19_Layer2_0_FILL">
<path fill="#EBD463" stroke="none" d="
M 22.45 39.15
L 22.45 39.1
Q 22.3919921875 32.875390625 17.9 28.4 13.4109375 23.9001953125 7.2 23.9 0.9369140625 23.9021484375 -3.55 28.4 -8.035546875 32.88046875 -8 39.1
L -8 39.15
Q -8.0373046875 45.3677734375 -3.55 49.85 0.9369140625 54.34765625 7.2 54.35 13.4109375 54.349609375 17.9 49.85 22.3939453125 45.3724609375 22.45 39.15
M 15.8 30.5
Q 19.3900390625 34.1064453125 19.45 39.1
L 19.45 39.15
Q 19.3876953125 44.145703125 15.8 47.75 12.1888671875 51.3501953125 7.2 51.35 2.162890625 51.3521484375 -1.45 47.75 -5.0447265625 44.150390625 -5 39.15
L -5 39.1
Q -5.046875 34.1015625 -1.45 30.5 2.162890625 26.89765625 7.2 26.9 12.1888671875 26.899609375 15.8 30.5 Z"/>

<path fill="#FDF6AE" stroke="none" d="
M 19.45 39.1
Q 19.3900390625 34.1064453125 15.8 30.5 12.1888671875 26.899609375 7.2 26.9 2.162890625 26.89765625 -1.45 30.5 -5.046875 34.1015625 -5 39.1
L -5 39.15
Q -5.0447265625 44.150390625 -1.45 47.75 2.162890625 51.3521484375 7.2 51.35 12.1888671875 51.3501953125 15.8 47.75 19.3876953125 44.145703125 19.45 39.15
L 19.45 39.1 Z"/>
</g>

<g id="FS_FrontLeg_3_4_upper_19_Layer1_0_FILL">
<path fill="#FDF6AE" stroke="none" d="
M -6.75 3.65
L -5.35 35.1 20.95 40.5
Q 22.0779296875 21.4568359375 8.75 -0.75
L -6.75 3.65 Z"/>
</g>

<g id="FS_FrontLeg_3_4_hoof_3_Layer0_0_FILL">
<path fill="#EBD463" stroke="none" d="
M 15 -15
Q 8.7578125 -20.846875 0.05 -20.15 -8.81640625 -19.5484375 -12.8 -14.35 -16.5814453125 -9.49140625 -19.05 -4.4 -21.52109375 0.659765625 -22.7 5.85 -24.2189453125 11.8765625 -17.2 16.3 -10.98671875 20.29375 0.6 20.5 12.60546875 20.6666015625 16.75 15
L 16.8 15
Q 21.170703125 9.355078125 21.2 0.1 21.2337890625 -9.1515625 15 -15
M 0.25 -17.15
L 0.25 -17.15
Q 7.6546875 -17.7474609375 12.9 -12.75 18.1953125 -7.7763671875 18 0.4 17.8419921875 8.58203125 14.15 13.3 10.7654296875 17.6328125 0.65 17.5 -9.913671875 17.30625 -15.6 13.75 -20.5744140625 10.62109375 -19.45 6.25 -18.2724609375 1.884765625 -16.1 -3 -13.9228515625 -7.84453125 -10.5 -12.25 -7.0828125 -16.6515625 0.25 -17.15 Z"/>

<path fill="#FDF6AE" stroke="none" d="
M 0.25 -17.15
L 0.25 -17.15
Q -7.0828125 -16.6515625 -10.5 -12.25 -13.9228515625 -7.84453125 -16.1 -3 -18.2724609375 1.884765625 -19.45 6.25 -20.5744140625 10.62109375 -15.6 13.75 -9.913671875 17.30625 0.65 17.5 10.7654296875 17.6328125 14.15 13.3 17.8419921875 8.58203125 18 0.4 18.1953125 -7.7763671875 12.9 -12.75 7.6546875 -17.7474609375 0.25 -17.15 Z"/>
</g>

<g id="FS_FrontLeg_3_4_lower_10_Layer2_0_FILL">
<path fill="#FCBA63" stroke="none" d="
M -5.3 -10.55
L -5.3 -10.55 -5.35 -10.55 -5.3 -10.55 Z"/>

<path fill="#F26F31" stroke="none" d="
M -12.7 -2.35
L -12.7 -2.35 -12.7 -2.35 -12.7 -2.35 Z"/>

<path fill="#FDF6AE" stroke="none" d="
M 5.25 7.15
L 9.8 3.35 9.15 2.7
Q 8.85 2.7 8.55 2.75 6.8 2.65 5.5 1.5 3.9833984375 0.3638671875 2.2 -1.8 -1.4 -6.25 -1.4 -8.9 -1.4 -9.6166015625 -0.45 -10.4 -0.8677734375 -11.1921875 -1.3 -12.1 -1.544921875 -12.6203125 -1.8 -13.15 -3.628515625 -12.1326171875 -5.3 -10.55
L -5.3 -10.55
Q -9.1013671875 -6.8583984375 -9.7 -2
L -9.7 -1.95
Q -10.3146484375 2.7115234375 -7.5 5.8 -4.6484375 8.910546875 -0.15 8.7 2.762890625 8.557421875 5.25 7.15
M 9.5 -4.15
Q 9.997265625 -3.6427734375 10.4 -3.2 10.48359375 -3.270703125 10.55 -3.4 10.5 -3.915234375 10.5 -4.3 10.5 -4.331640625 10.5 -4.4 9.89609375 -4.2158203125 9.5 -4.15 Z"/>

<path fill="#EBD463" stroke="none" d="
M 12.35 3.7
Q 11.8 3.75 11.25 3.85 10.5 3.6 9.8 3.35
L 5.25 7.15
Q 2.762890625 8.557421875 -0.15 8.7 -4.6484375 8.910546875 -7.5 5.8 -10.3146484375 2.7115234375 -9.7 -1.95
L -9.7 -2
Q -9.1013671875 -6.8583984375 -5.3 -10.55
L -5.35 -10.55 -5.3 -10.55
Q -3.628515625 -12.1326171875 -1.8 -13.15 -2.4287109375 -14.5744140625 -2.95 -15.85 -5.2904296875 -14.662890625 -7.4 -12.7
L -7.4 -12.7
Q -11.9890625 -8.2509765625 -12.7 -2.35
L -12.7 -2.35
Q -13.473046875 3.7884765625 -9.7 7.85 -5.9515625 11.9892578125 0 11.7 3.9693359375 11.52421875 7.35 9.45 10.6 7.55 12.65 4.6
L 12.35 3.7 Z"/>
</g>

<g id="FS_FrontLeg_3_4_lower_10_Layer1_0_FILL">
<path fill="#EBD463" stroke="none" d="
M -6.75 -9.05
L -6.7 -9.1
Q -6.371484375 -9.589453125 -6.5 -10.2 -6.5876953125 -10.77734375 -7.1 -11.15 -7.6140625 -11.483203125 -8.25 -11.4 -8.8271484375 -11.2607421875 -9.2 -10.75 -20.12734375 5.0470703125 -21.4 22 -21.4384765625 22.6466796875 -21.05 23.1 -20.630859375 23.5998046875 -20.05 23.65 -19.4025390625 23.6888671875 -18.95 23.25 -18.4505859375 22.8814453125 -18.4 22.25 -17.1728515625 6.053125 -6.75 -9.05
M 11.85 3.75
L 11.4 14
Q 11.70703125 22.5439453125 14.5 27.65 14.585546875 27.762109375 14.65 27.85 14.954296875 28.422265625 15.55 28.6 16.1384765625 28.7619140625 16.65 28.45 17.223828125 28.1458984375 17.4 27.55 17.56171875 26.962890625 17.25 26.4 15.3384765625 22.9197265625 14.7 17.6 15.2326171875 8.2724609375 14 5.1 12.8173828125 1.9275390625 12.05 2.7
L 11.85 3.75 Z"/>

<path fill="#FDF6AE" stroke="none" d="
M 11.4 14
L 11.85 3.75
Q 11.45 3.8 11.05 3.8 9.8 3.75 9.15 2.7 8.85 2.7 8.55 2.75 6.8 2.65 5.5 1.5 3.9833984375 0.3638671875 2.2 -1.8 0.25078125 -4.2095703125 -0.65 -6.1 -3.830859375 -7.31875 -6.7 -9.1
L -6.75 -9.05
Q -17.1728515625 6.053125 -18.4 22.25 -18.4505859375 22.8814453125 -18.95 23.25 -19.4025390625 23.6888671875 -20.05 23.65 -20.4076171875 31.3296875 -18.8 39.25
L 14.5 27.65
Q 11.70703125 22.5439453125 11.4 14
M 10.4 -3.2
Q 10.484375 -3.2658203125 10.55 -3.35 10.5619140625 -3.4482421875 10.55 -3.55 10.2884765625 -3.5669921875 10 -3.6 10.224609375 -3.3791015625 10.4 -3.2 Z"/>
</g>

<g id="FS_HoofWrinkle_0_Layer0_0_FILL">
<path fill="#EBD463" stroke="none" d="
M 6.4 0.9
Q 6.229296875 0.7560546875 6.05 0.6 3.57890625 -1.2400390625 -0.2 -1.1 -3.897265625 -1.0052734375 -6.15 0.85 -6.28046875 0.943359375 -6.4 1.05
L -6.05 1
Q 0.6 0 5.95 0.8
L 6.4 0.9 Z"/>
</g>

<g id="FS_FrontLeg_3_4_hoof_6_Layer0_0_FILL">
<path fill="#EBD463" stroke="none" d="
M -19.5 -4.7
L -19.5 -4.65
Q -21.71796875 -0.5130859375 -23.35 7.15 -25.0853515625 15.5572265625 -17.9 19.85
L -17.85 19.85
Q -11.2087890625 23.825 0.35 22.35 12.2115234375 20.8224609375 15.35 15.3 18.57890625 10.1091796875 18.9 1.35 19.2267578125 -7.697265625 13.35 -13.4 7.4353515625 -19.13203125 -1 -18.65 -9.53671875 -18.26484375 -13.45 -13.35 -17.209375 -8.8333984375 -19.5 -4.7
M -16.85 -3.25
L -16.85 -3.25
Q -14.6908203125 -7.1666015625 -11.15 -11.45 -7.8634765625 -15.3353515625 -0.85 -15.65 6.264453125 -16.0681640625 11.25 -11.25 16.173046875 -6.4029296875 15.9 1.25 15.6208984375 9.091015625 12.8 13.75 9.9904296875 18.07734375 -0.05 19.35 -10.39140625 20.675 -16.35 17.25
L -16.35 17.25
Q -21.71484375 14.0427734375 -20.4 7.75 -18.88203125 0.6130859375 -16.85 -3.25 Z"/>

<path fill="#FDF6AE" stroke="none" d="
M -16.85 -3.25
L -16.85 -3.25
Q -18.88203125 0.6130859375 -20.4 7.75 -21.71484375 14.0427734375 -16.35 17.25
L -16.35 17.25
Q -10.39140625 20.675 -0.05 19.35 9.9904296875 18.07734375 12.8 13.75 15.6208984375 9.091015625 15.9 1.25 16.173046875 -6.4029296875 11.25 -11.25 6.264453125 -16.0681640625 -0.85 -15.65 -7.8634765625 -15.3353515625 -11.15 -11.45 -14.6908203125 -7.1666015625 -16.85 -3.25 Z"/>
</g>

<g id="FS_KneePatch_2_Layer0_0_FILL">
<path fill="#EBD463" stroke="none" d="
M 0.25 -27.8
L 0.2 -27.8
Q -5.8083984375 -29.447265625 -11.2 -26 -16.50078125 -22.5494140625 -18.1 -16.15 -19.4751953125 -10.2185546875 -17.05 -5.05
L -17 -5
Q -16.9865234375 -4.97578125 -17 -4.95
L -16.95 -4.9
Q -10.8248046875 6.4275390625 -8.05 17.15
L -8.1 17.15 -8.05 17.2
Q -8.0775390625 17.49453125 -8 17.75 -7.7880859375 18.413671875 -5.85 21.6 -3.863671875 24.8244140625 1.05 26.15 5.9177734375 27.444921875 10.2 25.25 14.5810546875 23.012890625 15.8 18.55
L 15.8 18.5
Q 16.9775390625 14.0072265625 14.3 9.85
L 14.25 9.85
Q 13.090234375 8.0783203125 11.4 6.35
L 11.35 6.25 11.35 6.25
Q 6.5607421875 1.2896484375 7.95 -1.2 10.454296875 -4.6970703125 10.95 -6.05
L 10.95 -6.1
Q 11.50546875 -7.4853515625 11.8 -8.7
L 11.85 -8.75
Q 13.3412109375 -15.2044921875 9.75 -20.75
L 9.75 -20.75
Q 6.194921875 -26.25390625 0.25 -27.8
M 7.25 -19.1
L 7.25 -19.15 7.3 -19.1 7.25 -19.1 Z"/>
</g>

<g id="FS_HindLeg_3_4rear_lower_2_Layer1_0_FILL">
<path fill="#F26F31" stroke="none" d="
M 8.65 7.95
L 8.65 7.95 8.6 8
Q 8.6333984375 7.9955078125 8.65 7.95 Z"/>

<path fill="#EBD463" stroke="none" d="
M 12.35 -6.4
Q 12.1732421875 -6.510546875 11.95 -6.6 1.59140625 -10.1181640625 -6.5 -4.85 -6.526171875 -4.8123046875 -6.6 -4.8 -14.9587890625 1.5962890625 -10.3 12.75 -10.2638671875 12.8216796875 -10.25 12.85 -7.8515625 17.784765625 -2.5 16.05 1.90625 14.6984375 8.65 7.95
L 8.65 7.95
Q 13.7076171875 3.494921875 14.7 0.2 16.0470703125 -3.87109375 12.35 -6.4
M 10.75 -3.8
Q 12.4302734375 -2.605078125 11.85 -0.75 10.8990234375 1.983203125 6.6 5.75 6.5771484375 5.8119140625 6.55 5.85 0.493359375 11.901953125 -3.4 13.2 -6.248828125 14.115234375 -7.55 11.5
L -7.55 11.6
Q -7.5458984375 11.575 -7.6 11.5 -11.2048828125 2.68671875 -4.75 -2.4
L -4.85 -2.35
Q 2.0138671875 -6.721484375 10.75 -3.8 Z"/>

<path fill="#FCBA63" stroke="none" d="
M -7.6 11.5
Q -7.5458984375 11.575 -7.55 11.6
L -7.55 11.5 -7.6 11.5 Z"/>

<path fill="#FDF6AE" stroke="none" d="
M 11.85 -0.75
Q 12.4302734375 -2.605078125 10.75 -3.8 2.0138671875 -6.721484375 -4.85 -2.35
L -4.75 -2.4
Q -11.2048828125 2.68671875 -7.6 11.5
L -7.55 11.5
Q -6.248828125 14.115234375 -3.4 13.2 0.493359375 11.901953125 6.55 5.85 6.5771484375 5.8119140625 6.6 5.75 10.8990234375 1.983203125 11.85 -0.75 Z"/>
</g>

<g id="FS_HindLeg_3_4rear_lower_2_Layer0_0_FILL">
<path fill="#EBD463" stroke="none" d="
M -8.75 3.65
L -8.6 2.95 -8.45 2.15 -11.4 1.6 -11.7 3.05
Q -17.337109375 31.9951171875 -10.35 59.6
L -9.95 60.4 -7.3 59.45 -7.45 58.85
Q -7.4873046875 58.72734375 -7.55 58.55 -14.2328125 31.7501953125 -8.75 3.65
M 14.9 -2.65
L 14.9 -2.7 11.8 -4 11.9 -2.5
Q 11.9080078125 -2.326953125 11.9 -2.2 13.617578125 28.4064453125 23 43.7 23.038671875 43.7662109375 23.05 43.8
L 23.3 44.2 25.75 42.5 25.6 42.25
Q 16.5212890625 27.3490234375 14.9 -2.65 Z"/>

<path fill="#FDF6AE" stroke="none" d="
M 23 43.7
Q 13.617578125 28.4064453125 11.9 -2.2
L -8.6 2.95 -8.75 3.65
Q -14.2328125 31.7501953125 -7.55 58.55
L 23 43.7 Z"/>

<path fill="#F26F31" stroke="none" d="
M 14.9 -2.7
L 14.9 -2.65 14.95 -2.65 14.9 -2.7 Z"/>
</g>

<g id="FS_HindLeg_3_4_top_1_Layer0_0_FILL">
<path fill="#EBD463" stroke="none" d="
M 4 71.2
L 4 71.2
Q -21.2830078125 68.723828125 -34.85 31.6 -33.9126953125 47.215234375 -21.95 60.3 -9.9767578125 73.4564453125 4 71.2
L 4 71.2
M 0.85 -2.2
L 0.85 -2.25
Q -2.491015625 -3.2591796875 -0.95 0.05 2.7732421875 2.036328125 6.1 7 7.615234375 9.2787109375 8.65 12.35 9.415234375 14.4603515625 10.3 18.25 11.435546875 22.811328125 11.5 28.05 11.5900390625 35.0541015625 9 43.6 6.4283203125 52.1580078125 5.15 55.95 3.89921875 59.748046875 4.6 65.65 5.1115234375 69.5484375 4.05 71.15 4.780078125 70.475 5.2 69.45 5.285546875 69.22265625 5.35 68.95 5.7310546875 67.894140625 5.8 64.2 5.854296875 60.545703125 7.3 56.35 8.8095703125 52.1701171875 11.45 43.95 14.0810546875 35.7177734375 14.35 29.1 14.6220703125 22.4833984375 13.4 17.35 11.5509765625 9.734765625 8.4 5.2 4.976171875 0.173046875 0.85 -2.2 Z"/>

<path fill="#FDF6AE" stroke="none" d="
M 9 43.6
Q 11.5900390625 35.0541015625 11.5 28.05 11.435546875 22.811328125 10.3 18.25 9.415234375 14.4603515625 8.65 12.35 7.615234375 9.2787109375 6.1 7 2.7732421875 2.036328125 -0.95 0.05
L -34.85 31.6
Q -21.2830078125 68.723828125 4 71.2
L 4 71.2 4.05 71.2
Q 4.0642578125 71.203515625 4.05 71.15 5.1115234375 69.5484375 4.6 65.65 3.89921875 59.748046875 5.15 55.95 6.4283203125 52.1580078125 9 43.6 Z"/>
</g>

<g id="FS_KneePatch_3_Layer0_0_FILL">
<path fill="#FDF6AE" stroke="none" d="
M 7.55 -19.2
L 7.55 -19.15
Q 4.64140625 -23.669921875 -0.25 -24.95
L -0.3 -24.95
Q -5.0291015625 -26.2638671875 -9.3 -23.55 -13.591015625 -20.7333984375 -14.85 -15.5
L -14.85 -15.5
Q -16.0048828125 -10.6484375 -14.05 -6.4 -14.00078125 -6.3744140625 -14 -6.35 -7.6837890625 5.3048828125 -4.85 16.4
L -4.85 16.45
Q -4.806640625 16.5302734375 -4.8 16.65 -4.7177734375 16.80625 -4.7 16.95 -4.6609375 17.0494140625 -4.65 17.1 -4.31328125 18.1208984375 -3.7 19.1 -1.664453125 22.21015625 2.1 23.2 5.8501953125 24.2189453125 9.1 22.55 12.2861328125 20.9251953125 13.2 17.7
L 13.2 17.65
Q 14.018359375 14.44921875 12.1 11.45
L 12.1 11.45
Q 11.0275390625 9.87109375 9.5 8.3
L 9.5 8.25 9.45 8.2
Q 2.5619140625 1.0767578125 5.8 -2.95 7.969140625 -6.0158203125 8.45 -7.2
L 8.45 -7.25
Q 8.93828125 -8.43203125 9.2 -9.5
L 9.2 -9.55
Q 10.4259765625 -14.724609375 7.55 -19.2 Z"/>
</g>

<g id="FS_Torso_2_Layer1_0_FILL">
<path fill="#EBD564" stroke="none" d="
M 29.8 -35.85
L 29.8 -35.85
Q 21.915625 -36.7013671875 13.25 -33.2
L 13.2 -33.2
Q 8.2126953125 -31.11171875 0.95 -27.2
L 0.95 -27.15
Q -3.186328125 -24.856640625 -7.65 -23.75 -11.25078125 -23.3837890625 -13.5 -23.3
L -13.55 -23.3
Q -19.9138671875 -23.0044921875 -29.2 -23.5 -39.0865234375 -24.0814453125 -45.55 -19.65
L -45.55 -19.65
Q -52.0306640625 -15.2380859375 -55.85 -4.1 -57.2140625 2.0076171875 -56.65 5.9 -56.088671875 9.8 -52.7 15.9 -49.25390625 22 -41.6 27 -33.4 32.35 -24.1 34.2 -13.65 36.3 -1.85 36.3 7.17890625 36.3328125 15.7 35.1 24.8701171875 34.2482421875 31.55 31.6
L 31.6 31.6
Q 35.9 29.8 37.2 29.15 40.3 27.55 42.7 25.3 49.35 18.9 52.35 11.2 55.45 3.35 55.05 -6.55 54.8943359375 -10.3966796875 54.05 -13.4
L 54.05 -13.4
Q 53.482421875 -15.5984375 51.85 -19.45
L 51.9 -19.45
Q 50.66328125 -22.4138671875 48.6 -25 47.2705078125 -26.70546875 45 -28.8 38.4587890625 -34.896484375 29.8 -35.85
M 14.35 -30.45
L 14.35 -30.4
Q 22.2818359375 -33.5921875 29.45 -32.85 37.141015625 -32.0037109375 42.95 -26.6 45.0294921875 -24.69453125 46.25 -23.15 48.0490234375 -20.886328125 49.1 -18.3 50.617578125 -14.7015625 51.15 -12.65
L 51.15 -12.6
Q 51.9056640625 -9.903515625 52.05 -6.45 52.4 2.75 49.55 10.05 46.75 17.2 40.6 23.15
L 40.65 23.15 40.6 23.15
Q 38.433203125 25.20859375 35.6 26.65 34.65 27.1 30.45 28.8 28.26796875 29.67890625 25.55 30.35
L 25.55 30.35 24.95 30.4 24.85 30.4 24.1 30.5
Q 16.6181640625 31.8421875 9.2 32.45 3.6609375 32.9357421875 -1.85 33 -14 33.1 -23.5 31.25 -32.0958984375 29.5478515625 -39.7 24.75 -47.259375 19.9583984375 -50.6 13.85 -53.944140625 7.7376953125 -54.05 4.7 -54.1501953125 1.70859375 -53 -3.1
L -53 -3.15
Q -49.5736328125 -13.1494140625 -43.9 -17.2
L -43.85 -17.2 -43.85 -17.15
Q -38.1216796875 -21.0130859375 -29.35 -20.5
L -29.35 -20.5
Q -19.904296875 -19.9966796875 -13.4 -20.3 -12.0693359375 -20.34453125 -10.3 -20.5 -10.1337890625 -20.487890625 -10 -20.5 -8.7044921875 -20.607421875 -7.25 -20.75 -2.219140625 -21.9560546875 2.4 -24.55 9.469140625 -28.378515625 14.35 -30.45
L 14.35 -30.45 Z"/>

<path fill="#F4B6D1" stroke="none" d="
M -43.85 -17.15
L -43.85 -17.2 -43.9 -17.2 -43.85 -17.15
M 40.6 23.15
L 40.65 23.15 40.6 23.15 40.6 23.15
M 1.6 -22
Q 1.526171875 -22.0263671875 1.45 -22.1
L 1.45 -21.8 1.6 -22
M 14.35 -30.45
L 14.35 -30.4 14.35 -30.45 14.35 -30.45 Z"/>

<path fill="#E781B3" stroke="none" d="
M 14.35 -30.45
L 14.35 -30.4 14.35 -30.4 14.35 -30.45 Z"/>

<path fill="#FDF6AE" stroke="none" d="
M 14.35 -30.4
L 14.35 -30.45
Q 9.469140625 -28.378515625 2.4 -24.55 -2.219140625 -21.9560546875 -7.25 -20.75 -8.7044921875 -20.607421875 -10 -20.5 -10.1337890625 -20.487890625 -10.3 -20.5 -12.0693359375 -20.34453125 -13.4 -20.3 -19.904296875 -19.9966796875 -29.35 -20.5
L -29.35 -20.5
Q -38.1216796875 -21.0130859375 -43.85 -17.15
L -43.9 -17.2
Q -49.5736328125 -13.1494140625 -53 -3.15
L -53 -3.1
Q -54.1501953125 1.70859375 -54.05 4.7 -53.944140625 7.7376953125 -50.6 13.85 -47.259375 19.9583984375 -39.7 24.75 -32.0958984375 29.5478515625 -23.5 31.25 -14 33.1 -1.85 33 3.6609375 32.9357421875 9.2 32.45 16.6181640625 31.8421875 24.1 30.5
L 24.85 30.4 24.95 30.4 25.55 30.35 25.55 30.35
Q 28.26796875 29.67890625 30.45 28.8 34.65 27.1 35.6 26.65 38.433203125 25.20859375 40.6 23.15
L 40.6 23.15
Q 46.75 17.2 49.55 10.05 52.4 2.75 52.05 -6.45 51.9056640625 -9.903515625 51.15 -12.6
L 51.15 -12.65
Q 50.617578125 -14.7015625 49.1 -18.3 48.0490234375 -20.886328125 46.25 -23.15 45.0294921875 -24.69453125 42.95 -26.6 37.141015625 -32.0037109375 29.45 -32.85 22.2818359375 -33.5921875 14.35 -30.4
L 14.35 -30.4
M 1.45 -22.1
Q 1.526171875 -22.0263671875 1.6 -22
L 1.45 -21.8 1.45 -22.1 Z"/>
</g>

<g id="FS_Neck_4_Layer1_0_FILL">
<path fill="#E781B3" stroke="none" d="
M -6.15 -71.25
L -39.8 -71.25 -37.2 2.25 -4.5 -2.4
Q 16.7392578125 -3.1453125 6.6 -24.7 -3.490234375 -46.2552734375 -6.15 -71.25 Z"/>
</g>

<g id="FS_Neck_4_Layer0_0_FILL">
<path fill="#FDF6AE" stroke="none" d="
M -17.6 -99.9
L -17.65 -99.9
Q -26.683984375 -109.0083984375 -39.8 -109 -52.8892578125 -108.998828125 -62.3 -99.85 -71.801171875 -90.6611328125 -72.05 -77.85 -72.3279296875 -65.053125 -63.25 -55.9
L -63.25 -55.9
Q -62.7607421875 -55.412890625 -62.25 -54.95
L -60.5 -53.45 -60.5 -53.4 -59.15 -51.9
Q -48.75625 -40.150390625 -47.1 -29.25 -47 -27.9 -46.95 -26.5 -46.9 -23.2 -47.45 -19.75 -50.535546875 -0.3146484375 -45.9 16
L -45.9 15.95
Q -39.7232421875 37.46015625 -19.85 44.45
L -18.45 44.95 -18.55 45
Q -7.184375 45.1412109375 -5.55 29.25 -3.9140625 13.4140625 -2.6 -0.1
L -0.25 -0.05
Q -3.05859375 -1.5416015625 -4.1 -3.15 -5.85234375 -5.197265625 -8.1 -25.15 -9.88515625 -40.952734375 -9.5 -62.95 -9.3767578125 -67.9625 -9.2 -73.3 -9.158984375 -73.5244140625 -9.15 -73.75
L -9.15 -81.3 -8.85 -81.3
Q -9.7095703125 -91.998828125 -17.6 -99.9
M -34.6 -47.4
L -34.7 -47.4
Q -34.6310546875 -47.38359375 -34.6 -47.4
L -34.6 -47.4 Z"/>

<path fill="#EBD564" stroke="none" d="
M -34.7 -47.4
L -34.6 -47.4 -34.6 -47.4
Q -34.6310546875 -47.38359375 -34.7 -47.4
M -15.5 -102
Q -25.41640625 -111.9916015625 -39.8 -112 -54.110546875 -112.0013671875 -64.4 -102 -74.7986328125 -91.9388671875 -75.05 -77.9 -75.355078125 -64.5958984375 -66.45 -54.9 -65.9 -54.35 -65.35 -53.8 -63.45 -52 -61.7 -50.1 -60.3 -48.55 -58.95 -46.95 -52.171875 -38.4115234375 -50.45 -29.2 -50 -25.35 -50.3 -21.6 -50.35 -20.65 -50.5 -19.7 -53.575 0.1408203125 -48.8 16.8
L -48.8 16.8
Q -42.1767578125 39.8396484375 -20.85 47.3
L -19.45 47.8 -18.55 45 -18.45 44.95 -19.85 44.45
Q -39.7232421875 37.46015625 -45.9 15.95
L -45.9 16
Q -50.535546875 -0.3146484375 -47.45 -19.75 -46.9 -23.2 -46.95 -26.5 -47 -27.9 -47.1 -29.25 -48.75625 -40.150390625 -59.15 -51.9
L -60.5 -53.4 -61.7 -53.4 -60.5 -53.45 -62.25 -54.95
Q -62.7607421875 -55.412890625 -63.25 -55.9
L -63.25 -55.9
Q -72.3279296875 -65.053125 -72.05 -77.85 -71.801171875 -90.6611328125 -62.3 -99.85 -52.8892578125 -108.998828125 -39.8 -109 -26.683984375 -109.0083984375 -17.65 -99.9
L -17.6 -99.9
Q -9.7095703125 -91.998828125 -8.85 -81.3
L -9.15 -81.3 -9.15 -73.75
Q -9.158984375 -73.5244140625 -9.2 -73.3 -9.3767578125 -67.9625 -9.5 -62.95 -9.88515625 -40.952734375 -8.1 -25.15 -5.85234375 -5.197265625 -4.1 -3.15 -3.05859375 -1.5416015625 -0.25 -0.05 -1.4 -1.85 -2.25 -4.8 -3.05 -7.45 -5.1 -25.5 -7.2638671875 -44.648828125 -6.2 -72.95 -5.7958984375 -75.3732421875 -5.75 -77.95 -5.492578125 -92.0048828125 -15.5 -102
L -15.5 -102 Z"/>
</g>

<g id="FS_FrontLeg_3_4_hoof_4_Layer0_0_FILL">
<path fill="#F26F31" stroke="none" d="
M -13.4 -12.85
L -13.4 -12.85 -13.4 -12.85 -13.4 -12.85 Z"/>

<path fill="#EBD463" stroke="none" d="
M -1.15 -18.45
L -1.2 -18.45
Q -9.624609375 -17.8423828125 -13.4 -12.85
L -13.4 -12.85
Q -16.978515625 -8.244140625 -19.45 -3.2
L -19.45 -3.25
Q -21.8619140625 1.6474609375 -24.65 7.7 -26.3091796875 11.4185546875 -25.4 13.65 -24.5841796875 16.204296875 -21 17 -15.576171875 18.259765625 -2.15 18.05 12.0072265625 17.7810546875 15.25 13.85 18.7416015625 10.1349609375 18.9 1.1 19.00546875 -7.925390625 13.05 -13.5 7.154296875 -19.091015625 -1.15 -18.45
M -0.95 -15.45
L -0.95 -15.45
Q 6.0544921875 -16.0005859375 11 -11.3 15.99453125 -6.574609375 15.9 1.05 15.7583984375 8.665625 13 11.85 10.0958984375 14.81875 -2.2 15.05 -15.123828125 15.2400390625 -20.35 14.05 -22.069140625 13.694921875 -22.6 12.65 -22.9419921875 11.2833984375 -21.9 8.95 -19.13828125 2.9525390625 -16.75 -1.9
L -16.75 -1.9
Q -14.421484375 -6.655859375 -11.05 -11
L -11 -11
Q -7.869921875 -14.9509765625 -0.95 -15.45 Z"/>

<path fill="#FDF6AE" stroke="none" d="
M -0.95 -15.45
L -0.95 -15.45
Q -7.869921875 -14.9509765625 -11 -11
L -11.05 -11
Q -14.421484375 -6.655859375 -16.75 -1.9
L -16.75 -1.9
Q -19.13828125 2.9525390625 -21.9 8.95 -22.9419921875 11.2833984375 -22.6 12.65 -22.069140625 13.694921875 -20.35 14.05 -15.123828125 15.2400390625 -2.2 15.05 10.0958984375 14.81875 13 11.85 15.7583984375 8.665625 15.9 1.05 15.99453125 -6.574609375 11 -11.3 6.0544921875 -16.0005859375 -0.95 -15.45 Z"/>
</g>

<g id="FS_HindLeg_3_4rear_lower_0_Layer1_0_FILL">
<path fill="#F26F31" stroke="none" d="
M 8.6 8
Q 8.6333984375 7.9955078125 8.65 7.95
L 8.65 7.95 8.6 8 Z"/>

<path fill="#EBD463" stroke="none" d="
M 12.35 -6.4
Q 12.1732421875 -6.510546875 11.95 -6.6 1.59140625 -10.1181640625 -6.5 -4.85 -6.526171875 -4.8123046875 -6.6 -4.8 -14.9587890625 1.5962890625 -10.3 12.75 -10.2638671875 12.8216796875 -10.25 12.85 -7.8515625 17.784765625 -2.5 16.05 1.90625 14.6984375 8.65 7.95
L 8.65 7.95
Q 13.7076171875 3.494921875 14.7 0.2 16.0470703125 -3.87109375 12.35 -6.4
M 10.75 -3.8
Q 12.4302734375 -2.605078125 11.85 -0.75 10.8990234375 1.983203125 6.6 5.75 6.5771484375 5.8119140625 6.55 5.85 0.493359375 11.901953125 -3.4 13.2 -6.248828125 14.115234375 -7.55 11.5
L -7.55 11.6
Q -7.5458984375 11.575 -7.6 11.5 -11.2048828125 2.68671875 -4.75 -2.4
L -4.85 -2.35
Q 2.0138671875 -6.721484375 10.75 -3.8 Z"/>

<path fill="#FCBA63" stroke="none" d="
M -7.55 11.5
L -7.6 11.5
Q -7.5458984375 11.575 -7.55 11.6
L -7.55 11.5 Z"/>

<path fill="#FDF6AE" stroke="none" d="
M 11.85 -0.75
Q 12.4302734375 -2.605078125 10.75 -3.8 2.0138671875 -6.721484375 -4.85 -2.35
L -4.75 -2.4
Q -11.2048828125 2.68671875 -7.6 11.5
L -7.55 11.5
Q -6.248828125 14.115234375 -3.4 13.2 0.493359375 11.901953125 6.55 5.85 6.5771484375 5.8119140625 6.6 5.75 10.8990234375 1.983203125 11.85 -0.75 Z"/>
</g>

<g id="FS_HindLeg_3_4rear_lower_0_Layer0_0_FILL">
<path fill="#EBD463" stroke="none" d="
M -8.05 10.15
L -8.2 9.7 -8.45 8.7 -11.35 9.5 -10.95 10.95
Q -3.5580078125 37.8861328125 -11.7 64.6 -11.7875 65.0125 -11.9 65.4
L -8.85 65.4
Q -0.5115234375 37.662109375 -8.05 10.15
M 11.65 -2.95
Q 11.686328125 -2.8736328125 11.7 -2.8 26.2828125 27.8509765625 24.65 64.3
L 27.6 64.1
Q 29.3125 27.137109375 14.35 -4.25
L 14.2 -4.5 11 -4.3 11.65 -2.95 Z"/>

<path fill="#FDF6AE" stroke="none" d="
M 24.65 64.3
Q 26.2828125 27.8509765625 11.7 -2.8
L -8.2 9.7 -8.05 10.15
Q -0.5115234375 37.662109375 -8.85 65.4
L 24.65 64.3 Z"/>
</g>

<g id="FS_CutieMark_0_Layer0_0_FILL">
<path fill="#F4B6D1" stroke="none" d="
M 347.3 394.2
Q 347.9 392.1 344.8 393.05 341.6 394 337.3 397.35 337.5 393.65 336.95 390.8 336.1 386.45 333.75 386.6 331.1 386.75 330.9 390.6 330.65 394.4 332.65 395.75 329.95 395.3 327.4 397.05 324.55 398.95 325.3 401.8 326 404.45 329.25 403.95 331 403.65 334.2 402.15 334.4 402.8 335.15 406.3 336.35 409.35 339 408.7 341.9 408 341.65 404.25 341.4 400.75 339.65 399.9 341.85 399.65 344.2 397.95 346.7 396.15 347.3 394.2 Z"/>
</g>

<g id="FS_CutieMark_0_Layer0_1_FILL">
<path fill="#6CC9C6" stroke="none" d="
M 339.8 387.75
L 339.65 387.5
Q 339.3 387.05 338.85 387.05 338.5 387 338.1 387.3 337.7 387.6 337.65 388.2 337.55 388.8 337.95 389.25
L 338.1 389.35 338.5 389 338.4 388.9
Q 338.15 388.6 338.2 388.25 338.2 387.9 338.45 387.75 338.8 387.4 339.2 387.85
L 339.35 388.05
Q 339.8 388.8 339.15 391.45 338.5 393.55 337.95 394.6
L 338.1 394.65
Q 336.5 396.2 333.5 403.45 335.15 402.1 337.2 399 339.25 395.85 339.2 394.7 339.55 394 340.45 392.9 341.55 391.45 342.45 390.7 343.25 390 343.9 389.9 344.45 389.9 344.55 390.1 344.7 390.25 344.65 390.55 344.6 390.8 344.4 391 344.05 391.3 343.6 391.15
L 343.5 391.7
Q 344.2 391.85 344.75 391.4 345.15 391.1 345.2 390.6 345.3 390.1 345 389.75 344.6 389.35 343.9 389.35 343.1 389.4 342.1 390.25 340.4 391.75 338.8 394.25
L 338.7 394.25
Q 339.35 392.9 339.65 391.6 340.45 388.8 339.8 387.75 Z"/>
</g>

<g id="FS_CutieMark_0_Layer0_2_FILL">
<path fill="#F4B6D1" stroke="none" d="
M 189.05 168
Q 188.55 165.15 187.1 163.9 185.55 162.5 185.1 165.55 184.6 168.65 185.75 173.65 182.7 172 180.1 171.35 176.05 170.35 175.2 172.4 174.25 174.7 177.45 176.45 180.6 178.15 182.55 177 181.05 179.1 181.55 182 182.05 185.2 184.75 185.7 187.3 186.15 188.15 183.2 188.65 181.55 188.65 178.2 189.3 178.35 192.55 179.1 195.65 179.3 196.15 176.75 196.75 174 193.45 172.75 190.35 171.55 188.9 172.7 189.55 170.7 189.05 168 Z"/>
</g>

<g id="FS_CutieMark_0_Layer0_3_FILL">
<path fill="#6CC9C6" stroke="none" d="
M 316.95 405.85
Q 316.45 406 316.15 406.65 315.95 407.2 316.2 408.5 316.75 410.65 318.3 412.95
L 318.3 413
Q 317.4 412 316.35 411.15 314.3 409.4 313.15 409.45
L 312.85 409.5
Q 312.4 409.65 312.15 410 311.95 410.35 312.05 410.75 312.2 411.25 312.65 411.5 313.15 411.8 313.7 411.65
L 313.85 411.6 313.65 411.1 313.55 411.15
Q 313.2 411.25 312.9 411.05 312.65 410.9 312.6 410.65 312.5 410.15 313 410.05
L 313.2 410
Q 314.1 409.85 316 411.55 317.05 412.4 318.25 413.8
L 318.35 413.7
Q 319.1 415.9 324.05 421.15 323.5 419.2 321.7 416.25 319.8 413.15 318.8 412.8
L 318.85 412.8
Q 317.25 410.4 316.7 408.4 316.45 407.25 316.65 406.85 316.85 406.45 317.1 406.35 317.55 406.25 317.75 406.85 317.85 407.3 317.6 407.6
L 318 407.9
Q 318.45 407.4 318.25 406.7 318.15 406.25 317.75 406 317.4 405.75 316.95 405.85 Z"/>
</g>

<g id="FS_CutieMark_0_Layer0_4_FILL">
<path fill="#F4B6D1" stroke="none" d="
M 348.4 419.55
Q 350.4 418 350.85 416.4 351.3 414.65 348.75 415.55 346.1 416.4 342.7 419.3 342.7 416.15 342.2 413.95 341.4 410.4 339.45 410.55 337.3 410.75 337.2 413.95 337.1 417.05 338.8 418.1 336.55 417.8 334.5 419.35 332.25 421 332.95 423.3 333.55 425.45 336.2 424.95 337.7 424.7 340.3 423.35 340.5 423.9 341.2 426.75 342.25 429.2 344.45 428.6 346.8 427.9 346.45 424.85 346.15 422 344.7 421.35 346.5 421.05 348.4 419.55 Z"/>
</g>

<g id="FS_CutieMark_0_Layer0_5_FILL">
<path fill="#6CC9C6" stroke="none" d="
M 344.5 411.3
L 344.3 411.1
Q 344.05 410.75 343.65 410.75 343.3 410.75 343.05 411 342.75 411.3 342.7 411.75 342.65 412.2 343 412.6
L 343.1 412.7 343.4 412.35 343.35 412.3
Q 342.9 411.8 343.35 411.35 343.65 411.1 344 411.4
L 344.1 411.55
Q 344.55 412.25 344 414.35 343.6 416.25 343.15 417
L 343.25 417.05
Q 341.95 418.45 339.75 424.45 341.05 423.25 342.65 420.7 344.25 418 344.15 417.05
L 344.2 417.05
Q 344.5 416.5 345.15 415.55 346.05 414.3 346.75 413.65 347.5 413 347.95 413 348.35 412.95 348.45 413.15 348.8 413.5 348.35 413.85 348.15 414.05 347.7 414
L 347.65 414.45
Q 348.2 414.6 348.65 414.2 349.4 413.55 348.8 412.8 348.5 412.5 347.9 412.55 347.2 412.6 346.45 413.3 345 414.7 343.85 416.7
L 343.75 416.75
Q 344 416.2 344.5 414.5 345 412.15 344.5 411.3 Z"/>
</g>

<g id="FS_FrontLeg_3_4_hoof_0_Layer0_0_FILL">
<path fill="#EBD463" stroke="none" d="
M 14.95 -14.95
Q 8.7541015625 -20.8443359375 0.05 -20.15 -8.81640625 -19.5484375 -12.8 -14.35 -16.526953125 -9.5060546875 -19.15 -4.25 -21.7119140625 0.947265625 -24.6 7.3
L -24.55 7.3
Q -26.32890625 11.167578125 -25.4 13.5 -24.5373046875 16.1365234375 -20.8 17
L -20.8 17
Q -15.0755859375 18.309765625 -1 18.05 13.7875 17.7890625 17.25 13.7
L 17.25 13.7
Q 20.8900390625 9.7828125 21.05 0.3 21.2107421875 -9.126171875 14.95 -14.95
M 0.25 -17.15
L 0.25 -17.15
Q 7.6546875 -17.7474609375 12.9 -12.75 18.1890625 -7.7734375 18.05 0.25 17.9103515625 8.2857421875 15.05 11.65
L 15 11.7
Q 11.8634765625 14.81171875 -1.05 15.05 -14.6240234375 15.2900390625 -20.15 14.05
L -20.15 14.1
Q -22.016015625 13.6626953125 -22.55 12.5 -22.959375 11.0341796875 -21.85 8.55 -18.9880859375 2.2525390625 -16.45 -2.9 -13.9732421875 -7.894140625 -10.45 -12.5 -7.0837890625 -16.6517578125 0.25 -17.15 Z"/>

<path fill="#FDF6AE" stroke="none" d="
M 0.25 -17.15
L 0.25 -17.15
Q -7.0837890625 -16.6517578125 -10.45 -12.5 -13.9732421875 -7.894140625 -16.45 -2.9 -18.9880859375 2.2525390625 -21.85 8.55 -22.959375 11.0341796875 -22.55 12.5 -22.016015625 13.6626953125 -20.15 14.1
L -20.15 14.05
Q -14.6240234375 15.2900390625 -1.05 15.05 11.8634765625 14.81171875 15 11.7
L 15.05 11.65
Q 17.9103515625 8.2857421875 18.05 0.25 18.1890625 -7.7734375 12.9 -12.75 7.6546875 -17.7474609375 0.25 -17.15 Z"/>
</g>

<g id="FS_FrontLeg_3_4_upper_2_Layer1_0_FILL">
<path fill="#EBD463" stroke="none" d="
M -17.3 82.35
L -14.2 82.9
Q -3.4103515625 50.004296875 -7.15 -2.5 -9.971484375 0.565234375 -9.25 14.7 -7.92421875 54.5646484375 -17.3 82.35
M 18.4 19.05
Q 12.98984375 3.2484375 9.05 0.4 26.109765625 43.7232421875 19.95 89.45
L 19.95 89.5
Q 21.0232421875 91.8462890625 22.9 89.9
L 22.9 89.9
Q 27.77265625 53.83984375 18.4 19.05 Z"/>

<path fill="#FDF6AE" stroke="none" d="
M 9.05 0.4
L 9.05 0.35
Q 0.58515625 -2.4958984375 -7.15 -2.5 -3.4103515625 50.004296875 -14.2 82.9
L -13.1 84.35 19.95 89.45
Q 26.109765625 43.7232421875 9.05 0.4 Z"/>
</g>

<g id="FS_Wing_side_9_Layer4_0_FILL">
<path fill="#FFF8AD" stroke="none" d="
M 21.55 14.75
L 21.55 14.7
Q 21.2142578125 14.1181640625 20.8 13.6
L 20.8 13.6
Q 18.1185546875 10.5724609375 10.35 10.55 10.3005859375 3.5751953125 -0.85 1.7
L -8.45 1.25 -8.5 1.3 -9.2 1.9
Q -15.48515625 8.1115234375 -17.1 16 -18.7552734375 24.0869140625 -14.65 30.5 -7.2 41.795703125 10.15 38.55 22.0693359375 32.926953125 19.25 24.6 23.9587890625 19.2478515625 21.55 14.75
M 22.65 27.4
Q 22.66171875 27.693359375 22.65 27.95 22.58046875 32.1900390625 18.55 36.15 30.1486328125 31.27578125 39.5 16.85 40.3603515625 15.5462890625 41.1 14.25
L 22.65 27.4
M 43.05 10.6
Q 44.6708984375 7.1671875 45.45 4.05 46.0837890625 1.4330078125 45.95 -0.45
L 23.55 12.35
Q 23.8908203125 12.809375 24.15 13.3
L 24.15 13.3
Q 27.62890625 19.3095703125 22.3 25.1 22.478515625 25.676953125 22.55 26.25
L 42.25 12.15
Q 42.69375 11.384765625 43.05 10.6
L 43.05 10.6
M 40.2 -5.35
L 40.2 -5.35
Q 39.5380859375 -5.4392578125 38.8 -5.5
L 12 6.4
Q 12.3978515625 7.1595703125 12.6 8.05 19.8712890625 7.8109375 22.95 11.5
L 45.85 -1.5
Q 45.5666015625 -2.65234375 44.85 -3.35
L 44.8 -3.35
Q 43.229296875 -4.827734375 40.2 -5.35
M 36.5 -5.6
Q 32.940625 -5.5923828125 28.2 -4.75 17.980859375 -2.937109375 6.05 1.95 9.87421875 2.86640625 11.5 5.5
L 36.5 -5.6 Z"/>

<path fill="#EBD463" stroke="none" d="
M 46.9 -5.55
Q 44.7744140625 -7.612109375 40.7 -8.3 35.7517578125 -9.144921875 27.65 -7.75 14.734765625 -5.4265625 -0.85 1.7 10.3005859375 3.5751953125 10.35 10.55 18.1185546875 10.5724609375 20.8 13.6
L 20.8 13.6
Q 21.2142578125 14.1181640625 21.55 14.7
L 21.55 14.75
Q 23.9587890625 19.2478515625 19.25 24.6 22.0693359375 32.926953125 10.15 38.55 -7.2 41.795703125 -14.65 30.5 -18.7552734375 24.0869140625 -17.1 16 -15.48515625 8.1115234375 -9.2 1.9
L -8.5 1.3
Q -18.253515625 6.6705078125 -20.05 15.35
L -20.05 15.4
Q -21.9291015625 24.716796875 -17.15 32.1 -8.7962890625 45.237890625 11 41.45 11.162109375 41.4291015625 11.25 41.35 13.279296875 40.975 15.4 40.4 30.3787109375 36.4216796875 42 18.5 44.2009765625 15.115625 45.75 11.95
L 45.75 11.9
Q 47.5208984375 8.1666015625 48.35 4.75 49.3619140625 0.556640625 48.75 -2.1
L 48.75 -2.1
Q 48.2580078125 -4.2615234375 46.85 -5.55
L 46.9 -5.55
M 28.2 -4.75
Q 32.940625 -5.5923828125 36.5 -5.6
L 11.5 5.5
Q 9.87421875 2.86640625 6.05 1.95 17.980859375 -2.937109375 28.2 -4.75
M 40.2 -5.35
L 40.2 -5.35
Q 43.229296875 -4.827734375 44.8 -3.35
L 44.85 -3.35
Q 45.5666015625 -2.65234375 45.85 -1.5
L 22.95 11.5
Q 19.8712890625 7.8109375 12.6 8.05 12.3978515625 7.1595703125 12 6.4
L 38.8 -5.5
Q 39.5380859375 -5.4392578125 40.2 -5.35
M 45.45 4.05
Q 44.6708984375 7.1671875 43.05 10.6
L 43.05 10.6
Q 42.69375 11.384765625 42.25 12.15
L 22.55 26.25
Q 22.478515625 25.676953125 22.3 25.1 27.62890625 19.3095703125 24.15 13.3
L 24.15 13.3
Q 23.8908203125 12.809375 23.55 12.35
L 45.95 -0.45
Q 46.0837890625 1.4330078125 45.45 4.05
M 22.65 27.95
Q 22.66171875 27.693359375 22.65 27.4
L 41.1 14.25
Q 40.3603515625 15.5462890625 39.5 16.85 30.1486328125 31.27578125 18.55 36.15 22.58046875 32.1900390625 22.65 27.95 Z"/>
</g>

<g id="FS_Mane_01_10_Layer1_0_FILL">
<path fill="#E781B3" stroke="none" d="
M -67.15 -46.75
Q -65.575390625 -45.923046875 -63.8 -44.8 -63.7251953125 -44.8013671875 -63.7 -44.85 -56.8751953125 -48.056640625 -49.9 -46.85 -45.7849609375 -46.1361328125 -42.45 -44 -39.2779296875 -42.00625 -37.75 -39.35
L -36.45 -41.4
Q -38.2208984375 -44.49140625 -41.7 -47 -45.49765625 -49.7673828125 -49.75 -50.5 -57.188671875 -51.78359375 -64.25 -48.4 -65.588671875 -47.76171875 -66.85 -46.95 -66.9859375 -46.8435546875 -67.15 -46.75
M 0.1 -73.05
L 0.1 -73.05 -1.65 -76.25
Q 9.854296875 -73.767578125 19.2 -68.45 25.7185546875 -64.6916015625 32.45 -58.55
L 29.6 -52.85
Q 28.2140625 -50.030078125 27.2 -48.3
L 26.4 -46.85
Q -3.121484375 -51.0462890625 -20.25 -38.65 -27.5916015625 -33.2125 -32.2 -25 -33.1955078125 -23.203515625 -34.05 -21.3 -30.7625 -21.98828125 -29.85 -23.7 -25.5291015625 -31.4033203125 -18.6 -36.45 -2.1689453125 -48.3638671875 26.8 -44.1
L 29.35 -49.4 34 -59 34.25 -59.5
Q 25.2849609375 -67.7619140625 20.45 -71 8.630859375 -78.8751953125 -5.7 -81.35 -21.3001953125 -84.048828125 -40.35 -81.8 -65.022265625 -78.881640625 -77.35 -65.55 -79.7912109375 -62.884765625 -81.85 -59.9 -82.8658203125 -57.0546875 -79.4 -54.85 -79.3408203125 -54.8859375 -79.3 -54.95 -78.882421875 -55.127734375 -78.5 -55.3 -69.4806640625 -59.05390625 -61.55 -59.5 -45.2939453125 -60.3818359375 -23.4 -50.8
L -22.9 -51.9
Q -45.10625 -61.618359375 -61.6 -60.7 -69.34453125 -60.266796875 -78.1 -56.75 -76.3966796875 -59.117578125 -74.45 -61.25 -64.46171875 -72.0697265625 -47.55 -75.95 -46.9060546875 -75.8142578125 -46.3 -75.7 -38.0798828125 -73.646875 -33.35 -71.3
L -33.35 -71.25
Q -23.115234375 -66.191015625 -13 -54.35
L -12.1 -55.15
Q -22.3845703125 -67.208984375 -32.8 -72.35
L -32.8 -72.35
Q -37.2677734375 -74.5767578125 -44.8 -76.55 -42.015234375 -77.046484375 -39.05 -77.4 -22.6544921875 -79.3298828125 -8.9 -77.5 -8.7203125 -77.3484375 -8.55 -77.15
L -8.55 -77.15
Q -7.0640625 -75.5474609375 -5.8 -73.65 -0.9404296875 -66.2236328125 -0.8 -56.5
L 0 -56.5
Q -0.159765625 -66.4765625 -5.15 -74.1 -6.301171875 -75.8494140625 -7.65 -77.35 -6.425 -77.158203125 -5.25 -76.95 -3.9080078125 -76.7224609375 -2.65 -76.45
L -0.6 -72.7 -0.65 -72.7
Q 2.2013671875 -65.703515625 2.6 -56.6
L 3.4 -56.65
Q 2.9984375 -65.896484375 0.1 -73
L 0.1 -73.05 Z"/>

<path fill="#F4B6D1" stroke="none" d="
M 34.1 -58.9
Q 34.0513671875 -58.9197265625 34 -59
L 29.35 -49.4
Q 31.1193359375 -52.72578125 34.1 -58.9
M 0.1 -73.05
L 0.1 -73.05 0.1 -73
Q 2.9984375 -65.896484375 3.4 -56.65
L 2.6 -56.6
Q 2.2013671875 -65.703515625 -0.65 -72.7
L -0.6 -72.7 -2.65 -76.45
Q -3.9080078125 -76.7224609375 -5.25 -76.95 -6.425 -77.158203125 -7.65 -77.35 -6.301171875 -75.8494140625 -5.15 -74.1 -0.159765625 -66.4765625 0 -56.5
L -0.8 -56.5
Q -0.9404296875 -66.2236328125 -5.8 -73.65 -7.0640625 -75.5474609375 -8.55 -77.15
L -8.55 -77.15
Q -8.7203125 -77.3484375 -8.9 -77.5 -22.6544921875 -79.3298828125 -39.05 -77.4 -42.015234375 -77.046484375 -44.8 -76.55 -37.2677734375 -74.5767578125 -32.8 -72.35
L -32.8 -72.35
Q -22.3845703125 -67.208984375 -12.1 -55.15
L -13 -54.35
Q -23.115234375 -66.191015625 -33.35 -71.25
L -33.35 -71.3
Q -38.0798828125 -73.646875 -46.3 -75.7 -46.9060546875 -75.8142578125 -47.55 -75.95 -64.46171875 -72.0697265625 -74.45 -61.25 -76.3966796875 -59.117578125 -78.1 -56.75 -69.34453125 -60.266796875 -61.6 -60.7 -45.10625 -61.618359375 -22.9 -51.9
L -23.4 -50.8
Q -45.2939453125 -60.3818359375 -61.55 -59.5 -69.4806640625 -59.05390625 -78.5 -55.3 -78.882421875 -55.127734375 -79.3 -54.95 -79.3408203125 -54.8859375 -79.4 -54.85
L -79.4 -54.8 -79.35 -54.8 -67.15 -46.7 -67.15 -46.75
Q -66.9859375 -46.8435546875 -66.85 -46.95 -65.588671875 -47.76171875 -64.25 -48.4 -57.188671875 -51.78359375 -49.75 -50.5 -45.49765625 -49.7673828125 -41.7 -47 -38.2208984375 -44.49140625 -36.45 -41.4
L -37.75 -39.35
Q -39.2779296875 -42.00625 -42.45 -44 -45.7849609375 -46.1361328125 -49.9 -46.85 -56.8751953125 -48.056640625 -63.7 -44.85 -63.7251953125 -44.8013671875 -63.8 -44.8 -49.878125 -37.0037109375 -34.05 -21.3 -33.1955078125 -23.203515625 -32.2 -25 -27.5916015625 -33.2125 -20.25 -38.65 -3.121484375 -51.0462890625 26.4 -46.85
L 27.2 -48.3
Q 28.2140625 -50.030078125 29.6 -52.85
L 32.45 -58.55
Q 25.7185546875 -64.6916015625 19.2 -68.45 9.854296875 -73.767578125 -1.65 -76.25
L 0.1 -73.05 Z"/>
</g>

<g id="FS_Skull_9_Layer0_0_FILL">
<path fill="#FDF6AE" stroke="none" d="
M 36.95 -33.85
Q 25.890625 -44.9564453125 5.35 -45.05 -4.85 -45.1 -13.1 -42.35 -21.1 -39.7 -28.55 -34.05 -31.85 -31.5 -35.3 -27.95 -40.25 -22.8 -42.85 -11.5 -44.6458984375 -3.5529296875 -44.85 1.85 -45.012890625 7.3087890625 -44.25 14.15 -43.7205078125 18.5232421875 -43.1 21.4 -42.7091796875 23.0419921875 -42.3 24.2 -41.5669921875 26.26640625 -41.3 26.5 -38.796484375 26.38984375 -35 30.85 -34.760546875 31.0935546875 -34.55 31.35 -27.3 41.25 -18.85 45.45 -15.342578125 47.1587890625 -11.05 48.25 -4.28984375 49.967578125 6.1 50.55 7.6087890625 50.638671875 9.5 50.55 19.1060546875 47.5568359375 32.25 36.5 38.3267578125 30.5923828125 40.2 28.15 42.5498046875 25.1298828125 44.05 22.25 45.566015625 19.4197265625 46.3 16.35 52.246484375 -1.18515625 48.1 -15.3 46.64609375 -20.2318359375 44.05 -24.7 41.2005859375 -29.57109375 36.95 -33.85 Z"/>

<path fill="#EBD463" stroke="none" d="
M 5.35 -45.05
Q 25.890625 -44.9564453125 36.95 -33.85 41.2005859375 -29.57109375 44.05 -24.7
L 44.05 -30.2
Q 41.857421875 -33.186328125 39.1 -35.95 27.309765625 -47.94375 5.35 -48.05 -5.4 -48.1 -14.15 -45.2 -22.55 -42.4 -30.35 -36.45 -32.1 -35.1 -37.65 -29 -42.2 -23.95 -45 -14.9 -47.8490234375 -5.702734375 -47.6 4.85 -47.3720703125 14.593359375 -45.85 21.35 -45.6890625 21.9296875 -45.55 22.45 -45.123046875 24.1470703125 -44.65 25.5 -44.567578125 25.761328125 -44.5 26 -42.79765625 26.7697265625 -41.3 26.5 -41.5669921875 26.26640625 -42.3 24.2 -42.7091796875 23.0419921875 -43.1 21.4 -43.7205078125 18.5232421875 -44.25 14.15 -45.012890625 7.3087890625 -44.85 1.85 -44.6458984375 -3.5529296875 -42.85 -11.5 -40.25 -22.8 -35.3 -27.95 -31.85 -31.5 -28.55 -34.05 -21.1 -39.7 -13.1 -42.35 -4.85 -45.1 5.35 -45.05 Z"/>
</g>

<g id="Mask_Mask_FS_EyeWhite_3_4_0_Layer0_0_FILL">
<path fill="#FFFFFF" stroke="none" d="
M 15.3 -16.8
Q 12.05 -25.85 4.7 -27.8 -2.55 -29.75 -9.55 -23.45 -16.6 -17.15 -19.25 -6.25 -21.95 4.7 -18.7 13.75 -15.45 22.8 -8.2 24.8 -0.9 26.75 6.15 20.4 13.2 14.15 15.9 3.2 18.6 -7.7 15.3 -16.8 Z"/>
</g>

<g id="FS_EyeWhite_3_4_0_Layer0_0_FILL">
<path fill="#FFFFFF" stroke="none" d="
M 15.3 -16.8
Q 12.05 -25.85 4.7 -27.8 -2.55 -29.75 -9.55 -23.45 -16.6 -17.15 -19.25 -6.25 -21.95 4.7 -18.7 13.75 -15.45 22.8 -8.2 24.8 -0.9 26.75 6.15 20.4 13.2 14.15 15.9 3.2 18.6 -7.7 15.3 -16.8 Z"/>
</g>

<g id="FS_Iris_0_Layer1_0_FILL">
<path fill="url(#Gradient_1)" stroke="none" d="
M 17.7 -13.05
Q 13.45 -21.1 5.25 -22.95 -3 -24.85 -10.3 -19.4 -17.6 -14 -19.75 -4.45 -20.922265625 0.6119140625 -20 7.1 -19.662109375 8.449609375 -19.2 9.75
L -18.6 11.2
Q -18.1958984375 12.1607421875 -17.7 13.1 -13.45 21.15 -5.2 23 3 24.85 10.3 19.45 17.6 14 19.8 4.5 21.95 -5 17.7 -13.05 Z"/>
</g>

<g id="FS_Iris_0_Layer0_0_FILL">
<path fill="#8AD2D5" stroke="none" d="
M -6.5 8
Q -17.6794921875 11.2681640625 -18.65 11.25 -17.6072265625 14.0123046875 -15.4 16.75
L 0.1 6.75 -6.5 8 Z"/>
</g>

<g id="FS_Iris_0_Layer0_1_FILL">
<path fill="#3DBFBB" stroke="none" d="
M -20.25 5.4
Q -19.7828125 8.4513671875 -18.6 11.3
L 0.4 6.6 -20.25 5.4 Z"/>
</g>

<g id="FS_Pupil_0_Layer0_0_FILL">
<path fill="#000000" stroke="none" d="
M 12.45 -9.9
Q 10.5203125 -16.0232421875 5.5 -17.5 0.487109375 -18.9470703125 -4.7 -14.9 -9.854296875 -10.7671875 -12.15 -3.55 -14.402734375 3.7013671875 -12.5 9.8 -10.484375 16.0318359375 -5.45 17.5 -0.4265625 18.9556640625 4.7 14.8 9.91484375 10.7759765625 12.15 3.55 14.43828125 -3.692578125 12.45 -9.9 Z"/>
</g>

<g id="FS_Hilights_0_Layer1_0_FILL">
<path fill="#FFFFFF" stroke="none" d="
M -8.15 11.5
Q -8.11953125 11.614453125 -8.1 11.7 -8.0240234375 11.8134765625 -7.95 11.95 -7.7912109375 12.381640625 -7.55 12.75 -7.4705078125 12.844140625 -7.4 12.9 -7.2078125 13.113671875 -6.95 13.3 -6.50546875 13.6888671875 -6.05 13.8 -5.996875 13.8515625 -5.95 13.85 -5.6171875 13.9560546875 -5.2 13.95 -3.9484375 13.97890625 -3.4 12.75 -3.3849609375 12.698046875 -3.4 12.65 -3.1736328125 12.1291015625 -3.25 11.35 -3.259765625 11.128515625 -3.35 10.85 -3.3462890625 10.7740234375 -3.4 10.7 -3.7330078125 9.7962890625 -4.4 9.15 -4.435546875 9.108203125 -4.5 9.05 -4.72890625 8.870703125 -4.9 8.75 -5.579296875 8.305859375 -6.3 8.4 -7.123828125 8.352734375 -7.65 8.9 -7.813671875 9.0921875 -8 9.35 -8.0568359375 9.446484375 -8.1 9.55 -8.510546875 10.357421875 -8.15 11.5
M 3.85 -8.7
L 3.8 -8.75
Q 1.3921875 -11.8771484375 -1.15 -11.7 -4.233984375 -11.8736328125 -5.6 -8.2
L -5.6 -8.15
Q -6.528125 -5.45625 -5.75 -1.6 -5.0052734375 2.07265625 -3.05 4.6
L -3.05 4.6
Q -0.6041015625 7.82109375 2 7.65 5.12890625 7.837890625 6.4 4 7.375390625 1.40078125 6.6 -2.4
L 6.6 -2.45
Q 5.8041015625 -6.1376953125 3.85 -8.7 Z"/>
</g>

<g id="FS_Blink_3_4_1_Layer5_0_FILL">
<path fill="#000000" stroke="none" d="
M 3.9 -28.3
Q 2.6283203125 -28.579296875 1.35 -28.7 -4.6439453125 -29.078515625 -10.25 -24.75 -11.7181640625 -23.5576171875 -13 -22.2 -17.4087890625 -17.401953125 -18.9 -10.25 -19.5439453125 -6.9607421875 -19.9 -3.95 -20.534765625 1.5740234375 -20.15 6.3 -20.158203125 1.678125 -18.95 -3.35 -18.7609375 -4.0185546875 -18.6 -4.7 -15.9060546875 -14.323046875 -9.65 -20.2 1.74921875 -30.1068359375 10.75 -21.8 10.882421875 -21.6779296875 11 -21.55 13.90546875 -18.748828125 15.65 -13.95 16.3888671875 -11.873828125 16.8 -9.75 16.4884765625 -14.0923828125 14.85 -18.1 11.35234375 -26.50703125 3.9 -28.3 Z"/>
</g>

<g id="FS_Blink_3_4_1_Layer4_0_FILL">
<path fill="#FDF6AE" stroke="none" d="
M 16.4 -17.65
Q 12.496484375 -27.56875 4.35 -29.75 -3.7302734375 -31.8421875 -11.25 -24.95 -16.4625 -20.11796875 -19.3 -12.95 -15.8939453125 -15.0650390625 -11.65 -15.4 -7.85 -15.85 -4.55 -14.4
L -4.35 -14.1 -3.9 -13.95 -3.75 -13.6
Q -2.25 -12.85 -1.2 -11.95 -1 -11.7 -1.1 -11.4 0.8 -9.9 2.55 -8.05 2.8 -7.85 2.8 -7.5 4.25 -6.8 5.15 -5.5 5.3 -5.3 5.3 -5.15 6.05 -4.7 6.5 -3.8 6.55 -3.7 6.75 -3.45
L 7.8 -1.4
Q 8.7 -0.75 9.5 0.35 9.7 0.6 9.7 0.95 11.05 1.6 11.85 2.6 11.9 2.7 12.2 2.8 12.85 3.55 13.5 4.1 13.85 4.4 14.1 4.5 14.45 5.05 15.35 5.6 15.5 5.6 15.65 5.6
L 15.8 5.95 17.15 6.6
Q 17.4716796875 5.505078125 17.7 4.3 20.319921875 -7.6388671875 16.4 -17.65 Z"/>
</g>

<g id="FS_Blink_3_4_1_Layer3_0_FILL">
<path fill="#000000" stroke="none" d="
M 6.45 22.2
L 4.6 23.6
Q 6.1939453125 26.837109375 5.95 29.8 5.6958984375 32.807421875 7.05 29.05 8.4173828125 25.300390625 6.45 22.2
M 10 18.55
L 8.75 20.05
Q 11.8150390625 21.620703125 12.95 24.6 13.6880859375 26.43359375 13.95 28.65 15.7818359375 24.8724609375 13.7 21.65 12.176953125 19.2923828125 10 18.55 Z"/>
</g>

<g id="FS_Blink_3_4_1_Layer3_1_FILL">
<path fill="#000000" stroke="none" d="
M 11.35 16.2
L 10.15 18
Q 14.18828125 17.88203125 16.95 19.45 18.5791015625 20.37578125 19.9 21.9 19.8611328125 18.6484375 16.25 17.1 13.638671875 15.9990234375 11.35 16.2 Z"/>
</g>

<g id="FS_Blink_3_4_1_Layer2_0_FILL">
<path fill="#000000" stroke="none" d="
M 18.3 8.85
Q 19.0607421875 7.484375 19.05 6 18.1177734375 6.141796875 14.3 2.65 10.5298828125 -0.8400390625 4.95 -8.05 -0.5833984375 -15.2125 -8.15 -17.95 -10.8287109375 -18.8990234375 -12.9 -18.65 -17.1703125 -17.7169921875 -18.35 -11.7 -17.34765625 -11.4166015625 -15.7 -13.1 -10.3908203125 -15.4189453125 -1.25 -8.85 3.47265625 -5.4109375 7.7 -0.15 13.7125 7.1673828125 18.3 8.85 Z"/>
</g>

<g id="FS_Blink_3_4_1_Layer1_0_FILL">
<path fill="#000000" stroke="none" d="
M 11.35 1.15
L 13.6 3.4
Q 23.4466796875 6.7630859375 26.1 -0.45 18.7044921875 4.7392578125 11.35 1.15
M 18.45 7.7
Q 28.871484375 12.3177734375 34.2 7.6 26.1259765625 9.376171875 21.5 7.2 28.6728515625 8.57734375 32.35 4.25 25.308203125 6.2521484375 19.05 4.8
L 18.3 7.65
Q 18.38125 7.6701171875 18.45 7.7 Z"/>
</g>

<g id="FS_Nose_1_Layer1_0_FILL">
<path fill="#EBD463" stroke="none" d="
M -2.55 3.7
Q -4.0583984375 0.9703125 -4.7 1.2 -4.734375 2.1412109375 -5.25 2.8
L -5.5 3.05
Q -8.8025390625 5.372265625 -11.65 6.4 -14.4482421875 7.433203125 -15.4 9.15 -16.35078125 10.90546875 -15.25 14.15 -13.6 14.3 -12.7 13.75
L -12.3 13.5
Q -13.4 10.25 -10.8 8.95 -3.7501953125 5.45 -2.65 3.9 -2.5890625 3.81953125 -2.55 3.7 Z"/>

<path fill="#F4B6D1" stroke="none" d="
M -2.1 0.1
L -2.05 0.1
Q -2.059375 0.071484375 -2.1 0.05 -2.069921875 0.083203125 -2.1 0.1 Z"/>

<path fill="#FDF6AE" stroke="none" d="
M 6.25 9.15
Q 4.4181640625 7.8712890625 1.3 4.1 -1.8056640625 0.3236328125 -1.9 0.2 -2.00859375 0.1306640625 -2.05 0.1
L -2.1 0.1
Q -2.06875 0.1642578125 -2.1 0.2 -2.040625 0.34765625 -2.05 0.45 -1.8798828125 1.4244140625 -1.9 1.75 -1.9001953125 2.18046875 -2.05 2.6 -2.07109375 2.7412109375 -2.15 2.85
L -2.3 3.25
Q -2.3865234375 3.5166015625 -2.55 3.7 -2.5890625 3.81953125 -2.65 3.9 -3.7501953125 5.45 -10.8 8.95 -13.4 10.25 -12.3 13.5
L -12.7 13.75
Q -10.9865234375 20.030078125 -8.05 21.8 -5.125 23.627734375 -3.4 24.65 -0.54609375 24.4287109375 3.6 21.45 6.482421875 18.1421875 6.25 9.15 Z"/>
</g>

<g id="FS_Mouth_side_40_Layer7_0_FILL">
<path fill="#EBD463" stroke="none" d="
M -15.95 19
Q -11.3216796875 20.61796875 -5.4 21.15 0.5404296875 21.683203125 7.75 21.15 21.922265625 20.12421875 27.8 15.95 27.35 15.96640625 26.9 15.95 13.301953125 19.110546875 3.6 19.1 -1.128515625 19.0876953125 -5.4 18.5 -10.6431640625 17.8173828125 -15.15 16.25 -21.0666015625 14.17421875 -28.85 8.9 -28.7845703125 9.31015625 -29.05 9.4 -29.8791015625 9.87265625 -34.1 7.65 -30.4830078125 11.102734375 -30.45 11.1 -29.75703125 11.6888671875 -29.05 12.2 -23.626171875 16.2998046875 -15.95 19 Z"/>

<path fill="#FDF6AE" stroke="none" d="
M -20.1 -7.75
L -18.6 -4.95
Q -21.0310546875 -1.5798828125 -24.1 2.55 -26.3162109375 5.5306640625 -28.85 8.9 -21.0666015625 14.17421875 -15.15 16.25 -10.6431640625 17.8173828125 -5.4 18.5 -1.128515625 19.0876953125 3.6 19.1 13.301953125 19.110546875 26.9 15.95 25.4818359375 16 24 16 23.325 16 22.65 16 23.384375 15.9212890625 24.1 15.85 -0.581640625 13.6576171875 -14.45 -0.7 -15.0337890625 -1.498046875 -15.6 -2.35 -16.9955078125 -3.855078125 -18.2 -5.45 -18.2634765625 -5.338671875 -18.35 -5.25 -19.2443359375 -6.4673828125 -20.1 -7.75 Z"/>
</g>

<g id="FS_Mouth_side_40_Layer5_0_FILL">
<path fill="#EBD463" stroke="none" d="
M -36.3 -1.5
L -39.1 -1.05
Q -36.6228515625 6.53203125 -29.3 12.1 -23.789453125 8.259765625 -12.65 9.5 -16.21640625 5.95 -28.95 8.6 -28.9716796875 8.6177734375 -29 8.6 -29.0251953125 8.6046875 -29.05 8.55 -34.2861328125 4.07890625 -36.3 -1.5 Z"/>
</g>

<g id="FS_MouthPatch_0_Layer0_0_FILL">
<path fill="#FDF6AE" stroke="none" d="
M -3.25 -4.55
L -5 -4.3
Q -3.96796875 0.4646484375 -2.55 4.5
L -0.55 4 -3.25 -4.55 Z"/>
</g>

<g id="FS_Nostril_3_4_1_Layer0_0_FILL">
<path fill="#EBD463" stroke="none" d="
M -5.4 1
Q -3.92109375 2.0861328125 -2.7 1.55 -1.4849609375 1.0111328125 -1.4 0 -1.3048828125 -1.0041015625 -2.15 -2 -2.25 -1 -3.35 0.15 -3.9 0.8 -5.4 1 Z"/>
</g>

<g id="FS_Mane_01_2_Layer2_0_FILL">
<path fill="#E781B3" stroke="none" d="
M 12.35 -3.35
Q 11.85 -16 3.6 -32.05 2.85 -33.95 -0.55 -33.9
L -0.6 -33.9
Q -3.1 -33.8 -4.55 -33 -6.4 -32.25 -6.8 -29 -7.15 -26.45 -6.25 -23.8 -5 -19.45 -4.8 -13.45 -4.8 -13.4 -4.8 -13.35 -5.8 -5.5 -8.05 0.5 -9.85 5.3 -6.8 9.2 -3.9 13.1 1.7 12.9 7.15 12.7 10 7.75 12.7 3.4 12.35 -3.35
M 0.9 -30.7
Q 8.8 -15.4 9.3 -3.2 9.55 2.55 7.45 6.2
L 7.45 6.25
Q 5.35 9.7 1.6 9.9
L 1.55 9.9
Q -2.25 10.05 -4.45 7.4 -6.4 4.75 -5.15 1.55 -4.7947265625 0.5990234375 -4 -3 -2.3279296875 -8.2984375 -1.75 -13.1
L -1.75 -13.3
Q -1.95 -19.9 -3.4 -24.65 -4 -26.7 -3.75 -28.6 -3.6 -29.9 -3.15 -30.3
L -3.15 -30.35
Q -2.1 -30.9 -0.5 -30.9 0.5 -30.9 0.9 -30.7 Z"/>

<path fill="#F4B6D1" stroke="none" d="
M 9.3 -3.2
Q 8.8 -15.4 0.9 -30.7 0.5 -30.9 -0.5 -30.9 -2.1 -30.9 -3.15 -30.35
L -3.15 -30.3
Q -3.6 -29.9 -3.75 -28.6 -4 -26.7 -3.4 -24.65 -1.95 -19.9 -1.75 -13.3
L -1.75 -13.1
Q -2.3279296875 -8.2984375 -4 -3 -4.7947265625 0.5990234375 -5.15 1.55 -6.4 4.75 -4.45 7.4 -2.25 10.05 1.55 9.9
L 1.6 9.9
Q 5.35 9.7 7.45 6.25
L 7.45 6.2
Q 9.55 2.55 9.3 -3.2 Z"/>
</g>

<g id="FS_Mane_01_2_Layer1_0_FILL">
<path fill="#F4B6D1" stroke="none" d="
M 8.75 -5.7
Q 8.6869140625 -7.99140625 8.25 -11.1
L -4 -3
Q -4.847265625 0.0787109375 -6.2 3.75 -10.150390625 14.7181640625 -17.65 25.5 -19.7732421875 28.5392578125 -29.05 40.85 -37.9529296875 52.69765625 -43.4 60.55 -61.275 86.5640625 -64.65 102.05 -66.5310546875 110.885546875 -66.95 118.2 -67.01640625 119.9607421875 -67.05 121.6 -65.5455078125 111.2919921875 -60.5 102.15 -51.2400390625 85.3322265625 -24.75 63.05
L -24.75 63.05
Q -1.9 43.5 4.7 18.2 5.6466796875 14.5021484375 7.2 5.55 8.809765625 -3.4064453125 8.75 -5.7
M 0.1 63.15
Q 4.0208984375 49.848046875 5.75 36.9 0.9544921875 47.4322265625 -7.85 58.6 -14.7361328125 67.43671875 -29.4 82.5
L -29.45 82.5
Q -53.98515625 109.2787109375 -56 131.85 -57.083984375 144.4138671875 -50.9 155.45 -50.5912109375 155.9603515625 -50.3 156.45 -43.216796875 160.932421875 -33.2 163.1 -31.8103515625 163.3876953125 -30.15 163.45 -21.05 163.962890625 -15.1 158.05 -11.4755859375 154.44296875 -10.35 149.7 -10.5916015625 150.286328125 -11.5 151.65 -12.7080078125 153.3705078125 -15.45 154.7 -18.2419921875 156.040625 -20.6 155.9 -23.7146484375 155.755859375 -27.3 153.15 -30.7568359375 150.6556640625 -32.15 146.55 -33.2734375 143.1732421875 -33 138.15 -32.608203125 130.7373046875 -25.05 117.35 -12.7560546875 95.6693359375 -12.55 95.25 -4.8263671875 80.0853515625 0.1 63.15
M 5.5 34.6
Q 6.2 33.4 6.3 32.7 7.6 24.3 8.95 7.95 9.1921875 3.6390625 9.3 1.75 9.075390625 4.573046875 5.7 19.2 0 43.55 -23.95 63.95
L -24 63.95
Q -50.2599609375 86.0677734375 -59.45 102.75 -65.4599609375 113.6341796875 -66.3 126.25 -66.443359375 128.4091796875 -66.45 130.6 -65.1263671875 139.3642578125 -61.05 145.9 -57.697265625 151.1212890625 -52.55 154.95 -58.26171875 144.055859375 -57.2 131.75 -55.216015625 108.83203125 -30.3 81.7
L -30.3 81.65
Q -15.6580078125 66.6556640625 -8.8 57.85 0.6732421875 45.8517578125 5.5 34.6 Z"/>

<path fill="#E781B3" stroke="none" d="
M 11.95 -6.3
Q 11.25 -8.95 8.25 -11.1 8.6869140625 -7.99140625 8.75 -5.7 8.809765625 -3.4064453125 7.2 5.55 5.6466796875 14.5021484375 4.7 18.2 -1.9 43.5 -24.75 63.05
L -24.75 63.05
Q -51.2400390625 85.3322265625 -60.5 102.15 -65.5455078125 111.2919921875 -67.05 121.6 -67.01640625 119.9607421875 -66.95 118.2 -66.5310546875 110.885546875 -64.65 102.05 -61.275 86.5640625 -43.4 60.55 -37.9529296875 52.69765625 -29.05 40.85 -19.7732421875 28.5392578125 -17.65 25.5 -10.150390625 14.7181640625 -6.2 3.75 -4.847265625 0.0787109375 -4 -3 -6.66015625 -2.9640625 -7.4 -1.2 -8.2298828125 0.5625 -9.95 5 -14.419921875 16.9189453125 -20.95 26.15 -23.8279296875 30.3177734375 -32.35 40.9 -42.0814453125 53.0888671875 -46.85 59.45 -65.0564453125 83.975390625 -68.5 99.8 -70.4185546875 108.5826171875 -70.85 116.3 -71.760546875 133.8791015625 -64.65 145.15 -60.253125 152.0630859375 -52.9 157.2 -44.6 163.15 -35.6 165.1 -33.6 165.45 -30.9 165.75 -26.3 166.25 -20.95 164.1 -16.6294921875 162.4333984375 -13.7 159.45 -8.7677734375 153.9630859375 -8.3 147.5 -7.816796875 141.4046875 -11.3 139.4 -14.038671875 137.8783203125 -17.6 139.25 -19.687890625 140.041015625 -20.6 140.95 -19.025 140.65 -17.45 140.3 -14.0048828125 140.076953125 -12.35 142.05 -11.221484375 143.4244140625 -11.6 146.15 -11.927734375 148.6822265625 -13.15 150.45 -15.10078125 153.5796875 -18.65 153.45 -21.2421875 153.310546875 -24.25 151.05 -30.206640625 146.72578125 -29.85 137.65 -29.375390625 129.0470703125 -23.35 118.35 -14.840625 105.2623046875 -10 96.9 -1.2359375 81.8587890625 3.6 65.2 9.551953125 44.974609375 10.6 25.35 11.5 15.45 11.9 9.8 12.7 -0.55 11.95 -6.3
M 6.3 32.7
Q 6.2 33.4 5.5 34.6 0.6732421875 45.8517578125 -8.8 57.85 -15.6580078125 66.6556640625 -30.3 81.65
L -30.3 81.7
Q -55.216015625 108.83203125 -57.2 131.75 -58.26171875 144.055859375 -52.55 154.95 -57.697265625 151.1212890625 -61.05 145.9 -65.1263671875 139.3642578125 -66.45 130.6 -66.443359375 128.4091796875 -66.3 126.25 -65.4599609375 113.6341796875 -59.45 102.75 -50.2599609375 86.0677734375 -24 63.95
L -23.95 63.95
Q 0 43.55 5.7 19.2 9.075390625 4.573046875 9.3 1.75 9.1921875 3.6390625 8.95 7.95 7.6 24.3 6.3 32.7
M 5.75 36.9
Q 4.0208984375 49.848046875 0.1 63.15 -4.8263671875 80.0853515625 -12.55 95.25 -12.7560546875 95.6693359375 -25.05 117.35 -32.608203125 130.7373046875 -33 138.15 -33.2734375 143.1732421875 -32.15 146.55 -30.7568359375 150.6556640625 -27.3 153.15 -23.7146484375 155.755859375 -20.6 155.9 -18.2419921875 156.040625 -15.45 154.7 -12.7080078125 153.3705078125 -11.5 151.65 -10.5916015625 150.286328125 -10.35 149.7 -11.4755859375 154.44296875 -15.1 158.05 -21.05 163.962890625 -30.15 163.45 -31.8103515625 163.3876953125 -33.2 163.1 -43.216796875 160.932421875 -50.3 156.45 -50.5912109375 155.9603515625 -50.9 155.45 -57.083984375 144.4138671875 -56 131.85 -53.98515625 109.2787109375 -29.45 82.5
L -29.4 82.5
Q -14.7361328125 67.43671875 -7.85 58.6 0.9544921875 47.4322265625 5.75 36.9 Z"/>
</g>

<g id="FS_Mane_02_2_Layer0_0_FILL">
<path fill="#F4B6D1" stroke="none" d="
M 2.25 9.25
Q 3.5255859375 7.533984375 5.15 6.3 1.8671875 -1.0521484375 -6.5 -1.25 -7.1517578125 0.978515625 -7.7 3.35 -7.9376953125 4.7396484375 -8.05 6.4 -8.512890625 15.5 -2.65 21.45 1.00703125 25.0744140625 5.7 26.2 5.163671875 25.9583984375 3.75 25.05 2.0794921875 23.8419921875 0.75 21.1 -0.590625 18.3080078125 -0.5 15.95 -0.305859375 12.8353515625 2.25 9.25 Z"/>

<path fill="#E781B3" stroke="none" d="
M 5.15 6.3
Q 3.5255859375 7.533984375 2.25 9.25 -0.305859375 12.8353515625 -0.5 15.95 -0.590625 18.3080078125 0.75 21.1 2.0794921875 23.8419921875 3.75 25.05 5.163671875 25.9583984375 5.7 26.2 1.00703125 25.0744140625 -2.65 21.45 -8.512890625 15.5 -8.05 6.4 -7.9376953125 4.7396484375 -7.7 3.35 -7.1517578125 0.978515625 -6.5 -1.25 -7.4392578125 -1.484375 -9.45 0.15 -9.6951171875 1.2326171875 -9.95 2.3
L -9.95 2.35
Q -10.2013671875 3.86328125 -10.3 5.6
L -10.3 5.65
Q -10.5732421875 10.8552734375 -8.7 15.6 -6.9833984375 19.9205078125 -4.05 22.85 0.6912109375 27.0703125 6.1 28.05 8.1798828125 28.40546875 8.35 26.8 8.1482421875 25.2203125 6.75 24.65 2.2111328125 22.4771484375 2.15 18.9 2.1392578125 15.3126953125 4.4 12.3 4.6267578125 12.011328125 4.85 11.7 6.095703125 9.295703125 5.15 6.3 Z"/>
</g>

<g id="FS_Mane_03_2_Layer0_0_FILL">
<path fill="#E781B3" stroke="none" d="
M 0.95 9.1
Q 3.7240234375 10.5759765625 7.25 9.1
L 10.2 7.35 7.05 8.05
Q 3.6341796875 8.3771484375 1.9 6.4 0.7779296875 5.115625 1.1 2.35 1.1921875 1.4806640625 1.5 0.45 0.790625 -1.5779296875 -1.85 -0.2 -2.566015625 7.208203125 0.95 9.1 Z"/>
</g>

<g id="FS_Ear_0_Layer1_0_FILL">
<path fill="#FDF6AE" stroke="none" d="
M 10.9 -33.85
Q 8.059765625 -37.566015625 5.1 -40.15 2.2234375 -42.6314453125 -0.05 -43.3 -2.1841796875 -41.090234375 -4.2 -36.15
L -4.25 -36.15
Q -6.737109375 -30.0154296875 -7.55 -23.3 -8.1765625 -17.771484375 -8.25 -11.5
L -8.3 -11.5
Q -4.85078125 -2.74609375 4.45 10.55 12.7986328125 22.5275390625 16.1 18.9
L 16.7 17.95
Q 16.74453125 17.91953125 16.75 17.9 19.0888671875 14.229296875 20 9.85
L 20.05 9.8
Q 22.31953125 1.102734375 20.95 -11.25 19.6306640625 -22.544140625 10.9 -33.85
L 10.9 -33.85
M 10.6 -27.55
L 10.55 -28.05
Q 10.6376953125 -27.8240234375 10.7 -27.6 13.915234375 -19.097265625 12.6 -11.45 11.1984375 -3.765625 5.85 1 5.688671875 1.1880859375 5.5 1.35
L 5.8 0.95
Q 13.25 -10.5 10.6 -27.55 Z"/>

<path fill="#EBD564" stroke="none" d="
M 10.55 -28.05
L 10.6 -27.55
Q 13.25 -10.5 5.8 0.95
L 5.5 1.35
Q 5.688671875 1.1880859375 5.85 1 11.1984375 -3.765625 12.6 -11.45 13.915234375 -19.097265625 10.7 -27.6 10.6376953125 -27.8240234375 10.55 -28.05
M 5.1 -40.15
Q 8.059765625 -37.566015625 10.9 -33.85
L 10.9 -33.85
Q 19.6306640625 -22.544140625 20.95 -11.25 22.31953125 1.102734375 20.05 9.8
L 20 9.85
Q 19.0888671875 14.229296875 16.75 17.9 16.74453125 17.91953125 16.7 17.95
L 16.1 18.9 15.9 19.2 15.95 19.2
Q 16.54921875 18.821875 17.1 18.4 21.24609375 15.203125 22.55 9.4 22.5912109375 9.3884765625 22.6 9.35
L 22.55 9.4
Q 23.85 4.5 24.25 -0.15 24.65 -5.35 23.95 -11.6 22.45 -24.25 13.7 -35.65 11.3 -38.75 7.05 -42.4 2.926171875 -45.9802734375 -0.2 -46.45 -0.5275390625 -46.481640625 -0.85 -46.4 -1.1564453125 -46.3099609375 -1.4 -46.1 -4.35703125 -43.71640625 -7 -37.3
L -7 -37.3
Q -8.15 -34.45 -8.8 -30.6 -9.05 -29.15 -9.75 -23.6 -10.55 -16.4 -8.25 -11.5 -8.1765625 -17.771484375 -7.55 -23.3 -6.737109375 -30.0154296875 -4.25 -36.15
L -4.2 -36.15
Q -2.1841796875 -41.090234375 -0.05 -43.3 2.2234375 -42.6314453125 5.1 -40.15 Z"/>
</g>

<path id="FS_FrontLeg_3_4_upper_19_Layer1_0_1_STROKES" stroke="#EBD463" stroke-width="3" stroke-linejoin="round" stroke-linecap="round" fill="none" d="
M -5.35 35.125
L -6.725 3.65
M 20.95 40.525
Q 22.0779296875 21.4568359375 8.75 -0.75"/>

<path id="FS_FrontLeg_3_4_lower_10_Layer1_0_1_STROKES" stroke="#EBD463" stroke-width="3" stroke-linejoin="round" stroke-linecap="round" fill="none" d="
M -18.8 39.25
Q -20.4076171875 31.3296875 -20.025 23.65"/>
</defs>

<g transform="matrix( 0.986846923828125, 0, 0, 0.986846923828125, 690.65,309.25) ">
<g transform="matrix( 1.1137542724609375, 0.0009765625, -0.000885009765625, 1, 7.6,150.55) ">
<g transform="matrix( 1.1522064208984375, 0, 0, 1.7481689453125, 4.4,-262.5) ">
<use filter="url(#Filter_1)" xlink:href="#FS_Shadow_0_Layer0_0_FILL"/>
</g>
</g>

<g transform="matrix( 1, 0, 0, 1, -128.7,-89.7) ">
<g transform="matrix( 0.9983367919921875, 0.0126495361328125, -0.0126495361328125, 0.9983367919921875, 0.25,0.2) ">
<g transform="matrix( 1, 0, 0, 1, 0,0) ">
<use xlink:href="#FS_Mane_02_10_Layer0_0_FILL"/>
</g>
</g>

<g transform="matrix( 0.9983367919921875, 0.0126495361328125, -0.0126495361328125, 0.9983367919921875, -12.95,137.25) ">
<g transform="matrix( 1, 0, 0, 1, 0,0) ">
<use xlink:href="#FS_Mane_03_10_Layer0_0_FILL"/>
</g>
</g>
</g>

<g transform="matrix( 0.9572296142578125, -0.0285491943359375, 0.0334014892578125, 0.9208221435546875, 30.35,11.35) ">
<g transform="matrix( 0.0818328857421875, -0.996063232421875, 1.0050048828125, -0.0271759033203125, 81.3,137.15) ">
<g transform="matrix( 1, 0, 0, 1, 0,0) ">
<use xlink:href="#FS_Tail_02_7_Layer0_0_FILL"/>
</g>
</g>

<g transform="matrix( 1, 0, 0.10943603515625, 1, -0.2,0.7) ">
<g transform="matrix( 1, 0, 0, 1, 0,0) ">
<use xlink:href="#FS_Tail_01_7_Layer2_0_FILL"/>
</g>
</g>

<g transform="matrix( 0.9987945556640625, -0.0253448486328125, 0.1346588134765625, 0.9960174560546875, 170.1,142) ">
<g transform="matrix( 1, 0, 0, 1, 0,0) ">
<use xlink:href="#FS_Tail_03_7_Layer0_0_FILL"/>
</g>
</g>
</g>

<g transform="matrix( 0.7531890869140625, -0.59722900390625, 0.4514617919921875, 0.8899383544921875, -51.4,36.25) ">
<g transform="matrix( -0.0666351318359375, 0.995025634765625, -0.995025634765625, -0.0666351318359375, -10.05,2.35) ">
<g transform="matrix( 1, 0, 0, 1, 0,0) ">
<use xlink:href="#FS_FrontLeg_3_4_upper_19_Layer2_0_FILL"/>
</g>

<g transform="matrix( 1, 0, 0, 1, 0,0) ">
<use xlink:href="#FS_FrontLeg_3_4_upper_19_Layer1_0_FILL"/>

<use xlink:href="#FS_FrontLeg_3_4_upper_19_Layer1_0_1_STROKES"/>
</g>
</g>

<g transform="matrix( 0.3960723876953125, 0.9129486083984375, 0.9129486083984375, -0.3960723876953125, -46.1,-32.7) ">
<g transform="matrix( 1, 0, 0, 1, 0,0) ">
<use xlink:href="#FS_FrontLeg_3_4_hoof_3_Layer0_0_FILL"/>
</g>
</g>

<g transform="matrix( 0.9683380126953125, 0.2324676513671875, 0.2324676513671875, -0.9683380126953125, -53.15,3.7) ">
<g transform="matrix( 1, 0, 0, 1, 0,0) ">
<use xlink:href="#FS_FrontLeg_3_4_lower_10_Layer2_0_FILL"/>
</g>

<g transform="matrix( 1, 0, 0, 1, 0,0) ">
<use xlink:href="#FS_FrontLeg_3_4_lower_10_Layer1_0_FILL"/>

<use xlink:href="#FS_FrontLeg_3_4_lower_10_Layer1_0_1_STROKES"/>
</g>
</g>

<g transform="matrix( 0.8232269287109375, 1.5789794921875, 0.8733673095703125, -2.17669677734375, -36.9,-39.15) ">
<g transform="matrix( 1, 0, 0, 1, 0,0) ">
<use xlink:href="#FS_HoofWrinkle_0_Layer0_0_FILL"/>
</g>
</g>
</g>

<g transform="matrix( 1, 0, 0, 1, -13.1,23.75) "/>

<g transform="matrix( 0.9659423828125, 0.2587432861328125, -0.2292327880859375, 0.855804443359375, 12.15,15.7) ">
<g transform="matrix( 0.855499267578125, -0.5139312744140625, 0.5139312744140625, 0.855499267578125, 13.35,92.95) ">
<g transform="matrix( 1, 0, 0, 1, 0,0) ">
<use filter="url(#Filter_2)" xlink:href="#FS_FrontLeg_3_4_hoof_6_Layer0_0_FILL"/>
</g>
</g>

<g transform="matrix( 0.673614501953125, -0.39776611328125, 0.2312469482421875, 0.583343505859375, 8.95,44.75) ">
<g transform="matrix( 1, 0, 0, 1, 0,0) ">
<use filter="url(#Filter_2)" xlink:href="#FS_KneePatch_2_Layer0_0_FILL"/>
</g>
</g>

<g transform="matrix( 0.97882080078125, 0.2020111083984375, -0.201995849609375, 0.97882080078125, 16.7,44.55) ">
<g transform="matrix( 1, 0, 0, 1, 0,0) ">
<use filter="url(#Filter_2)" xlink:href="#FS_HindLeg_3_4rear_lower_2_Layer1_0_FILL"/>
</g>

<g transform="matrix( 1, 0, 0, 1, 0,0) ">
<use filter="url(#Filter_2)" xlink:href="#FS_HindLeg_3_4rear_lower_2_Layer0_0_FILL"/>
</g>
</g>

<g transform="matrix( 1.0980224609375, 0, -0.0869140625, 0.922088623046875, 10.45,-9.8) ">
<g transform="matrix( 1, 0, 0, 1, 0,0) ">
<use filter="url(#Filter_2)" xlink:href="#FS_HindLeg_3_4_top_1_Layer0_0_FILL"/>
</g>
</g>

<g transform="matrix( 0.673614501953125, -0.39776611328125, 0.2312469482421875, 0.583343505859375, 8.95,44.75) ">
<g transform="matrix( 1, 0, 0, 1, 0,0) ">
<use filter="url(#Filter_2)" xlink:href="#FS_KneePatch_3_Layer0_0_FILL"/>
</g>
</g>
</g>

<g transform="matrix( 1, 0, -0.105804443359375, 1, -4,28.65) ">
<g transform="matrix( 1, 0, 0, 1, 0,0) ">
<use xlink:href="#FS_Torso_2_Layer1_0_FILL"/>
</g>
</g>

<g transform="matrix( 0.9722900390625, 0.0318756103515625, -0.0508270263671875, 0.9713287353515625, -16.4,14.65) ">
<g transform="matrix( 1, 0, 0, 1, 0,0) ">
<use xlink:href="#FS_Neck_4_Layer1_0_FILL"/>
</g>

<g transform="matrix( 1, 0, 0, 1, 0,0) ">
<use xlink:href="#FS_Neck_4_Layer0_0_FILL"/>
</g>
</g>

<g transform="matrix( 1.03546142578125, 0.0288848876953125, -0.247406005859375, 1.0098876953125, 30.2,11.35) ">
<g transform="matrix( 1, 0, 0, 1, 29.15,127.9) ">
<g transform="matrix( 1, 0, 0, 1, 0,0) ">
<use xlink:href="#FS_FrontLeg_3_4_hoof_4_Layer0_0_FILL"/>
</g>
</g>

<g transform="matrix( 0.9659271240234375, -0.258819580078125, 0.258819580078125, 0.9659271240234375, 7.85,53.3) ">
<g transform="matrix( 1, 0, 0, 1, 0,0) ">
<use xlink:href="#FS_KneePatch_2_Layer0_0_FILL"/>
</g>
</g>

<g transform="matrix( 0.9970703125, -0.0725250244140625, 0.0725250244140625, 0.9970703125, 15.5,62.05) ">
<g transform="matrix( 1, 0, 0, 1, 0,0) ">
<use xlink:href="#FS_HindLeg_3_4rear_lower_0_Layer1_0_FILL"/>
</g>

<g transform="matrix( 1, 0, 0, 1, 0,0) ">
<use xlink:href="#FS_HindLeg_3_4rear_lower_0_Layer0_0_FILL"/>
</g>
</g>

<g transform="matrix( 1, 0, -0.0095977783203125, 1.0159912109375, 10.45,-9.8) ">
<g transform="matrix( 1, 0, 0, 1, 0,0) ">
<use xlink:href="#FS_HindLeg_3_4_top_1_Layer0_0_FILL"/>
</g>
</g>

<g transform="matrix( 0.9659271240234375, -0.258819580078125, 0.258819580078125, 0.9659271240234375, 7.2,53.3) ">
<g transform="matrix( 1, 0, 0, 1, 0,0) ">
<use xlink:href="#FS_KneePatch_3_Layer0_0_FILL"/>
</g>
</g>

<g transform="matrix( 0.9999847412109375, 0, 0, 1, -2.6,16.6) ">
<g transform="matrix( 0.8685150146484375, 0, 0, 0.8685150146484375, -286.15,-353.9) ">
<use xlink:href="#FS_CutieMark_0_Layer0_0_FILL"/>
</g>

<g transform="matrix( 0.8685150146484375, 0, 0, 0.8685150146484375, -286.15,-353.9) ">
<use xlink:href="#FS_CutieMark_0_Layer0_1_FILL"/>
</g>

<g transform="matrix( 0.8685150146484375, 0, 0, 0.8685150146484375, -169.25,-143.9) ">
<use xlink:href="#FS_CutieMark_0_Layer0_2_FILL"/>
</g>

<g transform="matrix( 0.8685150146484375, 0, 0, 0.8685150146484375, -286.15,-353.9) ">
<use xlink:href="#FS_CutieMark_0_Layer0_3_FILL"/>
</g>

<g transform="matrix( 0.8685150146484375, 0, 0, 0.8685150146484375, -286.15,-353.9) ">
<use xlink:href="#FS_CutieMark_0_Layer0_4_FILL"/>
</g>

<g transform="matrix( 0.8685150146484375, 0, 0, 0.8685150146484375, -286.15,-353.9) ">
<use xlink:href="#FS_CutieMark_0_Layer0_5_FILL"/>
</g>
</g>
</g>

<g transform="matrix( 0.99908447265625, 0.0190582275390625, -0.112335205078125, 0.955169677734375, -30.5,50.95) ">
<g transform="matrix( 1, 0, 0, 1, 2.2,86.4) ">
<g transform="matrix( 1, 0, 0, 1, 0,0) ">
<use xlink:href="#FS_FrontLeg_3_4_hoof_0_Layer0_0_FILL"/>
</g>
</g>

<g transform="matrix( 0.999969482421875, -0.0043792724609375, -0.001129150390625, 1, 0.15,0.35) ">
<g transform="matrix( 1, 0, 0, 1, 0,0) ">
<use xlink:href="#FS_FrontLeg_3_4_upper_2_Layer1_0_FILL"/>
</g>
</g>
</g>

<g transform="matrix( 0.9909820556640625, -0.1339874267578125, 0.1339874267578125, 0.9909820556640625, -12.7,17.95) ">
<g transform="matrix( 1, 0, 0, 1, 0,0) ">
<use xlink:href="#FS_Wing_side_9_Layer4_0_FILL"/>
</g>
</g>

<g transform="matrix( 0.9994049072265625, -0.0348968505859375, 0.0348968505859375, 0.9994049072265625, -63.9,-43.05) ">
<g transform="matrix( 1, 0, 0, 1, 3.05,-3.25) ">
<g transform="matrix( 1, 0, 0, 1, 0,0) ">
<use xlink:href="#FS_Mane_01_10_Layer1_0_FILL"/>
</g>
</g>

<g transform="matrix( 1, -0.0224761962890625, 0.0673675537109375, 0.9984893798828125, -7.6,-15.75) ">
<g transform="matrix( 1, 0, 0, 1, 0,0) ">
<use xlink:href="#FS_Skull_9_Layer0_0_FILL"/>
</g>
</g>

<mask id="Mask_Mask_1">
<g transform="matrix( 0.9999847412109375, 0.0000152587890625, 0, 0.95538330078125, -11.85,-2.9) ">
<g transform="matrix( 1, 0, 0, 1, 0,0) ">
<use xlink:href="#Mask_Mask_FS_EyeWhite_3_4_0_Layer0_0_FILL"/>
</g>
</g>
</mask>

<g mask="url(#Mask_Mask_1)">
<g transform="matrix( 0.9999847412109375, 0.0000152587890625, 0, 0.95538330078125, -11.85,-2.9) ">
<g transform="matrix( 1, 0, 0, 1, 0,0) ">
<use xlink:href="#FS_EyeWhite_3_4_0_Layer0_0_FILL"/>
</g>
</g>
</g>

<g mask="url(#Mask_Mask_1)">
<g transform="matrix( -0.2541656494140625, -0.0068817138671875, 0.03643798828125, 0.552001953125, -27.8,2.85) ">
<g transform="matrix( 1, 0, 0, 1, 0,0) ">
<use xlink:href="#FS_Iris_0_Layer1_0_FILL"/>
</g>

<g transform="matrix( 1, 0, 0, 1, 0,0) ">
<use xlink:href="#FS_Iris_0_Layer0_0_FILL"/>
</g>

<g transform="matrix( 1, 0, 0, 1, 0,0) ">
<use xlink:href="#FS_Iris_0_Layer0_1_FILL"/>
</g>
</g>
</g>

<g mask="url(#Mask_Mask_1)">
<g transform="matrix( 0.2497711181640625, 0.0067596435546875, 0.0853118896484375, 0.573822021484375, -28,2.75) ">
<g transform="matrix( 1, 0, 0, 1, 0,0) ">
<use xlink:href="#FS_Pupil_0_Layer0_0_FILL"/>
</g>
</g>
</g>

<g mask="url(#Mask_Mask_1)">
<g transform="matrix( 0.305938720703125, -0.0722198486328125, 0.142059326171875, 0.5823974609375, -26.9,-1.6) ">
<g transform="matrix( 1, 0, 0, 1, 0,0) ">
<use xlink:href="#FS_Hilights_0_Layer1_0_FILL"/>
</g>
</g>
</g>

<g transform="matrix( 1.00274658203125, 0, 0, 0.9687652587890625, -12.35,-5.05) ">
<g transform="matrix( 1, 0, 0, 1, 0,0) ">
<use xlink:href="#FS_Blink_3_4_1_Layer5_0_FILL"/>
</g>

<g transform="matrix( 1, 0, 0, 1, 0,0) ">
<use xlink:href="#FS_Blink_3_4_1_Layer4_0_FILL"/>
</g>

<g transform="matrix( 1, 0, 0, 1, 0,0) ">
<use xlink:href="#FS_Blink_3_4_1_Layer3_0_FILL"/>
</g>

<g transform="matrix( 1, 0, 0, 1, 0,0) ">
<use xlink:href="#FS_Blink_3_4_1_Layer3_1_FILL"/>
</g>

<g transform="matrix( 1, 0, 0, 1, 0,0) ">
<use xlink:href="#FS_Blink_3_4_1_Layer2_0_FILL"/>
</g>

<g transform="matrix( 1, 0, 0, 1, 0,1.2) ">
<use xlink:href="#FS_Blink_3_4_1_Layer1_0_FILL"/>
</g>
</g>

<g transform="matrix( 1.000640869140625, 0, 0.03131103515625, 1, -22.75,18.45) ">
<g transform="matrix( 0.954986572265625, 0.056243896484375, 0, 0.961029052734375, -24.45,-13.7) ">
<g transform="matrix( 1, 0, 0, 1, 0,0) ">
<use xlink:href="#FS_Nose_1_Layer1_0_FILL"/>
</g>
</g>

<g transform="matrix( 1, 0, 0, 1, 0,0) ">
<use xlink:href="#FS_Mouth_side_40_Layer7_0_FILL"/>
</g>

<g transform="matrix( 1, 0, 0, 1, 0,0) ">
<use xlink:href="#FS_Mouth_side_40_Layer5_0_FILL"/>
</g>

<g transform="matrix( 1, 0, -0.0732421875, 0.9117584228515625, -22.6,-13.7) ">
<g transform="matrix( 1, 0, 0, 1, 0,0) ">
<use xlink:href="#FS_MouthPatch_0_Layer0_0_FILL"/>
</g>
</g>

<g transform="matrix( 0.954986572265625, 0.056243896484375, 0, 0.961029052734375, -27.35,-1.25) ">
<g transform="matrix( 1, 0, 0, 1, 0,0) ">
<use xlink:href="#FS_Nostril_3_4_1_Layer0_0_FILL"/>
</g>
</g>
</g>
</g>

<g transform="matrix( 1, 0, 0, 1, -15.45,-50.85) ">
<g transform="matrix( 0.9984130859375, -0.052947998046875, 0.052947998046875, 0.9984130859375, 0.35,-0.3) ">
<g transform="matrix( 1, 0, 0, 1, 0,0) ">
<use xlink:href="#FS_Mane_01_2_Layer2_0_FILL"/>
</g>

<g transform="matrix( 1, 0, 0, 1, 0,0) ">
<use xlink:href="#FS_Mane_01_2_Layer1_0_FILL"/>
</g>
</g>

<g transform="matrix( -0.048431396484375, -0.997283935546875, 0.997283935546875, -0.048431396484375, -28.2,156.75) ">
<g transform="matrix( 1, 0, 0, 1, 0,0) ">
<use xlink:href="#FS_Mane_02_2_Layer0_0_FILL"/>
</g>
</g>

<g transform="matrix( -0.9980010986328125, 0.0044097900390625, -0.0044097900390625, -0.9980010986328125, -2.15,148.65) ">
<g transform="matrix( 1, 0, 0, 1, 0,0) ">
<use xlink:href="#FS_Mane_03_2_Layer0_0_FILL"/>
</g>
</g>
</g>

<g transform="matrix( 0.9828033447265625, 0.0507354736328125, -0.0584716796875, 1.0037689208984375, -37.75,-76.85) ">
<g transform="matrix( 1, 0, 0, 1, 0,0) ">
<use xlink:href="#FS_Ear_0_Layer1_0_FILL"/>
</g>
</g>
</g>
</svg>
