
<svg xmlns="http://www.w3.org/2000/svg" version="1.1" xmlns:xlink="http://www.w3.org/1999/xlink" preserveAspectRatio="none" x="0px" y="0px" width="864px" height="486px" viewBox="0 0 864 486">
<defs>
<linearGradient id="Gradient_1" gradientUnits="userSpaceOnUse" x1="-33.8" y1="-21.2875" x2="-46.900000000000006" y2="1.387500000000001" spreadMethod="pad">
<stop  offset="0%" stop-color="#015350"/>

<stop  offset="2.7450980392156863%" stop-color="#025B58"/>

<stop  offset="9.019607843137255%" stop-color="#046B67"/>

<stop  offset="14.901960784313726%" stop-color="#047672"/>

<stop  offset="19.607843137254903%" stop-color="#057975"/>

<stop  offset="28.235294117647058%" stop-color="#058581"/>

<stop  offset="42.35294117647059%" stop-color="#009590"/>

<stop  offset="58.03921568627451%" stop-color="#00A19D"/>

<stop  offset="75.68627450980392%" stop-color="#00AAA5"/>

<stop  offset="100%" stop-color="#00ADA8"/>
</linearGradient>

<filter id="Filter_1" x="-20%" y="-20%" width="140%" height="140%" color-interpolation-filters="sRGB">
<feColorMatrix in="SourceGraphic" type="matrix" values="1 0 0 0 0 0 1 0 0 0 0 0 1 0 0 0 0 0 0.21 0" result="result1"/>
</filter>

<filter id="Filter_2" x="-20%" y="-20%" width="140%" height="140%" color-interpolation-filters="sRGB">
<feColorMatrix in="SourceGraphic" type="matrix" values="1 0 0 0 0.0196078431372549 0 1 0 0 -0.06274509803921569 0 0 1 0 -0.12156862745098039 0 0 0 1 0" result="result1"/>
</filter>

<filter id="Filter_3" x="-20%" y="-20%" width="140%" height="140%" color-interpolation-filters="sRGB">
<feColorMatrix in="SourceGraphic" type="matrix" values="0.5 0 0 0 0.4627450980392157 0 0.5 0 0 0.41568627450980394 0 0 0.5 0 0.19607843137254902 0 0 0 1 0" result="result1"/>
</filter>

<g id="FS_Shadow_0_Layer0_0_FILL">
<path fill="#000000" stroke="none" d="
M 46.4 155.05
Q 68.65 152.95 68.65 149.95 68.65 146.95 46.4 144.8 24.15 142.7 -7.4 142.7 -38.9 142.7 -61.2 144.8 -83.45 146.95 -83.45 149.95 -83.45 152.95 -61.2 155.05 -38.9 157.2 -7.4 157.2 24.15 157.2 46.4 155.05 Z"/>
</g>

<g id="FS_Mane_02_11_Layer0_0_FILL">
<path fill="#E781B3" stroke="none" d="
M 22.15 30.2
L 22.2 30.2
Q 33.1568359375 18.9875 31.9 2.95 27.9291015625 -18.4466796875 12.25 -14.5 -3.376953125 -10.5462890625 -1.9 -0.85 0.7705078125 8.2318359375 -5.85 17.8 -11.0818359375 25.38125 -17.3 24.4 -20.7837890625 23.8703125 -24.35 20.85
L -24.1 21.05
Q -30.390234375 16.518359375 -35.25 21.25 -39.219140625 25.816796875 -34.6 31.4 -29.813671875 35.748046875 -22.75 38.9 -11.9392578125 43.7609375 0 41.65 11.7921875 39.6427734375 20.65 31.65 21.439453125 30.9607421875 22.15 30.2
M 1.1 -1.55
Q -0.128125 -6.346484375 5.65 -9.6 14.0984375 -13.76796875 20.25 -11.9 26.4 -9.9751953125 29.1 3 30.400390625 8.9263671875 28.7 14.75 26.1515625 22.9201171875 20.05 29.05 12.8890625 36.5744140625 2.95 38.9 4.2390625 30.9857421875 4.65 27.5 6.259375 13.4935546875 3.1 3.5 2.287109375 0.9609375 1.1 -1.55
M 1.6 7.15
Q 1.84609375 6.0572265625 1.9 4.85 4.86484375 14.3107421875 3.25 27.8 2.839453125 31.1423828125 1.5 39.2 0.0267578125 39.5017578125 -1.5 39.65 -15.3125 41.2232421875 -27.65 33.35 -29.141796875 32.3740234375 -30.5 31.25 -36.478515625 26.062890625 -33.45 23.05 -30.3025390625 20.0125 -25.35 23.25
L -25.35 23.2
Q -22.30859375 25.1763671875 -18.9 25.65 -14.7029296875 26.3380859375 -10.3 23.9 -6.3166015625 21.7689453125 -3.55 18.05 0.25546875 13.1123046875 1.6 7.15 Z"/>

<path fill="#F4B6D1" stroke="none" d="
M 1.9 4.85
Q 1.84609375 6.0572265625 1.6 7.15 0.25546875 13.1123046875 -3.55 18.05 -6.3166015625 21.7689453125 -10.3 23.9 -14.7029296875 26.3380859375 -18.9 25.65 -22.30859375 25.1763671875 -25.35 23.2
L -25.35 23.25
Q -30.3025390625 20.0125 -33.45 23.05 -36.478515625 26.062890625 -30.5 31.25 -29.141796875 32.3740234375 -27.65 33.35 -15.3125 41.2232421875 -1.5 39.65 0.0267578125 39.5017578125 1.5 39.2 2.839453125 31.1423828125 3.25 27.8 4.86484375 14.3107421875 1.9 4.85
M 5.65 -9.6
Q -0.128125 -6.346484375 1.1 -1.55 2.287109375 0.9609375 3.1 3.5 6.259375 13.4935546875 4.65 27.5 4.2390625 30.9857421875 2.95 38.9 12.8890625 36.5744140625 20.05 29.05 26.1515625 22.9201171875 28.7 14.75 30.400390625 8.9263671875 29.1 3 26.4 -9.9751953125 20.25 -11.9 14.0984375 -13.76796875 5.65 -9.6 Z"/>
</g>

<g id="FS_Mane_03_11_Layer0_0_FILL">
<path fill="#F4B6D1" stroke="none" d="
M 1.6 7.1
Q 6.1671875 11.1712890625 6.3 16.05 6.47578125 20.2740234375 3.55 23.05 0.62890625 25.85078125 -3.6 25.55 -4.9162109375 25.4701171875 -6.35 24.95 -6.712109375 24.8193359375 -7.1 24.65 -6.4173828125 25.133984375 -6.45 25.15 -0.2298828125 29.8646484375 5.15 29.05 8.7548828125 28.5375 11.45 25.5 13.9806640625 22.585546875 14.55 18.8 15.5591796875 12.05859375 11.3 5.1 8.2806640625 0.16953125 3.6 -3.45
L -1.7 4.6
Q 0.0337890625 5.6376953125 1.6 7.1 Z"/>

<path fill="#E781B3" stroke="none" d="
M 6 -5.05
Q 4.605859375 -5.973046875 3.6 -3.45 8.2806640625 0.16953125 11.3 5.1 15.5591796875 12.05859375 14.55 18.8 13.9806640625 22.585546875 11.45 25.5 8.7548828125 28.5375 5.15 29.05 -0.2298828125 29.8646484375 -6.45 25.15 -6.5951171875 25.0453125 -6.75 24.9 -6.9287109375 24.7921875 -7.1 24.65 -6.712109375 24.8193359375 -6.35 24.95 -4.9162109375 25.4701171875 -3.6 25.55 0.62890625 25.85078125 3.55 23.05 6.47578125 20.2740234375 6.3 16.05 6.1671875 11.1712890625 1.6 7.1 0.0337890625 5.6376953125 -1.7 4.6 -2.9509765625 6.259375 -1.65 7.55 -1.9109375 7.4837890625 -0.85 8.55 2.3662109375 11.626953125 3.25 16.05 3.9046875 19.0462890625 2.15 21.85 0.2904296875 24.8853515625 -2.85 24.05 -5.939453125 23.2314453125 -9.9 19.85 -11.096484375 18.8138671875 -12.1 17.95 -15.4744140625 15.0587890625 -16.6 14.75
L -15.1 18.35
Q -14.871875 18.814453125 -14.65 19.25 -10.6064453125 26.46484375 -4.2 29.6 0.209765625 31.7458984375 4.8 31.15 9.52109375 30.5892578125 13 27.35 17.36328125 23.309375 17.6 17 17.90078125 11.4703125 15.1 5.8 12.0279296875 -0.3486328125 6 -5.05 Z"/>
</g>

<g id="FS_Mane_01_11_Layer1_0_FILL">
<path fill="#F4B6D1" stroke="none" d="
M 72.2 36.1
Q 72.2115234375 34.71875 72.2 33.4
L 72.25 33.4
Q 71.489453125 13.65078125 65.05 0.85 61.3541015625 -7.548046875 43.8 -9.15 17.8109375 -10.591015625 1.65 0.55 -0.6552734375 4.004296875 -2.8 8.95 -3.451171875 10.508203125 -4.05 12.05 -5.5099609375 16.1416015625 -6.5 20.45 -9.161328125 32.694921875 -6.95 43.8 -4.2361328125 57.0296875 4.85 71.35 8.953515625 77.794921875 22.8 95.65 29.533203125 104.374609375 32.05 108.05 36.998828125 115.344140625 39.5 121.55 40.3984375 123.8513671875 42.05 128.4 48.81953125 132.2001953125 59.9 156.5
L 59.9 156.5
Q 59.9076171875 156.36015625 60.05 155.05 60.02265625 155.194140625 59.95 155 60.017578125 153.4884765625 60 152.05 59.7560546875 133.884765625 52.3 119.85 47.6861328125 111.0685546875 33.8 93.05 20.4427734375 75.71953125 15.4 68 7.232421875 55.6259765625 5.7 42.35 3.9337890625 26.5015625 9.6 18.7 9.893359375 18.3369140625 10.2 17.95 10.66171875 17.371484375 11.15 16.8 11.2400390625 16.719140625 11.35 16.7 11.52265625 16.6771484375 11.65 16.75
L 12.5 17.3
Q 12.6103515625 17.3669921875 12.65 17.45 12.7060546875 17.5830078125 12.7 17.7 12.6783203125 17.799609375 12.6 17.85 12.1453125 18.419140625 11.7 19 6.23828125 26.7044921875 7.85 40.8 9.5169921875 55.7107421875 18.1 68.1 25.3390625 78.50625 36.55 93 49.953125 110.40625 53.9 118 62.282421875 133.8576171875 61.8 154.3
L 61.8 154.3
Q 61.9107421875 154.20625 62 154.1 70.7455078125 143.3173828125 72.95 125.95 74.416015625 114.483984375 73.05 94.75 71.4529296875 70.83359375 71.6 62.3 72.1298828125 46.6388671875 72.2 36.1 Z"/>

<path fill="#E781B3" stroke="none" d="
M 67.65 -1.05
Q 64.0451171875 -7.525390625 55.2 -9.8 33.3765625 -15.437890625 12.35 -7.45 2.5302734375 -3.8634765625 -0.85 0.2 -3.2537109375 3.8283203125 -5.1 7.85 -5.781640625 9.34375 -6.4 10.9 -8.3345703125 15.8076171875 -9.5 21.3 -12.1552734375 34.49609375 -9.4 47 -7.1140625 57.114453125 -0.7 68.05 3.7291015625 75.68671875 12.35 86.85 17.0052734375 92.958203125 26.75 105.4 34.76796875 116.5267578125 37.8 125.95 37.966796875 126.4896484375 38.1 127 38.116015625 127.0607421875 38.1 127.1
L 38.15 127.15
Q 38.6689453125 128.6580078125 38.9 129.65 42.3162109375 132.81953125 42.05 128.4 40.3984375 123.8513671875 39.5 121.55 36.998828125 115.344140625 32.05 108.05 29.533203125 104.374609375 22.8 95.65 8.953515625 77.794921875 4.85 71.35 -4.2361328125 57.0296875 -6.95 43.8 -9.161328125 32.694921875 -6.5 20.45 -5.5099609375 16.1416015625 -4.05 12.05 -3.451171875 10.508203125 -2.8 8.95 -0.6552734375 4.004296875 1.65 0.55 17.8109375 -10.591015625 43.8 -9.15 61.3541015625 -7.548046875 65.05 0.85 71.489453125 13.65078125 72.25 33.4
L 72.2 33.4
Q 72.2115234375 34.71875 72.2 36.1 72.1298828125 46.6388671875 71.6 62.3 71.4529296875 70.83359375 73.05 94.75 74.416015625 114.483984375 72.95 125.95 70.7455078125 143.3173828125 62 154.1 61.9107421875 154.20625 61.8 154.3
L 61.8 154.3
Q 62.282421875 133.8576171875 53.9 118 49.953125 110.40625 36.55 93 25.3390625 78.50625 18.1 68.1 9.5169921875 55.7107421875 7.85 40.8 6.23828125 26.7044921875 11.7 19 12.1453125 18.419140625 12.6 17.85 12.6783203125 17.799609375 12.7 17.7 12.7060546875 17.5830078125 12.65 17.45 12.6103515625 17.3669921875 12.5 17.3
L 11.65 16.75
Q 11.52265625 16.6771484375 11.35 16.7 11.2400390625 16.719140625 11.15 16.8 10.66171875 17.371484375 10.2 17.95 9.893359375 18.3369140625 9.6 18.7 3.9337890625 26.5015625 5.7 42.35 7.232421875 55.6259765625 15.4 68 20.4427734375 75.71953125 33.8 93.05 47.6861328125 111.0685546875 52.3 119.85 59.7560546875 133.884765625 60 152.05 60.017578125 153.4884765625 59.95 155 60.02265625 155.194140625 60.05 155.05 59.9076171875 156.36015625 59.9 156.5
L 59.9 156.5 59.9 156.6 59.85 156.6
Q 59.6310546875 158.1453125 62.25 157.45 70.5232421875 149.0322265625 73.95 135.55 76.7931640625 124.5236328125 76.65 108.05 76.5728515625 101.4513671875 75.65 88.65 74.65078125 75.571484375 74.55 69.25 74.4875 62.5376953125 74.9 47.7 75.1615234375 39.2474609375 75.2 33.15
L 75.2 33.1 75.2 33.1
Q 74.5083984375 12.091015625 67.65 -1.05 Z"/>
</g>

<g id="FS_Tail_02_0_Layer0_0_FILL">
<path fill="#E781B3" stroke="none" d="
M 9.35 -4.95
Q 5.443359375 -9.9267578125 -5.25 -8.65 -14.1462890625 -7.3931640625 -12.6 3.75
L -12.65 3.75 -12.65 3.8
Q -11.682421875 10.07734375 -9.05 16.75 -6.849609375 22.163671875 -2.7 31.75 1.3501953125 43.4681640625 1.65 52.85 1.9490234375 59.6189453125 0.4 65.5 -1.166015625 71.76640625 -4.2 74.75 -8.3541015625 79.125 -12.05 79.25 -12.50625 79.265234375 -12.95 79.2 -16.1849609375 79.355078125 -15.3 83.65 -14.42734375 87.939453125 -11.2 89.5 -9.692578125 90.02734375 -8.1 89.95 -2.459765625 89.7708984375 2.05 85.65 15.736328125 73.2171875 14.95 53.9 14.8541015625 50.7 14 45.75 12.7404296875 38.572265625 12.6 37.6 12.0634765625 33.709765625 10.15 23.15 8.873828125 15.8537109375 8.75 12.8 8.6857421875 9.2462890625 9.5 6.2 9.841796875 5.0296875 10.4 3.75 12.8373046875 -0.808203125 9.35 -4.95
M 7.5 5.65
Q 6.8533203125 8.725390625 7 12.8 7.1232421875 16.4533203125 7.9 22.65 8.0375 23.4119140625 9.9 36.4 11.466015625 47.703515625 11.65 52.7 11.9248046875 61.9873046875 9.75 68.6 7.1333984375 76.7181640625 0.45 82.85 -3.91875 86.834375 -7.9 86.95
L -7.85 87
Q -11.53671875 87.01015625 -12.25 84 -12.91875 80.9953125 -11.9 80.6 -7.267578125 80.4046875 -2.5 75.45 3.9923828125 68.677734375 3.4 52.55 3.019140625 41.0603515625 -0.45 31 -4.4919921875 21.0775390625 -6.4 15.6 -8.54921875 9.52265625 -9.45 3.8
L -9.45 3.75 -9.45 3.75 -9.4 3.8
Q -10.930078125 -7.1478515625 -0.35 -6.55 11.086328125 -5.95078125 8 3.75 7.7005859375 4.71015625 7.5 5.65 Z"/>

<path fill="#F4B6D1" stroke="none" d="
M 7 12.8
Q 6.8533203125 8.725390625 7.5 5.65 7.7005859375 4.71015625 8 3.75 11.086328125 -5.95078125 -0.35 -6.55 -10.930078125 -7.1478515625 -9.4 3.8
L -9.45 3.75 -9.45 3.75 -9.45 3.8
Q -8.54921875 9.52265625 -6.4 15.6 -4.4919921875 21.0775390625 -0.45 31 3.019140625 41.0603515625 3.4 52.55 3.9923828125 68.677734375 -2.5 75.45 -7.267578125 80.4046875 -11.9 80.6 -12.91875 80.9953125 -12.25 84 -11.53671875 87.01015625 -7.85 87
L -7.9 86.95
Q -3.91875 86.834375 0.45 82.85 7.1333984375 76.7181640625 9.75 68.6 11.9248046875 61.9873046875 11.65 52.7 11.466015625 47.703515625 9.9 36.4 8.0375 23.4119140625 7.9 22.65 7.1232421875 16.4533203125 7 12.8 Z"/>
</g>

<g id="FS_Tail_01_0_Layer2_0_FILL">
<path fill="#F4B6D1" stroke="none" d="
M 96.35 25.7
Q 96.35234375 25.762109375 96.35 25.8 95.548046875 36.697265625 87.85 51.35 82.7126953125 61.3240234375 67.7 77.95 52.619140625 94.615234375 49.15 100.95 43.09375 112.9603515625 44.6 121.6 46.3126953125 131.0787109375 57.65 133.95 58.5193359375 134.18984375 59.45 134.35 59.5244140625 134.367578125 59.6 134.35 63.5666015625 123.205859375 66.3 117.3 65.396875 117.17421875 64.55 117 61.4369140625 116.34765625 58.6 114.65
L 58.55 114.6 58.5 114.6
Q 55.5015625 112.595703125 55.4 109.85 55.35234375 107.22578125 57.95 104.4 59.69140625 102.4408203125 63.55 99.65 65.683203125 98.14375 69.8 95.6 73.387890625 93.4078125 74.25 92.7 81.2498046875 87.1501953125 83.6 84.6 89.9259765625 77.84609375 93.75 68.1 95.9 62.2005859375 96.9 54.65 97.8921875 47.0140625 97.6 38.7 97.36640625 32.140625 96.35 25.7
M 41.6 22.85
Q 44.84765625 30.9455078125 45.15 39.75 45.6244140625 53.3103515625 39.05 68.65 36.792578125 73.8576171875 33.35 80.05 31.458984375 83.5111328125 28.35 88.9 18.4564453125 107.3234375 18.8 116.65 18.95703125 120.355078125 20.5 123 22.0376953125 125.5138671875 25.15 127.55 29.6533203125 130.4310546875 39 132.6 33.4787109375 128.2921875 34.3 119.15 34.8525390625 112.7576171875 39.75 103.1 43.03125 96.65703125 50.6 84.65 59.5341796875 70.4421875 62.45 65.3 68.637109375 54.4212890625 71.05 46.6
L 71.05 46.65
Q 74.4326171875 34.211328125 71.75 23.55 68.26484375 10.044921875 55.25 0.6 35.484765625 -13.6515625 13.3 -7.9 3.71171875 -5.391015625 -5.9 0.85 -5.7919921875 0.9580078125 -5.7 1.05 -3.21953125 4.2080078125 1.15 3.5
L 1.15 3.45
Q 7.5310546875 1.1234375 13.15 0.9 22.9947265625 0.5748046875 30.35 6.75 37.0015625 12.1556640625 41.6 22.85
M -6.3 -5.2
Q -7.7900390625 -2.6857421875 -6.5 -0.2 3.244921875 -6.5080078125 13 -9.05 35.715234375 -14.9486328125 55.95 -0.35 69.334765625 9.3548828125 72.9 23.25 75.6673828125 34.18828125 72.2 46.95
L 72.2 46.95
Q 69.7626953125 54.878515625 63.5 65.9 60.565625 71.0576171875 51.6 85.3 44.0689453125 97.242578125 40.8 103.65 36.0474609375 113.0423828125 35.5 119.25 34.541015625 129.8287109375 42.8 133.4 42.9109375 133.4525390625 43 133.45 49.458984375 134.7150390625 55.5 134.6 45.047265625 131.222265625 43.4 121.8 41.8060546875 112.8396484375 48.1 100.4 51.5806640625 93.984765625 66.8 77.15 81.6875 60.6755859375 86.8 50.8 94.34296875 36.41953125 95.15 25.7 95.2486328125 24.15 95.2 22.55
L 95.2 22.55
Q 95.1587890625 20.4259765625 94.9 18.2 94.7251953125 17.5078125 94.55 16.8 91.719921875 5.362890625 86.7 -3.75 81.2076171875 -13.628515625 73.7 -19.8 65.478125 -26.49921875 55.25 -28.5 48.4021484375 -29.8166015625 41.5 -29.6 21.919921875 -28.93359375 4.4 -15.15 -4.393359375 -8.2763671875 -6.3 -5.2 Z"/>

<path fill="#E781B3" stroke="none" d="
M 76.2 -23.5
Q 67.53203125 -30.5744140625 56.7 -32.7 49.525 -34.06875 42.4 -33.85 21.571484375 -33.0466796875 2.55 -17.25 -3.114453125 -12.54375 -8.6 -6.5 -10.7353515625 -1.60703125 -8.5 1.8 -4.6861328125 7.0087890625 2.8 5.6 8.107421875 3.58984375 13.25 3.25 22.243359375 3.0009765625 28.85 8.55 35.1169921875 13.7423828125 39.4 23.75 40.901953125 27.4271484375 41.45 31.7 41.822265625 34.41875 42 39.5 42.4455078125 52.3669921875 35.65 67.55 33.343359375 72.6388671875 29.75 78.95 27.841015625 82.3810546875 24.65 87.85 19.2537109375 97.9607421875 16.8 104.55 14.21796875 111.687890625 14.4 116.7 14.5052734375 120.8904296875 16.8 124.6 19.0017578125 128.062890625 22.5 130.3 25.7533203125 132.330859375 30.65 133.9 34.8306640625 135.2462890625 41.2 136.55 44.7509765625 137.250390625 49.4 137.55 53.6021484375 137.82265625 57.05 137.7
L 57.1 137.7
Q 60.544921875 137.521484375 59.6 134.35 59.5244140625 134.367578125 59.45 134.35 58.5193359375 134.18984375 57.65 133.95 46.3126953125 131.0787109375 44.6 121.6 43.09375 112.9603515625 49.15 100.95 52.619140625 94.615234375 67.7 77.95 82.7126953125 61.3240234375 87.85 51.35 95.548046875 36.697265625 96.35 25.8 96.35234375 25.762109375 96.35 25.7 97.36640625 32.140625 97.6 38.7 97.8921875 47.0140625 96.9 54.65 95.9 62.2005859375 93.75 68.1 89.9259765625 77.84609375 83.6 84.6 81.2498046875 87.1501953125 74.25 92.7 73.387890625 93.4078125 69.8 95.6 65.683203125 98.14375 63.55 99.65 59.69140625 102.4408203125 57.95 104.4 55.35234375 107.22578125 55.4 109.85 55.5015625 112.595703125 58.5 114.6
L 58.55 114.6 58.6 114.65
Q 61.4369140625 116.34765625 64.55 117 65.396875 117.17421875 66.3 117.3 65.71328125 115.998046875 61.8 113.7 60.8431640625 113.2455078125 59.8 112.65 57.847265625 111.28828125 57.8 109.75 57.6990234375 108.2689453125 59.65 105.95 61.4384765625 103.3033203125 69.05 99.35 78.308984375 94.539453125 82.7 90.8 86.7634765625 87.3791015625 90.25 82.1 93.7525390625 76.8294921875 96.2 70.45 98.6517578125 63.865625 100.05 55.5 101.5373046875 46.4310546875 101.25 38.3 100.8466796875 26.76640625 98 15.1 94.9146484375 2.6486328125 89.75 -6.75 84.087890625 -16.9697265625 76.2 -23.5
M -6.5 -0.2
Q -7.7900390625 -2.6857421875 -6.3 -5.2 -4.393359375 -8.2763671875 4.4 -15.15 21.919921875 -28.93359375 41.5 -29.6 48.4021484375 -29.8166015625 55.25 -28.5 65.478125 -26.49921875 73.7 -19.8 81.2076171875 -13.628515625 86.7 -3.75 91.719921875 5.362890625 94.55 16.8 94.7251953125 17.5078125 94.9 18.2 95.1587890625 20.4259765625 95.2 22.55
L 95.2 22.55
Q 95.2486328125 24.15 95.15 25.7 94.34296875 36.41953125 86.8 50.8 81.6875 60.6755859375 66.8 77.15 51.5806640625 93.984765625 48.1 100.4 41.8060546875 112.8396484375 43.4 121.8 45.047265625 131.222265625 55.5 134.6 49.458984375 134.7150390625 43 133.45 42.9109375 133.4525390625 42.8 133.4 34.541015625 129.8287109375 35.5 119.25 36.0474609375 113.0423828125 40.8 103.65 44.0689453125 97.242578125 51.6 85.3 60.565625 71.0576171875 63.5 65.9 69.7626953125 54.878515625 72.2 46.95
L 72.2 46.95
Q 75.6673828125 34.18828125 72.9 23.25 69.334765625 9.3548828125 55.95 -0.35 35.715234375 -14.9486328125 13 -9.05 3.244921875 -6.5080078125 -6.5 -0.2
M 45.15 39.75
Q 44.84765625 30.9455078125 41.6 22.85 37.0015625 12.1556640625 30.35 6.75 22.9947265625 0.5748046875 13.15 0.9 7.5310546875 1.1234375 1.15 3.45
L 1.15 3.5
Q -3.21953125 4.2080078125 -5.7 1.05 -5.7919921875 0.9580078125 -5.9 0.85 3.71171875 -5.391015625 13.3 -7.9 35.484765625 -13.6515625 55.25 0.6 68.26484375 10.044921875 71.75 23.55 74.4326171875 34.211328125 71.05 46.65
L 71.05 46.6
Q 68.637109375 54.4212890625 62.45 65.3 59.5341796875 70.4421875 50.6 84.65 43.03125 96.65703125 39.75 103.1 34.8525390625 112.7576171875 34.3 119.15 33.4787109375 128.2921875 39 132.6 29.6533203125 130.4310546875 25.15 127.55 22.0376953125 125.5138671875 20.5 123 18.95703125 120.355078125 18.8 116.65 18.4564453125 107.3234375 28.35 88.9 31.458984375 83.5111328125 33.35 80.05 36.792578125 73.8576171875 39.05 68.65 45.6244140625 53.3103515625 45.15 39.75 Z"/>
</g>

<g id="FS_Tail_03_0_Layer0_0_FILL">
<path fill="#F4B6D1" stroke="none" d="
M -3.3 0.85
Q -2.8671875 2.156640625 -2.85 3.45 -2.6896484375 7.108203125 -5.4 10
L -5.5 10.1
Q -3.6638671875 9.2015625 -2.85 8.65 2.76328125 5.148828125 3.45 0.85 0.97421875 -1.3666015625 -3.3 0.85 Z"/>

<path fill="#E781B3" stroke="none" d="
M 6 2.75
Q 5.9607421875 1.3921875 3.45 0.85 2.76328125 5.148828125 -2.85 8.65 -3.6638671875 9.2015625 -5.5 10.1
L -5.4 10
Q -2.6896484375 7.108203125 -2.85 3.45 -2.8671875 2.156640625 -3.3 0.85 -4.165625 1.4501953125 -4.25 4.45 -4.52421875 6.48046875 -6.25 8.35 -6.7541015625 8.93046875 -8.35 9.75 -10.3443359375 10.91015625 -12.45 11.5 -17.260546875 12.801171875 -19.8 11.85 -22.8828125 10.6814453125 -20.55 6.2 -24.96796875 10.0357421875 -22.45 12.4 -20.223046875 14.5427734375 -14.5 14.35 -10.9810546875 14.179296875 -6.65 12.65 -3.2560546875 11.4607421875 -1.4 10.3 2.387109375 7.9416015625 4.1 5.95 5.4369140625 4.43203125 6 2.75 Z"/>
</g>

<g id="FS_FrontLeg_3_4_hoof_6_Layer0_0_FILL">
<path fill="#EBD463" stroke="none" d="
M -19.5 -4.7
L -19.5 -4.65
Q -21.71796875 -0.5130859375 -23.35 7.15 -25.0853515625 15.5572265625 -17.9 19.85
L -17.85 19.85
Q -11.2087890625 23.825 0.35 22.35 12.2115234375 20.8224609375 15.35 15.3 18.57890625 10.1091796875 18.9 1.35 19.2267578125 -7.697265625 13.35 -13.4 7.4353515625 -19.13203125 -1 -18.65 -9.53671875 -18.26484375 -13.45 -13.35 -17.209375 -8.8333984375 -19.5 -4.7
M -16.85 -3.25
L -16.85 -3.25
Q -14.6908203125 -7.1666015625 -11.15 -11.45 -7.8634765625 -15.3353515625 -0.85 -15.65 6.264453125 -16.0681640625 11.25 -11.25 16.173046875 -6.4029296875 15.9 1.25 15.6208984375 9.091015625 12.8 13.75 9.9904296875 18.07734375 -0.05 19.35 -10.39140625 20.675 -16.35 17.25
L -16.35 17.25
Q -21.71484375 14.0427734375 -20.4 7.75 -18.88203125 0.6130859375 -16.85 -3.25 Z"/>

<path fill="#FDF6AE" stroke="none" d="
M -16.85 -3.25
L -16.85 -3.25
Q -18.88203125 0.6130859375 -20.4 7.75 -21.71484375 14.0427734375 -16.35 17.25
L -16.35 17.25
Q -10.39140625 20.675 -0.05 19.35 9.9904296875 18.07734375 12.8 13.75 15.6208984375 9.091015625 15.9 1.25 16.173046875 -6.4029296875 11.25 -11.25 6.264453125 -16.0681640625 -0.85 -15.65 -7.8634765625 -15.3353515625 -11.15 -11.45 -14.6908203125 -7.1666015625 -16.85 -3.25 Z"/>
</g>

<g id="FS_KneePatch_1_Layer0_0_FILL">
<path fill="#EBD463" stroke="none" d="
M 10.75 -8.3
L 10.75 -8.45
Q 10.999609375 -9.6171875 11 -10.9 11.0111328125 -16.75078125 6.7 -21.15 2.4033203125 -25.5216796875 -3.55 -25.85 -9.52421875 -26.1814453125 -13.85 -22.55 -18.2634765625 -18.8869140625 -18.25 -13.75
L -18.25 -13.7
Q -18.333203125 -9.8595703125 -15.45 -3.75
L -15.4 -3.65 -15.4 -3.6
Q -12.6767578125 2.0408203125 -9.8 10.1
L -9.75 10.2
Q -9.74140625 10.22421875 -9.75 10.25
L -9.75 10.25
Q -6.684765625 18.7166015625 -4.1 21.8
L -4.05 21.85
Q -1.2443359375 25.3462890625 3.45 25.6
L 3.5 25.6
Q 8.171875 25.7728515625 11.55 22.6 14.949609375 19.4423828125 15.4 15.75 15.955859375 12.0994140625 13.1 9.2 8.4591796875 3.042578125 10.65 -7.8 10.721875 -8.034375 10.75 -8.3 Z"/>
</g>

<g id="FS_HindLeg_3_4rear_lower_2_Layer1_0_FILL">
<path fill="#F26F31" stroke="none" d="
M 8.65 7.95
L 8.65 7.95 8.6 8
Q 8.6333984375 7.9955078125 8.65 7.95 Z"/>

<path fill="#EBD463" stroke="none" d="
M 12.35 -6.4
Q 12.1732421875 -6.510546875 11.95 -6.6 1.59140625 -10.1181640625 -6.5 -4.85 -6.526171875 -4.8123046875 -6.6 -4.8 -14.9587890625 1.5962890625 -10.3 12.75 -10.2638671875 12.8216796875 -10.25 12.85 -7.8515625 17.784765625 -2.5 16.05 1.90625 14.6984375 8.65 7.95
L 8.65 7.95
Q 13.7076171875 3.494921875 14.7 0.2 16.0470703125 -3.87109375 12.35 -6.4
M 10.75 -3.8
Q 12.4302734375 -2.605078125 11.85 -0.75 10.8990234375 1.983203125 6.6 5.75 6.5771484375 5.8119140625 6.55 5.85 0.493359375 11.901953125 -3.4 13.2 -6.248828125 14.115234375 -7.55 11.5
L -7.55 11.6
Q -7.5458984375 11.575 -7.6 11.5 -11.2048828125 2.68671875 -4.75 -2.4
L -4.85 -2.35
Q 2.0138671875 -6.721484375 10.75 -3.8 Z"/>

<path fill="#FCBA63" stroke="none" d="
M -7.6 11.5
Q -7.5458984375 11.575 -7.55 11.6
L -7.55 11.5 -7.6 11.5 Z"/>

<path fill="#FDF6AE" stroke="none" d="
M 11.85 -0.75
Q 12.4302734375 -2.605078125 10.75 -3.8 2.0138671875 -6.721484375 -4.85 -2.35
L -4.75 -2.4
Q -11.2048828125 2.68671875 -7.6 11.5
L -7.55 11.5
Q -6.248828125 14.115234375 -3.4 13.2 0.493359375 11.901953125 6.55 5.85 6.5771484375 5.8119140625 6.6 5.75 10.8990234375 1.983203125 11.85 -0.75 Z"/>
</g>

<g id="FS_HindLeg_3_4rear_lower_2_Layer0_0_FILL">
<path fill="#EBD463" stroke="none" d="
M -8.75 3.65
L -8.6 2.95 -8.45 2.15 -11.4 1.6 -11.7 3.05
Q -17.337109375 31.9951171875 -10.35 59.6
L -9.95 60.4 -7.3 59.45 -7.45 58.85
Q -7.4873046875 58.72734375 -7.55 58.55 -14.2328125 31.7501953125 -8.75 3.65
M 14.9 -2.65
L 14.9 -2.7 11.8 -4 11.9 -2.5
Q 11.9080078125 -2.326953125 11.9 -2.2 13.617578125 28.4064453125 23 43.7 23.038671875 43.7662109375 23.05 43.8
L 23.3 44.2 25.75 42.5 25.6 42.25
Q 16.5212890625 27.3490234375 14.9 -2.65 Z"/>

<path fill="#FDF6AE" stroke="none" d="
M 23 43.7
Q 13.617578125 28.4064453125 11.9 -2.2
L -8.6 2.95 -8.75 3.65
Q -14.2328125 31.7501953125 -7.55 58.55
L 23 43.7 Z"/>

<path fill="#F26F31" stroke="none" d="
M 14.9 -2.7
L 14.9 -2.65 14.95 -2.65 14.9 -2.7 Z"/>
</g>

<g id="FS_HindLeg_3_4_top_0_Layer0_0_FILL">
<path fill="#EBD463" stroke="none" d="
M 3.25 77.8
Q 5.5173828125 77.7169921875 6.75 76.35
L 6.75 76.35
Q -5.6740234375 79.4810546875 -17.85 52.9 -22.4396484375 44.2798828125 -22.8 35.45 -22.8046875 34.6546875 -22.8 33.8
L -22.8 33.75
Q -24.534375 39.942578125 -23.7 44.9 -22.7796875 49.8568359375 -19.9 55.4
L -19.9 55.4
Q -13.921484375 66.6205078125 -8 72.35 -7.2390625 73.39921875 -6.3 74.35
L -6.3 74.3
Q -2.226953125 78.1365234375 3.25 77.8
M 0.85 -1.2
L 0.85 -1.25
Q -2.5255859375 -2.312109375 -0.95 1.15 2.9390625 3.284375 6.45 8.5 8.05 10.9306640625 9.2 14.2 10.0458984375 16.399609375 11.05 20.4 12.373046875 25.2171875 12.6 30.75 12.986328125 38.148046875 10.7 47.15 8.4671875 56.2173828125 7.35 60.2 6.22265625 64.238671875 7.15 70.45 7.80390625 74.5998046875 6.8 76.3 7.4986328125 75.5841796875 7.85 74.5 7.9609375 74.2607421875 8 74 8.354296875 72.8421875 8.25 68.95 8.2013671875 65.08515625 9.5 60.65 10.8474609375 56.258984375 13.15 47.55 15.5009765625 38.859765625 15.5 31.85 15.5564453125 24.8787109375 14.15 19.5 12.0056640625 11.4095703125 8.7 6.6 5.0640625 1.298046875 0.85 -1.2 Z"/>

<path fill="#FDF6AE" stroke="none" d="
M 10.7 47.15
Q 12.986328125 38.148046875 12.6 30.75 12.373046875 25.2171875 11.05 20.4 10.0458984375 16.399609375 9.2 14.2 8.05 10.9306640625 6.45 8.5 2.9390625 3.284375 -0.95 1.15
L -22.8 33.8
Q -22.8046875 34.6546875 -22.8 35.45 -22.4396484375 44.2798828125 -17.85 52.9 -5.6740234375 79.4810546875 6.75 76.35
L 6.75 76.35 6.8 76.35
Q 6.814453125 76.3533203125 6.8 76.3 7.80390625 74.5998046875 7.15 70.45 6.22265625 64.238671875 7.35 60.2 8.4671875 56.2173828125 10.7 47.15 Z"/>
</g>

<g id="FS_KneePatch_0_Layer0_0_FILL">
<path fill="#FDF6AE" stroke="none" d="
M 6.95 -3.8
Q 7.6271484375 -8.4921875 7.65 -8.75
L 7.65 -8.75
Q 7.6830078125 -8.7876953125 7.7 -8.85 7.850390625 -9.7474609375 7.85 -10.75 7.8390625 -15.39921875 4.4 -18.9 0.946484375 -22.4283203125 -3.85 -22.7 -8.6259765625 -22.9685546875 -12.1 -20.1 -15.376171875 -17.3716796875 -15.4 -13.55
L -15.4 -13.55
Q -15.40625 -10.530078125 -12.6 -4.2
L -12.4 -3.7
Q -12.324609375 -3.590625 -12.3 -3.5 -12.2001953125 -3.3171875 -12.15 -3.15 -12.0654296875 -3.0400390625 -12 -2.95
L -12 -2.9 -11.95 -2.8
Q -9.565234375 2.4005859375 -7.1 9.35 -7.0333984375 9.4712890625 -7.05 9.6 -4.2322265625 17.2533203125 -1.9 20.1
L -1.9 20.1
Q 0.112890625 22.6044921875 3.45 22.75 6.435546875 22.852734375 8.7 21.1
L 8.7 21.15
Q 19.876171875 11.2931640625 12.45 5.8 11.055859375 5.381640625 9.7 4.45 9.7404296875 4.5390625 9.75 4.6 8.476171875 3.9505859375 7.75 2.7 6.5830078125 1.1353515625 6.75 -1.95 6.7810546875 -2.8294921875 6.9 -3.8
L 6.95 -3.8 Z"/>
</g>

<g id="FS_FrontLeg_3_4_upper_1_Layer2_0_FILL">
<path fill="#EBD463" stroke="none" d="
M 15.3 5.05
Q 11.062890625 0.8021484375 5.15 0.8 -0.8310546875 0.8021484375 -5.05 5.05
L -5 5.05
Q -9.2478515625 9.2869140625 -9.25 15.2 -9.2478515625 21.112890625 -5 25.35 -0.829296875 29.5369140625 5.1 29.6
L 5.15 29.6
Q 11.0732421875 29.5494140625 15.3 25.35
L 15.3 25.35
Q 19.54765625 21.112890625 19.55 15.2 19.54765625 9.2869140625 15.3 5.05
M 5.15 3.8
Q 9.8369140625 3.79765625 13.2 7.15 16.5521484375 10.512890625 16.55 15.2 16.5521484375 19.8869140625 13.2 23.25
L 13.2 23.2
Q 9.84453125 26.5328125 5.15 26.6
L 5.1 26.6
Q 0.4158203125 26.549609375 -2.9 23.25 -6.25234375 19.8869140625 -6.25 15.2 -6.25234375 10.512890625 -2.9 7.15
L -2.9 7.15
Q 0.43125 3.79765625 5.15 3.8 Z"/>

<path fill="#FDF6AE" stroke="none" d="
M 13.2 7.15
Q 9.8369140625 3.79765625 5.15 3.8 0.43125 3.79765625 -2.9 7.15
L -2.9 7.15
Q -6.25234375 10.512890625 -6.25 15.2 -6.25234375 19.8869140625 -2.9 23.25 0.4158203125 26.549609375 5.1 26.6
L 5.15 26.6
Q 9.84453125 26.5328125 13.2 23.2
L 13.2 23.25
Q 16.5521484375 19.8869140625 16.55 15.2 16.5521484375 10.512890625 13.2 7.15 Z"/>
</g>

<g id="FS_FrontLeg_3_4_upper_1_Layer1_0_FILL">
<path fill="#EBD463" stroke="none" d="
M -5.9 12.2
Q -4.6640625 5.6533203125 -6.05 2.15 -6.759765625 7.8197265625 -8.85 11.55
L -5.9 12.2
M 16.45 16.55
L 19.35 15.15
Q 18.855078125 4.7060546875 7.9 -0.4 16.2654296875 4.9353515625 16.45 16.55 Z"/>

<path fill="#FDF6AE" stroke="none" d="
M 16.45 16.55
Q 16.2654296875 4.9353515625 7.9 -0.4 1.8404296875 -0.3458984375 -6.05 2.15 -4.6640625 5.6533203125 -5.9 12.2
L 16.45 16.55 Z"/>
</g>

<g id="FS_FrontLeg_3_4_lower_11_Layer2_0_FILL">
<path fill="#FDF6AE" stroke="none" d="
M 16.4 21.05
Q 16.8 16.95 16.15 13.05 14.4 4.35 8.65 -6.4 4.5 1.6 -3.25 5.1 -4.2 9.6 -5.1 14.1 -6.2 20 -6.25 25.1
L -6.25 25.15 -6.2 25.15
Q -5.8 27.65 -4.2 29.95 -1.55 33.45 2.55 33.35
L 2.6 33.3
Q 6.95 33.2 11.05 30.05 15.35 26.8 16.25 22.3 16.25 21.8 16.4 21.25
L 16.45 21.25
Q 16.35 21.15 16.4 21.05 Z"/>

<path fill="#EBD463" stroke="none" d="
M 7.9 -8.8
Q 7.85 -7.9 8.65 -6.4 14.4 4.35 16.15 13.05 16.8 16.95 16.4 21.05 16.35 21.15 16.45 21.25
L 16.4 21.25
Q 16.25 21.8 16.25 22.3 15.35 26.8 11.05 30.05 6.95 33.2 2.6 33.3
L 2.55 33.35
Q -1.55 33.45 -4.2 29.95 -5.8 27.65 -6.2 25.15
L -6.25 25.15 -6.25 25.1
Q -6.2 20 -5.1 14.1 -4.2 9.6 -3.25 5.1 -9.2 10 -9.55 22.25 -9.7 23.65 -9.6 25.2 -9.55 25.85 -9.5 26.65
L -9.3 26.7
Q -8.55 29.3 -6.6 32.1 -3.15 37.05 1.95 36.6 7.25 36.15 12.7 32.25 18.3 28.45 19.65 22.65 19.65 22.6 19.85 22.7 19.8 21.8 19.9 21.1 20.95 11.25 13.15 -4.4 9.75 -10.7 8.75 -9.8 7.95 -9.7 7.9 -8.8 Z"/>
</g>

<g id="FS_Wing_3_4far_8_Layer5_0_FILL">
<path fill="#FDF6AE" stroke="none" d="
M 14.4 13.6
L 14.4 13.6
Q 11.7185546875 10.5724609375 3.95 10.55 3.9005859375 3.5751953125 -7.25 1.7
L -14.85 1.25 -14.9 1.3 -15.6 1.9
Q -21.88515625 8.1115234375 -23.5 16 -25.1552734375 24.0869140625 -21.05 30.5 -13.6 41.795703125 3.75 38.55 15.6693359375 32.926953125 12.85 24.6 17.5587890625 19.2478515625 15.15 14.75
L 15.15 14.7
Q 14.8142578125 14.1181640625 14.4 13.6
M 33.1 16.85
Q 33.9603515625 15.5462890625 34.7 14.25
L 16.25 27.4
Q 16.26171875 27.693359375 16.25 27.95 16.18046875 32.1900390625 12.15 36.15 23.7486328125 31.27578125 33.1 16.85
M 35.85 12.15
Q 36.29375 11.384765625 36.65 10.6
L 36.65 10.6
Q 38.2708984375 7.1671875 39.05 4.05 39.6837890625 1.4330078125 39.55 -0.45
L 17.15 12.35
Q 17.4908203125 12.809375 17.75 13.3
L 17.75 13.3
Q 21.22890625 19.3095703125 15.9 25.1 16.078515625 25.676953125 16.15 26.25
L 35.85 12.15
M 30.1 -5.6
Q 26.540625 -5.5923828125 21.8 -4.75 11.580859375 -2.937109375 -0.35 1.95 3.47421875 2.86640625 5.1 5.5
L 30.1 -5.6
M 39.45 -1.5
Q 39.1666015625 -2.65234375 38.45 -3.35
L 38.4 -3.35
Q 36.829296875 -4.827734375 33.8 -5.35
L 33.8 -5.35
Q 33.1380859375 -5.4392578125 32.4 -5.5
L 5.6 6.4
Q 5.9978515625 7.1595703125 6.2 8.05 13.4712890625 7.8109375 16.55 11.5
L 39.45 -1.5 Z"/>

<path fill="#EBD463" stroke="none" d="
M 34.3 -8.3
Q 29.3517578125 -9.144921875 21.25 -7.75 8.334765625 -5.4265625 -7.25 1.7 3.9005859375 3.5751953125 3.95 10.55 11.7185546875 10.5724609375 14.4 13.6
L 14.4 13.6
Q 14.8142578125 14.1181640625 15.15 14.7
L 15.15 14.75
Q 17.5587890625 19.2478515625 12.85 24.6 15.6693359375 32.926953125 3.75 38.55 -13.6 41.795703125 -21.05 30.5 -25.1552734375 24.0869140625 -23.5 16 -21.88515625 8.1115234375 -15.6 1.9
L -14.9 1.3
Q -24.653515625 6.6705078125 -26.45 15.35
L -26.45 15.4
Q -28.3291015625 24.716796875 -23.55 32.1 -15.1962890625 45.237890625 4.6 41.45 4.762109375 41.4291015625 4.85 41.35 6.879296875 40.975 9 40.4 23.9787109375 36.4216796875 35.6 18.5 37.8009765625 15.115625 39.35 11.95
L 39.35 11.9
Q 41.1208984375 8.1666015625 41.95 4.75 42.9619140625 0.556640625 42.35 -2.1
L 42.35 -2.1
Q 41.8580078125 -4.2615234375 40.45 -5.55
L 40.5 -5.55
Q 38.3744140625 -7.612109375 34.3 -8.3
M 38.45 -3.35
Q 39.1666015625 -2.65234375 39.45 -1.5
L 16.55 11.5
Q 13.4712890625 7.8109375 6.2 8.05 5.9978515625 7.1595703125 5.6 6.4
L 32.4 -5.5
Q 33.1380859375 -5.4392578125 33.8 -5.35
L 33.8 -5.35
Q 36.829296875 -4.827734375 38.4 -3.35
L 38.45 -3.35
M 21.8 -4.75
Q 26.540625 -5.5923828125 30.1 -5.6
L 5.1 5.5
Q 3.47421875 2.86640625 -0.35 1.95 11.580859375 -2.937109375 21.8 -4.75
M 36.65 10.6
Q 36.29375 11.384765625 35.85 12.15
L 16.15 26.25
Q 16.078515625 25.676953125 15.9 25.1 21.22890625 19.3095703125 17.75 13.3
L 17.75 13.3
Q 17.4908203125 12.809375 17.15 12.35
L 39.55 -0.45
Q 39.6837890625 1.4330078125 39.05 4.05 38.2708984375 7.1671875 36.65 10.6
L 36.65 10.6
M 34.7 14.25
Q 33.9603515625 15.5462890625 33.1 16.85 23.7486328125 31.27578125 12.15 36.15 16.18046875 32.1900390625 16.25 27.95 16.26171875 27.693359375 16.25 27.4
L 34.7 14.25 Z"/>
</g>

<g id="FS_Torso_1_Layer1_0_FILL">
<path fill="#EBD564" stroke="none" d="
M 36.45 -35.25
Q 26.929296875 -38.9703125 15.6 -36.3 9.5609375 -34.862890625 2.85 -30.75 -0.8052734375 -28.4330078125 -3.25 -27.15
L -4.6 -26.55
Q -9.5189453125 -24.4865234375 -14.8 -24.3 -20.29296875 -24.1501953125 -26.9 -24 -35.3017578125 -23.897265625 -40.5 -20.4
L -40.5 -20.4
Q -49.0384765625 -14.54375 -51.4 -5.65 -52.738671875 -0.5123046875 -51.9 5.55
L -51.9 5.55
Q -50.85 12.55 -47 17.8 -45.9 19.3 -43.15 22.05
L -43.15 22.05
Q -29.781640625 35.3962890625 -11.6 36.9 -9.2646484375 37.10078125 -6.85 37.1 -5.632421875 37.100390625 -4.45 37.05 12 35.7 17.95 33.05 24.2484375 30.25 31.3 25.7 39.29453125 20.55 43.45 16.05 48.5763671875 10.5955078125 51.05 4.55 55.5630859375 -6.333203125 51.5 -19.05 47.8439453125 -30.8998046875 36.45 -35.25
M 16.3 -33.4
Q 26.6517578125 -35.8296875 35.35 -32.45 45.395703125 -28.600390625 48.65 -18.15 52.5525390625 -5.8654296875 47.75 4.55 45.487109375 9.4986328125 41.25 14 37.3333984375 18.2 28.95 23.65 21.31953125 28.6 16.5 30.55 12.138671875 32.35 7.05 33.15 1.8552734375 34.008203125 -4 33.95
L -4 34.05 -4.05 34.05
Q -4.224609375 34.05625 -4.4 34.05 -5.60625 34.0994140625 -6.85 34.1 -9.2669921875 34.1005859375 -11.6 33.9 -28.5546875 32.393359375 -41.05 19.95 -42.1083984375 18.88828125 -43.1 17.8 -43.7607421875 17.0318359375 -44.4 16.25 -47.95 11.35 -48.9 5.15
L -48.9 5.1
Q -49.625390625 -0.298046875 -48.45 -4.9 -46.3203125 -12.7484375 -38.8 -17.95
L -38.75 -17.95 -38.75 -17.9
Q -34.2041015625 -20.902734375 -26.85 -21 -20.217578125 -21.15 -14.7 -21.3 -10.815625 -21.4419921875 -7.15 -22.5 -5.2646484375 -23.0169921875 -3.45 -23.8
L -2.65 -24.1 -2.55 -24.05
Q -2.2818359375 -24.191015625 -2 -24.35 0.583984375 -25.7365234375 4.45 -28.2 10.70390625 -32.0373046875 16.3 -33.4 Z"/>

<path fill="#F4B6D1" stroke="none" d="
M -38.8 -17.95
L -38.75 -17.9 -38.75 -17.95 -38.8 -17.95 Z"/>

<path fill="#FDF6AE" stroke="none" d="
M 35.35 -32.45
Q 26.6517578125 -35.8296875 16.3 -33.4 10.70390625 -32.0373046875 4.45 -28.2 0.583984375 -25.7365234375 -2 -24.35 -2.2818359375 -24.191015625 -2.55 -24.05
L -2.65 -24.1 -3.45 -23.8
Q -5.2646484375 -23.0169921875 -7.15 -22.5 -10.815625 -21.4419921875 -14.7 -21.3 -20.217578125 -21.15 -26.85 -21 -34.2041015625 -20.902734375 -38.75 -17.9
L -38.8 -17.95
Q -46.3203125 -12.7484375 -48.45 -4.9 -49.625390625 -0.298046875 -48.9 5.1
L -48.9 5.15
Q -47.95 11.35 -44.4 16.25 -43.7607421875 17.0318359375 -43.1 17.8 -42.1083984375 18.88828125 -41.05 19.95 -28.5546875 32.393359375 -11.6 33.9 -9.2669921875 34.1005859375 -6.85 34.1 -5.60625 34.0994140625 -4.4 34.05 -4.224609375 34.05625 -4.05 34.05
L -4 34.05 -4 33.95
Q 1.8552734375 34.008203125 7.05 33.15 12.138671875 32.35 16.5 30.55 21.31953125 28.6 28.95 23.65 37.3333984375 18.2 41.25 14 45.487109375 9.4986328125 47.75 4.55 52.5525390625 -5.8654296875 48.65 -18.15 45.395703125 -28.600390625 35.35 -32.45 Z"/>
</g>

<g id="FS_Neck_4_Layer1_0_FILL">
<path fill="#E781B3" stroke="none" d="
M -6.15 -71.25
L -39.8 -71.25 -37.2 2.25 -4.5 -2.4
Q 16.7392578125 -3.1453125 6.6 -24.7 -3.490234375 -46.2552734375 -6.15 -71.25 Z"/>
</g>

<g id="FS_Neck_4_Layer0_0_FILL">
<path fill="#FDF6AE" stroke="none" d="
M -17.6 -99.9
L -17.65 -99.9
Q -26.683984375 -109.0083984375 -39.8 -109 -52.8892578125 -108.998828125 -62.3 -99.85 -71.801171875 -90.6611328125 -72.05 -77.85 -72.3279296875 -65.053125 -63.25 -55.9
L -63.25 -55.9
Q -62.7607421875 -55.412890625 -62.25 -54.95
L -60.5 -53.45 -60.5 -53.4 -59.15 -51.9
Q -48.75625 -40.150390625 -47.1 -29.25 -47 -27.9 -46.95 -26.5 -46.9 -23.2 -47.45 -19.75 -50.535546875 -0.3146484375 -45.9 16
L -45.9 15.95
Q -39.7232421875 37.46015625 -19.85 44.45
L -18.45 44.95 -18.55 45
Q -7.184375 45.1412109375 -5.55 29.25 -3.9140625 13.4140625 -2.6 -0.1
L -0.25 -0.05
Q -3.05859375 -1.5416015625 -4.1 -3.15 -5.85234375 -5.197265625 -8.1 -25.15 -9.88515625 -40.952734375 -9.5 -62.95 -9.3767578125 -67.9625 -9.2 -73.3 -9.158984375 -73.5244140625 -9.15 -73.75
L -9.15 -81.3 -8.85 -81.3
Q -9.7095703125 -91.998828125 -17.6 -99.9
M -34.6 -47.4
L -34.7 -47.4
Q -34.6310546875 -47.38359375 -34.6 -47.4
L -34.6 -47.4 Z"/>

<path fill="#EBD564" stroke="none" d="
M -34.7 -47.4
L -34.6 -47.4 -34.6 -47.4
Q -34.6310546875 -47.38359375 -34.7 -47.4
M -15.5 -102
Q -25.41640625 -111.9916015625 -39.8 -112 -54.110546875 -112.0013671875 -64.4 -102 -74.7986328125 -91.9388671875 -75.05 -77.9 -75.355078125 -64.5958984375 -66.45 -54.9 -65.9 -54.35 -65.35 -53.8 -63.45 -52 -61.7 -50.1 -60.3 -48.55 -58.95 -46.95 -52.171875 -38.4115234375 -50.45 -29.2 -50 -25.35 -50.3 -21.6 -50.35 -20.65 -50.5 -19.7 -53.575 0.1408203125 -48.8 16.8
L -48.8 16.8
Q -42.1767578125 39.8396484375 -20.85 47.3
L -19.45 47.8 -18.55 45 -18.45 44.95 -19.85 44.45
Q -39.7232421875 37.46015625 -45.9 15.95
L -45.9 16
Q -50.535546875 -0.3146484375 -47.45 -19.75 -46.9 -23.2 -46.95 -26.5 -47 -27.9 -47.1 -29.25 -48.75625 -40.150390625 -59.15 -51.9
L -60.5 -53.4 -61.7 -53.4 -60.5 -53.45 -62.25 -54.95
Q -62.7607421875 -55.412890625 -63.25 -55.9
L -63.25 -55.9
Q -72.3279296875 -65.053125 -72.05 -77.85 -71.801171875 -90.6611328125 -62.3 -99.85 -52.8892578125 -108.998828125 -39.8 -109 -26.683984375 -109.0083984375 -17.65 -99.9
L -17.6 -99.9
Q -9.7095703125 -91.998828125 -8.85 -81.3
L -9.15 -81.3 -9.15 -73.75
Q -9.158984375 -73.5244140625 -9.2 -73.3 -9.3767578125 -67.9625 -9.5 -62.95 -9.88515625 -40.952734375 -8.1 -25.15 -5.85234375 -5.197265625 -4.1 -3.15 -3.05859375 -1.5416015625 -0.25 -0.05 -1.4 -1.85 -2.25 -4.8 -3.05 -7.45 -5.1 -25.5 -7.2638671875 -44.648828125 -6.2 -72.95 -5.7958984375 -75.3732421875 -5.75 -77.95 -5.492578125 -92.0048828125 -15.5 -102
L -15.5 -102 Z"/>
</g>

<g id="FS_FrontLeg_3_4_hoof_4_Layer0_0_FILL">
<path fill="#F26F31" stroke="none" d="
M -13.4 -12.85
L -13.4 -12.85 -13.4 -12.85 -13.4 -12.85 Z"/>

<path fill="#EBD463" stroke="none" d="
M -1.15 -18.45
L -1.2 -18.45
Q -9.624609375 -17.8423828125 -13.4 -12.85
L -13.4 -12.85
Q -16.978515625 -8.244140625 -19.45 -3.2
L -19.45 -3.25
Q -21.8619140625 1.6474609375 -24.65 7.7 -26.3091796875 11.4185546875 -25.4 13.65 -24.5841796875 16.204296875 -21 17 -15.576171875 18.259765625 -2.15 18.05 12.0072265625 17.7810546875 15.25 13.85 18.7416015625 10.1349609375 18.9 1.1 19.00546875 -7.925390625 13.05 -13.5 7.154296875 -19.091015625 -1.15 -18.45
M -0.95 -15.45
L -0.95 -15.45
Q 6.0544921875 -16.0005859375 11 -11.3 15.99453125 -6.574609375 15.9 1.05 15.7583984375 8.665625 13 11.85 10.0958984375 14.81875 -2.2 15.05 -15.123828125 15.2400390625 -20.35 14.05 -22.069140625 13.694921875 -22.6 12.65 -22.9419921875 11.2833984375 -21.9 8.95 -19.13828125 2.9525390625 -16.75 -1.9
L -16.75 -1.9
Q -14.421484375 -6.655859375 -11.05 -11
L -11 -11
Q -7.869921875 -14.9509765625 -0.95 -15.45 Z"/>

<path fill="#FDF6AE" stroke="none" d="
M -0.95 -15.45
L -0.95 -15.45
Q -7.869921875 -14.9509765625 -11 -11
L -11.05 -11
Q -14.421484375 -6.655859375 -16.75 -1.9
L -16.75 -1.9
Q -19.13828125 2.9525390625 -21.9 8.95 -22.9419921875 11.2833984375 -22.6 12.65 -22.069140625 13.694921875 -20.35 14.05 -15.123828125 15.2400390625 -2.2 15.05 10.0958984375 14.81875 13 11.85 15.7583984375 8.665625 15.9 1.05 15.99453125 -6.574609375 11 -11.3 6.0544921875 -16.0005859375 -0.95 -15.45 Z"/>
</g>

<g id="FS_HindLeg_3_4rear_lower_0_Layer1_0_FILL">
<path fill="#F26F31" stroke="none" d="
M 8.6 8
Q 8.6333984375 7.9955078125 8.65 7.95
L 8.65 7.95 8.6 8 Z"/>

<path fill="#EBD463" stroke="none" d="
M 12.35 -6.4
Q 12.1732421875 -6.510546875 11.95 -6.6 1.59140625 -10.1181640625 -6.5 -4.85 -6.526171875 -4.8123046875 -6.6 -4.8 -14.9587890625 1.5962890625 -10.3 12.75 -10.2638671875 12.8216796875 -10.25 12.85 -7.8515625 17.784765625 -2.5 16.05 1.90625 14.6984375 8.65 7.95
L 8.65 7.95
Q 13.7076171875 3.494921875 14.7 0.2 16.0470703125 -3.87109375 12.35 -6.4
M 10.75 -3.8
Q 12.4302734375 -2.605078125 11.85 -0.75 10.8990234375 1.983203125 6.6 5.75 6.5771484375 5.8119140625 6.55 5.85 0.493359375 11.901953125 -3.4 13.2 -6.248828125 14.115234375 -7.55 11.5
L -7.55 11.6
Q -7.5458984375 11.575 -7.6 11.5 -11.2048828125 2.68671875 -4.75 -2.4
L -4.85 -2.35
Q 2.0138671875 -6.721484375 10.75 -3.8 Z"/>

<path fill="#FCBA63" stroke="none" d="
M -7.55 11.5
L -7.6 11.5
Q -7.5458984375 11.575 -7.55 11.6
L -7.55 11.5 Z"/>

<path fill="#FDF6AE" stroke="none" d="
M 11.85 -0.75
Q 12.4302734375 -2.605078125 10.75 -3.8 2.0138671875 -6.721484375 -4.85 -2.35
L -4.75 -2.4
Q -11.2048828125 2.68671875 -7.6 11.5
L -7.55 11.5
Q -6.248828125 14.115234375 -3.4 13.2 0.493359375 11.901953125 6.55 5.85 6.5771484375 5.8119140625 6.6 5.75 10.8990234375 1.983203125 11.85 -0.75 Z"/>
</g>

<g id="FS_HindLeg_3_4rear_lower_0_Layer0_0_FILL">
<path fill="#EBD463" stroke="none" d="
M -8.05 10.15
L -8.2 9.7 -8.45 8.7 -11.35 9.5 -10.95 10.95
Q -3.5580078125 37.8861328125 -11.7 64.6 -11.7875 65.0125 -11.9 65.4
L -8.85 65.4
Q -0.5115234375 37.662109375 -8.05 10.15
M 11.65 -2.95
Q 11.686328125 -2.8736328125 11.7 -2.8 26.2828125 27.8509765625 24.65 64.3
L 27.6 64.1
Q 29.3125 27.137109375 14.35 -4.25
L 14.2 -4.5 11 -4.3 11.65 -2.95 Z"/>

<path fill="#FDF6AE" stroke="none" d="
M 24.65 64.3
Q 26.2828125 27.8509765625 11.7 -2.8
L -8.2 9.7 -8.05 10.15
Q -0.5115234375 37.662109375 -8.85 65.4
L 24.65 64.3 Z"/>
</g>

<g id="FS_CutieMark_1_Layer0_0_FILL">
<path fill="#F4B6D1" stroke="none" d="
M -3.95 10.3
Q -5.7701171875 6.88125 -6.8 5.3 -8.717578125 4.205078125 -10.45 3.95 -13.801171875 2.682421875 -15 4.75 -16.005078125 6.6673828125 -13.65 8.35 -11.01875 9.713671875 -9.2 8.9 -10.7576171875 10.655078125 -11.5 13.2 -11.7087890625 15.8998046875 -10 16.45 -7.5064453125 16.58125 -5.85 14.3 -4.7701171875 12.96875 -3.95 10.3
M 2.9 8.9
Q 3.638671875 6.24375 1.15 5.4 -0.986328125 4.1951171875 -2.7 5.3 -1.623828125 3.2076171875 -2.2 1.3 -2.4662109375 -1.30625 -4.15 -2.1 -5.4076171875 -2.8400390625 -5.85 -0.85 -5.86875 1.048828125 -5.65 4.55 -4.761328125 5.255078125 -4.45 6.75 -3.4 8.3962890625 -3.4 10.15 -2.5076171875 10.0248046875 -0.8 10.9 1.9025390625 10.869921875 2.9 8.9
M 14.95 8.85
Q 14.2423828125 9.4560546875 13.3 10.8 11.5099609375 12.180078125 10.35 13.3 10.138671875 13.748828125 9.85 15.8 9.7150390625 17.5875 12.05 17.25 14.6537109375 16.5361328125 15.5 14.25 16.0236328125 11.7087890625 15 11.4 16.7025390625 11.0287109375 18.8 9.95 20.84375 8.24375 21.55 7.3 22.157421875 5.7275390625 19.8 6.65 17.597265625 7.0400390625 14.95 8.85
M 14 5.25
Q 13.18984375 1.7798828125 11.7 2.3 9.563671875 1.836328125 9.45 5.1 8.77109375 7.61015625 10.35 8.65 8.25 8.075 6.15 9.6 3.5236328125 10.8673828125 3.55 12.95 3.3673828125 14.5962890625 6.1 14.25 7.169140625 13.9189453125 10 13.1 10.119921875 13.0736328125 10.2 13.05 12.507421875 9.6625 13.95 8.35 14.13125 6.4060546875 14 5.25
M 9.15 -9.65
Q 8.8798828125 -8.4462890625 8.4 -7.4 7.407421875 -5.14140625 6.6 -4.3 6.8861328125 -3.467578125 7.7 -1.4 8.77734375 0.7798828125 11.3 0.6 13.7662109375 -0.155078125 13.45 -2.85 12.6076171875 -5.7751953125 10.9 -6.65 12.86875 -6.72890625 14.55 -8.25 16.2275390625 -9.45625 16.2 -11.45 15.9125 -13.025 13.5 -12.5 11.3513671875 -11.705078125 9.15 -9.65
M 5.4 -14.4
Q 2.6849609375 -18.00625 0.55 -18.25 -1.6236328125 -17.8537109375 -0.2 -14.7 1.063671875 -11.1775390625 3.3 -10.2 0.8548828125 -10.3849609375 -0.8 -9.15 -2.5037109375 -7.3974609375 -1.45 -5.25 -0.4013671875 -2.936328125 2.25 -3.3 3.4224609375 -3.4087890625 6.25 -4.75 6.9375 -8.5087890625 7.6 -10.35 6.525 -12.4939453125 5.4 -14.4 Z"/>

<path fill="#6CC9C6" stroke="none" d="
M -8.15 -1.65
Q -7.6525390625 -1.6736328125 -7.6 -1.25 -7.3349609375 -0.9875 -7.7 -0.75 -7.18515625 -0.6251953125 -7.3 -0.55 -6.7138671875 -1.055078125 -7.15 -1.4 -7.01875 -1.6375 -7.7 -1.9 -7.8650390625 -2.055078125 -8.45 -2 -8.5525390625 -1.738671875 -9.1 -1.45 -8.9212890625 -1.3162109375 -8.95 0 -8.23515625 1.5724609375 -7.15 3.75
L -7.15 3.8
Q -7.64765625 2.61875 -8.8 2.2 -10.644921875 0.58125 -11.65 0.8 -11.694921875 0.5361328125 -11.95 0.85 -12.169921875 0.7361328125 -12.6 1.2 -12.6501953125 1.4087890625 -12.7 1.75 -12.3337890625 1.9412109375 -12.15 2.45 -11.4900390625 2.4201171875 -11.3 2.55 -11.1212890625 2.47109375 -11.15 2.5 -11.0701171875 1.9986328125 -11.25 2.05 -11.1712890625 2.1 -11.3 2.15 -11.4287109375 1.8900390625 -11.95 2.05 -11.9587890625 1.6349609375 -12.15 1.85 -12.11875 1.3775390625 -11.85 1.3 -11.5400390625 0.9986328125 -11.65 1.25 -10.7025390625 0.8875 -9.15 2.6 -7.9650390625 2.99609375 -7.25 4.55 -7.1228515625 4.52578125 -7.2 4.45 -6.869921875 4.7837890625 -6.8 5.3 -5.7701171875 6.88125 -3.95 10.3 -3.5576171875 10.6625 -3.4 11 -3.1900390625 10.494921875 -3.4 10.15 -3.4 8.3962890625 -4.45 6.75 -4.761328125 5.255078125 -5.65 4.55 -5.8552734375 3.658203125 -6.6 3.65 -7.65625 1.5236328125 -8.45 -0.05 -8.5013671875 -1.148828125 -8.5 -1.25 -8.2337890625 -1.6212890625 -8.15 -1.65
M 15.2 2.95
Q 15.117578125 2.6349609375 15.85 2.95
L 15.9 3.05
Q 16.232421875 3.36875 15.7 5.5 14.9162109375 6.836328125 14.5 7.65 14.55 7.6201171875 14.6 7.75 14.0775390625 7.8787109375 13.95 8.35 12.507421875 9.6625 10.2 13.05 10.119921875 13.0736328125 10 13.1 9.7841796875 13.24609375 9.5 13.85 9.7150390625 13.4826171875 10.35 13.3 11.5099609375 12.180078125 13.3 10.8 14.2423828125 9.4560546875 14.95 8.85 15.2384765625 8.0349609375 15.45 7.8
L 15.5 7.8
Q 15.60625 7.251171875 16.5 6.6 17.388671875 5.4173828125 18.2 5.05 18.69609375 4.263671875 19.3 4.45 19.378515625 4.2099609375 19.8 4.55 19.85625 4.6236328125 19.65 5.25 19.2837890625 5.08984375 19.05 5.35 18.7599609375 5.248828125 19.05 5.7 19.4875 5.6248046875 19.9 5.5 20.5375 4.8873046875 20.1 4.25 19.751171875 3.730078125 19.3 4.05 18.42734375 3.888671875 17.95 4.7 16.167578125 5.8236328125 15.2 7.5
L 15.2 7.45
Q 15.386328125 7.0337890625 16.1 5.7 16.6462890625 3.2623046875 16.25 2.9 16.1212890625 2.4736328125 16.1 2.6 15.7076171875 2.209765625 15.5 2.4 15.02734375 2.2111328125 14.95 2.55 14.6037109375 2.7287109375 14.6 3.25 14.34375 3.4150390625 14.85 4
L 14.9 4.05
Q 15.02109375 3.623828125 15.25 3.75 15.2248046875 3.461328125 15.15 3.7 14.5962890625 3.0486328125 15.2 2.95
M 11.65 -14.15
Q 11.6076171875 -13.598828125 11.75 -13.65 12.301171875 -13.49765625 12.75 -14 12.880078125 -13.91875 12.75 -14.65 12.617578125 -14.80390625 12.25 -15.35 11.348828125 -15.7474609375 11 -15.75 10.2400390625 -15.586328125 9.85 -14.95 8.8224609375 -13.4349609375 8.4 -11.5
L 8.35 -11.5
Q 8.1962890625 -12.3900390625 8.2 -13.7 7.5173828125 -16.1724609375 6.6 -17.2 6.25234375 -17.0650390625 6.3 -17.4 5.6787109375 -17.5875 5.4 -17.8 4.8900390625 -17.5826171875 4.75 -17.6 4.5224609375 -17.1087890625 4.9 -16.8 4.84375 -16.219921875 5.55 -15.85 5.569921875 -15.8 5.75 -15.75 5.782421875 -15.8076171875 6 -16.1 5.7287109375 -16.0201171875 5.8 -16.2 5.2048828125 -16.383984375 5.4 -16.75 4.9423828125 -17.067578125 5.3 -17.2 5.4111328125 -17.386328125 6.1 -17.15 5.9361328125 -16.9087890625 6.35 -16.85 6.932421875 -16.2162109375 7.7 -13.85 7.669921875 -11.8037109375 7.8 -11.2 7.769921875 -11.0212890625 7.9 -11.05 7.56484375 -10.5037109375 7.6 -10.35 6.9375 -8.5087890625 6.25 -4.75 5.9412109375 -3.8849609375 6 -3.7 6.1025390625 -3.9876953125 6.6 -4.3 7.407421875 -5.14140625 8.4 -7.4 8.8798828125 -8.4462890625 9.15 -9.65 8.932421875 -10.4923828125 8.9 -11.15 8.7685546875 -11.6525390625 9.4 -12.6 9.7162109375 -13.601171875 10.4 -14.55 10.45625 -15.01875 11.3 -15.25 11.76875 -15.0712890625 11.95 -15.1 12.188671875 -14.6525390625 12.35 -14.65 12.13984375 -14.4375 12.35 -14.25 11.92109375 -13.8599609375 11.65 -14.15 Z"/>
</g>

<g id="FS_Torso_overlap__0_Layer0_0_FILL">
<path fill="#EBD564" stroke="none" d="
M 10.25 -8.95
Q 9.4009765625 1.9046875 5.35 8.95 1.346875 16.0353515625 -1.8 17.3
L -1.8 20.65
Q 3.2017578125 18.636328125 7.75 9.7 12.2982421875 0.763671875 10.25 -8.95 Z"/>

<path fill="#FDF6AE" stroke="none" d="
M 10.15 -10.1
L 10.2 -10.75
Q 5.149609375 -26.5466796875 -4.5 -21.1 -19.25 -8 -1.8 17.3 1.346875 16.0353515625 5.35 8.95 9.4009765625 1.9046875 10.25 -8.95 10.15 -8.65 10.15 -10.1 Z"/>
</g>

<g id="FS_FrontLeg_3_4_hoof_0_Layer0_0_FILL">
<path fill="#EBD463" stroke="none" d="
M 14.95 -14.95
Q 8.7541015625 -20.8443359375 0.05 -20.15 -8.81640625 -19.5484375 -12.8 -14.35 -16.526953125 -9.5060546875 -19.15 -4.25 -21.7119140625 0.947265625 -24.6 7.3
L -24.55 7.3
Q -26.32890625 11.167578125 -25.4 13.5 -24.5373046875 16.1365234375 -20.8 17
L -20.8 17
Q -15.0755859375 18.309765625 -1 18.05 13.7875 17.7890625 17.25 13.7
L 17.25 13.7
Q 20.8900390625 9.7828125 21.05 0.3 21.2107421875 -9.126171875 14.95 -14.95
M 0.25 -17.15
L 0.25 -17.15
Q 7.6546875 -17.7474609375 12.9 -12.75 18.1890625 -7.7734375 18.05 0.25 17.9103515625 8.2857421875 15.05 11.65
L 15 11.7
Q 11.8634765625 14.81171875 -1.05 15.05 -14.6240234375 15.2900390625 -20.15 14.05
L -20.15 14.1
Q -22.016015625 13.6626953125 -22.55 12.5 -22.959375 11.0341796875 -21.85 8.55 -18.9880859375 2.2525390625 -16.45 -2.9 -13.9732421875 -7.894140625 -10.45 -12.5 -7.0837890625 -16.6517578125 0.25 -17.15 Z"/>

<path fill="#FDF6AE" stroke="none" d="
M 0.25 -17.15
L 0.25 -17.15
Q -7.0837890625 -16.6517578125 -10.45 -12.5 -13.9732421875 -7.894140625 -16.45 -2.9 -18.9880859375 2.2525390625 -21.85 8.55 -22.959375 11.0341796875 -22.55 12.5 -22.016015625 13.6626953125 -20.15 14.1
L -20.15 14.05
Q -14.6240234375 15.2900390625 -1.05 15.05 11.8634765625 14.81171875 15 11.7
L 15.05 11.65
Q 17.9103515625 8.2857421875 18.05 0.25 18.1890625 -7.7734375 12.9 -12.75 7.6546875 -17.7474609375 0.25 -17.15 Z"/>
</g>

<g id="FS_FrontLeg_3_4_upper_2_Layer1_0_FILL">
<path fill="#EBD463" stroke="none" d="
M -17.3 82.35
L -14.2 82.9
Q -3.4103515625 50.004296875 -7.15 -2.5 -9.971484375 0.565234375 -9.25 14.7 -7.92421875 54.5646484375 -17.3 82.35
M 18.4 19.05
Q 12.98984375 3.2484375 9.05 0.4 26.109765625 43.7232421875 19.95 89.45
L 19.95 89.5
Q 21.0232421875 91.8462890625 22.9 89.9
L 22.9 89.9
Q 27.77265625 53.83984375 18.4 19.05 Z"/>

<path fill="#FDF6AE" stroke="none" d="
M 9.05 0.4
L 9.05 0.35
Q 0.58515625 -2.4958984375 -7.15 -2.5 -3.4103515625 50.004296875 -14.2 82.9
L -13.1 84.35 19.95 89.45
Q 26.109765625 43.7232421875 9.05 0.4 Z"/>
</g>

<g id="FS_Wing_3_4_12_Layer5_0_FILL">
<path fill="#FDF6AE" stroke="none" d="
M 12.85 24.6
Q 15.25 21.9 15.65 18.9 16.1 15.85 14.4 13.6 12.8 11.55 10.25 10.95 8.5 10.55 3.95 10.55 3.9005859375 3.5751953125 -7.25 1.7
L -14.95 1.8
Q -22.45 10.75 -23.5 16 -25.1552734375 24.0869140625 -21.05 30.5 -13.6 41.795703125 3.75 38.55 15.6693359375 32.926953125 12.85 24.6
M 35.85 12.15
Q 38.25 7.05 39.05 4.05 39.6837890625 1.4330078125 39.55 -0.45
L 17.15 12.35 17.75 13.3
Q 18.8 15 18.6 18.4 18.3 22.55 15.9 25.1 16.078515625 25.676953125 16.15 26.25
L 35.85 12.15
M 33.1 16.85
Q 33.9603515625 15.5462890625 34.7 14.25
L 16.25 27.4
Q 16.26171875 27.693359375 16.25 27.95 16.18046875 32.1900390625 12.15 36.15 23.7486328125 31.27578125 33.1 16.85
M 38.4 -3.35
Q 36.75 -4.95 33.85 -5.4
L 32.4 -5.5 5.6 6.4
Q 5.9978515625 7.1595703125 6.2 8.05 13.4712890625 7.8109375 16.55 11.5
L 39.45 -1.5
Q 39.1666015625 -2.65234375 38.45 -3.35
L 38.4 -3.35
M 30.1 -5.6
Q 26.540625 -5.5923828125 21.8 -4.75 11.580859375 -2.937109375 -0.35 1.95 3.47421875 2.86640625 5.1 5.5
L 30.1 -5.6 Z"/>

<path fill="#EBD463" stroke="none" d="
M 34.3 -8.3
Q 29.3517578125 -9.144921875 21.25 -7.75 8.334765625 -5.4265625 -7.25 1.7 3.9005859375 3.5751953125 3.95 10.55 8.5 10.55 10.25 10.95 12.8 11.55 14.4 13.6 16.1 15.85 15.65 18.9 15.25 21.9 12.85 24.6 15.6693359375 32.926953125 3.75 38.55 -13.6 41.795703125 -21.05 30.5 -25.1552734375 24.0869140625 -23.5 16 -22.45 10.75 -14.95 1.8 -24.6 6.15 -26.45 15.35
L -26.45 15.4
Q -28.3291015625 24.716796875 -23.55 32.1 -15.1962890625 45.237890625 4.6 41.45
L 9 40.4
Q 23.9787109375 36.4216796875 35.6 18.5 37.8009765625 15.115625 39.35 11.95
L 39.35 11.9
Q 41.1208984375 8.1666015625 41.95 4.75 42.9619140625 0.556640625 42.35 -2.1
L 42.35 -2.1
Q 41.8580078125 -4.2615234375 40.45 -5.55
L 40.5 -5.55
Q 38.3744140625 -7.612109375 34.3 -8.3
M 21.8 -4.75
Q 26.540625 -5.5923828125 30.1 -5.6
L 5.1 5.5
Q 3.47421875 2.86640625 -0.35 1.95 11.580859375 -2.937109375 21.8 -4.75
M 33.85 -5.4
Q 36.75 -4.95 38.4 -3.35
L 38.45 -3.35
Q 39.1666015625 -2.65234375 39.45 -1.5
L 16.55 11.5
Q 13.4712890625 7.8109375 6.2 8.05 5.9978515625 7.1595703125 5.6 6.4
L 32.4 -5.5 33.85 -5.4
M 34.7 14.25
Q 33.9603515625 15.5462890625 33.1 16.85 23.7486328125 31.27578125 12.15 36.15 16.18046875 32.1900390625 16.25 27.95 16.26171875 27.693359375 16.25 27.4
L 34.7 14.25
M 39.05 4.05
Q 38.25 7.05 35.85 12.15
L 16.15 26.25
Q 16.078515625 25.676953125 15.9 25.1 18.3 22.55 18.6 18.4 18.8 15 17.75 13.3
L 17.15 12.35 39.55 -0.45
Q 39.6837890625 1.4330078125 39.05 4.05 Z"/>
</g>

<g id="FS_Skull_0_Layer0_0_FILL">
<path fill="#FDF6AE" stroke="none" d="
M -13.1 -42.35
Q -21.1 -39.7 -28.55 -34.05 -31.85 -31.5 -35.3 -27.95 -40.25 -22.8 -42.85 -11.5 -44.6458984375 -3.5529296875 -44.85 1.85 -45.012890625 7.3087890625 -44.25 14.15 -43.4365234375 20.9841796875 -42.3 24.2 -41.1564453125 27.423828125 -40.55 28.85 -39.898046875 30.31015625 -39.95 31.45
L -33.15 31.55
Q -19.908203125 42.349609375 -3.55 45.95 12.84921875 49.6044921875 18.65 48.75 26.2490234375 43.9646484375 33.6 36.15 40.988671875 28.38125 46 11.5 51.009375 -5.39296875 48.1 -15.3 46.64609375 -20.2318359375 44.05 -24.7 41.2005859375 -29.57109375 36.95 -33.85 25.890625 -44.9564453125 5.35 -45.05 -4.85 -45.1 -13.1 -42.35 Z"/>

<path fill="#EBD463" stroke="none" d="
M -30.35 -36.45
Q -32.1 -35.1 -37.65 -29 -42.2 -23.95 -45 -14.9 -47.8490234375 -5.702734375 -47.6 4.85 -47.3529296875 15.408203125 -45.55 22.45 -43.74609375 29.5390625 -41.05 31.4
L -40.8 31.4
Q -39.876171875 32.57734375 -39.95 31.45 -39.898046875 30.31015625 -40.55 28.85 -41.1564453125 27.423828125 -42.3 24.2 -43.4365234375 20.9841796875 -44.25 14.15 -45.012890625 7.3087890625 -44.85 1.85 -44.6458984375 -3.5529296875 -42.85 -11.5 -40.25 -22.8 -35.3 -27.95 -31.85 -31.5 -28.55 -34.05 -21.1 -39.7 -13.1 -42.35 -4.85 -45.1 5.35 -45.05 25.890625 -44.9564453125 36.95 -33.85 41.2005859375 -29.57109375 44.05 -24.7
L 44.05 -30.2
Q 41.857421875 -33.186328125 39.1 -35.95 27.309765625 -47.94375 5.35 -48.05 -5.4 -48.1 -14.15 -45.2 -22.55 -42.4 -30.35 -36.45 Z"/>
</g>

<g id="Mask_Mask_FS_EyeWhite_3_4far2_0_Layer0_0_FILL">
<path fill="#FFFFFF" stroke="none" d="
M 5.7 -15.1
Q 4.5849609375 -21.360546875 2.6 -21.15 0.6708984375 -20.888671875 -2.05 -15.3 -4.76484375 -9.70078125 -4.7 -0.1 -4.637890625 9.4892578125 -2.75 16.15 -0.8751953125 22.869140625 1.05 22.6 3.018359375 22.3609375 4.55 15.75 6.1400390625 9.3076171875 6.45 0.25 6.79921875 -8.811328125 5.7 -15.1 Z"/>
</g>

<g id="FS_EyeWhite_3_4far2_0_Layer0_0_FILL">
<path fill="#FFFFFF" stroke="none" d="
M 5.7 -15.1
Q 4.5849609375 -21.360546875 2.6 -21.15 0.6708984375 -20.888671875 -2.05 -15.3 -4.76484375 -9.70078125 -4.7 -0.1 -4.637890625 9.4892578125 -2.75 16.15 -0.8751953125 22.869140625 1.05 22.6 3.018359375 22.3609375 4.55 15.75 6.1400390625 9.3076171875 6.45 0.25 6.79921875 -8.811328125 5.7 -15.1 Z"/>
</g>

<g id="FS_Iris_0_Layer1_0_FILL">
<path fill="url(#Gradient_1)" stroke="none" d="
M 17.7 -13.05
Q 13.45 -21.1 5.25 -22.95 -3 -24.85 -10.3 -19.4 -17.6 -14 -19.75 -4.45 -20.922265625 0.6119140625 -20 7.1 -19.662109375 8.449609375 -19.2 9.75
L -18.6 11.2
Q -18.1958984375 12.1607421875 -17.7 13.1 -13.45 21.15 -5.2 23 3 24.85 10.3 19.45 17.6 14 19.8 4.5 21.95 -5 17.7 -13.05 Z"/>
</g>

<g id="FS_Iris_0_Layer0_0_FILL">
<path fill="#8AD2D5" stroke="none" d="
M -6.5 8
Q -17.6794921875 11.2681640625 -18.65 11.25 -17.6072265625 14.0123046875 -15.4 16.75
L 0.1 6.75 -6.5 8 Z"/>
</g>

<g id="FS_Iris_0_Layer0_1_FILL">
<path fill="#3DBFBB" stroke="none" d="
M -20.25 5.4
Q -19.7828125 8.4513671875 -18.6 11.3
L 0.4 6.6 -20.25 5.4 Z"/>
</g>

<g id="FS_Pupil_0_Layer0_0_FILL">
<path fill="#000000" stroke="none" d="
M 12.45 -9.9
Q 10.5203125 -16.0232421875 5.5 -17.5 0.487109375 -18.9470703125 -4.7 -14.9 -9.854296875 -10.7671875 -12.15 -3.55 -14.402734375 3.7013671875 -12.5 9.8 -10.484375 16.0318359375 -5.45 17.5 -0.4265625 18.9556640625 4.7 14.8 9.91484375 10.7759765625 12.15 3.55 14.43828125 -3.692578125 12.45 -9.9 Z"/>
</g>

<g id="FS_Hilights_0_Layer1_0_FILL">
<path fill="#FFFFFF" stroke="none" d="
M -8.15 11.5
Q -8.11953125 11.614453125 -8.1 11.7 -8.0240234375 11.8134765625 -7.95 11.95 -7.7912109375 12.381640625 -7.55 12.75 -7.4705078125 12.844140625 -7.4 12.9 -7.2078125 13.113671875 -6.95 13.3 -6.50546875 13.6888671875 -6.05 13.8 -5.996875 13.8515625 -5.95 13.85 -5.6171875 13.9560546875 -5.2 13.95 -3.9484375 13.97890625 -3.4 12.75 -3.3849609375 12.698046875 -3.4 12.65 -3.1736328125 12.1291015625 -3.25 11.35 -3.259765625 11.128515625 -3.35 10.85 -3.3462890625 10.7740234375 -3.4 10.7 -3.7330078125 9.7962890625 -4.4 9.15 -4.435546875 9.108203125 -4.5 9.05 -4.72890625 8.870703125 -4.9 8.75 -5.579296875 8.305859375 -6.3 8.4 -7.123828125 8.352734375 -7.65 8.9 -7.813671875 9.0921875 -8 9.35 -8.0568359375 9.446484375 -8.1 9.55 -8.510546875 10.357421875 -8.15 11.5
M 3.85 -8.7
L 3.8 -8.75
Q 1.3921875 -11.8771484375 -1.15 -11.7 -4.233984375 -11.8736328125 -5.6 -8.2
L -5.6 -8.15
Q -6.528125 -5.45625 -5.75 -1.6 -5.0052734375 2.07265625 -3.05 4.6
L -3.05 4.6
Q -0.6041015625 7.82109375 2 7.65 5.12890625 7.837890625 6.4 4 7.375390625 1.40078125 6.6 -2.4
L 6.6 -2.45
Q 5.8041015625 -6.1376953125 3.85 -8.7 Z"/>
</g>

<g id="Mask_Mask_FS_EyeWhite_3_4_0_Layer0_0_FILL">
<path fill="#FFFFFF" stroke="none" d="
M 15.3 -16.8
Q 12.05 -25.85 4.7 -27.8 -2.55 -29.75 -9.55 -23.45 -16.6 -17.15 -19.25 -6.25 -21.95 4.7 -18.7 13.75 -15.45 22.8 -8.2 24.8 -0.9 26.75 6.15 20.4 13.2 14.15 15.9 3.2 18.6 -7.7 15.3 -16.8 Z"/>
</g>

<g id="FS_EyeWhite_3_4_0_Layer0_0_FILL">
<path fill="#FFFFFF" stroke="none" d="
M 15.3 -16.8
Q 12.05 -25.85 4.7 -27.8 -2.55 -29.75 -9.55 -23.45 -16.6 -17.15 -19.25 -6.25 -21.95 4.7 -18.7 13.75 -15.45 22.8 -8.2 24.8 -0.9 26.75 6.15 20.4 13.2 14.15 15.9 3.2 18.6 -7.7 15.3 -16.8 Z"/>
</g>

<g id="FS_Blink_3_4far_3_Layer9_0_FILL">
<path fill="#000000" stroke="none" d="
M 7.7 -10.65
Q 6.848046875 -23.696875 3.45 -23.25 0.54765625 -22.861328125 -2.55 -14.25 -2.29921875 -14.7767578125 -2.05 -15.3 0.6708984375 -20.888671875 2.6 -21.15 4.5849609375 -21.360546875 5.7 -15.1 6.79921875 -8.811328125 6.45 0.25 6.1400390625 9.3076171875 4.55 15.75 4.32890625 16.8455078125 4.05 17.75 4.808984375 15.928125 5.35 13.5 5.7642578125 11.9158203125 6.05 10.15 6.2 9.5484375 6.25 8.8 6.7927734375 5.698046875 7.3 0.6 7.81484375 -4.44296875 7.7 -10.65 Z"/>
</g>

<g id="FS_Blink_3_4far_3_Layer7_0_FILL">
<path fill="#FDF6AE" stroke="none" d="
M 7.75 -10.75
Q 6.954296875 -23.9515625 3.5 -23.65 0.1068359375 -23.3212890625 -3.45 -11.9 -4.802734375 -7.033984375 -4.75 -0.1 -4.696875 9.5912109375 -2.8 16.35 -0.9005859375 23.10390625 1.05 22.85 2.7236328125 22.6390625 4.1 17.95 4.8349609375 16.1060546875 5.4 13.65 5.80234375 12.0412109375 6.1 10.25 6.250390625 9.648828125 6.3 8.9 6.8431640625 5.7580078125 7.35 0.6 7.8681640625 -4.5 7.75 -10.75 Z"/>
</g>

<g id="FS_Blink_3_4far_3_Layer4_0_FILL">
<path fill="#000000" stroke="none" d="
M 2.25 19.9
Q 1.26875 21.5572265625 0.35 20.8 -0.7916015625 19.86640625 -1.15 18.75 -4.08203125 8.1185546875 -3.25 -1.45 -4.9607421875 8.339453125 -2.8 18.35 -2.3892578125 20.4634765625 -1.5 21.8 0.309375 24.24375 2.5 21.8 3.55546875 20.7345703125 4.3 18.95 7.658203125 11.473828125 7 -0.6 6.04375 14.5623046875 2.25 19.9 Z"/>
</g>

<g id="FS_Blink_3_4far_3_Layer3_0_FILL">
<path fill="#000000" stroke="none" d="
M -3.35 14.55
Q -3.4763671875 13.576171875 -3.6 12.6 -7.6337890625 15.075 -13 12.25 -10.3314453125 15.2990234375 -7.4 15.6 -5.109375 15.9396484375 -3.3 14.75 -3.32734375 14.6630859375 -3.35 14.55
M -2.75 17.7
Q -2.936328125 16.792578125 -3.15 15.85 -3.473046875 16.2962890625 -3.9 16.7 -6.5908203125 19.20703125 -9.75 18.75 -7.7583984375 20.7513671875 -5 19.65 -3.6400390625 19.1380859375 -2.6 18.2 -2.63828125 18.0791015625 -2.7 17.9 -2.7009765625 17.807421875 -2.75 17.7
M -3.95 7.15
Q -6.77578125 7.1771484375 -8.85 5.85 -9.64140625 5.37421875 -10.35 4.7 -10.7046875 4.3205078125 -11.05 3.85 -10.841796875 4.5083984375 -10.55 5.05 -10.08359375 5.9880859375 -9.4 6.7 -8.098046875 8.0939453125 -6 8.8 -4.8912109375 9.15703125 -3.85 9.25 -3.9025390625 8.23203125 -3.9 7.15
L -3.95 7.15 Z"/>
</g>

<g id="FS_Blink_3_4_3_Layer5_0_FILL">
<path fill="#000000" stroke="none" d="
M 3.9 -28.3
Q 2.6283203125 -28.579296875 1.35 -28.7 -4.6439453125 -29.078515625 -10.25 -24.75 -11.7181640625 -23.5576171875 -13 -22.2 -17.4087890625 -17.401953125 -18.9 -10.25 -19.5439453125 -6.9607421875 -19.9 -3.95 -20.534765625 1.5740234375 -20.15 6.3 -20.158203125 1.678125 -18.95 -3.35 -18.7609375 -4.0185546875 -18.6 -4.7 -15.9060546875 -14.323046875 -9.65 -20.2 1.74921875 -30.1068359375 10.75 -21.8 10.882421875 -21.6779296875 11 -21.55 13.90546875 -18.748828125 15.65 -13.95 16.3888671875 -11.873828125 16.8 -9.75 16.4884765625 -14.0923828125 14.85 -18.1 11.35234375 -26.50703125 3.9 -28.3 Z"/>
</g>

<g id="FS_Blink_3_4_3_Layer4_0_FILL">
<path fill="#FDF6AE" stroke="none" d="
M 16.4 -17.65
Q 12.496484375 -27.56875 4.35 -29.75 -3.7302734375 -31.8421875 -11.25 -24.95 -18.7919921875 -17.9697265625 -21.4 -6.05 -23.9580078125 5.993359375 -20.05 15.9 -16.1890625 25.887109375 -8.15 28 0.0255859375 30.1982421875 7.55 23.25 15.1416015625 16.3619140625 17.7 4.3 20.319921875 -7.6388671875 16.4 -17.65 Z"/>
</g>

<g id="FS_Blink_3_4_3_Layer2_0_FILL">
<path fill="#000000" stroke="none" d="
M 10.9 16.15
Q 6.015234375 23.390625 0.25 25.65 -7.4982421875 28.3275390625 -13.35 23.3 -17.98046875 19.555859375 -19.45 12.65 -21.23359375 5.22265625 -19.85 -3.25 -22.2560546875 3.9392578125 -20.85 13 -19.3849609375 22.05078125 -13.35 26.05 -7.3091796875 30.1099609375 -1.05 28.15 5.2533203125 26.1896484375 9.85 20.1 14.447265625 14.0125 15.7 8.7 17.175390625 2.5373046875 16.85 -2.9 15.9384765625 7.728125 10.9 16.15 Z"/>
</g>

<g id="FS_Blink_3_4_3_Layer1_0_FILL">
<path fill="#000000" stroke="none" d="
M 14.75 10.45
L 14.1 12.35 15.1 12.95
Q 21.6 15.7 24.9 10.35 20.75 13.25 15.75 11.05
L 14.75 10.45 Z"/>
</g>

<g id="FS_Blink_3_4_3_Layer1_1_FILL">
<path fill="#000000" stroke="none" d="
M 24.9 17.5
Q 17.15 18.95 13.2 13.75
L 12.25 15.8
Q 18.5 21.95 24.9 17.5 Z"/>
</g>

<g id="FS_Blink_3_4_3_Layer1_2_FILL">
<path fill="#000000" stroke="none" d="
M 11.15 19.4
L 10.2 18.45 9.05 20 9.95 20.9
Q 15.6 26 21.15 22.35 15 23.15 11.15 19.4 Z"/>
</g>

<g id="FS_Brow_3_4_8_Layer4_0_FILL">
<path fill="#FDF6AE" stroke="none" d="
M -41 -18
Q -49.09609375 -3.21640625 -42 -1.45 -31.4580078125 7.6216796875 -2.55 2.25 -1.6908203125 2.1703125 -1.1 2.15 14.1453125 -16.0892578125 2.6 -31.3 -1.554296875 -33.840234375 -7.3 -36.15 -21.9275390625 -41.9796875 -41 -18 Z"/>
</g>

<g id="FS_Brow_3_4_8_Layer0_0_FILL">
<path fill="#000000" stroke="none" d="
M -42.55 -2.1
Q -42.8 -2.7 -42.9 -3.4 -43.1 -4.15 -43.1 -4.95 -43.15 -5.75 -43.15 -6.45 -43.2 -7.2 -43.15 -10.3
L -43.85 -10.5
Q -45.5 -6.8 -45.55 -3.7 -45.5 -1.65 -44.9 -0.1 -37.25 4.9 -21.25 5.5 -20.7 5.5 -20.1 5.5
L -20.1 5.55
Q -6.75 5.7 -0.05 2.75 1.05 2.4 1.8 1.45 2.05 1.1 1.65 0.9 -8 3.15 -19.9 3.1
L -19.95 3.1
Q -20.75 3.1 -21.5 3.1 -37.35 2.2 -42.55 -2.1 Z"/>
</g>

<g id="FS_Brow_3_4rear_8_Layer5_0_FILL">
<path fill="#FFF8AD" stroke="none" d="
M -8.4 -25.15
Q -17 -26.35 -13.05 -3.3 -6.7556640625 1.90390625 -0.15 1.4
L -0.15 -1.45
Q -2.3666015625 -22.9296875 -8.4 -25.15 Z"/>
</g>

<g id="FS_Brow_3_4rear_8_Layer4_0_FILL">
<path fill="#000000" stroke="none" d="
M -13.5 -11.4
Q -14.8 -7.95 -14.9 -5.1 -14.95 -3.2 -14.5 -1.8 -12.4 -0.3 -10.35 0.8 -4.88671875 3.359375 -0.15 3.45
L -0.1 0.7
Q -6.5494140625 0.0115234375 -10.35 -1.85 -11.8 -2.65 -12.75 -3.65 -12.9 -4.2 -13 -4.85 -13.1 -5.5 -13.1 -6.25 -13.1 -7 -13.05 -7.65 -13.1 -8.3 -13 -11.15
L -13.5 -11.4 Z"/>
</g>

<g id="FS_Mouth_3_4_40_Layer10_0_FILL">
<path fill="#FDF6AE" stroke="none" d="
M -24.5 -8.35
Q -24.592578125 -7.3197265625 -23.95 -6.5 -10.1201171875 11.1193359375 15.85 16.75 19.967578125 17.2029296875 26.5 14.35 -2.0705078125 7.620703125 -11.25 -1.45 -20.419921875 -10.4630859375 -22.15 -12.2 -24.358984375 -9.365234375 -24.5 -8.35 Z"/>
</g>

<g id="FS_Nose_0_Layer1_0_FILL">
<path fill="#EBD463" stroke="none" d="
M -7.75 8.1
Q -4.5 6.85 -3.1 5.35 -1.05 3.05 0 0.2 0.053125 0.082421875 0.1 -0.05 0.0193359375 0.06484375 -0.1 0.15 -0.1197265625 0.2525390625 -0.2 0.3 -1.06796875 1.53046875 -2.1 2.4 -2.786328125 3.0109375 -3.55 3.45 -3.8748046875 3.6556640625 -4.25 3.85 -5.3 4.4 -8 5.15
L -12.35 6.4
Q -13.35 6.8 -13.95 7.2 -14.7142578125 7.8189453125 -15.1 8.6 -16.4 10.85 -15.3 14.1 -13.65 14.25 -12.75 13.7
L -12.35 13.45
Q -12.9 11.85 -12.3 10.55 -11.8 9.35 -10.8 8.95
L -7.75 8.1 Z"/>

<path fill="#FDF6AE" stroke="none" d="
M 0.1 0
L 0 0.2
Q -1.05 3.05 -3.1 5.35 -4.5 6.85 -7.75 8.1
L -10.8 8.95
Q -11.8 9.35 -12.3 10.55 -12.9 11.85 -12.35 13.45
L -12.75 13.7
Q -11.2017578125 19.790234375 -8.2 21.65 -5.2095703125 23.5673828125 -3.45 24.6 -0.59609375 24.3787109375 3.55 21.4 5.2333984375 18.342578125 6.5 15.75 4.45 10.5 3 6.15 1.85 -0.4 1.15 -0.7 0.65 -0.9 0.1 0 Z"/>
</g>

<g id="FS_Mouth_3_4_40_Layer7_0_FILL">
<path fill="#EBD463" stroke="none" d="
M 18.3 19.35
Q 27.2533203125 17.39453125 31.65 14 31.341015625 13.99765625 31 14 16.580078125 18.1708984375 6.35 18.75 1.384765625 19.039453125 -3.05 18.7 -8.5740234375 18.308984375 -13.3 16.95 -19.498046875 15.1447265625 -27.65 10.15 -27.5767578125 10.55546875 -27.85 10.7 -28.7240234375 11.210546875 -33.15 9.15 -29.3615234375 12.5255859375 -29.3 12.55 -28.5955078125 13.090625 -27.85 13.6 -22.1798828125 17.5099609375 -14.15 19.85 -9.2908203125 21.25625 -3.05 21.45
L -3 21.45
Q 8.1232421875 21.540234375 18.3 19.35 Z"/>

<path fill="#FDF6AE" stroke="none" d="
M 31 14
Q 30.5068359375 14 30 14 -1.05 14 -14.8 0.5 -16.6244140625 -1.28515625 -18.05 -3.25 -20.181640625 -0.259375 -22.7 3.25 -25.00859375 6.475 -27.65 10.15 -19.498046875 15.1447265625 -13.3 16.95 -8.5740234375 18.308984375 -3.05 18.7 1.384765625 19.039453125 6.35 18.75 16.580078125 18.1708984375 31 14 Z"/>
</g>

<g id="FS_Mouth_3_4_40_Layer4_0_FILL">
<path fill="#EBD463" stroke="none" d="
M -27.9 13.5
Q -19.766796875 8.8044921875 -10.6 9.7 -16.0755859375 6.2548828125 -27.8 9.85 -27.825 9.8298828125 -27.85 9.8 -33.35 5.45 -35.45 -0.2
L -38.4 0.25
Q -35.8 8.323828125 -27.9 13.5 Z"/>
</g>

<g id="FS_Nostril_3_4_0_Layer0_0_FILL">
<path fill="#EBD463" stroke="none" d="
M 1.2 2.35
Q 2.95 1.9 2.55 -2.4 1.95 0.3 0.6 0.75 -0.8 1 -2.6 0.3 -0.65 2.55 1.2 2.35 Z"/>
</g>

<g id="FS_Hair_01_1_Layer3_0_FILL">
<path fill="#F4B6D1" stroke="none" d="
M -66.8 -17.05
Q -69.4794921875 -16.6607421875 -72.1 -16.15
L -72.15 -16.1 -72.1 -16.1 -64.3 2.5
Q -63.898046875 2.0205078125 -63.5 1.55 -58.3001953125 -4.133984375 -50.6 -4.2 -41.0490234375 -4.244140625 -31.2 1.95 -23.8873046875 6.5083984375 -18.9 12.75 -14.985546875 7.02265625 -8 0.65 -7.008203125 -0.2259765625 -5.95 -1.1 -19.77265625 -13.70078125 -41.8 -17 -54.19140625 -18.819921875 -66.8 -17.05
M 11.05 -41.4
Q 13.3234375 -36.18046875 14.55 -29.85 16.324609375 -20.88515625 15.75 -12.1 24.224609375 -14.6873046875 31 -14.2 39.71640625 -13.5259765625 44.85 -11.7 45.5556640625 -11.4251953125 46.25 -11.15
L 53.05 -13.95
Q 52.866015625 -14.2693359375 52.65 -14.6 50.885546875 -17.423046875 48.85 -19.75
L 48.85 -19.75
Q 47.831640625 -21.049609375 46.7 -22.3 33.5662109375 -36.931640625 11.05 -41.4
M -51.05 -33.45
L -51.1 -33.45
Q -64.462109375 -27.0017578125 -71.4 -17.2 -69.159375 -17.5998046875 -66.9 -17.95 -54.04140625 -19.7767578125 -41.4 -18 -18.915625 -14.7416015625 -4.85 -1.95 -1.6556640625 -4.34921875 2.15 -6.45 -9.590625 -19.7001953125 -28.45 -27.2 -39.105859375 -31.4046875 -51.05 -33.45
M 3.4 -7.1
Q 6.062890625 -8.45078125 9 -9.7 8.319921875 -21.032421875 1.2 -33.15 -1.368359375 -37.5478515625 -5.7 -43.2 -19.2388671875 -43.3947265625 -33.3 -39.75 -42.49375 -37.3669921875 -49.85 -34
L -49.8 -34
Q -37.9216796875 -31.9841796875 -27.35 -27.85 -8.4330078125 -20.3724609375 3.4 -7.1
M 13.05 -29.45
Q 11.7306640625 -36.246875 9.25 -41.75 2.7962890625 -42.8958984375 -3.8 -43.15 0.2318359375 -37.7759765625 2.7 -33.5 9.6890625 -21.5439453125 10.5 -10.3 10.6404296875 -10.3228515625 10.75 -10.4 12.5416015625 -11.05859375 14.25 -11.65 14.830078125 -20.4205078125 13.05 -29.45 Z"/>

<path fill="#E781B3" stroke="none" d="
M 14.55 -29.85
Q 13.3234375 -36.18046875 11.05 -41.4 33.5662109375 -36.931640625 46.7 -22.3 47.831640625 -21.049609375 48.85 -19.75
L 48.85 -19.75
Q 50.885546875 -17.423046875 52.65 -14.6 52.866015625 -14.2693359375 53.05 -13.95 53.18984375 -13.75390625 53.3 -13.6 54.8099609375 -14.08828125 56.25 -14.5 55.9529296875 -15.037890625 55.6 -15.55 53.2744140625 -19.3658203125 50.7 -21.95 36.4802734375 -39.251953125 12.45 -43.95 -11.5162109375 -48.59296875 -36.75 -40.85 -61.950390625 -33.0546875 -73.75 -17.5 -73.9068359375 -17.2357421875 -74.1 -17 -75.121875 -15.3353515625 -72.15 -16.1
L -72.1 -16.15
Q -69.4794921875 -16.6607421875 -66.8 -17.05 -54.19140625 -18.819921875 -41.8 -17 -19.77265625 -13.70078125 -5.95 -1.1 -7.008203125 -0.2259765625 -8 0.65 -14.985546875 7.02265625 -18.9 12.75 -23.8873046875 6.5083984375 -31.2 1.95 -41.0490234375 -4.244140625 -50.6 -4.2 -58.3001953125 -4.133984375 -63.5 1.55 -63.898046875 2.0205078125 -64.3 2.5 -64.3646484375 2.6134765625 -64.45 2.7 -64.5283203125 2.8138671875 -64.55 2.9 -64.5552734375 3.0302734375 -64.5 3.1 -64.4470703125 3.23359375 -64.35 3.3
L -63.45 3.85
Q -63.2962890625 3.9287109375 -63.15 3.9 -63.008984375 3.8708984375 -62.95 3.75 -62.5046875 3.169140625 -62.05 2.6 -60.9482421875 1.3177734375 -59.65 0.2 -51.3916015625 -6.49140625 -35.9 1.7 -26.3607421875 6.784375 -20.05 14.9 -20.0291015625 14.9345703125 -20 14.95 -19.6154296875 15.453125 -19.25 15.95 -19.16171875 16.06015625 -19.05 16.1 -18.8978515625 16.1431640625 -18.8 16.1 -18.658984375 16.0447265625 -18.6 15.9 -18.2140625 15.2333984375 -17.8 14.55
L -17.8 14.55
Q -14.1423828125 8.6611328125 -8.25 3.5 -0.3380859375 -3.3853515625 10.2 -7.9 21.4734375 -12.7384765625 32.2 -12.35 38.228125 -12.170703125 43.35 -10.35 44.1337890625 -10.065625 44.9 -9.75 44.97265625 -9.719921875 45.05 -9.75 45.1412109375 -9.7328125 45.2 -9.8 45.884375 -10.115625 46.3 -10.35
L 46.35 -10.35
Q 46.3755859375 -10.3396484375 46.4 -10.35 46.508203125 -10.3833984375 46.55 -10.5 46.646484375 -10.575390625 46.65 -10.7 46.66015625 -10.821484375 46.6 -10.95 46.5353515625 -11.0154296875 46.4 -11.05 46.3375 -11.08828125 46.25 -11.15 45.5556640625 -11.4251953125 44.85 -11.7 39.71640625 -13.5259765625 31 -14.2 24.224609375 -14.6873046875 15.75 -12.1 16.324609375 -20.88515625 14.55 -29.85
M 9.25 -41.75
Q 11.7306640625 -36.246875 13.05 -29.45 14.830078125 -20.4205078125 14.25 -11.65 12.5416015625 -11.05859375 10.75 -10.4 10.6404296875 -10.3228515625 10.5 -10.3 9.6890625 -21.5439453125 2.7 -33.5 0.2318359375 -37.7759765625 -3.8 -43.15 2.7962890625 -42.8958984375 9.25 -41.75
M 9 -9.7
Q 6.062890625 -8.45078125 3.4 -7.1 -8.4330078125 -20.3724609375 -27.35 -27.85 -37.9216796875 -31.9841796875 -49.8 -34
L -49.85 -34
Q -42.49375 -37.3669921875 -33.3 -39.75 -19.2388671875 -43.3947265625 -5.7 -43.2 -1.368359375 -37.5478515625 1.2 -33.15 8.319921875 -21.032421875 9 -9.7
M -51.1 -33.45
L -51.05 -33.45
Q -39.105859375 -31.4046875 -28.45 -27.2 -9.590625 -19.7001953125 2.15 -6.45 -1.6556640625 -4.34921875 -4.85 -1.95 -18.915625 -14.7416015625 -41.4 -18 -54.04140625 -19.7767578125 -66.9 -17.95 -69.159375 -17.5998046875 -71.4 -17.2 -64.462109375 -27.0017578125 -51.1 -33.45 Z"/>
</g>

<g id="FS_Mane_01_1_Layer2_0_FILL">
<path fill="#E781B3" stroke="none" d="
M 5.65 -25.05
Q 2.95 -27.4 0.5 -26.95 -1.1732421875 -26.8830078125 -2.7 -25.6 -3.40546875 -24.942578125 -4.1 -24
L -4.1 -23.95
Q -7.45 -19 -7.45 -8.95 -7.403125 -0.0890625 -6 11.55 -5.89921875 11.7234375 -5.7 13.15 -2.85 23.85 7.15 22.65 17.1 21.45 19.65 14.4 22.05 7.9 19.05 -3.85 17.171484375 -10.2416015625 13.9 -15.45 10.5404296875 -20.9021484375 5.65 -25.05
M 0.85 -24
Q 2.912109375 -24.07109375 6.4 -20.8 9.93671875 -17.525 12 -14 14.1080078125 -10.43046875 15.9 -3.25 18.65 7.9 16.65 13.35 14.65 18.8 9.45 19.3 4.15 19.75 0.45 18 -3.25 16.1 -3.45 11.1 -3.95 -0.85 -4 -9.55 -4 -16.409765625 -2.45 -20.25 -1.9689453125 -21.4125 -1.35 -22.3 -0.3 -23.75 0.85 -24 Z"/>

<path fill="#F4B6D1" stroke="none" d="
M 6.4 -20.8
Q 2.912109375 -24.07109375 0.85 -24 -0.3 -23.75 -1.35 -22.3 -1.9689453125 -21.4125 -2.45 -20.25 -4 -16.409765625 -4 -9.55 -3.95 -0.85 -3.45 11.1 -3.25 16.1 0.45 18 4.15 19.75 9.45 19.3 14.65 18.8 16.65 13.35 18.65 7.9 15.9 -3.25 14.1080078125 -10.43046875 12 -14 9.93671875 -17.525 6.4 -20.8 Z"/>
</g>

<g id="FS_Mane_01_1_Layer1_0_FILL">
<path fill="#F4B6D1" stroke="none" d="
M -3.5 9.75
Q -2.5 22.75 -6.65 33.6 -9.1 39.9 -16.85 52 -22.2111328125 60.4611328125 -34.25 77.05 -44.2072265625 92.107421875 -47.05 104.5 -50.437109375 119.171875 -46.35 132.55 -42.792578125 144.1611328125 -34.2 152.95 -37.5048828125 140.3580078125 -35.25 124.5 -33.4931640625 112.5251953125 -29.3 103.5 -27.07109375 98.836328125 -23.15 92.7 -18.488671875 85.838671875 -16.25 82.35 -5.7908203125 66.4216796875 -0.6 57.25 7.778515625 42.426171875 11.85 30 17.95 11.4 14.9 -8 11.65 -2.3 -3.5 9.75
M 16.75 33.5
Q 18.0669921875 29.2931640625 19 25.15 19.2703125 14.099609375 17.75 5 17.9673828125 22.022265625 9.25 41.45 4.286328125 52.4923828125 -4.6 66.65 -9.675390625 74.7185546875 -19.75 89.8 -28.212109375 102.979296875 -30.7 110.75 -34.2919921875 122.248046875 -34.55 133.9 -34.726953125 145.70703125 -31.8 155.25 -31.3787109375 155.598828125 -31 155.95 -20.826953125 164.7189453125 -10.55 168.45 -7.9681640625 169.375390625 -5.6 169.9 -11.6734375 165.573046875 -15.25 159.75 -25.7515625 142.4087890625 -17.05 112.8 -13.671875 101.3341796875 -6.55 86.1 2.0111328125 68.7611328125 6.1 60.05 13.353515625 44.8068359375 16.75 33.5
M 18.5 32.5
Q 18.44296875 32.715234375 18.35 32.9 15.044921875 43.90078125 8.25 58.35 4.28515625 66.7650390625 -4.05 83.5 -11.0951171875 98.3671875 -14.55 109.3 -24.8591796875 141.973828125 -13.85 159.1 -9.5603515625 165.7703125 -2.25 170.4 0.9265625 170.7470703125 4.05 170.1 6.7861328125 168.290625 7.8 163.3 7.3716796875 156.75234375 3.15 155.05 -0.639453125 152.953515625 -3.4 147.7 -9.3310546875 136.3658203125 -4.25 119.2 -2.6451171875 113.9150390625 1.05 104.85 5.0853515625 94.946484375 6.25 91.3 13.0892578125 70.7923828125 16.25 51.85 17.9421875 41.83046875 18.6 32.9 18.6435546875 32.4236328125 18.65 31.9 18.590625 32.2251953125 18.5 32.5 Z"/>

<path fill="#E781B3" stroke="none" d="
M 17.15 -6.2
Q 15.7 -7.8 14.9 -8 17.95 11.4 11.85 30 7.778515625 42.426171875 -0.6 57.25 -5.7908203125 66.4216796875 -16.25 82.35 -18.488671875 85.838671875 -23.15 92.7 -27.07109375 98.836328125 -29.3 103.5 -33.4931640625 112.5251953125 -35.25 124.5 -37.5048828125 140.3580078125 -34.2 152.95 -42.792578125 144.1611328125 -46.35 132.55 -50.437109375 119.171875 -47.05 104.5 -44.2072265625 92.107421875 -34.25 77.05 -22.2111328125 60.4611328125 -16.85 52 -9.1 39.9 -6.65 33.6 -2.5 22.75 -3.5 9.75
L -5.9 10.95
Q -6 23.45 -10.55 34.75 -15.068359375 46.087109375 -25.9 61.4 -39.5166015625 80.615234375 -42.75 86.5 -50.209375 99.9951171875 -51.4 113.85 -52.7111328125 129.10546875 -46.1 141.85 -41.1314453125 151.4806640625 -31.65 159.1 -22.5958984375 166.432421875 -11.9 170.1 -2.3234375 173.420703125 5.75 171.4 10.25703125 169.2263671875 10.45 162.75 10.6818359375 156.33046875 8 154.9 5.38203125 153.4630859375 4.1 152.3 -0.752734375 147.9064453125 -2.9 140.95 -4.9412109375 134.332421875 -2.7 124.6 -1.446875 119.404296875 2.55 108.8 9.3919921875 90.9123046875 11.35 84.55 17.96796875 63.039453125 20.6 42.35 23.8244140625 18.1013671875 18.55 -3.15
L 17.65 -5.6
Q 17.42890625 -5.886328125 17.15 -6.2
M 18.35 32.9
Q 18.44296875 32.715234375 18.5 32.5 18.590625 32.2251953125 18.65 31.9 18.6435546875 32.4236328125 18.6 32.9 17.9421875 41.83046875 16.25 51.85 13.0892578125 70.7923828125 6.25 91.3 5.0853515625 94.946484375 1.05 104.85 -2.6451171875 113.9150390625 -4.25 119.2 -9.3310546875 136.3658203125 -3.4 147.7 -0.639453125 152.953515625 3.15 155.05 7.3716796875 156.75234375 7.8 163.3 6.7861328125 168.290625 4.05 170.1 0.9265625 170.7470703125 -2.25 170.4 -9.5603515625 165.7703125 -13.85 159.1 -24.8591796875 141.973828125 -14.55 109.3 -11.0951171875 98.3671875 -4.05 83.5 4.28515625 66.7650390625 8.25 58.35 15.044921875 43.90078125 18.35 32.9
M 19 25.15
Q 18.0669921875 29.2931640625 16.75 33.5 13.353515625 44.8068359375 6.1 60.05 2.0111328125 68.7611328125 -6.55 86.1 -13.671875 101.3341796875 -17.05 112.8 -25.7515625 142.4087890625 -15.25 159.75 -11.6734375 165.573046875 -5.6 169.9 -7.9681640625 169.375390625 -10.55 168.45 -20.826953125 164.7189453125 -31 155.95 -31.3787109375 155.598828125 -31.8 155.25 -34.726953125 145.70703125 -34.55 133.9 -34.2919921875 122.248046875 -30.7 110.75 -28.212109375 102.979296875 -19.75 89.8 -9.675390625 74.7185546875 -4.6 66.65 4.286328125 52.4923828125 9.25 41.45 17.9673828125 22.022265625 17.75 5 19.2703125 14.099609375 19 25.15 Z"/>
</g>

<g id="FS_Mane_02_1_Layer0_0_FILL">
<path fill="#F4B6D1" stroke="none" d="
M 0.6 12.65
Q 1.670703125 9.6849609375 4.2 7.9
L -9.5 1.45
Q -10.9591796875 6.2537109375 -9.85 11.1 -8.4712890625 17.291015625 -3.8 22.15 -0.1720703125 25.9154296875 4 27.4
L 4.05 27.35
Q 6.1150390625 26.288671875 5.1 25.15 2.4015625 23.616015625 0.95 20 -0.6458984375 16.0029296875 0.6 12.65 Z"/>

<path fill="#E781B3" stroke="none" d="
M 6.3 22.55
Q 4.992578125 21.833203125 3.8 20.2 0.619140625 15.7728515625 2.7 12.35 4.6009765625 8.4328125 4.2 7.9 1.670703125 9.6849609375 0.6 12.65 -0.6458984375 16.0029296875 0.95 20 2.4015625 23.616015625 5.1 25.15 6.1150390625 26.288671875 4.05 27.35
L 4.05 27.4 4 27.4
Q -0.1720703125 25.9154296875 -3.8 22.15 -8.4712890625 17.291015625 -9.85 11.1 -10.9591796875 6.2537109375 -9.5 1.45 -10.9662109375 1.246875 -11.3 2.25 -12.076171875 4.6552734375 -12.05 8.7 -11.9365234375 15.1126953125 -8.2 20.75 -4.6244140625 26.0705078125 1.15 29.2 1.99296875 29.6724609375 2.8 30
L 2.8 30.05
Q 6.095703125 31.5845703125 7.7 28.3 9.3009765625 25.00859375 6.3 22.55 Z"/>
</g>

<g id="FS_Mane_03_1_Layer0_0_FILL">
<path fill="#F4B6D1" stroke="none" d="
M 2.35 5.95
Q 0.906640625 4.0767578125 1.35 0.8
L -1.45 1.1
Q -1.0033203125 7.08515625 2.6 9.75 6.2453125 12.4607421875 8.95 9.75 10.8919921875 7.82734375 9.9 6.05 8.8162109375 8.124609375 6.2 8.05 3.934765625 8.0201171875 2.35 5.95 Z"/>

<path fill="#E781B3" stroke="none" d="
M 13.2 7.25
Q 13.8193359375 4.41484375 10.7 2.85 9.48203125 2.2396484375 7.7 1.8 7.75859375 3.22578125 7.65 4.15
L 7.65 4.15
Q 7.3423828125 7.0908203125 5.4 5.15 4.0767578125 3.806640625 3.85 2.2 3.6515625 0.7962890625 1.35 0.8 0.906640625 4.0767578125 2.35 5.95 3.934765625 8.0201171875 6.2 8.05 8.8162109375 8.124609375 9.9 6.05 10.8919921875 7.82734375 8.95 9.75 6.2453125 12.4607421875 2.6 9.75 -1.0033203125 7.08515625 -1.45 1.1 -4.3330078125 0.7462890625 -4.05 2.85 -3.3560546875 6.9943359375 -1.5 9.35 2.2876953125 14.076171875 8.3 12.2 12.4953125 10.83125 13.2 7.25 Z"/>
</g>

<g id="FS_FrontLeg_3_4_hoof_1_Layer0_0_FILL">
<path fill="#FDF6AE" stroke="none" d="
M -7 64.1
Q -4.803125 66.512109375 -1.9 65.75 1.5046875 64.7962890625 5.8 60.1 18.1720703125 43.58515625 12.5 30 3.3931640625 18.2220703125 5.55 9.4
L -8.45 -3.65
Q -26.35234375 39.24921875 -7 64.1 Z"/>

<path fill="#EBD463" stroke="none" d="
M -8.35 -6.75
Q -9.5576171875 -7.4396484375 -10.95 -5.4 -30.083984375 39.9306640625 -9.3 66.05 -9.23828125 66.123828125 -9.2 66.15 -5.746875 69.9376953125 -1.15 68.65 2.9451171875 67.65390625 8 62.15 8.0501953125 62.1140625 8.1 62.05 21.908203125 43.6923828125 15.15 28.6 15.0853515625 28.39296875 12.2 24.8 9.3177734375 21.215234375 5.55 9.4 3.3931640625 18.2220703125 12.5 30 18.1720703125 43.58515625 5.8 60.1 1.5046875 64.7962890625 -1.9 65.75 -4.803125 66.512109375 -7 64.1 -26.35234375 39.24921875 -8.45 -3.65 -8.29921875 -3.931640625 -8.2 -4.2 -7.271484375 -6.0025390625 -8.35 -6.75 Z"/>
</g>

<g id="FS_Ear_2_Layer1_0_FILL">
<path fill="#FDF6AE" stroke="none" d="
M 1.5 -40.65
L 1.5 -40.65
Q -0.4720703125 -42.0763671875 -1.65 -42.55 -5.2015625 -39.616015625 -8.75 -30.45 -12.8826171875 -19.8533203125 -13.5 -10.8 -13.2416015625 -5.48203125 -6.75 -4.1 10.447265625 18.96171875 13 20.6
L 13.75 19.35 13.75 19.3
Q 18.0880859375 12.2681640625 18.8 3.65 19.183984375 -1.172265625 18.35 -9.35 16.7498046875 -23.881640625 8 -34.45 4.9296875 -38.1494140625 1.5 -40.65
M 6.95 -13.2
Q 6.291796875 -19.99140625 4.05 -26.35 7.77265625 -21.4501953125 8.95 -11.4 10.08671875 -1.7115234375 6.85 4.85 6.771484375 5.1154296875 6.65 5.35 6.691796875 5.0984375 6.7 4.85 6.738671875 4.7623046875 6.75 4.65 7.920703125 -3.00390625 6.95 -13.2 Z"/>

<path fill="#EBD463" stroke="none" d="
M 4.05 -26.35
Q 6.291796875 -19.99140625 6.95 -13.2 7.920703125 -3.00390625 6.75 4.65 6.738671875 4.7623046875 6.7 4.85 6.691796875 5.0984375 6.65 5.35 6.771484375 5.1154296875 6.85 4.85 10.08671875 -1.7115234375 8.95 -11.4 7.77265625 -21.4501953125 4.05 -26.35
M 10.3 -36.35
Q 6.9703125 -40.35078125 3.25 -43.05
L 3.25 -43.1
Q -0.0212890625 -45.455078125 -1.7 -45.7 -2.28046875 -45.777734375 -2.8 -45.45 -7.2623046875 -42.6033203125 -11.55 -31.55 -16.017578125 -20.0462890625 -13.5 -10.8 -12.8826171875 -19.8533203125 -8.75 -30.45 -5.2015625 -39.616015625 -1.65 -42.55 -0.4720703125 -42.0763671875 1.5 -40.65
L 1.5 -40.65
Q 4.9296875 -38.1494140625 8 -34.45 16.7498046875 -23.881640625 18.35 -9.35 19.183984375 -1.172265625 18.8 3.65 18.0880859375 12.2681640625 13.75 19.3
L 13.75 19.35 13 20.6
Q 16.1837890625 19.6201171875 19.2 12.85 20.660546875 8.46875 21.4 3.15 21.8 0.25 21.8 -2.6 21.75 -5.35 21.35 -9.65
L 21.35 -9.7
Q 19.642578125 -25.1271484375 10.3 -36.35 Z"/>
</g>
</defs>

<g transform="matrix( 0.986846923828125, 0, 0, 0.986846923828125, 690.65,309.25) ">
<g transform="matrix( 1.032806396484375, 0, 0.1952667236328125, 1.19525146484375, -2.5,149.05) ">
<g transform="matrix( 1.1522064208984375, 0, 0, 1.7481689453125, 4.4,-262.5) ">
<use filter="url(#Filter_1)" xlink:href="#FS_Shadow_0_Layer0_0_FILL"/>
</g>
</g>

<g transform="matrix( 1.1266326904296875, 0.1355438232421875, -0.209930419921875, 0.980316162109375, -122.95,-91.65) ">
<g transform="matrix( 1, 0, 0, 1, 39.9,126.75) ">
<g transform="matrix( 1, 0, 0, 1, 0,0) ">
<use xlink:href="#FS_Mane_02_11_Layer0_0_FILL"/>
</g>
</g>

<g transform="matrix( -1, 0, 0, -1, 13.25,154.85) ">
<g transform="matrix( 1, 0, 0, 1, 0,0) ">
<use xlink:href="#FS_Mane_03_11_Layer0_0_FILL"/>
</g>
</g>

<g transform="matrix( 1, 0, 0, 1, 0.05,-0.7) ">
<g transform="matrix( 1, 0, 0, 1, 0,0) ">
<use xlink:href="#FS_Mane_01_11_Layer1_0_FILL"/>
</g>
</g>
</g>

<g transform="matrix( 1, 0, 0.1742706298828125, 1.0626068115234375, 20.75,1.55) ">
<g transform="matrix( -0.0004730224609375, -0.9999847412109375, 0.9999847412109375, -0.0004730224609375, 59.55,124.15) ">
<g transform="matrix( 1, 0, 0, 1, 0,0) ">
<use xlink:href="#FS_Tail_02_0_Layer0_0_FILL"/>
</g>
</g>

<g transform="matrix( 1, 0, 0, 1, 0.7,-0.55) ">
<g transform="matrix( 1, 0, 0, 1, 0,0) ">
<use xlink:href="#FS_Tail_01_0_Layer2_0_FILL"/>
</g>
</g>

<g transform="matrix( 0.9999847412109375, -0.0004730224609375, 0.0004730224609375, 0.9999847412109375, 142.95,132.6) ">
<g transform="matrix( 1, 0, 0, 1, 0,0) ">
<use xlink:href="#FS_Tail_03_0_Layer0_0_FILL"/>
</g>
</g>
</g>

<g transform="matrix( 1.029296875, -0.004180908203125, -0.20648193359375, 0.883880615234375, -7.55,10.3) ">
<g transform="matrix( 0.907562255859375, -0.4160614013671875, 0.4160614013671875, 0.907562255859375, 5.85,91.65) ">
<g transform="matrix( 1, 0, 0, 1, 0,0) ">
<use filter="url(#Filter_2)" xlink:href="#FS_FrontLeg_3_4_hoof_6_Layer0_0_FILL"/>
</g>
</g>

<g transform="matrix( 0.86602783203125, -0.5, 0.073333740234375, 0.5456695556640625, 4.1,48.75) ">
<g transform="matrix( 1, 0, 0, 1, 0,0) ">
<use filter="url(#Filter_2)" xlink:href="#FS_KneePatch_1_Layer0_0_FILL"/>
</g>
</g>

<g transform="matrix( 0.95074462890625, 0.3094329833984375, -0.309417724609375, 0.95074462890625, 14.5,43.9) ">
<g transform="matrix( 1, 0, 0, 1, 0,0) ">
<use filter="url(#Filter_2)" xlink:href="#FS_HindLeg_3_4rear_lower_2_Layer1_0_FILL"/>
</g>

<g transform="matrix( 1, 0, 0, 1, 0,0) ">
<use filter="url(#Filter_2)" xlink:href="#FS_HindLeg_3_4rear_lower_2_Layer0_0_FILL"/>
</g>
</g>

<g transform="matrix( 1.0980224609375, 0, -0.0869140625, 0.922088623046875, 5.95,-9.8) ">
<g transform="matrix( 1, 0, 0, 1, 0,0) ">
<use filter="url(#Filter_2)" xlink:href="#FS_HindLeg_3_4_top_0_Layer0_0_FILL"/>
</g>
</g>

<g transform="matrix( 0.86602783203125, -0.5, 0.073333740234375, 0.5456695556640625, 4.1,48.75) ">
<g transform="matrix( 1, 0, 0, 1, 0,0) ">
<use filter="url(#Filter_2)" xlink:href="#FS_KneePatch_0_Layer0_0_FILL"/>
</g>
</g>
</g>

<g transform="matrix( 0.7043609619140625, 0.69158935546875, -0.75830078125, 0.6246490478515625, -54.85,61.45) ">
<g transform="matrix( 0.995452880859375, 0.0920257568359375, -0.0920257568359375, 0.995452880859375, -3.9,-6.9) ">
<g transform="matrix( 1, 0, 0, 1, 0,0) ">
<use xlink:href="#FS_FrontLeg_3_4_upper_1_Layer2_0_FILL"/>
</g>

<g transform="matrix( 1, 0, 0, 1, 0,0) ">
<use xlink:href="#FS_FrontLeg_3_4_upper_1_Layer1_0_FILL"/>
</g>
</g>

<g transform="matrix( -0.0614166259765625, 0.9964599609375, -0.9964599609375, -0.0614166259765625, -2.3,10.6) ">
<g transform="matrix( 1, 0, 0, 1, 0,0) ">
<use xlink:href="#FS_FrontLeg_3_4_lower_11_Layer2_0_FILL"/>
</g>
</g>
</g>

<g transform="matrix( 0.764373779296875, -0.0022125244140625, 0.1739501953125, 0.997894287109375, -42.9,10.6) ">
<g transform="matrix( 1, 0, 0, 1, 0,0) ">
<use filter="url(#Filter_3)" xlink:href="#FS_Wing_3_4far_8_Layer5_0_FILL"/>
</g>
</g>

<g transform="matrix( 1, 0, 0, 1, -20.3,27.8) ">
<g transform="matrix( 1, 0, 0, 1, 0,0) ">
<use xlink:href="#FS_Torso_1_Layer1_0_FILL"/>
</g>
</g>

<g transform="matrix( 0.9791412353515625, 0.0678863525390625, -0.3102264404296875, 0.9375, -21.3,14.45) ">
<g transform="matrix( 1, 0, 0, 1, 0,0) ">
<use xlink:href="#FS_Neck_4_Layer1_0_FILL"/>
</g>

<g transform="matrix( 1, 0, 0, 1, 0,0) ">
<use xlink:href="#FS_Neck_4_Layer0_0_FILL"/>
</g>
</g>

<g transform="matrix( 1, 0, -0.05902099609375, 1.0426025390625, 15,6.35) ">
<g transform="matrix( 1, 0, 0, 1, 17.55,127.9) ">
<g transform="matrix( 1, 0, 0, 1, 0,0) ">
<use xlink:href="#FS_FrontLeg_3_4_hoof_4_Layer0_0_FILL"/>
</g>
</g>

<g transform="matrix( 1, 0, 0, 1, 5.05,57.05) ">
<g transform="matrix( 1, 0, 0, 1, 0,0) ">
<use xlink:href="#FS_KneePatch_1_Layer0_0_FILL"/>
</g>
</g>

<g transform="matrix( 1, 0, 0, 1, 8.7,62.65) ">
<g transform="matrix( 1, 0, 0, 1, 0,0) ">
<use xlink:href="#FS_HindLeg_3_4rear_lower_0_Layer1_0_FILL"/>
</g>

<g transform="matrix( 1, 0, 0, 1, 0,0) ">
<use xlink:href="#FS_HindLeg_3_4rear_lower_0_Layer0_0_FILL"/>
</g>
</g>

<g transform="matrix( 1, 0, -0.0095977783203125, 1.0159912109375, 5.95,-9.8) ">
<g transform="matrix( 1, 0, 0, 1, 0,0) ">
<use xlink:href="#FS_HindLeg_3_4_top_0_Layer0_0_FILL"/>
</g>
</g>

<g transform="matrix( 1, 0, 0, 1, 5.05,57.05) ">
<g transform="matrix( 1, 0, 0, 1, 0,0) ">
<use xlink:href="#FS_KneePatch_0_Layer0_0_FILL"/>
</g>
</g>

<g transform="matrix( 0.4976043701171875, 0, 0.0605010986328125, 1, 6.4,16.6) ">
<g transform="matrix( 1, 0, 0, 1, 0,0) ">
<use xlink:href="#FS_CutieMark_1_Layer0_0_FILL"/>
</g>
</g>
</g>

<g transform="matrix( 1, 0, 0, 1, 2.05,39.2) ">
<g transform="matrix( 1, 0, 0, 1, 0,0) ">
<use xlink:href="#FS_Torso_overlap__0_Layer0_0_FILL"/>
</g>
</g>

<g transform="matrix( 0.999542236328125, 0.0297088623046875, -0.1259918212890625, 0.9460906982421875, -28,52.2) ">
<g transform="matrix( 1, 0, 0, 1, 2.2,86.4) ">
<g transform="matrix( 1, 0, 0, 1, 0,0) ">
<use xlink:href="#FS_FrontLeg_3_4_hoof_0_Layer0_0_FILL"/>
</g>
</g>

<g transform="matrix( 0.999969482421875, -0.0043792724609375, -0.001129150390625, 1, 0.15,0.35) ">
<g transform="matrix( 1, 0, 0, 1, 0,0) ">
<use xlink:href="#FS_FrontLeg_3_4_upper_2_Layer1_0_FILL"/>
</g>
</g>
</g>

<g transform="matrix( 0.897613525390625, -0.002593994140625, 0.0028839111328125, 0.998382568359375, -8.95,11.1) ">
<g transform="matrix( 1, 0, 0, 1, 0,0) ">
<use xlink:href="#FS_Wing_3_4_12_Layer5_0_FILL"/>
</g>
</g>

<g transform="matrix( 0.9999847412109375, 0.0040740966796875, -0.0040740966796875, 0.9999847412109375, -45.45,-30.95) ">
<g transform="matrix( 0.9922943115234375, -0.0222930908203125, 0.0138397216796875, 0.9994049072265625, -4.1,-15.8) ">
<g transform="matrix( 1, 0, 0, 1, 0,0) ">
<use xlink:href="#FS_Skull_0_Layer0_0_FILL"/>
</g>
</g>

<mask id="Mask_Mask_1">
<g transform="matrix( 1.4593505859375, 0, 0.0145263671875, 1.1885223388671875, -41.75,-9.95) ">
<g transform="matrix( 1, 0, 0, 1, 0,0) ">
<use xlink:href="#Mask_Mask_FS_EyeWhite_3_4far2_0_Layer0_0_FILL"/>
</g>
</g>
</mask>

<g mask="url(#Mask_Mask_1)">
<g transform="matrix( 1.4593505859375, 0, 0.0145263671875, 1.1885223388671875, -41.75,-9.95) ">
<g transform="matrix( 1, 0, 0, 1, 0,0) ">
<use xlink:href="#FS_EyeWhite_3_4far2_0_Layer0_0_FILL"/>
</g>
</g>
</g>

<g mask="url(#Mask_Mask_1)">
<g transform="matrix( 0.448150634765625, 0, 0.009185791015625, 0.8213653564453125, -37.2,-5.5) ">
<g transform="matrix( 1, 0, 0, 1, 0,0) ">
<use xlink:href="#FS_Iris_0_Layer1_0_FILL"/>
</g>

<g transform="matrix( 1, 0, 0, 1, 0,0) ">
<use xlink:href="#FS_Iris_0_Layer0_0_FILL"/>
</g>

<g transform="matrix( 1, 0, 0, 1, 0,0) ">
<use xlink:href="#FS_Iris_0_Layer0_1_FILL"/>
</g>
</g>
</g>

<g mask="url(#Mask_Mask_1)">
<g transform="matrix( 0.4449920654296875, -0.135284423828125, 0.0912322998046875, 0.810699462890625, -37.45,-5.1) ">
<g transform="matrix( 1, 0, 0, 1, 0,0) ">
<use xlink:href="#FS_Pupil_0_Layer0_0_FILL"/>
</g>
</g>
</g>

<g mask="url(#Mask_Mask_1)">
<g transform="matrix( 0.60589599609375, -0.1535797119140625, 0.0658416748046875, 0.8359527587890625, -34.55,-11.85) ">
<g transform="matrix( 1, 0, 0, 1, 0,0) ">
<use xlink:href="#FS_Hilights_0_Layer1_0_FILL"/>
</g>
</g>
</g>

<mask id="Mask_Mask_2">
<g transform="matrix( 0.9438018798828125, 0.0000152587890625, 0.0134735107421875, 0.9999847412109375, 10.15,-5.35) ">
<g transform="matrix( 1, 0, 0, 1, 0,0) ">
<use xlink:href="#Mask_Mask_FS_EyeWhite_3_4_0_Layer0_0_FILL"/>
</g>
</g>
</mask>

<g mask="url(#Mask_Mask_2)">
<g transform="matrix( 0.9438018798828125, 0.0000152587890625, 0.0134735107421875, 0.9999847412109375, 10.15,-5.35) ">
<g transform="matrix( 1, 0, 0, 1, 0,0) ">
<use xlink:href="#FS_EyeWhite_3_4_0_Layer0_0_FILL"/>
</g>
</g>
</g>

<g mask="url(#Mask_Mask_2)">
<g transform="matrix( -0.6894989013671875, 0.0349578857421875, 0.0204620361328125, 0.9608001708984375, 0.55,-3.8) ">
<g transform="matrix( 1, 0, 0, 1, 0,0) ">
<use xlink:href="#FS_Iris_0_Layer1_0_FILL"/>
</g>

<g transform="matrix( 1, 0, 0, 1, 0,0) ">
<use xlink:href="#FS_Iris_0_Layer0_0_FILL"/>
</g>

<g transform="matrix( 1, 0, 0, 1, 0,0) ">
<use xlink:href="#FS_Iris_0_Layer0_1_FILL"/>
</g>
</g>
</g>

<g mask="url(#Mask_Mask_2)">
<g transform="matrix( 0.7586517333984375, -0.263671875, 0.251373291015625, 0.96014404296875, 0.25,-2.75) ">
<g transform="matrix( 1, 0, 0, 1, 0,0) ">
<use xlink:href="#FS_Pupil_0_Layer0_0_FILL"/>
</g>
</g>
</g>

<g mask="url(#Mask_Mask_2)">
<g transform="matrix( 0.9228973388671875, -0.0467987060546875, 0.0790557861328125, 0.9950714111328125, 5.05,-9.65) ">
<g transform="matrix( 1, 0, 0, 1, 0,0) ">
<use xlink:href="#FS_Hilights_0_Layer1_0_FILL"/>
</g>
</g>
</g>

<g transform="matrix( 1.4593505859375, 0, 0.0145263671875, 1.1885223388671875, -41.75,-9.95) ">
<g transform="matrix( 1, 0, 0, 1, 0,0) ">
<use xlink:href="#FS_Blink_3_4far_3_Layer9_0_FILL"/>
</g>

<g transform="matrix( 1, 0, 0, 1, 0,0) ">
<use xlink:href="#FS_Blink_3_4far_3_Layer7_0_FILL"/>
</g>

<g transform="matrix( 1, 0, 0, 1, 0,0) ">
<use xlink:href="#FS_Blink_3_4far_3_Layer4_0_FILL"/>
</g>

<g transform="matrix( 1, 0, 0, 1, 0,0) ">
<use xlink:href="#FS_Blink_3_4far_3_Layer3_0_FILL"/>
</g>
</g>

<g transform="matrix( 0.943817138671875, 0, 0.013671875, 1.01397705078125, 9.75,-7.45) ">
<g transform="matrix( 1, 0, 0, 1, 0,0) ">
<use xlink:href="#FS_Blink_3_4_3_Layer5_0_FILL"/>
</g>

<g transform="matrix( 1, 0, 0, 1, 0,0) ">
<use xlink:href="#FS_Blink_3_4_3_Layer4_0_FILL"/>
</g>

<g transform="matrix( 1, 0, 0, 1, 0,0) ">
<use xlink:href="#FS_Blink_3_4_3_Layer2_0_FILL"/>
</g>

<g transform="matrix( 1, 0, 0, 1, 0,0) ">
<use xlink:href="#FS_Blink_3_4_3_Layer1_0_FILL"/>
</g>

<g transform="matrix( 1, 0, 0, 1, 0,0) ">
<use xlink:href="#FS_Blink_3_4_3_Layer1_1_FILL"/>
</g>

<g transform="matrix( 1, 0, 0, 1, 0,0) ">
<use xlink:href="#FS_Blink_3_4_3_Layer1_2_FILL"/>
</g>
</g>

<g transform="matrix( 0.9308929443359375, -0.024810791015625, 0, 1.02996826171875, 26.75,-12.3) ">
<g transform="matrix( 1, 0, 0, 1, 0,0) ">
<use xlink:href="#FS_Brow_3_4_8_Layer4_0_FILL"/>
</g>

<g transform="matrix( 1, 0, 0, 1, 0,0) ">
<use xlink:href="#FS_Brow_3_4_8_Layer0_0_FILL"/>
</g>
</g>

<g transform="matrix( -1.4005126953125, -0.0037078857421875, 0.0531768798828125, 1.0863494873046875, -48.85,-10.8) ">
<g transform="matrix( 1, 0, 0, 1, 0,0) ">
<use xlink:href="#FS_Brow_3_4rear_8_Layer5_0_FILL"/>
</g>

<g transform="matrix( 1, 0, 0, 1, 0,0) ">
<use xlink:href="#FS_Brow_3_4rear_8_Layer4_0_FILL"/>
</g>
</g>

<g transform="matrix( 0.97918701171875, -0.0371551513671875, -0.0081024169921875, 0.999725341796875, -9.9,18.05) ">
<g transform="matrix( 1, 0, 0, 1, 0,0) ">
<use xlink:href="#FS_Mouth_3_4_40_Layer10_0_FILL"/>
</g>

<g transform="matrix( 1, 0, 0, 1, -23.05,-13.6) ">
<g transform="matrix( 1, 0, 0, 1, 0,0) ">
<use xlink:href="#FS_Nose_0_Layer1_0_FILL"/>
</g>
</g>

<g transform="matrix( 1, 0, 0, 1, 0,0) ">
<use xlink:href="#FS_Mouth_3_4_40_Layer7_0_FILL"/>
</g>

<g transform="matrix( 1, 0, 0, 1, 0,0) ">
<use xlink:href="#FS_Mouth_3_4_40_Layer4_0_FILL"/>
</g>
</g>

<g transform="matrix( 1, 0, -0.003814697265625, 1, -32.4,18.45) ">
<g transform="matrix( 1, 0, 0, 1, 0.1,0.05) ">
<g transform="matrix( 1, 0, 0, 1, 0,0) ">
<use xlink:href="#FS_Nostril_3_4_0_Layer0_0_FILL"/>
</g>
</g>
</g>

<g transform="matrix( 0.9198760986328125, 0, 0, 1, -10.6,-44.7) ">
<g transform="matrix( 1, 0, 0, 1, 0,0) ">
<use xlink:href="#FS_Hair_01_1_Layer3_0_FILL"/>
</g>
</g>
</g>

<g transform="matrix( 0.9382476806640625, 0.0811004638671875, -0.1990966796875, 0.98651123046875, -0.8,-51.7) ">
<g transform="matrix( 0.999969482421875, -0.0093841552734375, 0.0096893310546875, 0.999786376953125, 0,-0.05) ">
<g transform="matrix( 1, 0, 0, 1, 0,0) ">
<use xlink:href="#FS_Mane_01_1_Layer2_0_FILL"/>
</g>

<g transform="matrix( 1, 0, 0, 1, 0,0) ">
<use xlink:href="#FS_Mane_01_1_Layer1_0_FILL"/>
</g>
</g>

<g transform="matrix( -0.4681549072265625, -0.88037109375, 0.880096435546875, -0.46832275390625, -0.2,162.3) ">
<g transform="matrix( 1, 0, 0, 1, 0,0) ">
<use xlink:href="#FS_Mane_02_1_Layer0_0_FILL"/>
</g>
</g>

<g transform="matrix( -0.999969482421875, 0.0093841552734375, -0.0096893310546875, -0.999786376953125, 20.75,147.6) ">
<g transform="matrix( 1, 0, 0, 1, 0,0) ">
<use xlink:href="#FS_Mane_03_1_Layer0_0_FILL"/>
</g>
</g>
</g>

<g transform="matrix( 0.7043609619140625, 0.69158935546875, -0.75830078125, 0.6246490478515625, -54.85,61.45) ">
<g transform="matrix( 0.156890869140625, 0.9873504638671875, 0.9873504638671875, -0.156890869140625, -27.2,12.25) ">
<g transform="matrix( 1, 0, 0, 1, 0,0) ">
<use xlink:href="#FS_FrontLeg_3_4_hoof_1_Layer0_0_FILL"/>
</g>
</g>
</g>

<g transform="matrix( 0.896636962890625, 0.407470703125, -0.4172210693359375, 0.90228271484375, -14.5,-63.7) ">
<g transform="matrix( 1, 0, 0, 1, 0,0) ">
<use xlink:href="#FS_Ear_2_Layer1_0_FILL"/>
</g>
</g>
</g>
</svg>
