
<svg xmlns="http://www.w3.org/2000/svg" version="1.1" xmlns:xlink="http://www.w3.org/1999/xlink" preserveAspectRatio="none" x="0px" y="0px" width="864px" height="486px" viewBox="0 0 864 486">
<defs>
<linearGradient id="Gradient_1" gradientUnits="userSpaceOnUse" x1="-33.8" y1="-21.2875" x2="-46.900000000000006" y2="1.387500000000001" spreadMethod="pad">
<stop  offset="0%" stop-color="#015350"/>

<stop  offset="2.7450980392156863%" stop-color="#025B58"/>

<stop  offset="9.019607843137255%" stop-color="#046B67"/>

<stop  offset="14.901960784313726%" stop-color="#047672"/>

<stop  offset="19.607843137254903%" stop-color="#057975"/>

<stop  offset="28.235294117647058%" stop-color="#058581"/>

<stop  offset="42.35294117647059%" stop-color="#009590"/>

<stop  offset="58.03921568627451%" stop-color="#00A19D"/>

<stop  offset="75.68627450980392%" stop-color="#00AAA5"/>

<stop  offset="100%" stop-color="#00ADA8"/>
</linearGradient>

<filter id="Filter_1" x="-20%" y="-20%" width="140%" height="140%" color-interpolation-filters="sRGB">
<feColorMatrix in="SourceGraphic" type="matrix" values="1 0 0 0 0 0 1 0 0 0 0 0 1 0 0 0 0 0 0.21 0" result="result1"/>
</filter>

<filter id="Filter_2" x="-20%" y="-20%" width="140%" height="140%" color-interpolation-filters="sRGB">
<feColorMatrix in="SourceGraphic" type="matrix" values="1 0 0 0 0.0196078431372549 0 1 0 0 -0.06274509803921569 0 0 1 0 -0.12156862745098039 0 0 0 1 0" result="result1"/>
</filter>

<g id="FS_Shadow_0_Layer0_0_FILL">
<path fill="#000000" stroke="none" d="
M 46.4 155.05
Q 68.65 152.95 68.65 149.95 68.65 146.95 46.4 144.8 24.15 142.7 -7.4 142.7 -38.9 142.7 -61.2 144.8 -83.45 146.95 -83.45 149.95 -83.45 152.95 -61.2 155.05 -38.9 157.2 -7.4 157.2 24.15 157.2 46.4 155.05 Z"/>
</g>

<g id="FS_Tail_02_1_Layer0_0_FILL">
<path fill="#E781B3" stroke="none" d="
M 9.8 -1.45
Q 9.6384765625 -4.0634765625 9 -5.25 7.6826171875 -7.69921875 2.3 -8.45 -11.4994140625 -10.4962890625 -9.75 3.65 -8.732421875 9.0869140625 -5.4 14.7 -3.3482421875 18.1990234375 0.55 24.35 4.4859375 31.8990234375 5.35 38.25 6.044140625 42.851953125 5.25 47.05 4.4296875 51.473828125 1.65 54.2 -1.088671875 56.913671875 0.75 59.8 2.9927734375 62.885546875 6.05 62 7.169921875 61.3546875 7.9 60.6 17.740234375 50.7388671875 15.85 37.65 15.530859375 35.455078125 14.5 32.15 13.05625 27.3943359375 12.9 26.75 12.216796875 24.1498046875 10.05 17.15 8.5236328125 12.271484375 8.2 10.2 7.9283203125 7.7810546875 8.35 5.65 8.539453125 4.8724609375 8.8 4.05 10.0759765625 -1.79921875 9.8 -1.45
M 2.25 -6.65
Q 5.6392578125 -6.443359375 7 -4 8.3701171875 -1.4966796875 7.2 3.05 6.892578125 4.416796875 6.75 5.45 6.45546875 7.616015625 6.85 10.4 7.1994140625 12.86640625 8.25 17 8.3828125 17.5181640625 10.7 26.2 12.6921875 33.7578125 13.15 37.15 14.00859375 43.4537109375 12.75 48.2 11.2421875 53.9986328125 5.8 58.95 3.5384765625 60.113671875 2.6 58.2 1.6654296875 56.2947265625 3.65 54.15
L 3.6 54.15
Q 8.25859375 48.8390625 6.75 37.9 5.6484375 30.0841796875 2.25 23.55 -1.5716796875 17.221484375 -3.45 13.7 -6.005078125 8.8408203125 -7.1 4.15
L -7.05 4.2
Q -8.0599609375 -7.76171875 2.25 -6.65 Z"/>

<path fill="#F4B6D1" stroke="none" d="
M 7 -4
Q 5.6392578125 -6.443359375 2.25 -6.65 -8.0599609375 -7.76171875 -7.05 4.2
L -7.1 4.15
Q -6.005078125 8.8408203125 -3.45 13.7 -1.5716796875 17.221484375 2.25 23.55 5.6484375 30.0841796875 6.75 37.9 8.25859375 48.8390625 3.6 54.15
L 3.65 54.15
Q 1.6654296875 56.2947265625 2.6 58.2 3.5384765625 60.113671875 5.8 58.95 11.2421875 53.9986328125 12.75 48.2 14.00859375 43.4537109375 13.15 37.15 12.6921875 33.7578125 10.7 26.2 8.3828125 17.5181640625 8.25 17 7.1994140625 12.86640625 6.85 10.4 6.45546875 7.616015625 6.75 5.45 6.892578125 4.416796875 7.2 3.05 8.3701171875 -1.4966796875 7 -4 Z"/>
</g>

<g id="FS_Tail_01_1_Layer2_0_FILL">
<path fill="#F4B6D1" stroke="none" d="
M 75.35 3.9
Q 76.0599609375 12.2306640625 72.85 23.85 70.61953125 32.058203125 62.55 46.4 54.523828125 60.7109375 52.95 65.95
L 52.95 65.95
Q 50.3849609375 75.7908203125 52.55 82.35
L 52.55 82.35
Q 54.9251953125 89.515625 62.9 90.7 63.6904296875 90.823828125 64.55 90.9
L 66.45 77.1
Q 65.89609375 77.0798828125 65.35 77 63.1388671875 76.798046875 61 75.75
L 60.95 75.7 60.9 75.7
Q 58.6134765625 74.4146484375 58.2 72.3 57.811328125 70.2390625 59.2 67.8 60.1337890625 66.1322265625 62.4 63.6 63.655078125 62.25625 66.1 59.9 68.28046875 57.8732421875 68.75 57.25 72.8224609375 52.2865234375 74.1 50.1 77.5173828125 44.24296875 78.85 36.3 79.5453125 31.5203125 79.25 25.55 78.927734375 19.5359375 77.65 13.1 76.725 8.4349609375 75.35 3.9
M 15 -8.35
Q 21.933984375 -9.76640625 27.75 -5.65 32.9626953125 -2.0234375 37.5 5.85 40.758203125 11.8689453125 42.1 18.7 44.205859375 29.189453125 41.7 41.7 40.8625 45.9908203125 39.3 51.15 38.47734375 53.988671875 37.05 58.45 32.71484375 73.6978515625 34.15 80.9 34.7427734375 83.7904296875 36.15 85.7 37.515625 87.522265625 39.9 88.8 43.27265625 90.6185546875 49.7 91.45 45.4970703125 88.5783203125 44.85 81.5 44.3880859375 76.47265625 46.45 68.5 47.870703125 63.1326171875 51.45 53.15 55.722265625 41.2689453125 57 36.95 59.803515625 27.9478515625 60.45 21.75 61.094921875 11.751953125 57.9 3.7 53.8208984375 -6.4375 43.8 -12.55
L 43.8 -12.55
Q 28.5828125 -21.816796875 14.3 -15.35 6.3330078125 -11.725390625 -3.85 0 -3.692578125 0.40390625 -3.4 0.7 -1.4265625 2.8283203125 0 0.75
L 0.05 0.75
Q 8.1263671875 -6.9275390625 15 -8.35
M 40.1 -35.35
Q 35.2837890625 -35.732421875 30.6 -34.95 17.369921875 -32.630859375 7.2 -20.3 2.1060546875 -14.116796875 -3.2 -3.25 -3.82578125 -2.208984375 -4 -1.35
L -2.2 -3.5
Q 5.341796875 -12.6 13.8 -16.45 28.6169921875 -23.18359375 44.4 -13.55
L 44.4 -13.6
Q 54.77890625 -7.2623046875 59 3.25 62.305078125 11.5478515625 61.65 21.85 60.996484375 28.151953125 58.15 37.3 56.877734375 41.630859375 52.6 53.55 49.02890625 63.4671875 47.6 68.8 45.61171875 76.52734375 46.05 81.4 46.71640625 88.6744140625 51.45 91.1 52.3783203125 91.5728515625 53.45 91.85 57.45390625 92.1216796875 61.1 91.6 53.7345703125 89.8447265625 51.4 82.7
L 51.4 82.75
Q 49.1150390625 75.908984375 51.8 65.65
L 51.8 65.6
Q 53.3759765625 60.2892578125 61.5 45.8 69.48046875 31.641796875 71.7 23.55 74.9859375 11.6314453125 74.1 3.25 73.949609375 1.9876953125 73.75 0.75 73.237890625 -1.9984375 72.25 -4.9 69.0078125 -12.776171875 64.7 -18.95 59.7056640625 -26.13125 53.8 -30.25 47.3310546875 -34.70546875 40.1 -35.35 Z"/>

<path fill="#E781B3" stroke="none" d="
M 30.65 -38.3
Q 16.5865234375 -35.7935546875 5.7 -21.75 2.0447265625 -17.0740234375 -1.25 -11.05 -2.9650390625 -7.8431640625 -4.95 -3.65
L -5.25 -3.05
Q -6.549609375 0.2072265625 -5.05 2.15 -1.8333984375 5.295703125 0.85 3.2
L 4.95 -1.1
Q 10.1501953125 -5.64453125 15.65 -6.8 21.7359375 -7.8076171875 26.95 -4.1 31.89140625 -0.630859375 36.1 6.75 37.6046875 9.4796875 38.55 12.75 39.141796875 14.8482421875 39.9 18.8 41.9005859375 28.7564453125 39.25 41.15 38.3498046875 45.341796875 36.75 50.55 35.8728515625 53.42890625 34.4 58 32.0576171875 66.3369140625 31.25 71.7 30.4111328125 77.4720703125 31.15 81.35 31.788671875 84.6033203125 33.85 87.25 35.7841796875 89.7755859375 38.45 91.2 40.9359375 92.48359375 44.45 93.25 47.4923828125 93.921875 52 94.35 54.5048828125 94.5849609375 57.7 94.4 59.48671875 94.2974609375 61.05 94.1 64.498828125 93.519140625 64.55 90.9 63.6904296875 90.823828125 62.9 90.7 54.9251953125 89.515625 52.55 82.35
L 52.55 82.35
Q 50.3849609375 75.7908203125 52.95 65.95
L 52.95 65.95
Q 54.523828125 60.7109375 62.55 46.4 70.61953125 32.058203125 72.85 23.85 76.0599609375 12.2306640625 75.35 3.9 76.725 8.4349609375 77.65 13.1 78.927734375 19.5359375 79.25 25.55 79.5453125 31.5203125 78.85 36.3 77.5173828125 44.24296875 74.1 50.1 72.8224609375 52.2865234375 68.75 57.25 68.28046875 57.8732421875 66.1 59.9 63.655078125 62.25625 62.4 63.6 60.1337890625 66.1322265625 59.2 67.8 57.811328125 70.2390625 58.2 72.3 58.6134765625 74.4146484375 60.9 75.7
L 60.95 75.7 61 75.75
Q 63.1388671875 76.798046875 65.35 77 65.89609375 77.0798828125 66.45 77.1 65.6775390625 75.4 63.35 74.8 62.5044921875 74.51875 61.55 74.05 60.040625 73.1970703125 59.8 72 59.5447265625 70.8509765625 60.6 68.85 61.4546875 66.64296875 66.1 62.9 71.7890625 58.303125 74.3 55 76.6107421875 51.9638671875 78.3 47.55 79.9982421875 43.103515625 80.85 37.9 81.6375 32.5640625 81.5 25.95 81.3271484375 18.7345703125 80.05 12.45 78.29921875 3.495703125 74.85 -5.3 71.130859375 -14.7142578125 66.4 -21.55 61.2140625 -28.9810546875 55 -33.35 48.177734375 -38.0544921875 40.55 -38.7 35.4720703125 -39.1326171875 30.65 -38.3
M 30.6 -34.95
Q 35.2837890625 -35.732421875 40.1 -35.35 47.3310546875 -34.70546875 53.8 -30.25 59.7056640625 -26.13125 64.7 -18.95 69.0078125 -12.776171875 72.25 -4.9 73.237890625 -1.9984375 73.75 0.75 73.949609375 1.9876953125 74.1 3.25 74.9859375 11.6314453125 71.7 23.55 69.48046875 31.641796875 61.5 45.8 53.3759765625 60.2892578125 51.8 65.6
L 51.8 65.65
Q 49.1150390625 75.908984375 51.4 82.75
L 51.4 82.7
Q 53.7345703125 89.8447265625 61.1 91.6 57.45390625 92.1216796875 53.45 91.85 52.3783203125 91.5728515625 51.45 91.1 46.71640625 88.6744140625 46.05 81.4 45.61171875 76.52734375 47.6 68.8 49.02890625 63.4671875 52.6 53.55 56.877734375 41.630859375 58.15 37.3 60.996484375 28.151953125 61.65 21.85 62.305078125 11.5478515625 59 3.25 54.77890625 -7.2623046875 44.4 -13.6
L 44.4 -13.55
Q 28.6169921875 -23.18359375 13.8 -16.45 5.341796875 -12.6 -2.2 -3.5
L -4 -1.35
Q -3.82578125 -2.208984375 -3.2 -3.25 2.1060546875 -14.116796875 7.2 -20.3 17.369921875 -32.630859375 30.6 -34.95
M 27.75 -5.65
Q 21.933984375 -9.76640625 15 -8.35 8.1263671875 -6.9275390625 0.05 0.75
L 0 0.75
Q -1.4265625 2.8283203125 -3.4 0.7 -3.692578125 0.40390625 -3.85 0 6.3330078125 -11.725390625 14.3 -15.35 28.5828125 -21.816796875 43.8 -12.55
L 43.8 -12.55
Q 53.8208984375 -6.4375 57.9 3.7 61.094921875 11.751953125 60.45 21.75 59.803515625 27.9478515625 57 36.95 55.722265625 41.2689453125 51.45 53.15 47.870703125 63.1326171875 46.45 68.5 44.3880859375 76.47265625 44.85 81.5 45.4970703125 88.5783203125 49.7 91.45 43.27265625 90.6185546875 39.9 88.8 37.515625 87.522265625 36.15 85.7 34.7427734375 83.7904296875 34.15 80.9 32.71484375 73.6978515625 37.05 58.45 38.47734375 53.988671875 39.3 51.15 40.8625 45.9908203125 41.7 41.7 44.205859375 29.189453125 42.1 18.7 40.758203125 11.8689453125 37.5 5.85 32.9626953125 -2.0234375 27.75 -5.65 Z"/>
</g>

<g id="FS_Tail_03_1_Layer0_0_FILL">
<path fill="#F4B6D1" stroke="none" d="
M 4.15 7.1
Q 4.7615234375 4.0548828125 2.85 0 2.8634765625 0 2.85 -0.05 -0.156640625 -1.5763671875 -2.2 1.5
L -2.25 1.5
Q -0.0748046875 5.759375 -0.75 9.15 -1.31015625 11.9818359375 -3.65 13.75
L -3.7 13.8
Q -2.337890625 13.4439453125 -1.7 13.15 3.3994140625 11.138671875 4.15 7.1 Z"/>

<path fill="#E781B3" stroke="none" d="
M 2.85 0
Q 4.7615234375 4.0548828125 4.15 7.1 3.3994140625 11.138671875 -1.7 13.15 -2.337890625 13.4439453125 -3.7 13.8
L -3.65 13.75
Q -1.31015625 11.9818359375 -0.75 9.15 -0.0748046875 5.759375 -2.25 1.5 -2.66015625 1.6240234375 -2.95 2.8 -1.1783203125 6.3412109375 -1.7 8.95 -2.076171875 10.9205078125 -3.9 12.35 -4.3296875 12.7044921875 -5.55 13.05 -7.052734375 13.5765625 -8.55 13.65 -11.9513671875 13.81484375 -13.45 12.65 -15.3125 11.215234375 -13 8.2 -16.596484375 10.3546875 -15.35 12.6 -14.24765625 14.6447265625 -10.45 15.5 -8.0564453125 15.976171875 -4.9 15.55 -2.45703125 15.236328125 -1.05 14.65 1.910546875 13.525 3.4 12.3 5.5947265625 10.5140625 6.1 7.8 6.831640625 4.164453125 5.55 0.6 5.0193359375 -0.1482421875 2.85 -0.05 2.8634765625 0 2.85 0 Z"/>
</g>

<g id="FS_FrontLeg_3_4_hoof_4_Layer0_0_FILL">
<path fill="#F26F31" stroke="none" d="
M -13.4 -12.85
L -13.4 -12.85 -13.4 -12.85 -13.4 -12.85 Z"/>

<path fill="#EBD463" stroke="none" d="
M -1.15 -18.45
L -1.2 -18.45
Q -9.624609375 -17.8423828125 -13.4 -12.85
L -13.4 -12.85
Q -16.978515625 -8.244140625 -19.45 -3.2
L -19.45 -3.25
Q -21.8619140625 1.6474609375 -24.65 7.7 -26.3091796875 11.4185546875 -25.4 13.65 -24.5841796875 16.204296875 -21 17 -15.576171875 18.259765625 -2.15 18.05 12.0072265625 17.7810546875 15.25 13.85 18.7416015625 10.1349609375 18.9 1.1 19.00546875 -7.925390625 13.05 -13.5 7.154296875 -19.091015625 -1.15 -18.45
M -0.95 -15.45
L -0.95 -15.45
Q 6.0544921875 -16.0005859375 11 -11.3 15.99453125 -6.574609375 15.9 1.05 15.7583984375 8.665625 13 11.85 10.0958984375 14.81875 -2.2 15.05 -15.123828125 15.2400390625 -20.35 14.05 -22.069140625 13.694921875 -22.6 12.65 -22.9419921875 11.2833984375 -21.9 8.95 -19.13828125 2.9525390625 -16.75 -1.9
L -16.75 -1.9
Q -14.421484375 -6.655859375 -11.05 -11
L -11 -11
Q -7.869921875 -14.9509765625 -0.95 -15.45 Z"/>

<path fill="#FDF6AE" stroke="none" d="
M -0.95 -15.45
L -0.95 -15.45
Q -7.869921875 -14.9509765625 -11 -11
L -11.05 -11
Q -14.421484375 -6.655859375 -16.75 -1.9
L -16.75 -1.9
Q -19.13828125 2.9525390625 -21.9 8.95 -22.9419921875 11.2833984375 -22.6 12.65 -22.069140625 13.694921875 -20.35 14.05 -15.123828125 15.2400390625 -2.2 15.05 10.0958984375 14.81875 13 11.85 15.7583984375 8.665625 15.9 1.05 15.99453125 -6.574609375 11 -11.3 6.0544921875 -16.0005859375 -0.95 -15.45 Z"/>
</g>

<g id="FS_KneePatch_1_Layer0_0_FILL">
<path fill="#EBD463" stroke="none" d="
M 10.75 -8.3
L 10.75 -8.45
Q 10.999609375 -9.6171875 11 -10.9 11.0111328125 -16.75078125 6.7 -21.15 2.4033203125 -25.5216796875 -3.55 -25.85 -9.52421875 -26.1814453125 -13.85 -22.55 -18.2634765625 -18.8869140625 -18.25 -13.75
L -18.25 -13.7
Q -18.333203125 -9.8595703125 -15.45 -3.75
L -15.4 -3.65 -15.4 -3.6
Q -12.6767578125 2.0408203125 -9.8 10.1
L -9.75 10.2
Q -9.74140625 10.22421875 -9.75 10.25
L -9.75 10.25
Q -6.684765625 18.7166015625 -4.1 21.8
L -4.05 21.85
Q -1.2443359375 25.3462890625 3.45 25.6
L 3.5 25.6
Q 8.171875 25.7728515625 11.55 22.6 14.949609375 19.4423828125 15.4 15.75 15.955859375 12.0994140625 13.1 9.2 8.4591796875 3.042578125 10.65 -7.8 10.721875 -8.034375 10.75 -8.3 Z"/>
</g>

<g id="FS_HindLeg_3_4rear_lower_0_Layer1_0_FILL">
<path fill="#F26F31" stroke="none" d="
M 8.6 8
Q 8.6333984375 7.9955078125 8.65 7.95
L 8.65 7.95 8.6 8 Z"/>

<path fill="#EBD463" stroke="none" d="
M 12.35 -6.4
Q 12.1732421875 -6.510546875 11.95 -6.6 1.59140625 -10.1181640625 -6.5 -4.85 -6.526171875 -4.8123046875 -6.6 -4.8 -14.9587890625 1.5962890625 -10.3 12.75 -10.2638671875 12.8216796875 -10.25 12.85 -7.8515625 17.784765625 -2.5 16.05 1.90625 14.6984375 8.65 7.95
L 8.65 7.95
Q 13.7076171875 3.494921875 14.7 0.2 16.0470703125 -3.87109375 12.35 -6.4
M 10.75 -3.8
Q 12.4302734375 -2.605078125 11.85 -0.75 10.8990234375 1.983203125 6.6 5.75 6.5771484375 5.8119140625 6.55 5.85 0.493359375 11.901953125 -3.4 13.2 -6.248828125 14.115234375 -7.55 11.5
L -7.55 11.6
Q -7.5458984375 11.575 -7.6 11.5 -11.2048828125 2.68671875 -4.75 -2.4
L -4.85 -2.35
Q 2.0138671875 -6.721484375 10.75 -3.8 Z"/>

<path fill="#FCBA63" stroke="none" d="
M -7.55 11.5
L -7.6 11.5
Q -7.5458984375 11.575 -7.55 11.6
L -7.55 11.5 Z"/>

<path fill="#FDF6AE" stroke="none" d="
M 11.85 -0.75
Q 12.4302734375 -2.605078125 10.75 -3.8 2.0138671875 -6.721484375 -4.85 -2.35
L -4.75 -2.4
Q -11.2048828125 2.68671875 -7.6 11.5
L -7.55 11.5
Q -6.248828125 14.115234375 -3.4 13.2 0.493359375 11.901953125 6.55 5.85 6.5771484375 5.8119140625 6.6 5.75 10.8990234375 1.983203125 11.85 -0.75 Z"/>
</g>

<g id="FS_HindLeg_3_4rear_lower_0_Layer0_0_FILL">
<path fill="#EBD463" stroke="none" d="
M -8.05 10.15
L -8.2 9.7 -8.45 8.7 -11.35 9.5 -10.95 10.95
Q -3.5580078125 37.8861328125 -11.7 64.6 -11.7875 65.0125 -11.9 65.4
L -8.85 65.4
Q -0.5115234375 37.662109375 -8.05 10.15
M 11.65 -2.95
Q 11.686328125 -2.8736328125 11.7 -2.8 26.2828125 27.8509765625 24.65 64.3
L 27.6 64.1
Q 29.3125 27.137109375 14.35 -4.25
L 14.2 -4.5 11 -4.3 11.65 -2.95 Z"/>

<path fill="#FDF6AE" stroke="none" d="
M 24.65 64.3
Q 26.2828125 27.8509765625 11.7 -2.8
L -8.2 9.7 -8.05 10.15
Q -0.5115234375 37.662109375 -8.85 65.4
L 24.65 64.3 Z"/>
</g>

<g id="FS_HindLeg_3_4_top_3_Layer1_0_FILL">
<path fill="#FDF6AE" stroke="none" d="
M 3.25 1.75
Q 3.18203125 1.691015625 3.1 1.6 -2.67265625 -3.03828125 -11.65 -2.95 -20.6818359375 -2.858203125 -26.95 1.45 -33.3107421875 5.909375 -37.1 11.35 -37.4232421875 11.861328125 -38.05 11.95 -38.291015625 12.0220703125 -38.55 11.95 -42.348828125 38.4263671875 -11 46.45 -10.65859375 46.3421875 -10.35 46.2 12.0634765625 38.3462890625 13.2 19.5 12.6140625 19.47421875 12.2 19.05 11.7552734375 18.616015625 11.75 18 11.75 17.5771484375 11.75 17.15 8.5744140625 6.3466796875 3.25 1.75 Z"/>

<path fill="#EBD463" stroke="none" d="
M 5.15 -0.55
Q 5.098828125 -0.6427734375 5 -0.75 -1.5271484375 -6.0619140625 -11.7 -5.95 -21.718359375 -5.8419921875 -28.65 -1 -35.4892578125 3.790625 -39.55 9.65 -39.882421875 10.16484375 -39.8 10.75 -39.662109375 11.37734375 -39.15 11.7 -38.859765625 11.92734375 -38.55 11.95 -38.291015625 12.0220703125 -38.05 11.95 -37.4232421875 11.861328125 -37.1 11.35 -33.3107421875 5.909375 -26.95 1.45 -20.6818359375 -2.858203125 -11.65 -2.95 -2.67265625 -3.03828125 3.1 1.6 3.18203125 1.691015625 3.25 1.75 8.5744140625 6.3466796875 11.75 17.15 11.75 17.5771484375 11.75 18 11.7552734375 18.616015625 12.2 19.05 12.6140625 19.47421875 13.2 19.5
L 13.25 19.5
Q 13.866015625 19.4947265625 14.3 19.05 14.7447265625 18.616015625 14.75 18 14.75 17.45 14.75 16.9 14.755078125 16.6857421875 14.7 16.45 11.1857421875 4.4669921875 5.15 -0.55 Z"/>
</g>

<g id="FS_HindLeg_3_4_top_3_Layer0_0_FILL">
<path fill="#EBD463" stroke="none" d="
M 8.7 79.1
L 8.7 79.1
Q -3.7240234375 82.317578125 -15.9 55.05 -20.4896484375 46.2076171875 -20.85 37.15 -20.8546875 36.330078125 -20.85 35.45
L -20.85 35.4
Q -22.584375 41.745703125 -21.75 46.8 -20.8296875 51.911328125 -17.95 57.6
L -17.95 57.6
Q -11.971484375 69.1169921875 -6.05 75 -5.2890625 76.075390625 -4.35 77.05
L -4.35 77
Q -0.276953125 80.9404296875 5.2 80.6 7.4673828125 80.5080078125 8.7 79.1
M 14.45 15.7
L 10.9 14.4
Q 12.36328125 19.052734375 13 21.7 14.323046875 26.6453125 14.55 32.3 14.936328125 39.9142578125 12.65 49.15 10.4171875 58.4453125 9.3 62.55 8.17265625 66.672265625 9.1 73.05 9.75390625 77.3060546875 8.75 79.05 9.4486328125 78.3134765625 9.8 77.2 9.9109375 76.9609375 9.95 76.7 10.304296875 75.502734375 10.2 71.5 10.1513671875 67.5421875 11.45 63 12.7974609375 58.489453125 15.1 49.55 17.4509765625 40.6375 17.45 33.45 17.5064453125 26.2955078125 16.1 20.75 15.6138671875 18.894921875 14.45 15.7 Z"/>

<path fill="#FDF6AE" stroke="none" d="
M 12.65 49.15
Q 14.936328125 39.9142578125 14.55 32.3 14.323046875 26.6453125 13 21.7 12.36328125 19.052734375 10.9 14.4
L -8.9 17.15 -20.85 35.45
Q -20.8546875 36.330078125 -20.85 37.15 -20.4896484375 46.2076171875 -15.9 55.05 -3.7240234375 82.317578125 8.7 79.1
L 8.7 79.1 8.75 79.1
Q 8.764453125 79.1033203125 8.75 79.05 9.75390625 77.3060546875 9.1 73.05 8.17265625 66.672265625 9.3 62.55 10.4171875 58.4453125 12.65 49.15 Z"/>
</g>

<g id="FS_KneePatch_0_Layer0_0_FILL">
<path fill="#FDF6AE" stroke="none" d="
M 6.95 -3.8
Q 7.6271484375 -8.4921875 7.65 -8.75
L 7.65 -8.75
Q 7.6830078125 -8.7876953125 7.7 -8.85 7.850390625 -9.7474609375 7.85 -10.75 7.8390625 -15.39921875 4.4 -18.9 0.946484375 -22.4283203125 -3.85 -22.7 -8.6259765625 -22.9685546875 -12.1 -20.1 -15.376171875 -17.3716796875 -15.4 -13.55
L -15.4 -13.55
Q -15.40625 -10.530078125 -12.6 -4.2
L -12.4 -3.7
Q -12.324609375 -3.590625 -12.3 -3.5 -12.2001953125 -3.3171875 -12.15 -3.15 -12.0654296875 -3.0400390625 -12 -2.95
L -12 -2.9 -11.95 -2.8
Q -9.565234375 2.4005859375 -7.1 9.35 -7.0333984375 9.4712890625 -7.05 9.6 -4.2322265625 17.2533203125 -1.9 20.1
L -1.9 20.1
Q 0.112890625 22.6044921875 3.45 22.75 6.435546875 22.852734375 8.7 21.1
L 8.7 21.15
Q 19.876171875 11.2931640625 12.45 5.8 11.055859375 5.381640625 9.7 4.45 9.7404296875 4.5390625 9.75 4.6 8.476171875 3.9505859375 7.75 2.7 6.5830078125 1.1353515625 6.75 -1.95 6.7810546875 -2.8294921875 6.9 -3.8
L 6.95 -3.8 Z"/>
</g>

<g id="FS_FrontLeg_3_4_hoof_6_Layer0_0_FILL">
<path fill="#EBD463" stroke="none" d="
M -19.5 -4.7
L -19.5 -4.65
Q -21.71796875 -0.5130859375 -23.35 7.15 -25.0853515625 15.5572265625 -17.9 19.85
L -17.85 19.85
Q -11.2087890625 23.825 0.35 22.35 12.2115234375 20.8224609375 15.35 15.3 18.57890625 10.1091796875 18.9 1.35 19.2267578125 -7.697265625 13.35 -13.4 7.4353515625 -19.13203125 -1 -18.65 -9.53671875 -18.26484375 -13.45 -13.35 -17.209375 -8.8333984375 -19.5 -4.7
M -16.85 -3.25
L -16.85 -3.25
Q -14.6908203125 -7.1666015625 -11.15 -11.45 -7.8634765625 -15.3353515625 -0.85 -15.65 6.264453125 -16.0681640625 11.25 -11.25 16.173046875 -6.4029296875 15.9 1.25 15.6208984375 9.091015625 12.8 13.75 9.9904296875 18.07734375 -0.05 19.35 -10.39140625 20.675 -16.35 17.25
L -16.35 17.25
Q -21.71484375 14.0427734375 -20.4 7.75 -18.88203125 0.6130859375 -16.85 -3.25 Z"/>

<path fill="#FDF6AE" stroke="none" d="
M -16.85 -3.25
L -16.85 -3.25
Q -18.88203125 0.6130859375 -20.4 7.75 -21.71484375 14.0427734375 -16.35 17.25
L -16.35 17.25
Q -10.39140625 20.675 -0.05 19.35 9.9904296875 18.07734375 12.8 13.75 15.6208984375 9.091015625 15.9 1.25 16.173046875 -6.4029296875 11.25 -11.25 6.264453125 -16.0681640625 -0.85 -15.65 -7.8634765625 -15.3353515625 -11.15 -11.45 -14.6908203125 -7.1666015625 -16.85 -3.25 Z"/>
</g>

<g id="FS_HindLeg_3_4rear_lower_2_Layer1_0_FILL">
<path fill="#F26F31" stroke="none" d="
M 8.65 7.95
L 8.65 7.95 8.6 8
Q 8.6333984375 7.9955078125 8.65 7.95 Z"/>

<path fill="#EBD463" stroke="none" d="
M 12.35 -6.4
Q 12.1732421875 -6.510546875 11.95 -6.6 1.59140625 -10.1181640625 -6.5 -4.85 -6.526171875 -4.8123046875 -6.6 -4.8 -14.9587890625 1.5962890625 -10.3 12.75 -10.2638671875 12.8216796875 -10.25 12.85 -7.8515625 17.784765625 -2.5 16.05 1.90625 14.6984375 8.65 7.95
L 8.65 7.95
Q 13.7076171875 3.494921875 14.7 0.2 16.0470703125 -3.87109375 12.35 -6.4
M 10.75 -3.8
Q 12.4302734375 -2.605078125 11.85 -0.75 10.8990234375 1.983203125 6.6 5.75 6.5771484375 5.8119140625 6.55 5.85 0.493359375 11.901953125 -3.4 13.2 -6.248828125 14.115234375 -7.55 11.5
L -7.55 11.6
Q -7.5458984375 11.575 -7.6 11.5 -11.2048828125 2.68671875 -4.75 -2.4
L -4.85 -2.35
Q 2.0138671875 -6.721484375 10.75 -3.8 Z"/>

<path fill="#FCBA63" stroke="none" d="
M -7.6 11.5
Q -7.5458984375 11.575 -7.55 11.6
L -7.55 11.5 -7.6 11.5 Z"/>

<path fill="#FDF6AE" stroke="none" d="
M 11.85 -0.75
Q 12.4302734375 -2.605078125 10.75 -3.8 2.0138671875 -6.721484375 -4.85 -2.35
L -4.75 -2.4
Q -11.2048828125 2.68671875 -7.6 11.5
L -7.55 11.5
Q -6.248828125 14.115234375 -3.4 13.2 0.493359375 11.901953125 6.55 5.85 6.5771484375 5.8119140625 6.6 5.75 10.8990234375 1.983203125 11.85 -0.75 Z"/>
</g>

<g id="FS_HindLeg_3_4rear_lower_2_Layer0_0_FILL">
<path fill="#EBD463" stroke="none" d="
M -8.75 3.65
L -8.6 2.95 -8.45 2.15 -11.4 1.6 -11.7 3.05
Q -17.337109375 31.9951171875 -10.35 59.6
L -9.95 60.4 -7.3 59.45 -7.45 58.85
Q -7.4873046875 58.72734375 -7.55 58.55 -14.2328125 31.7501953125 -8.75 3.65
M 14.9 -2.65
L 14.9 -2.7 11.8 -4 11.9 -2.5
Q 11.9080078125 -2.326953125 11.9 -2.2 13.617578125 28.4064453125 23 43.7 23.038671875 43.7662109375 23.05 43.8
L 23.3 44.2 25.75 42.5 25.6 42.25
Q 16.5212890625 27.3490234375 14.9 -2.65 Z"/>

<path fill="#FDF6AE" stroke="none" d="
M 23 43.7
Q 13.617578125 28.4064453125 11.9 -2.2
L -8.6 2.95 -8.75 3.65
Q -14.2328125 31.7501953125 -7.55 58.55
L 23 43.7 Z"/>

<path fill="#F26F31" stroke="none" d="
M 14.9 -2.7
L 14.9 -2.65 14.95 -2.65 14.9 -2.7 Z"/>
</g>

<g id="FS_Wing_front_8_Layer5_0_FILL">
<path fill="#FDF6AE" stroke="none" d="
M 5.85 -15.65
Q 5.586328125 -16.173046875 5.3 -16.65 2.96953125 -20.8943359375 0.6 -21.35 -1.80703125 -20.2845703125 -2.55 -15.05 2.5685546875 -2.781640625 2.65 14.25 7.92734375 10.3525390625 9.45 7.65 9.7517578125 7.111328125 9.9 6.6 10.5345703125 4.862109375 9.65 3.45
L 9.35 2.85 9.5 2.4
Q 10.724609375 -2.1865234375 10.9 -5.15 10.9275390625 -5.6759765625 10.9 -6.15 10.9228515625 -7.4970703125 10.65 -8.45 9.8388671875 -11.0349609375 8.1 -11.65
L 7.5 -11.9 7.3 -12.4
Q 6.5701171875 -14.19609375 5.85 -15.65 Z"/>

<path fill="#EBD463" stroke="none" d="
M 5.3 -16.65
Q 5.586328125 -16.173046875 5.85 -15.65 6.5701171875 -14.19609375 7.3 -12.4
L 7.5 -11.9 8.1 -11.65
Q 9.8388671875 -11.0349609375 10.65 -8.45 10.9228515625 -7.4970703125 10.9 -6.15 10.9275390625 -5.6759765625 10.9 -5.15 10.724609375 -2.1865234375 9.5 2.4
L 9.35 2.85 9.65 3.45
Q 10.5345703125 4.862109375 9.9 6.6 9.7517578125 7.111328125 9.45 7.65 7.92734375 10.3525390625 2.65 14.25 4.5853515625 14.4986328125 6.9 12.9 14.8572265625 7.0955078125 12.05 2.5 14.20234375 -5.7810546875 13.05 -9.2 11.8916015625 -12.8509765625 9.35 -13.85 5.22890625 -23.912109375 0.5 -23.9
L 0.25 -23.95 0.05 -23.85
Q -4.294921875 -22.534375 -2.55 -15.05 -1.80703125 -20.2845703125 0.6 -21.35 2.96953125 -20.8943359375 5.3 -16.65 Z"/>
</g>

<g id="FS_Torso_0_Layer1_0_FILL">
<path fill="#EBD564" stroke="none" d="
M 23.2 -25.3
L 23.15 -25.3
Q 13.6134765625 -36.3685546875 0.1 -36.35 -13.413671875 -36.3685546875 -23 -25.3
L -23 -25.3
Q -33.85 -12.65 -33.5 1.85 -33 18.5 -26.15 26.5 -21.66640625 31.7732421875 -13.9 34.5 -7.2111328125 36.9048828125 0.1 36.9 17.13203125 36.8990234375 25.65 26.85 28.45 23.6 30.65 17.8 33.45 10.3 33.7 1.85 34.05 -12.65 23.2 -25.3
M 0.1 -33.35
Q 12.2779296875 -33.331640625 20.9 -23.35
L 20.9 -23.35 20.9 -23.35
Q 30.45 -12.15 30.7 1.85 30.95 16.1 23.35 24.9 15.568359375 33.90078125 0.1 33.9 -6.6890625 33.8951171875 -12.9 31.65 -19.83359375 29.2265625 -23.85 24.55 -30.2 17 -30.5 1.15 -30.7 -11.65 -20.7 -23.35
L -20.75 -23.35 -20.7 -23.35
Q -12.069921875 -33.331640625 0.1 -33.35 Z"/>

<path fill="#F4B6D1" stroke="none" d="
M -20.7 -23.35
L -20.75 -23.35 -20.7 -23.35 -20.7 -23.35
M 20.9 -23.35
L 20.9 -23.35 20.9 -23.35 20.9 -23.35 Z"/>

<path fill="#FDF6AE" stroke="none" d="
M 20.9 -23.35
Q 12.2779296875 -33.331640625 0.1 -33.35 -12.069921875 -33.331640625 -20.7 -23.35
L -20.7 -23.35
Q -30.7 -11.65 -30.5 1.15 -30.2 17 -23.85 24.55 -19.83359375 29.2265625 -12.9 31.65 -6.6890625 33.8951171875 0.1 33.9 15.568359375 33.90078125 23.35 24.9 30.95 16.1 30.7 1.85 30.45 -12.15 20.9 -23.35
L 20.9 -23.35 Z"/>
</g>

<g id="FS_Neck_0_Layer0_0_FILL">
<path fill="#F4B6D1" stroke="none" d="
M -16.8 24.2
L -16.85 24.15 -16.85 24.2 -16.8 24.2
M -7.65 -62.9
L -7.65 -62.85 -7.15 -62.85 -7.65 -62.9
M 19 -62.95
L 19 -63 18.5 -62.95 19 -62.95 Z"/>

<path fill="#FDF6AE" stroke="none" d="
M 18.5 -61.45
L 18.5 -62.95 19 -63
Q 18.7365234375 -73.6224609375 5.75 -75.15 -6.9525390625 -74.7279296875 -7.65 -62.9
L -7.15 -62.85 -7.2 -61.35
Q -7.595703125 -52.617578125 -12.65 -4.3 -13.6 4.88671875 -14.3 12.55
L -14.3 12.6 -14.4 13.45 -14.4 13.55 -14.45 14.05 -14.45 14.1
Q -14.8998046875 18.7240234375 -16.8 24.2
L -16.85 24.2
Q -18.1765625 41.696484375 -17.7 48.4 -17.6 49.75 -16.7 52.9 -15.85 55.95 -15.3 56.75 -12.4 61.15 -6.4 63.5 -1.25 65.5 4.4 65.5 17.65 65.5 23.6 58.6 24.3 57.75 25.2 53.7 25.9 50.5 26.15 48.45 26.825390625 41.9896484375 25.85 24.8
L 25.9 24.8
Q 24.05 19.3998046875 23.75 14.95
L 23.75 14.8 23.65 13.45
Q 23.049609375 5.3115234375 22.2 -4.55 18.2919921875 -50.1962890625 18.5 -61.45 Z"/>

<path fill="#EBD564" stroke="none" d="
M 6 -77.15
Q 5.94921875 -77.1552734375 5.85 -77.15 -8.9501953125 -76.7466796875 -9.7 -62.95
L -10.15 -63 -10.2 -61.5
Q -10.604296875 -52.782421875 -15.65 -4.6 -16.6001953125 4.6134765625 -17.3 12.3
L -17.45 13.8
Q -17.4556640625 13.8580078125 -17.45 13.9 -17.90390625 18.52734375 -16.8 24.2 -14.8998046875 18.7240234375 -14.45 14.1
L -14.45 14.05 -14.4 13.55 -14.4 13.45 -14.3 12.6 -14.3 12.55
Q -13.6 4.88671875 -12.65 -4.3 -7.595703125 -52.617578125 -7.2 -61.35
L -7.15 -62.85 -7.65 -62.85 -7.65 -62.9
Q -6.9525390625 -74.7279296875 5.75 -75.15 18.7365234375 -73.6224609375 19 -63
L 19 -62.95 18.5 -62.95 18.5 -61.45
Q 18.2919921875 -50.1962890625 22.2 -4.55 23.049609375 5.3115234375 23.65 13.45
L 23.75 14.8 23.75 14.95
Q 24.05 19.3998046875 25.9 24.8 27.0529296875 19.2484375 26.75 14.85 26.7537109375 14.8037109375 26.75 14.75
L 26.75 14.7 26.65 13.25
Q 26.0501953125 5.08828125 25.2 -4.8 21.3080078125 -50.2029296875 21.5 -61.4
L 21.5 -62.9 21.05 -62.9
Q 20.9736328125 -75.3884765625 6 -77.15 Z"/>
</g>

<g id="FS_FrontLeg_3_4_hoof_10_Layer0_0_FILL">
<path fill="#EBD463" stroke="none" d="
M 16.35 -7.2
Q 13.0224609375 -13.9443359375 6.05 -16.8 -0.9236328125 -19.6390625 -7.4 -16.8
L -7.45 -16.8
Q -13.68984375 -14.0404296875 -16.05 -7.45
L -16.05 -7.45
Q -18.6091796875 -2.4802734375 -19.65 4.6
L -19.65 4.65
Q -20.2140625 7.7609375 -19.4 9.6 -18.7173828125 11.1390625 -16.7 12.45 -14.13828125 14.2466796875 -9.15 15 -4.1478515625 15.7416015625 2.4 15.95 8.943359375 16.1537109375 13.05 14.9 17.158984375 13.644921875 17.55 12.9 17.9890625 12.15390625 18.25 10.7 18.5669921875 9.2423828125 18.25 0.4
L 18.25 0.35
Q 18.251953125 0.3330078125 18.25 0.3
L 18.25 0.25
Q 18.09140625 -3.49609375 16.35 -7.2
M 5.25 -14.4
Q 11.223828125 -11.9392578125 14.05 -6.15
L 14.05 -6.2
Q 15.527734375 -3.0994140625 15.65 0.05 15.680078125 0.1130859375 15.65 0.15 15.68125 0.34609375 15.7 0.5
L 15.8 0.5
Q 15.8068359375 1.0310546875 15.55 5.75 15.35234375 10.5166015625 13.8 11.4 12.241015625 12.343359375 8.2 12.7 4.2078125 13.093359375 0 13.05 -4.1990234375 13.030859375 -8.05 12.55 -11.8728515625 12.10546875 -14.55 10.4 -17.223046875 8.7404296875 -16.6 4.95 -15.9259765625 1.1671875 -15.25 -1.45 -14.530078125 -4.074609375 -13.8 -5.85 -13.790234375 -5.888671875 -13.8 -5.95 -13.7259765625 -6.0068359375 -13.7 -6.1
L -13.7 -6.15
Q -11.7255859375 -11.9853515625 -6.25 -14.4
L -6.25 -14.4
Q -0.7126953125 -16.8146484375 5.25 -14.4 Z"/>

<path fill="#FDF6AE" stroke="none" d="
M 14.05 -6.15
Q 11.223828125 -11.9392578125 5.25 -14.4 -0.7126953125 -16.8146484375 -6.25 -14.4
L -6.25 -14.4
Q -11.7255859375 -11.9853515625 -13.7 -6.15
L -13.7 -6.1
Q -13.7259765625 -6.0068359375 -13.8 -5.95 -13.790234375 -5.888671875 -13.8 -5.85 -14.530078125 -4.074609375 -15.25 -1.45 -15.9259765625 1.1671875 -16.6 4.95 -17.223046875 8.7404296875 -14.55 10.4 -11.8728515625 12.10546875 -8.05 12.55 -4.1990234375 13.030859375 0 13.05 4.2078125 13.093359375 8.2 12.7 12.241015625 12.343359375 13.8 11.4 15.35234375 10.5166015625 15.55 5.75 15.8068359375 1.0310546875 15.8 0.5
L 15.7 0.5
Q 15.68125 0.34609375 15.65 0.15 15.680078125 0.1130859375 15.65 0.05 15.527734375 -3.0994140625 14.05 -6.2
L 14.05 -6.15 Z"/>
</g>

<g id="FS_FrontLeg_3_4_upper_9_Layer1_0_FILL">
<path fill="#EBD463" stroke="none" d="
M 11.75 13.2
Q 11.144921875 1.025390625 10.15 1.25 10.139453125 1.287109375 10.1 1.3 9.6564453125 1.7580078125 9.65 2.35
L 8.65 97.85 8.65 98.4
Q 8.6419921875 99.04921875 9.05 99.5 9.508203125 99.9439453125 10.1 99.95 10.749609375 99.95859375 11.2 99.5 11.643359375 99.0919921875 11.65 98.45
L 11.75 13.2
M -6.95 -4.85
Q -6.8689453125 -5.175 -6.95 -5.5 -7.0064453125 -5.7345703125 -7.2 -6 -7.3349609375 -6.195703125 -7.55 -6.35 -10.0052734375 -2.7806640625 -13.2 18.35
L -26.15 95.7
Q -26.231640625 96.3162109375 -25.9 96.8 -25.510546875 97.3275390625 -24.9 97.4 -24.283984375 97.5318359375 -23.8 97.15 -23.2728515625 96.81015625 -23.2 96.2
L -23.1 95.6 -6.95 -4.85 Z"/>

<path fill="#FDF6AE" stroke="none" d="
M -6.95 -5.5
Q -6.8689453125 -5.175 -6.95 -4.85
L -23.1 95.6
Q -6.440625 92.104296875 8.65 97.85
L 9.65 2.35
Q 9.6564453125 1.7580078125 10.1 1.3 10.139453125 1.287109375 10.15 1.25 10.226953125 1.211328125 10.25 1.15 10.20390625 1.0802734375 10.1 0.95 3.43359375 -7.75078125 -6.95 -5.5 Z"/>
</g>

<g id="FS_FrontLeg_3_4_upper_11_Layer2_0_FILL">
<path fill="#EBD463" stroke="none" d="
M 14.25 5.9
Q 8.980078125 2.4978515625 1.6 3.65 -5.8244140625 4.8671875 -11.05 9.95
L -11.05 9.95
Q -16.304296875 15.0212890625 -16.3 20.9 -16.304296875 26.847265625 -11.05 30.25 -5.8224609375 33.6015625 1.6 32.45
L 1.65 32.45
Q 8.98984375 31.2330078125 14.25 26.2
L 14.25 26.2
Q 19.54140625 21.115625 19.55 15.2 19.54140625 9.2896484375 14.25 5.9
M 1.3 6.7
Q 1.955078125 6.5955078125 2.6 6.55
L 3.55 6.45
Q 5.53828125 6.352734375 7.3 6.7
L 8.45 6.95
Q 10.2658203125 7.4615234375 11.85 8.4 16.2671875 11.098046875 16.25 15.75 16.2671875 20.4720703125 11.85 24.5
L 11.85 24.5
Q 9.7880859375 26.3625 7.35 27.55 4.7275390625 28.9275390625 1.65 29.45
L 1.6 29.45
Q 0.5134765625 29.64296875 -0.55 29.7 -5.573828125 30.00625 -9.3 27.75 -13.71796875 25.076953125 -13.75 20.4 -13.71796875 15.7029296875 -9.3 11.65
L -9.3 11.65
Q -4.916015625 7.6404296875 1.3 6.7 Z"/>

<path fill="#FDF6AE" stroke="none" d="
M 2.6 6.55
Q 1.955078125 6.5955078125 1.3 6.7 -4.916015625 7.6404296875 -9.3 11.65
L -9.3 11.65
Q -13.71796875 15.7029296875 -13.75 20.4 -13.71796875 25.076953125 -9.3 27.75 -5.573828125 30.00625 -0.55 29.7 0.360546875 29.633984375 1.25 29.5
L 1.3 29.45
Q 4.5779296875 28.939453125 7.35 27.55 9.7880859375 26.3625 11.85 24.5
L 11.85 24.5
Q 16.2671875 20.4720703125 16.25 15.75 16.2671875 11.098046875 11.85 8.4 10.2658203125 7.4615234375 8.45 6.95
L 7.3 6.7
Q 5.53828125 6.352734375 3.55 6.45
L 2.6 6.55 Z"/>
</g>

<g id="FS_FrontLeg_3_4_upper_11_Layer1_0_FILL">
<path fill="#EBD463" stroke="none" d="
M -8.75 11.15
Q -3.2251953125 6.66953125 -6.05 2.15 -6.4859375 6.449609375 -10.7 9.65
L -8.75 11.15
M 16.45 16.55
L 19.35 15.15
Q 18.855078125 4.7060546875 7.9 -0.4 16.2654296875 4.9353515625 16.45 16.55 Z"/>

<path fill="#FDF6AE" stroke="none" d="
M 16.45 16.55
Q 16.2654296875 4.9353515625 7.9 -0.4 1.8404296875 -0.3458984375 -6.05 2.15 -3.2251953125 6.66953125 -8.75 11.15
L 16.45 16.55 Z"/>
</g>

<g id="FS_Chest_1_Layer0_0_FILL">
<path fill="#EBD564" stroke="none" d="
M 0.35 5.15
Q 3.3470703125 5.1625 5.15 0.95 2.52265625 2.8541015625 0.35 2.85 -1.8236328125 2.853515625 -4.75 1.25 -2.6337890625 5.1515625 0.35 5.15 Z"/>

<path fill="#FDF6AE" stroke="none" d="
M -0.8 -24.1
Q -15.0033203125 -20.309765625 -12.9 -11.3 -10.7470703125 -2.2962890625 -4.75 1.25 -1.8236328125 2.853515625 0.35 2.85 2.52265625 2.8541015625 5.15 0.95 10.1755859375 -1.2046875 11.7 -12.5 13.219140625 -23.8052734375 -0.8 -24.1 Z"/>
</g>

<g id="FS_Mane_02_0_Layer0_0_FILL">
<path fill="#E781B3" stroke="none" d="
M 11.55 -5
Q 10.647265625 -9.2279296875 2 -11 -9.2275390625 -12.4119140625 -11.8 -3.5 -12.74609375 3.3123046875 -10.5 11.15 -7.59453125 21.0275390625 2.9 26.15 8.4806640625 28.8759765625 13.75 28.65 16.662890625 28.046484375 16 24.8 15.21484375 22.26015625 12.7 22 10.63828125 22.0373046875 8.3 21 5.246484375 19.6421875 3.95 17.35 2.4064453125 14.4783203125 5.4 11.05 13.226171875 1.8095703125 11.55 -5
M 6.3 -7.6
Q 9.04453125 -6.153515625 8.8 -1.35 8.4671875 2.5083984375 5.95 5.7 3.43515625 8.9466796875 3.4 9 1.9478515625 10.9044921875 1.5 13.15 0.755078125 17.1720703125 3.6 20.4 6.13671875 23.284375 10.25 24.4 12.128125 24.890625 12.45 25.75 6.6189453125 26.0005859375 0.6 22.45 -6.05625 18.48828125 -8.7 12.45 -11.5458984375 5.75625 -10.25 -2.15 -8.8330078125 -8.3119140625 0.55 -8.7 3.859765625 -8.431640625 6.3 -7.6 Z"/>

<path fill="#F4B6D1" stroke="none" d="
M 8.8 -1.35
Q 9.04453125 -6.153515625 6.3 -7.6 3.859765625 -8.431640625 0.55 -8.7 -8.8330078125 -8.3119140625 -10.25 -2.15 -11.5458984375 5.75625 -8.7 12.45 -6.05625 18.48828125 0.6 22.45 6.6189453125 26.0005859375 12.45 25.75 12.128125 24.890625 10.25 24.4 6.13671875 23.284375 3.6 20.4 0.755078125 17.1720703125 1.5 13.15 1.9478515625 10.9044921875 3.4 9 3.43515625 8.9466796875 5.95 5.7 8.4671875 2.5083984375 8.8 -1.35 Z"/>
</g>

<g id="FS_Mane_01_0_Layer1_0_FILL">
<path fill="#F4B6D1" stroke="none" d="
M 23.7 96.55
Q 24.378125 94.0296875 24.95 91.55 21.5181640625 98.033203125 16.35 107.7 9.81171875 120.4603515625 5.85 130.35 -1.5033203125 148.8755859375 -1.05 164.3 -0.61875 177.873046875 3.55 185.25
L 3.6 185.25 16.65 172.8
Q 14.1078125 171.6810546875 12.1 169 9.4078125 165.482421875 9.1 161.3 8.2244140625 148.7888671875 13.9 130.1 21.49765625 105.3001953125 23.7 96.55
M 25.35 87.95
Q 25.7349609375 87.2748046875 26.05 86.6 28.883203125 73.501171875 29.7 62.2 30.5705078125 50.5265625 29.75 39.5 28.618359375 47.531640625 26.25 56.1 19.1453125 82.1162109375 3.35 107.3 -7.0025390625 123.75703125 -10.65 131.6 -16.859375 145.2541015625 -17 157.6 -16.400390625 163.9640625 -15.85 166.65 -14.352734375 173.9083984375 -10.65 177.95 -6.0001953125 183.100390625 1.55 184.85 -1.8294921875 178.255859375 -2.45 167.35 -3.26875 151.0712890625 2.4 135.55 6.41640625 124.7248046875 13.1 111.35 15.4494140625 106.6806640625 25.35 87.95
M 29.05 32.15
Q 28.6322265625 28.924609375 28.05 25.75 26.2701171875 15.40390625 23.35 8.25 21.0296875 2.699609375 19.65 -1.05 11.6982421875 4.4599609375 2.45 12.25 -3.551171875 17.390234375 -10 22.25 -11.5689453125 23.5080078125 -12.95 24.7 -9.65390625 30.551953125 -7.9 36.15 -3.7349609375 49.1982421875 -4.8 65.4 -5.578125 76.8916015625 -9.65 94.55 -15.16328125 118.528515625 -16.15 124.6 -18.03515625 136.5953125 -17.55 149.3 -16.154296875 141.5833984375 -12.7 133.55 -8.8947265625 124.65703125 0.5 109.6 17.67890625 82.3943359375 24.45 57.6 28.168359375 44.1169921875 29.05 32.15 Z"/>

<path fill="#E781B3" stroke="none" d="
M 22.3 -2.85
Q 22.283203125 -2.951953125 22.25 -3.1 22.1203125 -3.41640625 22 -3.75
L 21.75 -4.35
Q 21.6828125 -4.6083984375 21.6 -4.85 20.2869140625 -3.9998046875 18.9 -3.1 10.0345703125 2.963671875 -0.55 11.9 -8.7380859375 18.161328125 -12.85 21.45 -13.533984375 22.0248046875 -14.2 22.55 -14.749609375 23.06796875 -15.3 23.55
L -16.45 24.6
Q -15.8439453125 25.729296875 -15.3 26.85 -4.0728515625 48.99765625 -9.6 80.6 -10.1908203125 84.1927734375 -16.1 109.95 -20.1564453125 127.7552734375 -20.7 139.6 -21.271875 152.259765625 -19.1 165.65 -16.845703125 178.7166015625 -6.95 183.9 -2.06640625 186.4744140625 2.05 186.9 3.553515625 186.2052734375 3.7 185.3
L 3.6 185.3 3.6 185.25 3.55 185.25
Q -0.61875 177.873046875 -1.05 164.3 -1.5033203125 148.8755859375 5.85 130.35 9.81171875 120.4603515625 16.35 107.7 21.5181640625 98.033203125 24.95 91.55 24.378125 94.0296875 23.7 96.55 21.49765625 105.3001953125 13.9 130.1 8.2244140625 148.7888671875 9.1 161.3 9.4078125 165.482421875 12.1 169 14.1078125 171.6810546875 16.65 172.8 16.5224609375 170.4431640625 16.25 170.05 15.840234375 168.846484375 15 167.85 11.49140625 163.7650390625 11.65 155.9 11.7990234375 151.9533203125 13.5 143.15 14.768359375 136.761328125 17.55 127.9 20.884375 117.91953125 22.4 112.85 27.1892578125 97.6927734375 29.85 83.5 32.895703125 67.0572265625 33.15 52.25 33.4458984375 37.469140625 30.5 22.1 29.1046875 14.42890625 26.3 7.4 23.7064453125 0.9541015625 22.3 -2.85
M 28.05 25.75
Q 28.6322265625 28.924609375 29.05 32.15 28.168359375 44.1169921875 24.45 57.6 17.67890625 82.3943359375 0.5 109.6 -8.8947265625 124.65703125 -12.7 133.55 -16.154296875 141.5833984375 -17.55 149.3 -18.03515625 136.5953125 -16.15 124.6 -15.16328125 118.528515625 -9.65 94.55 -5.578125 76.8916015625 -4.8 65.4 -3.7349609375 49.1982421875 -7.9 36.15 -9.65390625 30.551953125 -12.95 24.7 -11.5689453125 23.5080078125 -10 22.25 -3.551171875 17.390234375 2.45 12.25 11.6982421875 4.4599609375 19.65 -1.05 21.0296875 2.699609375 23.35 8.25 26.2701171875 15.40390625 28.05 25.75
M 26.05 86.6
Q 25.7349609375 87.2748046875 25.35 87.95 15.4494140625 106.6806640625 13.1 111.35 6.41640625 124.7248046875 2.4 135.55 -3.26875 151.0712890625 -2.45 167.35 -1.8294921875 178.255859375 1.55 184.85 -6.0001953125 183.100390625 -10.65 177.95 -14.352734375 173.9083984375 -15.85 166.65 -16.400390625 163.9640625 -17 157.6 -16.859375 145.2541015625 -10.65 131.6 -7.0025390625 123.75703125 3.35 107.3 19.1453125 82.1162109375 26.25 56.1 28.618359375 47.531640625 29.75 39.5 30.5705078125 50.5265625 29.7 62.2 28.883203125 73.501171875 26.05 86.6 Z"/>
</g>

<g id="FS_Mane_03_0_Layer0_0_FILL">
<path fill="#F4B6D1" stroke="none" d="
M 6.55 11.7
Q 6.7505859375 11.2791015625 6.9 10.8
L 7.1 10.3 7.05 10.3
Q 6.6994140625 10.297265625 6.65 10.3 2.539453125 10.1380859375 1.15 7.25 -0.1732421875 4.39375 0.65 0.35
L -0.65 0.35
Q -0.6134765625 1.5896484375 -0.35 3.9 0.2060546875 8.0537109375 2.75 10.9 4.1279296875 12.440234375 4.75 12.75 5.9318359375 13.3720703125 6.55 11.7 Z"/>

<path fill="#E781B3" stroke="none" d="
M 10.25 9.3
Q 10.6978515625 7.56796875 10.9 5.3
L 10.9 5.25
Q 10.6337890625 5.770703125 10.3 6.15
L 8 7.85
Q 7.805859375 7.93671875 7.6 7.95 6.0919921875 8.3138671875 4.9 7.05 3.7779296875 5.9029296875 3.4 4 3.286328125 3.2958984375 3.3 2.5 3.1291015625 0.653515625 0.65 0.35 -0.1732421875 4.39375 1.15 7.25 2.539453125 10.1380859375 6.65 10.3 6.6994140625 10.297265625 7.05 10.3
L 7.1 10.3 6.9 10.8
Q 6.7505859375 11.2791015625 6.55 11.7 5.9318359375 13.3720703125 4.75 12.75 4.1279296875 12.440234375 2.75 10.9 0.2060546875 8.0537109375 -0.35 3.9 -0.6134765625 1.5896484375 -0.65 0.35 -3.4513671875 1.655859375 -3.3 4.5 -3.1970703125 5.5353515625 -3 6.5 -2.4546875 9.2095703125 -0.55 11.6 1.5828125 14.206640625 4.05 14.75 8.6953125 15.7150390625 10.25 9.3 Z"/>
</g>

<g id="FS_FrontLeg_3_4_lower_6_Layer1_0_FILL">
<path fill="#949494" stroke="none" d="
M 13.5 9.95
L 13.5 9.9 13.45 9.9 13.5 9.95 Z"/>

<path fill="#FDF6AE" stroke="none" d="
M -8.7 3.6
Q -10.4599609375 7.0568359375 -9.9 11.3 -9.2919921875 15.5369140625 -6.2 18.25 -3.1181640625 21.0580078125 1.05 20.8
L 1.05 20.8
Q 5.241015625 20.57890625 7.95 17.45 8.41640625 16.954296875 8.75 16.4
L 8.8 16.45
Q 12.23515625 12.5958984375 13.45 9.9
L 13.5 9.9
Q 8.04609375 -2.4734375 -5.9 -0.75 -6.9333984375 0.1376953125 -8.7 3.6 Z"/>

<path fill="#EBD463" stroke="none" d="
M -9.9 11.3
Q -10.4599609375 7.0568359375 -8.7 3.6 -6.9333984375 0.1376953125 -5.9 -0.75 -7.4609375 0.1294921875 -8.8 1.45 -9.0546875 1.7453125 -9.35 2.05 -12.8841796875 6.123046875 -12.55 11.55 -12.208984375 16.96875 -8.2 20.5 -4.19140625 24.1337890625 1.2 23.8
L 1.25 23.8
Q 6.6669921875 23.5115234375 10.2 19.45 13.8396484375 15.377734375 13.5 9.95
L 13.45 9.9
Q 12.23515625 12.5958984375 8.8 16.45
L 8.75 16.4
Q 8.41640625 16.954296875 7.95 17.45 5.241015625 20.57890625 1.05 20.8
L 1.05 20.8
Q -3.1181640625 21.0580078125 -6.2 18.25 -9.2919921875 15.5369140625 -9.9 11.3 Z"/>
</g>

<g id="FS_FrontLeg_3_4_hoof_1_Layer0_0_FILL">
<path fill="#FDF6AE" stroke="none" d="
M -7 64.1
Q -4.803125 66.512109375 -1.9 65.75 1.5046875 64.7962890625 5.8 60.1 18.1720703125 43.58515625 12.5 30 3.3931640625 18.2220703125 5.55 9.4
L -8.45 -3.65
Q -26.35234375 39.24921875 -7 64.1 Z"/>

<path fill="#EBD463" stroke="none" d="
M -8.35 -6.75
Q -9.5576171875 -7.4396484375 -10.95 -5.4 -30.083984375 39.9306640625 -9.3 66.05 -9.23828125 66.123828125 -9.2 66.15 -5.746875 69.9376953125 -1.15 68.65 2.9451171875 67.65390625 8 62.15 8.0501953125 62.1140625 8.1 62.05 21.908203125 43.6923828125 15.15 28.6 15.0853515625 28.39296875 12.2 24.8 9.3177734375 21.215234375 5.55 9.4 3.3931640625 18.2220703125 12.5 30 18.1720703125 43.58515625 5.8 60.1 1.5046875 64.7962890625 -1.9 65.75 -4.803125 66.512109375 -7 64.1 -26.35234375 39.24921875 -8.45 -3.65 -8.29921875 -3.931640625 -8.2 -4.2 -7.271484375 -6.0025390625 -8.35 -6.75 Z"/>
</g>

<g id="FS_Skull_2_Layer0_0_FILL">
<path fill="#EBD463" stroke="none" d="
M 17.3 -50
Q 10.4 -52.1 0.9 -52.25 -8.45 -52.4 -16.75 -49.2 -25.55 -45.75 -31.05 -39.3 -46.1 -21.6 -46.1 -1.1 -46.1 11.3 -43.4 20.4 -40.6 29.75 -34.65 36.5 -27.65 44.55 -18.5 48.75 -9.25 53.05 1.5 53.05 22.65 53.05 37 36.5 42.8 29.9 45.45 20.1 47.85 11.1 47.9 -1.7 47.85 -23.45 33.4 -39.9 27.2 -47.05 17.3 -50
M 0.9 -49.25
Q 10.95 -48.85 16.65 -47.2 25.35 -44.6 31.15 -37.95 44.85 -22.3 44.9 -1.7 44.85 10.45 42.6 18.95 40.15 28.25 34.75 34.55 21.25 50.05 1.5 50.05 -8.55 50.05 -17.25 46.05 -25.8 42.1 -32.4 34.55 -38 28.1 -40.6 19.25 -43.1 10.65 -43.1 -1.1 -43.1 -21 -28.8 -37.35 -22.85 -44.2 -14.2 -47.15 -7.25 -49.55 0.9 -49.25 Z"/>

<path fill="#FDF6AE" stroke="none" d="
M 16.65 -47.2
Q 10.95 -48.85 0.9 -49.25 -7.25 -49.55 -14.2 -47.15 -22.85 -44.2 -28.8 -37.35 -43.1 -21 -43.1 -1.1 -43.1 10.65 -40.6 19.25 -38 28.1 -32.4 34.55 -25.8 42.1 -17.25 46.05 -8.55 50.05 1.5 50.05 21.25 50.05 34.75 34.55 40.15 28.25 42.6 18.95 44.85 10.45 44.9 -1.7 44.85 -22.3 31.15 -37.95 25.35 -44.6 16.65 -47.2 Z"/>
</g>

<g id="FS_Mouth_front_chin__0_Layer1_0_FILL">
<path fill="#FDF6AE" stroke="none" d="
M 17.75 17.9
Q 19.0623046875 17.404296875 21.4 16.25 23.7880859375 15.0919921875 28.3 11.85 32.8205078125 8.659375 37 3.1 14.073046875 13.8896484375 -7.2 2.65 -16.3328125 11.9048828125 -34.95 3.1 -26.379296875 13.5955078125 -14.6 17.85 2.5015625 23.9185546875 17.75 17.9 Z"/>
</g>

<g id="Mask_Mask_FS_EyeWhite_front_0_Layer0_0_FILL">
<path fill="#FFFFFF" stroke="none" d="
M 18.4 -1.4
Q 17.00546875 -8.30078125 13.5 -13.3 8.8466796875 -19.619140625 2.7 -21.4 -1.4556640625 -20.9298828125 -4.5 -19 -14.69296875 -12.6572265625 -17.8 -2.7 -18.1935546875 -1.4421875 -18.5 1
L -18.55 1
Q -20.2896484375 7.6927734375 -20.15 13.9 -19.634765625 19.7447265625 -17.35 22.2 -12.8296875 26.803125 -2.9 25.8 2.5015625 25.49296875 9.1 20.95 10.5724609375 19.9642578125 11.85 18.8
L 11.9 18.8 14 16.65
Q 14.4072265625 16.2400390625 14.75 15.8
L 14.7 15.75 14.75 15.7 15.95 14.25
Q 17.1666015625 12.557421875 18.15 10.65 19.277734375 7.644140625 20.3 4.95 19.1912109375 2.0712890625 18.4 -1.4 Z"/>
</g>

<g id="FS_EyeWhite_front_0_Layer0_0_FILL">
<path fill="#FFFFFF" stroke="none" d="
M 18.4 -1.4
Q 17.00546875 -8.30078125 13.5 -13.3 8.8466796875 -19.619140625 2.7 -21.4 -1.4556640625 -20.9298828125 -4.5 -19 -14.69296875 -12.6572265625 -17.8 -2.7 -18.1935546875 -1.4421875 -18.5 1
L -18.55 1
Q -20.2896484375 7.6927734375 -20.15 13.9 -19.634765625 19.7447265625 -17.35 22.2 -12.8296875 26.803125 -2.9 25.8 2.5015625 25.49296875 9.1 20.95 10.5724609375 19.9642578125 11.85 18.8
L 11.9 18.8 14 16.65
Q 14.4072265625 16.2400390625 14.75 15.8
L 14.7 15.75 14.75 15.7 15.95 14.25
Q 17.1666015625 12.557421875 18.15 10.65 19.277734375 7.644140625 20.3 4.95 19.1912109375 2.0712890625 18.4 -1.4 Z"/>
</g>

<g id="FS_Iris_0_Layer1_0_FILL">
<path fill="url(#Gradient_1)" stroke="none" d="
M 17.7 -13.05
Q 13.45 -21.1 5.25 -22.95 -3 -24.85 -10.3 -19.4 -17.6 -14 -19.75 -4.45 -20.922265625 0.6119140625 -20 7.1 -19.662109375 8.449609375 -19.2 9.75
L -18.6 11.2
Q -18.1958984375 12.1607421875 -17.7 13.1 -13.45 21.15 -5.2 23 3 24.85 10.3 19.45 17.6 14 19.8 4.5 21.95 -5 17.7 -13.05 Z"/>
</g>

<g id="FS_Iris_0_Layer0_0_FILL">
<path fill="#8AD2D5" stroke="none" d="
M -6.5 8
Q -17.6794921875 11.2681640625 -18.65 11.25 -17.6072265625 14.0123046875 -15.4 16.75
L 0.1 6.75 -6.5 8 Z"/>
</g>

<g id="FS_Iris_0_Layer0_1_FILL">
<path fill="#3DBFBB" stroke="none" d="
M -20.25 5.4
Q -19.7828125 8.4513671875 -18.6 11.3
L 0.4 6.6 -20.25 5.4 Z"/>
</g>

<g id="FS_Pupil_0_Layer0_0_FILL">
<path fill="#000000" stroke="none" d="
M 12.45 -9.9
Q 10.5203125 -16.0232421875 5.5 -17.5 0.487109375 -18.9470703125 -4.7 -14.9 -9.854296875 -10.7671875 -12.15 -3.55 -14.402734375 3.7013671875 -12.5 9.8 -10.484375 16.0318359375 -5.45 17.5 -0.4265625 18.9556640625 4.7 14.8 9.91484375 10.7759765625 12.15 3.55 14.43828125 -3.692578125 12.45 -9.9 Z"/>
</g>

<g id="FS_Hilights_0_Layer1_0_FILL">
<path fill="#FFFFFF" stroke="none" d="
M -8.15 11.5
Q -8.11953125 11.614453125 -8.1 11.7 -8.0240234375 11.8134765625 -7.95 11.95 -7.7912109375 12.381640625 -7.55 12.75 -7.4705078125 12.844140625 -7.4 12.9 -7.2078125 13.113671875 -6.95 13.3 -6.50546875 13.6888671875 -6.05 13.8 -5.996875 13.8515625 -5.95 13.85 -5.6171875 13.9560546875 -5.2 13.95 -3.9484375 13.97890625 -3.4 12.75 -3.3849609375 12.698046875 -3.4 12.65 -3.1736328125 12.1291015625 -3.25 11.35 -3.259765625 11.128515625 -3.35 10.85 -3.3462890625 10.7740234375 -3.4 10.7 -3.7330078125 9.7962890625 -4.4 9.15 -4.435546875 9.108203125 -4.5 9.05 -4.72890625 8.870703125 -4.9 8.75 -5.579296875 8.305859375 -6.3 8.4 -7.123828125 8.352734375 -7.65 8.9 -7.813671875 9.0921875 -8 9.35 -8.0568359375 9.446484375 -8.1 9.55 -8.510546875 10.357421875 -8.15 11.5
M 3.85 -8.7
L 3.8 -8.75
Q 1.3921875 -11.8771484375 -1.15 -11.7 -4.233984375 -11.8736328125 -5.6 -8.2
L -5.6 -8.15
Q -6.528125 -5.45625 -5.75 -1.6 -5.0052734375 2.07265625 -3.05 4.6
L -3.05 4.6
Q -0.6041015625 7.82109375 2 7.65 5.12890625 7.837890625 6.4 4 7.375390625 1.40078125 6.6 -2.4
L 6.6 -2.45
Q 5.8041015625 -6.1376953125 3.85 -8.7 Z"/>
</g>

<g id="FS_EyeWhite_front_2_Layer0_0_FILL">
<path fill="#FFFFFF" stroke="none" d="
M 18.4 -1.4
Q 17.00546875 -8.30078125 13.5 -13.3 8.8466796875 -19.619140625 2.7 -21.4 -1.4556640625 -20.9298828125 -4.5 -19 -14.69296875 -12.6572265625 -17.8 -2.7 -18.1935546875 -1.4421875 -18.5 1
L -18.55 1
Q -20.2896484375 7.6927734375 -20.15 13.9 -19.634765625 19.7447265625 -17.35 22.2 -12.8296875 26.803125 -2.9 25.8 2.5015625 25.49296875 9.1 20.95 10.5724609375 19.9642578125 11.85 18.8
L 11.9 18.8 14 16.65
Q 14.4072265625 16.2400390625 14.75 15.8
L 14.7 15.75 14.75 15.7 15.95 14.25
Q 17.1666015625 12.557421875 18.15 10.65 19.277734375 7.644140625 20.3 4.95 19.1912109375 2.0712890625 18.4 -1.4 Z"/>
</g>

<g id="FS_Blink_front_3_Layer3_0_FILL">
<path fill="#FDF6AE" stroke="none" d="
M 21.5 -3.55
Q 21.2267578125 -6.9396484375 20.1 -12 18.8115234375 -17.7748046875 16.6 -19.7 8.0294921875 -27.2216796875 -1.95 -23.65 -9.3916015625 -21 -15.35 -13.5 -19.553515625 -8.22890625 -22.5 1.25 -25.7216796875 11.8732421875 -25.5 22.2 -18.358984375 24.5681640625 -12.6 25.25 -8.6408203125 26.5849609375 -2.85 26 2.5515625 25.69296875 9.15 21.15 10.6224609375 20.1642578125 11.9 19
L 11.95 19 14.05 16.85
Q 14.4572265625 16.4400390625 14.8 16
L 14.75 15.95 14.8 15.9 16 14.45
Q 16.521484375 13.7244140625 17 12.95 21.5826171875 5.3234375 21.5 -3.55 Z"/>
</g>

<g id="FS_Blink_front_3_Layer2_0_FILL">
<path fill="#000000" stroke="none" d="
M -20.25 -5.15
Q -20.1333984375 -5.5349609375 -20.9 -4.2 -23.51953125 0.8904296875 -24.5 6.4 -25.297265625 10.82890625 -24.85 13.85 -24.0728515625 19.0150390625 -21.8 21.75 -19.8521484375 24.149609375 -15.9 25.45 -8.6369140625 27.9033203125 1 22 6.6578125 18.6224609375 10.75 13.4 12.9353515625 10.6548828125 14.65 6.8 17.0427734375 1.7251953125 17.55 -1.9 14.7435546875 5.9447265625 8.6 13.2 5.11953125 17.4060546875 0.7 20.25 -16.822265625 29.870703125 -21.4 16.2 -21.836328125 14.865234375 -22.05 13.35 -23.2541015625 5.4822265625 -20.25 -5.15 Z"/>
</g>

<g id="FS_Blink_front_3_Layer1_0_FILL">
<path fill="#000000" stroke="none" d="
M 13.45 6.85
L 12.15 8.45 13.3 9.1
Q 21.1 12.1 26.65 7.55 20.55 9.85 14.6 7.45
L 13.45 6.85 Z"/>
</g>

<g id="FS_Blink_front_3_Layer1_1_FILL">
<path fill="#000000" stroke="none" d="
M 24.5 16.1
Q 14.1 16.75 10.1 11.7
L 8.45 13.45
Q 15.2 19.55 24.5 16.1 Z"/>
</g>

<g id="FS_Blink_front_3_Layer1_2_FILL">
<path fill="#000000" stroke="none" d="
M 6.95 17.7
L 5.9 16.75 4.05 18.05 5 19
Q 11.2 24.1 19.25 21.2 11.1 21.45 6.95 17.7 Z"/>
</g>

<g id="FS_Brow_3_4_8_Layer4_0_FILL">
<path fill="#FDF6AE" stroke="none" d="
M -41 -18
Q -49.09609375 -3.21640625 -42 -1.45 -31.4580078125 7.6216796875 -2.55 2.25 -1.6908203125 2.1703125 -1.1 2.15 14.1453125 -16.0892578125 2.6 -31.3 -1.554296875 -33.840234375 -7.3 -36.15 -21.9275390625 -41.9796875 -41 -18 Z"/>
</g>

<g id="FS_Brow_3_4_8_Layer0_0_FILL">
<path fill="#000000" stroke="none" d="
M -42.55 -2.1
Q -42.8 -2.7 -42.9 -3.4 -43.1 -4.15 -43.1 -4.95 -43.15 -5.75 -43.15 -6.45 -43.2 -7.2 -43.15 -10.3
L -43.85 -10.5
Q -45.5 -6.8 -45.55 -3.7 -45.5 -1.65 -44.9 -0.1 -37.25 4.9 -21.25 5.5 -20.7 5.5 -20.1 5.5
L -20.1 5.55
Q -6.75 5.7 -0.05 2.75 1.05 2.4 1.8 1.45 2.05 1.1 1.65 0.9 -8 3.15 -19.9 3.1
L -19.95 3.1
Q -20.75 3.1 -21.5 3.1 -37.35 2.2 -42.55 -2.1 Z"/>
</g>

<g id="FS_Mouth_front_hole__40_Layer3_0_FILL">
<path fill="#EBD463" stroke="none" d="
M 11.75 14.85
L 12.5 15.4
Q 0.691796875 4.026171875 -11.45 15
L -10.85 14.6
Q 0.04609375 9.4126953125 11.75 14.85 Z"/>
</g>

<g id="FS_Wrinkle_0_Layer0_0_FILL">
<path fill="#EBD463" stroke="none" d="
M 6.4 0.9
Q 6.229296875 0.7560546875 6.05 0.6 3.57890625 -1.2400390625 -0.2 -1.1 -3.897265625 -1.0052734375 -6.15 0.85 -6.28046875 0.943359375 -6.4 1.05
L -6.05 1
Q 0.6 0 5.95 0.8
L 6.4 0.9 Z"/>
</g>

<g id="FS_Nostril_front_0_Layer0_0_FILL">
<path fill="#EBD463" stroke="none" d="
M -7.55 1.3
Q -6.9 3 -3.7 2.1 -5.85 1.15 -6.2 0.25 -6.7 -0.8 -6.4 -2.2 -8.2 -0.15 -7.55 1.3
M 3.85 1.95
Q 6.7 2.8 7.5 1.15 8.2 -0.45 6.55 -2.35 6.8 -1 6.35 0.05 5.95 1.05 3.85 1.95 Z"/>
</g>

<g id="FS_Hair_01_0_Layer3_0_FILL">
<path fill="#F4B6D1" stroke="none" d="
M 44.5 -2.9
L 46.1 -22.45
Q 10.1765625 -53.47265625 -27.75 -49.25 -33.85 -48.6 -40.1 -47.1 -46.6 -45.5 -51.25 -43.15 -55.9 -40.8 -59.4 -37.2 -62.9 -33.55 -62.75 -26.65 -62.942578125 -20.2287109375 -57.5 -13.15 -47.105078125 0.4365234375 -27.35 -5.25 -5.36875 -12.439453125 6.35 2.7 22.2833984375 -22.8126953125 44.5 -2.9 Z"/>
</g>

<g id="FS_Ear_1_Layer1_0_FILL">
<path fill="#FDF6AE" stroke="none" d="
M 2.45 -35.95
Q 0.95 -33.9 0 -30.55 -0.8 -27.75 -2.05 -18.8
L -3.15 -10.35
Q -3.116796875 -10.236328125 -3.1 -10.15 2.44375 8.682421875 9.05 22.35 9.228515625 22.256640625 9.4 22.15 14.7013671875 19.1380859375 17.75 9.75 20.45 1.45 20.2 -4.95
L 20.2 -5
Q 19.9 -11.55 18.15 -17.5 16.5 -23.1 13.2 -29.1 8.85 -37.1 4.4 -37.75 3.55 -37.55 2.45 -35.95
M 9.35 -27.8
Q 14.55 -18.3 14.7 -10.15 14.8462890625 -2.0525390625 9.8 6.35 9.6794921875 6.5888671875 9.55 6.8
L 9.7 6.35
Q 15.65 -8.15 9.35 -27.8 Z"/>

<path fill="#EBD463" stroke="none" d="
M 14.7 -10.15
Q 14.55 -18.3 9.35 -27.8 15.65 -8.15 9.7 6.35
L 9.55 6.8
Q 9.6794921875 6.5888671875 9.8 6.35 14.8462890625 -2.0525390625 14.7 -10.15
M 15.85 -30.55
Q 13 -35.75 9.45 -38.55 6.65 -40.8 4.65 -40.75
L 4.6 -40.75
Q 2.85 -41.05 0.95 -38.85 -1.1 -36.45 -2.85 -31.55 -4.3 -27.4 -4.65 -20.95 -5.0384765625 -13.7126953125 -3.3 -10.3
L -3.15 -10.35 -2.05 -18.8
Q -0.8 -27.75 0 -30.55 0.95 -33.9 2.45 -35.95 3.55 -37.55 4.4 -37.75 8.85 -37.1 13.2 -29.1 16.5 -23.1 18.15 -17.5 19.9 -11.55 20.2 -5
L 20.2 -4.95
Q 20.45 1.45 17.75 9.75 14.7013671875 19.1380859375 9.4 22.15 9.228515625 22.256640625 9.05 22.35
L 9.65 22.5
Q 15.5001953125 20.8228515625 19.5 11.75 23.5525390625 2.6892578125 23.2 -5.1 22.9 -12 21.05 -18.25 19.3 -24.2 15.85 -30.55 Z"/>
</g>

<g id="FS_Hair_05_0_Layer1_0_FILL">
<path fill="#E781B3" stroke="none" d="
M -45.95 -45.5
Q -61.7623046875 -47.2140625 -71.2 -37.65 -80.5517578125 -28.269140625 -83.6 -7.85 -89.366796875 30.4138671875 -53.1 89.6
L -53.05 89.7 -53 89.75 -52.95 89.8
Q -52.796484375 90.06328125 -52.65 90.3
L -52.4 90.65 -52.4 90.65
Q -46.6580078125 98.648046875 -37.2 94.8 -27.769140625 90.9650390625 -29.7 82.7
L -29.65 82.7 -29.85 82.1
Q -29.9029296875 81.8314453125 -30 81.5
L -30.4 80.3 -30.5 80.35
Q -44.42890625 47.7134765625 -36.6 17.55 -32.7322265625 2.7646484375 -24.2 -1.9 -15.64921875 -6.39609375 -2.4 -0.85
L 0.25 0.2 -0.75 -2.45
Q -14.7755859375 -42.270703125 -45.95 -45.5
M -69.45 -35.9
Q -60.725390625 -44.5859375 -46.2 -43 -17.5458984375 -39.84140625 -4.05 -4.2 -16.8515625 -8.7896484375 -25.4 -4.15 -34.81796875 0.834765625 -39 16.9 -47.1771484375 48.2212890625 -32.45 82.15
L -32.5 82.05 -32.4 82.25
Q -30.301171875 89.308203125 -38.15 92.5 -45.78203125 95.6029296875 -50.4 89.15
L -51.45 87.25 -51.55 87.3
Q -86.5859375 29.768359375 -81.15 -7.5 -78.2359375 -26.9306640625 -69.45 -35.9 Z"/>

<path fill="#F4B6D1" stroke="none" d="
M -46.2 -43
Q -60.725390625 -44.5859375 -69.45 -35.9 -78.2359375 -26.9306640625 -81.15 -7.5 -86.5859375 29.768359375 -51.55 87.3
L -51.45 87.25 -50.4 89.15
Q -45.78203125 95.6029296875 -38.15 92.5 -30.301171875 89.308203125 -32.4 82.25
L -32.5 82.05 -32.45 82.15
Q -47.1771484375 48.2212890625 -39 16.9 -34.81796875 0.834765625 -25.4 -4.15 -16.8515625 -8.7896484375 -4.05 -4.2 -17.5458984375 -39.84140625 -46.2 -43 Z"/>
</g>

<g id="FS_Hair_03_0_Layer1_0_FILL">
<path fill="#F4B6D1" stroke="none" d="
M 11.15 6.2
L 11.15 6.1
Q 0.5021484375 6.2919921875 -8.15 7.15 -7.3658203125 10.4359375 -6.5 13.85
L -6.5 13.75
Q 1.8091796875 40.328515625 -10.2 72.1 0.9033203125 70.6236328125 6.9 55.5
L 6.85 55.5
Q 14.0623046875 37.2119140625 11.15 6.2 Z"/>

<path fill="#E781B3" stroke="none" d="
M 11.05 4.95
L 11.15 6.1 11.15 6.2
Q 14.0623046875 37.2119140625 6.85 55.5
L 6.9 55.5
Q 0.9033203125 70.6236328125 -10.2 72.1 1.8091796875 40.328515625 -6.5 13.75
L -6.5 13.85
Q -7.3658203125 10.4359375 -8.15 7.15 -8.1556640625 7.0822265625 -8.2 7
L -8.5 5.8 -10.9 6.35 -10.65 7.6
Q -9.8126953125 10.9498046875 -8.9 14.45
L -8.9 14.5
Q -0.6384765625 41.0998046875 -13.25 73.05
L -15.4 75.2 -12.2 75.05
Q 1.9 74.9 9.2 56.4
L 9.2 56.4
Q 16.6375 37.6884765625 13.65 5.95
L 13.5 4.75 11.05 4.95 Z"/>
</g>

<g id="FS_Hair_03_0_Layer0_0_FILL">
<path fill="#E781B3" stroke="none" d="
M -11.3 4.7
Q -11.1 7 -9.55 18.85 -8.4 27.3 -8.6 31.4 -8.960546875 41.0763671875 -10.35 46.55 -11.610546875 51.755859375 -14.5 54.55 -18.2138671875 58.26015625 -22.35 54.4 -23.7822265625 53.0626953125 -23.75 51 -23.7775390625 45.6306640625 -27.85 44.9 -32.5541015625 43.7615234375 -33.8 48.8 -34.3228515625 52.129296875 -33.9 56.65 -32.95 66.65 -25.55 71.65 -18.9 76.15 -12.7 74.95 -8.7 74.15 -6.1 70.2 -1.15 62.7 -0.2 48.85 0.3 42.1 -1.2 31.85 -2.75 20.75 -9.55 2.05 -10.3 3.3 -11.3 4.7
M -5.7 36.45
Q -5.2326171875 30.3453125 -6.25 18.7 -2.35 30.8 -1.9 40.1 -1.5 49.1 -2.75 56.55 -4.2 65.05 -7.5 69.7 -8.35 70.95 -10.4 72.25 -12.15 73.35 -12.85 73.45 -17.2 73.95 -21.9 71.4 -26.2 69.05 -28.25 65.65 -31.142578125 60.8341796875 -31.6 54.05 -31.9638671875 48.01484375 -29 48.1 -26.75 48.35 -26.95 50.55 -26.75 52.2 -26.3 52.95 -24.95 55.4 -21.4 56.9 -18.15 58.25 -15.55 57.45 -12.75 56.6 -10.7 54.2 -6.6478515625 49.6302734375 -5.7 36.45 Z"/>

<path fill="#F4B6D1" stroke="none" d="
M -6.25 18.7
Q -5.2326171875 30.3453125 -5.7 36.45 -6.6478515625 49.6302734375 -10.7 54.2 -12.75 56.6 -15.55 57.45 -18.15 58.25 -21.4 56.9 -24.95 55.4 -26.3 52.95 -26.75 52.2 -26.95 50.55 -26.75 48.35 -29 48.1 -31.9638671875 48.01484375 -31.6 54.05 -31.142578125 60.8341796875 -28.25 65.65 -26.2 69.05 -21.9 71.4 -17.2 73.95 -12.85 73.45 -12.15 73.35 -10.4 72.25 -8.35 70.95 -7.5 69.7 -4.2 65.05 -2.75 56.55 -1.5 49.1 -1.9 40.1 -2.35 30.8 -6.25 18.7 Z"/>
</g>

<g id="FS_Hair_04_0_Layer1_0_FILL">
<path fill="#F4B6D1" stroke="none" d="
M 0.4 10.1
Q 3.35 5.7 3.15 1.15 -0.55 0.4 -1.5 0.65 -1.4 3.25 -2.3 4.9 -5.35 10.8 -9.7 9.8 -11.65 9.4 -12.7 7.45 -13.45 9.15 -12.55 10.95 -10.5 15.1 -5.5 14.35 -1.95 13.8 0.4 10.1 Z"/>

<path fill="#E781B3" stroke="none" d="
M 3.15 1.15
Q 3.35 5.7 0.4 10.1 -1.95 13.8 -5.5 14.35 -10.5 15.1 -12.55 10.95 -13.45 9.15 -12.7 7.45 -11.65 9.4 -9.7 9.8 -5.35 10.8 -2.3 4.9 -1.4 3.25 -1.5 0.65 -4.6 1.05 -4.6 1.2 -4.55 4.1 -6.7 6.7 -8.95 9.55 -10.8 7.7 -12.9 5.7 -11.6 0.9 -12.4 1.75 -13.6 4.25 -14.6 6.45 -14.75 7.05 -15.523828125 12.1751953125 -11.9 14.35 -8.7421875 16.2017578125 -4.7 15.7 -0.6796875 15.2421875 1.8 12.7 5.2 9.25 5.6 1.8 4.65 2.1 3.15 1.15 Z"/>
</g>

<path id="FS_Mouth_front_chin__0_Layer1_0_1_STROKES" stroke="#EBD463" stroke-width="3" stroke-linejoin="round" stroke-linecap="round" fill="none" d="
M 37 3.1
Q 32.8205078125 8.659375 28.3 11.875 23.7880859375 15.0919921875 21.425 16.25 19.0623046875 17.404296875 17.75 17.925 2.5015625 23.9185546875 -14.6 17.85 -26.379296875 13.5955078125 -34.95 3.1"/>

<path id="FS_Hair_01_0_Layer3_0_1_STROKES" stroke="#E781B3" stroke-width="2" stroke-linejoin="miter" stroke-linecap="square" stroke-miterlimit="3" fill="none" d="
M 44.5 -2.9
Q 22.2833984375 -22.8126953125 6.35 2.7 -5.36875 -12.439453125 -27.35 -5.25 -47.105078125 0.4365234375 -57.5 -13.125 -62.942578125 -20.2287109375 -62.75 -26.625 -62.9 -33.55 -59.4 -37.175 -55.9 -40.8 -51.25 -43.15 -46.6 -45.5 -40.1 -47.1 -33.85 -48.6 -27.725 -49.225 10.1765625 -53.47265625 46.1 -22.45
L 44.5 -2.9 Z"/>

<path id="FS_Hair_01_0_Layer2_0_1_STROKES" stroke="#E781B3" stroke-width="1.4" stroke-linejoin="miter" stroke-linecap="square" stroke-miterlimit="3" fill="none" d="
M -2.2 -48.05
Q 25.1515625 -37.34921875 10.85 -3.45"/>

<path id="FS_Hair_01_0_Layer1_0_1_STROKES" stroke="#E781B3" stroke-width="1.4" stroke-linejoin="miter" stroke-linecap="square" stroke-miterlimit="3" fill="none" d="
M 28.55 -34.8
Q 33.6052734375 -21.1677734375 30.25 -11.5"/>

<path id="FS_Hair_01_0_Layer0_0_1_STROKES" stroke="#E781B3" stroke-width="1.4" stroke-linejoin="miter" stroke-linecap="square" stroke-miterlimit="3" fill="none" d="
M 37.25 -29.35
Q 39.0728515625 -19.626171875 33.6 -10.6"/>
</defs>

<g transform="matrix( 0.986846923828125, 0, 0, 0.986846923828125, 690.65,309.25) ">
<g transform="matrix( 1.10931396484375, 0, 0, 1, 4.35,152.35) ">
<g transform="matrix( 1.1522064208984375, 0, 0, 1.7481689453125, 4.4,-262.5) ">
<use filter="url(#Filter_1)" xlink:href="#FS_Shadow_0_Layer0_0_FILL"/>
</g>
</g>

<g transform="matrix( 1.28680419921875, -0.02740478515625, -0.6415557861328125, 1.08154296875, -13.65,37.35) ">
<g transform="matrix( 0.0992584228515625, -0.989715576171875, 0.989715576171875, 0.0992584228515625, 47.35,91.9) ">
<g transform="matrix( 1, 0, 0, 1, 0,0) ">
<use xlink:href="#FS_Tail_02_1_Layer0_0_FILL"/>
</g>
</g>

<g transform="matrix( 0.9839324951171875, 0.1470489501953125, -0.1470489501953125, 0.9839324951171875, 0.65,0.3) ">
<g transform="matrix( 1, 0, 0, 1, 0,0) ">
<use xlink:href="#FS_Tail_01_1_Layer2_0_FILL"/>
</g>
</g>

<g transform="matrix( 0.966827392578125, -0.2294158935546875, 0.2294158935546875, 0.966827392578125, 103.55,92.65) ">
<g transform="matrix( 1, 0, 0, 1, 0,0) ">
<use xlink:href="#FS_Tail_03_1_Layer0_0_FILL"/>
</g>
</g>
</g>

<g transform="matrix( 1, 0, -0.1077423095703125, 0.842132568359375, 23.9,36.6) ">
<g transform="matrix( 1, 0, 0, 1, 17.6,127.9) ">
<g transform="matrix( 1, 0, 0, 1, 0,0) ">
<use xlink:href="#FS_FrontLeg_3_4_hoof_4_Layer0_0_FILL"/>
</g>
</g>

<g transform="matrix( 1, 0, 0, 1, 5.05,57.05) ">
<g transform="matrix( 1, 0, 0, 1, 0,0) ">
<use xlink:href="#FS_KneePatch_1_Layer0_0_FILL"/>
</g>
</g>

<g transform="matrix( 1, 0, 0, 1, 8.7,62.65) ">
<g transform="matrix( 1, 0, 0, 1, 0,0) ">
<use xlink:href="#FS_HindLeg_3_4rear_lower_0_Layer1_0_FILL"/>
</g>

<g transform="matrix( 1, 0, 0, 1, 0,0) ">
<use xlink:href="#FS_HindLeg_3_4rear_lower_0_Layer0_0_FILL"/>
</g>
</g>

<g transform="matrix( 1, 0, -0.0095977783203125, 1.0159912109375, 5.95,-9.8) ">
<g transform="matrix( 1, 0, 0, 1, 0,0) ">
<use xlink:href="#FS_HindLeg_3_4_top_3_Layer1_0_FILL"/>
</g>

<g transform="matrix( 1, 0, 0, 1, 0,0) ">
<use xlink:href="#FS_HindLeg_3_4_top_3_Layer0_0_FILL"/>
</g>
</g>

<g transform="matrix( 1, 0, 0, 1, 5.05,57.05) ">
<g transform="matrix( 1, 0, 0, 1, 0,0) ">
<use xlink:href="#FS_KneePatch_0_Layer0_0_FILL"/>
</g>
</g>
</g>

<g transform="matrix( -0.9915008544921875, -0.1300811767578125, -0.0427703857421875, 1.002960205078125, 1,17.1) ">
<g transform="matrix( 0.907562255859375, -0.4160614013671875, 0.4160614013671875, 0.907562255859375, 5.85,91.65) ">
<g transform="matrix( 1, 0, 0, 1, 0,0) ">
<use filter="url(#Filter_2)" xlink:href="#FS_FrontLeg_3_4_hoof_6_Layer0_0_FILL"/>
</g>
</g>

<g transform="matrix( 0.7404632568359375, -0.3578338623046875, 0.0124969482421875, 0.6438751220703125, 12,46.45) ">
<g transform="matrix( 1, 0, 0, 1, 0,0) ">
<use filter="url(#Filter_2)" xlink:href="#FS_KneePatch_1_Layer0_0_FILL"/>
</g>
</g>

<g transform="matrix( 0.95074462890625, 0.3094329833984375, -0.309417724609375, 0.95074462890625, 14.5,43.9) ">
<g transform="matrix( 1, 0, 0, 1, 0,0) ">
<use filter="url(#Filter_2)" xlink:href="#FS_HindLeg_3_4rear_lower_2_Layer1_0_FILL"/>
</g>

<g transform="matrix( 1, 0, 0, 1, 0,0) ">
<use filter="url(#Filter_2)" xlink:href="#FS_HindLeg_3_4rear_lower_2_Layer0_0_FILL"/>
</g>
</g>

<g transform="matrix( 1.05712890625, 0, -0.008514404296875, 0.90179443359375, 5.95,-11.1) ">
<g transform="matrix( 1, 0, 0, 1, 0,0) ">
<use filter="url(#Filter_2)" xlink:href="#FS_HindLeg_3_4_top_3_Layer1_0_FILL"/>
</g>

<g transform="matrix( 1, 0, 0, 1, 0,0) ">
<use filter="url(#Filter_2)" xlink:href="#FS_HindLeg_3_4_top_3_Layer0_0_FILL"/>
</g>
</g>

<g transform="matrix( 0.7404632568359375, -0.3578338623046875, 0.0124969482421875, 0.6438751220703125, 12,46.45) ">
<g transform="matrix( 1, 0, 0, 1, 0,0) ">
<use filter="url(#Filter_2)" xlink:href="#FS_KneePatch_0_Layer0_0_FILL"/>
</g>
</g>
</g>

<g transform="matrix( 0.983062744140625, 0.1743011474609375, -0.1743011474609375, 0.983062744140625, 15,39.45) ">
<g transform="matrix( 1, 0, 0, 1, 0,0) ">
<use xlink:href="#FS_Wing_front_8_Layer5_0_FILL"/>
</g>
</g>

<g transform="matrix( 0.9986419677734375, 0.052093505859375, 0.0330810546875, 1.173095703125, -23.15,34.6) ">
<g transform="matrix( 1, 0, 0, 1, 0,0) ">
<use xlink:href="#FS_Torso_0_Layer1_0_FILL"/>
</g>
</g>

<g transform="matrix( -0.96600341796875, -0.252166748046875, -0.252166748046875, 0.96600341796875, -36.2,24.25) ">
<g transform="matrix( 1, 0, 0, 1, 0,0) ">
<use xlink:href="#FS_Wing_front_8_Layer5_0_FILL"/>
</g>
</g>

<g transform="matrix( 0.9986419677734375, 0.052093505859375, -0.052093505859375, 0.9986419677734375, -8.9,3.4) ">
<g transform="matrix( 1, 0, 0, 1, 0,0) ">
<use xlink:href="#FS_Neck_0_Layer0_0_FILL"/>
</g>
</g>

<g transform="matrix( -1.186981201171875, -0.0755157470703125, -0.4372100830078125, 0.8131561279296875, -5.65,63.6) ">
<g transform="matrix( 0.9918670654296875, 0, 0, 1, -6.4,91.15) ">
<g transform="matrix( 1, 0, 0, 1, 0,0) ">
<use xlink:href="#FS_FrontLeg_3_4_hoof_10_Layer0_0_FILL"/>
</g>
</g>

<g transform="matrix( 0.999969482421875, -0.0043792724609375, -0.001129150390625, 1, 0.3,0.35) ">
<g transform="matrix( 1, 0, 0, 1, 0,0) ">
<use xlink:href="#FS_FrontLeg_3_4_upper_9_Layer1_0_FILL"/>
</g>
</g>
</g>

<g transform="matrix( -0.90631103515625, 0.417999267578125, 0.434783935546875, 1.00067138671875, -42.7,63.7) ">
<g transform="matrix( 0.9705963134765625, 0.2350311279296875, -0.2350311279296875, 0.9705963134765625, -8.2,-7.25) ">
<g transform="matrix( 1, 0, 0, 1, 0,0) ">
<use xlink:href="#FS_FrontLeg_3_4_upper_11_Layer2_0_FILL"/>
</g>

<g transform="matrix( 1, 0, 0, 1, 0,0) ">
<use xlink:href="#FS_FrontLeg_3_4_upper_11_Layer1_0_FILL"/>
</g>
</g>
</g>

<g transform="matrix( 1.182403564453125, 0.061676025390625, -0.052093505859375, 0.9986419677734375, -19.6,71.25) ">
<g transform="matrix( 1, 0, 0, 1, 0,0) ">
<use xlink:href="#FS_Chest_1_Layer0_0_FILL"/>
</g>
</g>

<g transform="matrix( 1.0317230224609375, 0.2971649169921875, -0.281890869140625, 0.951385498046875, 43.85,-50.05) ">
<g transform="matrix( 0, -1, 1, 0, 6.15,174.2) ">
<g transform="matrix( 1, 0, 0, 1, 0,0) ">
<use xlink:href="#FS_Mane_02_0_Layer0_0_FILL"/>
</g>
</g>

<g transform="matrix( 1, 0, 0, 1, 0.55,-0.95) ">
<g transform="matrix( 1, 0, 0, 1, 0,0) ">
<use xlink:href="#FS_Mane_01_0_Layer1_0_FILL"/>
</g>
</g>

<g transform="matrix( -1, 0, 0, -1, 31.25,164.2) ">
<g transform="matrix( 1, 0, 0, 1, 0,0) ">
<use xlink:href="#FS_Mane_03_0_Layer0_0_FILL"/>
</g>
</g>
</g>

<g transform="matrix( -0.934417724609375, 0.3533172607421875, 0.3980560302734375, 0.9161529541015625, -47.8,61.15) ">
<g transform="matrix( -0.0614166259765625, 0.9964599609375, -0.9964599609375, -0.0614166259765625, -6.55,12.5) ">
<g transform="matrix( 1, 0, 0, 1, 0,0) ">
<use xlink:href="#FS_FrontLeg_3_4_lower_6_Layer1_0_FILL"/>
</g>
</g>

<g transform="matrix( 0.998321533203125, 0.0023345947265625, -0.0023345947265625, 0.998321533203125, -17.95,11.75) ">
<g transform="matrix( 1, 0, 0, 1, 0,0) ">
<use xlink:href="#FS_FrontLeg_3_4_hoof_1_Layer0_0_FILL"/>
</g>
</g>
</g>

<g transform="matrix( 0.97821044921875, 0.20758056640625, -0.20758056640625, 0.97821044921875, 7.35,-19.3) ">
<g transform="matrix( 1, 0, 0, 1, 0.25,-12.1) ">
<g transform="matrix( 1, 0, 0, 1, 0,0) ">
<use xlink:href="#FS_Skull_2_Layer0_0_FILL"/>
</g>
</g>

<g transform="matrix( 0.9999847412109375, 0, -0.0000152587890625, 0.9999847412109375, 0.4,18.8) ">
<g transform="matrix( 1, 0, 0, 1, 0,0) ">
<use xlink:href="#FS_Mouth_front_chin__0_Layer1_0_FILL"/>

<use xlink:href="#FS_Mouth_front_chin__0_Layer1_0_1_STROKES"/>
</g>
</g>

<mask id="Mask_Mask_1">
<g transform="matrix( -0.7280120849609375, -0.1036224365234375, -0.148193359375, 1.0270233154296875, -27.1,-6.15) ">
<g transform="matrix( 1, 0, 0, 1, 0,0) ">
<use xlink:href="#Mask_Mask_FS_EyeWhite_front_0_Layer0_0_FILL"/>
</g>
</g>
</mask>

<g mask="url(#Mask_Mask_1)">
<g transform="matrix( -0.7280120849609375, -0.1036224365234375, -0.148193359375, 1.0270233154296875, -27.1,-6.15) ">
<g transform="matrix( 1, 0, 0, 1, 0,0) ">
<use xlink:href="#FS_EyeWhite_front_0_Layer0_0_FILL"/>
</g>
</g>
</g>

<g mask="url(#Mask_Mask_1)">
<g transform="matrix( 0.69085693359375, 0, 0.0777130126953125, 0.922119140625, -23.6,-2.75) ">
<g transform="matrix( 1, 0, 0, 1, 0,0) ">
<use xlink:href="#FS_Iris_0_Layer1_0_FILL"/>
</g>

<g transform="matrix( 1, 0, 0, 1, 0,0) ">
<use xlink:href="#FS_Iris_0_Layer0_0_FILL"/>
</g>

<g transform="matrix( 1, 0, 0, 1, 0,0) ">
<use xlink:href="#FS_Iris_0_Layer0_1_FILL"/>
</g>
</g>
</g>

<g mask="url(#Mask_Mask_1)">
<g transform="matrix( -0.8539886474609375, 0, -0.11883544921875, 0.95623779296875, -23.1,-1.95) ">
<g transform="matrix( 1, 0, 0, 1, 0,0) ">
<use xlink:href="#FS_Pupil_0_Layer0_0_FILL"/>
</g>
</g>
</g>

<g mask="url(#Mask_Mask_1)">
<g transform="matrix( 0.985626220703125, 0.251556396484375, 0.04034423828125, 0.799530029296875, -19.4,-9.35) ">
<g transform="matrix( 1, 0, 0, 1, 0,0) ">
<use xlink:href="#FS_Hilights_0_Layer1_0_FILL"/>
</g>
</g>
</g>

<mask id="Mask_Mask_2">
<g transform="matrix( 0.7280120849609375, -0.1036224365234375, 0.148193359375, 1.0270233154296875, 28.9,-5.55) ">
<g transform="matrix( 1, 0, 0, 1, 0,0) ">
<use xlink:href="#Mask_Mask_FS_EyeWhite_front_0_Layer0_0_FILL"/>
</g>
</g>
</mask>

<g mask="url(#Mask_Mask_2)">
<g transform="matrix( 0.7280120849609375, -0.1036224365234375, 0.148193359375, 1.0270233154296875, 28.9,-5.55) ">
<g transform="matrix( 1, 0, 0, 1, 0,0) ">
<use xlink:href="#FS_EyeWhite_front_2_Layer0_0_FILL"/>
</g>
</g>
</g>

<g mask="url(#Mask_Mask_2)">
<g transform="matrix( -0.6764068603515625, 0, -0.0760955810546875, 0.9562835693359375, 24.95,-2.2) ">
<g transform="matrix( 1, 0, 0, 1, 0,0) ">
<use xlink:href="#FS_Iris_0_Layer1_0_FILL"/>
</g>

<g transform="matrix( 1, 0, 0, 1, 0,0) ">
<use xlink:href="#FS_Iris_0_Layer0_0_FILL"/>
</g>

<g transform="matrix( 1, 0, 0, 1, 0,0) ">
<use xlink:href="#FS_Iris_0_Layer0_1_FILL"/>
</g>
</g>
</g>

<g mask="url(#Mask_Mask_2)">
<g transform="matrix( 0.8209075927734375, 0, 0.1142425537109375, 0.9736175537109375, 24.85,-1.3) ">
<g transform="matrix( 1, 0, 0, 1, 0,0) ">
<use xlink:href="#FS_Pupil_0_Layer0_0_FILL"/>
</g>
</g>
</g>

<g mask="url(#Mask_Mask_2)">
<g transform="matrix( 1.018829345703125, 0.33831787109375, 0.03875732421875, 0.8131103515625, 29.75,-10.35) ">
<g transform="matrix( 1, 0, 0, 1, 0,0) ">
<use xlink:href="#FS_Hilights_0_Layer1_0_FILL"/>
</g>
</g>
</g>

<g transform="matrix( -0.7280120849609375, -0.1036224365234375, -0.148193359375, 1.0270233154296875, -27.1,-6.15) ">
<g transform="matrix( 1, 0, 0, 1, 0,0) ">
<use xlink:href="#FS_Blink_front_3_Layer3_0_FILL"/>
</g>

<g transform="matrix( 1, 0, 0, 1, 0,0) ">
<use xlink:href="#FS_Blink_front_3_Layer2_0_FILL"/>
</g>

<g transform="matrix( 1, 0, 0, 1, 0,0) ">
<use xlink:href="#FS_Blink_front_3_Layer1_0_FILL"/>
</g>

<g transform="matrix( 1, 0, 0, 1, 0,0) ">
<use xlink:href="#FS_Blink_front_3_Layer1_1_FILL"/>
</g>

<g transform="matrix( 1, 0, 0, 1, 0,0) ">
<use xlink:href="#FS_Blink_front_3_Layer1_2_FILL"/>
</g>
</g>

<g transform="matrix( 0.7280120849609375, -0.1036224365234375, 0.148193359375, 1.0270233154296875, 28.9,-5.55) ">
<g transform="matrix( 1, 0, 0, 1, 0,0) ">
<use xlink:href="#FS_Blink_front_3_Layer3_0_FILL"/>
</g>

<g transform="matrix( 1, 0, 0, 1, 0,0) ">
<use xlink:href="#FS_Blink_front_3_Layer2_0_FILL"/>
</g>

<g transform="matrix( 1, 0, 0, 1, 0,0) ">
<use xlink:href="#FS_Blink_front_3_Layer1_0_FILL"/>
</g>

<g transform="matrix( 1, 0, 0, 1, 0,0) ">
<use xlink:href="#FS_Blink_front_3_Layer1_1_FILL"/>
</g>

<g transform="matrix( 1, 0, 0, 1, 0,0) ">
<use xlink:href="#FS_Blink_front_3_Layer1_2_FILL"/>
</g>
</g>

<g transform="matrix( 0.769287109375, -0.086395263671875, 0, 1.02996826171875, 42.95,-17.9) ">
<g transform="matrix( 1, 0, 0, 1, 0,0) ">
<use xlink:href="#FS_Brow_3_4_8_Layer4_0_FILL"/>
</g>

<g transform="matrix( 1, 0, 0, 1, 0,0) ">
<use xlink:href="#FS_Brow_3_4_8_Layer0_0_FILL"/>
</g>
</g>

<g transform="matrix( -0.677276611328125, -0.043975830078125, -0.1729736328125, 0.9274139404296875, -36.05,-16.55) ">
<g transform="matrix( 1, 0, 0, 1, 0,0) ">
<use xlink:href="#FS_Brow_3_4_8_Layer4_0_FILL"/>
</g>

<g transform="matrix( 1, 0, 0, 1, 0,0) ">
<use xlink:href="#FS_Brow_3_4_8_Layer0_0_FILL"/>
</g>
</g>

<g transform="matrix( 0.9999847412109375, 0, -0.0000152587890625, 0.9999847412109375, 0.4,18.8) ">
<g transform="matrix( 1, 0, 0, 1, 0,0) ">
<use xlink:href="#FS_Mouth_front_hole__40_Layer3_0_FILL"/>
</g>
</g>

<g transform="matrix( 0.9999847412109375, 0, -0.0000152587890625, 0.9999847412109375, 0.4,18.8) ">
<g transform="matrix( 1, 0, 0, 1, 0.65,-8.5) ">
<g transform="matrix( 1, 0, 0, 1, 0,0) ">
<use xlink:href="#FS_Wrinkle_0_Layer0_0_FILL"/>
</g>
</g>
</g>

<g transform="matrix( 0.9999847412109375, 0, -0.0000152587890625, 0.9999847412109375, 0.4,16.8) ">
<g transform="matrix( 1, 0, 0, 1, 0.2,2.05) ">
<g transform="matrix( 1, 0, 0, 1, 0,0) ">
<use xlink:href="#FS_Nostril_front_0_Layer0_0_FILL"/>
</g>
</g>
</g>

<g transform="matrix( 1, 0, 0, 1, -4.85,-40.45) ">
<g transform="matrix( 1, 0, 0, 1, 0,0) ">
<use xlink:href="#FS_Hair_01_0_Layer3_0_FILL"/>

<use xlink:href="#FS_Hair_01_0_Layer3_0_1_STROKES"/>
</g>

<g transform="matrix( 1, 0, 0, 1, 0,0) ">
<use xlink:href="#FS_Hair_01_0_Layer2_0_1_STROKES"/>
</g>

<g transform="matrix( 1, 0, 0, 1, 0,0) ">
<use xlink:href="#FS_Hair_01_0_Layer1_0_1_STROKES"/>
</g>

<g transform="matrix( 1, 0, 0, 1, 0,0) ">
<use xlink:href="#FS_Hair_01_0_Layer0_0_1_STROKES"/>
</g>
</g>

<g transform="matrix( 0.9983673095703125, 0.053741455078125, -0.053741455078125, 0.9983673095703125, 35.95,-36.9) ">
<g transform="matrix( 1, 0, 0, 1, 0,0) ">
<use xlink:href="#FS_Ear_1_Layer1_0_FILL"/>
</g>
</g>
</g>

<g transform="matrix( 1.136871337890625, 0.241241455078125, -0.3958740234375, 0.9382476806640625, 16.45,-54.8) ">
<g transform="matrix( 1, 0, 0, 1, -0.1,-0.35) ">
<g transform="matrix( 1, 0, 0, 1, 0,0) ">
<use xlink:href="#FS_Hair_05_0_Layer1_0_FILL"/>
</g>
</g>

<g transform="matrix( 0.9485015869140625, -0.3123626708984375, 0.3123626708984375, 0.9485015869140625, -45.55,78.3) ">
<g transform="matrix( 1, 0, 0, 1, 0,0) ">
<use xlink:href="#FS_Hair_03_0_Layer1_0_FILL"/>
</g>

<g transform="matrix( 1, 0, 0, 1, 0,0) ">
<use xlink:href="#FS_Hair_03_0_Layer0_0_FILL"/>
</g>
</g>

<g transform="matrix( -0.9485015869140625, 0.3123626708984375, -0.3123626708984375, -0.9485015869140625, -56.1,136.6) ">
<g transform="matrix( 1, 0, 0, 1, 0,0) ">
<use xlink:href="#FS_Hair_04_0_Layer1_0_FILL"/>
</g>
</g>
</g>
</g>
</svg>
