
<svg xmlns="http://www.w3.org/2000/svg" version="1.1" xmlns:xlink="http://www.w3.org/1999/xlink" preserveAspectRatio="none" x="0px" y="0px" width="864px" height="486px" viewBox="0 0 864 486">
<defs>
<linearGradient id="Gradient_1" gradientUnits="userSpaceOnUse" x1="-33.8" y1="-21.2875" x2="-46.900000000000006" y2="1.387500000000001" spreadMethod="pad">
<stop  offset="0%" stop-color="#015350"/>

<stop  offset="2.7450980392156863%" stop-color="#025B58"/>

<stop  offset="9.019607843137255%" stop-color="#046B67"/>

<stop  offset="14.901960784313726%" stop-color="#047672"/>

<stop  offset="19.607843137254903%" stop-color="#057975"/>

<stop  offset="28.235294117647058%" stop-color="#058581"/>

<stop  offset="42.35294117647059%" stop-color="#009590"/>

<stop  offset="58.03921568627451%" stop-color="#00A19D"/>

<stop  offset="75.68627450980392%" stop-color="#00AAA5"/>

<stop  offset="100%" stop-color="#00ADA8"/>
</linearGradient>

<filter id="Filter_1" x="-20%" y="-20%" width="140%" height="140%" color-interpolation-filters="sRGB">
<feColorMatrix in="SourceGraphic" type="matrix" values="1 0 0 0 0 0 1 0 0 0 0 0 1 0 0 0 0 0 0.21 0" result="result1"/>
</filter>

<filter id="Filter_2" x="-20%" y="-20%" width="140%" height="140%" color-interpolation-filters="sRGB">
<feColorMatrix in="SourceGraphic" type="matrix" values="1 0 0 0 0.0196078431372549 0 1 0 0 -0.06274509803921569 0 0 1 0 -0.12156862745098039 0 0 0 1 0" result="result1"/>
</filter>

<g id="FS_34trot_Shadow_0_Layer0_0_FILL">
<path fill="#000000" stroke="none" d="
M 46.4 155.05
Q 68.65 152.95 68.65 149.95 68.65 146.95 46.4 144.8 24.15 142.7 -7.4 142.7 -38.9 142.7 -61.2 144.8 -83.45 146.95 -83.45 149.95 -83.45 152.95 -61.2 155.05 -38.9 157.2 -7.4 157.2 24.15 157.2 46.4 155.05 Z"/>
</g>

<g id="FS_34trot_Wing_3_4far_8_Layer5_0_FILL">
<path fill="#FFF8AD" stroke="none" d="
M 12.85 24.6
Q 17.5587890625 19.2478515625 15.15 14.75
L 15.15 14.7
Q 14.8142578125 14.1181640625 14.4 13.6
L 14.4 13.6
Q 11.7185546875 10.5724609375 3.95 10.55 3.9005859375 3.5751953125 -7.25 1.7
L -14.85 1.25 -14.9 1.3 -15.6 1.9
Q -21.88515625 8.1115234375 -23.5 16 -25.1552734375 24.0869140625 -21.05 30.5 -13.6 41.795703125 3.75 38.55 15.6693359375 32.926953125 12.85 24.6
M 35.85 12.15
Q 36.29375 11.384765625 36.65 10.6
L 36.65 10.6
Q 38.2708984375 7.1671875 39.05 4.05 39.6837890625 1.4330078125 39.55 -0.45
L 17.15 12.35
Q 17.4908203125 12.809375 17.75 13.3
L 17.75 13.3
Q 21.22890625 19.3095703125 15.9 25.1 16.078515625 25.676953125 16.15 26.25
L 35.85 12.15
M 33.1 16.85
Q 33.9603515625 15.5462890625 34.7 14.25
L 16.25 27.4
Q 16.26171875 27.693359375 16.25 27.95 16.18046875 32.1900390625 12.15 36.15 23.7486328125 31.27578125 33.1 16.85
M 39.45 -1.5
Q 39.1666015625 -2.65234375 38.45 -3.35
L 38.4 -3.35
Q 36.829296875 -4.827734375 33.8 -5.35
L 33.8 -5.35
Q 33.1380859375 -5.4392578125 32.4 -5.5
L 5.6 6.4
Q 5.9978515625 7.1595703125 6.2 8.05 13.4712890625 7.8109375 16.55 11.5
L 39.45 -1.5
M 30.1 -5.6
Q 26.540625 -5.5923828125 21.8 -4.75 11.580859375 -2.937109375 -0.35 1.95 3.47421875 2.86640625 5.1 5.5
L 30.1 -5.6 Z"/>

<path fill="#EBD463" stroke="none" d="
M 34.3 -8.3
Q 29.3517578125 -9.144921875 21.25 -7.75 8.334765625 -5.4265625 -7.25 1.7 3.9005859375 3.5751953125 3.95 10.55 11.7185546875 10.5724609375 14.4 13.6
L 14.4 13.6
Q 14.8142578125 14.1181640625 15.15 14.7
L 15.15 14.75
Q 17.5587890625 19.2478515625 12.85 24.6 15.6693359375 32.926953125 3.75 38.55 -13.6 41.795703125 -21.05 30.5 -25.1552734375 24.0869140625 -23.5 16 -21.88515625 8.1115234375 -15.6 1.9
L -14.9 1.3
Q -24.653515625 6.6705078125 -26.45 15.35
L -26.45 15.4
Q -28.3291015625 24.716796875 -23.55 32.1 -15.1962890625 45.237890625 4.6 41.45 4.762109375 41.4291015625 4.85 41.35 6.879296875 40.975 9 40.4 23.9787109375 36.4216796875 35.6 18.5 37.8009765625 15.115625 39.35 11.95
L 39.35 11.9
Q 41.1208984375 8.1666015625 41.95 4.75 42.9619140625 0.556640625 42.35 -2.1
L 42.35 -2.1
Q 41.8580078125 -4.2615234375 40.45 -5.55
L 40.5 -5.55
Q 38.3744140625 -7.612109375 34.3 -8.3
M 21.8 -4.75
Q 26.540625 -5.5923828125 30.1 -5.6
L 5.1 5.5
Q 3.47421875 2.86640625 -0.35 1.95 11.580859375 -2.937109375 21.8 -4.75
M 38.45 -3.35
Q 39.1666015625 -2.65234375 39.45 -1.5
L 16.55 11.5
Q 13.4712890625 7.8109375 6.2 8.05 5.9978515625 7.1595703125 5.6 6.4
L 32.4 -5.5
Q 33.1380859375 -5.4392578125 33.8 -5.35
L 33.8 -5.35
Q 36.829296875 -4.827734375 38.4 -3.35
L 38.45 -3.35
M 34.7 14.25
Q 33.9603515625 15.5462890625 33.1 16.85 23.7486328125 31.27578125 12.15 36.15 16.18046875 32.1900390625 16.25 27.95 16.26171875 27.693359375 16.25 27.4
L 34.7 14.25
M 36.65 10.6
Q 36.29375 11.384765625 35.85 12.15
L 16.15 26.25
Q 16.078515625 25.676953125 15.9 25.1 21.22890625 19.3095703125 17.75 13.3
L 17.75 13.3
Q 17.4908203125 12.809375 17.15 12.35
L 39.55 -0.45
Q 39.6837890625 1.4330078125 39.05 4.05 38.2708984375 7.1671875 36.65 10.6
L 36.65 10.6 Z"/>
</g>

<g id="FS_34trot_Tail_7_Layer1_0_FILL">
<path fill="#E781B3" stroke="none" d="
M 67.7 -29.15
Q 43.968359375 -28.2666015625 20.1 -10.2 12.1349609375 -4.1439453125 4.15 3.9 -0.104296875 8.1642578125 -5.2 13.8
L -5.95 14.65
Q 0.71640625 25.05234375 1 24.8
L 9.5 19.35
Q 19.915625 13.838671875 29.25 13.25 39.50078125 12.955078125 46.2 19.3 52.5240234375 25.2421875 55.95 36.7 57.08203125 40.894921875 57.1 45.75 57.1052734375 48.8986328125 56.55 54.7 55.2080078125 69.437890625 45.3 86.8 41.953515625 92.61328125 37 99.8 34.298046875 103.757421875 29.9 110.05 22.3021484375 121.5728515625 18.6 129.1 14.6064453125 137.274609375 14.05 143.05 13.5873046875 147.8109375 15.65 152.05 17.6484375 156.0009765625 21.3 158.55 24.685546875 160.8875 30 162.7 34.5357421875 164.233203125 41.55 165.75 45.473828125 166.5275390625 50.7 166.85 55.421875 167.188671875 59.35 167.05 69.4392578125 166.689453125 81.05 162.25 87.4875 159.7685546875 99 155 112.8158203125 150.39609375 123.45 150 131.18203125 149.709375 137.65 151.45 144.496875 153.2640625 147.45 156.7 151.7958984375 161.4888671875 151.4 165.7 151.13046875 168.612890625 148.4 171.3 147.723828125 171.947265625 145.8 172.9 143.3701171875 174.1990234375 140.9 174.85 135.2607421875 176.3490234375 132.55 175.3 129.19296875 173.928515625 132.45 168.8 126.9171875 173.187890625 129.4 175.9 131.6388671875 178.3466796875 138.15 178.1 142.1662109375 177.9376953125 147.3 176.2 151.3234375 174.83203125 153.6 173.5 158.2375 170.8029296875 160.5 168.5 163.759765625 165.1947265625 164.1 161.2 164.7119140625 154.7552734375 160.7 149.55 148.609375 133.9509765625 126.65 134.8 122.966015625 134.9556640625 117.25 135.9 108.912109375 137.366796875 107.8 137.5 103.310546875 138.1408203125 91.1 140.3 82.6181640625 141.7876953125 79.15 141.9 75.1060546875 142.004296875 71.8 141.05 69.06953125 140.261328125 66.15 138.4 64.0951171875 136.83671875 64.25 135.1 64.36640625 133.37578125 66.95 130.75 69.333203125 127.69375 78.5 123.2 89.7107421875 117.6734375 95.25 113.4 100.327734375 109.4861328125 105.05 103.45 109.7923828125 97.418359375 113.5 90.15 117.219140625 82.590234375 120 73.05 123.0146484375 62.6349609375 123.85 53.35 125.1033203125 40.122265625 123.55 26.8 121.891015625 12.537890625 117.4 1.8 112.4701171875 -9.8888671875 104.45 -17.35 95.6876953125 -25.4466796875 83.75 -27.85 75.7875 -29.43671875 67.7 -29.15
M 21.9 -7.8
Q 43.788671875 -23.566796875 66.05 -24.3 73.917578125 -24.5787109375 81.5 -23.1 92.7765625 -20.7875 101.1 -13.15 108.7255859375 -6.0595703125 113.5 5.25 117.87421875 15.65625 119.4 28.7 119.5607421875 29.88125 119.65 31.05 119.623828125 33.167578125 119.4 35.2 119.200390625 37.050390625 118.85 38.85 116.4166015625 51.137890625 105.8 67.65 98.5154296875 78.9361328125 79.2 97.8 59.55859375 116.9935546875 54.7 124.35 45.7193359375 138.5734375 46.3 148.75 46.8037109375 159.646875 58.35 163.5 51.3345703125 163.6701171875 44.05 162.2 43.7609375 162.165625 43.45 162.1 42.6205078125 161.6916015625 41.85 161.2 35.2251953125 156.7201171875 37.5 146 39.02109375 138.9076171875 45.85 128.1 50.493359375 120.731640625 60.7 107.1 72.9912109375 90.7951171875 77.05 84.9 85.7369140625 72.2923828125 89.65 63.3
L 89.65 63.25
Q 95.4181640625 48.714453125 93.9 36.2 91.87578125 20.33828125 78.05 9.2 57.2947265625 -7.50703125 30.7 -0.75 15.501953125 3.1359375 -0.65 14.7
L 0.05 15.7
Q 15.998046875 4.2640625 31 0.4 57.0046875 -6.1927734375 77.3 10.15 90.7240234375 20.9615234375 92.7 36.35 94.1818359375 48.5853515625 88.55 62.8
L 88.55 62.8
Q 84.662890625 71.7078125 76.05 84.2 72.00859375 90.1046875 59.75 106.4 49.506640625 120.0681640625 44.85 127.45 37.878515625 138.4927734375 36.35 145.75 34.087109375 156.3931640625 40.05 161.3 29.4390625 158.7931640625 24.7 155.4 21.444921875 153.0982421875 20.1 150.2 18.709375 147.2064453125 19.1 142.95 20.0375 132.3009765625 33.95 111.25 38.2322265625 105.05625 40.85 101.1 45.68203125 94.0099609375 49 88.05 58.68671875 70.5056640625 60.1 55 61.057421875 44.9302734375 58.55 35.65 54.8818359375 23.4376953125 48.15 17.25 40.708203125 10.18046875 29.5 10.55 17.3671875 11.0033203125 1 20.35
L 0.55 19.65
Q -0.3798828125 18.3392578125 -2.6 14.7 10.8904296875 0.112890625 21.9 -7.8
M 120.05 39.1
Q 120.101953125 38.82421875 120.15 38.55 120.391796875 46.0861328125 119.65 53.8 118.80703125 63.2966796875 116.55 72.05 114.34765625 80.665625 111.05 87.45 105.3033203125 98.5826171875 97.15 106.35 94.1162109375 109.232421875 85.35 115.55 84.3017578125 116.3759765625 79.9 118.85 74.8884765625 121.780859375 72.25 123.5 67.4650390625 126.6880859375 65.2 128.9 61.851171875 132.1634765625 61.5 135.2 61.24453125 138.3205078125 64.35 140.65
L 64.4 140.65 64.45 140.7
Q 67.41796875 142.60859375 70.85 143.35 74.249609375 144.09140625 78.9 143.9 83.059765625 143.775390625 90.2 142.85 91.0697265625 142.727734375 106.05 140.55 119.0841796875 138.8236328125 124.75 138.6 135.3416015625 138.298828125 142.55 140.75 151.3318359375 143.7740234375 157.3 151.4 161.1724609375 156.4109375 160.75 160.9 160.2568359375 166.884375 152.2 171.6 151.1791015625 172.2373046875 148.95 173.25
L 149.1 173.15
Q 152.5955078125 169.8494140625 152.95 165.65 153.4703125 160.3330078125 148.5 154.8 141.7474609375 147.3748046875 123.4 148 110.323828125 148.4853515625 98.4 152.45 86.6 157.0833984375 80.15 159.25 70.6896484375 162.4931640625 62.25 163.25 61.3220703125 163.089453125 60.45 162.85 48.05859375 159.5470703125 47.5 148.7 46.9806640625 138.8263671875 55.7 125 60.54140625 117.7064453125 80.05 98.65 99.4841796875 79.6640625 106.8 68.3 117.583203125 51.5615234375 120.05 39.1
L 120.05 39.1 Z"/>

<path fill="#F4B6D1" stroke="none" d="
M 120.15 38.55
Q 120.101953125 38.82421875 120.05 39.1
L 120.05 39.1
Q 117.583203125 51.5615234375 106.8 68.3 99.4841796875 79.6640625 80.05 98.65 60.54140625 117.7064453125 55.7 125 46.9806640625 138.8263671875 47.5 148.7 48.05859375 159.5470703125 60.45 162.85 61.3220703125 163.089453125 62.25 163.25 70.6896484375 162.4931640625 80.15 159.25 86.6 157.0833984375 98.4 152.45 110.323828125 148.4853515625 123.4 148 141.7474609375 147.3748046875 148.5 154.8 153.4703125 160.3330078125 152.95 165.65 152.5955078125 169.8494140625 149.1 173.15
L 148.95 173.25
Q 151.1791015625 172.2373046875 152.2 171.6 160.2568359375 166.884375 160.75 160.9 161.1724609375 156.4109375 157.3 151.4 151.3318359375 143.7740234375 142.55 140.75 135.3416015625 138.298828125 124.75 138.6 119.0841796875 138.8236328125 106.05 140.55 91.0697265625 142.727734375 90.2 142.85 83.059765625 143.775390625 78.9 143.9 74.249609375 144.09140625 70.85 143.35 67.41796875 142.60859375 64.45 140.7
L 64.4 140.65 64.35 140.65
Q 61.24453125 138.3205078125 61.5 135.2 61.851171875 132.1634765625 65.2 128.9 67.4650390625 126.6880859375 72.25 123.5 74.8884765625 121.780859375 79.9 118.85 84.3017578125 116.3759765625 85.35 115.55 94.1162109375 109.232421875 97.15 106.35 105.3033203125 98.5826171875 111.05 87.45 114.34765625 80.665625 116.55 72.05 118.80703125 63.2966796875 119.65 53.8 120.391796875 46.0861328125 120.15 38.55
M 66.05 -24.3
Q 43.788671875 -23.566796875 21.9 -7.8 10.8904296875 0.112890625 -2.6 14.7 -0.3798828125 18.3392578125 0.55 19.65
L 1 20.35
Q 17.3671875 11.0033203125 29.5 10.55 40.708203125 10.18046875 48.15 17.25 54.8818359375 23.4376953125 58.55 35.65 61.057421875 44.9302734375 60.1 55 58.68671875 70.5056640625 49 88.05 45.68203125 94.0099609375 40.85 101.1 38.2322265625 105.05625 33.95 111.25 20.0375 132.3009765625 19.1 142.95 18.709375 147.2064453125 20.1 150.2 21.444921875 153.0982421875 24.7 155.4 29.4390625 158.7931640625 40.05 161.3 34.087109375 156.3931640625 36.35 145.75 37.878515625 138.4927734375 44.85 127.45 49.506640625 120.0681640625 59.75 106.4 72.00859375 90.1046875 76.05 84.2 84.662890625 71.7078125 88.55 62.8
L 88.55 62.8
Q 94.1818359375 48.5853515625 92.7 36.35 90.7240234375 20.9615234375 77.3 10.15 57.0046875 -6.1927734375 31 0.4 15.998046875 4.2640625 0.05 15.7
L -0.65 14.7
Q 15.501953125 3.1359375 30.7 -0.75 57.2947265625 -7.50703125 78.05 9.2 91.87578125 20.33828125 93.9 36.2 95.4181640625 48.714453125 89.65 63.25
L 89.65 63.3
Q 85.7369140625 72.2923828125 77.05 84.9 72.9912109375 90.7951171875 60.7 107.1 50.493359375 120.731640625 45.85 128.1 39.02109375 138.9076171875 37.5 146 35.2251953125 156.7201171875 41.85 161.2 42.6205078125 161.6916015625 43.45 162.1 43.7609375 162.165625 44.05 162.2 51.3345703125 163.6701171875 58.35 163.5 46.8037109375 159.646875 46.3 148.75 45.7193359375 138.5734375 54.7 124.35 59.55859375 116.9935546875 79.2 97.8 98.5154296875 78.9361328125 105.8 67.65 116.4166015625 51.137890625 118.85 38.85 119.200390625 37.050390625 119.4 35.2 119.623828125 33.167578125 119.65 31.05 119.5607421875 29.88125 119.4 28.7 117.87421875 15.65625 113.5 5.25 108.7255859375 -6.0595703125 101.1 -13.15 92.7765625 -20.7875 81.5 -23.1 73.917578125 -24.5787109375 66.05 -24.3 Z"/>
</g>

<g id="FS_34trot_HindLeg_side_2_Layer6_0_FILL">
<path fill="#FFF8AD" stroke="none" d="
M 45.6 140.75
Q 48.05 137.3 46.7 129 45.3 120.65 38.95 115.5 32.55 110.35 24.95 110.95 17.4 111.5 14.75 116 12.05 120.45 10.55 125.35 9 130.2 7.4 136.25 5.75 142.25 11.3 143.45 16.8 144.65 29.95 144.45 43.1 144.2 45.6 140.75 Z"/>
</g>

<g id="FS_34trot_KneePatch_2_Layer0_0_FILL">
<path fill="#EBD564" stroke="none" d="
M 0.25 -27.8
L 0.2 -27.8
Q -5.8083984375 -29.447265625 -11.2 -26 -16.50078125 -22.5494140625 -18.1 -16.15 -19.4751953125 -10.2185546875 -17.05 -5.05
L -17 -5
Q -16.9865234375 -4.97578125 -17 -4.95
L -16.95 -4.9
Q -10.8248046875 6.4275390625 -8.05 17.15
L -8.1 17.15 -8.05 17.2
Q -8.0775390625 17.49453125 -8 17.75 -7.7880859375 18.413671875 -5.85 21.6 -3.863671875 24.8244140625 1.05 26.15 5.9177734375 27.444921875 10.2 25.25 14.5810546875 23.012890625 15.8 18.55
L 15.8 18.5
Q 16.9775390625 14.0072265625 14.3 9.85
L 14.25 9.85
Q 13.090234375 8.0783203125 11.4 6.35
L 11.35 6.25 11.35 6.25
Q 6.5607421875 1.2896484375 7.95 -1.2 10.454296875 -4.6970703125 10.95 -6.05
L 10.95 -6.1
Q 11.50546875 -7.4853515625 11.8 -8.7
L 11.85 -8.75
Q 13.3412109375 -15.2044921875 9.75 -20.75
L 9.75 -20.75
Q 6.194921875 -26.25390625 0.25 -27.8
M 7.25 -19.15
L 7.3 -19.1 7.25 -19.1 7.25 -19.15 Z"/>
</g>

<g id="FS_34trot_HindLeg_side_2_Layer4_0_FILL">
<path fill="#FFF8AD" stroke="none" d="
M 35.95 79.95
Q 34.35 65.15 29.8 58.4 29.05 57.4 28.1 56.8 18.35 53.65 11 58.7 4.9 63.5 6.5 69.25 6.8 70.6 7.1 72.45 6.6 75.5 9 89.2 9.05 89.8 9.15 90.45 11.2 106.9 7.4 135.7 26.95 132.25 46.45 128.75 41.35 101.75 35.95 79.95 Z"/>
</g>

<g id="FS_34trot_HindLeg_3_4_top_1_Layer0_0_FILL">
<path fill="#EBD564" stroke="none" d="
M 4 71.2
L 4 71.2
Q -21.2830078125 68.723828125 -34.85 31.6 -33.9126953125 47.215234375 -21.95 60.3 -9.9767578125 73.4564453125 4 71.2
L 4 71.2
M 0.85 -2.25
Q 0.6103515625 -2.29921875 0.4 -2.35 1.7783203125 0.014453125 2.85 3.05 4.5529296875 4.691796875 6.1 7 7.615234375 9.2787109375 8.65 12.35 9.11953125 13.62734375 9.6 15.5 9.9466796875 16.736328125 10.3 18.25 11.435546875 22.811328125 11.5 28.05 11.5900390625 35.0541015625 9 43.6 6.4283203125 52.1580078125 5.15 55.95 3.89921875 59.748046875 4.6 65.65 5.1115234375 69.5484375 4.05 71.15 4.780078125 70.475 5.2 69.45 5.285546875 69.22265625 5.35 68.95 5.7310546875 67.894140625 5.8 64.2 5.854296875 60.545703125 7.3 56.35 8.8095703125 52.1701171875 11.45 43.95 14.0810546875 35.7177734375 14.35 29.1 14.6220703125 22.4833984375 13.4 17.35 13.191796875 16.514453125 12.95 15.7 11.198828125 9.2240234375 8.4 5.2 4.976171875 0.173046875 0.85 -2.2
L 0.85 -2.25 Z"/>

<path fill="#FFF8AD" stroke="none" d="
M 2.85 3.05
Q 3.49765625 4.77734375 4 6.7
L -7.35 6 -34.85 31.6
Q -21.2830078125 68.723828125 4 71.2
L 4 71.2 4.05 71.2
Q 4.0642578125 71.203515625 4.05 71.15 5.1115234375 69.5484375 4.6 65.65 3.89921875 59.748046875 5.15 55.95 6.4283203125 52.1580078125 9 43.6 11.5900390625 35.0541015625 11.5 28.05 11.435546875 22.811328125 10.3 18.25 9.9466796875 16.736328125 9.6 15.5 9.11953125 13.62734375 8.65 12.35 7.615234375 9.2787109375 6.1 7 4.5529296875 4.691796875 2.85 3.05 Z"/>
</g>

<g id="FS_34trot_HindLeg_3_4_top_1_Layer0_1_FILL">
<path fill="#FFF8AD" stroke="none" d="
M 4 3.75
Q 2.972265625 2.3271484375 1.9 1.05 0.79921875 -0.2177734375 -0.35 -1.3 -5.315625 -5.9376953125 -9.8 -7.45
L -20 7.05 5.95 6.75
Q 4.8544921875 4.9732421875 4 3.75 Z"/>

<path fill="#EBD564" stroke="none" d="
M 2.75 -1.9
Q 2.0755859375 -2.5861328125 1.35 -3.25 -3.726171875 -7.909375 -8.6 -9.95
L -8.65 -10
Q -12.3240234375 -10.7595703125 -9.8 -7.45 -5.315625 -5.9376953125 -0.35 -1.3 0.79921875 -0.2177734375 1.9 1.05 2.972265625 2.3271484375 4 3.75 4.8544921875 4.9732421875 5.95 6.75
L 9.35 6.7
Q 8.2111328125 4.876171875 7 3.25 4.9251953125 0.33671875 2.75 -1.9 Z"/>
</g>

<g id="FS_34trot_KneePatch_3_Layer0_0_FILL">
<path fill="#FFF8AD" stroke="none" d="
M 7.55 -19.2
L 7.55 -19.15
Q 4.64140625 -23.669921875 -0.25 -24.95
L -0.3 -24.95
Q -5.0291015625 -26.2638671875 -9.3 -23.55 -13.591015625 -20.7333984375 -14.85 -15.5
L -14.85 -15.5
Q -16.0048828125 -10.6484375 -14.05 -6.4 -14.00078125 -6.3744140625 -14 -6.35 -7.6837890625 5.3048828125 -4.85 16.4
L -4.85 16.45
Q -4.806640625 16.5302734375 -4.8 16.65 -4.7177734375 16.80625 -4.7 16.95 -4.6609375 17.0494140625 -4.65 17.1 -4.31328125 18.1208984375 -3.7 19.1 -1.664453125 22.21015625 2.1 23.2 5.8501953125 24.2189453125 9.1 22.55 12.2861328125 20.9251953125 13.2 17.7
L 13.2 17.65
Q 14.018359375 14.44921875 12.1 11.45
L 12.1 11.45
Q 11.0275390625 9.87109375 9.5 8.3
L 9.5 8.25 9.45 8.2
Q 2.5619140625 1.0767578125 5.8 -2.95 7.969140625 -6.0158203125 8.45 -7.2
L 8.45 -7.25
Q 8.93828125 -8.43203125 9.2 -9.5
L 9.2 -9.55
Q 10.4259765625 -14.724609375 7.55 -19.2 Z"/>
</g>

<g id="FS_34trot_CutieMark_5_Layer0_0_FILL">
<path fill="#F4B6D1" stroke="none" d="
M 19.7 8.8
Q 20.41875 7.05390625 18.75 8 17.2400390625 8.5501953125 15.3 10.6 14.746875 11.3634765625 13.9 12.85 12.5080078125 14.484375 11.5 15.7 11.34375 16.16171875 10.7 18.55 10.0708984375 20.8603515625 11.6 20.4 13.2916015625 19.6236328125 14.4 16.75 15.3560546875 14.033984375 14.8 13.45 15.9833984375 13.04921875 17.45 11.75 19.1470703125 9.9974609375 19.7 8.8
M 12.65 6.25
Q 11.7640625 9.1876953125 12.55 10.3 11.3759765625 9.773046875 9.75 11.45 7.957421875 12.819921875 7.55 15.2 7.0767578125 17.0333984375 8.7 16.8 9.6115234375 16.37890625 11.5 15.35 13.70546875 11.429296875 14.8 10.05 15.2701171875 7.9509765625 15.45 6.4 15.435546875 2.4345703125 14.45 3 13.1482421875 2.5427734375 12.65 6.25
M 3.4 12.1
Q 2.795703125 8.34140625 2.45 6.55 1.566015625 5.198828125 0.45 4.95 -1.4646484375 3.4798828125 -2.5 5.95 -3.334375 8.218359375 -2.2 10.05 -0.7982421875 11.4828125 0.45 10.65 -0.6984375 12.595703125 -1.7 15.5 -2.3685546875 18.5521484375 -1.4 19.15 0.026953125 19.4453125 1.5 16.7 2.491015625 15.2171875 3.4 12.1
M 5.05 -2.25
Q 4.3271484375 -3.0998046875 3.9 -0.7 3.673828125 1.7095703125 3.3 5.65 3.7099609375 6.5515625 3.7 8.2 4.05078125 10.181640625 3.7 12.05 4.32265625 11.8927734375 5.3 12.85 6.923828125 12.9005859375 7.9 10.65 8.89609375 7.757421875 7.45 6.6 6.2693359375 5.0921875 5 6.5 5.9123046875 4.13359375 5.9 1.9 6.0302734375 -1.244921875 5.05 -2.25
M 8.6 -21.85
Q 7.191015625 -21.6212890625 8.05 -17.75 8.640234375 -13.45078125 10.05 -12.15 8.5974609375 -12.446484375 7.5 -10.95 6.4099609375 -8.68046875 6.9 -5.95 7.49453125 -3.21484375 9.15 -3.7 9.92265625 -3.71796875 11.65 -5.35 12.205078125 -10.26875 12.6 -12.4 11.9572265625 -15.001171875 11.3 -17.4 9.8015625 -21.815625 8.6 -21.85
M 17.8 -13.8
Q 17.6259765625 -15.593359375 16.15 -15.05 14.8412109375 -13.991015625 13.5 -11.55 13.40390625 -9.983984375 13.05 -8.8 12.4423828125 -5.9333984375 11.85 -4.9 12.0314453125 -3.6298828125 12.4 -1.35 12.8599609375 1.2708984375 14.45 1.05 16.1470703125 0.2255859375 16 -3.1 15.5873046875 -6.626171875 14.6 -7.75 15.7873046875 -7.91875 16.8 -9.7 17.8447265625 -11.248828125 17.8 -13.8 Z"/>

<path fill="#6CC9C6" stroke="none" d="
M 17.2 3.65
Q 17.215234375 3.161328125 17.1 3.4 16.936328125 2.8974609375 16.8 3.2 16.5076171875 3.0970703125 16.4 3.35 16.1478515625 3.6466796875 16.1 4.15 16.001953125 4.1951171875 16.15 5 16.1625 5.05 16.15 5.1 16.291015625 4.674609375 16.4 4.7 16.2453125 3.843359375 16.55 3.75 16.5791015625 3.4453125 16.9 3.75 16.9779296875 3.448828125 16.95 3.9 17.202734375 4.2671875 16.4 6.75 15.698828125 8.4111328125 15.25 9.25 15.3015625 9.2005859375 15.3 9.35 14.9345703125 9.5970703125 14.8 10.05 13.70546875 11.429296875 11.5 15.35 11.2884765625 15.5626953125 10.85 16.35 11.055078125 16.0720703125 11.5 15.7 12.5080078125 14.484375 13.9 12.85 14.746875 11.3634765625 15.3 10.6 15.6748046875 9.6251953125 15.85 9.35
L 15.85 9.35
Q 16.027734375 8.7697265625 16.75 7.95 17.4931640625 6.4857421875 18.05 6.15 18.5435546875 5.4111328125 18.9 5.45 18.95078125 5.070703125 19.15 5.6
L 18.9 6.35
Q 18.7408203125 6.1607421875 18.55 6.5 18.3728515625 6.5966796875 18.45 6.9 18.7126953125 6.69921875 19 6.65 19.541015625 5.9568359375 19.35 5.25 19.2646484375 4.5619140625 18.85 5 18.43359375 5.0107421875 17.95 5.8 16.653515625 7.13203125 15.75 9
L 15.75 8.95
Q 15.9373046875 8.4599609375 16.6 6.9 17.5013671875 4.1302734375 17.2 3.65
M 2.45 -2.2
Q 2.3685546875 -1.87265625 2 -1.4 2.010546875 -1.165234375 1.9 0.4 2.1208984375 2.408984375 2.55 4.75
L 2.5 4.8
Q 2.3556640625 3.4021484375 1.7 2.9 0.814453125 1.155078125 0.1 1.35 0.1498046875 0.999609375 -0.05 1.4 -0.1998046875 1.450390625 -0.55 1.9 -0.6484375 2.1361328125 -0.7 2.5 -0.509375 2.6869140625 -0.4 3.25 0.110546875 3.1541015625 0.1 3.4
L 0.2 3.3
Q 0.2634765625 2.8626953125 0.15 2.8 0.232421875 2.8515625 0.1 2.9 0.1423828125 2.5521484375 -0.2 2.75 -0.2203125 2.3615234375 -0.35 2.55 -0.253515625 2.06015625 -0.05 1.95 0.241796875 1.5525390625 0.05 1.9 0.6541015625 1.5544921875 1.4 3.35 2.1462890625 3.8517578125 2.3 5.65 2.3630859375 5.624609375 2.4 5.55 2.4044921875 5.9736328125 2.45 6.55 2.795703125 8.34140625 3.4 12.1 3.6375 12.6279296875 3.55 13.05 3.7697265625 12.4767578125 3.7 12.05 4.05078125 10.181640625 3.7 8.2 3.7099609375 6.5515625 3.3 5.65 3.26796875 4.776953125 2.8 4.6
L 2.85 4.6
Q 2.471484375 2.26015625 2.2 0.3 2.319140625 -1.014453125 2.25 -1.2 2.4861328125 -1.5244140625 2.55 -1.7 2.9083984375 -1.7228515625 2.85 -1.2 3.0345703125 -0.7578125 2.75 -0.55 3.0720703125 -0.3337890625 3 -0.2 3.3978515625 -0.932421875 3.15 -1.3 3.27421875 -1.7455078125 2.85 -2 2.81640625 -2.26015625 2.45 -2.2
M 11.75 -20.6
Q 11.6630859375 -20.3783203125 11.9 -20.35 12.2296875 -19.507421875 12.7 -16.7 12.660546875 -14.158984375 12.75 -13.4
L 12.8 -13.25
Q 12.6056640625 -12.626171875 12.6 -12.4 12.205078125 -10.26875 11.65 -5.35 11.544140625 -4.3482421875 11.45 -4.1 11.601171875 -4.40078125 11.85 -4.9 12.4423828125 -5.9333984375 13.05 -8.8 13.40390625 -9.983984375 13.5 -11.55 13.4572265625 -12.551171875 13.45 -13.3 13.278125 -13.9548828125 13.7 -15.15 13.932421875 -16.4025390625 14.3 -17.45 14.3904296875 -17.9541015625 14.85 -18.4 15.063671875 -18.1873046875 15.25 -18.15 15.3318359375 -17.5740234375 15.45 -17.65 15.2962890625 -17.3779296875 15.4 -17.15 15.2380859375 -16.483984375 15 -17 14.9876953125 -16.35 15.15 -16.45 15.4767578125 -16.284765625 15.7 -16.75 15.8330078125 -16.6697265625 15.7 -17.6 15.662890625 -17.821875 15.4 -18.5 14.866796875 -18.8419921875 14.65 -18.95 14.297265625 -18.7650390625 14 -18 13.3728515625 -16.2185546875 13.1 -13.8
L 13.05 -13.8
Q 12.97265625 -14.8626953125 13 -16.55 12.5927734375 -19.4041015625 12.1 -20.7 11.9 -20.4126953125 11.9 -20.9 11.6001953125 -20.9744140625 11.35 -21.4 11.06640625 -21.0009765625 11 -21.15 10.8837890625 -20.703125 11 -20.25 11.0365234375 -19.478515625 11.45 -19.05 11.418359375 -19.0146484375 11.55 -19
L 11.7 -19.35
Q 11.553515625 -19.2765625 11.6 -19.45 11.2052734375 -19.7810546875 11.35 -20.15 11.0501953125 -20.5318359375 11.3 -20.7 11.4509765625 -20.9287109375 11.75 -20.6 Z"/>
</g>

<g id="FS_34trot_FrontLeg_3_4_upper_1_Layer1_0_FILL">
<path fill="#EBD564" stroke="none" d="
M 19.55 15.2
Q 19.54765625 9.2869140625 15.3 5.05 11.062890625 0.8021484375 5.15 0.8 -0.8310546875 0.8021484375 -5.05 5.05
L -5 5.05
Q -9.2478515625 9.2869140625 -9.25 15.2 -9.2478515625 21.112890625 -5 25.35 -0.829296875 29.5369140625 5.1 29.6
L 5.15 29.6
Q 11.0732421875 29.5494140625 15.3 25.35
L 15.3 25.35
Q 19.54765625 21.112890625 19.55 15.2
M 16.55 15.2
Q 16.5521484375 19.8869140625 13.2 23.25
L 13.2 23.2
Q 9.84453125 26.5328125 5.15 26.6
L 5.1 26.6
Q 0.4158203125 26.549609375 -2.9 23.25 -6.25234375 19.8869140625 -6.25 15.2 -6.25234375 10.512890625 -2.9 7.15
L -2.9 7.15
Q 0.43125 3.79765625 5.15 3.8 9.8369140625 3.79765625 13.2 7.15 16.5521484375 10.512890625 16.55 15.2 Z"/>

<path fill="#FFF8AD" stroke="none" d="
M 13.2 23.25
Q 16.5521484375 19.8869140625 16.55 15.2 16.5521484375 10.512890625 13.2 7.15 9.8369140625 3.79765625 5.15 3.8 0.43125 3.79765625 -2.9 7.15
L -2.9 7.15
Q -6.25234375 10.512890625 -6.25 15.2 -6.25234375 19.8869140625 -2.9 23.25 0.4158203125 26.549609375 5.1 26.6
L 5.15 26.6
Q 9.84453125 26.5328125 13.2 23.2
L 13.2 23.25 Z"/>
</g>

<g id="FS_34trot_FrontLeg_3_4_upper_1_Layer0_0_FILL">
<path fill="#EBD564" stroke="none" d="
M -8.85 11.55
L -5.9 12.2
Q -4.6640625 5.6533203125 -6.05 2.15 -6.759765625 7.8197265625 -8.85 11.55
M 16.45 16.55
L 19.35 15.15
Q 18.855078125 4.7060546875 7.9 -0.4 16.2654296875 4.9353515625 16.45 16.55 Z"/>

<path fill="#FFF8AD" stroke="none" d="
M 16.45 16.55
Q 16.2654296875 4.9353515625 7.9 -0.4 1.8404296875 -0.3458984375 -6.05 2.15 -4.6640625 5.6533203125 -5.9 12.2
L 16.45 16.55 Z"/>
</g>

<g id="FS_34trot_FrontLeg_3_4_lower_1_Layer1_0_FILL">
<path fill="#EBD564" stroke="none" d="
M 9.85 13.8
Q 5.8423828125 10.2701171875 0.4 10.55
L 0.4 10.55
Q -5.01875 10.891015625 -8.6 14.9 -12.1341796875 18.973046875 -11.8 24.4 -11.458984375 29.81875 -7.45 33.35 -3.44140625 36.9837890625 1.95 36.65
L 2 36.65
Q 7.4169921875 36.3615234375 10.95 32.3 14.5896484375 28.227734375 14.25 22.8 13.914453125 17.3802734375 9.85 13.8
M 7.85 16.05
Q 10.985546875 18.81953125 11.25 23 11.51015625 27.1720703125 8.7 30.3 5.991015625 33.42890625 1.8 33.65
L 1.8 33.65
Q -2.3681640625 33.9080078125 -5.45 31.1 -8.5408203125 28.38125 -8.8 24.2 -9.0662109375 20.0271484375 -6.35 16.9 -3.589453125 13.818359375 0.55 13.55
L 0.6 13.55
Q 4.766796875 13.337890625 7.85 16.05 Z"/>

<path fill="#FFF8AD" stroke="none" d="
M 11.25 23
Q 10.985546875 18.81953125 7.85 16.05 4.766796875 13.337890625 0.6 13.55
L 0.55 13.55
Q -3.589453125 13.818359375 -6.35 16.9 -9.0662109375 20.0271484375 -8.8 24.2 -8.5408203125 28.38125 -5.45 31.1 -2.3681640625 33.9080078125 1.8 33.65
L 1.8 33.65
Q 5.991015625 33.42890625 8.7 30.3 11.51015625 27.1720703125 11.25 23 Z"/>
</g>

<g id="FS_34trot_FrontLeg_3_4_lower_1_Layer0_0_FILL">
<path fill="#EBD564" stroke="none" d="
M -7.95 28.2
L -8.35 26.8 -8.35 26.75
Q -11.0271484375 17.1177734375 -5.35 5.15 -14.546875 11.9271484375 -11.25 27.55
L -10.85 29 -7.95 28.2
M 9.15 -2.95
Q 9.166015625 -2.5873046875 9.15 -2.25 9.831640625 11.053125 11.15 21.8
L 11.15 22 11.35 23.3 14.3 22.95 14.15 21.45
Q 12.9681640625 11.8716796875 12.3 0.25 12.133203125 -4.9798828125 10.7 -4.65 9.2671875 -4.9759765625 9.2 -2.25
L 9.15 -2.95 Z"/>

<path fill="#FFF8AD" stroke="none" d="
M 11.15 22
L 11.15 21.8
Q 9.831640625 11.053125 9.15 -2.25
L -5.35 5.15
Q -11.0271484375 17.1177734375 -8.35 26.75
L -8.35 26.8 11.15 22 Z"/>
</g>

<g id="FS_34trot_FrontLeg_3_4_hoof_1_Layer0_0_FILL">
<path fill="#FFF8AD" stroke="none" d="
M -7 64.1
Q -4.803125 66.512109375 -1.9 65.75 1.5046875 64.7962890625 5.8 60.1 18.1720703125 43.58515625 12.5 30 3.3931640625 18.2220703125 5.55 9.4
L -8.45 -3.65
Q -26.35234375 39.24921875 -7 64.1 Z"/>

<path fill="#EBD564" stroke="none" d="
M -8.35 -6.75
Q -9.5576171875 -7.4396484375 -10.95 -5.4 -30.083984375 39.9306640625 -9.3 66.05 -9.23828125 66.123828125 -9.2 66.15 -5.746875 69.9376953125 -1.15 68.65 2.9451171875 67.65390625 8 62.15 8.0501953125 62.1140625 8.1 62.05 21.908203125 43.6923828125 15.15 28.6 15.0853515625 28.39296875 12.2 24.8 9.3177734375 21.215234375 5.55 9.4 3.3931640625 18.2220703125 12.5 30 18.1720703125 43.58515625 5.8 60.1 1.5046875 64.7962890625 -1.9 65.75 -4.803125 66.512109375 -7 64.1 -26.35234375 39.24921875 -8.45 -3.65 -8.29921875 -3.931640625 -8.2 -4.2 -7.271484375 -6.0025390625 -8.35 -6.75 Z"/>
</g>

<g id="FS_34trot_Torso_13_Layer1_0_FILL">
<path fill="#EBD564" stroke="none" d="
M 32.85 -34.1
Q 23.329296875 -37.337890625 12 -34.15 5.9609375 -32.4041015625 -0.75 -27.95 -4.4052734375 -25.478515625 -6.85 -24.05
L -8.2 -23.4
Q -13.1189453125 -21.10703125 -18.4 -20.7 -23.89296875 -20.26328125 -30.5 -19.8 -38.9017578125 -19.29453125 -44.1 -15.55
L -44.1 -15.55
Q -52.6384765625 -9.283203125 -55 -0.25 -56.338671875 4.927734375 -55.5 10.95
L -55.5 10.95
Q -54.45 17.9048828125 -50.6 22.95 -49.5 24.414453125 -46.75 27
L -46.75 27.05
Q -33.381640625 39.736328125 -15.2 40.35 -12.8646484375 40.465234375 -10.45 40.35 -9.232421875 40.2869140625 -8.05 40.2 8.4 38.0490234375 14.35 35.1 20.6484375 32.0185546875 27.7 27.1 35.69453125 21.5962890625 39.85 16.9 44.9763671875 11.1953125 47.45 5 51.9630859375 -6.0744140625 47.9 -18.6 44.2439453125 -30.27109375 32.85 -34.1
M 12.7 -31.25
Q 23.0517578125 -34.1810546875 31.75 -31.25 41.795703125 -27.849609375 45.05 -17.55 48.9525390625 -5.4478515625 44.15 5.2 41.887109375 10.251953125 37.65 14.95 33.7333984375 19.3431640625 25.35 25.2 17.71953125 30.5044921875 12.9 32.65 8.538671875 34.683203125 3.45 35.7 -1.7447265625 36.84296875 -7.6 37.1
L -7.6 37.15 -7.65 37.15
Q -7.824609375 37.18125 -8 37.15 -9.20625 37.2859375 -10.45 37.35 -12.8669921875 37.4650390625 -15.2 37.35 -32.1546875 36.675 -44.65 24.8 -45.7083984375 23.8154296875 -46.7 22.75 -47.3607421875 22.0455078125 -48 21.3 -51.55 16.5626953125 -52.5 10.4
L -52.5 10.35
Q -53.225390625 4.9861328125 -52.05 0.35 -49.9203125 -7.6185546875 -42.4 -13.15
L -42.35 -13.15 -42.35 -13.15
Q -37.8041015625 -16.34765625 -30.45 -16.8 -23.817578125 -17.2630859375 -18.3 -17.7 -14.415625 -17.99609375 -10.75 -19.25 -8.8646484375 -19.8431640625 -7.05 -20.7
L -6.25 -21.05 -6.15 -21
Q -5.8818359375 -21.1533203125 -5.6 -21.35 -3.016015625 -22.8427734375 0.85 -25.5 7.10390625 -29.62734375 12.7 -31.25 Z"/>

<path fill="#F4B6D1" stroke="none" d="
M -42.4 -13.15
L -42.35 -13.15 -42.35 -13.15 -42.4 -13.15 Z"/>

<path fill="#FFF8AD" stroke="none" d="
M 31.75 -31.25
Q 23.0517578125 -34.1810546875 12.7 -31.25 7.10390625 -29.62734375 0.85 -25.5 -3.016015625 -22.8427734375 -5.6 -21.35 -5.8818359375 -21.1533203125 -6.15 -21
L -6.25 -21.05 -7.05 -20.7
Q -8.8646484375 -19.8431640625 -10.75 -19.25 -14.415625 -17.99609375 -18.3 -17.7 -23.817578125 -17.2630859375 -30.45 -16.8 -37.8041015625 -16.34765625 -42.35 -13.15
L -42.4 -13.15
Q -49.9203125 -7.6185546875 -52.05 0.35 -53.225390625 4.9861328125 -52.5 10.35
L -52.5 10.4
Q -51.55 16.5626953125 -48 21.3 -47.3607421875 22.0455078125 -46.7 22.75 -45.7083984375 23.8154296875 -44.65 24.8 -32.1546875 36.675 -15.2 37.35 -12.8669921875 37.4650390625 -10.45 37.35 -9.20625 37.2859375 -8 37.15 -7.824609375 37.18125 -7.65 37.15
L -7.6 37.15 -7.6 37.1
Q -1.7447265625 36.84296875 3.45 35.7 8.538671875 34.683203125 12.9 32.65 17.71953125 30.5044921875 25.35 25.2 33.7333984375 19.3431640625 37.65 14.95 41.887109375 10.251953125 44.15 5.2 48.9525390625 -5.4478515625 45.05 -17.55 41.795703125 -27.849609375 31.75 -31.25 Z"/>
</g>

<g id="FS_34trot_HindLeg_side_10_Layer6_0_FILL">
<path fill="#FFF8AD" stroke="none" d="
M 55.1 88.75
Q 50.8 85.6 42.55 85.4 35.95 86.05 30.85 91.25 25.8 96.45 26.75 101.6
L 26.75 101.65
Q 27.25 104.6 28.1 107.3 28.7 109.45 29.45 111.4 29.45 111.5 29.5 111.55 29.55 111.65 29.6 111.8 30.95 115 33.75 118.55 34.85 119.85 36.1 121.2 36.15 121.25 36.2 121.3 36.45 121.6 36.75 121.85 41.5 126.55 47.55 124.15 53.9 121.55 59.05 113.35 59.15 113.25 59.2 113.15 64.05 105.1 62.5 98.95 60.95 93.75 56.15 89.6 55.65 89.15 55.1 88.75 Z"/>
</g>

<g id="FS_34trot_HindLeg_side_10_Layer4_0_FILL">
<path fill="#FFF8AD" stroke="none" d="
M 19.15 45.9
Q 17.15 47.45 15.95 49.4 15.5 50.15 15.15 51 14.9 51.85 14.7 52.7 14.65 53 14.65 53.4 14.55 53.65 14.55 53.9 14.35 56.6 14.8 59.65 14.95 60.6 15.1 61.6 15.2 62.6 15.4 63.7 19.65 85.55 29.25 111.7 45.65 99.7 59.35 92.7 48.35 76.3 40.45 55.55 39.05 52.1 37.45 47.8 35.3 45.2 35 45.05 34.4 44.6 33.75 44.25 33.05 43.85 32 43.4 31.1 43.05 30.1 42.9 24.1 42.65 19.65 45.55 19.35 45.75 19.15 45.9 Z"/>
</g>

<g id="FS_Torso_overlap__0_Layer0_0_FILL">
<path fill="#EBD564" stroke="none" d="
M 10.25 -8.95
Q 9.4009765625 1.9046875 5.35 8.95 1.346875 16.0353515625 -1.8 17.3
L -1.8 20.65
Q 3.2017578125 18.636328125 7.75 9.7 12.2982421875 0.763671875 10.25 -8.95 Z"/>

<path fill="#FDF6AE" stroke="none" d="
M 10.15 -10.1
L 10.2 -10.75
Q 5.149609375 -26.5466796875 -4.5 -21.1 -19.25 -8 -1.8 17.3 1.346875 16.0353515625 5.35 8.95 9.4009765625 1.9046875 10.25 -8.95 10.15 -8.65 10.15 -10.1 Z"/>
</g>

<g id="FS_34trot_Neck_4_Layer1_0_FILL">
<path fill="#E781B3" stroke="none" d="
M -6.15 -71.25
L -39.8 -71.25 -37.2 2.25 -4.5 -2.4
Q 16.7392578125 -3.1453125 6.6 -24.7 -3.490234375 -46.2552734375 -6.15 -71.25 Z"/>
</g>

<g id="FS_34trot_Neck_4_Layer0_0_FILL">
<path fill="#FDF6AE" stroke="none" d="
M -17.6 -99.9
L -17.65 -99.9
Q -26.683984375 -109.0083984375 -39.8 -109 -52.8892578125 -108.998828125 -62.3 -99.85 -71.801171875 -90.6611328125 -72.05 -77.85 -72.3279296875 -65.053125 -63.25 -55.9
L -63.25 -55.9
Q -62.7607421875 -55.412890625 -62.25 -54.95
L -60.5 -53.45 -60.5 -53.4 -59.15 -51.9
Q -48.75625 -40.150390625 -47.1 -29.25 -47 -27.9 -46.95 -26.5 -46.9 -23.2 -47.45 -19.75 -50.535546875 -0.3146484375 -45.9 16
L -45.9 15.95
Q -39.7232421875 37.46015625 -19.85 44.45
L -18.45 44.95 -18.55 45
Q -7.184375 45.1412109375 -5.55 29.25 -3.9140625 13.4140625 -2.6 -0.1
L -0.25 -0.05
Q -3.05859375 -1.5416015625 -4.1 -3.15 -5.85234375 -5.197265625 -8.1 -25.15 -9.88515625 -40.952734375 -9.5 -62.95 -9.3767578125 -67.9625 -9.2 -73.3 -9.158984375 -73.5244140625 -9.15 -73.75
L -9.15 -81.3 -8.85 -81.3
Q -9.7095703125 -91.998828125 -17.6 -99.9
M -34.6 -47.4
L -34.7 -47.4
Q -34.6310546875 -47.38359375 -34.6 -47.4
L -34.6 -47.4 Z"/>

<path fill="#EBD564" stroke="none" d="
M -34.7 -47.4
L -34.6 -47.4 -34.6 -47.4
Q -34.6310546875 -47.38359375 -34.7 -47.4
M -15.5 -102
Q -25.41640625 -111.9916015625 -39.8 -112 -54.110546875 -112.0013671875 -64.4 -102 -74.7986328125 -91.9388671875 -75.05 -77.9 -75.355078125 -64.5958984375 -66.45 -54.9 -65.9 -54.35 -65.35 -53.8 -63.45 -52 -61.7 -50.1 -60.3 -48.55 -58.95 -46.95 -52.171875 -38.4115234375 -50.45 -29.2 -50 -25.35 -50.3 -21.6 -50.35 -20.65 -50.5 -19.7 -53.575 0.1408203125 -48.8 16.8
L -48.8 16.8
Q -42.1767578125 39.8396484375 -20.85 47.3
L -19.45 47.8 -18.55 45 -18.45 44.95 -19.85 44.45
Q -39.7232421875 37.46015625 -45.9 15.95
L -45.9 16
Q -50.535546875 -0.3146484375 -47.45 -19.75 -46.9 -23.2 -46.95 -26.5 -47 -27.9 -47.1 -29.25 -48.75625 -40.150390625 -59.15 -51.9
L -60.5 -53.4 -61.7 -53.4 -60.5 -53.45 -62.25 -54.95
Q -62.7607421875 -55.412890625 -63.25 -55.9
L -63.25 -55.9
Q -72.3279296875 -65.053125 -72.05 -77.85 -71.801171875 -90.6611328125 -62.3 -99.85 -52.8892578125 -108.998828125 -39.8 -109 -26.683984375 -109.0083984375 -17.65 -99.9
L -17.6 -99.9
Q -9.7095703125 -91.998828125 -8.85 -81.3
L -9.15 -81.3 -9.15 -73.75
Q -9.158984375 -73.5244140625 -9.2 -73.3 -9.3767578125 -67.9625 -9.5 -62.95 -9.88515625 -40.952734375 -8.1 -25.15 -5.85234375 -5.197265625 -4.1 -3.15 -3.05859375 -1.5416015625 -0.25 -0.05 -1.4 -1.85 -2.25 -4.8 -3.05 -7.45 -5.1 -25.5 -7.2638671875 -44.648828125 -6.2 -72.95 -5.7958984375 -75.3732421875 -5.75 -77.95 -5.492578125 -92.0048828125 -15.5 -102
L -15.5 -102 Z"/>
</g>

<g id="FS_34trot_FrontLeg_3_4_4_Layer4_0_FILL">
<path fill="#FFF8AD" stroke="none" d="
M 31.7 67.7
Q 23.8900390625 68.3037109375 22.25 73 20.6814453125 77.7041015625 20.4 82.85 20.149609375 87.9728515625 20.1 94.25 20.046875 100.5849609375 27.25 102.3 34.5162109375 104.01328125 46.95 101.8 59.422265625 99.58046875 59.1 89.75 58.7654296875 79.980859375 57.2 78.95 55.7103515625 77.9541015625 47.6 72.5 39.4828125 67.116796875 31.7 67.7 Z"/>
</g>

<g id="FS_34trot_FrontLeg_3_4_4_Layer1_0_FILL">
<path fill="#EBD564" stroke="none" d="
M 18.8 88.2
Q 18.735546875 88.7921875 19.1 89.25 19.452734375 89.7046875 20 89.75 20.5931640625 89.8525390625 21.05 89.5 21.5166015625 89.1482421875 21.6 88.55 21.6251953125 88.39140625 21.65 88.2 24.31015625 66.4125 -4.8 2.15 -4.97421875 1.7171875 -5.2 1.25 -5.2203125 1.1751953125 -5.3 1.05 -4.7271484375 7.098046875 -1.2 17.2 21.195703125 69.43203125 18.8 88.2
M 11.2 4
Q 11.261328125 4.1111328125 11.35 4.2 51.598046875 55.52421875 57.25 83.45 57.266015625 83.5296875 57.25 83.55 57.3904296875 84.1330078125 57.85 84.45 58.3578125 84.7806640625 58.9 84.65 59.483984375 84.559765625 59.8 84.05 60.13046875 83.59296875 60 83 56.184765625 63.4873046875 35.65 32.75 35.4244140625 32.548046875 35.2 32.25 20.875390625 10.7427734375 11.2 4 Z"/>

<path fill="#FFF8AD" stroke="none" d="
M 11.35 4.2
Q 11.261328125 4.1111328125 11.2 4 10.7384765625 3.67578125 10.3 3.35 2.729296875 3.4576171875 -4.8 2.15 24.31015625 66.4125 21.65 88.2
L 57.25 83.45
Q 51.598046875 55.52421875 11.35 4.2 Z"/>
</g>

<g id="FS_34trot_Wing_3_4_8_Layer5_0_FILL">
<path fill="#FFF8AD" stroke="none" d="
M 14.4 13.6
L 14.4 13.6
Q 11.7185546875 10.5724609375 3.95 10.55 3.9005859375 3.5751953125 -7.25 1.7
L -14.85 1.25 -14.9 1.3 -15.6 1.9
Q -21.88515625 8.1115234375 -23.5 16 -25.1552734375 24.0869140625 -21.05 30.5 -13.6 41.795703125 3.75 38.55 15.6693359375 32.926953125 12.85 24.6 17.5587890625 19.2478515625 15.15 14.75
L 15.15 14.7
Q 14.8142578125 14.1181640625 14.4 13.6
M 33.1 16.85
Q 33.9603515625 15.5462890625 34.7 14.25
L 16.25 27.4
Q 16.26171875 27.693359375 16.25 27.95 16.18046875 32.1900390625 12.15 36.15 23.7486328125 31.27578125 33.1 16.85
M 35.85 12.15
Q 36.29375 11.384765625 36.65 10.6
L 36.65 10.6
Q 38.2708984375 7.1671875 39.05 4.05 39.6837890625 1.4330078125 39.55 -0.45
L 17.15 12.35
Q 17.4908203125 12.809375 17.75 13.3
L 17.75 13.3
Q 21.22890625 19.3095703125 15.9 25.1 16.078515625 25.676953125 16.15 26.25
L 35.85 12.15
M 30.1 -5.6
Q 26.540625 -5.5923828125 21.8 -4.75 11.580859375 -2.937109375 -0.35 1.95 3.47421875 2.86640625 5.1 5.5
L 30.1 -5.6
M 39.45 -1.5
Q 39.1666015625 -2.65234375 38.45 -3.35
L 38.4 -3.35
Q 36.829296875 -4.827734375 33.8 -5.35
L 33.8 -5.35
Q 33.1380859375 -5.4392578125 32.4 -5.5
L 5.6 6.4
Q 5.9978515625 7.1595703125 6.2 8.05 13.4712890625 7.8109375 16.55 11.5
L 39.45 -1.5 Z"/>

<path fill="#EBD463" stroke="none" d="
M 34.3 -8.3
Q 29.3517578125 -9.144921875 21.25 -7.75 8.334765625 -5.4265625 -7.25 1.7 3.9005859375 3.5751953125 3.95 10.55 11.7185546875 10.5724609375 14.4 13.6
L 14.4 13.6
Q 14.8142578125 14.1181640625 15.15 14.7
L 15.15 14.75
Q 17.5587890625 19.2478515625 12.85 24.6 15.6693359375 32.926953125 3.75 38.55 -13.6 41.795703125 -21.05 30.5 -25.1552734375 24.0869140625 -23.5 16 -21.88515625 8.1115234375 -15.6 1.9
L -14.9 1.3
Q -24.653515625 6.6705078125 -26.45 15.35
L -26.45 15.4
Q -28.3291015625 24.716796875 -23.55 32.1 -15.1962890625 45.237890625 4.6 41.45 4.762109375 41.4291015625 4.85 41.35 6.879296875 40.975 9 40.4 23.9787109375 36.4216796875 35.6 18.5 37.8009765625 15.115625 39.35 11.95
L 39.35 11.9
Q 41.1208984375 8.1666015625 41.95 4.75 42.9619140625 0.556640625 42.35 -2.1
L 42.35 -2.1
Q 41.8580078125 -4.2615234375 40.45 -5.55
L 40.5 -5.55
Q 38.3744140625 -7.612109375 34.3 -8.3
M 38.45 -3.35
Q 39.1666015625 -2.65234375 39.45 -1.5
L 16.55 11.5
Q 13.4712890625 7.8109375 6.2 8.05 5.9978515625 7.1595703125 5.6 6.4
L 32.4 -5.5
Q 33.1380859375 -5.4392578125 33.8 -5.35
L 33.8 -5.35
Q 36.829296875 -4.827734375 38.4 -3.35
L 38.45 -3.35
M 21.8 -4.75
Q 26.540625 -5.5923828125 30.1 -5.6
L 5.1 5.5
Q 3.47421875 2.86640625 -0.35 1.95 11.580859375 -2.937109375 21.8 -4.75
M 36.65 10.6
Q 36.29375 11.384765625 35.85 12.15
L 16.15 26.25
Q 16.078515625 25.676953125 15.9 25.1 21.22890625 19.3095703125 17.75 13.3
L 17.75 13.3
Q 17.4908203125 12.809375 17.15 12.35
L 39.55 -0.45
Q 39.6837890625 1.4330078125 39.05 4.05 38.2708984375 7.1671875 36.65 10.6
L 36.65 10.6
M 34.7 14.25
Q 33.9603515625 15.5462890625 33.1 16.85 23.7486328125 31.27578125 12.15 36.15 16.18046875 32.1900390625 16.25 27.95 16.26171875 27.693359375 16.25 27.4
L 34.7 14.25 Z"/>
</g>

<g id="FS_Skull_0_Layer0_0_FILL">
<path fill="#FDF6AE" stroke="none" d="
M -13.1 -42.35
Q -21.1 -39.7 -28.55 -34.05 -31.85 -31.5 -35.3 -27.95 -40.25 -22.8 -42.85 -11.5 -44.6458984375 -3.5529296875 -44.85 1.85 -45.012890625 7.3087890625 -44.25 14.15 -43.4365234375 20.9841796875 -42.3 24.2 -41.1564453125 27.423828125 -40.55 28.85 -39.898046875 30.31015625 -39.95 31.45
L -33.15 31.55
Q -19.908203125 42.349609375 -3.55 45.95 12.84921875 49.6044921875 18.65 48.75 26.2490234375 43.9646484375 33.6 36.15 40.988671875 28.38125 46 11.5 51.009375 -5.39296875 48.1 -15.3 46.64609375 -20.2318359375 44.05 -24.7 41.2005859375 -29.57109375 36.95 -33.85 25.890625 -44.9564453125 5.35 -45.05 -4.85 -45.1 -13.1 -42.35 Z"/>

<path fill="#EBD463" stroke="none" d="
M -30.35 -36.45
Q -32.1 -35.1 -37.65 -29 -42.2 -23.95 -45 -14.9 -47.8490234375 -5.702734375 -47.6 4.85 -47.3529296875 15.408203125 -45.55 22.45 -43.74609375 29.5390625 -41.05 31.4
L -40.8 31.4
Q -39.876171875 32.57734375 -39.95 31.45 -39.898046875 30.31015625 -40.55 28.85 -41.1564453125 27.423828125 -42.3 24.2 -43.4365234375 20.9841796875 -44.25 14.15 -45.012890625 7.3087890625 -44.85 1.85 -44.6458984375 -3.5529296875 -42.85 -11.5 -40.25 -22.8 -35.3 -27.95 -31.85 -31.5 -28.55 -34.05 -21.1 -39.7 -13.1 -42.35 -4.85 -45.1 5.35 -45.05 25.890625 -44.9564453125 36.95 -33.85 41.2005859375 -29.57109375 44.05 -24.7
L 44.05 -30.2
Q 41.857421875 -33.186328125 39.1 -35.95 27.309765625 -47.94375 5.35 -48.05 -5.4 -48.1 -14.15 -45.2 -22.55 -42.4 -30.35 -36.45 Z"/>
</g>

<g id="Mask_Mask_FS_EyeWhite_3_4far_0_Layer0_0_FILL">
<path fill="#FFFFFF" stroke="none" d="
M 18.15 -15.65
Q 9.84765625 -21.6255859375 2.55 -22.05 -4.7708984375 -22.42109375 -11.2 -16 -17.4994140625 -9.6044921875 -19.45 -0.2 -21.3234375 9.20390625 -17.7 16 -14.0943359375 22.9564453125 -6.85 23.35 0.433203125 23.78125 9.85 17 19.302734375 10.2376953125 22.85 0.3 26.469140625 -9.6103515625 18.15 -15.65 Z"/>
</g>

<g id="FS_EyeWhite_3_4far_0_Layer0_0_FILL">
<path fill="#FFFFFF" stroke="none" d="
M 18.15 -15.65
Q 9.84765625 -21.6255859375 2.55 -22.05 -4.7708984375 -22.42109375 -11.2 -16 -17.4994140625 -9.6044921875 -19.45 -0.2 -21.3234375 9.20390625 -17.7 16 -14.0943359375 22.9564453125 -6.85 23.35 0.433203125 23.78125 9.85 17 19.302734375 10.2376953125 22.85 0.3 26.469140625 -9.6103515625 18.15 -15.65 Z"/>
</g>

<g id="FS_Iris_0_Layer1_0_FILL">
<path fill="url(#Gradient_1)" stroke="none" d="
M 17.7 -13.05
Q 13.45 -21.1 5.25 -22.95 -3 -24.85 -10.3 -19.4 -17.6 -14 -19.75 -4.45 -20.922265625 0.6119140625 -20 7.1 -19.662109375 8.449609375 -19.2 9.75
L -18.6 11.2
Q -18.1958984375 12.1607421875 -17.7 13.1 -13.45 21.15 -5.2 23 3 24.85 10.3 19.45 17.6 14 19.8 4.5 21.95 -5 17.7 -13.05 Z"/>
</g>

<g id="FS_Iris_0_Layer0_0_FILL">
<path fill="#8AD2D5" stroke="none" d="
M -6.5 8
Q -17.6794921875 11.2681640625 -18.65 11.25 -17.6072265625 14.0123046875 -15.4 16.75
L 0.1 6.75 -6.5 8 Z"/>
</g>

<g id="FS_Iris_0_Layer0_1_FILL">
<path fill="#3DBFBB" stroke="none" d="
M -20.25 5.4
Q -19.7828125 8.4513671875 -18.6 11.3
L 0.4 6.6 -20.25 5.4 Z"/>
</g>

<g id="FS_Pupil_0_Layer0_0_FILL">
<path fill="#000000" stroke="none" d="
M 12.45 -9.9
Q 10.5203125 -16.0232421875 5.5 -17.5 0.487109375 -18.9470703125 -4.7 -14.9 -9.854296875 -10.7671875 -12.15 -3.55 -14.402734375 3.7013671875 -12.5 9.8 -10.484375 16.0318359375 -5.45 17.5 -0.4265625 18.9556640625 4.7 14.8 9.91484375 10.7759765625 12.15 3.55 14.43828125 -3.692578125 12.45 -9.9 Z"/>
</g>

<g id="FS_Hilights_0_Layer1_0_FILL">
<path fill="#FFFFFF" stroke="none" d="
M -8.15 11.5
Q -8.11953125 11.614453125 -8.1 11.7 -8.0240234375 11.8134765625 -7.95 11.95 -7.7912109375 12.381640625 -7.55 12.75 -7.4705078125 12.844140625 -7.4 12.9 -7.2078125 13.113671875 -6.95 13.3 -6.50546875 13.6888671875 -6.05 13.8 -5.996875 13.8515625 -5.95 13.85 -5.6171875 13.9560546875 -5.2 13.95 -3.9484375 13.97890625 -3.4 12.75 -3.3849609375 12.698046875 -3.4 12.65 -3.1736328125 12.1291015625 -3.25 11.35 -3.259765625 11.128515625 -3.35 10.85 -3.3462890625 10.7740234375 -3.4 10.7 -3.7330078125 9.7962890625 -4.4 9.15 -4.435546875 9.108203125 -4.5 9.05 -4.72890625 8.870703125 -4.9 8.75 -5.579296875 8.305859375 -6.3 8.4 -7.123828125 8.352734375 -7.65 8.9 -7.813671875 9.0921875 -8 9.35 -8.0568359375 9.446484375 -8.1 9.55 -8.510546875 10.357421875 -8.15 11.5
M 3.85 -8.7
L 3.8 -8.75
Q 1.3921875 -11.8771484375 -1.15 -11.7 -4.233984375 -11.8736328125 -5.6 -8.2
L -5.6 -8.15
Q -6.528125 -5.45625 -5.75 -1.6 -5.0052734375 2.07265625 -3.05 4.6
L -3.05 4.6
Q -0.6041015625 7.82109375 2 7.65 5.12890625 7.837890625 6.4 4 7.375390625 1.40078125 6.6 -2.4
L 6.6 -2.45
Q 5.8041015625 -6.1376953125 3.85 -8.7 Z"/>
</g>

<g id="Mask_Mask_FS_EyeWhite_3_4_0_Layer0_0_FILL">
<path fill="#FFFFFF" stroke="none" d="
M 15.3 -16.8
Q 12.05 -25.85 4.7 -27.8 -2.55 -29.75 -9.55 -23.45 -16.6 -17.15 -19.25 -6.25 -21.95 4.7 -18.7 13.75 -15.45 22.8 -8.2 24.8 -0.9 26.75 6.15 20.4 13.2 14.15 15.9 3.2 18.6 -7.7 15.3 -16.8 Z"/>
</g>

<g id="FS_EyeWhite_3_4_0_Layer0_0_FILL">
<path fill="#FFFFFF" stroke="none" d="
M 15.3 -16.8
Q 12.05 -25.85 4.7 -27.8 -2.55 -29.75 -9.55 -23.45 -16.6 -17.15 -19.25 -6.25 -21.95 4.7 -18.7 13.75 -15.45 22.8 -8.2 24.8 -0.9 26.75 6.15 20.4 13.2 14.15 15.9 3.2 18.6 -7.7 15.3 -16.8 Z"/>
</g>

<g id="FS_Blink_3_4far_100_Layer9_0_FILL">
<path fill="#000000" stroke="none" d="
M 7.7 -10.65
Q 6.848046875 -23.696875 3.45 -23.25 0.54765625 -22.861328125 -2.55 -14.25 -2.29921875 -14.7767578125 -2.05 -15.3 0.6708984375 -20.888671875 2.6 -21.15 4.5849609375 -21.360546875 5.7 -15.1 6.79921875 -8.811328125 6.45 0.25 6.1400390625 9.3076171875 4.55 15.75 4.32890625 16.8455078125 4.05 17.75 4.808984375 15.928125 5.35 13.5 5.7642578125 11.9158203125 6.05 10.15 6.2 9.5484375 6.25 8.8 6.7927734375 5.698046875 7.3 0.6 7.81484375 -4.44296875 7.7 -10.65 Z"/>
</g>

<g id="FS_Blink_3_4_0_Layer5_0_FILL">
<path fill="#000000" stroke="none" d="
M 3.9 -28.3
Q 2.6283203125 -28.579296875 1.35 -28.7 -4.6439453125 -29.078515625 -10.25 -24.75 -11.7181640625 -23.5576171875 -13 -22.2 -17.4087890625 -17.401953125 -18.9 -10.25 -19.5439453125 -6.9607421875 -19.9 -3.95 -20.534765625 1.5740234375 -20.15 6.3 -20.158203125 1.678125 -18.95 -3.35 -18.7609375 -4.0185546875 -18.6 -4.7 -15.9060546875 -14.323046875 -9.65 -20.2 1.74921875 -30.1068359375 10.75 -21.8 10.882421875 -21.6779296875 11 -21.55 13.90546875 -18.748828125 15.65 -13.95 16.3888671875 -11.873828125 16.8 -9.75 16.4884765625 -14.0923828125 14.85 -18.1 11.35234375 -26.50703125 3.9 -28.3 Z"/>
</g>

<g id="FS_Blink_3_4_0_Layer4_0_FILL">
<path fill="#FDF6AE" stroke="none" d="
M 4.35 -29.75
Q 2.9921875 -30.0806640625 1.65 -30.2 -4.99375 -30.6798828125 -11.25 -24.95 -12.3427734375 -23.9171875 -13.35 -22.8 -13.3947265625 -22.7375 -13.45 -22.7 -12.3595703125 -22.6630859375 -11.25 -22.7 -10.9 -22.5 -10.8 -22.35
L -8.9 -22.05 -6.85 -22.35 -5.45 -22.2
Q -1.35 -20.55 2.35 -17.5 3.25 -17.2 3.6 -16.75 3.75 -16.55 3.9 -16.1
L 4.25 -15.95 5 -14.7
Q 6.55 -13.05 7.75 -11.45 7.95 -11.2 8.15 -10.95 11.45 -5.9 14.55 -1.1 15.8923828125 2.197265625 17.4 5.65 17.58125 4.9947265625 17.7 4.3 20.319921875 -7.6388671875 16.4 -17.65 12.496484375 -27.56875 4.35 -29.75 Z"/>
</g>

<g id="FS_Blink_3_4_0_Layer3_0_FILL">
<path fill="#000000" stroke="none" d="
M 6.45 22.2
L 4.6 23.6
Q 6.1939453125 26.837109375 5.95 29.8 5.6958984375 32.807421875 7.05 29.05 8.4173828125 25.300390625 6.45 22.2
M 10 18.55
L 8.75 20.05
Q 11.8150390625 21.620703125 12.95 24.6 13.6880859375 26.43359375 13.95 28.65 15.7818359375 24.8724609375 13.7 21.65 12.176953125 19.2923828125 10 18.55 Z"/>
</g>

<g id="FS_Blink_3_4_0_Layer3_1_FILL">
<path fill="#000000" stroke="none" d="
M 11.35 16.2
L 10.15 18
Q 14.18828125 17.88203125 16.95 19.45 18.5791015625 20.37578125 19.9 21.9 19.8611328125 18.6484375 16.25 17.1 13.638671875 15.9990234375 11.35 16.2 Z"/>
</g>

<g id="FS_Blink_3_4_0_Layer2_0_FILL">
<path fill="#000000" stroke="none" d="
M 1.85 -14.95
Q 6.38203125 -11.1921875 9.65 -6 12.92421875 -0.81171875 15.35 4.05 17.8314453125 8.955078125 24.15 10.25 30.519140625 11.5494140625 34.25 8.1 28.6263671875 9.640234375 23.55 7.35 19.06015625 5.3087890625 16.6 0.75 13.4626953125 -5.630078125 9.55 -11.7 6.5115234375 -16.5841796875 2 -20.65 -2.546875 -24.74296875 -7.9 -24.8 -12.5234375 -24.6681640625 -15.35 -19
L -12.4 -17.5
Q -10.2337890625 -20.208203125 -7.4 -19.75 -2.6158203125 -18.6203125 1.85 -14.95 Z"/>
</g>

<g id="FS_Blink_3_4_0_Layer1_0_FILL">
<path fill="#000000" stroke="none" d="
M 26 5.35
Q 29.4328125 4.07890625 31.25 0.95 24.32421875 5.0740234375 17.15 2.65 18.583203125 5.0240234375 18.8 5.35 22.264453125 6.8734375 26 5.35
M 18.9 -3.95
Q 15.1314453125 -3.6337890625 12.45 -5.55 13.303125 -2.3904296875 13.4 -2.3 15.293359375 -0.5287109375 19.9 -1.9 24.5140625 -3.34140625 25.5 -6 22.076953125 -4.24296875 18.9 -3.95 Z"/>
</g>

<g id="FS_Brow_3_4_9_Layer4_0_FILL">
<path fill="#FDF6AE" stroke="none" d="
M -41 -18
Q -49.09609375 -3.21640625 -42 -1.45 -31.4580078125 7.6216796875 -2.55 2.25 -1.6908203125 2.1703125 -1.1 2.15 14.1453125 -16.0892578125 2.6 -31.3 -1.554296875 -33.840234375 -7.3 -36.15 -21.9275390625 -41.9796875 -41 -18 Z"/>
</g>

<g id="FS_Brow_3_4_9_Layer0_0_FILL">
<path fill="#000000" stroke="none" d="
M -42.55 -2.1
Q -42.8 -2.7 -42.9 -3.4 -43.1 -4.15 -43.1 -4.95 -43.15 -5.75 -43.15 -6.45 -43.2 -7.2 -43.15 -10.3
L -43.85 -10.5
Q -45.5 -6.8 -45.55 -3.7 -45.5 -1.65 -44.9 -0.1 -37.25 4.9 -21.25 5.5 -20.7 5.5 -20.1 5.5
L -20.1 5.55
Q -6.75 5.7 -0.05 2.75 1.05 2.4 1.8 1.45 2.05 1.1 1.65 0.9 -8 3.15 -19.9 3.1
L -19.95 3.1
Q -20.75 3.1 -21.5 3.1 -37.35 2.2 -42.55 -2.1 Z"/>
</g>

<g id="FS_Brow_3_4rear_9_Layer5_0_FILL">
<path fill="#FFF8AD" stroke="none" d="
M -8.4 -25.15
Q -17 -26.35 -13.05 -3.3 -6.7 1.95 0.5 1.4 -2.15 -22.85 -8.4 -25.15 Z"/>
</g>

<g id="FS_Brow_3_4rear_9_Layer4_0_FILL">
<path fill="#000000" stroke="none" d="
M -13.5 -11.4
Q -14.8 -7.95 -14.9 -5.1 -14.95 -3.2 -14.5 -1.8 -12.4 -0.3 -10.35 0.8 -4.8 3.4 0 3.45 6.75 3.5 7.8 1.15 6.9 1.15 5.95 1.15 5.25 1.15 4.6 1.15 -5.45 0.55 -10.35 -1.85 -11.8 -2.65 -12.75 -3.65 -12.9 -4.2 -13 -4.85 -13.1 -5.5 -13.1 -6.25 -13.1 -7 -13.05 -7.65 -13.1 -8.3 -13 -11.15
L -13.5 -11.4 Z"/>
</g>

<g id="FS_Brow_3_4rear_9_Layer1_0_FILL">
<path fill="#000000" stroke="none" d="
M 3.7 7.1
Q 6 6.9 7.1 5.05 2.9 5.6 -0.1 4.15 -0.15 5.3 -0.15 6.5 2 7.2 3.7 7.1
M 1.65 10.25
Q 3.45 10.65 4.4 9.15 1.8 8.8 -0.15 7.4 -0.2 8.45 -0.25 9.5 0.75 10.05 1.65 10.25 Z"/>
</g>

<g id="FS_Mouth_3_4_40_Layer10_0_FILL">
<path fill="#FDF6AE" stroke="none" d="
M -24.5 -8.35
Q -24.592578125 -7.3197265625 -23.95 -6.5 -10.1201171875 11.1193359375 15.85 16.75 19.967578125 17.2029296875 26.5 14.35 -2.0705078125 7.620703125 -11.25 -1.45 -20.419921875 -10.4630859375 -22.15 -12.2 -24.358984375 -9.365234375 -24.5 -8.35 Z"/>
</g>

<g id="FS_Nose_0_Layer1_0_FILL">
<path fill="#EBD463" stroke="none" d="
M -7.75 8.1
Q -4.5 6.85 -3.1 5.35 -1.05 3.05 0 0.2 0.053125 0.082421875 0.1 -0.05 0.0193359375 0.06484375 -0.1 0.15 -0.1197265625 0.2525390625 -0.2 0.3 -1.06796875 1.53046875 -2.1 2.4 -2.786328125 3.0109375 -3.55 3.45 -3.8748046875 3.6556640625 -4.25 3.85 -5.3 4.4 -8 5.15
L -12.35 6.4
Q -13.35 6.8 -13.95 7.2 -14.7142578125 7.8189453125 -15.1 8.6 -16.4 10.85 -15.3 14.1 -13.65 14.25 -12.75 13.7
L -12.35 13.45
Q -12.9 11.85 -12.3 10.55 -11.8 9.35 -10.8 8.95
L -7.75 8.1 Z"/>

<path fill="#FDF6AE" stroke="none" d="
M 0.1 0
L 0 0.2
Q -1.05 3.05 -3.1 5.35 -4.5 6.85 -7.75 8.1
L -10.8 8.95
Q -11.8 9.35 -12.3 10.55 -12.9 11.85 -12.35 13.45
L -12.75 13.7
Q -11.2017578125 19.790234375 -8.2 21.65 -5.2095703125 23.5673828125 -3.45 24.6 -0.59609375 24.3787109375 3.55 21.4 5.2333984375 18.342578125 6.5 15.75 4.45 10.5 3 6.15 1.85 -0.4 1.15 -0.7 0.65 -0.9 0.1 0 Z"/>
</g>

<g id="FS_Mouth_3_4_40_Layer7_0_FILL">
<path fill="#EBD463" stroke="none" d="
M 18.3 19.35
Q 27.2533203125 17.39453125 31.65 14 31.341015625 13.99765625 31 14 16.580078125 18.1708984375 6.35 18.75 1.384765625 19.039453125 -3.05 18.7 -8.5740234375 18.308984375 -13.3 16.95 -19.498046875 15.1447265625 -27.65 10.15 -27.5767578125 10.55546875 -27.85 10.7 -28.7240234375 11.210546875 -33.15 9.15 -29.3615234375 12.5255859375 -29.3 12.55 -28.5955078125 13.090625 -27.85 13.6 -22.1798828125 17.5099609375 -14.15 19.85 -9.2908203125 21.25625 -3.05 21.45
L -3 21.45
Q 8.1232421875 21.540234375 18.3 19.35 Z"/>

<path fill="#FDF6AE" stroke="none" d="
M 31 14
Q 30.5068359375 14 30 14 -1.05 14 -14.8 0.5 -16.6244140625 -1.28515625 -18.05 -3.25 -20.181640625 -0.259375 -22.7 3.25 -25.00859375 6.475 -27.65 10.15 -19.498046875 15.1447265625 -13.3 16.95 -8.5740234375 18.308984375 -3.05 18.7 1.384765625 19.039453125 6.35 18.75 16.580078125 18.1708984375 31 14 Z"/>
</g>

<g id="FS_Mouth_3_4_40_Layer4_0_FILL">
<path fill="#EBD463" stroke="none" d="
M -27.9 13.5
Q -19.766796875 8.8044921875 -10.6 9.7 -16.0755859375 6.2548828125 -27.8 9.85 -27.825 9.8298828125 -27.85 9.8 -33.35 5.45 -35.45 -0.2
L -38.4 0.25
Q -35.8 8.323828125 -27.9 13.5 Z"/>
</g>

<g id="FS_Nostril_3_4_0_Layer0_0_FILL">
<path fill="#EBD463" stroke="none" d="
M 1.2 2.35
Q 2.95 1.9 2.55 -2.4 1.95 0.3 0.6 0.75 -0.8 1 -2.6 0.3 -0.65 2.55 1.2 2.35 Z"/>
</g>

<g id="FS_Hair_05_6_Layer1_0_FILL">
<path fill="#F4B6D1" stroke="none" d="
M 44.85 -1.7
Q 45.0072265625 -1.6888671875 45.15 -1.65
L 46.75 -15.7
Q 25.59609375 -25.4107421875 14.9 -28.1 4.19453125 -30.730078125 -0.4 -30.85 -1.9265625 -30.899609375 -3.4 -30.9 -13.0154296875 -30.8923828125 -20.3 -28.9 -25.0646484375 -27.6130859375 -28.65 -25.35 -29.1216796875 -25.0056640625 -29.6 -24.7 -31.149609375 -23.5447265625 -32.5 -22.2 -37.7373046875 -16.8763671875 -37.1 -9.8 -36.4919921875 -3.765625 -30.55 1.75 -26.7609375 5.309375 -19.3 9.65 -17.7314453125 10.588671875 -16.2 11.45 -23.896875 1.6408203125 -25.75 -8.35 -26.600390625 -13.3396484375 -24.8 -17.05 -24.262890625 -18.1337890625 -23.55 -19.05 -23.1810546875 -19.4212890625 -22.8 -19.8 -16.8134765625 -23.64453125 -14.4 -23.4 -16.087109375 -22.51796875 -18.1 -20.75 -18.3064453125 -20.5287109375 -19.1 -18.85 -22.6162109375 -16.757421875 -22.9 -11.1 -22.8787109375 -9.66953125 -22.65 -8.05 -21.5970703125 -0.6306640625 -14.4 12.45 -7.7728515625 16.0533203125 -1.85 18.6 2.8609375 10.20625 13 4.75 27.18359375 -2.7615234375 44.85 -1.7 Z"/>

<path fill="#E781B3" stroke="none" d="
M 46.4 -1.05
Q 45.74453125 -1.531640625 45.15 -1.65 45.0072265625 -1.6888671875 44.85 -1.7 27.18359375 -2.7615234375 13 4.75 2.8609375 10.20625 -1.85 18.6 -7.7728515625 16.0533203125 -14.4 12.45 -21.5970703125 -0.6306640625 -22.65 -8.05 -22.8787109375 -9.66953125 -22.9 -11.1 -22.6162109375 -16.757421875 -19.1 -18.85 -18.3064453125 -20.5287109375 -18.1 -20.75 -16.087109375 -22.51796875 -14.4 -23.4 -16.8134765625 -23.64453125 -22.8 -19.8 -23.1810546875 -19.4212890625 -23.55 -19.05 -24.262890625 -18.1337890625 -24.8 -17.05 -26.600390625 -13.3396484375 -25.75 -8.35 -23.896875 1.6408203125 -16.2 11.45 -17.7314453125 10.588671875 -19.3 9.65 -26.7609375 5.309375 -30.55 1.75 -36.4919921875 -3.765625 -37.1 -9.8 -37.7373046875 -16.8763671875 -32.5 -22.2 -31.149609375 -23.5447265625 -29.6 -24.7 -29.1216796875 -25.0056640625 -28.65 -25.35 -25.0646484375 -27.6130859375 -20.3 -28.9 -13.0154296875 -30.8923828125 -3.4 -30.9 -1.9265625 -30.899609375 -0.4 -30.85 4.19453125 -30.730078125 14.9 -28.1 25.59609375 -25.4107421875 46.75 -15.7
L 46.75 -17.45
Q 35.0609375 -24.2701171875 21.35 -28.55 7.63359375 -32.83828125 -1.55 -33.1 -3.0681640625 -33.1498046875 -4.55 -33.15 -7.482421875 -33.1302734375 -10.05 -32.95 -23.183984375 -31.9404296875 -30.75 -27.3 -31.2244140625 -26.97890625 -31.7 -26.65 -32.876171875 -25.8611328125 -33.9 -25 -38.5765625 -20.8259765625 -39.9 -15.2 -41.2564453125 -9.2060546875 -38.2 -4 -33.231640625 4.43046875 -19.85 11.85 -16.0212890625 14.0046875 -12.5 15.8 -7.328125 18.4634765625 -2.8 20.45 -1.280859375 21.08046875 0.15 21.65 0.2982421875 21.348828125 0.45 21.05 0.5068359375 20.92421875 0.55 20.8 0.57578125 20.750390625 0.6 20.7 0.8345703125 20.255859375 1.05 19.8 5.585546875 11.604296875 15.35 6.2 29.0423828125 -1.3970703125 46.15 -0.4 47.4796875 -0.3171875 46.55 -0.95 46.47734375 -1.0060546875 46.4 -1.05 Z"/>
</g>

<g id="FS_Ear_2_Layer1_0_FILL">
<path fill="#FDF6AE" stroke="none" d="
M 1.5 -40.65
L 1.5 -40.65
Q -0.4720703125 -42.0763671875 -1.65 -42.55 -5.2015625 -39.616015625 -8.75 -30.45 -12.8826171875 -19.8533203125 -13.5 -10.8 -13.2416015625 -5.48203125 -6.75 -4.1 10.447265625 18.96171875 13 20.6
L 13.75 19.35 13.75 19.3
Q 18.0880859375 12.2681640625 18.8 3.65 19.183984375 -1.172265625 18.35 -9.35 16.7498046875 -23.881640625 8 -34.45 4.9296875 -38.1494140625 1.5 -40.65
M 6.95 -13.2
Q 6.291796875 -19.99140625 4.05 -26.35 7.77265625 -21.4501953125 8.95 -11.4 10.08671875 -1.7115234375 6.85 4.85 6.771484375 5.1154296875 6.65 5.35 6.691796875 5.0984375 6.7 4.85 6.738671875 4.7623046875 6.75 4.65 7.920703125 -3.00390625 6.95 -13.2 Z"/>

<path fill="#EBD463" stroke="none" d="
M 4.05 -26.35
Q 6.291796875 -19.99140625 6.95 -13.2 7.920703125 -3.00390625 6.75 4.65 6.738671875 4.7623046875 6.7 4.85 6.691796875 5.0984375 6.65 5.35 6.771484375 5.1154296875 6.85 4.85 10.08671875 -1.7115234375 8.95 -11.4 7.77265625 -21.4501953125 4.05 -26.35
M 10.3 -36.35
Q 6.9703125 -40.35078125 3.25 -43.05
L 3.25 -43.1
Q -0.0212890625 -45.455078125 -1.7 -45.7 -2.28046875 -45.777734375 -2.8 -45.45 -7.2623046875 -42.6033203125 -11.55 -31.55 -16.017578125 -20.0462890625 -13.5 -10.8 -12.8826171875 -19.8533203125 -8.75 -30.45 -5.2015625 -39.616015625 -1.65 -42.55 -0.4720703125 -42.0763671875 1.5 -40.65
L 1.5 -40.65
Q 4.9296875 -38.1494140625 8 -34.45 16.7498046875 -23.881640625 18.35 -9.35 19.183984375 -1.172265625 18.8 3.65 18.0880859375 12.2681640625 13.75 19.3
L 13.75 19.35 13 20.6
Q 16.1837890625 19.6201171875 19.2 12.85 20.660546875 8.46875 21.4 3.15 21.8 0.25 21.8 -2.6 21.75 -5.35 21.35 -9.65
L 21.35 -9.7
Q 19.642578125 -25.1271484375 10.3 -36.35 Z"/>
</g>

<g id="FS_Hair_03_9_Layer1_0_FILL">
<path fill="#F4B6D1" stroke="none" d="
M -15.3 20.95
Q -12.4958984375 13.1728515625 -10.55 1.95 -9.33515625 -5.08984375 -9.55 -10.7 -19.1537109375 -4.50703125 -22.45 10.95
L -24.65 20.6
Q -26.1009765625 26.412890625 -27.65 29.9 -30.7328125 37.108203125 -36 40.55 -40.547265625 43.6015625 -46.75 41.9 -53.25546875 40.2078125 -54 34.7 -54.1966796875 33.023046875 -53.4 31.7
L -54.25 31.65
Q -54.567578125 32.483203125 -54.85 33.4 -56.44765625 38.8580078125 -55.55 44.6 -54.0509765625 45.4767578125 -52.3 46.15 -44.3921875 49.1947265625 -37.1 47.4 -24.8828125 44.4599609375 -17 25.3 -16.0857421875 23.177734375 -15.3 20.95
M -45 58.35
Q -47.4171875 57.7123046875 -49.85 56.8 -43.181640625 63.76328125 -30.8 62.4 -19.2693359375 61.159375 -10.15 54.45 -15.8212890625 56.9150390625 -22.25 58.5 -33.6568359375 61.3353515625 -44.95 58.35
L -45 58.35
M 18.55 -4.05
Q 15.61015625 -10.8939453125 2 -12.95 -3.3474609375 -13.4736328125 -7.75 -11.45
L -9.05 1.95
Q -10.46640625 12.28828125 -13.4 21 -15.2298828125 26.7404296875 -17.7 31.55 -26.0580078125 47.8919921875 -39.4 48.65 -46.0513671875 49.0701171875 -52.45 46.6 -53.3029296875 46.301953125 -54.15 45.9 -54.8228515625 45.619140625 -55.45 45.3 -54.4109375 51.08359375 -51.1 55.3 -50.7478515625 55.77734375 -50.4 56.2 -47.5982421875 57.353515625 -44.9 58.05 -32.5521484375 61.378515625 -16 55.6 -11.0904296875 53.905078125 -6.15 51.05
L -6.1 51
Q 1.2689453125 43.7201171875 8.5 29.35 10.1947265625 26.087109375 12 21.95
L 18.55 6.45
Q 19.9310546875 1.2 18.55 -4.05 Z"/>

<path fill="#E781B3" stroke="none" d="
M 15.15 22.05
L 21.05 7.95
Q 27.2802734375 -12.8650390625 1.4 -15.55 -19.2064453125 -17.0857421875 -26.85 16.85 -27.3349609375 18.456640625 -27.8 20.45 -28.283203125 22.6013671875 -28.7 23.95 -30.8541015625 31.1642578125 -34.55 35.45 -37.190234375 38.5373046875 -40.45 39.8 -44.2509765625 41.2671875 -47.6 39.4 -49.7681640625 38.1873046875 -50.7 36.1 -51.13828125 35.01328125 -51 34.05 -50.4685546875 32.0548828125 -53.4 31.7 -54.1966796875 33.023046875 -54 34.7 -53.25546875 40.2078125 -46.75 41.9 -40.547265625 43.6015625 -36 40.55 -30.7328125 37.108203125 -27.65 29.9 -26.1009765625 26.412890625 -24.65 20.6
L -22.45 10.95
Q -19.1537109375 -4.50703125 -9.55 -10.7 -9.33515625 -5.08984375 -10.55 1.95 -12.4958984375 13.1728515625 -15.3 20.95 -16.0857421875 23.177734375 -17 25.3 -24.8828125 44.4599609375 -37.1 47.4 -44.3921875 49.1947265625 -52.3 46.15 -54.0509765625 45.4767578125 -55.55 44.6 -56.44765625 38.8580078125 -54.85 33.4 -54.567578125 32.483203125 -54.25 31.65 -57.707421875 30.8158203125 -58.35 33.45 -58.6986328125 34.9080078125 -58.9 36.55 -59.1798828125 39.5009765625 -59 42.25 -58.9359375 42.7412109375 -58.9 43.2 -58.433984375 47.1412109375 -56.95 50.65 -56.164453125 52.3900390625 -55.2 53.9
L -55.25 53.9
Q -54.94921875 54.3236328125 -54.65 54.7 -50.581640625 60.4970703125 -43.2 63 -34.3453125 66.018359375 -24 63.55 -11.4810546875 60.579296875 -1.55 49.9 0.5052734375 47.6896484375 2.45 45.15 7.0185546875 39.1833984375 10.95 31.4 12.088671875 29.206640625 15.15 22.05
M 2 -12.95
Q 15.61015625 -10.8939453125 18.55 -4.05 19.9310546875 1.2 18.55 6.45
L 12 21.95
Q 10.1947265625 26.087109375 8.5 29.35 1.2689453125 43.7201171875 -6.1 51
L -6.15 51.05
Q -11.0904296875 53.905078125 -16 55.6 -32.5521484375 61.378515625 -44.9 58.05 -47.5982421875 57.353515625 -50.4 56.2 -50.7478515625 55.77734375 -51.1 55.3 -54.4109375 51.08359375 -55.45 45.3 -54.8228515625 45.619140625 -54.15 45.9 -53.3029296875 46.301953125 -52.45 46.6 -46.0513671875 49.0701171875 -39.4 48.65 -26.0580078125 47.8919921875 -17.7 31.55 -15.2298828125 26.7404296875 -13.4 21 -10.46640625 12.28828125 -9.05 1.95
L -7.75 -11.45
Q -3.3474609375 -13.4736328125 2 -12.95
M -49.85 56.8
Q -47.4171875 57.7123046875 -45 58.35
L -44.95 58.35
Q -33.6568359375 61.3353515625 -22.25 58.5 -15.8212890625 56.9150390625 -10.15 54.45 -19.2693359375 61.159375 -30.8 62.4 -43.181640625 63.76328125 -49.85 56.8 Z"/>
</g>

<g id="FS_Hair_01_6_Layer3_0_FILL">
<path fill="#F4B6D1" stroke="none" d="
M 66.05 0.45
L 66.05 0.45
Q 56.248828125 -1.5083984375 46.45 -2.8 50.448046875 1.739453125 53.8 6.3 72.092578125 31.308203125 79.55 67 82.0259765625 78.731640625 83.45 100.25 84.6201171875 118.52109375 82.5 132.75 81.641015625 138.4892578125 80.35 143.6
L 109.75 137.85
Q 111.1134765625 127.9126953125 111.55 118.55 113.2025390625 84.8697265625 107.25 60.5 100.2705078125 31.7341796875 77.5 10.05 72.437890625 5.2201171875 66.05 0.45
M 13.35 -3.6
Q 15.10625 -3.183984375 16.9 -2.7 18.975 -2.1021484375 21.1 -1.4 21.1982421875 -1.333203125 21.3 -1.3 25.7974609375 0.27734375 29.95 2.55 46.06484375 11.2943359375 57.35 30.4 71.2466796875 53.675 74.75 87.8 76.6654296875 105.787109375 74.9 121.3 73.9478515625 129.8154296875 71.4 137.8 70.653515625 140.0859375 68.65 143.1
L 68.65 143.15 78.55 143.5
Q 81.2462890625 133.5765625 82 122.05 82.81953125 108.7810546875 81.1 88.95 77.7703125 51.408203125 61.75 21.15 55.125390625 8.619140625 45 -3 41.5677734375 -3.42265625 38.1 -3.8 23.7828125 -5.3517578125 13.35 -3.6
M 111.45 32.25
Q 103.1365234375 16.4970703125 91.45 9.3 82.89296875 4.08046875 67.8 0.8 72.2009765625 4.134375 76 7.5 99.53125 28.2556640625 107.8 57.25 114.38359375 80.1328125 113.2 115.35 112.94609375 123.46640625 112.35 130.3
L 112.35 130.35
Q 112.69609375 129.507421875 113 128.75 127.9439453125 92.5828125 121.9 61.25 119.28046875 47.2314453125 111.45 32.25
M 16.8 -2.4
Q 14.655078125 -2.9919921875 12.45 -3.45 10.4029296875 -3.0490234375 7.05 -2.15 3.7126953125 -1.23671875 1.35 0.15 -0.9623046875 1.533203125 -0.95 1.6
L 2.25 6.25
Q 2.5501953125 7 2.45 7.1 2.4248046875 7.19765625 2.5 7.4
L 2.2 7.15
Q 2.022265625 7.031640625 1.75 6.8 3.2001953125 8.1384765625 3.2 8.15 3.2505859375 8.1107421875 3.3 8.05 4.423828125 6.7212890625 7.25 5.25 8.6974609375 4.58671875 10.65 4.05 18.69375 1.9888671875 28.75 7.35 38.0328125 12.2271484375 48.1 27.25 55.95390625 38.9048828125 61.1 52 71.6396484375 78.5599609375 71.7 110.9 71.7787109375 124.3935546875 69.55 137.9
L 69.6 137.85
Q 70.4330078125 135.7861328125 71.05 133.45 74.7470703125 119.8767578125 74.15 100.9 73.3439453125 69.95234375 62.95 44.45 50.776171875 14.398046875 29.75 3 25.4693359375 0.66015625 21.15 -0.95 21.051171875 -0.979296875 20.95 -1 18.8939453125 -1.7763671875 16.8 -2.4 Z"/>

<path fill="#E781B3" stroke="none" d="
M 12.45 -3.45
Q 14.655078125 -2.9919921875 16.8 -2.4 18.8939453125 -1.7763671875 20.95 -1 21.051171875 -0.979296875 21.15 -0.95 25.4693359375 0.66015625 29.75 3 50.776171875 14.398046875 62.95 44.45 73.3439453125 69.95234375 74.15 100.9 74.7470703125 119.8767578125 71.05 133.45 70.4330078125 135.7861328125 69.6 137.85
L 69.55 137.9
Q 71.7787109375 124.3935546875 71.7 110.9 71.6396484375 78.5599609375 61.1 52 55.95390625 38.9048828125 48.1 27.25 38.0328125 12.2271484375 28.75 7.35 18.69375 1.9888671875 10.65 4.05 8.6974609375 4.58671875 7.25 5.25 4.423828125 6.7212890625 3.3 8.05
L 3.3 8.05
Q 3.455859375 8.1515625 3.55 8.1 4.234765625 8.259765625 4.65 9.35 4.6900390625 9.4458984375 4.7 9.55 4.8677734375 9.43828125 5 9.3 14.00078125 2.989453125 25.15 8 34.0220703125 12.090625 42.1 23.1 59.97578125 47.247265625 65.55 79.65 71.13203125 112.058984375 68.15 128.3 65.2140625 144.5359375 65.65 143.9
L 68.65 143.15 68.65 143.1
Q 70.653515625 140.0859375 71.4 137.8 73.9478515625 129.8154296875 74.9 121.3 76.6654296875 105.787109375 74.75 87.8 71.2466796875 53.675 57.35 30.4 46.06484375 11.2943359375 29.95 2.55 25.7974609375 0.27734375 21.3 -1.3 21.1982421875 -1.333203125 21.1 -1.4 18.975 -2.1021484375 16.9 -2.7 15.10625 -3.183984375 13.35 -3.6 23.7828125 -5.3517578125 38.1 -3.8 41.5677734375 -3.42265625 45 -3 55.125390625 8.619140625 61.75 21.15 77.7703125 51.408203125 81.1 88.95 82.81953125 108.7810546875 82 122.05 81.2462890625 133.5765625 78.55 143.5
L 80.35 143.6
Q 81.641015625 138.4892578125 82.5 132.75 84.6201171875 118.52109375 83.45 100.25 82.0259765625 78.731640625 79.55 67 72.092578125 31.308203125 53.8 6.3 50.448046875 1.739453125 46.45 -2.8 56.248828125 -1.5083984375 66.05 0.45
L 66.05 0.45
Q 72.437890625 5.2201171875 77.5 10.05 100.2705078125 31.7341796875 107.25 60.5 113.2025390625 84.8697265625 111.55 118.55 111.1134765625 127.9126953125 109.75 137.85 110.8515625 140.176953125 112.65 137.75 114.002734375 134.528125 115.5 130.85 122.5345703125 113.7681640625 124.95 97.65 127.808203125 78.541015625 125.65 65.35 123.0181640625 49.38671875 116.1 35.5 108.194921875 19.4533203125 99.4 12.25 90.0421875 4.54609375 76.3 0.7 71.4796875 -0.615234375 63.85 -2.05
L 63.85 -2.05 62.55 -2.3
Q 62.3439453125 -2.3162109375 62.15 -2.35 56.2626953125 -3.4248046875 48.85 -4.55 46.5068359375 -4.912890625 44.25 -5.25
L 43.9 -5.3
Q 43.359765625 -5.34921875 42.8 -5.45
L 42.85 -5.4
Q 28.2421875 -7.2779296875 18.75 -6.55 11.80625 -6.0287109375 6.4 -4.5
L 5.9 -4.35
Q 1.4357421875 -2.9884765625 -1.95 -0.95 -2.43671875 -0.6041015625 -2.9 -0.1
L -0.95 1.6
Q -0.9623046875 1.533203125 1.35 0.15 3.7126953125 -1.23671875 7.05 -2.15 10.4029296875 -3.0490234375 12.45 -3.45
M 91.45 9.3
Q 103.1365234375 16.4970703125 111.45 32.25 119.28046875 47.2314453125 121.9 61.25 127.9439453125 92.5828125 113 128.75 112.69609375 129.507421875 112.35 130.35
L 112.35 130.3
Q 112.94609375 123.46640625 113.2 115.35 114.38359375 80.1328125 107.8 57.25 99.53125 28.2556640625 76 7.5 72.2009765625 4.134375 67.8 0.8 82.89296875 4.08046875 91.45 9.3 Z"/>
</g>

<g id="FS_Hair_04_9_Layer1_0_FILL">
<path fill="#000000" stroke="none" d="
M 8.7 2.75
L 8.7 2.8 8.75 2.8 8.7 2.75 Z"/>

<path fill="#F4B6D1" stroke="none" d="
M 1.6 -3.15
Q 3.3505859375 -4.7919921875 5.7 -4.3 7.1384765625 -4.0005859375 8.2 -2.75 8.7400390625 -4.8548828125 7.95 -6.95 7.395703125 -8.5333984375 5.1 -7.7 3.3791015625 -7.0580078125 2.1 -5.85 0.4541015625 -4.2232421875 -0.7 -0.4 -0.80390625 -0.021484375 -0.9 0.3
L 0.1 0.35
Q 0.0630859375 -1.7001953125 1.6 -3.15 Z"/>

<path fill="#E781B3" stroke="none" d="
M 5.7 -4.3
Q 3.3505859375 -4.7919921875 1.6 -3.15 0.0630859375 -1.7001953125 0.1 0.35
L 3.1 0.45
Q 3.2353515625 -0.826953125 4.4 -1.9 5.198828125 -2.5912109375 7 0 7.7859375 1.1158203125 8.7 2.75
L 8.75 2.8
Q 8.8837890625 2.687890625 9 2.5 9.5974609375 1.754296875 10.05 0.9 10.905078125 -0.6455078125 11.25 -2.45 11.858984375 -5.4099609375 10.65 -7.7 9.52421875 -9.8265625 6.7 -10.1 4.2296875 -10.3203125 1.95 -9.15 -2.909765625 -6.603125 -4.35 0.2
L -0.9 0.3
Q -0.80390625 -0.021484375 -0.7 -0.4 0.4541015625 -4.2232421875 2.1 -5.85 3.3791015625 -7.0580078125 5.1 -7.7 7.395703125 -8.5333984375 7.95 -6.95 8.7400390625 -4.8548828125 8.2 -2.75 7.1384765625 -4.0005859375 5.7 -4.3 Z"/>
</g>

<path id="FS_34trot_HindLeg_side_2_Layer6_0_1_STROKES" stroke="#EBD564" stroke-width="3" stroke-linejoin="round" stroke-linecap="round" fill="none" d="
M 45.6 140.75
Q 43.1 144.2 29.95 144.45 16.8 144.65 11.3 143.45 5.75 142.25 7.4 136.25 9 130.2 10.55 125.35 12.05 120.45 14.75 116 17.4 111.5 24.95 110.95 32.55 110.35 38.95 115.5 45.3 120.65 46.7 129 48.05 137.3 45.6 140.75 Z"/>

<path id="FS_34trot_HindLeg_side_2_Layer4_0_1_STROKES" stroke="#EBD564" stroke-width="3" stroke-linejoin="round" stroke-linecap="round" fill="none" d="
M 7.4 135.7
Q 11.2 106.9 9.15 90.45 9.05 89.8 9 89.2 6.6 75.5 7.1 72.45 6.8 70.6 6.5 69.25 4.9 63.5 11 58.7 18.35 53.65 28.1 56.8 29.05 57.4 29.8 58.4 34.35 65.15 35.95 79.95 41.35 101.75 46.45 128.75"/>

<path id="FS_34trot_HindLeg_side_10_Layer6_0_1_STROKES" stroke="#EBD564" stroke-width="3" stroke-linejoin="round" stroke-linecap="round" fill="none" d="
M 55.1 88.75
Q 55.65 89.15 56.15 89.6 60.95 93.75 62.5 98.95 64.05 105.1 59.2 113.15 59.15 113.25 59.05 113.35 53.9 121.55 47.55 124.15 41.5 126.55 36.75 121.85 36.45 121.6 36.2 121.3 36.15 121.25 36.1 121.2 34.85 119.85 33.75 118.55 30.95 115 29.6 111.8 29.55 111.65 29.5 111.55 29.45 111.5 29.45 111.4 28.7 109.45 28.1 107.3 27.25 104.6 26.75 101.65
L 26.75 101.6
Q 25.8 96.45 30.85 91.25 35.95 86.05 42.55 85.4 50.8 85.6 55.1 88.75 Z"/>

<path id="FS_34trot_HindLeg_side_10_Layer4_0_1_STROKES" stroke="#EBD564" stroke-width="3" stroke-linejoin="round" stroke-linecap="round" fill="none" d="
M 59.35 92.7
Q 48.35 76.3 40.45 55.55 39.05 52.1 37.45 47.8 35.3 45.2 35 45.05 34.4 44.6 33.75 44.25 33.05 43.85 32 43.4 31.1 43.05 30.1 42.9 24.1 42.65 19.65 45.55 19.35 45.75 19.15 45.9 17.15 47.45 15.95 49.4 15.5 50.15 15.15 51 14.9 51.85 14.7 52.7 14.65 53 14.65 53.4 14.55 53.65 14.55 53.9 14.35 56.6 14.8 59.65 14.95 60.6 15.1 61.6 15.2 62.6 15.4 63.7 19.65 85.55 29.25 111.7"/>

<path id="FS_34trot_FrontLeg_3_4_4_Layer4_0_1_STROKES" stroke="#EBD564" stroke-width="2.8" stroke-linejoin="round" stroke-linecap="round" fill="none" d="
M 31.7 67.725
Q 39.4828125 67.116796875 47.6 72.525 55.7103515625 77.9541015625 57.225 78.975 58.7654296875 79.980859375 59.1 89.775 59.422265625 99.58046875 46.975 101.8 34.5162109375 104.01328125 27.275 102.3 20.046875 100.5849609375 20.1 94.275 20.149609375 87.9728515625 20.425 82.85 20.6814453125 77.7041015625 22.275 73 23.8900390625 68.3037109375 31.7 67.725 Z"/>
</defs>

<g transform="matrix( 0.986846923828125, 0, 0, 0.986846923828125, 690.65,309.25) ">
<g transform="matrix( -1.0221405029296875, 0, 0, 1.0221405029296875, 43.25,23.6) ">
<g transform="matrix( 1.1646728515625, 0, -0.854705810546875, 1.737945556640625, -4.25,144.5) ">
<g transform="matrix( 1.1522064208984375, 0, 0, 1.7481689453125, 4.4,-262.5) ">
<use filter="url(#Filter_1)" xlink:href="#FS_34trot_Shadow_0_Layer0_0_FILL"/>
</g>
</g>

<g transform="matrix( 1, 0, 0.0657196044921875, 1, -33.3,-0.4) ">
<g transform="matrix( 0.8109893798828125, -0.0028839111328125, 0.118316650390625, 0.998382568359375, -12.3,11.1) ">
<g transform="matrix( 1, 0, 0, 1, 0,0) ">
<use filter="url(#Filter_2)" xlink:href="#FS_34trot_Wing_3_4far_8_Layer5_0_FILL"/>
</g>
</g>
</g>

<g transform="matrix( 0.9882049560546875, -0.1425933837890625, 0.1322479248046875, 0.9164581298828125, 17.75,-11.65) ">
<g transform="matrix( 1, 0, 0.10943603515625, 1, -2.2,-0.85) ">
<g transform="matrix( 1, 0, 0, 1, 0,0) ">
<use xlink:href="#FS_34trot_Tail_7_Layer1_0_FILL"/>
</g>
</g>
</g>

<g transform="matrix( 1, 0, 0, 1, 10.8,51.05) ">
<g transform="matrix( 1, 0, 0, 0.8198394775390625, -18.1,-38.55) ">
<g transform="matrix( 1, 0, 0, 1, 0,0) ">
<use filter="url(#Filter_2)" xlink:href="#FS_34trot_HindLeg_side_2_Layer6_0_FILL"/>

<use filter="url(#Filter_2)" xlink:href="#FS_34trot_HindLeg_side_2_Layer6_0_1_STROKES"/>
</g>

<g transform="matrix( 0.987548828125, -0.13067626953125, 0.1784210205078125, 1.0104217529296875, 10.2,58.5) ">
<g transform="matrix( 1, 0, 0, 1, 0,0) ">
<use filter="url(#Filter_2)" xlink:href="#FS_34trot_KneePatch_2_Layer0_0_FILL"/>
</g>
</g>

<g transform="matrix( 1, 0, 0, 1, 0,0) ">
<use filter="url(#Filter_2)" xlink:href="#FS_34trot_HindLeg_side_2_Layer4_0_FILL"/>

<use filter="url(#Filter_2)" xlink:href="#FS_34trot_HindLeg_side_2_Layer4_0_1_STROKES"/>
</g>

<g transform="matrix( 0.975982666015625, -0.107879638671875, 0.089752197265625, 1.0779876708984375, 8.15,-11.2) ">
<g transform="matrix( 1, 0, 0, 1, 0,0) ">
<use filter="url(#Filter_2)" xlink:href="#FS_34trot_HindLeg_3_4_top_1_Layer0_0_FILL"/>
</g>

<g transform="matrix( 1, 0, 0, 1, 0,0) ">
<use filter="url(#Filter_2)" xlink:href="#FS_34trot_HindLeg_3_4_top_1_Layer0_1_FILL"/>
</g>
</g>

<g transform="matrix( 0.987548828125, -0.13067626953125, 0.1784210205078125, 1.0104217529296875, 9.5,58.4) ">
<g transform="matrix( 1, 0, 0, 1, 0,0) ">
<use filter="url(#Filter_2)" xlink:href="#FS_34trot_KneePatch_3_Layer0_0_FILL"/>
</g>
</g>

<g transform="matrix( 1.0062255859375, -0.00445556640625, 0.0677947998046875, 1.0301513671875, -1,16.65) ">
<g transform="matrix( 1, 0, 0, 1, 0,0) ">
<use filter="url(#Filter_2)" xlink:href="#FS_34trot_CutieMark_5_Layer0_0_FILL"/>
</g>
</g>
</g>
</g>

<g transform="matrix( 1, 0, 0, 1, -36.9,89.3) ">
<g transform="matrix( 1.00152587890625, 0.025482177734375, 0.057647705078125, 1.095489501953125, -25.65,-57.15) ">
<g transform="matrix( 0.997833251953125, 0.0516357421875, -0.0399932861328125, 1.0267181396484375, -4.05,-5.5) ">
<g transform="matrix( 1, 0, 0, 1, 0,0) ">
<use xlink:href="#FS_34trot_FrontLeg_3_4_upper_1_Layer1_0_FILL"/>
</g>

<g transform="matrix( 1, 0, 0, 1, 0,0) ">
<use xlink:href="#FS_34trot_FrontLeg_3_4_upper_1_Layer0_0_FILL"/>
</g>
</g>

<g transform="matrix( 0.257598876953125, 0.9629669189453125, -0.9586639404296875, 0.2646942138671875, -0.25,13.3) ">
<g transform="matrix( 1, 0, 0, 1, 0,0) ">
<use xlink:href="#FS_34trot_FrontLeg_3_4_lower_1_Layer1_0_FILL"/>
</g>

<g transform="matrix( 1, 0, 0, 1, 0,0) ">
<use xlink:href="#FS_34trot_FrontLeg_3_4_lower_1_Layer0_0_FILL"/>
</g>
</g>

<g transform="matrix( 0.963287353515625, -0.2602386474609375, 0.2602386474609375, 0.963287353515625, -23.2,20.1) ">
<g transform="matrix( 1, 0, 0, 1, 0,0) ">
<use xlink:href="#FS_34trot_FrontLeg_3_4_hoof_1_Layer0_0_FILL"/>
</g>
</g>
</g>
</g>

<g transform="matrix( 1, 0, 0, 1, -18.5,22) ">
<g transform="matrix( 1.0077972412109375, 0.06927490234375, 0.07501220703125, 0.9969329833984375, -1.25,3.7) ">
<g transform="matrix( 1, 0, 0, 1, 0,0) ">
<use xlink:href="#FS_34trot_Torso_13_Layer1_0_FILL"/>
</g>
</g>
</g>

<g transform="matrix( 1, 0, 0, 1, 29.8,64.05) ">
<g transform="matrix( 1, 0, 0, 0.9107818603515625, -18.1,-50.5) ">
<g transform="matrix( 1, 0, 0, 1, 0,0) ">
<use xlink:href="#FS_34trot_HindLeg_side_10_Layer6_0_FILL"/>

<use xlink:href="#FS_34trot_HindLeg_side_10_Layer6_0_1_STROKES"/>
</g>

<g transform="matrix( 0.68487548828125, -0.4418487548828125, 0.352783203125, 0.69097900390625, 17.95,49.1) ">
<g transform="matrix( 1, 0, 0, 1, 0,0) ">
<use xlink:href="#FS_34trot_KneePatch_2_Layer0_0_FILL"/>
</g>
</g>

<g transform="matrix( 1, 0, 0, 1, 0,0) ">
<use xlink:href="#FS_34trot_HindLeg_side_10_Layer4_0_FILL"/>

<use xlink:href="#FS_34trot_HindLeg_side_10_Layer4_0_1_STROKES"/>
</g>

<g transform="matrix( 1.0309906005859375, -0.0589141845703125, 0.106201171875, 1.0098114013671875, 10.35,-10.9) ">
<g transform="matrix( 1, 0, 0, 1, 0,0) ">
<use xlink:href="#FS_34trot_HindLeg_3_4_top_1_Layer0_0_FILL"/>
</g>

<g transform="matrix( 1, 0, 0, 1, 0,0) ">
<use xlink:href="#FS_34trot_HindLeg_3_4_top_1_Layer0_1_FILL"/>
</g>
</g>

<g transform="matrix( 0.68487548828125, -0.4418487548828125, 0.352783203125, 0.69097900390625, 17.65,49.1) ">
<g transform="matrix( 1, 0, 0, 1, 0,0) ">
<use xlink:href="#FS_34trot_KneePatch_3_Layer0_0_FILL"/>
</g>
</g>

<g transform="matrix( 0.9863128662109375, -0.0043487548828125, 0.119598388671875, 0.968292236328125, 2.5,15) ">
<g transform="matrix( 1, 0, 0, 1, 0,0) ">
<use xlink:href="#FS_34trot_CutieMark_5_Layer0_0_FILL"/>
</g>
</g>
</g>
</g>

<g transform="matrix( 1, 0, 0, 1, -5.05,35) ">
<g transform="matrix( 1.0963134765625, 0.4496917724609375, -0.2601470947265625, 0.8808135986328125, 2.45,11.15) ">
<g transform="matrix( 1, 0, 0, 1, 0,0) ">
<use xlink:href="#FS_Torso_overlap__0_Layer0_0_FILL"/>
</g>
</g>
</g>

<g transform="matrix( 1, 0, 0, 1, -51.1,58.6) ">
<g transform="matrix( 0.9722900390625, 0.0318756103515625, -0.0508270263671875, 0.9713287353515625, 22.25,-46.2) ">
<g transform="matrix( 1, 0, 0, 1, 0,0) ">
<use xlink:href="#FS_34trot_Neck_4_Layer1_0_FILL"/>
</g>

<g transform="matrix( 1, 0, 0, 1, 0,0) ">
<use xlink:href="#FS_34trot_Neck_4_Layer0_0_FILL"/>
</g>
</g>
</g>

<g transform="matrix( 1, 0, 0, 1, -17.9,102.3) ">
<g transform="matrix( 0.999725341796875, 0.02325439453125, -0.020904541015625, 0.99945068359375, -25.2,-54.35) ">
<g transform="matrix( 1, 0, 0, 1, 0,0) ">
<use xlink:href="#FS_34trot_FrontLeg_3_4_4_Layer4_0_FILL"/>

<use xlink:href="#FS_34trot_FrontLeg_3_4_4_Layer4_0_1_STROKES"/>
</g>

<g transform="matrix( 1, 0, 0, 1, 0,0) ">
<use xlink:href="#FS_34trot_FrontLeg_3_4_4_Layer1_0_FILL"/>
</g>
</g>
</g>

<g transform="matrix( 1, 0, 0, 1, 0.1,0.1) ">
<g transform="matrix( 0.998382568359375, -0.0028839111328125, 0.0028839111328125, 0.998382568359375, -8.95,11.1) ">
<g transform="matrix( 1, 0, 0, 1, 0,0) ">
<use xlink:href="#FS_34trot_Wing_3_4_8_Layer5_0_FILL"/>
</g>
</g>
</g>

<g transform="matrix( 1, 0, 0, 1, -51.1,58.6) ">
<g transform="matrix( 0.9985809326171875, -0.05242919921875, 0.05242919921875, 0.9985809326171875, -24.85,-99.7) ">
<g transform="matrix( 1, -0.0224761962890625, 0, 1, -6.1,-15.7) ">
<g transform="matrix( 1, 0, 0, 1, 0,0) ">
<use xlink:href="#FS_Skull_0_Layer0_0_FILL"/>
</g>
</g>

<mask id="Mask_Mask_1">
<g transform="matrix( -0.2865753173828125, -0.020233154296875, -0.0965118408203125, 0.959320068359375, -46.1,-12.65) ">
<g transform="matrix( 1, 0, 0, 1, 0,0) ">
<use xlink:href="#Mask_Mask_FS_EyeWhite_3_4far_0_Layer0_0_FILL"/>
</g>
</g>
</mask>

<g mask="url(#Mask_Mask_1)">
<g transform="matrix( -0.2865753173828125, -0.020233154296875, -0.0965118408203125, 0.959320068359375, -46.1,-12.65) ">
<g transform="matrix( 1, 0, 0, 1, 0,0) ">
<use xlink:href="#FS_EyeWhite_3_4far_0_Layer0_0_FILL"/>
</g>
</g>
</g>

<g mask="url(#Mask_Mask_1)">
<g transform="matrix( 0.2428436279296875, 0.0168304443359375, -0.0207061767578125, 0.646484375, -44.95,-5.2) ">
<g transform="matrix( 1, 0, 0, 1, 0,0) ">
<use xlink:href="#FS_Iris_0_Layer1_0_FILL"/>
</g>

<g transform="matrix( 1, 0, 0, 1, 0,0) ">
<use xlink:href="#FS_Iris_0_Layer0_0_FILL"/>
</g>

<g transform="matrix( 1, 0, 0, 1, 0,0) ">
<use xlink:href="#FS_Iris_0_Layer0_1_FILL"/>
</g>
</g>
</g>

<g mask="url(#Mask_Mask_1)">
<g transform="matrix( 0.2716217041015625, -0.093719482421875, 0.0382232666015625, 0.6364593505859375, -45.25,-4.75) ">
<g transform="matrix( 1, 0, 0, 1, 0,0) ">
<use xlink:href="#FS_Pupil_0_Layer0_0_FILL"/>
</g>
</g>
</g>

<g mask="url(#Mask_Mask_1)">
<g transform="matrix( 0.362396240234375, -0.2359771728515625, 0.0478973388671875, 0.6880035400390625, -43.35,-10.1) ">
<g transform="matrix( 1, 0, 0, 1, 0,0) ">
<use xlink:href="#FS_Hilights_0_Layer1_0_FILL"/>
</g>
</g>
</g>

<mask id="Mask_Mask_2">
<g transform="matrix( 0.9999847412109375, 0.0103759765625, 0, 0.9999847412109375, -1.15,-4.2) ">
<g transform="matrix( 1, 0, 0, 1, 0,0) ">
<use xlink:href="#Mask_Mask_FS_EyeWhite_3_4_0_Layer0_0_FILL"/>
</g>
</g>
</mask>

<g mask="url(#Mask_Mask_2)">
<g transform="matrix( 0.9999847412109375, 0.0103759765625, 0, 0.9999847412109375, -1.15,-4.2) ">
<g transform="matrix( 1, 0, 0, 1, 0,0) ">
<use xlink:href="#FS_EyeWhite_3_4_0_Layer0_0_FILL"/>
</g>
</g>
</g>

<g mask="url(#Mask_Mask_2)">
<g transform="matrix( -0.5503997802734375, 0, -0.0444183349609375, 0.709259033203125, -10.6,-1.6) ">
<g transform="matrix( 1, 0, 0, 1, 0,0) ">
<use xlink:href="#FS_Iris_0_Layer1_0_FILL"/>
</g>

<g transform="matrix( 1, 0, 0, 1, 0,0) ">
<use xlink:href="#FS_Iris_0_Layer0_0_FILL"/>
</g>

<g transform="matrix( 1, 0, 0, 1, 0,0) ">
<use xlink:href="#FS_Iris_0_Layer0_1_FILL"/>
</g>
</g>
</g>

<g mask="url(#Mask_Mask_2)">
<g transform="matrix( 0.6029205322265625, -0.1615447998046875, 0.1625823974609375, 0.6943511962890625, -11.25,-0.95) ">
<g transform="matrix( 1, 0, 0, 1, 0,0) ">
<use xlink:href="#FS_Pupil_0_Layer0_0_FILL"/>
</g>
</g>
</g>

<g mask="url(#Mask_Mask_2)">
<g transform="matrix( 0.736724853515625, 0, 0, 0.736724853515625, -7.85,-5.55) ">
<g transform="matrix( 1, 0, 0, 1, 0,0) ">
<use xlink:href="#FS_Hilights_0_Layer1_0_FILL"/>
</g>
</g>
</g>

<g transform="matrix( 1.08978271484375, 0.012664794921875, -0.0008087158203125, 1.02630615234375, -47.7,-12.65) ">
<g transform="matrix( 1, 0, 0, 1, 0,0) ">
<use xlink:href="#FS_Blink_3_4far_100_Layer9_0_FILL"/>
</g>
</g>

<g transform="matrix( 1.02740478515625, 0.010650634765625, 0, 0.9999847412109375, -1,-6.8) ">
<g transform="matrix( 1, 0, 0, 1, 0,0) ">
<use xlink:href="#FS_Blink_3_4_0_Layer5_0_FILL"/>
</g>

<g transform="matrix( 1, 0, 0, 1, 0,0) ">
<use xlink:href="#FS_Blink_3_4_0_Layer4_0_FILL"/>
</g>

<g transform="matrix( 1, 0, 0, 1, 0,0) ">
<use xlink:href="#FS_Blink_3_4_0_Layer3_0_FILL"/>
</g>

<g transform="matrix( 1, 0, 0, 1, 0,0) ">
<use xlink:href="#FS_Blink_3_4_0_Layer3_1_FILL"/>
</g>

<g transform="matrix( 1, 0, 0, 1, 0,0) ">
<use xlink:href="#FS_Blink_3_4_0_Layer2_0_FILL"/>
</g>

<g transform="matrix( 1, 0, 0, 1, 0,0) ">
<use xlink:href="#FS_Blink_3_4_0_Layer1_0_FILL"/>
</g>
</g>

<g transform="matrix( 0.9965972900390625, 0.0824127197265625, -0.0824127197265625, 0.9965972900390625, 19,-18.3) ">
<g transform="matrix( 1, 0, 0, 1, 0,0) ">
<use xlink:href="#FS_Brow_3_4_9_Layer4_0_FILL"/>
</g>

<g transform="matrix( 1, 0, 0, 1, 0,0) ">
<use xlink:href="#FS_Brow_3_4_9_Layer0_0_FILL"/>
</g>
</g>

<g transform="matrix( -0.9987030029296875, -0.0631561279296875, -0.1661376953125, 0.84149169921875, -50.8,-26.2) ">
<g transform="matrix( 1, 0, 0, 1, 0,0) ">
<use xlink:href="#FS_Brow_3_4rear_9_Layer5_0_FILL"/>
</g>

<g transform="matrix( 1, 0, 0, 1, 0,0) ">
<use xlink:href="#FS_Brow_3_4rear_9_Layer4_0_FILL"/>
</g>

<g transform="matrix( 1, 0, 0, 1, 0,0) ">
<use xlink:href="#FS_Brow_3_4rear_9_Layer1_0_FILL"/>
</g>
</g>

<g transform="matrix( 1, 0, 0.003814697265625, 1, -19.85,18.55) ">
<g transform="matrix( 1, 0, 0, 1, 0,0) ">
<use xlink:href="#FS_Mouth_3_4_40_Layer10_0_FILL"/>
</g>

<g transform="matrix( 1, 0, 0, 1, -23.05,-13.6) ">
<g transform="matrix( 1, 0, 0, 1, 0,0) ">
<use xlink:href="#FS_Nose_0_Layer1_0_FILL"/>
</g>
</g>

<g transform="matrix( 1, 0, 0, 1, 0,0) ">
<use xlink:href="#FS_Mouth_3_4_40_Layer7_0_FILL"/>
</g>

<g transform="matrix( 1, 0, 0, 1, 0,0) ">
<use xlink:href="#FS_Mouth_3_4_40_Layer4_0_FILL"/>
</g>
</g>

<g transform="matrix( 1, 0, -0.003814697265625, 1, -46.45,18.55) ">
<g transform="matrix( 1, 0, 0, 1, 0.1,0.05) ">
<g transform="matrix( 1, 0, 0, 1, 0,0) ">
<use xlink:href="#FS_Nostril_3_4_0_Layer0_0_FILL"/>
</g>
</g>
</g>

<g transform="matrix( 0.97369384765625, -0.0419464111328125, 0.0408782958984375, 0.9989776611328125, -32.1,-56.6) ">
<g transform="matrix( 1, 0, 0, 1, 0,0) ">
<use xlink:href="#FS_Hair_05_6_Layer1_0_FILL"/>
</g>
</g>

<g transform="matrix( 0.9659271240234375, 0.258819580078125, -0.258819580078125, 0.9659271240234375, 30.9,-32.4) ">
<g transform="matrix( 1, 0, 0, 1, 0,0) ">
<use xlink:href="#FS_Ear_2_Layer1_0_FILL"/>
</g>
</g>
</g>

<g transform="matrix( 0.9984130859375, -0.052947998046875, 0.052947998046875, 0.9984130859375, 14.4,-144.7) ">
<g transform="matrix( -1, 0, 0, 1, -99.7,-41.15) ">
<g transform="matrix( -0.973846435546875, -0.0372772216796875, -0.0360870361328125, 0.9991302490234375, -94.25,126.2) ">
<g transform="matrix( 1, 0, 0, 1, 0,0) ">
<use xlink:href="#FS_Hair_03_9_Layer1_0_FILL"/>
</g>
</g>

<g transform="matrix( -0.973846435546875, -0.0372772216796875, -0.0360870361328125, 0.9991302490234375, -0.3,-0.35) ">
<g transform="matrix( 1, 0, 0, 1, 0,0) ">
<use xlink:href="#FS_Hair_01_6_Layer3_0_FILL"/>
</g>
</g>

<g transform="matrix( -0.973846435546875, -0.0372772216796875, -0.0360870361328125, 0.9991302490234375, -42.6,162.85) ">
<g transform="matrix( 1, 0, 0, 1, 0,0) ">
<use xlink:href="#FS_Hair_04_9_Layer1_0_FILL"/>
</g>
</g>
</g>
</g>
</g>
</g>
</g>
</svg>
