
<svg xmlns="http://www.w3.org/2000/svg" version="1.1" xmlns:xlink="http://www.w3.org/1999/xlink" preserveAspectRatio="none" x="0px" y="0px" width="864px" height="486px" viewBox="0 0 864 486">
<defs>
<linearGradient id="Gradient_1" gradientUnits="userSpaceOnUse" x1="-33.8" y1="-21.2875" x2="-46.900000000000006" y2="1.387500000000001" spreadMethod="pad">
<stop  offset="0%" stop-color="#015350"/>

<stop  offset="2.7450980392156863%" stop-color="#025B58"/>

<stop  offset="9.019607843137255%" stop-color="#046B67"/>

<stop  offset="14.901960784313726%" stop-color="#047672"/>

<stop  offset="19.607843137254903%" stop-color="#057975"/>

<stop  offset="28.235294117647058%" stop-color="#058581"/>

<stop  offset="42.35294117647059%" stop-color="#009590"/>

<stop  offset="58.03921568627451%" stop-color="#00A19D"/>

<stop  offset="75.68627450980392%" stop-color="#00AAA5"/>

<stop  offset="100%" stop-color="#00ADA8"/>
</linearGradient>

<filter id="Filter_1" x="-20%" y="-20%" width="140%" height="140%" color-interpolation-filters="sRGB">
<feColorMatrix in="SourceGraphic" type="matrix" values="1 0 0 0 0 0 1 0 0 0 0 0 1 0 0 0 0 0 0.21 0" result="result1"/>
</filter>

<filter id="Filter_2" x="-20%" y="-20%" width="140%" height="140%" color-interpolation-filters="sRGB">
<feColorMatrix in="SourceGraphic" type="matrix" values="0.5 0 0 0 0.4627450980392157 0 0.5 0 0 0.41568627450980394 0 0 0.5 0 0.19607843137254902 0 0 0 1 0" result="result1"/>
</filter>

<g id="FS_Shadow_0_Layer0_0_FILL">
<path fill="#000000" stroke="none" d="
M 46.4 155.05
Q 68.65 152.95 68.65 149.95 68.65 146.95 46.4 144.8 24.15 142.7 -7.4 142.7 -38.9 142.7 -61.2 144.8 -83.45 146.95 -83.45 149.95 -83.45 152.95 -61.2 155.05 -38.9 157.2 -7.4 157.2 24.15 157.2 46.4 155.05 Z"/>
</g>

<g id="FS_Mane_02_9_Layer0_0_FILL">
<path fill="#E781B3" stroke="none" d="
M 10.05 -7.7
Q 6.5203125 -13.5154296875 0.7 -13.5 -3.5380859375 -13.4861328125 -6.35 -11.7 -9.3712890625 -9.7876953125 -10.3 -8.5 -14.3015625 -2.6310546875 -19.85 -1.2 -26.031640625 0.487890625 -30.2 -4.45 -32.0701171875 -6.703125 -32.85 -10.25 -33.371484375 -14.9611328125 -40.75 -13.1 -45.4837890625 -12.1677734375 -45.5 -8.45 -45.7876953125 -1.7421875 -42.9 4.95 -38.76484375 14.1408203125 -27.45 17.5 -11.512109375 22.2798828125 7.8 11.3 17.5994140625 5.3140625 10.05 -7.7
M -39.6 -9.75
Q -36.130859375 -10.5814453125 -35.55 -8.35 -34.8123046875 -5.17578125 -31.9 -2.15 -29.0345703125 0.841015625 -24.45 1 -20.4642578125 1.1431640625 -16.35 -0.7 -12.0955078125 -2.58515625 -8.5 -7.15
L -8.45 -7.1
Q 1.0677734375 -15.857421875 8.5 -6.45 15.944140625 2.945703125 7.25 9.9 -1.660546875 15.116796875 -10.75 16.75 -26.2603515625 19.523046875 -35.95 9.85 -42.0666015625 3.7916015625 -42.3 -6.95 -42.1001953125 -9.214453125 -39.6 -9.75 Z"/>

<path fill="#F4B6D1" stroke="none" d="
M -35.55 -8.35
Q -36.130859375 -10.5814453125 -39.6 -9.75 -42.1001953125 -9.214453125 -42.3 -6.95 -42.0666015625 3.7916015625 -35.95 9.85 -26.2603515625 19.523046875 -10.75 16.75 -1.660546875 15.116796875 7.25 9.9 15.944140625 2.945703125 8.5 -6.45 1.0677734375 -15.857421875 -8.45 -7.1
L -8.5 -7.15
Q -12.0955078125 -2.58515625 -16.35 -0.7 -20.4642578125 1.1431640625 -24.45 1 -29.0345703125 0.841015625 -31.9 -2.15 -34.8123046875 -5.17578125 -35.55 -8.35 Z"/>
</g>

<g id="FS_Mane_01_9_Layer1_0_FILL">
<path fill="#F4B6D1" stroke="none" d="
M 2.85 -3.45
L 2.85 -3.45 1.25 1.7 1.25 1.7 1.25 1.75
Q 1.0908203125 2.3931640625 0.95 3 -2.3541015625 17.95546875 5.2 29.9 9.2611328125 36.26171875 20.95 48.15 31.991796875 59.3650390625 36.15 66.8 42.7283203125 78.5548828125 43.5 92.9 44.2638671875 107.2880859375 38.85 119.6 36.4376953125 125.1306640625 33.6 128.95 48.2708984375 127.9431640625 49.4 145.9 55.5619140625 136.6044921875 59.8 123.85 68.7572265625 96.897265625 60.5 73.15 54.908203125 57.0669921875 45.1 50.65 36.8310546875 45.6470703125 33.1 42.85 26.684765625 38.144140625 23.5 32.35 16.5033203125 19.8400390625 17.25 3.05 17.612109375 -4.74921875 20.7 -16.15 22.8701171875 -22.3892578125 25.95 -28.45 6.2169921875 -12.5939453125 2.85 -3.45
M 30.15 -30.95
L 25.95 -28.45
Q 22.6724609375 -18.1212890625 22.25 -16.7 21.81796875 -15.23984375 21.8 -15.2 17.23203125 1.9978515625 19.6 16.85 22.536328125 35.0013671875 35.6 43.5 39.6107421875 46.109765625 47.25 50.95 53.41796875 55.4501953125 56.6 60.95 62.9880859375 71.9828125 64.8 84.4 68.2931640625 108.59140625 57.75 132.45 54.642578125 139.572265625 50.65 145.75 53.0671875 144.239453125 55.45 142.45 66.6796875 134.13046875 77.5 120.8 84.40703125 112.403125 95.75 95.65 97.1265625 93.653515625 98.4 91.7 119.0943359375 54.55390625 98.7 3.7 78.3041015625 -47.1048828125 30.45 -31.15
L 26.65 -16.6
Q 26.6623046875 -16.5298828125 26.65 -16.5
L 26.6 -16.4
Q 24.4017578125 -8.3470703125 25.9 0.4 28.1580078125 13.5392578125 37.75 23.5 50.685546875 36.87421875 76.8 39.25 77.631640625 39.3298828125 75.9 40 47.6041015625 37.4845703125 35.05 22.6 26.1880859375 12.1044921875 24.3 -0.3 23.0291015625 -8.5650390625 25.15 -16.3 25.50703125 -17.399609375 30.15 -30.95
M 30.45 -31.2
L 30.5 -31.2 30.45 -31.25 30.45 -31.2 Z"/>

<path fill="#E781B3" stroke="none" d="
M 25.95 -28.45
L 30.15 -30.95
Q 25.50703125 -17.399609375 25.15 -16.3 23.0291015625 -8.5650390625 24.3 -0.3 26.1880859375 12.1044921875 35.05 22.6 47.6041015625 37.4845703125 75.9 40 77.631640625 39.3298828125 76.8 39.25 50.685546875 36.87421875 37.75 23.5 28.1580078125 13.5392578125 25.9 0.4 24.4017578125 -8.3470703125 26.6 -16.4
L 26.65 -16.5
Q 26.6623046875 -16.5298828125 26.65 -16.6
L 30.45 -31.15
Q 78.3041015625 -47.1048828125 98.7 3.7 119.0943359375 54.55390625 98.4 91.7 97.1265625 93.653515625 95.75 95.65 84.40703125 112.403125 77.5 120.8 66.6796875 134.13046875 55.45 142.45 53.0671875 144.239453125 50.65 145.75 54.642578125 139.572265625 57.75 132.45 68.2931640625 108.59140625 64.8 84.4 62.9880859375 71.9828125 56.6 60.95 53.41796875 55.4501953125 47.25 50.95 39.6107421875 46.109765625 35.6 43.5 22.536328125 35.0013671875 19.6 16.85 17.23203125 1.9978515625 21.8 -15.2 21.81796875 -15.23984375 22.25 -16.7 22.6724609375 -18.1212890625 25.95 -28.45 22.8701171875 -22.3892578125 20.7 -16.15 17.612109375 -4.74921875 17.25 3.05 16.5033203125 19.8400390625 23.5 32.35 26.684765625 38.144140625 33.1 42.85 36.8310546875 45.6470703125 45.1 50.65 54.908203125 57.0669921875 60.5 73.15 68.7572265625 96.897265625 59.8 123.85 55.5619140625 136.6044921875 49.4 145.9 47.709375 148.4134765625 50.45 147.15 54.1576171875 145.3994140625 57.8 142.75 68.6845703125 134.975390625 79.3 122.1 85.9873046875 113.94453125 95.5 100.6 105.0728515625 87.3013671875 108.65 70.4 112.2189453125 53.498828125 110.15 36.75 107.95234375 6.6427734375 94.75 -14.7 82.8056640625 -32.8451171875 66.1 -36.85 43.458203125 -41.64453125 25.9 -31.75 3.9103515625 -18.2572265625 -1.65 0.85 -3.400390625 8.8390625 -3.2 14.15 -2.80625 24.152734375 5.1 34.9 8.2318359375 39.1923828125 13.3 44.55 16.226171875 47.688671875 22.05 53.7 32.61484375 64.9529296875 36.4 74.45 41.72734375 87.6732421875 40.3 102.55 38.9904296875 116.2185546875 32.3 126.8 31.3619140625 128.4890625 33.6 128.95 36.4376953125 125.1306640625 38.85 119.6 44.2638671875 107.2880859375 43.5 92.9 42.7283203125 78.5548828125 36.15 66.8 31.991796875 59.3650390625 20.95 48.15 9.2611328125 36.26171875 5.2 29.9 -2.3541015625 17.95546875 0.95 3 1.0908203125 2.3931640625 1.25 1.75
L 1.25 1.7 1.25 1.7 2.85 -3.45 2.85 -3.45
Q 6.2169921875 -12.5939453125 25.95 -28.45
M 30.5 -31.2
L 30.45 -31.2 30.45 -31.25 30.5 -31.2 Z"/>

<path fill="#FFFFFF" stroke="none" d="
M 71.4 -63.1
L 71.35 -63.1 71.35 -62.3 71.4 -62.3 71.4 -63.1 Z"/>
</g>

<g id="FS_Mane_03_9_Layer0_0_FILL">
<path fill="#F4B6D1" stroke="none" d="
M 3.15 4.2
Q 3.3505859375 3.2091796875 3.65 2.9 0.3771484375 -0.309765625 -3.15 1.2 -3.1037109375 5.30546875 -2.85 7.8 -2.3556640625 12.4537109375 -0.4 15.3 2.2193359375 19.1083984375 6.3 16.7 7.7283203125 15.8775390625 8.55 14.3 6.7115234375 14.1865234375 5.2 12.85 1.95703125 9.9671875 3.15 4.2 Z"/>

<path fill="#E781B3" stroke="none" d="
M 12.7 10.4
Q 11.688671875 11.2091796875 10.6 11.8 9.9080078125 12.191796875 9.3 12.35 6.891015625 13.0794921875 6.3 10.2 5.760546875 7.6703125 6.2 4.8 5.5568359375 2.22265625 3.65 2.9 3.3505859375 3.2091796875 3.15 4.2 1.95703125 9.9671875 5.2 12.85 6.7115234375 14.1865234375 8.55 14.3 7.7283203125 15.8775390625 6.3 16.7 2.2193359375 19.1083984375 -0.4 15.3 -2.3556640625 12.4537109375 -2.85 7.8 -3.1037109375 5.30546875 -3.15 1.2
L -6.35 2.4
Q -6.1931640625 4.713671875 -6.15 5.1 -5.95390625 7.0619140625 -5.55 9.05 -3.5484375 19.2732421875 5.35 19.05 9.869921875 18.93046875 11.75 14.35 11.894921875 13.9974609375 12 13.65
L 12 13.6
Q 12.5703125 12.0529296875 12.7 10.4 Z"/>
</g>

<g id="FS_WingBack_3_4far_8_Layer6_0_FILL">
<path fill="#FDF6AE" stroke="none" d="
M -3.25 -10.95
L -3.25 -10.9
Q -6.771875 -9.8326171875 -7.95 -7.7 -9.437109375 -4.7736328125 -9.05 0.65 -11.0166015625 2.1763671875 -11.65 3.35
L -11.6 3.3
Q -12.3109375 4.779296875 -12.4 7 -12.5015625 10.356640625 -9.3 15.45 -11.1501953125 20.690625 -8.2 24.1 -4.8490234375 24.80546875 -1.4 24.3 7.390234375 23.14375 10.05 15.55 14.9142578125 1.3421875 -0.4 -15
L -1.4 -16.05 -3.2 -10.9 -3 -12.45 -3.25 -10.95
M -12.65 16.3
Q -13.2515625 15.454296875 -13.75 14.55
L -13.75 14.5
Q -14.09296875 13.80234375 -14.4 13.05
L -14.45 13.15 -30.5 2.95
Q -26.376953125 11.7984375 -19.9 17.6 -16.3068359375 20.8330078125 -12.6 22.55 -13.715234375 19.6021484375 -12.65 16.3
M -34.5 -13.45
Q -34.996875 -8.25390625 -32.05 -0.65 -31.8767578125 -0.2734375 -31.75 0.1 -31.509765625 0.718359375 -31.25 1.3
L -14.85 11.7
Q -15.46015625 9.433203125 -15.4 6.9 -15.2939453125 4.047265625 -14.4 2.15
L -34.5 -13.45
M -21.7 -18.15
Q -22.5771484375 -18.3775390625 -23.45 -18.55
L -10.25 -9.7
Q -9.2578125 -11.2814453125 -8 -12.05 -13.21171875 -15.9927734375 -21.7 -18.15
M -25.9 -19
Q -26.7892578125 -19.1376953125 -27.6 -19.2
L -27.65 -19.2
Q -32.028515625 -19.5138671875 -33.3 -17.7
L -33.3 -17.65
Q -34.0263671875 -16.362890625 -34.35 -14.8
L -34.35 -14.75
Q -34.3427734375 -14.6591796875 -34.35 -14.6
L -13.9 1.25
Q -13.2216796875 0.2173828125 -12.35 -0.55 -12.330859375 -5.6185546875 -10.75 -8.8
L -25.9 -19 Z"/>

<path fill="#EBD463" stroke="none" d="
M -27.4 -22.2
L -27.4 -22.2
Q -34.184375 -22.6814453125 -35.9 -19.15
L -35.9 -19.15
Q -36.8681640625 -17.446875 -37.3 -15.35
L -37.3 -15.35
Q -38.59375 -9.1455078125 -34.8 0.6
L -34.75 0.7
Q -34.660546875 0.89765625 -34.6 1.1 -34.577734375 1.188671875 -34.55 1.25 -29.9048828125 12.7171875 -21.9 19.85 -17.0701171875 24.1734375 -12.05 26.05
L -9.3 26.9
Q -5.23046875 27.8634765625 -1 27.25 9.7099609375 25.85625 12.9 16.55 18.5857421875 0.8576171875 -1.4 -16.05
L -0.4 -15
Q 14.9142578125 1.3421875 10.05 15.55 7.390234375 23.14375 -1.4 24.3 -4.8490234375 24.80546875 -8.2 24.1 -11.1501953125 20.690625 -9.3 15.45 -12.5015625 10.356640625 -12.4 7 -12.3109375 4.779296875 -11.6 3.3
L -11.65 3.35
Q -11.0166015625 2.1763671875 -9.05 0.65 -9.437109375 -4.7736328125 -7.95 -7.7 -6.771875 -9.8326171875 -3.25 -10.9
L -3.25 -10.95
Q -11.1728515625 -18.5560546875 -20.95 -21.05 -24.6181640625 -21.991015625 -27.4 -22.2
M -27.6 -19.2
Q -26.7892578125 -19.1376953125 -25.9 -19
L -10.75 -8.8
Q -12.330859375 -5.6185546875 -12.35 -0.55 -13.2216796875 0.2173828125 -13.9 1.25
L -34.35 -14.6
Q -34.3427734375 -14.6591796875 -34.35 -14.75
L -34.35 -14.8
Q -34.0263671875 -16.362890625 -33.3 -17.65
L -33.3 -17.7
Q -32.028515625 -19.5138671875 -27.65 -19.2
L -27.6 -19.2
M -23.45 -18.55
Q -22.5771484375 -18.3775390625 -21.7 -18.15 -13.21171875 -15.9927734375 -8 -12.05 -9.2578125 -11.2814453125 -10.25 -9.7
L -23.45 -18.55
M -32.05 -0.65
Q -34.996875 -8.25390625 -34.5 -13.45
L -14.4 2.15
Q -15.2939453125 4.047265625 -15.4 6.9 -15.46015625 9.433203125 -14.85 11.7
L -31.25 1.3
Q -31.509765625 0.718359375 -31.75 0.1 -31.8767578125 -0.2734375 -32.05 -0.65
M -13.75 14.55
Q -13.2515625 15.454296875 -12.65 16.3 -13.715234375 19.6021484375 -12.6 22.55 -16.3068359375 20.8330078125 -19.9 17.6 -26.376953125 11.7984375 -30.5 2.95
L -14.45 13.15 -14.4 13.05
Q -14.09296875 13.80234375 -13.75 14.5
L -13.75 14.55 Z"/>
</g>

<g id="FS_FrontLeg_3_4_hoof_3_Layer0_0_FILL">
<path fill="#EBD463" stroke="none" d="
M 15 -15
Q 8.7578125 -20.846875 0.05 -20.15 -8.81640625 -19.5484375 -12.8 -14.35 -16.5814453125 -9.49140625 -19.05 -4.4 -21.52109375 0.659765625 -22.7 5.85 -24.2189453125 11.8765625 -17.2 16.3 -10.98671875 20.29375 0.6 20.5 12.60546875 20.6666015625 16.75 15
L 16.8 15
Q 21.170703125 9.355078125 21.2 0.1 21.2337890625 -9.1515625 15 -15
M 0.25 -17.15
L 0.25 -17.15
Q 7.6546875 -17.7474609375 12.9 -12.75 18.1953125 -7.7763671875 18 0.4 17.8419921875 8.58203125 14.15 13.3 10.7654296875 17.6328125 0.65 17.5 -9.913671875 17.30625 -15.6 13.75 -20.5744140625 10.62109375 -19.45 6.25 -18.2724609375 1.884765625 -16.1 -3 -13.9228515625 -7.84453125 -10.5 -12.25 -7.0828125 -16.6515625 0.25 -17.15 Z"/>

<path fill="#FDF6AE" stroke="none" d="
M 0.25 -17.15
L 0.25 -17.15
Q -7.0828125 -16.6515625 -10.5 -12.25 -13.9228515625 -7.84453125 -16.1 -3 -18.2724609375 1.884765625 -19.45 6.25 -20.5744140625 10.62109375 -15.6 13.75 -9.913671875 17.30625 0.65 17.5 10.7654296875 17.6328125 14.15 13.3 17.8419921875 8.58203125 18 0.4 18.1953125 -7.7763671875 12.9 -12.75 7.6546875 -17.7474609375 0.25 -17.15 Z"/>
</g>

<g id="FS_FrontLeg_3_4_lower_5_Layer2_0_FILL">
<path fill="#F26F31" stroke="none" d="
M -12.7 -2.35
L -12.7 -2.35 -12.7 -2.35 -12.7 -2.35 Z"/>

<path fill="#EBD463" stroke="none" d="
M 12.8 -13.6
Q 9.1927734375 -17.959765625 3.2 -17.55 -2.7517578125 -17.08359375 -7.4 -12.7
L -7.4 -12.7
Q -11.9890625 -8.2509765625 -12.7 -2.35
L -12.7 -2.35
Q -13.473046875 3.7884765625 -9.7 7.85 -5.9515625 11.9892578125 0 11.7 5.923828125 11.437109375 10.55 6.95 15.0953125 2.5958984375 15.8 -3.4 16.5365234375 -9.486328125 12.8 -13.55
L 12.8 -13.6
M 10.6 -11.55
Q 13.3611328125 -8.3939453125 12.8 -3.75 12.2046875 1.2041015625 8.45 4.8 4.6759765625 8.462890625 -0.15 8.7 -4.6484375 8.910546875 -7.5 5.8 -10.3146484375 2.7115234375 -9.7 -1.95
L -9.7 -2
Q -9.1013671875 -6.8583984375 -5.3 -10.55
L -5.35 -10.55 -5.3 -10.55
Q -1.5271484375 -14.1220703125 3.2 -14.7 7.9916015625 -15.2291015625 10.55 -11.55
L 10.6 -11.55 Z"/>

<path fill="#FCBA63" stroke="none" d="
M -5.3 -10.55
L -5.35 -10.55 -5.3 -10.55 -5.3 -10.55 Z"/>

<path fill="#FDF6AE" stroke="none" d="
M 12.8 -3.75
Q 13.3611328125 -8.3939453125 10.6 -11.55
L 10.55 -11.55
Q 7.9916015625 -15.2291015625 3.2 -14.7 -1.5271484375 -14.1220703125 -5.3 -10.55
L -5.3 -10.55
Q -9.1013671875 -6.8583984375 -9.7 -2
L -9.7 -1.95
Q -10.3146484375 2.7115234375 -7.5 5.8 -4.6484375 8.910546875 -0.15 8.7 4.6759765625 8.462890625 8.45 4.8 12.2046875 1.2041015625 12.8 -3.75 Z"/>
</g>

<g id="FS_FrontLeg_3_4_lower_5_Layer1_0_FILL">
<path fill="#EBD463" stroke="none" d="
M -8.15 -7.05
Q -8.059375 -7.411328125 -8.2 -7.8 -8.3697265625 -8.353125 -8.95 -8.65 -9.483203125 -8.912890625 -10.1 -8.75 -10.653125 -8.5283203125 -10.95 -8 -24.9296875 19.495703125 -20.4 39.5 -20.231640625 40.13515625 -19.7 40.45 -19.1767578125 40.8099609375 -18.6 40.65 -17.96484375 40.53203125 -17.65 40 -17.2904296875 39.4767578125 -17.45 38.85 -17.4427734375 38.79453125 -17.45 38.7 -21.6138671875 19.5931640625 -8.3 -6.65 -8.1646484375 -6.83984375 -8.15 -7.05
M 13.45 -4.65
Q 12.9369140625 -4.26328125 12.8 -3.65 9.403125 16.01953125 14.6 27.9
L 17.1 26.05
Q 12.6625 14.727734375 15.75 -3.15 15.8822265625 -3.750390625 15.5 -4.25 15.16328125 -4.7634765625 14.55 -4.9 13.9494140625 -4.9826171875 13.45 -4.65 Z"/>

<path fill="#FDF6AE" stroke="none" d="
M 14.6 27.9
Q 9.403125 16.01953125 12.8 -3.65
L -8.15 -7.05
Q -8.1646484375 -6.83984375 -8.3 -6.65 -21.6138671875 19.5931640625 -17.45 38.7
L 14.6 27.9 Z"/>
</g>

<g id="FS_FrontLeg_3_4_upper_7_Layer1_0_FILL">
<path fill="#EBD463" stroke="none" d="
M -6.95 3.35
Q -8.3498046875 35.6537109375 -4.7 35.3 -3.14140625 15.4048828125 -6.95 3.35
M 9.05 0.4
L 9 0.35 9.15 0.7
Q 20.266796875 24.45078125 19.45 38.65 19.448046875 38.6876953125 19.45 38.7
L 19.5 40.2 22.3 41.2 22.45 38.55
Q 22.542578125 18.4734375 9.2 0.7
L 9.05 0.4 Z"/>

<path fill="#FDF6AE" stroke="none" d="
M 9.15 0.7
L 9 0.35
Q 0.372265625 -2.441015625 -7 3.2
L -6.95 3.25
Q -6.948828125 3.3078125 -6.95 3.35 -3.14140625 15.4048828125 -4.7 35.3 8.0181640625 40.558203125 19.45 38.65 20.266796875 24.45078125 9.15 0.7 Z"/>
</g>

<g id="FS_HoofWrinkle_0_Layer0_0_FILL">
<path fill="#EBD463" stroke="none" d="
M 6.4 0.9
Q 6.229296875 0.7560546875 6.05 0.6 3.57890625 -1.2400390625 -0.2 -1.1 -3.897265625 -1.0052734375 -6.15 0.85 -6.28046875 0.943359375 -6.4 1.05
L -6.05 1
Q 0.6 0 5.95 0.8
L 6.4 0.9 Z"/>
</g>

<g id="FS_Neck_1_Layer0_0_FILL">
<path fill="#FDF6AE" stroke="none" d="
M -17.6 -99.9
L -17.65 -99.9
Q -26.683984375 -109.0083984375 -39.8 -109 -52.8892578125 -108.998828125 -62.3 -99.85 -71.801171875 -90.6611328125 -72.05 -77.85 -72.3279296875 -65.053125 -63.25 -55.9
L -63.25 -55.9
Q -62.7607421875 -55.412890625 -62.25 -54.95
L -60.5 -53.45 -60.5 -53.4 -59.15 -51.9
Q -48.75625 -40.150390625 -47.1 -29.25 -47 -27.9 -46.95 -26.5 -46.9 -23.2 -47.45 -19.75 -50.535546875 -0.3146484375 -45.9 16
L -45.9 15.95
Q -39.7232421875 37.46015625 -19.85 44.45
L -18.45 44.95 -18.55 45
Q -7.184375 45.1412109375 -5.55 29.25 -3.9140625 13.4140625 -2.6 -0.1
L -0.25 -0.05
Q -3.05859375 -1.5416015625 -4.1 -3.15 -5.85234375 -5.197265625 -8.1 -25.15 -9.88515625 -40.952734375 -9.5 -62.95 -9.3767578125 -67.9625 -9.2 -73.3 -9.158984375 -73.5244140625 -9.15 -73.75
L -9.15 -81.3 -8.85 -81.3
Q -9.7095703125 -91.998828125 -17.6 -99.9
M -34.6 -47.4
L -34.7 -47.4
Q -34.6310546875 -47.38359375 -34.6 -47.4
L -34.6 -47.4 Z"/>

<path fill="#EBD564" stroke="none" d="
M -34.7 -47.4
L -34.6 -47.4 -34.6 -47.4
Q -34.6310546875 -47.38359375 -34.7 -47.4
M -17.65 -99.9
L -17.6 -99.9
Q -9.7095703125 -91.998828125 -8.85 -81.3
L -9.15 -81.3 -9.15 -73.75
Q -9.158984375 -73.5244140625 -9.2 -73.3 -9.3767578125 -67.9625 -9.5 -62.95 -9.88515625 -40.952734375 -8.1 -25.15 -5.85234375 -5.197265625 -4.1 -3.15 -3.05859375 -1.5416015625 -0.25 -0.05 -1.4 -1.85 -2.25 -4.8 -3.05 -7.45 -5.1 -25.5 -7.2638671875 -44.648828125 -6.2 -72.95 -5.7958984375 -75.3732421875 -5.75 -77.95 -5.492578125 -92.0048828125 -15.5 -102
L -15.5 -102
Q -25.41640625 -111.9916015625 -39.8 -112 -54.110546875 -112.0013671875 -64.4 -102 -74.7986328125 -91.9388671875 -75.05 -77.9 -75.355078125 -64.5958984375 -66.45 -54.9 -65.9 -54.35 -65.35 -53.8 -63.45 -52 -61.7 -50.1 -60.3 -48.55 -58.95 -46.95 -52.171875 -38.4115234375 -50.45 -29.2 -50 -25.35 -50.3 -21.6 -50.35 -20.65 -50.5 -19.7 -53.575 0.1408203125 -48.8 16.8
L -48.8 16.8
Q -42.1767578125 39.8396484375 -20.85 47.3
L -19.45 47.8 -18.55 45 -18.45 44.95 -19.85 44.45
Q -39.7232421875 37.46015625 -45.9 15.95
L -45.9 16
Q -50.535546875 -0.3146484375 -47.45 -19.75 -46.9 -23.2 -46.95 -26.5 -47 -27.9 -47.1 -29.25 -48.75625 -40.150390625 -59.15 -51.9
L -60.5 -53.4 -61.7 -53.4 -60.5 -53.45 -62.25 -54.95
Q -62.7607421875 -55.412890625 -63.25 -55.9
L -63.25 -55.9
Q -72.3279296875 -65.053125 -72.05 -77.85 -71.801171875 -90.6611328125 -62.3 -99.85 -52.8892578125 -108.998828125 -39.8 -109 -26.683984375 -109.0083984375 -17.65 -99.9 Z"/>
</g>

<g id="FS_Hair_05_3_Layer1_0_FILL">
<path fill="#E781B3" stroke="none" d="
M 49.6 -13.8
Q 48.924609375 -14.61484375 48.2 -15.4 40.733203125 -23.5814453125 31.05 -26.55 10.967578125 -32.64296875 -8.6 -23.4 -28.1216796875 -14.1013671875 -40.1 -2.8 -52.0228515625 8.50234375 -57.95 21.45 -60.8849609375 27.8349609375 -62.25 34 -62.231640625 33.9837890625 -62.2 33.95 -59.156640625 34.731640625 -59 34.05 -58.972265625 34.0556640625 -58.95 34 -56.453125 30.5865234375 -53.9 27.85 -47.93984375 21.512109375 -41.3 18.25 -41.1173828125 18.20390625 -40.95 18.1 -40.52734375 17.925390625 -40.1 17.75
L -38.45 17.05
Q -38.3212890625 17.0119140625 -38.25 16.95 -38.225390625 17.022265625 -38.25 17.05 -38.2130859375 17.022265625 -38.2 16.95 -36.6228515625 16.403125 -33.6 15.8
L -33.6 15.75
Q -29.3005859375 15.10078125 -25.25 16.1 -17.121875 18.203125 -7.6 29.15 -7.4513671875 29.3240234375 -7.3 29.5 -1.7998046875 35.879296875 8.2 49.45 8.2421875 49.5029296875 8.3 49.5
L 8.65 50.1
Q 22.93046875 74.738671875 71.6 68.3 71.7748046875 67.8203125 71.95 67.35 72.24453125 66.5716796875 72.5 65.75 72.22734375 62.0396484375 71.85 58.45
L 71.85 58.45
Q 70.2775390625 41.93125 67.65 29.15 65.97109375 21.0033203125 63.85 14.35 58.28203125 -3.4576171875 49.6 -13.8
M 8.25 -25.75
Q 10.780078125 -26.15390625 13.2 -26.35 20.04609375 -12.684375 21.55 2.55 23.0826171875 2.6951171875 23 2.2 21.513671875 -12.912890625 14.8 -26.45 22.40625 -26.823046875 29.25 -24.95 37.978515625 -22.5603515625 45.6 -13.75 46.2994140625 -12.947265625 46.95 -12.15 48.97109375 -9.6359375 50.9 -6.7 58.58046875 5.03984375 62.8 21.6 63.6876953125 25.0787109375 64.5 29.15 66.452734375 38.856640625 68 52.05 68.7771484375 58.7736328125 69.35 65
L 69.25 65
Q 25.04453125 71.64453125 10.2 47.45 8.06640625 44.698828125 3 37.7 -0.6759765625 32.625 -3.55 29.15 -4.712890625 27.726171875 -5.75 26.55 -16.9087890625 14.3115234375 -28.9 14.2 -40.672265625 14.0451171875 -53.2 24.85 -55.298046875 26.63671875 -57.4 28.9
L -57.4 28.9
Q -54.0330078125 19.7560546875 -46.9 10.25 -44.57265625 7.225390625 -42.1 4.4 -31.61875 3.0349609375 -22.05 4.55 -4.5224609375 7.3515625 7.75 19.55 9.3990234375 19.344140625 9.1 19.05 -3.3685546875 6.578515625 -21.4 3.85 -30.9986328125 2.3921875 -41.55 3.7 -34.1873046875 -4.5373046875 -25.4 -10.95 -22.630078125 -12.942578125 -19.8 -14.7 -12.5740234375 -9.20546875 -9 -6.3 0.6939453125 1.6931640625 7.35 9.2 9.0115234375 9.001953125 8.75 8.65 2.1326171875 1.194140625 -7.6 -6.8 -10.9734375 -9.5775390625 -18.65 -15.4 -8.8765625 -21.320703125 1.55 -24.25 4.12734375 -24.9423828125 6.6 -25.45 9.0267578125 -22.0203125 10.95 -17.8 14.6583984375 -9.8423828125 16.15 -0.5 16.235546875 -0.0798828125 16.95 -0.3 17.7037109375 -0.4595703125 17.6 -0.9 16.1208984375 -10.260546875 12.4 -18.3 10.537109375 -22.400390625 8.25 -25.75 Z"/>

<path fill="#F4B6D1" stroke="none" d="
M 13.2 -26.35
Q 10.780078125 -26.15390625 8.25 -25.75 10.537109375 -22.400390625 12.4 -18.3 16.1208984375 -10.260546875 17.6 -0.9 17.7037109375 -0.4595703125 16.95 -0.3 16.235546875 -0.0798828125 16.15 -0.5 14.6583984375 -9.8423828125 10.95 -17.8 9.0267578125 -22.0203125 6.6 -25.45 4.12734375 -24.9423828125 1.55 -24.25 -8.8765625 -21.320703125 -18.65 -15.4 -10.9734375 -9.5775390625 -7.6 -6.8 2.1326171875 1.194140625 8.75 8.65 9.0115234375 9.001953125 7.35 9.2 0.6939453125 1.6931640625 -9 -6.3 -12.5740234375 -9.20546875 -19.8 -14.7 -22.630078125 -12.942578125 -25.4 -10.95 -34.1873046875 -4.5373046875 -41.55 3.7 -30.9986328125 2.3921875 -21.4 3.85 -3.3685546875 6.578515625 9.1 19.05 9.3990234375 19.344140625 7.75 19.55 -4.5224609375 7.3515625 -22.05 4.55 -31.61875 3.0349609375 -42.1 4.4 -44.57265625 7.225390625 -46.9 10.25 -54.0330078125 19.7560546875 -57.4 28.9
L -57.4 28.9
Q -55.298046875 26.63671875 -53.2 24.85 -40.672265625 14.0451171875 -28.9 14.2 -16.9087890625 14.3115234375 -5.75 26.55 -4.712890625 27.726171875 -3.55 29.15 -0.6759765625 32.625 3 37.7 8.06640625 44.698828125 10.2 47.45 25.04453125 71.64453125 69.25 65
L 69.35 65
Q 68.7771484375 58.7736328125 68 52.05 66.452734375 38.856640625 64.5 29.15 63.6876953125 25.0787109375 62.8 21.6 58.58046875 5.03984375 50.9 -6.7 48.97109375 -9.6359375 46.95 -12.15 46.2994140625 -12.947265625 45.6 -13.75 37.978515625 -22.5603515625 29.25 -24.95 22.40625 -26.823046875 14.8 -26.45 21.513671875 -12.912890625 23 2.2 23.0826171875 2.6951171875 21.55 2.55 20.04609375 -12.684375 13.2 -26.35 Z"/>
</g>

<g id="FS_Skull_5_Layer0_0_FILL">
<path fill="#FDF6AE" stroke="none" d="
M 38 -32.8
L 36.8 -12.4 48.8 -12.4
Q 48.45 -13.85 48.05 -15.25 47.5 -17.15 46.8 -18.95 46.55 -19.6 46.3 -20.25 45.5 -21.9 44.6 -23.5 43.7 -25.15 42.7 -26.75 41.75 -28.3 40.6 -29.85 39.4 -31.45 38 -32.8
M 36.8 -12.4
L 38 -32.8
Q 37.503515625 -33.3146484375 36.95 -33.85 25.890625 -44.9564453125 5.35 -45.05 -4.85 -45.1 -13.1 -42.35 -21.1 -39.7 -28.55 -34.05 -31.85 -31.5 -35.3 -27.95 -40.25 -22.8 -42.85 -11.5 -44.6458984375 -3.5529296875 -44.85 1.85 -45.012890625 7.3087890625 -44.25 14.15 -43.7 18.7 -43.2 21.95 -42.95 25.1 -43.45 26.9
L -43.5 28.25
Q -43.5 29.9 -43 31.5 -39.85 41.3 -27.45 48.05 -12.6 56.1 5.25 52
L 9.75 50.9 9.8 50.9
Q 18.56875 46.2052734375 22.9 43.85 26.819921875 41.7267578125 29.15 39.45 37.883984375 31.1623046875 40.2 28.15 42.5498046875 25.1298828125 44.05 22.25 45.566015625 19.4197265625 46.3 16.35 51.6470703125 0.582421875 48.8 -12.4
L 36.8 -12.4 Z"/>

<path fill="#EBD463" stroke="none" d="
M 38.25 -36.8
L 38 -32.8
Q 39.4 -31.45 40.6 -29.85 41.75 -28.3 42.7 -26.75 43.7 -25.15 44.6 -23.5 45.5 -21.9 46.3 -20.25 46.7 -20.05 46.6 -20.7 46.3 -22.6 45.75 -24.5 45.3 -26.1 44.8 -27.6 44.4 -28.9 43.8 -30 42.9 -31.65 41.7 -33.1 40.45 -34.55 39.15 -35.95 38.7 -36.4 38.25 -36.8
M 38 -32.8
L 38.25 -36.8
Q 26.517578125 -47.94765625 5.35 -48.05 -5.4 -48.1 -14.15 -45.2 -22.55 -42.4 -30.35 -36.45 -32.1 -35.1 -37.65 -29 -42.2 -23.95 -45 -14.9 -47.8490234375 -5.702734375 -47.6 4.85 -47.4 13.95 -45.25 22.5 -44.5 25.45 -43.45 26.9 -42.95 25.1 -43.2 21.95 -43.7 18.7 -44.25 14.15 -45.012890625 7.3087890625 -44.85 1.85 -44.6458984375 -3.5529296875 -42.85 -11.5 -40.25 -22.8 -35.3 -27.95 -31.85 -31.5 -28.55 -34.05 -21.1 -39.7 -13.1 -42.35 -4.85 -45.1 5.35 -45.05 25.890625 -44.9564453125 36.95 -33.85 37.503515625 -33.3146484375 38 -32.8 Z"/>
</g>

<g id="FS_Mouth_3_4back_56_Layer5_0_FILL">
<path fill="#FFFFFF" stroke="none" d="
M -25.35 3.65
Q -25.75 2.95 -27.35 0.5 -27.786328125 -0.2478515625 -28.1 -0.9
L -32.45 1.85 -26.25 11.4 -20.95 8.05
Q -21.6576171875 7.601953125 -22.4 7 -24.1 5.65 -25.35 3.65 Z"/>
</g>

<g id="FS_Mouth_3_4back_56_Layer4_0_FILL">
<path fill="#A66BBF" stroke="none" d="
M -37.7 -0.65
Q -37.8310546875 -1.027734375 -38 -1.45
L -38.05 -1.45
Q -37.8548828125 -1.02734375 -37.7 -0.65 Z"/>

<path fill="#00CCFF" stroke="none" d="
M -30.9 9.75
L -30.85 9.8 -30.85 9.75 -30.9 9.75 Z"/>

<path fill="#FDF6AE" stroke="none" d="
M -28.8 -14.25
Q -28.862109375 -14.295703125 -28.95 -14.35 -28.976953125 -12.9111328125 -29.25 -11.85 -29.7357421875 -9.69765625 -31.15 -9 -31.376171875 -8.888671875 -31.6 -8.8 -33.4693359375 -7.98046875 -34.9 -8.35 -35.518359375 -8.480078125 -35.95 -8.2 -36.5505859375 -7.80234375 -36.7 -6.5 -36.7375 -6.155078125 -36.75 -5.85 -36.230078125 -3.559375 -35.5 -1.9 -33.9599609375 1.401171875 -30.35 3.05 -26.6904296875 4.7443359375 -24.65 9.85 -25.2794921875 10.141015625 -25.95 10.35 -26.0744140625 10.4283203125 -26.25 10.45 -25.8896484375 10.7318359375 -25.55 10.95 -25.4177734375 11.074609375 -25.3 11.15 -24.39375 11.776171875 -23.5 12.3 -17.723828125 15.862109375 -9.65 17.8 0.615625 20.321484375 16.45 19.15 -3.6318359375 20.0103515625 -18.1 8.4 -24.3 3.45 -27.45 -2.3 -30.4 -7.65 -29.3 -10.8 -28.78515625 -12.2509765625 -28.8 -14.25 Z"/>

<path fill="#EBD463" stroke="none" d="
M -28.95 -14.35
Q -28.9505859375 -14.3966796875 -28.95 -15.3
L -31.2 -16.8
Q -30.9767578125 -14.7185546875 -30.95 -14.05 -30.8154296875 -12.6611328125 -31.2 -11.9 -31.283984375 -11.7357421875 -31.4 -11.6 -32.91015625 -10.09921875 -36.1 -10.95
L -36.1 -11
Q -38.1529296875 -11.379296875 -39 -8.65 -39.1146484375 -8.298828125 -39.2 -7.9 -39.558203125 -3.296484375 -36.2 1.85 -34.757421875 3.7291015625 -32.85 4.45 -32.693359375 4.5044921875 -32.55 4.55 -32.368359375 4.6048828125 -32.2 4.65 -28.7041015625 5.702734375 -26.55 9.2 -27.048828125 9.3388671875 -27.55 9.4 -29.16015625 9.7076171875 -30.85 9.75
L -30.85 9.8
Q -27.4869140625 13.344921875 -24.95 14.9 -22.1076171875 16.6580078125 -18.45 17.9 -15.7283203125 18.87109375 -10.75 20.1 -3.4541015625 21.8783203125 6.75 21.6 17.5046875 21.3201171875 21.35 18.85 21.398046875 18.809765625 21.45 18.75
L 21.4 18.75 20.7 18.85 20.35 18.85
Q 18.3646484375 19.0400390625 16.45 19.15 0.615625 20.321484375 -9.65 17.8 -17.723828125 15.862109375 -23.5 12.3 -24.39375 11.776171875 -25.3 11.15 -25.4177734375 11.074609375 -25.55 10.95 -25.8896484375 10.7318359375 -26.25 10.45 -26.0744140625 10.4283203125 -25.95 10.35 -25.2794921875 10.141015625 -24.65 9.85 -26.6904296875 4.7443359375 -30.35 3.05 -33.9599609375 1.401171875 -35.5 -1.9 -36.230078125 -3.559375 -36.75 -5.85 -36.7375 -6.155078125 -36.7 -6.5 -36.5505859375 -7.80234375 -35.95 -8.2 -35.518359375 -8.480078125 -34.9 -8.35 -33.4693359375 -7.98046875 -31.6 -8.8 -31.376171875 -8.888671875 -31.15 -9 -29.7357421875 -9.69765625 -29.25 -11.85 -28.976953125 -12.9111328125 -28.95 -14.35 Z"/>
</g>

<g id="FS_Nostril_3_4rear_0_Layer13_0_FILL">
<path fill="#EBD463" stroke="none" d="
M -0.2 0.05
Q -0.3333984375 0.911328125 -0.8 1.4 0.60625 1.8599609375 0.75 0.55 0.8951171875 -0.7771484375 -0.55 -1.55 -0.0181640625 -0.7642578125 -0.2 0.05 Z"/>
</g>

<g id="FS_Nostril_3_4rear_0_Layer12_0_FILL">
<path fill="#EBD463" stroke="none" d="
M -0.2 0.05
Q -0.3333984375 0.911328125 -0.8 1.4 0.60625 1.8599609375 0.75 0.55 0.8951171875 -0.7771484375 -0.55 -1.55 -0.0181640625 -0.7642578125 -0.2 0.05 Z"/>
</g>

<g id="FS_Nostril_3_4rear_0_Layer11_0_FILL">
<path fill="#EBD463" stroke="none" d="
M -0.2 0.05
Q -0.3333984375 0.911328125 -0.8 1.4 0.60625 1.8599609375 0.75 0.55 0.8951171875 -0.7771484375 -0.55 -1.55 -0.0181640625 -0.7642578125 -0.2 0.05 Z"/>
</g>

<g id="FS_Nostril_3_4rear_0_Layer10_0_FILL">
<path fill="#EBD463" stroke="none" d="
M -0.2 0.05
Q -0.3333984375 0.911328125 -0.8 1.4 0.60625 1.8599609375 0.75 0.55 0.8951171875 -0.7771484375 -0.55 -1.55 -0.0181640625 -0.7642578125 -0.2 0.05 Z"/>
</g>

<g id="FS_Nostril_3_4rear_0_Layer9_0_FILL">
<path fill="#EBD463" stroke="none" d="
M -0.2 0.05
Q -0.3333984375 0.911328125 -0.8 1.4 0.60625 1.8599609375 0.75 0.55 0.8951171875 -0.7771484375 -0.55 -1.55 -0.0181640625 -0.7642578125 -0.2 0.05 Z"/>
</g>

<g id="FS_Nostril_3_4rear_0_Layer8_0_FILL">
<path fill="#EBD463" stroke="none" d="
M -0.2 0.05
Q -0.3333984375 0.911328125 -0.8 1.4 0.60625 1.8599609375 0.75 0.55 0.8951171875 -0.7771484375 -0.55 -1.55 -0.0181640625 -0.7642578125 -0.2 0.05 Z"/>
</g>

<g id="FS_Nostril_3_4rear_0_Layer7_0_FILL">
<path fill="#EBD463" stroke="none" d="
M -0.2 0.05
Q -0.3333984375 0.911328125 -0.8 1.4 0.60625 1.8599609375 0.75 0.55 0.8951171875 -0.7771484375 -0.55 -1.55 -0.0181640625 -0.7642578125 -0.2 0.05 Z"/>
</g>

<g id="FS_Nostril_3_4rear_0_Layer6_0_FILL">
<path fill="#EBD463" stroke="none" d="
M -0.2 0.05
Q -0.3333984375 0.911328125 -0.8 1.4 0.60625 1.8599609375 0.75 0.55 0.8951171875 -0.7771484375 -0.55 -1.55 -0.0181640625 -0.7642578125 -0.2 0.05 Z"/>
</g>

<g id="FS_Nostril_3_4rear_0_Layer5_0_FILL">
<path fill="#EBD463" stroke="none" d="
M -0.2 0.05
Q -0.3333984375 0.911328125 -0.8 1.4 0.60625 1.8599609375 0.75 0.55 0.8951171875 -0.7771484375 -0.55 -1.55 -0.0181640625 -0.7642578125 -0.2 0.05 Z"/>
</g>

<g id="FS_Nostril_3_4rear_0_Layer4_0_FILL">
<path fill="#EBD463" stroke="none" d="
M -0.2 0.05
Q -0.3333984375 0.911328125 -0.8 1.4 0.60625 1.8599609375 0.75 0.55 0.8951171875 -0.7771484375 -0.55 -1.55 -0.0181640625 -0.7642578125 -0.2 0.05 Z"/>
</g>

<g id="FS_Nostril_3_4rear_0_Layer3_0_FILL">
<path fill="#EBD463" stroke="none" d="
M -0.2 0.05
Q -0.3333984375 0.911328125 -0.8 1.4 0.60625 1.8599609375 0.75 0.55 0.8951171875 -0.7771484375 -0.55 -1.55 -0.0181640625 -0.7642578125 -0.2 0.05 Z"/>
</g>

<g id="FS_Nostril_3_4rear_0_Layer2_0_FILL">
<path fill="#EBD463" stroke="none" d="
M -0.2 0.05
Q -0.3333984375 0.911328125 -0.8 1.4 0.60625 1.8599609375 0.75 0.55 0.8951171875 -0.7771484375 -0.55 -1.55 -0.0181640625 -0.7642578125 -0.2 0.05 Z"/>
</g>

<g id="FS_Nostril_3_4rear_0_Layer1_0_FILL">
<path fill="#EBD463" stroke="none" d="
M -0.2 0.05
Q -0.3333984375 0.911328125 -0.8 1.4 0.60625 1.8599609375 0.75 0.55 0.8951171875 -0.7771484375 -0.55 -1.55 -0.0181640625 -0.7642578125 -0.2 0.05 Z"/>
</g>

<g id="FS_Nostril_3_4rear_0_Layer0_0_FILL">
<path fill="#EBD463" stroke="none" d="
M -0.2 0.05
Q -0.3333984375 0.911328125 -0.8 1.4 0.60625 1.8599609375 0.75 0.55 0.8951171875 -0.7771484375 -0.55 -1.55 -0.0181640625 -0.7642578125 -0.2 0.05 Z"/>
</g>

<g id="FS_Ear_3_Layer1_0_FILL">
<path fill="#FDF6AE" stroke="none" d="
M 19.6 -0.8
Q 20.2775390625 -8.8939453125 17.6 -17.4 14.695703125 -26.733984375 8 -35 2.0962890625 -42.3365234375 -4.7 -46.45 -5.8658203125 -44.307421875 -6.05 -37.9 -6.1 -36.3 -5.9 -33.15 -5.65 -29.5 -5.25 -27.1
L -4.4 -18.5
Q 2.55 -8.55 13 15.8
L 13.05 15.85
Q 13.0939453125 15.79296875 13.15 15.7 18.9548828125 8.1330078125 19.6 -0.8 Z"/>

<path fill="#EBD564" stroke="none" d="
M 20.45 -18.3
Q 17.404296875 -28.1658203125 10.35 -36.9 3.569140625 -45.2876953125 -4.35 -49.65 -4.70078125 -49.867578125 -5.15 -49.85 -5.5634765625 -49.8255859375 -5.95 -49.6 -7.35 -48.65 -7.9 -46.8 -8.5 -44.8 -8.65 -40 -8.7 -38.45 -8.45 -35.3 -8.2 -31.85 -7.8 -29.4 -7.35 -26.6 -5.85 -22.3
L -4.4 -18.5 -5.25 -27.1
Q -5.65 -29.5 -5.9 -33.15 -6.1 -36.3 -6.05 -37.9 -5.8658203125 -44.307421875 -4.7 -46.45 2.0962890625 -42.3365234375 8 -35 14.695703125 -26.733984375 17.6 -17.4 20.2775390625 -8.8939453125 19.6 -0.8 18.9548828125 8.1330078125 13.15 15.7 13.0939453125 15.79296875 13.05 15.85
L 13 15.8 12.8 16
Q 12.9857421875 15.9169921875 13.15 15.8 13.873046875 15.45234375 14.6 14.85 15.6703125 14.01796875 16.8 12.7 21 7.8 22.2 -0.1 23.45 -8.6 20.45 -18.3 Z"/>
</g>

<g id="Mask_Mask_FS_EyeWhite_3_4rear_0_Layer0_0_FILL">
<path fill="#FFFFFF" stroke="none" d="
M 18.8 -4.3
Q 18.898046875 -5.5201171875 18.9 -6.25 19.1150390625 -15.526171875 14.6 -21.45 8.501171875 -25.4755859375 1.6 -24.75 -5.2697265625 -24.0158203125 -10.9 -18.7 -16.7712890625 -13.1720703125 -19.85 -4.3 -24.31640625 6.086328125 -24.65 20.85 -12.22265625 25.8353515625 -1.9 22.5 7.05625 19.6515625 12.8 11.15 17.688671875 4.091015625 18.75 -4.3
L 18.8 -4.3 Z"/>
</g>

<g id="FS_EyeWhite_3_4rear_0_Layer0_0_FILL">
<path fill="#FFFFFF" stroke="none" d="
M 18.8 -4.3
Q 18.898046875 -5.5201171875 18.9 -6.25 19.1150390625 -15.526171875 14.6 -21.45 8.501171875 -25.4755859375 1.6 -24.75 -5.2697265625 -24.0158203125 -10.9 -18.7 -16.7712890625 -13.1720703125 -19.85 -4.3 -24.31640625 6.086328125 -24.65 20.85 -12.22265625 25.8353515625 -1.9 22.5 7.05625 19.6515625 12.8 11.15 17.688671875 4.091015625 18.75 -4.3
L 18.8 -4.3 Z"/>
</g>

<g id="FS_Iris_0_Layer1_0_FILL">
<path fill="url(#Gradient_1)" stroke="none" d="
M 17.7 -13.05
Q 13.45 -21.1 5.25 -22.95 -3 -24.85 -10.3 -19.4 -17.6 -14 -19.75 -4.45 -20.922265625 0.6119140625 -20 7.1 -19.662109375 8.449609375 -19.2 9.75
L -18.6 11.2
Q -18.1958984375 12.1607421875 -17.7 13.1 -13.45 21.15 -5.2 23 3 24.85 10.3 19.45 17.6 14 19.8 4.5 21.95 -5 17.7 -13.05 Z"/>
</g>

<g id="FS_Iris_0_Layer0_0_FILL">
<path fill="#8AD2D5" stroke="none" d="
M -6.5 8
Q -17.6794921875 11.2681640625 -18.65 11.25 -17.6072265625 14.0123046875 -15.4 16.75
L 0.1 6.75 -6.5 8 Z"/>
</g>

<g id="FS_Iris_0_Layer0_1_FILL">
<path fill="#3DBFBB" stroke="none" d="
M -20.25 5.4
Q -19.7828125 8.4513671875 -18.6 11.3
L 0.4 6.6 -20.25 5.4 Z"/>
</g>

<g id="FS_Pupil_0_Layer0_0_FILL">
<path fill="#000000" stroke="none" d="
M 12.45 -9.9
Q 10.5203125 -16.0232421875 5.5 -17.5 0.487109375 -18.9470703125 -4.7 -14.9 -9.854296875 -10.7671875 -12.15 -3.55 -14.402734375 3.7013671875 -12.5 9.8 -10.484375 16.0318359375 -5.45 17.5 -0.4265625 18.9556640625 4.7 14.8 9.91484375 10.7759765625 12.15 3.55 14.43828125 -3.692578125 12.45 -9.9 Z"/>
</g>

<g id="FS_Hilights_0_Layer1_0_FILL">
<path fill="#FFFFFF" stroke="none" d="
M -8.15 11.5
Q -8.11953125 11.614453125 -8.1 11.7 -8.0240234375 11.8134765625 -7.95 11.95 -7.7912109375 12.381640625 -7.55 12.75 -7.4705078125 12.844140625 -7.4 12.9 -7.2078125 13.113671875 -6.95 13.3 -6.50546875 13.6888671875 -6.05 13.8 -5.996875 13.8515625 -5.95 13.85 -5.6171875 13.9560546875 -5.2 13.95 -3.9484375 13.97890625 -3.4 12.75 -3.3849609375 12.698046875 -3.4 12.65 -3.1736328125 12.1291015625 -3.25 11.35 -3.259765625 11.128515625 -3.35 10.85 -3.3462890625 10.7740234375 -3.4 10.7 -3.7330078125 9.7962890625 -4.4 9.15 -4.435546875 9.108203125 -4.5 9.05 -4.72890625 8.870703125 -4.9 8.75 -5.579296875 8.305859375 -6.3 8.4 -7.123828125 8.352734375 -7.65 8.9 -7.813671875 9.0921875 -8 9.35 -8.0568359375 9.446484375 -8.1 9.55 -8.510546875 10.357421875 -8.15 11.5
M 3.85 -8.7
L 3.8 -8.75
Q 1.3921875 -11.8771484375 -1.15 -11.7 -4.233984375 -11.8736328125 -5.6 -8.2
L -5.6 -8.15
Q -6.528125 -5.45625 -5.75 -1.6 -5.0052734375 2.07265625 -3.05 4.6
L -3.05 4.6
Q -0.6041015625 7.82109375 2 7.65 5.12890625 7.837890625 6.4 4 7.375390625 1.40078125 6.6 -2.4
L 6.6 -2.45
Q 5.8041015625 -6.1376953125 3.85 -8.7 Z"/>
</g>

<g id="FS_Blink_3_4rear_0_Layer0_0_FILL">
<path fill="#000000" stroke="none" d="
M 18 -6.5
L 18.55 -6.5
Q 22.021484375 -12.461328125 20.1 -16.45 18.3619140625 -20.073046875 14.45 -22.15 10.3884765625 -24.2828125 4.95 -25.05 -2.0794921875 -26.038671875 -8.1 -21.8 -17.1583984375 -15.13359375 -20.55 -3.7 -20.1611328125 -3.700390625 -20.1 -3.8 -17.4623046875 -9.5630859375 -12.8 -15.05 -8.4828125 -20.133984375 -3.4 -22.35 -3.051171875 -22.483203125 -2.8 -22.6 6.1310546875 -23.0310546875 11.65 -18.55 17.2193359375 -14.0240234375 17 -6.9 17.7916015625 -7.5126953125 17.95 -6.5 18.1349609375 -7.178125 18 -6.5 Z"/>
</g>

<g id="FS_Blink_3_4rear_0_Layer0_1_FILL">
<path fill="#000000" stroke="none" d="
M 18.1 -5.65
Q 24.6751953125 -2.4478515625 26.95 -8.45 23.3328125 -3.867578125 18.6 -7.3
L 18.1 -5.65 Z"/>
</g>

<g id="FS_Blink_3_4rear_0_Layer0_2_FILL">
<path fill="#000000" stroke="none" d="
M 28.75 -2.1
Q 25.521875 0.3880859375 18.55 -4.45
L 17.6 -2.9
Q 24.769140625 3.516796875 28.75 -2.1 Z"/>
</g>

<g id="FS_Blink_3_4rear_0_Layer0_3_FILL">
<path fill="#000000" stroke="none" d="
M 20.7 -3.75
L 20.7 -13.4 17 -6.9
Q 15.1751953125 9.0943359375 27 3.5 20.169140625 4.47890625 20.7 -3.75 Z"/>
</g>

<g id="FS_Blink_3_4rear_0_Layer0_4_FILL">
<path fill="#000000" stroke="none" d="
M 8.45 16.25
Q 9.25 18.8 15.25 15.85 10.55 17.05 10.15 15.15
L 10.1 14.6 8.45 16.2 8.45 16.25 Z"/>
</g>

<g id="FS_Blink_3_4rear_0_Layer0_5_FILL">
<path fill="#000000" stroke="none" d="
M 12.85 19.2
Q 7.58515625 20.624609375 6.65 17.9
L 5.25 19.05
Q 7.2794921875 22.5193359375 12.85 19.2 Z"/>
</g>

<g id="FS_Blink_3_4rear_0_Layer0_6_FILL">
<path fill="#000000" stroke="none" d="
M 3.65 20.1
L 2.1 21.1
Q 2.7142578125 24.8703125 7.75 22.35 4.07265625 23.1767578125 3.65 20.1 Z"/>
</g>

<g id="FS_Ear_4_Layer1_0_FILL">
<path fill="#FDF6AE" stroke="none" d="
M 28.25 -1.4
L 28.25 -1.55
Q 27.7306640625 -4.8390625 26.6 -8.35 24.88046875 -13.9083984375 21.65 -20 16.35 -30 9.85 -36 -1.949609375 -46.89609375 -15.65 -48.05 -19.937109375 -40.095703125 -17 -24.1 -15.5310546875 -16.355859375 -13.2 -10.3 -10.6630859375 -3.701953125 -7.1 0.9
L -6.7 1.45 28.25 -1.4 Z"/>

<path fill="#EBD564" stroke="none" d="
M 28.25 -1.55
L 28.25 -1.4 28.45 -0.05
Q 28.4794921875 -0.78046875 28.45 -1.55
L 28.45 -1.6
Q 28.444140625 -4.823828125 27.75 -8.35 26.703125 -13.508984375 24.2 -19.25 19.7 -29.65 12.65 -36.6 -1.153515625 -50.2380859375 -16.4 -51.1 -16.7701171875 -51.1177734375 -17.15 -50.95 -17.497265625 -50.7400390625 -17.75 -50.4 -23.3169921875 -41.8140625 -19.95 -23.55 -18.5345703125 -16.1103515625 -15.75 -10.3 -12.4619140625 -3.5015625 -7.3 1.1 -7.041796875 1.3421875 -6.8 1.55
L -6.8 1.55
Q -6.466015625 1.841796875 -6.15 2.1
L -6.7 1.45 -7.1 0.9
Q -10.6630859375 -3.701953125 -13.2 -10.3 -15.5310546875 -16.355859375 -17 -24.1 -19.937109375 -40.095703125 -15.65 -48.05 -1.949609375 -46.89609375 9.85 -36 16.35 -30 21.65 -20 24.88046875 -13.9083984375 26.6 -8.35 27.7306640625 -4.8390625 28.25 -1.55 Z"/>
</g>

<g id="FS_FrontLeg_3_4_hoof_0_Layer0_0_FILL">
<path fill="#EBD463" stroke="none" d="
M 14.95 -14.95
Q 8.7541015625 -20.8443359375 0.05 -20.15 -8.81640625 -19.5484375 -12.8 -14.35 -16.526953125 -9.5060546875 -19.15 -4.25 -21.7119140625 0.947265625 -24.6 7.3
L -24.55 7.3
Q -26.32890625 11.167578125 -25.4 13.5 -24.5373046875 16.1365234375 -20.8 17
L -20.8 17
Q -15.0755859375 18.309765625 -1 18.05 13.7875 17.7890625 17.25 13.7
L 17.25 13.7
Q 20.8900390625 9.7828125 21.05 0.3 21.2107421875 -9.126171875 14.95 -14.95
M 0.25 -17.15
L 0.25 -17.15
Q 7.6546875 -17.7474609375 12.9 -12.75 18.1890625 -7.7734375 18.05 0.25 17.9103515625 8.2857421875 15.05 11.65
L 15 11.7
Q 11.8634765625 14.81171875 -1.05 15.05 -14.6240234375 15.2900390625 -20.15 14.05
L -20.15 14.1
Q -22.016015625 13.6626953125 -22.55 12.5 -22.959375 11.0341796875 -21.85 8.55 -18.9880859375 2.2525390625 -16.45 -2.9 -13.9732421875 -7.894140625 -10.45 -12.5 -7.0837890625 -16.6517578125 0.25 -17.15 Z"/>

<path fill="#FDF6AE" stroke="none" d="
M 0.25 -17.15
L 0.25 -17.15
Q -7.0837890625 -16.6517578125 -10.45 -12.5 -13.9732421875 -7.894140625 -16.45 -2.9 -18.9880859375 2.2525390625 -21.85 8.55 -22.959375 11.0341796875 -22.55 12.5 -22.016015625 13.6626953125 -20.15 14.1
L -20.15 14.05
Q -14.6240234375 15.2900390625 -1.05 15.05 11.8634765625 14.81171875 15 11.7
L 15.05 11.65
Q 17.9103515625 8.2857421875 18.05 0.25 18.1890625 -7.7734375 12.9 -12.75 7.6546875 -17.7474609375 0.25 -17.15 Z"/>
</g>

<g id="FS_FrontLeg_3_4_upper_2_Layer1_0_FILL">
<path fill="#EBD463" stroke="none" d="
M -17.3 82.35
L -14.2 82.9
Q -3.4103515625 50.004296875 -7.15 -2.5 -9.971484375 0.565234375 -9.25 14.7 -7.92421875 54.5646484375 -17.3 82.35
M 18.4 19.05
Q 12.98984375 3.2484375 9.05 0.4 26.109765625 43.7232421875 19.95 89.45
L 19.95 89.5
Q 21.0232421875 91.8462890625 22.9 89.9
L 22.9 89.9
Q 27.77265625 53.83984375 18.4 19.05 Z"/>

<path fill="#FDF6AE" stroke="none" d="
M 9.05 0.4
L 9.05 0.35
Q 0.58515625 -2.4958984375 -7.15 -2.5 -3.4103515625 50.004296875 -14.2 82.9
L -13.1 84.35 19.95 89.45
Q 26.109765625 43.7232421875 9.05 0.4 Z"/>
</g>

<g id="FS_Torso_3_Layer1_0_FILL">
<path fill="#F4B6D1" stroke="none" d="
M 8.8 -33.1
L 8.8 -33.1 8.8 -33.05 8.8 -33.1 Z"/>

<path fill="#E781B3" stroke="none" d="
M 8.8 -33.05
L 8.8 -33.05 8.8 -33.1 8.8 -33.05 Z"/>

<path fill="#EBD564" stroke="none" d="
M -14.8 -25.85
Q -16.6 -25.45 -18.6 -25.3 -15.15 -23.75 -10.15 -24.7 -6.3 -25.4 -3.15 -27.2 3.919140625 -31.028515625 8.8 -33.1
L 8.8 -33.1 8.8 -33.05
Q 16.7318359375 -36.2421875 23.9 -35.5 31.591015625 -34.6537109375 37.4 -29.25 39.4794921875 -27.34453125 40.7 -25.8 42.4990234375 -23.536328125 43.55 -20.95 45.067578125 -17.3515625 45.6 -15.3
L 45.6 -15.25
Q 46.3556640625 -12.553515625 46.5 -9.1 47.21796875 9.484375 35.05 21.25
L 35.05 21.25
Q 32.2056640625 23.9681640625 28 27.15 23.4556640625 30.55078125 21 31.55
L 21 31.55
Q 15.340234375 33.8857421875 10.65 34.8 5.301171875 35.846875 -2.1 35.75 -8.960546875 35.6478515625 -14.95 33.9 -19.1041015625 32.6955078125 -23.6 30.4
L -23.55 30.4
Q -30.365234375 26.8970703125 -34.15 22.05
L -34.2 22
Q -35.631640625 20.048828125 -41.1 13 -39.2892578125 20.3248046875 -36.55 23.85
L -36.55 23.85
Q -32.4154296875 29.2130859375 -24.95 33.05
L -24.95 33.05
Q -20.1958984375 35.5046875 -15.8 36.8 -9.4396484375 38.6521484375 -2.15 38.75 5.598828125 38.8529296875 11.2 37.75
L 11.25 37.75
Q 16.1744140625 36.8080078125 22.15 34.35
L 22.15 34.3
Q 24.844140625 33.24921875 29.8 29.55 34.175390625 26.24609375 37.1 23.45
L 37.15 23.4
Q 50.2810546875 10.796484375 49.5 -9.2 49.3443359375 -13.0466796875 48.5 -16.05
L 48.5 -16.05
Q 47.932421875 -18.2484375 46.3 -22.1
L 46.35 -22.1
Q 45.11328125 -25.0638671875 43.05 -27.65 41.7205078125 -29.35546875 39.45 -31.45 32.9087890625 -37.546484375 24.25 -38.5
L 24.25 -38.5
Q 16.365625 -39.3513671875 7.7 -35.85
L 7.65 -35.85
Q 2.6626953125 -33.76171875 -4.6 -29.85 -9.5 -27.05 -12.95 -26.25 -13.2 -26.25 -14.8 -25.85 Z"/>

<path fill="#FDF6AE" stroke="none" d="
M -45.05 -17.75
Q -47.3 -13.15 -46.15 -3.85 -45 5.45 -41.55 12.1 -41.3185546875 12.54453125 -41.1 12.95
L -41.1 13
Q -35.631640625 20.048828125 -34.2 22
L -34.15 22.05
Q -30.365234375 26.8970703125 -23.55 30.4
L -23.6 30.4
Q -19.1041015625 32.6955078125 -14.95 33.9 -8.960546875 35.6478515625 -2.1 35.75 5.301171875 35.846875 10.65 34.8 15.340234375 33.8857421875 21 31.55
L 21 31.55
Q 23.4556640625 30.55078125 28 27.15 32.2056640625 23.9681640625 35.05 21.25
L 35.05 21.25
Q 47.21796875 9.484375 46.5 -9.1 46.3556640625 -12.553515625 45.6 -15.25
L 45.6 -15.3
Q 45.067578125 -17.3515625 43.55 -20.95 42.4990234375 -23.536328125 40.7 -25.8 39.4794921875 -27.34453125 37.4 -29.25 31.591015625 -34.6537109375 23.9 -35.5 16.7318359375 -36.2421875 8.8 -33.05
L 8.8 -33.05 8.8 -33.1
Q 3.919140625 -31.028515625 -3.15 -27.2 -6.3 -25.4 -10.15 -24.7 -15.15 -23.75 -18.6 -25.3
L -18.65 -25.35
Q -19.6642578125 -25.50390625 -20.85 -25.75 -26.15 -26.9 -30.2 -27.1 -34.3 -27.35 -38.55 -24.85 -42.85 -22.35 -45.05 -17.75 Z"/>
</g>

<g id="FS_FrontLeg_3_4_hoof_4_Layer0_0_FILL">
<path fill="#F26F31" stroke="none" d="
M -13.4 -12.85
L -13.4 -12.85 -13.4 -12.85 -13.4 -12.85 Z"/>

<path fill="#EBD463" stroke="none" d="
M -1.15 -18.45
L -1.2 -18.45
Q -9.624609375 -17.8423828125 -13.4 -12.85
L -13.4 -12.85
Q -16.978515625 -8.244140625 -19.45 -3.2
L -19.45 -3.25
Q -21.8619140625 1.6474609375 -24.65 7.7 -26.3091796875 11.4185546875 -25.4 13.65 -24.5841796875 16.204296875 -21 17 -15.576171875 18.259765625 -2.15 18.05 12.0072265625 17.7810546875 15.25 13.85 18.7416015625 10.1349609375 18.9 1.1 19.00546875 -7.925390625 13.05 -13.5 7.154296875 -19.091015625 -1.15 -18.45
M -0.95 -15.45
L -0.95 -15.45
Q 6.0544921875 -16.0005859375 11 -11.3 15.99453125 -6.574609375 15.9 1.05 15.7583984375 8.665625 13 11.85 10.0958984375 14.81875 -2.2 15.05 -15.123828125 15.2400390625 -20.35 14.05 -22.069140625 13.694921875 -22.6 12.65 -22.9419921875 11.2833984375 -21.9 8.95 -19.13828125 2.9525390625 -16.75 -1.9
L -16.75 -1.9
Q -14.421484375 -6.655859375 -11.05 -11
L -11 -11
Q -7.869921875 -14.9509765625 -0.95 -15.45 Z"/>

<path fill="#FDF6AE" stroke="none" d="
M -0.95 -15.45
L -0.95 -15.45
Q -7.869921875 -14.9509765625 -11 -11
L -11.05 -11
Q -14.421484375 -6.655859375 -16.75 -1.9
L -16.75 -1.9
Q -19.13828125 2.9525390625 -21.9 8.95 -22.9419921875 11.2833984375 -22.6 12.65 -22.069140625 13.694921875 -20.35 14.05 -15.123828125 15.2400390625 -2.2 15.05 10.0958984375 14.81875 13 11.85 15.7583984375 8.665625 15.9 1.05 15.99453125 -6.574609375 11 -11.3 6.0544921875 -16.0005859375 -0.95 -15.45 Z"/>
</g>

<g id="FS_KneePatch_1_Layer0_0_FILL">
<path fill="#EBD463" stroke="none" d="
M 10.75 -8.3
L 10.75 -8.45
Q 10.999609375 -9.6171875 11 -10.9 11.0111328125 -16.75078125 6.7 -21.15 2.4033203125 -25.5216796875 -3.55 -25.85 -9.52421875 -26.1814453125 -13.85 -22.55 -18.2634765625 -18.8869140625 -18.25 -13.75
L -18.25 -13.7
Q -18.333203125 -9.8595703125 -15.45 -3.75
L -15.4 -3.65 -15.4 -3.6
Q -12.6767578125 2.0408203125 -9.8 10.1
L -9.75 10.2
Q -9.74140625 10.22421875 -9.75 10.25
L -9.75 10.25
Q -6.684765625 18.7166015625 -4.1 21.8
L -4.05 21.85
Q -1.2443359375 25.3462890625 3.45 25.6
L 3.5 25.6
Q 8.171875 25.7728515625 11.55 22.6 14.949609375 19.4423828125 15.4 15.75 15.955859375 12.0994140625 13.1 9.2 8.4591796875 3.042578125 10.65 -7.8 10.721875 -8.034375 10.75 -8.3 Z"/>
</g>

<g id="FS_HindLeg_3_4_top_2_Layer0_0_FILL">
<path fill="#F4B6D1" stroke="none" d="
M 16.5 17.15
L 16.45 17.15 16.5 17.2
Q 16.4787109375 17.151953125 16.5 17.15 Z"/>

<path fill="#E781B3" stroke="none" d="
M 16.45 17.15
L 16.45 17.2 16.5 17.2 16.45 17.15 Z"/>

<path fill="#EBD463" stroke="none" d="
M 11.8 0.05
Q 13.2087890625 3.594140625 14.4 7.85 15.15546875 10.630859375 15.8 13.7 16.1900390625 15.3919921875 16.5 17.15 16.4787109375 17.151953125 16.5 17.2
L 16.45 17.2
Q 18.162890625 30.0640625 14.3 46.3 13.5052734375 49.713671875 11.7 55.5
L 11.7 55.45
Q 11.6388671875 55.6490234375 11.55 55.8 11.1130859375 57.3369140625 10.6 58.8 9.9380859375 60.802734375 9.5 62.75 9.075 64.9130859375 8.65 67.05 8.3126953125 68.936328125 7.85 70.75 5.5740234375 77.37890625 0.3 77.15 -1.5314453125 77.11015625 -3.25 76.4 -4.5853515625 75.5765625 -5.8 74.55 -7.271875 73.4287109375 -8.4 72 -9.7490234375 70.2783203125 -10.8 68.45 -12.049609375 66.2267578125 -13.15 63.95 -13.2830078125 63.592578125 -13.45 63.2 -14.7404296875 60.454296875 -15.95 57.8 -21.2796875 46.1369140625 -23.5 36.85 -25.8796875 26.25546875 -26.1 20 -28.945703125 26.3833984375 -26.45 37.55
L -26.45 37.55
Q -24.1619140625 47.09453125 -18.7 59.05 -17.7193359375 61.1439453125 -16.7 63.3 -16.528515625 63.6611328125 -16.35 64 -15.3994140625 66.012890625 -14.4 67.95 -13.7240234375 69.2767578125 -12.9 70.5 -11.497265625 72.7162109375 -9.75 74.65 -8.3203125 76.3541015625 -6.5 77.6 -4.9224609375 78.6896484375 -3.15 79.5 -1.578125 79.96328125 0.05 79.9 8.0853515625 79.0001953125 10 71.7 10.137890625 71.2021484375 10.25 70.7
L 14.4 55.75
Q 16.717578125 49.198828125 17.25 47 21.2779296875 30.310546875 19.45 16.75
L 19.45 16.7
Q 19.257421875 15.11875 18.95 13.65 18.2787109375 10.4556640625 17.15 7.8 15.176953125 3.1 11.8 0.05
M 11.45 -0.25
L 11.45 -0.25 10.95 -1.55 11.4 -0.3
Q 11.4265625 -0.2515625 11.45 -0.25 Z"/>

<path fill="#FDF6AE" stroke="none" d="
M 14.4 7.85
Q 13.2087890625 3.594140625 11.8 0.05
L 11.75 0.05
Q -12.2166015625 -0.070703125 -26.1 20 -25.8796875 26.25546875 -23.5 36.85 -21.2796875 46.1369140625 -15.95 57.8 -14.7404296875 60.454296875 -13.45 63.2 -13.2830078125 63.592578125 -13.15 63.95 -12.049609375 66.2267578125 -10.8 68.45 -9.7490234375 70.2783203125 -8.4 72 -7.271875 73.4287109375 -5.8 74.55 -4.5853515625 75.5765625 -3.25 76.4 -1.5314453125 77.11015625 0.3 77.15 5.5740234375 77.37890625 7.85 70.75 8.3126953125 68.936328125 8.65 67.05 9.075 64.9130859375 9.5 62.75 9.9380859375 60.802734375 10.6 58.8 11.1130859375 57.3369140625 11.55 55.8 11.6388671875 55.6490234375 11.7 55.45
L 11.7 55.5
Q 13.5052734375 49.713671875 14.3 46.3 18.162890625 30.0640625 16.45 17.2
L 16.45 17.15 16.5 17.15
Q 16.1900390625 15.3919921875 15.8 13.7 15.15546875 10.630859375 14.4 7.85 Z"/>
</g>

<g id="FS_HindLeg_3_4rear_lower_0_Layer1_0_FILL">
<path fill="#F26F31" stroke="none" d="
M 8.6 8
Q 8.6333984375 7.9955078125 8.65 7.95
L 8.65 7.95 8.6 8 Z"/>

<path fill="#EBD463" stroke="none" d="
M 12.35 -6.4
Q 12.1732421875 -6.510546875 11.95 -6.6 1.59140625 -10.1181640625 -6.5 -4.85 -6.526171875 -4.8123046875 -6.6 -4.8 -14.9587890625 1.5962890625 -10.3 12.75 -10.2638671875 12.8216796875 -10.25 12.85 -7.8515625 17.784765625 -2.5 16.05 1.90625 14.6984375 8.65 7.95
L 8.65 7.95
Q 13.7076171875 3.494921875 14.7 0.2 16.0470703125 -3.87109375 12.35 -6.4
M 10.75 -3.8
Q 12.4302734375 -2.605078125 11.85 -0.75 10.8990234375 1.983203125 6.6 5.75 6.5771484375 5.8119140625 6.55 5.85 0.493359375 11.901953125 -3.4 13.2 -6.248828125 14.115234375 -7.55 11.5
L -7.55 11.6
Q -7.5458984375 11.575 -7.6 11.5 -11.2048828125 2.68671875 -4.75 -2.4
L -4.85 -2.35
Q 2.0138671875 -6.721484375 10.75 -3.8 Z"/>

<path fill="#FCBA63" stroke="none" d="
M -7.55 11.5
L -7.6 11.5
Q -7.5458984375 11.575 -7.55 11.6
L -7.55 11.5 Z"/>

<path fill="#FDF6AE" stroke="none" d="
M 11.85 -0.75
Q 12.4302734375 -2.605078125 10.75 -3.8 2.0138671875 -6.721484375 -4.85 -2.35
L -4.75 -2.4
Q -11.2048828125 2.68671875 -7.6 11.5
L -7.55 11.5
Q -6.248828125 14.115234375 -3.4 13.2 0.493359375 11.901953125 6.55 5.85 6.5771484375 5.8119140625 6.6 5.75 10.8990234375 1.983203125 11.85 -0.75 Z"/>
</g>

<g id="FS_HindLeg_3_4rear_lower_0_Layer0_0_FILL">
<path fill="#EBD463" stroke="none" d="
M -8.05 10.15
L -8.2 9.7 -8.45 8.7 -11.35 9.5 -10.95 10.95
Q -3.5580078125 37.8861328125 -11.7 64.6 -11.7875 65.0125 -11.9 65.4
L -8.85 65.4
Q -0.5115234375 37.662109375 -8.05 10.15
M 11.65 -2.95
Q 11.686328125 -2.8736328125 11.7 -2.8 26.2828125 27.8509765625 24.65 64.3
L 27.6 64.1
Q 29.3125 27.137109375 14.35 -4.25
L 14.2 -4.5 11 -4.3 11.65 -2.95 Z"/>

<path fill="#FDF6AE" stroke="none" d="
M 24.65 64.3
Q 26.2828125 27.8509765625 11.7 -2.8
L -8.2 9.7 -8.05 10.15
Q -0.5115234375 37.662109375 -8.85 65.4
L 24.65 64.3 Z"/>
</g>

<g id="FS_KneePatch_0_Layer0_0_FILL">
<path fill="#FDF6AE" stroke="none" d="
M 6.95 -3.8
Q 7.6271484375 -8.4921875 7.65 -8.75
L 7.65 -8.75
Q 7.6830078125 -8.7876953125 7.7 -8.85 7.850390625 -9.7474609375 7.85 -10.75 7.8390625 -15.39921875 4.4 -18.9 0.946484375 -22.4283203125 -3.85 -22.7 -8.6259765625 -22.9685546875 -12.1 -20.1 -15.376171875 -17.3716796875 -15.4 -13.55
L -15.4 -13.55
Q -15.40625 -10.530078125 -12.6 -4.2
L -12.4 -3.7
Q -12.324609375 -3.590625 -12.3 -3.5 -12.2001953125 -3.3171875 -12.15 -3.15 -12.0654296875 -3.0400390625 -12 -2.95
L -12 -2.9 -11.95 -2.8
Q -9.565234375 2.4005859375 -7.1 9.35 -7.0333984375 9.4712890625 -7.05 9.6 -4.2322265625 17.2533203125 -1.9 20.1
L -1.9 20.1
Q 0.112890625 22.6044921875 3.45 22.75 6.435546875 22.852734375 8.7 21.1
L 8.7 21.15
Q 19.876171875 11.2931640625 12.45 5.8 11.055859375 5.381640625 9.7 4.45 9.7404296875 4.5390625 9.75 4.6 8.476171875 3.9505859375 7.75 2.7 6.5830078125 1.1353515625 6.75 -1.95 6.7810546875 -2.8294921875 6.9 -3.8
L 6.95 -3.8 Z"/>
</g>

<g id="FS_HindLeg_3_4rearnomark_0_Layer0_0_FILL">
<path fill="#FDF6AE" stroke="none" d="
M 8.4 62.25
L 16.75 62.25 20.4 60.4
Q 19.5904296875 57.5220703125 10.9 54.35
L 8.4 62.25 Z"/>
</g>

<g id="FS_Torso_13_Layer1_0_FILL">
<path fill="#FDF6AE" stroke="none" d="
M 6.75 35.4
Q 21.37890625 32.6923828125 29.45 26
L 24.6 4.35 1.25 11.15 6.75 35.4 Z"/>

<path fill="#EBD564" stroke="none" d="
M 29.45 26
Q 21.37890625 32.6923828125 6.75 35.4 10.15 36 13.35 36 17 36.05 20.5 34.6 26.5 32.2 29.45 26 Z"/>
</g>

<g id="FS_CutieMark_2_Layer0_0_FILL">
<path fill="#F4B6D1" stroke="none" d="
M -4.75 10.5
Q -7.9388671875 7.471484375 -9.1 5.75 -10.8630859375 4.72578125 -12.65 4.5 -16.034375 3.494921875 -16.9 5.45 -17.2947265625 7.34453125 -14.45 8.85 -11.4484375 10.016015625 -10.1 9.25 -10.9953125 11.0345703125 -10.05 13.6 -8.7935546875 16.339453125 -6.4 16.85 -4.03828125 17.021484375 -4.1 14.65 -4.0822265625 12.9478515625 -4.75 10.5
M -6.55 -1.6
Q -7.716796875 -2.4013671875 -8.4 -0.15 -8.8302734375 1.428515625 -8.2 5 -7.5572265625 5.5875 -6.6 7.15 -5.1359375 8.7958984375 -4.4 10.4 -3.36875 10.3982421875 -1.2 11.05 1.7994140625 10.994921875 1.4 9.05 1.4787109375 6.4767578125 -1.35 5.6 -4.06328125 4.328125 -5.25 5.6 -4.7029296875 3.4638671875 -5.3 1.6 -5.5947265625 -0.41171875 -6.55 -1.6
M 11.9 8.45
Q 11.1830078125 6.4232421875 10.95 5.05 9.8658203125 1.878125 8.35 2.2 6.2166015625 1.878125 6.45 5.05 6.555859375 7.501953125 8.35 8.7 5.9689453125 8.3048828125 4.75 9.75 3.1806640625 11.1357421875 4.3 13.15 5.0896484375 14.9509765625 7.55 14.65 8.5314453125 14.1318359375 10.7 13.25 10.8125 9.6755859375 11.9 8.45
M 13.05 8.9
Q 12.70859375 9.51328125 12.3 10.95 11.5140625 12.6140625 11 13.6 11.4232421875 14.267578125 12.5 16.25 13.8470703125 18.3216796875 15.95 17.85 17.7060546875 16.93671875 16.7 14.6 15.715625 11.81171875 14.3 11.5 15.6765625 11.1701171875 17.3 9.95 18.7298828125 8.2943359375 19.05 7.25 18.9439453125 5.3611328125 17.05 6.5 14.9986328125 6.80078125 13.05 8.9
M 9.85 -9.75
Q 8.918359375 -8.804296875 7.75 -7.35 5.667578125 -5.2404296875 4.45 -4.3 4.27421875 -3.33984375 4.65 -1.2 5.4904296875 0.91171875 7.9 0.6 10.2787109375 0.4982421875 10.75 -2.85 10.75859375 -5.7427734375 9.75 -6.6 11.52890625 -6.695703125 14.3 -8.3 16.6421875 -9.6171875 17.9 -11.45 18.8861328125 -12.9513671875 16.1 -12.4 13.5044921875 -11.5201171875 9.85 -9.75
M 8.55 -17.9
Q 5.940625 -17.5779296875 4.85 -14.55 3.4306640625 -11.256640625 4.7 -10.15 2.7861328125 -10.409375 0 -9.1 -2.937890625 -7.1435546875 -3 -5 -2.8068359375 -2.5703125 0.05 -3.2 1.132421875 -3.2556640625 4.2 -4.65 6.851171875 -8.5861328125 8.8 -10.3 9.4345703125 -12.3935546875 9.9 -14.3 10.339453125 -17.7833984375 8.55 -17.9 Z"/>

<path fill="#6CC9C6" stroke="none" d="
M -10.8 -0.45
Q -10.4990234375 -0.8783203125 -10.35 -0.95 -9.8794921875 -0.9158203125 -9.9 -0.55 -9.73828125 -0.0052734375 -10.05 -0.1 -9.8353515625 -0.015625 -9.8 0.05 -9.404296875 0.1115234375 -9.5 -0.7 -9.4890625 -0.9875 -9.8 -1.3 -9.9904296875 -1.240625 -10.4 -1.4 -10.639453125 -1.0341796875 -11.2 -0.65 -11.283984375 -0.0126953125 -11.35 0.6 -10.7419921875 2.3486328125 -9.65 4.2 -9.65 4.249609375 -9.65 4.3 -10.0986328125 3.2322265625 -11.25 2.8 -12.83828125 1.3232421875 -13.9 1.5 -13.961328125 1.415234375 -14.15 1.5 -14.56015625 1.4232421875 -14.8 2 -14.92265625 2.3248046875 -14.9 2.6 -14.4515625 2.7515625 -14.35 3.15 -13.73046875 3.030078125 -13.5 3.2
L -13.35 3.1
Q -13.4115234375 2.6830078125 -13.6 2.75
L -13.65 2.8
Q -13.5447265625 2.5080078125 -14.1 2.7 -14.3474609375 2.56484375 -14.45 2.55 -14.4669921875 2.1513671875 -14 2 -13.958984375 1.5970703125 -13.9 1.95 -12.7337890625 1.723046875 -11.55 3.1 -10.6125 3.808203125 -9.7 5 -9.6375 4.72890625 -9.6 4.9 -9.2529296875 5.1802734375 -9.1 5.75 -7.9388671875 7.471484375 -4.75 10.5 -4.3810546875 10.8736328125 -3.85 11.35 -4.036328125 10.6205078125 -4.4 10.4 -5.1359375 8.7958984375 -6.6 7.15 -7.5572265625 5.5875 -8.2 5 -8.5396484375 4.066015625 -9.2 4.15
L -9.15 4.1
Q -10.517578125 2.019140625 -10.85 0.55 -10.7615234375 -0.1068359375 -10.8 -0.45
M 16.8 4
Q 16.4373046875 3.6701171875 16.05 3.8 14.9498046875 3.75078125 14.8 4.5 13.2873046875 5.5759765625 12.75 7.45
L 12.7 7.4
Q 12.666796875 6.8515625 13.1 5.6 13.300390625 3.2419921875 12.95 2.75 12.8748046875 2.4330078125 12.8 2.6 12.597265625 2.1947265625 12.2 2.4 11.534375 2.1443359375 11.65 2.5 11.2203125 2.5705078125 11.3 3.1 10.9619140625 3.3302734375 11.6 3.85 11.649609375 3.7390625 11.7 3.9 11.6515625 3.6140625 11.9 3.6 11.476171875 2.809765625 11.9 2.8 11.8095703125 2.4607421875 12.5 2.8 12.575 2.73046875 12.6 3 12.925390625 3.3732421875 12.65 5.4 12.21640625 7.0583984375 12.2 7.7 12.1736328125 7.737109375 12.25 7.75 11.7357421875 7.9427734375 11.9 8.45 10.8125 9.6755859375 10.7 13.25 10.4349609375 13.39453125 10.55 13.95 10.558984375 13.746484375 11 13.6 11.5140625 12.6140625 12.3 10.95 12.70859375 9.51328125 13.05 8.9 13.0111328125 7.8623046875 13.1 7.75
L 13.1 7.75
Q 13.0384765625 7.3068359375 13.8 6.5 14.2763671875 5.2220703125 15.05 4.75 15.5998046875 4.208203125 16.15 4.15 16.4470703125 4.0802734375 16.55 4.3 16.825390625 4.259765625 16.5 5 16.01640625 4.9177734375 15.95 5.15 15.7205078125 5.0447265625 15.95 5.55 16.0943359375 5.3615234375 16.85 5.3 17.269921875 4.344140625 16.8 4
M 12.8 -16.8
Q 12.78984375 -16.5642578125 12.9 -16.65 12.7921875 -15.9634765625 11.6 -13.8 10.2130859375 -11.79296875 9.65 -11.15 9.322265625 -10.79453125 9.75 -11.1 9.1390625 -10.454296875 8.8 -10.3 6.851171875 -8.5861328125 4.2 -4.65 3.852734375 -3.722265625 3.65 -3.6 4.11328125 -3.852734375 4.45 -4.3 5.667578125 -5.2404296875 7.75 -7.35 8.918359375 -8.804296875 9.85 -9.75 10.3720703125 -10.3361328125 10.7 -11.05 10.892578125 -11.6431640625 12.35 -12.6 13.4650390625 -13.5349609375 14.7 -14.35 15.4873046875 -14.6365234375 16.25 -15.1 16.3052734375 -14.814453125 16.7 -14.85 16.7 -14.5267578125 16.7 -14.5 16.4275390625 -14.372265625 16.3 -14.1 15.6220703125 -13.770703125 15.7 -14 15.087109375 -13.5080078125 15.4 -13.55 15.8513671875 -13.416796875 16.55 -13.75 16.6205078125 -13.722265625 17.15 -14.5 17.1998046875 -14.6171875 17.2 -15.2 16.943359375 -15.544921875 16.45 -15.55 15.6435546875 -15.4044921875 14.6 -14.75 12.367578125 -13.36328125 10.45 -11.45 10.412109375 -11.425 10.35 -11.45 11.2595703125 -12.537890625 11.95 -13.65 13.293359375 -15.7078125 13.4 -16.9 13.08203125 -16.6822265625 13.35 -17.15 12.866796875 -17.2875 12.8 -17.45 12.2802734375 -17.4560546875 12.05 -17.25 11.5677734375 -16.8279296875 11.4 -16.6 11.0107421875 -16.015625 11.3 -15.65 11.0107421875 -15.5880859375 11.4 -15.55 11.3916015625 -15.369921875 11.85 -15.85 11.8119140625 -15.862890625 11.75 -15.9 11.473046875 -16.1115234375 11.85 -16.45 11.8166015625 -16.5865234375 12.25 -16.85 12.2828125 -17.0162109375 12.8 -16.8 Z"/>
</g>

<g id="FS_HindLeg_3_4rear_0_Layer0_0_FILL">
<path fill="#FDF6AE" stroke="none" d="
M 8.4 62.25
L 16.75 62.25 20.4 60.4
Q 19.5904296875 57.5220703125 10.9 54.35
L 8.4 62.25 Z"/>
</g>

<g id="FS_Mane_02_3_Layer0_0_FILL">
<path fill="#E781B3" stroke="none" d="
M 13.55 -0.45
Q 15.68046875 -9.3283203125 13.55 -18.2 11.357421875 -27.2841796875 5.55 -30.95 1.866015625 -33.3296875 -2.55 -32.7 -6.603125 -32.1015625 -10.3 -29.25 -11.79375 -28.05 -12.65 -26.4
L -12.6 -26.4
Q -13.5544921875 -23.74453125 -12 -22.6 -10.3486328125 -21.7958984375 -8.2 -23.65 -7.7470703125 -24.1626953125 -6.85 -24.6 -5.0822265625 -25.3724609375 -2.65 -24.2 -0.119140625 -23.0359375 0.25 -21.15 0.905078125 -18.0103515625 -2.65 -15.7 -3.4201171875 -15.225 -4.65 -14.65 -5.82265625 -14.0478515625 -5.35 -14.2 -16.904296875 -9.3158203125 -12.5 3.05 -9.2705078125 10.6740234375 -1.1 11.9 7.8341796875 13.1333984375 11.15 6.5 12.6765625 3.26953125 13.55 -0.45
M 0.85 -29.85
Q 7.521484375 -29.34375 10.5 -21 12.8015625 -14.647265625 12.3 -7.1 11.85703125 -0.248828125 8.75 5.5 5.415625 10.22734375 -0.7 9.05 -6.9193359375 7.8208984375 -8.8 3.7 -13.308203125 -6.1671875 -5 -10.95 -1.690625 -12.5560546875 0.15 -14.65 0.71328125 -15.3294921875 1.15 -16.15 2.533984375 -18.6140625 1.5 -21.7 0.57890625 -24.4041015625 -1.75 -26.35 -4.016796875 -28.2353515625 -6.95 -27.65 -7.778515625 -27.4841796875 -8.45 -27.15 -7.520703125 -27.7771484375 -6.4 -28.35 -2.723046875 -30.1048828125 0.85 -29.85 Z"/>

<path fill="#F4B6D1" stroke="none" d="
M 10.5 -21
Q 7.521484375 -29.34375 0.85 -29.85 -2.723046875 -30.1048828125 -6.4 -28.35 -7.520703125 -27.7771484375 -8.45 -27.15 -7.778515625 -27.4841796875 -6.95 -27.65 -4.016796875 -28.2353515625 -1.75 -26.35 0.57890625 -24.4041015625 1.5 -21.7 2.533984375 -18.6140625 1.15 -16.15 0.71328125 -15.3294921875 0.15 -14.65 -1.690625 -12.5560546875 -5 -10.95 -13.308203125 -6.1671875 -8.8 3.7 -6.9193359375 7.8208984375 -0.7 9.05 5.415625 10.22734375 8.75 5.5 11.85703125 -0.248828125 12.3 -7.1 12.8015625 -14.647265625 10.5 -21 Z"/>
</g>

<g id="FS_Mane_01_3_Layer1_0_FILL">
<path fill="#F4B6D1" stroke="none" d="
M -1 57.75
Q -2.4337890625 62.7185546875 -4.7 72.7 -8.3501953125 86.5236328125 -13.5 93.9 -16.4224609375 98.09921875 -22.6 104.35 -29.690234375 111.5966796875 -32.1 114.55 -41.1900390625 125.859765625 -45.6 140.9 -50.0005859375 155.969921875 -48.35 170.4 -46.654296875 184.8431640625 -38.6 198.3 -37.6517578125 199.836328125 -36.35 201.95 -30.46015625 199.216796875 -24.65 194.85 -21.518359375 192.5302734375 -18.7 190.25 -20.476171875 187.202734375 -21.8 182.6 -23.1791015625 176.6166015625 -23.55 169.55 -23.3603515625 166.265234375 -22.95 161.55 -21.076953125 141.9736328125 -17.1 131 -10.7748046875 113.7513671875 1 104.4 5.560546875 100.8220703125 12.25 98.95 13.272265625 98.7015625 14.45 98.45 15.148046875 90.5419921875 15.2 82.1 15.4076171875 63.496484375 12.55 38.2 8.301953125 40.75078125 5.65 44.05 1.6068359375 49.1048828125 -1 57.75
M -9.4 26.35
Q -11.734375 32.2146484375 -12.3 39.9 -12.6568359375 44.2533203125 -12.5 53.85 -12.317578125 62.9466796875 -12.8 67.75 -13.501171875 75.365234375 -16.15 81.25 -20.229296875 90.3703125 -29.5 100.85 -34.7361328125 106.791796875 -45.65 118.4 -52.1166015625 125.9712890625 -56.4 133.95 -57.1630859375 137.769921875 -57.65 141.6 -59.7677734375 158.2806640625 -55.95 173.5 -52.5728515625 186.88515625 -44.9 195.4 -42.0580078125 198.5625 -38.85 200.75 -39.8818359375 199.0953125 -40.65 197.75 -48.9283203125 183.085546875 -49.95 169.55 -50.9939453125 155.1671875 -47.05 140.9 -42.8373046875 125.9798828125 -34.15 115.15 -32.1197265625 112.6341796875 -23.5 103.8 -16.6974609375 96.9404296875 -13.65 91.8 -10.2703125 86.211328125 -7.8 78.15 -7.0421875 75.788671875 -3.95 63.75 -1.738671875 55.251171875 0 51.15 2.909765625 44.330859375 7.5 40.5 9.5890625 38.833984375 12.45 37.25 12.380859375 36.5693359375 12.3 35.85 10.260546875 18.451171875 7.5 7.1 -4.673828125 14.5708984375 -9.4 26.35
M -8.75 -28.35
Q -9.122265625 -28.060546875 -9.5 -27.8 -21.842578125 -19.38828125 -25.25 -8.9 -27.5767578125 -1.6634765625 -26.3 7.65 -25.6181640625 12.3072265625 -22.5 23.9 -17.80625 41.379296875 -20.65 53.45 -23.61796875 65.83671875 -33.2 82.8 -35.815625 87.44921875 -41.2 96.65 -45.886328125 104.8650390625 -48.65 110.8 -52.8888671875 119.9337890625 -55.3 129.3 -51.9525390625 123.930078125 -47.6 118.8 -35.6544921875 106.287890625 -29.95 99.75 -19.766796875 88.1712890625 -16.3 77.9 -14.26640625 71.821875 -13.95 63.45 -13.8095703125 61.522265625 -13.95 48.7 -14.006640625 39.763671875 -13.05 34.2 -11.70546875 26.451953125 -7.9 20.5 -2.3796875 11.954296875 7.25 6.1 7.1876953125 5.76640625 7.1 5.4 2.88046875 -11.16015625 -4.8 -22.9 -6.72890625 -25.8359375 -8.75 -28.35 Z"/>

<path fill="#E781B3" stroke="none" d="
M -9.55 -30.3
Q -9.8115234375 -30.0984375 -10.1 -29.95 -21.1234375 -22.591796875 -26.15 -13.65 -29.81328125 -7.081640625 -29.95 1 -29.9642578125 7.1462890625 -27.85 16.05 -26.6615234375 21.1494140625 -24.05 31.3 -22.1271484375 40.06796875 -22.55 46.35 -23.349609375 58.4908203125 -33.25 77.35 -38.304296875 86.9486328125 -49.1 105.65 -64.4544921875 134.440625 -60.4 166.45 -57.653125 187.5435546875 -45.65 199.05 -41.9669921875 202.574609375 -36.8 204.8 -34.3126953125 205.0626953125 -36.25 202.15
L -36.35 202 -36.35 201.95
Q -37.6517578125 199.836328125 -38.6 198.3 -46.654296875 184.8431640625 -48.35 170.4 -50.0005859375 155.969921875 -45.6 140.9 -41.1900390625 125.859765625 -32.1 114.55 -29.690234375 111.5966796875 -22.6 104.35 -16.4224609375 98.09921875 -13.5 93.9 -8.3501953125 86.5236328125 -4.7 72.7 -2.4337890625 62.7185546875 -1 57.75 1.6068359375 49.1048828125 5.65 44.05 8.301953125 40.75078125 12.55 38.2 15.4076171875 63.496484375 15.2 82.1 15.148046875 90.5419921875 14.45 98.45 13.272265625 98.7015625 12.25 98.95 5.560546875 100.8220703125 1 104.4 -10.7748046875 113.7513671875 -17.1 131 -21.076953125 141.9736328125 -22.95 161.55 -23.3603515625 166.265234375 -23.55 169.55 -23.1791015625 176.6166015625 -21.8 182.6 -20.476171875 187.202734375 -18.7 190.25 -15.138671875 193.086328125 -16.85 186.75 -19.1095703125 181.4021484375 -20.45 174.45 -20.6103515625 171.01875 -20.25 164.55 -19.42109375 150.426953125 -16.45 138.1 -12.924609375 123.747265625 -3.45 111.6 1.8751953125 104.672265625 8.15 101.45 10.418359375 100.37109375 14.35 99.5 15.7193359375 99.219140625 17.25 98.95 17.272265625 98.678515625 17.3 98.4 17.3220703125 98.1416015625 17.35 97.85 18.716796875 80.8693359375 17.55 60.65 15.2978515625 20.676171875 8.15 -1.85 2.58203125 -19.6576171875 -6.1 -30 -6.775390625 -30.81484375 -7.5 -31.6
L -7.6 -31.5
Q -7.771875 -31.4017578125 -7.95 -31.3
L -9.3 -30.45
Q -9.3939453125 -30.3806640625 -9.5 -30.35
L -9.55 -30.3
M -9.5 -27.8
Q -9.122265625 -28.060546875 -8.75 -28.35 -6.72890625 -25.8359375 -4.8 -22.9 2.88046875 -11.16015625 7.1 5.4 7.1876953125 5.76640625 7.25 6.1 -2.3796875 11.954296875 -7.9 20.5 -11.70546875 26.451953125 -13.05 34.2 -14.006640625 39.763671875 -13.95 48.7 -13.8095703125 61.522265625 -13.95 63.45 -14.26640625 71.821875 -16.3 77.9 -19.766796875 88.1712890625 -29.95 99.75 -35.6544921875 106.287890625 -47.6 118.8 -51.9525390625 123.930078125 -55.3 129.3 -52.8888671875 119.9337890625 -48.65 110.8 -45.886328125 104.8650390625 -41.2 96.65 -35.815625 87.44921875 -33.2 82.8 -23.61796875 65.83671875 -20.65 53.45 -17.80625 41.379296875 -22.5 23.9 -25.6181640625 12.3072265625 -26.3 7.65 -27.5767578125 -1.6634765625 -25.25 -8.9 -21.842578125 -19.38828125 -9.5 -27.8
M -12.3 39.9
Q -11.734375 32.2146484375 -9.4 26.35 -4.673828125 14.5708984375 7.5 7.1 10.260546875 18.451171875 12.3 35.85 12.380859375 36.5693359375 12.45 37.25 9.5890625 38.833984375 7.5 40.5 2.909765625 44.330859375 0 51.15 -1.738671875 55.251171875 -3.95 63.75 -7.0421875 75.788671875 -7.8 78.15 -10.2703125 86.211328125 -13.65 91.8 -16.6974609375 96.9404296875 -23.5 103.8 -32.1197265625 112.6341796875 -34.15 115.15 -42.8373046875 125.9798828125 -47.05 140.9 -50.9939453125 155.1671875 -49.95 169.55 -48.9283203125 183.085546875 -40.65 197.75 -39.8818359375 199.0953125 -38.85 200.75 -42.0580078125 198.5625 -44.9 195.4 -52.5728515625 186.88515625 -55.95 173.5 -59.7677734375 158.2806640625 -57.65 141.6 -57.1630859375 137.769921875 -56.4 133.95 -52.1166015625 125.9712890625 -45.65 118.4 -34.7361328125 106.791796875 -29.5 100.85 -20.229296875 90.3703125 -16.15 81.25 -13.501171875 75.365234375 -12.8 67.75 -12.317578125 62.9466796875 -12.5 53.85 -12.6568359375 44.2533203125 -12.3 39.9 Z"/>
</g>

<g id="FS_Mane_03_3_Layer0_0_FILL">
<path fill="#E781B3" stroke="none" d="
M -8.35 -4
Q -10.8931640625 -2.8451171875 -11.5 -0.6 -11.8666015625 0.96171875 -11.2 2.6 -10.7392578125 3.7115234375 -9.85 4.85 -9.6591796875 5.08515625 -9.4 5.2 -9.3703125 5.13515625 -9.35 5.05 -9.0314453125 3.4140625 -8 2.1 -7.4076171875 1.3875 -6.6 0.75 -5.5169921875 -0.0291015625 -4.65 0
L -4.7 0
Q -1.7365234375 -0.9748046875 -0.2 0.2 1.0103515625 -3.183203125 -3 -4.6
L -3 -4.65
Q -5.8482421875 -5.1583984375 -8.35 -4
M -3.4 -1.5
Q -6.1740234375 -1.634375 -8.5 -0.1 -8.465234375 -0.619140625 -8.3 -1.15 -7.4306640625 -3.5345703125 -4.15 -2.65 -2.2232421875 -2.1435546875 -0.8 -0.55 -1.73515625 -1.42578125 -3.4 -1.5 Z"/>

<path fill="#F4B6D1" stroke="none" d="
M -8.5 -0.1
Q -6.1740234375 -1.634375 -3.4 -1.5 -1.73515625 -1.42578125 -0.8 -0.55 -2.2232421875 -2.1435546875 -4.15 -2.65 -7.4306640625 -3.5345703125 -8.3 -1.15 -8.465234375 -0.619140625 -8.5 -0.1 Z"/>
</g>

<g id="FS_Tail_02_8_Layer0_0_FILL">
<path fill="#E781B3" stroke="none" d="
M 11.15 11.3
Q 9.5009765625 4.1841796875 10.3 0.9 11.1001953125 -2.39453125 8.45 -6.1 6.28984375 -9.2859375 -0.9 -8.75 -15.5650390625 -6.9251953125 -12.75 3.9 -11.0595703125 13.0765625 -6 29.85 -0.4810546875 48.1466796875 0.2 59.15 0.9298828125 70.19921875 -7.7 75.45 -9.25078125 76.3923828125 -10.65 76.65 -16.0662109375 78.0650390625 -13 83.55 -9.93359375 89.0953125 -5.15 92.5 -0.3158203125 95.9478515625 4.6 94.95 7.10078125 94.4509765625 11.2 91
L 11.2 90.95
Q 17.0099609375 85.676953125 19.45 76.05 23.75546875 59.2193359375 16.85 32.45 12.7787109375 18.45703125 11.15 11.3
M 17.95 46.75
Q 18.1626953125 45.402734375 18.3 44.05 19.2576171875 48.6373046875 19.6 52 20.7078125 62.785546875 18.95 71.6 16.8513671875 82.3115234375 10.7 88.3 6.6453125 92.937890625 0.35 91.7 -3.8578125 90.7201171875 -8.9 84.7 -13.8892578125 78.7361328125 -7.2 78.35 -3.2056640625 79.840234375 1.45 77.9 6.0703125 75.994140625 9.25 71.75 15.390625 63.7361328125 17.95 46.75
M 17.95 42.3
Q 17.90234375 42.7673828125 17.85 43.25 16.53515625 55.209765625 11.25 66.3 7.08046875 75.219140625 -1.05 77.1 -3.2462890625 77.601171875 -5.45 77.3 -2.388671875 75.241796875 -0.45 71.55 2.961328125 65.19921875 1.1 51.7 0.1322265625 45 -4.15 30.05 -8.3953125 15.365234375 -10.5 5.05 -10.652734375 4.3146484375 -10.8 3.6 -12.8705078125 -5.4140625 -0.95 -6.65 8.5978515625 -7.2482421875 8.7 -1.45 8.752734375 1.2404296875 9.25 5.55 10.1142578125 13.325390625 14.5 28.75 16.6669921875 36.41484375 17.95 42.3 Z"/>

<path fill="#F4B6D1" stroke="none" d="
M 17.85 43.25
Q 17.90234375 42.7673828125 17.95 42.3 16.6669921875 36.41484375 14.5 28.75 10.1142578125 13.325390625 9.25 5.55 8.752734375 1.2404296875 8.7 -1.45 8.5978515625 -7.2482421875 -0.95 -6.65 -12.8705078125 -5.4140625 -10.8 3.6 -10.652734375 4.3146484375 -10.5 5.05 -8.3953125 15.365234375 -4.15 30.05 0.1322265625 45 1.1 51.7 2.961328125 65.19921875 -0.45 71.55 -2.388671875 75.241796875 -5.45 77.3 -3.2462890625 77.601171875 -1.05 77.1 7.08046875 75.219140625 11.25 66.3 16.53515625 55.209765625 17.85 43.25
M 18.3 44.05
Q 18.1626953125 45.402734375 17.95 46.75 15.390625 63.7361328125 9.25 71.75 6.0703125 75.994140625 1.45 77.9 -3.2056640625 79.840234375 -7.2 78.35 -13.8892578125 78.7361328125 -8.9 84.7 -3.8578125 90.7201171875 0.35 91.7 6.6453125 92.937890625 10.7 88.3 16.8513671875 82.3115234375 18.95 71.6 20.7078125 62.785546875 19.6 52 19.2576171875 48.6373046875 18.3 44.05 Z"/>
</g>

<g id="FS_Tail_01_8_Layer2_0_FILL">
<path fill="#F4B6D1" stroke="none" d="
M 104.45 17.6
Q 108.5310546875 28.5685546875 108.5 40.4 108.4236328125 52.448046875 104.1 63.15 99.7177734375 74.096875 89.95 86.4 88.8501953125 87.844921875 71.9 107.4 66.342578125 113.8779296875 65.35 115.3 61.827734375 120.5677734375 62.65 124.75 63.888671875 130.61015625 72.85 133.9 75.9453125 135.070703125 79.65 136
L 81.2 116
Q 73.51328125 116.7939453125 73.7 113.6 73.871484375 111.5677734375 77.8 107.75 81.9453125 103.7267578125 88 99.55 100.5236328125 91.083203125 100.6 91.05 107.5427734375 85.9470703125 111.45 80.75 119.2146484375 70.5501953125 122.45 55.25 125.4888671875 41.3046875 121.6 28.05 117.6751953125 14.5896484375 107.3 4.35 96.18125 -6.63515625 81.75 -12.3 98.0169921875 0.2171875 104.45 17.6
M 16.5 -1.95
Q 14.626171875 -1.89375 12.55 -1.7 6.8478515625 -1.1375 -0.1 0.75 0.45078125 1.6591796875 1.45 2.5
L 1.5 2.5
Q 2.3806640625 3.046484375 3.45 3.25 4.596875 3.346484375 5.7 3.45 16.8955078125 4.8818359375 26.95 9.85 40.9771484375 16.78671875 49.35 29.05 62.3052734375 48.0982421875 59.3 70.1 57.938671875 80.378125 53.7 88.5 50.7794921875 94.223828125 44.75 105.55 36.7865234375 122.5583984375 41.9 130.45 42.5580078125 123.03203125 47.95 115.35 50.4748046875 111.8744140625 55.3 106.5 61.1619140625 99.9654296875 62.85 97.85 73.6138671875 84.35 76.3 73 79.1951171875 60.943359375 75.75 47.55 72.1798828125 33.2201171875 63.75 21.8 54.63359375 9.4005859375 41.6 3.2 30.3291015625 -2.129296875 16.5 -1.95
M 2.35 -6.85
Q 2.3388671875 -6.7970703125 2.3 -6.8 0.4220703125 -5.415234375 -0.25 -3.3 -0.6861328125 -1.65390625 -0.55 -0.65 -0.4869140625 -0.2251953125 -0.35 0.2 6.5859375 -1.7025390625 10.65 -2.15 11.6056640625 -2.2583984375 12.55 -2.35 14.5369140625 -2.5146484375 16.45 -2.6 38.6720703125 -3.212890625 54.45 10.25 64.987109375 19.2134765625 71.35 31.2 77.6943359375 43.2361328125 78.8 56.5 80.8154296875 79.1791015625 61.95 100.6 59.1861328125 103.7994140625 53.35 110.15 48.4890625 115.8505859375 46.1 120.55 43.222265625 126.258984375 43.35 132.25 45.7853515625 134.7181640625 49.9 135.95 60.568359375 139.239453125 76.75 136.5 57.0728515625 131.1884765625 62.05 119.2 63.85234375 114.9111328125 68.2 109.7 73.476171875 104.002734375 75.9 101.25 89.1888671875 86.2625 94.4 78.5 110.9642578125 53.93984375 105.95 28.25 101.4873046875 5.5384765625 81.7 -10.5 79.5505859375 -12.2423828125 77.25 -13.9 67.2580078125 -17.0984375 55.75 -17.9 51.23671875 -18.2337890625 47.05 -18.4 45.717578125 -18.42265625 44.4 -18.45 44.393359375 -18.421875 40.25 -18.35 38.7759765625 -18.333203125 37.3 -18.3
L 37.25 -18.3
Q 36.9623046875 -18.260546875 36.65 -18.25
L 36.9 -18.25
Q 26.3703125 -17.68359375 15.6 -13.45 10.583984375 -11.4310546875 5.5 -8.65 5.1724609375 -8.4560546875 4.85 -8.3
L 2.95 -7.2
Q 2.7880859375 -7.06015625 2.6 -6.95 2.4880859375 -6.8830078125 2.35 -6.85 Z"/>

<path fill="#E781B3" stroke="none" d="
M 0.45 -7.3
Q 0.4513671875 -7.2908203125 0.4 -7.3 -0.937109375 -6.186328125 -1.9 -4.75 -2.0466796875 -4.3255859375 -2.2 -3.95
L -2.45 -3.25
Q -4.4390625 3.1400390625 3.2 4.75 5.1166015625 4.984765625 6.95 5.3 13.9259765625 6.465625 20.45 9.1 31.9810546875 13.8599609375 40.55 22.6 48.541796875 30.716015625 52.8 41.5 56.90703125 51.976171875 56.95 63.3 57.047265625 74.8576171875 52.75 84.95 51.3623046875 88.2623046875 48.8 93 47.366015625 95.612890625 44.5 100.85 39.023828125 111.2529296875 37.55 116.65 34.801953125 126.755859375 39.85 132.65 44.6068359375 138.183203125 58.75 139.1 69.1615234375 139.76875 78.4 138.2 79.0056640625 138.125390625 79.65 138 82.575 137.292578125 79.65 136 75.9453125 135.070703125 72.85 133.9 63.888671875 130.61015625 62.65 124.75 61.827734375 120.5677734375 65.35 115.3 66.342578125 113.8779296875 71.9 107.4 88.8501953125 87.844921875 89.95 86.4 99.7177734375 74.096875 104.1 63.15 108.4236328125 52.448046875 108.5 40.4 108.5310546875 28.5685546875 104.45 17.6 98.0169921875 0.2171875 81.75 -12.3 96.18125 -6.63515625 107.3 4.35 117.6751953125 14.5896484375 121.6 28.05 125.4888671875 41.3046875 122.45 55.25 119.2146484375 70.5501953125 111.45 80.75 107.5427734375 85.9470703125 100.6 91.05 100.5236328125 91.083203125 88 99.55 81.9453125 103.7267578125 77.8 107.75 73.871484375 111.5677734375 73.7 113.6 73.51328125 116.7939453125 81.2 116 75.4501953125 115.226171875 76.9 111.9 78.2439453125 108.8962890625 85.45 103.2 87.827734375 101.3388671875 98.05 94.55 110.91875 86.086328125 117.3 75.95 124.3501953125 64.9244140625 126.15 51.25 127.9873046875 37.4337890625 123.95 25.25 119.9849609375 13.300390625 109.9 3.2 100.4794921875 -6.234375 88.95 -11.55 77.4376953125 -16.85859375 67 -18.8 56.555859375 -20.7107421875 48.6 -20.85 40.64140625 -20.923828125 34.6 -20.65 28.6033203125 -20.3244140625 19.25 -17.15 11.1474609375 -14.3978515625 6.55 -11.55 3.153125 -9.740234375 0.45 -7.3
M 2.3 -6.8
Q 2.3388671875 -6.7970703125 2.35 -6.85 2.4880859375 -6.8830078125 2.6 -6.95 2.7880859375 -7.06015625 2.95 -7.2
L 4.85 -8.3
Q 5.1724609375 -8.4560546875 5.5 -8.65 10.583984375 -11.4310546875 15.6 -13.45 26.3703125 -17.68359375 36.9 -18.25
L 36.65 -18.25
Q 36.9623046875 -18.260546875 37.25 -18.3
L 37.3 -18.3
Q 38.7759765625 -18.333203125 40.25 -18.35 44.393359375 -18.421875 44.4 -18.45 45.717578125 -18.42265625 47.05 -18.4 51.23671875 -18.2337890625 55.75 -17.9 67.2580078125 -17.0984375 77.25 -13.9 79.5505859375 -12.2423828125 81.7 -10.5 101.4873046875 5.5384765625 105.95 28.25 110.9642578125 53.93984375 94.4 78.5 89.1888671875 86.2625 75.9 101.25 73.476171875 104.002734375 68.2 109.7 63.85234375 114.9111328125 62.05 119.2 57.0728515625 131.1884765625 76.75 136.5 60.568359375 139.239453125 49.9 135.95 45.7853515625 134.7181640625 43.35 132.25 43.222265625 126.258984375 46.1 120.55 48.4890625 115.8505859375 53.35 110.15 59.1861328125 103.7994140625 61.95 100.6 80.8154296875 79.1791015625 78.8 56.5 77.6943359375 43.2361328125 71.35 31.2 64.987109375 19.2134765625 54.45 10.25 38.6720703125 -3.212890625 16.45 -2.6 14.5369140625 -2.5146484375 12.55 -2.35 11.6056640625 -2.2583984375 10.65 -2.15 6.5859375 -1.7025390625 -0.35 0.2 -0.4869140625 -0.2251953125 -0.55 -0.65 -0.6861328125 -1.65390625 -0.25 -3.3 0.4220703125 -5.415234375 2.3 -6.8
M 12.55 -1.7
Q 14.626171875 -1.89375 16.5 -1.95 30.3291015625 -2.129296875 41.6 3.2 54.63359375 9.4005859375 63.75 21.8 72.1798828125 33.2201171875 75.75 47.55 79.1951171875 60.943359375 76.3 73 73.6138671875 84.35 62.85 97.85 61.1619140625 99.9654296875 55.3 106.5 50.4748046875 111.8744140625 47.95 115.35 42.5580078125 123.03203125 41.9 130.45 36.7865234375 122.5583984375 44.75 105.55 50.7794921875 94.223828125 53.7 88.5 57.938671875 80.378125 59.3 70.1 62.3052734375 48.0982421875 49.35 29.05 40.9771484375 16.78671875 26.95 9.85 16.8955078125 4.8818359375 5.7 3.45 4.596875 3.346484375 3.45 3.25 2.3806640625 3.046484375 1.5 2.5
L 1.45 2.5
Q 0.45078125 1.6591796875 -0.1 0.75 6.8478515625 -1.1375 12.55 -1.7 Z"/>
</g>

<g id="FS_Tail_03_8_Layer0_0_FILL">
<path fill="#F4B6D1" stroke="none" d="
M -0.2 1.25
L -3.65 2.3
Q -1.37109375 3.431640625 0.05 5.9 0.29375 5.2625 -0.2 1.25
M 11.1 -9.9
L 11.1 -9.85
Q 10.3833984375 -5.3330078125 0.8 0.1 1.8958984375 4.5177734375 1.15 8.05 1.3658203125 8.47890625 1.55 8.9 3.555859375 13.7892578125 -0.1 16.8 2.100390625 16.1162109375 4.2 14.8 8.301953125 12.248046875 10.8 8.35 13.403515625 4.278515625 13.4 0 13.42734375 -5.13515625 11.1 -9.9
M 15.8 -0.7
Q 15.4232421875 -2.708984375 14.65 -4.5 15.5544921875 0.133203125 14 4.8 11.4244140625 12.83671875 2.3 16.75 -0.069921875 17.8025390625 -2.35 18.25 -6.0154296875 20.1640625 -11 20.5 -16.4841796875 20.905859375 -21.1 19.25 -24.0048828125 18.1818359375 -25.35 16.65 -27.804296875 21.1201171875 -24.25 23.85 -17.35703125 29.158984375 -2.95 25.2 3.933984375 23.3572265625 8.7 19.6 14.24296875 15.281640625 15.6 9.35 16.77734375 4.1994140625 15.8 -0.7 Z"/>

<path fill="#E781B3" stroke="none" d="
M 18.25 -2.3
Q 15.577734375 -8.9306640625 11.1 -9.9 13.42734375 -5.13515625 13.4 0 13.403515625 4.278515625 10.8 8.35 8.301953125 12.248046875 4.2 14.8 2.100390625 16.1162109375 -0.1 16.8 3.555859375 13.7892578125 1.55 8.9 1.3658203125 8.47890625 1.15 8.05 1.8958984375 4.5177734375 0.8 0.1 -0.698828125 -1.1126953125 -0.2 1.25 0.29375 5.2625 0.05 5.9 -1.37109375 3.431640625 -3.65 2.3 -0.703125 10.19765625 -0.55 11.45 0.1 14.5927734375 -2.7 16.75 -6.2298828125 19.496875 -12.55 19.25 -18.8681640625 19.038671875 -22.2 16.1 -23.233203125 15.176171875 -23.55 14.1
L -23.55 12.05
Q -23.4080078125 11.65390625 -23.25 11.25 -25.1044921875 12.8810546875 -26.4 14.4 -30.276171875 19.1359375 -28.4 23 -25.660546875 28.6470703125 -11.6 27.65 -0.3607421875 26.9517578125 8.1 21.75 18.0412109375 15.6953125 18.9 6 19.326953125 1.5505859375 18.25 -2.3
M 14.65 -4.5
Q 15.4232421875 -2.708984375 15.8 -0.7 16.77734375 4.1994140625 15.6 9.35 14.24296875 15.281640625 8.7 19.6 3.933984375 23.3572265625 -2.95 25.2 -17.35703125 29.158984375 -24.25 23.85 -27.804296875 21.1201171875 -25.35 16.65 -24.0048828125 18.1818359375 -21.1 19.25 -16.4841796875 20.905859375 -11 20.5 -6.0154296875 20.1640625 -2.35 18.25 -0.069921875 17.8025390625 2.3 16.75 11.4244140625 12.83671875 14 4.8 15.5544921875 0.133203125 14.65 -4.5 Z"/>
</g>

<g id="FS_WingBack_3_4_8_Layer6_0_FILL">
<path fill="#FDF6AE" stroke="none" d="
M -3.25 -10.95
L -3.25 -10.9
Q -6.771875 -9.8326171875 -7.95 -7.7 -9.437109375 -4.7736328125 -9.05 0.65 -11.0166015625 2.1763671875 -11.65 3.35
L -11.6 3.3
Q -12.3109375 4.779296875 -12.4 7 -12.5015625 10.356640625 -9.3 15.45 -11.1501953125 20.690625 -8.2 24.1 -4.8490234375 24.80546875 -1.4 24.3 7.390234375 23.14375 10.05 15.55 14.9142578125 1.3421875 -0.4 -15
L -1.4 -16.05 -3.2 -10.9 -3 -12.45 -3.25 -10.95
M -12.65 16.3
Q -13.2515625 15.454296875 -13.75 14.55
L -13.75 14.5
Q -14.09296875 13.80234375 -14.4 13.05
L -14.45 13.15 -30.5 2.95
Q -26.376953125 11.7984375 -19.9 17.6 -16.3068359375 20.8330078125 -12.6 22.55 -13.715234375 19.6021484375 -12.65 16.3
M -34.5 -13.45
Q -34.996875 -8.25390625 -32.05 -0.65 -31.8767578125 -0.2734375 -31.75 0.1 -31.509765625 0.718359375 -31.25 1.3
L -14.85 11.7
Q -15.46015625 9.433203125 -15.4 6.9 -15.2939453125 4.047265625 -14.4 2.15
L -34.5 -13.45
M -27.6 -19.2
L -27.65 -19.2
Q -32.028515625 -19.5138671875 -33.3 -17.7
L -33.3 -17.65
Q -34.0263671875 -16.362890625 -34.35 -14.8
L -34.35 -14.75
Q -34.3427734375 -14.6591796875 -34.35 -14.6
L -13.9 1.25
Q -13.2216796875 0.2173828125 -12.35 -0.55 -12.330859375 -5.6185546875 -10.75 -8.8
L -25.9 -19
Q -26.7892578125 -19.1376953125 -27.6 -19.2
M -21.7 -18.15
Q -22.5771484375 -18.3775390625 -23.45 -18.55
L -10.25 -9.7
Q -9.2578125 -11.2814453125 -8 -12.05 -13.21171875 -15.9927734375 -21.7 -18.15 Z"/>

<path fill="#EBD463" stroke="none" d="
M -27.4 -22.2
L -27.4 -22.2
Q -34.184375 -22.6814453125 -35.9 -19.15
L -35.9 -19.15
Q -36.8681640625 -17.446875 -37.3 -15.35
L -37.3 -15.35
Q -38.59375 -9.1455078125 -34.8 0.6
L -34.75 0.7
Q -34.660546875 0.89765625 -34.6 1.1 -34.577734375 1.188671875 -34.55 1.25 -29.9048828125 12.7171875 -21.9 19.85 -17.0701171875 24.1734375 -12.05 26.05
L -9.3 26.9
Q -5.23046875 27.8634765625 -1 27.25 9.7099609375 25.85625 12.9 16.55 18.5857421875 0.8576171875 -1.4 -16.05
L -0.4 -15
Q 14.9142578125 1.3421875 10.05 15.55 7.390234375 23.14375 -1.4 24.3 -4.8490234375 24.80546875 -8.2 24.1 -11.1501953125 20.690625 -9.3 15.45 -12.5015625 10.356640625 -12.4 7 -12.3109375 4.779296875 -11.6 3.3
L -11.65 3.35
Q -11.0166015625 2.1763671875 -9.05 0.65 -9.437109375 -4.7736328125 -7.95 -7.7 -6.771875 -9.8326171875 -3.25 -10.9
L -3.25 -10.95
Q -11.1728515625 -18.5560546875 -20.95 -21.05 -24.6181640625 -21.991015625 -27.4 -22.2
M -23.45 -18.55
Q -22.5771484375 -18.3775390625 -21.7 -18.15 -13.21171875 -15.9927734375 -8 -12.05 -9.2578125 -11.2814453125 -10.25 -9.7
L -23.45 -18.55
M -27.65 -19.2
L -27.6 -19.2
Q -26.7892578125 -19.1376953125 -25.9 -19
L -10.75 -8.8
Q -12.330859375 -5.6185546875 -12.35 -0.55 -13.2216796875 0.2173828125 -13.9 1.25
L -34.35 -14.6
Q -34.3427734375 -14.6591796875 -34.35 -14.75
L -34.35 -14.8
Q -34.0263671875 -16.362890625 -33.3 -17.65
L -33.3 -17.7
Q -32.028515625 -19.5138671875 -27.65 -19.2
M -32.05 -0.65
Q -34.996875 -8.25390625 -34.5 -13.45
L -14.4 2.15
Q -15.2939453125 4.047265625 -15.4 6.9 -15.46015625 9.433203125 -14.85 11.7
L -31.25 1.3
Q -31.509765625 0.718359375 -31.75 0.1 -31.8767578125 -0.2734375 -32.05 -0.65
M -13.75 14.55
Q -13.2515625 15.454296875 -12.65 16.3 -13.715234375 19.6021484375 -12.6 22.55 -16.3068359375 20.8330078125 -19.9 17.6 -26.376953125 11.7984375 -30.5 2.95
L -14.45 13.15 -14.4 13.05
Q -14.09296875 13.80234375 -13.75 14.5
L -13.75 14.55 Z"/>
</g>

<path id="FS_Mouth_3_4back_56_Layer5_0_1_STROKES" stroke="#B1D5E6" stroke-width="1.5" stroke-linejoin="miter" stroke-linecap="round" stroke-miterlimit="3" fill="none" d="
M -28.075 -0.875
L -32.45 1.85 -26.25 11.4 -20.925 8.075"/>
</defs>

<g transform="matrix( 0.986846923828125, 0, 0, 0.986846923828125, 690.65,309.25) ">
<g transform="matrix( 1, 0.000640869140625, -0.0088348388671875, 1, 5.95,150.55) ">
<g transform="matrix( 1.1522064208984375, 0, 0, 1.7481689453125, 4.4,-262.5) ">
<use filter="url(#Filter_1)" xlink:href="#FS_Shadow_0_Layer0_0_FILL"/>
</g>
</g>

<g transform="matrix( 0.9958953857421875, -0.08758544921875, 0.044647216796875, 1.012725830078125, -152.5,-68.75) ">
<g transform="matrix( 1, 0, 0, 1, 43.1,135.5) ">
<g transform="matrix( 1, 0, 0, 1, 0,0) ">
<use xlink:href="#FS_Mane_02_9_Layer0_0_FILL"/>
</g>
</g>

<g transform="matrix( 1, 0, 0, 1, 0.75,-0.35) ">
<g transform="matrix( 1, 0, 0, 1, 0,0) ">
<use xlink:href="#FS_Mane_01_9_Layer1_0_FILL"/>
</g>
</g>

<g transform="matrix( 1, 0, 0, -1, 3.9,129.5) ">
<g transform="matrix( 1, 0, 0, 1, 0,0) ">
<use xlink:href="#FS_Mane_03_9_Layer0_0_FILL"/>
</g>
</g>
</g>

<g transform="matrix( 0.772216796875, -0.060821533203125, 0.3440093994140625, 0.85870361328125, 16.9,33.25) ">
<g transform="matrix( 1, 0, 0, 1, 0,0) ">
<use filter="url(#Filter_2)" xlink:href="#FS_WingBack_3_4far_8_Layer6_0_FILL"/>
</g>
</g>

<g transform="matrix( 0.4537353515625, -0.8533935546875, 0.8997955322265625, 0.5045166015625, -71.3,9.55) ">
<g transform="matrix( 0.842987060546875, 0.5288848876953125, 0.5288848876953125, -0.842987060546875, -66.3,-27.65) ">
<g transform="matrix( 1, 0, 0, 1, 0,0) ">
<use xlink:href="#FS_FrontLeg_3_4_hoof_3_Layer0_0_FILL"/>
</g>
</g>

<g transform="matrix( 0.9300537109375, -0.35595703125, -0.35595703125, -0.9300537109375, -51.55,6.35) ">
<g transform="matrix( 1, 0, 0, 1, 0,0) ">
<use xlink:href="#FS_FrontLeg_3_4_lower_5_Layer2_0_FILL"/>
</g>

<g transform="matrix( 1, 0, 0, 1, 0,0) ">
<use xlink:href="#FS_FrontLeg_3_4_lower_5_Layer1_0_FILL"/>
</g>
</g>

<g transform="matrix( -0.2884368896484375, 1.0006561279296875, -0.9292755126953125, -0.5993804931640625, -11.7,21.5) ">
<g transform="matrix( 1, 0, 0, 1, 0,0) ">
<use xlink:href="#FS_FrontLeg_3_4_upper_7_Layer1_0_FILL"/>
</g>
</g>

<g transform="matrix( 1.57196044921875, 0.836578369140625, -0.510833740234375, -2.2890625, -62.4,-38.15) ">
<g transform="matrix( 1, 0, 0, 1, 0,0) ">
<use xlink:href="#FS_HoofWrinkle_0_Layer0_0_FILL"/>
</g>
</g>
</g>

<g transform="matrix( 0.9886016845703125, 0.152679443359375, -0.15191650390625, 0.9322357177734375, -11.85,17.6) ">
<g transform="matrix( 1, 0, 0, 1, 0,0) ">
<use xlink:href="#FS_Neck_1_Layer0_0_FILL"/>
</g>
</g>

<g transform="matrix( 0.999267578125, -0.0358123779296875, 0.0358123779296875, 0.999267578125, -48.6,-47.9) ">
<g transform="matrix( 0.99969482421875, 0.0050811767578125, -0.0050811767578125, 0.99969482421875, -41.7,-60.25) ">
<g transform="matrix( 1, 0, 0, 1, 0,0) ">
<use xlink:href="#FS_Hair_05_3_Layer1_0_FILL"/>
</g>
</g>

<g transform="matrix( 0.988372802734375, 0.000274658203125, 0.06036376953125, 0.930694580078125, -9.9,-13.15) ">
<g transform="matrix( 1, 0, 0, 1, 0,0) ">
<use xlink:href="#FS_Skull_5_Layer0_0_FILL"/>
</g>
</g>

<g transform="matrix( 0.9891357421875, -0.1414031982421875, 0.12689208984375, 0.9898529052734375, -20.65,18.55) ">
<g transform="matrix( 1, 0, 0, 1, 0,0) ">
<use xlink:href="#FS_Mouth_3_4back_56_Layer5_0_FILL"/>

<use xlink:href="#FS_Mouth_3_4back_56_Layer5_0_1_STROKES"/>
</g>

<g transform="matrix( 1, 0, 0, 1, 0,0) ">
<use xlink:href="#FS_Mouth_3_4back_56_Layer4_0_FILL"/>
</g>

<g transform="matrix( 0.9986419677734375, 0.0310821533203125, -0.0310821533203125, 0.9986419677734375, -34.6,-5.2) ">
<g transform="matrix( 1, 0, 0, 1, 0,0) ">
<use xlink:href="#FS_Nostril_3_4rear_0_Layer13_0_FILL"/>
</g>

<g transform="matrix( 1, 0, 0, 1, 0,0) ">
<use xlink:href="#FS_Nostril_3_4rear_0_Layer12_0_FILL"/>
</g>

<g transform="matrix( 1, 0, 0, 1, 0,0) ">
<use xlink:href="#FS_Nostril_3_4rear_0_Layer11_0_FILL"/>
</g>

<g transform="matrix( 1, 0, 0, 1, 0,0) ">
<use xlink:href="#FS_Nostril_3_4rear_0_Layer10_0_FILL"/>
</g>

<g transform="matrix( 1, 0, 0, 1, 0,0) ">
<use xlink:href="#FS_Nostril_3_4rear_0_Layer9_0_FILL"/>
</g>

<g transform="matrix( 1, 0, 0, 1, 0,0) ">
<use xlink:href="#FS_Nostril_3_4rear_0_Layer8_0_FILL"/>
</g>

<g transform="matrix( 1, 0, 0, 1, 0,0) ">
<use xlink:href="#FS_Nostril_3_4rear_0_Layer7_0_FILL"/>
</g>

<g transform="matrix( 1, 0, 0, 1, 0,0) ">
<use xlink:href="#FS_Nostril_3_4rear_0_Layer6_0_FILL"/>
</g>

<g transform="matrix( 1, 0, 0, 1, 0,0) ">
<use xlink:href="#FS_Nostril_3_4rear_0_Layer5_0_FILL"/>
</g>

<g transform="matrix( 1, 0, 0, 1, 0,0) ">
<use xlink:href="#FS_Nostril_3_4rear_0_Layer4_0_FILL"/>
</g>

<g transform="matrix( 1, 0, 0, 1, 0,0) ">
<use xlink:href="#FS_Nostril_3_4rear_0_Layer3_0_FILL"/>
</g>

<g transform="matrix( 1, 0, 0, 1, 0,0) ">
<use xlink:href="#FS_Nostril_3_4rear_0_Layer2_0_FILL"/>
</g>

<g transform="matrix( 1, 0, 0, 1, 0,0) ">
<use xlink:href="#FS_Nostril_3_4rear_0_Layer1_0_FILL"/>
</g>

<g transform="matrix( 1, 0, 0, 1, 0,0) ">
<use xlink:href="#FS_Nostril_3_4rear_0_Layer0_0_FILL"/>
</g>
</g>
</g>

<g transform="matrix( 1.02276611328125, 0.10284423828125, -0.144073486328125, 0.9892730712890625, 23.2,-29.1) ">
<g transform="matrix( 1, 0, 0, 1, 0,0) ">
<use xlink:href="#FS_Ear_3_Layer1_0_FILL"/>
</g>
</g>

<mask id="Mask_Mask_1">
<g transform="matrix( 0.433135986328125, 0.0000152587890625, 0.27276611328125, 1.0030517578125, -42,-3.5) ">
<g transform="matrix( 1, 0, 0, 1, 0,0) ">
<use xlink:href="#Mask_Mask_FS_EyeWhite_3_4rear_0_Layer0_0_FILL"/>
</g>
</g>
</mask>

<g mask="url(#Mask_Mask_1)">
<g transform="matrix( 0.433135986328125, 0.0000152587890625, 0.27276611328125, 1.0030517578125, -42,-3.5) ">
<g transform="matrix( 1, 0, 0, 1, 0,0) ">
<use xlink:href="#FS_EyeWhite_3_4rear_0_Layer0_0_FILL"/>
</g>
</g>
</g>

<g mask="url(#Mask_Mask_1)">
<g transform="matrix( -0.254119873046875, 0.0084686279296875, 0.069671630859375, 0.5488128662109375, -47.75,1.35) ">
<g transform="matrix( 1, 0, 0, 1, 0,0) ">
<use xlink:href="#FS_Iris_0_Layer1_0_FILL"/>
</g>

<g transform="matrix( 1, 0, 0, 1, 0,0) ">
<use xlink:href="#FS_Iris_0_Layer0_0_FILL"/>
</g>

<g transform="matrix( 1, 0, 0, 1, 0,0) ">
<use xlink:href="#FS_Iris_0_Layer0_1_FILL"/>
</g>
</g>
</g>

<g mask="url(#Mask_Mask_1)">
<g transform="matrix( 0.249725341796875, -0.008331298828125, 0.119781494140625, 0.567626953125, -48,1.3) ">
<g transform="matrix( 1, 0, 0, 1, 0,0) ">
<use xlink:href="#FS_Pupil_0_Layer0_0_FILL"/>
</g>
</g>
</g>

<g mask="url(#Mask_Mask_1)">
<g transform="matrix( 0.301025390625, -0.0905609130859375, 0.17694091796875, 0.57275390625, -47.1,-3.1) ">
<g transform="matrix( 1, 0, 0, 1, 0,0) ">
<use xlink:href="#FS_Hilights_0_Layer1_0_FILL"/>
</g>
</g>
</g>

<g transform="matrix( 0.433135986328125, 0.0000152587890625, 0.27276611328125, 1.0030517578125, -42,-3.5) ">
<g transform="matrix( 1, 0, 0, 1, 0,0) ">
<use xlink:href="#FS_Blink_3_4rear_0_Layer0_0_FILL"/>
</g>

<g transform="matrix( 1, 0, 0, 1, 0,0) ">
<use xlink:href="#FS_Blink_3_4rear_0_Layer0_1_FILL"/>
</g>

<g transform="matrix( 1, 0, 0, 1, 0,0) ">
<use xlink:href="#FS_Blink_3_4rear_0_Layer0_2_FILL"/>
</g>

<g transform="matrix( 1, 0, 0, 1, 0,0) ">
<use xlink:href="#FS_Blink_3_4rear_0_Layer0_3_FILL"/>
</g>

<g transform="matrix( 1, 0, 0, 1, 0,0) ">
<use xlink:href="#FS_Blink_3_4rear_0_Layer0_4_FILL"/>
</g>

<g transform="matrix( 1, 0, 0, 1, 0,0) ">
<use xlink:href="#FS_Blink_3_4rear_0_Layer0_5_FILL"/>
</g>

<g transform="matrix( 1, 0, 0, 1, 0,0) ">
<use xlink:href="#FS_Blink_3_4rear_0_Layer0_6_FILL"/>
</g>
</g>

<g transform="matrix( 0.93023681640625, 0.36614990234375, -0.36614990234375, 0.93023681640625, -23.4,-27.1) ">
<g transform="matrix( 1, 0, 0, 1, 0,0) ">
<use xlink:href="#FS_Ear_4_Layer1_0_FILL"/>
</g>
</g>
</g>

<g transform="matrix( 0.9597320556640625, 0.0548248291015625, -0.032562255859375, 1.0541229248046875, -40.35,41.3) ">
<g transform="matrix( 1, 0, 0, 1, 2.2,86.4) ">
<g transform="matrix( 1, 0, 0, 1, 0,0) ">
<use xlink:href="#FS_FrontLeg_3_4_hoof_0_Layer0_0_FILL"/>
</g>
</g>

<g transform="matrix( 0.999969482421875, -0.0043792724609375, -0.001129150390625, 1, 0.15,0.35) ">
<g transform="matrix( 1, 0, 0, 1, 0,0) ">
<use xlink:href="#FS_FrontLeg_3_4_upper_2_Layer1_0_FILL"/>
</g>
</g>
</g>

<g transform="matrix( 1, 0, 0.0137481689453125, 0.99609375, 2.95,33.6) ">
<g transform="matrix( 1, 0, 0, 1, 0,0) ">
<use xlink:href="#FS_Torso_3_Layer1_0_FILL"/>
</g>
</g>

<g transform="matrix( 1.0281829833984375, -0.0496368408203125, -0.00433349609375, 0.9521636962890625, 27.45,12.45) ">
<g transform="matrix( 0.9970245361328125, 0, 0, 1, 17.55,127.9) ">
<g transform="matrix( 1, 0, 0, 1, 0,0) ">
<use xlink:href="#FS_FrontLeg_3_4_hoof_4_Layer0_0_FILL"/>
</g>
</g>

<g transform="matrix( 1, 0, 0, 1, 5.05,57.05) ">
<g transform="matrix( 1, 0, 0, 1, 0,0) ">
<use xlink:href="#FS_KneePatch_1_Layer0_0_FILL"/>
</g>
</g>

<g transform="matrix( 1, 0, -0.0095977783203125, 1.0159912109375, 5.95,-9.8) ">
<g transform="matrix( 1, 0, 0, 1, 0,0) ">
<use xlink:href="#FS_HindLeg_3_4_top_2_Layer0_0_FILL"/>
</g>
</g>

<g transform="matrix( 1, 0, 0, 1, 8.7,62.65) ">
<g transform="matrix( 1, 0, 0, 1, 0,0) ">
<use xlink:href="#FS_HindLeg_3_4rear_lower_0_Layer1_0_FILL"/>
</g>

<g transform="matrix( 1, 0, 0, 1, 0,0) ">
<use xlink:href="#FS_HindLeg_3_4rear_lower_0_Layer0_0_FILL"/>
</g>
</g>

<g transform="matrix( 1, 0, 0, 1, 5.05,57.05) ">
<g transform="matrix( 1, 0, 0, 1, 0,0) ">
<use xlink:href="#FS_KneePatch_0_Layer0_0_FILL"/>
</g>
</g>

<g transform="matrix( 1, 0, 0, 1, 0,0) ">
<use xlink:href="#FS_HindLeg_3_4rearnomark_0_Layer0_0_FILL"/>
</g>
</g>

<g transform="matrix( 1, 0, 0.0137481689453125, 0.99609375, 2.95,33.6) ">
<g transform="matrix( 1, 0, 0, 1, 0,0) ">
<use xlink:href="#FS_Torso_13_Layer1_0_FILL"/>
</g>
</g>

<g transform="matrix( 1.0763397216796875, 0, -0.0438232421875, 0.9962615966796875, 12.55,13.5) ">
<g transform="matrix( 0.9942169189453125, 0, 0, 1, 17.55,127.9) ">
<g transform="matrix( 1, 0, 0, 1, 0,0) ">
<use xlink:href="#FS_FrontLeg_3_4_hoof_4_Layer0_0_FILL"/>
</g>
</g>

<g transform="matrix( 1, 0, 0, 1, 5.05,57.05) ">
<g transform="matrix( 1, 0, 0, 1, 0,0) ">
<use xlink:href="#FS_KneePatch_1_Layer0_0_FILL"/>
</g>
</g>

<g transform="matrix( 1, 0, -0.0095977783203125, 1.0159912109375, 5.95,-9.8) ">
<g transform="matrix( 1, 0, 0, 1, 0,0) ">
<use xlink:href="#FS_HindLeg_3_4_top_2_Layer0_0_FILL"/>
</g>
</g>

<g transform="matrix( 1, 0, 0, 1, 8.7,62.65) ">
<g transform="matrix( 1, 0, 0, 1, 0,0) ">
<use xlink:href="#FS_HindLeg_3_4rear_lower_0_Layer1_0_FILL"/>
</g>

<g transform="matrix( 1, 0, 0, 1, 0,0) ">
<use xlink:href="#FS_HindLeg_3_4rear_lower_0_Layer0_0_FILL"/>
</g>
</g>

<g transform="matrix( 1, 0, 0, 1, 5.05,57.05) ">
<g transform="matrix( 1, 0, 0, 1, 0,0) ">
<use xlink:href="#FS_KneePatch_0_Layer0_0_FILL"/>
</g>
</g>

<g transform="matrix( 0.5999908447265625, 0, -0.0133056640625, 0.9998626708984375, -8.2,12.65) ">
<g transform="matrix( 1, 0, 0, 1, 0,0) ">
<use xlink:href="#FS_CutieMark_2_Layer0_0_FILL"/>
</g>
</g>

<g transform="matrix( 1, 0, 0, 1, 0,0) ">
<use xlink:href="#FS_HindLeg_3_4rear_0_Layer0_0_FILL"/>
</g>
</g>

<g transform="matrix( 0.999267578125, 0.0354461669921875, -0.01104736328125, 0.9675445556640625, -33.25,-86.55) ">
<g transform="matrix( 0.0001373291015625, 0.9991912841796875, -0.9991912841796875, 0.0001373291015625, -30.15,193.55) ">
<g transform="matrix( 1, 0, 0, 1, 0,0) ">
<use xlink:href="#FS_Mane_02_3_Layer0_0_FILL"/>
</g>
</g>

<g transform="matrix( 1, 0, 0, 1, 0.05,-0.15) ">
<g transform="matrix( 1, 0, 0, 1, 0,0) ">
<use xlink:href="#FS_Mane_01_3_Layer1_0_FILL"/>
</g>
</g>

<g transform="matrix( 0.9991912841796875, -0.0001373291015625, 0.0001373291015625, 0.9991912841796875, -2,184.9) ">
<g transform="matrix( 1, 0, 0, 1, 0,0) ">
<use xlink:href="#FS_Mane_03_3_Layer0_0_FILL"/>
</g>
</g>
</g>

<g transform="matrix( 1, 0.0047607421875, 0.0001220703125, 0.99603271484375, 33.75,9.35) ">
<g transform="matrix( -0.0400848388671875, -0.999053955078125, 1.0005340576171875, -0.00323486328125, 76.7,124.65) ">
<g transform="matrix( 1, 0, 0, 1, 0,0) ">
<use xlink:href="#FS_Tail_02_8_Layer0_0_FILL"/>
</g>
</g>

<g transform="matrix( 1, 0, 0, 1, 0.15,-0.4) ">
<g transform="matrix( 1, 0, 0, 1, 0,0) ">
<use xlink:href="#FS_Tail_01_8_Layer2_0_FILL"/>
</g>
</g>

<g transform="matrix( 1, 0.01312255859375, 0, 1, 154.2,124.15) ">
<g transform="matrix( 1, 0, 0, 1, 0,0) ">
<use xlink:href="#FS_Tail_03_8_Layer0_0_FILL"/>
</g>
</g>
</g>

<g transform="matrix( -0.998443603515625, -0.0007171630859375, 0.0097503662109375, 0.9944915771484375, -22.35,35.75) ">
<g transform="matrix( 1, 0, 0, 1, 0,0) ">
<use xlink:href="#FS_WingBack_3_4_8_Layer6_0_FILL"/>
</g>
</g>
</g>
</svg>
