
<svg xmlns="http://www.w3.org/2000/svg" version="1.1" xmlns:xlink="http://www.w3.org/1999/xlink" preserveAspectRatio="none" x="0px" y="0px" width="864px" height="486px" viewBox="0 0 864 486">
<defs>
<filter id="Filter_1" x="-20%" y="-20%" width="140%" height="140%" color-interpolation-filters="sRGB">
<feColorMatrix in="SourceGraphic" type="matrix" values="0.6 0 0 0 0.3686274509803922 0 0.6 0 0 0.3333333333333333 0 0 0.6 0 0.1568627450980392 0 0 0 1 0" result="result1"/>
</filter>

<filter id="Filter_2" x="-20%" y="-20%" width="140%" height="140%" color-interpolation-filters="sRGB">
<feColorMatrix in="SourceGraphic" type="matrix" values="0.5 0 0 0 0.4627450980392157 0 0.5 0 0 0.41568627450980394 0 0 0.5 0 0.19607843137254902 0 0 0 1 0" result="result1"/>
</filter>

<g id="FS___WingcycleBACK2fs_new_4_Layer11_0_FILL">
<path fill="#FDF6AE" stroke="none" d="
M 8.7 2.9
Q 7.9908203125 2.276953125 7.65 1.95 5.5701171875 0.2498046875 4.2 -0.55 1.162109375 -0.344921875 -0.25 2.2 -0.8505859375 3.3072265625 -1.6 4.4 -1.9630859375 4.6068359375 -2.5 4.8 -0.0783203125 13.8912109375 -1.35 25 -1.8587890625 28.7435546875 -3 38.45 -6.5578125 67.74296875 0.3 100.5 0.682421875 102.2609375 1 103.35 3.99609375 112.78515625 10.25 119.5 16.059765625 125.448828125 21.55 124.8 23.481640625 124.361328125 24.3 123.15 24.834375 121.471484375 23.85 119.65 20.308984375 113.1267578125 14.75 99.7 9.0125 83.6923828125 7.95 77.1 6.72109375 69.6240234375 5.5 62.95 6.692578125 66.1708984375 8.1 69.3 20.3642578125 104.3408203125 31.3 113.35 35.2791015625 117.054296875 41.7 117.75 47.7587890625 118.319140625 47.55 114.9 46.9412109375 112.7546875 29.05 85.7 10.86171875 55.8673828125 9.1 49.5 11.113671875 51.7470703125 13.05 54.7 19.825 64.813671875 32 79.05 40.1912109375 87.7611328125 44.25 90.1 47.76640625 92.339453125 49.85 92.8 52.158984375 93.183203125 53.85 90.95 55.508984375 88.6189453125 53.05 84.35 50.847265625 80.8794921875 45.1 74 37.4271484375 65.1951171875 33.2 59.7 25.4974609375 49.7626953125 20.6 41.2 20.2431640625 40.8634765625 20.25 40.7 20.0302734375 40.625 20.15 40.45 17.9041015625 35.7123046875 17.2 34.65 17.722265625 35.2716796875 23.25 41.9 28.5759765625 47.183984375 34.9 54.95 41.7630859375 62.027734375 42.6 57.3 43.6359375 51.0693359375 38.9 44.4 30.975390625 34.2890625 25.6 26.2 19.765625 17.5341796875 17.05 11.85 12.2658203125 6.2294921875 8.7 2.9 Z"/>

<path fill="#EBD463" stroke="none" d="
M 5.8 -1.55
Q 4.648828125 -1.890625 4.1 -1.9 3.279296875 -1.837890625 3.15 -1.25 3.529296875 -0.6013671875 4.2 -0.55 5.5701171875 0.2498046875 7.65 1.95 7.9908203125 2.276953125 8.7 2.9 12.2658203125 6.2294921875 17.05 11.85 19.765625 17.5341796875 25.6 26.2 30.975390625 34.2890625 38.9 44.4 43.6359375 51.0693359375 42.6 57.3 41.7630859375 62.027734375 34.9 54.95 28.5759765625 47.183984375 23.25 41.9 17.722265625 35.2716796875 17.2 34.65 17.9041015625 35.7123046875 20.15 40.45 20.0302734375 40.625 20.25 40.7 20.2431640625 40.8634765625 20.6 41.2 25.4974609375 49.7626953125 33.2 59.7 37.4271484375 65.1951171875 45.1 74 50.847265625 80.8794921875 53.05 84.35 55.508984375 88.6189453125 53.85 90.95 52.158984375 93.183203125 49.85 92.8 47.76640625 92.339453125 44.25 90.1 40.1912109375 87.7611328125 32 79.05 19.825 64.813671875 13.05 54.7 11.113671875 51.7470703125 9.1 49.5 10.86171875 55.8673828125 29.05 85.7 46.9412109375 112.7546875 47.55 114.9 47.7587890625 118.319140625 41.7 117.75 35.2791015625 117.054296875 31.3 113.35 20.3642578125 104.3408203125 8.1 69.3 6.692578125 66.1708984375 5.5 62.95 6.72109375 69.6240234375 7.95 77.1 9.0125 83.6923828125 14.75 99.7 20.308984375 113.1267578125 23.85 119.65 24.834375 121.471484375 24.3 123.15 23.481640625 124.361328125 21.55 124.8 16.059765625 125.448828125 10.25 119.5 3.99609375 112.78515625 1 103.35 0.682421875 102.2609375 0.3 100.5 -6.5578125 67.74296875 -3 38.45 -1.8587890625 28.7435546875 -1.35 25 -0.0783203125 13.8912109375 -2.5 4.8 -2.5216796875 4.348046875 -2.6 4.5 -3.1333984375 14.5689453125 -4.2 24.85 -4.439453125 26.880078125 -4.7 28.9 -10.6775390625 67.7916015625 -1.9 100.85 -1.3869140625 102.841015625 -0.85 104.4 2.7142578125 113.98203125 9.5 121.3 15.6654296875 127.5802734375 22.35 126.4 25.256640625 125.7517578125 26.05 124 27.131640625 121.863671875 25.75 118.9 10.4251953125 85.144921875 10.45 80.9 17.075 97.341015625 21.7 104.65 25.833203125 111.46171875 29.8 114.6 33.5826171875 117.6818359375 36.75 118.8 41.6265625 120.5541015625 47.5 119.4 48.6205078125 119.0453125 49.55 117.8 50.1671875 116.1365234375 49.7 114.05 48.1111328125 110.1771484375 37.4 95.3 22.7677734375 74.1306640625 16.65 62.5 37.726953125 88.6994140625 43.55 92.45 51.67578125 97.572265625 56.15 92.65 59.6966796875 88.46640625 47.95 74.5 32.764453125 57.4158203125 28.5 49.9 28.321484375 49.3625 30.7 52.8 33.89375 56.7890625 36.7 59.2 40.0892578125 62.0087890625 41.85 62.05 43.7404296875 61.789453125 44.85 58.7 45.7439453125 55.2767578125 44.55 50.75 42.9037109375 45.6078125 39.45 41.8 33.9955078125 35.87265625 23.85 19.65 23.7126953125 19.6072265625 23.75 19.55 21.44140625 14.4958984375 16.5 7.35 9.7921875 -2.0169921875 5.8 -1.55 Z"/>
</g>

<g id="FS___st_stroke_08fs_new_0_Layer0_0_FILL">
<path fill="#C1C1C1" stroke="none" d="
M -214.35 80.05
Q -214.7419921875 82.1009765625 -215.1 84.15 -212.2353515625 70.7677734375 -205.6 50.85 -211.519921875 67.094140625 -214.35 80.05
M -25.75 -89.05
Q -23.7798828125 -89.966015625 -21.9 -90.85 -34.6166015625 -85.587890625 -44.2 -80.35 -45.840625 -79.355859375 -47.25 -78.55 -39.53046875 -82.5146484375 -25.75 -89.05
M -10.85 -94.7
Q -6.495703125 -96.240625 -2.65 -97.55
L 2.95 -99.6
Q -9.2328125 -95.6912109375 -14.45 -93.45 -21.409375 -90.5451171875 -23.4 -89.6 -17.5373046875 -92.171484375 -10.85 -94.7
M -138.5 -52.7
Q -131.6640625 -58.8982421875 -117.45 -70.9 -94.5625 -90.2287109375 -55.2 -111.1 -101.8599609375 -87.59296875 -138.5 -52.7
M -160 -24
L -153.85 -31.4
Q -163.2478515625 -20.977734375 -168.95 -12.95 -179.481640625 1.8814453125 -183.6 8.8 -187.649609375 15.8107421875 -188.45 17.25
L -188.7 17.25
Q -188.310546875 16.2 -187.95 15.2 -189.046875 17.0140625 -193.3 24.7 -197.3662109375 32.45859375 -204.1 49.3 -224.008203125 103.4357421875 -213.8 153.85
L -214.35 150.25
Q -215.58515625 143.6228515625 -216.65 131.3 -217.471484375 118.9998046875 -216.1 104.9 -213.726953125 83.077734375 -210.25 71.1 -206.767578125 59.1052734375 -210.25 72.35 -215.0603515625 91.0251953125 -216.1 109.25 -215.411328125 100.978125 -214.05 92.6 -211.1525390625 71.1681640625 -202.05 47.5 -192.8640625 23.980859375 -180.5 4.7 -168.1740234375 -14.24140625 -160 -24
M -82.6 -79.35
Q -85.9435546875 -77.2458984375 -92.35 -72.4 -81.0169921875 -80.4166015625 -62.65 -91.1 -56.234765625 -94.937109375 -49.3 -98.55 -54.5708984375 -95.937109375 -58 -93.95 -68.7365234375 -87.7490234375 -72.35 -85.75 -76.049609375 -83.4017578125 -82.6 -79.35
M -101.6 -85.25
Q -112.248046875 -77.398046875 -120.8 -70.6 -124.783203125 -67.166796875 -129.5 -62.95 -140.47265625 -52.9203125 -149 -44.25 -157.1490234375 -35.5244140625 -157.2 -35
L -155.65 -36.55
Q -143.4873046875 -50.2306640625 -129.5 -62.7 -105.840625 -83.255859375 -83.9 -96.75 -73.8525390625 -102.909765625 -65.7 -107.5 -85.803515625 -96.8109375 -101.6 -85.25
M -38.55 -121.85
Q -37.9603515625 -121.9234375 -37.5 -122.15 -26.002734375 -126.9205078125 -19.05 -129.55
L -20.6 -129.05
Q -29.912890625 -125.5455078125 -38.55 -121.85
M -52 -115.5
Q -53.8673828125 -114.5919921875 -55.7 -113.65 -54.986328125 -113.964453125 -54.45 -114.2 -53.3248046875 -114.8048828125 -52 -115.5
M -69.3 -106.5
Q -75.5580078125 -103.0490234375 -77.75 -101.65
L -82.1 -98.8
Q -77.14296875 -101.8646484375 -69.3 -106.5
M -180.25 -5.3
Q -176.0021484375 -11.3228515625 -171.3 -17.6 -165.0177734375 -25.7427734375 -158.2 -33.45 -160.35703125 -31.2580078125 -162.55 -28.85 -172.2203125 -17.1865234375 -180.25 -5.3
M -163.6 -22.7
L -162.55 -23.75
Q -158.416015625 -28.6337890625 -155.4 -31.95 -139.2361328125 -49.9005859375 -126.95 -60.65 -116.156640625 -70.155078125 -106.95 -77.3 -124.458984375 -64.3212890625 -134.65 -53.95 -152.7255859375 -36.098828125 -156.4 -31.95
L -152.55 -36.8
Q -144.7556640625 -46.1974609375 -123.1 -65.75 -142.0310546875 -49.26171875 -151.55 -38.6 -161.0484375 -27.85546875 -165.4 -22.45 -169.5328125 -16.89375 -171 -14.75 -172.5115234375 -12.7609375 -173.05 -11.95 -173.5416015625 -11.0630859375 -174.85 -9.1 -176.3193359375 -7.1291015625 -180 -1.7 -183.6326171875 3.59296875 -190.25 14.95 -195.980859375 24.730859375 -203.05 41.1 -201.38828125 37.6314453125 -198.95 32.4 -193.9828125 21.9427734375 -186.15 9.05 -178.27734375 -3.8873046875 -169.75 -15 -169.0654296875 -15.7830078125 -168.45 -16.55 -169.93828125 -14.48203125 -170.75 -13.5
L -169.5 -14.75
Q -166.458984375 -18.841015625 -163.6 -22.7
M 216.95 -124.2
Q 212.592578125 -126.68203125 207.95 -129.05 204.762109375 -130.4845703125 202.35 -131.6 207.9474609375 -128.7169921875 216.7 -123.9
L 216.95 -124.2
M 152.1 -63.95
Q 149.4314453125 -65.228125 146.75 -66.25 149.225 -64.9990234375 151.6 -63.7
L 152.1 -63.95
M 157.5 -66.25
L 158 -66.25
Q 155.529296875 -67.582421875 152.6 -69.1 142.61953125 -73.6193359375 133.65 -76.25 146.38828125 -72.1609375 157.5 -66.25
M 158 -66.5
Q 158.5115234375 -66.7685546875 159.05 -67.05 143.21953125 -75.49296875 133.65 -77.8 119.7814453125 -81.1833984375 117.25 -81.65
L 113.4 -82.15
Q 127.7169921875 -79.07265625 140.05 -74.45 148.6296875 -71.40390625 158 -66.5
M -191 35.2
Q -190.65859375 34.2099609375 -190.25 33.15 -187.85546875 27.7267578125 -185.35 22.65 -194.9587890625 41.0037109375 -201 59.8 -200.41796875 58.465625 -199.7 56.75 -204.2423828125 70.07109375 -206.9 83.4 -206.964453125 84.0595703125 -207.15 85.7 -205.732421875 78.0447265625 -203.55 69.8 -199.1388671875 52.8974609375 -191 35.2
M -71.1 -100.85
Q -62.162109375 -105.6447265625 -51.1 -111.1 -27.2259765625 -122.2248046875 -17.8 -125.45
L -13.15 -127 -16.75 -125.95 -14.45 -126.75
Q -12.263671875 -127.555859375 -11.9 -127.75
L -16.75 -126.25
Q -21.9939453125 -124.3689453125 -36.5 -118.55 -49.24453125 -113.1849609375 -71.1 -100.85
M 100.35 -132.65
Q 113.102734375 -131.8580078125 118.3 -131.1 135.495703125 -129.9982421875 163.65 -121.35 181.3615234375 -116.0298828125 198 -106.75 203.3533203125 -112.9400390625 209.25 -118.05 208.4619140625 -118.3759765625 207.7 -118.8 175.487890625 -136.5263671875 139.55 -142.35 103.6646484375 -147.696484375 78.8 -145.7 54.1810546875 -143.77890625 52.15 -142.9 23.5833984375 -138.2814453125 8.6 -133.9 -6.30859375 -129.42265625 -11.65 -127.5
L -13.15 -127
Q -16.575390625 -125.7431640625 -23.4 -123.15 -33.8712890625 -119.0619140625 -48.8 -111.9 -63.9197265625 -104.524609375 -79.55 -94.7 -95.14140625 -85.0685546875 -108 -75.25 -120.789453125 -65.2021484375 -128.5 -58.05 -136.0171875 -51.0080078125 -136.95 -50.1 -144.8396484375 -42.3935546875 -149.5 -37.55 -154.1728515625 -32.61796875 -161.05 -24.5
L -168.2 -15
Q -165.9537109375 -17.8296875 -157.95 -27.55 -149.791796875 -37.0783203125 -142.05 -44.75
L -135.15 -51.15
Q -138.481640625 -47.7740234375 -141.55 -44.5 -128.7794921875 -57.6396484375 -119 -65.5 -104.4306640625 -77.1375 -97.75 -81.65 -91.061328125 -86.3146484375 -90.8 -86.5
L -94.15 -83.95
Q -99.36328125 -80.441796875 -106.2 -75.25 -112.7962890625 -69.963671875 -115.65 -67.55
L -112.35 -70.1
Q -111.0240234375 -70.8765625 -109.8 -71.65 -120.44140625 -63.4462890625 -130.3 -54.5 -157.4123046875 -29.1150390625 -175.65 -1.45 -193.8859375 26.258203125 -203.05 52.4 -212.130859375 78.7216796875 -214.35 100.55 -214.466015625 102.53671875 -214.6 104.15 -214.4640625 102.9771484375 -214.35 101.6 -213.0185546875 90.73828125 -209.45 75.2 -203.3759765625 51.140234375 -194.1 32.65 -192.315234375 28.9935546875 -191 26.25
L -190.25 24.2
Q -186.28515625 16.35859375 -173.85 -2.95 -160.975390625 -22.3740234375 -142.3 -41.65 -123.7078125 -60.742578125 -109.5 -71.4 -100.073828125 -78.512109375 -91.85 -84.2 -97.050390625 -80.7455078125 -100.55 -78.3
L -103.1 -76.75
Q -102.2783203125 -77.3765625 -94.65 -82.9 -93.49453125 -83.7298828125 -92.1 -84.7 -81.32578125 -92.2392578125 -78 -93.95 -77.1087890625 -94.489453125 -76.45 -94.95
L -76.2 -95.2
Q -75.4552734375 -96.075 -67 -100.85 -58.496484375 -105.5095703125 -36.75 -116 -5.880078125 -128.7794921875 12.7 -133.4 31.384375 -137.9884765625 41.15 -139.55 50.9130859375 -141.0794921875 56.25 -141.6 61.226953125 -142.14453125 66.25 -142.65 63.244921875 -142.183203125 50.1 -140.3 33.61484375 -138.2013671875 8.1 -131.35 -17.444921875 -124.2857421875 -44.2 -111.6 -65.5458984375 -101.41796875 -83.15 -90.1 -78.7908203125 -92.7046875 -74.95 -94.95 -60.1625 -103.542578125 -51.35 -107.8
L -46.5 -110.1
Q -51.837890625 -107.3583984375 -60.3 -102.9 -78.6359375 -93.4087890625 -102.35 -76.25 -125.8220703125 -59.0451171875 -145.9 -37.3 -165.8783203125 -15.34140625 -177.95 4.45 -189.7876953125 23.977734375 -194.1 33.65
L -195.1 36.75
Q -170.3876953125 -14.427734375 -135.15 -47.8 -99.8544921875 -81.1447265625 -59.3 -102.65 -18.763671875 -124.48984375 31.4 -135.2 56.8361328125 -140.7505859375 85.25 -141.85 113.746484375 -142.5357421875 144.4 -136.5 158.380859375 -133.81328125 170.55 -129.55 182.6927734375 -125.1646484375 188 -122.65
L 186.95 -122.9
Q 153.1248046875 -135.76953125 132.9 -138.25 112.523046875 -140.749609375 98.3 -141.1 84.25859375 -141.42734375 63.95 -140.05 43.55078125 -138.4806640625 5 -128.3
L 4 -127.75
Q -28.6845703125 -118.1677734375 -59.3 -101.9 -90.0501953125 -85.4841796875 -116.45 -63.7 -147.1400390625 -37.9765625 -167.45 -8.85 -187.76171875 20.392578125 -198.45 48.55 -201.4328125 56.19921875 -203.8 63.4 -204.6150390625 66.519140625 -205.35 69.55 -205.721484375 70.996484375 -206.15 72.35
L -206.9 74.65
Q -207.862109375 78.4650390625 -208.45 80.3 -209.021484375 84.8314453125 -209.45 88.5 -210.309765625 93.92109375 -210.75 99 -210.015234375 92.9619140625 -208.95 86.95 -207.218359375 77.4259765625 -204.6 68 -200.0154296875 51.4408203125 -192.55 35.2 -191.375 33.0220703125 -190.25 30.85 -188.5365234375 27.175390625 -186.9 23.7
L -181.25 14.2
Q -174.9873046875 3.356640625 -167.2 -7.6 -166.273046875 -8.72890625 -165.4 -9.9 -149.8337890625 -30.8296875 -133.6 -46.3 -116.3560546875 -62.62265625 -107.2 -69.35
L -119.25 -58.85
Q -131.381640625 -48.5560546875 -146.4 -31.95 -161.2263671875 -15.3935546875 -172.05 1.15 -182.795703125 17.8068359375 -186.9 26.5 -189.0880859375 30.85859375 -191 35.2 -187.468359375 27.7365234375 -183.3 20.1 -169.498828125 -5.4701171875 -149 -28.85 -128.1296875 -52.3228515625 -103.65 -70.9
L -101.05 -72.65
Q -106.0248046875 -68.91953125 -115.4 -61.15 -124.6990234375 -53.1060546875 -130.8 -47.05
L -133.6 -44.25
Q -157.11875 -21.13515625 -174.1 5.25
L -176.4 9.05
Q -181.1826171875 16.6103515625 -188.7 31.6 -196.16015625 46.6267578125 -201.25 64.15 -206.3447265625 81.7033203125 -207.9 95.7 -209.55390625 109.7998046875 -209.45 115.15 -209.153515625 120.39921875 -208.95 111.85 -208.5076171875 100.1875 -206.65 88.5 -206.7779296875 90.1005859375 -206.9 91.6 -206.20859375 86.0517578125 -205.35 82.1 -204.0638671875 77.1728515625 -203.05 73.65 -202.2859375 70.35 -201.75 68.25 -200.4177734375 64.083984375 -199.45 60.85 -198.59140625 58.314453125 -196.9 53.9 -199.301171875 60.589453125 -201.25 67.25 -200.864453125 66.241015625 -200.5 65.2 -193.330859375 44.8404296875 -186.4 29.85 -179.37734375 14.965234375 -180 18.05 -180.01796875 18.507421875 -180.25 19.3 -175.8529296875 11.403515625 -173.6 7.55 -175.6890625 10.8140625 -177.7 13.95
L -179.5 16.5
Q -178.56015625 15.1576171875 -171.3 3.2 -150.8037109375 -26.2208984375 -136.15 -40.4 -132.4498046875 -43.9521484375 -129.25 -47.05 -140.0814453125 -36.134375 -143.85 -31.65
L -142.3 -33.2
Q -137.0748046875 -38.888671875 -129 -46.3 -120.8681640625 -53.7689453125 -114.4 -59.35 -107.9689453125 -64.8556640625 -107.75 -64.75 -137.061328125 -39.7755859375 -151.3 -21.95 -155.6251953125 -16.591796875 -159.65 -11.25 -156.2892578125 -15.45546875 -152.85 -19.65 -156.920703125 -14.36953125 -159.5 -10.9 -157.1109375 -13.8619140625 -153.85 -17.85 -145.350390625 -28.597265625 -135.15 -38.85 -124.6458984375 -49.097265625 -120.55 -52.7
L -126.45 -47.05
Q -142.44140625 -32.1083984375 -156.4 -14.25 -164.2515625 -4.005078125 -170.75 6.25 -151.5392578125 -22.205078125 -131.8 -41.4 -112.28203125 -60.696484375 -89.55 -76.75 -75.02890625 -86.8431640625 -56.75 -96.5 -67.0650390625 -90.80234375 -79.3 -83.2 -106.2865234375 -66.382421875 -133.35 -39.6 -160.3482421875 -12.51171875 -178.45 20.35 -184.071484375 30.5470703125 -188.7 40.6 -186.6880859375 35.8373046875 -184.6 31.35 -190.85078125 44.025390625 -194.6 54.95 -199.58203125 69.7984375 -201.25 78.5 -199.7986328125 73.0099609375 -198.2 67.75 -200.5625 76.13203125 -202.05 84.4 -198.53046875 68.44453125 -196.15 61.6 -196.5974609375 63.4314453125 -197.15 65.45 -198.40625 69.93359375 -198.95 72.35
L -198.7 72.1
Q -198.1138671875 69.6134765625 -194.85 59.05 -191.4873046875 48.2806640625 -181.25 27 -168.5095703125 1.05859375 -145.4 -26.05 -127.284375 -47.0806640625 -100.05 -67.8 -101.01796875 -66.9080078125 -102.1 -66 -115.5890625 -55.634765625 -132.05 -39.6 -143.533203125 -28.3029296875 -153.6 -15 -150.0736328125 -19.3814453125 -145.4 -25 -132.3234375 -40.22265625 -112.35 -57.3 -92.1220703125 -74.453125 -70.55 -87.3 -48.8890625 -100.1521484375 -34.2 -106.5
L -37.25 -104.95
Q -33.48203125 -106.5984375 -24.45 -110.35 -15.4962890625 -114.04765625 -6 -117.25 3.41875 -119.9546875 8.1 -121.35
L 7.85 -121.1
Q 7.14765625 -120.8734375 6.3 -120.6 18.04453125 -123.9693359375 29.9 -126.5 51.100390625 -130.923046875 69.35 -132.1 87.6767578125 -133.2974609375 100.35 -132.65
M -120.3 -55.25
Q -116.890625 -58.2919921875 -114.4 -60.35 -107.0900390625 -66.2650390625 -103.65 -68.85 -113.265234375 -61.3443359375 -120.3 -55.25
M 90.1 -111.1
Q 91.845703125 -111.162109375 95.2 -111.1 91.7990234375 -111.3111328125 88.3 -111.35 89.534765625 -111.2208984375 90.1 -111.1
M 95.2 -111.1
Q 96.4435546875 -110.994921875 98.55 -110.85 94.3474609375 -111.0611328125 90.1 -111.1 70.5560546875 -111.39609375 49.85 -108.55 71.59453125 -111.1087890625 83.2 -110.85 94.6869140625 -110.556640625 100.1 -110.1 105.6357421875 -109.51640625 108.8 -109.05 84.448046875 -111.6275390625 58.85 -108.8 29.2439453125 -105.60546875 3.75 -97.25 -21.5794921875 -88.7837890625 -38.55 -79.85 -55.4978515625 -70.94765625 -61.6 -66.8 -25.9349609375 -88.686328125 13.75 -99.6 19.5005859375 -100.8779296875 5.8 -97 -7.8662109375 -93.2865234375 -40.6 -78.05
L -40.1 -78.05
Q -30.1732421875 -83.2138671875 -8.3 -91.65 13.611328125 -100.1544921875 39.85 -104.7 66.1185546875 -108.9568359375 86 -108.55 105.811328125 -108.02578125 111.6 -106.75 117.5939453125 -105.493359375 102.15 -107.5 69.060546875 -109.2771484375 48.05 -105.75 27.2587890625 -102.0853515625 15.25 -98.55 10.513671875 -97.2525390625 6.3 -96 0.109765625 -94.1234375 -4.7 -92.4 -7.2103515625 -91.4169921875 -9.85 -90.35 -2.0525390625 -93.135546875 6.8 -95.75 11.9951171875 -97.377734375 15.8 -98.55
L 24.5 -100.85
Q 45.3646484375 -105.4962890625 54.75 -106.5 64.0431640625 -107.34375 67.05 -107.5 70.183984375 -107.4798828125 72.4 -107.5 73.9693359375 -107.569921875 77.95 -107.7 53.0765625 -106.378125 35 -102.9 32.4765625 -102.4146484375 28.85 -101.65 27.760546875 -101.4166015625 26.55 -101.1 24.1759765625 -100.4765625 21.95 -99.85 -0.3806640625 -93.5205078125 -11.1 -89.05 -21.8916015625 -84.58359375 -25.2 -82.9
L -27.8 -81.65
Q -26.3384765625 -81.694140625 -24.95 -82.4
L -29.55 -79.85
Q -32.391015625 -78.387890625 -38.3 -75.25 -31.32734375 -78.765625 -25.75 -81.15 -13.836328125 -86.34296875 -7.55 -88.55
L 2.45 -91.9
Q 0.86328125 -91.1623046875 -0.1 -90.85
L 6.05 -92.4
Q -10.0505859375 -87.4068359375 -18.8 -83.7 -29.041015625 -79.0263671875 -31.9 -77.55
L -33.15 -76.75
Q -31.3771484375 -77.6240234375 -27.25 -79.6 -21.6154296875 -81.8591796875 -17.25 -83.7
L -15.75 -84.2
Q -15.0833984375 -84.5669921875 -14.45 -84.95 -9.078515625 -86.9490234375 -3.7 -88.8 0.373046875 -90.2345703125 4.5 -91.65 5.8041015625 -92.0044921875 7.05 -92.4 40.462890625 -102.7677734375 75 -104.2 70.0970703125 -103.8408203125 67.3 -103.7 72.85546875 -103.8291015625 84.7 -103.7 100.0650390625 -103.8017578125 116.25 -101.35 128.065234375 -99.273046875 136.2 -97 144.308203125 -94.681640625 145.7 -93.95
L 139.05 -96
Q 130.82421875 -98.5365234375 107.8 -101.9 91.712890625 -104.023046875 72.65 -102.9 53.618359375 -101.7888671875 36.8 -98.8 19.9068359375 -95.808203125 10.4 -92.4 -11.5857421875 -85.2888671875 -19.6 -81.65
L -24.7 -79.35
Q -22.406640625 -80.225 -17.8 -82.15 -10.737890625 -85.021484375 -1.9 -88.05 6.93359375 -90.9521484375 13.5 -92.65
L 20.15 -94.45 10.4 -91.65
Q 5.6689453125 -90.23671875 -2.15 -87.3 5.3126953125 -89.8 13.5 -92.15 33.9640625 -98.0640625 55.5 -100.6 77.400390625 -103.0423828125 96.5 -101.65 115.58828125 -100.24453125 129.05 -96.75 112.8904296875 -100.4373046875 94.7 -101.35 76.4921875 -102.2908203125 59.1 -100.35 41.58125 -98.230078125 27.85 -94.95 14.274609375 -91.773046875 6.8 -89.35 18.351171875 -92.82109375 29.6 -95.2 40.6689453125 -97.577734375 41.65 -97.55 42.9181640625 -97.4517578125 24.25 -93.7 3.978515625 -88.216796875 -3.95 -85.25 -11.830859375 -82.326171875 -19.85 -79.1
L -25.75 -76
Q -18.694921875 -79.216796875 -0.35 -85.75 17.8326171875 -92.275390625 38.85 -96 8.7728515625 -89.332421875 -2.65 -84.7 -14.130078125 -80.02734375 -17.25 -78.55 -20.3572265625 -76.92734375 -24.95 -74.7 -27.991796875 -73.3818359375 -35.45 -69.35 -24.880859375 -74.775390625 -18.8 -77.3 -10.2587890625 -80.732421875 -8.3 -81.4
L -8.05 -81.4
Q -9.3421875 -80.7021484375 -11.1 -79.85 -6.626953125 -81.59375 6.05 -85.75 12.463671875 -88.007421875 21.7 -90.35 30.005859375 -92.26953125 39.6 -93.95 60.005859375 -97.6837890625 79.85 -97.8 99.6267578125 -97.4294921875 112.9 -94.95 81.35 -99.73984375 46.8 -94.7 26.671484375 -91.4384765625 14.75 -88.05 2.9455078125 -84.505859375 -2.65 -82.4
L -10.6 -79.1
Q -9.5607421875 -79.3990234375 -9.05 -79.6 -10.3974609375 -79.0044921875 -15.75 -76.5 -0.337890625 -83.0365234375 3.75 -84.2
L 8.85 -85.5
Q 12.7810546875 -86.7740234375 36.05 -92.15 49.70703125 -94.570703125 63.2 -95.5 97.2361328125 -97.0951171875 114.7 -93.15 112.7474609375 -93.474609375 102.65 -94.7 89.378125 -96.174609375 70.9 -95.5 52.396875 -94.4837890625 39.35 -91.9
L 29.6 -90.1
Q 7.3923828125 -83.9052734375 5.8 -83.45
L 13.2 -85.25
Q 19.25625 -86.8833984375 25.8 -88.55
L 21.7 -87.3 21.15 -87 20.9 -87
Q 20.358203125 -86.7900390625 19.35 -86.5 16.8646484375 -85.8193359375 2.95 -81.4 -19.2064453125 -73.9076171875 -39.55 -62.95 -32.635546875 -66.47421875 -23.7 -70.6 -7.4638671875 -77.9412109375 9.4 -82.9 26.0962890625 -87.9220703125 37.05 -89.85 16.505078125 -84.194921875 12.95 -83.3
L 20.4 -84.95
Q 30.834375 -87.1943359375 46.55 -89.6 57.1634765625 -91.2125 66.8 -91.65 64.9322265625 -91.4025390625 62.7 -91.1 67.116015625 -91.4646484375 72.4 -91.65 86.2833984375 -91.676171875 91.1 -91.4
L 80.6 -91.4
Q 75.55625 -91.35390625 63.7 -90.6 51.6982421875 -89.65703125 40.4 -87.55 45.803125 -88.239453125 52.15 -89.05 54.2771484375 -89.3224609375 56.25 -89.6
L 49.1 -88.3
Q 49.6205078125 -88.2517578125 55.25 -88.8 60.7125 -89.3296875 68.3 -89.6 78.6931640625 -89.8751953125 86.75 -89.6 94.98125 -89.1234375 94.45 -88.8 93.8724609375 -88.4095703125 78.05 -88.8
L 72.4 -88.8
Q 58.6396484375 -88.7509765625 38.6 -85.5 33.0646484375 -84.2888671875 28.35 -83.2 34.4939453125 -84.4591796875 40.65 -85.5 52.756640625 -87.42265625 67.55 -88.05 82.445703125 -88.9169921875 102.15 -86.75 113.6712890625 -85.5416015625 126.75 -81.9 118.8775390625 -83.826953125 111.1 -84.95 93.775 -87.8548828125 81.65 -88.05
L 97.25 -86.5
Q 105.473046875 -85.62890625 118.8 -82.9 122.3529296875 -82.29765625 126.25 -81.4
L 127.75 -80.85
Q 144.144921875 -76.541796875 157.5 -69.6 159.31796875 -68.7255859375 161.1 -67.8 169.6884765625 -71.705859375 178.5 -76 186.8509765625 -93.31171875 197.45 -106 159.8205078125 -126.1947265625 119.05 -130.6 73.975 -135.2533203125 30.9 -125.95 -11.7826171875 -117.082421875 -51.1 -97 -76.8373046875 -83.8212890625 -100.05 -65.75 -101.1810546875 -64.8640625 -102.35 -63.95 -103.9759765625 -62.5375 -105.7 -61.15 -109.7109375 -57.9501953125 -113.9 -54.5 -117.2439453125 -51.3265625 -120.55 -48.05 -132.937890625 -36.754296875 -144.35 -23.75 -154.9685546875 -11.55390625 -163.35 0.6 -162.9333984375 0.217578125 -162.55 -0.15
L -158.45 -5.3
Q -159.6734375 -3.4419921875 -161.05 -1.45 -156.428515625 -7.0396484375 -152.85 -11.45 -160.4701171875 -1.6099609375 -166.65 8.3
L -166.4 8.05
Q -160.1587890625 -1.810546875 -148.2 -16.8 -146.614453125 -18.66953125 -145.15 -20.4 -155.7814453125 -7.6298828125 -164.6 6 -167.449609375 11.357421875 -165.9 9.6 -164.4005859375 7.7880859375 -153.35 -7.35 -142.784765625 -22.791796875 -109.25 -52.95 -92.0203125 -67.7583984375 -64.95 -83.95 -53.09453125 -91.139453125 -39.05 -97.55 -44.2708984375 -94.934375 -48.8 -92.4 -67.191015625 -82.4923828125 -79.55 -73.95 -91.83125 -65.510546875 -103.65 -55.75 -110.9779296875 -49.6720703125 -119.5 -41.4 -115.906640625 -44.7404296875 -111.85 -48.35 -100.5666015625 -58.300390625 -88 -67.3 -75.2708984375 -76.3490234375 -64.95 -82.4 -54.455859375 -88.391015625 -50.35 -90.35 -96.1357421875 -66.05234375 -130.3 -29.9
L -140 -18.6
Q -136.4908203125 -22.3484375 -127.2 -32.2 -119.770703125 -39.9876953125 -109.8 -48.35 -112.553515625 -45.8486328125 -115.4 -43.2
L -124.15 -34.25
Q -119.6486328125 -38.6390625 -110.8 -47.05 -105.606640625 -51.699609375 -100.05 -56.25 -89.7091796875 -64.4642578125 -78 -72.15 -59.9564453125 -83.9591796875 -51.35 -88.05 -60.0142578125 -83.4126953125 -68.25 -78.3 -60.81953125 -82.6771484375 -53.15 -86.75
L -44.95 -90.85
Q -54.0478515625 -86.0662109375 -72.6 -74.7 -73.2580078125 -74.3349609375 -73.9 -73.95 -83.4232421875 -68.0689453125 -94.4 -59.35 -87.4271484375 -64.5162109375 -79.05 -70.1 -79.5314453125 -69.696484375 -80.05 -69.35 -90.01953125 -62.6576171875 -95.95 -57.8
L -95.95 -57.55
Q -105.646484375 -49.423828125 -107.2 -47.8
L -87.5 -62.7
Q -71.646484375 -74.9876953125 -44.7 -89.05 -30.61640625 -96.414453125 -11.65 -103.7 7.132421875 -110.8208984375 32.2 -116.25 33.892578125 -116.35 35.5 -116.5 25.05 -114.4458984375 14.75 -111.6 -15.5876953125 -103.1296875 -38.3 -92.15 -63.534765625 -79.12734375 -77 -69.35 -90.7283203125 -59.73359375 -96.45 -55 -102.2525390625 -49.99296875 -102.85 -49.1
L -101.05 -50.4
Q -97.6029296875 -53.060546875 -92.35 -56.8 -87.1775390625 -60.5146484375 -84.9 -61.9 -82.701171875 -63.2513671875 -88.25 -58.85 -77.567578125 -66.6685546875 -63.65 -75.25 -56.2525390625 -79.9833984375 -46.75 -84.95 -54.2412109375 -80.808984375 -59.3 -77.55 -69.458203125 -71.344140625 -72.9 -69.1 -76.22109375 -66.6005859375 -75.2 -67.05 -74.2091796875 -67.6607421875 -70.85 -69.85 -66.1923828125 -72.6416015625 -61.6 -75.25
L -57.5 -77.55 -58.8 -76.5
Q -44.7990234375 -84.5701171875 -24.45 -93.45 3.526953125 -105.7890625 33.7 -111.9 63.8056640625 -117.372265625 84.2 -117 104.545703125 -116.448046875 106 -115.7 121.8765625 -113.99140625 125.2 -113.4
L 122.4 -113.65
Q 116.444140625 -114.6529296875 102.9 -115.7 89.2056640625 -116.8865234375 70.1 -116 51.2806640625 -114.8416015625 30.15 -110.35 9.0314453125 -105.8888671875 -10.85 -98.55 -30.7576171875 -90.8994140625 -46.25 -82.4 -61.6185546875 -73.9708984375 -70.55 -67.8 -42.341796875 -84.819140625 -31.9 -89.05
L -26.25 -91.4
Q -28.0310546875 -90.5029296875 -29.85 -89.6 -19.2595703125 -94.352734375 -10.6 -97.55 2.63203125 -102.1775390625 8.6 -103.7 3.683984375 -101.9802734375 -8.3 -97.8
L -14.2 -95.5
Q -17.7423828125 -94.3484375 -27.5 -90.1 -36.9845703125 -85.73203125 -47.25 -80.1 -57.6470703125 -74.3361328125 -63.9 -70.35
L -68 -67.55
Q -40.309765625 -84.1962890625 -29.3 -88.8 -18.262109375 -93.2494140625 -14.2 -94.7 -10.0970703125 -96.075 -0.85 -99.3 4.316015625 -101.0630859375 14.75 -103.7 15.8 -104.05390625 16.8 -104.45 24 -106.312109375 31.15 -107.8 42.064453125 -110.058984375 52.95 -111.35 42.853125 -109.9107421875 32.7 -107.8 16.2482421875 -104.425390625 0.4 -99.05 5.5728515625 -100.665625 10.9 -102.15
L 11.45 -102.15
Q 12.6322265625 -102.5001953125 13.9 -102.9 11.937890625 -102.242578125 10.15 -101.65 11.7416015625 -102 13.2 -102.4
L 17.05 -103.15 11.7 -101.35
Q 8.41171875 -100.3490234375 -4.45 -96.25 -12.153515625 -93.774609375 -24.95 -88.05 -23.584375 -88.464453125 -22.4 -88.8 -14.7037109375 -92.0271484375 -9.6 -93.95 -4.4818359375 -95.780859375 2.2 -98.05 8.880078125 -100.1599609375 21.4 -103.4 31.1796875 -105.9896484375 49.85 -109.3 68.69765625 -112.600390625 103.7 -111.1 108.98203125 -110.3669921875 114.2 -109.55
L 117.5 -109.05
Q 116.7572265625 -109.13984375 112.65 -109.55 116.621875 -109.0658203125 121.85 -108.05 115.53515625 -109.0931640625 109.05 -109.85 105.5046875 -110.2833984375 100.6 -110.85 97.941015625 -111.0390625 95.2 -111.1
M 37.3 -108.3
Q 33.60546875 -107.657421875 30.15 -107 46.8935546875 -110.7533203125 58.6 -111.6 64.184375 -111.93046875 68.05 -112.15 66.552734375 -112.0220703125 64.75 -111.9 52.97734375 -110.8236328125 37.3 -108.3
M 65.75 -90.35
Q 70.618359375 -90.8041015625 74.7 -90.85
L 78.8 -90.85
Q 71.2669921875 -90.7021484375 65.75 -90.35
M 71.4 -94.2
Q 69.9087890625 -94.0619140625 67.8 -93.95 61.1353515625 -93.6447265625 52.7 -92.9 56.6896484375 -93.385546875 60.35 -93.7 70.01953125 -94.3693359375 71.4 -94.2
M 44.75 -91.9
Q 42.762890625 -91.475390625 40.9 -91.1 36.5419921875 -90.5193359375 33.2 -90.1
L 30.4 -89.6
Q 30.786328125 -89.6740234375 31.4 -89.85 32.046484375 -89.9439453125 32.7 -90.1 33.228515625 -90.2224609375 33.7 -90.35 37.826953125 -91.1513671875 43.95 -92.15 44.4365234375 -92.0259765625 44.75 -91.9
M -31.9 -104.95
Q -21.645703125 -109.021875 -39.8 -100.85 -83.11328125 -80.48515625 -115.4 -51.4 -132.7328125 -35.7455078125 -146.15 -19.9 -141.862890625 -25.2833984375 -140.8 -26.8 -137.9953125 -30.0240234375 -134.4 -34.25 -127.77734375 -41.7541015625 -108 -58.3 -88.2546875 -74.8921875 -65.2 -88.05 -42.038671875 -100.763671875 -31.9 -104.95
M 128 -150.85
Q 139.4904296875 -149.66640625 132.65 -149.55 129.830078125 -149.468359375 121.6 -149.8 130.596875 -148.784765625 140.85 -147.25 172.9302734375 -142.2083984375 207.7 -124.2 203.4849609375 -126.251953125 196.45 -129.55 179.47265625 -137.3748046875 158.25 -142.65 136.8421875 -147.2853515625 128.55 -148.25
L 127.25 -148.25
Q 92.01953125 -152.5361328125 53.7 -147.25 18.509765625 -142.3130859375 -13.15 -131.1 0.2208984375 -135.4892578125 6.8 -137.25 13.4923828125 -139.09296875 16.3 -139.8 19.0330078125 -140.4125 20.9 -140.85 22.7919921875 -141.2462890625 26.8 -142.1 30.92109375 -142.953125 40.15 -144.7 49.249609375 -146.3884765625 66.5 -148.25 83.6599609375 -150.219921875 111.1 -149.3 89.6037109375 -149.3298828125 83.95 -148.5 79.4736328125 -147.9388671875 90.1 -147.75 85.3794921875 -147.706640625 77.8 -147.5 61.4923828125 -146.8216796875 38.35 -142.65 15.2474609375 -138.4927734375 -7.8 -130.85 -30.9255859375 -123.0662109375 -47.75 -114.7 -15.25625 -129.6595703125 10.65 -136.2 36.49140625 -142.7484375 52.45 -144.4 85.1865234375 -147.6171875 67.55 -145.45 102.312109375 -147.7724609375 122.4 -145.2 142.4916015625 -142.6265625 157.25 -139.05 171.840234375 -135.2064453125 189 -128.55 198.4001953125 -124.859375 209.5 -118.3 212.94140625 -121.31171875 216.45 -123.9 208.0486328125 -128.6486328125 198.25 -133.15 170.5138671875 -145.5783203125 139.05 -150.3 110.2318359375 -154.5650390625 87.8 -153.65 92.5849609375 -153.64921875 101.65 -153.15 116.533203125 -152.1271484375 128 -150.85 Z"/>
</g>

<g id="FS_FrontLeg_3_4_hooffs_new_7_Layer0_0_FILL">
<path fill="#EBD463" stroke="none" d="
M 4 -11.6
L 4.05 -11.6
Q -0.941796875 -13.1146484375 -5.65 -10.65 -5.684765625 -10.600390625 -5.75 -10.6 -6.2517578125 -10.2625 -6.75 -9.95
L -6.7 -10
Q -7.6634765625 -9.364453125 -8.45 -8.6 -10.3267578125 -6.7533203125 -11.05 -5.1
L -11.05 -5.1
Q -30.0138671875 40.01875 -9.3 66.05 -9.23828125 66.123828125 -9.2 66.15 -5.746875 69.9376953125 -1.15 68.65 2.9451171875 67.65390625 8 62.15 8.0501953125 62.1140625 8.1 62.05 21.908203125 43.6923828125 15.15 28.6 15.0796875 28.4025390625 10.75 21 7.12421875 14.7482421875 8.75 10.2 8.8173828125 10.176171875 8.85 10.1 11.4953125 7.864453125 12.55 4.35
L 12.55 4.3
Q 14.1173828125 -0.7203125 11.55 -5.45
L 11.55 -5.4
Q 9.0748046875 -10.045703125 4 -11.6
M 8.9 -4
L 8.9 -4
Q 10.882421875 -0.3796875 9.7 3.45
L 9.7 3.45
Q 8.9046875 6.1353515625 6.9 7.85 6.6046875 8.15078125 6.45 8.5
L 6.25 8.45
Q 6.007421875 9.424609375 5.85 10.4 4.3818359375 19.5 12.5 30 18.1720703125 43.58515625 5.8 60.1 1.5046875 64.7962890625 -1.9 65.75 -4.803125 66.512109375 -7 64.1 -24.980078125 41.0130859375 -10.8 2.35 -9.69609375 -0.608203125 -8.45 -3.65 -8.29921875 -3.931640625 -8.2 -4.2
L -8.5 -4.3 -8.15 -4.2
Q -6.8884765625 -6.0958984375 -6.15 -6.7 -5.36953125 -7.248046875 -5.1 -7.45
L -5.1 -7.45
Q -4.683203125 -7.7140625 -4.25 -8 -0.6580078125 -9.8853515625 3.15 -8.75
L 3.15 -8.75
Q 7.025 -7.554296875 8.9 -4 Z"/>

<path fill="#949494" stroke="none" d="
M 6.35 8.2
Q 6.3099609375 8.3357421875 6.25 8.45
L 6.45 8.5
Q 6.3904296875 8.3802734375 6.35 8.2 Z"/>

<path fill="#FFF8AD" stroke="none" d="
M 8.9 -4
L 8.9 -4
Q 7.025 -7.554296875 3.15 -8.75
L 3.15 -8.75
Q -0.6580078125 -9.8853515625 -4.25 -8 -4.683203125 -7.7140625 -5.1 -7.45
L -5.1 -7.45
Q -5.36953125 -7.248046875 -6.15 -6.7 -6.8884765625 -6.0958984375 -8.15 -4.2
L -8.2 -4.2
Q -8.29921875 -3.931640625 -8.45 -3.65 -9.69609375 -0.608203125 -10.8 2.35 -24.980078125 41.0130859375 -7 64.1 -4.803125 66.512109375 -1.9 65.75 1.5046875 64.7962890625 5.8 60.1 18.1720703125 43.58515625 12.5 30 4.3818359375 19.5 5.85 10.4 6.007421875 9.424609375 6.25 8.45 6.3099609375 8.3357421875 6.35 8.2 6.3904296875 8.3802734375 6.45 8.5 6.6046875 8.15078125 6.9 7.85 8.9046875 6.1353515625 9.7 3.45
L 9.7 3.45
Q 10.882421875 -0.3796875 8.9 -4 Z"/>
</g>

<g id="FS_FrontLeg_3_4_upperfs_new_6_Layer1_0_FILL">
<path fill="#FFF8AD" stroke="none" d="
M -19.3 32.3
L -19.35 32.3 -19.35 32.35 -19.3 32.3
M 5.1 6.7
L 5.1 6.7
Q 4.8970703125 6.7099609375 4.1 6.75 3.3763671875 6.851953125 1.1 7.5 -1.13515625 8.2087890625 -3.5 8.75 -5.8873046875 9.265625 -11.25 8.4 -16.6271484375 7.5392578125 -23.95 9.85
L -24 9.85 -16.35 32.45
Q -13.369921875 27.9671875 -1.45 26.75 1.785546875 26.421484375 5.6 26.3
L 5.5 26.15
Q 6.24765625 26.2146484375 7 26.15
L 7 26.15
Q 10.97890625 25.737890625 13.55 22.6
L 13.55 22.65
Q 16.1224609375 19.473828125 15.75 15.45
L 15.75 15.4
Q 15.3708984375 11.4361328125 12.2 8.85 9.0986328125 6.3505859375 5.1 6.7 Z"/>

<path fill="#EBD463" stroke="none" d="
M 5.1 6.7
L 5.1 6.7
Q 9.0986328125 6.3505859375 12.2 8.85 15.3708984375 11.4361328125 15.75 15.4
L 15.75 15.45
Q 16.1224609375 19.473828125 13.55 22.65
L 13.55 22.6
Q 10.97890625 25.737890625 7 26.15
L 7 26.15
Q 6.24765625 26.2146484375 5.5 26.15
L 5.6 26.3
Q 1.785546875 26.421484375 -1.45 26.75 -13.369921875 27.9671875 -16.35 32.45 -7.978515625 30.5599609375 3.2 29.55 4.9384765625 29.426171875 6.05 29.2 6.651953125 29.18359375 7.25 29.1
L 7.3 29.1
Q 12.4861328125 28.6171875 15.85 24.55
L 15.85 24.5
Q 19.2109375 20.4046875 18.75 15.15
L 18.75 15.15
Q 18.2197265625 9.909375 14.05 6.55 11.694140625 4.615234375 8.9 3.95 5.0951171875 2.5880859375 -0.1 4.55 -5.3130859375 6.56015625 -10.2 5.5 -16.16484375 4.2443359375 -24.6 6.9 -27.1306640625 8.252734375 -24 9.85
L -23.95 9.85
Q -16.6271484375 7.5392578125 -11.25 8.4 -5.8873046875 9.265625 -3.5 8.75 -1.13515625 8.2087890625 1.1 7.5 3.3763671875 6.851953125 4.1 6.75 4.8970703125 6.7099609375 5.1 6.7 Z"/>
</g>

<g id="FS_FrontLeg_3_4_upperfs_new_6_Layer0_0_FILL">
<path fill="#EBD463" stroke="none" d="
M -4.8 4.8
Q -5.25078125 3.61484375 -6.05 2.15 -6.7310546875 7.5908203125 -8.05 10.25
L -7.6 9.4
Q -7.8115234375 9.965625 -8 10.5 -7.66796875 10.4953125 -7.4 10.45 -2.8134765625 10.0880859375 -4.8 4.8
M 19.55 15.2
Q 19.548046875 10.151171875 16.45 6.3 13.576171875 2.2455078125 7.9 -0.4 9.5689453125 0.664453125 10.9 1.95 14.6564453125 5.6427734375 15.85 11.25 16.4048828125 13.7087890625 16.45 16.55
L 16.45 16.5
Q 16.285546875 18.300390625 15.55 19.85 13.824609375 25.093359375 5.15 26.6
L 5.1 26.6
Q 0.4158203125 26.549609375 -3.65 27 -1.5599609375 28.8796875 2.25 29.4 11.091015625 29.5318359375 15.3 25.35
L 15.3 25.35
Q 19.54765625 21.112890625 19.55 15.2 Z"/>

<path fill="#FFF8AD" stroke="none" d="
M 15.85 11.25
Q 14.6564453125 5.6427734375 10.9 1.95 9.5689453125 0.664453125 7.9 -0.4 1.8404296875 -0.3458984375 -6.05 2.15 -5.25078125 3.61484375 -4.8 4.8 -2.8134765625 10.0880859375 -7.4 10.45 -7.66796875 10.4953125 -8 10.5 -8.6787109375 12.6267578125 -8.8 14.25 -8.95546875 17.5822265625 -8.4 19.8 -7.8125 22.023828125 -3.65 27 0.4158203125 26.549609375 5.1 26.6
L 5.15 26.6
Q 13.824609375 25.093359375 15.55 19.85 16.285546875 18.300390625 16.45 16.5
L 16.45 16.55
Q 16.4048828125 13.7087890625 15.85 11.25 Z"/>
</g>

<g id="FS_HoofWrinklefs_new_1_Layer0_0_FILL">
<path fill="#EBD463" stroke="none" d="
M -3.5 16.85
Q -8.258203125 11.0177734375 -6.65 -3.35 -13.3845703125 10.7171875 -3.5 16.85
M 5.1 -10.5
Q 0.6984375 -8.3498046875 -4.6 -7.55 2.472265625 -4.8521484375 5.1 -10.5 Z"/>
</g>

<g id="FS_Hair_02fs_new_4_Layer1_0_FILL">
<path fill="#F4B6D1" stroke="none" d="
M 64.65 166.75
Q 64.6107421875 166.6939453125 64.55 166.6 64.354296875 166.7171875 64.1 166.8 64.4390625 166.81015625 64.75 166.8 64.709375 166.78203125 64.65 166.75
M 68.95 135.45
Q 66.2615234375 133.025 63.4 134.65 63.508203125 134.774609375 63.45 134.9
L 63.3 135.6
Q 68.3712890625 136.4349609375 71.55 139.9 70.5560546875 136.9380859375 68.95 135.45
M 35.15 48.15
Q 34.176953125 47.179296875 33.1 46.5 36.0060546875 56.1888671875 36.2 65.1 36.4958984375 74.8173828125 33.55 98.2 30.9587890625 119.313671875 32.15 131.25 34.0263671875 149.7251953125 41.8 158.1 47.3345703125 163.9544921875 53.55 165.9 57.167578125 167.052734375 60.35 166.55 57.2626953125 165.52578125 55.1 162.8 46.8341796875 152.4890625 44.85 136.5 43.559765625 125.9244140625 44.95 107.85 46.052734375 93.8072265625 45.9 85.7 45.6748046875 73.6587890625 42.95 63.9 39.90859375 52.775390625 35.15 48.15
M 2.75 -24.75
Q 2.6294921875 -22.9779296875 2.75 -21.2 3.228125 -15.64609375 5.95 -8.9 7.7974609375 -12.9791015625 9.9 -16.4 15.37890625 -25.0669921875 23 -30.4 31.8384765625 -36.441796875 41.05 -36.15 51.621484375 -35.7453125 60.8 -27.25 58.507421875 -30.5625 55.8 -33.5 46.4533203125 -38.9224609375 36.85 -39.4 22.3384765625 -40.1376953125 8.7 -29.8 5.6578125 -27.496875 2.75 -24.75
M 6.65 -7.25
Q 6.8005859375 -6.884375 6.95 -6.55 8.717578125 -2.6275390625 14.1 7 25.987890625 28.519921875 28.8 34.8 31.0232421875 39.8861328125 32.6 44.75 40.9427734375 48.439453125 45 65.7 47.2958984375 75.4240234375 47.35 87.2 47.4517578125 94.84375 46.35 109 45.5326171875 119.91875 45.55 125.8 45.6029296875 135.2267578125 47.4 142.5 48.9443359375 148.689453125 52.45 155.7 56.481640625 163.79765625 60.45 165.5 61.3296875 165.89140625 62.15 166.1 64.66640625 165.3212890625 66.85 163.45 72.4353515625 158.7697265625 73.05 151.3 71.376953125 154.1185546875 67.75 155.35 60.4431640625 157.769921875 53.65 145 48.720703125 135.5041015625 51.65 117.1 52.765234375 110.2392578125 55.15 100.7 57.95546875 89.8513671875 59.3 84.4 65.03046875 62.7025390625 67.8 51.8 72.298828125 34.0896484375 72.85 20.2 73.63984375 2.893359375 68.65 -11.4 66.82265625 -16.698828125 64.35 -21.35 54.568359375 -33.3224609375 43.75 -35.15 32.444140625 -37.0126953125 22.1 -28.85 13.3001953125 -21.824609375 8 -10.35 7.3162109375 -8.8294921875 6.65 -7.25
M 7.35 -36.85
Q 3.916796875 -31.8771484375 3 -26.7 4.9833984375 -28.4810546875 7 -30.1 20.6740234375 -40.830078125 34.9 -40.6 44.1814453125 -40.45 53.15 -36.2 45.5353515625 -43.3919921875 38.05 -46.7 27.993359375 -51.05625 19.95 -47.4 12.2271484375 -43.90078125 7.35 -36.85 Z"/>

<path fill="#E781B3" stroke="none" d="
M 8.85 -41.95
Q 4.1453125 -37.525 1.8 -31.6 -0.623828125 -25.60390625 -0.15 -19.3 0.221484375 -15.0275390625 4.35 -5.55 6.8001953125 0.0916015625 11.7 8.9 23.8705078125 30.784375 26.3 36.3 32.908203125 51.159765625 33.3 67.2 33.5640625 76.8796875 30.65 100.2 28.0646484375 121.2244140625 29.3 133.2 31.6478515625 156.334375 46.7 165.6 52.7576171875 169.3390625 60.15 167.9 62.2607421875 167.5337890625 64.1 166.8 64.354296875 166.7171875 64.55 166.6 68.88046875 164.8142578125 72 161.15 75.9458984375 156.573828125 76.15 149.05 76.365234375 141.993359375 73.3 136.45 71.827734375 133.7654296875 69.1 132.85 66.5970703125 131.96640625 63.8 132.75 61.2009765625 133.54296875 59.45 135.45
L 58.2 137.15 60.95 137.15
Q 63.83046875 137.43671875 66.45 139.1 69.25546875 140.9087890625 70.6 143.5 72.021875 146.3798828125 71.15 149.35 68.9794921875 157.0029296875 62.9 151.85 58.3654296875 147.9623046875 55.6 142.05 54.889453125 140.5287109375 54.4 138.75
L 53.95 137.1
Q 53.1310546875 133.1435546875 53.3 128.2 53.451171875 123.38046875 55 114.05 56.1384765625 107.4630859375 58.65 97.75
L 62.85 81.55
Q 68.828515625 60.0115234375 71.45 49.1 76.095703125 30.05625 76 16 75.904296875 -16.0134765625 57.8 -35.4 46.253515625 -47.7859375 32.85 -50.25 20.2212890625 -52.522265625 8.85 -41.95
M 3 -26.7
Q 3.916796875 -31.8771484375 7.35 -36.85 12.2271484375 -43.90078125 19.95 -47.4 27.993359375 -51.05625 38.05 -46.7 45.5353515625 -43.3919921875 53.15 -36.2 44.1814453125 -40.45 34.9 -40.6 20.6740234375 -40.830078125 7 -30.1 4.9833984375 -28.4810546875 3 -26.7
M 6.95 -6.55
Q 6.8005859375 -6.884375 6.65 -7.25 7.3162109375 -8.8294921875 8 -10.35 13.3001953125 -21.824609375 22.1 -28.85 32.444140625 -37.0126953125 43.75 -35.15 54.568359375 -33.3224609375 64.35 -21.35 66.82265625 -16.698828125 68.65 -11.4 73.63984375 2.893359375 72.85 20.2 72.298828125 34.0896484375 67.8 51.8 65.03046875 62.7025390625 59.3 84.4 57.95546875 89.8513671875 55.15 100.7 52.765234375 110.2392578125 51.65 117.1 48.720703125 135.5041015625 53.65 145 60.4431640625 157.769921875 67.75 155.35 71.376953125 154.1185546875 73.05 151.3 72.4353515625 158.7697265625 66.85 163.45 64.66640625 165.3212890625 62.15 166.1 61.3296875 165.89140625 60.45 165.5 56.481640625 163.79765625 52.45 155.7 48.9443359375 148.689453125 47.4 142.5 45.6029296875 135.2267578125 45.55 125.8 45.5326171875 119.91875 46.35 109 47.4517578125 94.84375 47.35 87.2 47.2958984375 75.4240234375 45 65.7 40.9427734375 48.439453125 32.6 44.75 31.0232421875 39.8861328125 28.8 34.8 25.987890625 28.519921875 14.1 7 8.717578125 -2.6275390625 6.95 -6.55
M 2.75 -21.2
Q 2.6294921875 -22.9779296875 2.75 -24.75 5.6578125 -27.496875 8.7 -29.8 22.3384765625 -40.1376953125 36.85 -39.4 46.4533203125 -38.9224609375 55.8 -33.5 58.507421875 -30.5625 60.8 -27.25 51.621484375 -35.7453125 41.05 -36.15 31.8384765625 -36.441796875 23 -30.4 15.37890625 -25.0669921875 9.9 -16.4 7.7974609375 -12.9791015625 5.95 -8.9 3.228125 -15.64609375 2.75 -21.2
M 33.1 46.5
Q 34.176953125 47.179296875 35.15 48.15 39.90859375 52.775390625 42.95 63.9 45.6748046875 73.6587890625 45.9 85.7 46.052734375 93.8072265625 44.95 107.85 43.559765625 125.9244140625 44.85 136.5 46.8341796875 152.4890625 55.1 162.8 57.2626953125 165.52578125 60.35 166.55 57.167578125 167.052734375 53.55 165.9 47.3345703125 163.9544921875 41.8 158.1 34.0263671875 149.7251953125 32.15 131.25 30.9587890625 119.313671875 33.55 98.2 36.4958984375 74.8173828125 36.2 65.1 36.0060546875 56.1888671875 33.1 46.5
M 63.4 134.65
Q 66.2615234375 133.025 68.95 135.45 70.5560546875 136.9380859375 71.55 139.9 68.3712890625 136.4349609375 63.3 135.6 63.1408203125 135.601171875 62.95 135.55 62.6103515625 135.5271484375 62.25 135.5 62.654296875 135.1478515625 63.1 134.85 63.2681640625 134.7396484375 63.4 134.65 Z"/>
</g>

<g id="FS_Skullfs_new_2_Layer0_0_FILL">
<path fill="#EBD463" stroke="none" d="
M 17.3 -50
Q 10.4 -52.1 0.9 -52.25 -8.45 -52.4 -16.75 -49.2 -25.55 -45.75 -31.05 -39.3 -46.1 -21.6 -46.1 -1.1 -46.1 11.3 -43.4 20.4 -40.6 29.75 -34.65 36.5 -27.65 44.55 -18.5 48.75 -9.25 53.05 1.5 53.05 22.65 53.05 37 36.5 42.8 29.9 45.45 20.1 47.85 11.1 47.9 -1.7 47.85 -23.45 33.4 -39.9 27.2 -47.05 17.3 -50
M 0.9 -49.25
Q 10.95 -48.85 16.65 -47.2 25.35 -44.6 31.15 -37.95 44.85 -22.3 44.9 -1.7 44.85 10.45 42.6 18.95 40.15 28.25 34.75 34.55 21.25 50.05 1.5 50.05 -8.55 50.05 -17.25 46.05 -25.8 42.1 -32.4 34.55 -38 28.1 -40.6 19.25 -43.1 10.65 -43.1 -1.1 -43.1 -21 -28.8 -37.35 -22.85 -44.2 -14.2 -47.15 -7.25 -49.55 0.9 -49.25 Z"/>

<path fill="#FFF8AD" stroke="none" d="
M 16.65 -47.2
Q 10.95 -48.85 0.9 -49.25 -7.25 -49.55 -14.2 -47.15 -22.85 -44.2 -28.8 -37.35 -43.1 -21 -43.1 -1.1 -43.1 10.65 -40.6 19.25 -38 28.1 -32.4 34.55 -25.8 42.1 -17.25 46.05 -8.55 50.05 1.5 50.05 21.25 50.05 34.75 34.55 40.15 28.25 42.6 18.95 44.85 10.45 44.9 -1.7 44.85 -22.3 31.15 -37.95 25.35 -44.6 16.65 -47.2 Z"/>
</g>

<g id="FS_Earfs_new_5_Layer1_0_FILL">
<path fill="#A66BBF" stroke="none" d="
M -3.95 16.85
L -4.9 16.3 -5.05 16.8
Q -4.5166015625 16.847265625 -3.95 16.85 Z"/>

<path fill="#FFF8AD" stroke="none" d="
M -20.1 -26.3
Q -23.571484375 -10.808203125 -20.3 -0.7 -17.3537109375 8.1306640625 -8.85 13.95
L -8.35 14.3 -8.3 14.3
Q -7.203125 15.0419921875 -4.9 16.3
L -3.95 16.85
Q 2.99140625 6.6712890625 2.75 -9.6
L 2.75 -17.95
Q 2.75 -21.5072265625 2.75 -23.35
L 2.75 -23.4
Q 2.4267578125 -39.3626953125 -6.15 -49.6 -16.8560546875 -40.4384765625 -20.1 -26.3 Z"/>

<path fill="#EBD463" stroke="none" d="
M -5.95 -53.2
Q -6.4943359375 -53.24140625 -6.95 -52.9 -19.4068359375 -42.8458984375 -23.05 -26.95 -26.7287109375 -10.491796875 -23.15 0.25 -20.4 8.6 -10.6 15.3 -8.6201171875 16.63046875 -5.05 16.8
L -4.9 16.3
Q -7.203125 15.0419921875 -8.3 14.3
L -8.35 14.3 -8.85 13.95
Q -17.3537109375 8.1306640625 -20.3 -0.7 -23.571484375 -10.808203125 -20.1 -26.3 -16.8560546875 -40.4384765625 -6.15 -49.6 2.4267578125 -39.3626953125 2.75 -23.4
L 2.75 -23.35
Q 2.75 -21.5072265625 2.75 -17.95
L 2.75 -9.6
Q 4.41796875 -13.762109375 5.75 -23.35
L 5.75 -24.9 5.7 -24.9
Q 4.966796875 -41.784765625 -4.75 -52.5 -4.764453125 -52.5748046875 -4.85 -52.65 -5.1345703125 -53.02421875 -5.6 -53.15
L -5.85 -53.2
Q -5.8873046875 -53.20390625 -5.95 -53.2 Z"/>
</g>

<g id="FS_Earfs_new_6_Layer1_0_FILL">
<path fill="#A66BBF" stroke="none" d="
M -0.65 -14.4
L -0.65 -15.9 -1.1 -15.9
Q -0.8904296875 -15.16328125 -0.65 -14.4
M 4.6 19.7
L 4.6 19.7 4.6 19.65 4.55 19.65 4.6 19.7 Z"/>

<path fill="#D19FE4" stroke="none" d="
M 5.75 18.7
L 5.7 18.7 5.5 18.9
Q 5.6384765625 18.7990234375 5.75 18.7 Z"/>

<path fill="#FFF8AD" stroke="none" d="
M 21.1 -7.35
Q 23.455078125 -19.7173828125 20 -31.6 16.6439453125 -43.123828125 9 -49.4 0.3212890625 -38.8369140625 -0.55 -21
L -0.6 -19.45
Q -0.6498046875 -17.705078125 -0.65 -15.9
L -0.65 -14.4
Q 0.4736328125 3.6412109375 4.6 19.65
L 5.7 18.7 5.75 18.7
Q 5.75703125 18.69375 5.75 18.7 8.1162109375 16.587890625 9.25 15.4
L 9.9 14.7
Q 18.7443359375 5.3640625 21.1 -7.35 Z"/>

<path fill="#EBD463" stroke="none" d="
M 8.7 -52.95
Q 8.0990234375 -52.9130859375 7.65 -52.45 -1.3 -42.45 -2.35 -25.3 -2.6138671875 -21.296875 -1.1 -15.9
L -0.65 -15.9
Q -0.6498046875 -17.705078125 -0.6 -19.45
L -0.55 -21
Q 0.3212890625 -38.8369140625 9 -49.4 16.6439453125 -43.123828125 20 -31.6 23.455078125 -19.7173828125 21.1 -7.35 18.7443359375 5.3640625 9.9 14.7
L 9.25 15.4
Q 8.1162109375 16.587890625 5.75 18.7 5.75703125 18.69375 5.75 18.7 5.6384765625 18.7990234375 5.5 18.9
L 5.7 18.7 4.6 19.65 4.6 19.7
Q 10.8576171875 18.2390625 14.9 12.45 22.4810546875 1.691796875 24.05 -6.8 26.5447265625 -19.8826171875 22.9 -32.45 19.01640625 -45.780078125 9.8 -52.6 9.752734375 -52.6173828125 9.7 -52.65 9.2767578125 -52.9833984375 8.7 -52.95 Z"/>
</g>

<g id="FS_Neckfs_new_3_Layer0_0_FILL">
<path fill="#FDF6AE" stroke="none" d="
M 14.55 -6.45
L 14.5 -6.45 14.1 -11.75
Q 13.95 -17.4 9.95 -20.45 6.25 -23.25 0.45 -23 -13.15 -22.45 -14.5 -11.9
L -14.85 -6.45 -14.8 -6.45 -16.35 40.2
Q -15.9587890625 49.69609375 -1.45 51 15.338671875 52.17109375 16.75 40.05
L 14.55 -6.45 Z"/>

<path fill="#EBD564" stroke="none" d="
M 16.5 -0.95
L 16.5 -1
Q 16.35 -4.15 14.55 -6.45
L 14.55 -6.45 16.75 40.05
Q 15.338671875 52.17109375 -1.45 51 -15.9587890625 49.69609375 -16.35 40.2
L -14.8 -6.45
Q -16.8 -3.35 -16.7 -0.9
L -19.35 39.95 -19.35 40
Q -19.35078125 40.0619140625 -19.35 40.1 -19.450390625 52.4119140625 -1.7 54
L -1.65 54
Q 18.469140625 55.41328125 19.8 40.25
L 19.8 40.25
Q 19.80625 40.179296875 19.8 40.1 19.80546875 40.0416015625 19.8 39.95
L 19.8 39.95 16.5 -0.95 Z"/>
</g>

<g id="FS_Manefs_new_4_Layer0_0_FILL">
<path fill="#000000" stroke="none" d="
M -19.7 -16.75
L -19.75 -16.8 -19.8 -16.9
Q -19.762109375 -16.8255859375 -19.75 -16.8 -19.7802734375 -16.7255859375 -19.85 -16.7 -19.7609375 -16.7103515625 -19.7 -16.75
M -34.8 22.75
Q -34.7599609375 22.6541015625 -34.75 22.55
L -34.85 22.7
Q -34.7986328125 22.735546875 -34.8 22.75 Z"/>

<path fill="#E781B3" stroke="none" d="
M -59.4 -28.05
Q -64.958984375 -21.718359375 -71.75 -7.25 -77.891015625 5.9248046875 -82.75 23.45 -88.3259765625 44.2013671875 -88.9 57.65 -89.55234375 71.7271484375 -85.75 91.8 -83.62421875 103.11796875 -79 125.55 -76.2388671875 142.087109375 -75.6 155.95 -75.172265625 163.975 -75.7 171.95 -76.0888671875 179.622265625 -78.35 182.85 -79.6974609375 184.776953125 -81.85 184.6 -83.74296875 184.5328125 -85.5 182.9 -88.362109375 180.1970703125 -88.35 174.6 -88.279296875 172.4091796875 -87.4 169.65 -86.97578125 168.187890625 -86.3 168.85 -86.1482421875 168.962109375 -85.2 170.55 -84.19453125 172.1146484375 -83.6 173.8 -83.4814453125 174.0853515625 -83.4 174.35 -83.3603515625 174.472265625 -83.35 174.6
L -83 175.8
Q -82.880859375 176.31953125 -82.8 176.85
L -82.6 178.75
Q -81.151171875 175.78203125 -80.6 173.2 -79.2341796875 166.9283203125 -83 163.05 -84.840234375 161.1419921875 -87.85 161.2 -90.471484375 161.2654296875 -92.85 162.75 -98.20546875 166.2642578125 -96.8 179.25 -95.383984375 191.876171875 -87.95 197.65 -81.593359375 202.6171875 -70.8 198.05 -63.3814453125 194.8650390625 -57.05 184.3 -51.9064453125 175.681640625 -47.6 162 -43.1685546875 146.2056640625 -40.85 138.6 -33.921875 116.2451171875 -33.4 94.35 -33.300390625 89.6822265625 -33.6 82.4 -34.023828125 71.9224609375 -34.05 70.45 -34.2943359375 60.152734375 -33.9 46.2 -33.0244140625 17.861328125 -30.55 3.75 -28.4064453125 -8.4869140625 -22 -14.85 -20.9310546875 -15.8859375 -19.75 -16.8 -19.7703125 -16.8330078125 -19.8 -16.9
L -19.8 -16.9 -19.8 -16.9 -19.75 -16.8 -19.7 -16.75
Q -15.71328125 -19.1806640625 -13.1 -20.35 -9.2369140625 -22.05234375 -4.65 -23.55 -9.023828125 -23.0841796875 -13.1 -21.7 -16.8458984375 -20.423828125 -20.35 -18.35 -20.9421875 -19.83359375 -21.6 -21.15 -27.37890625 -33.311328125 -38.55 -36 -49.946484375 -38.7677734375 -59.4 -28.05
M -40.05 -34.15
Q -32.25 -32.334375 -27.05 -25.1 -24.569921875 -21.60703125 -22.65 -16.6 -24.863671875 -14.92265625 -26.55 -12.85 -31.853125 -6.028515625 -33.9 7.25 -34.151171875 8.9072265625 -34.4 10.6 -39.95703125 6.1931640625 -47.5 7.05 -56.9896484375 8.1556640625 -64 19.45 -68.3501953125 26.4138671875 -72.65 39.55 -81.2416015625 65.9716796875 -80.8 94.45 -80.7544921875 95.062890625 -80.55 101.3 -84.6208984375 80.4630859375 -85.45 72.6 -87.1416015625 56.1470703125 -82.95 36.35 -78.9080078125 17.0951171875 -72.15 0.1 -63.537890625 -21.1693359375 -54.65 -29.95 -48.4576171875 -36.05 -40.05 -34.15
M -38.1 21.6
Q -36.7818359375 21.7201171875 -35.7 22.25 -37.5505859375 43.7048828125 -36.95 72.6 -36.7771484375 78.4517578125 -36.5 89.95 -36.34296875 99.8970703125 -37.05 107.25 -38.555859375 122.700390625 -44.55 141.85 -46.8755859375 149.3669921875 -51.35 164.7 -55.661328125 177.915234375 -60.95 186.35 -65.0435546875 193.0271484375 -70.35 196.4 -76.9791015625 200.695703125 -83.25 197.85 -91.3521484375 194.19375 -93.75 179.4 -94.5810546875 173.9908203125 -93.6 168.45 -92.19921875 160.6779296875 -87.35 162.9 -84.2564453125 164.3072265625 -83.5 167.8 -84.448828125 166.9109375 -85.6 166.55 -89.21875 165.3779296875 -90.6 170.65 -91.6119140625 174.6361328125 -91.05 178.4 -90.8345703125 179.5525390625 -90.45 180.55 -90.4123046875 181.652734375 -90.3 182.7 -88.9822265625 195.461328125 -78.2 197.3 -72.3908203125 198.3259765625 -68.15 190.45 -64.1822265625 183.0849609375 -63.95 169.4 -63.819921875 161.4908203125 -65.45 151.4 -66.2193359375 146.7603515625 -69 133.65 -72.9775390625 114.5125 -73 100.8 -73.0900390625 65.9177734375 -60.7 41.35 -50.4666015625 20.771484375 -38.1 21.6
M -34.75 22.55
Q -34.7599609375 22.6541015625 -34.8 22.75 -34.7986328125 22.735546875 -34.85 22.7
L -34.75 22.55
M -36 10.95
Q -35.253125 11.46875 -34.6 12 -35.13515625 16.4044921875 -35.6 21.15 -37.9369140625 20.3544921875 -41.1 21.05 -44.6697265625 21.815625 -48.35 24.2 -55.92109375 29.1541015625 -62.6 42.45 -67.6033203125 52.416796875 -71.1 69.05 -77.522265625 99.5779296875 -70.75 132.6 -69.79375 137.1634765625 -67.7 147 -65.9841796875 155.756640625 -65.45 162.25 -63.86328125 179.958984375 -70 191.35 -71.9548828125 195.0177734375 -74.95 196 -78.0462890625 197.0595703125 -81.5 194.85 -86.7279296875 191.551171875 -88.5 184.8 -88.712890625 184.0328125 -88.9 183.2 -88.3666015625 183.8390625 -87.75 184.35 -85.0416015625 186.7244140625 -81.55 186.5 -74.1267578125 185.974609375 -72.95 174.2 -71.468359375 159.3171875 -73.65 140.7 -74.9943359375 129.055859375 -78.75 110.25 -78.771875 107.416796875 -78.9 104.3 -80.1306640625 76.9720703125 -75.2 54.3 -72.4404296875 41.39296875 -67.5 29.8 -61.5318359375 15.7298828125 -54.55 10.75 -50.387890625 7.8962890625 -45.25 8 -40.31484375 8.102734375 -36 10.95 Z"/>

<path fill="#F4B6D1" stroke="none" d="
M -34.6 12
Q -35.253125 11.46875 -36 10.95 -40.31484375 8.102734375 -45.25 8 -50.387890625 7.8962890625 -54.55 10.75 -61.5318359375 15.7298828125 -67.5 29.8 -72.4404296875 41.39296875 -75.2 54.3 -80.1306640625 76.9720703125 -78.9 104.3 -78.771875 107.416796875 -78.75 110.25 -74.9943359375 129.055859375 -73.65 140.7 -71.468359375 159.3171875 -72.95 174.2 -74.1267578125 185.974609375 -81.55 186.5 -85.0416015625 186.7244140625 -87.75 184.35 -88.3666015625 183.8390625 -88.9 183.2 -88.712890625 184.0328125 -88.5 184.8 -86.7279296875 191.551171875 -81.5 194.85 -78.0462890625 197.0595703125 -74.95 196 -71.9548828125 195.0177734375 -70 191.35 -63.86328125 179.958984375 -65.45 162.25 -65.9841796875 155.756640625 -67.7 147 -69.79375 137.1634765625 -70.75 132.6 -77.522265625 99.5779296875 -71.1 69.05 -67.6033203125 52.416796875 -62.6 42.45 -55.92109375 29.1541015625 -48.35 24.2 -44.6697265625 21.815625 -41.1 21.05 -37.9369140625 20.3544921875 -35.6 21.15 -35.13515625 16.4044921875 -34.6 12
M -35.7 22.25
Q -36.7818359375 21.7201171875 -38.1 21.6 -50.4666015625 20.771484375 -60.7 41.35 -73.0900390625 65.9177734375 -73 100.8 -72.9775390625 114.5125 -69 133.65 -66.2193359375 146.7603515625 -65.45 151.4 -63.819921875 161.4908203125 -63.95 169.4 -64.1822265625 183.0849609375 -68.15 190.45 -72.3908203125 198.3259765625 -78.2 197.3 -88.9822265625 195.461328125 -90.3 182.7 -90.4123046875 181.652734375 -90.45 180.55 -90.8345703125 179.5525390625 -91.05 178.4 -91.6119140625 174.6361328125 -90.6 170.65 -89.21875 165.3779296875 -85.6 166.55 -84.448828125 166.9109375 -83.5 167.8 -84.2564453125 164.3072265625 -87.35 162.9 -92.19921875 160.6779296875 -93.6 168.45 -94.5810546875 173.9908203125 -93.75 179.4 -91.3521484375 194.19375 -83.25 197.85 -76.9791015625 200.695703125 -70.35 196.4 -65.0435546875 193.0271484375 -60.95 186.35 -55.661328125 177.915234375 -51.35 164.7 -46.8755859375 149.3669921875 -44.55 141.85 -38.555859375 122.700390625 -37.05 107.25 -36.34296875 99.8970703125 -36.5 89.95 -36.7771484375 78.4517578125 -36.95 72.6 -37.5505859375 43.7048828125 -35.7 22.25
M -27.05 -25.1
Q -32.25 -32.334375 -40.05 -34.15 -48.4576171875 -36.05 -54.65 -29.95 -63.537890625 -21.1693359375 -72.15 0.1 -78.9080078125 17.0951171875 -82.95 36.35 -87.1416015625 56.1470703125 -85.45 72.6 -84.6208984375 80.4630859375 -80.55 101.3 -80.7544921875 95.062890625 -80.8 94.45 -81.2416015625 65.9716796875 -72.65 39.55 -68.3501953125 26.4138671875 -64 19.45 -56.9896484375 8.1556640625 -47.5 7.05 -39.95703125 6.1931640625 -34.4 10.6 -34.151171875 8.9072265625 -33.9 7.25 -31.853125 -6.028515625 -26.55 -12.85 -24.863671875 -14.92265625 -22.65 -16.6 -24.569921875 -21.60703125 -27.05 -25.1 Z"/>
</g>

<g id="FS_Torsofs_new_4_Layer0_0_FILL">
<path fill="#EBD564" stroke="none" d="
M 24.3 -25.15
Q 14.44609375 -35.7625 0.5 -35.75 -13.498828125 -35.7625 -23.3 -25.15 -33.146484375 -14.5494140625 -33.1 0.4 -33.146484375 15.3494140625 -23.3 25.9 -13.4990234375 36.614453125 0.5 36.6 14.4466796875 36.6142578125 24.3 25.9 34.1447265625 15.3482421875 34.15 0.45 34.143359375 -14.5498046875 24.3 -25.15
M 0.5 -32.75
Q 13.153515625 -32.7376953125 22.1 -23.1 31.1564453125 -13.350390625 31.15 0.45 31.1548828125 14.1517578125 22.1 23.85 13.1533203125 33.5853515625 0.5 33.6 -12.201171875 33.585546875 -21.1 23.85 -30.15390625 14.1505859375 -30.1 0.4 -30.15390625 -13.3505859375 -21.1 -23.1 -12.2013671875 -32.7376953125 0.5 -32.75 Z"/>

<path fill="#FDF6AE" stroke="none" d="
M 22.1 -23.1
Q 13.153515625 -32.7376953125 0.5 -32.75 -12.2013671875 -32.7376953125 -21.1 -23.1 -30.15390625 -13.3505859375 -30.1 0.4 -30.15390625 14.1505859375 -21.1 23.85 -12.201171875 33.585546875 0.5 33.6 13.1533203125 33.5853515625 22.1 23.85 31.1548828125 14.1517578125 31.15 0.45 31.1564453125 -13.350390625 22.1 -23.1 Z"/>
</g>

<g id="FS_FrontLeg_3_4_hooffs_new_6_Layer0_0_FILL">
<path fill="#FFF8AD" stroke="none" d="
M -0.95 -17.2
Q -8.6921875 -16.7904296875 -12.35 -12.4 -15.971875 -8.0099609375 -18.15 -4 -20.324609375 0.0544921875 -21.9 7.4 -23.42421875 14.7861328125 -17.1 18.5 -10.7796875 22.268359375 0.15 20.85 11.0783203125 19.4369140625 14.05 14.5 17.0837890625 9.596484375 17.4 1.25 17.7197265625 -7.051171875 12.3 -12.35 6.8671875 -17.5837890625 -0.95 -17.2 Z"/>
</g>

<g id="FS_KneePatchfs_new_4_Layer0_0_FILL">
<path fill="#EBD463" stroke="none" d="
M 9.2 -18.2
L 9.2 -18.25
Q 4.6197265625 -23.7099609375 -1.2 -24.35
L -1.25 -24.35
Q -7.3267578125 -25.0107421875 -11.15 -20.2 -14.843359375 -15.626171875 -14.3 -8.55 -14.2642578125 -8.4875 -14.25 -8.45 -14.19453125 -7.536328125 -14.05 -6.65
L -14.05 -6.6
Q -13.9775390625 -6.362109375 -13.95 -6.15 -13.7419921875 -5.184765625 -13.5 -4.2 -10.869921875 7.099609375 -10.9 18 -11.069140625 20.055078125 -9.7 22.1
L -9.7 22.15
Q -7.5130859375 25.533984375 -2.25 26.95 2.95 28.25625 8.35 26.35 14.11953125 24.372265625 15.45 18.95 16.8001953125 13.849609375 15.75 10.2
L 15.75 10.2
Q 14.7486328125 6.69765625 13.95 5.1 13.3763671875 3.9025390625 13.6 2.3 13.9638671875 0.1275390625 14 -0.25
L 14 -0.2
Q 14.537109375 -2.729296875 14.3 -5.8 13.66171875 -12.7482421875 9.2 -18.2 Z"/>
</g>

<g id="FS_HindLeg_3_4_topfs_new_4_Layer1_0_FILL">
<path fill="#EBD463" stroke="none" d="
M -21.95 12.95
L -21.95 12.95 -21.7 11.85 -21.95 12.95
M 8.75 36.05
Q 8.451171875 39.5978515625 7.65 43.2 3.0630859375 70.378125 -6.55 71.25 -12.30078125 70.5431640625 -17.05 55.6 -18.683984375 49.3365234375 -19.65 43.4 -21.969140625 27.7525390625 -19.05 13.65
L -18.7 12.2
Q -18.6283203125 11.8919921875 -18.55 11.55
L -18.5 11.05
Q -17.55 7.3125 -16.2 3.7 -16.094921875 3.3857421875 -16 3.05
L -15.45 1.65 -15.6 1.6
Q -19.034375 2.8314453125 -22.25 14.65 -24.83359375 28.335546875 -22.65 43.4 -22.44453125 44.6451171875 -22.25 45.9 -17.1322265625 70.4294921875 -7.3 73.3 4.542578125 74.3546875 9.65 45.7 9.8201171875 44.5220703125 9.95 43.2 10.61171875 36.7974609375 10.25 28.05 8.8962890625 32.4822265625 8.8 34.2
L 8.75 36.05 Z"/>

<path fill="#FFF8AD" stroke="none" d="
M 7.65 43.2
Q 8.451171875 39.5978515625 8.75 36.05
L 8.8 34.2
Q 8.8962890625 32.4822265625 10.25 28.05
L -16.2 3.7
Q -17.55 7.3125 -18.5 11.05
L -18.55 11.55
Q -18.6283203125 11.8919921875 -18.7 12.2
L -19.05 13.65
Q -21.969140625 27.7525390625 -19.65 43.4 -18.683984375 49.3365234375 -17.05 55.6 -12.30078125 70.5431640625 -6.55 71.25 3.0630859375 70.378125 7.65 43.2 Z"/>
</g>

<g id="FS_HindLeg_3_4rear_lowerfs_new_2_Layer1_0_FILL">
<path fill="#FFF8AD" stroke="none" d="
M -5.65 -3.6
Q -13.0958984375 2.169140625 -8.9 12.2 -5.18671875 19.70546875 7.6 6.9 17.0154296875 -1.388671875 11.5 -5.15 1.836328125 -8.4703125 -5.65 -3.6 Z"/>
</g>

<g id="FS_HindLeg_3_4rear_lowerfs_new_2_Layer0_0_FILL">
<path fill="#FFF8AD" stroke="none" d="
M -10.2 3.35
Q -15.7921875 31.9404296875 -8.9 59.25
L 24.35 43.05
Q 15.0326171875 27.90546875 13.4 -2.55
L -10.2 3.35 Z"/>
</g>

<g id="FS_KneePatchfs_new_5_Layer0_0_FILL">
<path fill="#FFF8AD" stroke="none" d="
M 11.35 -0.65
L 11.4 -0.7
Q 11.8357421875 -2.842578125 11.6 -5.45 11.08125 -11.471484375 7.2 -16.2
L 7.2 -16.2
Q 3.4427734375 -20.68203125 -1.3 -21.3
L -1.3 -21.25
Q -5.7919921875 -21.7595703125 -8.65 -18.25 -11.578515625 -14.4427734375 -11.1 -8.6
L -11.1 -8.55
Q -11.0560546875 -7.824609375 -10.95 -7.1
L -10.95 -7.05
Q -10.8775390625 -6.8244140625 -10.85 -6.6
L -10.85 -6.6
Q -10.66640625 -5.7203125 -10.4 -4.85 -10.3890625 -4.79921875 -10.4 -4.8 -7.691015625 6.9328125 -7.75 18.2 -7.72421875 18.287890625 -7.75 18.35 -7.7744140625 19.4638671875 -7.05 20.6
L -7.05 20.55
Q -5.3037109375 23.04453125 -1.3 24.15
L -1.25 24.15
Q 3.0802734375 25.2138671875 7.6 23.6 11.82109375 22.1828125 12.85 18.3 13.9654296875 14.1068359375 13.15 11.1
L 13.15 11.15
Q 12.2634765625 7.9849609375 11.55 6.5 10.5513671875 4.5603515625 10.95 1.95
L 10.95 1.9
Q 11.3125 -0.278125 11.35 -0.65 Z"/>
</g>

<g id="FS_HoofWrinklefs_new_0_Layer0_0_FILL">
<path fill="#EBD463" stroke="none" d="
M 6.4 0.9
Q 6.229296875 0.7560546875 6.05 0.6 3.57890625 -1.2400390625 -0.2 -1.1 -3.897265625 -1.0052734375 -6.15 0.85 -6.28046875 0.943359375 -6.4 1.05
L -6.05 1
Q 0.6 0 5.95 0.8
L 6.4 0.9 Z"/>
</g>

<g id="FS_Tailfs_new_90_Layer9_0_FILL">
<path fill="#F4B6D1" stroke="none" d="
M 72.35 -7.4
Q 49.336328125 -29.051171875 30.65 -25.45 15.021875 -21.7318359375 -0.45 -1.15
L 4.5 12.5
Q 23.6060546875 5.5361328125 39.95 20.05 65.3005859375 46.396484375 96.1 43.05 126.9501953125 39.755859375 127.25 7.4 127.5958984375 -24.9181640625 115.05 -45.55 116.5328125 -19.044140625 105.95 -2.4 95.3650390625 14.29296875 72.35 -7.4 Z"/>
</g>

<g id="Mask_FS_Tailfs_new_90_7_MASK_0_FILL">
<path fill="#FFFFFF" stroke="none" d="
M 30.35 -26.9
L 30.35 -26.85
Q 14.1955078125 -23.17890625 -1.65 -2.05
L -2.15 -1.4 3.65 14.4 5.05 13.95
Q 23.302734375 7.2853515625 39 21.15 64.8115234375 48.0166015625 96.3 44.6 128.429296875 41.1333984375 128.8 7.45 129.1009765625 -25.3671875 116.3 -46.35
L 114.2 -50 113.35 -49.75 113.55 -45.5
Q 115.0158203125 -19.5185546875 104.65 -3.15 99.942578125 4.2958984375 92.45 3.25 84.4373046875 1.9677734375 73.35 -8.45 49.6814453125 -30.79765625 30.4 -26.9
L 30.35 -26.9 Z"/>
</g>

<path id="FS_FrontLeg_3_4_hooffs_new_6_Layer0_0_1_STROKES" stroke="#EBD463" stroke-width="3" stroke-linejoin="round" stroke-linecap="round" fill="none" d="
M -0.925 -17.175
Q 6.8671875 -17.5837890625 12.3 -12.325 17.7197265625 -7.051171875 17.4 1.275 17.0837890625 9.596484375 14.075 14.525 11.0783203125 19.4369140625 0.15 20.85 -10.7796875 22.268359375 -17.1 18.525 -23.42421875 14.7861328125 -21.875 7.425 -20.324609375 0.0544921875 -18.15 -3.975 -15.971875 -8.0099609375 -12.325 -12.4 -8.6921875 -16.7904296875 -0.925 -17.175 Z"/>

<path id="FS_HindLeg_3_4rear_lowerfs_new_2_Layer1_0_1_STROKES" stroke="#EBD463" stroke-width="3" stroke-linejoin="round" stroke-linecap="round" fill="none" d="
M -5.65 -3.6
Q 1.836328125 -8.4703125 11.5 -5.15 17.0154296875 -1.388671875 7.6 6.9 -5.18671875 19.70546875 -8.9 12.2 -13.0958984375 2.169140625 -5.65 -3.6 Z"/>

<path id="FS_HindLeg_3_4rear_lowerfs_new_2_Layer0_0_1_STROKES" stroke="#EBD463" stroke-width="3" stroke-linejoin="round" stroke-linecap="round" fill="none" d="
M -8.9 59.25
Q -15.7921875 31.9404296875 -10.2 3.35
M 13.4 -2.55
Q 15.0326171875 27.90546875 24.35 43.05"/>

<path id="FS_Tailfs_new_90_Layer9_0_1_STROKES" stroke="#E781B3" stroke-width="3" stroke-linejoin="miter" stroke-linecap="butt" stroke-miterlimit="3" fill="none" d="
M 72.35 -7.375
Q 95.3650390625 14.29296875 105.95 -2.375 116.5328125 -19.044140625 115.05 -45.55 127.5958984375 -24.9181640625 127.275 7.425 126.9501953125 39.755859375 96.125 43.075 65.3005859375 46.396484375 39.975 20.05 23.6060546875 5.5361328125 4.525 12.525
L -0.45 -1.15
Q 15.021875 -21.7318359375 30.675 -25.425 49.336328125 -29.051171875 72.35 -7.375 Z"/>

<path id="FS_Tailfs_new_90_Layer4_0_1_STROKES" stroke="#E781B3" stroke-width="1.5" stroke-linejoin="miter" stroke-linecap="butt" stroke-miterlimit="3" fill="none" d="
M 1 7.25
Q 20.4115234375 -2.63046875 38.3 11.35 56.1759765625 25.3265625 59.85 48.5"/>

<path id="FS_Tailfs_new_90_Layer3_0_1_STROKES" stroke="#E781B3" stroke-width="1.5" stroke-linejoin="miter" stroke-linecap="butt" stroke-miterlimit="3" fill="none" d="
M 124.05 -30.75
Q 128.9 39.4 90.4 30.3 75.2 24.75 59.15 6.05 36.35 -23.95 -3 2.15"/>

<path id="FS_Tailfs_new_90_Layer2_0_1_STROKES" stroke="#E781B3" stroke-width="2" stroke-linejoin="miter" stroke-linecap="butt" stroke-miterlimit="3" fill="none" d="
M 112.15 -42.55
Q 121.4564453125 13.2537109375 93.775 13.725 77.9125 10.5212890625 59.25 -5.6 32.223046875 -31.8447265625 -2.8 -0.2"/>
</defs>

<g transform="matrix( -0.47137451171875, 0, 0, 0.47137451171875, 284.2,145.15) ">
<g transform="matrix( 1, 0, 0, 1, 0,0) ">
<g transform="matrix( 0.9389495849609375, -0.3383941650390625, 0.33837890625, 0.9389495849609375, 4.2,6.1) ">
<g transform="matrix( 1, 0, 0, 1, 0,0) ">
<use xlink:href="#FS___WingcycleBACK2fs_new_4_Layer11_0_FILL"/>
</g>

<g transform="matrix( -0.2259979248046875, 0.3018646240234375, -0.3307342529296875, -0.24859619140625, 25.3,28.7) ">
<g transform="matrix( 1, 0, 0, 1, 0,0) ">
<use filter="url(#Filter_1)" xlink:href="#FS___st_stroke_08fs_new_0_Layer0_0_FILL"/>
</g>
</g>
</g>

<g transform="matrix( 0.966552734375, 0.0559234619140625, 0.1122894287109375, 1.0424652099609375, -21.55,17.8) ">
<g transform="matrix( 0.9151611328125, -0.3969268798828125, 0.3969268798828125, 0.9151611328125, -26.95,9.7) ">
<g transform="matrix( 1, 0, 0, 1, 0,0) ">
<use filter="url(#Filter_2)" xlink:href="#FS_FrontLeg_3_4_hooffs_new_7_Layer0_0_FILL"/>
</g>
</g>

<g transform="matrix( 0.995452880859375, 0.0920257568359375, -0.0920257568359375, 0.995452880859375, -3.9,-6.9) ">
<g transform="matrix( 1, 0, 0, 1, 0,0) ">
<use filter="url(#Filter_2)" xlink:href="#FS_FrontLeg_3_4_upperfs_new_6_Layer1_0_FILL"/>
</g>

<g transform="matrix( 1, 0, 0, 1, 0,0) ">
<use filter="url(#Filter_2)" xlink:href="#FS_FrontLeg_3_4_upperfs_new_6_Layer0_0_FILL"/>
</g>
</g>

<g transform="matrix( 1.0169219970703125, 0.2086181640625, 0.078216552734375, 0.994354248046875, -6.1,49.15) ">
<g transform="matrix( 1, 0, 0, 1, 0,0) ">
<use filter="url(#Filter_2)" xlink:href="#FS_HoofWrinklefs_new_1_Layer0_0_FILL"/>
</g>
</g>
</g>

<g transform="matrix( 0.9629364013671875, 0.0557861328125, 0.0112152099609375, 1.05303955078125, -65.25,28.35) ">
<g transform="matrix( 0.9151611328125, -0.3969268798828125, 0.3969268798828125, 0.9151611328125, -26.95,9.7) ">
<g transform="matrix( 1, 0, 0, 1, 0,0) ">
<use filter="url(#Filter_2)" xlink:href="#FS_FrontLeg_3_4_hooffs_new_7_Layer0_0_FILL"/>
</g>
</g>

<g transform="matrix( 0.995452880859375, 0.0920257568359375, -0.0920257568359375, 0.995452880859375, -3.9,-6.9) ">
<g transform="matrix( 1, 0, 0, 1, 0,0) ">
<use filter="url(#Filter_2)" xlink:href="#FS_FrontLeg_3_4_upperfs_new_6_Layer1_0_FILL"/>
</g>

<g transform="matrix( 1, 0, 0, 1, 0,0) ">
<use filter="url(#Filter_2)" xlink:href="#FS_FrontLeg_3_4_upperfs_new_6_Layer0_0_FILL"/>
</g>
</g>

<g transform="matrix( 1.0169219970703125, 0.2086181640625, 0.078216552734375, 0.994354248046875, -6.1,49.15) ">
<g transform="matrix( 1, 0, 0, 1, 0,0) ">
<use filter="url(#Filter_2)" xlink:href="#FS_HoofWrinklefs_new_1_Layer0_0_FILL"/>
</g>
</g>
</g>

<g transform="matrix( 0.9840087890625, -0.174774169921875, 0.174774169921875, 0.9840087890625, -85.25,-24.8) ">
<g transform="matrix( 1, 0, 0, 1, -16.55,-56.25) ">
<g transform="matrix( 1, 0, 0, 1, 0,0) ">
<use xlink:href="#FS_Hair_02fs_new_4_Layer1_0_FILL"/>
</g>
</g>

<g transform="matrix( 1.03985595703125, 0.005279541015625, -0.051849365234375, 0.99945068359375, -2.2,-11.15) ">
<g transform="matrix( 1, 0, 0, 1, 0,0) ">
<use xlink:href="#FS_Skullfs_new_2_Layer0_0_FILL"/>
</g>
</g>

<g transform="matrix( 1, 0, 0, 1, -31.45,-23.4) ">
<g transform="matrix( 1, 0, 0, 1, 0,0) ">
<use xlink:href="#FS_Earfs_new_5_Layer1_0_FILL"/>
</g>
</g>

<g transform="matrix( 1, 0, 0, 1, 33.8,-28.5) ">
<g transform="matrix( 1, 0, 0, 1, 0,0) ">
<use xlink:href="#FS_Earfs_new_6_Layer1_0_FILL"/>
</g>
</g>

<g transform="matrix( 0.9840087890625, 0.0013885498046875, -0.0080718994140625, 1.005340576171875, 33.85,-28.55) ">
<g transform="matrix( 1, 0, 0, 1, 0,0) ">
<use xlink:href="#FS_Earfs_new_6_Layer1_0_FILL"/>
</g>
</g>
</g>

<g transform="matrix( 0.882720947265625, -0.4647979736328125, 0.4647979736328125, 0.882720947265625, -68.25,-14.45) ">
<g transform="matrix( 1, 0, 0, 1, 0,0) ">
<use xlink:href="#FS_Neckfs_new_3_Layer0_0_FILL"/>
</g>
</g>

<g transform="matrix( 1.0439300537109375, -0.0753326416015625, 0.09295654296875, 0.996002197265625, -62.35,-72.35) ">
<g transform="matrix( 1, 0, 0, 1, 0,0) ">
<use xlink:href="#FS_Manefs_new_4_Layer0_0_FILL"/>
</g>
</g>

<g transform="matrix( -0.9875946044921875, -0.1338043212890625, -0.1337890625, 0.987579345703125, -69.05,21.05) ">
<g transform="matrix( 1, 0, 0, 1, 0,0) ">
<use xlink:href="#FS___WingcycleBACK2fs_new_4_Layer11_0_FILL"/>
</g>

<g transform="matrix( -0.2259979248046875, 0.3018646240234375, -0.3307342529296875, -0.24859619140625, 25.3,28.7) ">
<g transform="matrix( 1, 0, 0, 1, 0,0) ">
<use filter="url(#Filter_1)" xlink:href="#FS___st_stroke_08fs_new_0_Layer0_0_FILL"/>
</g>
</g>
</g>

<g transform="matrix( 1.23272705078125, -0.1615753173828125, 0, 1, -39.5,22.75) ">
<g transform="matrix( 1, 0, 0, 1, 0,0) ">
<use xlink:href="#FS_Torsofs_new_4_Layer0_0_FILL"/>
</g>
</g>

<g transform="matrix( 1.1424102783203125, -0.400115966796875, 0.3299713134765625, 0.9421539306640625, -53.55,21.95) ">
<g transform="matrix( 0.799285888671875, -0.597686767578125, 0.597686767578125, 0.799285888671875, -0.25,91.3) ">
<g transform="matrix( 1, 0, 0, 1, 0,0) ">
<use xlink:href="#FS_FrontLeg_3_4_hooffs_new_6_Layer0_0_FILL"/>

<use xlink:href="#FS_FrontLeg_3_4_hooffs_new_6_Layer0_0_1_STROKES"/>
</g>
</g>

<g transform="matrix( 0.5090179443359375, 0, 0, 0.5902099609375, -1.65,38.6) ">
<g transform="matrix( 1, 0, 0, 1, 0,0) ">
<use xlink:href="#FS_KneePatchfs_new_4_Layer0_0_FILL"/>
</g>
</g>

<g transform="matrix( 1.0445556640625, 0, -0.0294952392578125, 0.967803955078125, 7.25,-10.4) ">
<g transform="matrix( 1, 0, 0, 1, 0,0) ">
<use xlink:href="#FS_HindLeg_3_4_topfs_new_4_Layer1_0_FILL"/>
</g>
</g>

<g transform="matrix( 0.9882354736328125, 0.147003173828125, -0.147003173828125, 0.9882354736328125, 0.35,42.65) ">
<g transform="matrix( 1, 0, 0, 1, 0,0) ">
<use xlink:href="#FS_HindLeg_3_4rear_lowerfs_new_2_Layer1_0_FILL"/>

<use xlink:href="#FS_HindLeg_3_4rear_lowerfs_new_2_Layer1_0_1_STROKES"/>
</g>

<g transform="matrix( 1, 0, 0, 1, 0,0) ">
<use xlink:href="#FS_HindLeg_3_4rear_lowerfs_new_2_Layer0_0_FILL"/>

<use xlink:href="#FS_HindLeg_3_4rear_lowerfs_new_2_Layer0_0_1_STROKES"/>
</g>
</g>

<g transform="matrix( 0.5090179443359375, 0, 0, 0.5902099609375, -1.65,38.6) ">
<g transform="matrix( 1, 0, 0, 1, 0,0) ">
<use xlink:href="#FS_KneePatchfs_new_5_Layer0_0_FILL"/>
</g>
</g>

<g transform="matrix( 1.2472076416015625, -1.0227203369140625, 0.9496002197265625, 1.5442657470703125, -1.35,95.8) ">
<g transform="matrix( 1, 0, 0, 1, 0,0) ">
<use xlink:href="#FS_HoofWrinklefs_new_0_Layer0_0_FILL"/>
</g>
</g>
</g>

<g transform="matrix( -0.9094696044921875, 0.578338623046875, 0.5281524658203125, 0.8306121826171875, -13.9,12.4) ">
<g transform="matrix( 0.799285888671875, -0.597686767578125, 0.597686767578125, 0.799285888671875, -0.25,91.3) ">
<g transform="matrix( 1, 0, 0, 1, 0,0) ">
<use xlink:href="#FS_FrontLeg_3_4_hooffs_new_6_Layer0_0_FILL"/>

<use xlink:href="#FS_FrontLeg_3_4_hooffs_new_6_Layer0_0_1_STROKES"/>
</g>
</g>

<g transform="matrix( 0.5090179443359375, 0, 0, 0.5902099609375, -1.65,38.6) ">
<g transform="matrix( 1, 0, 0, 1, 0,0) ">
<use xlink:href="#FS_KneePatchfs_new_4_Layer0_0_FILL"/>
</g>
</g>

<g transform="matrix( 1.0445556640625, 0, -0.0294952392578125, 0.967803955078125, 7.25,-10.4) ">
<g transform="matrix( 1, 0, 0, 1, 0,0) ">
<use xlink:href="#FS_HindLeg_3_4_topfs_new_4_Layer1_0_FILL"/>
</g>
</g>

<g transform="matrix( 0.9882354736328125, 0.147003173828125, -0.147003173828125, 0.9882354736328125, 0.35,42.65) ">
<g transform="matrix( 1, 0, 0, 1, 0,0) ">
<use xlink:href="#FS_HindLeg_3_4rear_lowerfs_new_2_Layer1_0_FILL"/>

<use xlink:href="#FS_HindLeg_3_4rear_lowerfs_new_2_Layer1_0_1_STROKES"/>
</g>

<g transform="matrix( 1, 0, 0, 1, 0,0) ">
<use xlink:href="#FS_HindLeg_3_4rear_lowerfs_new_2_Layer0_0_FILL"/>

<use xlink:href="#FS_HindLeg_3_4rear_lowerfs_new_2_Layer0_0_1_STROKES"/>
</g>
</g>

<g transform="matrix( 0.5090179443359375, 0, 0, 0.5902099609375, -1.65,38.6) ">
<g transform="matrix( 1, 0, 0, 1, 0,0) ">
<use xlink:href="#FS_KneePatchfs_new_5_Layer0_0_FILL"/>
</g>
</g>

<g transform="matrix( 1.2472076416015625, -1.0227203369140625, 0.9496002197265625, 1.5442657470703125, -1.35,95.8) ">
<g transform="matrix( 1, 0, 0, 1, 0,0) ">
<use xlink:href="#FS_HoofWrinklefs_new_0_Layer0_0_FILL"/>
</g>
</g>
</g>

<g transform="matrix( 1.048980712890625, 0.676361083984375, -0.432861328125, 0.6713409423828125, -21.7,7.05) ">
<g transform="matrix( 1, 0, 0, 1, 0,0) ">
<use xlink:href="#FS_Tailfs_new_90_Layer9_0_FILL"/>

<use xlink:href="#FS_Tailfs_new_90_Layer9_0_1_STROKES"/>
</g>

<mask id="Mask_Mask_1">
<g transform="matrix( 1, 0, 0, 1, 0,0) ">
<use xlink:href="#Mask_FS_Tailfs_new_90_7_MASK_0_FILL"/>
</g>
</mask>

<g mask="url(#Mask_Mask_1)"/>

<g mask="url(#Mask_Mask_1)"/>

<g mask="url(#Mask_Mask_1)"/>

<g mask="url(#Mask_Mask_1)">
<g transform="matrix( 1, 0, 0, 1, 0,0) ">
<use xlink:href="#FS_Tailfs_new_90_Layer4_0_1_STROKES"/>
</g>
</g>

<g mask="url(#Mask_Mask_1)">
<g transform="matrix( 1, 0, 0, 1, 0,0) ">
<use xlink:href="#FS_Tailfs_new_90_Layer3_0_1_STROKES"/>
</g>
</g>

<g mask="url(#Mask_Mask_1)">
<g transform="matrix( 1, 0, 0, 1, 0,0) ">
<use xlink:href="#FS_Tailfs_new_90_Layer2_0_1_STROKES"/>
</g>
</g>
</g>
</g>
</g>
</svg>
