
<svg xmlns="http://www.w3.org/2000/svg" version="1.1" xmlns:xlink="http://www.w3.org/1999/xlink" preserveAspectRatio="none" x="0px" y="0px" width="864px" height="486px" viewBox="0 0 864 486">
<defs>
<filter id="Filter_1" x="-20%" y="-20%" width="140%" height="140%" color-interpolation-filters="sRGB">
<feColorMatrix in="SourceGraphic" type="matrix" values="0.5 0 0 0 0.4627450980392157 0 0.5 0 0 0.41568627450980394 0 0 0.5 0 0.19607843137254902 0 0 0 1 0" result="result1"/>
</filter>

<g id="FS___WingcycleBACK2fs_new_6_Layer11_0_FILL">
<path fill="#FDF6AE" stroke="none" d="
M 38.2 -42.8
Q 36.5015625 -42.6251953125 34.25 -42.3 30.77578125 -41.7982421875 24.8 -38.2 22.5865234375 -36.8052734375 20 -35 19.55 -35.2 19.55 -35.4 19.55 -37.4283203125 25.05 -41.25 22.886328125 -45.531640625 20.55 -47 11.954296875 -52.7966796875 4.25 -37.2
L 4.25 -37.25
Q 4.1451171875 -37.0396484375 4.05 -36.85
L 4.1 -36.85
Q 2.80390625 -32.833984375 2.75 -32.75 2.75 -32.6876953125 2.75 -32.65 -1.3 -23.85 -1.3 -21.45 -1.3 -20.9 -2.7 -15.7 -4.1 -10.45 -4.1 -5.5 -4.1 -5.34140625 -4.2 -5 -4.468359375 -5.25 -4.6 -5.25 -5.6802734375 -5.25 -5.85 -3.85 -5.85 -3.6078125 -5.85 -3.35 -5.85 -1.9 -3.7 0.8 -1.3091796875 3.76640625 1.4 4.1 1.15 3.7041015625 1.15 3.6 1.15 3.2037109375 1.75 2.5 2.4314453125 1.70546875 7.55 -1.45 12.6689453125 -4.5640625 20.25 -5.6 22.51484375 -6 24.45 -6 24.6607421875 -6 24.85 -6
L 24.85 -6.05
Q 25.8779296875 -6.0619140625 27.05 -6.3 27.1572265625 -6.3294921875 27.25 -6.35 27.603515625 -6.3388671875 27.95 -6.3 33.825 -6.2333984375 35.85 -0.85 36.75 1.55 36.75 5.45 36.75 6.05 37.15 8.9 37.15 9 38.15 13.5 38.15 13.696484375 38.2 14.05
L 39.2 16.1
Q 39.7576171875 17.3 40.45 17.4 40.8732421875 17.5 41.75 17.3 52.1927734375 17.3 54.05 -6.95 54.060546875 -11.9052734375 52.85 -16.7 52.5111328125 -18.0693359375 52.05 -19.45
L 52 -19.4 51.95 -19.35 51.8 -19.5
Q 51.8115234375 -19.5125 51.8 -19.55 51.6990234375 -19.835546875 51.6 -20.1 51.511328125 -20.4615234375 51.45 -20.8 50.2904296875 -23.2396484375 47.8 -24.8 45.3068359375 -26.3505859375 38.8 -26.2 32.34765625 -26.0517578125 21.25 -20.25 20.95 -20.25 20.75 -20.5 22.55 -22.65 29.95 -25.85 37.9 -29.25 42.45 -29.25 46.44296875 -29.25 49.4 -27.2 48.440234375 -30.2064453125 47.85 -32.8 45.8765625 -41.5728515625 41.85 -42.95 41.646484375 -42.91328125 41.4 -42.9 40.1462890625 -42.94765625 38.2 -42.8
M 33.85 6.05
Q 32.95 1.75 32.1 0.4 32.076953125 0.3634765625 32.05 0.3 32.049609375 0.7349609375 32.05 1.1 32.051171875 7.15 32.85 9.25 33.817578125 8.9958984375 34.65 9.25 34.139453125 7.5236328125 33.85 6.05
M 22.85 -1.75
Q 16.8095703125 -1.2326171875 15.6 -1 13.67265625 -0.614453125 11.25 0.3 12.3689453125 3.8 14.8 3.8 19.6056640625 3.8 22.85 -1.75 Z"/>

<path fill="#EBD463" stroke="none" d="
M 37.55 -46.25
Q 33.3205078125 -46.25 28.05 -43.2 23.3900390625 -52.5451171875 14.7 -51.95 6.019140625 -51.365234375 -1.4 -29.8 -2.8595703125 -25.7771484375 -4.05 -21.7 -6.35 -13.15 -6.35 -7.4 -6.35 -6.7 -5.95 -4.5 -5.8888671875 -4.146875 -5.85 -3.85 -5.6802734375 -5.25 -4.6 -5.25 -4.468359375 -5.25 -4.2 -5 -4.1 -5.34140625 -4.1 -5.5 -4.1 -10.45 -2.7 -15.7 -1.3 -20.9 -1.3 -21.45 -1.3 -23.85 2.75 -32.65 2.75 -32.6876953125 2.75 -32.75 2.80390625 -32.833984375 4.1 -36.85
L 4.05 -36.85
Q 4.1451171875 -37.0396484375 4.25 -37.25
L 4.25 -37.2
Q 11.954296875 -52.7966796875 20.55 -47 22.886328125 -45.531640625 25.05 -41.25 19.55 -37.4283203125 19.55 -35.4 19.55 -35.2 20 -35 22.5865234375 -36.8052734375 24.8 -38.2 30.77578125 -41.7982421875 34.25 -42.3 36.5015625 -42.6251953125 38.2 -42.8 40.1462890625 -42.94765625 41.4 -42.9 41.646484375 -42.91328125 41.85 -42.95 45.8765625 -41.5728515625 47.85 -32.8 48.440234375 -30.2064453125 49.4 -27.2 46.44296875 -29.25 42.45 -29.25 37.9 -29.25 29.95 -25.85 22.55 -22.65 20.75 -20.5 20.95 -20.25 21.25 -20.25 32.34765625 -26.0517578125 38.8 -26.2 45.3068359375 -26.3505859375 47.8 -24.8 50.2904296875 -23.2396484375 51.45 -20.8 51.511328125 -20.4615234375 51.6 -20.1 51.6990234375 -19.835546875 51.8 -19.55 51.8115234375 -19.5125 51.8 -19.5 51.821875 -19.5154296875 51.8 -19.55 51.825 -19.823046875 51.8 -20.1 51.91328125 -19.8498046875 52 -19.6 52.024609375 -19.5248046875 52.05 -19.45 52.5111328125 -18.0693359375 52.85 -16.7 54.060546875 -11.9052734375 54.05 -6.95 52.1927734375 17.3 41.75 17.3 40.8732421875 17.5 40.45 17.4 39.7576171875 17.3 39.2 16.1
L 38.2 14.05
Q 38.15 13.696484375 38.15 13.5 37.15 9 37.15 8.9 36.75 6.05 36.75 5.45 36.75 1.55 35.85 -0.85 33.825 -6.2333984375 27.95 -6.3 27.603515625 -6.3388671875 27.25 -6.35 27.1572265625 -6.3294921875 27.05 -6.3 25.8779296875 -6.0619140625 24.85 -6.05
L 24.85 -6
Q 24.6607421875 -6 24.45 -6 22.51484375 -6 20.25 -5.6 12.6689453125 -4.5640625 7.55 -1.45 2.4314453125 1.70546875 1.75 2.5 1.15 3.2037109375 1.15 3.6 1.15 3.7041015625 1.4 4.1 1.69609375 4.476171875 2.2 5.1 6.3541015625 3.3345703125 8.35 1.9 10.61640625 7.357421875 14.95 6.85 22.54375 6.04375 25.7 -2.1 26.217578125 -2.1798828125 26.65 -2.3 26.85078125 -2.2427734375 27.05 -2.2 27.503125 -2.0333984375 28 -1.85 28.8126953125 -1.5482421875 29.45 -1.3 29.4490234375 0.1015625 29.45 1.55 29.2373046875 4.4 29.45 7.2 29.6138671875 9.43359375 30.05 10.75 30.715625 13.0533203125 32.65 12.8 34.078125 12.7283203125 35.4 12.35 35.296875 12.878515625 35.3 13.4 35.2994140625 15.4 36.55 17.45 38.37734375 20.3 41.75 20.3 51.3951171875 20.3 54.45 6.5 56.01953125 -0.4 55.65 -7.5 55.653125 -16.475390625 53.3 -21.5 53.35 -21.68515625 53.35 -21.9 53.35 -23.238671875 51.7 -25.1 50.647265625 -46.5 41 -46.5 39.6330078125 -46.5 38.35 -46.25 37.965625 -46.25 37.55 -46.25
M 15.6 -1
Q 16.8095703125 -1.2326171875 22.85 -1.75 19.6056640625 3.8 14.8 3.8 12.3689453125 3.8 11.25 0.3 13.67265625 -0.614453125 15.6 -1
M 32.1 0.4
Q 32.95 1.75 33.85 6.05 34.139453125 7.5236328125 34.65 9.25 33.817578125 8.9958984375 32.85 9.25 32.051171875 7.15 32.05 1.1 32.049609375 0.7349609375 32.05 0.3 32.076953125 0.3634765625 32.1 0.4 Z"/>
</g>

<g id="FS_FrontLeg_3_4_hooffs_new_7_Layer0_0_FILL">
<path fill="#EBD463" stroke="none" d="
M 4 -11.6
L 4.05 -11.6
Q -0.941796875 -13.1146484375 -5.65 -10.65 -5.684765625 -10.600390625 -5.75 -10.6 -6.2517578125 -10.2625 -6.75 -9.95
L -6.7 -10
Q -7.6634765625 -9.364453125 -8.45 -8.6 -10.3267578125 -6.7533203125 -11.05 -5.1
L -11.05 -5.1
Q -30.0138671875 40.01875 -9.3 66.05 -9.23828125 66.123828125 -9.2 66.15 -5.746875 69.9376953125 -1.15 68.65 2.9451171875 67.65390625 8 62.15 8.0501953125 62.1140625 8.1 62.05 21.908203125 43.6923828125 15.15 28.6 15.0796875 28.4025390625 10.75 21 7.12421875 14.7482421875 8.75 10.2 8.8173828125 10.176171875 8.85 10.1 11.4953125 7.864453125 12.55 4.35
L 12.55 4.3
Q 14.1173828125 -0.7203125 11.55 -5.45
L 11.55 -5.4
Q 9.0748046875 -10.045703125 4 -11.6
M 8.9 -4
L 8.9 -4
Q 10.882421875 -0.3796875 9.7 3.45
L 9.7 3.45
Q 8.9046875 6.1353515625 6.9 7.85 6.6046875 8.15078125 6.45 8.5
L 6.25 8.45
Q 6.007421875 9.424609375 5.85 10.4 4.3818359375 19.5 12.5 30 18.1720703125 43.58515625 5.8 60.1 1.5046875 64.7962890625 -1.9 65.75 -4.803125 66.512109375 -7 64.1 -24.980078125 41.0130859375 -10.8 2.35 -9.69609375 -0.608203125 -8.45 -3.65 -8.29921875 -3.931640625 -8.2 -4.2
L -8.5 -4.3 -8.15 -4.2
Q -6.8884765625 -6.0958984375 -6.15 -6.7 -5.36953125 -7.248046875 -5.1 -7.45
L -5.1 -7.45
Q -4.683203125 -7.7140625 -4.25 -8 -0.6580078125 -9.8853515625 3.15 -8.75
L 3.15 -8.75
Q 7.025 -7.554296875 8.9 -4 Z"/>

<path fill="#949494" stroke="none" d="
M 6.35 8.2
Q 6.3099609375 8.3357421875 6.25 8.45
L 6.45 8.5
Q 6.3904296875 8.3802734375 6.35 8.2 Z"/>

<path fill="#FFF8AD" stroke="none" d="
M 8.9 -4
L 8.9 -4
Q 7.025 -7.554296875 3.15 -8.75
L 3.15 -8.75
Q -0.6580078125 -9.8853515625 -4.25 -8 -4.683203125 -7.7140625 -5.1 -7.45
L -5.1 -7.45
Q -5.36953125 -7.248046875 -6.15 -6.7 -6.8884765625 -6.0958984375 -8.15 -4.2
L -8.2 -4.2
Q -8.29921875 -3.931640625 -8.45 -3.65 -9.69609375 -0.608203125 -10.8 2.35 -24.980078125 41.0130859375 -7 64.1 -4.803125 66.512109375 -1.9 65.75 1.5046875 64.7962890625 5.8 60.1 18.1720703125 43.58515625 12.5 30 4.3818359375 19.5 5.85 10.4 6.007421875 9.424609375 6.25 8.45 6.3099609375 8.3357421875 6.35 8.2 6.3904296875 8.3802734375 6.45 8.5 6.6046875 8.15078125 6.9 7.85 8.9046875 6.1353515625 9.7 3.45
L 9.7 3.45
Q 10.882421875 -0.3796875 8.9 -4 Z"/>
</g>

<g id="FS_FrontLeg_3_4_upperfs_new_6_Layer1_0_FILL">
<path fill="#FFF8AD" stroke="none" d="
M -19.3 32.3
L -19.35 32.3 -19.35 32.35 -19.3 32.3
M 5.1 6.7
L 5.1 6.7
Q 4.8970703125 6.7099609375 4.1 6.75 3.3763671875 6.851953125 1.1 7.5 -1.13515625 8.2087890625 -3.5 8.75 -5.8873046875 9.265625 -11.25 8.4 -16.6271484375 7.5392578125 -23.95 9.85
L -24 9.85 -16.35 32.45
Q -13.369921875 27.9671875 -1.45 26.75 1.785546875 26.421484375 5.6 26.3
L 5.5 26.15
Q 6.24765625 26.2146484375 7 26.15
L 7 26.15
Q 10.97890625 25.737890625 13.55 22.6
L 13.55 22.65
Q 16.1224609375 19.473828125 15.75 15.45
L 15.75 15.4
Q 15.3708984375 11.4361328125 12.2 8.85 9.0986328125 6.3505859375 5.1 6.7 Z"/>

<path fill="#EBD463" stroke="none" d="
M 5.1 6.7
L 5.1 6.7
Q 9.0986328125 6.3505859375 12.2 8.85 15.3708984375 11.4361328125 15.75 15.4
L 15.75 15.45
Q 16.1224609375 19.473828125 13.55 22.65
L 13.55 22.6
Q 10.97890625 25.737890625 7 26.15
L 7 26.15
Q 6.24765625 26.2146484375 5.5 26.15
L 5.6 26.3
Q 1.785546875 26.421484375 -1.45 26.75 -13.369921875 27.9671875 -16.35 32.45 -7.978515625 30.5599609375 3.2 29.55 4.9384765625 29.426171875 6.05 29.2 6.651953125 29.18359375 7.25 29.1
L 7.3 29.1
Q 12.4861328125 28.6171875 15.85 24.55
L 15.85 24.5
Q 19.2109375 20.4046875 18.75 15.15
L 18.75 15.15
Q 18.2197265625 9.909375 14.05 6.55 11.694140625 4.615234375 8.9 3.95 5.0951171875 2.5880859375 -0.1 4.55 -5.3130859375 6.56015625 -10.2 5.5 -16.16484375 4.2443359375 -24.6 6.9 -27.1306640625 8.252734375 -24 9.85
L -23.95 9.85
Q -16.6271484375 7.5392578125 -11.25 8.4 -5.8873046875 9.265625 -3.5 8.75 -1.13515625 8.2087890625 1.1 7.5 3.3763671875 6.851953125 4.1 6.75 4.8970703125 6.7099609375 5.1 6.7 Z"/>
</g>

<g id="FS_FrontLeg_3_4_upperfs_new_6_Layer0_0_FILL">
<path fill="#EBD463" stroke="none" d="
M -4.8 4.8
Q -5.25078125 3.61484375 -6.05 2.15 -6.7310546875 7.5908203125 -8.05 10.25
L -7.6 9.4
Q -7.8115234375 9.965625 -8 10.5 -7.66796875 10.4953125 -7.4 10.45 -2.8134765625 10.0880859375 -4.8 4.8
M 19.55 15.2
Q 19.548046875 10.151171875 16.45 6.3 13.576171875 2.2455078125 7.9 -0.4 9.5689453125 0.664453125 10.9 1.95 14.6564453125 5.6427734375 15.85 11.25 16.4048828125 13.7087890625 16.45 16.55
L 16.45 16.5
Q 16.285546875 18.300390625 15.55 19.85 13.824609375 25.093359375 5.15 26.6
L 5.1 26.6
Q 0.4158203125 26.549609375 -3.65 27 -1.5599609375 28.8796875 2.25 29.4 11.091015625 29.5318359375 15.3 25.35
L 15.3 25.35
Q 19.54765625 21.112890625 19.55 15.2 Z"/>

<path fill="#FFF8AD" stroke="none" d="
M 15.85 11.25
Q 14.6564453125 5.6427734375 10.9 1.95 9.5689453125 0.664453125 7.9 -0.4 1.8404296875 -0.3458984375 -6.05 2.15 -5.25078125 3.61484375 -4.8 4.8 -2.8134765625 10.0880859375 -7.4 10.45 -7.66796875 10.4953125 -8 10.5 -8.6787109375 12.6267578125 -8.8 14.25 -8.95546875 17.5822265625 -8.4 19.8 -7.8125 22.023828125 -3.65 27 0.4158203125 26.549609375 5.1 26.6
L 5.15 26.6
Q 13.824609375 25.093359375 15.55 19.85 16.285546875 18.300390625 16.45 16.5
L 16.45 16.55
Q 16.4048828125 13.7087890625 15.85 11.25 Z"/>
</g>

<g id="FS_HoofWrinklefs_new_1_Layer0_0_FILL">
<path fill="#EBD463" stroke="none" d="
M -3.5 16.85
Q -8.258203125 11.0177734375 -6.65 -3.35 -13.3845703125 10.7171875 -3.5 16.85
M 5.1 -10.5
Q 0.6984375 -8.3498046875 -4.6 -7.55 2.472265625 -4.8521484375 5.1 -10.5 Z"/>
</g>

<g id="FS_Hair_02fs_new_4_Layer1_0_FILL">
<path fill="#F4B6D1" stroke="none" d="
M 64.65 166.75
Q 64.6107421875 166.6939453125 64.55 166.6 64.354296875 166.7171875 64.1 166.8 64.4390625 166.81015625 64.75 166.8 64.709375 166.78203125 64.65 166.75
M 68.95 135.45
Q 66.2615234375 133.025 63.4 134.65 63.508203125 134.774609375 63.45 134.9
L 63.3 135.6
Q 68.3712890625 136.4349609375 71.55 139.9 70.5560546875 136.9380859375 68.95 135.45
M 35.15 48.15
Q 34.176953125 47.179296875 33.1 46.5 36.0060546875 56.1888671875 36.2 65.1 36.4958984375 74.8173828125 33.55 98.2 30.9587890625 119.313671875 32.15 131.25 34.0263671875 149.7251953125 41.8 158.1 47.3345703125 163.9544921875 53.55 165.9 57.167578125 167.052734375 60.35 166.55 57.2626953125 165.52578125 55.1 162.8 46.8341796875 152.4890625 44.85 136.5 43.559765625 125.9244140625 44.95 107.85 46.052734375 93.8072265625 45.9 85.7 45.6748046875 73.6587890625 42.95 63.9 39.90859375 52.775390625 35.15 48.15
M 2.75 -24.75
Q 2.6294921875 -22.9779296875 2.75 -21.2 3.228125 -15.64609375 5.95 -8.9 7.7974609375 -12.9791015625 9.9 -16.4 15.37890625 -25.0669921875 23 -30.4 31.8384765625 -36.441796875 41.05 -36.15 51.621484375 -35.7453125 60.8 -27.25 58.507421875 -30.5625 55.8 -33.5 46.4533203125 -38.9224609375 36.85 -39.4 22.3384765625 -40.1376953125 8.7 -29.8 5.6578125 -27.496875 2.75 -24.75
M 6.65 -7.25
Q 6.8005859375 -6.884375 6.95 -6.55 8.717578125 -2.6275390625 14.1 7 25.987890625 28.519921875 28.8 34.8 31.0232421875 39.8861328125 32.6 44.75 40.9427734375 48.439453125 45 65.7 47.2958984375 75.4240234375 47.35 87.2 47.4517578125 94.84375 46.35 109 45.5326171875 119.91875 45.55 125.8 45.6029296875 135.2267578125 47.4 142.5 48.9443359375 148.689453125 52.45 155.7 56.481640625 163.79765625 60.45 165.5 61.3296875 165.89140625 62.15 166.1 64.66640625 165.3212890625 66.85 163.45 72.4353515625 158.7697265625 73.05 151.3 71.376953125 154.1185546875 67.75 155.35 60.4431640625 157.769921875 53.65 145 48.720703125 135.5041015625 51.65 117.1 52.765234375 110.2392578125 55.15 100.7 57.95546875 89.8513671875 59.3 84.4 65.03046875 62.7025390625 67.8 51.8 72.298828125 34.0896484375 72.85 20.2 73.63984375 2.893359375 68.65 -11.4 66.82265625 -16.698828125 64.35 -21.35 54.568359375 -33.3224609375 43.75 -35.15 32.444140625 -37.0126953125 22.1 -28.85 13.3001953125 -21.824609375 8 -10.35 7.3162109375 -8.8294921875 6.65 -7.25
M 7.35 -36.85
Q 3.916796875 -31.8771484375 3 -26.7 4.9833984375 -28.4810546875 7 -30.1 20.6740234375 -40.830078125 34.9 -40.6 44.1814453125 -40.45 53.15 -36.2 45.5353515625 -43.3919921875 38.05 -46.7 27.993359375 -51.05625 19.95 -47.4 12.2271484375 -43.90078125 7.35 -36.85 Z"/>

<path fill="#E781B3" stroke="none" d="
M 8.85 -41.95
Q 4.1453125 -37.525 1.8 -31.6 -0.623828125 -25.60390625 -0.15 -19.3 0.221484375 -15.0275390625 4.35 -5.55 6.8001953125 0.0916015625 11.7 8.9 23.8705078125 30.784375 26.3 36.3 32.908203125 51.159765625 33.3 67.2 33.5640625 76.8796875 30.65 100.2 28.0646484375 121.2244140625 29.3 133.2 31.6478515625 156.334375 46.7 165.6 52.7576171875 169.3390625 60.15 167.9 62.2607421875 167.5337890625 64.1 166.8 64.354296875 166.7171875 64.55 166.6 68.88046875 164.8142578125 72 161.15 75.9458984375 156.573828125 76.15 149.05 76.365234375 141.993359375 73.3 136.45 71.827734375 133.7654296875 69.1 132.85 66.5970703125 131.96640625 63.8 132.75 61.2009765625 133.54296875 59.45 135.45
L 58.2 137.15 60.95 137.15
Q 63.83046875 137.43671875 66.45 139.1 69.25546875 140.9087890625 70.6 143.5 72.021875 146.3798828125 71.15 149.35 68.9794921875 157.0029296875 62.9 151.85 58.3654296875 147.9623046875 55.6 142.05 54.889453125 140.5287109375 54.4 138.75
L 53.95 137.1
Q 53.1310546875 133.1435546875 53.3 128.2 53.451171875 123.38046875 55 114.05 56.1384765625 107.4630859375 58.65 97.75
L 62.85 81.55
Q 68.828515625 60.0115234375 71.45 49.1 76.095703125 30.05625 76 16 75.904296875 -16.0134765625 57.8 -35.4 46.253515625 -47.7859375 32.85 -50.25 20.2212890625 -52.522265625 8.85 -41.95
M 3 -26.7
Q 3.916796875 -31.8771484375 7.35 -36.85 12.2271484375 -43.90078125 19.95 -47.4 27.993359375 -51.05625 38.05 -46.7 45.5353515625 -43.3919921875 53.15 -36.2 44.1814453125 -40.45 34.9 -40.6 20.6740234375 -40.830078125 7 -30.1 4.9833984375 -28.4810546875 3 -26.7
M 6.95 -6.55
Q 6.8005859375 -6.884375 6.65 -7.25 7.3162109375 -8.8294921875 8 -10.35 13.3001953125 -21.824609375 22.1 -28.85 32.444140625 -37.0126953125 43.75 -35.15 54.568359375 -33.3224609375 64.35 -21.35 66.82265625 -16.698828125 68.65 -11.4 73.63984375 2.893359375 72.85 20.2 72.298828125 34.0896484375 67.8 51.8 65.03046875 62.7025390625 59.3 84.4 57.95546875 89.8513671875 55.15 100.7 52.765234375 110.2392578125 51.65 117.1 48.720703125 135.5041015625 53.65 145 60.4431640625 157.769921875 67.75 155.35 71.376953125 154.1185546875 73.05 151.3 72.4353515625 158.7697265625 66.85 163.45 64.66640625 165.3212890625 62.15 166.1 61.3296875 165.89140625 60.45 165.5 56.481640625 163.79765625 52.45 155.7 48.9443359375 148.689453125 47.4 142.5 45.6029296875 135.2267578125 45.55 125.8 45.5326171875 119.91875 46.35 109 47.4517578125 94.84375 47.35 87.2 47.2958984375 75.4240234375 45 65.7 40.9427734375 48.439453125 32.6 44.75 31.0232421875 39.8861328125 28.8 34.8 25.987890625 28.519921875 14.1 7 8.717578125 -2.6275390625 6.95 -6.55
M 2.75 -21.2
Q 2.6294921875 -22.9779296875 2.75 -24.75 5.6578125 -27.496875 8.7 -29.8 22.3384765625 -40.1376953125 36.85 -39.4 46.4533203125 -38.9224609375 55.8 -33.5 58.507421875 -30.5625 60.8 -27.25 51.621484375 -35.7453125 41.05 -36.15 31.8384765625 -36.441796875 23 -30.4 15.37890625 -25.0669921875 9.9 -16.4 7.7974609375 -12.9791015625 5.95 -8.9 3.228125 -15.64609375 2.75 -21.2
M 33.1 46.5
Q 34.176953125 47.179296875 35.15 48.15 39.90859375 52.775390625 42.95 63.9 45.6748046875 73.6587890625 45.9 85.7 46.052734375 93.8072265625 44.95 107.85 43.559765625 125.9244140625 44.85 136.5 46.8341796875 152.4890625 55.1 162.8 57.2626953125 165.52578125 60.35 166.55 57.167578125 167.052734375 53.55 165.9 47.3345703125 163.9544921875 41.8 158.1 34.0263671875 149.7251953125 32.15 131.25 30.9587890625 119.313671875 33.55 98.2 36.4958984375 74.8173828125 36.2 65.1 36.0060546875 56.1888671875 33.1 46.5
M 63.4 134.65
Q 66.2615234375 133.025 68.95 135.45 70.5560546875 136.9380859375 71.55 139.9 68.3712890625 136.4349609375 63.3 135.6 63.1408203125 135.601171875 62.95 135.55 62.6103515625 135.5271484375 62.25 135.5 62.654296875 135.1478515625 63.1 134.85 63.2681640625 134.7396484375 63.4 134.65 Z"/>
</g>

<g id="FS_Skullfs_new_2_Layer0_0_FILL">
<path fill="#EBD463" stroke="none" d="
M 17.3 -50
Q 10.4 -52.1 0.9 -52.25 -8.45 -52.4 -16.75 -49.2 -25.55 -45.75 -31.05 -39.3 -46.1 -21.6 -46.1 -1.1 -46.1 11.3 -43.4 20.4 -40.6 29.75 -34.65 36.5 -27.65 44.55 -18.5 48.75 -9.25 53.05 1.5 53.05 22.65 53.05 37 36.5 42.8 29.9 45.45 20.1 47.85 11.1 47.9 -1.7 47.85 -23.45 33.4 -39.9 27.2 -47.05 17.3 -50
M 0.9 -49.25
Q 10.95 -48.85 16.65 -47.2 25.35 -44.6 31.15 -37.95 44.85 -22.3 44.9 -1.7 44.85 10.45 42.6 18.95 40.15 28.25 34.75 34.55 21.25 50.05 1.5 50.05 -8.55 50.05 -17.25 46.05 -25.8 42.1 -32.4 34.55 -38 28.1 -40.6 19.25 -43.1 10.65 -43.1 -1.1 -43.1 -21 -28.8 -37.35 -22.85 -44.2 -14.2 -47.15 -7.25 -49.55 0.9 -49.25 Z"/>

<path fill="#FFF8AD" stroke="none" d="
M 16.65 -47.2
Q 10.95 -48.85 0.9 -49.25 -7.25 -49.55 -14.2 -47.15 -22.85 -44.2 -28.8 -37.35 -43.1 -21 -43.1 -1.1 -43.1 10.65 -40.6 19.25 -38 28.1 -32.4 34.55 -25.8 42.1 -17.25 46.05 -8.55 50.05 1.5 50.05 21.25 50.05 34.75 34.55 40.15 28.25 42.6 18.95 44.85 10.45 44.9 -1.7 44.85 -22.3 31.15 -37.95 25.35 -44.6 16.65 -47.2 Z"/>
</g>

<g id="FS_Earfs_new_5_Layer1_0_FILL">
<path fill="#A66BBF" stroke="none" d="
M -3.95 16.85
L -4.9 16.3 -5.05 16.8
Q -4.5166015625 16.847265625 -3.95 16.85 Z"/>

<path fill="#FFF8AD" stroke="none" d="
M -20.1 -26.3
Q -23.571484375 -10.808203125 -20.3 -0.7 -17.3537109375 8.1306640625 -8.85 13.95
L -8.35 14.3 -8.3 14.3
Q -7.203125 15.0419921875 -4.9 16.3
L -3.95 16.85
Q 2.99140625 6.6712890625 2.75 -9.6
L 2.75 -17.95
Q 2.75 -21.5072265625 2.75 -23.35
L 2.75 -23.4
Q 2.4267578125 -39.3626953125 -6.15 -49.6 -16.8560546875 -40.4384765625 -20.1 -26.3 Z"/>

<path fill="#EBD463" stroke="none" d="
M -5.95 -53.2
Q -6.4943359375 -53.24140625 -6.95 -52.9 -19.4068359375 -42.8458984375 -23.05 -26.95 -26.7287109375 -10.491796875 -23.15 0.25 -20.4 8.6 -10.6 15.3 -8.6201171875 16.63046875 -5.05 16.8
L -4.9 16.3
Q -7.203125 15.0419921875 -8.3 14.3
L -8.35 14.3 -8.85 13.95
Q -17.3537109375 8.1306640625 -20.3 -0.7 -23.571484375 -10.808203125 -20.1 -26.3 -16.8560546875 -40.4384765625 -6.15 -49.6 2.4267578125 -39.3626953125 2.75 -23.4
L 2.75 -23.35
Q 2.75 -21.5072265625 2.75 -17.95
L 2.75 -9.6
Q 4.41796875 -13.762109375 5.75 -23.35
L 5.75 -24.9 5.7 -24.9
Q 4.966796875 -41.784765625 -4.75 -52.5 -4.764453125 -52.5748046875 -4.85 -52.65 -5.1345703125 -53.02421875 -5.6 -53.15
L -5.85 -53.2
Q -5.8873046875 -53.20390625 -5.95 -53.2 Z"/>
</g>

<g id="FS_Earfs_new_6_Layer1_0_FILL">
<path fill="#A66BBF" stroke="none" d="
M -0.65 -14.4
L -0.65 -15.9 -1.1 -15.9
Q -0.8904296875 -15.16328125 -0.65 -14.4
M 4.6 19.7
L 4.6 19.7 4.6 19.65 4.55 19.65 4.6 19.7 Z"/>

<path fill="#D19FE4" stroke="none" d="
M 5.75 18.7
L 5.7 18.7 5.5 18.9
Q 5.6384765625 18.7990234375 5.75 18.7 Z"/>

<path fill="#FFF8AD" stroke="none" d="
M 21.1 -7.35
Q 23.455078125 -19.7173828125 20 -31.6 16.6439453125 -43.123828125 9 -49.4 0.3212890625 -38.8369140625 -0.55 -21
L -0.6 -19.45
Q -0.6498046875 -17.705078125 -0.65 -15.9
L -0.65 -14.4
Q 0.4736328125 3.6412109375 4.6 19.65
L 5.7 18.7 5.75 18.7
Q 5.75703125 18.69375 5.75 18.7 8.1162109375 16.587890625 9.25 15.4
L 9.9 14.7
Q 18.7443359375 5.3640625 21.1 -7.35 Z"/>

<path fill="#EBD463" stroke="none" d="
M 8.7 -52.95
Q 8.0990234375 -52.9130859375 7.65 -52.45 -1.3 -42.45 -2.35 -25.3 -2.6138671875 -21.296875 -1.1 -15.9
L -0.65 -15.9
Q -0.6498046875 -17.705078125 -0.6 -19.45
L -0.55 -21
Q 0.3212890625 -38.8369140625 9 -49.4 16.6439453125 -43.123828125 20 -31.6 23.455078125 -19.7173828125 21.1 -7.35 18.7443359375 5.3640625 9.9 14.7
L 9.25 15.4
Q 8.1162109375 16.587890625 5.75 18.7 5.75703125 18.69375 5.75 18.7 5.6384765625 18.7990234375 5.5 18.9
L 5.7 18.7 4.6 19.65 4.6 19.7
Q 10.8576171875 18.2390625 14.9 12.45 22.4810546875 1.691796875 24.05 -6.8 26.5447265625 -19.8826171875 22.9 -32.45 19.01640625 -45.780078125 9.8 -52.6 9.752734375 -52.6173828125 9.7 -52.65 9.2767578125 -52.9833984375 8.7 -52.95 Z"/>
</g>

<g id="FS_Neckfs_new_3_Layer0_0_FILL">
<path fill="#FDF6AE" stroke="none" d="
M 14.55 -6.45
L 14.5 -6.45 14.1 -11.75
Q 13.95 -17.4 9.95 -20.45 6.25 -23.25 0.45 -23 -13.15 -22.45 -14.5 -11.9
L -14.85 -6.45 -14.8 -6.45 -16.35 40.2
Q -15.9587890625 49.69609375 -1.45 51 15.338671875 52.17109375 16.75 40.05
L 14.55 -6.45 Z"/>

<path fill="#EBD564" stroke="none" d="
M 16.5 -0.95
L 16.5 -1
Q 16.35 -4.15 14.55 -6.45
L 14.55 -6.45 16.75 40.05
Q 15.338671875 52.17109375 -1.45 51 -15.9587890625 49.69609375 -16.35 40.2
L -14.8 -6.45
Q -16.8 -3.35 -16.7 -0.9
L -19.35 39.95 -19.35 40
Q -19.35078125 40.0619140625 -19.35 40.1 -19.450390625 52.4119140625 -1.7 54
L -1.65 54
Q 18.469140625 55.41328125 19.8 40.25
L 19.8 40.25
Q 19.80625 40.179296875 19.8 40.1 19.80546875 40.0416015625 19.8 39.95
L 19.8 39.95 16.5 -0.95 Z"/>
</g>

<g id="FS_Manefs_new_4_Layer0_0_FILL">
<path fill="#000000" stroke="none" d="
M -19.7 -16.75
L -19.75 -16.8 -19.8 -16.9
Q -19.762109375 -16.8255859375 -19.75 -16.8 -19.7802734375 -16.7255859375 -19.85 -16.7 -19.7609375 -16.7103515625 -19.7 -16.75
M -34.8 22.75
Q -34.7599609375 22.6541015625 -34.75 22.55
L -34.85 22.7
Q -34.7986328125 22.735546875 -34.8 22.75 Z"/>

<path fill="#E781B3" stroke="none" d="
M -59.4 -28.05
Q -64.958984375 -21.718359375 -71.75 -7.25 -77.891015625 5.9248046875 -82.75 23.45 -88.3259765625 44.2013671875 -88.9 57.65 -89.55234375 71.7271484375 -85.75 91.8 -83.62421875 103.11796875 -79 125.55 -76.2388671875 142.087109375 -75.6 155.95 -75.172265625 163.975 -75.7 171.95 -76.0888671875 179.622265625 -78.35 182.85 -79.6974609375 184.776953125 -81.85 184.6 -83.74296875 184.5328125 -85.5 182.9 -88.362109375 180.1970703125 -88.35 174.6 -88.279296875 172.4091796875 -87.4 169.65 -86.97578125 168.187890625 -86.3 168.85 -86.1482421875 168.962109375 -85.2 170.55 -84.19453125 172.1146484375 -83.6 173.8 -83.4814453125 174.0853515625 -83.4 174.35 -83.3603515625 174.472265625 -83.35 174.6
L -83 175.8
Q -82.880859375 176.31953125 -82.8 176.85
L -82.6 178.75
Q -81.151171875 175.78203125 -80.6 173.2 -79.2341796875 166.9283203125 -83 163.05 -84.840234375 161.1419921875 -87.85 161.2 -90.471484375 161.2654296875 -92.85 162.75 -98.20546875 166.2642578125 -96.8 179.25 -95.383984375 191.876171875 -87.95 197.65 -81.593359375 202.6171875 -70.8 198.05 -63.3814453125 194.8650390625 -57.05 184.3 -51.9064453125 175.681640625 -47.6 162 -43.1685546875 146.2056640625 -40.85 138.6 -33.921875 116.2451171875 -33.4 94.35 -33.300390625 89.6822265625 -33.6 82.4 -34.023828125 71.9224609375 -34.05 70.45 -34.2943359375 60.152734375 -33.9 46.2 -33.0244140625 17.861328125 -30.55 3.75 -28.4064453125 -8.4869140625 -22 -14.85 -20.9310546875 -15.8859375 -19.75 -16.8 -19.7703125 -16.8330078125 -19.8 -16.9
L -19.8 -16.9 -19.8 -16.9 -19.75 -16.8 -19.7 -16.75
Q -15.71328125 -19.1806640625 -13.1 -20.35 -9.2369140625 -22.05234375 -4.65 -23.55 -9.023828125 -23.0841796875 -13.1 -21.7 -16.8458984375 -20.423828125 -20.35 -18.35 -20.9421875 -19.83359375 -21.6 -21.15 -27.37890625 -33.311328125 -38.55 -36 -49.946484375 -38.7677734375 -59.4 -28.05
M -40.05 -34.15
Q -32.25 -32.334375 -27.05 -25.1 -24.569921875 -21.60703125 -22.65 -16.6 -24.863671875 -14.92265625 -26.55 -12.85 -31.853125 -6.028515625 -33.9 7.25 -34.151171875 8.9072265625 -34.4 10.6 -39.95703125 6.1931640625 -47.5 7.05 -56.9896484375 8.1556640625 -64 19.45 -68.3501953125 26.4138671875 -72.65 39.55 -81.2416015625 65.9716796875 -80.8 94.45 -80.7544921875 95.062890625 -80.55 101.3 -84.6208984375 80.4630859375 -85.45 72.6 -87.1416015625 56.1470703125 -82.95 36.35 -78.9080078125 17.0951171875 -72.15 0.1 -63.537890625 -21.1693359375 -54.65 -29.95 -48.4576171875 -36.05 -40.05 -34.15
M -38.1 21.6
Q -36.7818359375 21.7201171875 -35.7 22.25 -37.5505859375 43.7048828125 -36.95 72.6 -36.7771484375 78.4517578125 -36.5 89.95 -36.34296875 99.8970703125 -37.05 107.25 -38.555859375 122.700390625 -44.55 141.85 -46.8755859375 149.3669921875 -51.35 164.7 -55.661328125 177.915234375 -60.95 186.35 -65.0435546875 193.0271484375 -70.35 196.4 -76.9791015625 200.695703125 -83.25 197.85 -91.3521484375 194.19375 -93.75 179.4 -94.5810546875 173.9908203125 -93.6 168.45 -92.19921875 160.6779296875 -87.35 162.9 -84.2564453125 164.3072265625 -83.5 167.8 -84.448828125 166.9109375 -85.6 166.55 -89.21875 165.3779296875 -90.6 170.65 -91.6119140625 174.6361328125 -91.05 178.4 -90.8345703125 179.5525390625 -90.45 180.55 -90.4123046875 181.652734375 -90.3 182.7 -88.9822265625 195.461328125 -78.2 197.3 -72.3908203125 198.3259765625 -68.15 190.45 -64.1822265625 183.0849609375 -63.95 169.4 -63.819921875 161.4908203125 -65.45 151.4 -66.2193359375 146.7603515625 -69 133.65 -72.9775390625 114.5125 -73 100.8 -73.0900390625 65.9177734375 -60.7 41.35 -50.4666015625 20.771484375 -38.1 21.6
M -34.75 22.55
Q -34.7599609375 22.6541015625 -34.8 22.75 -34.7986328125 22.735546875 -34.85 22.7
L -34.75 22.55
M -36 10.95
Q -35.253125 11.46875 -34.6 12 -35.13515625 16.4044921875 -35.6 21.15 -37.9369140625 20.3544921875 -41.1 21.05 -44.6697265625 21.815625 -48.35 24.2 -55.92109375 29.1541015625 -62.6 42.45 -67.6033203125 52.416796875 -71.1 69.05 -77.522265625 99.5779296875 -70.75 132.6 -69.79375 137.1634765625 -67.7 147 -65.9841796875 155.756640625 -65.45 162.25 -63.86328125 179.958984375 -70 191.35 -71.9548828125 195.0177734375 -74.95 196 -78.0462890625 197.0595703125 -81.5 194.85 -86.7279296875 191.551171875 -88.5 184.8 -88.712890625 184.0328125 -88.9 183.2 -88.3666015625 183.8390625 -87.75 184.35 -85.0416015625 186.7244140625 -81.55 186.5 -74.1267578125 185.974609375 -72.95 174.2 -71.468359375 159.3171875 -73.65 140.7 -74.9943359375 129.055859375 -78.75 110.25 -78.771875 107.416796875 -78.9 104.3 -80.1306640625 76.9720703125 -75.2 54.3 -72.4404296875 41.39296875 -67.5 29.8 -61.5318359375 15.7298828125 -54.55 10.75 -50.387890625 7.8962890625 -45.25 8 -40.31484375 8.102734375 -36 10.95 Z"/>

<path fill="#F4B6D1" stroke="none" d="
M -34.6 12
Q -35.253125 11.46875 -36 10.95 -40.31484375 8.102734375 -45.25 8 -50.387890625 7.8962890625 -54.55 10.75 -61.5318359375 15.7298828125 -67.5 29.8 -72.4404296875 41.39296875 -75.2 54.3 -80.1306640625 76.9720703125 -78.9 104.3 -78.771875 107.416796875 -78.75 110.25 -74.9943359375 129.055859375 -73.65 140.7 -71.468359375 159.3171875 -72.95 174.2 -74.1267578125 185.974609375 -81.55 186.5 -85.0416015625 186.7244140625 -87.75 184.35 -88.3666015625 183.8390625 -88.9 183.2 -88.712890625 184.0328125 -88.5 184.8 -86.7279296875 191.551171875 -81.5 194.85 -78.0462890625 197.0595703125 -74.95 196 -71.9548828125 195.0177734375 -70 191.35 -63.86328125 179.958984375 -65.45 162.25 -65.9841796875 155.756640625 -67.7 147 -69.79375 137.1634765625 -70.75 132.6 -77.522265625 99.5779296875 -71.1 69.05 -67.6033203125 52.416796875 -62.6 42.45 -55.92109375 29.1541015625 -48.35 24.2 -44.6697265625 21.815625 -41.1 21.05 -37.9369140625 20.3544921875 -35.6 21.15 -35.13515625 16.4044921875 -34.6 12
M -35.7 22.25
Q -36.7818359375 21.7201171875 -38.1 21.6 -50.4666015625 20.771484375 -60.7 41.35 -73.0900390625 65.9177734375 -73 100.8 -72.9775390625 114.5125 -69 133.65 -66.2193359375 146.7603515625 -65.45 151.4 -63.819921875 161.4908203125 -63.95 169.4 -64.1822265625 183.0849609375 -68.15 190.45 -72.3908203125 198.3259765625 -78.2 197.3 -88.9822265625 195.461328125 -90.3 182.7 -90.4123046875 181.652734375 -90.45 180.55 -90.8345703125 179.5525390625 -91.05 178.4 -91.6119140625 174.6361328125 -90.6 170.65 -89.21875 165.3779296875 -85.6 166.55 -84.448828125 166.9109375 -83.5 167.8 -84.2564453125 164.3072265625 -87.35 162.9 -92.19921875 160.6779296875 -93.6 168.45 -94.5810546875 173.9908203125 -93.75 179.4 -91.3521484375 194.19375 -83.25 197.85 -76.9791015625 200.695703125 -70.35 196.4 -65.0435546875 193.0271484375 -60.95 186.35 -55.661328125 177.915234375 -51.35 164.7 -46.8755859375 149.3669921875 -44.55 141.85 -38.555859375 122.700390625 -37.05 107.25 -36.34296875 99.8970703125 -36.5 89.95 -36.7771484375 78.4517578125 -36.95 72.6 -37.5505859375 43.7048828125 -35.7 22.25
M -27.05 -25.1
Q -32.25 -32.334375 -40.05 -34.15 -48.4576171875 -36.05 -54.65 -29.95 -63.537890625 -21.1693359375 -72.15 0.1 -78.9080078125 17.0951171875 -82.95 36.35 -87.1416015625 56.1470703125 -85.45 72.6 -84.6208984375 80.4630859375 -80.55 101.3 -80.7544921875 95.062890625 -80.8 94.45 -81.2416015625 65.9716796875 -72.65 39.55 -68.3501953125 26.4138671875 -64 19.45 -56.9896484375 8.1556640625 -47.5 7.05 -39.95703125 6.1931640625 -34.4 10.6 -34.151171875 8.9072265625 -33.9 7.25 -31.853125 -6.028515625 -26.55 -12.85 -24.863671875 -14.92265625 -22.65 -16.6 -24.569921875 -21.60703125 -27.05 -25.1 Z"/>
</g>

<g id="FS_Torsofs_new_4_Layer0_0_FILL">
<path fill="#EBD564" stroke="none" d="
M 24.3 -25.15
Q 14.44609375 -35.7625 0.5 -35.75 -13.498828125 -35.7625 -23.3 -25.15 -33.146484375 -14.5494140625 -33.1 0.4 -33.146484375 15.3494140625 -23.3 25.9 -13.4990234375 36.614453125 0.5 36.6 14.4466796875 36.6142578125 24.3 25.9 34.1447265625 15.3482421875 34.15 0.45 34.143359375 -14.5498046875 24.3 -25.15
M 0.5 -32.75
Q 13.153515625 -32.7376953125 22.1 -23.1 31.1564453125 -13.350390625 31.15 0.45 31.1548828125 14.1517578125 22.1 23.85 13.1533203125 33.5853515625 0.5 33.6 -12.201171875 33.585546875 -21.1 23.85 -30.15390625 14.1505859375 -30.1 0.4 -30.15390625 -13.3505859375 -21.1 -23.1 -12.2013671875 -32.7376953125 0.5 -32.75 Z"/>

<path fill="#FDF6AE" stroke="none" d="
M 22.1 -23.1
Q 13.153515625 -32.7376953125 0.5 -32.75 -12.2013671875 -32.7376953125 -21.1 -23.1 -30.15390625 -13.3505859375 -30.1 0.4 -30.15390625 14.1505859375 -21.1 23.85 -12.201171875 33.585546875 0.5 33.6 13.1533203125 33.5853515625 22.1 23.85 31.1548828125 14.1517578125 31.15 0.45 31.1564453125 -13.350390625 22.1 -23.1 Z"/>
</g>

<g id="FS_FrontLeg_3_4_hooffs_new_6_Layer0_0_FILL">
<path fill="#FFF8AD" stroke="none" d="
M -0.95 -17.2
Q -8.6921875 -16.7904296875 -12.35 -12.4 -15.971875 -8.0099609375 -18.15 -4 -20.324609375 0.0544921875 -21.9 7.4 -23.42421875 14.7861328125 -17.1 18.5 -10.7796875 22.268359375 0.15 20.85 11.0783203125 19.4369140625 14.05 14.5 17.0837890625 9.596484375 17.4 1.25 17.7197265625 -7.051171875 12.3 -12.35 6.8671875 -17.5837890625 -0.95 -17.2 Z"/>
</g>

<g id="FS_KneePatchfs_new_4_Layer0_0_FILL">
<path fill="#EBD463" stroke="none" d="
M 9.2 -18.2
L 9.2 -18.25
Q 4.6197265625 -23.7099609375 -1.2 -24.35
L -1.25 -24.35
Q -7.3267578125 -25.0107421875 -11.15 -20.2 -14.843359375 -15.626171875 -14.3 -8.55 -14.2642578125 -8.4875 -14.25 -8.45 -14.19453125 -7.536328125 -14.05 -6.65
L -14.05 -6.6
Q -13.9775390625 -6.362109375 -13.95 -6.15 -13.7419921875 -5.184765625 -13.5 -4.2 -10.869921875 7.099609375 -10.9 18 -11.069140625 20.055078125 -9.7 22.1
L -9.7 22.15
Q -7.5130859375 25.533984375 -2.25 26.95 2.95 28.25625 8.35 26.35 14.11953125 24.372265625 15.45 18.95 16.8001953125 13.849609375 15.75 10.2
L 15.75 10.2
Q 14.7486328125 6.69765625 13.95 5.1 13.3763671875 3.9025390625 13.6 2.3 13.9638671875 0.1275390625 14 -0.25
L 14 -0.2
Q 14.537109375 -2.729296875 14.3 -5.8 13.66171875 -12.7482421875 9.2 -18.2 Z"/>
</g>

<g id="FS_HindLeg_3_4_topfs_new_4_Layer1_0_FILL">
<path fill="#EBD463" stroke="none" d="
M -21.95 12.95
L -21.95 12.95 -21.7 11.85 -21.95 12.95
M 8.75 36.05
Q 8.451171875 39.5978515625 7.65 43.2 3.0630859375 70.378125 -6.55 71.25 -12.30078125 70.5431640625 -17.05 55.6 -18.683984375 49.3365234375 -19.65 43.4 -21.969140625 27.7525390625 -19.05 13.65
L -18.7 12.2
Q -18.6283203125 11.8919921875 -18.55 11.55
L -18.5 11.05
Q -17.55 7.3125 -16.2 3.7 -16.094921875 3.3857421875 -16 3.05
L -15.45 1.65 -15.6 1.6
Q -19.034375 2.8314453125 -22.25 14.65 -24.83359375 28.335546875 -22.65 43.4 -22.44453125 44.6451171875 -22.25 45.9 -17.1322265625 70.4294921875 -7.3 73.3 4.542578125 74.3546875 9.65 45.7 9.8201171875 44.5220703125 9.95 43.2 10.61171875 36.7974609375 10.25 28.05 8.8962890625 32.4822265625 8.8 34.2
L 8.75 36.05 Z"/>

<path fill="#FFF8AD" stroke="none" d="
M 7.65 43.2
Q 8.451171875 39.5978515625 8.75 36.05
L 8.8 34.2
Q 8.8962890625 32.4822265625 10.25 28.05
L -16.2 3.7
Q -17.55 7.3125 -18.5 11.05
L -18.55 11.55
Q -18.6283203125 11.8919921875 -18.7 12.2
L -19.05 13.65
Q -21.969140625 27.7525390625 -19.65 43.4 -18.683984375 49.3365234375 -17.05 55.6 -12.30078125 70.5431640625 -6.55 71.25 3.0630859375 70.378125 7.65 43.2 Z"/>
</g>

<g id="FS_HindLeg_3_4rear_lowerfs_new_2_Layer1_0_FILL">
<path fill="#FFF8AD" stroke="none" d="
M -5.65 -3.6
Q -13.0958984375 2.169140625 -8.9 12.2 -5.18671875 19.70546875 7.6 6.9 17.0154296875 -1.388671875 11.5 -5.15 1.836328125 -8.4703125 -5.65 -3.6 Z"/>
</g>

<g id="FS_HindLeg_3_4rear_lowerfs_new_2_Layer0_0_FILL">
<path fill="#FFF8AD" stroke="none" d="
M -10.2 3.35
Q -15.7921875 31.9404296875 -8.9 59.25
L 24.35 43.05
Q 15.0326171875 27.90546875 13.4 -2.55
L -10.2 3.35 Z"/>
</g>

<g id="FS_KneePatchfs_new_5_Layer0_0_FILL">
<path fill="#FFF8AD" stroke="none" d="
M 11.35 -0.65
L 11.4 -0.7
Q 11.8357421875 -2.842578125 11.6 -5.45 11.08125 -11.471484375 7.2 -16.2
L 7.2 -16.2
Q 3.4427734375 -20.68203125 -1.3 -21.3
L -1.3 -21.25
Q -5.7919921875 -21.7595703125 -8.65 -18.25 -11.578515625 -14.4427734375 -11.1 -8.6
L -11.1 -8.55
Q -11.0560546875 -7.824609375 -10.95 -7.1
L -10.95 -7.05
Q -10.8775390625 -6.8244140625 -10.85 -6.6
L -10.85 -6.6
Q -10.66640625 -5.7203125 -10.4 -4.85 -10.3890625 -4.79921875 -10.4 -4.8 -7.691015625 6.9328125 -7.75 18.2 -7.72421875 18.287890625 -7.75 18.35 -7.7744140625 19.4638671875 -7.05 20.6
L -7.05 20.55
Q -5.3037109375 23.04453125 -1.3 24.15
L -1.25 24.15
Q 3.0802734375 25.2138671875 7.6 23.6 11.82109375 22.1828125 12.85 18.3 13.9654296875 14.1068359375 13.15 11.1
L 13.15 11.15
Q 12.2634765625 7.9849609375 11.55 6.5 10.5513671875 4.5603515625 10.95 1.95
L 10.95 1.9
Q 11.3125 -0.278125 11.35 -0.65 Z"/>
</g>

<g id="FS_HoofWrinklefs_new_0_Layer0_0_FILL">
<path fill="#EBD463" stroke="none" d="
M 6.4 0.9
Q 6.229296875 0.7560546875 6.05 0.6 3.57890625 -1.2400390625 -0.2 -1.1 -3.897265625 -1.0052734375 -6.15 0.85 -6.28046875 0.943359375 -6.4 1.05
L -6.05 1
Q 0.6 0 5.95 0.8
L 6.4 0.9 Z"/>
</g>

<g id="FS_Tailfs_new_92_Layer9_0_FILL">
<path fill="#F4B6D1" stroke="none" d="
M 26.6 -33.95
Q 12.35 -25.6 0 -2.35 2.2 6.1 4.55 12.55 16.25 -0.25 33.35 7.9 39.55 11.45 46.75 15.35 66.15 26.45 86.6 26.4 99.65 26.35 108.75 21.7 118.6 17.2 123.55 7.95 136.25 -11 135.85 -30.75 124 -14.75 106.6 -13.7 101.3 -12.3 95.05 -14.65 84.15 -20.15 72 -29.25 66 -33.4 60.5 -35.45 41.6 -43.2 26.6 -33.95 Z"/>
</g>

<g id="Mask_FS_Tailfs_new_92_7_MASK_0_FILL">
<path fill="#FFFFFF" stroke="none" d="
M 25.8 -35.25
L 25.85 -35.25
Q 11.2734375 -26.7646484375 -1.35 -3.05
L -1.6 -2.55 -1.45 -2
Q 0.7740234375 6.5591796875 3.15 13.05
L 3.95 15.3 5.65 13.55
Q 16.61015625 1.63203125 32.6 9.2 38.811328125 12.762109375 46 16.65
L 46 16.65
Q 65.7638671875 27.9587890625 86.6 27.9 100.050390625 27.84296875 109.4 23
L 109.35 23.05
Q 119.65859375 18.36796875 124.85 8.7 137.7796875 -10.6189453125 137.35 -30.8
L 137.35 -35 137.25 -35.05 134.65 -31.65
Q 123.2361328125 -16.246875 106.5 -15.2
L 106.2 -15.15
Q 101.4017578125 -13.9029296875 95.7 -16 84.9322265625 -21.443359375 72.9 -30.45
L 72.85 -30.5 72.85 -30.5
Q 66.6814453125 -34.7447265625 61 -36.85
L 61.05 -36.85
Q 41.42109375 -44.903515625 25.8 -35.25 Z"/>
</g>

<path id="FS_FrontLeg_3_4_hooffs_new_6_Layer0_0_1_STROKES" stroke="#EBD463" stroke-width="3" stroke-linejoin="round" stroke-linecap="round" fill="none" d="
M -0.925 -17.175
Q 6.8671875 -17.5837890625 12.3 -12.325 17.7197265625 -7.051171875 17.4 1.275 17.0837890625 9.596484375 14.075 14.525 11.0783203125 19.4369140625 0.15 20.85 -10.7796875 22.268359375 -17.1 18.525 -23.42421875 14.7861328125 -21.875 7.425 -20.324609375 0.0544921875 -18.15 -3.975 -15.971875 -8.0099609375 -12.325 -12.4 -8.6921875 -16.7904296875 -0.925 -17.175 Z"/>

<path id="FS_HindLeg_3_4rear_lowerfs_new_2_Layer1_0_1_STROKES" stroke="#EBD463" stroke-width="3" stroke-linejoin="round" stroke-linecap="round" fill="none" d="
M -5.65 -3.6
Q 1.836328125 -8.4703125 11.5 -5.15 17.0154296875 -1.388671875 7.6 6.9 -5.18671875 19.70546875 -8.9 12.2 -13.0958984375 2.169140625 -5.65 -3.6 Z"/>

<path id="FS_HindLeg_3_4rear_lowerfs_new_2_Layer0_0_1_STROKES" stroke="#EBD463" stroke-width="3" stroke-linejoin="round" stroke-linecap="round" fill="none" d="
M -8.9 59.25
Q -15.7921875 31.9404296875 -10.2 3.35
M 13.4 -2.55
Q 15.0326171875 27.90546875 24.35 43.05"/>

<path id="FS_Tailfs_new_92_Layer9_0_1_STROKES" stroke="#E781B3" stroke-width="3" stroke-linejoin="miter" stroke-linecap="butt" stroke-miterlimit="3" fill="none" d="
M 4.55 12.55
Q 16.25 -0.25 33.35 7.9 39.55 11.45 46.75 15.35 66.15 26.45 86.6 26.4 99.65 26.35 108.75 21.7 118.6 17.2 123.55 7.95 136.25 -11 135.85 -30.75 124 -14.75 106.6 -13.7 101.3 -12.3 95.05 -14.65 84.15 -20.15 72 -29.25 66 -33.4 60.5 -35.45 41.6 -43.2 26.6 -33.95 12.35 -25.6 0 -2.35 2.2 6.1 4.55 12.55 Z"/>

<path id="FS_Tailfs_new_92_Layer4_0_1_STROKES" stroke="#E781B3" stroke-width="1.5" stroke-linejoin="miter" stroke-linecap="butt" stroke-miterlimit="3" fill="none" d="
M 1 7.25
Q 19.2 -10.65 40.25 -1.45 59.6 7.5 74.45 32.2"/>

<path id="FS_Tailfs_new_92_Layer3_0_1_STROKES" stroke="#E781B3" stroke-width="1.5" stroke-linejoin="miter" stroke-linecap="butt" stroke-miterlimit="3" fill="none" d="
M -3 2.15
Q 28.65 -28.65 53.45 -13.4 69.85 -3.9 86.3 6.05 89.3 7.5 92.1 8.8 124.25 26.05 136.5 -10.8"/>

<path id="FS_Tailfs_new_92_Layer2_0_1_STROKES" stroke="#E781B3" stroke-width="2" stroke-linejoin="miter" stroke-linecap="butt" stroke-miterlimit="3" fill="none" d="
M -2.8 -0.2
Q 24.95 -37.55 53.75 -24.15 70.45 -16.75 87.55 -8.15 89 -7.45 90.45 -6.8 121.9 5.3 130.35 -29.2"/>
</defs>

<g transform="matrix( -0.47137451171875, 0, 0, 0.47137451171875, 284.2,145.15) ">
<g transform="matrix( 1, 0, 0, 1, 0,0) ">
<g transform="matrix( 0.9389495849609375, -0.3383941650390625, 0.33837890625, 0.9389495849609375, 4.2,6.1) ">
<g transform="matrix( 1, 0, 0, 1, 0,0) ">
<use xlink:href="#FS___WingcycleBACK2fs_new_6_Layer11_0_FILL"/>
</g>
</g>

<g transform="matrix( 0.966552734375, 0.0559234619140625, 0.1122894287109375, 1.0424652099609375, -21.55,17.8) ">
<g transform="matrix( 0.9151611328125, -0.3969268798828125, 0.3969268798828125, 0.9151611328125, -26.95,9.7) ">
<g transform="matrix( 1, 0, 0, 1, 0,0) ">
<use filter="url(#Filter_1)" xlink:href="#FS_FrontLeg_3_4_hooffs_new_7_Layer0_0_FILL"/>
</g>
</g>

<g transform="matrix( 0.995452880859375, 0.0920257568359375, -0.0920257568359375, 0.995452880859375, -3.9,-6.9) ">
<g transform="matrix( 1, 0, 0, 1, 0,0) ">
<use filter="url(#Filter_1)" xlink:href="#FS_FrontLeg_3_4_upperfs_new_6_Layer1_0_FILL"/>
</g>

<g transform="matrix( 1, 0, 0, 1, 0,0) ">
<use filter="url(#Filter_1)" xlink:href="#FS_FrontLeg_3_4_upperfs_new_6_Layer0_0_FILL"/>
</g>
</g>

<g transform="matrix( 1.0169219970703125, 0.2086181640625, 0.078216552734375, 0.994354248046875, -6.1,49.15) ">
<g transform="matrix( 1, 0, 0, 1, 0,0) ">
<use filter="url(#Filter_1)" xlink:href="#FS_HoofWrinklefs_new_1_Layer0_0_FILL"/>
</g>
</g>
</g>

<g transform="matrix( 0.9629364013671875, 0.0557861328125, 0.0112152099609375, 1.05303955078125, -65.25,28.35) ">
<g transform="matrix( 0.9151611328125, -0.3969268798828125, 0.3969268798828125, 0.9151611328125, -26.95,9.7) ">
<g transform="matrix( 1, 0, 0, 1, 0,0) ">
<use filter="url(#Filter_1)" xlink:href="#FS_FrontLeg_3_4_hooffs_new_7_Layer0_0_FILL"/>
</g>
</g>

<g transform="matrix( 0.995452880859375, 0.0920257568359375, -0.0920257568359375, 0.995452880859375, -3.9,-6.9) ">
<g transform="matrix( 1, 0, 0, 1, 0,0) ">
<use filter="url(#Filter_1)" xlink:href="#FS_FrontLeg_3_4_upperfs_new_6_Layer1_0_FILL"/>
</g>

<g transform="matrix( 1, 0, 0, 1, 0,0) ">
<use filter="url(#Filter_1)" xlink:href="#FS_FrontLeg_3_4_upperfs_new_6_Layer0_0_FILL"/>
</g>
</g>

<g transform="matrix( 1.0169219970703125, 0.2086181640625, 0.078216552734375, 0.994354248046875, -6.1,49.15) ">
<g transform="matrix( 1, 0, 0, 1, 0,0) ">
<use filter="url(#Filter_1)" xlink:href="#FS_HoofWrinklefs_new_1_Layer0_0_FILL"/>
</g>
</g>
</g>

<g transform="matrix( 0.9840087890625, -0.174774169921875, 0.174774169921875, 0.9840087890625, -85.25,-24.8) ">
<g transform="matrix( 1, 0, 0, 1, -16.55,-56.25) ">
<g transform="matrix( 1, 0, 0, 1, 0,0) ">
<use xlink:href="#FS_Hair_02fs_new_4_Layer1_0_FILL"/>
</g>
</g>

<g transform="matrix( 1.03985595703125, 0.005279541015625, -0.051849365234375, 0.99945068359375, -2.2,-11.15) ">
<g transform="matrix( 1, 0, 0, 1, 0,0) ">
<use xlink:href="#FS_Skullfs_new_2_Layer0_0_FILL"/>
</g>
</g>

<g transform="matrix( 1, 0, 0, 1, -31.45,-23.4) ">
<g transform="matrix( 1, 0, 0, 1, 0,0) ">
<use xlink:href="#FS_Earfs_new_5_Layer1_0_FILL"/>
</g>
</g>

<g transform="matrix( 1, 0, 0, 1, 33.8,-28.5) ">
<g transform="matrix( 1, 0, 0, 1, 0,0) ">
<use xlink:href="#FS_Earfs_new_6_Layer1_0_FILL"/>
</g>
</g>

<g transform="matrix( 0.9840087890625, 0.0013885498046875, -0.0080718994140625, 1.005340576171875, 33.85,-28.55) ">
<g transform="matrix( 1, 0, 0, 1, 0,0) ">
<use xlink:href="#FS_Earfs_new_6_Layer1_0_FILL"/>
</g>
</g>
</g>

<g transform="matrix( 0.882720947265625, -0.4647979736328125, 0.4647979736328125, 0.882720947265625, -68.25,-14.45) ">
<g transform="matrix( 1, 0, 0, 1, 0,0) ">
<use xlink:href="#FS_Neckfs_new_3_Layer0_0_FILL"/>
</g>
</g>

<g transform="matrix( 1.0439300537109375, -0.0753326416015625, 0.09295654296875, 0.996002197265625, -62.35,-72.35) ">
<g transform="matrix( 1, 0, 0, 1, 0,0) ">
<use xlink:href="#FS_Manefs_new_4_Layer0_0_FILL"/>
</g>
</g>

<g transform="matrix( -0.9875946044921875, -0.1338043212890625, -0.1337890625, 0.987579345703125, -69.05,21.05) ">
<g transform="matrix( 1, 0, 0, 1, 0,0) ">
<use xlink:href="#FS___WingcycleBACK2fs_new_6_Layer11_0_FILL"/>
</g>
</g>

<g transform="matrix( 1.23272705078125, -0.1615753173828125, 0, 1, -39.5,22.75) ">
<g transform="matrix( 1, 0, 0, 1, 0,0) ">
<use xlink:href="#FS_Torsofs_new_4_Layer0_0_FILL"/>
</g>
</g>

<g transform="matrix( 1.1424102783203125, -0.400115966796875, 0.3299713134765625, 0.9421539306640625, -53.55,21.95) ">
<g transform="matrix( 0.799285888671875, -0.597686767578125, 0.597686767578125, 0.799285888671875, -0.25,91.3) ">
<g transform="matrix( 1, 0, 0, 1, 0,0) ">
<use xlink:href="#FS_FrontLeg_3_4_hooffs_new_6_Layer0_0_FILL"/>

<use xlink:href="#FS_FrontLeg_3_4_hooffs_new_6_Layer0_0_1_STROKES"/>
</g>
</g>

<g transform="matrix( 0.5090179443359375, 0, 0, 0.5902099609375, -1.65,38.6) ">
<g transform="matrix( 1, 0, 0, 1, 0,0) ">
<use xlink:href="#FS_KneePatchfs_new_4_Layer0_0_FILL"/>
</g>
</g>

<g transform="matrix( 1.0445556640625, 0, -0.0294952392578125, 0.967803955078125, 7.25,-10.4) ">
<g transform="matrix( 1, 0, 0, 1, 0,0) ">
<use xlink:href="#FS_HindLeg_3_4_topfs_new_4_Layer1_0_FILL"/>
</g>
</g>

<g transform="matrix( 0.9882354736328125, 0.147003173828125, -0.147003173828125, 0.9882354736328125, 0.35,42.65) ">
<g transform="matrix( 1, 0, 0, 1, 0,0) ">
<use xlink:href="#FS_HindLeg_3_4rear_lowerfs_new_2_Layer1_0_FILL"/>

<use xlink:href="#FS_HindLeg_3_4rear_lowerfs_new_2_Layer1_0_1_STROKES"/>
</g>

<g transform="matrix( 1, 0, 0, 1, 0,0) ">
<use xlink:href="#FS_HindLeg_3_4rear_lowerfs_new_2_Layer0_0_FILL"/>

<use xlink:href="#FS_HindLeg_3_4rear_lowerfs_new_2_Layer0_0_1_STROKES"/>
</g>
</g>

<g transform="matrix( 0.5090179443359375, 0, 0, 0.5902099609375, -1.65,38.6) ">
<g transform="matrix( 1, 0, 0, 1, 0,0) ">
<use xlink:href="#FS_KneePatchfs_new_5_Layer0_0_FILL"/>
</g>
</g>

<g transform="matrix( 1.2472076416015625, -1.0227203369140625, 0.9496002197265625, 1.5442657470703125, -1.35,95.8) ">
<g transform="matrix( 1, 0, 0, 1, 0,0) ">
<use xlink:href="#FS_HoofWrinklefs_new_0_Layer0_0_FILL"/>
</g>
</g>
</g>

<g transform="matrix( -0.9094696044921875, 0.578338623046875, 0.5281524658203125, 0.8306121826171875, -13.9,12.4) ">
<g transform="matrix( 0.799285888671875, -0.597686767578125, 0.597686767578125, 0.799285888671875, -0.25,91.3) ">
<g transform="matrix( 1, 0, 0, 1, 0,0) ">
<use xlink:href="#FS_FrontLeg_3_4_hooffs_new_6_Layer0_0_FILL"/>

<use xlink:href="#FS_FrontLeg_3_4_hooffs_new_6_Layer0_0_1_STROKES"/>
</g>
</g>

<g transform="matrix( 0.5090179443359375, 0, 0, 0.5902099609375, -1.65,38.6) ">
<g transform="matrix( 1, 0, 0, 1, 0,0) ">
<use xlink:href="#FS_KneePatchfs_new_4_Layer0_0_FILL"/>
</g>
</g>

<g transform="matrix( 1.0445556640625, 0, -0.0294952392578125, 0.967803955078125, 7.25,-10.4) ">
<g transform="matrix( 1, 0, 0, 1, 0,0) ">
<use xlink:href="#FS_HindLeg_3_4_topfs_new_4_Layer1_0_FILL"/>
</g>
</g>

<g transform="matrix( 0.9882354736328125, 0.147003173828125, -0.147003173828125, 0.9882354736328125, 0.35,42.65) ">
<g transform="matrix( 1, 0, 0, 1, 0,0) ">
<use xlink:href="#FS_HindLeg_3_4rear_lowerfs_new_2_Layer1_0_FILL"/>

<use xlink:href="#FS_HindLeg_3_4rear_lowerfs_new_2_Layer1_0_1_STROKES"/>
</g>

<g transform="matrix( 1, 0, 0, 1, 0,0) ">
<use xlink:href="#FS_HindLeg_3_4rear_lowerfs_new_2_Layer0_0_FILL"/>

<use xlink:href="#FS_HindLeg_3_4rear_lowerfs_new_2_Layer0_0_1_STROKES"/>
</g>
</g>

<g transform="matrix( 0.5090179443359375, 0, 0, 0.5902099609375, -1.65,38.6) ">
<g transform="matrix( 1, 0, 0, 1, 0,0) ">
<use xlink:href="#FS_KneePatchfs_new_5_Layer0_0_FILL"/>
</g>
</g>

<g transform="matrix( 1.2472076416015625, -1.0227203369140625, 0.9496002197265625, 1.5442657470703125, -1.35,95.8) ">
<g transform="matrix( 1, 0, 0, 1, 0,0) ">
<use xlink:href="#FS_HoofWrinklefs_new_0_Layer0_0_FILL"/>
</g>
</g>
</g>

<g transform="matrix( 1.048980712890625, 0.676361083984375, -0.432861328125, 0.6713409423828125, -21.7,7.05) ">
<g transform="matrix( 1, 0, 0, 1, 0,0) ">
<use xlink:href="#FS_Tailfs_new_92_Layer9_0_FILL"/>

<use xlink:href="#FS_Tailfs_new_92_Layer9_0_1_STROKES"/>
</g>

<mask id="Mask_Mask_1">
<g transform="matrix( 1, 0, 0, 1, 0,0) ">
<use xlink:href="#Mask_FS_Tailfs_new_92_7_MASK_0_FILL"/>
</g>
</mask>

<g mask="url(#Mask_Mask_1)"/>

<g mask="url(#Mask_Mask_1)"/>

<g mask="url(#Mask_Mask_1)"/>

<g mask="url(#Mask_Mask_1)">
<g transform="matrix( 1, 0, 0, 1, 0,0) ">
<use xlink:href="#FS_Tailfs_new_92_Layer4_0_1_STROKES"/>
</g>
</g>

<g mask="url(#Mask_Mask_1)">
<g transform="matrix( 1, 0, 0, 1, 0,0) ">
<use xlink:href="#FS_Tailfs_new_92_Layer3_0_1_STROKES"/>
</g>
</g>

<g mask="url(#Mask_Mask_1)">
<g transform="matrix( 1, 0, 0, 1, 0,0) ">
<use xlink:href="#FS_Tailfs_new_92_Layer2_0_1_STROKES"/>
</g>
</g>
</g>
</g>
</g>
</svg>
