
<svg xmlns="http://www.w3.org/2000/svg" version="1.1" xmlns:xlink="http://www.w3.org/1999/xlink" preserveAspectRatio="none" x="0px" y="0px" width="864px" height="486px" viewBox="0 0 864 486">
<defs>
<filter id="Filter_1" x="-20%" y="-20%" width="140%" height="140%" color-interpolation-filters="sRGB">
<feColorMatrix in="SourceGraphic" type="matrix" values="1 0 0 0 0 0 1 0 0 0 0 0 1 0 0 0 0 0 0.21 0" result="result1"/>
</filter>

<filter id="Filter_2" x="-20%" y="-20%" width="140%" height="140%" color-interpolation-filters="sRGB">
<feColorMatrix in="SourceGraphic" type="matrix" values="1 0 0 0 0.0196078431372549 0 1 0 0 -0.06274509803921569 0 0 1 0 -0.12156862745098039 0 0 0 1 0" result="result1"/>
</filter>

<g id="FS_Shadow_0_Layer0_0_FILL">
<path fill="#000000" stroke="none" d="
M 46.4 155.05
Q 68.65 152.95 68.65 149.95 68.65 146.95 46.4 144.8 24.15 142.7 -7.4 142.7 -38.9 142.7 -61.2 144.8 -83.45 146.95 -83.45 149.95 -83.45 152.95 -61.2 155.05 -38.9 157.2 -7.4 157.2 24.15 157.2 46.4 155.05 Z"/>
</g>

<g id="FS_WingBack_8_Layer2_0_FILL">
<path fill="#EBD463" stroke="none" d="
M 12.05 -17.2
L 12.05 -17.25
Q 9.0650390625 -21.4701171875 4.6 -23.8 1.9 -25.2 -4.3 -26.1 -7.4 -12.45 -4.65 0.85 -1.9 14.25 6.2 24.55 12.85 20.05 14.85 16.25
L 14.85 16.2
Q 17.5927734375 10.9806640625 17.65 4.25 17.7 -9.2435546875 12.05 -17.2
M 9.6 -15.5
L 9.6 -15.5
Q 14.7 -8.1564453125 14.65 4.25 14.60703125 10.219140625 12.2 14.85
L 12.2 14.85
Q 10.0923828125 18.83671875 6.85 20.45 -7.290234375 1.6333984375 -2.15 -22.8 0.478515625 -22.559375 3.2 -21.15 7.034765625 -19.1298828125 9.6 -15.5 Z"/>

<path fill="#FDF6AE" stroke="none" d="
M 9.6 -15.5
L 9.6 -15.5
Q 7.034765625 -19.1298828125 3.2 -21.15 0.478515625 -22.559375 -2.15 -22.8 -7.290234375 1.6333984375 6.85 20.45 10.0923828125 18.83671875 12.2 14.85
L 12.2 14.85
Q 14.60703125 10.219140625 14.65 4.25 14.7 -8.1564453125 9.6 -15.5 Z"/>
</g>

<g id="FS_FrontLeg_3_4_hoof_10_Layer0_0_FILL">
<path fill="#EBD463" stroke="none" d="
M 16.35 -7.2
Q 13.0224609375 -13.9443359375 6.05 -16.8 -0.9236328125 -19.6390625 -7.4 -16.8
L -7.45 -16.8
Q -13.68984375 -14.0404296875 -16.05 -7.45
L -16.05 -7.45
Q -18.6091796875 -2.4802734375 -19.65 4.6
L -19.65 4.65
Q -20.2140625 7.7609375 -19.4 9.6 -18.7173828125 11.1390625 -16.7 12.45 -14.13828125 14.2466796875 -9.15 15 -4.1478515625 15.7416015625 2.4 15.95 8.943359375 16.1537109375 13.05 14.9 17.158984375 13.644921875 17.55 12.9 17.9890625 12.15390625 18.25 10.7 18.5669921875 9.2423828125 18.25 0.4
L 18.25 0.35
Q 18.251953125 0.3330078125 18.25 0.3
L 18.25 0.25
Q 18.09140625 -3.49609375 16.35 -7.2
M 5.25 -14.4
Q 11.223828125 -11.9392578125 14.05 -6.15
L 14.05 -6.2
Q 15.527734375 -3.0994140625 15.65 0.05 15.680078125 0.1130859375 15.65 0.15 15.68125 0.34609375 15.7 0.5
L 15.8 0.5
Q 15.8068359375 1.0310546875 15.55 5.75 15.35234375 10.5166015625 13.8 11.4 12.241015625 12.343359375 8.2 12.7 4.2078125 13.093359375 0 13.05 -4.1990234375 13.030859375 -8.05 12.55 -11.8728515625 12.10546875 -14.55 10.4 -17.223046875 8.7404296875 -16.6 4.95 -15.9259765625 1.1671875 -15.25 -1.45 -14.530078125 -4.074609375 -13.8 -5.85 -13.790234375 -5.888671875 -13.8 -5.95 -13.7259765625 -6.0068359375 -13.7 -6.1
L -13.7 -6.15
Q -11.7255859375 -11.9853515625 -6.25 -14.4
L -6.25 -14.4
Q -0.7126953125 -16.8146484375 5.25 -14.4 Z"/>

<path fill="#FDF6AE" stroke="none" d="
M 14.05 -6.15
Q 11.223828125 -11.9392578125 5.25 -14.4 -0.7126953125 -16.8146484375 -6.25 -14.4
L -6.25 -14.4
Q -11.7255859375 -11.9853515625 -13.7 -6.15
L -13.7 -6.1
Q -13.7259765625 -6.0068359375 -13.8 -5.95 -13.790234375 -5.888671875 -13.8 -5.85 -14.530078125 -4.074609375 -15.25 -1.45 -15.9259765625 1.1671875 -16.6 4.95 -17.223046875 8.7404296875 -14.55 10.4 -11.8728515625 12.10546875 -8.05 12.55 -4.1990234375 13.030859375 0 13.05 4.2078125 13.093359375 8.2 12.7 12.241015625 12.343359375 13.8 11.4 15.35234375 10.5166015625 15.55 5.75 15.8068359375 1.0310546875 15.8 0.5
L 15.7 0.5
Q 15.68125 0.34609375 15.65 0.15 15.680078125 0.1130859375 15.65 0.05 15.527734375 -3.0994140625 14.05 -6.2
L 14.05 -6.15 Z"/>
</g>

<g id="FS_FrontLeg_3_4_upper_9_Layer1_0_FILL">
<path fill="#EBD463" stroke="none" d="
M 11.75 13.2
Q 11.144921875 1.025390625 10.15 1.25 10.139453125 1.287109375 10.1 1.3 9.6564453125 1.7580078125 9.65 2.35
L 8.65 97.85 8.65 98.4
Q 8.6419921875 99.04921875 9.05 99.5 9.508203125 99.9439453125 10.1 99.95 10.749609375 99.95859375 11.2 99.5 11.643359375 99.0919921875 11.65 98.45
L 11.75 13.2
M -6.95 -4.85
Q -6.8689453125 -5.175 -6.95 -5.5 -7.0064453125 -5.7345703125 -7.2 -6 -7.3349609375 -6.195703125 -7.55 -6.35 -10.0052734375 -2.7806640625 -13.2 18.35
L -26.15 95.7
Q -26.231640625 96.3162109375 -25.9 96.8 -25.510546875 97.3275390625 -24.9 97.4 -24.283984375 97.5318359375 -23.8 97.15 -23.2728515625 96.81015625 -23.2 96.2
L -23.1 95.6 -6.95 -4.85 Z"/>

<path fill="#FDF6AE" stroke="none" d="
M -6.95 -5.5
Q -6.8689453125 -5.175 -6.95 -4.85
L -23.1 95.6
Q -6.440625 92.104296875 8.65 97.85
L 9.65 2.35
Q 9.6564453125 1.7580078125 10.1 1.3 10.139453125 1.287109375 10.15 1.25 10.226953125 1.211328125 10.25 1.15 10.20390625 1.0802734375 10.1 0.95 3.43359375 -7.75078125 -6.95 -5.5 Z"/>
</g>

<g id="FS_Hair_05_4_Layer1_0_FILL">
<path fill="#E781B3" stroke="none" d="
M 8.85 -41.95
Q 4.1453125 -37.525 1.8 -31.6 -0.623828125 -25.60390625 -0.15 -19.3 0.221484375 -15.0275390625 4.35 -5.55 6.8001953125 0.0916015625 11.7 8.9 23.8705078125 30.784375 26.3 36.3 32.908203125 51.159765625 33.3 67.2 33.552734375 76.4685546875 30.9 98.25 30.7453125 99.7525390625 30.6 100.6 33.46328125 111.5416015625 44.45 113.05 54.4103515625 112.8314453125 58.45 98.75 58.3083984375 99.1751953125 58.65 97.75
L 62.85 81.55
Q 68.828515625 60.0115234375 71.45 49.1 76.095703125 30.05625 76 16 75.904296875 -16.0134765625 57.8 -35.4 46.253515625 -47.7859375 32.85 -50.25 20.2212890625 -52.522265625 8.85 -41.95
M 3 -26.7
Q 3.916796875 -31.8771484375 7.35 -36.85 12.2271484375 -43.90078125 19.95 -47.4 27.993359375 -51.05625 38.05 -46.7 45.5353515625 -43.3919921875 53.15 -36.2 44.1814453125 -40.45 34.9 -40.6 20.6740234375 -40.830078125 7 -30.1 4.9833984375 -28.4810546875 3 -26.7
M 6.65 -7.25
Q 7.3162109375 -8.8294921875 8 -10.35 13.3001953125 -21.824609375 22.1 -28.85 32.444140625 -37.0126953125 43.75 -35.15 54.568359375 -33.3224609375 64.35 -21.35 66.82265625 -16.698828125 68.65 -11.4 73.63984375 2.893359375 72.85 20.2 72.298828125 34.0896484375 67.8 51.8 65.03046875 62.7025390625 59.3 84.4 58.073828125 89.373828125 55.6 98.8
L 55.65 98.85
Q 52.9455078125 108.2529296875 46.3 110.75
L 46.9 101.1
Q 47.4287109375 92.559765625 47.35 87.2 47.2958984375 75.4240234375 45 65.7 40.9427734375 48.439453125 32.6 44.75 31.0232421875 39.8861328125 28.8 34.8 25.987890625 28.519921875 14.1 7 8.717578125 -2.6275390625 6.95 -6.55 6.8005859375 -6.884375 6.65 -7.25
M 2.75 -21.2
Q 2.6294921875 -22.9779296875 2.75 -24.75 5.6578125 -27.496875 8.7 -29.8 22.3384765625 -40.1376953125 36.85 -39.4 46.4533203125 -38.9224609375 55.8 -33.5 58.507421875 -30.5625 60.8 -27.25 51.621484375 -35.7453125 41.05 -36.15 31.8384765625 -36.441796875 23 -30.4 15.37890625 -25.0669921875 9.9 -16.4 7.7974609375 -12.9791015625 5.95 -8.9 3.228125 -15.64609375 2.75 -21.2
M 33.1 46.5
Q 34.176953125 47.179296875 35.15 48.15 39.90859375 52.775390625 42.95 63.9 45.6748046875 73.6587890625 45.9 85.7 46.0138671875 91.7541015625 45.45 101.1
L 44.6 110.75
Q 34.0033203125 108.3857421875 33.6 98.2
L 33.55 98.2
Q 36.4958984375 74.8173828125 36.2 65.1 36.0060546875 56.1888671875 33.1 46.5 Z"/>

<path fill="#F4B6D1" stroke="none" d="
M 35.15 48.15
Q 34.176953125 47.179296875 33.1 46.5 36.0060546875 56.1888671875 36.2 65.1 36.4958984375 74.8173828125 33.55 98.2
L 33.6 98.2
Q 34.0033203125 108.3857421875 44.6 110.75
L 45.45 101.1
Q 46.0138671875 91.7541015625 45.9 85.7 45.6748046875 73.6587890625 42.95 63.9 39.90859375 52.775390625 35.15 48.15
M 2.75 -24.75
Q 2.6294921875 -22.9779296875 2.75 -21.2 3.228125 -15.64609375 5.95 -8.9 7.7974609375 -12.9791015625 9.9 -16.4 15.37890625 -25.0669921875 23 -30.4 31.8384765625 -36.441796875 41.05 -36.15 51.621484375 -35.7453125 60.8 -27.25 58.507421875 -30.5625 55.8 -33.5 46.4533203125 -38.9224609375 36.85 -39.4 22.3384765625 -40.1376953125 8.7 -29.8 5.6578125 -27.496875 2.75 -24.75
M 8 -10.35
Q 7.3162109375 -8.8294921875 6.65 -7.25 6.8005859375 -6.884375 6.95 -6.55 8.717578125 -2.6275390625 14.1 7 25.987890625 28.519921875 28.8 34.8 31.0232421875 39.8861328125 32.6 44.75 40.9427734375 48.439453125 45 65.7 47.2958984375 75.4240234375 47.35 87.2 47.4287109375 92.559765625 46.9 101.1
L 46.3 110.75
Q 52.9455078125 108.2529296875 55.65 98.85
L 55.6 98.8
Q 58.073828125 89.373828125 59.3 84.4 65.03046875 62.7025390625 67.8 51.8 72.298828125 34.0896484375 72.85 20.2 73.63984375 2.893359375 68.65 -11.4 66.82265625 -16.698828125 64.35 -21.35 54.568359375 -33.3224609375 43.75 -35.15 32.444140625 -37.0126953125 22.1 -28.85 13.3001953125 -21.824609375 8 -10.35
M 7.35 -36.85
Q 3.916796875 -31.8771484375 3 -26.7 4.9833984375 -28.4810546875 7 -30.1 20.6740234375 -40.830078125 34.9 -40.6 44.1814453125 -40.45 53.15 -36.2 45.5353515625 -43.3919921875 38.05 -46.7 27.993359375 -51.05625 19.95 -47.4 12.2271484375 -43.90078125 7.35 -36.85 Z"/>
</g>

<g id="FS_Hair_03_4_Layer1_0_FILL">
<path fill="#F4B6D1" stroke="none" d="
M 7.65 67.45
Q 11.267578125 68.602734375 14.45 68.1 11.3626953125 67.07578125 9.2 64.35 0.9341796875 54.0390625 -1.05 38.05 -2.340234375 27.4744140625 -0.95 9.4 -0.5455078125 4.455859375 -0.35 0.25 -1.0919921875 -2.9046875 -12.4 0.25 -14.9271484375 21.005859375 -13.75 32.8 -11.8736328125 51.2751953125 -4.1 59.65 1.4345703125 65.5044921875 7.65 67.45
M 18.75 68.3
Q 18.7107421875 68.2439453125 18.65 68.15 18.454296875 68.2671875 18.2 68.35 18.5390625 68.36015625 18.85 68.35 18.809375 68.33203125 18.75 68.3
M 1.15 0.25
Q 0.906640625 4.874609375 0.45 10.55 -0.3673828125 21.46875 -0.35 27.35 -0.2970703125 36.7767578125 1.5 44.05 3.0443359375 50.239453125 6.55 57.25 10.581640625 65.34765625 14.55 67.05 15.4296875 67.44140625 16.25 67.65 18.76640625 66.8712890625 20.95 65 26.5353515625 60.3197265625 27.15 52.85 25.476953125 55.6685546875 21.85 56.9 14.5431640625 59.319921875 7.75 46.55 2.820703125 37.0541015625 5.75 18.65 6.865234375 11.7892578125 9.25 2.25 9.51484375 1.2259765625 9.75 0.25 0.713671875 -2.20625 1.15 0.25 Z"/>

<path fill="#E781B3" stroke="none" d="
M 0.45 10.55
Q 0.906640625 4.874609375 1.15 0.25
L -0.35 0.25
Q -0.5455078125 4.455859375 -0.95 9.4 -2.340234375 27.4744140625 -1.05 38.05 0.9341796875 54.0390625 9.2 64.35 11.3626953125 67.07578125 14.45 68.1 11.267578125 68.602734375 7.65 67.45 1.4345703125 65.5044921875 -4.1 59.65 -11.8736328125 51.2751953125 -13.75 32.8 -14.9271484375 21.005859375 -12.4 0.25 -14.79140625 0.00859375 -15.25 1.75
L -15.25 1.75
Q -17.8353515625 22.7744140625 -16.6 34.75 -14.2521484375 57.884375 0.8 67.15 6.8576171875 70.8890625 14.25 69.45 16.3607421875 69.0837890625 18.2 68.35 18.454296875 68.2671875 18.65 68.15 22.98046875 66.3642578125 26.1 62.7 30.0458984375 58.123828125 30.25 50.6 30.279296875 50.4623046875 30.25 50.3 29.9830078125 48.3154296875 28.05 48 26.0564453125 47.426953125 25.4 50.3 25.3607421875 50.599609375 25.25 50.9 23.0794921875 58.5529296875 17 53.4 12.4654296875 49.5123046875 9.7 43.6 8.989453125 42.0787109375 8.5 40.3
L 8.05 38.65
Q 7.2310546875 34.6935546875 7.4 29.75 7.551171875 24.93046875 9.1 15.6 10.0171875 10.3271484375 11.8 3.05 12.1267578125 0.5884765625 9.75 0.25 9.51484375 1.2259765625 9.25 2.25 6.865234375 11.7892578125 5.75 18.65 2.820703125 37.0541015625 7.75 46.55 14.5431640625 59.319921875 21.85 56.9 25.476953125 55.6685546875 27.15 52.85 26.5353515625 60.3197265625 20.95 65 18.76640625 66.8712890625 16.25 67.65 15.4296875 67.44140625 14.55 67.05 10.581640625 65.34765625 6.55 57.25 3.0443359375 50.239453125 1.5 44.05 -0.2970703125 36.7767578125 -0.35 27.35 -0.3673828125 21.46875 0.45 10.55 Z"/>
</g>

<g id="FS_Hair_04_4_Layer1_0_FILL">
<path fill="#E781B3" stroke="none" d="
M -4.75 -15.75
Q -7.2529296875 -16.63359375 -10.05 -15.85 -12.6490234375 -15.05703125 -14.4 -13.15
L -15.65 -11.45 -12.9 -11.45
Q -10.01953125 -11.16328125 -7.4 -9.5 -4.59453125 -7.6912109375 -3.25 -5.1 -2.0681640625 -2.7021484375 -2.45 -0.25 -2.5916015625 2.497265625 -0.4 2.5 2.3931640625 2.3587890625 2.3 -0.25 2.3587890625 -6.891796875 -0.55 -12.15 -2.022265625 -14.8345703125 -4.75 -15.75
M -10.9 -13.05
Q -11.2396484375 -13.0728515625 -11.6 -13.1 -11.4615234375 -13.20546875 -11.35 -13.3 -7.5884765625 -15.575 -4.9 -13.15 -3.2939453125 -11.6619140625 -2.3 -8.7 -5.4787109375 -12.1650390625 -10.55 -13 -10.7091796875 -12.998828125 -10.9 -13.05 Z"/>

<path fill="#F4B6D1" stroke="none" d="
M -11.6 -13.1
Q -11.2396484375 -13.0728515625 -10.9 -13.05 -10.7091796875 -12.998828125 -10.55 -13 -5.4787109375 -12.1650390625 -2.3 -8.7 -3.2939453125 -11.6619140625 -4.9 -13.15 -7.5884765625 -15.575 -11.35 -13.3 -11.4615234375 -13.20546875 -11.6 -13.1 Z"/>
</g>

<g id="FS_Skull_2_Layer0_0_FILL">
<path fill="#EBD463" stroke="none" d="
M 17.3 -50
Q 10.4 -52.1 0.9 -52.25 -8.45 -52.4 -16.75 -49.2 -25.55 -45.75 -31.05 -39.3 -46.1 -21.6 -46.1 -1.1 -46.1 11.3 -43.4 20.4 -40.6 29.75 -34.65 36.5 -27.65 44.55 -18.5 48.75 -9.25 53.05 1.5 53.05 22.65 53.05 37 36.5 42.8 29.9 45.45 20.1 47.85 11.1 47.9 -1.7 47.85 -23.45 33.4 -39.9 27.2 -47.05 17.3 -50
M 0.9 -49.25
Q 10.95 -48.85 16.65 -47.2 25.35 -44.6 31.15 -37.95 44.85 -22.3 44.9 -1.7 44.85 10.45 42.6 18.95 40.15 28.25 34.75 34.55 21.25 50.05 1.5 50.05 -8.55 50.05 -17.25 46.05 -25.8 42.1 -32.4 34.55 -38 28.1 -40.6 19.25 -43.1 10.65 -43.1 -1.1 -43.1 -21 -28.8 -37.35 -22.85 -44.2 -14.2 -47.15 -7.25 -49.55 0.9 -49.25 Z"/>

<path fill="#FDF6AE" stroke="none" d="
M 16.65 -47.2
Q 10.95 -48.85 0.9 -49.25 -7.25 -49.55 -14.2 -47.15 -22.85 -44.2 -28.8 -37.35 -43.1 -21 -43.1 -1.1 -43.1 10.65 -40.6 19.25 -38 28.1 -32.4 34.55 -25.8 42.1 -17.25 46.05 -8.55 50.05 1.5 50.05 21.25 50.05 34.75 34.55 40.15 28.25 42.6 18.95 44.85 10.45 44.9 -1.7 44.85 -22.3 31.15 -37.95 25.35 -44.6 16.65 -47.2 Z"/>
</g>

<g id="FS_Ear_5_Layer1_0_FILL">
<path fill="#FDF6AE" stroke="none" d="
M -20.1 -26.3
Q -23.571484375 -10.808203125 -20.3 -0.7 -17.3537109375 8.1306640625 -8.85 13.95
L -8.35 14.3 -8.3 14.3
Q -7.203125 15.0419921875 -4.9 16.3
L -3.95 16.85
Q 2.99140625 6.6712890625 2.75 -9.6
L 2.75 -17.95
Q 2.75 -21.5072265625 2.75 -23.35
L 2.75 -23.4
Q 2.4267578125 -39.3626953125 -6.15 -49.6 -16.8560546875 -40.4384765625 -20.1 -26.3 Z"/>

<path fill="#EBD463" stroke="none" d="
M -4.75 -52.5
Q -4.764453125 -52.5748046875 -4.85 -52.65 -5.1345703125 -53.02421875 -5.6 -53.15
L -5.85 -53.2
Q -5.8873046875 -53.20390625 -5.95 -53.2 -6.4943359375 -53.24140625 -6.95 -52.9 -19.4068359375 -42.8458984375 -23.05 -26.95 -26.7287109375 -10.491796875 -23.15 0.25 -20.4 8.6 -10.6 15.3 -8.6201171875 16.63046875 -5.05 16.8 -4.5166015625 16.847265625 -3.95 16.85
L -4.9 16.3
Q -7.203125 15.0419921875 -8.3 14.3
L -8.35 14.3 -8.85 13.95
Q -17.3537109375 8.1306640625 -20.3 -0.7 -23.571484375 -10.808203125 -20.1 -26.3 -16.8560546875 -40.4384765625 -6.15 -49.6 2.4267578125 -39.3626953125 2.75 -23.4
L 2.75 -23.35
Q 2.75 -21.5072265625 2.75 -17.95
L 2.75 -9.6
Q 4.41796875 -13.762109375 5.75 -23.35
L 5.75 -24.9 5.7 -24.9
Q 4.966796875 -41.784765625 -4.75 -52.5 Z"/>
</g>

<g id="FS_Ear_6_Layer1_0_FILL">
<path fill="#FDF6AE" stroke="none" d="
M 21.1 -7.35
Q 23.455078125 -19.7173828125 20 -31.6 16.6439453125 -43.123828125 9 -49.4 0.3212890625 -38.8369140625 -0.55 -21
L -0.6 -19.45
Q -0.6498046875 -17.705078125 -0.65 -15.9
L -0.65 -14.4
Q 0.4736328125 3.6412109375 4.6 19.65
L 5.7 18.7 5.75 18.7
Q 5.75703125 18.69375 5.75 18.7 8.1162109375 16.587890625 9.25 15.4
L 9.9 14.7
Q 18.7443359375 5.3640625 21.1 -7.35 Z"/>

<path fill="#EBD463" stroke="none" d="
M 8.7 -52.95
Q 8.0990234375 -52.9130859375 7.65 -52.45 -1.3 -42.45 -2.35 -25.3 -2.6138671875 -21.296875 -1.1 -15.9 -0.8904296875 -15.16328125 -0.65 -14.4
L -0.65 -15.9
Q -0.6498046875 -17.705078125 -0.6 -19.45
L -0.55 -21
Q 0.3212890625 -38.8369140625 9 -49.4 16.6439453125 -43.123828125 20 -31.6 23.455078125 -19.7173828125 21.1 -7.35 18.7443359375 5.3640625 9.9 14.7
L 9.25 15.4
Q 8.1162109375 16.587890625 5.75 18.7 5.75703125 18.69375 5.75 18.7
L 5.7 18.7 4.6 19.65 4.55 19.65 4.6 19.7 4.6 19.7
Q 10.8576171875 18.2390625 14.9 12.45 22.4810546875 1.691796875 24.05 -6.8 26.5447265625 -19.8826171875 22.9 -32.45 19.01640625 -45.780078125 9.8 -52.6 9.752734375 -52.6173828125 9.7 -52.65 9.2767578125 -52.9833984375 8.7 -52.95 Z"/>
</g>

<g id="FS_Neck_3_Layer0_0_FILL">
<path fill="#EBD564" stroke="none" d="
M 16.5 -0.95
L 16.5 -1
Q 16.35 -4.15 14.55 -6.45
L 14.55 -6.45 16.75 40.05
Q 15.338671875 52.17109375 -1.45 51 -15.9587890625 49.69609375 -16.35 40.2
L -14.8 -6.45
Q -16.8 -3.35 -16.7 -0.9
L -19.35 39.95 -19.35 40
Q -19.35078125 40.0619140625 -19.35 40.1 -19.450390625 52.4119140625 -1.7 54
L -1.65 54
Q 18.469140625 55.41328125 19.8 40.25
L 19.8 40.25
Q 19.80625 40.179296875 19.8 40.1 19.80546875 40.0416015625 19.8 39.95
L 19.8 39.95 16.5 -0.95 Z"/>

<path fill="#FDF6AE" stroke="none" d="
M 14.55 -6.45
L 14.5 -6.45 14.1 -11.75
Q 13.95 -17.4 9.95 -20.45 6.25 -23.25 0.45 -23 -13.15 -22.45 -14.5 -11.9
L -14.85 -6.45 -14.8 -6.45 -16.35 40.2
Q -15.9587890625 49.69609375 -1.45 51 15.338671875 52.17109375 16.75 40.05
L 14.55 -6.45 Z"/>
</g>

<g id="FS_Mane_01_4_Layer1_0_FILL">
<path fill="#000000" stroke="none" d="
M -19.7 -16.75
L -19.75 -16.8 -19.8 -16.9
Q -19.762109375 -16.8255859375 -19.75 -16.8 -19.7802734375 -16.7255859375 -19.85 -16.7 -19.7609375 -16.7103515625 -19.7 -16.75
M -34.8 22.75
Q -34.7599609375 22.6541015625 -34.75 22.55
L -34.85 22.7
Q -34.7986328125 22.735546875 -34.8 22.75 Z"/>

<path fill="#F4B6D1" stroke="none" d="
M -21.6 -21.15
Q -20.9421875 -19.83359375 -20.35 -18.35 -16.8458984375 -20.423828125 -13.1 -21.7 -9.023828125 -23.0841796875 -4.65 -23.55 -16.0349609375 -27.5384765625 -23.95 -25.35 -22.659375 -23.401953125 -21.6 -21.15
M -35.7 22.25
Q -36.7818359375 21.7201171875 -38.1 21.6 -50.4666015625 20.771484375 -60.7 41.35 -73.0900390625 65.9177734375 -73 100.8 -72.9775390625 114.5125 -69 133.65 -66.2193359375 146.7603515625 -65.45 151.4 -63.819921875 161.4908203125 -63.95 169.4 -64.140234375 180.619921875 -66.75 187.3 -62.2333984375 188.012109375 -59.7 184.45
L -59.75 184.4
Q -55.6650390625 177.91171875 -51.35 164.7 -46.8755859375 149.3669921875 -44.55 141.85 -38.555859375 122.700390625 -37.05 107.25 -36.34296875 99.8970703125 -36.5 89.95 -36.7771484375 78.4517578125 -36.95 72.6 -37.5505859375 43.7048828125 -35.7 22.25
M -34.6 12
Q -35.253125 11.46875 -36 10.95 -40.31484375 8.102734375 -45.25 8 -50.387890625 7.8962890625 -54.55 10.75 -61.5318359375 15.7298828125 -67.5 29.8 -72.4404296875 41.39296875 -75.2 54.3 -80.1306640625 76.9720703125 -78.9 104.3 -78.771875 107.416796875 -78.75 110.25 -74.9943359375 129.055859375 -73.65 140.7 -71.468359375 159.3171875 -72.95 174.2 -73.0705078125 175.6474609375 -73.2 176.45 -74.28828125 183.0326171875 -68.05 186.6 -64.2208984375 175.9087890625 -65.45 162.25 -65.9841796875 155.756640625 -67.7 147 -69.79375 137.1634765625 -70.75 132.6 -77.522265625 99.5779296875 -71.1 69.05 -67.6033203125 52.416796875 -62.6 42.45 -55.92109375 29.1541015625 -48.35 24.2 -44.6697265625 21.815625 -41.1 21.05 -37.9369140625 20.3544921875 -35.6 21.15 -35.13515625 16.4044921875 -34.6 12
M -27.05 -25.1
Q -32.25 -32.334375 -40.05 -34.15 -48.4576171875 -36.05 -54.65 -29.95 -63.537890625 -21.1693359375 -72.15 0.1 -78.9080078125 17.0951171875 -82.95 36.35 -87.1416015625 56.1470703125 -85.45 72.6 -84.6208984375 80.4630859375 -80.55 101.3 -80.7544921875 95.062890625 -80.8 94.45 -81.2416015625 65.9716796875 -72.65 39.55 -68.3501953125 26.4138671875 -64 19.45 -56.9896484375 8.1556640625 -47.5 7.05 -39.95703125 6.1931640625 -34.4 10.6 -34.151171875 8.9072265625 -33.9 7.25 -31.853125 -6.028515625 -26.55 -12.85 -24.863671875 -14.92265625 -22.65 -16.6 -24.569921875 -21.60703125 -27.05 -25.1 Z"/>

<path fill="#E781B3" stroke="none" d="
M -59.4 -28.05
Q -64.958984375 -21.718359375 -71.75 -7.25 -77.891015625 5.9248046875 -82.75 23.45 -88.3259765625 44.2013671875 -88.9 57.65 -89.55234375 71.7271484375 -85.75 91.8 -83.62421875 103.11796875 -79 125.55 -76.2388671875 142.087109375 -75.6 155.95 -75.172265625 163.975 -75.7 171.95 -75.78671875 174.01953125 -76.05 175.75
L -76 175.8
Q -77.218359375 182.616796875 -72.65 187.45 -70.691796875 189.3740234375 -67.45 189.85 -61.63203125 190.4302734375 -60.15 188.55 -58.4478515625 186.4583984375 -55.2 181.05 -51.9044921875 175.6849609375 -47.6 162 -43.1685546875 146.2056640625 -40.85 138.6 -33.921875 116.2451171875 -33.4 94.35 -33.300390625 89.6822265625 -33.6 82.4 -34.023828125 71.9224609375 -34.05 70.45 -34.2943359375 60.152734375 -33.9 46.2 -33.0244140625 17.861328125 -30.55 3.75 -28.4064453125 -8.4869140625 -22 -14.85 -20.9310546875 -15.8859375 -19.75 -16.8 -19.7703125 -16.8330078125 -19.8 -16.9
L -19.8 -16.9 -19.8 -16.9 -19.75 -16.8 -19.7 -16.75
Q -15.71328125 -19.1806640625 -13.1 -20.35 -9.2369140625 -22.05234375 -4.65 -23.55 -9.023828125 -23.0841796875 -13.1 -21.7 -16.8458984375 -20.423828125 -20.35 -18.35 -20.9421875 -19.83359375 -21.6 -21.15 -22.659375 -23.401953125 -23.95 -25.35 -29.4615234375 -33.813671875 -38.55 -36 -49.946484375 -38.7677734375 -59.4 -28.05
M -40.05 -34.15
Q -32.25 -32.334375 -27.05 -25.1 -24.569921875 -21.60703125 -22.65 -16.6 -24.863671875 -14.92265625 -26.55 -12.85 -31.853125 -6.028515625 -33.9 7.25 -34.151171875 8.9072265625 -34.4 10.6 -39.95703125 6.1931640625 -47.5 7.05 -56.9896484375 8.1556640625 -64 19.45 -68.3501953125 26.4138671875 -72.65 39.55 -81.2416015625 65.9716796875 -80.8 94.45 -80.7544921875 95.062890625 -80.55 101.3 -84.6208984375 80.4630859375 -85.45 72.6 -87.1416015625 56.1470703125 -82.95 36.35 -78.9080078125 17.0951171875 -72.15 0.1 -63.537890625 -21.1693359375 -54.65 -29.95 -48.4576171875 -36.05 -40.05 -34.15
M -36 10.95
Q -35.253125 11.46875 -34.6 12 -35.13515625 16.4044921875 -35.6 21.15 -37.9369140625 20.3544921875 -41.1 21.05 -44.6697265625 21.815625 -48.35 24.2 -55.92109375 29.1541015625 -62.6 42.45 -67.6033203125 52.416796875 -71.1 69.05 -77.522265625 99.5779296875 -70.75 132.6 -69.79375 137.1634765625 -67.7 147 -65.9841796875 155.756640625 -65.45 162.25 -64.2208984375 175.9087890625 -68.05 186.6 -74.28828125 183.0326171875 -73.2 176.45 -73.0705078125 175.6474609375 -72.95 174.2 -71.468359375 159.3171875 -73.65 140.7 -74.9943359375 129.055859375 -78.75 110.25 -78.771875 107.416796875 -78.9 104.3 -80.1306640625 76.9720703125 -75.2 54.3 -72.4404296875 41.39296875 -67.5 29.8 -61.5318359375 15.7298828125 -54.55 10.75 -50.387890625 7.8962890625 -45.25 8 -40.31484375 8.102734375 -36 10.95
M -34.75 22.55
Q -34.7599609375 22.6541015625 -34.8 22.75 -34.7986328125 22.735546875 -34.85 22.7
L -34.75 22.55
M -38.1 21.6
Q -36.7818359375 21.7201171875 -35.7 22.25 -37.5505859375 43.7048828125 -36.95 72.6 -36.7771484375 78.4517578125 -36.5 89.95 -36.34296875 99.8970703125 -37.05 107.25 -38.555859375 122.700390625 -44.55 141.85 -46.8755859375 149.3669921875 -51.35 164.7 -55.6650390625 177.91171875 -59.75 184.4
L -59.7 184.45
Q -62.2333984375 188.012109375 -66.75 187.3 -64.140234375 180.619921875 -63.95 169.4 -63.819921875 161.4908203125 -65.45 151.4 -66.2193359375 146.7603515625 -69 133.65 -72.9775390625 114.5125 -73 100.8 -73.0900390625 65.9177734375 -60.7 41.35 -50.4666015625 20.771484375 -38.1 21.6 Z"/>
</g>

<g id="FS_Mane_02_4_Layer0_0_FILL">
<path fill="#F4B6D1" stroke="none" d="
M -16.2 15.2
Q -12.7462890625 17.4095703125 -9.65 16.35 -6.6548828125 15.3677734375 -4.7 11.7 -1.899609375 6.5154296875 -0.7 0
L -7.7 -3.4
Q -10.7814453125 6.4634765625 -16.25 6.85 -19.7416015625 7.0744140625 -22.45 4.7 -23.0666015625 4.1890625 -23.6 3.55 -23.412890625 4.3828125 -23.2 5.15 -21.4279296875 11.901171875 -16.2 15.2
M -25.75 -1.25
Q -25.8720703125 -2.174609375 -25.9 -3.15 -25.86875 -4.3197265625 -27.55 -4.55 -28.915234375 -4.5646484375 -28.75 -3.05 -28.66484375 -1.6568359375 -28.45 -0.25 -26.0521484375 14.54375 -17.95 18.2 -11.6791015625 21.045703125 -5.05 16.75 -0.2453125 13.6984375 5.6 5.05
L 0.5 0
Q -0.524609375 6.49375 -2.85 10.8 -7.0908203125 18.6759765625 -12.9 17.65 -23.6822265625 15.811328125 -25 3.05 -25.1123046875 2.002734375 -25.15 0.9 -25.5345703125 -0.0974609375 -25.75 -1.25 Z"/>

<path fill="#E781B3" stroke="none" d="
M -31.7 -3.7
Q -31.6455078125 -1.9435546875 -31.5 -0.4 -30.083984375 12.226171875 -22.65 18 -16.293359375 22.9671875 -5.5 18.4 -0.5802734375 16.287890625 3.85 10.9 5.5478515625 8.909765625 5.6 5.05 -0.2453125 13.6984375 -5.05 16.75 -11.6791015625 21.045703125 -17.95 18.2 -26.0521484375 14.54375 -28.45 -0.25 -28.66484375 -1.6568359375 -28.75 -3.05 -28.915234375 -4.5646484375 -27.55 -4.55 -25.86875 -4.3197265625 -25.9 -3.15 -25.8720703125 -2.174609375 -25.75 -1.25 -25.5345703125 -0.0974609375 -25.15 0.9 -25.1123046875 2.002734375 -25 3.05 -23.6822265625 15.811328125 -12.9 17.65 -7.0908203125 18.6759765625 -2.85 10.8 -0.524609375 6.49375 0.5 0
L -0.7 0
Q -1.899609375 6.5154296875 -4.7 11.7 -6.6548828125 15.3677734375 -9.65 16.35 -12.7462890625 17.4095703125 -16.2 15.2 -21.4279296875 11.901171875 -23.2 5.15 -23.412890625 4.3828125 -23.6 3.55 -23.0666015625 4.1890625 -22.45 4.7 -19.7416015625 7.0744140625 -16.25 6.85 -10.7814453125 6.4634765625 -7.7 -3.4 -10.3677734375 -3.835546875 -11.55 0 -12.1494140625 1.9513671875 -13.05 3.2 -14.3974609375 5.126953125 -16.55 4.95 -18.44296875 4.8828125 -20.2 3.25 -22.6244140625 0.9580078125 -23.05 -3 -23.4279296875 -6.9173828125 -27.4 -6.9 -31.3205078125 -6.878125 -31.7 -3.7 Z"/>
</g>

<g id="FS_Mane_03_4_Layer0_0_FILL">
<path fill="#F4B6D1" stroke="none" d="
M 9 9.6
Q 8.051171875 10.4890625 6.9 10.85 3.28125 12.0220703125 1.9 6.7 1.0005859375 3.1939453125 1.35 -0.2 -0.05 -2.8837890625 -1.5 -0.2 -1.9181640625 4.3291015625 -1.1 8.95 0.30078125 16.7220703125 5.15 14.5 8.2435546875 13.0927734375 9 9.6 Z"/>

<path fill="#E781B3" stroke="none" d="
M 9.1 3.05
Q 9.0185546875 3.3146484375 8.9 3.55 8.30546875 5.2853515625 7.3 6.85 6.3517578125 8.437890625 6.2 8.55 5.52421875 9.212109375 5.1 7.75 4.5884765625 6.1447265625 4.35 4.7 4.1693359375 2.913671875 4.1 1 2.836328125 0.19375 1.35 -0.2 1.0005859375 3.1939453125 1.9 6.7 3.28125 12.0220703125 6.9 10.85 8.051171875 10.4890625 9 9.6 8.2435546875 13.0927734375 5.15 14.5 0.30078125 16.7220703125 -1.1 8.95 -1.9181640625 4.3291015625 -1.5 -0.2 -3.1341796875 0.1244140625 -4.6 1.05 -4.56328125 3.405078125 -4.6 3.85 -4.4109375 11.9751953125 -0.35 14.6 2.028515625 16.1345703125 4.65 16.15 7.659765625 16.2580078125 9.5 14.35 13.2658203125 10.4716796875 11.9 4.2 11.348828125 1.61796875 9.9 -1.4
L 9.7 0.55
Q 9.619140625 1.08046875 9.5 1.6
L 9.15 2.8
Q 9.1396484375 2.927734375 9.1 3.05 Z"/>
</g>

<g id="FS_Torso_4_Layer1_0_FILL">
<path fill="#EBD564" stroke="none" d="
M 24.3 -25.15
Q 14.44609375 -35.7625 0.5 -35.75 -13.498828125 -35.7625 -23.3 -25.15 -33.146484375 -14.5494140625 -33.1 0.4 -33.146484375 15.3494140625 -23.3 25.9 -13.4990234375 36.614453125 0.5 36.6 14.4466796875 36.6142578125 24.3 25.9 34.1447265625 15.3482421875 34.15 0.45 34.143359375 -14.5498046875 24.3 -25.15
M 0.5 -32.75
Q 13.153515625 -32.7376953125 22.1 -23.1 31.1564453125 -13.350390625 31.15 0.45 31.1548828125 14.1517578125 22.1 23.85 13.1533203125 33.5853515625 0.5 33.6 -12.201171875 33.585546875 -21.1 23.85 -30.15390625 14.1505859375 -30.1 0.4 -30.15390625 -13.3505859375 -21.1 -23.1 -12.2013671875 -32.7376953125 0.5 -32.75 Z"/>

<path fill="#FDF6AE" stroke="none" d="
M 22.1 -23.1
Q 13.153515625 -32.7376953125 0.5 -32.75 -12.2013671875 -32.7376953125 -21.1 -23.1 -30.15390625 -13.3505859375 -30.1 0.4 -30.15390625 14.1505859375 -21.1 23.85 -12.201171875 33.585546875 0.5 33.6 13.1533203125 33.5853515625 22.1 23.85 31.1548828125 14.1517578125 31.15 0.45 31.1564453125 -13.350390625 22.1 -23.1 Z"/>
</g>

<g id="FS_FrontLeg_3_4_hoof_9_Layer0_0_FILL">
<path fill="#EBD463" stroke="none" d="
M 15.45 -8.25
Q 11.9796875 -15.683203125 5.1 -18.25 -1.7337890625 -20.7974609375 -7.9 -16.85
L -7.9 -16.85
Q -13.3197265625 -13.3498046875 -15.45 -6.5 -17.16875 -2.18984375 -18.15 3.35 -18.9115234375 7.6240234375 -18.9 10 -18.9072265625 12.82265625 -18.1 14.5 -17.531640625 15.620703125 -16.75 16.2 -14.5154296875 17.7744140625 -12.25 17.85 -9.82421875 18.090625 -7.6 18.15 -5.44140625 18.2921875 -2.9 18.2 -1.337109375 18.229296875 1.35 18.1 2.7298828125 18.1294921875 5.25 17.9
L 12.6 17.4 14.2 16.95
Q 16.348828125 16.042578125 17.05 13.6 17.744140625 11.2087890625 17.6 8.55 17.4853515625 6.3822265625 17.65 1.95 17.6580078125 1.2720703125 17.6 0.6 17.663671875 0.4033203125 17.65 0.15 17.3251953125 -4.148046875 15.45 -8.2
L 15.45 -8.25
M 15.1 -0.3
Q 15.0994140625 -0.218359375 15.1 -0.15 15.093359375 0.923828125 15.05 1.85 15.0443359375 7.796484375 15 9.7 14.9361328125 11.9978515625 14.1 13.2 13.3119140625 14.39609375 12 14.4 8.8361328125 14.5390625 6.3 14.85 4.4298828125 14.9345703125 -0.15 15.1 -2.224609375 15.0470703125 -4.9 15.2 -5.8994140625 15.118359375 -8 15.15 -10.6734375 15.106640625 -12.8 14.5 -14.8810546875 13.8869140625 -15.65 13.1 -16.3568359375 12.3630859375 -16.35 7.9 -16.31484375 5.5064453125 -14.95 0.8 -14.415625 -1.0373046875 -13.7 -3.25 -12.840625 -5.683984375 -11.75 -8.6
L -11.8 -8.6 -11.8 -8.6
Q -9.9025390625 -12.098828125 -6.65 -14.2
L -6.7 -14.2
Q -1.419140625 -17.563671875 4.45 -15.4 10.3265625 -13.1828125 13.3 -6.8
L 13.3 -6.85
Q 14.748046875 -3.6705078125 15.05 -0.35
L 15.1 -0.3 Z"/>

<path fill="#FCBA63" stroke="none" d="
M -11.75 -8.6
L -11.8 -8.6 -11.8 -8.6 -11.75 -8.6 Z"/>

<path fill="#FDF6AE" stroke="none" d="
M 15.1 -0.15
Q 15.0994140625 -0.218359375 15.1 -0.3
L 15.05 -0.35
Q 14.748046875 -3.6705078125 13.3 -6.85
L 13.3 -6.8
Q 10.3265625 -13.1828125 4.45 -15.4 -1.419140625 -17.563671875 -6.7 -14.2
L -6.65 -14.2
Q -9.9025390625 -12.098828125 -11.8 -8.6
L -11.75 -8.6
Q -12.840625 -5.683984375 -13.7 -3.25 -14.415625 -1.0373046875 -14.95 0.8 -16.31484375 5.5064453125 -16.35 7.9 -16.3568359375 12.3630859375 -15.65 13.1 -14.8810546875 13.8869140625 -12.8 14.5 -10.6734375 15.106640625 -8 15.15 -5.8994140625 15.118359375 -4.9 15.2 -2.224609375 15.0470703125 -0.15 15.1 4.4298828125 14.9345703125 6.3 14.85 8.8361328125 14.5390625 12 14.4 13.3119140625 14.39609375 14.1 13.2 14.9361328125 11.9978515625 15 9.7 15.0443359375 7.796484375 15.05 1.85 15.093359375 0.923828125 15.1 -0.15 Z"/>
</g>

<g id="FS_KneePatch_4_Layer0_0_FILL">
<path fill="#EBD463" stroke="none" d="
M 9.2 -18.2
L 9.2 -18.25
Q 4.6197265625 -23.7099609375 -1.2 -24.35
L -1.25 -24.35
Q -7.3267578125 -25.0107421875 -11.15 -20.2 -14.843359375 -15.626171875 -14.3 -8.55 -14.2642578125 -8.4875 -14.25 -8.45 -14.19453125 -7.536328125 -14.05 -6.65
L -14.05 -6.6
Q -13.9775390625 -6.362109375 -13.95 -6.15 -13.7419921875 -5.184765625 -13.5 -4.2 -10.869921875 7.099609375 -10.9 18 -11.069140625 20.055078125 -9.7 22.1
L -9.7 22.15
Q -7.5130859375 25.533984375 -2.25 26.95 2.95 28.25625 8.35 26.35 14.11953125 24.372265625 15.45 18.95 16.8001953125 13.849609375 15.75 10.2
L 15.75 10.2
Q 14.7486328125 6.69765625 13.95 5.1 13.3763671875 3.9025390625 13.6 2.3 13.9638671875 0.1275390625 14 -0.25
L 14 -0.2
Q 14.537109375 -2.729296875 14.3 -5.8 13.66171875 -12.7482421875 9.2 -18.2 Z"/>
</g>

<g id="FS_HindLeg_3_4_top_4_Layer1_0_FILL">
<path fill="#EBD463" stroke="none" d="
M -21.95 12.95
L -21.95 12.95 -21.7 11.85 -21.95 12.95
M 9.95 43.2
Q 10.61171875 36.7974609375 10.25 28.05 8.8962890625 32.4822265625 8.8 34.2
L 8.75 36.05
Q 8.451171875 39.5978515625 7.65 43.2 3.0630859375 70.378125 -6.55 71.25 -12.30078125 70.5431640625 -17.05 55.6 -18.683984375 49.3365234375 -19.65 43.4 -21.969140625 27.7525390625 -19.05 13.65
L -18.7 12.2
Q -18.6283203125 11.8919921875 -18.55 11.55
L -18.5 11.05
Q -17.55 7.3125 -16.2 3.7 -16.094921875 3.3857421875 -16 3.05
L -15.45 1.65 -15.6 1.6
Q -19.034375 2.8314453125 -22.25 14.65 -24.83359375 28.335546875 -22.65 43.4 -22.44453125 44.6451171875 -22.25 45.9 -17.1322265625 70.4294921875 -7.3 73.3 4.542578125 74.3546875 9.65 45.7 9.8201171875 44.5220703125 9.95 43.2 Z"/>

<path fill="#FDF6AE" stroke="none" d="
M 7.65 43.2
Q 8.451171875 39.5978515625 8.75 36.05
L 8.8 34.2
Q 8.8962890625 32.4822265625 10.25 28.05
L -16.2 3.7
Q -17.55 7.3125 -18.5 11.05
L -18.55 11.55
Q -18.6283203125 11.8919921875 -18.7 12.2
L -19.05 13.65
Q -21.969140625 27.7525390625 -19.65 43.4 -18.683984375 49.3365234375 -17.05 55.6 -12.30078125 70.5431640625 -6.55 71.25 3.0630859375 70.378125 7.65 43.2 Z"/>
</g>

<g id="FS_HindLeg_3_4rear_lower_3_Layer0_0_FILL">
<path fill="#FDF6AE" stroke="none" d="
M 10.9 -3.2
L 10.7 -3.15
Q 10.5908203125 -3.9142578125 10.25 -4.55
L 10.25 -4.5
Q 9.069140625 -6.001171875 5 -6.6 0.3841796875 -7.35 -4.65 -6.05 -8.16328125 -4.96328125 -9.45 -0.5 -10.15 2.35 -10.1 5.35 -10.05 7.35 -9.8 9.4 -9.800390625 9.475 -9.8 9.55 -9.7416015625 11.841015625 -9.8 14.15 -10.1279296875 36.7884765625 -17.9 63.45
L 11.05 65.35
Q 13.9939453125 21.0568359375 12.35 4.4 11.859375 -0.6998046875 10.9 -3.2 Z"/>

<path fill="#EBD463" stroke="none" d="
M 10.7 -3.15
L 10.9 -3.2
Q 11.859375 -0.6998046875 12.35 4.4 13.9939453125 21.0568359375 11.05 65.35 11.01328125 66.00078125 11.4 66.45 11.8212890625 66.9390625 12.4 66.95 13.049609375 67.012109375 13.5 66.6 13.9884765625 66.1900390625 14 65.55 18.2173828125 2.4115234375 12.9 -5.95 12.8484375 -6.0505859375 12.75 -6.15 11.2630859375 -8.7130859375 5.5 -9.6 0.257421875 -10.428125 -5.4 -8.95 -10.95 -7.5734375 -12.6 -0.5 -12.95 1.55 -13.05 3.55 -13.25 6.45 -12.8 9.4 -12.77890625 9.475 -12.8 9.55 -12.3453125 33.7927734375 -20.9 62.95 -21.0486328125 63.550390625 -20.75 64.1 -20.447265625 64.6357421875 -19.85 64.8 -19.25078125 64.973828125 -18.7 64.65 -18.1642578125 64.3833984375 -18 63.8 -17.950390625 63.6322265625 -17.9 63.45 -10.1279296875 36.7884765625 -9.8 14.15 -9.7416015625 11.841015625 -9.8 9.55 -9.800390625 9.475 -9.8 9.4 -10.05 7.35 -10.1 5.35 -10.15 2.35 -9.45 -0.5 -8.16328125 -4.96328125 -4.65 -6.05 0.3841796875 -7.35 5 -6.6 9.069140625 -6.001171875 10.25 -4.5
L 10.25 -4.55
Q 10.5908203125 -3.9142578125 10.7 -3.15 Z"/>
</g>

<g id="FS_KneePatch_5_Layer0_0_FILL">
<path fill="#FDF6AE" stroke="none" d="
M 11.35 -0.65
L 11.4 -0.7
Q 11.8357421875 -2.842578125 11.6 -5.45 11.08125 -11.471484375 7.2 -16.2
L 7.2 -16.2
Q 3.4427734375 -20.68203125 -1.3 -21.3
L -1.3 -21.25
Q -5.7919921875 -21.7595703125 -8.65 -18.25 -11.578515625 -14.4427734375 -11.1 -8.6
L -11.1 -8.55
Q -11.0560546875 -7.824609375 -10.95 -7.1
L -10.95 -7.05
Q -10.8775390625 -6.8244140625 -10.85 -6.6
L -10.85 -6.6
Q -10.66640625 -5.7203125 -10.4 -4.85 -10.3890625 -4.79921875 -10.4 -4.8 -7.691015625 6.9328125 -7.75 18.2 -7.72421875 18.287890625 -7.75 18.35 -7.7744140625 19.4638671875 -7.05 20.6
L -7.05 20.55
Q -5.3037109375 23.04453125 -1.3 24.15
L -1.25 24.15
Q 3.0802734375 25.2138671875 7.6 23.6 11.82109375 22.1828125 12.85 18.3 13.9654296875 14.1068359375 13.15 11.1
L 13.15 11.15
Q 12.2634765625 7.9849609375 11.55 6.5 10.5513671875 4.5603515625 10.95 1.95
L 10.95 1.9
Q 11.3125 -0.278125 11.35 -0.65 Z"/>
</g>

<g id="FS_HindLeg_back_0_Layer0_0_FILL">
<path fill="#FDF6AE" stroke="none" d="
M -14.95 121.7
L -15.15 115.45 -18.9 127.05 -16.95 129.1 -14.95 121.7 Z"/>
</g>

<g id="FS_HindLeg_back_0_Layer0_1_FILL">
<path fill="#FDF6AE" stroke="none" d="
M 11.95 116.1
L 9.7 122.9 9.35 130.55 11.8 129.2 11.95 116.1 Z"/>
</g>

<g id="FS_Tail_02_5_Layer0_0_FILL">
<path fill="#E781B3" stroke="none" d="
M -8.35 -21.65
Q -17.9642578125 -15.1306640625 -19.15 -14.25 -25.3228515625 -9.4595703125 -28.7 -4.45 -35.7009765625 6.2240234375 -30.75 17.2 -25.8107421875 28.174609375 -16 35.4 -6.19375 42.6390625 7.85 45.7 21.949609375 48.7939453125 33.95 46.8 47.63984375 44.5927734375 56.1 35.9 58.8224609375 33.0794921875 60.85 29.25 62.85390625 25.3896484375 56.8 21.45 50.7560546875 17.516015625 47.3 25.45
L 47.25 25.45
Q 45.6306640625 28.484375 41 29.25 33.2201171875 30.4841796875 24.8 27.45 11.8375 22.87578125 14.45 15.7 14.96953125 14.330078125 16 13.1 15.94140625 13.16484375 21 3.3 26.066796875 -6.565234375 15.55 -17.1 5.0759765625 -27.5859375 -8.35 -21.65
M -15.25 -13.05
L -14.05 -14.15
Q -2.8427734375 -24.39296875 11.85 -13.6 26.585546875 -2.753515625 14 11.25
L 13.95 11.25
Q 11.0166015625 14.05390625 11.75 19.3 13.0390625 22.8640625 17.1 25.15 25.4365234375 29.9505859375 34.8 30.65 40.5962890625 31.094140625 44.25 30.3 43.30859375 32.0888671875 41.6 33.55 37.1236328125 37.5662109375 28.7 38.75 17.8044921875 40.2873046875 8.2 38.4 5.0263671875 37.8150390625 1.95 36.8 -0.393359375 36.0494140625 -2.7 35.05 -4.3099609375 34.3203125 -5.9 33.45 -15.0958984375 28.632421875 -20.1 20.15 -25.6263671875 10.789453125 -23 1.25 -21.1236328125 -5.665625 -15.25 -13.05
M -19.05 -11
Q -18.889453125 -11.103515625 -18.75 -11.25 -18.5833984375 -11.3681640625 -18.4 -11.55 -18.6458984375 -11.182421875 -18.9 -10.85 -25.48984375 -1.2318359375 -25.2 6.9 -24.8505859375 16.6921875 -18.45 24.55 -12.4248046875 31.8755859375 -2.95 35.6 -0.5546875 36.542578125 1.8 37.3
L 1.8 37.3
Q 4.976953125 38.3130859375 8.1 38.95 19.848046875 41.4767578125 31.2 39.25 39.3939453125 37.68046875 43.55 33.65 45.3384765625 31.889453125 46.2 29.8 49.3455078125 28.6658203125 50.7 25.55 52.1064453125 22.4326171875 55.65 24.65 59.2373046875 26.9185546875 57.5 29.55 55.8177734375 32.223046875 54.6 33.55 54.3380859375 33.85390625 53.95 34.2 44.137109375 44.3310546875 30.3 45.9 15.07109375 47.6724609375 0.15 42.1 -15.7802734375 36.1361328125 -24.25 24.25 -28.2478515625 18.7181640625 -29.4 12.7 -30.662109375 5.960546875 -27.95 0.35 -25.0380859375 -5.6650390625 -19.05 -11 Z"/>

<path fill="#F4B6D1" stroke="none" d="
M -18.9 -10.85
L -19 -10.95
Q -19.004296875 -10.9513671875 -19.05 -11 -25.0380859375 -5.6650390625 -27.95 0.35 -30.662109375 5.960546875 -29.4 12.7 -28.2478515625 18.7181640625 -24.25 24.25 -15.7802734375 36.1361328125 0.15 42.1 15.07109375 47.6724609375 30.3 45.9 44.137109375 44.3310546875 53.95 34.2 54.3380859375 33.85390625 54.6 33.55 55.8177734375 32.223046875 57.5 29.55 59.2373046875 26.9185546875 55.65 24.65 52.1064453125 22.4326171875 50.7 25.55 49.3455078125 28.6658203125 46.2 29.8 45.3384765625 31.889453125 43.55 33.65 39.3939453125 37.68046875 31.2 39.25 19.848046875 41.4767578125 8.1 38.95 4.976953125 38.3130859375 1.8 37.3
L 1.8 37.3
Q -0.5546875 36.542578125 -2.95 35.6 -12.4248046875 31.8755859375 -18.45 24.55 -24.8505859375 16.6921875 -25.2 6.9 -25.48984375 -1.2318359375 -18.9 -10.85
M -14.05 -14.15
L -15.25 -13.05
Q -21.1236328125 -5.665625 -23 1.25 -25.6263671875 10.789453125 -20.1 20.15 -15.0958984375 28.632421875 -5.9 33.45 -4.3099609375 34.3203125 -2.7 35.05 -0.393359375 36.0494140625 1.95 36.8 5.0263671875 37.8150390625 8.2 38.4 17.8044921875 40.2873046875 28.7 38.75 37.1236328125 37.5662109375 41.6 33.55 43.30859375 32.0888671875 44.25 30.3 40.5962890625 31.094140625 34.8 30.65 25.4365234375 29.9505859375 17.1 25.15 13.0390625 22.8640625 11.75 19.3 11.0166015625 14.05390625 13.95 11.25
L 14 11.25
Q 26.585546875 -2.753515625 11.85 -13.6 -2.8427734375 -24.39296875 -14.05 -14.15 Z"/>
</g>

<g id="FS_Tail_01_5_Layer2_0_FILL">
<path fill="#F4B6D1" stroke="none" d="
M -42.65 -32.65
Q -56.9669921875 -35.83984375 -69.9 -34 -77.9712890625 -29.418359375 -84.2 -22.5 -99.368359375 -5.6271484375 -100.55 22.95 -100.9794921875 35.089453125 -98.05 48.05 -95.44375 59.8572265625 -84.8 77.6 -82.3287109375 81.704296875 -76.05 91.45 -70.4041015625 100.2390625 -67.45 105.35 -63.7916015625 111.69609375 -64.35 117.85 -64.7994140625 123.726171875 -69.25 126.85 -69.798046875 127.4890625 -70.55 128.1 -71.3609375 128.8173828125 -74.85 131.1 -78.9537109375 133.820703125 -82 135.95 -82.244921875 136.337109375 -82.55 136.7 -82.920703125 137.20546875 -83.3 137.7
L -64.85 160.05
Q -65.3498046875 156.8072265625 -61.8 153.9 -58.181640625 150.930859375 -51.55 149 -42.2189453125 146.3544921875 -40.95 138.8 -40.4154296875 135.3990234375 -41.65 130.55 -42.0666015625 128.8130859375 -44.2 122.5 -46.297265625 116.2400390625 -50.65 106.75 -56.6044921875 93.7517578125 -57.7 91.15 -63.82578125 76.5197265625 -67.9 57.25 -71.783984375 39.218359375 -68.4 24.2 -65.594921875 11.647265625 -58.7 2.3 -50.5951171875 -8.5916015625 -39.4 -11.1 -33.3681640625 -12.4396484375 -26.9 -11.3 -25.521875 -11.046484375 -24.15 -10.7 -24.112109375 -10.68984375 -24.1 -10.7 -21.68046875 -10.0642578125 -19.25 -9.15 -12.534375 -6.57109375 -5.4 -1.6 -5.2009765625 -1.4353515625 -5 -1.3 -4.9232421875 -1.4810546875 -4.85 -1.7 -4.779296875 -1.8599609375 -4.75 -2.05 -3.0728515625 -6.61953125 -4.75 -9.7 -8.239453125 -13.5234375 -12.9 -17.4 -13.8626953125 -18.198828125 -14.9 -19 -15.1134765625 -19.1869140625 -15.35 -19.4 -28.296875 -29.3720703125 -42.65 -32.65
M -24.25 -10.1
Q -25.6126953125 -10.451171875 -26.95 -10.7 -42.336328125 -13.1345703125 -53.8 -1.25 -64.0265625 9.3658203125 -67.1 25.75 -69.796875 40.0212890625 -66.75 56.1 -63.52578125 73.20859375 -56.75 90.1 -54.902734375 94.7455078125 -49.85 105.75 -45.2953125 115.669921875 -43.15 121.45 -39.9599609375 130.2025390625 -39.5 134.7 -38.612890625 142.8841796875 -43.75 146.8 -45.758984375 148.3865234375 -49.6 149.55 -55.48046875 151.319921875 -55.9 151.45 -60.5931640625 153.356640625 -62.35 156.7 -64.209375 160.42890625 -61.35 164.35 -59.5806640625 166.6845703125 -56.9 168.5 -57.2310546875 165.1490234375 -54.25 162.3 -51.3765625 159.6490234375 -44.9 157.55 -36.9841796875 155.0009765625 -34.9 153.85 -24.4900390625 148.0859375 -22.45 133.4 -21.1857421875 124.62734375 -23.1 108.1 -24.213671875 98.816015625 -28.25 86.2 -33.2208984375 71.974609375 -35.5 64.8 -37.52890625 58.4369140625 -41.25 43.05 -44.14296875 31.018359375 -43.6 22 -42.996875 13.601171875 -38.65 7.6 -33.7615234375 0.91484375 -25.95 0.05 -21.2421875 -0.444921875 -15.6 1 -13.982421875 1.1900390625 -12.85 1.55 -11.2794921875 2.1318359375 -10.75 2.4 -7.4001953125 3.933984375 -5.3 -0.6 -12.658203125 -5.9607421875 -19.4 -8.6 -21.8671875 -9.5205078125 -24.25 -10.1
M -73.25 -33.4
Q -74.228125 -33.205859375 -75.25 -33 -87.7115234375 -30.0837890625 -97.3 -17.95 -112.77578125 1.8037109375 -112.15 32.3 -111.7083984375 49.135546875 -106.1 65.1 -102.024609375 76.7818359375 -89.95 90.9 -89.4888671875 91.4400390625 -79.9 102.3 -73.79453125 109.206640625 -70.2 114.05 -66.8138671875 118.6044921875 -67.25 122.5 -66.1462890625 120.6447265625 -65.8 118.25 -65.146484375 114.1306640625 -66.8 109.55 -67.801953125 106.7044921875 -70.15 102.95 -72.9123046875 98.8625 -74.2 96.75 -80.32578125 86.97734375 -83.4 82.05 -94.4763671875 64.31875 -98.4 52.1 -101.55859375 42.28046875 -102.05 28.45 -102.8671875 1.5966796875 -90.25 -17 -83.2439453125 -27.280859375 -73.25 -33.4 Z"/>

<path fill="#E781B3" stroke="none" d="
M -53.25 -36.35
Q -65.8822265625 -37.825 -77.65 -34.45 -89.4294921875 -31.0421875 -98.3 -21.05 -106.0162109375 -12.2814453125 -110.45 0.5 -119.6689453125 27.0587890625 -111.3 57.4 -107.1302734375 72.4341796875 -97.55 84.7 -91.254296875 92.70625 -77.6 107.75 -73.0224609375 113.395703125 -72.7 113.85 -69.951171875 117.8921875 -70.15 121.05 -70.408984375 125.198046875 -76 129 -79.823046875 131.6119140625 -82.4 133.35 -85.15859375 135.258984375 -83.3 137.7 -82.920703125 137.20546875 -82.55 136.7 -82.244921875 136.337109375 -82 135.95 -78.9537109375 133.820703125 -74.85 131.1 -71.3609375 128.8173828125 -70.55 128.1 -69.798046875 127.4890625 -69.25 126.85 -64.7994140625 123.726171875 -64.35 117.85 -63.7916015625 111.69609375 -67.45 105.35 -70.4041015625 100.2390625 -76.05 91.45 -82.3287109375 81.704296875 -84.8 77.6 -95.44375 59.8572265625 -98.05 48.05 -100.9794921875 35.089453125 -100.55 22.95 -99.368359375 -5.6271484375 -84.2 -22.5 -77.9712890625 -29.418359375 -69.9 -34 -56.9669921875 -35.83984375 -42.65 -32.65 -28.296875 -29.3720703125 -15.35 -19.4 -15.1134765625 -19.1869140625 -14.9 -19 -13.8626953125 -18.198828125 -12.9 -17.4 -8.239453125 -13.5234375 -4.75 -9.7 -3.0728515625 -6.61953125 -4.75 -2.05 -4.779296875 -1.8599609375 -4.85 -1.7 -4.9232421875 -1.4810546875 -5 -1.3 -5.2009765625 -1.4353515625 -5.4 -1.6 -12.534375 -6.57109375 -19.25 -9.15 -21.68046875 -10.0642578125 -24.1 -10.7 -24.112109375 -10.68984375 -24.15 -10.7 -25.521875 -11.046484375 -26.9 -11.3 -33.3681640625 -12.4396484375 -39.4 -11.1 -50.5951171875 -8.5916015625 -58.7 2.3 -65.594921875 11.647265625 -68.4 24.2 -71.783984375 39.218359375 -67.9 57.25 -63.82578125 76.5197265625 -57.7 91.15 -56.6044921875 93.7517578125 -50.65 106.75 -46.297265625 116.2400390625 -44.2 122.5 -42.0666015625 128.8130859375 -41.65 130.55 -40.4154296875 135.3990234375 -40.95 138.8 -42.2189453125 146.3544921875 -51.55 149 -58.181640625 150.930859375 -61.8 153.9 -65.3498046875 156.8072265625 -64.85 160.05
L -64.85 160.15
Q -64.5513671875 161.75 -63.3 163.4 -60.7474609375 166.85625 -56.75 169.3
L -56.85 168.55
Q -56.732421875 169.0107421875 -56.65 169.35 -56.5828125 169.3703125 -56.55 169.4 -56.1005859375 168.354296875 -54.75 166.4 -52.21796875 162.660546875 -46.25 160.2 -39.1099609375 157.9673828125 -36.25 156.85 -24.7591796875 152.5033203125 -21.1 141.35 -18.25703125 132.5380859375 -19.4 117.15 -20.490625 101.77109375 -25.4 86.7 -28.9162109375 76.241796875 -30.65 70.95 -33.7173828125 61.7107421875 -35.4 55.1 -39.4044921875 39.063671875 -39.55 38.5 -41.4490234375 28.7876953125 -40.45 21.55 -39.410546875 14.0970703125 -36.05 8.85 -31.9115234375 2.44453125 -25.4 1.45 -21.1388671875 0.8240234375 -16.2 1.95 -14.694921875 2.317578125 -13.15 2.8 -12.79140625 2.9412109375 -12.4 3.05
L -11.25 3.5
Q -11.01640625 3.5845703125 -10.85 3.65
L -10.55 3.75 -10.5 3.8
Q -10.2078125 3.9287109375 -9.95 4 -8.474609375 4.4970703125 -7.25 4.05 -5.309375 3.3455078125 -3.85 0.45 -3.6822265625 0.13671875 -3.55 -0.25 -3.33046875 -0.6416015625 -3.15 -1.1 -2.0025390625 -3.971875 -2 -6.35 -1.9439453125 -9.3501953125 -3.7 -11.6 -6.0455078125 -14.042578125 -8.85 -16.45 -9.6458984375 -17.1130859375 -10.45 -17.8 -10.547265625 -17.848828125 -10.65 -17.95
L -10.7 -18
Q -10.766015625 -18.0359375 -10.85 -18.1 -10.938671875 -18.1779296875 -11.05 -18.25 -11.1330078125 -18.326953125 -12.35 -19.4 -13.552734375 -20.4232421875 -17.85 -23.75 -22.1037109375 -27.08515625 -31.35 -30.95 -40.55 -34.81171875 -53.25 -36.35
M -75.25 -33
Q -74.228125 -33.205859375 -73.25 -33.4 -83.2439453125 -27.280859375 -90.25 -17 -102.8671875 1.5966796875 -102.05 28.45 -101.55859375 42.28046875 -98.4 52.1 -94.4763671875 64.31875 -83.4 82.05 -80.32578125 86.97734375 -74.2 96.75 -72.9123046875 98.8625 -70.15 102.95 -67.801953125 106.7044921875 -66.8 109.55 -65.146484375 114.1306640625 -65.8 118.25 -66.1462890625 120.6447265625 -67.25 122.5 -66.8138671875 118.6044921875 -70.2 114.05 -73.79453125 109.206640625 -79.9 102.3 -89.4888671875 91.4400390625 -89.95 90.9 -102.024609375 76.7818359375 -106.1 65.1 -111.7083984375 49.135546875 -112.15 32.3 -112.77578125 1.8037109375 -97.3 -17.95 -87.7115234375 -30.0837890625 -75.25 -33
M -26.95 -10.7
Q -25.6126953125 -10.451171875 -24.25 -10.1 -21.8671875 -9.5205078125 -19.4 -8.6 -12.658203125 -5.9607421875 -5.3 -0.6 -7.4001953125 3.933984375 -10.75 2.4 -11.2794921875 2.1318359375 -12.85 1.55 -13.982421875 1.1900390625 -15.6 1 -21.2421875 -0.444921875 -25.95 0.05 -33.7615234375 0.91484375 -38.65 7.6 -42.996875 13.601171875 -43.6 22 -44.14296875 31.018359375 -41.25 43.05 -37.52890625 58.4369140625 -35.5 64.8 -33.2208984375 71.974609375 -28.25 86.2 -24.213671875 98.816015625 -23.1 108.1 -21.1857421875 124.62734375 -22.45 133.4 -24.4900390625 148.0859375 -34.9 153.85 -36.9841796875 155.0009765625 -44.9 157.55 -51.3765625 159.6490234375 -54.25 162.3 -57.2310546875 165.1490234375 -56.9 168.5 -59.5806640625 166.6845703125 -61.35 164.35 -64.209375 160.42890625 -62.35 156.7 -60.5931640625 153.356640625 -55.9 151.45 -55.48046875 151.319921875 -49.6 149.55 -45.758984375 148.3865234375 -43.75 146.8 -38.612890625 142.8841796875 -39.5 134.7 -39.9599609375 130.2025390625 -43.15 121.45 -45.2953125 115.669921875 -49.85 105.75 -54.902734375 94.7455078125 -56.75 90.1 -63.52578125 73.20859375 -66.75 56.1 -69.796875 40.0212890625 -67.1 25.75 -64.0265625 9.3658203125 -53.8 -1.25 -42.336328125 -13.1345703125 -26.95 -10.7 Z"/>
</g>

<g id="FS_Tail_03_5_Layer0_0_FILL">
<path fill="#F4B6D1" stroke="none" d="
M 3.95 13.7
Q 8.3 10.3734375 8.05 6.05 7.9498046875 3.6912109375 7.2 1.2
L -1.7 2.2
Q 1.12890625 6.7587890625 -0.8 9.95 -2.738671875 13.1951171875 -6.5 13 -9.418359375 12.843359375 -12.2 10.85 -10.1015625 15.855078125 -4.65 16.4 -0.203125 16.882421875 3.95 13.7 Z"/>

<path fill="#E781B3" stroke="none" d="
M 8.05 6.05
Q 8.3 10.3734375 3.95 13.7 -0.203125 16.882421875 -4.65 16.4 -10.1015625 15.855078125 -12.2 10.85 -9.418359375 12.843359375 -6.5 13 -2.738671875 13.1951171875 -0.8 9.95 1.12890625 6.7587890625 -1.7 2.2 -3.02890625 2.4333984375 -3.3 5.9 -3.096484375 7.0607421875 -3.25 8.7 -3.555859375 11.9625 -5.4 11.7 -8.2509765625 11.23359375 -11.05 8.55 -12.4642578125 7.1732421875 -13.4 5.65
L -14.55 3.2
Q -14.6703125 2.77578125 -15.65 2.95 -16.1404296875 4.927734375 -16.15 6.8
L -16.15 6.8
Q -16.1408203125 9.0068359375 -15.45 11.05 -13.7544921875 15.9326171875 -8.7 17.2 -4.209765625 18.315234375 0.5 16.7 5.02109375 15.1931640625 8.3 11.7 12.0060546875 7.892578125 10.5 2.6 9.856640625 0.6962890625 7.2 1.2 7.9498046875 3.6912109375 8.05 6.05 Z"/>
</g>
</defs>

<g transform="matrix( 0.412506103515625, 0, 0, 0.412506103515625, 486.45,301.35) ">
<g transform="matrix( 0.700592041015625, 0, 0, 1, -8.05,149.65) ">
<g transform="matrix( 1.1522064208984375, 0, 0, 1.7481689453125, 4.4,-262.5) ">
<use filter="url(#Filter_1)" xlink:href="#FS_Shadow_0_Layer0_0_FILL"/>
</g>
</g>

<g transform="matrix( 0.998382568359375, -0.0028839111328125, 0.0028839111328125, 0.998382568359375, 16.85,20.75) ">
<g transform="matrix( 1, 0, 0, 1, 0,0) ">
<use xlink:href="#FS_WingBack_8_Layer2_0_FILL"/>
</g>
</g>

<g transform="matrix( 0.9499969482421875, 0, 0.0000152587890625, 0.9499969482421875, -19.3,47.5) ">
<g transform="matrix( 1, 0, 0, 1, -6.55,91.15) ">
<g transform="matrix( 1, 0, 0, 1, 0,0) ">
<use filter="url(#Filter_2)" xlink:href="#FS_FrontLeg_3_4_hoof_10_Layer0_0_FILL"/>
</g>
</g>

<g transform="matrix( 0.999969482421875, -0.0043792724609375, -0.001129150390625, 1, 0.3,0.35) ">
<g transform="matrix( 1, 0, 0, 1, 0,0) ">
<use filter="url(#Filter_2)" xlink:href="#FS_FrontLeg_3_4_upper_9_Layer1_0_FILL"/>
</g>
</g>
</g>

<g transform="matrix( -0.9499969482421875, 0, 0, 0.9499969482421875, 3.5,46.25) ">
<g transform="matrix( 1, 0, 0, 1, -6.55,91.15) ">
<g transform="matrix( 1, 0, 0, 1, 0,0) ">
<use filter="url(#Filter_2)" xlink:href="#FS_FrontLeg_3_4_hoof_10_Layer0_0_FILL"/>
</g>
</g>

<g transform="matrix( 0.999969482421875, -0.0043792724609375, -0.001129150390625, 1, 0.3,0.35) ">
<g transform="matrix( 1, 0, 0, 1, 0,0) ">
<use filter="url(#Filter_2)" xlink:href="#FS_FrontLeg_3_4_upper_9_Layer1_0_FILL"/>
</g>
</g>
</g>

<g transform="matrix( 1, 0, 0, 1, -6.8,-52.75) ">
<g transform="matrix( 1, 0, 0, 1, -7.85,-57.6) ">
<g transform="matrix( 1, 0, 0, 1, 0.3,-0.2) ">
<g transform="matrix( 1, 0, 0, 1, 0,0) ">
<use xlink:href="#FS_Hair_05_4_Layer1_0_FILL"/>
</g>
</g>

<g transform="matrix( 1, 0, 0, 1, 46.05,98.6) ">
<g transform="matrix( 1, 0, 0, 1, 0,0) ">
<use xlink:href="#FS_Hair_03_4_Layer1_0_FILL"/>
</g>
</g>

<g transform="matrix( 1, 0, 0, 1, 74.15,148.8) ">
<g transform="matrix( 1, 0, 0, 1, 0,0) ">
<use xlink:href="#FS_Hair_04_4_Layer1_0_FILL"/>
</g>
</g>
</g>

<g transform="matrix( 0.99969482421875, 0.0050811767578125, -0.0050811767578125, 0.99969482421875, 1.1,-11.15) ">
<g transform="matrix( 1, 0, 0, 1, 0,0) ">
<use xlink:href="#FS_Skull_2_Layer0_0_FILL"/>
</g>
</g>

<g transform="matrix( 1, 0, 0, 1, -31.15,-26.65) ">
<g transform="matrix( 1, 0, 0, 1, 0,0) ">
<use xlink:href="#FS_Ear_5_Layer1_0_FILL"/>
</g>
</g>

<g transform="matrix( 0.9840087890625, 0.00604248046875, -0.0128326416015625, 1.00531005859375, 33,-27.8) ">
<g transform="matrix( 1, 0, 0, 1, 0,0) ">
<use xlink:href="#FS_Ear_6_Layer1_0_FILL"/>
</g>
</g>
</g>

<g transform="matrix( 1, 0, 0, 1, -6.4,-33.3) ">
<g transform="matrix( 1, 0, 0, 1, 0,0) ">
<use xlink:href="#FS_Neck_3_Layer0_0_FILL"/>
</g>
</g>

<g transform="matrix( 0.981719970703125, 0.1870880126953125, -0.1870880126953125, 0.981719970703125, 4.1,-115.75) ">
<g transform="matrix( 1.029754638671875, -0.18939208984375, 0.2016754150390625, 0.9801788330078125, 26,13.4) ">
<g transform="matrix( 1, 0, 0, 1, 0,0) ">
<use xlink:href="#FS_Mane_01_4_Layer1_0_FILL"/>
</g>
</g>

<g transform="matrix( 1.029754638671875, -0.18939208984375, 0.2016754150390625, 0.9801788330078125, -5.1,201.85) ">
<g transform="matrix( 1, 0, 0, 1, 0,0) ">
<use xlink:href="#FS_Mane_02_4_Layer0_0_FILL"/>
</g>
</g>

<g transform="matrix( 1.014434814453125, -0.2567596435546875, -0.2249603271484375, -0.974517822265625, -33.4,205.3) ">
<g transform="matrix( 1, 0, 0, 1, 0,0) ">
<use xlink:href="#FS_Mane_03_4_Layer0_0_FILL"/>
</g>
</g>
</g>

<g transform="matrix( -0.998382568359375, -0.0028839111328125, -0.0028839111328125, 0.998382568359375, -31.75,20.8) ">
<g transform="matrix( 1, 0, 0, 1, 0,0) ">
<use xlink:href="#FS_WingBack_8_Layer2_0_FILL"/>
</g>
</g>

<g transform="matrix( 1, 0, 0, 1, -8.2,22.3) ">
<g transform="matrix( 1, 0, 0, 1, 0,0) ">
<use xlink:href="#FS_Torso_4_Layer1_0_FILL"/>
</g>
</g>

<g transform="matrix( 1, 0, 0, 1, -25.2,14.1) ">
<g transform="matrix( 1.01416015625, 0, 0, 1, -3.5,125.6) ">
<g transform="matrix( 1, 0, 0, 1, 0,0) ">
<use xlink:href="#FS_FrontLeg_3_4_hoof_9_Layer0_0_FILL"/>
</g>
</g>

<g transform="matrix( 1, 0, 0, 1, -1.6,47.4) ">
<g transform="matrix( 1, 0, 0, 1, 0,0) ">
<use xlink:href="#FS_KneePatch_4_Layer0_0_FILL"/>
</g>
</g>

<g transform="matrix( 1, 0, -0.0095977783203125, 1.0159912109375, 5.95,-9.8) ">
<g transform="matrix( 1, 0, 0, 1, 0,0) ">
<use xlink:href="#FS_HindLeg_3_4_top_4_Layer1_0_FILL"/>
</g>
</g>

<g transform="matrix( 1, 0, 0, 1, 0.35,60.15) ">
<g transform="matrix( 1, 0, 0, 1, 0,0) ">
<use xlink:href="#FS_HindLeg_3_4rear_lower_3_Layer0_0_FILL"/>
</g>
</g>

<g transform="matrix( 1, 0, 0, 1, -1.6,47.4) ">
<g transform="matrix( 1, 0, 0, 1, 0,0) ">
<use xlink:href="#FS_KneePatch_5_Layer0_0_FILL"/>
</g>
</g>

<g transform="matrix( 1, 0, 0, 1, 0,0) ">
<use xlink:href="#FS_HindLeg_back_0_Layer0_0_FILL"/>
</g>

<g transform="matrix( 1, 0, 0, 1, 0,0) ">
<use xlink:href="#FS_HindLeg_back_0_Layer0_1_FILL"/>
</g>
</g>

<g transform="matrix( -1, 0, 0, 1, 9.9,14.1) ">
<g transform="matrix( 1.01416015625, 0, 0, 1, -3.5,125.6) ">
<g transform="matrix( 1, 0, 0, 1, 0,0) ">
<use xlink:href="#FS_FrontLeg_3_4_hoof_9_Layer0_0_FILL"/>
</g>
</g>

<g transform="matrix( 1, 0, 0, 1, -1.6,47.4) ">
<g transform="matrix( 1, 0, 0, 1, 0,0) ">
<use xlink:href="#FS_KneePatch_4_Layer0_0_FILL"/>
</g>
</g>

<g transform="matrix( 1, 0, -0.0095977783203125, 1.0159912109375, 5.95,-9.8) ">
<g transform="matrix( 1, 0, 0, 1, 0,0) ">
<use xlink:href="#FS_HindLeg_3_4_top_4_Layer1_0_FILL"/>
</g>
</g>

<g transform="matrix( 1, 0, 0, 1, 0.35,60.15) ">
<g transform="matrix( 1, 0, 0, 1, 0,0) ">
<use xlink:href="#FS_HindLeg_3_4rear_lower_3_Layer0_0_FILL"/>
</g>
</g>

<g transform="matrix( 1, 0, 0, 1, -1.6,47.4) ">
<g transform="matrix( 1, 0, 0, 1, 0,0) ">
<use xlink:href="#FS_KneePatch_5_Layer0_0_FILL"/>
</g>
</g>

<g transform="matrix( 1, 0, 0, 1, 0,0) ">
<use xlink:href="#FS_HindLeg_back_0_Layer0_0_FILL"/>
</g>

<g transform="matrix( 1, 0, 0, 1, 0,0) ">
<use xlink:href="#FS_HindLeg_back_0_Layer0_1_FILL"/>
</g>
</g>

<g transform="matrix( 1, 0, 0, 0.9699554443359375, -13.7,7.6) ">
<g transform="matrix( -1, 0, 0, 1, 68.1,152.1) ">
<g transform="matrix( 1, 0, 0, 1, 0,0) ">
<use xlink:href="#FS_Tail_02_5_Layer0_0_FILL"/>
</g>
</g>

<g transform="matrix( -1, 0, 0, 1, -0.35,0.6) ">
<g transform="matrix( 1, 0, 0, 1, 0,0) ">
<use xlink:href="#FS_Tail_01_5_Layer2_0_FILL"/>
</g>
</g>

<g transform="matrix( -1, 0, 0, -1, 17.1,182.15) ">
<g transform="matrix( 1, 0, 0, 1, 0,0) ">
<use xlink:href="#FS_Tail_03_5_Layer0_0_FILL"/>
</g>
</g>
</g>
</g>
</svg>
