
<svg xmlns="http://www.w3.org/2000/svg" version="1.1" xmlns:xlink="http://www.w3.org/1999/xlink" preserveAspectRatio="none" x="0px" y="0px" width="864px" height="486px" viewBox="0 0 864 486">
<defs>
<linearGradient id="Gradient_1" gradientUnits="userSpaceOnUse" x1="-33.8" y1="-21.2875" x2="-46.900000000000006" y2="1.387500000000001" spreadMethod="pad">
<stop  offset="0%" stop-color="#015350"/>

<stop  offset="2.7450980392156863%" stop-color="#025B58"/>

<stop  offset="9.019607843137255%" stop-color="#046B67"/>

<stop  offset="14.901960784313726%" stop-color="#047672"/>

<stop  offset="19.607843137254903%" stop-color="#057975"/>

<stop  offset="28.235294117647058%" stop-color="#058581"/>

<stop  offset="42.35294117647059%" stop-color="#009590"/>

<stop  offset="58.03921568627451%" stop-color="#00A19D"/>

<stop  offset="75.68627450980392%" stop-color="#00AAA5"/>

<stop  offset="100%" stop-color="#00ADA8"/>
</linearGradient>

<filter id="Filter_1" x="-20%" y="-20%" width="140%" height="140%" color-interpolation-filters="sRGB">
<feColorMatrix in="SourceGraphic" type="matrix" values="1 0 0 0 0 0 1 0 0 0 0 0 1 0 0 0 0 0 0.21 0" result="result1"/>
</filter>

<filter id="Filter_2" x="-20%" y="-20%" width="140%" height="140%" color-interpolation-filters="sRGB">
<feColorMatrix in="SourceGraphic" type="matrix" values="1 0 0 0 0.0196078431372549 0 1 0 0 -0.06274509803921569 0 0 1 0 -0.12156862745098039 0 0 0 1 0" result="result1"/>
</filter>

<g id="FS_Shadow_0_Layer0_0_FILL">
<path fill="#000000" stroke="none" d="
M 46.4 155.05
Q 68.65 152.95 68.65 149.95 68.65 146.95 46.4 144.8 24.15 142.7 -7.4 142.7 -38.9 142.7 -61.2 144.8 -83.45 146.95 -83.45 149.95 -83.45 152.95 -61.2 155.05 -38.9 157.2 -7.4 157.2 24.15 157.2 46.4 155.05 Z"/>
</g>

<g id="FS_Mane_01_7_Layer1_0_FILL">
<path fill="#E781B3" stroke="none" d="
M 24.5 -17.9
L 23.85 -20.5
Q -5.3328125 -35.7875 -25.85 -24.95 -18.1857421875 5.2484375 -22.8 35.5 -24.73671875 48.61484375 -30.8 69.05 -36.8197265625 89.5705078125 -36.75 100.85 -36.5486328125 117.6037109375 -29.95 133 -28.3130859375 136.7880859375 -22.15 147.55 -16.9705078125 156.5064453125 -15.2 162.4 -14.1435546875 166.002734375 -14 168.55 -13.515234375 174.013671875 -8.85 176.2 -4.1259765625 178.39140625 0 177.95 9.8087890625 177.3634765625 13.5 170.4 12.898046875 171.9248046875 15.05 166.8 16.2611328125 163.917578125 17.35 160.9
L 17.95 159.3
Q 25.6861328125 137.6626953125 28.2 111.15 31.4708984375 76.9505859375 30.55 38.15 29.799609375 5.055078125 24.45 -17.95
L 24.5 -17.9
M 26.15 12.3
Q 28.6025390625 38.2255859375 26.8 85.7 25.946875 108.3310546875 23.8 121.9 21.936328125 134.4416015625 17.1 151.15 16.591796875 153.0384765625 16.05 154.75 6.726953125 135.7236328125 -1.75 119.45 -16.4400390625 91.15703125 -10.95 48.45 -5.363671875 5.28515625 -16.2 -22.4 -16.8048828125 -24.0140625 -17.5 -25.6 2.39765625 -30.8798828125 21.05 -19.95 24.483984375 -6.0978515625 26.15 12.3
M 15.4 156.85
Q 12.98046875 164.4177734375 11.6 167.1 7.5998046875 175.5818359375 -0.6 175.35 -9.887890625 174.899609375 -11.4 165.6 -11.71953125 163.8185546875 -12.35 162 -14.280078125 156.1640625 -19.35 147.15 -25.39765625 136.483984375 -27.1 132.6 -34.5984375 115.481640625 -33.7 98.3 -33.248046875 90.7162109375 -31 81.3 -29.8171875 76.60234375 -26.3 64.65 -20.8166015625 46.2203125 -19.05 30.65 -15.949609375 2.7865234375 -22.6 -24 -20.7771484375 -24.6298828125 -19 -25.15 -18.259765625 -23.51484375 -17.6 -21.85 -6.95703125 5.55703125 -12.5 48.25 -18.04140625 91.501953125 -3.1 120.15 5.6876953125 137.0228515625 15.4 156.85 Z"/>

<path fill="#F4B6D1" stroke="none" d="
M 11.6 167.1
Q 12.98046875 164.4177734375 15.4 156.85 5.6876953125 137.0228515625 -3.1 120.15 -18.04140625 91.501953125 -12.5 48.25 -6.95703125 5.55703125 -17.6 -21.85 -18.259765625 -23.51484375 -19 -25.15 -20.7771484375 -24.6298828125 -22.6 -24 -15.949609375 2.7865234375 -19.05 30.65 -20.8166015625 46.2203125 -26.3 64.65 -29.8171875 76.60234375 -31 81.3 -33.248046875 90.7162109375 -33.7 98.3 -34.5984375 115.481640625 -27.1 132.6 -25.39765625 136.483984375 -19.35 147.15 -14.280078125 156.1640625 -12.35 162 -11.71953125 163.8185546875 -11.4 165.6 -9.887890625 174.899609375 -0.6 175.35 7.5998046875 175.5818359375 11.6 167.1
M 26.8 85.7
Q 28.6025390625 38.2255859375 26.15 12.3 24.483984375 -6.0978515625 21.05 -19.95 2.39765625 -30.8798828125 -17.5 -25.6 -16.8048828125 -24.0140625 -16.2 -22.4 -5.363671875 5.28515625 -10.95 48.45 -16.4400390625 91.15703125 -1.75 119.45 6.726953125 135.7236328125 16.05 154.75 16.591796875 153.0384765625 17.1 151.15 21.936328125 134.4416015625 23.8 121.9 25.946875 108.3310546875 26.8 85.7 Z"/>
</g>

<g id="FS_Mane_02_7_Layer0_0_FILL">
<path fill="#E781B3" stroke="none" d="
M -12.25 5.4
Q -12.4228515625 3.730859375 -12.7 1.5 -15.0361328125 2.2203125 -15.35 5.25 -15.1546875 7.4451171875 -15.35 9.6 -15.9658203125 16.508203125 -20.35 18.2 -23.6107421875 19.5091796875 -27.05 17.55 -29.881640625 15.9359375 -30.4 13.3 -32.2453125 12.321875 -33.5 12.5 -32.8373046875 16.152734375 -29.7 18.55 -26.602734375 20.9603515625 -22.8 21 -15.22734375 21.0783203125 -13 12.85 -12.01875 9.1693359375 -12.25 5.4
M 11.55 8.2
Q 13.0291015625 4.125 10.75 2.9 8.43203125 7.921484375 7.7 9.2 1.273828125 20.7724609375 -8.6 24.45 -14.6875 26.778515625 -21.3 26.25 -28.8748046875 25.7025390625 -32.95 21.4 -35.031640625 19.2421875 -35.6 16.2 -35.876171875 14.516796875 -35.6 13.05 -39.1021484375 14.04140625 -38.75 16.9 -38.244921875 19.015625 -36.9 21.4 -33.4529296875 27.3228515625 -23.5 29.05 -13.503125 30.848046875 -2.95 24.45 5.8455078125 19.140234375 11.55 8.2 Z"/>

<path fill="#F4B6D1" stroke="none" d="
M 7.7 9.2
Q 8.43203125 7.921484375 10.75 2.9 -1.94296875 10.1517578125 -12.7 1.5 -12.4228515625 3.730859375 -12.25 5.4 -12.01875 9.1693359375 -13 12.85 -15.22734375 21.0783203125 -22.8 21 -26.602734375 20.9603515625 -29.7 18.55 -32.8373046875 16.152734375 -33.5 12.5 -34.5716796875 12.7009765625 -35.6 13.05 -35.876171875 14.516796875 -35.6 16.2 -35.031640625 19.2421875 -32.95 21.4 -28.8748046875 25.7025390625 -21.3 26.25 -14.6875 26.778515625 -8.6 24.45 1.273828125 20.7724609375 7.7 9.2 Z"/>
</g>

<g id="FS_Mane_03_7_Layer0_0_FILL">
<path fill="#F4B6D1" stroke="none" d="
M -0.45 -4.7
Q -0.7 -6.111328125 -0.45 -7.5 -0.4205078125 -7.6783203125 -0.4 -7.9 -0.52578125 -7.73671875 -0.7 -7.6 -1.1021484375 -7.1494140625 -1.45 -6.65 -3.102734375 -4.22890625 -2.55 -1 -2.2978515625 0.2712890625 -1.8 1.35 -1.601953125 1.2939453125 -1.4 1.2 0.1921875 0.4279296875 1.6 -0.3 0.0009765625 -2.2142578125 -0.45 -4.7 Z"/>

<path fill="#E781B3" stroke="none" d="
M 0.8 -10.8
L 0.8 -10.8
Q -2.8693359375 -10.4787109375 -5.05 -6.15 -6.453515625 -3.322265625 -5.55 0.1 -3.9818359375 2.2068359375 -1.8 1.35 -2.2978515625 0.2712890625 -2.55 -1 -3.102734375 -4.22890625 -1.45 -6.65 -1.1021484375 -7.1494140625 -0.7 -7.6 -0.52578125 -7.73671875 -0.4 -7.9 -0.4205078125 -7.6783203125 -0.45 -7.5 -0.7 -6.111328125 -0.45 -4.7 0.0009765625 -2.2142578125 1.6 -0.3 3.0642578125 -0.7255859375 2.9 -3 2.512109375 -4.0138671875 2.5 -5.25 2.52109375 -8.0455078125 3.8 -10.1 3.9943359375 -10.34140625 4.15 -10.6 3.9240234375 -10.614453125 3.65 -10.65 2.12109375 -10.88671875 0.8 -10.8 Z"/>
</g>

<g id="FS_Tail_02_3_Layer0_0_FILL">
<path fill="#E781B3" stroke="none" d="
M 11.4 -1.2
Q 9.8734375 -6.06171875 1.6 -8.85 -7.4958984375 -11.395703125 -9.95 -4.55 -11.78515625 3.081640625 -11.05 11.7 -10.2755859375 20.3111328125 -9.05 30.7 -8.495703125 43.0318359375 -10.85 52.1 -12.5125 58.643359375 -15.65 63.85 -18.9439453125 69.3732421875 -22.7 71.4 -24.890625 72.6671875 -28 73.55 -34.113671875 75.3888671875 -31.75 82.45 -30.7888671875 85.1599609375 -26.75 85.25
L -26.75 85.3 -26.7 85.3
Q -23.2646484375 85.264453125 -19.8 83.6 -3.2001953125 75.5953125 1.55 56.9 2.3712890625 53.7923828125 2.95 48.8 3.813671875 41.5814453125 3.95 40.6 4.5400390625 36.7427734375 5.7 26.1 6.54921875 18.744140625 7.6 15.3 8.656640625 11.916015625 10.5 8.35
L 10.55 8.35
Q 12.9162109375 3.65625 11.4 -1.2
M -6.65 30.55
Q -7.710546875 19.9328125 -8 14.15 -8.289453125 8.312109375 -7.4 -1.05 -6.097265625 -7.878515625 0.5 -6.45 12.7828125 -3.1087890625 8.5 7.3 6.315625 11.453515625 5.5 15.15 4.727734375 18.8396484375 3.7 25 3.614453125 25.7478515625 1.7 38.7 -0.0224609375 49.960546875 -1.3 54.8 -3.6423828125 63.766015625 -7.6 69.5 -12.407421875 76.4974609375 -18.9 79.7 -22.9318359375 81.7416015625 -25.7 82.2 -28.2595703125 82.3615234375 -29.55 80.95 -31.7978515625 76.63828125 -28 75.4 -24.2138671875 74.207421875 -21.3 72.55 -13.1333984375 67.89375 -9.1 52.3 -6.2025390625 41.18984375 -6.65 30.55 Z"/>

<path fill="#F4B6D1" stroke="none" d="
M -8 14.15
Q -7.710546875 19.9328125 -6.65 30.55 -6.2025390625 41.18984375 -9.1 52.3 -13.1333984375 67.89375 -21.3 72.55 -24.2138671875 74.207421875 -28 75.4 -31.7978515625 76.63828125 -29.55 80.95 -28.2595703125 82.3615234375 -25.7 82.2 -22.9318359375 81.7416015625 -18.9 79.7 -12.407421875 76.4974609375 -7.6 69.5 -3.6423828125 63.766015625 -1.3 54.8 -0.0224609375 49.960546875 1.7 38.7 3.614453125 25.7478515625 3.7 25 4.727734375 18.8396484375 5.5 15.15 6.315625 11.453515625 8.5 7.3 12.7828125 -3.1087890625 0.5 -6.45 -6.097265625 -7.878515625 -7.4 -1.05 -8.289453125 8.312109375 -8 14.15 Z"/>
</g>

<g id="FS_Tail_01_3_Layer2_0_FILL">
<path fill="#F4B6D1" stroke="none" d="
M 84.7 54.45
L 84.7 54.45
Q 80.8259765625 64.720703125 69.3 76.55 61.552734375 84.606640625 42.45 96.25
L 42.45 96.25
Q 23.2982421875 107.912890625 18.15 112.95 8.9005859375 122.746875 7.95 131.4 6.869921875 140.9982421875 16.9 146.9 17.71640625 147.41015625 18.6 147.85
L 18.65 147.9 27.4 132.15
Q 25.153515625 130.76015625 23.3 128.75
L 23.25 128.7 23.2 128.7
Q 20.92890625 125.9154296875 21.6 123.25 22.321875 120.72109375 25.6 118.75 27.8310546875 117.371875 32.3 115.8 34.7908203125 114.9767578125 39.45 113.7 43.502734375 112.6400390625 44.5 112.2 52.8046875 108.8890625 55.75 107.15 63.753515625 102.4509765625 70.15 94.2 73.92265625 89.1669921875 77 82.25 80.15 75.220703125 82.2 67.2 83.87890625 60.8412109375 84.75 54.4
L 84.7 54.45
M 61.8 45.3
Q 62.332421875 31.4353515625 52.5 18.7 37.6998046875 -0.59765625 14.8 -1.35 2.1806640625 -1.825 -18.3 5.8 -18.775 8.9109375 -14.7 9.5
L -14.4 9.2
Q 1.8578125 4.318359375 12.15 7 21.6947265625 9.466015625 27 17.45 31.798046875 24.5419921875 33.15 36.1 33.9640625 44.7642578125 31.75 53.3 28.3541015625 66.3767578125 17.7 79.15 14.0607421875 83.523046875 9 88.5 6.201953125 91.2486328125 1.7 95.55 -13.024609375 110.33984375 -15.35 119.35 -16.250390625 122.9404296875 -15.5 125.9 -14.7703125 128.7474609375 -12.35 131.6 -8.86484375 135.651953125 -0.45 140.4 -4.6017578125 134.7125 -1.2 126.15 1.1228515625 120.184375 8.55 112.3 13.530078125 107.1173828125 24.15 97.8 36.7830078125 86.7162109375 41.05 82.6 50.072265625 73.9798828125 54.6 67.2 61.3552734375 56.3232421875 61.8 45.3
M 60.85 -9.2
Q 54.6482421875 -12.37890625 47.95 -14.1 29.05859375 -19.055859375 8.35 -10.85 -2.062890625 -6.7537109375 -15.5 2.55
L -18.55 4.85
Q -17.3888671875 4.1828125 -13.9 2.95 1.4576171875 -3.0548828125 14.85 -2.55 38.3001953125 -1.80234375 53.45 17.95 63.567578125 31.0646484375 63 45.35 62.54453125 56.6765625 55.6 67.85 51.027734375 74.719921875 41.9 83.45 37.6171875 87.5837890625 24.95 98.7 14.369921875 107.982421875 9.4 113.15 2.176953125 120.815625 -0.1 126.6 -3.5408203125 135.290234375 1.4 140.8 2.0900390625 141.5837890625 2.95 142.3 3.005078125 142.3263671875 3.05 142.35 8.880078125 145.3759765625 14.7 146.95 5.62265625 140.81640625 6.75 131.25 7.69921875 122.253125 17.3 112.1 22.501953125 106.9869140625 41.85 95.2
L 41.8 95.25
Q 60.747265625 83.69296875 68.45 75.7 79.7736328125 64.0794921875 83.6 54
L 83.55 54.05
Q 84.1244140625 52.562109375 84.55 51
L 84.55 51.05
Q 85.1005859375 49.1216796875 85.45 47.05 85.51015625 46.2080078125 85.55 45.35 86.0818359375 33.6 83.85 23.45 81.4326171875 12.438671875 76 4.4 70.0537109375 -4.3537109375 60.85 -9.2 Z"/>

<path fill="#E781B3" stroke="none" d="
M 63.4 -12.75
Q 56.9228515625 -16.12265625 50.05 -17.9 29.8880859375 -23.095703125 7.2 -13.4 -0.409765625 -10.1494140625 -8.3 -5.2 -12.4978515625 -2.52734375 -17.6 1.1
L -18.35 1.65
Q -21.853125 4.8767578125 -20 8.9 -18.08984375 12.9787109375 -13.9 12.2
L -5.95 9.6
Q 3.624609375 7.4205078125 11.6 9.25 20.28671875 11.575390625 25.05 18.8 29.5544921875 25.5220703125 30.8 36.35 31.195703125 40.2564453125 30.5 44.5 30.0796875 47.2060546875 28.8 52.1 25.5689453125 64.559375 14.75 77.15 11.10234375 81.3697265625 5.9 86.4 3.0578125 89.137890625 -1.55 93.5 -9.587890625 101.5978515625 -13.8 107.2 -18.3044921875 113.296484375 -19.6 118.15 -20.6619140625 122.191015625 -19.5 126.4 -18.39296875 130.332421875 -15.65 133.45 -13.13515625 136.3345703125 -8.9 139.25 -5.28359375 141.71015625 0.4 144.8 3.6341796875 146.4576171875 8 148.05 11.942578125 149.5177734375 15.25 150.35
L 15.3 150.4
Q 18.2564453125 150.8583984375 18.65 147.9
L 18.6 147.85
Q 17.71640625 147.41015625 16.9 146.9 6.869921875 140.9982421875 7.95 131.4 8.9005859375 122.746875 18.15 112.95 23.2982421875 107.912890625 42.45 96.25
L 42.45 96.25
Q 61.552734375 84.606640625 69.3 76.55 80.8259765625 64.720703125 84.7 54.45
L 84.7 54.45 84.75 54.4
Q 83.87890625 60.8412109375 82.2 67.2 80.15 75.220703125 77 82.25 73.92265625 89.1669921875 70.15 94.2 63.753515625 102.4509765625 55.75 107.15 52.8046875 108.8890625 44.5 112.2 43.502734375 112.6400390625 39.45 113.7 34.7908203125 114.9767578125 32.3 115.8 27.8310546875 117.371875 25.6 118.75 22.321875 120.72109375 21.6 123.25 20.92890625 125.9154296875 23.2 128.7
L 23.25 128.7 23.3 128.75
Q 25.153515625 130.76015625 27.4 132.15 28.865625 130.983203125 27.4 129.4 26.2392578125 128.4423828125 25.05 127.2 23.5546875 125.3357421875 23.9 123.85 24.2693359375 122.394140625 26.8 120.75 29.2607421875 118.6947265625 37.65 117.1 47.8857421875 115.11484375 53.15 112.8 58.01640625 110.676953125 62.85 106.65 67.7177734375 102.5744140625 71.9 97.2 76.08359375 91.5623046875 79.75 83.95 83.7896484375 75.6921875 85.8 67.85 88.7322265625 56.674609375 89.3 44.7 89.911328125 31.911328125 87.6 21.45 85.121484375 10.065234375 79.4 1.6 73.159375 -7.6623046875 63.4 -12.75
M 47.95 -14.1
Q 54.6482421875 -12.37890625 60.85 -9.2 70.0537109375 -4.3537109375 76 4.4 81.4326171875 12.438671875 83.85 23.45 86.0818359375 33.6 85.55 45.35 85.51015625 46.2080078125 85.45 47.05 85.1005859375 49.1216796875 84.55 51.05
L 84.55 51
Q 84.1244140625 52.562109375 83.55 54.05
L 83.6 54
Q 79.7736328125 64.0794921875 68.45 75.7 60.747265625 83.69296875 41.8 95.25
L 41.85 95.2
Q 22.501953125 106.9869140625 17.3 112.1 7.69921875 122.253125 6.75 131.25 5.62265625 140.81640625 14.7 146.95 8.880078125 145.3759765625 3.05 142.35 3.005078125 142.3263671875 2.95 142.3 2.0900390625 141.5837890625 1.4 140.8 -3.5408203125 135.290234375 -0.1 126.6 2.176953125 120.815625 9.4 113.15 14.369921875 107.982421875 24.95 98.7 37.6171875 87.5837890625 41.9 83.45 51.027734375 74.719921875 55.6 67.85 62.54453125 56.6765625 63 45.35 63.567578125 31.0646484375 53.45 17.95 38.3001953125 -1.80234375 14.85 -2.55 1.4576171875 -3.0548828125 -13.9 2.95 -17.3888671875 4.1828125 -18.55 4.85
L -15.5 2.55
Q -2.062890625 -6.7537109375 8.35 -10.85 29.05859375 -19.055859375 47.95 -14.1
M 52.5 18.7
Q 62.332421875 31.4353515625 61.8 45.3 61.3552734375 56.3232421875 54.6 67.2 50.072265625 73.9798828125 41.05 82.6 36.7830078125 86.7162109375 24.15 97.8 13.530078125 107.1173828125 8.55 112.3 1.1228515625 120.184375 -1.2 126.15 -4.6017578125 134.7125 -0.45 140.4 -8.86484375 135.651953125 -12.35 131.6 -14.7703125 128.7474609375 -15.5 125.9 -16.250390625 122.9404296875 -15.35 119.35 -13.024609375 110.33984375 1.7 95.55 6.201953125 91.2486328125 9 88.5 14.0607421875 83.523046875 17.7 79.15 28.3541015625 66.3767578125 31.75 53.3 33.9640625 44.7642578125 33.15 36.1 31.798046875 24.5419921875 27 17.45 21.6947265625 9.466015625 12.15 7 1.8578125 4.318359375 -14.4 9.2
L -14.7 9.5
Q -18.775 8.9109375 -18.3 5.8 2.1806640625 -1.825 14.8 -1.35 37.6998046875 -0.59765625 52.5 18.7 Z"/>
</g>

<g id="FS_Tail_03_3_Layer0_0_FILL">
<path fill="#F4B6D1" stroke="none" d="
M -2.95 5.25
Q -3.869140625 8.784765625 -7.3 10.8
L -7.4 10.85 -7.25 10.8
Q 4.998828125 8.3587890625 4.3 -0.05
L -3.55 -1.1
Q -2.3986328125 3.100390625 -2.95 5.25 Z"/>

<path fill="#E781B3" stroke="none" d="
M 2.95 9.6
Q 6.200390625 7.526953125 7.05 4.15
L 7.1 4.15
Q 8.48515625 -1.7498046875 4.3 -0.05 4.998828125 8.3587890625 -7.25 10.8
L -7.4 10.85 -7.3 10.8
Q -3.869140625 8.784765625 -2.95 5.25 -2.3986328125 3.100390625 -3.55 -1.1 -4.090625 -1.138671875 -4.45 1.4
L -4.45 1.45
Q -4.0392578125 3.0416015625 -4.4 4.8 -4.925 7.334765625 -6.6 8.35 -8.2734375 9.371484375 -10.05 9.75 -12.2732421875 10.2443359375 -14.45 10.2 -19.426953125 10.073046875 -21.6 8.45 -24.2171875 6.449609375 -20.75 2.85 -26.0333984375 5.2435546875 -24.3 8.25 -23.1720703125 10.20859375 -19.85 11.5 -10.4564453125 14.680859375 -1.25 11.5 1.3857421875 10.6091796875 2.95 9.6 Z"/>
</g>

<g id="FS_FrontLeg_3_4_hoof_4_Layer0_0_FILL">
<path fill="#F26F31" stroke="none" d="
M -13.4 -12.85
L -13.4 -12.85 -13.4 -12.85 -13.4 -12.85 Z"/>

<path fill="#EBD463" stroke="none" d="
M -1.15 -18.45
L -1.2 -18.45
Q -9.624609375 -17.8423828125 -13.4 -12.85
L -13.4 -12.85
Q -16.978515625 -8.244140625 -19.45 -3.2
L -19.45 -3.25
Q -21.8619140625 1.6474609375 -24.65 7.7 -26.3091796875 11.4185546875 -25.4 13.65 -24.5841796875 16.204296875 -21 17 -15.576171875 18.259765625 -2.15 18.05 12.0072265625 17.7810546875 15.25 13.85 18.7416015625 10.1349609375 18.9 1.1 19.00546875 -7.925390625 13.05 -13.5 7.154296875 -19.091015625 -1.15 -18.45
M -0.95 -15.45
L -0.95 -15.45
Q 6.0544921875 -16.0005859375 11 -11.3 15.99453125 -6.574609375 15.9 1.05 15.7583984375 8.665625 13 11.85 10.0958984375 14.81875 -2.2 15.05 -15.123828125 15.2400390625 -20.35 14.05 -22.069140625 13.694921875 -22.6 12.65 -22.9419921875 11.2833984375 -21.9 8.95 -19.13828125 2.9525390625 -16.75 -1.9
L -16.75 -1.9
Q -14.421484375 -6.655859375 -11.05 -11
L -11 -11
Q -7.869921875 -14.9509765625 -0.95 -15.45 Z"/>

<path fill="#FDF6AE" stroke="none" d="
M -0.95 -15.45
L -0.95 -15.45
Q -7.869921875 -14.9509765625 -11 -11
L -11.05 -11
Q -14.421484375 -6.655859375 -16.75 -1.9
L -16.75 -1.9
Q -19.13828125 2.9525390625 -21.9 8.95 -22.9419921875 11.2833984375 -22.6 12.65 -22.069140625 13.694921875 -20.35 14.05 -15.123828125 15.2400390625 -2.2 15.05 10.0958984375 14.81875 13 11.85 15.7583984375 8.665625 15.9 1.05 15.99453125 -6.574609375 11 -11.3 6.0544921875 -16.0005859375 -0.95 -15.45 Z"/>
</g>

<g id="FS_KneePatch_1_Layer0_0_FILL">
<path fill="#EBD463" stroke="none" d="
M 10.75 -8.3
L 10.75 -8.45
Q 10.999609375 -9.6171875 11 -10.9 11.0111328125 -16.75078125 6.7 -21.15 2.4033203125 -25.5216796875 -3.55 -25.85 -9.52421875 -26.1814453125 -13.85 -22.55 -18.2634765625 -18.8869140625 -18.25 -13.75
L -18.25 -13.7
Q -18.333203125 -9.8595703125 -15.45 -3.75
L -15.4 -3.65 -15.4 -3.6
Q -12.6767578125 2.0408203125 -9.8 10.1
L -9.75 10.2
Q -9.74140625 10.22421875 -9.75 10.25
L -9.75 10.25
Q -6.684765625 18.7166015625 -4.1 21.8
L -4.05 21.85
Q -1.2443359375 25.3462890625 3.45 25.6
L 3.5 25.6
Q 8.171875 25.7728515625 11.55 22.6 14.949609375 19.4423828125 15.4 15.75 15.955859375 12.0994140625 13.1 9.2 8.4591796875 3.042578125 10.65 -7.8 10.721875 -8.034375 10.75 -8.3 Z"/>
</g>

<g id="FS_HindLeg_3_4rear_lower_0_Layer1_0_FILL">
<path fill="#F26F31" stroke="none" d="
M 8.6 8
Q 8.6333984375 7.9955078125 8.65 7.95
L 8.65 7.95 8.6 8 Z"/>

<path fill="#EBD463" stroke="none" d="
M 12.35 -6.4
Q 12.1732421875 -6.510546875 11.95 -6.6 1.59140625 -10.1181640625 -6.5 -4.85 -6.526171875 -4.8123046875 -6.6 -4.8 -14.9587890625 1.5962890625 -10.3 12.75 -10.2638671875 12.8216796875 -10.25 12.85 -7.8515625 17.784765625 -2.5 16.05 1.90625 14.6984375 8.65 7.95
L 8.65 7.95
Q 13.7076171875 3.494921875 14.7 0.2 16.0470703125 -3.87109375 12.35 -6.4
M 10.75 -3.8
Q 12.4302734375 -2.605078125 11.85 -0.75 10.8990234375 1.983203125 6.6 5.75 6.5771484375 5.8119140625 6.55 5.85 0.493359375 11.901953125 -3.4 13.2 -6.248828125 14.115234375 -7.55 11.5
L -7.55 11.6
Q -7.5458984375 11.575 -7.6 11.5 -11.2048828125 2.68671875 -4.75 -2.4
L -4.85 -2.35
Q 2.0138671875 -6.721484375 10.75 -3.8 Z"/>

<path fill="#FCBA63" stroke="none" d="
M -7.55 11.5
L -7.6 11.5
Q -7.5458984375 11.575 -7.55 11.6
L -7.55 11.5 Z"/>

<path fill="#FDF6AE" stroke="none" d="
M 11.85 -0.75
Q 12.4302734375 -2.605078125 10.75 -3.8 2.0138671875 -6.721484375 -4.85 -2.35
L -4.75 -2.4
Q -11.2048828125 2.68671875 -7.6 11.5
L -7.55 11.5
Q -6.248828125 14.115234375 -3.4 13.2 0.493359375 11.901953125 6.55 5.85 6.5771484375 5.8119140625 6.6 5.75 10.8990234375 1.983203125 11.85 -0.75 Z"/>
</g>

<g id="FS_HindLeg_3_4rear_lower_0_Layer0_0_FILL">
<path fill="#EBD463" stroke="none" d="
M -8.05 10.15
L -8.2 9.7 -8.45 8.7 -11.35 9.5 -10.95 10.95
Q -3.5580078125 37.8861328125 -11.7 64.6 -11.7875 65.0125 -11.9 65.4
L -8.85 65.4
Q -0.5115234375 37.662109375 -8.05 10.15
M 11.65 -2.95
Q 11.686328125 -2.8736328125 11.7 -2.8 26.2828125 27.8509765625 24.65 64.3
L 27.6 64.1
Q 29.3125 27.137109375 14.35 -4.25
L 14.2 -4.5 11 -4.3 11.65 -2.95 Z"/>

<path fill="#FDF6AE" stroke="none" d="
M 24.65 64.3
Q 26.2828125 27.8509765625 11.7 -2.8
L -8.2 9.7 -8.05 10.15
Q -0.5115234375 37.662109375 -8.85 65.4
L 24.65 64.3 Z"/>
</g>

<g id="FS_HindLeg_3_4_top_3_Layer1_0_FILL">
<path fill="#FDF6AE" stroke="none" d="
M 3.25 1.75
Q 3.18203125 1.691015625 3.1 1.6 -2.67265625 -3.03828125 -11.65 -2.95 -20.6818359375 -2.858203125 -26.95 1.45 -33.3107421875 5.909375 -37.1 11.35 -37.4232421875 11.861328125 -38.05 11.95 -38.291015625 12.0220703125 -38.55 11.95 -42.348828125 38.4263671875 -11 46.45 -10.65859375 46.3421875 -10.35 46.2 12.0634765625 38.3462890625 13.2 19.5 12.6140625 19.47421875 12.2 19.05 11.7552734375 18.616015625 11.75 18 11.75 17.5771484375 11.75 17.15 8.5744140625 6.3466796875 3.25 1.75 Z"/>

<path fill="#EBD463" stroke="none" d="
M 5.15 -0.55
Q 5.098828125 -0.6427734375 5 -0.75 -1.5271484375 -6.0619140625 -11.7 -5.95 -21.718359375 -5.8419921875 -28.65 -1 -35.4892578125 3.790625 -39.55 9.65 -39.882421875 10.16484375 -39.8 10.75 -39.662109375 11.37734375 -39.15 11.7 -38.859765625 11.92734375 -38.55 11.95 -38.291015625 12.0220703125 -38.05 11.95 -37.4232421875 11.861328125 -37.1 11.35 -33.3107421875 5.909375 -26.95 1.45 -20.6818359375 -2.858203125 -11.65 -2.95 -2.67265625 -3.03828125 3.1 1.6 3.18203125 1.691015625 3.25 1.75 8.5744140625 6.3466796875 11.75 17.15 11.75 17.5771484375 11.75 18 11.7552734375 18.616015625 12.2 19.05 12.6140625 19.47421875 13.2 19.5
L 13.25 19.5
Q 13.866015625 19.4947265625 14.3 19.05 14.7447265625 18.616015625 14.75 18 14.75 17.45 14.75 16.9 14.755078125 16.6857421875 14.7 16.45 11.1857421875 4.4669921875 5.15 -0.55 Z"/>
</g>

<g id="FS_HindLeg_3_4_top_3_Layer0_0_FILL">
<path fill="#EBD463" stroke="none" d="
M 5.2 80.6
Q 7.4673828125 80.5080078125 8.7 79.1
L 8.7 79.1
Q -3.7240234375 82.317578125 -15.9 55.05 -20.4896484375 46.2076171875 -20.85 37.15 -20.8546875 36.330078125 -20.85 35.45
L -20.85 35.4
Q -22.584375 41.745703125 -21.75 46.8 -20.8296875 51.911328125 -17.95 57.6
L -17.95 57.6
Q -11.971484375 69.1169921875 -6.05 75 -5.2890625 76.075390625 -4.35 77.05
L -4.35 77
Q -0.276953125 80.9404296875 5.2 80.6
M 14.45 15.7
L 10.9 14.4
Q 12.36328125 19.052734375 13 21.7 14.323046875 26.6453125 14.55 32.3 14.936328125 39.9142578125 12.65 49.15 10.4171875 58.4453125 9.3 62.55 8.17265625 66.672265625 9.1 73.05 9.75390625 77.3060546875 8.75 79.05 9.4486328125 78.3134765625 9.8 77.2 9.9109375 76.9609375 9.95 76.7 10.304296875 75.502734375 10.2 71.5 10.1513671875 67.5421875 11.45 63 12.7974609375 58.489453125 15.1 49.55 17.4509765625 40.6375 17.45 33.45 17.5064453125 26.2955078125 16.1 20.75 15.6138671875 18.894921875 14.45 15.7 Z"/>

<path fill="#FDF6AE" stroke="none" d="
M 12.65 49.15
Q 14.936328125 39.9142578125 14.55 32.3 14.323046875 26.6453125 13 21.7 12.36328125 19.052734375 10.9 14.4
L -8.9 17.15 -20.85 35.45
Q -20.8546875 36.330078125 -20.85 37.15 -20.4896484375 46.2076171875 -15.9 55.05 -3.7240234375 82.317578125 8.7 79.1
L 8.7 79.1 8.75 79.1
Q 8.764453125 79.1033203125 8.75 79.05 9.75390625 77.3060546875 9.1 73.05 8.17265625 66.672265625 9.3 62.55 10.4171875 58.4453125 12.65 49.15 Z"/>
</g>

<g id="FS_KneePatch_0_Layer0_0_FILL">
<path fill="#FDF6AE" stroke="none" d="
M 6.95 -3.8
Q 7.6271484375 -8.4921875 7.65 -8.75
L 7.65 -8.75
Q 7.6830078125 -8.7876953125 7.7 -8.85 7.850390625 -9.7474609375 7.85 -10.75 7.8390625 -15.39921875 4.4 -18.9 0.946484375 -22.4283203125 -3.85 -22.7 -8.6259765625 -22.9685546875 -12.1 -20.1 -15.376171875 -17.3716796875 -15.4 -13.55
L -15.4 -13.55
Q -15.40625 -10.530078125 -12.6 -4.2
L -12.4 -3.7
Q -12.324609375 -3.590625 -12.3 -3.5 -12.2001953125 -3.3171875 -12.15 -3.15 -12.0654296875 -3.0400390625 -12 -2.95
L -12 -2.9 -11.95 -2.8
Q -9.565234375 2.4005859375 -7.1 9.35 -7.0333984375 9.4712890625 -7.05 9.6 -4.2322265625 17.2533203125 -1.9 20.1
L -1.9 20.1
Q 0.112890625 22.6044921875 3.45 22.75 6.435546875 22.852734375 8.7 21.1
L 8.7 21.15
Q 19.876171875 11.2931640625 12.45 5.8 11.055859375 5.381640625 9.7 4.45 9.7404296875 4.5390625 9.75 4.6 8.476171875 3.9505859375 7.75 2.7 6.5830078125 1.1353515625 6.75 -1.95 6.7810546875 -2.8294921875 6.9 -3.8
L 6.95 -3.8 Z"/>
</g>

<g id="FS_Wing_3_4far_9_Layer5_0_FILL">
<path fill="#FDF6AE" stroke="none" d="
M 14.4 13.6
L 14.4 13.6
Q 11.7185546875 10.5724609375 3.95 10.55 3.9005859375 3.5751953125 -7.25 1.7
L -14.85 1.25 -14.9 1.3 -15.6 1.9
Q -21.88515625 8.1115234375 -23.5 16 -25.1552734375 24.0869140625 -21.05 30.5 -13.6 41.795703125 3.75 38.55 15.6693359375 32.926953125 12.85 24.6 17.5587890625 19.2478515625 15.15 14.75
L 15.15 14.7
Q 14.8142578125 14.1181640625 14.4 13.6
M 33.1 16.85
Q 33.9603515625 15.5462890625 34.7 14.25
L 16.25 27.4
Q 16.26171875 27.693359375 16.25 27.95 16.18046875 32.1900390625 12.15 36.15 23.7486328125 31.27578125 33.1 16.85
M 35.85 12.15
Q 36.29375 11.384765625 36.65 10.6
L 36.65 10.6
Q 38.2708984375 7.1671875 39.05 4.05 39.6837890625 1.4330078125 39.55 -0.45
L 17.15 12.35
Q 17.4908203125 12.809375 17.75 13.3
L 17.75 13.3
Q 21.22890625 19.3095703125 15.9 25.1 16.078515625 25.676953125 16.15 26.25
L 35.85 12.15
M 30.1 -5.6
Q 26.540625 -5.5923828125 21.8 -4.75 11.580859375 -2.937109375 -0.35 1.95 3.47421875 2.86640625 5.1 5.5
L 30.1 -5.6
M 39.45 -1.5
Q 39.1666015625 -2.65234375 38.45 -3.35
L 38.4 -3.35
Q 36.829296875 -4.827734375 33.8 -5.35
L 33.8 -5.35
Q 33.1380859375 -5.4392578125 32.4 -5.5
L 5.6 6.4
Q 5.9978515625 7.1595703125 6.2 8.05 13.4712890625 7.8109375 16.55 11.5
L 39.45 -1.5 Z"/>

<path fill="#EBD463" stroke="none" d="
M 34.3 -8.3
Q 29.3517578125 -9.144921875 21.25 -7.75 8.334765625 -5.4265625 -7.25 1.7 3.9005859375 3.5751953125 3.95 10.55 11.7185546875 10.5724609375 14.4 13.6
L 14.4 13.6
Q 14.8142578125 14.1181640625 15.15 14.7
L 15.15 14.75
Q 17.5587890625 19.2478515625 12.85 24.6 15.6693359375 32.926953125 3.75 38.55 -13.6 41.795703125 -21.05 30.5 -25.1552734375 24.0869140625 -23.5 16 -21.88515625 8.1115234375 -15.6 1.9
L -14.9 1.3
Q -24.653515625 6.6705078125 -26.45 15.35
L -26.45 15.4
Q -28.3291015625 24.716796875 -23.55 32.1 -15.1962890625 45.237890625 4.6 41.45 4.762109375 41.4291015625 4.85 41.35 6.879296875 40.975 9 40.4 23.9787109375 36.4216796875 35.6 18.5 37.8009765625 15.115625 39.35 11.95
L 39.35 11.9
Q 41.1208984375 8.1666015625 41.95 4.75 42.9619140625 0.556640625 42.35 -2.1
L 42.35 -2.1
Q 41.8580078125 -4.2615234375 40.45 -5.55
L 40.5 -5.55
Q 38.3744140625 -7.612109375 34.3 -8.3
M 38.45 -3.35
Q 39.1666015625 -2.65234375 39.45 -1.5
L 16.55 11.5
Q 13.4712890625 7.8109375 6.2 8.05 5.9978515625 7.1595703125 5.6 6.4
L 32.4 -5.5
Q 33.1380859375 -5.4392578125 33.8 -5.35
L 33.8 -5.35
Q 36.829296875 -4.827734375 38.4 -3.35
L 38.45 -3.35
M 21.8 -4.75
Q 26.540625 -5.5923828125 30.1 -5.6
L 5.1 5.5
Q 3.47421875 2.86640625 -0.35 1.95 11.580859375 -2.937109375 21.8 -4.75
M 36.65 10.6
Q 36.29375 11.384765625 35.85 12.15
L 16.15 26.25
Q 16.078515625 25.676953125 15.9 25.1 21.22890625 19.3095703125 17.75 13.3
L 17.75 13.3
Q 17.4908203125 12.809375 17.15 12.35
L 39.55 -0.45
Q 39.6837890625 1.4330078125 39.05 4.05 38.2708984375 7.1671875 36.65 10.6
L 36.65 10.6
M 34.7 14.25
Q 33.9603515625 15.5462890625 33.1 16.85 23.7486328125 31.27578125 12.15 36.15 16.18046875 32.1900390625 16.25 27.95 16.26171875 27.693359375 16.25 27.4
L 34.7 14.25 Z"/>
</g>

<g id="FS_FrontLeg_3_4_hoof_0_Layer0_0_FILL">
<path fill="#EBD463" stroke="none" d="
M 14.95 -14.95
Q 8.7541015625 -20.8443359375 0.05 -20.15 -8.81640625 -19.5484375 -12.8 -14.35 -16.526953125 -9.5060546875 -19.15 -4.25 -21.7119140625 0.947265625 -24.6 7.3
L -24.55 7.3
Q -26.32890625 11.167578125 -25.4 13.5 -24.5373046875 16.1365234375 -20.8 17
L -20.8 17
Q -15.0755859375 18.309765625 -1 18.05 13.7875 17.7890625 17.25 13.7
L 17.25 13.7
Q 20.8900390625 9.7828125 21.05 0.3 21.2107421875 -9.126171875 14.95 -14.95
M 0.25 -17.15
L 0.25 -17.15
Q 7.6546875 -17.7474609375 12.9 -12.75 18.1890625 -7.7734375 18.05 0.25 17.9103515625 8.2857421875 15.05 11.65
L 15 11.7
Q 11.8634765625 14.81171875 -1.05 15.05 -14.6240234375 15.2900390625 -20.15 14.05
L -20.15 14.1
Q -22.016015625 13.6626953125 -22.55 12.5 -22.959375 11.0341796875 -21.85 8.55 -18.9880859375 2.2525390625 -16.45 -2.9 -13.9732421875 -7.894140625 -10.45 -12.5 -7.0837890625 -16.6517578125 0.25 -17.15 Z"/>

<path fill="#FDF6AE" stroke="none" d="
M 0.25 -17.15
L 0.25 -17.15
Q -7.0837890625 -16.6517578125 -10.45 -12.5 -13.9732421875 -7.894140625 -16.45 -2.9 -18.9880859375 2.2525390625 -21.85 8.55 -22.959375 11.0341796875 -22.55 12.5 -22.016015625 13.6626953125 -20.15 14.1
L -20.15 14.05
Q -14.6240234375 15.2900390625 -1.05 15.05 11.8634765625 14.81171875 15 11.7
L 15.05 11.65
Q 17.9103515625 8.2857421875 18.05 0.25 18.1890625 -7.7734375 12.9 -12.75 7.6546875 -17.7474609375 0.25 -17.15 Z"/>
</g>

<g id="FS_FrontLeg_3_4_upper_2_Layer1_0_FILL">
<path fill="#EBD463" stroke="none" d="
M -17.3 82.35
L -14.2 82.9
Q -3.4103515625 50.004296875 -7.15 -2.5 -9.971484375 0.565234375 -9.25 14.7 -7.92421875 54.5646484375 -17.3 82.35
M 18.4 19.05
Q 12.98984375 3.2484375 9.05 0.4 26.109765625 43.7232421875 19.95 89.45
L 19.95 89.5
Q 21.0232421875 91.8462890625 22.9 89.9
L 22.9 89.9
Q 27.77265625 53.83984375 18.4 19.05 Z"/>

<path fill="#FDF6AE" stroke="none" d="
M 9.05 0.4
L 9.05 0.35
Q 0.58515625 -2.4958984375 -7.15 -2.5 -3.4103515625 50.004296875 -14.2 82.9
L -13.1 84.35 19.95 89.45
Q 26.109765625 43.7232421875 9.05 0.4 Z"/>
</g>

<g id="FS_CutieMark_4_Layer0_0_FILL">
<path fill="#F4B6D1" stroke="none" d="
M -6.4 9.55
Q -7.559765625 6.5375 -8.2 5.1 -9.826953125 3.9982421875 -11.85 3.8 -15.29921875 2.6052734375 -17.1 4.6 -18.5646484375 6.428125 -16.5 7.9 -13.9548828125 9.049609375 -11.75 8.35 -13.7380859375 9.938671875 -15.45 12.25 -16.6091796875 14.740625 -14.85 15.25 -12.3029296875 15.4642578125 -9.75 13.25 -7.98515625 12.0603515625 -6.4 9.55
M 1.6 8.35
Q 3.38046875 6.053515625 0.8 5.15 -1.353515625 3.9177734375 -3.55 5.05 -2.0287109375 3.138671875 -2.1 1.35 -1.919140625 -1.2072265625 -3.7 -2 -4.994140625 -2.706640625 -5.75 -0.8 -6.0689453125 1.1728515625 -6.65 4.35 -5.940234375 5.07890625 -5.95 6.4 -5.289453125 8.0125 -5.85 9.55 -4.7509765625 9.3931640625 -3 10.15 -0.073828125 10.19140625 1.6 8.35
M 15.15 4.95
Q 15.034375 1.75234375 13.3 2.2 10.929296875 1.85 10.05 4.85 8.551953125 7.209765625 10 8.1 7.8765625 7.6748046875 5 9 1.8017578125 10.1333984375 1.15 12.05 0.2896484375 13.5248046875 3.2 13.35 4.81796875 12.996875 8.2 12.15 12.08828125 9.0138671875 14 7.9 14.8205078125 6.2041015625 15.15 4.95
M 22.85 6.85
Q 24.0603515625 5.48046875 21.05 6.25 18.372265625 6.68828125 14.95 8.35 13.9568359375 8.9482421875 12.45 10.15 9.985546875 11.470703125 8.25 12.45 7.9357421875 12.8263671875 6.8 14.75 5.723046875 16.6154296875 8.45 16.25 11.481640625 15.609375 13.45 13.3 15.0814453125 11.0958984375 14.1 10.65 16.205859375 10.304296875 18.85 9.25 21.8623046875 7.8408203125 22.85 6.85
M 8.5 -4.15
Q 8.800390625 -3.119140625 9.5 -1.3 10.3970703125 0.831640625 13.25 0.65 16.292578125 -0.0181640625 16 -2.7 15.1720703125 -5.5302734375 13.4 -6.45 15.5078125 -6.56328125 17.25 -8 19.123828125 -9.2314453125 19 -11.25 18.6607421875 -12.72421875 16 -12.3 13.7041015625 -11.4544921875 11.35 -9.5 11.2119140625 -8.2439453125 10.65 -7.3 9.5318359375 -4.9845703125 8.5 -4.15
M 2.3 -17.8
Q -0.1783203125 -17.61484375 1.5 -14.5 2.5828125 -11.030078125 5.15 -10 2.544921875 -10.2076171875 0.65 -9 -1.305859375 -7.170703125 -0.35 -5 0.6900390625 -2.7884765625 3.6 -3.2 5.019140625 -3.2099609375 8.1 -4.55 9.0216796875 -8.4828125 9.75 -10.2 8.491015625 -12.2890625 7.3 -14.2 4.484765625 -17.772265625 2.3 -17.8 Z"/>

<path fill="#6CC9C6" stroke="none" d="
M -8.4 -1.95
Q -8.49453125 -1.6916015625 -9.15 -1.3 -9.101171875 -1.1083984375 -9.25 0.15 -8.850390625 1.7560546875 -8.05 3.65
L -8.1 3.7
Q -8.4095703125 2.5439453125 -9.6 2.15 -11.2181640625 0.7333984375 -12.45 0.9 -12.41484375 0.622265625 -12.75 0.95 -13.0435546875 0.9890625 -13.65 1.35 -13.8505859375 1.5380859375 -13.9 1.85 -13.590234375 1.9880859375 -13.4 2.45 -12.4703125 2.3623046875 -12.45 2.55
L -12.25 2.5
Q -12.1830078125 2.1439453125 -12.3 2.05 -12.2369140625 2.106640625 -12.4 2.15 -12.4068359375 1.8798828125 -13.05 2.05 -13.066796875 1.7326171875 -13.25 1.9 -13.122265625 1.474609375 -12.8 1.35 -12.269921875 1.0619140625 -12.6 1.35 -11.516015625 1.06484375 -10.1 2.5 -8.787109375 2.907421875 -8.45 4.35 -8.3837890625 4.3369140625 -8.3 4.3 -8.298828125 4.6306640625 -8.2 5.1 -7.559765625 6.5375 -6.4 9.55 -5.9654296875 9.9849609375 -6.05 10.35 -5.7240234375 9.8708984375 -5.85 9.55 -5.289453125 8.0125 -5.95 6.4 -5.940234375 5.07890625 -6.65 4.35 -6.723046875 3.6599609375 -7.5 3.5 -8.221875 1.6240234375 -8.7 0.05 -8.561328125 -1.0150390625 -8.65 -1.15 -8.2673828125 -1.4298828125 -8.1 -1.55 -7.5134765625 -1.58984375 -7.6 -1.15 -7.2845703125 -0.815625 -7.75 -0.65 -7.2056640625 -0.4646484375 -7.35 -0.35 -6.6462890625 -0.94453125 -7.1 -1.25 -6.8787109375 -1.589453125 -7.6 -1.8 -7.7015625 -2.0015625 -8.4 -1.95
M 21.3 4.2
Q 21.4205078125 3.876171875 21.8 4.3
L 21.4 4.9
Q 21.0634765625 4.7642578125 20.7 5.05 20.38203125 5.1166015625 20.5 5.35 20.97890625 5.2013671875 21.55 5.15 22.487109375 4.61796875 22.2 4.05 21.990625 3.4861328125 21.3 3.85 20.4931640625 3.8384765625 19.6 4.45 17.3291015625 5.5615234375 15.75 7.1
L 15.75 7
Q 16.0591796875 6.5955078125 17.25 5.35 18.76171875 3.1078125 18.2 2.75 18.2376953125 2.346484375 18.1 2.55 17.7580078125 2.150390625 17.5 2.4 16.995703125 2.319140625 16.85 2.5 16.357421875 2.7541015625 16.3 3.15 16.0876953125 3.1810546875 16.35 3.8 16.399609375 3.8623046875 16.45 3.9 16.6396484375 3.5685546875 16.8 3.6 16.5185546875 2.9048828125 17.05 2.8 17.1076171875 2.5796875 17.7 2.8 17.8255859375 2.5966796875 17.75 2.95 18.2287109375 3.25 16.8 5.25 15.6216796875 6.5701171875 14.9 7.25 14.94765625 7.2080078125 14.95 7.3 14.278125 7.529296875 14 7.9 12.08828125 9.0138671875 8.2 12.15 7.83828125 12.345703125 7.1 13 7.427734375 12.7552734375 8.25 12.45 9.985546875 11.470703125 12.45 10.15 13.9568359375 8.9482421875 14.95 8.35 15.5974609375 7.5478515625 15.9 7.35
L 15.95 7.35
Q 16.2154296875 6.863671875 17.5 6.2 18.822265625 5.0228515625 19.85 4.75 20.6939453125 4.1513671875 21.3 4.2
M 11.7 -12.4
Q 12.0171875 -13.4076171875 12.6 -14.25 12.8052734375 -14.6609375 13.65 -15.05 14.040234375 -14.839453125 14.4 -14.8 14.525 -14.3328125 14.7 -14.4 14.4587890625 -14.18984375 14.7 -14 14.3837890625 -13.471875 14 -13.9 13.9271484375 -13.360546875 14.2 -13.45 14.7984375 -13.3185546875 15.2 -13.7 15.434765625 -13.6255859375 15.15 -14.35 15.1060546875 -14.5490234375 14.6 -15.1 13.6662109375 -15.3666015625 13.3 -15.45 12.6224609375 -15.3060546875 12.05 -14.7 11.0162109375 -13.241796875 10.65 -11.3 10.599609375 -11.2751953125 10.55 -11.3 10.3287109375 -12.1587890625 10.35 -13.55 9.5650390625 -15.8353515625 8.65 -16.85 8.314453125 -16.6359375 8.3 -17.05 7.75859375 -17.08359375 7.3 -17.45 6.799609375 -17.1166015625 6.7 -17.25 6.48359375 -16.8650390625 6.75 -16.5 6.7916015625 -15.8744140625 7.55 -15.55 7.4806640625 -15.5146484375 7.75 -15.5
L 8 -15.75
Q 7.7158203125 -15.7083984375 7.75 -15.85 7.0548828125 -16.117578125 7.35 -16.4 6.77109375 -16.73125 7.25 -16.85 7.504296875 -17.057421875 8.1 -16.8 7.8779296875 -16.6173828125 8.3 -16.6 8.8962890625 -15.9115234375 9.8 -13.65 9.7615234375 -11.605078125 9.9 -11
L 10.05 -10.85
Q 9.710546875 -10.3724609375 9.75 -10.2 9.0216796875 -8.4828125 8.1 -4.55 7.9208984375 -3.708984375 7.75 -3.5 8.0162109375 -3.7453125 8.5 -4.15 9.5318359375 -4.9845703125 10.65 -7.3 11.2119140625 -8.2439453125 11.35 -9.5 11.2408203125 -10.301953125 11.2 -10.9 10.89921875 -11.4330078125 11.7 -12.4 Z"/>
</g>

<g id="FS_Torso_5_Layer1_0_FILL">
<path fill="#949494" stroke="none" d="
M -14.2 32.65
L -14.15 32.65 -14.15 32.65 -14.2 32.65
M 16.15 -38.15
L 16.15 -38.1
Q 16.1865234375 -38.069140625 16.2 -38.1 16.203125 -38.1025390625 16.15 -38.15 Z"/>

<path fill="#FDF6AE" stroke="none" d="
M 1.55 -32.55
Q 1.013671875 -32.0939453125 0.45 -31.7 -2.1201171875 -29.892578125 -5.5 -28.85 -9.94296875 -27.409765625 -15.8 -27.3 -16.6392578125 -27.327734375 -17.45 -27.3
L -17.5 -27.3
Q -27.0123046875 -26.284375 -34.25 -18.6 -36.15390625 -16.279296875 -37.55 -13.7 -41.16015625 -6.9798828125 -41.15 1.55 -41.153125 13.2560546875 -34.35 21.6 -34.2990234375 21.62421875 -34.3 21.65
L -34.25 21.7
Q -26.4076171875 29.5734375 -14.2 32.65
L -14.15 32.65 -14.2 32.65 -14.15 32.65
Q -0.4197265625 35.8931640625 12.95 31.8
L 12.95 31.65
Q 14.226953125 31.134375 15.5 30.5
L 15.5 30.5
Q 16.440234375 30.1134765625 17.3 29.6 24.3142578125 24.7689453125 28.2 14.5 30.6875 7.913671875 31.9 -0.9 26.6107421875 -25.6935546875 16.15 -38.1 7.634765625 -36.7572265625 1.95 -32.85 1.754296875 -32.67734375 1.55 -32.55 Z"/>

<path fill="#EBD564" stroke="none" d="
M 16.15 -38.15
Q 14.464453125 -40.25078125 11.65 -40.25 4.861328125 -38.5818359375 0 -35.15
L -0.05 -35.15
Q -4.91953125 -31.029296875 -13.6 -30.4 -25.8751953125 -31.151953125 -35.95 -21.35 -36.792578125 -20.364453125 -37.55 -19.35 -37.8236328125 -18.9779296875 -38.1 -18.6 -44.1376953125 -10.0486328125 -44.15 1.55 -44.146875 14.614453125 -36.5 23.9 -36.4240234375 23.9517578125 -36.4 24 -28.01875 32.5103515625 -14.85 35.8
L -14.85 35.85
Q -0.75703125 39.1841796875 12.95 35.2 15.911328125 34.33203125 21.4 30.15 28.1216796875 24.3849609375 30.55 14.5 32.2201171875 7.7583984375 31.9 -0.9 30.6875 7.913671875 28.2 14.5 24.3142578125 24.7689453125 17.3 29.6 16.440234375 30.1134765625 15.5 30.5
L 15.5 30.5
Q 14.226953125 31.134375 12.95 31.65
L 12.95 31.8
Q -0.4197265625 35.8931640625 -14.15 32.65
L -14.15 32.65 -14.2 32.65
Q -26.4076171875 29.5734375 -34.25 21.7
L -34.3 21.65
Q -34.2990234375 21.62421875 -34.35 21.6 -41.153125 13.2560546875 -41.15 1.55 -41.16015625 -6.9798828125 -37.55 -13.7 -36.15390625 -16.279296875 -34.25 -18.6 -27.0123046875 -26.284375 -17.5 -27.3
L -17.45 -27.3
Q -16.6392578125 -27.327734375 -15.8 -27.3 -9.94296875 -27.409765625 -5.5 -28.85 -2.1201171875 -29.892578125 0.45 -31.7 1.013671875 -32.0939453125 1.55 -32.55 1.754296875 -32.67734375 1.95 -32.85 7.634765625 -36.7572265625 16.15 -38.1
L 16.15 -38.15 Z"/>
</g>

<g id="FS_Neck_1_Layer0_0_FILL">
<path fill="#FDF6AE" stroke="none" d="
M -17.6 -99.9
L -17.65 -99.9
Q -26.683984375 -109.0083984375 -39.8 -109 -52.8892578125 -108.998828125 -62.3 -99.85 -71.801171875 -90.6611328125 -72.05 -77.85 -72.3279296875 -65.053125 -63.25 -55.9
L -63.25 -55.9
Q -62.7607421875 -55.412890625 -62.25 -54.95
L -60.5 -53.45 -60.5 -53.4 -59.15 -51.9
Q -48.75625 -40.150390625 -47.1 -29.25 -47 -27.9 -46.95 -26.5 -46.9 -23.2 -47.45 -19.75 -50.535546875 -0.3146484375 -45.9 16
L -45.9 15.95
Q -39.7232421875 37.46015625 -19.85 44.45
L -18.45 44.95 -18.55 45
Q -7.184375 45.1412109375 -5.55 29.25 -3.9140625 13.4140625 -2.6 -0.1
L -0.25 -0.05
Q -3.05859375 -1.5416015625 -4.1 -3.15 -5.85234375 -5.197265625 -8.1 -25.15 -9.88515625 -40.952734375 -9.5 -62.95 -9.3767578125 -67.9625 -9.2 -73.3 -9.158984375 -73.5244140625 -9.15 -73.75
L -9.15 -81.3 -8.85 -81.3
Q -9.7095703125 -91.998828125 -17.6 -99.9
M -34.6 -47.4
L -34.7 -47.4
Q -34.6310546875 -47.38359375 -34.6 -47.4
L -34.6 -47.4 Z"/>

<path fill="#EBD564" stroke="none" d="
M -34.7 -47.4
L -34.6 -47.4 -34.6 -47.4
Q -34.6310546875 -47.38359375 -34.7 -47.4
M -17.65 -99.9
L -17.6 -99.9
Q -9.7095703125 -91.998828125 -8.85 -81.3
L -9.15 -81.3 -9.15 -73.75
Q -9.158984375 -73.5244140625 -9.2 -73.3 -9.3767578125 -67.9625 -9.5 -62.95 -9.88515625 -40.952734375 -8.1 -25.15 -5.85234375 -5.197265625 -4.1 -3.15 -3.05859375 -1.5416015625 -0.25 -0.05 -1.4 -1.85 -2.25 -4.8 -3.05 -7.45 -5.1 -25.5 -7.2638671875 -44.648828125 -6.2 -72.95 -5.7958984375 -75.3732421875 -5.75 -77.95 -5.492578125 -92.0048828125 -15.5 -102
L -15.5 -102
Q -25.41640625 -111.9916015625 -39.8 -112 -54.110546875 -112.0013671875 -64.4 -102 -74.7986328125 -91.9388671875 -75.05 -77.9 -75.355078125 -64.5958984375 -66.45 -54.9 -65.9 -54.35 -65.35 -53.8 -63.45 -52 -61.7 -50.1 -60.3 -48.55 -58.95 -46.95 -52.171875 -38.4115234375 -50.45 -29.2 -50 -25.35 -50.3 -21.6 -50.35 -20.65 -50.5 -19.7 -53.575 0.1408203125 -48.8 16.8
L -48.8 16.8
Q -42.1767578125 39.8396484375 -20.85 47.3
L -19.45 47.8 -18.55 45 -18.45 44.95 -19.85 44.45
Q -39.7232421875 37.46015625 -45.9 15.95
L -45.9 16
Q -50.535546875 -0.3146484375 -47.45 -19.75 -46.9 -23.2 -46.95 -26.5 -47 -27.9 -47.1 -29.25 -48.75625 -40.150390625 -59.15 -51.9
L -60.5 -53.4 -61.7 -53.4 -60.5 -53.45 -62.25 -54.95
Q -62.7607421875 -55.412890625 -63.25 -55.9
L -63.25 -55.9
Q -72.3279296875 -65.053125 -72.05 -77.85 -71.801171875 -90.6611328125 -62.3 -99.85 -52.8892578125 -108.998828125 -39.8 -109 -26.683984375 -109.0083984375 -17.65 -99.9 Z"/>
</g>

<g id="FS_Wing_3_4_9_Layer5_0_FILL">
<path fill="#FDF6AE" stroke="none" d="
M 12.85 24.6
Q 15.25 21.9 15.65 18.9 16.1 15.85 14.4 13.6 12.8 11.55 10.25 10.95 8.5 10.55 3.95 10.55 3.9005859375 3.5751953125 -7.25 1.7
L -14.95 1.8
Q -22.45 10.75 -23.5 16 -25.1552734375 24.0869140625 -21.05 30.5 -13.6 41.795703125 3.75 38.55 15.6693359375 32.926953125 12.85 24.6
M 35.85 12.15
Q 38.25 7.05 39.05 4.05 39.6837890625 1.4330078125 39.55 -0.45
L 17.15 12.35 17.75 13.3
Q 18.8 15 18.6 18.4 18.3 22.55 15.9 25.1 16.078515625 25.676953125 16.15 26.25
L 35.85 12.15
M 33.1 16.85
Q 33.9603515625 15.5462890625 34.7 14.25
L 16.25 27.4
Q 16.26171875 27.693359375 16.25 27.95 16.18046875 32.1900390625 12.15 36.15 23.7486328125 31.27578125 33.1 16.85
M 38.4 -3.35
Q 36.75 -4.95 33.85 -5.4
L 32.4 -5.5 5.6 6.4
Q 5.9978515625 7.1595703125 6.2 8.05 13.4712890625 7.8109375 16.55 11.5
L 39.45 -1.5
Q 39.1666015625 -2.65234375 38.45 -3.35
L 38.4 -3.35
M 30.1 -5.6
Q 26.540625 -5.5923828125 21.8 -4.75 11.580859375 -2.937109375 -0.35 1.95 3.47421875 2.86640625 5.1 5.5
L 30.1 -5.6 Z"/>

<path fill="#EBD463" stroke="none" d="
M 34.3 -8.3
Q 29.3517578125 -9.144921875 21.25 -7.75 8.334765625 -5.4265625 -7.25 1.7 3.9005859375 3.5751953125 3.95 10.55 8.5 10.55 10.25 10.95 12.8 11.55 14.4 13.6 16.1 15.85 15.65 18.9 15.25 21.9 12.85 24.6 15.6693359375 32.926953125 3.75 38.55 -13.6 41.795703125 -21.05 30.5 -25.1552734375 24.0869140625 -23.5 16 -22.45 10.75 -14.95 1.8 -24.6 6.15 -26.45 15.35
L -26.45 15.4
Q -28.3291015625 24.716796875 -23.55 32.1 -15.1962890625 45.237890625 4.6 41.45
L 9 40.4
Q 23.9787109375 36.4216796875 35.6 18.5 37.8009765625 15.115625 39.35 11.95
L 39.35 11.9
Q 41.1208984375 8.1666015625 41.95 4.75 42.9619140625 0.556640625 42.35 -2.1
L 42.35 -2.1
Q 41.8580078125 -4.2615234375 40.45 -5.55
L 40.5 -5.55
Q 38.3744140625 -7.612109375 34.3 -8.3
M 21.8 -4.75
Q 26.540625 -5.5923828125 30.1 -5.6
L 5.1 5.5
Q 3.47421875 2.86640625 -0.35 1.95 11.580859375 -2.937109375 21.8 -4.75
M 33.85 -5.4
Q 36.75 -4.95 38.4 -3.35
L 38.45 -3.35
Q 39.1666015625 -2.65234375 39.45 -1.5
L 16.55 11.5
Q 13.4712890625 7.8109375 6.2 8.05 5.9978515625 7.1595703125 5.6 6.4
L 32.4 -5.5 33.85 -5.4
M 34.7 14.25
Q 33.9603515625 15.5462890625 33.1 16.85 23.7486328125 31.27578125 12.15 36.15 16.18046875 32.1900390625 16.25 27.95 16.26171875 27.693359375 16.25 27.4
L 34.7 14.25
M 39.05 4.05
Q 38.25 7.05 35.85 12.15
L 16.15 26.25
Q 16.078515625 25.676953125 15.9 25.1 18.3 22.55 18.6 18.4 18.8 15 17.75 13.3
L 17.15 12.35 39.55 -0.45
Q 39.6837890625 1.4330078125 39.05 4.05 Z"/>
</g>

<g id="FS_Skull_0_Layer0_0_FILL">
<path fill="#FDF6AE" stroke="none" d="
M -13.1 -42.35
Q -21.1 -39.7 -28.55 -34.05 -31.85 -31.5 -35.3 -27.95 -40.25 -22.8 -42.85 -11.5 -44.6458984375 -3.5529296875 -44.85 1.85 -45.012890625 7.3087890625 -44.25 14.15 -43.4365234375 20.9841796875 -42.3 24.2 -41.1564453125 27.423828125 -40.55 28.85 -39.898046875 30.31015625 -39.95 31.45
L -33.15 31.55
Q -19.908203125 42.349609375 -3.55 45.95 12.84921875 49.6044921875 18.65 48.75 26.2490234375 43.9646484375 33.6 36.15 40.988671875 28.38125 46 11.5 51.009375 -5.39296875 48.1 -15.3 46.64609375 -20.2318359375 44.05 -24.7 41.2005859375 -29.57109375 36.95 -33.85 25.890625 -44.9564453125 5.35 -45.05 -4.85 -45.1 -13.1 -42.35 Z"/>

<path fill="#EBD463" stroke="none" d="
M -30.35 -36.45
Q -32.1 -35.1 -37.65 -29 -42.2 -23.95 -45 -14.9 -47.8490234375 -5.702734375 -47.6 4.85 -47.3529296875 15.408203125 -45.55 22.45 -43.74609375 29.5390625 -41.05 31.4
L -40.8 31.4
Q -39.876171875 32.57734375 -39.95 31.45 -39.898046875 30.31015625 -40.55 28.85 -41.1564453125 27.423828125 -42.3 24.2 -43.4365234375 20.9841796875 -44.25 14.15 -45.012890625 7.3087890625 -44.85 1.85 -44.6458984375 -3.5529296875 -42.85 -11.5 -40.25 -22.8 -35.3 -27.95 -31.85 -31.5 -28.55 -34.05 -21.1 -39.7 -13.1 -42.35 -4.85 -45.1 5.35 -45.05 25.890625 -44.9564453125 36.95 -33.85 41.2005859375 -29.57109375 44.05 -24.7
L 44.05 -30.2
Q 41.857421875 -33.186328125 39.1 -35.95 27.309765625 -47.94375 5.35 -48.05 -5.4 -48.1 -14.15 -45.2 -22.55 -42.4 -30.35 -36.45 Z"/>
</g>

<g id="Mask_Mask_FS_EyeWhite_3_4far_0_Layer0_0_FILL">
<path fill="#FFFFFF" stroke="none" d="
M 18.15 -15.65
Q 9.84765625 -21.6255859375 2.55 -22.05 -4.7708984375 -22.42109375 -11.2 -16 -17.4994140625 -9.6044921875 -19.45 -0.2 -21.3234375 9.20390625 -17.7 16 -14.0943359375 22.9564453125 -6.85 23.35 0.433203125 23.78125 9.85 17 19.302734375 10.2376953125 22.85 0.3 26.469140625 -9.6103515625 18.15 -15.65 Z"/>
</g>

<g id="FS_EyeWhite_3_4far_0_Layer0_0_FILL">
<path fill="#FFFFFF" stroke="none" d="
M 18.15 -15.65
Q 9.84765625 -21.6255859375 2.55 -22.05 -4.7708984375 -22.42109375 -11.2 -16 -17.4994140625 -9.6044921875 -19.45 -0.2 -21.3234375 9.20390625 -17.7 16 -14.0943359375 22.9564453125 -6.85 23.35 0.433203125 23.78125 9.85 17 19.302734375 10.2376953125 22.85 0.3 26.469140625 -9.6103515625 18.15 -15.65 Z"/>
</g>

<g id="FS_Iris_0_Layer1_0_FILL">
<path fill="url(#Gradient_1)" stroke="none" d="
M 17.7 -13.05
Q 13.45 -21.1 5.25 -22.95 -3 -24.85 -10.3 -19.4 -17.6 -14 -19.75 -4.45 -20.922265625 0.6119140625 -20 7.1 -19.662109375 8.449609375 -19.2 9.75
L -18.6 11.2
Q -18.1958984375 12.1607421875 -17.7 13.1 -13.45 21.15 -5.2 23 3 24.85 10.3 19.45 17.6 14 19.8 4.5 21.95 -5 17.7 -13.05 Z"/>
</g>

<g id="FS_Iris_0_Layer0_0_FILL">
<path fill="#8AD2D5" stroke="none" d="
M -6.5 8
Q -17.6794921875 11.2681640625 -18.65 11.25 -17.6072265625 14.0123046875 -15.4 16.75
L 0.1 6.75 -6.5 8 Z"/>
</g>

<g id="FS_Iris_0_Layer0_1_FILL">
<path fill="#3DBFBB" stroke="none" d="
M -20.25 5.4
Q -19.7828125 8.4513671875 -18.6 11.3
L 0.4 6.6 -20.25 5.4 Z"/>
</g>

<g id="FS_Pupil_0_Layer0_0_FILL">
<path fill="#000000" stroke="none" d="
M 12.45 -9.9
Q 10.5203125 -16.0232421875 5.5 -17.5 0.487109375 -18.9470703125 -4.7 -14.9 -9.854296875 -10.7671875 -12.15 -3.55 -14.402734375 3.7013671875 -12.5 9.8 -10.484375 16.0318359375 -5.45 17.5 -0.4265625 18.9556640625 4.7 14.8 9.91484375 10.7759765625 12.15 3.55 14.43828125 -3.692578125 12.45 -9.9 Z"/>
</g>

<g id="FS_Hilights_0_Layer1_0_FILL">
<path fill="#FFFFFF" stroke="none" d="
M -8.15 11.5
Q -8.11953125 11.614453125 -8.1 11.7 -8.0240234375 11.8134765625 -7.95 11.95 -7.7912109375 12.381640625 -7.55 12.75 -7.4705078125 12.844140625 -7.4 12.9 -7.2078125 13.113671875 -6.95 13.3 -6.50546875 13.6888671875 -6.05 13.8 -5.996875 13.8515625 -5.95 13.85 -5.6171875 13.9560546875 -5.2 13.95 -3.9484375 13.97890625 -3.4 12.75 -3.3849609375 12.698046875 -3.4 12.65 -3.1736328125 12.1291015625 -3.25 11.35 -3.259765625 11.128515625 -3.35 10.85 -3.3462890625 10.7740234375 -3.4 10.7 -3.7330078125 9.7962890625 -4.4 9.15 -4.435546875 9.108203125 -4.5 9.05 -4.72890625 8.870703125 -4.9 8.75 -5.579296875 8.305859375 -6.3 8.4 -7.123828125 8.352734375 -7.65 8.9 -7.813671875 9.0921875 -8 9.35 -8.0568359375 9.446484375 -8.1 9.55 -8.510546875 10.357421875 -8.15 11.5
M 3.85 -8.7
L 3.8 -8.75
Q 1.3921875 -11.8771484375 -1.15 -11.7 -4.233984375 -11.8736328125 -5.6 -8.2
L -5.6 -8.15
Q -6.528125 -5.45625 -5.75 -1.6 -5.0052734375 2.07265625 -3.05 4.6
L -3.05 4.6
Q -0.6041015625 7.82109375 2 7.65 5.12890625 7.837890625 6.4 4 7.375390625 1.40078125 6.6 -2.4
L 6.6 -2.45
Q 5.8041015625 -6.1376953125 3.85 -8.7 Z"/>
</g>

<g id="Mask_Mask_FS_EyeWhite_3_4_0_Layer0_0_FILL">
<path fill="#FFFFFF" stroke="none" d="
M 15.3 -16.8
Q 12.05 -25.85 4.7 -27.8 -2.55 -29.75 -9.55 -23.45 -16.6 -17.15 -19.25 -6.25 -21.95 4.7 -18.7 13.75 -15.45 22.8 -8.2 24.8 -0.9 26.75 6.15 20.4 13.2 14.15 15.9 3.2 18.6 -7.7 15.3 -16.8 Z"/>
</g>

<g id="FS_EyeWhite_3_4_0_Layer0_0_FILL">
<path fill="#FFFFFF" stroke="none" d="
M 15.3 -16.8
Q 12.05 -25.85 4.7 -27.8 -2.55 -29.75 -9.55 -23.45 -16.6 -17.15 -19.25 -6.25 -21.95 4.7 -18.7 13.75 -15.45 22.8 -8.2 24.8 -0.9 26.75 6.15 20.4 13.2 14.15 15.9 3.2 18.6 -7.7 15.3 -16.8 Z"/>
</g>

<g id="FS_Blink_3_4far_44_Layer9_0_FILL">
<path fill="#000000" stroke="none" d="
M 2.6 -21.15
Q 4.5849609375 -21.360546875 5.7 -15.1 6.79921875 -8.811328125 6.45 0.25 6.1400390625 9.3076171875 4.55 15.75 4.32890625 16.8455078125 4.05 17.75 4.808984375 15.928125 5.35 13.5 5.7642578125 11.9158203125 6.05 10.15 6.2 9.5484375 6.25 8.8 6.7927734375 5.698046875 7.3 0.6 7.81484375 -4.44296875 7.7 -10.65 6.848046875 -23.696875 3.45 -23.25 0.54765625 -22.861328125 -2.55 -14.25 -2.29921875 -14.7767578125 -2.05 -15.3 0.6708984375 -20.888671875 2.6 -21.15 Z"/>
</g>

<g id="FS_Blink_3_4far_44_Layer7_0_FILL">
<path fill="#FDF6AE" stroke="none" d="
M 7.75 -10.75
Q 6.954296875 -23.9515625 3.5 -23.65 0.1068359375 -23.3212890625 -3.45 -11.9 -4.802734375 -7.033984375 -4.75 -0.1 -4.7490234375 2.165625 -4.65 4.25 -4.6267578125 4.7310546875 -4.6 5.15 -3.21328125 5.453125 -1.85 5.95 1.165625 7.1908203125 3 8.75 4.828515625 10.352734375 6.1 10.05 6.179296875 9.8677734375 6.2 9.65 6.2853515625 9.30859375 6.3 8.9 6.8431640625 5.7580078125 7.35 0.6 7.8681640625 -4.5 7.75 -10.75 Z"/>
</g>

<g id="FS_Blink_3_4far_44_Layer4_0_FILL">
<path fill="#000000" stroke="none" d="
M 0.55 8.3
Q 3.7826171875 10.484375 5.9 11 5.9939453125 10.200390625 6.05 9.75 5.0267578125 9.2544921875 2.35 7.05 -0.4509765625 4.79609375 -2.8 4.05 -5.236328125 3.00703125 -7.35 4.3 -9.471875 5.6169921875 -9.25 7.4 -8.1212890625 5.64375 -5.6 5.65 -7.95703125 6.4615234375 -9.2 7.8 -10.8013671875 9.6408203125 -10.3 12.3 -9.0080078125 8.4837890625 -5.15 7 -5.8029296875 7.3513671875 -7.15 9.1 -7.961328125 10.184765625 -7.8 13.5 -6.3419921875 9.6587890625 -4.25 8.4
L -4.5 5.6
Q -2.6330078125 6.125390625 0.55 8.3 Z"/>
</g>

<g id="FS_Blink_3_4_44_Layer5_0_FILL">
<path fill="#000000" stroke="none" d="
M 3.9 -28.3
Q 2.6283203125 -28.579296875 1.35 -28.7 -4.6439453125 -29.078515625 -10.25 -24.75 -11.7181640625 -23.5576171875 -13 -22.2 -17.4087890625 -17.401953125 -18.9 -10.25 -19.5439453125 -6.9607421875 -19.9 -3.95 -20.534765625 1.5740234375 -20.15 6.3 -20.158203125 1.678125 -18.95 -3.35 -18.7609375 -4.0185546875 -18.6 -4.7 -15.9060546875 -14.323046875 -9.65 -20.2 1.74921875 -30.1068359375 10.75 -21.8 10.882421875 -21.6779296875 11 -21.55 13.90546875 -18.748828125 15.65 -13.95 16.3888671875 -11.873828125 16.8 -9.75 16.4884765625 -14.0923828125 14.85 -18.1 11.35234375 -26.50703125 3.9 -28.3 Z"/>
</g>

<g id="FS_Blink_3_4_44_Layer4_0_FILL">
<path fill="#FDF6AE" stroke="none" d="
M 16.4 -17.65
Q 12.496484375 -27.56875 4.35 -29.75 -3.7302734375 -31.8421875 -11.25 -24.95 -18.7919921875 -17.9697265625 -21.4 -6.05 -23.1103515625 2.048828125 -21.95 9.15
L -20.95 10.3
Q -18.65 11.75 -16.25 12.8 -16.1 12.85 -15.95 12.95
L -6.1 13.3
Q -1.45 13.9 2.35 12.45 4.5 11.55 7.05 11.55 7.8 11.4 8.6 10.95 10.7 10.95 12.55 10.45 13.8 10.1 14.7 9.5
L 16.1 9.35 16.35 9.35
Q 17.15859375 6.9640625 17.7 4.3 20.319921875 -7.6388671875 16.4 -17.65 Z"/>
</g>

<g id="FS_Blink_3_4_44_Layer3_0_FILL">
<path fill="#000000" stroke="none" d="
M 16.95 19.45
Q 18.5791015625 20.37578125 19.9 21.9 19.8611328125 18.6484375 16.25 17.1 13.638671875 15.9990234375 11.35 16.2
L 10.15 18
Q 14.18828125 17.88203125 16.95 19.45
M 6.45 22.2
L 4.6 23.6
Q 6.1939453125 26.837109375 5.95 29.8 5.6958984375 32.807421875 7.05 29.05 8.4173828125 25.300390625 6.45 22.2
M 10 18.55
L 8.75 20.05
Q 11.8150390625 21.620703125 12.95 24.6 13.6880859375 26.43359375 13.95 28.65 15.7818359375 24.8724609375 13.7 21.65 12.176953125 19.2923828125 10 18.55 Z"/>
</g>

<g id="FS_Blink_3_4_44_Layer2_0_FILL">
<path fill="#000000" stroke="none" d="
M 25.55 12.45
Q 25.01875 6.657421875 12.55 9 3.16484375 11.6037109375 -9.75 11.65 -20.8150390625 11.673046875 -22.5 5.8 -27.405078125 20.9017578125 10.55 11.8 22.148046875 8.1255859375 25.55 12.45 Z"/>
</g>

<g id="FS_Blink_3_4_44_Layer1_0_FILL">
<path fill="#000000" stroke="none" d="
M 11.6 10.85
Q 7.681640625 10.3408203125 4.3 10.85 5.484375 13.0587890625 5.45 12.9 12.6703125 11.1564453125 16.95 16.55 15.7373046875 11.697265625 12.05 10.95 17.396875 9.98828125 21.7 14.9 18.957421875 7.37109375 10.4 9.8 11.1791015625 10.55390625 11.6 10.85 Z"/>
</g>

<g id="FS_Mouth_3_4_0_Layer10_0_FILL">
<path fill="#FDF6AE" stroke="none" d="
M -24.5 -8.35
Q -24.592578125 -7.3197265625 -23.95 -6.5 -10.1201171875 11.1193359375 15.85 16.75 19.967578125 17.2029296875 26.5 14.35 -2.0705078125 7.620703125 -11.25 -1.45 -20.419921875 -10.4630859375 -22.15 -12.2 -24.358984375 -9.365234375 -24.5 -8.35 Z"/>
</g>

<g id="FS_Nose_0_Layer1_0_FILL">
<path fill="#EBD463" stroke="none" d="
M -7.75 8.1
Q -4.5 6.85 -3.1 5.35 -1.05 3.05 0 0.2 0.053125 0.082421875 0.1 -0.05 0.0193359375 0.06484375 -0.1 0.15 -0.1197265625 0.2525390625 -0.2 0.3 -1.06796875 1.53046875 -2.1 2.4 -2.786328125 3.0109375 -3.55 3.45 -3.8748046875 3.6556640625 -4.25 3.85 -5.3 4.4 -8 5.15
L -12.35 6.4
Q -13.35 6.8 -13.95 7.2 -14.7142578125 7.8189453125 -15.1 8.6 -16.4 10.85 -15.3 14.1 -13.65 14.25 -12.75 13.7
L -12.35 13.45
Q -12.9 11.85 -12.3 10.55 -11.8 9.35 -10.8 8.95
L -7.75 8.1 Z"/>

<path fill="#FDF6AE" stroke="none" d="
M 0.1 0
L 0 0.2
Q -1.05 3.05 -3.1 5.35 -4.5 6.85 -7.75 8.1
L -10.8 8.95
Q -11.8 9.35 -12.3 10.55 -12.9 11.85 -12.35 13.45
L -12.75 13.7
Q -11.2017578125 19.790234375 -8.2 21.65 -5.2095703125 23.5673828125 -3.45 24.6 -0.59609375 24.3787109375 3.55 21.4 5.2333984375 18.342578125 6.5 15.75 4.45 10.5 3 6.15 1.85 -0.4 1.15 -0.7 0.65 -0.9 0.1 0 Z"/>
</g>

<g id="FS_Mouth_3_4_0_Layer7_0_FILL">
<path fill="#EBD463" stroke="none" d="
M 31 14
Q 16.580078125 18.1708984375 6.35 18.75 -4.802734375 19.399609375 -12.8 17.05 -20.741796875 14.7009765625 -28.1 9.7
L -28.2 9.6
Q -30.85 8.75 -29.3 12.55 -23.2392578125 17.2021484375 -14.15 19.85 -4.5 22.65 10.7 20.65 25.5396484375 18.71015625 31.65 14 31.341015625 13.99765625 31 14 Z"/>

<path fill="#FDF6AE" stroke="none" d="
M 31 14
Q 30.5068359375 14 30 14 -1.05 14 -14.8 0.5 -16.6330078125 -1.2935546875 -18.1 -3.25 -22.221875 2.3826171875 -28.1 9.7 -20.741796875 14.7009765625 -12.8 17.05 -4.802734375 19.399609375 6.35 18.75 16.580078125 18.1708984375 31 14 Z"/>
</g>

<g id="FS_Mouth_3_4_0_Layer4_0_FILL">
<path fill="#EBD463" stroke="none" d="
M -19.6 10.5
Q -16.1 7.45 -17.7 0.95 -18.05 6.65 -21 8.75 -23.2033203125 10.328125 -26.35 10.85 -27.897265625 9.7888671875 -29.25 8.55 -30.437890625 7.5134765625 -31.5 6.35 -34.3 3.15 -35.45 -0.35 -36.65 0 -38.45 0.25 -37 4.65 -33.75 8.35 -31.95 10.4 -31.1 11.15 -29.35 12.7 -28.1 13.4 -22.2 12.75 -19.6 10.5 Z"/>
</g>

<g id="FS_Nostril_3_4_0_Layer0_0_FILL">
<path fill="#EBD463" stroke="none" d="
M 1.2 2.35
Q 2.95 1.9 2.55 -2.4 1.95 0.3 0.6 0.75 -0.8 1 -2.6 0.3 -0.65 2.55 1.2 2.35 Z"/>
</g>

<g id="FS_Hair_05_6_Layer1_0_FILL">
<path fill="#F4B6D1" stroke="none" d="
M 44.85 -1.7
Q 45.0072265625 -1.6888671875 45.15 -1.65
L 46.75 -15.7
Q 25.59609375 -25.4107421875 14.9 -28.1 4.19453125 -30.730078125 -0.4 -30.85 -1.9265625 -30.899609375 -3.4 -30.9 -13.0154296875 -30.8923828125 -20.3 -28.9 -25.0646484375 -27.6130859375 -28.65 -25.35 -29.1216796875 -25.0056640625 -29.6 -24.7 -31.149609375 -23.5447265625 -32.5 -22.2 -37.7373046875 -16.8763671875 -37.1 -9.8 -36.4919921875 -3.765625 -30.55 1.75 -26.7609375 5.309375 -19.3 9.65 -17.7314453125 10.588671875 -16.2 11.45 -23.896875 1.6408203125 -25.75 -8.35 -26.600390625 -13.3396484375 -24.8 -17.05 -24.262890625 -18.1337890625 -23.55 -19.05 -23.1810546875 -19.4212890625 -22.8 -19.8 -16.8134765625 -23.64453125 -14.4 -23.4 -16.087109375 -22.51796875 -18.1 -20.75 -18.3064453125 -20.5287109375 -19.1 -18.85 -22.6162109375 -16.757421875 -22.9 -11.1 -22.8787109375 -9.66953125 -22.65 -8.05 -21.5970703125 -0.6306640625 -14.4 12.45 -7.7728515625 16.0533203125 -1.85 18.6 2.8609375 10.20625 13 4.75 27.18359375 -2.7615234375 44.85 -1.7 Z"/>

<path fill="#E781B3" stroke="none" d="
M 46.4 -1.05
Q 45.74453125 -1.531640625 45.15 -1.65 45.0072265625 -1.6888671875 44.85 -1.7 27.18359375 -2.7615234375 13 4.75 2.8609375 10.20625 -1.85 18.6 -7.7728515625 16.0533203125 -14.4 12.45 -21.5970703125 -0.6306640625 -22.65 -8.05 -22.8787109375 -9.66953125 -22.9 -11.1 -22.6162109375 -16.757421875 -19.1 -18.85 -18.3064453125 -20.5287109375 -18.1 -20.75 -16.087109375 -22.51796875 -14.4 -23.4 -16.8134765625 -23.64453125 -22.8 -19.8 -23.1810546875 -19.4212890625 -23.55 -19.05 -24.262890625 -18.1337890625 -24.8 -17.05 -26.600390625 -13.3396484375 -25.75 -8.35 -23.896875 1.6408203125 -16.2 11.45 -17.7314453125 10.588671875 -19.3 9.65 -26.7609375 5.309375 -30.55 1.75 -36.4919921875 -3.765625 -37.1 -9.8 -37.7373046875 -16.8763671875 -32.5 -22.2 -31.149609375 -23.5447265625 -29.6 -24.7 -29.1216796875 -25.0056640625 -28.65 -25.35 -25.0646484375 -27.6130859375 -20.3 -28.9 -13.0154296875 -30.8923828125 -3.4 -30.9 -1.9265625 -30.899609375 -0.4 -30.85 4.19453125 -30.730078125 14.9 -28.1 25.59609375 -25.4107421875 46.75 -15.7
L 46.75 -17.45
Q 35.0609375 -24.2701171875 21.35 -28.55 7.63359375 -32.83828125 -1.55 -33.1 -3.0681640625 -33.1498046875 -4.55 -33.15 -7.482421875 -33.1302734375 -10.05 -32.95 -23.183984375 -31.9404296875 -30.75 -27.3 -31.2244140625 -26.97890625 -31.7 -26.65 -32.876171875 -25.8611328125 -33.9 -25 -38.5765625 -20.8259765625 -39.9 -15.2 -41.2564453125 -9.2060546875 -38.2 -4 -33.231640625 4.43046875 -19.85 11.85 -16.0212890625 14.0046875 -12.5 15.8 -7.328125 18.4634765625 -2.8 20.45 -1.280859375 21.08046875 0.15 21.65 0.2982421875 21.348828125 0.45 21.05 0.5068359375 20.92421875 0.55 20.8 0.57578125 20.750390625 0.6 20.7 0.8345703125 20.255859375 1.05 19.8 5.585546875 11.604296875 15.35 6.2 29.0423828125 -1.3970703125 46.15 -0.4 47.4796875 -0.3171875 46.55 -0.95 46.47734375 -1.0060546875 46.4 -1.05 Z"/>
</g>

<g id="FS_Ear_2_Layer1_0_FILL">
<path fill="#FDF6AE" stroke="none" d="
M 1.5 -40.65
L 1.5 -40.65
Q -0.4720703125 -42.0763671875 -1.65 -42.55 -5.2015625 -39.616015625 -8.75 -30.45 -12.8826171875 -19.8533203125 -13.5 -10.8 -13.2416015625 -5.48203125 -6.75 -4.1 10.447265625 18.96171875 13 20.6
L 13.75 19.35 13.75 19.3
Q 18.0880859375 12.2681640625 18.8 3.65 19.183984375 -1.172265625 18.35 -9.35 16.7498046875 -23.881640625 8 -34.45 4.9296875 -38.1494140625 1.5 -40.65
M 6.95 -13.2
Q 6.291796875 -19.99140625 4.05 -26.35 7.77265625 -21.4501953125 8.95 -11.4 10.08671875 -1.7115234375 6.85 4.85 6.771484375 5.1154296875 6.65 5.35 6.691796875 5.0984375 6.7 4.85 6.738671875 4.7623046875 6.75 4.65 7.920703125 -3.00390625 6.95 -13.2 Z"/>

<path fill="#EBD463" stroke="none" d="
M 4.05 -26.35
Q 6.291796875 -19.99140625 6.95 -13.2 7.920703125 -3.00390625 6.75 4.65 6.738671875 4.7623046875 6.7 4.85 6.691796875 5.0984375 6.65 5.35 6.771484375 5.1154296875 6.85 4.85 10.08671875 -1.7115234375 8.95 -11.4 7.77265625 -21.4501953125 4.05 -26.35
M 10.3 -36.35
Q 6.9703125 -40.35078125 3.25 -43.05
L 3.25 -43.1
Q -0.0212890625 -45.455078125 -1.7 -45.7 -2.28046875 -45.777734375 -2.8 -45.45 -7.2623046875 -42.6033203125 -11.55 -31.55 -16.017578125 -20.0462890625 -13.5 -10.8 -12.8826171875 -19.8533203125 -8.75 -30.45 -5.2015625 -39.616015625 -1.65 -42.55 -0.4720703125 -42.0763671875 1.5 -40.65
L 1.5 -40.65
Q 4.9296875 -38.1494140625 8 -34.45 16.7498046875 -23.881640625 18.35 -9.35 19.183984375 -1.172265625 18.8 3.65 18.0880859375 12.2681640625 13.75 19.3
L 13.75 19.35 13 20.6
Q 16.1837890625 19.6201171875 19.2 12.85 20.660546875 8.46875 21.4 3.15 21.8 0.25 21.8 -2.6 21.75 -5.35 21.35 -9.65
L 21.35 -9.7
Q 19.642578125 -25.1271484375 10.3 -36.35 Z"/>
</g>

<g id="FS_Hair_03_9_Layer1_0_FILL">
<path fill="#F4B6D1" stroke="none" d="
M -15.3 20.95
Q -12.4958984375 13.1728515625 -10.55 1.95 -9.33515625 -5.08984375 -9.55 -10.7 -19.1537109375 -4.50703125 -22.45 10.95
L -24.65 20.6
Q -26.1009765625 26.412890625 -27.65 29.9 -30.7328125 37.108203125 -36 40.55 -40.547265625 43.6015625 -46.75 41.9 -53.25546875 40.2078125 -54 34.7 -54.1966796875 33.023046875 -53.4 31.7
L -54.25 31.65
Q -54.567578125 32.483203125 -54.85 33.4 -56.44765625 38.8580078125 -55.55 44.6 -54.0509765625 45.4767578125 -52.3 46.15 -44.3921875 49.1947265625 -37.1 47.4 -24.8828125 44.4599609375 -17 25.3 -16.0857421875 23.177734375 -15.3 20.95
M -45 58.35
Q -47.4171875 57.7123046875 -49.85 56.8 -43.181640625 63.76328125 -30.8 62.4 -19.2693359375 61.159375 -10.15 54.45 -15.8212890625 56.9150390625 -22.25 58.5 -33.6568359375 61.3353515625 -44.95 58.35
L -45 58.35
M 18.55 -4.05
Q 15.61015625 -10.8939453125 2 -12.95 -3.3474609375 -13.4736328125 -7.75 -11.45
L -9.05 1.95
Q -10.46640625 12.28828125 -13.4 21 -15.2298828125 26.7404296875 -17.7 31.55 -26.0580078125 47.8919921875 -39.4 48.65 -46.0513671875 49.0701171875 -52.45 46.6 -53.3029296875 46.301953125 -54.15 45.9 -54.8228515625 45.619140625 -55.45 45.3 -54.4109375 51.08359375 -51.1 55.3 -50.7478515625 55.77734375 -50.4 56.2 -47.5982421875 57.353515625 -44.9 58.05 -32.5521484375 61.378515625 -16 55.6 -11.0904296875 53.905078125 -6.15 51.05
L -6.1 51
Q 1.2689453125 43.7201171875 8.5 29.35 10.1947265625 26.087109375 12 21.95
L 18.55 6.45
Q 19.9310546875 1.2 18.55 -4.05 Z"/>

<path fill="#E781B3" stroke="none" d="
M 15.15 22.05
L 21.05 7.95
Q 27.2802734375 -12.8650390625 1.4 -15.55 -19.2064453125 -17.0857421875 -26.85 16.85 -27.3349609375 18.456640625 -27.8 20.45 -28.283203125 22.6013671875 -28.7 23.95 -30.8541015625 31.1642578125 -34.55 35.45 -37.190234375 38.5373046875 -40.45 39.8 -44.2509765625 41.2671875 -47.6 39.4 -49.7681640625 38.1873046875 -50.7 36.1 -51.13828125 35.01328125 -51 34.05 -50.4685546875 32.0548828125 -53.4 31.7 -54.1966796875 33.023046875 -54 34.7 -53.25546875 40.2078125 -46.75 41.9 -40.547265625 43.6015625 -36 40.55 -30.7328125 37.108203125 -27.65 29.9 -26.1009765625 26.412890625 -24.65 20.6
L -22.45 10.95
Q -19.1537109375 -4.50703125 -9.55 -10.7 -9.33515625 -5.08984375 -10.55 1.95 -12.4958984375 13.1728515625 -15.3 20.95 -16.0857421875 23.177734375 -17 25.3 -24.8828125 44.4599609375 -37.1 47.4 -44.3921875 49.1947265625 -52.3 46.15 -54.0509765625 45.4767578125 -55.55 44.6 -56.44765625 38.8580078125 -54.85 33.4 -54.567578125 32.483203125 -54.25 31.65 -57.707421875 30.8158203125 -58.35 33.45 -58.6986328125 34.9080078125 -58.9 36.55 -59.1798828125 39.5009765625 -59 42.25 -58.9359375 42.7412109375 -58.9 43.2 -58.433984375 47.1412109375 -56.95 50.65 -56.164453125 52.3900390625 -55.2 53.9
L -55.25 53.9
Q -54.94921875 54.3236328125 -54.65 54.7 -50.581640625 60.4970703125 -43.2 63 -34.3453125 66.018359375 -24 63.55 -11.4810546875 60.579296875 -1.55 49.9 0.5052734375 47.6896484375 2.45 45.15 7.0185546875 39.1833984375 10.95 31.4 12.088671875 29.206640625 15.15 22.05
M 2 -12.95
Q 15.61015625 -10.8939453125 18.55 -4.05 19.9310546875 1.2 18.55 6.45
L 12 21.95
Q 10.1947265625 26.087109375 8.5 29.35 1.2689453125 43.7201171875 -6.1 51
L -6.15 51.05
Q -11.0904296875 53.905078125 -16 55.6 -32.5521484375 61.378515625 -44.9 58.05 -47.5982421875 57.353515625 -50.4 56.2 -50.7478515625 55.77734375 -51.1 55.3 -54.4109375 51.08359375 -55.45 45.3 -54.8228515625 45.619140625 -54.15 45.9 -53.3029296875 46.301953125 -52.45 46.6 -46.0513671875 49.0701171875 -39.4 48.65 -26.0580078125 47.8919921875 -17.7 31.55 -15.2298828125 26.7404296875 -13.4 21 -10.46640625 12.28828125 -9.05 1.95
L -7.75 -11.45
Q -3.3474609375 -13.4736328125 2 -12.95
M -49.85 56.8
Q -47.4171875 57.7123046875 -45 58.35
L -44.95 58.35
Q -33.6568359375 61.3353515625 -22.25 58.5 -15.8212890625 56.9150390625 -10.15 54.45 -19.2693359375 61.159375 -30.8 62.4 -43.181640625 63.76328125 -49.85 56.8 Z"/>
</g>

<g id="FS_Hair_01_17_Layer3_0_FILL">
<path fill="#F4B6D1" stroke="none" d="
M 77.5 10.05
Q 72.437890625 5.2201171875 66.05 0.45
L 66.05 0.45
Q 56.248828125 -1.5083984375 46.45 -2.8 50.448046875 1.739453125 53.8 6.3 72.092578125 31.308203125 79.55 67 82.0259765625 78.731640625 83.45 100.25 84.6201171875 118.52109375 82.5 132.75 81.55 139.45 80.5 143.6
L 109.5 138.1
Q 110.9 132 111.55 118.55 113.2025390625 84.8697265625 107.25 60.5 100.2705078125 31.7341796875 77.5 10.05
M 12.45 -3.45
Q 10.4083984375 -3.0447265625 8.5 -2.55 2.55 -0.9 -0.65 0.9
L 3.85 8.95
Q 6.2 4.6 10.7 3.75 19.05 2.2 28.75 7.35 38.0328125 12.2271484375 48.1 27.25 55.95390625 38.9048828125 61.1 52 71.6396484375 78.5599609375 71.7 110.9 71.7787109375 124.3935546875 69.55 137.9
L 69.6 137.85
Q 70.4330078125 135.7861328125 71.05 133.45 74.7470703125 119.8767578125 74.15 100.9 73.3439453125 69.95234375 62.95 44.45 50.776171875 14.398046875 29.75 3 25.4693359375 0.66015625 21.15 -0.95 21.051171875 -0.979296875 20.95 -1 18.8939453125 -1.7763671875 16.8 -2.4 14.655078125 -2.9919921875 12.45 -3.45
M 111.45 32.25
Q 103.1365234375 16.4970703125 91.45 9.3 82.89296875 4.08046875 67.8 0.8 72.2009765625 4.134375 76 7.5 99.53125 28.2556640625 107.8 57.25 114.38359375 80.1328125 113.2 115.35 112.94609375 123.46640625 112.35 130.3
L 112.35 130.35
Q 112.69609375 129.507421875 113 128.75 127.9439453125 92.5828125 121.9 61.25 119.28046875 47.2314453125 111.45 32.25
M 13.35 -3.6
Q 15.10625 -3.183984375 16.9 -2.7 18.975 -2.1021484375 21.1 -1.4 21.1982421875 -1.333203125 21.3 -1.3 25.7974609375 0.27734375 29.95 2.55 46.06484375 11.2943359375 57.35 30.4 71.2466796875 53.675 74.75 87.8 76.6654296875 105.787109375 74.9 121.3 73.9478515625 129.8154296875 71.4 137.8 70.5 140.55 68.8 143.15
L 68.8 143.2 78.55 143.5
Q 81.2462890625 133.5765625 82 122.05 82.81953125 108.7810546875 81.1 88.95 77.7703125 51.408203125 61.75 21.15 55.125390625 8.619140625 45 -3 41.5677734375 -3.42265625 38.1 -3.8 23.7828125 -5.3517578125 13.35 -3.6 Z"/>

<path fill="#E781B3" stroke="none" d="
M 16.9 -2.7
Q 15.10625 -3.183984375 13.35 -3.6 23.7828125 -5.3517578125 38.1 -3.8 41.5677734375 -3.42265625 45 -3 55.125390625 8.619140625 61.75 21.15 77.7703125 51.408203125 81.1 88.95 82.81953125 108.7810546875 82 122.05 81.2462890625 133.5765625 78.55 143.5
L 80.5 143.6
Q 81.55 139.45 82.5 132.75 84.6201171875 118.52109375 83.45 100.25 82.0259765625 78.731640625 79.55 67 72.092578125 31.308203125 53.8 6.3 50.448046875 1.739453125 46.45 -2.8 56.248828125 -1.5083984375 66.05 0.45
L 66.05 0.45
Q 72.437890625 5.2201171875 77.5 10.05 100.2705078125 31.7341796875 107.25 60.5 113.2025390625 84.8697265625 111.55 118.55 110.9 132 109.5 138.1 111.2 138.4 112.65 138.05 114.85 132.45 115.5 130.85 122.5345703125 113.7681640625 124.95 97.65 127.808203125 78.541015625 125.65 65.35 123.0181640625 49.38671875 116.1 35.5 108.194921875 19.4533203125 99.4 12.25 90.0421875 4.54609375 76.3 0.7 71.4796875 -0.615234375 63.85 -2.05
L 63.85 -2.05
Q 53.8 -3.8 48.85 -4.55
L 42.8 -5.45 42.85 -5.4
Q 28.2421875 -7.2779296875 18.75 -6.55 10.65 -5.95 6.2 -4.7 0.05 -3 -2.45 -1.45 -2.8 -1.25 -0.65 0.9 2.55 -0.9 8.5 -2.55 10.4083984375 -3.0447265625 12.45 -3.45 14.655078125 -2.9919921875 16.8 -2.4 18.8939453125 -1.7763671875 20.95 -1 21.051171875 -0.979296875 21.15 -0.95 25.4693359375 0.66015625 29.75 3 50.776171875 14.398046875 62.95 44.45 73.3439453125 69.95234375 74.15 100.9 74.7470703125 119.8767578125 71.05 133.45 70.4330078125 135.7861328125 69.6 137.85
L 69.55 137.9
Q 71.7787109375 124.3935546875 71.7 110.9 71.6396484375 78.5599609375 61.1 52 55.95390625 38.9048828125 48.1 27.25 38.0328125 12.2271484375 28.75 7.35 19.05 2.2 10.7 3.75 6.2 4.6 3.85 8.95 4.05 9.2 6.55 10.4 8.6 6.95 11 5.95 13.7 4.75 20.1 6.3 31.7630859375 9.0142578125 42.1 23.1 59.976171875 47.255859375 65.75 78.75 71.45 109.75 66.25 141.5 66.95 142.5 68.8 143.2
L 68.8 143.15
Q 70.5 140.55 71.4 137.8 73.9478515625 129.8154296875 74.9 121.3 76.6654296875 105.787109375 74.75 87.8 71.2466796875 53.675 57.35 30.4 46.06484375 11.2943359375 29.95 2.55 25.7974609375 0.27734375 21.3 -1.3 21.1982421875 -1.333203125 21.1 -1.4 18.975 -2.1021484375 16.9 -2.7
M 91.45 9.3
Q 103.1365234375 16.4970703125 111.45 32.25 119.28046875 47.2314453125 121.9 61.25 127.9439453125 92.5828125 113 128.75 112.69609375 129.507421875 112.35 130.35
L 112.35 130.3
Q 112.94609375 123.46640625 113.2 115.35 114.38359375 80.1328125 107.8 57.25 99.53125 28.2556640625 76 7.5 72.2009765625 4.134375 67.8 0.8 82.89296875 4.08046875 91.45 9.3 Z"/>
</g>

<g id="FS_Hair_04_9_Layer1_0_FILL">
<path fill="#000000" stroke="none" d="
M 8.7 2.75
L 8.7 2.8 8.75 2.8 8.7 2.75 Z"/>

<path fill="#F4B6D1" stroke="none" d="
M 1.6 -3.15
Q 3.3505859375 -4.7919921875 5.7 -4.3 7.1384765625 -4.0005859375 8.2 -2.75 8.7400390625 -4.8548828125 7.95 -6.95 7.395703125 -8.5333984375 5.1 -7.7 3.3791015625 -7.0580078125 2.1 -5.85 0.4541015625 -4.2232421875 -0.7 -0.4 -0.80390625 -0.021484375 -0.9 0.3
L 0.1 0.35
Q 0.0630859375 -1.7001953125 1.6 -3.15 Z"/>

<path fill="#E781B3" stroke="none" d="
M 5.7 -4.3
Q 3.3505859375 -4.7919921875 1.6 -3.15 0.0630859375 -1.7001953125 0.1 0.35
L 3.1 0.45
Q 3.2353515625 -0.826953125 4.4 -1.9 5.198828125 -2.5912109375 7 0 7.7859375 1.1158203125 8.7 2.75
L 8.75 2.8
Q 8.8837890625 2.687890625 9 2.5 9.5974609375 1.754296875 10.05 0.9 10.905078125 -0.6455078125 11.25 -2.45 11.858984375 -5.4099609375 10.65 -7.7 9.52421875 -9.8265625 6.7 -10.1 4.2296875 -10.3203125 1.95 -9.15 -2.909765625 -6.603125 -4.35 0.2
L -0.9 0.3
Q -0.80390625 -0.021484375 -0.7 -0.4 0.4541015625 -4.2232421875 2.1 -5.85 3.3791015625 -7.0580078125 5.1 -7.7 7.395703125 -8.5333984375 7.95 -6.95 8.7400390625 -4.8548828125 8.2 -2.75 7.1384765625 -4.0005859375 5.7 -4.3 Z"/>
</g>
</defs>

<g transform="matrix( 0.412506103515625, 0, 0, 0.412506103515625, 486.45,301.35) ">
<g transform="matrix( 0.90020751953125, 0, 0, 1, -8.05,146.5) ">
<g transform="matrix( 1.1522064208984375, 0, 0, 1.7481689453125, 4.4,-262.5) ">
<use filter="url(#Filter_1)" xlink:href="#FS_Shadow_0_Layer0_0_FILL"/>
</g>
</g>

<g transform="matrix( 1, 0, 0.005126953125, 1, 53.25,-85.65) ">
<g transform="matrix( -0.9986572265625, -0.0485687255859375, -0.0485687255859375, 0.9986572265625, 0.35,0.35) ">
<g transform="matrix( 1, 0, 0, 1, 0,0) ">
<use xlink:href="#FS_Mane_01_7_Layer1_0_FILL"/>
</g>
</g>

<g transform="matrix( -0.9986572265625, -0.0485687255859375, -0.0485687255859375, 0.9986572265625, -8.8,163.85) ">
<g transform="matrix( 1, 0, 0, 1, 0,0) ">
<use xlink:href="#FS_Mane_02_7_Layer0_0_FILL"/>
</g>
</g>

<g transform="matrix( -0.9986572265625, -0.0485687255859375, -0.0485687255859375, 0.9986572265625, 23.4,182.65) ">
<g transform="matrix( 1, 0, 0, 1, 0,0) ">
<use xlink:href="#FS_Mane_03_7_Layer0_0_FILL"/>
</g>
</g>
</g>

<g transform="matrix( -0.955078125, -0.2930755615234375, -0.2930755615234375, 0.955078125, -19.2,5.8) ">
<g transform="matrix( 0.0081939697265625, -0.998809814453125, 0.998809814453125, 0.0081939697265625, 20.1,140.4) ">
<g transform="matrix( 1, 0, 0, 1, 0,0) ">
<use xlink:href="#FS_Tail_02_3_Layer0_0_FILL"/>
</g>
</g>

<g transform="matrix( 1, 0, 0, 1, 0.2,-0.15) ">
<g transform="matrix( 1, 0, 0, 1, 0,0) ">
<use xlink:href="#FS_Tail_01_3_Layer2_0_FILL"/>
</g>
</g>

<g transform="matrix( 1, 0, 0, 1, 97.8,167.4) ">
<g transform="matrix( 1, 0, 0, 1, 0,0) ">
<use xlink:href="#FS_Tail_03_3_Layer0_0_FILL"/>
</g>
</g>
</g>

<g transform="matrix( -1, 0, 0, 0.908935546875, 1.3,5.4) ">
<g transform="matrix( 1, 0, 0, 1, 17.6,127.9) ">
<g transform="matrix( 1, 0, 0, 1, 0,0) ">
<use filter="url(#Filter_2)" xlink:href="#FS_FrontLeg_3_4_hoof_4_Layer0_0_FILL"/>
</g>
</g>

<g transform="matrix( 1, 0, 0, 1, 5.05,57.05) ">
<g transform="matrix( 1, 0, 0, 1, 0,0) ">
<use filter="url(#Filter_2)" xlink:href="#FS_KneePatch_1_Layer0_0_FILL"/>
</g>
</g>

<g transform="matrix( 1, 0, 0, 1, 8.7,62.65) ">
<g transform="matrix( 1, 0, 0, 1, 0,0) ">
<use filter="url(#Filter_2)" xlink:href="#FS_HindLeg_3_4rear_lower_0_Layer1_0_FILL"/>
</g>

<g transform="matrix( 1, 0, 0, 1, 0,0) ">
<use filter="url(#Filter_2)" xlink:href="#FS_HindLeg_3_4rear_lower_0_Layer0_0_FILL"/>
</g>
</g>

<g transform="matrix( 1, 0, -0.0095977783203125, 1.0159912109375, 5.95,-9.8) ">
<g transform="matrix( 1, 0, 0, 1, 0,0) ">
<use filter="url(#Filter_2)" xlink:href="#FS_HindLeg_3_4_top_3_Layer1_0_FILL"/>
</g>

<g transform="matrix( 1, 0, 0, 1, 0,0) ">
<use filter="url(#Filter_2)" xlink:href="#FS_HindLeg_3_4_top_3_Layer0_0_FILL"/>
</g>
</g>

<g transform="matrix( 1, 0, 0, 1, 5.05,57.05) ">
<g transform="matrix( 1, 0, 0, 1, 0,0) ">
<use filter="url(#Filter_2)" xlink:href="#FS_KneePatch_0_Layer0_0_FILL"/>
</g>
</g>
</g>

<g transform="matrix( -0.9740753173828125, -0.0461273193359375, -0.18536376953125, 0.9674835205078125, 25.15,4.05) ">
<g transform="matrix( 1, 0, 0, 1, 0,0) ">
<use xlink:href="#FS_Wing_3_4far_9_Layer5_0_FILL"/>
</g>
</g>

<g transform="matrix( -0.8722991943359375, -0.0078277587890625, 0.0606231689453125, 0.9180908203125, 21.35,49.5) ">
<g transform="matrix( 1, 0, 0, 1, 2.2,86.4) ">
<g transform="matrix( 1, 0, 0, 1, 0,0) ">
<use xlink:href="#FS_FrontLeg_3_4_hoof_0_Layer0_0_FILL"/>
</g>
</g>

<g transform="matrix( 0.999969482421875, -0.0043792724609375, -0.001129150390625, 1, 0.15,0.35) ">
<g transform="matrix( 1, 0, 0, 1, 0,0) ">
<use xlink:href="#FS_FrontLeg_3_4_upper_2_Layer1_0_FILL"/>
</g>
</g>
</g>

<g transform="matrix( -1, 0, 0, 1, -27.5,2.25) ">
<g transform="matrix( 1, 0, 0, 1, 17.6,127.9) ">
<g transform="matrix( 1, 0, 0, 1, 0,0) ">
<use xlink:href="#FS_FrontLeg_3_4_hoof_4_Layer0_0_FILL"/>
</g>
</g>

<g transform="matrix( 1, 0, 0, 1, 5.05,57.05) ">
<g transform="matrix( 1, 0, 0, 1, 0,0) ">
<use xlink:href="#FS_KneePatch_1_Layer0_0_FILL"/>
</g>
</g>

<g transform="matrix( 1, 0, 0, 1, 8.7,62.65) ">
<g transform="matrix( 1, 0, 0, 1, 0,0) ">
<use xlink:href="#FS_HindLeg_3_4rear_lower_0_Layer1_0_FILL"/>
</g>

<g transform="matrix( 1, 0, 0, 1, 0,0) ">
<use xlink:href="#FS_HindLeg_3_4rear_lower_0_Layer0_0_FILL"/>
</g>
</g>

<g transform="matrix( 1, 0, -0.0095977783203125, 1.0159912109375, 5.95,-9.8) ">
<g transform="matrix( 1, 0, 0, 1, 0,0) ">
<use xlink:href="#FS_HindLeg_3_4_top_3_Layer1_0_FILL"/>
</g>

<g transform="matrix( 1, 0, 0, 1, 0,0) ">
<use xlink:href="#FS_HindLeg_3_4_top_3_Layer0_0_FILL"/>
</g>
</g>

<g transform="matrix( 1, 0, 0, 1, 5.05,57.05) ">
<g transform="matrix( 1, 0, 0, 1, 0,0) ">
<use xlink:href="#FS_KneePatch_0_Layer0_0_FILL"/>
</g>
</g>

<g transform="matrix( 0.2097015380859375, -0.0593414306640625, 0.1455535888671875, 1.0518646240234375, 13.25,18.2) ">
<g transform="matrix( 1, 0, 0, 1, 0,0) ">
<use xlink:href="#FS_CutieMark_4_Layer0_0_FILL"/>
</g>
</g>
</g>

<g transform="matrix( -1, 0, 0, 1, -4,27.6) ">
<g transform="matrix( 1, 0, 0, 1, 0,0) ">
<use xlink:href="#FS_Torso_5_Layer1_0_FILL"/>
</g>
</g>

<g transform="matrix( -0.977325439453125, 0.087127685546875, 0.123779296875, 0.9931793212890625, -7.1,15.45) ">
<g transform="matrix( 1, 0, 0, 1, 0,0) ">
<use xlink:href="#FS_Neck_1_Layer0_0_FILL"/>
</g>
</g>

<g transform="matrix( -1, 0, -0.0596923828125, 1, 1.6,51.85) ">
<g transform="matrix( 1, 0, 0, 1, 2.2,86.4) ">
<g transform="matrix( 1, 0, 0, 1, 0,0) ">
<use xlink:href="#FS_FrontLeg_3_4_hoof_0_Layer0_0_FILL"/>
</g>
</g>

<g transform="matrix( 0.999969482421875, -0.0043792724609375, -0.001129150390625, 1, 0.15,0.35) ">
<g transform="matrix( 1, 0, 0, 1, 0,0) ">
<use xlink:href="#FS_FrontLeg_3_4_upper_2_Layer1_0_FILL"/>
</g>
</g>
</g>

<g transform="matrix( -0.8515472412109375, 0.01025390625, -0.0028839111328125, 0.998382568359375, -20.15,8.05) ">
<g transform="matrix( 1, 0, 0, 1, 0,0) ">
<use xlink:href="#FS_Wing_3_4_9_Layer5_0_FILL"/>
</g>
</g>

<g transform="matrix( 1, 0, 0, 1, 33.45,-44.3) ">
<g transform="matrix( -0.9829254150390625, -0.0220794677734375, 0.0146942138671875, 0.9994049072265625, 7.9,-15.8) ">
<g transform="matrix( 1, 0, 0, 1, 0,0) ">
<use xlink:href="#FS_Skull_0_Layer0_0_FILL"/>
</g>
</g>

<mask id="Mask_Mask_1">
<g transform="matrix( 0.3924713134765625, -0.0225677490234375, 0.1773834228515625, 1.06982421875, 44.3,-11.4) ">
<g transform="matrix( 1, 0, 0, 1, 0,0) ">
<use xlink:href="#Mask_Mask_FS_EyeWhite_3_4far_0_Layer0_0_FILL"/>
</g>
</g>
</mask>

<g mask="url(#Mask_Mask_1)">
<g transform="matrix( 0.3924713134765625, -0.0225677490234375, 0.1773834228515625, 1.06982421875, 44.3,-11.4) ">
<g transform="matrix( 1, 0, 0, 1, 0,0) ">
<use xlink:href="#FS_EyeWhite_3_4far_0_Layer0_0_FILL"/>
</g>
</g>
</g>

<g mask="url(#Mask_Mask_1)">
<g transform="matrix( -0.412506103515625, 0, 0.0358123779296875, 0.8542022705078125, 43.1,-4.9) ">
<g transform="matrix( 1, 0, 0, 1, 0,0) ">
<use xlink:href="#FS_Iris_0_Layer1_0_FILL"/>
</g>

<g transform="matrix( 1, 0, 0, 1, 0,0) ">
<use xlink:href="#FS_Iris_0_Layer0_0_FILL"/>
</g>

<g transform="matrix( 1, 0, 0, 1, 0,0) ">
<use xlink:href="#FS_Iris_0_Layer0_1_FILL"/>
</g>
</g>
</g>

<g mask="url(#Mask_Mask_1)">
<g transform="matrix( -0.46673583984375, -0.1136322021484375, -0.090576171875, 0.8231048583984375, 43.5,-4.05) ">
<g transform="matrix( 1, 0, 0, 1, 0,0) ">
<use xlink:href="#FS_Pupil_0_Layer0_0_FILL"/>
</g>
</g>
</g>

<g mask="url(#Mask_Mask_1)">
<g transform="matrix( -0.552032470703125, -0.3355712890625, -0.1107177734375, 0.8800048828125, 40.45,-10.95) ">
<g transform="matrix( 1, 0, 0, 1, 0,0) ">
<use xlink:href="#FS_Hilights_0_Layer1_0_FILL"/>
</g>
</g>
</g>

<mask id="Mask_Mask_2">
<g transform="matrix( -0.9391326904296875, -0.0743560791015625, -0.09454345703125, 0.9920806884765625, -6.05,-6) ">
<g transform="matrix( 1, 0, 0, 1, 0,0) ">
<use xlink:href="#Mask_Mask_FS_EyeWhite_3_4_0_Layer0_0_FILL"/>
</g>
</g>
</mask>

<g mask="url(#Mask_Mask_2)">
<g transform="matrix( -0.9391326904296875, -0.0743560791015625, -0.09454345703125, 0.9920806884765625, -6.05,-6) ">
<g transform="matrix( 1, 0, 0, 1, 0,0) ">
<use xlink:href="#FS_EyeWhite_3_4_0_Layer0_0_FILL"/>
</g>
</g>
</g>

<g mask="url(#Mask_Mask_2)">
<g transform="matrix( 0.69036865234375, 0.0562286376953125, -0.0125732421875, 0.959808349609375, 2.6,-1.75) ">
<g transform="matrix( 1, 0, 0, 1, 0,0) ">
<use xlink:href="#FS_Iris_0_Layer1_0_FILL"/>
</g>

<g transform="matrix( 1, 0, 0, 1, 0,0) ">
<use xlink:href="#FS_Iris_0_Layer0_0_FILL"/>
</g>

<g transform="matrix( 1, 0, 0, 1, 0,0) ">
<use xlink:href="#FS_Iris_0_Layer0_1_FILL"/>
</g>
</g>
</g>

<g mask="url(#Mask_Mask_2)">
<g transform="matrix( -0.7406768798828125, -0.2791748046875, -0.278961181640625, 0.9387359619140625, 3.35,-1.2) ">
<g transform="matrix( 1, 0, 0, 1, 0,0) ">
<use xlink:href="#FS_Pupil_0_Layer0_0_FILL"/>
</g>
</g>
</g>

<g mask="url(#Mask_Mask_2)">
<g transform="matrix( -0.9240570068359375, -0.0752716064453125, -0.0709075927734375, 0.9922637939453125, -1.7,-8.1) ">
<g transform="matrix( 1, 0, 0, 1, 0,0) ">
<use xlink:href="#FS_Hilights_0_Layer1_0_FILL"/>
</g>
</g>
</g>

<g transform="matrix( -1.4954833984375, 0.014129638671875, 0.0490875244140625, 1.14453125, 46.55,-11.4) ">
<g transform="matrix( 1, 0, 0, 1, 0,0) ">
<use xlink:href="#FS_Blink_3_4far_44_Layer9_0_FILL"/>
</g>

<g transform="matrix( 1, 0, 0, 1, 0,0) ">
<use xlink:href="#FS_Blink_3_4far_44_Layer7_0_FILL"/>
</g>

<g transform="matrix( 1, 0, 0, 1, 0,0) ">
<use xlink:href="#FS_Blink_3_4far_44_Layer4_0_FILL"/>
</g>
</g>

<g transform="matrix( -0.9635162353515625, -0.0762939453125, -0.09454345703125, 0.9920806884765625, -6,-8.85) ">
<g transform="matrix( 1, 0, 0, 1, 0,0) ">
<use xlink:href="#FS_Blink_3_4_44_Layer5_0_FILL"/>
</g>

<g transform="matrix( 1, 0, 0, 1, 0,0) ">
<use xlink:href="#FS_Blink_3_4_44_Layer4_0_FILL"/>
</g>

<g transform="matrix( 1, 0, 0, 1, 0,0) ">
<use xlink:href="#FS_Blink_3_4_44_Layer3_0_FILL"/>
</g>

<g transform="matrix( 1, 0, 0, 1, 0,0) ">
<use xlink:href="#FS_Blink_3_4_44_Layer2_0_FILL"/>
</g>

<g transform="matrix( 1, 0, 0, 1, 0,0) ">
<use xlink:href="#FS_Blink_3_4_44_Layer1_0_FILL"/>
</g>
</g>

<g transform="matrix( -0.9885406494140625, -0.0497894287109375, -0.0962066650390625, 0.9951934814453125, 15.35,18.25) ">
<g transform="matrix( 1, 0, 0, 1, 0,0) ">
<use xlink:href="#FS_Mouth_3_4_0_Layer10_0_FILL"/>
</g>

<g transform="matrix( 1, 0, 0, 1, -23.05,-13.6) ">
<g transform="matrix( 1, 0, 0, 1, 0,0) ">
<use xlink:href="#FS_Nose_0_Layer1_0_FILL"/>
</g>
</g>

<g transform="matrix( 1, 0, 0, 1, 0,0) ">
<use xlink:href="#FS_Mouth_3_4_0_Layer7_0_FILL"/>
</g>

<g transform="matrix( 1, 0, 0, 1, 0,0) ">
<use xlink:href="#FS_Mouth_3_4_0_Layer4_0_FILL"/>
</g>
</g>

<g transform="matrix( -1, 0, 0.003814697265625, 1, 38.65,18.45) ">
<g transform="matrix( 1, 0, 0, 1, 0.1,0.05) ">
<g transform="matrix( 1, 0, 0, 1, 0,0) ">
<use xlink:href="#FS_Nostril_3_4_0_Layer0_0_FILL"/>
</g>
</g>
</g>

<g transform="matrix( -1.029052734375, -0.0045623779296875, -0.0361785888671875, 0.996307373046875, 24.7,-56) ">
<g transform="matrix( 1, 0, 0, 1, 0,0) ">
<use xlink:href="#FS_Hair_05_6_Layer1_0_FILL"/>
</g>
</g>

<g transform="matrix( -0.9058685302734375, 0.17559814453125, 0.2397308349609375, 0.9542694091796875, -29.55,-32.9) ">
<g transform="matrix( 1, 0, 0, 1, 0,0) ">
<use xlink:href="#FS_Ear_2_Layer1_0_FILL"/>
</g>
</g>
</g>

<g transform="matrix( 1, 0, 0, 0.9906463623046875, 88.65,-125.65) ">
<g transform="matrix( -0.973846435546875, -0.0372772216796875, -0.0360870361328125, 0.9991302490234375, -94.4,125.65) ">
<g transform="matrix( 1, 0, 0, 1, 0,0) ">
<use xlink:href="#FS_Hair_03_9_Layer1_0_FILL"/>
</g>
</g>

<g transform="matrix( -0.973846435546875, -0.0372772216796875, -0.0360870361328125, 0.9991302490234375, -0.3,-0.35) ">
<g transform="matrix( 1, 0, 0, 1, 0,0) ">
<use xlink:href="#FS_Hair_01_17_Layer3_0_FILL"/>
</g>
</g>

<g transform="matrix( -0.973846435546875, -0.0372772216796875, -0.0360870361328125, 0.9991302490234375, -42.75,162.3) ">
<g transform="matrix( 1, 0, 0, 1, 0,0) ">
<use xlink:href="#FS_Hair_04_9_Layer1_0_FILL"/>
</g>
</g>
</g>
</g>
</svg>
