
<svg xmlns="http://www.w3.org/2000/svg" version="1.1" xmlns:xlink="http://www.w3.org/1999/xlink" preserveAspectRatio="none" x="0px" y="0px" width="864px" height="486px" viewBox="0 0 864 486">
<defs>
<linearGradient id="Gradient_1" gradientUnits="userSpaceOnUse" x1="-33.8" y1="-21.2875" x2="-46.900000000000006" y2="1.387500000000001" spreadMethod="pad">
<stop  offset="0%" stop-color="#015350"/>

<stop  offset="2.7450980392156863%" stop-color="#025B58"/>

<stop  offset="9.019607843137255%" stop-color="#046B67"/>

<stop  offset="14.901960784313726%" stop-color="#047672"/>

<stop  offset="19.607843137254903%" stop-color="#057975"/>

<stop  offset="28.235294117647058%" stop-color="#058581"/>

<stop  offset="42.35294117647059%" stop-color="#009590"/>

<stop  offset="58.03921568627451%" stop-color="#00A19D"/>

<stop  offset="75.68627450980392%" stop-color="#00AAA5"/>

<stop  offset="100%" stop-color="#00ADA8"/>
</linearGradient>

<filter id="Filter_1" x="-20%" y="-20%" width="140%" height="140%" color-interpolation-filters="sRGB">
<feColorMatrix in="SourceGraphic" type="matrix" values="1 0 0 0 0 0 1 0 0 0 0 0 1 0 0 0 0 0 0.21 0" result="result1"/>
</filter>

<filter id="Filter_2" x="-20%" y="-20%" width="140%" height="140%" color-interpolation-filters="sRGB">
<feColorMatrix in="SourceGraphic" type="matrix" values="1 0 0 0 0.0196078431372549 0 1 0 0 -0.06274509803921569 0 0 1 0 -0.12156862745098039 0 0 0 1 0" result="result1"/>
</filter>

<g id="FS_Shadow_0_Layer0_0_FILL">
<path fill="#000000" stroke="none" d="
M 46.4 155.05
Q 68.65 152.95 68.65 149.95 68.65 146.95 46.4 144.8 24.15 142.7 -7.4 142.7 -38.9 142.7 -61.2 144.8 -83.45 146.95 -83.45 149.95 -83.45 152.95 -61.2 155.05 -38.9 157.2 -7.4 157.2 24.15 157.2 46.4 155.05 Z"/>
</g>

<g id="FS_Wing_3_4far_8_Layer5_0_FILL">
<path fill="#FDF6AE" stroke="none" d="
M 14.4 13.6
L 14.4 13.6
Q 11.7185546875 10.5724609375 3.95 10.55 3.9005859375 3.5751953125 -7.25 1.7
L -14.85 1.25 -14.9 1.3 -15.6 1.9
Q -21.88515625 8.1115234375 -23.5 16 -25.1552734375 24.0869140625 -21.05 30.5 -13.6 41.795703125 3.75 38.55 15.6693359375 32.926953125 12.85 24.6 17.5587890625 19.2478515625 15.15 14.75
L 15.15 14.7
Q 14.8142578125 14.1181640625 14.4 13.6
M 33.1 16.85
Q 33.9603515625 15.5462890625 34.7 14.25
L 16.25 27.4
Q 16.26171875 27.693359375 16.25 27.95 16.18046875 32.1900390625 12.15 36.15 23.7486328125 31.27578125 33.1 16.85
M 35.85 12.15
Q 36.29375 11.384765625 36.65 10.6
L 36.65 10.6
Q 38.2708984375 7.1671875 39.05 4.05 39.6837890625 1.4330078125 39.55 -0.45
L 17.15 12.35
Q 17.4908203125 12.809375 17.75 13.3
L 17.75 13.3
Q 21.22890625 19.3095703125 15.9 25.1 16.078515625 25.676953125 16.15 26.25
L 35.85 12.15
M 30.1 -5.6
Q 26.540625 -5.5923828125 21.8 -4.75 11.580859375 -2.937109375 -0.35 1.95 3.47421875 2.86640625 5.1 5.5
L 30.1 -5.6
M 39.45 -1.5
Q 39.1666015625 -2.65234375 38.45 -3.35
L 38.4 -3.35
Q 36.829296875 -4.827734375 33.8 -5.35
L 33.8 -5.35
Q 33.1380859375 -5.4392578125 32.4 -5.5
L 5.6 6.4
Q 5.9978515625 7.1595703125 6.2 8.05 13.4712890625 7.8109375 16.55 11.5
L 39.45 -1.5 Z"/>

<path fill="#EBD463" stroke="none" d="
M 34.3 -8.3
Q 29.3517578125 -9.144921875 21.25 -7.75 8.334765625 -5.4265625 -7.25 1.7 3.9005859375 3.5751953125 3.95 10.55 11.7185546875 10.5724609375 14.4 13.6
L 14.4 13.6
Q 14.8142578125 14.1181640625 15.15 14.7
L 15.15 14.75
Q 17.5587890625 19.2478515625 12.85 24.6 15.6693359375 32.926953125 3.75 38.55 -13.6 41.795703125 -21.05 30.5 -25.1552734375 24.0869140625 -23.5 16 -21.88515625 8.1115234375 -15.6 1.9
L -14.9 1.3
Q -24.653515625 6.6705078125 -26.45 15.35
L -26.45 15.4
Q -28.3291015625 24.716796875 -23.55 32.1 -15.1962890625 45.237890625 4.6 41.45 4.762109375 41.4291015625 4.85 41.35 6.879296875 40.975 9 40.4 23.9787109375 36.4216796875 35.6 18.5 37.8009765625 15.115625 39.35 11.95
L 39.35 11.9
Q 41.1208984375 8.1666015625 41.95 4.75 42.9619140625 0.556640625 42.35 -2.1
L 42.35 -2.1
Q 41.8580078125 -4.2615234375 40.45 -5.55
L 40.5 -5.55
Q 38.3744140625 -7.612109375 34.3 -8.3
M 38.45 -3.35
Q 39.1666015625 -2.65234375 39.45 -1.5
L 16.55 11.5
Q 13.4712890625 7.8109375 6.2 8.05 5.9978515625 7.1595703125 5.6 6.4
L 32.4 -5.5
Q 33.1380859375 -5.4392578125 33.8 -5.35
L 33.8 -5.35
Q 36.829296875 -4.827734375 38.4 -3.35
L 38.45 -3.35
M 21.8 -4.75
Q 26.540625 -5.5923828125 30.1 -5.6
L 5.1 5.5
Q 3.47421875 2.86640625 -0.35 1.95 11.580859375 -2.937109375 21.8 -4.75
M 36.65 10.6
Q 36.29375 11.384765625 35.85 12.15
L 16.15 26.25
Q 16.078515625 25.676953125 15.9 25.1 21.22890625 19.3095703125 17.75 13.3
L 17.75 13.3
Q 17.4908203125 12.809375 17.15 12.35
L 39.55 -0.45
Q 39.6837890625 1.4330078125 39.05 4.05 38.2708984375 7.1671875 36.65 10.6
L 36.65 10.6
M 34.7 14.25
Q 33.9603515625 15.5462890625 33.1 16.85 23.7486328125 31.27578125 12.15 36.15 16.18046875 32.1900390625 16.25 27.95 16.26171875 27.693359375 16.25 27.4
L 34.7 14.25 Z"/>
</g>

<g id="FS_Mane_01_7_Layer1_0_FILL">
<path fill="#E781B3" stroke="none" d="
M 24.5 -17.9
L 23.85 -20.5
Q -5.3328125 -35.7875 -25.85 -24.95 -18.1857421875 5.2484375 -22.8 35.5 -24.73671875 48.61484375 -30.8 69.05 -36.8197265625 89.5705078125 -36.75 100.85 -36.5486328125 117.6037109375 -29.95 133 -28.3130859375 136.7880859375 -22.15 147.55 -16.9705078125 156.5064453125 -15.2 162.4 -14.1435546875 166.002734375 -14 168.55 -13.515234375 174.013671875 -8.85 176.2 -4.1259765625 178.39140625 0 177.95 9.8087890625 177.3634765625 13.5 170.4 12.898046875 171.9248046875 15.05 166.8 16.2611328125 163.917578125 17.35 160.9
L 17.95 159.3
Q 25.6861328125 137.6626953125 28.2 111.15 31.4708984375 76.9505859375 30.55 38.15 29.799609375 5.055078125 24.45 -17.95
L 24.5 -17.9
M 26.15 12.3
Q 28.6025390625 38.2255859375 26.8 85.7 25.946875 108.3310546875 23.8 121.9 21.936328125 134.4416015625 17.1 151.15 16.591796875 153.0384765625 16.05 154.75 6.726953125 135.7236328125 -1.75 119.45 -16.4400390625 91.15703125 -10.95 48.45 -5.363671875 5.28515625 -16.2 -22.4 -16.8048828125 -24.0140625 -17.5 -25.6 2.39765625 -30.8798828125 21.05 -19.95 24.483984375 -6.0978515625 26.15 12.3
M 15.4 156.85
Q 12.98046875 164.4177734375 11.6 167.1 7.5998046875 175.5818359375 -0.6 175.35 -9.887890625 174.899609375 -11.4 165.6 -11.71953125 163.8185546875 -12.35 162 -14.280078125 156.1640625 -19.35 147.15 -25.39765625 136.483984375 -27.1 132.6 -34.5984375 115.481640625 -33.7 98.3 -33.248046875 90.7162109375 -31 81.3 -29.8171875 76.60234375 -26.3 64.65 -20.8166015625 46.2203125 -19.05 30.65 -15.949609375 2.7865234375 -22.6 -24 -20.7771484375 -24.6298828125 -19 -25.15 -18.259765625 -23.51484375 -17.6 -21.85 -6.95703125 5.55703125 -12.5 48.25 -18.04140625 91.501953125 -3.1 120.15 5.6876953125 137.0228515625 15.4 156.85 Z"/>

<path fill="#F4B6D1" stroke="none" d="
M 11.6 167.1
Q 12.98046875 164.4177734375 15.4 156.85 5.6876953125 137.0228515625 -3.1 120.15 -18.04140625 91.501953125 -12.5 48.25 -6.95703125 5.55703125 -17.6 -21.85 -18.259765625 -23.51484375 -19 -25.15 -20.7771484375 -24.6298828125 -22.6 -24 -15.949609375 2.7865234375 -19.05 30.65 -20.8166015625 46.2203125 -26.3 64.65 -29.8171875 76.60234375 -31 81.3 -33.248046875 90.7162109375 -33.7 98.3 -34.5984375 115.481640625 -27.1 132.6 -25.39765625 136.483984375 -19.35 147.15 -14.280078125 156.1640625 -12.35 162 -11.71953125 163.8185546875 -11.4 165.6 -9.887890625 174.899609375 -0.6 175.35 7.5998046875 175.5818359375 11.6 167.1
M 26.8 85.7
Q 28.6025390625 38.2255859375 26.15 12.3 24.483984375 -6.0978515625 21.05 -19.95 2.39765625 -30.8798828125 -17.5 -25.6 -16.8048828125 -24.0140625 -16.2 -22.4 -5.363671875 5.28515625 -10.95 48.45 -16.4400390625 91.15703125 -1.75 119.45 6.726953125 135.7236328125 16.05 154.75 16.591796875 153.0384765625 17.1 151.15 21.936328125 134.4416015625 23.8 121.9 25.946875 108.3310546875 26.8 85.7 Z"/>
</g>

<g id="FS_Mane_02_7_Layer0_0_FILL">
<path fill="#E781B3" stroke="none" d="
M -12.25 5.4
Q -12.4228515625 3.730859375 -12.7 1.5 -15.0361328125 2.2203125 -15.35 5.25 -15.1546875 7.4451171875 -15.35 9.6 -15.9658203125 16.508203125 -20.35 18.2 -23.6107421875 19.5091796875 -27.05 17.55 -29.881640625 15.9359375 -30.4 13.3 -32.2453125 12.321875 -33.5 12.5 -32.8373046875 16.152734375 -29.7 18.55 -26.602734375 20.9603515625 -22.8 21 -15.22734375 21.0783203125 -13 12.85 -12.01875 9.1693359375 -12.25 5.4
M 11.55 8.2
Q 13.0291015625 4.125 10.75 2.9 8.43203125 7.921484375 7.7 9.2 1.273828125 20.7724609375 -8.6 24.45 -14.6875 26.778515625 -21.3 26.25 -28.8748046875 25.7025390625 -32.95 21.4 -35.031640625 19.2421875 -35.6 16.2 -35.876171875 14.516796875 -35.6 13.05 -39.1021484375 14.04140625 -38.75 16.9 -38.244921875 19.015625 -36.9 21.4 -33.4529296875 27.3228515625 -23.5 29.05 -13.503125 30.848046875 -2.95 24.45 5.8455078125 19.140234375 11.55 8.2 Z"/>

<path fill="#F4B6D1" stroke="none" d="
M 7.7 9.2
Q 8.43203125 7.921484375 10.75 2.9 -1.94296875 10.1517578125 -12.7 1.5 -12.4228515625 3.730859375 -12.25 5.4 -12.01875 9.1693359375 -13 12.85 -15.22734375 21.0783203125 -22.8 21 -26.602734375 20.9603515625 -29.7 18.55 -32.8373046875 16.152734375 -33.5 12.5 -34.5716796875 12.7009765625 -35.6 13.05 -35.876171875 14.516796875 -35.6 16.2 -35.031640625 19.2421875 -32.95 21.4 -28.8748046875 25.7025390625 -21.3 26.25 -14.6875 26.778515625 -8.6 24.45 1.273828125 20.7724609375 7.7 9.2 Z"/>
</g>

<g id="FS_Mane_03_7_Layer0_0_FILL">
<path fill="#F4B6D1" stroke="none" d="
M -0.45 -4.7
Q -0.7 -6.111328125 -0.45 -7.5 -0.4205078125 -7.6783203125 -0.4 -7.9 -0.52578125 -7.73671875 -0.7 -7.6 -1.1021484375 -7.1494140625 -1.45 -6.65 -3.102734375 -4.22890625 -2.55 -1 -2.2978515625 0.2712890625 -1.8 1.35 -1.601953125 1.2939453125 -1.4 1.2 0.1921875 0.4279296875 1.6 -0.3 0.0009765625 -2.2142578125 -0.45 -4.7 Z"/>

<path fill="#E781B3" stroke="none" d="
M 0.8 -10.8
L 0.8 -10.8
Q -2.8693359375 -10.4787109375 -5.05 -6.15 -6.453515625 -3.322265625 -5.55 0.1 -3.9818359375 2.2068359375 -1.8 1.35 -2.2978515625 0.2712890625 -2.55 -1 -3.102734375 -4.22890625 -1.45 -6.65 -1.1021484375 -7.1494140625 -0.7 -7.6 -0.52578125 -7.73671875 -0.4 -7.9 -0.4205078125 -7.6783203125 -0.45 -7.5 -0.7 -6.111328125 -0.45 -4.7 0.0009765625 -2.2142578125 1.6 -0.3 3.0642578125 -0.7255859375 2.9 -3 2.512109375 -4.0138671875 2.5 -5.25 2.52109375 -8.0455078125 3.8 -10.1 3.9943359375 -10.34140625 4.15 -10.6 3.9240234375 -10.614453125 3.65 -10.65 2.12109375 -10.88671875 0.8 -10.8 Z"/>
</g>

<g id="FS_Tail_02_10_Layer0_0_FILL">
<path fill="#E781B3" stroke="none" d="
M 10.9 -1.05
Q 9.6583984375 -5.493359375 4.15 -8.3 -1.3162109375 -11.11796875 -6.4 -9.55 -11.4677734375 -7.9810546875 -12.05 -3 -12.9265625 2.492578125 -13.05 3.9 -13.154296875 5.959375 -13.2 8.35 -13.362109375 23.610546875 -9 38.9 -4.60859375 54.257421875 -0.95 60.9 4.117578125 70.3009765625 9.3 72.1 15.8853515625 74.3791015625 22.05 66.6 24.0076171875 64.173046875 25.4 61.25
L 25.35 61.25
Q 27.190234375 57.4310546875 25.55 55.6 23.085546875 52.9 20.55 54.6 19.9619140625 55.1546875 19.2 55.6 15.0345703125 58.108984375 10.6 54.75 9.4138671875 53.8763671875 8.35 52.8 7.5185546875 51.9091796875 6.75 50.9 1.63515625 43.8830078125 2.05 31.1 2.297265625 24.0322265625 4.35 19.5 5.1607421875 17.8357421875 6.15 16.65 13.5462890625 7.84375 10.9 -1.05
M 9 0.75
Q 10.66875 7.3802734375 6.3 13.55
L 4.05 16.4
Q 1.1279296875 20.9580078125 0.4 28.1 -0.3455078125 35.67890625 1.35 43.75 3.419921875 53.362109375 9.25 57.35 11.066796875 60.4404296875 14 63.05 16.6451171875 65.362890625 19.75 66.65 17.630859375 68.2189453125 15.65 68.9 10.1611328125 70.7802734375 5.55 66 -1.2869140625 58.8302734375 -5.85 43.45 -8.5408203125 34.483203125 -10.15 20.2 -11.0470703125 11.6287109375 -10.9 6.6 -10.8392578125 4.1455078125 -10.05 -2.3 -8.03359375 -9.2263671875 -0.1 -7.1 7.899609375 -4.95390625 9 0.75
M 21.85 56.05
Q 23.299609375 54.802734375 24.75 56.35 26.18359375 57.664453125 24.85 60.2 24.53359375 60.8673828125 24.15 61.45 22.671484375 63.8216796875 21 65.45
L 20.95 65.45
Q 17.7677734375 64.491796875 14.65 61.75 13.0341796875 60.328515625 11.75 58.75 14.5193359375 59.9205078125 17.05 59.3 19.941796875 58.666015625 21.9 55.95
L 21.85 56.05 Z"/>

<path fill="#F4B6D1" stroke="none" d="
M 24.75 56.35
Q 23.299609375 54.802734375 21.85 56.05
L 21.9 55.95
Q 19.941796875 58.666015625 17.05 59.3 14.5193359375 59.9205078125 11.75 58.75 13.0341796875 60.328515625 14.65 61.75 17.7677734375 64.491796875 20.95 65.45
L 21 65.45
Q 22.671484375 63.8216796875 24.15 61.45 24.53359375 60.8673828125 24.85 60.2 26.18359375 57.664453125 24.75 56.35
M 6.3 13.55
Q 10.66875 7.3802734375 9 0.75 7.899609375 -4.95390625 -0.1 -7.1 -8.03359375 -9.2263671875 -10.05 -2.3 -10.8392578125 4.1455078125 -10.9 6.6 -11.0470703125 11.6287109375 -10.15 20.2 -8.5408203125 34.483203125 -5.85 43.45 -1.2869140625 58.8302734375 5.55 66 10.1611328125 70.7802734375 15.65 68.9 17.630859375 68.2189453125 19.75 66.65 16.6451171875 65.362890625 14 63.05 11.066796875 60.4404296875 9.25 57.35 3.419921875 53.362109375 1.35 43.75 -0.3455078125 35.67890625 0.4 28.1 1.1279296875 20.9580078125 4.05 16.4
L 6.3 13.55 Z"/>
</g>

<g id="FS_Tail_03_10_Layer0_0_FILL">
<path fill="#F4B6D1" stroke="none" d="
M -18.4 -0.55
Q -20.1544921875 -3.0115234375 -18.6 -5.9 -23.37890625 -2.723046875 -22.8 -0.65 -21.5412109375 3.4306640625 -16.5 4.55 -11.6125 5.5537109375 -6.25 4.75 -1.5439453125 4.0484375 2 2.15 -0.0228515625 0.728515625 -2.15 -0.8 -2.866796875 -0.2697265625 -3.75 0.2 -6.5005859375 1.737109375 -11.35 2.1 -16.194921875 2.465234375 -18.4 -0.55 Z"/>

<path fill="#E781B3" stroke="none" d="
M -20.1 -6.55
Q -25.38046875 -4.644140625 -25.75 -1.25 -26.26796875 3.741015625 -19.85 5.4 -15.5375 6.5076171875 -9.75 6 -3.130078125 5.43359375 2.1 3.1
L 2.2 2.3
Q 2.1078125 2.228125 2 2.15 -1.5439453125 4.0484375 -6.25 4.75 -11.6125 5.5537109375 -16.5 4.55 -21.5412109375 3.4306640625 -22.8 -0.65 -23.37890625 -2.723046875 -18.6 -5.9 -20.1544921875 -3.0115234375 -18.4 -0.55 -16.194921875 2.465234375 -11.35 2.1 -6.5005859375 1.737109375 -3.75 0.2 -2.866796875 -0.2697265625 -2.15 -0.8 -2.9294921875 -1.3578125 -3.75 -1.95 -6.1224609375 0.5005859375 -10.45 0.5 -12.540625 0.5029296875 -14.95 -0.75 -17.2490234375 -1.9044921875 -15.65 -7.6 -15.6431640625 -7.661328125 -15.65 -7.75 -16.4033203125 -7.5171875 -17.05 -7.35 -18.5630859375 -7.04453125 -20.1 -6.55 Z"/>
</g>

<g id="FS_Tail_01_10_Layer2_0_FILL">
<path fill="#000000" stroke="none" d="
M -2.75 -10.2
Q -2.815234375 -10.1017578125 -2.9 -10
L -2.7 -10.05
Q -2.715234375 -10.1150390625 -2.75 -10.2
M 8.5 7.4
Q 8.5875 7.4130859375 8.65 7.4
L 8.6 7.35
Q 8.5716796875 7.3955078125 8.5 7.4 Z"/>

<path fill="#F4B6D1" stroke="none" d="
M 27.65 -32.3
Q 19.8041015625 -31.08984375 13.05 -26.75 19.2994140625 -30.3060546875 27.65 -32.3
M 15 -25.5
L 14.95 -25.5
Q 11.62421875 -23.2126953125 8.5 -20.1 1.211328125 -12.835546875 -2.95 -3.05 -2.9458984375 4.130859375 -1.85 10.3 1.3193359375 7.6951171875 5.45 6.5 8.13671875 5.7552734375 11.15 5.7 13.894921875 4.255859375 17.05 3.55 20.5388671875 2.77421875 24.25 2.95 29.924609375 3.2884765625 36.15 5.85 36.3376953125 5.937109375 36.5 6 47.9068359375 10.7765625 55.95 20.2 64.4072265625 30.2126953125 66.25 42.2 68.0533203125 53.9359375 62.05 70.3 60.137109375 75.51953125 55.2 85.15 50.2615234375 94.9013671875 48.35 99.95 45.3396484375 108.048828125 46.65 115.7 48.0263671875 123.540234375 53.8 129.65
L 53.85 129.65 53.85 129.65 70.15 113.65
Q 66.1021484375 109.1669921875 69.95 101.85 72.367578125 97.2759765625 78.4 93.6 78.7603515625 93.4091796875 79.3 93.1 81.7857421875 88.808203125 86.5 83 90.6392578125 78.31640625 92.6 75.8 96.0142578125 71.44140625 97.25 67.75 101.2052734375 56.2888671875 97.65 39.15 94.632421875 24.51640625 86.45 11.55 78.4400390625 -1.1708984375 66.65 -10.2 54.68046875 -19.4353515625 40.7 -23.35 27.9607421875 -26.853515625 15 -25.5
M 41.7 22.4
Q 48.25546875 31.59453125 50.8 44.25 53.7552734375 58.5568359375 50.7 74.3 49.377734375 81.1693359375 45.8 89.95 43.7169921875 95.051171875 39.25 105.05 36.3283203125 112.123828125 39.65 118.75 42.825390625 125.00546875 49.95 128.25 50.8294921875 128.662109375 51.75 129
L 51.7 128.95
Q 50.045703125 127.0572265625 48.7 124.9 41.339453125 113.0775390625 47.85 97 49.6453125 92.6611328125 54.8 82.4 59.4458984375 73.1732421875 61.4 67.6 66.9802734375 51.826171875 64.1 38.45 61.101171875 24.5548828125 47.95 13.75 42.1990234375 9.0548828125 36.25 6.45 30.348828125 3.9048828125 24.25 3.45 18.25625 3.0314453125 13.1 5.75 17.8263671875 6.093359375 23.3 8.05 34.416015625 12.05234375 41.7 22.4
M 16.75 -26.6
L 16.8 -26.6
Q 23.1462890625 -27.0841796875 29.75 -26.35 42.523046875 -24.934375 54.45 -19.25 66.446875 -13.473828125 75.65 -4.3 85.4478515625 5.408984375 91.85 18.4 98.2169921875 31.289453125 100.15 45 102.2900390625 60.3302734375 98.15 69.65 96.6353515625 73.09609375 93.25 77.3 91.331640625 79.7482421875 87.35 84.3 84.0919921875 88.31484375 81.95 91.55 81.830078125 91.7146484375 81.7 91.85 81.896875 91.787890625 82.05 91.7 84.803515625 90.3740234375 89.2 88.35 101.5119140625 82.69765625 107.3 72.2 114.3234375 59.473828125 112.9 44.3 110.5896484375 19.4853515625 84.95 -6.2 58.868359375 -32.548046875 32.8 -31.4 24.2240234375 -31.0365234375 16.75 -26.6 Z"/>

<path fill="#E781B3" stroke="none" d="
M 34.6 -33.6
Q 30.9703125 -33.05 27.65 -32.3 19.2994140625 -30.3060546875 13.05 -26.75 12.508984375 -26.399609375 11.95 -26.05 11.605078125 -26.0072265625 9.8 -24.75 10.4009765625 -25.3380859375 9.55 -24.7 9.630078125 -24.6853515625 9.75 -24.8 6.6591796875 -22.2609375 4.75 -20.25 0.4138671875 -15.6765625 -2.75 -10.2 -2.715234375 -10.1150390625 -2.7 -10.05
L -2.9 -10
Q -4.5701171875 -7.0451171875 -5.95 -3.85
L -5.7 2.95
Q -5.6646484375 3.437890625 -5.65 3.9 -5.2138671875 8.5111328125 -4.3 12.65 -3.875 14.42734375 -3.4 16.1 -2.3919921875 14.560546875 -1.25 13.25 2.7044921875 8.6861328125 8.5 7.4 8.5716796875 7.3955078125 8.6 7.35
L 8.65 7.4 9.85 7.2
Q 10.4513671875 7.1076171875 11.05 7.05
L 11.05 7
Q 20.6859375 6.0462890625 29.9 12.65 39.7091796875 19.7849609375 44.75 32.6 49.21796875 43.9798828125 49.2 57.45 49.22265625 71.7537109375 44.35 85.25 41.44609375 93.3208984375 38.8 98.7 36.5654296875 103.4255859375 36.05 104.55 34.6884765625 108.121875 34.7 110.9 34.75859375 120.1587890625 42.15 126.55 46.246484375 130.0966796875 52.65 131.75 55.5447265625 132.3236328125 53.85 129.65
L 53.8 129.65
Q 48.0263671875 123.540234375 46.65 115.7 45.3396484375 108.048828125 48.35 99.95 50.2615234375 94.9013671875 55.2 85.15 60.137109375 75.51953125 62.05 70.3 68.0533203125 53.9359375 66.25 42.2 64.4072265625 30.2126953125 55.95 20.2 47.9068359375 10.7765625 36.5 6 36.3376953125 5.937109375 36.15 5.85 29.924609375 3.2884765625 24.25 2.95 20.5388671875 2.77421875 17.05 3.55 13.894921875 4.255859375 11.15 5.7 8.13671875 5.7552734375 5.45 6.5 1.3193359375 7.6951171875 -1.85 10.3 -2.9458984375 4.130859375 -2.95 -3.05 1.211328125 -12.835546875 8.5 -20.1 11.62421875 -23.2126953125 14.95 -25.5
L 15 -25.5
Q 27.9607421875 -26.853515625 40.7 -23.35 54.68046875 -19.4353515625 66.65 -10.2 78.4400390625 -1.1708984375 86.45 11.55 94.632421875 24.51640625 97.65 39.15 101.2052734375 56.2888671875 97.25 67.75 96.0142578125 71.44140625 92.6 75.8 90.6392578125 78.31640625 86.5 83 81.7857421875 88.808203125 79.3 93.1 78.7603515625 93.4091796875 78.4 93.6 72.367578125 97.2759765625 69.95 101.85 66.1021484375 109.1669921875 70.15 113.65
L 70.2 113.65
Q 73.2541015625 115.7734375 71.5 111.55 70.5720703125 109.370703125 71.3 106.55 72.6365234375 101.6498046875 77.05 97.85 77.19921875 97.7255859375 77.35 97.6
L 78.3 96.85
Q 78.7830078125 96.500390625 79.3 96.15
L 79.3 96.1
Q 80.9490234375 95.0068359375 82.9 94 94.208203125 89.2384765625 98.8 85.9 110.2859375 77.5927734375 114.3 62.8 116.0283203125 56.548828125 115.75 48.95
L 115.65 46.95
Q 115.5541015625 44.822265625 115.25 42.65
L 115.1 41.7
Q 114.2064453125 35.3515625 112.1 28.2 106.1353515625 7.5888671875 80.35 -14.45 54.559765625 -36.4404296875 34.6 -33.6
M 16.8 -26.6
L 16.75 -26.6
Q 24.2240234375 -31.0365234375 32.8 -31.4 58.868359375 -32.548046875 84.95 -6.2 110.5896484375 19.4853515625 112.9 44.3 114.3234375 59.473828125 107.3 72.2 101.5119140625 82.69765625 89.2 88.35 84.803515625 90.3740234375 82.05 91.7 81.896875 91.787890625 81.7 91.85 81.830078125 91.7146484375 81.95 91.55 84.0919921875 88.31484375 87.35 84.3 91.331640625 79.7482421875 93.25 77.3 96.6353515625 73.09609375 98.15 69.65 102.2900390625 60.3302734375 100.15 45 98.2169921875 31.289453125 91.85 18.4 85.4478515625 5.408984375 75.65 -4.3 66.446875 -13.473828125 54.45 -19.25 42.523046875 -24.934375 29.75 -26.35 23.1462890625 -27.0841796875 16.8 -26.6
M 50.8 44.25
Q 48.25546875 31.59453125 41.7 22.4 34.416015625 12.05234375 23.3 8.05 17.8263671875 6.093359375 13.1 5.75 18.25625 3.0314453125 24.25 3.45 30.348828125 3.9048828125 36.25 6.45 42.1990234375 9.0548828125 47.95 13.75 61.101171875 24.5548828125 64.1 38.45 66.9802734375 51.826171875 61.4 67.6 59.4458984375 73.1732421875 54.8 82.4 49.6453125 92.6611328125 47.85 97 41.339453125 113.0775390625 48.7 124.9 50.045703125 127.0572265625 51.7 128.95
L 51.75 129
Q 50.8294921875 128.662109375 49.95 128.25 42.825390625 125.00546875 39.65 118.75 36.3283203125 112.123828125 39.25 105.05 43.7169921875 95.051171875 45.8 89.95 49.377734375 81.1693359375 50.7 74.3 53.7552734375 58.5568359375 50.8 44.25 Z"/>
</g>

<g id="FS_FrontLeg_3_4_hoof_0_Layer0_0_FILL">
<path fill="#EBD463" stroke="none" d="
M 14.95 -14.95
Q 8.7541015625 -20.8443359375 0.05 -20.15 -8.81640625 -19.5484375 -12.8 -14.35 -16.526953125 -9.5060546875 -19.15 -4.25 -21.7119140625 0.947265625 -24.6 7.3
L -24.55 7.3
Q -26.32890625 11.167578125 -25.4 13.5 -24.5373046875 16.1365234375 -20.8 17
L -20.8 17
Q -15.0755859375 18.309765625 -1 18.05 13.7875 17.7890625 17.25 13.7
L 17.25 13.7
Q 20.8900390625 9.7828125 21.05 0.3 21.2107421875 -9.126171875 14.95 -14.95
M 0.25 -17.15
L 0.25 -17.15
Q 7.6546875 -17.7474609375 12.9 -12.75 18.1890625 -7.7734375 18.05 0.25 17.9103515625 8.2857421875 15.05 11.65
L 15 11.7
Q 11.8634765625 14.81171875 -1.05 15.05 -14.6240234375 15.2900390625 -20.15 14.05
L -20.15 14.1
Q -22.016015625 13.6626953125 -22.55 12.5 -22.959375 11.0341796875 -21.85 8.55 -18.9880859375 2.2525390625 -16.45 -2.9 -13.9732421875 -7.894140625 -10.45 -12.5 -7.0837890625 -16.6517578125 0.25 -17.15 Z"/>

<path fill="#FDF6AE" stroke="none" d="
M 0.25 -17.15
L 0.25 -17.15
Q -7.0837890625 -16.6517578125 -10.45 -12.5 -13.9732421875 -7.894140625 -16.45 -2.9 -18.9880859375 2.2525390625 -21.85 8.55 -22.959375 11.0341796875 -22.55 12.5 -22.016015625 13.6626953125 -20.15 14.1
L -20.15 14.05
Q -14.6240234375 15.2900390625 -1.05 15.05 11.8634765625 14.81171875 15 11.7
L 15.05 11.65
Q 17.9103515625 8.2857421875 18.05 0.25 18.1890625 -7.7734375 12.9 -12.75 7.6546875 -17.7474609375 0.25 -17.15 Z"/>
</g>

<g id="FS_FrontLeg_3_4_upper_2_Layer1_0_FILL">
<path fill="#EBD463" stroke="none" d="
M -17.3 82.35
L -14.2 82.9
Q -3.4103515625 50.004296875 -7.15 -2.5 -9.971484375 0.565234375 -9.25 14.7 -7.92421875 54.5646484375 -17.3 82.35
M 18.4 19.05
Q 12.98984375 3.2484375 9.05 0.4 26.109765625 43.7232421875 19.95 89.45
L 19.95 89.5
Q 21.0232421875 91.8462890625 22.9 89.9
L 22.9 89.9
Q 27.77265625 53.83984375 18.4 19.05 Z"/>

<path fill="#FDF6AE" stroke="none" d="
M 9.05 0.4
L 9.05 0.35
Q 0.58515625 -2.4958984375 -7.15 -2.5 -3.4103515625 50.004296875 -14.2 82.9
L -13.1 84.35 19.95 89.45
Q 26.109765625 43.7232421875 9.05 0.4 Z"/>
</g>

<g id="FS_FrontLeg_3_4_hoof_4_Layer0_0_FILL">
<path fill="#F26F31" stroke="none" d="
M -13.4 -12.85
L -13.4 -12.85 -13.4 -12.85 -13.4 -12.85 Z"/>

<path fill="#EBD463" stroke="none" d="
M -1.15 -18.45
L -1.2 -18.45
Q -9.624609375 -17.8423828125 -13.4 -12.85
L -13.4 -12.85
Q -16.978515625 -8.244140625 -19.45 -3.2
L -19.45 -3.25
Q -21.8619140625 1.6474609375 -24.65 7.7 -26.3091796875 11.4185546875 -25.4 13.65 -24.5841796875 16.204296875 -21 17 -15.576171875 18.259765625 -2.15 18.05 12.0072265625 17.7810546875 15.25 13.85 18.7416015625 10.1349609375 18.9 1.1 19.00546875 -7.925390625 13.05 -13.5 7.154296875 -19.091015625 -1.15 -18.45
M -0.95 -15.45
L -0.95 -15.45
Q 6.0544921875 -16.0005859375 11 -11.3 15.99453125 -6.574609375 15.9 1.05 15.7583984375 8.665625 13 11.85 10.0958984375 14.81875 -2.2 15.05 -15.123828125 15.2400390625 -20.35 14.05 -22.069140625 13.694921875 -22.6 12.65 -22.9419921875 11.2833984375 -21.9 8.95 -19.13828125 2.9525390625 -16.75 -1.9
L -16.75 -1.9
Q -14.421484375 -6.655859375 -11.05 -11
L -11 -11
Q -7.869921875 -14.9509765625 -0.95 -15.45 Z"/>

<path fill="#FDF6AE" stroke="none" d="
M -0.95 -15.45
L -0.95 -15.45
Q -7.869921875 -14.9509765625 -11 -11
L -11.05 -11
Q -14.421484375 -6.655859375 -16.75 -1.9
L -16.75 -1.9
Q -19.13828125 2.9525390625 -21.9 8.95 -22.9419921875 11.2833984375 -22.6 12.65 -22.069140625 13.694921875 -20.35 14.05 -15.123828125 15.2400390625 -2.2 15.05 10.0958984375 14.81875 13 11.85 15.7583984375 8.665625 15.9 1.05 15.99453125 -6.574609375 11 -11.3 6.0544921875 -16.0005859375 -0.95 -15.45 Z"/>
</g>

<g id="FS_KneePatch_1_Layer0_0_FILL">
<path fill="#EBD463" stroke="none" d="
M 10.75 -8.3
L 10.75 -8.45
Q 10.999609375 -9.6171875 11 -10.9 11.0111328125 -16.75078125 6.7 -21.15 2.4033203125 -25.5216796875 -3.55 -25.85 -9.52421875 -26.1814453125 -13.85 -22.55 -18.2634765625 -18.8869140625 -18.25 -13.75
L -18.25 -13.7
Q -18.333203125 -9.8595703125 -15.45 -3.75
L -15.4 -3.65 -15.4 -3.6
Q -12.6767578125 2.0408203125 -9.8 10.1
L -9.75 10.2
Q -9.74140625 10.22421875 -9.75 10.25
L -9.75 10.25
Q -6.684765625 18.7166015625 -4.1 21.8
L -4.05 21.85
Q -1.2443359375 25.3462890625 3.45 25.6
L 3.5 25.6
Q 8.171875 25.7728515625 11.55 22.6 14.949609375 19.4423828125 15.4 15.75 15.955859375 12.0994140625 13.1 9.2 8.4591796875 3.042578125 10.65 -7.8 10.721875 -8.034375 10.75 -8.3 Z"/>
</g>

<g id="FS_HindLeg_3_4rear_lower_0_Layer1_0_FILL">
<path fill="#F26F31" stroke="none" d="
M 8.6 8
Q 8.6333984375 7.9955078125 8.65 7.95
L 8.65 7.95 8.6 8 Z"/>

<path fill="#EBD463" stroke="none" d="
M 12.35 -6.4
Q 12.1732421875 -6.510546875 11.95 -6.6 1.59140625 -10.1181640625 -6.5 -4.85 -6.526171875 -4.8123046875 -6.6 -4.8 -14.9587890625 1.5962890625 -10.3 12.75 -10.2638671875 12.8216796875 -10.25 12.85 -7.8515625 17.784765625 -2.5 16.05 1.90625 14.6984375 8.65 7.95
L 8.65 7.95
Q 13.7076171875 3.494921875 14.7 0.2 16.0470703125 -3.87109375 12.35 -6.4
M 10.75 -3.8
Q 12.4302734375 -2.605078125 11.85 -0.75 10.8990234375 1.983203125 6.6 5.75 6.5771484375 5.8119140625 6.55 5.85 0.493359375 11.901953125 -3.4 13.2 -6.248828125 14.115234375 -7.55 11.5
L -7.55 11.6
Q -7.5458984375 11.575 -7.6 11.5 -11.2048828125 2.68671875 -4.75 -2.4
L -4.85 -2.35
Q 2.0138671875 -6.721484375 10.75 -3.8 Z"/>

<path fill="#FCBA63" stroke="none" d="
M -7.55 11.5
L -7.6 11.5
Q -7.5458984375 11.575 -7.55 11.6
L -7.55 11.5 Z"/>

<path fill="#FDF6AE" stroke="none" d="
M 11.85 -0.75
Q 12.4302734375 -2.605078125 10.75 -3.8 2.0138671875 -6.721484375 -4.85 -2.35
L -4.75 -2.4
Q -11.2048828125 2.68671875 -7.6 11.5
L -7.55 11.5
Q -6.248828125 14.115234375 -3.4 13.2 0.493359375 11.901953125 6.55 5.85 6.5771484375 5.8119140625 6.6 5.75 10.8990234375 1.983203125 11.85 -0.75 Z"/>
</g>

<g id="FS_HindLeg_3_4rear_lower_0_Layer0_0_FILL">
<path fill="#EBD463" stroke="none" d="
M -8.05 10.15
L -8.2 9.7 -8.45 8.7 -11.35 9.5 -10.95 10.95
Q -3.5580078125 37.8861328125 -11.7 64.6 -11.7875 65.0125 -11.9 65.4
L -8.85 65.4
Q -0.5115234375 37.662109375 -8.05 10.15
M 11.65 -2.95
Q 11.686328125 -2.8736328125 11.7 -2.8 26.2828125 27.8509765625 24.65 64.3
L 27.6 64.1
Q 29.3125 27.137109375 14.35 -4.25
L 14.2 -4.5 11 -4.3 11.65 -2.95 Z"/>

<path fill="#FDF6AE" stroke="none" d="
M 24.65 64.3
Q 26.2828125 27.8509765625 11.7 -2.8
L -8.2 9.7 -8.05 10.15
Q -0.5115234375 37.662109375 -8.85 65.4
L 24.65 64.3 Z"/>
</g>

<g id="FS_HindLeg_3_4_top_0_Layer0_0_FILL">
<path fill="#EBD463" stroke="none" d="
M 6.75 76.35
L 6.75 76.35
Q -5.6740234375 79.4810546875 -17.85 52.9 -22.4396484375 44.2798828125 -22.8 35.45 -22.8046875 34.6546875 -22.8 33.8
L -22.8 33.75
Q -24.534375 39.942578125 -23.7 44.9 -22.7796875 49.8568359375 -19.9 55.4
L -19.9 55.4
Q -13.921484375 66.6205078125 -8 72.35 -7.2390625 73.39921875 -6.3 74.35
L -6.3 74.3
Q -2.226953125 78.1365234375 3.25 77.8 5.5173828125 77.7169921875 6.75 76.35
M 0.85 -1.2
L 0.85 -1.25
Q -2.5255859375 -2.312109375 -0.95 1.15 2.9390625 3.284375 6.45 8.5 8.05 10.9306640625 9.2 14.2 10.0458984375 16.399609375 11.05 20.4 12.373046875 25.2171875 12.6 30.75 12.986328125 38.148046875 10.7 47.15 8.4671875 56.2173828125 7.35 60.2 6.22265625 64.238671875 7.15 70.45 7.80390625 74.5998046875 6.8 76.3 7.4986328125 75.5841796875 7.85 74.5 7.9609375 74.2607421875 8 74 8.354296875 72.8421875 8.25 68.95 8.2013671875 65.08515625 9.5 60.65 10.8474609375 56.258984375 13.15 47.55 15.5009765625 38.859765625 15.5 31.85 15.5564453125 24.8787109375 14.15 19.5 12.0056640625 11.4095703125 8.7 6.6 5.0640625 1.298046875 0.85 -1.2 Z"/>

<path fill="#FDF6AE" stroke="none" d="
M 10.7 47.15
Q 12.986328125 38.148046875 12.6 30.75 12.373046875 25.2171875 11.05 20.4 10.0458984375 16.399609375 9.2 14.2 8.05 10.9306640625 6.45 8.5 2.9390625 3.284375 -0.95 1.15
L -22.8 33.8
Q -22.8046875 34.6546875 -22.8 35.45 -22.4396484375 44.2798828125 -17.85 52.9 -5.6740234375 79.4810546875 6.75 76.35
L 6.75 76.35 6.8 76.35
Q 6.814453125 76.3533203125 6.8 76.3 7.80390625 74.5998046875 7.15 70.45 6.22265625 64.238671875 7.35 60.2 8.4671875 56.2173828125 10.7 47.15 Z"/>
</g>

<g id="FS_KneePatch_0_Layer0_0_FILL">
<path fill="#FDF6AE" stroke="none" d="
M 6.95 -3.8
Q 7.6271484375 -8.4921875 7.65 -8.75
L 7.65 -8.75
Q 7.6830078125 -8.7876953125 7.7 -8.85 7.850390625 -9.7474609375 7.85 -10.75 7.8390625 -15.39921875 4.4 -18.9 0.946484375 -22.4283203125 -3.85 -22.7 -8.6259765625 -22.9685546875 -12.1 -20.1 -15.376171875 -17.3716796875 -15.4 -13.55
L -15.4 -13.55
Q -15.40625 -10.530078125 -12.6 -4.2
L -12.4 -3.7
Q -12.324609375 -3.590625 -12.3 -3.5 -12.2001953125 -3.3171875 -12.15 -3.15 -12.0654296875 -3.0400390625 -12 -2.95
L -12 -2.9 -11.95 -2.8
Q -9.565234375 2.4005859375 -7.1 9.35 -7.0333984375 9.4712890625 -7.05 9.6 -4.2322265625 17.2533203125 -1.9 20.1
L -1.9 20.1
Q 0.112890625 22.6044921875 3.45 22.75 6.435546875 22.852734375 8.7 21.1
L 8.7 21.15
Q 19.876171875 11.2931640625 12.45 5.8 11.055859375 5.381640625 9.7 4.45 9.7404296875 4.5390625 9.75 4.6 8.476171875 3.9505859375 7.75 2.7 6.5830078125 1.1353515625 6.75 -1.95 6.7810546875 -2.8294921875 6.9 -3.8
L 6.95 -3.8 Z"/>
</g>

<g id="FS_Torso_1_Layer1_0_FILL">
<path fill="#EBD564" stroke="none" d="
M 36.45 -35.25
Q 26.929296875 -38.9703125 15.6 -36.3 9.5609375 -34.862890625 2.85 -30.75 -0.8052734375 -28.4330078125 -3.25 -27.15
L -4.6 -26.55
Q -9.5189453125 -24.4865234375 -14.8 -24.3 -20.29296875 -24.1501953125 -26.9 -24 -35.3017578125 -23.897265625 -40.5 -20.4
L -40.5 -20.4
Q -49.0384765625 -14.54375 -51.4 -5.65 -52.738671875 -0.5123046875 -51.9 5.55
L -51.9 5.55
Q -50.85 12.55 -47 17.8 -45.9 19.3 -43.15 22.05
L -43.15 22.05
Q -29.781640625 35.3962890625 -11.6 36.9 -9.2646484375 37.10078125 -6.85 37.1 -5.632421875 37.100390625 -4.45 37.05 12 35.7 17.95 33.05 24.2484375 30.25 31.3 25.7 39.29453125 20.55 43.45 16.05 48.5763671875 10.5955078125 51.05 4.55 55.5630859375 -6.333203125 51.5 -19.05 47.8439453125 -30.8998046875 36.45 -35.25
M 16.3 -33.4
Q 26.6517578125 -35.8296875 35.35 -32.45 45.395703125 -28.600390625 48.65 -18.15 52.5525390625 -5.8654296875 47.75 4.55 45.487109375 9.4986328125 41.25 14 37.3333984375 18.2 28.95 23.65 21.31953125 28.6 16.5 30.55 12.138671875 32.35 7.05 33.15 1.8552734375 34.008203125 -4 33.95
L -4 34.05 -4.05 34.05
Q -4.224609375 34.05625 -4.4 34.05 -5.60625 34.0994140625 -6.85 34.1 -9.2669921875 34.1005859375 -11.6 33.9 -28.5546875 32.393359375 -41.05 19.95 -42.1083984375 18.88828125 -43.1 17.8 -43.7607421875 17.0318359375 -44.4 16.25 -47.95 11.35 -48.9 5.15
L -48.9 5.1
Q -49.625390625 -0.298046875 -48.45 -4.9 -46.3203125 -12.7484375 -38.8 -17.95
L -38.75 -17.95 -38.75 -17.9
Q -34.2041015625 -20.902734375 -26.85 -21 -20.217578125 -21.15 -14.7 -21.3 -10.815625 -21.4419921875 -7.15 -22.5 -5.2646484375 -23.0169921875 -3.45 -23.8
L -2.65 -24.1 -2.55 -24.05
Q -2.2818359375 -24.191015625 -2 -24.35 0.583984375 -25.7365234375 4.45 -28.2 10.70390625 -32.0373046875 16.3 -33.4 Z"/>

<path fill="#F4B6D1" stroke="none" d="
M -38.8 -17.95
L -38.75 -17.9 -38.75 -17.95 -38.8 -17.95 Z"/>

<path fill="#FDF6AE" stroke="none" d="
M 35.35 -32.45
Q 26.6517578125 -35.8296875 16.3 -33.4 10.70390625 -32.0373046875 4.45 -28.2 0.583984375 -25.7365234375 -2 -24.35 -2.2818359375 -24.191015625 -2.55 -24.05
L -2.65 -24.1 -3.45 -23.8
Q -5.2646484375 -23.0169921875 -7.15 -22.5 -10.815625 -21.4419921875 -14.7 -21.3 -20.217578125 -21.15 -26.85 -21 -34.2041015625 -20.902734375 -38.75 -17.9
L -38.8 -17.95
Q -46.3203125 -12.7484375 -48.45 -4.9 -49.625390625 -0.298046875 -48.9 5.1
L -48.9 5.15
Q -47.95 11.35 -44.4 16.25 -43.7607421875 17.0318359375 -43.1 17.8 -42.1083984375 18.88828125 -41.05 19.95 -28.5546875 32.393359375 -11.6 33.9 -9.2669921875 34.1005859375 -6.85 34.1 -5.60625 34.0994140625 -4.4 34.05 -4.224609375 34.05625 -4.05 34.05
L -4 34.05 -4 33.95
Q 1.8552734375 34.008203125 7.05 33.15 12.138671875 32.35 16.5 30.55 21.31953125 28.6 28.95 23.65 37.3333984375 18.2 41.25 14 45.487109375 9.4986328125 47.75 4.55 52.5525390625 -5.8654296875 48.65 -18.15 45.395703125 -28.600390625 35.35 -32.45 Z"/>
</g>

<g id="FS_Neck_1_Layer0_0_FILL">
<path fill="#FDF6AE" stroke="none" d="
M -17.6 -99.9
L -17.65 -99.9
Q -26.683984375 -109.0083984375 -39.8 -109 -52.8892578125 -108.998828125 -62.3 -99.85 -71.801171875 -90.6611328125 -72.05 -77.85 -72.3279296875 -65.053125 -63.25 -55.9
L -63.25 -55.9
Q -62.7607421875 -55.412890625 -62.25 -54.95
L -60.5 -53.45 -60.5 -53.4 -59.15 -51.9
Q -48.75625 -40.150390625 -47.1 -29.25 -47 -27.9 -46.95 -26.5 -46.9 -23.2 -47.45 -19.75 -50.535546875 -0.3146484375 -45.9 16
L -45.9 15.95
Q -39.7232421875 37.46015625 -19.85 44.45
L -18.45 44.95 -18.55 45
Q -7.184375 45.1412109375 -5.55 29.25 -3.9140625 13.4140625 -2.6 -0.1
L -0.25 -0.05
Q -3.05859375 -1.5416015625 -4.1 -3.15 -5.85234375 -5.197265625 -8.1 -25.15 -9.88515625 -40.952734375 -9.5 -62.95 -9.3767578125 -67.9625 -9.2 -73.3 -9.158984375 -73.5244140625 -9.15 -73.75
L -9.15 -81.3 -8.85 -81.3
Q -9.7095703125 -91.998828125 -17.6 -99.9
M -34.6 -47.4
L -34.7 -47.4
Q -34.6310546875 -47.38359375 -34.6 -47.4
L -34.6 -47.4 Z"/>

<path fill="#EBD564" stroke="none" d="
M -34.7 -47.4
L -34.6 -47.4 -34.6 -47.4
Q -34.6310546875 -47.38359375 -34.7 -47.4
M -17.65 -99.9
L -17.6 -99.9
Q -9.7095703125 -91.998828125 -8.85 -81.3
L -9.15 -81.3 -9.15 -73.75
Q -9.158984375 -73.5244140625 -9.2 -73.3 -9.3767578125 -67.9625 -9.5 -62.95 -9.88515625 -40.952734375 -8.1 -25.15 -5.85234375 -5.197265625 -4.1 -3.15 -3.05859375 -1.5416015625 -0.25 -0.05 -1.4 -1.85 -2.25 -4.8 -3.05 -7.45 -5.1 -25.5 -7.2638671875 -44.648828125 -6.2 -72.95 -5.7958984375 -75.3732421875 -5.75 -77.95 -5.492578125 -92.0048828125 -15.5 -102
L -15.5 -102
Q -25.41640625 -111.9916015625 -39.8 -112 -54.110546875 -112.0013671875 -64.4 -102 -74.7986328125 -91.9388671875 -75.05 -77.9 -75.355078125 -64.5958984375 -66.45 -54.9 -65.9 -54.35 -65.35 -53.8 -63.45 -52 -61.7 -50.1 -60.3 -48.55 -58.95 -46.95 -52.171875 -38.4115234375 -50.45 -29.2 -50 -25.35 -50.3 -21.6 -50.35 -20.65 -50.5 -19.7 -53.575 0.1408203125 -48.8 16.8
L -48.8 16.8
Q -42.1767578125 39.8396484375 -20.85 47.3
L -19.45 47.8 -18.55 45 -18.45 44.95 -19.85 44.45
Q -39.7232421875 37.46015625 -45.9 15.95
L -45.9 16
Q -50.535546875 -0.3146484375 -47.45 -19.75 -46.9 -23.2 -46.95 -26.5 -47 -27.9 -47.1 -29.25 -48.75625 -40.150390625 -59.15 -51.9
L -60.5 -53.4 -61.7 -53.4 -60.5 -53.45 -62.25 -54.95
Q -62.7607421875 -55.412890625 -63.25 -55.9
L -63.25 -55.9
Q -72.3279296875 -65.053125 -72.05 -77.85 -71.801171875 -90.6611328125 -62.3 -99.85 -52.8892578125 -108.998828125 -39.8 -109 -26.683984375 -109.0083984375 -17.65 -99.9 Z"/>
</g>

<g id="FS_CutieMark_1_Layer0_0_FILL">
<path fill="#F4B6D1" stroke="none" d="
M -3.95 10.3
Q -5.7701171875 6.88125 -6.8 5.3 -8.717578125 4.205078125 -10.45 3.95 -13.801171875 2.682421875 -15 4.75 -16.005078125 6.6673828125 -13.65 8.35 -11.01875 9.713671875 -9.2 8.9 -10.7576171875 10.655078125 -11.5 13.2 -11.7087890625 15.8998046875 -10 16.45 -7.5064453125 16.58125 -5.85 14.3 -4.7701171875 12.96875 -3.95 10.3
M 2.9 8.9
Q 3.638671875 6.24375 1.15 5.4 -0.986328125 4.1951171875 -2.7 5.3 -1.623828125 3.2076171875 -2.2 1.3 -2.4662109375 -1.30625 -4.15 -2.1 -5.4076171875 -2.8400390625 -5.85 -0.85 -5.86875 1.048828125 -5.65 4.55 -4.761328125 5.255078125 -4.45 6.75 -3.4 8.3962890625 -3.4 10.15 -2.5076171875 10.0248046875 -0.8 10.9 1.9025390625 10.869921875 2.9 8.9
M 14.95 8.85
Q 14.2423828125 9.4560546875 13.3 10.8 11.5099609375 12.180078125 10.35 13.3 10.138671875 13.748828125 9.85 15.8 9.7150390625 17.5875 12.05 17.25 14.6537109375 16.5361328125 15.5 14.25 16.0236328125 11.7087890625 15 11.4 16.7025390625 11.0287109375 18.8 9.95 20.84375 8.24375 21.55 7.3 22.157421875 5.7275390625 19.8 6.65 17.597265625 7.0400390625 14.95 8.85
M 14 5.25
Q 13.18984375 1.7798828125 11.7 2.3 9.563671875 1.836328125 9.45 5.1 8.77109375 7.61015625 10.35 8.65 8.25 8.075 6.15 9.6 3.5236328125 10.8673828125 3.55 12.95 3.3673828125 14.5962890625 6.1 14.25 7.169140625 13.9189453125 10 13.1 10.119921875 13.0736328125 10.2 13.05 12.507421875 9.6625 13.95 8.35 14.13125 6.4060546875 14 5.25
M 9.15 -9.65
Q 8.8798828125 -8.4462890625 8.4 -7.4 7.407421875 -5.14140625 6.6 -4.3 6.8861328125 -3.467578125 7.7 -1.4 8.77734375 0.7798828125 11.3 0.6 13.7662109375 -0.155078125 13.45 -2.85 12.6076171875 -5.7751953125 10.9 -6.65 12.86875 -6.72890625 14.55 -8.25 16.2275390625 -9.45625 16.2 -11.45 15.9125 -13.025 13.5 -12.5 11.3513671875 -11.705078125 9.15 -9.65
M 5.4 -14.4
Q 2.6849609375 -18.00625 0.55 -18.25 -1.6236328125 -17.8537109375 -0.2 -14.7 1.063671875 -11.1775390625 3.3 -10.2 0.8548828125 -10.3849609375 -0.8 -9.15 -2.5037109375 -7.3974609375 -1.45 -5.25 -0.4013671875 -2.936328125 2.25 -3.3 3.4224609375 -3.4087890625 6.25 -4.75 6.9375 -8.5087890625 7.6 -10.35 6.525 -12.4939453125 5.4 -14.4 Z"/>

<path fill="#6CC9C6" stroke="none" d="
M -8.15 -1.65
Q -7.6525390625 -1.6736328125 -7.6 -1.25 -7.3349609375 -0.9875 -7.7 -0.75 -7.18515625 -0.6251953125 -7.3 -0.55 -6.7138671875 -1.055078125 -7.15 -1.4 -7.01875 -1.6375 -7.7 -1.9 -7.8650390625 -2.055078125 -8.45 -2 -8.5525390625 -1.738671875 -9.1 -1.45 -8.9212890625 -1.3162109375 -8.95 0 -8.23515625 1.5724609375 -7.15 3.75
L -7.15 3.8
Q -7.64765625 2.61875 -8.8 2.2 -10.644921875 0.58125 -11.65 0.8 -11.694921875 0.5361328125 -11.95 0.85 -12.169921875 0.7361328125 -12.6 1.2 -12.6501953125 1.4087890625 -12.7 1.75 -12.3337890625 1.9412109375 -12.15 2.45 -11.4900390625 2.4201171875 -11.3 2.55 -11.1212890625 2.47109375 -11.15 2.5 -11.0701171875 1.9986328125 -11.25 2.05 -11.1712890625 2.1 -11.3 2.15 -11.4287109375 1.8900390625 -11.95 2.05 -11.9587890625 1.6349609375 -12.15 1.85 -12.11875 1.3775390625 -11.85 1.3 -11.5400390625 0.9986328125 -11.65 1.25 -10.7025390625 0.8875 -9.15 2.6 -7.9650390625 2.99609375 -7.25 4.55 -7.1228515625 4.52578125 -7.2 4.45 -6.869921875 4.7837890625 -6.8 5.3 -5.7701171875 6.88125 -3.95 10.3 -3.5576171875 10.6625 -3.4 11 -3.1900390625 10.494921875 -3.4 10.15 -3.4 8.3962890625 -4.45 6.75 -4.761328125 5.255078125 -5.65 4.55 -5.8552734375 3.658203125 -6.6 3.65 -7.65625 1.5236328125 -8.45 -0.05 -8.5013671875 -1.148828125 -8.5 -1.25 -8.2337890625 -1.6212890625 -8.15 -1.65
M 15.2 2.95
Q 15.117578125 2.6349609375 15.85 2.95
L 15.9 3.05
Q 16.232421875 3.36875 15.7 5.5 14.9162109375 6.836328125 14.5 7.65 14.55 7.6201171875 14.6 7.75 14.0775390625 7.8787109375 13.95 8.35 12.507421875 9.6625 10.2 13.05 10.119921875 13.0736328125 10 13.1 9.7841796875 13.24609375 9.5 13.85 9.7150390625 13.4826171875 10.35 13.3 11.5099609375 12.180078125 13.3 10.8 14.2423828125 9.4560546875 14.95 8.85 15.2384765625 8.0349609375 15.45 7.8
L 15.5 7.8
Q 15.60625 7.251171875 16.5 6.6 17.388671875 5.4173828125 18.2 5.05 18.69609375 4.263671875 19.3 4.45 19.378515625 4.2099609375 19.8 4.55 19.85625 4.6236328125 19.65 5.25 19.2837890625 5.08984375 19.05 5.35 18.7599609375 5.248828125 19.05 5.7 19.4875 5.6248046875 19.9 5.5 20.5375 4.8873046875 20.1 4.25 19.751171875 3.730078125 19.3 4.05 18.42734375 3.888671875 17.95 4.7 16.167578125 5.8236328125 15.2 7.5
L 15.2 7.45
Q 15.386328125 7.0337890625 16.1 5.7 16.6462890625 3.2623046875 16.25 2.9 16.1212890625 2.4736328125 16.1 2.6 15.7076171875 2.209765625 15.5 2.4 15.02734375 2.2111328125 14.95 2.55 14.6037109375 2.7287109375 14.6 3.25 14.34375 3.4150390625 14.85 4
L 14.9 4.05
Q 15.02109375 3.623828125 15.25 3.75 15.2248046875 3.461328125 15.15 3.7 14.5962890625 3.0486328125 15.2 2.95
M 11.65 -14.15
Q 11.6076171875 -13.598828125 11.75 -13.65 12.301171875 -13.49765625 12.75 -14 12.880078125 -13.91875 12.75 -14.65 12.617578125 -14.80390625 12.25 -15.35 11.348828125 -15.7474609375 11 -15.75 10.2400390625 -15.586328125 9.85 -14.95 8.8224609375 -13.4349609375 8.4 -11.5
L 8.35 -11.5
Q 8.1962890625 -12.3900390625 8.2 -13.7 7.5173828125 -16.1724609375 6.6 -17.2 6.25234375 -17.0650390625 6.3 -17.4 5.6787109375 -17.5875 5.4 -17.8 4.8900390625 -17.5826171875 4.75 -17.6 4.5224609375 -17.1087890625 4.9 -16.8 4.84375 -16.219921875 5.55 -15.85 5.569921875 -15.8 5.75 -15.75 5.782421875 -15.8076171875 6 -16.1 5.7287109375 -16.0201171875 5.8 -16.2 5.2048828125 -16.383984375 5.4 -16.75 4.9423828125 -17.067578125 5.3 -17.2 5.4111328125 -17.386328125 6.1 -17.15 5.9361328125 -16.9087890625 6.35 -16.85 6.932421875 -16.2162109375 7.7 -13.85 7.669921875 -11.8037109375 7.8 -11.2 7.769921875 -11.0212890625 7.9 -11.05 7.56484375 -10.5037109375 7.6 -10.35 6.9375 -8.5087890625 6.25 -4.75 5.9412109375 -3.8849609375 6 -3.7 6.1025390625 -3.9876953125 6.6 -4.3 7.407421875 -5.14140625 8.4 -7.4 8.8798828125 -8.4462890625 9.15 -9.65 8.932421875 -10.4923828125 8.9 -11.15 8.7685546875 -11.6525390625 9.4 -12.6 9.7162109375 -13.601171875 10.4 -14.55 10.45625 -15.01875 11.3 -15.25 11.76875 -15.0712890625 11.95 -15.1 12.188671875 -14.6525390625 12.35 -14.65 12.13984375 -14.4375 12.35 -14.25 11.92109375 -13.8599609375 11.65 -14.15 Z"/>
</g>

<g id="FS_Torso_overlap__0_Layer0_0_FILL">
<path fill="#EBD564" stroke="none" d="
M 10.25 -8.95
Q 9.4009765625 1.9046875 5.35 8.95 1.346875 16.0353515625 -1.8 17.3
L -1.8 20.65
Q 3.2017578125 18.636328125 7.75 9.7 12.2982421875 0.763671875 10.25 -8.95 Z"/>

<path fill="#FDF6AE" stroke="none" d="
M 10.15 -10.1
L 10.2 -10.75
Q 5.149609375 -26.5466796875 -4.5 -21.1 -19.25 -8 -1.8 17.3 1.346875 16.0353515625 5.35 8.95 9.4009765625 1.9046875 10.25 -8.95 10.15 -8.65 10.15 -10.1 Z"/>
</g>

<g id="FS_Wing_3_4_8_Layer5_0_FILL">
<path fill="#FDF6AE" stroke="none" d="
M 12.85 24.6
Q 15.25 21.9 15.65 18.9 16.1 15.85 14.4 13.6 12.8 11.55 10.25 10.95 8.5 10.55 3.95 10.55 3.9005859375 3.5751953125 -7.25 1.7
L -14.95 1.8
Q -22.45 10.75 -23.5 16 -25.1552734375 24.0869140625 -21.05 30.5 -13.6 41.795703125 3.75 38.55 15.6693359375 32.926953125 12.85 24.6
M 35.85 12.15
Q 38.25 7.05 39.05 4.05 39.6837890625 1.4330078125 39.55 -0.45
L 17.15 12.35 17.75 13.3
Q 18.8 15 18.6 18.4 18.3 22.55 15.9 25.1 16.078515625 25.676953125 16.15 26.25
L 35.85 12.15
M 33.1 16.85
Q 33.9603515625 15.5462890625 34.7 14.25
L 16.25 27.4
Q 16.26171875 27.693359375 16.25 27.95 16.18046875 32.1900390625 12.15 36.15 23.7486328125 31.27578125 33.1 16.85
M 38.4 -3.35
Q 36.75 -4.95 33.85 -5.4
L 32.4 -5.5 5.6 6.4
Q 5.9978515625 7.1595703125 6.2 8.05 13.4712890625 7.8109375 16.55 11.5
L 39.45 -1.5
Q 39.1666015625 -2.65234375 38.45 -3.35
L 38.4 -3.35
M 30.1 -5.6
Q 26.540625 -5.5923828125 21.8 -4.75 11.580859375 -2.937109375 -0.35 1.95 3.47421875 2.86640625 5.1 5.5
L 30.1 -5.6 Z"/>

<path fill="#EBD463" stroke="none" d="
M 34.3 -8.3
Q 29.3517578125 -9.144921875 21.25 -7.75 8.334765625 -5.4265625 -7.25 1.7 3.9005859375 3.5751953125 3.95 10.55 8.5 10.55 10.25 10.95 12.8 11.55 14.4 13.6 16.1 15.85 15.65 18.9 15.25 21.9 12.85 24.6 15.6693359375 32.926953125 3.75 38.55 -13.6 41.795703125 -21.05 30.5 -25.1552734375 24.0869140625 -23.5 16 -22.45 10.75 -14.95 1.8 -24.6 6.15 -26.45 15.35
L -26.45 15.4
Q -28.3291015625 24.716796875 -23.55 32.1 -15.1962890625 45.237890625 4.6 41.45
L 9 40.4
Q 23.9787109375 36.4216796875 35.6 18.5 37.8009765625 15.115625 39.35 11.95
L 39.35 11.9
Q 41.1208984375 8.1666015625 41.95 4.75 42.9619140625 0.556640625 42.35 -2.1
L 42.35 -2.1
Q 41.8580078125 -4.2615234375 40.45 -5.55
L 40.5 -5.55
Q 38.3744140625 -7.612109375 34.3 -8.3
M 21.8 -4.75
Q 26.540625 -5.5923828125 30.1 -5.6
L 5.1 5.5
Q 3.47421875 2.86640625 -0.35 1.95 11.580859375 -2.937109375 21.8 -4.75
M 33.85 -5.4
Q 36.75 -4.95 38.4 -3.35
L 38.45 -3.35
Q 39.1666015625 -2.65234375 39.45 -1.5
L 16.55 11.5
Q 13.4712890625 7.8109375 6.2 8.05 5.9978515625 7.1595703125 5.6 6.4
L 32.4 -5.5 33.85 -5.4
M 34.7 14.25
Q 33.9603515625 15.5462890625 33.1 16.85 23.7486328125 31.27578125 12.15 36.15 16.18046875 32.1900390625 16.25 27.95 16.26171875 27.693359375 16.25 27.4
L 34.7 14.25
M 39.05 4.05
Q 38.25 7.05 35.85 12.15
L 16.15 26.25
Q 16.078515625 25.676953125 15.9 25.1 18.3 22.55 18.6 18.4 18.8 15 17.75 13.3
L 17.15 12.35 39.55 -0.45
Q 39.6837890625 1.4330078125 39.05 4.05 Z"/>
</g>

<g id="FS_Skull_0_Layer0_0_FILL">
<path fill="#FDF6AE" stroke="none" d="
M -13.1 -42.35
Q -21.1 -39.7 -28.55 -34.05 -31.85 -31.5 -35.3 -27.95 -40.25 -22.8 -42.85 -11.5 -44.6458984375 -3.5529296875 -44.85 1.85 -45.012890625 7.3087890625 -44.25 14.15 -43.4365234375 20.9841796875 -42.3 24.2 -41.1564453125 27.423828125 -40.55 28.85 -39.898046875 30.31015625 -39.95 31.45
L -33.15 31.55
Q -19.908203125 42.349609375 -3.55 45.95 12.84921875 49.6044921875 18.65 48.75 26.2490234375 43.9646484375 33.6 36.15 40.988671875 28.38125 46 11.5 51.009375 -5.39296875 48.1 -15.3 46.64609375 -20.2318359375 44.05 -24.7 41.2005859375 -29.57109375 36.95 -33.85 25.890625 -44.9564453125 5.35 -45.05 -4.85 -45.1 -13.1 -42.35 Z"/>

<path fill="#EBD463" stroke="none" d="
M -30.35 -36.45
Q -32.1 -35.1 -37.65 -29 -42.2 -23.95 -45 -14.9 -47.8490234375 -5.702734375 -47.6 4.85 -47.3529296875 15.408203125 -45.55 22.45 -43.74609375 29.5390625 -41.05 31.4
L -40.8 31.4
Q -39.876171875 32.57734375 -39.95 31.45 -39.898046875 30.31015625 -40.55 28.85 -41.1564453125 27.423828125 -42.3 24.2 -43.4365234375 20.9841796875 -44.25 14.15 -45.012890625 7.3087890625 -44.85 1.85 -44.6458984375 -3.5529296875 -42.85 -11.5 -40.25 -22.8 -35.3 -27.95 -31.85 -31.5 -28.55 -34.05 -21.1 -39.7 -13.1 -42.35 -4.85 -45.1 5.35 -45.05 25.890625 -44.9564453125 36.95 -33.85 41.2005859375 -29.57109375 44.05 -24.7
L 44.05 -30.2
Q 41.857421875 -33.186328125 39.1 -35.95 27.309765625 -47.94375 5.35 -48.05 -5.4 -48.1 -14.15 -45.2 -22.55 -42.4 -30.35 -36.45 Z"/>
</g>

<g id="Mask_Mask_FS_EyeWhite_3_4far_0_Layer0_0_FILL">
<path fill="#FFFFFF" stroke="none" d="
M 18.15 -15.65
Q 9.84765625 -21.6255859375 2.55 -22.05 -4.7708984375 -22.42109375 -11.2 -16 -17.4994140625 -9.6044921875 -19.45 -0.2 -21.3234375 9.20390625 -17.7 16 -14.0943359375 22.9564453125 -6.85 23.35 0.433203125 23.78125 9.85 17 19.302734375 10.2376953125 22.85 0.3 26.469140625 -9.6103515625 18.15 -15.65 Z"/>
</g>

<g id="FS_EyeWhite_3_4far_0_Layer0_0_FILL">
<path fill="#FFFFFF" stroke="none" d="
M 18.15 -15.65
Q 9.84765625 -21.6255859375 2.55 -22.05 -4.7708984375 -22.42109375 -11.2 -16 -17.4994140625 -9.6044921875 -19.45 -0.2 -21.3234375 9.20390625 -17.7 16 -14.0943359375 22.9564453125 -6.85 23.35 0.433203125 23.78125 9.85 17 19.302734375 10.2376953125 22.85 0.3 26.469140625 -9.6103515625 18.15 -15.65 Z"/>
</g>

<g id="FS_Iris_2_Layer1_0_FILL">
<path fill="url(#Gradient_1)" stroke="none" d="
M 17.7 -13.05
Q 13.45 -21.1 5.25 -22.95 -3 -24.85 -10.3 -19.4 -17.6 -14 -19.75 -4.45 -20.922265625 0.6119140625 -20 7.1 -19.662109375 8.449609375 -19.2 9.75
L -18.6 11.2
Q -18.1958984375 12.1607421875 -17.7 13.1 -13.45 21.15 -5.2 23 3 24.85 10.3 19.45 17.6 14 19.8 4.5 21.95 -5 17.7 -13.05 Z"/>
</g>

<g id="FS_Iris_2_Layer0_0_FILL">
<path fill="#8AD2D5" stroke="none" d="
M 5.65 8.25
L 0 6.65 13.2 17
Q 15.85 14.1 17.35 11.3 16.4 11.3 5.65 8.25 Z"/>
</g>

<g id="FS_Iris_2_Layer0_1_FILL">
<path fill="#3DBFBB" stroke="none" d="
M 17.2 11.6
Q 18.75 8.4 19.6 5.3 9.55 6.05 -0.4 6.65
L 17.2 11.6 Z"/>
</g>

<g id="FS_Pupil_0_Layer0_0_FILL">
<path fill="#000000" stroke="none" d="
M 12.45 -9.9
Q 10.5203125 -16.0232421875 5.5 -17.5 0.487109375 -18.9470703125 -4.7 -14.9 -9.854296875 -10.7671875 -12.15 -3.55 -14.402734375 3.7013671875 -12.5 9.8 -10.484375 16.0318359375 -5.45 17.5 -0.4265625 18.9556640625 4.7 14.8 9.91484375 10.7759765625 12.15 3.55 14.43828125 -3.692578125 12.45 -9.9 Z"/>
</g>

<g id="FS_Hilights_0_Layer1_0_FILL">
<path fill="#FFFFFF" stroke="none" d="
M -8.15 11.5
Q -8.11953125 11.614453125 -8.1 11.7 -8.0240234375 11.8134765625 -7.95 11.95 -7.7912109375 12.381640625 -7.55 12.75 -7.4705078125 12.844140625 -7.4 12.9 -7.2078125 13.113671875 -6.95 13.3 -6.50546875 13.6888671875 -6.05 13.8 -5.996875 13.8515625 -5.95 13.85 -5.6171875 13.9560546875 -5.2 13.95 -3.9484375 13.97890625 -3.4 12.75 -3.3849609375 12.698046875 -3.4 12.65 -3.1736328125 12.1291015625 -3.25 11.35 -3.259765625 11.128515625 -3.35 10.85 -3.3462890625 10.7740234375 -3.4 10.7 -3.7330078125 9.7962890625 -4.4 9.15 -4.435546875 9.108203125 -4.5 9.05 -4.72890625 8.870703125 -4.9 8.75 -5.579296875 8.305859375 -6.3 8.4 -7.123828125 8.352734375 -7.65 8.9 -7.813671875 9.0921875 -8 9.35 -8.0568359375 9.446484375 -8.1 9.55 -8.510546875 10.357421875 -8.15 11.5
M 3.85 -8.7
L 3.8 -8.75
Q 1.3921875 -11.8771484375 -1.15 -11.7 -4.233984375 -11.8736328125 -5.6 -8.2
L -5.6 -8.15
Q -6.528125 -5.45625 -5.75 -1.6 -5.0052734375 2.07265625 -3.05 4.6
L -3.05 4.6
Q -0.6041015625 7.82109375 2 7.65 5.12890625 7.837890625 6.4 4 7.375390625 1.40078125 6.6 -2.4
L 6.6 -2.45
Q 5.8041015625 -6.1376953125 3.85 -8.7 Z"/>
</g>

<g id="Mask_Mask_FS_EyeWhite_3_4_0_Layer0_0_FILL">
<path fill="#FFFFFF" stroke="none" d="
M 15.3 -16.8
Q 12.05 -25.85 4.7 -27.8 -2.55 -29.75 -9.55 -23.45 -16.6 -17.15 -19.25 -6.25 -21.95 4.7 -18.7 13.75 -15.45 22.8 -8.2 24.8 -0.9 26.75 6.15 20.4 13.2 14.15 15.9 3.2 18.6 -7.7 15.3 -16.8 Z"/>
</g>

<g id="FS_EyeWhite_3_4_0_Layer0_0_FILL">
<path fill="#FFFFFF" stroke="none" d="
M 15.3 -16.8
Q 12.05 -25.85 4.7 -27.8 -2.55 -29.75 -9.55 -23.45 -16.6 -17.15 -19.25 -6.25 -21.95 4.7 -18.7 13.75 -15.45 22.8 -8.2 24.8 -0.9 26.75 6.15 20.4 13.2 14.15 15.9 3.2 18.6 -7.7 15.3 -16.8 Z"/>
</g>

<g id="FS_Iris_0_Layer1_0_FILL">
<path fill="url(#Gradient_1)" stroke="none" d="
M 17.7 -13.05
Q 13.45 -21.1 5.25 -22.95 -3 -24.85 -10.3 -19.4 -17.6 -14 -19.75 -4.45 -20.922265625 0.6119140625 -20 7.1 -19.662109375 8.449609375 -19.2 9.75
L -18.6 11.2
Q -18.1958984375 12.1607421875 -17.7 13.1 -13.45 21.15 -5.2 23 3 24.85 10.3 19.45 17.6 14 19.8 4.5 21.95 -5 17.7 -13.05 Z"/>
</g>

<g id="FS_Iris_0_Layer0_0_FILL">
<path fill="#8AD2D5" stroke="none" d="
M -6.5 8
Q -17.6794921875 11.2681640625 -18.65 11.25 -17.6072265625 14.0123046875 -15.4 16.75
L 0.1 6.75 -6.5 8 Z"/>
</g>

<g id="FS_Iris_0_Layer0_1_FILL">
<path fill="#3DBFBB" stroke="none" d="
M -20.25 5.4
Q -19.7828125 8.4513671875 -18.6 11.3
L 0.4 6.6 -20.25 5.4 Z"/>
</g>

<g id="FS_Blink_3_4far_0_Layer9_0_FILL">
<path fill="#000000" stroke="none" d="
M 2.6 -21.15
Q 4.5849609375 -21.360546875 5.7 -15.1 6.79921875 -8.811328125 6.45 0.25 6.1400390625 9.3076171875 4.55 15.75 4.32890625 16.8455078125 4.05 17.75 4.808984375 15.928125 5.35 13.5 5.7642578125 11.9158203125 6.05 10.15 6.2 9.5484375 6.25 8.8 6.7927734375 5.698046875 7.3 0.6 7.81484375 -4.44296875 7.7 -10.65 6.848046875 -23.696875 3.45 -23.25 0.54765625 -22.861328125 -2.55 -14.25 -2.29921875 -14.7767578125 -2.05 -15.3 0.6708984375 -20.888671875 2.6 -21.15 Z"/>
</g>

<g id="FS_Blink_3_4far_0_Layer7_0_FILL">
<path fill="#FDF6AE" stroke="none" d="
M 1.25 -14.05
Q 4.677734375 -16.2392578125 7.45 -14.4 6.4548828125 -23.9072265625 3.5 -23.65 0.1068359375 -23.3212890625 -3.45 -11.9 -3.8787109375 -10.280078125 -4.2 -8.45 -1.59609375 -12.2189453125 1.25 -14.05 Z"/>
</g>

<g id="FS_Blink_3_4far_0_Layer4_0_FILL">
<path fill="#000000" stroke="none" d="
M 7.4 -14.25
Q 7.002734375 -17.1263671875 4.95 -17.4 2.1318359375 -17.694140625 -1.1 -13.95 -4.3326171875 -10.2001953125 -5.45 -6.5
L -6.3 -2.75
Q -6.61015625 -1.366015625 -7.6 0.3
L -5.7 0
Q -4.857421875 -0.7943359375 -4.2 -3.95 -3.540234375 -7.11015625 -1.85 -9.35 -0.1083984375 -11.530859375 1.55 -12.85 3.26171875 -14.1234375 4.6 -14 5.9328125 -13.8228515625 6.15 -11.75
L 7.4 -14.25 Z"/>
</g>

<g id="FS_Blink_3_4far_0_Layer3_0_FILL">
<path fill="#000000" stroke="none" d="
M -5.15 -5.6
L -4.55 -8.05
Q -6.92890625 -5.552734375 -11.05 -5.8 -9.8955078125 -3.92578125 -5.15 -5.6
M -13.15 -0.6
Q -13.07734375 -0.5453125 -13 -0.5 -11.0447265625 1.411328125 -7.5 -0.05 -10.25859375 3.0580078125 -13.05 3.85 -13.5392578125 3.9900390625 -14.05 4.05 -13.5587890625 4.3759765625 -13 4.5 -12.69453125 4.5548828125 -12.4 4.55 -8.5205078125 4.3205078125 -5.45 -0.3 -5.4396484375 -0.3271484375 -5.45 -0.35
L -7.35 -0.1
Q -7.25703125 -0.1521484375 -7.15 -0.2 -6.153125 -1.827734375 -6.05 -2.65 -9.555078125 0.0271484375 -13 -0.6 -13.0744140625 -0.5884765625 -13.15 -0.6 Z"/>
</g>

<g id="FS_Blink_3_4_0_Layer5_0_FILL">
<path fill="#000000" stroke="none" d="
M 3.9 -28.3
Q 2.6283203125 -28.579296875 1.35 -28.7 -4.6439453125 -29.078515625 -10.25 -24.75 -11.7181640625 -23.5576171875 -13 -22.2 -17.4087890625 -17.401953125 -18.9 -10.25 -19.5439453125 -6.9607421875 -19.9 -3.95 -20.534765625 1.5740234375 -20.15 6.3 -20.158203125 1.678125 -18.95 -3.35 -18.7609375 -4.0185546875 -18.6 -4.7 -15.9060546875 -14.323046875 -9.65 -20.2 1.74921875 -30.1068359375 10.75 -21.8 10.882421875 -21.6779296875 11 -21.55 13.90546875 -18.748828125 15.65 -13.95 16.3888671875 -11.873828125 16.8 -9.75 16.4884765625 -14.0923828125 14.85 -18.1 11.35234375 -26.50703125 3.9 -28.3 Z"/>
</g>

<g id="FS_Blink_3_4_0_Layer4_0_FILL">
<path fill="#FDF6AE" stroke="none" d="
M 4.35 -29.75
Q 2.9921875 -30.0806640625 1.65 -30.2 -4.99375 -30.6798828125 -11.25 -24.95 -12.3427734375 -23.9171875 -13.35 -22.8 -13.3947265625 -22.7375 -13.45 -22.7 -12.3595703125 -22.6630859375 -11.25 -22.7 -10.9 -22.5 -10.8 -22.35
L -8.9 -22.05 -6.85 -22.35 -5.45 -22.2
Q -1.35 -20.55 2.35 -17.5 3.25 -17.2 3.6 -16.75 3.75 -16.55 3.9 -16.1
L 4.25 -15.95 5 -14.7
Q 6.55 -13.05 7.75 -11.45 7.95 -11.2 8.15 -10.95 11.45 -5.9 14.55 -1.1 15.8923828125 2.197265625 17.4 5.65 17.58125 4.9947265625 17.7 4.3 20.319921875 -7.6388671875 16.4 -17.65 12.496484375 -27.56875 4.35 -29.75 Z"/>
</g>

<g id="FS_Blink_3_4_0_Layer3_0_FILL">
<path fill="#000000" stroke="none" d="
M 6.45 22.2
L 4.6 23.6
Q 6.1939453125 26.837109375 5.95 29.8 5.6958984375 32.807421875 7.05 29.05 8.4173828125 25.300390625 6.45 22.2
M 10 18.55
L 8.75 20.05
Q 11.8150390625 21.620703125 12.95 24.6 13.6880859375 26.43359375 13.95 28.65 15.7818359375 24.8724609375 13.7 21.65 12.176953125 19.2923828125 10 18.55 Z"/>
</g>

<g id="FS_Blink_3_4_0_Layer3_1_FILL">
<path fill="#000000" stroke="none" d="
M 11.35 16.2
L 10.15 18
Q 14.18828125 17.88203125 16.95 19.45 18.5791015625 20.37578125 19.9 21.9 19.8611328125 18.6484375 16.25 17.1 13.638671875 15.9990234375 11.35 16.2 Z"/>
</g>

<g id="FS_Blink_3_4_0_Layer2_0_FILL">
<path fill="#000000" stroke="none" d="
M 1.85 -14.95
Q 6.38203125 -11.1921875 9.65 -6 12.92421875 -0.81171875 15.35 4.05 17.8314453125 8.955078125 24.15 10.25 30.519140625 11.5494140625 34.25 8.1 28.6263671875 9.640234375 23.55 7.35 19.06015625 5.3087890625 16.6 0.75 13.4626953125 -5.630078125 9.55 -11.7 6.5115234375 -16.5841796875 2 -20.65 -2.546875 -24.74296875 -7.9 -24.8 -12.5234375 -24.6681640625 -15.35 -19
L -12.4 -17.5
Q -10.2337890625 -20.208203125 -7.4 -19.75 -2.6158203125 -18.6203125 1.85 -14.95 Z"/>
</g>

<g id="FS_Blink_3_4_0_Layer1_0_FILL">
<path fill="#000000" stroke="none" d="
M 26 5.35
Q 29.4328125 4.07890625 31.25 0.95 24.32421875 5.0740234375 17.15 2.65 18.583203125 5.0240234375 18.8 5.35 22.264453125 6.8734375 26 5.35
M 18.9 -3.95
Q 15.1314453125 -3.6337890625 12.45 -5.55 13.303125 -2.3904296875 13.4 -2.3 15.293359375 -0.5287109375 19.9 -1.9 24.5140625 -3.34140625 25.5 -6 22.076953125 -4.24296875 18.9 -3.95 Z"/>
</g>

<g id="FS_Mouth_3_4_3_Layer10_0_FILL">
<path fill="#FDF6AE" stroke="none" d="
M -24.5 -8.35
Q -24.592578125 -7.3197265625 -23.95 -6.5 -10.1201171875 11.1193359375 15.85 16.75 19.967578125 17.2029296875 26.5 14.35 -2.0705078125 7.620703125 -11.25 -1.45 -20.419921875 -10.4630859375 -22.15 -12.2 -24.358984375 -9.365234375 -24.5 -8.35 Z"/>
</g>

<g id="FS_Mouth_3_4_3_Layer8_0_FILL">
<path fill="#FDF6AE" stroke="none" d="
M -22.25 -14.05
L -22.85 -13.7
Q -23.9517578125 -10.9828125 -26.1 -8.85 -27.6826171875 -7.1701171875 -30.05 -6.55 -30.0603515625 -6.513671875 -30.1 -6.5 -30.397265625 -6.4162109375 -30.9 -6.3 -31.4837890625 -6.1353515625 -32.4 -5.95 -33.109765625 -5.7384765625 -34.05 -5.55
L -34.1 -5.5
Q -36.7513671875 -4.51171875 -35.65 -1.25
L -36.05 -1.05
Q -33.897265625 4.249609375 -31.1 6.45 -28.312890625 8.6248046875 -26.4 9.1 -23.675390625 9.6388671875 -19.4 6.85 -17.6466796875 3.96875 -16.35 1.5 -18.457421875 -3.816015625 -22.25 -14.05 Z"/>

<path fill="#EBD463" stroke="none" d="
M -22.85 -13.7
Q -22.796875 -13.8173828125 -22.75 -13.95 -22.88046875 -13.776171875 -23.05 -13.6 -23.95546875 -12.461328125 -25 -11.65 -25.7365234375 -11.0787109375 -26.55 -10.7 -26.8619140625 -10.48125 -27.25 -10.3 -28.14921875 -9.893359375 -29.35 -9.55 -29.6294921875 -9.472265625 -29.95 -9.4 -30.3876953125 -9.3015625 -30.9 -9.2 -30.9447265625 -9.1884765625 -31 -9.2 -32.33359375 -8.88984375 -34.6 -8.4 -34.6974609375 -8.3587890625 -34.85 -8.35 -34.871875 -8.3130859375 -34.95 -8.3 -35.7884765625 -8.0724609375 -36.45 -7.75 -36.8787109375 -7.54453125 -37.25 -7.3 -38.0189453125 -6.7458984375 -38.4 -6 -39.7779296875 -3.8662109375 -38.7 -0.7 -36.980859375 -0.5140625 -36.05 -1.05
L -35.65 -1.25
Q -36.7513671875 -4.51171875 -34.1 -5.5
L -34.05 -5.55
Q -33.109765625 -5.7384765625 -32.4 -5.95 -31.4837890625 -6.1353515625 -30.9 -6.3 -30.397265625 -6.4162109375 -30.1 -6.5 -30.0603515625 -6.513671875 -30.05 -6.55 -27.6826171875 -7.1701171875 -26.1 -8.85 -23.9517578125 -10.9828125 -22.85 -13.7 Z"/>
</g>

<g id="FS_Mouth_3_4_3_Layer7_0_FILL">
<path fill="#FDF6AE" stroke="none" d="
M 31.25 14
Q 30.6384765625 14 30 14 -1.05 14 -14.8 0.5 -16.588671875 -1.2501953125 -18 -3.2
L -18 0.45
Q -13.1283203125 6.41640625 -13.45 11 -13.5 11.95078125 -13.8 12.8 -13.78515625 13.17734375 -13.8 13.55 -14.5201171875 15.9841796875 -16.9 18
L -12.9 18.95
Q -4.5541015625 20.9498046875 6.35 19.85 16.677734375 18.8359375 31.25 14 Z"/>

<path fill="#EBD463" stroke="none" d="
M 10.7 21.55
Q 25.5953125 18.9962890625 31.7 14 31.5052734375 13.998046875 31.25 14 16.677734375 18.8359375 6.35 19.85 -4.5541015625 20.9498046875 -12.9 18.95
L -16.9 18 -21.25 19.55
Q -17.95 20.91484375 -14.15 21.85 -4.65 24.2111328125 10.7 21.55 Z"/>
</g>

<g id="FS_MouthInterior_0_Layer2_0_FILL">
<path fill="#BE1C79" stroke="none" d="
M -3.3 -11
Q -2.226953125 -4.9369140625 -7 -1.55 1.848828125 3.970703125 3.35 11
L 5.4 7.45
Q 9.079296875 0.5671875 -3.3 -11 Z"/>
</g>

<g id="FS_MouthInterior_0_Layer1_0_FILL">
<path fill="#F37033" stroke="none" d="
M 4.3 -1.4
Q 3.9646484375 -1.660546875 3.15 -0.3 2.3431640625 1.0697265625 2.25 2.75 2.2125 4.484765625 2.9 5.7 3.5642578125 6.9185546875 4.4 7.2 4.9861328125 7.4013671875 5.6 6.95 6.3748046875 6.4216796875 6.25 5.2 6.2169921875 4.3318359375 5.55 3.1 5.0439453125 2.0748046875 5.15 1.25 5.41328125 -0.6021484375 4.3 -1.4 Z"/>
</g>

<g id="FS_Mouth_3_4_3_Layer4_0_FILL">
<path fill="#EBD463" stroke="none" d="
M -16.75 -3.3
L -16.75 -2.3
Q -17.45 3.1 -20.85 5.7 -23.1 7.4 -26.45 7.15 -28.95 6.95 -30.55 6 -33.35 4.35 -35.6 -1.25 -38.95 -1.35 -38.6 -0.45 -35.748828125 6.358984375 -31.7 8.5 -26.4173828125 10.894140625 -20.95 8.9
L -21.35 8.95
Q -20.3826171875 8.6236328125 -19.75 8.1 -18.25 6.85 -17.1 4.8 -15.9 2.65 -16.1 1.35 -13.85 7.3 -14.65 11.05
L -14.7 11.3
Q -15.05 13.45 -16.7 15.25 -17.65 16.3 -21.2 19.5 -18.45 19.7 -17.85 19.35 -17 18.9 -15.1 17 -13.2 14.9 -12.7 11.85
L -12.65 11.6
Q -12.4 8.95 -12.95 6.25 -14.75 -0.5 -16.75 -3.3 Z"/>
</g>

<g id="FS_Nostril_3_4_0_Layer0_0_FILL">
<path fill="#EBD463" stroke="none" d="
M 1.2 2.35
Q 2.95 1.9 2.55 -2.4 1.95 0.3 0.6 0.75 -0.8 1 -2.6 0.3 -0.65 2.55 1.2 2.35 Z"/>
</g>

<g id="FS_Hair_05_6_Layer1_0_FILL">
<path fill="#F4B6D1" stroke="none" d="
M 44.85 -1.7
Q 45.0072265625 -1.6888671875 45.15 -1.65
L 46.75 -15.7
Q 25.59609375 -25.4107421875 14.9 -28.1 4.19453125 -30.730078125 -0.4 -30.85 -1.9265625 -30.899609375 -3.4 -30.9 -13.0154296875 -30.8923828125 -20.3 -28.9 -25.0646484375 -27.6130859375 -28.65 -25.35 -29.1216796875 -25.0056640625 -29.6 -24.7 -31.149609375 -23.5447265625 -32.5 -22.2 -37.7373046875 -16.8763671875 -37.1 -9.8 -36.4919921875 -3.765625 -30.55 1.75 -26.7609375 5.309375 -19.3 9.65 -17.7314453125 10.588671875 -16.2 11.45 -23.896875 1.6408203125 -25.75 -8.35 -26.600390625 -13.3396484375 -24.8 -17.05 -24.262890625 -18.1337890625 -23.55 -19.05 -23.1810546875 -19.4212890625 -22.8 -19.8 -16.8134765625 -23.64453125 -14.4 -23.4 -16.087109375 -22.51796875 -18.1 -20.75 -18.3064453125 -20.5287109375 -19.1 -18.85 -22.6162109375 -16.757421875 -22.9 -11.1 -22.8787109375 -9.66953125 -22.65 -8.05 -21.5970703125 -0.6306640625 -14.4 12.45 -7.7728515625 16.0533203125 -1.85 18.6 2.8609375 10.20625 13 4.75 27.18359375 -2.7615234375 44.85 -1.7 Z"/>

<path fill="#E781B3" stroke="none" d="
M 46.4 -1.05
Q 45.74453125 -1.531640625 45.15 -1.65 45.0072265625 -1.6888671875 44.85 -1.7 27.18359375 -2.7615234375 13 4.75 2.8609375 10.20625 -1.85 18.6 -7.7728515625 16.0533203125 -14.4 12.45 -21.5970703125 -0.6306640625 -22.65 -8.05 -22.8787109375 -9.66953125 -22.9 -11.1 -22.6162109375 -16.757421875 -19.1 -18.85 -18.3064453125 -20.5287109375 -18.1 -20.75 -16.087109375 -22.51796875 -14.4 -23.4 -16.8134765625 -23.64453125 -22.8 -19.8 -23.1810546875 -19.4212890625 -23.55 -19.05 -24.262890625 -18.1337890625 -24.8 -17.05 -26.600390625 -13.3396484375 -25.75 -8.35 -23.896875 1.6408203125 -16.2 11.45 -17.7314453125 10.588671875 -19.3 9.65 -26.7609375 5.309375 -30.55 1.75 -36.4919921875 -3.765625 -37.1 -9.8 -37.7373046875 -16.8763671875 -32.5 -22.2 -31.149609375 -23.5447265625 -29.6 -24.7 -29.1216796875 -25.0056640625 -28.65 -25.35 -25.0646484375 -27.6130859375 -20.3 -28.9 -13.0154296875 -30.8923828125 -3.4 -30.9 -1.9265625 -30.899609375 -0.4 -30.85 4.19453125 -30.730078125 14.9 -28.1 25.59609375 -25.4107421875 46.75 -15.7
L 46.75 -17.45
Q 35.0609375 -24.2701171875 21.35 -28.55 7.63359375 -32.83828125 -1.55 -33.1 -3.0681640625 -33.1498046875 -4.55 -33.15 -7.482421875 -33.1302734375 -10.05 -32.95 -23.183984375 -31.9404296875 -30.75 -27.3 -31.2244140625 -26.97890625 -31.7 -26.65 -32.876171875 -25.8611328125 -33.9 -25 -38.5765625 -20.8259765625 -39.9 -15.2 -41.2564453125 -9.2060546875 -38.2 -4 -33.231640625 4.43046875 -19.85 11.85 -16.0212890625 14.0046875 -12.5 15.8 -7.328125 18.4634765625 -2.8 20.45 -1.280859375 21.08046875 0.15 21.65 0.2982421875 21.348828125 0.45 21.05 0.5068359375 20.92421875 0.55 20.8 0.57578125 20.750390625 0.6 20.7 0.8345703125 20.255859375 1.05 19.8 5.585546875 11.604296875 15.35 6.2 29.0423828125 -1.3970703125 46.15 -0.4 47.4796875 -0.3171875 46.55 -0.95 46.47734375 -1.0060546875 46.4 -1.05 Z"/>
</g>

<g id="FS_Ear_2_Layer1_0_FILL">
<path fill="#FDF6AE" stroke="none" d="
M 1.5 -40.65
L 1.5 -40.65
Q -0.4720703125 -42.0763671875 -1.65 -42.55 -5.2015625 -39.616015625 -8.75 -30.45 -12.8826171875 -19.8533203125 -13.5 -10.8 -13.2416015625 -5.48203125 -6.75 -4.1 10.447265625 18.96171875 13 20.6
L 13.75 19.35 13.75 19.3
Q 18.0880859375 12.2681640625 18.8 3.65 19.183984375 -1.172265625 18.35 -9.35 16.7498046875 -23.881640625 8 -34.45 4.9296875 -38.1494140625 1.5 -40.65
M 6.95 -13.2
Q 6.291796875 -19.99140625 4.05 -26.35 7.77265625 -21.4501953125 8.95 -11.4 10.08671875 -1.7115234375 6.85 4.85 6.771484375 5.1154296875 6.65 5.35 6.691796875 5.0984375 6.7 4.85 6.738671875 4.7623046875 6.75 4.65 7.920703125 -3.00390625 6.95 -13.2 Z"/>

<path fill="#EBD463" stroke="none" d="
M 4.05 -26.35
Q 6.291796875 -19.99140625 6.95 -13.2 7.920703125 -3.00390625 6.75 4.65 6.738671875 4.7623046875 6.7 4.85 6.691796875 5.0984375 6.65 5.35 6.771484375 5.1154296875 6.85 4.85 10.08671875 -1.7115234375 8.95 -11.4 7.77265625 -21.4501953125 4.05 -26.35
M 10.3 -36.35
Q 6.9703125 -40.35078125 3.25 -43.05
L 3.25 -43.1
Q -0.0212890625 -45.455078125 -1.7 -45.7 -2.28046875 -45.777734375 -2.8 -45.45 -7.2623046875 -42.6033203125 -11.55 -31.55 -16.017578125 -20.0462890625 -13.5 -10.8 -12.8826171875 -19.8533203125 -8.75 -30.45 -5.2015625 -39.616015625 -1.65 -42.55 -0.4720703125 -42.0763671875 1.5 -40.65
L 1.5 -40.65
Q 4.9296875 -38.1494140625 8 -34.45 16.7498046875 -23.881640625 18.35 -9.35 19.183984375 -1.172265625 18.8 3.65 18.0880859375 12.2681640625 13.75 19.3
L 13.75 19.35 13 20.6
Q 16.1837890625 19.6201171875 19.2 12.85 20.660546875 8.46875 21.4 3.15 21.8 0.25 21.8 -2.6 21.75 -5.35 21.35 -9.65
L 21.35 -9.7
Q 19.642578125 -25.1271484375 10.3 -36.35 Z"/>
</g>

<g id="FS_Hair_03_9_Layer1_0_FILL">
<path fill="#F4B6D1" stroke="none" d="
M -15.3 20.95
Q -12.4958984375 13.1728515625 -10.55 1.95 -9.33515625 -5.08984375 -9.55 -10.7 -19.1537109375 -4.50703125 -22.45 10.95
L -24.65 20.6
Q -26.1009765625 26.412890625 -27.65 29.9 -30.7328125 37.108203125 -36 40.55 -40.547265625 43.6015625 -46.75 41.9 -53.25546875 40.2078125 -54 34.7 -54.1966796875 33.023046875 -53.4 31.7
L -54.25 31.65
Q -54.567578125 32.483203125 -54.85 33.4 -56.44765625 38.8580078125 -55.55 44.6 -54.0509765625 45.4767578125 -52.3 46.15 -44.3921875 49.1947265625 -37.1 47.4 -24.8828125 44.4599609375 -17 25.3 -16.0857421875 23.177734375 -15.3 20.95
M -45 58.35
Q -47.4171875 57.7123046875 -49.85 56.8 -43.181640625 63.76328125 -30.8 62.4 -19.2693359375 61.159375 -10.15 54.45 -15.8212890625 56.9150390625 -22.25 58.5 -33.6568359375 61.3353515625 -44.95 58.35
L -45 58.35
M 18.55 -4.05
Q 15.61015625 -10.8939453125 2 -12.95 -3.3474609375 -13.4736328125 -7.75 -11.45
L -9.05 1.95
Q -10.46640625 12.28828125 -13.4 21 -15.2298828125 26.7404296875 -17.7 31.55 -26.0580078125 47.8919921875 -39.4 48.65 -46.0513671875 49.0701171875 -52.45 46.6 -53.3029296875 46.301953125 -54.15 45.9 -54.8228515625 45.619140625 -55.45 45.3 -54.4109375 51.08359375 -51.1 55.3 -50.7478515625 55.77734375 -50.4 56.2 -47.5982421875 57.353515625 -44.9 58.05 -32.5521484375 61.378515625 -16 55.6 -11.0904296875 53.905078125 -6.15 51.05
L -6.1 51
Q 1.2689453125 43.7201171875 8.5 29.35 10.1947265625 26.087109375 12 21.95
L 18.55 6.45
Q 19.9310546875 1.2 18.55 -4.05 Z"/>

<path fill="#E781B3" stroke="none" d="
M 15.15 22.05
L 21.05 7.95
Q 27.2802734375 -12.8650390625 1.4 -15.55 -19.2064453125 -17.0857421875 -26.85 16.85 -27.3349609375 18.456640625 -27.8 20.45 -28.283203125 22.6013671875 -28.7 23.95 -30.8541015625 31.1642578125 -34.55 35.45 -37.190234375 38.5373046875 -40.45 39.8 -44.2509765625 41.2671875 -47.6 39.4 -49.7681640625 38.1873046875 -50.7 36.1 -51.13828125 35.01328125 -51 34.05 -50.4685546875 32.0548828125 -53.4 31.7 -54.1966796875 33.023046875 -54 34.7 -53.25546875 40.2078125 -46.75 41.9 -40.547265625 43.6015625 -36 40.55 -30.7328125 37.108203125 -27.65 29.9 -26.1009765625 26.412890625 -24.65 20.6
L -22.45 10.95
Q -19.1537109375 -4.50703125 -9.55 -10.7 -9.33515625 -5.08984375 -10.55 1.95 -12.4958984375 13.1728515625 -15.3 20.95 -16.0857421875 23.177734375 -17 25.3 -24.8828125 44.4599609375 -37.1 47.4 -44.3921875 49.1947265625 -52.3 46.15 -54.0509765625 45.4767578125 -55.55 44.6 -56.44765625 38.8580078125 -54.85 33.4 -54.567578125 32.483203125 -54.25 31.65 -57.707421875 30.8158203125 -58.35 33.45 -58.6986328125 34.9080078125 -58.9 36.55 -59.1798828125 39.5009765625 -59 42.25 -58.9359375 42.7412109375 -58.9 43.2 -58.433984375 47.1412109375 -56.95 50.65 -56.164453125 52.3900390625 -55.2 53.9
L -55.25 53.9
Q -54.94921875 54.3236328125 -54.65 54.7 -50.581640625 60.4970703125 -43.2 63 -34.3453125 66.018359375 -24 63.55 -11.4810546875 60.579296875 -1.55 49.9 0.5052734375 47.6896484375 2.45 45.15 7.0185546875 39.1833984375 10.95 31.4 12.088671875 29.206640625 15.15 22.05
M 2 -12.95
Q 15.61015625 -10.8939453125 18.55 -4.05 19.9310546875 1.2 18.55 6.45
L 12 21.95
Q 10.1947265625 26.087109375 8.5 29.35 1.2689453125 43.7201171875 -6.1 51
L -6.15 51.05
Q -11.0904296875 53.905078125 -16 55.6 -32.5521484375 61.378515625 -44.9 58.05 -47.5982421875 57.353515625 -50.4 56.2 -50.7478515625 55.77734375 -51.1 55.3 -54.4109375 51.08359375 -55.45 45.3 -54.8228515625 45.619140625 -54.15 45.9 -53.3029296875 46.301953125 -52.45 46.6 -46.0513671875 49.0701171875 -39.4 48.65 -26.0580078125 47.8919921875 -17.7 31.55 -15.2298828125 26.7404296875 -13.4 21 -10.46640625 12.28828125 -9.05 1.95
L -7.75 -11.45
Q -3.3474609375 -13.4736328125 2 -12.95
M -49.85 56.8
Q -47.4171875 57.7123046875 -45 58.35
L -44.95 58.35
Q -33.6568359375 61.3353515625 -22.25 58.5 -15.8212890625 56.9150390625 -10.15 54.45 -19.2693359375 61.159375 -30.8 62.4 -43.181640625 63.76328125 -49.85 56.8 Z"/>
</g>

<g id="FS_Hair_01_6_Layer3_0_FILL">
<path fill="#F4B6D1" stroke="none" d="
M 66.05 0.45
L 66.05 0.45
Q 56.248828125 -1.5083984375 46.45 -2.8 50.448046875 1.739453125 53.8 6.3 72.092578125 31.308203125 79.55 67 82.0259765625 78.731640625 83.45 100.25 84.6201171875 118.52109375 82.5 132.75 81.641015625 138.4892578125 80.35 143.6
L 109.75 137.85
Q 111.1134765625 127.9126953125 111.55 118.55 113.2025390625 84.8697265625 107.25 60.5 100.2705078125 31.7341796875 77.5 10.05 72.437890625 5.2201171875 66.05 0.45
M 13.35 -3.6
Q 15.10625 -3.183984375 16.9 -2.7 18.975 -2.1021484375 21.1 -1.4 21.1982421875 -1.333203125 21.3 -1.3 25.7974609375 0.27734375 29.95 2.55 46.06484375 11.2943359375 57.35 30.4 71.2466796875 53.675 74.75 87.8 76.6654296875 105.787109375 74.9 121.3 73.9478515625 129.8154296875 71.4 137.8 70.653515625 140.0859375 68.65 143.1
L 68.65 143.15 78.55 143.5
Q 81.2462890625 133.5765625 82 122.05 82.81953125 108.7810546875 81.1 88.95 77.7703125 51.408203125 61.75 21.15 55.125390625 8.619140625 45 -3 41.5677734375 -3.42265625 38.1 -3.8 23.7828125 -5.3517578125 13.35 -3.6
M 111.45 32.25
Q 103.1365234375 16.4970703125 91.45 9.3 82.89296875 4.08046875 67.8 0.8 72.2009765625 4.134375 76 7.5 99.53125 28.2556640625 107.8 57.25 114.38359375 80.1328125 113.2 115.35 112.94609375 123.46640625 112.35 130.3
L 112.35 130.35
Q 112.69609375 129.507421875 113 128.75 127.9439453125 92.5828125 121.9 61.25 119.28046875 47.2314453125 111.45 32.25
M 16.8 -2.4
Q 14.655078125 -2.9919921875 12.45 -3.45 10.4029296875 -3.0490234375 7.05 -2.15 3.7126953125 -1.23671875 1.35 0.15 -0.9623046875 1.533203125 -0.95 1.6
L 2.25 6.25
Q 2.5501953125 7 2.45 7.1 2.4248046875 7.19765625 2.5 7.4
L 2.2 7.15
Q 2.022265625 7.031640625 1.75 6.8 3.2001953125 8.1384765625 3.2 8.15 3.2505859375 8.1107421875 3.3 8.05 4.423828125 6.7212890625 7.25 5.25 8.6974609375 4.58671875 10.65 4.05 18.69375 1.9888671875 28.75 7.35 38.0328125 12.2271484375 48.1 27.25 55.95390625 38.9048828125 61.1 52 71.6396484375 78.5599609375 71.7 110.9 71.7787109375 124.3935546875 69.55 137.9
L 69.6 137.85
Q 70.4330078125 135.7861328125 71.05 133.45 74.7470703125 119.8767578125 74.15 100.9 73.3439453125 69.95234375 62.95 44.45 50.776171875 14.398046875 29.75 3 25.4693359375 0.66015625 21.15 -0.95 21.051171875 -0.979296875 20.95 -1 18.8939453125 -1.7763671875 16.8 -2.4 Z"/>

<path fill="#E781B3" stroke="none" d="
M 12.45 -3.45
Q 14.655078125 -2.9919921875 16.8 -2.4 18.8939453125 -1.7763671875 20.95 -1 21.051171875 -0.979296875 21.15 -0.95 25.4693359375 0.66015625 29.75 3 50.776171875 14.398046875 62.95 44.45 73.3439453125 69.95234375 74.15 100.9 74.7470703125 119.8767578125 71.05 133.45 70.4330078125 135.7861328125 69.6 137.85
L 69.55 137.9
Q 71.7787109375 124.3935546875 71.7 110.9 71.6396484375 78.5599609375 61.1 52 55.95390625 38.9048828125 48.1 27.25 38.0328125 12.2271484375 28.75 7.35 18.69375 1.9888671875 10.65 4.05 8.6974609375 4.58671875 7.25 5.25 4.423828125 6.7212890625 3.3 8.05
L 3.3 8.05
Q 3.455859375 8.1515625 3.55 8.1 4.234765625 8.259765625 4.65 9.35 4.6900390625 9.4458984375 4.7 9.55 4.8677734375 9.43828125 5 9.3 14.00078125 2.989453125 25.15 8 34.0220703125 12.090625 42.1 23.1 59.97578125 47.247265625 65.55 79.65 71.13203125 112.058984375 68.15 128.3 65.2140625 144.5359375 65.65 143.9
L 68.65 143.15 68.65 143.1
Q 70.653515625 140.0859375 71.4 137.8 73.9478515625 129.8154296875 74.9 121.3 76.6654296875 105.787109375 74.75 87.8 71.2466796875 53.675 57.35 30.4 46.06484375 11.2943359375 29.95 2.55 25.7974609375 0.27734375 21.3 -1.3 21.1982421875 -1.333203125 21.1 -1.4 18.975 -2.1021484375 16.9 -2.7 15.10625 -3.183984375 13.35 -3.6 23.7828125 -5.3517578125 38.1 -3.8 41.5677734375 -3.42265625 45 -3 55.125390625 8.619140625 61.75 21.15 77.7703125 51.408203125 81.1 88.95 82.81953125 108.7810546875 82 122.05 81.2462890625 133.5765625 78.55 143.5
L 80.35 143.6
Q 81.641015625 138.4892578125 82.5 132.75 84.6201171875 118.52109375 83.45 100.25 82.0259765625 78.731640625 79.55 67 72.092578125 31.308203125 53.8 6.3 50.448046875 1.739453125 46.45 -2.8 56.248828125 -1.5083984375 66.05 0.45
L 66.05 0.45
Q 72.437890625 5.2201171875 77.5 10.05 100.2705078125 31.7341796875 107.25 60.5 113.2025390625 84.8697265625 111.55 118.55 111.1134765625 127.9126953125 109.75 137.85 110.8515625 140.176953125 112.65 137.75 114.002734375 134.528125 115.5 130.85 122.5345703125 113.7681640625 124.95 97.65 127.808203125 78.541015625 125.65 65.35 123.0181640625 49.38671875 116.1 35.5 108.194921875 19.4533203125 99.4 12.25 90.0421875 4.54609375 76.3 0.7 71.4796875 -0.615234375 63.85 -2.05
L 63.85 -2.05 62.55 -2.3
Q 62.3439453125 -2.3162109375 62.15 -2.35 56.2626953125 -3.4248046875 48.85 -4.55 46.5068359375 -4.912890625 44.25 -5.25
L 43.9 -5.3
Q 43.359765625 -5.34921875 42.8 -5.45
L 42.85 -5.4
Q 28.2421875 -7.2779296875 18.75 -6.55 11.80625 -6.0287109375 6.4 -4.5
L 5.9 -4.35
Q 1.4357421875 -2.9884765625 -1.95 -0.95 -2.43671875 -0.6041015625 -2.9 -0.1
L -0.95 1.6
Q -0.9623046875 1.533203125 1.35 0.15 3.7126953125 -1.23671875 7.05 -2.15 10.4029296875 -3.0490234375 12.45 -3.45
M 91.45 9.3
Q 103.1365234375 16.4970703125 111.45 32.25 119.28046875 47.2314453125 121.9 61.25 127.9439453125 92.5828125 113 128.75 112.69609375 129.507421875 112.35 130.35
L 112.35 130.3
Q 112.94609375 123.46640625 113.2 115.35 114.38359375 80.1328125 107.8 57.25 99.53125 28.2556640625 76 7.5 72.2009765625 4.134375 67.8 0.8 82.89296875 4.08046875 91.45 9.3 Z"/>
</g>

<g id="FS_Hair_04_9_Layer1_0_FILL">
<path fill="#000000" stroke="none" d="
M 8.7 2.75
L 8.7 2.8 8.75 2.8 8.7 2.75 Z"/>

<path fill="#F4B6D1" stroke="none" d="
M 1.6 -3.15
Q 3.3505859375 -4.7919921875 5.7 -4.3 7.1384765625 -4.0005859375 8.2 -2.75 8.7400390625 -4.8548828125 7.95 -6.95 7.395703125 -8.5333984375 5.1 -7.7 3.3791015625 -7.0580078125 2.1 -5.85 0.4541015625 -4.2232421875 -0.7 -0.4 -0.80390625 -0.021484375 -0.9 0.3
L 0.1 0.35
Q 0.0630859375 -1.7001953125 1.6 -3.15 Z"/>

<path fill="#E781B3" stroke="none" d="
M 5.7 -4.3
Q 3.3505859375 -4.7919921875 1.6 -3.15 0.0630859375 -1.7001953125 0.1 0.35
L 3.1 0.45
Q 3.2353515625 -0.826953125 4.4 -1.9 5.198828125 -2.5912109375 7 0 7.7859375 1.1158203125 8.7 2.75
L 8.75 2.8
Q 8.8837890625 2.687890625 9 2.5 9.5974609375 1.754296875 10.05 0.9 10.905078125 -0.6455078125 11.25 -2.45 11.858984375 -5.4099609375 10.65 -7.7 9.52421875 -9.8265625 6.7 -10.1 4.2296875 -10.3203125 1.95 -9.15 -2.909765625 -6.603125 -4.35 0.2
L -0.9 0.3
Q -0.80390625 -0.021484375 -0.7 -0.4 0.4541015625 -4.2232421875 2.1 -5.85 3.3791015625 -7.0580078125 5.1 -7.7 7.395703125 -8.5333984375 7.95 -6.95 8.7400390625 -4.8548828125 8.2 -2.75 7.1384765625 -4.0005859375 5.7 -4.3 Z"/>
</g>
</defs>

<g transform="matrix( 0.412506103515625, 0, 0, 0.412506103515625, 486.45,301.35) ">
<g transform="matrix( 1, 0, 0, 1, -8.05,146.5) ">
<g transform="matrix( 1.1522064208984375, 0, 0, 1.7481689453125, 4.4,-262.5) ">
<use filter="url(#Filter_1)" xlink:href="#FS_Shadow_0_Layer0_0_FILL"/>
</g>
</g>

<g transform="matrix( -0.998382568359375, -0.0028839111328125, -0.212860107421875, 0.997772216796875, 2.75,14.15) ">
<g transform="matrix( 1, 0, 0, 1, 0,0) ">
<use filter="url(#Filter_2)" xlink:href="#FS_Wing_3_4far_8_Layer5_0_FILL"/>
</g>
</g>

<g transform="matrix( 1, 0, 0, 1, 62,-81.9) ">
<g transform="matrix( -0.9986572265625, -0.0485687255859375, -0.0485687255859375, 0.9986572265625, 0.35,0.35) ">
<g transform="matrix( 1, 0, 0, 1, 0,0) ">
<use xlink:href="#FS_Mane_01_7_Layer1_0_FILL"/>
</g>
</g>

<g transform="matrix( -0.9986572265625, -0.0485687255859375, -0.0485687255859375, 0.9986572265625, -8.8,163.85) ">
<g transform="matrix( 1, 0, 0, 1, 0,0) ">
<use xlink:href="#FS_Mane_02_7_Layer0_0_FILL"/>
</g>
</g>

<g transform="matrix( -0.9986572265625, -0.0485687255859375, -0.0485687255859375, 0.9986572265625, 23.4,182.65) ">
<g transform="matrix( 1, 0, 0, 1, 0,0) ">
<use xlink:href="#FS_Mane_03_7_Layer0_0_FILL"/>
</g>
</g>
</g>

<g transform="matrix( -1, 0, 0, 1, -35.2,1.3) ">
<g transform="matrix( 0.00384521484375, -0.99981689453125, 0.99981689453125, 0.00384521484375, 57.2,120.55) ">
<g transform="matrix( 1, 0, 0, 1, 0,0) ">
<use xlink:href="#FS_Tail_02_10_Layer0_0_FILL"/>
</g>
</g>

<g transform="matrix( 1, 0, 0, -1, 115.95,98.3) ">
<g transform="matrix( 1, 0, 0, 1, 0,0) ">
<use xlink:href="#FS_Tail_03_10_Layer0_0_FILL"/>
</g>
</g>

<g transform="matrix( 1, 0, 0, 1, 0.45,0.45) ">
<g transform="matrix( 1, 0, 0, 1, 0,0) ">
<use xlink:href="#FS_Tail_01_10_Layer2_0_FILL"/>
</g>
</g>
</g>

<g transform="matrix( -0.87200927734375, 0.019287109375, 0.0546112060546875, 0.9296875, 23.85,48.45) ">
<g transform="matrix( 1, 0, 0, 1, 2.2,86.4) ">
<g transform="matrix( 1, 0, 0, 1, 0,0) ">
<use xlink:href="#FS_FrontLeg_3_4_hoof_0_Layer0_0_FILL"/>
</g>
</g>

<g transform="matrix( 0.999969482421875, -0.0043792724609375, -0.001129150390625, 1, 0.15,0.35) ">
<g transform="matrix( 1, 0, 0, 1, 0,0) ">
<use xlink:href="#FS_FrontLeg_3_4_upper_2_Layer1_0_FILL"/>
</g>
</g>
</g>

<g transform="matrix( -1, 0, 0, 0.908935546875, -20.85,9.4) ">
<g transform="matrix( 1, 0, 0, 1, 17.55,127.9) ">
<g transform="matrix( 1, 0, 0, 1, 0,0) ">
<use filter="url(#Filter_2)" xlink:href="#FS_FrontLeg_3_4_hoof_4_Layer0_0_FILL"/>
</g>
</g>

<g transform="matrix( 1, 0, 0, 1, 5.05,57.05) ">
<g transform="matrix( 1, 0, 0, 1, 0,0) ">
<use filter="url(#Filter_2)" xlink:href="#FS_KneePatch_1_Layer0_0_FILL"/>
</g>
</g>

<g transform="matrix( 1, 0, 0, 1, 8.7,62.65) ">
<g transform="matrix( 1, 0, 0, 1, 0,0) ">
<use filter="url(#Filter_2)" xlink:href="#FS_HindLeg_3_4rear_lower_0_Layer1_0_FILL"/>
</g>

<g transform="matrix( 1, 0, 0, 1, 0,0) ">
<use filter="url(#Filter_2)" xlink:href="#FS_HindLeg_3_4rear_lower_0_Layer0_0_FILL"/>
</g>
</g>

<g transform="matrix( 1, 0, -0.0095977783203125, 1.0159912109375, 5.95,-9.8) ">
<g transform="matrix( 1, 0, 0, 1, 0,0) ">
<use filter="url(#Filter_2)" xlink:href="#FS_HindLeg_3_4_top_0_Layer0_0_FILL"/>
</g>
</g>

<g transform="matrix( 1, 0, 0, 1, 5.05,57.05) ">
<g transform="matrix( 1, 0, 0, 1, 0,0) ">
<use filter="url(#Filter_2)" xlink:href="#FS_KneePatch_0_Layer0_0_FILL"/>
</g>
</g>
</g>

<g transform="matrix( -0.9760589599609375, 0.01910400390625, 0, 1.02020263671875, -1.75,27.3) ">
<g transform="matrix( 1, 0, 0, 1, 0,0) ">
<use xlink:href="#FS_Torso_1_Layer1_0_FILL"/>
</g>
</g>

<g transform="matrix( -0.9806671142578125, 0.0344390869140625, 0.02703857421875, 0.99945068359375, 2.35,14.15) ">
<g transform="matrix( 1, 0, 0, 1, 0,0) ">
<use xlink:href="#FS_Neck_1_Layer0_0_FILL"/>
</g>
</g>

<g transform="matrix( -1, 0, 0, 1, -35.7,5.85) ">
<g transform="matrix( 1, 0, 0, 1, 17.55,127.9) ">
<g transform="matrix( 1, 0, 0, 1, 0,0) ">
<use xlink:href="#FS_FrontLeg_3_4_hoof_4_Layer0_0_FILL"/>
</g>
</g>

<g transform="matrix( 1, 0, 0, 1, 5.05,57.05) ">
<g transform="matrix( 1, 0, 0, 1, 0,0) ">
<use xlink:href="#FS_KneePatch_1_Layer0_0_FILL"/>
</g>
</g>

<g transform="matrix( 1, 0, 0, 1, 8.7,62.65) ">
<g transform="matrix( 1, 0, 0, 1, 0,0) ">
<use xlink:href="#FS_HindLeg_3_4rear_lower_0_Layer1_0_FILL"/>
</g>

<g transform="matrix( 1, 0, 0, 1, 0,0) ">
<use xlink:href="#FS_HindLeg_3_4rear_lower_0_Layer0_0_FILL"/>
</g>
</g>

<g transform="matrix( 1, 0, -0.0095977783203125, 1.0159912109375, 5.95,-9.8) ">
<g transform="matrix( 1, 0, 0, 1, 0,0) ">
<use xlink:href="#FS_HindLeg_3_4_top_0_Layer0_0_FILL"/>
</g>
</g>

<g transform="matrix( 1, 0, 0, 1, 5.05,57.05) ">
<g transform="matrix( 1, 0, 0, 1, 0,0) ">
<use xlink:href="#FS_KneePatch_0_Layer0_0_FILL"/>
</g>
</g>

<g transform="matrix( 0.4976043701171875, 0, 0.0605010986328125, 1, 6.4,16.6) ">
<g transform="matrix( 1, 0, 0, 1, 0,0) ">
<use xlink:href="#FS_CutieMark_1_Layer0_0_FILL"/>
</g>
</g>
</g>

<g transform="matrix( -0.9995880126953125, 0.0224456787109375, 0.0224456787109375, 0.9995880126953125, -24.3,39.45) ">
<g transform="matrix( 1, 0, 0, 1, 0,0) ">
<use xlink:href="#FS_Torso_overlap__0_Layer0_0_FILL"/>
</g>
</g>

<g transform="matrix( -1, 0, -0.0052032470703125, 1.000030517578125, 4.7,52.05) ">
<g transform="matrix( 1, 0, 0, 1, 2.2,86.4) ">
<g transform="matrix( 1, 0, 0, 1, 0,0) ">
<use xlink:href="#FS_FrontLeg_3_4_hoof_0_Layer0_0_FILL"/>
</g>
</g>

<g transform="matrix( 0.999969482421875, -0.0043792724609375, -0.001129150390625, 1, 0.15,0.35) ">
<g transform="matrix( 1, 0, 0, 1, 0,0) ">
<use xlink:href="#FS_FrontLeg_3_4_upper_2_Layer1_0_FILL"/>
</g>
</g>
</g>

<g transform="matrix( -0.998382568359375, -0.0028839111328125, -0.0028839111328125, 0.998382568359375, -14.05,11.1) ">
<g transform="matrix( 1, 0, 0, 1, 0,0) ">
<use xlink:href="#FS_Wing_3_4_8_Layer5_0_FILL"/>
</g>
</g>

<g transform="matrix( 0.9999542236328125, -0.004791259765625, 0.004791259765625, 0.9999542236328125, 50.55,-44.6) ">
<g transform="matrix( -1, -0.0224761962890625, 0, 1, 8.45,-15.8) ">
<g transform="matrix( 1, 0, 0, 1, 0,0) ">
<use xlink:href="#FS_Skull_0_Layer0_0_FILL"/>
</g>
</g>

<mask id="Mask_Mask_1">
<g transform="matrix( 0.2865753173828125, -0.020233154296875, 0.0965118408203125, 0.959320068359375, 48.45,-12.75) ">
<g transform="matrix( 1, 0, 0, 1, 0,0) ">
<use xlink:href="#Mask_Mask_FS_EyeWhite_3_4far_0_Layer0_0_FILL"/>
</g>
</g>
</mask>

<g mask="url(#Mask_Mask_1)">
<g transform="matrix( 0.2865753173828125, -0.020233154296875, 0.0965118408203125, 0.959320068359375, 48.45,-12.75) ">
<g transform="matrix( 1, 0, 0, 1, 0,0) ">
<use xlink:href="#FS_EyeWhite_3_4far_0_Layer0_0_FILL"/>
</g>
</g>
</g>

<g mask="url(#Mask_Mask_1)">
<g transform="matrix( -0.3135986328125, 0, -0.031005859375, 0.8326873779296875, 49.9,-6.6) ">
<g transform="matrix( 1, 0, 0, 1, 0,0) ">
<use xlink:href="#FS_Iris_2_Layer1_0_FILL"/>
</g>

<g transform="matrix( 1, 0, 0, 1, 0,0) ">
<use xlink:href="#FS_Iris_2_Layer0_0_FILL"/>
</g>

<g transform="matrix( 1, 0, 0, 1, 0,0) ">
<use xlink:href="#FS_Iris_2_Layer0_1_FILL"/>
</g>
</g>
</g>

<g mask="url(#Mask_Mask_1)">
<g transform="matrix( -0.3407440185546875, -0.1446685791015625, -0.1058349609375, 0.8145751953125, 50.2,-6.05) ">
<g transform="matrix( 1, 0, 0, 1, 0,0) ">
<use xlink:href="#FS_Pupil_0_Layer0_0_FILL"/>
</g>
</g>
</g>

<g mask="url(#Mask_Mask_1)">
<g transform="matrix( -0.4447174072265625, -0.3355712890625, -0.12286376953125, 0.87994384765625, 48.25,-13.1) ">
<g transform="matrix( 1, 0, 0, 1, 0,0) ">
<use xlink:href="#FS_Hilights_0_Layer1_0_FILL"/>
</g>
</g>
</g>

<mask id="Mask_Mask_2">
<g transform="matrix( -0.9999847412109375, 0.0103759765625, 0, 0.9999847412109375, 3.5,-4.3) ">
<g transform="matrix( 1, 0, 0, 1, 0,0) ">
<use xlink:href="#Mask_Mask_FS_EyeWhite_3_4_0_Layer0_0_FILL"/>
</g>
</g>
</mask>

<g mask="url(#Mask_Mask_2)">
<g transform="matrix( -0.9999847412109375, 0.0103759765625, 0, 0.9999847412109375, 3.5,-4.3) ">
<g transform="matrix( 1, 0, 0, 1, 0,0) ">
<use xlink:href="#FS_EyeWhite_3_4_0_Layer0_0_FILL"/>
</g>
</g>
</g>

<g mask="url(#Mask_Mask_2)">
<g transform="matrix( 0.7470855712890625, 0, 0.0602874755859375, 0.9627227783203125, 12.95,-1.7) ">
<g transform="matrix( 1, 0, 0, 1, 0,0) ">
<use xlink:href="#FS_Iris_0_Layer1_0_FILL"/>
</g>

<g transform="matrix( 1, 0, 0, 1, 0,0) ">
<use xlink:href="#FS_Iris_0_Layer0_0_FILL"/>
</g>

<g transform="matrix( 1, 0, 0, 1, 0,0) ">
<use xlink:href="#FS_Iris_0_Layer0_1_FILL"/>
</g>
</g>
</g>

<g mask="url(#Mask_Mask_2)">
<g transform="matrix( -0.8183746337890625, -0.219268798828125, -0.2206878662109375, 0.942474365234375, 13.85,-0.85) ">
<g transform="matrix( 1, 0, 0, 1, 0,0) ">
<use xlink:href="#FS_Pupil_0_Layer0_0_FILL"/>
</g>
</g>
</g>

<g mask="url(#Mask_Mask_2)">
<g transform="matrix( -1, 0, 0, 1, 9.2,-7.1) ">
<g transform="matrix( 1, 0, 0, 1, 0,0) ">
<use xlink:href="#FS_Hilights_0_Layer1_0_FILL"/>
</g>
</g>
</g>

<g transform="matrix( -1.08978271484375, 0.012664794921875, 0.0008087158203125, 1.02630615234375, 50.05,-12.75) ">
<g transform="matrix( 1, 0, 0, 1, 0,0) ">
<use xlink:href="#FS_Blink_3_4far_0_Layer9_0_FILL"/>
</g>

<g transform="matrix( 1, 0, 0, 1, 0,0) ">
<use xlink:href="#FS_Blink_3_4far_0_Layer7_0_FILL"/>
</g>

<g transform="matrix( 1, 0, 0, 1, 0,0) ">
<use xlink:href="#FS_Blink_3_4far_0_Layer4_0_FILL"/>
</g>

<g transform="matrix( 1, 0, 0, 1, 0,0) ">
<use xlink:href="#FS_Blink_3_4far_0_Layer3_0_FILL"/>
</g>
</g>

<g transform="matrix( -1.02740478515625, 0.010650634765625, 0, 0.9999847412109375, 3.35,-6.9) ">
<g transform="matrix( 1, 0, 0, 1, 0,0) ">
<use xlink:href="#FS_Blink_3_4_0_Layer5_0_FILL"/>
</g>

<g transform="matrix( 1, 0, 0, 1, 0,0) ">
<use xlink:href="#FS_Blink_3_4_0_Layer4_0_FILL"/>
</g>

<g transform="matrix( 1, 0, 0, 1, 0,0) ">
<use xlink:href="#FS_Blink_3_4_0_Layer3_0_FILL"/>
</g>

<g transform="matrix( 1, 0, 0, 1, 0,0) ">
<use xlink:href="#FS_Blink_3_4_0_Layer3_1_FILL"/>
</g>

<g transform="matrix( 1, 0, 0, 1, 0,0) ">
<use xlink:href="#FS_Blink_3_4_0_Layer2_0_FILL"/>
</g>

<g transform="matrix( 1, 0, 0, 1, 0,0) ">
<use xlink:href="#FS_Blink_3_4_0_Layer1_0_FILL"/>
</g>
</g>

<g transform="matrix( -1, 0, -0.003814697265625, 1, 22.2,18.45) ">
<g transform="matrix( 1, 0, 0, 1, 0,0) ">
<use xlink:href="#FS_Mouth_3_4_3_Layer10_0_FILL"/>
</g>

<g transform="matrix( 1, 0, 0, 1, 0,0) ">
<use xlink:href="#FS_Mouth_3_4_3_Layer8_0_FILL"/>
</g>

<g transform="matrix( 1, 0, 0, 1, 0,0) ">
<use xlink:href="#FS_Mouth_3_4_3_Layer7_0_FILL"/>
</g>

<g transform="matrix( 0.7001495361328125, -0.0708465576171875, -0.3102264404296875, 0.88494873046875, -17.45,8.95) ">
<g transform="matrix( 1, 0, 0, 1, 0,0) ">
<use xlink:href="#FS_MouthInterior_0_Layer2_0_FILL"/>
</g>

<g transform="matrix( 1, 0, 0, 1, 0,0) ">
<use xlink:href="#FS_MouthInterior_0_Layer1_0_FILL"/>
</g>
</g>

<g transform="matrix( 1, 0, 0, 1, 0,0) ">
<use xlink:href="#FS_Mouth_3_4_3_Layer4_0_FILL"/>
</g>
</g>

<g transform="matrix( -1, 0, 0.003814697265625, 1, 48.8,18.45) ">
<g transform="matrix( 1, 0, 0, 1, 0.1,0.05) ">
<g transform="matrix( 1, 0, 0, 1, 0,0) ">
<use xlink:href="#FS_Nostril_3_4_0_Layer0_0_FILL"/>
</g>
</g>
</g>

<g transform="matrix( -0.97369384765625, -0.0419464111328125, -0.0408782958984375, 0.9989776611328125, 34.45,-56.7) ">
<g transform="matrix( 1, 0, 0, 1, 0,0) ">
<use xlink:href="#FS_Hair_05_6_Layer1_0_FILL"/>
</g>
</g>

<g transform="matrix( -0.9659271240234375, 0.258819580078125, 0.258819580078125, 0.9659271240234375, -28.55,-32.5) ">
<g transform="matrix( 1, 0, 0, 1, 0,0) ">
<use xlink:href="#FS_Ear_2_Layer1_0_FILL"/>
</g>
</g>
</g>

<g transform="matrix( 1, 0, 0, 1, 114.9,-125.9) ">
<g transform="matrix( -0.973846435546875, -0.0372772216796875, -0.0360870361328125, 0.9991302490234375, -94.25,126.2) ">
<g transform="matrix( 1, 0, 0, 1, 0,0) ">
<use xlink:href="#FS_Hair_03_9_Layer1_0_FILL"/>
</g>
</g>

<g transform="matrix( -0.973846435546875, -0.0372772216796875, -0.0360870361328125, 0.9991302490234375, -0.3,-0.35) ">
<g transform="matrix( 1, 0, 0, 1, 0,0) ">
<use xlink:href="#FS_Hair_01_6_Layer3_0_FILL"/>
</g>
</g>

<g transform="matrix( -0.973846435546875, -0.0372772216796875, -0.0360870361328125, 0.9991302490234375, -42.6,162.85) ">
<g transform="matrix( 1, 0, 0, 1, 0,0) ">
<use xlink:href="#FS_Hair_04_9_Layer1_0_FILL"/>
</g>
</g>
</g>
</g>
</svg>
