
<svg xmlns="http://www.w3.org/2000/svg" version="1.1" xmlns:xlink="http://www.w3.org/1999/xlink" preserveAspectRatio="none" x="0px" y="0px" width="864px" height="486px" viewBox="0 0 864 486">
<defs>
<linearGradient id="Gradient_1" gradientUnits="userSpaceOnUse" x1="-33.8" y1="-21.2875" x2="-46.900000000000006" y2="1.387500000000001" spreadMethod="pad">
<stop  offset="0%" stop-color="#015350"/>

<stop  offset="2.7450980392156863%" stop-color="#025B58"/>

<stop  offset="9.019607843137255%" stop-color="#046B67"/>

<stop  offset="14.901960784313726%" stop-color="#047672"/>

<stop  offset="19.607843137254903%" stop-color="#057975"/>

<stop  offset="28.235294117647058%" stop-color="#058581"/>

<stop  offset="42.35294117647059%" stop-color="#009590"/>

<stop  offset="58.03921568627451%" stop-color="#00A19D"/>

<stop  offset="75.68627450980392%" stop-color="#00AAA5"/>

<stop  offset="100%" stop-color="#00ADA8"/>
</linearGradient>

<filter id="Filter_1" x="-20%" y="-20%" width="140%" height="140%" color-interpolation-filters="sRGB">
<feColorMatrix in="SourceGraphic" type="matrix" values="1 0 0 0 0 0 1 0 0 0 0 0 1 0 0 0 0 0 0.21 0" result="result1"/>
</filter>

<filter id="Filter_2" x="-20%" y="-20%" width="140%" height="140%" color-interpolation-filters="sRGB">
<feColorMatrix in="SourceGraphic" type="matrix" values="0.5 0 0 0 0.4627450980392157 0 0.5 0 0 0.41568627450980394 0 0 0.5 0 0.19607843137254902 0 0 0 1 0" result="result1"/>
</filter>

<filter id="Filter_3" x="-20%" y="-20%" width="140%" height="140%" color-interpolation-filters="sRGB">
<feColorMatrix in="SourceGraphic" type="matrix" values="1 0 0 0 0.0196078431372549 0 1 0 0 -0.06274509803921569 0 0 1 0 -0.12156862745098039 0 0 0 1 0" result="result1"/>
</filter>

<g id="FS_Shadow_0_Layer0_0_FILL">
<path fill="#000000" stroke="none" d="
M 46.4 155.05
Q 68.65 152.95 68.65 149.95 68.65 146.95 46.4 144.8 24.15 142.7 -7.4 142.7 -38.9 142.7 -61.2 144.8 -83.45 146.95 -83.45 149.95 -83.45 152.95 -61.2 155.05 -38.9 157.2 -7.4 157.2 24.15 157.2 46.4 155.05 Z"/>
</g>

<g id="FS_Wing_3_4far_9_Layer5_0_FILL">
<path fill="#FDF6AE" stroke="none" d="
M 14.4 13.6
L 14.4 13.6
Q 11.7185546875 10.5724609375 3.95 10.55 3.9005859375 3.5751953125 -7.25 1.7
L -14.85 1.25 -14.9 1.3 -15.6 1.9
Q -21.88515625 8.1115234375 -23.5 16 -25.1552734375 24.0869140625 -21.05 30.5 -13.6 41.795703125 3.75 38.55 15.6693359375 32.926953125 12.85 24.6 17.5587890625 19.2478515625 15.15 14.75
L 15.15 14.7
Q 14.8142578125 14.1181640625 14.4 13.6
M 33.1 16.85
Q 33.9603515625 15.5462890625 34.7 14.25
L 16.25 27.4
Q 16.26171875 27.693359375 16.25 27.95 16.18046875 32.1900390625 12.15 36.15 23.7486328125 31.27578125 33.1 16.85
M 35.85 12.15
Q 36.29375 11.384765625 36.65 10.6
L 36.65 10.6
Q 38.2708984375 7.1671875 39.05 4.05 39.6837890625 1.4330078125 39.55 -0.45
L 17.15 12.35
Q 17.4908203125 12.809375 17.75 13.3
L 17.75 13.3
Q 21.22890625 19.3095703125 15.9 25.1 16.078515625 25.676953125 16.15 26.25
L 35.85 12.15
M 30.1 -5.6
Q 26.540625 -5.5923828125 21.8 -4.75 11.580859375 -2.937109375 -0.35 1.95 3.47421875 2.86640625 5.1 5.5
L 30.1 -5.6
M 39.45 -1.5
Q 39.1666015625 -2.65234375 38.45 -3.35
L 38.4 -3.35
Q 36.829296875 -4.827734375 33.8 -5.35
L 33.8 -5.35
Q 33.1380859375 -5.4392578125 32.4 -5.5
L 5.6 6.4
Q 5.9978515625 7.1595703125 6.2 8.05 13.4712890625 7.8109375 16.55 11.5
L 39.45 -1.5 Z"/>

<path fill="#EBD463" stroke="none" d="
M 34.3 -8.3
Q 29.3517578125 -9.144921875 21.25 -7.75 8.334765625 -5.4265625 -7.25 1.7 3.9005859375 3.5751953125 3.95 10.55 11.7185546875 10.5724609375 14.4 13.6
L 14.4 13.6
Q 14.8142578125 14.1181640625 15.15 14.7
L 15.15 14.75
Q 17.5587890625 19.2478515625 12.85 24.6 15.6693359375 32.926953125 3.75 38.55 -13.6 41.795703125 -21.05 30.5 -25.1552734375 24.0869140625 -23.5 16 -21.88515625 8.1115234375 -15.6 1.9
L -14.9 1.3
Q -24.653515625 6.6705078125 -26.45 15.35
L -26.45 15.4
Q -28.3291015625 24.716796875 -23.55 32.1 -15.1962890625 45.237890625 4.6 41.45 4.762109375 41.4291015625 4.85 41.35 6.879296875 40.975 9 40.4 23.9787109375 36.4216796875 35.6 18.5 37.8009765625 15.115625 39.35 11.95
L 39.35 11.9
Q 41.1208984375 8.1666015625 41.95 4.75 42.9619140625 0.556640625 42.35 -2.1
L 42.35 -2.1
Q 41.8580078125 -4.2615234375 40.45 -5.55
L 40.5 -5.55
Q 38.3744140625 -7.612109375 34.3 -8.3
M 38.45 -3.35
Q 39.1666015625 -2.65234375 39.45 -1.5
L 16.55 11.5
Q 13.4712890625 7.8109375 6.2 8.05 5.9978515625 7.1595703125 5.6 6.4
L 32.4 -5.5
Q 33.1380859375 -5.4392578125 33.8 -5.35
L 33.8 -5.35
Q 36.829296875 -4.827734375 38.4 -3.35
L 38.45 -3.35
M 21.8 -4.75
Q 26.540625 -5.5923828125 30.1 -5.6
L 5.1 5.5
Q 3.47421875 2.86640625 -0.35 1.95 11.580859375 -2.937109375 21.8 -4.75
M 36.65 10.6
Q 36.29375 11.384765625 35.85 12.15
L 16.15 26.25
Q 16.078515625 25.676953125 15.9 25.1 21.22890625 19.3095703125 17.75 13.3
L 17.75 13.3
Q 17.4908203125 12.809375 17.15 12.35
L 39.55 -0.45
Q 39.6837890625 1.4330078125 39.05 4.05 38.2708984375 7.1671875 36.65 10.6
L 36.65 10.6
M 34.7 14.25
Q 33.9603515625 15.5462890625 33.1 16.85 23.7486328125 31.27578125 12.15 36.15 16.18046875 32.1900390625 16.25 27.95 16.26171875 27.693359375 16.25 27.4
L 34.7 14.25 Z"/>
</g>

<g id="FS_Mane_01_6_Layer1_0_FILL">
<path fill="#E781B3" stroke="none" d="
M 42.75 41.25
Q 42.751171875 41.11171875 42.7 40.95 42.2412109375 38.311328125 41.65 36 38.65546875 26.197265625 34.2 17.35
L 34.2 17.35
Q 33.7041015625 16.2806640625 33.35 15.6 32.04921875 13.0935546875 30.65 10.75 28.480859375 7.1076171875 26.1 3.95 17.712109375 -7.1375 6.35 -14 -5.0142578125 -20.815625 -31.15 1.7 -56.1814453125 21.8888671875 -55 32.9 -47.675 42.042578125 -43.95 51.75 -38.4744140625 65.9626953125 -38.6 83.65 -38.63671875 89.4166015625 -38.75 100.85 -38.6345703125 108.130859375 -37.75 113.95 -37.4904296875 118.039453125 -34 123.95 -25.8181640625 137.18125 -5.45 138.35 5.7357421875 137.4982421875 11.6 134.75 23.1158203125 129.4537109375 29.1 114.9 34.792578125 100.50546875 37.4 92.15 38.1509765625 89.86015625 38.8 87.6 39.1669921875 86.3625 39.5 85.1 42.6091796875 73.66640625 43.5 64.05
L 43.55 64.1
Q 43.6865234375 62.7994140625 43.75 61.5
L 43.75 61.5
Q 43.880859375 59.7697265625 43.9 58.1 44.1189453125 48.4568359375 42.75 41.25
M 24.65 5.85
Q 26.3982421875 8.368359375 27.85 10.75 29.92265625 14.1615234375 31.45 17.35 36.16796875 26.3228515625 38.75 36 39.3556640625 38.4736328125 39.75 40.95 41.1970703125 49.0263671875 40.95 57.4 35.421484375 49.8076171875 30.45 47 19.9435546875 40.9845703125 11.9 55.5 11.891796875 55.5283203125 11.85 55.55 11.842578125 55.62421875 11.8 55.7 11.7546875 55.90546875 11.8 56.1 11.8443359375 56.2046875 11.85 56.25 11.9876953125 56.47734375 12.2 56.6 12.261328125 56.6322265625 12.3 56.65 12.5423828125 56.7205078125 12.75 56.65 12.8544921875 56.6302734375 12.9 56.6 19.4037109375 53.2896484375 26.45 62.75 31.575390625 69.6232421875 36.9 82.8 34.8513671875 90.7919921875 31.75 99.35 29.6083984375 105.36796875 27.5 110.85 18.82109375 134.8279296875 -7.15 135.1 -32.2953125 132.5134765625 -35 110.75 -35.9619140625 102.7984375 -35.8 94.45 -35.5828125 82.98515625 -35.8 78.25 -36.126953125 69.2625 -37.85 62.25 -41.3560546875 47.84921875 -49.45 36.5 -55.4498046875 28.091796875 -29.9 5.5 -3.6947265625 -20.2474609375 12.7 -7.65 19.4576171875 -1.6259765625 24.65 5.85
M 40.3 65.55
Q 39.4314453125 72.63671875 37.55 80.25 32.5326171875 68.283984375 27.7 61.85 20.8619140625 52.6544921875 14.35 54.35 21.1521484375 43.6328125 29.7 48.35 34.937109375 51.355078125 40.85 59.9
L 40.85 59.9
Q 40.675 62.7390625 40.3 65.55 Z"/>

<path fill="#F4B6D1" stroke="none" d="
M 37.55 80.25
Q 39.4314453125 72.63671875 40.3 65.55 40.675 62.7390625 40.85 59.9
L 40.85 59.9
Q 34.937109375 51.355078125 29.7 48.35 21.1521484375 43.6328125 14.35 54.35 20.8619140625 52.6544921875 27.7 61.85 32.5326171875 68.283984375 37.55 80.25
M 27.85 10.75
Q 26.3982421875 8.368359375 24.65 5.85 19.4576171875 -1.6259765625 12.7 -7.65 -3.6947265625 -20.2474609375 -29.9 5.5 -55.4498046875 28.091796875 -49.45 36.5 -41.3560546875 47.84921875 -37.85 62.25 -36.126953125 69.2625 -35.8 78.25 -35.5828125 82.98515625 -35.8 94.45 -35.9619140625 102.7984375 -35 110.75 -32.2953125 132.5134765625 -7.15 135.1 18.82109375 134.8279296875 27.5 110.85 29.6083984375 105.36796875 31.75 99.35 34.8513671875 90.7919921875 36.9 82.8 31.575390625 69.6232421875 26.45 62.75 19.4037109375 53.2896484375 12.9 56.6 12.8544921875 56.6302734375 12.75 56.65 12.5423828125 56.7205078125 12.3 56.65 12.261328125 56.6322265625 12.2 56.6 11.9876953125 56.47734375 11.85 56.25 11.8443359375 56.2046875 11.8 56.1 11.7546875 55.90546875 11.8 55.7 11.842578125 55.62421875 11.85 55.55 11.891796875 55.5283203125 11.9 55.5 19.9435546875 40.9845703125 30.45 47 35.421484375 49.8076171875 40.95 57.4 41.1970703125 49.0263671875 39.75 40.95 39.3556640625 38.4736328125 38.75 36 36.16796875 26.3228515625 31.45 17.35 29.92265625 14.1615234375 27.85 10.75 Z"/>
</g>

<g id="FS_Mane_02_6_Layer0_0_FILL">
<path fill="#F4B6D1" stroke="none" d="
M 14.95 43.7
Q 16.1619140625 39.583984375 21.9 26.7 26.228125 17.139453125 30.75 5.25
L -31.95 5.25
Q -30.7103515625 15.451171875 -27.6 25 -25.8326171875 30.4224609375 -21.95 41.05 -18.601171875 50.609375 -17.2 57.35 -14.5216796875 69.8390625 -19.2 76.65 -21.637890625 80.2623046875 -26.1 80.85 -28.982421875 81.2685546875 -32.1 80.4 -33.510546875 79.7591796875 -34.25 81.65 -35.104296875 85.0013671875 -32.05 87.15 -29.26875 88.779296875 -25.45 89.15 -23.337890625 88.4267578125 -21.5 87.25 -13.805078125 82.391796875 -10.25 69.1 -7.4888671875 59.1630859375 -7.2 45.1 -7.3712890625 28.8091796875 -7.4 20.8 -7.375390625 20.7607421875 -7.4 20.7 -5.8705078125 30.69375 -5.75 47.85 -6.3033203125 63.3400390625 -10.15 74.05 -14.2025390625 85.3087890625 -22.9 89.25 -22.926171875 89.287109375 -22.95 89.3 -22.4560546875 89.29765625 -21.95 89.25 -12.5291015625 88.8474609375 -4.8 82.05 4.50078125 73.9205078125 10.7 57.05 12.69609375 51.8103515625 14.95 43.7 Z"/>

<path fill="#E781B3" stroke="none" d="
M 32.15 9.75
Q 33.428125 6.1599609375 30.75 5.25 26.228125 17.139453125 21.9 26.7 16.1619140625 39.583984375 14.95 43.7 12.69609375 51.8103515625 10.7 57.05 4.50078125 73.9205078125 -4.8 82.05 -12.5291015625 88.8474609375 -21.95 89.25 -22.4560546875 89.29765625 -22.95 89.3 -22.926171875 89.287109375 -22.9 89.25 -14.2025390625 85.3087890625 -10.15 74.05 -6.3033203125 63.3400390625 -5.75 47.85 -5.8705078125 30.69375 -7.4 20.7 -7.375390625 20.7607421875 -7.4 20.8 -7.3712890625 28.8091796875 -7.2 45.1 -7.4888671875 59.1630859375 -10.25 69.1 -13.805078125 82.391796875 -21.5 87.25 -23.337890625 88.4267578125 -25.45 89.15 -29.26875 88.779296875 -32.05 87.15 -35.104296875 85.0013671875 -34.25 81.65 -33.510546875 79.7591796875 -32.1 80.4 -28.982421875 81.2685546875 -26.1 80.85 -21.637890625 80.2623046875 -19.2 76.65 -14.5216796875 69.8390625 -17.2 57.35 -18.601171875 50.609375 -21.95 41.05 -25.8326171875 30.4224609375 -27.6 25 -30.7103515625 15.451171875 -31.95 5.25 -35.2314453125 5.79296875 -34.35 10.4 -34.124609375 11.5845703125 -33.9 12.7 -31.3814453125 23.8486328125 -23.35 45.15 -20.61953125 53.65546875 -19.85 58.2 -18.56953125 65.7728515625 -20.25 71.5 -22.3666015625 78.6099609375 -27.2 79.35 -29.8626953125 79.776171875 -32.2 78.95 -35.3505859375 77.7150390625 -35.8 81.55 -36.6486328125 84.8291015625 -33.25 88.15 -27.2744140625 91.2470703125 -20.25 90.95 -9.41171875 90.49453125 -1.2 82.4 6.661328125 74.811328125 11.55 63.25 13.27421875 59.228515625 15.55 51.85 18.040234375 43.771484375 19.3 40.45 27.0755859375 22.3890625 30.75 13.2 31.4814453125 11.462890625 32.15 9.75 Z"/>
</g>

<g id="FS_Mane_03_6_Layer0_0_FILL">
<path fill="#F4B6D1" stroke="none" d="
M -3.85 -4.5
Q -7.7412109375 -6.130859375 -9.35 -9.85 -10.696875 -12.8255859375 -10.2 -16.25 -12.32734375 -13.48671875 -11.35 -9.2 -10.47109375 -5.4375 -7.9 -2.2 -5.108203125 1.3296875 -1.5 3.15 2.7447265625 1.5392578125 0.35 -3.35 -2.6482421875 -3.9771484375 -3.85 -4.5 Z"/>

<path fill="#E781B3" stroke="none" d="
M -6.35 -19.15
Q -6.1607421875 -19.47421875 -6 -19.85 -5.4234375 -20.829296875 -4.75 -21.65
L -4.8 -21.65
Q -10.565625 -20.77421875 -13.2 -17.05 -15.7025390625 -13.44609375 -14 -8.2 -12.4681640625 -3.5953125 -9 -0.4 -6.253515625 2.156640625 -3.25 3.8 -1.63125 4.23125 -1.5 3.15 -5.108203125 1.3296875 -7.9 -2.2 -10.47109375 -5.4375 -11.35 -9.2 -12.32734375 -13.48671875 -10.2 -16.25 -10.696875 -12.8255859375 -9.35 -9.85 -7.7412109375 -6.130859375 -3.85 -4.5 -2.6482421875 -3.9771484375 0.35 -3.35 0.42265625 -4.0828125 -2.75 -5.6
L -2.75 -5.6
Q -2.7478515625 -5.6109375 -2.8 -5.65 -5.73046875 -7.1673828125 -6.75 -10.35 -8.2234375 -14.9365234375 -6.35 -19.15 Z"/>
</g>

<g id="FS_Tail_02_0_Layer0_0_FILL">
<path fill="#E781B3" stroke="none" d="
M 9.35 -4.95
Q 5.443359375 -9.9267578125 -5.25 -8.65 -14.1462890625 -7.3931640625 -12.6 3.75
L -12.65 3.75 -12.65 3.8
Q -11.682421875 10.07734375 -9.05 16.75 -6.849609375 22.163671875 -2.7 31.75 1.3501953125 43.4681640625 1.65 52.85 1.9490234375 59.6189453125 0.4 65.5 -1.166015625 71.76640625 -4.2 74.75 -8.3541015625 79.125 -12.05 79.25 -12.50625 79.265234375 -12.95 79.2 -16.1849609375 79.355078125 -15.3 83.65 -14.42734375 87.939453125 -11.2 89.5 -9.692578125 90.02734375 -8.1 89.95 -2.459765625 89.7708984375 2.05 85.65 15.736328125 73.2171875 14.95 53.9 14.8541015625 50.7 14 45.75 12.7404296875 38.572265625 12.6 37.6 12.0634765625 33.709765625 10.15 23.15 8.873828125 15.8537109375 8.75 12.8 8.6857421875 9.2462890625 9.5 6.2 9.841796875 5.0296875 10.4 3.75 12.8373046875 -0.808203125 9.35 -4.95
M 7.5 5.65
Q 6.8533203125 8.725390625 7 12.8 7.1232421875 16.4533203125 7.9 22.65 8.0375 23.4119140625 9.9 36.4 11.466015625 47.703515625 11.65 52.7 11.9248046875 61.9873046875 9.75 68.6 7.1333984375 76.7181640625 0.45 82.85 -3.91875 86.834375 -7.9 86.95
L -7.85 87
Q -11.53671875 87.01015625 -12.25 84 -12.91875 80.9953125 -11.9 80.6 -7.267578125 80.4046875 -2.5 75.45 3.9923828125 68.677734375 3.4 52.55 3.019140625 41.0603515625 -0.45 31 -4.4919921875 21.0775390625 -6.4 15.6 -8.54921875 9.52265625 -9.45 3.8
L -9.45 3.75 -9.45 3.75 -9.4 3.8
Q -10.930078125 -7.1478515625 -0.35 -6.55 11.086328125 -5.95078125 8 3.75 7.7005859375 4.71015625 7.5 5.65 Z"/>

<path fill="#F4B6D1" stroke="none" d="
M 7 12.8
Q 6.8533203125 8.725390625 7.5 5.65 7.7005859375 4.71015625 8 3.75 11.086328125 -5.95078125 -0.35 -6.55 -10.930078125 -7.1478515625 -9.4 3.8
L -9.45 3.75 -9.45 3.75 -9.45 3.8
Q -8.54921875 9.52265625 -6.4 15.6 -4.4919921875 21.0775390625 -0.45 31 3.019140625 41.0603515625 3.4 52.55 3.9923828125 68.677734375 -2.5 75.45 -7.267578125 80.4046875 -11.9 80.6 -12.91875 80.9953125 -12.25 84 -11.53671875 87.01015625 -7.85 87
L -7.9 86.95
Q -3.91875 86.834375 0.45 82.85 7.1333984375 76.7181640625 9.75 68.6 11.9248046875 61.9873046875 11.65 52.7 11.466015625 47.703515625 9.9 36.4 8.0375 23.4119140625 7.9 22.65 7.1232421875 16.4533203125 7 12.8 Z"/>
</g>

<g id="FS_Tail_01_0_Layer2_0_FILL">
<path fill="#F4B6D1" stroke="none" d="
M 96.35 25.7
Q 96.35234375 25.762109375 96.35 25.8 95.548046875 36.697265625 87.85 51.35 82.7126953125 61.3240234375 67.7 77.95 52.619140625 94.615234375 49.15 100.95 43.09375 112.9603515625 44.6 121.6 46.3126953125 131.0787109375 57.65 133.95 58.5193359375 134.18984375 59.45 134.35 59.5244140625 134.367578125 59.6 134.35 63.5666015625 123.205859375 66.3 117.3 65.396875 117.17421875 64.55 117 61.4369140625 116.34765625 58.6 114.65
L 58.55 114.6 58.5 114.6
Q 55.5015625 112.595703125 55.4 109.85 55.35234375 107.22578125 57.95 104.4 59.69140625 102.4408203125 63.55 99.65 65.683203125 98.14375 69.8 95.6 73.387890625 93.4078125 74.25 92.7 81.2498046875 87.1501953125 83.6 84.6 89.9259765625 77.84609375 93.75 68.1 95.9 62.2005859375 96.9 54.65 97.8921875 47.0140625 97.6 38.7 97.36640625 32.140625 96.35 25.7
M 41.6 22.85
Q 44.84765625 30.9455078125 45.15 39.75 45.6244140625 53.3103515625 39.05 68.65 36.792578125 73.8576171875 33.35 80.05 31.458984375 83.5111328125 28.35 88.9 18.4564453125 107.3234375 18.8 116.65 18.95703125 120.355078125 20.5 123 22.0376953125 125.5138671875 25.15 127.55 29.6533203125 130.4310546875 39 132.6 33.4787109375 128.2921875 34.3 119.15 34.8525390625 112.7576171875 39.75 103.1 43.03125 96.65703125 50.6 84.65 59.5341796875 70.4421875 62.45 65.3 68.637109375 54.4212890625 71.05 46.6
L 71.05 46.65
Q 74.4326171875 34.211328125 71.75 23.55 68.26484375 10.044921875 55.25 0.6 35.484765625 -13.6515625 13.3 -7.9 3.71171875 -5.391015625 -5.9 0.85 -5.7919921875 0.9580078125 -5.7 1.05 -3.21953125 4.2080078125 1.15 3.5
L 1.15 3.45
Q 7.5310546875 1.1234375 13.15 0.9 22.9947265625 0.5748046875 30.35 6.75 37.0015625 12.1556640625 41.6 22.85
M 55.25 -28.5
Q 48.4021484375 -29.8166015625 41.5 -29.6 21.919921875 -28.93359375 4.4 -15.15 -4.393359375 -8.2763671875 -6.3 -5.2 -7.7900390625 -2.6857421875 -6.5 -0.2 3.244921875 -6.5080078125 13 -9.05 35.715234375 -14.9486328125 55.95 -0.35 69.334765625 9.3548828125 72.9 23.25 75.6673828125 34.18828125 72.2 46.95
L 72.2 46.95
Q 69.7626953125 54.878515625 63.5 65.9 60.565625 71.0576171875 51.6 85.3 44.0689453125 97.242578125 40.8 103.65 36.0474609375 113.0423828125 35.5 119.25 34.541015625 129.8287109375 42.8 133.4 42.9109375 133.4525390625 43 133.45 49.458984375 134.7150390625 55.5 134.6 45.047265625 131.222265625 43.4 121.8 41.8060546875 112.8396484375 48.1 100.4 51.5806640625 93.984765625 66.8 77.15 81.6875 60.6755859375 86.8 50.8 94.34296875 36.41953125 95.15 25.7 95.2486328125 24.15 95.2 22.55
L 95.2 22.55
Q 95.1587890625 20.4259765625 94.9 18.2 94.7251953125 17.5078125 94.55 16.8 91.719921875 5.362890625 86.7 -3.75 81.2076171875 -13.628515625 73.7 -19.8 65.478125 -26.49921875 55.25 -28.5 Z"/>

<path fill="#E781B3" stroke="none" d="
M 76.2 -23.5
Q 67.53203125 -30.5744140625 56.7 -32.7 49.525 -34.06875 42.4 -33.85 21.571484375 -33.0466796875 2.55 -17.25 -3.114453125 -12.54375 -8.6 -6.5 -10.7353515625 -1.60703125 -8.5 1.8 -4.6861328125 7.0087890625 2.8 5.6 8.107421875 3.58984375 13.25 3.25 22.243359375 3.0009765625 28.85 8.55 35.1169921875 13.7423828125 39.4 23.75 40.901953125 27.4271484375 41.45 31.7 41.822265625 34.41875 42 39.5 42.4455078125 52.3669921875 35.65 67.55 33.343359375 72.6388671875 29.75 78.95 27.841015625 82.3810546875 24.65 87.85 19.2537109375 97.9607421875 16.8 104.55 14.21796875 111.687890625 14.4 116.7 14.5052734375 120.8904296875 16.8 124.6 19.0017578125 128.062890625 22.5 130.3 25.7533203125 132.330859375 30.65 133.9 34.8306640625 135.2462890625 41.2 136.55 44.7509765625 137.250390625 49.4 137.55 53.6021484375 137.82265625 57.05 137.7
L 57.1 137.7
Q 60.544921875 137.521484375 59.6 134.35 59.5244140625 134.367578125 59.45 134.35 58.5193359375 134.18984375 57.65 133.95 46.3126953125 131.0787109375 44.6 121.6 43.09375 112.9603515625 49.15 100.95 52.619140625 94.615234375 67.7 77.95 82.7126953125 61.3240234375 87.85 51.35 95.548046875 36.697265625 96.35 25.8 96.35234375 25.762109375 96.35 25.7 97.36640625 32.140625 97.6 38.7 97.8921875 47.0140625 96.9 54.65 95.9 62.2005859375 93.75 68.1 89.9259765625 77.84609375 83.6 84.6 81.2498046875 87.1501953125 74.25 92.7 73.387890625 93.4078125 69.8 95.6 65.683203125 98.14375 63.55 99.65 59.69140625 102.4408203125 57.95 104.4 55.35234375 107.22578125 55.4 109.85 55.5015625 112.595703125 58.5 114.6
L 58.55 114.6 58.6 114.65
Q 61.4369140625 116.34765625 64.55 117 65.396875 117.17421875 66.3 117.3 65.71328125 115.998046875 61.8 113.7 60.8431640625 113.2455078125 59.8 112.65 57.847265625 111.28828125 57.8 109.75 57.6990234375 108.2689453125 59.65 105.95 61.4384765625 103.3033203125 69.05 99.35 78.308984375 94.539453125 82.7 90.8 86.7634765625 87.3791015625 90.25 82.1 93.7525390625 76.8294921875 96.2 70.45 98.6517578125 63.865625 100.05 55.5 101.5373046875 46.4310546875 101.25 38.3 100.8466796875 26.76640625 98 15.1 94.9146484375 2.6486328125 89.75 -6.75 84.087890625 -16.9697265625 76.2 -23.5
M 41.5 -29.6
Q 48.4021484375 -29.8166015625 55.25 -28.5 65.478125 -26.49921875 73.7 -19.8 81.2076171875 -13.628515625 86.7 -3.75 91.719921875 5.362890625 94.55 16.8 94.7251953125 17.5078125 94.9 18.2 95.1587890625 20.4259765625 95.2 22.55
L 95.2 22.55
Q 95.2486328125 24.15 95.15 25.7 94.34296875 36.41953125 86.8 50.8 81.6875 60.6755859375 66.8 77.15 51.5806640625 93.984765625 48.1 100.4 41.8060546875 112.8396484375 43.4 121.8 45.047265625 131.222265625 55.5 134.6 49.458984375 134.7150390625 43 133.45 42.9109375 133.4525390625 42.8 133.4 34.541015625 129.8287109375 35.5 119.25 36.0474609375 113.0423828125 40.8 103.65 44.0689453125 97.242578125 51.6 85.3 60.565625 71.0576171875 63.5 65.9 69.7626953125 54.878515625 72.2 46.95
L 72.2 46.95
Q 75.6673828125 34.18828125 72.9 23.25 69.334765625 9.3548828125 55.95 -0.35 35.715234375 -14.9486328125 13 -9.05 3.244921875 -6.5080078125 -6.5 -0.2 -7.7900390625 -2.6857421875 -6.3 -5.2 -4.393359375 -8.2763671875 4.4 -15.15 21.919921875 -28.93359375 41.5 -29.6
M 45.15 39.75
Q 44.84765625 30.9455078125 41.6 22.85 37.0015625 12.1556640625 30.35 6.75 22.9947265625 0.5748046875 13.15 0.9 7.5310546875 1.1234375 1.15 3.45
L 1.15 3.5
Q -3.21953125 4.2080078125 -5.7 1.05 -5.7919921875 0.9580078125 -5.9 0.85 3.71171875 -5.391015625 13.3 -7.9 35.484765625 -13.6515625 55.25 0.6 68.26484375 10.044921875 71.75 23.55 74.4326171875 34.211328125 71.05 46.65
L 71.05 46.6
Q 68.637109375 54.4212890625 62.45 65.3 59.5341796875 70.4421875 50.6 84.65 43.03125 96.65703125 39.75 103.1 34.8525390625 112.7576171875 34.3 119.15 33.4787109375 128.2921875 39 132.6 29.6533203125 130.4310546875 25.15 127.55 22.0376953125 125.5138671875 20.5 123 18.95703125 120.355078125 18.8 116.65 18.4564453125 107.3234375 28.35 88.9 31.458984375 83.5111328125 33.35 80.05 36.792578125 73.8576171875 39.05 68.65 45.6244140625 53.3103515625 45.15 39.75 Z"/>
</g>

<g id="FS_Tail_03_0_Layer0_0_FILL">
<path fill="#F4B6D1" stroke="none" d="
M -3.3 0.85
Q -2.8671875 2.156640625 -2.85 3.45 -2.6896484375 7.108203125 -5.4 10
L -5.5 10.1
Q -3.6638671875 9.2015625 -2.85 8.65 2.76328125 5.148828125 3.45 0.85 0.97421875 -1.3666015625 -3.3 0.85 Z"/>

<path fill="#E781B3" stroke="none" d="
M 6 2.75
Q 5.9607421875 1.3921875 3.45 0.85 2.76328125 5.148828125 -2.85 8.65 -3.6638671875 9.2015625 -5.5 10.1
L -5.4 10
Q -2.6896484375 7.108203125 -2.85 3.45 -2.8671875 2.156640625 -3.3 0.85 -4.165625 1.4501953125 -4.25 4.45 -4.52421875 6.48046875 -6.25 8.35 -6.7541015625 8.93046875 -8.35 9.75 -10.3443359375 10.91015625 -12.45 11.5 -17.260546875 12.801171875 -19.8 11.85 -22.8828125 10.6814453125 -20.55 6.2 -24.96796875 10.0357421875 -22.45 12.4 -20.223046875 14.5427734375 -14.5 14.35 -10.9810546875 14.179296875 -6.65 12.65 -3.2560546875 11.4607421875 -1.4 10.3 2.387109375 7.9416015625 4.1 5.95 5.4369140625 4.43203125 6 2.75 Z"/>
</g>

<g id="FS_FrontLeg_3_4_hoof_4_Layer0_0_FILL">
<path fill="#F26F31" stroke="none" d="
M -13.4 -12.85
L -13.4 -12.85 -13.4 -12.85 -13.4 -12.85 Z"/>

<path fill="#EBD463" stroke="none" d="
M -1.15 -18.45
L -1.2 -18.45
Q -9.624609375 -17.8423828125 -13.4 -12.85
L -13.4 -12.85
Q -16.978515625 -8.244140625 -19.45 -3.2
L -19.45 -3.25
Q -21.8619140625 1.6474609375 -24.65 7.7 -26.3091796875 11.4185546875 -25.4 13.65 -24.5841796875 16.204296875 -21 17 -15.576171875 18.259765625 -2.15 18.05 12.0072265625 17.7810546875 15.25 13.85 18.7416015625 10.1349609375 18.9 1.1 19.00546875 -7.925390625 13.05 -13.5 7.154296875 -19.091015625 -1.15 -18.45
M -0.95 -15.45
L -0.95 -15.45
Q 6.0544921875 -16.0005859375 11 -11.3 15.99453125 -6.574609375 15.9 1.05 15.7583984375 8.665625 13 11.85 10.0958984375 14.81875 -2.2 15.05 -15.123828125 15.2400390625 -20.35 14.05 -22.069140625 13.694921875 -22.6 12.65 -22.9419921875 11.2833984375 -21.9 8.95 -19.13828125 2.9525390625 -16.75 -1.9
L -16.75 -1.9
Q -14.421484375 -6.655859375 -11.05 -11
L -11 -11
Q -7.869921875 -14.9509765625 -0.95 -15.45 Z"/>

<path fill="#FDF6AE" stroke="none" d="
M -0.95 -15.45
L -0.95 -15.45
Q -7.869921875 -14.9509765625 -11 -11
L -11.05 -11
Q -14.421484375 -6.655859375 -16.75 -1.9
L -16.75 -1.9
Q -19.13828125 2.9525390625 -21.9 8.95 -22.9419921875 11.2833984375 -22.6 12.65 -22.069140625 13.694921875 -20.35 14.05 -15.123828125 15.2400390625 -2.2 15.05 10.0958984375 14.81875 13 11.85 15.7583984375 8.665625 15.9 1.05 15.99453125 -6.574609375 11 -11.3 6.0544921875 -16.0005859375 -0.95 -15.45 Z"/>
</g>

<g id="FS_KneePatch_1_Layer0_0_FILL">
<path fill="#EBD463" stroke="none" d="
M 10.75 -8.3
L 10.75 -8.45
Q 10.999609375 -9.6171875 11 -10.9 11.0111328125 -16.75078125 6.7 -21.15 2.4033203125 -25.5216796875 -3.55 -25.85 -9.52421875 -26.1814453125 -13.85 -22.55 -18.2634765625 -18.8869140625 -18.25 -13.75
L -18.25 -13.7
Q -18.333203125 -9.8595703125 -15.45 -3.75
L -15.4 -3.65 -15.4 -3.6
Q -12.6767578125 2.0408203125 -9.8 10.1
L -9.75 10.2
Q -9.74140625 10.22421875 -9.75 10.25
L -9.75 10.25
Q -6.684765625 18.7166015625 -4.1 21.8
L -4.05 21.85
Q -1.2443359375 25.3462890625 3.45 25.6
L 3.5 25.6
Q 8.171875 25.7728515625 11.55 22.6 14.949609375 19.4423828125 15.4 15.75 15.955859375 12.0994140625 13.1 9.2 8.4591796875 3.042578125 10.65 -7.8 10.721875 -8.034375 10.75 -8.3 Z"/>
</g>

<g id="FS_HindLeg_3_4rear_lower_0_Layer1_0_FILL">
<path fill="#F26F31" stroke="none" d="
M 8.6 8
Q 8.6333984375 7.9955078125 8.65 7.95
L 8.65 7.95 8.6 8 Z"/>

<path fill="#EBD463" stroke="none" d="
M 12.35 -6.4
Q 12.1732421875 -6.510546875 11.95 -6.6 1.59140625 -10.1181640625 -6.5 -4.85 -6.526171875 -4.8123046875 -6.6 -4.8 -14.9587890625 1.5962890625 -10.3 12.75 -10.2638671875 12.8216796875 -10.25 12.85 -7.8515625 17.784765625 -2.5 16.05 1.90625 14.6984375 8.65 7.95
L 8.65 7.95
Q 13.7076171875 3.494921875 14.7 0.2 16.0470703125 -3.87109375 12.35 -6.4
M 10.75 -3.8
Q 12.4302734375 -2.605078125 11.85 -0.75 10.8990234375 1.983203125 6.6 5.75 6.5771484375 5.8119140625 6.55 5.85 0.493359375 11.901953125 -3.4 13.2 -6.248828125 14.115234375 -7.55 11.5
L -7.55 11.6
Q -7.5458984375 11.575 -7.6 11.5 -11.2048828125 2.68671875 -4.75 -2.4
L -4.85 -2.35
Q 2.0138671875 -6.721484375 10.75 -3.8 Z"/>

<path fill="#FCBA63" stroke="none" d="
M -7.55 11.5
L -7.6 11.5
Q -7.5458984375 11.575 -7.55 11.6
L -7.55 11.5 Z"/>

<path fill="#FDF6AE" stroke="none" d="
M 11.85 -0.75
Q 12.4302734375 -2.605078125 10.75 -3.8 2.0138671875 -6.721484375 -4.85 -2.35
L -4.75 -2.4
Q -11.2048828125 2.68671875 -7.6 11.5
L -7.55 11.5
Q -6.248828125 14.115234375 -3.4 13.2 0.493359375 11.901953125 6.55 5.85 6.5771484375 5.8119140625 6.6 5.75 10.8990234375 1.983203125 11.85 -0.75 Z"/>
</g>

<g id="FS_HindLeg_3_4rear_lower_0_Layer0_0_FILL">
<path fill="#EBD463" stroke="none" d="
M -8.05 10.15
L -8.2 9.7 -8.45 8.7 -11.35 9.5 -10.95 10.95
Q -3.5580078125 37.8861328125 -11.7 64.6 -11.7875 65.0125 -11.9 65.4
L -8.85 65.4
Q -0.5115234375 37.662109375 -8.05 10.15
M 11.65 -2.95
Q 11.686328125 -2.8736328125 11.7 -2.8 26.2828125 27.8509765625 24.65 64.3
L 27.6 64.1
Q 29.3125 27.137109375 14.35 -4.25
L 14.2 -4.5 11 -4.3 11.65 -2.95 Z"/>

<path fill="#FDF6AE" stroke="none" d="
M 24.65 64.3
Q 26.2828125 27.8509765625 11.7 -2.8
L -8.2 9.7 -8.05 10.15
Q -0.5115234375 37.662109375 -8.85 65.4
L 24.65 64.3 Z"/>
</g>

<g id="FS_HindLeg_3_4_top_0_Layer0_0_FILL">
<path fill="#EBD463" stroke="none" d="
M 6.75 76.35
L 6.75 76.35
Q -5.6740234375 79.4810546875 -17.85 52.9 -22.4396484375 44.2798828125 -22.8 35.45 -22.8046875 34.6546875 -22.8 33.8
L -22.8 33.75
Q -24.534375 39.942578125 -23.7 44.9 -22.7796875 49.8568359375 -19.9 55.4
L -19.9 55.4
Q -13.921484375 66.6205078125 -8 72.35 -7.2390625 73.39921875 -6.3 74.35
L -6.3 74.3
Q -2.226953125 78.1365234375 3.25 77.8 5.5173828125 77.7169921875 6.75 76.35
M 0.85 -1.2
L 0.85 -1.25
Q -2.5255859375 -2.312109375 -0.95 1.15 2.9390625 3.284375 6.45 8.5 8.05 10.9306640625 9.2 14.2 10.0458984375 16.399609375 11.05 20.4 12.373046875 25.2171875 12.6 30.75 12.986328125 38.148046875 10.7 47.15 8.4671875 56.2173828125 7.35 60.2 6.22265625 64.238671875 7.15 70.45 7.80390625 74.5998046875 6.8 76.3 7.4986328125 75.5841796875 7.85 74.5 7.9609375 74.2607421875 8 74 8.354296875 72.8421875 8.25 68.95 8.2013671875 65.08515625 9.5 60.65 10.8474609375 56.258984375 13.15 47.55 15.5009765625 38.859765625 15.5 31.85 15.5564453125 24.8787109375 14.15 19.5 12.0056640625 11.4095703125 8.7 6.6 5.0640625 1.298046875 0.85 -1.2 Z"/>

<path fill="#FDF6AE" stroke="none" d="
M 10.7 47.15
Q 12.986328125 38.148046875 12.6 30.75 12.373046875 25.2171875 11.05 20.4 10.0458984375 16.399609375 9.2 14.2 8.05 10.9306640625 6.45 8.5 2.9390625 3.284375 -0.95 1.15
L -22.8 33.8
Q -22.8046875 34.6546875 -22.8 35.45 -22.4396484375 44.2798828125 -17.85 52.9 -5.6740234375 79.4810546875 6.75 76.35
L 6.75 76.35 6.8 76.35
Q 6.814453125 76.3533203125 6.8 76.3 7.80390625 74.5998046875 7.15 70.45 6.22265625 64.238671875 7.35 60.2 8.4671875 56.2173828125 10.7 47.15 Z"/>
</g>

<g id="FS_KneePatch_0_Layer0_0_FILL">
<path fill="#FDF6AE" stroke="none" d="
M 6.95 -3.8
Q 7.6271484375 -8.4921875 7.65 -8.75
L 7.65 -8.75
Q 7.6830078125 -8.7876953125 7.7 -8.85 7.850390625 -9.7474609375 7.85 -10.75 7.8390625 -15.39921875 4.4 -18.9 0.946484375 -22.4283203125 -3.85 -22.7 -8.6259765625 -22.9685546875 -12.1 -20.1 -15.376171875 -17.3716796875 -15.4 -13.55
L -15.4 -13.55
Q -15.40625 -10.530078125 -12.6 -4.2
L -12.4 -3.7
Q -12.324609375 -3.590625 -12.3 -3.5 -12.2001953125 -3.3171875 -12.15 -3.15 -12.0654296875 -3.0400390625 -12 -2.95
L -12 -2.9 -11.95 -2.8
Q -9.565234375 2.4005859375 -7.1 9.35 -7.0333984375 9.4712890625 -7.05 9.6 -4.2322265625 17.2533203125 -1.9 20.1
L -1.9 20.1
Q 0.112890625 22.6044921875 3.45 22.75 6.435546875 22.852734375 8.7 21.1
L 8.7 21.15
Q 19.876171875 11.2931640625 12.45 5.8 11.055859375 5.381640625 9.7 4.45 9.7404296875 4.5390625 9.75 4.6 8.476171875 3.9505859375 7.75 2.7 6.5830078125 1.1353515625 6.75 -1.95 6.7810546875 -2.8294921875 6.9 -3.8
L 6.95 -3.8 Z"/>
</g>

<g id="FS_FrontLeg_3_4_hoof_0_Layer0_0_FILL">
<path fill="#EBD463" stroke="none" d="
M 14.95 -14.95
Q 8.7541015625 -20.8443359375 0.05 -20.15 -8.81640625 -19.5484375 -12.8 -14.35 -16.526953125 -9.5060546875 -19.15 -4.25 -21.7119140625 0.947265625 -24.6 7.3
L -24.55 7.3
Q -26.32890625 11.167578125 -25.4 13.5 -24.5373046875 16.1365234375 -20.8 17
L -20.8 17
Q -15.0755859375 18.309765625 -1 18.05 13.7875 17.7890625 17.25 13.7
L 17.25 13.7
Q 20.8900390625 9.7828125 21.05 0.3 21.2107421875 -9.126171875 14.95 -14.95
M 0.25 -17.15
L 0.25 -17.15
Q 7.6546875 -17.7474609375 12.9 -12.75 18.1890625 -7.7734375 18.05 0.25 17.9103515625 8.2857421875 15.05 11.65
L 15 11.7
Q 11.8634765625 14.81171875 -1.05 15.05 -14.6240234375 15.2900390625 -20.15 14.05
L -20.15 14.1
Q -22.016015625 13.6626953125 -22.55 12.5 -22.959375 11.0341796875 -21.85 8.55 -18.9880859375 2.2525390625 -16.45 -2.9 -13.9732421875 -7.894140625 -10.45 -12.5 -7.0837890625 -16.6517578125 0.25 -17.15 Z"/>

<path fill="#FDF6AE" stroke="none" d="
M 0.25 -17.15
L 0.25 -17.15
Q -7.0837890625 -16.6517578125 -10.45 -12.5 -13.9732421875 -7.894140625 -16.45 -2.9 -18.9880859375 2.2525390625 -21.85 8.55 -22.959375 11.0341796875 -22.55 12.5 -22.016015625 13.6626953125 -20.15 14.1
L -20.15 14.05
Q -14.6240234375 15.2900390625 -1.05 15.05 11.8634765625 14.81171875 15 11.7
L 15.05 11.65
Q 17.9103515625 8.2857421875 18.05 0.25 18.1890625 -7.7734375 12.9 -12.75 7.6546875 -17.7474609375 0.25 -17.15 Z"/>
</g>

<g id="FS_FrontLeg_3_4_upper_2_Layer1_0_FILL">
<path fill="#EBD463" stroke="none" d="
M -17.3 82.35
L -14.2 82.9
Q -3.4103515625 50.004296875 -7.15 -2.5 -9.971484375 0.565234375 -9.25 14.7 -7.92421875 54.5646484375 -17.3 82.35
M 18.4 19.05
Q 12.98984375 3.2484375 9.05 0.4 26.109765625 43.7232421875 19.95 89.45
L 19.95 89.5
Q 21.0232421875 91.8462890625 22.9 89.9
L 22.9 89.9
Q 27.77265625 53.83984375 18.4 19.05 Z"/>

<path fill="#FDF6AE" stroke="none" d="
M 9.05 0.4
L 9.05 0.35
Q 0.58515625 -2.4958984375 -7.15 -2.5 -3.4103515625 50.004296875 -14.2 82.9
L -13.1 84.35 19.95 89.45
Q 26.109765625 43.7232421875 9.05 0.4 Z"/>
</g>

<g id="FS_Torso_12_Layer1_0_FILL">
<path fill="#EBD564" stroke="none" d="
M -41.9 -20.65
Q -43 -20 -44 -19.25 -50.4 -14.55 -53.2 -5.85 -53.55 -4.85 -53.8 -3.8 -54.9 1.35 -54.25 5.75
L -54.25 5.8
Q -53.55 10.5 -50.55 15.75 -49.85 16.95 -49.05 18.1 -47.65 20 -45.05 22.45
L -45.05 22.5
Q -42.65 24.8 -39.8 26.85 -32 32.4 -23.05 34.6 -17.85 35.9 -12.35 36.35 -9.95 36.6 -7.5 36.65 -6.3 36.65 -5.05 36.7 -3.05 36.6 -1.15 36.5 9.05 35.95 16.05 34.4 16.95 34.2 17.7 34 24.6 32.3 30.75 29.1
L 30.8 29.1
Q 31.6 28.7 32.3 28.3 34.7 27.1 36.05 26.25 39.05 24.45 41.4 22.35 43.25 20.65 44.75 18.95 48.95 14.2 51.25 8.95 51.75 7.85 52.15 6.75 54.65 -0.2 54.2 -8.25 54.05 -11.75 53.2 -14.85 52.9 -16.15 52.35 -17.65 51.85 -19.15 51.2 -20.7 49.95 -23.65 48.05 -26.15 46.55 -28 44.5 -29.9 41.15 -32.85 37 -34.55 33.45 -36 29.6 -36.45
L 29.55 -36.45
Q 22.85 -37.3 15.55 -35.15 14.45 -34.85 13.4 -34.45 13.35 -34.45 13.35 -34.4 8.55 -32.7 2.7 -29.3 1.9 -28.85 1.2 -28.45 -1.35 -26.95 -3.6 -26 -4.3 -25.7 -5 -25.45 -6.05 -25.05 -7.2 -24.7 -10.3 -24.1 -12.75 -23.9 -14.1 -23.8 -15.45 -23.75 -21 -23.6 -27.9 -23.75 -28 -23.75 -28.05 -23.75 -36.4 -23.9 -41.9 -20.65
M -50.95 -2.55
Q -47.65 -12.6 -42.45 -16.65 -41.25 -17.5 -39.9 -18.25 -35.3 -20.8 -28.55 -20.75 -28 -20.7 -27.55 -20.7 -20.7 -20.6 -15.25 -20.75 -14 -20.8 -12.8 -20.9 -11.4 -21 -9.8 -21.2 -9.6 -21.25 -9.4 -21.25 -8.5 -21.4 -7.5 -21.55 -7.1 -21.65 -6.75 -21.7 -5.25 -22.1 -3.8 -22.65 -3.35 -22.85 -2.95 -23 -2.55 -23.1 -2.2 -23.25 0 -24.25 2.55 -25.75 3.45 -26.3 4.4 -26.85 9.8 -29.95 14.2 -31.55 14.25 -31.55 14.3 -31.55 15.45 -32 16.55 -32.35 23.05 -34.2 29 -33.5 30.024609375 -33.376953125 31 -33.2
L 33.6 -32.55
Q 34.8693359375 -32.1568359375 36.1 -31.65 37.809375 -30.92109375 39.35 -29.95
L 42.3 -27.75
Q 44.2 -26.1 45.55 -24.4 46.8771484375 -22.670703125 47.85 -20.7
L 48 -20.45
Q 48.18125 -20.07421875 48.35 -19.7 48.5169921875 -19.2888671875 48.65 -18.9
L 49.25 -17.4
Q 49.375 -17.0125 49.5 -16.65 49.6169921875 -16.29921875 49.7 -15.95
L 50.25 -14.15
Q 51 -11.35 51.2 -8.2 51.65 -0.1 48.9 6.75 48.65 7.3 48.45 7.8 46.35 12.55 42.65 16.75 41.15 18.5 39.15 20.25
L 39.2 20.25 39.2 20.3
Q 37 22.15 34.2 23.85 32.9 24.7 30.05 26.1 29.75 26.25 29.45 26.4 27.3 27.5 25.05 28.4 24.8 28.5 24.55 28.55 24.5 28.55 24.45 28.6 24.1 28.7 23.75 28.8
L 17.1 30.9
Q 16.68125 31.04375 16.25 31.15 13.15 32 9.9 32.5 8.15 32.8 6.4 32.95
L 6.35 32.95
Q 2.7482421875 33.3478515625 -1 33.45
L -1.05 33.45
Q -2.9 33.5 -4.8 33.5
L -5.2 33.5
Q -6.3759765625 33.5490234375 -7.6 33.5
L -7.65 33.5
Q -10.0744140625 33.448046875 -12.45 33.25
L -12.5 33.25 -19.8 32.25
Q -20.9625 32.025 -22.1 31.75 -30.4 29.75 -37.6 24.75 -37.9953125 24.47578125 -38.4 24.2
L -41.5 21.75
Q -42.4171875 20.948828125 -43.3 20.1 -43.7861328125 19.6138671875 -44.25 19.1
L -45.15 18.15
Q -45.213671875 18.05 -45.3 17.95 -45.32421875 17.92421875 -45.35 17.9 -46.0708984375 17.12265625 -46.7 16.3 -47.358203125 15.4095703125 -47.9 14.5 -48.050390625 14.245703125 -48.2 14 -48.853515625 12.83046875 -49.4 11.7
L -51.35 5.65
Q -51.4126953125 5.328125 -51.45 5
L -51.45 4.95
Q -51.75 1.55 -50.95 -2.55 Z"/>

<path fill="#FDF6AE" stroke="none" d="
M -42.45 -16.65
Q -47.65 -12.6 -50.95 -2.55 -51.75 1.55 -51.45 4.95
L -51.45 5
Q -51.4126953125 5.328125 -51.35 5.65
L -49.4 11.7
Q -48.853515625 12.83046875 -48.2 14 -48.050390625 14.245703125 -47.9 14.5 -47.358203125 15.4095703125 -46.7 16.3 -46.0708984375 17.12265625 -45.35 17.9 -45.32421875 17.92421875 -45.3 17.95 -45.213671875 18.05 -45.15 18.15
L -44.25 19.1
Q -43.78671875 19.5853515625 -43.3 20.05 -42.415234375 20.9177734375 -41.5 21.75
L -38.4 24.2
Q -38.0171875 24.447265625 -37.65 24.7 -30.45 29.7 -22.15 31.7 -20.985546875 31.991015625 -19.8 32.25
L -12.5 33.25 -12.45 33.25
Q -10.0744140625 33.448046875 -7.65 33.5
L -7.6 33.5
Q -6.3759765625 33.5490234375 -5.2 33.5
L -4.8 33.5
Q -2.9 33.5 -1.05 33.45
L -1 33.45
Q 2.7482421875 33.3478515625 6.35 32.95
L 6.4 32.95
Q 8.15 32.8 9.9 32.5 13.15 32 16.25 31.15 16.68125 31.04375 17.1 30.9
L 23.75 28.8
Q 24.1 28.7 24.45 28.6 24.5 28.55 24.55 28.55 24.8 28.5 25.05 28.4 27.3 27.5 29.45 26.4 29.75 26.25 30.05 26.1 32.9 24.7 34.2 23.85 37 22.15 39.2 20.3
L 39.15 20.25
Q 41.15 18.5 42.65 16.75 46.35 12.55 48.45 7.8 48.65 7.3 48.9 6.75 51.65 -0.1 51.2 -8.2 51 -11.35 50.25 -14.15
L 49.7 -15.95
Q 49.6125 -16.275 49.5 -16.6 49.3712890625 -16.9859375 49.25 -17.4
L 48.65 -18.9
Q 48.5125 -19.2625 48.35 -19.65 48.1810546875 -20.0494140625 48 -20.45
L 47.85 -20.7
Q 46.8771484375 -22.670703125 45.55 -24.4 44.2 -26.1 42.3 -27.75
L 39.35 -29.95
Q 37.809375 -30.92109375 36.1 -31.65 34.8693359375 -32.1568359375 33.6 -32.55
L 31 -33.2
Q 30.024609375 -33.376953125 29 -33.5 23.05 -34.2 16.55 -32.35 15.45 -32 14.3 -31.55 14.25 -31.55 14.2 -31.55 9.8 -29.95 4.4 -26.85 3.45 -26.3 2.55 -25.75 0 -24.25 -2.2 -23.25 -2.55 -23.1 -2.95 -23 -3.35 -22.85 -3.8 -22.65 -5.25 -22.1 -6.75 -21.7 -7.1 -21.65 -7.5 -21.55 -8.5 -21.4 -9.4 -21.25 -9.6 -21.25 -9.8 -21.2 -11.4 -21 -12.8 -20.9 -14 -20.8 -15.25 -20.75 -20.7 -20.6 -27.55 -20.7 -28 -20.7 -28.55 -20.75 -35.3 -20.8 -39.9 -18.25 -41.25 -17.5 -42.45 -16.65 Z"/>
</g>

<g id="FS_Neck_1_Layer0_0_FILL">
<path fill="#FDF6AE" stroke="none" d="
M -17.6 -99.9
L -17.65 -99.9
Q -26.683984375 -109.0083984375 -39.8 -109 -52.8892578125 -108.998828125 -62.3 -99.85 -71.801171875 -90.6611328125 -72.05 -77.85 -72.3279296875 -65.053125 -63.25 -55.9
L -63.25 -55.9
Q -62.7607421875 -55.412890625 -62.25 -54.95
L -60.5 -53.45 -60.5 -53.4 -59.15 -51.9
Q -48.75625 -40.150390625 -47.1 -29.25 -47 -27.9 -46.95 -26.5 -46.9 -23.2 -47.45 -19.75 -50.535546875 -0.3146484375 -45.9 16
L -45.9 15.95
Q -39.7232421875 37.46015625 -19.85 44.45
L -18.45 44.95 -18.55 45
Q -7.184375 45.1412109375 -5.55 29.25 -3.9140625 13.4140625 -2.6 -0.1
L -0.25 -0.05
Q -3.05859375 -1.5416015625 -4.1 -3.15 -5.85234375 -5.197265625 -8.1 -25.15 -9.88515625 -40.952734375 -9.5 -62.95 -9.3767578125 -67.9625 -9.2 -73.3 -9.158984375 -73.5244140625 -9.15 -73.75
L -9.15 -81.3 -8.85 -81.3
Q -9.7095703125 -91.998828125 -17.6 -99.9
M -34.6 -47.4
L -34.7 -47.4
Q -34.6310546875 -47.38359375 -34.6 -47.4
L -34.6 -47.4 Z"/>

<path fill="#EBD564" stroke="none" d="
M -34.7 -47.4
L -34.6 -47.4 -34.6 -47.4
Q -34.6310546875 -47.38359375 -34.7 -47.4
M -17.65 -99.9
L -17.6 -99.9
Q -9.7095703125 -91.998828125 -8.85 -81.3
L -9.15 -81.3 -9.15 -73.75
Q -9.158984375 -73.5244140625 -9.2 -73.3 -9.3767578125 -67.9625 -9.5 -62.95 -9.88515625 -40.952734375 -8.1 -25.15 -5.85234375 -5.197265625 -4.1 -3.15 -3.05859375 -1.5416015625 -0.25 -0.05 -1.4 -1.85 -2.25 -4.8 -3.05 -7.45 -5.1 -25.5 -7.2638671875 -44.648828125 -6.2 -72.95 -5.7958984375 -75.3732421875 -5.75 -77.95 -5.492578125 -92.0048828125 -15.5 -102
L -15.5 -102
Q -25.41640625 -111.9916015625 -39.8 -112 -54.110546875 -112.0013671875 -64.4 -102 -74.7986328125 -91.9388671875 -75.05 -77.9 -75.355078125 -64.5958984375 -66.45 -54.9 -65.9 -54.35 -65.35 -53.8 -63.45 -52 -61.7 -50.1 -60.3 -48.55 -58.95 -46.95 -52.171875 -38.4115234375 -50.45 -29.2 -50 -25.35 -50.3 -21.6 -50.35 -20.65 -50.5 -19.7 -53.575 0.1408203125 -48.8 16.8
L -48.8 16.8
Q -42.1767578125 39.8396484375 -20.85 47.3
L -19.45 47.8 -18.55 45 -18.45 44.95 -19.85 44.45
Q -39.7232421875 37.46015625 -45.9 15.95
L -45.9 16
Q -50.535546875 -0.3146484375 -47.45 -19.75 -46.9 -23.2 -46.95 -26.5 -47 -27.9 -47.1 -29.25 -48.75625 -40.150390625 -59.15 -51.9
L -60.5 -53.4 -61.7 -53.4 -60.5 -53.45 -62.25 -54.95
Q -62.7607421875 -55.412890625 -63.25 -55.9
L -63.25 -55.9
Q -72.3279296875 -65.053125 -72.05 -77.85 -71.801171875 -90.6611328125 -62.3 -99.85 -52.8892578125 -108.998828125 -39.8 -109 -26.683984375 -109.0083984375 -17.65 -99.9 Z"/>
</g>

<g id="FS_CutieMark_3_Layer0_0_FILL">
<path fill="#F4B6D1" stroke="none" d="
M -5.5 10.4
Q -7.9033203125 7.235546875 -8.95 5.7 -10.909765625 4.6470703125 -12.7 4.4 -16.221875 3.24765625 -17.2 5.25 -18.0546875 7.18203125 -15.5 8.75 -12.7251953125 10.0259765625 -10.95 9.2 -12.25546875 10.88828125 -12.5 13.4 -12.3291015625 16.06484375 -10.25 16.5 -7.8779296875 16.7341796875 -6.65 14.4 -5.8419921875 13.0908203125 -5.5 10.4
M -6.55 -1.8
Q -7.8453125 -2.6001953125 -8.3 -0.5 -8.35078125 1.56796875 -7.9 4.9 -7.026953125 5.6484375 -6.5 7.05 -5.2416015625 8.7720703125 -5.05 10.3 -4.096484375 10.2470703125 -2.15 10.95 0.5546875 11.0046875 1.2 9 1.7734375 6.5494140625 -0.9 5.6 -3.3076171875 4.4341796875 -4.85 5.55 -4.106640625 3.62109375 -4.6 1.6 -4.9568359375 -0.9142578125 -6.55 -1.8
M 12.15 8.3
Q 12.168359375 6.5080078125 11.95 5.2 10.9880859375 1.9431640625 9.45 2.35 7.3564453125 2.0666015625 7.4 5.15 6.9189453125 7.6501953125 8.6 8.6 6.5623046875 8.1921875 4.5 9.6 2.239453125 10.87578125 2.6 12.95 2.7158203125 14.566015625 5.35 14.25 6.5716796875 13.9724609375 9.15 12.95 10.937890625 9.6537109375 12.15 8.3
M 13.2 8.8
Q 12.5970703125 9.4357421875 11.8 10.75 10.3580078125 12.262890625 9.4 13.2 9.29296875 13.7455078125 9.5 15.75 9.9134765625 17.6994140625 12.1 17.25 14.46328125 16.6326171875 14.7 14.1 14.8021484375 11.7669921875 13.65 11.25 15.3400390625 10.9701171875 17.2 9.75 19.1158203125 8.2416015625 19.65 7.15 20.106640625 5.6630859375 17.8 6.5 15.6185546875 7.0689453125 13.2 8.8
M 7.45 -9.9
Q 7.178125 -8.6236328125 6.5 -7.5 5.3986328125 -5.2302734375 4.4 -4.3 4.767578125 -3.3771484375 5.45 -1.25 6.5802734375 0.983984375 9 0.65 11.6595703125 0.095703125 11.2 -2.9 10.532421875 -5.830078125 8.95 -6.75 10.909765625 -6.896875 12.65 -8.45 14.5005859375 -9.7697265625 14.8 -11.75 14.796875 -13.288671875 12.25 -12.75 10.053125 -11.905859375 7.45 -9.9
M 4.55 -14.6
Q 2.709375 -18.2181640625 0.65 -18.3 -1.7833984375 -18.0974609375 -0.85 -14.85 -0.2970703125 -11.384375 1.8 -10.3 -0.5794921875 -10.48828125 -2.5 -9.2 -4.5126953125 -7.3880859375 -3.65 -5.05 -2.6478515625 -2.768359375 0 -3.2 1.27421875 -3.3318359375 4.05 -4.65 5.0708984375 -8.749609375 6.05 -10.5 5.3333984375 -12.7283203125 4.55 -14.6 Z"/>

<path fill="#6CC9C6" stroke="none" d="
M -10.95 -0.85
Q -10.652734375 -1.1224609375 -10.55 -1.25 -10.1017578125 -1.2919921875 -10 -0.85 -9.686328125 -0.477734375 -10.1 -0.3 -9.6154296875 -0.1857421875 -9.7 -0.1 -9.288671875 -0.5724609375 -9.55 -0.95 -9.482421875 -1.334765625 -10.1 -1.55 -10.3017578125 -1.6763671875 -10.85 -1.7 -10.9892578125 -1.42265625 -11.45 -1 -11.49375 -0.783984375 -11.35 0.45 -10.7232421875 2.14296875 -9.4 4.15
L -9.4 4.2
Q -10.0458984375 3.1068359375 -11.2 2.65 -13.048828125 1.126953125 -14.05 1.3 -14.115234375 1.0916015625 -14.35 1.35 -14.590234375 1.3927734375 -15 1.75 -15.1224609375 2.07109375 -15.1 2.3 -14.775390625 2.573828125 -14.5 2.95 -13.8046875 2.9486328125 -13.6 3.05
L -13.5 3
Q -13.55 2.605078125 -13.65 2.55 -13.58671875 2.599609375 -13.7 2.65 -13.8640625 2.4390625 -14.35 2.5 -14.458984375 2.191796875 -14.55 2.3 -14.5658203125 1.905078125 -14.25 1.8 -13.8919921875 1.5666015625 -14.05 1.75 -13.173828125 1.4798828125 -11.5 3.05 -10.3267578125 3.5125 -9.5 4.95 -9.4376953125 4.899609375 -9.4 4.85 -9.175390625 5.190234375 -8.95 5.7 -7.9033203125 7.235546875 -5.5 10.4 -5.0515625 10.7875 -4.9 11.15 -4.7927734375 10.652734375 -5.05 10.3 -5.2416015625 8.7720703125 -6.5 7.05 -7.026953125 5.6484375 -7.9 4.9 -8.2642578125 4.1484375 -8.95 4.05
L -8.9 4.05
Q -10.1294921875 2.063671875 -10.85 0.35 -11.0060546875 -0.64921875 -10.95 -0.85
M 17.1 3.95
Q 16.4111328125 3.9609375 15.8 4.6 14.1724609375 5.7830078125 13.3 7.45
L 13.3 7.4
Q 13.526171875 6.9361328125 14 5.6 14.53359375 3.3380859375 14 2.85 13.95 2.5291015625 13.85 2.65 13.4900390625 2.2318359375 13.25 2.45 12.8513671875 2.3552734375 12.7 2.6 12.426171875 2.8525390625 12.4 3.25 12.2109375 3.416796875 12.65 4 12.7248046875 4.049609375 12.75 4.05 12.85234375 3.6916015625 13.1 3.75 13.049609375 3.529296875 13 3.75 12.4912109375 3.116796875 13 2.95 12.9732421875 2.6955078125 13.6 2.95 13.6625 2.7791015625 13.7 3.05 14.086328125 3.460546875 13.6 5.5 13.061328125 6.9349609375 12.6 7.65 12.675 7.6025390625 12.7 7.7 12.3013671875 7.9400390625 12.15 8.3 10.937890625 9.6537109375 9.15 12.95 8.9 13.1666015625 8.65 13.8 8.791796875 13.5244140625 9.4 13.2 10.3580078125 12.262890625 11.8 10.75 12.5970703125 9.4357421875 13.2 8.8 13.4935546875 8.0294921875 13.55 7.7
L 13.6 7.7
Q 13.7359375 7.230859375 14.5 6.5 15.33359375 5.3345703125 16.1 4.95 16.65 4.3107421875 17.2 4.35 17.2888671875 4.10703125 17.65 4.5 17.8033203125 4.5669921875 17.55 5.1 17.2958984375 5.0140625 17 5.2 16.7541015625 5.3150390625 16.95 5.55 17.4 5.48359375 17.8 5.35 18.493359375 4.7623046875 17.95 4.15 17.55 3.672265625 17.1 3.95
M 11.65 -15.55
Q 10.9263671875 -15.941015625 10.5 -15.95 9.825 -15.82578125 9.15 -15.15 7.879296875 -13.751953125 7.05 -11.7 7.037109375 -11.675 7 -11.7 7.086328125 -12.6392578125 7.3 -13.9 7.1294921875 -16.2908203125 6.45 -17.35 6.1552734375 -17.1919921875 6.2 -17.55 5.6900390625 -17.648828125 5.35 -17.9 4.8890625 -17.651953125 4.7 -17.7 4.4166015625 -17.312890625 4.55 -16.95 4.4857421875 -16.3654296875 5.05 -16 5.123828125 -15.9376953125 5.3 -15.9 5.3400390625 -15.99921875 5.55 -16.25 5.3515625 -16.178125 5.45 -16.3 4.8970703125 -16.600390625 5.15 -16.9 4.72578125 -17.1974609375 5.15 -17.35 5.4400390625 -17.5419921875 5.9 -17.25 5.766796875 -17.14609375 6.1 -17 6.5345703125 -16.3728515625 6.8 -14.05 6.4640625 -12.0681640625 6.4 -11.4 6.465625 -11.25 6.5 -11.25 6.139453125 -10.7859375 6.05 -10.5 5.0708984375 -8.749609375 4.05 -4.65 3.899609375 -3.883203125 3.75 -3.65 4.00234375 -3.97109375 4.4 -4.3 5.3986328125 -5.2302734375 6.5 -7.5 7.178125 -8.6236328125 7.45 -9.9 7.5123046875 -10.672265625 7.55 -11.3 7.496875 -11.8931640625 8.25 -12.85 8.8486328125 -13.8810546875 9.55 -14.75 9.8703125 -15.1849609375 10.65 -15.5 11.1056640625 -15.408984375 11.3 -15.3 11.4498046875 -14.9515625 11.55 -14.9 11.3763671875 -14.675390625 11.45 -14.45 11.0400390625 -13.997265625 10.75 -14.35 10.6388671875 -13.879296875 10.8 -13.9 11.312109375 -13.7583984375 11.8 -14.15 11.9970703125 -14.194921875 12 -14.9 11.99453125 -15.148828125 11.65 -15.55 Z"/>
</g>

<g id="FS_Wing_side_8_Layer4_0_FILL">
<path fill="#FFF8AD" stroke="none" d="
M 21.55 14.75
L 21.55 14.7
Q 21.2142578125 14.1181640625 20.8 13.6
L 20.8 13.6
Q 18.1185546875 10.5724609375 10.35 10.55 10.3005859375 3.5751953125 -0.85 1.7
L -8.45 1.25 -8.5 1.3 -9.2 1.9
Q -15.48515625 8.1115234375 -17.1 16 -18.7552734375 24.0869140625 -14.65 30.5 -7.2 41.795703125 10.15 38.55 22.0693359375 32.926953125 19.25 24.6 23.9587890625 19.2478515625 21.55 14.75
M 22.65 27.4
Q 22.66171875 27.693359375 22.65 27.95 22.58046875 32.1900390625 18.55 36.15 30.1486328125 31.27578125 39.5 16.85 40.3603515625 15.5462890625 41.1 14.25
L 22.65 27.4
M 43.05 10.6
Q 44.6708984375 7.1671875 45.45 4.05 46.0837890625 1.4330078125 45.95 -0.45
L 23.55 12.35
Q 23.8908203125 12.809375 24.15 13.3
L 24.15 13.3
Q 27.62890625 19.3095703125 22.3 25.1 22.478515625 25.676953125 22.55 26.25
L 42.25 12.15
Q 42.69375 11.384765625 43.05 10.6
L 43.05 10.6
M 40.2 -5.35
L 40.2 -5.35
Q 39.5380859375 -5.4392578125 38.8 -5.5
L 12 6.4
Q 12.3978515625 7.1595703125 12.6 8.05 19.8712890625 7.8109375 22.95 11.5
L 45.85 -1.5
Q 45.5666015625 -2.65234375 44.85 -3.35
L 44.8 -3.35
Q 43.229296875 -4.827734375 40.2 -5.35
M 36.5 -5.6
Q 32.940625 -5.5923828125 28.2 -4.75 17.980859375 -2.937109375 6.05 1.95 9.87421875 2.86640625 11.5 5.5
L 36.5 -5.6 Z"/>

<path fill="#EBD463" stroke="none" d="
M 46.9 -5.55
Q 44.7744140625 -7.612109375 40.7 -8.3 35.7517578125 -9.144921875 27.65 -7.75 14.734765625 -5.4265625 -0.85 1.7 10.3005859375 3.5751953125 10.35 10.55 18.1185546875 10.5724609375 20.8 13.6
L 20.8 13.6
Q 21.2142578125 14.1181640625 21.55 14.7
L 21.55 14.75
Q 23.9587890625 19.2478515625 19.25 24.6 22.0693359375 32.926953125 10.15 38.55 -7.2 41.795703125 -14.65 30.5 -18.7552734375 24.0869140625 -17.1 16 -15.48515625 8.1115234375 -9.2 1.9
L -8.5 1.3
Q -18.253515625 6.6705078125 -20.05 15.35
L -20.05 15.4
Q -21.9291015625 24.716796875 -17.15 32.1 -8.7962890625 45.237890625 11 41.45 11.162109375 41.4291015625 11.25 41.35 13.279296875 40.975 15.4 40.4 30.3787109375 36.4216796875 42 18.5 44.2009765625 15.115625 45.75 11.95
L 45.75 11.9
Q 47.5208984375 8.1666015625 48.35 4.75 49.3619140625 0.556640625 48.75 -2.1
L 48.75 -2.1
Q 48.2580078125 -4.2615234375 46.85 -5.55
L 46.9 -5.55
M 28.2 -4.75
Q 32.940625 -5.5923828125 36.5 -5.6
L 11.5 5.5
Q 9.87421875 2.86640625 6.05 1.95 17.980859375 -2.937109375 28.2 -4.75
M 40.2 -5.35
L 40.2 -5.35
Q 43.229296875 -4.827734375 44.8 -3.35
L 44.85 -3.35
Q 45.5666015625 -2.65234375 45.85 -1.5
L 22.95 11.5
Q 19.8712890625 7.8109375 12.6 8.05 12.3978515625 7.1595703125 12 6.4
L 38.8 -5.5
Q 39.5380859375 -5.4392578125 40.2 -5.35
M 45.45 4.05
Q 44.6708984375 7.1671875 43.05 10.6
L 43.05 10.6
Q 42.69375 11.384765625 42.25 12.15
L 22.55 26.25
Q 22.478515625 25.676953125 22.3 25.1 27.62890625 19.3095703125 24.15 13.3
L 24.15 13.3
Q 23.8908203125 12.809375 23.55 12.35
L 45.95 -0.45
Q 46.0837890625 1.4330078125 45.45 4.05
M 22.65 27.95
Q 22.66171875 27.693359375 22.65 27.4
L 41.1 14.25
Q 40.3603515625 15.5462890625 39.5 16.85 30.1486328125 31.27578125 18.55 36.15 22.58046875 32.1900390625 22.65 27.95 Z"/>
</g>

<g id="FS_Skull_0_Layer0_0_FILL">
<path fill="#FDF6AE" stroke="none" d="
M -13.1 -42.35
Q -21.1 -39.7 -28.55 -34.05 -31.85 -31.5 -35.3 -27.95 -40.25 -22.8 -42.85 -11.5 -44.6458984375 -3.5529296875 -44.85 1.85 -45.012890625 7.3087890625 -44.25 14.15 -43.4365234375 20.9841796875 -42.3 24.2 -41.1564453125 27.423828125 -40.55 28.85 -39.898046875 30.31015625 -39.95 31.45
L -33.15 31.55
Q -19.908203125 42.349609375 -3.55 45.95 12.84921875 49.6044921875 18.65 48.75 26.2490234375 43.9646484375 33.6 36.15 40.988671875 28.38125 46 11.5 51.009375 -5.39296875 48.1 -15.3 46.64609375 -20.2318359375 44.05 -24.7 41.2005859375 -29.57109375 36.95 -33.85 25.890625 -44.9564453125 5.35 -45.05 -4.85 -45.1 -13.1 -42.35 Z"/>

<path fill="#EBD463" stroke="none" d="
M -30.35 -36.45
Q -32.1 -35.1 -37.65 -29 -42.2 -23.95 -45 -14.9 -47.8490234375 -5.702734375 -47.6 4.85 -47.3529296875 15.408203125 -45.55 22.45 -43.74609375 29.5390625 -41.05 31.4
L -40.8 31.4
Q -39.876171875 32.57734375 -39.95 31.45 -39.898046875 30.31015625 -40.55 28.85 -41.1564453125 27.423828125 -42.3 24.2 -43.4365234375 20.9841796875 -44.25 14.15 -45.012890625 7.3087890625 -44.85 1.85 -44.6458984375 -3.5529296875 -42.85 -11.5 -40.25 -22.8 -35.3 -27.95 -31.85 -31.5 -28.55 -34.05 -21.1 -39.7 -13.1 -42.35 -4.85 -45.1 5.35 -45.05 25.890625 -44.9564453125 36.95 -33.85 41.2005859375 -29.57109375 44.05 -24.7
L 44.05 -30.2
Q 41.857421875 -33.186328125 39.1 -35.95 27.309765625 -47.94375 5.35 -48.05 -5.4 -48.1 -14.15 -45.2 -22.55 -42.4 -30.35 -36.45 Z"/>
</g>

<g id="Mask_Mask_FS_EyeWhite_3_4far_0_Layer0_0_FILL">
<path fill="#FFFFFF" stroke="none" d="
M 18.15 -15.65
Q 9.84765625 -21.6255859375 2.55 -22.05 -4.7708984375 -22.42109375 -11.2 -16 -17.4994140625 -9.6044921875 -19.45 -0.2 -21.3234375 9.20390625 -17.7 16 -14.0943359375 22.9564453125 -6.85 23.35 0.433203125 23.78125 9.85 17 19.302734375 10.2376953125 22.85 0.3 26.469140625 -9.6103515625 18.15 -15.65 Z"/>
</g>

<g id="FS_EyeWhite_3_4far_0_Layer0_0_FILL">
<path fill="#FFFFFF" stroke="none" d="
M 18.15 -15.65
Q 9.84765625 -21.6255859375 2.55 -22.05 -4.7708984375 -22.42109375 -11.2 -16 -17.4994140625 -9.6044921875 -19.45 -0.2 -21.3234375 9.20390625 -17.7 16 -14.0943359375 22.9564453125 -6.85 23.35 0.433203125 23.78125 9.85 17 19.302734375 10.2376953125 22.85 0.3 26.469140625 -9.6103515625 18.15 -15.65 Z"/>
</g>

<g id="FS_Iris_2_Layer1_0_FILL">
<path fill="url(#Gradient_1)" stroke="none" d="
M 17.7 -13.05
Q 13.45 -21.1 5.25 -22.95 -3 -24.85 -10.3 -19.4 -17.6 -14 -19.75 -4.45 -20.922265625 0.6119140625 -20 7.1 -19.662109375 8.449609375 -19.2 9.75
L -18.6 11.2
Q -18.1958984375 12.1607421875 -17.7 13.1 -13.45 21.15 -5.2 23 3 24.85 10.3 19.45 17.6 14 19.8 4.5 21.95 -5 17.7 -13.05 Z"/>
</g>

<g id="FS_Iris_2_Layer0_0_FILL">
<path fill="#8AD2D5" stroke="none" d="
M 5.65 8.25
L 0 6.65 13.2 17
Q 15.85 14.1 17.35 11.3 16.4 11.3 5.65 8.25 Z"/>
</g>

<g id="FS_Iris_2_Layer0_1_FILL">
<path fill="#3DBFBB" stroke="none" d="
M 17.2 11.6
Q 18.75 8.4 19.6 5.3 9.55 6.05 -0.4 6.65
L 17.2 11.6 Z"/>
</g>

<g id="FS_Pupil_0_Layer0_0_FILL">
<path fill="#000000" stroke="none" d="
M 12.45 -9.9
Q 10.5203125 -16.0232421875 5.5 -17.5 0.487109375 -18.9470703125 -4.7 -14.9 -9.854296875 -10.7671875 -12.15 -3.55 -14.402734375 3.7013671875 -12.5 9.8 -10.484375 16.0318359375 -5.45 17.5 -0.4265625 18.9556640625 4.7 14.8 9.91484375 10.7759765625 12.15 3.55 14.43828125 -3.692578125 12.45 -9.9 Z"/>
</g>

<g id="FS_Hilights_0_Layer1_0_FILL">
<path fill="#FFFFFF" stroke="none" d="
M -8.15 11.5
Q -8.11953125 11.614453125 -8.1 11.7 -8.0240234375 11.8134765625 -7.95 11.95 -7.7912109375 12.381640625 -7.55 12.75 -7.4705078125 12.844140625 -7.4 12.9 -7.2078125 13.113671875 -6.95 13.3 -6.50546875 13.6888671875 -6.05 13.8 -5.996875 13.8515625 -5.95 13.85 -5.6171875 13.9560546875 -5.2 13.95 -3.9484375 13.97890625 -3.4 12.75 -3.3849609375 12.698046875 -3.4 12.65 -3.1736328125 12.1291015625 -3.25 11.35 -3.259765625 11.128515625 -3.35 10.85 -3.3462890625 10.7740234375 -3.4 10.7 -3.7330078125 9.7962890625 -4.4 9.15 -4.435546875 9.108203125 -4.5 9.05 -4.72890625 8.870703125 -4.9 8.75 -5.579296875 8.305859375 -6.3 8.4 -7.123828125 8.352734375 -7.65 8.9 -7.813671875 9.0921875 -8 9.35 -8.0568359375 9.446484375 -8.1 9.55 -8.510546875 10.357421875 -8.15 11.5
M 3.85 -8.7
L 3.8 -8.75
Q 1.3921875 -11.8771484375 -1.15 -11.7 -4.233984375 -11.8736328125 -5.6 -8.2
L -5.6 -8.15
Q -6.528125 -5.45625 -5.75 -1.6 -5.0052734375 2.07265625 -3.05 4.6
L -3.05 4.6
Q -0.6041015625 7.82109375 2 7.65 5.12890625 7.837890625 6.4 4 7.375390625 1.40078125 6.6 -2.4
L 6.6 -2.45
Q 5.8041015625 -6.1376953125 3.85 -8.7 Z"/>
</g>

<g id="Mask_Mask_FS_EyeWhite_3_4_0_Layer0_0_FILL">
<path fill="#FFFFFF" stroke="none" d="
M 15.3 -16.8
Q 12.05 -25.85 4.7 -27.8 -2.55 -29.75 -9.55 -23.45 -16.6 -17.15 -19.25 -6.25 -21.95 4.7 -18.7 13.75 -15.45 22.8 -8.2 24.8 -0.9 26.75 6.15 20.4 13.2 14.15 15.9 3.2 18.6 -7.7 15.3 -16.8 Z"/>
</g>

<g id="FS_EyeWhite_3_4_0_Layer0_0_FILL">
<path fill="#FFFFFF" stroke="none" d="
M 15.3 -16.8
Q 12.05 -25.85 4.7 -27.8 -2.55 -29.75 -9.55 -23.45 -16.6 -17.15 -19.25 -6.25 -21.95 4.7 -18.7 13.75 -15.45 22.8 -8.2 24.8 -0.9 26.75 6.15 20.4 13.2 14.15 15.9 3.2 18.6 -7.7 15.3 -16.8 Z"/>
</g>

<g id="FS_Iris_0_Layer1_0_FILL">
<path fill="url(#Gradient_1)" stroke="none" d="
M 17.7 -13.05
Q 13.45 -21.1 5.25 -22.95 -3 -24.85 -10.3 -19.4 -17.6 -14 -19.75 -4.45 -20.922265625 0.6119140625 -20 7.1 -19.662109375 8.449609375 -19.2 9.75
L -18.6 11.2
Q -18.1958984375 12.1607421875 -17.7 13.1 -13.45 21.15 -5.2 23 3 24.85 10.3 19.45 17.6 14 19.8 4.5 21.95 -5 17.7 -13.05 Z"/>
</g>

<g id="FS_Iris_0_Layer0_0_FILL">
<path fill="#8AD2D5" stroke="none" d="
M -6.5 8
Q -17.6794921875 11.2681640625 -18.65 11.25 -17.6072265625 14.0123046875 -15.4 16.75
L 0.1 6.75 -6.5 8 Z"/>
</g>

<g id="FS_Iris_0_Layer0_1_FILL">
<path fill="#3DBFBB" stroke="none" d="
M -20.25 5.4
Q -19.7828125 8.4513671875 -18.6 11.3
L 0.4 6.6 -20.25 5.4 Z"/>
</g>

<g id="FS_Blink_3_4far_0_Layer9_0_FILL">
<path fill="#000000" stroke="none" d="
M 2.6 -21.15
Q 4.5849609375 -21.360546875 5.7 -15.1 6.79921875 -8.811328125 6.45 0.25 6.1400390625 9.3076171875 4.55 15.75 4.32890625 16.8455078125 4.05 17.75 4.808984375 15.928125 5.35 13.5 5.7642578125 11.9158203125 6.05 10.15 6.2 9.5484375 6.25 8.8 6.7927734375 5.698046875 7.3 0.6 7.81484375 -4.44296875 7.7 -10.65 6.848046875 -23.696875 3.45 -23.25 0.54765625 -22.861328125 -2.55 -14.25 -2.29921875 -14.7767578125 -2.05 -15.3 0.6708984375 -20.888671875 2.6 -21.15 Z"/>
</g>

<g id="FS_Blink_3_4far_0_Layer7_0_FILL">
<path fill="#FDF6AE" stroke="none" d="
M 1.25 -14.05
Q 4.677734375 -16.2392578125 7.45 -14.4 6.4548828125 -23.9072265625 3.5 -23.65 0.1068359375 -23.3212890625 -3.45 -11.9 -3.8787109375 -10.280078125 -4.2 -8.45 -1.59609375 -12.2189453125 1.25 -14.05 Z"/>
</g>

<g id="FS_Blink_3_4far_0_Layer4_0_FILL">
<path fill="#000000" stroke="none" d="
M 7.4 -14.25
Q 7.002734375 -17.1263671875 4.95 -17.4 2.1318359375 -17.694140625 -1.1 -13.95 -4.3326171875 -10.2001953125 -5.45 -6.5
L -6.3 -2.75
Q -6.61015625 -1.366015625 -7.6 0.3
L -5.7 0
Q -4.857421875 -0.7943359375 -4.2 -3.95 -3.540234375 -7.11015625 -1.85 -9.35 -0.1083984375 -11.530859375 1.55 -12.85 3.26171875 -14.1234375 4.6 -14 5.9328125 -13.8228515625 6.15 -11.75
L 7.4 -14.25 Z"/>
</g>

<g id="FS_Blink_3_4far_0_Layer3_0_FILL">
<path fill="#000000" stroke="none" d="
M -5.15 -5.6
L -4.55 -8.05
Q -6.92890625 -5.552734375 -11.05 -5.8 -9.8955078125 -3.92578125 -5.15 -5.6
M -13.15 -0.6
Q -13.07734375 -0.5453125 -13 -0.5 -11.0447265625 1.411328125 -7.5 -0.05 -10.25859375 3.0580078125 -13.05 3.85 -13.5392578125 3.9900390625 -14.05 4.05 -13.5587890625 4.3759765625 -13 4.5 -12.69453125 4.5548828125 -12.4 4.55 -8.5205078125 4.3205078125 -5.45 -0.3 -5.4396484375 -0.3271484375 -5.45 -0.35
L -7.35 -0.1
Q -7.25703125 -0.1521484375 -7.15 -0.2 -6.153125 -1.827734375 -6.05 -2.65 -9.555078125 0.0271484375 -13 -0.6 -13.0744140625 -0.5884765625 -13.15 -0.6 Z"/>
</g>

<g id="FS_Blink_3_4_0_Layer5_0_FILL">
<path fill="#000000" stroke="none" d="
M 3.9 -28.3
Q 2.6283203125 -28.579296875 1.35 -28.7 -4.6439453125 -29.078515625 -10.25 -24.75 -11.7181640625 -23.5576171875 -13 -22.2 -17.4087890625 -17.401953125 -18.9 -10.25 -19.5439453125 -6.9607421875 -19.9 -3.95 -20.534765625 1.5740234375 -20.15 6.3 -20.158203125 1.678125 -18.95 -3.35 -18.7609375 -4.0185546875 -18.6 -4.7 -15.9060546875 -14.323046875 -9.65 -20.2 1.74921875 -30.1068359375 10.75 -21.8 10.882421875 -21.6779296875 11 -21.55 13.90546875 -18.748828125 15.65 -13.95 16.3888671875 -11.873828125 16.8 -9.75 16.4884765625 -14.0923828125 14.85 -18.1 11.35234375 -26.50703125 3.9 -28.3 Z"/>
</g>

<g id="FS_Blink_3_4_0_Layer4_0_FILL">
<path fill="#FDF6AE" stroke="none" d="
M 4.35 -29.75
Q 2.9921875 -30.0806640625 1.65 -30.2 -4.99375 -30.6798828125 -11.25 -24.95 -12.3427734375 -23.9171875 -13.35 -22.8 -13.3947265625 -22.7375 -13.45 -22.7 -12.3595703125 -22.6630859375 -11.25 -22.7 -10.9 -22.5 -10.8 -22.35
L -8.9 -22.05 -6.85 -22.35 -5.45 -22.2
Q -1.35 -20.55 2.35 -17.5 3.25 -17.2 3.6 -16.75 3.75 -16.55 3.9 -16.1
L 4.25 -15.95 5 -14.7
Q 6.55 -13.05 7.75 -11.45 7.95 -11.2 8.15 -10.95 11.45 -5.9 14.55 -1.1 15.8923828125 2.197265625 17.4 5.65 17.58125 4.9947265625 17.7 4.3 20.319921875 -7.6388671875 16.4 -17.65 12.496484375 -27.56875 4.35 -29.75 Z"/>
</g>

<g id="FS_Blink_3_4_0_Layer3_0_FILL">
<path fill="#000000" stroke="none" d="
M 6.45 22.2
L 4.6 23.6
Q 6.1939453125 26.837109375 5.95 29.8 5.6958984375 32.807421875 7.05 29.05 8.4173828125 25.300390625 6.45 22.2
M 10 18.55
L 8.75 20.05
Q 11.8150390625 21.620703125 12.95 24.6 13.6880859375 26.43359375 13.95 28.65 15.7818359375 24.8724609375 13.7 21.65 12.176953125 19.2923828125 10 18.55 Z"/>
</g>

<g id="FS_Blink_3_4_0_Layer3_1_FILL">
<path fill="#000000" stroke="none" d="
M 11.35 16.2
L 10.15 18
Q 14.18828125 17.88203125 16.95 19.45 18.5791015625 20.37578125 19.9 21.9 19.8611328125 18.6484375 16.25 17.1 13.638671875 15.9990234375 11.35 16.2 Z"/>
</g>

<g id="FS_Blink_3_4_0_Layer2_0_FILL">
<path fill="#000000" stroke="none" d="
M 1.85 -14.95
Q 6.38203125 -11.1921875 9.65 -6 12.92421875 -0.81171875 15.35 4.05 17.8314453125 8.955078125 24.15 10.25 30.519140625 11.5494140625 34.25 8.1 28.6263671875 9.640234375 23.55 7.35 19.06015625 5.3087890625 16.6 0.75 13.4626953125 -5.630078125 9.55 -11.7 6.5115234375 -16.5841796875 2 -20.65 -2.546875 -24.74296875 -7.9 -24.8 -12.5234375 -24.6681640625 -15.35 -19
L -12.4 -17.5
Q -10.2337890625 -20.208203125 -7.4 -19.75 -2.6158203125 -18.6203125 1.85 -14.95 Z"/>
</g>

<g id="FS_Blink_3_4_0_Layer1_0_FILL">
<path fill="#000000" stroke="none" d="
M 26 5.35
Q 29.4328125 4.07890625 31.25 0.95 24.32421875 5.0740234375 17.15 2.65 18.583203125 5.0240234375 18.8 5.35 22.264453125 6.8734375 26 5.35
M 18.9 -3.95
Q 15.1314453125 -3.6337890625 12.45 -5.55 13.303125 -2.3904296875 13.4 -2.3 15.293359375 -0.5287109375 19.9 -1.9 24.5140625 -3.34140625 25.5 -6 22.076953125 -4.24296875 18.9 -3.95 Z"/>
</g>

<g id="FS_Mouth_3_4_3_Layer10_0_FILL">
<path fill="#FDF6AE" stroke="none" d="
M -24.5 -8.35
Q -24.592578125 -7.3197265625 -23.95 -6.5 -10.1201171875 11.1193359375 15.85 16.75 19.967578125 17.2029296875 26.5 14.35 -2.0705078125 7.620703125 -11.25 -1.45 -20.419921875 -10.4630859375 -22.15 -12.2 -24.358984375 -9.365234375 -24.5 -8.35 Z"/>
</g>

<g id="FS_Mouth_3_4_3_Layer8_0_FILL">
<path fill="#FDF6AE" stroke="none" d="
M -22.25 -14.05
L -22.85 -13.7
Q -23.9517578125 -10.9828125 -26.1 -8.85 -27.6826171875 -7.1701171875 -30.05 -6.55 -30.0603515625 -6.513671875 -30.1 -6.5 -30.397265625 -6.4162109375 -30.9 -6.3 -31.4837890625 -6.1353515625 -32.4 -5.95 -33.109765625 -5.7384765625 -34.05 -5.55
L -34.1 -5.5
Q -36.7513671875 -4.51171875 -35.65 -1.25
L -36.05 -1.05
Q -33.897265625 4.249609375 -31.1 6.45 -28.312890625 8.6248046875 -26.4 9.1 -23.675390625 9.6388671875 -19.4 6.85 -17.6466796875 3.96875 -16.35 1.5 -18.457421875 -3.816015625 -22.25 -14.05 Z"/>

<path fill="#EBD463" stroke="none" d="
M -22.85 -13.7
Q -22.796875 -13.8173828125 -22.75 -13.95 -22.88046875 -13.776171875 -23.05 -13.6 -23.95546875 -12.461328125 -25 -11.65 -25.7365234375 -11.0787109375 -26.55 -10.7 -26.8619140625 -10.48125 -27.25 -10.3 -28.14921875 -9.893359375 -29.35 -9.55 -29.6294921875 -9.472265625 -29.95 -9.4 -30.3876953125 -9.3015625 -30.9 -9.2 -30.9447265625 -9.1884765625 -31 -9.2 -32.33359375 -8.88984375 -34.6 -8.4 -34.6974609375 -8.3587890625 -34.85 -8.35 -34.871875 -8.3130859375 -34.95 -8.3 -35.7884765625 -8.0724609375 -36.45 -7.75 -36.8787109375 -7.54453125 -37.25 -7.3 -38.0189453125 -6.7458984375 -38.4 -6 -39.7779296875 -3.8662109375 -38.7 -0.7 -36.980859375 -0.5140625 -36.05 -1.05
L -35.65 -1.25
Q -36.7513671875 -4.51171875 -34.1 -5.5
L -34.05 -5.55
Q -33.109765625 -5.7384765625 -32.4 -5.95 -31.4837890625 -6.1353515625 -30.9 -6.3 -30.397265625 -6.4162109375 -30.1 -6.5 -30.0603515625 -6.513671875 -30.05 -6.55 -27.6826171875 -7.1701171875 -26.1 -8.85 -23.9517578125 -10.9828125 -22.85 -13.7 Z"/>
</g>

<g id="FS_Mouth_3_4_3_Layer7_0_FILL">
<path fill="#FDF6AE" stroke="none" d="
M 31.25 14
Q 30.6384765625 14 30 14 -1.05 14 -14.8 0.5 -16.588671875 -1.2501953125 -18 -3.2
L -18 0.45
Q -13.1283203125 6.41640625 -13.45 11 -13.5 11.95078125 -13.8 12.8 -13.78515625 13.17734375 -13.8 13.55 -14.5201171875 15.9841796875 -16.9 18
L -12.9 18.95
Q -4.5541015625 20.9498046875 6.35 19.85 16.677734375 18.8359375 31.25 14 Z"/>

<path fill="#EBD463" stroke="none" d="
M 10.7 21.55
Q 25.5953125 18.9962890625 31.7 14 31.5052734375 13.998046875 31.25 14 16.677734375 18.8359375 6.35 19.85 -4.5541015625 20.9498046875 -12.9 18.95
L -16.9 18 -21.25 19.55
Q -17.95 20.91484375 -14.15 21.85 -4.65 24.2111328125 10.7 21.55 Z"/>
</g>

<g id="FS_MouthInterior_0_Layer2_0_FILL">
<path fill="#BE1C79" stroke="none" d="
M -3.3 -11
Q -2.226953125 -4.9369140625 -7 -1.55 1.848828125 3.970703125 3.35 11
L 5.4 7.45
Q 9.079296875 0.5671875 -3.3 -11 Z"/>
</g>

<g id="FS_MouthInterior_0_Layer1_0_FILL">
<path fill="#F37033" stroke="none" d="
M 4.3 -1.4
Q 3.9646484375 -1.660546875 3.15 -0.3 2.3431640625 1.0697265625 2.25 2.75 2.2125 4.484765625 2.9 5.7 3.5642578125 6.9185546875 4.4 7.2 4.9861328125 7.4013671875 5.6 6.95 6.3748046875 6.4216796875 6.25 5.2 6.2169921875 4.3318359375 5.55 3.1 5.0439453125 2.0748046875 5.15 1.25 5.41328125 -0.6021484375 4.3 -1.4 Z"/>
</g>

<g id="FS_Mouth_3_4_3_Layer4_0_FILL">
<path fill="#EBD463" stroke="none" d="
M -16.75 -3.3
L -16.75 -2.3
Q -17.45 3.1 -20.85 5.7 -23.1 7.4 -26.45 7.15 -28.95 6.95 -30.55 6 -33.35 4.35 -35.6 -1.25 -38.95 -1.35 -38.6 -0.45 -35.748828125 6.358984375 -31.7 8.5 -26.4173828125 10.894140625 -20.95 8.9
L -21.35 8.95
Q -20.3826171875 8.6236328125 -19.75 8.1 -18.25 6.85 -17.1 4.8 -15.9 2.65 -16.1 1.35 -13.85 7.3 -14.65 11.05
L -14.7 11.3
Q -15.05 13.45 -16.7 15.25 -17.65 16.3 -21.2 19.5 -18.45 19.7 -17.85 19.35 -17 18.9 -15.1 17 -13.2 14.9 -12.7 11.85
L -12.65 11.6
Q -12.4 8.95 -12.95 6.25 -14.75 -0.5 -16.75 -3.3 Z"/>
</g>

<g id="FS_Nostril_3_4_0_Layer0_0_FILL">
<path fill="#EBD463" stroke="none" d="
M 1.2 2.35
Q 2.95 1.9 2.55 -2.4 1.95 0.3 0.6 0.75 -0.8 1 -2.6 0.3 -0.65 2.55 1.2 2.35 Z"/>
</g>

<g id="FS_Hair_05_6_Layer1_0_FILL">
<path fill="#F4B6D1" stroke="none" d="
M 44.85 -1.7
Q 45.0072265625 -1.6888671875 45.15 -1.65
L 46.75 -15.7
Q 25.59609375 -25.4107421875 14.9 -28.1 4.19453125 -30.730078125 -0.4 -30.85 -1.9265625 -30.899609375 -3.4 -30.9 -13.0154296875 -30.8923828125 -20.3 -28.9 -25.0646484375 -27.6130859375 -28.65 -25.35 -29.1216796875 -25.0056640625 -29.6 -24.7 -31.149609375 -23.5447265625 -32.5 -22.2 -37.7373046875 -16.8763671875 -37.1 -9.8 -36.4919921875 -3.765625 -30.55 1.75 -26.7609375 5.309375 -19.3 9.65 -17.7314453125 10.588671875 -16.2 11.45 -23.896875 1.6408203125 -25.75 -8.35 -26.600390625 -13.3396484375 -24.8 -17.05 -24.262890625 -18.1337890625 -23.55 -19.05 -23.1810546875 -19.4212890625 -22.8 -19.8 -16.8134765625 -23.64453125 -14.4 -23.4 -16.087109375 -22.51796875 -18.1 -20.75 -18.3064453125 -20.5287109375 -19.1 -18.85 -22.6162109375 -16.757421875 -22.9 -11.1 -22.8787109375 -9.66953125 -22.65 -8.05 -21.5970703125 -0.6306640625 -14.4 12.45 -7.7728515625 16.0533203125 -1.85 18.6 2.8609375 10.20625 13 4.75 27.18359375 -2.7615234375 44.85 -1.7 Z"/>

<path fill="#E781B3" stroke="none" d="
M 46.4 -1.05
Q 45.74453125 -1.531640625 45.15 -1.65 45.0072265625 -1.6888671875 44.85 -1.7 27.18359375 -2.7615234375 13 4.75 2.8609375 10.20625 -1.85 18.6 -7.7728515625 16.0533203125 -14.4 12.45 -21.5970703125 -0.6306640625 -22.65 -8.05 -22.8787109375 -9.66953125 -22.9 -11.1 -22.6162109375 -16.757421875 -19.1 -18.85 -18.3064453125 -20.5287109375 -18.1 -20.75 -16.087109375 -22.51796875 -14.4 -23.4 -16.8134765625 -23.64453125 -22.8 -19.8 -23.1810546875 -19.4212890625 -23.55 -19.05 -24.262890625 -18.1337890625 -24.8 -17.05 -26.600390625 -13.3396484375 -25.75 -8.35 -23.896875 1.6408203125 -16.2 11.45 -17.7314453125 10.588671875 -19.3 9.65 -26.7609375 5.309375 -30.55 1.75 -36.4919921875 -3.765625 -37.1 -9.8 -37.7373046875 -16.8763671875 -32.5 -22.2 -31.149609375 -23.5447265625 -29.6 -24.7 -29.1216796875 -25.0056640625 -28.65 -25.35 -25.0646484375 -27.6130859375 -20.3 -28.9 -13.0154296875 -30.8923828125 -3.4 -30.9 -1.9265625 -30.899609375 -0.4 -30.85 4.19453125 -30.730078125 14.9 -28.1 25.59609375 -25.4107421875 46.75 -15.7
L 46.75 -17.45
Q 35.0609375 -24.2701171875 21.35 -28.55 7.63359375 -32.83828125 -1.55 -33.1 -3.0681640625 -33.1498046875 -4.55 -33.15 -7.482421875 -33.1302734375 -10.05 -32.95 -23.183984375 -31.9404296875 -30.75 -27.3 -31.2244140625 -26.97890625 -31.7 -26.65 -32.876171875 -25.8611328125 -33.9 -25 -38.5765625 -20.8259765625 -39.9 -15.2 -41.2564453125 -9.2060546875 -38.2 -4 -33.231640625 4.43046875 -19.85 11.85 -16.0212890625 14.0046875 -12.5 15.8 -7.328125 18.4634765625 -2.8 20.45 -1.280859375 21.08046875 0.15 21.65 0.2982421875 21.348828125 0.45 21.05 0.5068359375 20.92421875 0.55 20.8 0.57578125 20.750390625 0.6 20.7 0.8345703125 20.255859375 1.05 19.8 5.585546875 11.604296875 15.35 6.2 29.0423828125 -1.3970703125 46.15 -0.4 47.4796875 -0.3171875 46.55 -0.95 46.47734375 -1.0060546875 46.4 -1.05 Z"/>
</g>

<g id="FS_Ear_2_Layer1_0_FILL">
<path fill="#FDF6AE" stroke="none" d="
M 1.5 -40.65
L 1.5 -40.65
Q -0.4720703125 -42.0763671875 -1.65 -42.55 -5.2015625 -39.616015625 -8.75 -30.45 -12.8826171875 -19.8533203125 -13.5 -10.8 -13.2416015625 -5.48203125 -6.75 -4.1 10.447265625 18.96171875 13 20.6
L 13.75 19.35 13.75 19.3
Q 18.0880859375 12.2681640625 18.8 3.65 19.183984375 -1.172265625 18.35 -9.35 16.7498046875 -23.881640625 8 -34.45 4.9296875 -38.1494140625 1.5 -40.65
M 6.95 -13.2
Q 6.291796875 -19.99140625 4.05 -26.35 7.77265625 -21.4501953125 8.95 -11.4 10.08671875 -1.7115234375 6.85 4.85 6.771484375 5.1154296875 6.65 5.35 6.691796875 5.0984375 6.7 4.85 6.738671875 4.7623046875 6.75 4.65 7.920703125 -3.00390625 6.95 -13.2 Z"/>

<path fill="#EBD463" stroke="none" d="
M 4.05 -26.35
Q 6.291796875 -19.99140625 6.95 -13.2 7.920703125 -3.00390625 6.75 4.65 6.738671875 4.7623046875 6.7 4.85 6.691796875 5.0984375 6.65 5.35 6.771484375 5.1154296875 6.85 4.85 10.08671875 -1.7115234375 8.95 -11.4 7.77265625 -21.4501953125 4.05 -26.35
M 10.3 -36.35
Q 6.9703125 -40.35078125 3.25 -43.05
L 3.25 -43.1
Q -0.0212890625 -45.455078125 -1.7 -45.7 -2.28046875 -45.777734375 -2.8 -45.45 -7.2623046875 -42.6033203125 -11.55 -31.55 -16.017578125 -20.0462890625 -13.5 -10.8 -12.8826171875 -19.8533203125 -8.75 -30.45 -5.2015625 -39.616015625 -1.65 -42.55 -0.4720703125 -42.0763671875 1.5 -40.65
L 1.5 -40.65
Q 4.9296875 -38.1494140625 8 -34.45 16.7498046875 -23.881640625 18.35 -9.35 19.183984375 -1.172265625 18.8 3.65 18.0880859375 12.2681640625 13.75 19.3
L 13.75 19.35 13 20.6
Q 16.1837890625 19.6201171875 19.2 12.85 20.660546875 8.46875 21.4 3.15 21.8 0.25 21.8 -2.6 21.75 -5.35 21.35 -9.65
L 21.35 -9.7
Q 19.642578125 -25.1271484375 10.3 -36.35 Z"/>
</g>

<g id="FS_Hair_03_9_Layer1_0_FILL">
<path fill="#F4B6D1" stroke="none" d="
M -15.3 20.95
Q -12.4958984375 13.1728515625 -10.55 1.95 -9.33515625 -5.08984375 -9.55 -10.7 -19.1537109375 -4.50703125 -22.45 10.95
L -24.65 20.6
Q -26.1009765625 26.412890625 -27.65 29.9 -30.7328125 37.108203125 -36 40.55 -40.547265625 43.6015625 -46.75 41.9 -53.25546875 40.2078125 -54 34.7 -54.1966796875 33.023046875 -53.4 31.7
L -54.25 31.65
Q -54.567578125 32.483203125 -54.85 33.4 -56.44765625 38.8580078125 -55.55 44.6 -54.0509765625 45.4767578125 -52.3 46.15 -44.3921875 49.1947265625 -37.1 47.4 -24.8828125 44.4599609375 -17 25.3 -16.0857421875 23.177734375 -15.3 20.95
M -45 58.35
Q -47.4171875 57.7123046875 -49.85 56.8 -43.181640625 63.76328125 -30.8 62.4 -19.2693359375 61.159375 -10.15 54.45 -15.8212890625 56.9150390625 -22.25 58.5 -33.6568359375 61.3353515625 -44.95 58.35
L -45 58.35
M 18.55 -4.05
Q 15.61015625 -10.8939453125 2 -12.95 -3.3474609375 -13.4736328125 -7.75 -11.45
L -9.05 1.95
Q -10.46640625 12.28828125 -13.4 21 -15.2298828125 26.7404296875 -17.7 31.55 -26.0580078125 47.8919921875 -39.4 48.65 -46.0513671875 49.0701171875 -52.45 46.6 -53.3029296875 46.301953125 -54.15 45.9 -54.8228515625 45.619140625 -55.45 45.3 -54.4109375 51.08359375 -51.1 55.3 -50.7478515625 55.77734375 -50.4 56.2 -47.5982421875 57.353515625 -44.9 58.05 -32.5521484375 61.378515625 -16 55.6 -11.0904296875 53.905078125 -6.15 51.05
L -6.1 51
Q 1.2689453125 43.7201171875 8.5 29.35 10.1947265625 26.087109375 12 21.95
L 18.55 6.45
Q 19.9310546875 1.2 18.55 -4.05 Z"/>

<path fill="#E781B3" stroke="none" d="
M 15.15 22.05
L 21.05 7.95
Q 27.2802734375 -12.8650390625 1.4 -15.55 -19.2064453125 -17.0857421875 -26.85 16.85 -27.3349609375 18.456640625 -27.8 20.45 -28.283203125 22.6013671875 -28.7 23.95 -30.8541015625 31.1642578125 -34.55 35.45 -37.190234375 38.5373046875 -40.45 39.8 -44.2509765625 41.2671875 -47.6 39.4 -49.7681640625 38.1873046875 -50.7 36.1 -51.13828125 35.01328125 -51 34.05 -50.4685546875 32.0548828125 -53.4 31.7 -54.1966796875 33.023046875 -54 34.7 -53.25546875 40.2078125 -46.75 41.9 -40.547265625 43.6015625 -36 40.55 -30.7328125 37.108203125 -27.65 29.9 -26.1009765625 26.412890625 -24.65 20.6
L -22.45 10.95
Q -19.1537109375 -4.50703125 -9.55 -10.7 -9.33515625 -5.08984375 -10.55 1.95 -12.4958984375 13.1728515625 -15.3 20.95 -16.0857421875 23.177734375 -17 25.3 -24.8828125 44.4599609375 -37.1 47.4 -44.3921875 49.1947265625 -52.3 46.15 -54.0509765625 45.4767578125 -55.55 44.6 -56.44765625 38.8580078125 -54.85 33.4 -54.567578125 32.483203125 -54.25 31.65 -57.707421875 30.8158203125 -58.35 33.45 -58.6986328125 34.9080078125 -58.9 36.55 -59.1798828125 39.5009765625 -59 42.25 -58.9359375 42.7412109375 -58.9 43.2 -58.433984375 47.1412109375 -56.95 50.65 -56.164453125 52.3900390625 -55.2 53.9
L -55.25 53.9
Q -54.94921875 54.3236328125 -54.65 54.7 -50.581640625 60.4970703125 -43.2 63 -34.3453125 66.018359375 -24 63.55 -11.4810546875 60.579296875 -1.55 49.9 0.5052734375 47.6896484375 2.45 45.15 7.0185546875 39.1833984375 10.95 31.4 12.088671875 29.206640625 15.15 22.05
M 2 -12.95
Q 15.61015625 -10.8939453125 18.55 -4.05 19.9310546875 1.2 18.55 6.45
L 12 21.95
Q 10.1947265625 26.087109375 8.5 29.35 1.2689453125 43.7201171875 -6.1 51
L -6.15 51.05
Q -11.0904296875 53.905078125 -16 55.6 -32.5521484375 61.378515625 -44.9 58.05 -47.5982421875 57.353515625 -50.4 56.2 -50.7478515625 55.77734375 -51.1 55.3 -54.4109375 51.08359375 -55.45 45.3 -54.8228515625 45.619140625 -54.15 45.9 -53.3029296875 46.301953125 -52.45 46.6 -46.0513671875 49.0701171875 -39.4 48.65 -26.0580078125 47.8919921875 -17.7 31.55 -15.2298828125 26.7404296875 -13.4 21 -10.46640625 12.28828125 -9.05 1.95
L -7.75 -11.45
Q -3.3474609375 -13.4736328125 2 -12.95
M -49.85 56.8
Q -47.4171875 57.7123046875 -45 58.35
L -44.95 58.35
Q -33.6568359375 61.3353515625 -22.25 58.5 -15.8212890625 56.9150390625 -10.15 54.45 -19.2693359375 61.159375 -30.8 62.4 -43.181640625 63.76328125 -49.85 56.8 Z"/>
</g>

<g id="FS_Hair_01_6_Layer3_0_FILL">
<path fill="#F4B6D1" stroke="none" d="
M 66.05 0.45
L 66.05 0.45
Q 56.248828125 -1.5083984375 46.45 -2.8 50.448046875 1.739453125 53.8 6.3 72.092578125 31.308203125 79.55 67 82.0259765625 78.731640625 83.45 100.25 84.6201171875 118.52109375 82.5 132.75 81.641015625 138.4892578125 80.35 143.6
L 109.75 137.85
Q 111.1134765625 127.9126953125 111.55 118.55 113.2025390625 84.8697265625 107.25 60.5 100.2705078125 31.7341796875 77.5 10.05 72.437890625 5.2201171875 66.05 0.45
M 13.35 -3.6
Q 15.10625 -3.183984375 16.9 -2.7 18.975 -2.1021484375 21.1 -1.4 21.1982421875 -1.333203125 21.3 -1.3 25.7974609375 0.27734375 29.95 2.55 46.06484375 11.2943359375 57.35 30.4 71.2466796875 53.675 74.75 87.8 76.6654296875 105.787109375 74.9 121.3 73.9478515625 129.8154296875 71.4 137.8 70.653515625 140.0859375 68.65 143.1
L 68.65 143.15 78.55 143.5
Q 81.2462890625 133.5765625 82 122.05 82.81953125 108.7810546875 81.1 88.95 77.7703125 51.408203125 61.75 21.15 55.125390625 8.619140625 45 -3 41.5677734375 -3.42265625 38.1 -3.8 23.7828125 -5.3517578125 13.35 -3.6
M 111.45 32.25
Q 103.1365234375 16.4970703125 91.45 9.3 82.89296875 4.08046875 67.8 0.8 72.2009765625 4.134375 76 7.5 99.53125 28.2556640625 107.8 57.25 114.38359375 80.1328125 113.2 115.35 112.94609375 123.46640625 112.35 130.3
L 112.35 130.35
Q 112.69609375 129.507421875 113 128.75 127.9439453125 92.5828125 121.9 61.25 119.28046875 47.2314453125 111.45 32.25
M 16.8 -2.4
Q 14.655078125 -2.9919921875 12.45 -3.45 10.4029296875 -3.0490234375 7.05 -2.15 3.7126953125 -1.23671875 1.35 0.15 -0.9623046875 1.533203125 -0.95 1.6
L 2.25 6.25
Q 2.5501953125 7 2.45 7.1 2.4248046875 7.19765625 2.5 7.4
L 2.2 7.15
Q 2.022265625 7.031640625 1.75 6.8 3.2001953125 8.1384765625 3.2 8.15 3.2505859375 8.1107421875 3.3 8.05 4.423828125 6.7212890625 7.25 5.25 8.6974609375 4.58671875 10.65 4.05 18.69375 1.9888671875 28.75 7.35 38.0328125 12.2271484375 48.1 27.25 55.95390625 38.9048828125 61.1 52 71.6396484375 78.5599609375 71.7 110.9 71.7787109375 124.3935546875 69.55 137.9
L 69.6 137.85
Q 70.4330078125 135.7861328125 71.05 133.45 74.7470703125 119.8767578125 74.15 100.9 73.3439453125 69.95234375 62.95 44.45 50.776171875 14.398046875 29.75 3 25.4693359375 0.66015625 21.15 -0.95 21.051171875 -0.979296875 20.95 -1 18.8939453125 -1.7763671875 16.8 -2.4 Z"/>

<path fill="#E781B3" stroke="none" d="
M 12.45 -3.45
Q 14.655078125 -2.9919921875 16.8 -2.4 18.8939453125 -1.7763671875 20.95 -1 21.051171875 -0.979296875 21.15 -0.95 25.4693359375 0.66015625 29.75 3 50.776171875 14.398046875 62.95 44.45 73.3439453125 69.95234375 74.15 100.9 74.7470703125 119.8767578125 71.05 133.45 70.4330078125 135.7861328125 69.6 137.85
L 69.55 137.9
Q 71.7787109375 124.3935546875 71.7 110.9 71.6396484375 78.5599609375 61.1 52 55.95390625 38.9048828125 48.1 27.25 38.0328125 12.2271484375 28.75 7.35 18.69375 1.9888671875 10.65 4.05 8.6974609375 4.58671875 7.25 5.25 4.423828125 6.7212890625 3.3 8.05
L 3.3 8.05
Q 3.455859375 8.1515625 3.55 8.1 4.234765625 8.259765625 4.65 9.35 4.6900390625 9.4458984375 4.7 9.55 4.8677734375 9.43828125 5 9.3 14.00078125 2.989453125 25.15 8 34.0220703125 12.090625 42.1 23.1 59.97578125 47.247265625 65.55 79.65 71.13203125 112.058984375 68.15 128.3 65.2140625 144.5359375 65.65 143.9
L 68.65 143.15 68.65 143.1
Q 70.653515625 140.0859375 71.4 137.8 73.9478515625 129.8154296875 74.9 121.3 76.6654296875 105.787109375 74.75 87.8 71.2466796875 53.675 57.35 30.4 46.06484375 11.2943359375 29.95 2.55 25.7974609375 0.27734375 21.3 -1.3 21.1982421875 -1.333203125 21.1 -1.4 18.975 -2.1021484375 16.9 -2.7 15.10625 -3.183984375 13.35 -3.6 23.7828125 -5.3517578125 38.1 -3.8 41.5677734375 -3.42265625 45 -3 55.125390625 8.619140625 61.75 21.15 77.7703125 51.408203125 81.1 88.95 82.81953125 108.7810546875 82 122.05 81.2462890625 133.5765625 78.55 143.5
L 80.35 143.6
Q 81.641015625 138.4892578125 82.5 132.75 84.6201171875 118.52109375 83.45 100.25 82.0259765625 78.731640625 79.55 67 72.092578125 31.308203125 53.8 6.3 50.448046875 1.739453125 46.45 -2.8 56.248828125 -1.5083984375 66.05 0.45
L 66.05 0.45
Q 72.437890625 5.2201171875 77.5 10.05 100.2705078125 31.7341796875 107.25 60.5 113.2025390625 84.8697265625 111.55 118.55 111.1134765625 127.9126953125 109.75 137.85 110.8515625 140.176953125 112.65 137.75 114.002734375 134.528125 115.5 130.85 122.5345703125 113.7681640625 124.95 97.65 127.808203125 78.541015625 125.65 65.35 123.0181640625 49.38671875 116.1 35.5 108.194921875 19.4533203125 99.4 12.25 90.0421875 4.54609375 76.3 0.7 71.4796875 -0.615234375 63.85 -2.05
L 63.85 -2.05 62.55 -2.3
Q 62.3439453125 -2.3162109375 62.15 -2.35 56.2626953125 -3.4248046875 48.85 -4.55 46.5068359375 -4.912890625 44.25 -5.25
L 43.9 -5.3
Q 43.359765625 -5.34921875 42.8 -5.45
L 42.85 -5.4
Q 28.2421875 -7.2779296875 18.75 -6.55 11.80625 -6.0287109375 6.4 -4.5
L 5.9 -4.35
Q 1.4357421875 -2.9884765625 -1.95 -0.95 -2.43671875 -0.6041015625 -2.9 -0.1
L -0.95 1.6
Q -0.9623046875 1.533203125 1.35 0.15 3.7126953125 -1.23671875 7.05 -2.15 10.4029296875 -3.0490234375 12.45 -3.45
M 91.45 9.3
Q 103.1365234375 16.4970703125 111.45 32.25 119.28046875 47.2314453125 121.9 61.25 127.9439453125 92.5828125 113 128.75 112.69609375 129.507421875 112.35 130.35
L 112.35 130.3
Q 112.94609375 123.46640625 113.2 115.35 114.38359375 80.1328125 107.8 57.25 99.53125 28.2556640625 76 7.5 72.2009765625 4.134375 67.8 0.8 82.89296875 4.08046875 91.45 9.3 Z"/>
</g>

<g id="FS_Hair_04_9_Layer1_0_FILL">
<path fill="#000000" stroke="none" d="
M 8.7 2.75
L 8.7 2.8 8.75 2.8 8.7 2.75 Z"/>

<path fill="#F4B6D1" stroke="none" d="
M 1.6 -3.15
Q 3.3505859375 -4.7919921875 5.7 -4.3 7.1384765625 -4.0005859375 8.2 -2.75 8.7400390625 -4.8548828125 7.95 -6.95 7.395703125 -8.5333984375 5.1 -7.7 3.3791015625 -7.0580078125 2.1 -5.85 0.4541015625 -4.2232421875 -0.7 -0.4 -0.80390625 -0.021484375 -0.9 0.3
L 0.1 0.35
Q 0.0630859375 -1.7001953125 1.6 -3.15 Z"/>

<path fill="#E781B3" stroke="none" d="
M 5.7 -4.3
Q 3.3505859375 -4.7919921875 1.6 -3.15 0.0630859375 -1.7001953125 0.1 0.35
L 3.1 0.45
Q 3.2353515625 -0.826953125 4.4 -1.9 5.198828125 -2.5912109375 7 0 7.7859375 1.1158203125 8.7 2.75
L 8.75 2.8
Q 8.8837890625 2.687890625 9 2.5 9.5974609375 1.754296875 10.05 0.9 10.905078125 -0.6455078125 11.25 -2.45 11.858984375 -5.4099609375 10.65 -7.7 9.52421875 -9.8265625 6.7 -10.1 4.2296875 -10.3203125 1.95 -9.15 -2.909765625 -6.603125 -4.35 0.2
L -0.9 0.3
Q -0.80390625 -0.021484375 -0.7 -0.4 0.4541015625 -4.2232421875 2.1 -5.85 3.3791015625 -7.0580078125 5.1 -7.7 7.395703125 -8.5333984375 7.95 -6.95 8.7400390625 -4.8548828125 8.2 -2.75 7.1384765625 -4.0005859375 5.7 -4.3 Z"/>
</g>
</defs>

<g transform="matrix( 0.412506103515625, 0, 0, 0.412506103515625, 486.45,301.35) ">
<g transform="matrix( 1.08233642578125, 0, 0, 1, -6.45,146.5) ">
<g transform="matrix( 1.1522064208984375, 0, 0, 1.7481689453125, 4.4,-262.5) ">
<use filter="url(#Filter_1)" xlink:href="#FS_Shadow_0_Layer0_0_FILL"/>
</g>
</g>

<g transform="matrix( -0.952056884765625, -0.00274658203125, -0.1699371337890625, 0.9515838623046875, 12.1,15.7) ">
<g transform="matrix( 1, 0, 0, 1, 0,0) ">
<use filter="url(#Filter_2)" xlink:href="#FS_Wing_3_4far_9_Layer5_0_FILL"/>
</g>
</g>

<g transform="matrix( 1, 0, -0.0152587890625, 1, 23.7,-98.4) ">
<g transform="matrix( -1, 0, 0, 1, -0.1,0) ">
<g transform="matrix( 1, 0, 0, 1, 0,0) ">
<use xlink:href="#FS_Mane_01_6_Layer1_0_FILL"/>
</g>
</g>

<g transform="matrix( -1, 0, 0, 1, 3.1,105.65) ">
<g transform="matrix( 1, 0, 0, 1, 0,0) ">
<use xlink:href="#FS_Mane_02_6_Layer0_0_FILL"/>
</g>
</g>

<g transform="matrix( -1, 0, 0, 1, 33.05,190) ">
<g transform="matrix( 1, 0, 0, 1, 0,0) ">
<use xlink:href="#FS_Mane_03_6_Layer0_0_FILL"/>
</g>
</g>
</g>

<g transform="matrix( -1, 0, -0.0507049560546875, 1, -45.5,2.25) ">
<g transform="matrix( -0.0004730224609375, -0.9999847412109375, 0.9999847412109375, -0.0004730224609375, 59.55,124.15) ">
<g transform="matrix( 1, 0, 0, 1, 0,0) ">
<use xlink:href="#FS_Tail_02_0_Layer0_0_FILL"/>
</g>
</g>

<g transform="matrix( 1, 0, 0, 1, 0.7,-0.55) ">
<g transform="matrix( 1, 0, 0, 1, 0,0) ">
<use xlink:href="#FS_Tail_01_0_Layer2_0_FILL"/>
</g>
</g>

<g transform="matrix( 0.9999847412109375, -0.0004730224609375, 0.0004730224609375, 0.9999847412109375, 142.95,132.6) ">
<g transform="matrix( 1, 0, 0, 1, 0,0) ">
<use xlink:href="#FS_Tail_03_0_Layer0_0_FILL"/>
</g>
</g>
</g>

<g transform="matrix( -1, 0, 0, 0.908935546875, -26.5,11.4) ">
<g transform="matrix( 1, 0, 0, 1, 17.6,127.15) ">
<g transform="matrix( 1, 0, 0, 1, 0,0) ">
<use filter="url(#Filter_3)" xlink:href="#FS_FrontLeg_3_4_hoof_4_Layer0_0_FILL"/>
</g>
</g>

<g transform="matrix( 1, 0, 0, 1, 5.05,56.3) ">
<g transform="matrix( 1, 0, 0, 1, 0,0) ">
<use filter="url(#Filter_3)" xlink:href="#FS_KneePatch_1_Layer0_0_FILL"/>
</g>
</g>

<g transform="matrix( 1, 0, 0, 1, 8.7,61.9) ">
<g transform="matrix( 1, 0, 0, 1, 0,0) ">
<use filter="url(#Filter_3)" xlink:href="#FS_HindLeg_3_4rear_lower_0_Layer1_0_FILL"/>
</g>

<g transform="matrix( 1, 0, 0, 1, 0,0) ">
<use filter="url(#Filter_3)" xlink:href="#FS_HindLeg_3_4rear_lower_0_Layer0_0_FILL"/>
</g>
</g>

<g transform="matrix( 1, 0, -0.0095977783203125, 1.0159912109375, 5.95,-10.55) ">
<g transform="matrix( 1, 0, 0, 1, 0,0) ">
<use filter="url(#Filter_3)" xlink:href="#FS_HindLeg_3_4_top_0_Layer0_0_FILL"/>
</g>
</g>

<g transform="matrix( 1, 0, 0, 1, 5.05,56.3) ">
<g transform="matrix( 1, 0, 0, 1, 0,0) ">
<use filter="url(#Filter_3)" xlink:href="#FS_KneePatch_0_Layer0_0_FILL"/>
</g>
</g>
</g>

<g transform="matrix( -0.8722991943359375, -0.0078277587890625, 0.0606231689453125, 0.9180908203125, 28.15,47.5) ">
<g transform="matrix( 1, 0, 0, 1, 2.2,86.4) ">
<g transform="matrix( 1, 0, 0, 1, 0,0) ">
<use xlink:href="#FS_FrontLeg_3_4_hoof_0_Layer0_0_FILL"/>
</g>
</g>

<g transform="matrix( 0.999969482421875, -0.0043792724609375, -0.001129150390625, 1, 0.15,0.35) ">
<g transform="matrix( 1, 0, 0, 1, 0,0) ">
<use xlink:href="#FS_FrontLeg_3_4_upper_2_Layer1_0_FILL"/>
</g>
</g>
</g>

<g transform="matrix( -1, 0, 0, 1, -4.5,27.75) ">
<g transform="matrix( 1, 0, 0, 1, 0,0) ">
<use xlink:href="#FS_Torso_12_Layer1_0_FILL"/>
</g>
</g>

<g transform="matrix( -0.9770050048828125, 0.0135955810546875, 0.0430450439453125, 0.9858245849609375, 4.3,13.65) ">
<g transform="matrix( 1, 0, 0, 1, 0,0) ">
<use xlink:href="#FS_Neck_1_Layer0_0_FILL"/>
</g>
</g>

<g transform="matrix( -1, 0, 0, 1, -41.1,8.85) ">
<g transform="matrix( 1, 0, 0, 1, 17.6,127.15) ">
<g transform="matrix( 1, 0, 0, 1, 0,0) ">
<use xlink:href="#FS_FrontLeg_3_4_hoof_4_Layer0_0_FILL"/>
</g>
</g>

<g transform="matrix( 1, 0, 0, 1, 5.05,56.3) ">
<g transform="matrix( 1, 0, 0, 1, 0,0) ">
<use xlink:href="#FS_KneePatch_1_Layer0_0_FILL"/>
</g>
</g>

<g transform="matrix( 1, 0, 0, 1, 8.7,61.9) ">
<g transform="matrix( 1, 0, 0, 1, 0,0) ">
<use xlink:href="#FS_HindLeg_3_4rear_lower_0_Layer1_0_FILL"/>
</g>

<g transform="matrix( 1, 0, 0, 1, 0,0) ">
<use xlink:href="#FS_HindLeg_3_4rear_lower_0_Layer0_0_FILL"/>
</g>
</g>

<g transform="matrix( 1, 0, -0.0095977783203125, 1.0159912109375, 5.95,-10.55) ">
<g transform="matrix( 1, 0, 0, 1, 0,0) ">
<use xlink:href="#FS_HindLeg_3_4_top_0_Layer0_0_FILL"/>
</g>
</g>

<g transform="matrix( 1, 0, 0, 1, 5.05,56.3) ">
<g transform="matrix( 1, 0, 0, 1, 0,0) ">
<use xlink:href="#FS_KneePatch_0_Layer0_0_FILL"/>
</g>
</g>

<g transform="matrix( 0.69708251953125, -0.0613250732421875, -0.013763427734375, 0.9998321533203125, 1.1,15.5) ">
<g transform="matrix( 1, 0, 0, 1, 0,0) ">
<use xlink:href="#FS_CutieMark_3_Layer0_0_FILL"/>
</g>
</g>
</g>

<g transform="matrix( -1, 0, -0.004547119140625, 1, 16.55,50.4) ">
<g transform="matrix( 1, 0, 0, 1, 2.2,86.4) ">
<g transform="matrix( 1, 0, 0, 1, 0,0) ">
<use xlink:href="#FS_FrontLeg_3_4_hoof_0_Layer0_0_FILL"/>
</g>
</g>

<g transform="matrix( 0.999969482421875, -0.0043792724609375, -0.001129150390625, 1, 0.15,0.35) ">
<g transform="matrix( 1, 0, 0, 1, 0,0) ">
<use xlink:href="#FS_FrontLeg_3_4_upper_2_Layer1_0_FILL"/>
</g>
</g>
</g>

<g transform="matrix( -1, 0, 0, 1, -3.65,16.45) ">
<g transform="matrix( 1, 0, 0, 1, 0,0) ">
<use xlink:href="#FS_Wing_side_8_Layer4_0_FILL"/>
</g>
</g>

<g transform="matrix( 1, 0, 0, 1, 51.4,-44.35) ">
<g transform="matrix( -0.99908447265625, -0.0443572998046875, -0.039642333984375, 0.9907073974609375, 8.05,-15.2) ">
<g transform="matrix( 1, 0, 0, 1, 0,0) ">
<use xlink:href="#FS_Skull_0_Layer0_0_FILL"/>
</g>
</g>

<mask id="Mask_Mask_1">
<g transform="matrix( 0.199249267578125, -0.0212860107421875, 0.1102142333984375, 0.915008544921875, 49.2,-14.3) ">
<g transform="matrix( 1, 0, 0, 1, 0,0) ">
<use xlink:href="#Mask_Mask_FS_EyeWhite_3_4far_0_Layer0_0_FILL"/>
</g>
</g>
</mask>

<g mask="url(#Mask_Mask_1)">
<g transform="matrix( 0.199249267578125, -0.0212860107421875, 0.1102142333984375, 0.915008544921875, 49.2,-14.3) ">
<g transform="matrix( 1, 0, 0, 1, 0,0) ">
<use xlink:href="#FS_EyeWhite_3_4far_0_Layer0_0_FILL"/>
</g>
</g>
</g>

<g mask="url(#Mask_Mask_1)">
<g transform="matrix( -0.2513275146484375, -0.00537109375, -0.019439697265625, 0.803558349609375, 50.75,-8.4) ">
<g transform="matrix( 1, 0, 0, 1, 0,0) ">
<use xlink:href="#FS_Iris_2_Layer1_0_FILL"/>
</g>

<g transform="matrix( 1, 0, 0, 1, 0,0) ">
<use xlink:href="#FS_Iris_2_Layer0_0_FILL"/>
</g>

<g transform="matrix( 1, 0, 0, 1, 0,0) ">
<use xlink:href="#FS_Iris_2_Layer0_1_FILL"/>
</g>
</g>
</g>

<g mask="url(#Mask_Mask_1)">
<g transform="matrix( -0.2660675048828125, -0.0879058837890625, -0.05047607421875, 0.824920654296875, 50.85,-7.8) ">
<g transform="matrix( 1, 0, 0, 1, 0,0) ">
<use xlink:href="#FS_Pupil_0_Layer0_0_FILL"/>
</g>
</g>
</g>

<g mask="url(#Mask_Mask_1)">
<g transform="matrix( -0.30450439453125, -0.3253631591796875, -0.076812744140625, 0.8344268798828125, 49.2,-15.1) ">
<g transform="matrix( 1, 0, 0, 1, 0,0) ">
<use xlink:href="#FS_Hilights_0_Layer1_0_FILL"/>
</g>
</g>
</g>

<mask id="Mask_Mask_2">
<g transform="matrix( -0.999176025390625, -0.032928466796875, -0.0462799072265625, 1.00018310546875, 8.55,-4.6) ">
<g transform="matrix( 1, 0, 0, 1, 0,0) ">
<use xlink:href="#Mask_Mask_FS_EyeWhite_3_4_0_Layer0_0_FILL"/>
</g>
</g>
</mask>

<g mask="url(#Mask_Mask_2)">
<g transform="matrix( -0.999176025390625, -0.032928466796875, -0.0462799072265625, 1.00018310546875, 8.55,-4.6) ">
<g transform="matrix( 1, 0, 0, 1, 0,0) ">
<use xlink:href="#FS_EyeWhite_3_4_0_Layer0_0_FILL"/>
</g>
</g>
</g>

<g mask="url(#Mask_Mask_2)">
<g transform="matrix( 0.7957916259765625, -0.0697479248046875, 0.0960540771484375, 0.9905548095703125, 17.75,-1.6) ">
<g transform="matrix( 1, 0, 0, 1, 0,0) ">
<use xlink:href="#FS_Iris_0_Layer1_0_FILL"/>
</g>

<g transform="matrix( 1, 0, 0, 1, 0,0) ">
<use xlink:href="#FS_Iris_0_Layer0_0_FILL"/>
</g>

<g transform="matrix( 1, 0, 0, 1, 0,0) ">
<use xlink:href="#FS_Iris_0_Layer0_1_FILL"/>
</g>
</g>
</g>

<g mask="url(#Mask_Mask_2)">
<g transform="matrix( -0.899871826171875, -0.2631378173828125, -0.2676849365234375, 0.95831298828125, 18.55,-1.45) ">
<g transform="matrix( 1, 0, 0, 1, 0,0) ">
<use xlink:href="#FS_Pupil_0_Layer0_0_FILL"/>
</g>
</g>
</g>

<g mask="url(#Mask_Mask_2)">
<g transform="matrix( -1.1346435546875, 0.0050048828125, -0.059722900390625, 0.9758758544921875, 12.75,-7.5) ">
<g transform="matrix( 1, 0, 0, 1, 0,0) ">
<use xlink:href="#FS_Hilights_0_Layer1_0_FILL"/>
</g>
</g>
</g>

<g transform="matrix( -0.7605743408203125, 0.0196075439453125, 0.0463714599609375, 0.9796142578125, 50.2,-14.3) ">
<g transform="matrix( 1, 0, 0, 1, 0,0) ">
<use xlink:href="#FS_Blink_3_4far_0_Layer9_0_FILL"/>
</g>

<g transform="matrix( 1, 0, 0, 1, 0,0) ">
<use xlink:href="#FS_Blink_3_4far_0_Layer7_0_FILL"/>
</g>

<g transform="matrix( 1, 0, 0, 1, 0,0) ">
<use xlink:href="#FS_Blink_3_4far_0_Layer4_0_FILL"/>
</g>

<g transform="matrix( 1, 0, 0, 1, 0,0) ">
<use xlink:href="#FS_Blink_3_4far_0_Layer3_0_FILL"/>
</g>
</g>

<g transform="matrix( -1.01416015625, -0.02789306640625, -0.0462799072265625, 1.00018310546875, 8.8,-6.9) ">
<g transform="matrix( 1, 0, 0, 1, 0,0) ">
<use xlink:href="#FS_Blink_3_4_0_Layer5_0_FILL"/>
</g>

<g transform="matrix( 1, 0, 0, 1, 0,0) ">
<use xlink:href="#FS_Blink_3_4_0_Layer4_0_FILL"/>
</g>

<g transform="matrix( 1, 0, 0, 1, 0,0) ">
<use xlink:href="#FS_Blink_3_4_0_Layer3_0_FILL"/>
</g>

<g transform="matrix( 1, 0, 0, 1, 0,0) ">
<use xlink:href="#FS_Blink_3_4_0_Layer3_1_FILL"/>
</g>

<g transform="matrix( 1, 0, 0, 1, 0,0) ">
<use xlink:href="#FS_Blink_3_4_0_Layer2_0_FILL"/>
</g>

<g transform="matrix( 1, 0, 0, 1, 0,0) ">
<use xlink:href="#FS_Blink_3_4_0_Layer1_0_FILL"/>
</g>
</g>

<g transform="matrix( -1.0028076171875, -0.00469970703125, -0.0288848876953125, 1.050933837890625, 24.65,17.95) ">
<g transform="matrix( 1, 0, 0, 1, 0,0) ">
<use xlink:href="#FS_Mouth_3_4_3_Layer10_0_FILL"/>
</g>

<g transform="matrix( 1, 0, 0, 1, 0,0) ">
<use xlink:href="#FS_Mouth_3_4_3_Layer8_0_FILL"/>
</g>

<g transform="matrix( 1, 0, 0, 1, 0,0) ">
<use xlink:href="#FS_Mouth_3_4_3_Layer7_0_FILL"/>
</g>

<g transform="matrix( 0.7001495361328125, -0.0708465576171875, -0.3102264404296875, 0.88494873046875, -17.45,8.95) ">
<g transform="matrix( 1, 0, 0, 1, 0,0) ">
<use xlink:href="#FS_MouthInterior_0_Layer2_0_FILL"/>
</g>

<g transform="matrix( 1, 0, 0, 1, 0,0) ">
<use xlink:href="#FS_MouthInterior_0_Layer1_0_FILL"/>
</g>
</g>

<g transform="matrix( 1, 0, 0, 1, 0,0) ">
<use xlink:href="#FS_Mouth_3_4_3_Layer4_0_FILL"/>
</g>
</g>

<g transform="matrix( -0.921875, 0, 0.003509521484375, 0.921875, 53.15,18.1) ">
<g transform="matrix( 1, 0, 0, 1, 0.1,0.05) ">
<g transform="matrix( 1, 0, 0, 1, 0,0) ">
<use xlink:href="#FS_Nostril_3_4_0_Layer0_0_FILL"/>
</g>
</g>
</g>

<g transform="matrix( -0.782989501953125, -0.0497589111328125, -0.063140869140625, 1.021148681640625, 41.4,-57.65) ">
<g transform="matrix( 1, 0, 0, 1, 0,0) ">
<use xlink:href="#FS_Hair_05_6_Layer1_0_FILL"/>
</g>
</g>

<g transform="matrix( -0.92718505859375, 0.248443603515625, 0.1927947998046875, 0.9609832763671875, -28.9,-33.6) ">
<g transform="matrix( 1, 0, 0, 1, 0,0) ">
<use xlink:href="#FS_Ear_2_Layer1_0_FILL"/>
</g>
</g>
</g>

<g transform="matrix( 1, 0, 0, 1, 116.1,-127.85) ">
<g transform="matrix( -0.973846435546875, -0.0372772216796875, -0.0360870361328125, 0.9991302490234375, -94.25,126.2) ">
<g transform="matrix( 1, 0, 0, 1, 0,0) ">
<use xlink:href="#FS_Hair_03_9_Layer1_0_FILL"/>
</g>
</g>

<g transform="matrix( -0.973846435546875, -0.0372772216796875, -0.0360870361328125, 0.9991302490234375, -0.3,-0.35) ">
<g transform="matrix( 1, 0, 0, 1, 0,0) ">
<use xlink:href="#FS_Hair_01_6_Layer3_0_FILL"/>
</g>
</g>

<g transform="matrix( -0.973846435546875, -0.0372772216796875, -0.0360870361328125, 0.9991302490234375, -42.6,162.85) ">
<g transform="matrix( 1, 0, 0, 1, 0,0) ">
<use xlink:href="#FS_Hair_04_9_Layer1_0_FILL"/>
</g>
</g>
</g>
</g>
</svg>
