
<svg xmlns="http://www.w3.org/2000/svg" version="1.1" xmlns:xlink="http://www.w3.org/1999/xlink" preserveAspectRatio="none" x="0px" y="0px" width="864px" height="486px" viewBox="0 0 864 486">
<defs>
<linearGradient id="Gradient_1" gradientUnits="userSpaceOnUse" x1="-33.8" y1="-21.2875" x2="-46.900000000000006" y2="1.387500000000001" spreadMethod="pad">
<stop  offset="0%" stop-color="#015350"/>

<stop  offset="2.7450980392156863%" stop-color="#025B58"/>

<stop  offset="9.019607843137255%" stop-color="#046B67"/>

<stop  offset="14.901960784313726%" stop-color="#047672"/>

<stop  offset="19.607843137254903%" stop-color="#057975"/>

<stop  offset="28.235294117647058%" stop-color="#058581"/>

<stop  offset="42.35294117647059%" stop-color="#009590"/>

<stop  offset="58.03921568627451%" stop-color="#00A19D"/>

<stop  offset="75.68627450980392%" stop-color="#00AAA5"/>

<stop  offset="100%" stop-color="#00ADA8"/>
</linearGradient>

<filter id="Filter_1" x="-20%" y="-20%" width="140%" height="140%" color-interpolation-filters="sRGB">
<feColorMatrix in="SourceGraphic" type="matrix" values="1 0 0 0 0 0 1 0 0 0 0 0 1 0 0 0 0 0 0.21 0" result="result1"/>
</filter>

<filter id="Filter_2" x="-20%" y="-20%" width="140%" height="140%" color-interpolation-filters="sRGB">
<feColorMatrix in="SourceGraphic" type="matrix" values="0.5 0 0 0 0.4627450980392157 0 0.5 0 0 0.41568627450980394 0 0 0.5 0 0.19607843137254902 0 0 0 1 0" result="result1"/>
</filter>

<filter id="Filter_3" x="-20%" y="-20%" width="140%" height="140%" color-interpolation-filters="sRGB">
<feColorMatrix in="SourceGraphic" type="matrix" values="1 0 0 0 0.0196078431372549 0 1 0 0 -0.06274509803921569 0 0 1 0 -0.12156862745098039 0 0 0 1 0" result="result1"/>
</filter>

<g id="FS_Shadow_0_Layer0_0_FILL">
<path fill="#000000" stroke="none" d="
M 46.4 155.05
Q 68.65 152.95 68.65 149.95 68.65 146.95 46.4 144.8 24.15 142.7 -7.4 142.7 -38.9 142.7 -61.2 144.8 -83.45 146.95 -83.45 149.95 -83.45 152.95 -61.2 155.05 -38.9 157.2 -7.4 157.2 24.15 157.2 46.4 155.05 Z"/>
</g>

<g id="FS_WingBack_3_4far_8_Layer6_0_FILL">
<path fill="#FDF6AE" stroke="none" d="
M -3.25 -10.95
L -3.25 -10.9
Q -6.771875 -9.8326171875 -7.95 -7.7 -9.437109375 -4.7736328125 -9.05 0.65 -11.0166015625 2.1763671875 -11.65 3.35
L -11.6 3.3
Q -12.3109375 4.779296875 -12.4 7 -12.5015625 10.356640625 -9.3 15.45 -11.1501953125 20.690625 -8.2 24.1 -4.8490234375 24.80546875 -1.4 24.3 7.390234375 23.14375 10.05 15.55 14.9142578125 1.3421875 -0.4 -15
L -1.4 -16.05 -3.2 -10.9 -3 -12.45 -3.25 -10.95
M -12.65 16.3
Q -13.2515625 15.454296875 -13.75 14.55
L -13.75 14.5
Q -14.09296875 13.80234375 -14.4 13.05
L -14.45 13.15 -30.5 2.95
Q -26.376953125 11.7984375 -19.9 17.6 -16.3068359375 20.8330078125 -12.6 22.55 -13.715234375 19.6021484375 -12.65 16.3
M -34.5 -13.45
Q -34.996875 -8.25390625 -32.05 -0.65 -31.8767578125 -0.2734375 -31.75 0.1 -31.509765625 0.718359375 -31.25 1.3
L -14.85 11.7
Q -15.46015625 9.433203125 -15.4 6.9 -15.2939453125 4.047265625 -14.4 2.15
L -34.5 -13.45
M -21.7 -18.15
Q -22.5771484375 -18.3775390625 -23.45 -18.55
L -10.25 -9.7
Q -9.2578125 -11.2814453125 -8 -12.05 -13.21171875 -15.9927734375 -21.7 -18.15
M -25.9 -19
Q -26.7892578125 -19.1376953125 -27.6 -19.2
L -27.65 -19.2
Q -32.028515625 -19.5138671875 -33.3 -17.7
L -33.3 -17.65
Q -34.0263671875 -16.362890625 -34.35 -14.8
L -34.35 -14.75
Q -34.3427734375 -14.6591796875 -34.35 -14.6
L -13.9 1.25
Q -13.2216796875 0.2173828125 -12.35 -0.55 -12.330859375 -5.6185546875 -10.75 -8.8
L -25.9 -19 Z"/>

<path fill="#EBD463" stroke="none" d="
M -27.4 -22.2
L -27.4 -22.2
Q -34.184375 -22.6814453125 -35.9 -19.15
L -35.9 -19.15
Q -36.8681640625 -17.446875 -37.3 -15.35
L -37.3 -15.35
Q -38.59375 -9.1455078125 -34.8 0.6
L -34.75 0.7
Q -34.660546875 0.89765625 -34.6 1.1 -34.577734375 1.188671875 -34.55 1.25 -29.9048828125 12.7171875 -21.9 19.85 -17.0701171875 24.1734375 -12.05 26.05
L -9.3 26.9
Q -5.23046875 27.8634765625 -1 27.25 9.7099609375 25.85625 12.9 16.55 18.5857421875 0.8576171875 -1.4 -16.05
L -0.4 -15
Q 14.9142578125 1.3421875 10.05 15.55 7.390234375 23.14375 -1.4 24.3 -4.8490234375 24.80546875 -8.2 24.1 -11.1501953125 20.690625 -9.3 15.45 -12.5015625 10.356640625 -12.4 7 -12.3109375 4.779296875 -11.6 3.3
L -11.65 3.35
Q -11.0166015625 2.1763671875 -9.05 0.65 -9.437109375 -4.7736328125 -7.95 -7.7 -6.771875 -9.8326171875 -3.25 -10.9
L -3.25 -10.95
Q -11.1728515625 -18.5560546875 -20.95 -21.05 -24.6181640625 -21.991015625 -27.4 -22.2
M -27.6 -19.2
Q -26.7892578125 -19.1376953125 -25.9 -19
L -10.75 -8.8
Q -12.330859375 -5.6185546875 -12.35 -0.55 -13.2216796875 0.2173828125 -13.9 1.25
L -34.35 -14.6
Q -34.3427734375 -14.6591796875 -34.35 -14.75
L -34.35 -14.8
Q -34.0263671875 -16.362890625 -33.3 -17.65
L -33.3 -17.7
Q -32.028515625 -19.5138671875 -27.65 -19.2
L -27.6 -19.2
M -23.45 -18.55
Q -22.5771484375 -18.3775390625 -21.7 -18.15 -13.21171875 -15.9927734375 -8 -12.05 -9.2578125 -11.2814453125 -10.25 -9.7
L -23.45 -18.55
M -32.05 -0.65
Q -34.996875 -8.25390625 -34.5 -13.45
L -14.4 2.15
Q -15.2939453125 4.047265625 -15.4 6.9 -15.46015625 9.433203125 -14.85 11.7
L -31.25 1.3
Q -31.509765625 0.718359375 -31.75 0.1 -31.8767578125 -0.2734375 -32.05 -0.65
M -13.75 14.55
Q -13.2515625 15.454296875 -12.65 16.3 -13.715234375 19.6021484375 -12.6 22.55 -16.3068359375 20.8330078125 -19.9 17.6 -26.376953125 11.7984375 -30.5 2.95
L -14.45 13.15 -14.4 13.05
Q -14.09296875 13.80234375 -13.75 14.5
L -13.75 14.55 Z"/>
</g>

<g id="FS_FrontLeg_3_4_hoof_0_Layer0_0_FILL">
<path fill="#EBD463" stroke="none" d="
M 14.95 -14.95
Q 8.7541015625 -20.8443359375 0.05 -20.15 -8.81640625 -19.5484375 -12.8 -14.35 -16.526953125 -9.5060546875 -19.15 -4.25 -21.7119140625 0.947265625 -24.6 7.3
L -24.55 7.3
Q -26.32890625 11.167578125 -25.4 13.5 -24.5373046875 16.1365234375 -20.8 17
L -20.8 17
Q -15.0755859375 18.309765625 -1 18.05 13.7875 17.7890625 17.25 13.7
L 17.25 13.7
Q 20.8900390625 9.7828125 21.05 0.3 21.2107421875 -9.126171875 14.95 -14.95
M 0.25 -17.15
L 0.25 -17.15
Q 7.6546875 -17.7474609375 12.9 -12.75 18.1890625 -7.7734375 18.05 0.25 17.9103515625 8.2857421875 15.05 11.65
L 15 11.7
Q 11.8634765625 14.81171875 -1.05 15.05 -14.6240234375 15.2900390625 -20.15 14.05
L -20.15 14.1
Q -22.016015625 13.6626953125 -22.55 12.5 -22.959375 11.0341796875 -21.85 8.55 -18.9880859375 2.2525390625 -16.45 -2.9 -13.9732421875 -7.894140625 -10.45 -12.5 -7.0837890625 -16.6517578125 0.25 -17.15 Z"/>

<path fill="#FDF6AE" stroke="none" d="
M 0.25 -17.15
L 0.25 -17.15
Q -7.0837890625 -16.6517578125 -10.45 -12.5 -13.9732421875 -7.894140625 -16.45 -2.9 -18.9880859375 2.2525390625 -21.85 8.55 -22.959375 11.0341796875 -22.55 12.5 -22.016015625 13.6626953125 -20.15 14.1
L -20.15 14.05
Q -14.6240234375 15.2900390625 -1.05 15.05 11.8634765625 14.81171875 15 11.7
L 15.05 11.65
Q 17.9103515625 8.2857421875 18.05 0.25 18.1890625 -7.7734375 12.9 -12.75 7.6546875 -17.7474609375 0.25 -17.15 Z"/>
</g>

<g id="FS_FrontLeg_3_4_upper_2_Layer1_0_FILL">
<path fill="#EBD463" stroke="none" d="
M -17.3 82.35
L -14.2 82.9
Q -3.4103515625 50.004296875 -7.15 -2.5 -9.971484375 0.565234375 -9.25 14.7 -7.92421875 54.5646484375 -17.3 82.35
M 18.4 19.05
Q 12.98984375 3.2484375 9.05 0.4 26.109765625 43.7232421875 19.95 89.45
L 19.95 89.5
Q 21.0232421875 91.8462890625 22.9 89.9
L 22.9 89.9
Q 27.77265625 53.83984375 18.4 19.05 Z"/>

<path fill="#FDF6AE" stroke="none" d="
M 9.05 0.4
L 9.05 0.35
Q 0.58515625 -2.4958984375 -7.15 -2.5 -3.4103515625 50.004296875 -14.2 82.9
L -13.1 84.35 19.95 89.45
Q 26.109765625 43.7232421875 9.05 0.4 Z"/>
</g>

<g id="FS_Neck_1_Layer0_0_FILL">
<path fill="#FDF6AE" stroke="none" d="
M -17.6 -99.9
L -17.65 -99.9
Q -26.683984375 -109.0083984375 -39.8 -109 -52.8892578125 -108.998828125 -62.3 -99.85 -71.801171875 -90.6611328125 -72.05 -77.85 -72.3279296875 -65.053125 -63.25 -55.9
L -63.25 -55.9
Q -62.7607421875 -55.412890625 -62.25 -54.95
L -60.5 -53.45 -60.5 -53.4 -59.15 -51.9
Q -48.75625 -40.150390625 -47.1 -29.25 -47 -27.9 -46.95 -26.5 -46.9 -23.2 -47.45 -19.75 -50.535546875 -0.3146484375 -45.9 16
L -45.9 15.95
Q -39.7232421875 37.46015625 -19.85 44.45
L -18.45 44.95 -18.55 45
Q -7.184375 45.1412109375 -5.55 29.25 -3.9140625 13.4140625 -2.6 -0.1
L -0.25 -0.05
Q -3.05859375 -1.5416015625 -4.1 -3.15 -5.85234375 -5.197265625 -8.1 -25.15 -9.88515625 -40.952734375 -9.5 -62.95 -9.3767578125 -67.9625 -9.2 -73.3 -9.158984375 -73.5244140625 -9.15 -73.75
L -9.15 -81.3 -8.85 -81.3
Q -9.7095703125 -91.998828125 -17.6 -99.9
M -34.6 -47.4
L -34.7 -47.4
Q -34.6310546875 -47.38359375 -34.6 -47.4
L -34.6 -47.4 Z"/>

<path fill="#EBD564" stroke="none" d="
M -34.7 -47.4
L -34.6 -47.4 -34.6 -47.4
Q -34.6310546875 -47.38359375 -34.7 -47.4
M -17.65 -99.9
L -17.6 -99.9
Q -9.7095703125 -91.998828125 -8.85 -81.3
L -9.15 -81.3 -9.15 -73.75
Q -9.158984375 -73.5244140625 -9.2 -73.3 -9.3767578125 -67.9625 -9.5 -62.95 -9.88515625 -40.952734375 -8.1 -25.15 -5.85234375 -5.197265625 -4.1 -3.15 -3.05859375 -1.5416015625 -0.25 -0.05 -1.4 -1.85 -2.25 -4.8 -3.05 -7.45 -5.1 -25.5 -7.2638671875 -44.648828125 -6.2 -72.95 -5.7958984375 -75.3732421875 -5.75 -77.95 -5.492578125 -92.0048828125 -15.5 -102
L -15.5 -102
Q -25.41640625 -111.9916015625 -39.8 -112 -54.110546875 -112.0013671875 -64.4 -102 -74.7986328125 -91.9388671875 -75.05 -77.9 -75.355078125 -64.5958984375 -66.45 -54.9 -65.9 -54.35 -65.35 -53.8 -63.45 -52 -61.7 -50.1 -60.3 -48.55 -58.95 -46.95 -52.171875 -38.4115234375 -50.45 -29.2 -50 -25.35 -50.3 -21.6 -50.35 -20.65 -50.5 -19.7 -53.575 0.1408203125 -48.8 16.8
L -48.8 16.8
Q -42.1767578125 39.8396484375 -20.85 47.3
L -19.45 47.8 -18.55 45 -18.45 44.95 -19.85 44.45
Q -39.7232421875 37.46015625 -45.9 15.95
L -45.9 16
Q -50.535546875 -0.3146484375 -47.45 -19.75 -46.9 -23.2 -46.95 -26.5 -47 -27.9 -47.1 -29.25 -48.75625 -40.150390625 -59.15 -51.9
L -60.5 -53.4 -61.7 -53.4 -60.5 -53.45 -62.25 -54.95
Q -62.7607421875 -55.412890625 -63.25 -55.9
L -63.25 -55.9
Q -72.3279296875 -65.053125 -72.05 -77.85 -71.801171875 -90.6611328125 -62.3 -99.85 -52.8892578125 -108.998828125 -39.8 -109 -26.683984375 -109.0083984375 -17.65 -99.9 Z"/>
</g>

<g id="FS_Skull_4_Layer0_0_FILL">
<path fill="#FDF6AE" stroke="none" d="
M 36.95 -33.85
Q 25.890625 -44.9564453125 5.35 -45.05 -4.85 -45.1 -13.1 -42.35 -21.1 -39.7 -28.55 -34.05 -31.85 -31.5 -35.3 -27.95 -40.25 -22.8 -42.85 -11.5 -44.6458984375 -3.5529296875 -44.85 1.85 -45.012890625 7.3087890625 -44.25 14.15 -43.7 18.7 -43.2 21.95 -42.95 25.1 -43.45 26.9
L -43.5 28.25
Q -43.5 29.9 -43 31.5 -39.85 41.3 -27.45 48.05 -12.6 56.1 5.25 52
L 9.75 50.9 9.8 50.9
Q 18.56875 46.2052734375 22.9 43.85 26.819921875 41.7267578125 29.15 39.45 37.883984375 31.1623046875 40.2 28.15 42.5498046875 25.1298828125 44.05 22.25 45.566015625 19.4197265625 46.3 16.35 52.246484375 -1.18515625 48.1 -15.3 46.64609375 -20.2318359375 44.05 -24.7 41.2005859375 -29.57109375 36.95 -33.85 Z"/>

<path fill="#EBD463" stroke="none" d="
M 5.35 -45.05
Q 25.890625 -44.9564453125 36.95 -33.85 41.2005859375 -29.57109375 44.05 -24.7
L 44.05 -30.2
Q 41.857421875 -33.186328125 39.1 -35.95 27.309765625 -47.94375 5.35 -48.05 -5.4 -48.1 -14.15 -45.2 -22.55 -42.4 -30.35 -36.45 -32.1 -35.1 -37.65 -29 -42.2 -23.95 -45 -14.9 -47.8490234375 -5.702734375 -47.6 4.85 -47.4 13.95 -45.25 22.5 -44.5 25.45 -43.45 26.9 -42.95 25.1 -43.2 21.95 -43.7 18.7 -44.25 14.15 -45.012890625 7.3087890625 -44.85 1.85 -44.6458984375 -3.5529296875 -42.85 -11.5 -40.25 -22.8 -35.3 -27.95 -31.85 -31.5 -28.55 -34.05 -21.1 -39.7 -13.1 -42.35 -4.85 -45.1 5.35 -45.05 Z"/>
</g>

<g id="FS_Mouth_3_4back_0_Layer4_0_FILL">
<path fill="#FDF6AE" stroke="none" d="
M -33.05 -6.55
L -33.1 -6.5
Q -34.602734375 -6.291015625 -35.3 -5.95 -36.713671875 -4.7525390625 -35.35 -1.35 -33.8458984375 2.2220703125 -31.1 5.3 -30.5798828125 5.8734375 -30.1 6.4 -28.144140625 3.65703125 -29.65 -1.3
L -29.55 -1.35
Q -26.7837890625 3.019921875 -28.95 7.5 -26.4015625 9.941015625 -23.6 11.75 -17.9375 15.3580078125 -9.9 17.4 -0.362109375 19.8818359375 14.25 19.2 -4.4330078125 19.3673828125 -18.1 8.4 -24.3 3.45 -27.45 -2.3 -29.41875 -5.8705078125 -29.6 -8.45 -29.708203125 -8.2953125 -29.85 -8.2
L -29.9 -8.15
Q -30.85390625 -6.9080078125 -33.05 -6.55 Z"/>

<path fill="#EBD463" stroke="none" d="
M -31.15 -16.35
Q -30.6955078125 -13.77578125 -30.5 -12.5 -30.30859375 -11.16875 -31 -10.35 -31.68671875 -9.53046875 -32.7 -9.35
L -32.65 -9.3
Q -33.298046875 -9.2357421875 -34.65 -9.05 -35.998046875 -8.8169921875 -36.8 -8.5
L -36.85 -8.55
Q -40.6146484375 -6.479296875 -38.1 -0.25 -36.4326171875 3.8044921875 -33.3 7.3 -29.5380859375 11.502734375 -25.2 14.3 -23.4265625 15.4275390625 -21.35 16.35 -9.6833984375 21.407421875 2.85 21.4
L 2.85 21.35
Q 4.603125 21.42578125 6.45 21.4 17.3693359375 21.2611328125 21.35 18.8 21.3765625 18.7896484375 21.4 18.75
L 21.35 18.75 20.6 18.85 20.25 18.85
Q 17.162890625 19.102734375 14.25 19.2 -0.362109375 19.8818359375 -9.9 17.4 -17.9375 15.3580078125 -23.6 11.75 -26.4015625 9.941015625 -28.95 7.5 -26.7837890625 3.019921875 -29.55 -1.35
L -29.65 -1.3
Q -28.144140625 3.65703125 -30.1 6.4 -30.5798828125 5.8734375 -31.1 5.3 -33.8458984375 2.2220703125 -35.35 -1.35 -36.713671875 -4.7525390625 -35.3 -5.95 -34.602734375 -6.291015625 -33.1 -6.5
L -33.05 -6.55
Q -30.85390625 -6.9080078125 -29.9 -8.15
L -29.85 -8.2
Q -29.708203125 -8.2953125 -29.6 -8.45 -28.5978515625 -9.625390625 -28.75 -12.1 -28.9078125 -14.5685546875 -29.15 -17.45
L -31.15 -16.35 Z"/>
</g>

<g id="FS_Nostril_3_4rear_0_Layer13_0_FILL">
<path fill="#EBD463" stroke="none" d="
M -0.2 0.05
Q -0.3333984375 0.911328125 -0.8 1.4 0.60625 1.8599609375 0.75 0.55 0.8951171875 -0.7771484375 -0.55 -1.55 -0.0181640625 -0.7642578125 -0.2 0.05 Z"/>
</g>

<g id="FS_Nostril_3_4rear_0_Layer12_0_FILL">
<path fill="#EBD463" stroke="none" d="
M -0.2 0.05
Q -0.3333984375 0.911328125 -0.8 1.4 0.60625 1.8599609375 0.75 0.55 0.8951171875 -0.7771484375 -0.55 -1.55 -0.0181640625 -0.7642578125 -0.2 0.05 Z"/>
</g>

<g id="FS_Nostril_3_4rear_0_Layer11_0_FILL">
<path fill="#EBD463" stroke="none" d="
M -0.2 0.05
Q -0.3333984375 0.911328125 -0.8 1.4 0.60625 1.8599609375 0.75 0.55 0.8951171875 -0.7771484375 -0.55 -1.55 -0.0181640625 -0.7642578125 -0.2 0.05 Z"/>
</g>

<g id="FS_Nostril_3_4rear_0_Layer10_0_FILL">
<path fill="#EBD463" stroke="none" d="
M -0.2 0.05
Q -0.3333984375 0.911328125 -0.8 1.4 0.60625 1.8599609375 0.75 0.55 0.8951171875 -0.7771484375 -0.55 -1.55 -0.0181640625 -0.7642578125 -0.2 0.05 Z"/>
</g>

<g id="FS_Nostril_3_4rear_0_Layer9_0_FILL">
<path fill="#EBD463" stroke="none" d="
M -0.2 0.05
Q -0.3333984375 0.911328125 -0.8 1.4 0.60625 1.8599609375 0.75 0.55 0.8951171875 -0.7771484375 -0.55 -1.55 -0.0181640625 -0.7642578125 -0.2 0.05 Z"/>
</g>

<g id="FS_Nostril_3_4rear_0_Layer8_0_FILL">
<path fill="#EBD463" stroke="none" d="
M -0.2 0.05
Q -0.3333984375 0.911328125 -0.8 1.4 0.60625 1.8599609375 0.75 0.55 0.8951171875 -0.7771484375 -0.55 -1.55 -0.0181640625 -0.7642578125 -0.2 0.05 Z"/>
</g>

<g id="FS_Nostril_3_4rear_0_Layer7_0_FILL">
<path fill="#EBD463" stroke="none" d="
M -0.2 0.05
Q -0.3333984375 0.911328125 -0.8 1.4 0.60625 1.8599609375 0.75 0.55 0.8951171875 -0.7771484375 -0.55 -1.55 -0.0181640625 -0.7642578125 -0.2 0.05 Z"/>
</g>

<g id="FS_Nostril_3_4rear_0_Layer6_0_FILL">
<path fill="#EBD463" stroke="none" d="
M -0.2 0.05
Q -0.3333984375 0.911328125 -0.8 1.4 0.60625 1.8599609375 0.75 0.55 0.8951171875 -0.7771484375 -0.55 -1.55 -0.0181640625 -0.7642578125 -0.2 0.05 Z"/>
</g>

<g id="FS_Nostril_3_4rear_0_Layer5_0_FILL">
<path fill="#EBD463" stroke="none" d="
M -0.2 0.05
Q -0.3333984375 0.911328125 -0.8 1.4 0.60625 1.8599609375 0.75 0.55 0.8951171875 -0.7771484375 -0.55 -1.55 -0.0181640625 -0.7642578125 -0.2 0.05 Z"/>
</g>

<g id="FS_Nostril_3_4rear_0_Layer4_0_FILL">
<path fill="#EBD463" stroke="none" d="
M -0.2 0.05
Q -0.3333984375 0.911328125 -0.8 1.4 0.60625 1.8599609375 0.75 0.55 0.8951171875 -0.7771484375 -0.55 -1.55 -0.0181640625 -0.7642578125 -0.2 0.05 Z"/>
</g>

<g id="FS_Nostril_3_4rear_0_Layer3_0_FILL">
<path fill="#EBD463" stroke="none" d="
M -0.2 0.05
Q -0.3333984375 0.911328125 -0.8 1.4 0.60625 1.8599609375 0.75 0.55 0.8951171875 -0.7771484375 -0.55 -1.55 -0.0181640625 -0.7642578125 -0.2 0.05 Z"/>
</g>

<g id="FS_Nostril_3_4rear_0_Layer2_0_FILL">
<path fill="#EBD463" stroke="none" d="
M -0.2 0.05
Q -0.3333984375 0.911328125 -0.8 1.4 0.60625 1.8599609375 0.75 0.55 0.8951171875 -0.7771484375 -0.55 -1.55 -0.0181640625 -0.7642578125 -0.2 0.05 Z"/>
</g>

<g id="FS_Nostril_3_4rear_0_Layer1_0_FILL">
<path fill="#EBD463" stroke="none" d="
M -0.2 0.05
Q -0.3333984375 0.911328125 -0.8 1.4 0.60625 1.8599609375 0.75 0.55 0.8951171875 -0.7771484375 -0.55 -1.55 -0.0181640625 -0.7642578125 -0.2 0.05 Z"/>
</g>

<g id="FS_Nostril_3_4rear_0_Layer0_0_FILL">
<path fill="#EBD463" stroke="none" d="
M -0.2 0.05
Q -0.3333984375 0.911328125 -0.8 1.4 0.60625 1.8599609375 0.75 0.55 0.8951171875 -0.7771484375 -0.55 -1.55 -0.0181640625 -0.7642578125 -0.2 0.05 Z"/>
</g>

<g id="FS_Ear_3_Layer1_0_FILL">
<path fill="#FDF6AE" stroke="none" d="
M 19.6 -0.8
Q 20.2775390625 -8.8939453125 17.6 -17.4 14.695703125 -26.733984375 8 -35 2.0962890625 -42.3365234375 -4.7 -46.45 -5.8658203125 -44.307421875 -6.05 -37.9 -6.1 -36.3 -5.9 -33.15 -5.65 -29.5 -5.25 -27.1
L -4.4 -18.5
Q 2.55 -8.55 13 15.8
L 13.05 15.85
Q 13.0939453125 15.79296875 13.15 15.7 18.9548828125 8.1330078125 19.6 -0.8 Z"/>

<path fill="#EBD564" stroke="none" d="
M 20.45 -18.3
Q 17.404296875 -28.1658203125 10.35 -36.9 3.569140625 -45.2876953125 -4.35 -49.65 -4.70078125 -49.867578125 -5.15 -49.85 -5.5634765625 -49.8255859375 -5.95 -49.6 -7.35 -48.65 -7.9 -46.8 -8.5 -44.8 -8.65 -40 -8.7 -38.45 -8.45 -35.3 -8.2 -31.85 -7.8 -29.4 -7.35 -26.6 -5.85 -22.3
L -4.4 -18.5 -5.25 -27.1
Q -5.65 -29.5 -5.9 -33.15 -6.1 -36.3 -6.05 -37.9 -5.8658203125 -44.307421875 -4.7 -46.45 2.0962890625 -42.3365234375 8 -35 14.695703125 -26.733984375 17.6 -17.4 20.2775390625 -8.8939453125 19.6 -0.8 18.9548828125 8.1330078125 13.15 15.7 13.0939453125 15.79296875 13.05 15.85
L 13 15.8 12.8 16
Q 12.9857421875 15.9169921875 13.15 15.8 13.873046875 15.45234375 14.6 14.85 15.6703125 14.01796875 16.8 12.7 21 7.8 22.2 -0.1 23.45 -8.6 20.45 -18.3 Z"/>
</g>

<g id="Mask_Mask_FS_EyeWhite_3_4rear_0_Layer0_0_FILL">
<path fill="#FFFFFF" stroke="none" d="
M 18.8 -4.3
Q 18.898046875 -5.5201171875 18.9 -6.25 19.1150390625 -15.526171875 14.6 -21.45 8.501171875 -25.4755859375 1.6 -24.75 -5.2697265625 -24.0158203125 -10.9 -18.7 -16.7712890625 -13.1720703125 -19.85 -4.3 -24.31640625 6.086328125 -24.65 20.85 -12.22265625 25.8353515625 -1.9 22.5 7.05625 19.6515625 12.8 11.15 17.688671875 4.091015625 18.75 -4.3
L 18.8 -4.3 Z"/>
</g>

<g id="FS_EyeWhite_3_4rear_0_Layer0_0_FILL">
<path fill="#FFFFFF" stroke="none" d="
M 18.8 -4.3
Q 18.898046875 -5.5201171875 18.9 -6.25 19.1150390625 -15.526171875 14.6 -21.45 8.501171875 -25.4755859375 1.6 -24.75 -5.2697265625 -24.0158203125 -10.9 -18.7 -16.7712890625 -13.1720703125 -19.85 -4.3 -24.31640625 6.086328125 -24.65 20.85 -12.22265625 25.8353515625 -1.9 22.5 7.05625 19.6515625 12.8 11.15 17.688671875 4.091015625 18.75 -4.3
L 18.8 -4.3 Z"/>
</g>

<g id="FS_Iris_0_Layer1_0_FILL">
<path fill="url(#Gradient_1)" stroke="none" d="
M 17.7 -13.05
Q 13.45 -21.1 5.25 -22.95 -3 -24.85 -10.3 -19.4 -17.6 -14 -19.75 -4.45 -20.922265625 0.6119140625 -20 7.1 -19.662109375 8.449609375 -19.2 9.75
L -18.6 11.2
Q -18.1958984375 12.1607421875 -17.7 13.1 -13.45 21.15 -5.2 23 3 24.85 10.3 19.45 17.6 14 19.8 4.5 21.95 -5 17.7 -13.05 Z"/>
</g>

<g id="FS_Iris_0_Layer0_0_FILL">
<path fill="#8AD2D5" stroke="none" d="
M -6.5 8
Q -17.6794921875 11.2681640625 -18.65 11.25 -17.6072265625 14.0123046875 -15.4 16.75
L 0.1 6.75 -6.5 8 Z"/>
</g>

<g id="FS_Iris_0_Layer0_1_FILL">
<path fill="#3DBFBB" stroke="none" d="
M -20.25 5.4
Q -19.7828125 8.4513671875 -18.6 11.3
L 0.4 6.6 -20.25 5.4 Z"/>
</g>

<g id="FS_Pupil_0_Layer0_0_FILL">
<path fill="#000000" stroke="none" d="
M 12.45 -9.9
Q 10.5203125 -16.0232421875 5.5 -17.5 0.487109375 -18.9470703125 -4.7 -14.9 -9.854296875 -10.7671875 -12.15 -3.55 -14.402734375 3.7013671875 -12.5 9.8 -10.484375 16.0318359375 -5.45 17.5 -0.4265625 18.9556640625 4.7 14.8 9.91484375 10.7759765625 12.15 3.55 14.43828125 -3.692578125 12.45 -9.9 Z"/>
</g>

<g id="FS_Hilights_0_Layer1_0_FILL">
<path fill="#FFFFFF" stroke="none" d="
M -8.15 11.5
Q -8.11953125 11.614453125 -8.1 11.7 -8.0240234375 11.8134765625 -7.95 11.95 -7.7912109375 12.381640625 -7.55 12.75 -7.4705078125 12.844140625 -7.4 12.9 -7.2078125 13.113671875 -6.95 13.3 -6.50546875 13.6888671875 -6.05 13.8 -5.996875 13.8515625 -5.95 13.85 -5.6171875 13.9560546875 -5.2 13.95 -3.9484375 13.97890625 -3.4 12.75 -3.3849609375 12.698046875 -3.4 12.65 -3.1736328125 12.1291015625 -3.25 11.35 -3.259765625 11.128515625 -3.35 10.85 -3.3462890625 10.7740234375 -3.4 10.7 -3.7330078125 9.7962890625 -4.4 9.15 -4.435546875 9.108203125 -4.5 9.05 -4.72890625 8.870703125 -4.9 8.75 -5.579296875 8.305859375 -6.3 8.4 -7.123828125 8.352734375 -7.65 8.9 -7.813671875 9.0921875 -8 9.35 -8.0568359375 9.446484375 -8.1 9.55 -8.510546875 10.357421875 -8.15 11.5
M 3.85 -8.7
L 3.8 -8.75
Q 1.3921875 -11.8771484375 -1.15 -11.7 -4.233984375 -11.8736328125 -5.6 -8.2
L -5.6 -8.15
Q -6.528125 -5.45625 -5.75 -1.6 -5.0052734375 2.07265625 -3.05 4.6
L -3.05 4.6
Q -0.6041015625 7.82109375 2 7.65 5.12890625 7.837890625 6.4 4 7.375390625 1.40078125 6.6 -2.4
L 6.6 -2.45
Q 5.8041015625 -6.1376953125 3.85 -8.7 Z"/>
</g>

<g id="FS_Blink_3_4rear_0_Layer0_0_FILL">
<path fill="#000000" stroke="none" d="
M 18 -6.5
L 18.55 -6.5
Q 22.021484375 -12.461328125 20.1 -16.45 18.3619140625 -20.073046875 14.45 -22.15 10.3884765625 -24.2828125 4.95 -25.05 -2.0794921875 -26.038671875 -8.1 -21.8 -17.1583984375 -15.13359375 -20.55 -3.7 -20.1611328125 -3.700390625 -20.1 -3.8 -17.4623046875 -9.5630859375 -12.8 -15.05 -8.4828125 -20.133984375 -3.4 -22.35 -3.051171875 -22.483203125 -2.8 -22.6 6.1310546875 -23.0310546875 11.65 -18.55 17.2193359375 -14.0240234375 17 -6.9 17.7916015625 -7.5126953125 17.95 -6.5 18.1349609375 -7.178125 18 -6.5 Z"/>
</g>

<g id="FS_Blink_3_4rear_0_Layer0_1_FILL">
<path fill="#000000" stroke="none" d="
M 18.1 -5.65
Q 24.6751953125 -2.4478515625 26.95 -8.45 23.3328125 -3.867578125 18.6 -7.3
L 18.1 -5.65 Z"/>
</g>

<g id="FS_Blink_3_4rear_0_Layer0_2_FILL">
<path fill="#000000" stroke="none" d="
M 28.75 -2.1
Q 25.521875 0.3880859375 18.55 -4.45
L 17.6 -2.9
Q 24.769140625 3.516796875 28.75 -2.1 Z"/>
</g>

<g id="FS_Blink_3_4rear_0_Layer0_3_FILL">
<path fill="#000000" stroke="none" d="
M 20.7 -3.75
L 20.7 -13.4 17 -6.9
Q 15.1751953125 9.0943359375 27 3.5 20.169140625 4.47890625 20.7 -3.75 Z"/>
</g>

<g id="FS_Blink_3_4rear_0_Layer0_4_FILL">
<path fill="#000000" stroke="none" d="
M 8.45 16.25
Q 9.25 18.8 15.25 15.85 10.55 17.05 10.15 15.15
L 10.1 14.6 8.45 16.2 8.45 16.25 Z"/>
</g>

<g id="FS_Blink_3_4rear_0_Layer0_5_FILL">
<path fill="#000000" stroke="none" d="
M 12.85 19.2
Q 7.58515625 20.624609375 6.65 17.9
L 5.25 19.05
Q 7.2794921875 22.5193359375 12.85 19.2 Z"/>
</g>

<g id="FS_Blink_3_4rear_0_Layer0_6_FILL">
<path fill="#000000" stroke="none" d="
M 3.65 20.1
L 2.1 21.1
Q 2.7142578125 24.8703125 7.75 22.35 4.07265625 23.1767578125 3.65 20.1 Z"/>
</g>

<g id="FS_Hair_05_10_Layer1_0_FILL">
<path fill="#F4B6D1" stroke="none" d="
M 10.1 -5.45
Q 6.04921875 -7.5115234375 1.6 -9.35
L 1.6 -9.35
Q -12.3716796875 -5.7615234375 -25.45 3.1 -46.7904296875 17.698046875 -55.35 44.5 -62.5974609375 67.2609375 -60.55 95.15 -59.7431640625 105.8783203125 -57.55 115.25 -55.1423828125 118.81015625 -52.45 122.65 -45.3400390625 132.770703125 -41.9 139.25 -38.580859375 145.4201171875 -33.25 145.4 -27.4982421875 145.0205078125 -27.6 139.25 -27.59375 137.4748046875 -27.7 135.6 -27.9837890625 128.486328125 -30.1 118.95 -32.7548828125 107.9494140625 -34.05 102.5 -40.328515625 75.794140625 -41.85 61.6 -44.2099609375 39.5294921875 -38.25 27.15 -31.214453125 12.580859375 -10.95 11.6 -4.5279296875 11.312109375 1.6 12.85 2.2580078125 13.03984375 2.9 13.2
L 11.2 -4.9
Q 10.6662109375 -5.1615234375 10.1 -5.45
M -50.4 -15.65
Q -63.248828125 -13.107421875 -72.7 -5.95 -82.9677734375 1.8578125 -86.8 13.55 -94.007421875 35.4236328125 -83.55 66.45 -80.0931640625 76.808984375 -74.15 88.2 -74.0466796875 82.8025390625 -73.75 78.1 -72.2150390625 53.6908203125 -64.95 35.05 -56.4494140625 13.13046875 -38.95 0.8 -29.909375 -5.4923828125 -15.6 -9.95 -10.6462890625 -11.2240234375 -6.45 -12.35 -29.080078125 -19.797265625 -50.4 -15.65
M 0 -10
L 0 -10
Q -2.128125 -10.857421875 -4.25 -11.6
L -4.3 -11.6
Q -8.704296875 -10.4193359375 -14 -9.05 -27.746875 -4.80078125 -36.75 1 -54.517578125 12.5017578125 -63.85 36.4 -70.9015625 54.61875 -72.35 78.85 -72.643359375 84.341796875 -72.7 90.9 -71.4017578125 93.2662109375 -70.05 95.65 -65.83671875 102.8921875 -59.6 112.25 -61.373046875 103.626953125 -62.1 93.85 -64.217578125 65.5705078125 -55.9 41.15 -47.21328125 15.8037109375 -23.9 0.7 -12.4361328125 -6.705078125 0 -10 Z"/>

<path fill="#E781B3" stroke="none" d="
M 1.6 -9.35
Q 6.04921875 -7.5115234375 10.1 -5.45 10.6662109375 -5.1615234375 11.2 -4.9 11.277734375 -4.8490234375 11.3 -4.85 11.8783203125 -5.21875 12.45 -5.55
L 12.15 -6.05
Q 12.0119140625 -6.1369140625 11.85 -6.25
L 11.8 -6.25
Q -4.5751953125 -14.9318359375 -16.2 -17.1 -25.787890625 -18.885546875 -39.9 -19.1 -63.740234375 -19.454296875 -78.85 -5.05 -93.901171875 9.3921875 -91.05 39.65 -88.5126953125 66.2373046875 -74.15 92.4 -74.1501953125 92.4646484375 -74.15 92.5 -73.4169921875 93.81875 -72.65 95.15
L -72.65 95.1
Q -71.3220703125 97.4298828125 -69.9 99.75 -61.9423828125 112.6767578125 -54.1 123.95 -47.7666015625 132.9681640625 -44.55 139.25 -39.7146484375 148.1341796875 -32.25 147.85 -25.2634765625 147.2939453125 -24.6 139.25 -24.633984375 137.6716796875 -24.75 136 -25.1107421875 128.834375 -27.15 119.35 -29.7921875 108.3744140625 -31.05 102.95 -37.4814453125 75.7578125 -38.9 62 -41.2609375 38.45078125 -34.75 26.85 -29.6408203125 17.803125 -18.75 14.5 -8.8837890625 11.562109375 1.5 14.35 1.7123046875 14.4109375 1.9 14.45 2.46640625 14.619140625 3 14.75 3.024609375 14.0216796875 3.05 13.25 2.99375 13.2513671875 2.9 13.2 2.2580078125 13.03984375 1.6 12.85 -4.5279296875 11.312109375 -10.95 11.6 -31.214453125 12.580859375 -38.25 27.15 -44.2099609375 39.5294921875 -41.85 61.6 -40.328515625 75.794140625 -34.05 102.5 -32.7548828125 107.9494140625 -30.1 118.95 -27.9837890625 128.486328125 -27.7 135.6 -27.59375 137.4748046875 -27.6 139.25 -27.4982421875 145.0205078125 -33.25 145.4 -38.580859375 145.4201171875 -41.9 139.25 -45.3400390625 132.770703125 -52.45 122.65 -55.1423828125 118.81015625 -57.55 115.25 -59.7431640625 105.8783203125 -60.55 95.15 -62.5974609375 67.2609375 -55.35 44.5 -46.7904296875 17.698046875 -25.45 3.1 -12.3716796875 -5.7615234375 1.6 -9.35
L 1.6 -9.35
M 0 -10
L 0 -10
Q -12.4361328125 -6.705078125 -23.9 0.7 -47.21328125 15.8037109375 -55.9 41.15 -64.217578125 65.5705078125 -62.1 93.85 -61.373046875 103.626953125 -59.6 112.25 -65.83671875 102.8921875 -70.05 95.65 -71.4017578125 93.2662109375 -72.7 90.9 -72.643359375 84.341796875 -72.35 78.85 -70.9015625 54.61875 -63.85 36.4 -54.517578125 12.5017578125 -36.75 1 -27.746875 -4.80078125 -14 -9.05 -8.704296875 -10.4193359375 -4.3 -11.6
L -4.25 -11.6
Q -2.128125 -10.857421875 0 -10
M -72.7 -5.95
Q -63.248828125 -13.107421875 -50.4 -15.65 -29.080078125 -19.797265625 -6.45 -12.35 -10.6462890625 -11.2240234375 -15.6 -9.95 -29.909375 -5.4923828125 -38.95 0.8 -56.4494140625 13.13046875 -64.95 35.05 -72.2150390625 53.6908203125 -73.75 78.1 -74.0466796875 82.8025390625 -74.15 88.2 -80.0931640625 76.808984375 -83.55 66.45 -94.007421875 35.4236328125 -86.8 13.55 -82.9677734375 1.8578125 -72.7 -5.95 Z"/>
</g>

<g id="FS_Hair_03_10_Layer1_0_FILL">
<path fill="#F4B6D1" stroke="none" d="
M 4.6 25.45
Q 7.731640625 17.8708984375 7.6 5.4
L -6.7 5.4
Q -6.061328125 6.6 -5.55 7.65 0.021484375 19.5130859375 -3.7 26.75 -5.5205078125 30.431640625 -9.75 32.55 -14.096875 34.7498046875 -18.65 33.5 -21.8994140625 32.6458984375 -23.2 30.2
L -24.3 28.95
Q -25.3375 28.7375 -24.45 30.2 -21.5111328125 34.646484375 -16.95 36.6 -10.925 39.2390625 -4.35 35.7 1.7208984375 32.4400390625 4.6 25.45 Z"/>

<path fill="#E781B3" stroke="none" d="
M 7.6 5.4
Q 7.731640625 17.8708984375 4.6 25.45 1.7208984375 32.4400390625 -4.35 35.7 -10.925 39.2390625 -16.95 36.6 -21.5111328125 34.646484375 -24.45 30.2 -25.3375 28.7375 -24.3 28.95
L -23.2 30.2
Q -21.8994140625 32.6458984375 -18.65 33.5 -14.096875 34.7498046875 -9.75 32.55 -5.5205078125 30.431640625 -3.7 26.75 0.021484375 19.5130859375 -5.55 7.65 -6.061328125 6.6 -6.7 5.4
L -9.35 5.4
Q -8.1619140625 7.73984375 -7.4 9.7 -2.0203125 23.7021484375 -9.6 29.45 -17.4517578125 35.4283203125 -20.85 30.2 -23.075 26.7916015625 -25.3 27.7 -27.49921875 28.34375 -27.45 30.2 -26.389453125 32.0494140625 -25 33.65 -21.90078125 37.18984375 -17.55 39.1 -13.196875 41.0689453125 -4.55 38.8 4.1376953125 36.5787109375 8.25 24.25 10.841015625 16.5337890625 10.6 5.4
L 7.6 5.4 Z"/>
</g>

<g id="FS_Hair_01_4_Layer1_0_FILL">
<path fill="#F4B6D1" stroke="none" d="
M -58.35 163.95
Q -58.85234375 162.984765625 -59.05 161.75 -60.161328125 155.0263671875 -59.1 149.05 -59.1498046875 149.0984375 -59.2 149.1 -62.2958984375 150.7796875 -62.3 155 -62.6388671875 157.7560546875 -61.25 160.8 -61.2244140625 160.8853515625 -61.2 160.95
L -61.2 160.95
Q -60.4619140625 162.5798828125 -59.6 163.95
L -58.35 163.95 Z"/>

<path fill="#E781B3" stroke="none" d="
M -58.95 146.75
Q -59.015234375 146.7982421875 -59.1 146.8 -62.0111328125 147.768359375 -63.65 150.5 -65.459375 153.569140625 -64.85 157.55 -64.714453125 158.4044921875 -64.5 159.3 -63.78671875 161.7791015625 -62.6 163.95
L -59.6 163.95
Q -60.4619140625 162.5798828125 -61.2 160.95
L -61.2 160.95
Q -61.2244140625 160.8853515625 -61.25 160.8 -62.6388671875 157.7560546875 -62.3 155 -62.2958984375 150.7796875 -59.2 149.1 -59.1498046875 149.0984375 -59.1 149.05 -60.161328125 155.0263671875 -59.05 161.75 -58.85234375 162.984765625 -58.35 163.95
L -56 163.95
Q -56.37734375 163.3693359375 -56.7 162.65 -57.6662109375 160.5373046875 -57.85 156.9 -57.9583984375 153.621875 -56.75 148.3
L -56.55 147.5
Q -56.431640625 147.1189453125 -56.35 146.7
L -56.35 146.65
Q -57.9787109375 146.4671875 -58.95 146.75 Z"/>
</g>

<g id="FS_Hair_04_10_Layer1_0_FILL">
<path fill="#F4B6D1" stroke="none" d="
M 0.75 0.85
Q 0.7486328125 0.8142578125 0.75 0.75
L 0.75 0.7
Q 0.7580078125 0.463671875 0.7 0.2 -0.1671875 0.0984375 -1.1 -0.1 -2.48046875 6.1556640625 -5.45 11.05 -5.37578125 11.0513671875 -5.35 11.05 -1.8451171875 10.608203125 -0.35 6.65 0.9576171875 4.227734375 0.75 0.85 Z"/>

<path fill="#E781B3" stroke="none" d="
M 3.3 2.05
Q 2.7572265625 0.2072265625 0.7 0.2 0.7580078125 0.463671875 0.75 0.7
L 0.75 0.75
Q 0.7486328125 0.8142578125 0.75 0.85 0.9576171875 4.227734375 -0.35 6.65 -1.8451171875 10.608203125 -5.35 11.05 -5.37578125 11.0513671875 -5.45 11.05 -2.48046875 6.1556640625 -1.1 -0.1 -2.596484375 -0.5763671875 -3.15 0.7 -3.36640625 1.9244140625 -3.85 3.3 -4.8705078125 6.4263671875 -7.9 10.9
L -8.4 11.6
Q -8.6041015625 11.9337890625 -8.85 12.25
L -8.9 12.3
Q -7.3953125 13.0921875 -6.4 13.15 -6.3107421875 13.152734375 -6.25 13.15 -3.1796875 13.309375 -0.7 11.3 2.098046875 9.1298828125 2.95 5.2 3.128515625 4.3626953125 3.2 3.45 3.2880859375 2.7666015625 3.3 2.05 Z"/>
</g>

<g id="FS_Ear_7_Layer1_0_FILL">
<path fill="#FDF6AE" stroke="none" d="
M -21.4 -46.45
Q -25.687109375 -38.495703125 -22.75 -22.5 -19.7087890625 -6.3517578125 -12.85 2.5
L -12.45 3.05 22.5 0.2 22.5 0.05
Q 21.15 -8.5 15.9 -18.4 10.6 -28.4 4.1 -34.4 -7.699609375 -45.29609375 -21.4 -46.45 Z"/>

<path fill="#EBD463" stroke="none" d="
M -23.5 -48.8
Q -29.0669921875 -40.2140625 -25.7 -21.95 -22.6646484375 -5.873046875 -13.05 2.7 -12.791796875 2.9421875 -12.55 3.15
L -12.55 3.15
Q -12.216015625 3.441796875 -11.9 3.7
L -12.45 3.05 -12.85 2.5
Q -19.7087890625 -6.3517578125 -22.75 -22.5 -25.687109375 -38.495703125 -21.4 -46.45 -7.699609375 -45.29609375 4.1 -34.4 10.6 -28.4 15.9 -18.4 21.15 -8.5 22.5 0.05
L 22.5 0.2 22.7 1.55
Q 22.7294921875 0.81953125 22.7 0.05
L 22.7 0
Q 22.6484375 -8.0208984375 18.45 -17.65 13.95 -28.05 6.9 -35 -6.903515625 -48.6380859375 -22.15 -49.5 -22.5201171875 -49.5177734375 -22.9 -49.35 -23.247265625 -49.1400390625 -23.5 -48.8 Z"/>
</g>

<g id="FS_Mane_01_5_Layer1_0_FILL">
<path fill="#E781B3" stroke="none" d="
M 8.05 -13.6
Q 7.46640625 -13.902734375 6.85 -14.25 6.0978515625 -13.8439453125 5.4 -13.4 0.9802734375 -10.3931640625 -1.45 -4.1 -3.07890625 0.13515625 -3.6 4.7 -3.676953125 5.4580078125 -3.75 6.2 -3.5126953125 6.2611328125 -3.3 6.3 -2.770703125 6.4818359375 -2.25 6.65 8.1359375 10.1212890625 15.25 18.2 23.9267578125 29.3486328125 23.55 47.6
L 23.45 49.05
Q 23.473046875 49.1126953125 23.45 49.15 23.448046875 49.427734375 23.4 49.65 22.0037109375 71.891015625 21.8 76.6 21.2328125 91.983984375 22.3 104.65 22.45078125 108.112890625 23.2 110.5 24.712890625 110.9552734375 26.3 111.05 26.4646484375 111.0609375 26.6 111.05 27.075390625 111.0892578125 27.5 111.05 27.6375 111.078515625 27.75 111.05 27.815625 111.071875 27.85 111.05 28.621875 111.0271484375 29.55 110.9 29.7994140625 110.891796875 30.05 110.85 31.0859375 109.2123046875 32 107.7 34.2828125 104.08125 35.95 101.25 37.7908203125 98.108203125 39.4 95.05 40.2841796875 93.3619140625 41.1 91.7 45.0470703125 83.61171875 47.3 76.1
L 48.3 72.45
Q 48.6265625 71.1658203125 48.9 69.85 52.1599609375 54.4193359375 48.85 39.15 45.619921875 24.1650390625 36.35 11.15 25.8154296875 -3.658203125 8.05 -13.6
M 16.45 16.6
Q 15.7541015625 15.885546875 15 15.2 11.1322265625 11.658203125 6.4 8.95 2.239453125 6.5775390625 -2.15 5.15 -1.6517578125 0.8048828125 -0.2 -3.25 2.16875 -9.7216796875 6.55 -12.7 24.6541015625 -2.6125 34.4 11.95 43.4662109375 25.491015625 46.35 40.6 48.3978515625 51.2306640625 47.15 61.75 46.36953125 56.8005859375 45 52.2 39.1375 32.1279296875 23.85 26.15 23.2986328125 25.9298828125 22.7 25.7 20.3279296875 20.6818359375 16.45 16.6
M 23.2 26.85
Q 23.896484375 27.137890625 24.55 27.4 38.52734375 33.5353515625 43.9 52.85 45.7009765625 59.39765625 46.4 66.7
L 46.4 66.7
Q 45.974609375 69.1455078125 45.35 71.55 43.665234375 78.08984375 41.15 84.4 40.9013671875 77.75390625 39.6 71.15 37.2263671875 58.7783203125 31.5 50.05 31.0248046875 49.326171875 30.5 48.6 28.81640625 46.2474609375 26.55 43.75 26.540625 42.8658203125 26.5 41.95 26.112890625 33.6037109375 23.2 26.85
M 26.4 49.25
L 26.5 47.75 26.45 47.75
Q 26.5306640625 46.687890625 26.55 45.6 26.553515625 45.4244140625 26.55 45.2
L 26.6 45.2
Q 26.71953125 45.369140625 26.8 45.5 29.121484375 48.2982421875 30.7 50.85 31.0048828125 51.334375 31.3 51.8 36.9755859375 61.39375 38.75 74.45 39.6884765625 81.396484375 39.7 87.9 36.5666015625 95.084375 32.35 102 30.787109375 104.5806640625 28.7 107.8 28.31015625 108.4728515625 27.85 109.15 27.633203125 109.2013671875 27.4 109.25 27.214453125 109.2416015625 26.35 109.4 26.2861328125 109.4369140625 26.2 109.45 26.0998046875 109.4681640625 25.95 109.5 25.820703125 109.537890625 25.65 109.55
L 25.35 106.2 25.35 106.15 25.25 104.75
Q 24.1580078125 92.071484375 24.75 76.7 24.9326171875 71.924609375 26.4 49.25 Z"/>

<path fill="#F4B6D1" stroke="none" d="
M 26.5 47.75
L 26.4 49.25
Q 24.9326171875 71.924609375 24.75 76.7 24.1580078125 92.071484375 25.25 104.75
L 25.35 106.15 25.35 106.2 25.65 109.55
Q 25.820703125 109.537890625 25.95 109.5 26.0998046875 109.4681640625 26.2 109.45 26.2861328125 109.4369140625 26.35 109.4 27.214453125 109.2416015625 27.4 109.25 27.633203125 109.2013671875 27.85 109.15 28.31015625 108.4728515625 28.7 107.8 30.787109375 104.5806640625 32.35 102 36.5666015625 95.084375 39.7 87.9 39.6884765625 81.396484375 38.75 74.45 36.9755859375 61.39375 31.3 51.8 31.0048828125 51.334375 30.7 50.85 29.121484375 48.2982421875 26.8 45.5 26.71953125 45.369140625 26.6 45.2
L 26.55 45.2
Q 26.553515625 45.4244140625 26.55 45.6 26.5306640625 46.687890625 26.45 47.75
L 26.5 47.75
M 24.55 27.4
Q 23.896484375 27.137890625 23.2 26.85 26.112890625 33.6037109375 26.5 41.95 26.540625 42.8658203125 26.55 43.75 28.81640625 46.2474609375 30.5 48.6 31.0248046875 49.326171875 31.5 50.05 37.2263671875 58.7783203125 39.6 71.15 40.9013671875 77.75390625 41.15 84.4 43.665234375 78.08984375 45.35 71.55 45.974609375 69.1455078125 46.4 66.7
L 46.4 66.7
Q 45.7009765625 59.39765625 43.9 52.85 38.52734375 33.5353515625 24.55 27.4
M 15 15.2
Q 15.7541015625 15.885546875 16.45 16.6 20.3279296875 20.6818359375 22.7 25.7 23.2986328125 25.9298828125 23.85 26.15 39.1375 32.1279296875 45 52.2 46.36953125 56.8005859375 47.15 61.75 48.3978515625 51.2306640625 46.35 40.6 43.4662109375 25.491015625 34.4 11.95 24.6541015625 -2.6125 6.55 -12.7 2.16875 -9.7216796875 -0.2 -3.25 -1.6517578125 0.8048828125 -2.15 5.15 2.239453125 6.5775390625 6.4 8.95 11.1322265625 11.658203125 15 15.2 Z"/>
</g>

<g id="FS_Torso_3_Layer1_0_FILL">
<path fill="#F4B6D1" stroke="none" d="
M 8.8 -33.1
L 8.8 -33.1 8.8 -33.05 8.8 -33.1 Z"/>

<path fill="#E781B3" stroke="none" d="
M 8.8 -33.05
L 8.8 -33.1 8.8 -33.05 8.8 -33.05 Z"/>

<path fill="#EBD564" stroke="none" d="
M -14.8 -25.85
Q -16.6 -25.45 -18.6 -25.3 -15.15 -23.75 -10.15 -24.7 -6.3 -25.4 -3.15 -27.2 3.919140625 -31.028515625 8.8 -33.1
L 8.8 -33.1 8.8 -33.05
Q 16.7318359375 -36.2421875 23.9 -35.5 31.591015625 -34.6537109375 37.4 -29.25 39.4794921875 -27.34453125 40.7 -25.8 42.4990234375 -23.536328125 43.55 -20.95 45.067578125 -17.3515625 45.6 -15.3
L 45.6 -15.25
Q 46.3556640625 -12.553515625 46.5 -9.1 47.21796875 9.484375 35.05 21.25
L 35.05 21.25
Q 32.2056640625 23.9681640625 28 27.15 23.4556640625 30.55078125 21 31.55
L 21 31.55
Q 15.340234375 33.8857421875 10.65 34.8 5.301171875 35.846875 -2.1 35.75 -8.960546875 35.6478515625 -14.95 33.9 -19.1041015625 32.6955078125 -23.6 30.4
L -23.55 30.4
Q -30.365234375 26.8970703125 -34.15 22.05
L -34.2 22
Q -35.631640625 20.048828125 -41.1 13 -39.2892578125 20.3248046875 -36.55 23.85
L -36.55 23.85
Q -32.4154296875 29.2130859375 -24.95 33.05
L -24.95 33.05
Q -20.1958984375 35.5046875 -15.8 36.8 -9.4396484375 38.6521484375 -2.15 38.75 5.598828125 38.8529296875 11.2 37.75
L 11.25 37.75
Q 16.1744140625 36.8080078125 22.15 34.35
L 22.15 34.3
Q 24.844140625 33.24921875 29.8 29.55 34.175390625 26.24609375 37.1 23.45
L 37.15 23.4
Q 50.2810546875 10.796484375 49.5 -9.2 49.3443359375 -13.0466796875 48.5 -16.05
L 48.5 -16.05
Q 47.932421875 -18.2484375 46.3 -22.1
L 46.35 -22.1
Q 45.11328125 -25.0638671875 43.05 -27.65 41.7205078125 -29.35546875 39.45 -31.45 32.9087890625 -37.546484375 24.25 -38.5
L 24.25 -38.5
Q 16.365625 -39.3513671875 7.7 -35.85
L 7.65 -35.85
Q 2.6626953125 -33.76171875 -4.6 -29.85 -9.5 -27.05 -12.95 -26.25 -13.2 -26.25 -14.8 -25.85 Z"/>

<path fill="#FDF6AE" stroke="none" d="
M -45.05 -17.75
Q -47.3 -13.15 -46.15 -3.85 -45 5.45 -41.55 12.1 -41.3185546875 12.54453125 -41.1 12.95
L -41.1 13
Q -35.631640625 20.048828125 -34.2 22
L -34.15 22.05
Q -30.365234375 26.8970703125 -23.55 30.4
L -23.6 30.4
Q -19.1041015625 32.6955078125 -14.95 33.9 -8.960546875 35.6478515625 -2.1 35.75 5.301171875 35.846875 10.65 34.8 15.340234375 33.8857421875 21 31.55
L 21 31.55
Q 23.4556640625 30.55078125 28 27.15 32.2056640625 23.9681640625 35.05 21.25
L 35.05 21.25
Q 47.21796875 9.484375 46.5 -9.1 46.3556640625 -12.553515625 45.6 -15.25
L 45.6 -15.3
Q 45.067578125 -17.3515625 43.55 -20.95 42.4990234375 -23.536328125 40.7 -25.8 39.4794921875 -27.34453125 37.4 -29.25 31.591015625 -34.6537109375 23.9 -35.5 16.7318359375 -36.2421875 8.8 -33.05
L 8.8 -33.05 8.8 -33.1
Q 3.919140625 -31.028515625 -3.15 -27.2 -6.3 -25.4 -10.15 -24.7 -15.15 -23.75 -18.6 -25.3
L -18.65 -25.35
Q -19.6642578125 -25.50390625 -20.85 -25.75 -26.15 -26.9 -30.2 -27.1 -34.3 -27.35 -38.55 -24.85 -42.85 -22.35 -45.05 -17.75 Z"/>
</g>

<g id="FS_FrontLeg_3_4_hoof_4_Layer0_0_FILL">
<path fill="#F26F31" stroke="none" d="
M -13.4 -12.85
L -13.4 -12.85 -13.4 -12.85 -13.4 -12.85 Z"/>

<path fill="#EBD463" stroke="none" d="
M -1.15 -18.45
L -1.2 -18.45
Q -9.624609375 -17.8423828125 -13.4 -12.85
L -13.4 -12.85
Q -16.978515625 -8.244140625 -19.45 -3.2
L -19.45 -3.25
Q -21.8619140625 1.6474609375 -24.65 7.7 -26.3091796875 11.4185546875 -25.4 13.65 -24.5841796875 16.204296875 -21 17 -15.576171875 18.259765625 -2.15 18.05 12.0072265625 17.7810546875 15.25 13.85 18.7416015625 10.1349609375 18.9 1.1 19.00546875 -7.925390625 13.05 -13.5 7.154296875 -19.091015625 -1.15 -18.45
M -0.95 -15.45
L -0.95 -15.45
Q 6.0544921875 -16.0005859375 11 -11.3 15.99453125 -6.574609375 15.9 1.05 15.7583984375 8.665625 13 11.85 10.0958984375 14.81875 -2.2 15.05 -15.123828125 15.2400390625 -20.35 14.05 -22.069140625 13.694921875 -22.6 12.65 -22.9419921875 11.2833984375 -21.9 8.95 -19.13828125 2.9525390625 -16.75 -1.9
L -16.75 -1.9
Q -14.421484375 -6.655859375 -11.05 -11
L -11 -11
Q -7.869921875 -14.9509765625 -0.95 -15.45 Z"/>

<path fill="#FDF6AE" stroke="none" d="
M -0.95 -15.45
L -0.95 -15.45
Q -7.869921875 -14.9509765625 -11 -11
L -11.05 -11
Q -14.421484375 -6.655859375 -16.75 -1.9
L -16.75 -1.9
Q -19.13828125 2.9525390625 -21.9 8.95 -22.9419921875 11.2833984375 -22.6 12.65 -22.069140625 13.694921875 -20.35 14.05 -15.123828125 15.2400390625 -2.2 15.05 10.0958984375 14.81875 13 11.85 15.7583984375 8.665625 15.9 1.05 15.99453125 -6.574609375 11 -11.3 6.0544921875 -16.0005859375 -0.95 -15.45 Z"/>
</g>

<g id="FS_KneePatch_1_Layer0_0_FILL">
<path fill="#EBD463" stroke="none" d="
M 10.75 -8.3
L 10.75 -8.45
Q 10.999609375 -9.6171875 11 -10.9 11.0111328125 -16.75078125 6.7 -21.15 2.4033203125 -25.5216796875 -3.55 -25.85 -9.52421875 -26.1814453125 -13.85 -22.55 -18.2634765625 -18.8869140625 -18.25 -13.75
L -18.25 -13.7
Q -18.333203125 -9.8595703125 -15.45 -3.75
L -15.4 -3.65 -15.4 -3.6
Q -12.6767578125 2.0408203125 -9.8 10.1
L -9.75 10.2
Q -9.74140625 10.22421875 -9.75 10.25
L -9.75 10.25
Q -6.684765625 18.7166015625 -4.1 21.8
L -4.05 21.85
Q -1.2443359375 25.3462890625 3.45 25.6
L 3.5 25.6
Q 8.171875 25.7728515625 11.55 22.6 14.949609375 19.4423828125 15.4 15.75 15.955859375 12.0994140625 13.1 9.2 8.4591796875 3.042578125 10.65 -7.8 10.721875 -8.034375 10.75 -8.3 Z"/>
</g>

<g id="FS_HindLeg_3_4_top_2_Layer0_0_FILL">
<path fill="#F4B6D1" stroke="none" d="
M 16.5 17.15
L 16.45 17.15 16.5 17.2
Q 16.4787109375 17.151953125 16.5 17.15 Z"/>

<path fill="#E781B3" stroke="none" d="
M 16.45 17.15
L 16.45 17.2 16.5 17.2 16.45 17.15 Z"/>

<path fill="#EBD463" stroke="none" d="
M 11.8 0.05
Q 13.2087890625 3.594140625 14.4 7.85 15.15546875 10.630859375 15.8 13.7 16.1900390625 15.3919921875 16.5 17.15 16.4787109375 17.151953125 16.5 17.2
L 16.45 17.2
Q 18.162890625 30.0640625 14.3 46.3 13.5052734375 49.713671875 11.7 55.5
L 11.7 55.45
Q 11.6388671875 55.6490234375 11.55 55.8 11.1130859375 57.3369140625 10.6 58.8 9.9380859375 60.802734375 9.5 62.75 9.075 64.9130859375 8.65 67.05 8.3126953125 68.936328125 7.85 70.75 5.5740234375 77.37890625 0.3 77.15 -1.5314453125 77.11015625 -3.25 76.4 -4.5853515625 75.5765625 -5.8 74.55 -7.271875 73.4287109375 -8.4 72 -9.7490234375 70.2783203125 -10.8 68.45 -12.049609375 66.2267578125 -13.15 63.95 -13.2830078125 63.592578125 -13.45 63.2 -14.7404296875 60.454296875 -15.95 57.8 -21.2796875 46.1369140625 -23.5 36.85 -25.8796875 26.25546875 -26.1 20 -28.945703125 26.3833984375 -26.45 37.55
L -26.45 37.55
Q -24.1619140625 47.09453125 -18.7 59.05 -17.7193359375 61.1439453125 -16.7 63.3 -16.528515625 63.6611328125 -16.35 64 -15.3994140625 66.012890625 -14.4 67.95 -13.7240234375 69.2767578125 -12.9 70.5 -11.497265625 72.7162109375 -9.75 74.65 -8.3203125 76.3541015625 -6.5 77.6 -4.9224609375 78.6896484375 -3.15 79.5 -1.578125 79.96328125 0.05 79.9 8.0853515625 79.0001953125 10 71.7 10.137890625 71.2021484375 10.25 70.7
L 14.4 55.75
Q 16.717578125 49.198828125 17.25 47 21.2779296875 30.310546875 19.45 16.75
L 19.45 16.7
Q 19.257421875 15.11875 18.95 13.65 18.2787109375 10.4556640625 17.15 7.8 15.176953125 3.1 11.8 0.05
M 11.45 -0.25
L 11.45 -0.25 10.95 -1.55 11.4 -0.3
Q 11.4265625 -0.2515625 11.45 -0.25 Z"/>

<path fill="#FDF6AE" stroke="none" d="
M 14.4 7.85
Q 13.2087890625 3.594140625 11.8 0.05
L 11.75 0.05
Q -12.2166015625 -0.070703125 -26.1 20 -25.8796875 26.25546875 -23.5 36.85 -21.2796875 46.1369140625 -15.95 57.8 -14.7404296875 60.454296875 -13.45 63.2 -13.2830078125 63.592578125 -13.15 63.95 -12.049609375 66.2267578125 -10.8 68.45 -9.7490234375 70.2783203125 -8.4 72 -7.271875 73.4287109375 -5.8 74.55 -4.5853515625 75.5765625 -3.25 76.4 -1.5314453125 77.11015625 0.3 77.15 5.5740234375 77.37890625 7.85 70.75 8.3126953125 68.936328125 8.65 67.05 9.075 64.9130859375 9.5 62.75 9.9380859375 60.802734375 10.6 58.8 11.1130859375 57.3369140625 11.55 55.8 11.6388671875 55.6490234375 11.7 55.45
L 11.7 55.5
Q 13.5052734375 49.713671875 14.3 46.3 18.162890625 30.0640625 16.45 17.2
L 16.45 17.15 16.5 17.15
Q 16.1900390625 15.3919921875 15.8 13.7 15.15546875 10.630859375 14.4 7.85 Z"/>
</g>

<g id="FS_HindLeg_3_4rear_lower_0_Layer1_0_FILL">
<path fill="#F26F31" stroke="none" d="
M 8.6 8
Q 8.6333984375 7.9955078125 8.65 7.95
L 8.65 7.95 8.6 8 Z"/>

<path fill="#EBD463" stroke="none" d="
M 12.35 -6.4
Q 12.1732421875 -6.510546875 11.95 -6.6 1.59140625 -10.1181640625 -6.5 -4.85 -6.526171875 -4.8123046875 -6.6 -4.8 -14.9587890625 1.5962890625 -10.3 12.75 -10.2638671875 12.8216796875 -10.25 12.85 -7.8515625 17.784765625 -2.5 16.05 1.90625 14.6984375 8.65 7.95
L 8.65 7.95
Q 13.7076171875 3.494921875 14.7 0.2 16.0470703125 -3.87109375 12.35 -6.4
M 10.75 -3.8
Q 12.4302734375 -2.605078125 11.85 -0.75 10.8990234375 1.983203125 6.6 5.75 6.5771484375 5.8119140625 6.55 5.85 0.493359375 11.901953125 -3.4 13.2 -6.248828125 14.115234375 -7.55 11.5
L -7.55 11.6
Q -7.5458984375 11.575 -7.6 11.5 -11.2048828125 2.68671875 -4.75 -2.4
L -4.85 -2.35
Q 2.0138671875 -6.721484375 10.75 -3.8 Z"/>

<path fill="#FCBA63" stroke="none" d="
M -7.55 11.5
L -7.6 11.5
Q -7.5458984375 11.575 -7.55 11.6
L -7.55 11.5 Z"/>

<path fill="#FDF6AE" stroke="none" d="
M 11.85 -0.75
Q 12.4302734375 -2.605078125 10.75 -3.8 2.0138671875 -6.721484375 -4.85 -2.35
L -4.75 -2.4
Q -11.2048828125 2.68671875 -7.6 11.5
L -7.55 11.5
Q -6.248828125 14.115234375 -3.4 13.2 0.493359375 11.901953125 6.55 5.85 6.5771484375 5.8119140625 6.6 5.75 10.8990234375 1.983203125 11.85 -0.75 Z"/>
</g>

<g id="FS_HindLeg_3_4rear_lower_0_Layer0_0_FILL">
<path fill="#EBD463" stroke="none" d="
M -8.05 10.15
L -8.2 9.7 -8.45 8.7 -11.35 9.5 -10.95 10.95
Q -3.5580078125 37.8861328125 -11.7 64.6 -11.7875 65.0125 -11.9 65.4
L -8.85 65.4
Q -0.5115234375 37.662109375 -8.05 10.15
M 11.65 -2.95
Q 11.686328125 -2.8736328125 11.7 -2.8 26.2828125 27.8509765625 24.65 64.3
L 27.6 64.1
Q 29.3125 27.137109375 14.35 -4.25
L 14.2 -4.5 11 -4.3 11.65 -2.95 Z"/>

<path fill="#FDF6AE" stroke="none" d="
M 24.65 64.3
Q 26.2828125 27.8509765625 11.7 -2.8
L -8.2 9.7 -8.05 10.15
Q -0.5115234375 37.662109375 -8.85 65.4
L 24.65 64.3 Z"/>
</g>

<g id="FS_KneePatch_0_Layer0_0_FILL">
<path fill="#FDF6AE" stroke="none" d="
M 6.95 -3.8
Q 7.6271484375 -8.4921875 7.65 -8.75
L 7.65 -8.75
Q 7.6830078125 -8.7876953125 7.7 -8.85 7.850390625 -9.7474609375 7.85 -10.75 7.8390625 -15.39921875 4.4 -18.9 0.946484375 -22.4283203125 -3.85 -22.7 -8.6259765625 -22.9685546875 -12.1 -20.1 -15.376171875 -17.3716796875 -15.4 -13.55
L -15.4 -13.55
Q -15.40625 -10.530078125 -12.6 -4.2
L -12.4 -3.7
Q -12.324609375 -3.590625 -12.3 -3.5 -12.2001953125 -3.3171875 -12.15 -3.15 -12.0654296875 -3.0400390625 -12 -2.95
L -12 -2.9 -11.95 -2.8
Q -9.565234375 2.4005859375 -7.1 9.35 -7.0333984375 9.4712890625 -7.05 9.6 -4.2322265625 17.2533203125 -1.9 20.1
L -1.9 20.1
Q 0.112890625 22.6044921875 3.45 22.75 6.435546875 22.852734375 8.7 21.1
L 8.7 21.15
Q 19.876171875 11.2931640625 12.45 5.8 11.055859375 5.381640625 9.7 4.45 9.7404296875 4.5390625 9.75 4.6 8.476171875 3.9505859375 7.75 2.7 6.5830078125 1.1353515625 6.75 -1.95 6.7810546875 -2.8294921875 6.9 -3.8
L 6.95 -3.8 Z"/>
</g>

<g id="FS_HindLeg_3_4rearnomark_0_Layer0_0_FILL">
<path fill="#FDF6AE" stroke="none" d="
M 8.4 62.25
L 16.75 62.25 20.4 60.4
Q 19.5904296875 57.5220703125 10.9 54.35
L 8.4 62.25 Z"/>
</g>

<g id="FS_Torso_13_Layer1_0_FILL">
<path fill="#FDF6AE" stroke="none" d="
M 6.75 35.4
Q 21.37890625 32.6923828125 29.45 26
L 24.6 4.35 1.25 11.15 6.75 35.4 Z"/>

<path fill="#EBD564" stroke="none" d="
M 29.45 26
Q 21.37890625 32.6923828125 6.75 35.4 10.15 36 13.35 36 17 36.05 20.5 34.6 26.5 32.2 29.45 26 Z"/>
</g>

<g id="FS_CutieMark_2_Layer0_0_FILL">
<path fill="#F4B6D1" stroke="none" d="
M -4.75 10.5
Q -7.9388671875 7.471484375 -9.1 5.75 -10.8630859375 4.72578125 -12.65 4.5 -16.034375 3.494921875 -16.9 5.45 -17.2947265625 7.34453125 -14.45 8.85 -11.4484375 10.016015625 -10.1 9.25 -10.9953125 11.0345703125 -10.05 13.6 -8.7935546875 16.339453125 -6.4 16.85 -4.03828125 17.021484375 -4.1 14.65 -4.0822265625 12.9478515625 -4.75 10.5
M -6.55 -1.6
Q -7.716796875 -2.4013671875 -8.4 -0.15 -8.8302734375 1.428515625 -8.2 5 -7.5572265625 5.5875 -6.6 7.15 -5.1359375 8.7958984375 -4.4 10.4 -3.36875 10.3982421875 -1.2 11.05 1.7994140625 10.994921875 1.4 9.05 1.4787109375 6.4767578125 -1.35 5.6 -4.06328125 4.328125 -5.25 5.6 -4.7029296875 3.4638671875 -5.3 1.6 -5.5947265625 -0.41171875 -6.55 -1.6
M 11.9 8.45
Q 11.1830078125 6.4232421875 10.95 5.05 9.8658203125 1.878125 8.35 2.2 6.2166015625 1.878125 6.45 5.05 6.555859375 7.501953125 8.35 8.7 5.9689453125 8.3048828125 4.75 9.75 3.1806640625 11.1357421875 4.3 13.15 5.0896484375 14.9509765625 7.55 14.65 8.5314453125 14.1318359375 10.7 13.25 10.8125 9.6755859375 11.9 8.45
M 13.05 8.9
Q 12.70859375 9.51328125 12.3 10.95 11.5140625 12.6140625 11 13.6 11.4232421875 14.267578125 12.5 16.25 13.8470703125 18.3216796875 15.95 17.85 17.7060546875 16.93671875 16.7 14.6 15.715625 11.81171875 14.3 11.5 15.6765625 11.1701171875 17.3 9.95 18.7298828125 8.2943359375 19.05 7.25 18.9439453125 5.3611328125 17.05 6.5 14.9986328125 6.80078125 13.05 8.9
M 9.85 -9.75
Q 8.918359375 -8.804296875 7.75 -7.35 5.667578125 -5.2404296875 4.45 -4.3 4.27421875 -3.33984375 4.65 -1.2 5.4904296875 0.91171875 7.9 0.6 10.2787109375 0.4982421875 10.75 -2.85 10.75859375 -5.7427734375 9.75 -6.6 11.52890625 -6.695703125 14.3 -8.3 16.6421875 -9.6171875 17.9 -11.45 18.8861328125 -12.9513671875 16.1 -12.4 13.5044921875 -11.5201171875 9.85 -9.75
M 8.55 -17.9
Q 5.940625 -17.5779296875 4.85 -14.55 3.4306640625 -11.256640625 4.7 -10.15 2.7861328125 -10.409375 0 -9.1 -2.937890625 -7.1435546875 -3 -5 -2.8068359375 -2.5703125 0.05 -3.2 1.132421875 -3.2556640625 4.2 -4.65 6.851171875 -8.5861328125 8.8 -10.3 9.4345703125 -12.3935546875 9.9 -14.3 10.339453125 -17.7833984375 8.55 -17.9 Z"/>

<path fill="#6CC9C6" stroke="none" d="
M -10.8 -0.45
Q -10.4990234375 -0.8783203125 -10.35 -0.95 -9.8794921875 -0.9158203125 -9.9 -0.55 -9.73828125 -0.0052734375 -10.05 -0.1 -9.8353515625 -0.015625 -9.8 0.05 -9.404296875 0.1115234375 -9.5 -0.7 -9.4890625 -0.9875 -9.8 -1.3 -9.9904296875 -1.240625 -10.4 -1.4 -10.639453125 -1.0341796875 -11.2 -0.65 -11.283984375 -0.0126953125 -11.35 0.6 -10.7419921875 2.3486328125 -9.65 4.2 -9.65 4.249609375 -9.65 4.3 -10.0986328125 3.2322265625 -11.25 2.8 -12.83828125 1.3232421875 -13.9 1.5 -13.961328125 1.415234375 -14.15 1.5 -14.56015625 1.4232421875 -14.8 2 -14.92265625 2.3248046875 -14.9 2.6 -14.4515625 2.7515625 -14.35 3.15 -13.73046875 3.030078125 -13.5 3.2
L -13.35 3.1
Q -13.4115234375 2.6830078125 -13.6 2.75
L -13.65 2.8
Q -13.5447265625 2.5080078125 -14.1 2.7 -14.3474609375 2.56484375 -14.45 2.55 -14.4669921875 2.1513671875 -14 2 -13.958984375 1.5970703125 -13.9 1.95 -12.7337890625 1.723046875 -11.55 3.1 -10.6125 3.808203125 -9.7 5 -9.6375 4.72890625 -9.6 4.9 -9.2529296875 5.1802734375 -9.1 5.75 -7.9388671875 7.471484375 -4.75 10.5 -4.3810546875 10.8736328125 -3.85 11.35 -4.036328125 10.6205078125 -4.4 10.4 -5.1359375 8.7958984375 -6.6 7.15 -7.5572265625 5.5875 -8.2 5 -8.5396484375 4.066015625 -9.2 4.15
L -9.15 4.1
Q -10.517578125 2.019140625 -10.85 0.55 -10.7615234375 -0.1068359375 -10.8 -0.45
M 16.8 4
Q 16.4373046875 3.6701171875 16.05 3.8 14.9498046875 3.75078125 14.8 4.5 13.2873046875 5.5759765625 12.75 7.45
L 12.7 7.4
Q 12.666796875 6.8515625 13.1 5.6 13.300390625 3.2419921875 12.95 2.75 12.8748046875 2.4330078125 12.8 2.6 12.597265625 2.1947265625 12.2 2.4 11.534375 2.1443359375 11.65 2.5 11.2203125 2.5705078125 11.3 3.1 10.9619140625 3.3302734375 11.6 3.85 11.649609375 3.7390625 11.7 3.9 11.6515625 3.6140625 11.9 3.6 11.476171875 2.809765625 11.9 2.8 11.8095703125 2.4607421875 12.5 2.8 12.575 2.73046875 12.6 3 12.925390625 3.3732421875 12.65 5.4 12.21640625 7.0583984375 12.2 7.7 12.1736328125 7.737109375 12.25 7.75 11.7357421875 7.9427734375 11.9 8.45 10.8125 9.6755859375 10.7 13.25 10.4349609375 13.39453125 10.55 13.95 10.558984375 13.746484375 11 13.6 11.5140625 12.6140625 12.3 10.95 12.70859375 9.51328125 13.05 8.9 13.0111328125 7.8623046875 13.1 7.75
L 13.1 7.75
Q 13.0384765625 7.3068359375 13.8 6.5 14.2763671875 5.2220703125 15.05 4.75 15.5998046875 4.208203125 16.15 4.15 16.4470703125 4.0802734375 16.55 4.3 16.825390625 4.259765625 16.5 5 16.01640625 4.9177734375 15.95 5.15 15.7205078125 5.0447265625 15.95 5.55 16.0943359375 5.3615234375 16.85 5.3 17.269921875 4.344140625 16.8 4
M 12.8 -16.8
Q 12.78984375 -16.5642578125 12.9 -16.65 12.7921875 -15.9634765625 11.6 -13.8 10.2130859375 -11.79296875 9.65 -11.15 9.322265625 -10.79453125 9.75 -11.1 9.1390625 -10.454296875 8.8 -10.3 6.851171875 -8.5861328125 4.2 -4.65 3.852734375 -3.722265625 3.65 -3.6 4.11328125 -3.852734375 4.45 -4.3 5.667578125 -5.2404296875 7.75 -7.35 8.918359375 -8.804296875 9.85 -9.75 10.3720703125 -10.3361328125 10.7 -11.05 10.892578125 -11.6431640625 12.35 -12.6 13.4650390625 -13.5349609375 14.7 -14.35 15.4873046875 -14.6365234375 16.25 -15.1 16.3052734375 -14.814453125 16.7 -14.85 16.7 -14.5267578125 16.7 -14.5 16.4275390625 -14.372265625 16.3 -14.1 15.6220703125 -13.770703125 15.7 -14 15.087109375 -13.5080078125 15.4 -13.55 15.8513671875 -13.416796875 16.55 -13.75 16.6205078125 -13.722265625 17.15 -14.5 17.1998046875 -14.6171875 17.2 -15.2 16.943359375 -15.544921875 16.45 -15.55 15.6435546875 -15.4044921875 14.6 -14.75 12.367578125 -13.36328125 10.45 -11.45 10.412109375 -11.425 10.35 -11.45 11.2595703125 -12.537890625 11.95 -13.65 13.293359375 -15.7078125 13.4 -16.9 13.08203125 -16.6822265625 13.35 -17.15 12.866796875 -17.2875 12.8 -17.45 12.2802734375 -17.4560546875 12.05 -17.25 11.5677734375 -16.8279296875 11.4 -16.6 11.0107421875 -16.015625 11.3 -15.65 11.0107421875 -15.5880859375 11.4 -15.55 11.3916015625 -15.369921875 11.85 -15.85 11.8119140625 -15.862890625 11.75 -15.9 11.473046875 -16.1115234375 11.85 -16.45 11.8166015625 -16.5865234375 12.25 -16.85 12.2828125 -17.0162109375 12.8 -16.8 Z"/>
</g>

<g id="FS_HindLeg_3_4rear_0_Layer0_0_FILL">
<path fill="#FDF6AE" stroke="none" d="
M 8.4 62.25
L 16.75 62.25 20.4 60.4
Q 19.5904296875 57.5220703125 10.9 54.35
L 8.4 62.25 Z"/>
</g>

<g id="FS_WingBack_3_4_8_Layer6_0_FILL">
<path fill="#FDF6AE" stroke="none" d="
M -3.25 -10.95
L -3.25 -10.9
Q -6.771875 -9.8326171875 -7.95 -7.7 -9.437109375 -4.7736328125 -9.05 0.65 -11.0166015625 2.1763671875 -11.65 3.35
L -11.6 3.3
Q -12.3109375 4.779296875 -12.4 7 -12.5015625 10.356640625 -9.3 15.45 -11.1501953125 20.690625 -8.2 24.1 -4.8490234375 24.80546875 -1.4 24.3 7.390234375 23.14375 10.05 15.55 14.9142578125 1.3421875 -0.4 -15
L -1.4 -16.05 -3.2 -10.9 -3 -12.45 -3.25 -10.95
M -12.65 16.3
Q -13.2515625 15.454296875 -13.75 14.55
L -13.75 14.5
Q -14.09296875 13.80234375 -14.4 13.05
L -14.45 13.15 -30.5 2.95
Q -26.376953125 11.7984375 -19.9 17.6 -16.3068359375 20.8330078125 -12.6 22.55 -13.715234375 19.6021484375 -12.65 16.3
M -34.5 -13.45
Q -34.996875 -8.25390625 -32.05 -0.65 -31.8767578125 -0.2734375 -31.75 0.1 -31.509765625 0.718359375 -31.25 1.3
L -14.85 11.7
Q -15.46015625 9.433203125 -15.4 6.9 -15.2939453125 4.047265625 -14.4 2.15
L -34.5 -13.45
M -27.6 -19.2
L -27.65 -19.2
Q -32.028515625 -19.5138671875 -33.3 -17.7
L -33.3 -17.65
Q -34.0263671875 -16.362890625 -34.35 -14.8
L -34.35 -14.75
Q -34.3427734375 -14.6591796875 -34.35 -14.6
L -13.9 1.25
Q -13.2216796875 0.2173828125 -12.35 -0.55 -12.330859375 -5.6185546875 -10.75 -8.8
L -25.9 -19
Q -26.7892578125 -19.1376953125 -27.6 -19.2
M -21.7 -18.15
Q -22.5771484375 -18.3775390625 -23.45 -18.55
L -10.25 -9.7
Q -9.2578125 -11.2814453125 -8 -12.05 -13.21171875 -15.9927734375 -21.7 -18.15 Z"/>

<path fill="#EBD463" stroke="none" d="
M -27.4 -22.2
L -27.4 -22.2
Q -34.184375 -22.6814453125 -35.9 -19.15
L -35.9 -19.15
Q -36.8681640625 -17.446875 -37.3 -15.35
L -37.3 -15.35
Q -38.59375 -9.1455078125 -34.8 0.6
L -34.75 0.7
Q -34.660546875 0.89765625 -34.6 1.1 -34.577734375 1.188671875 -34.55 1.25 -29.9048828125 12.7171875 -21.9 19.85 -17.0701171875 24.1734375 -12.05 26.05
L -9.3 26.9
Q -5.23046875 27.8634765625 -1 27.25 9.7099609375 25.85625 12.9 16.55 18.5857421875 0.8576171875 -1.4 -16.05
L -0.4 -15
Q 14.9142578125 1.3421875 10.05 15.55 7.390234375 23.14375 -1.4 24.3 -4.8490234375 24.80546875 -8.2 24.1 -11.1501953125 20.690625 -9.3 15.45 -12.5015625 10.356640625 -12.4 7 -12.3109375 4.779296875 -11.6 3.3
L -11.65 3.35
Q -11.0166015625 2.1763671875 -9.05 0.65 -9.437109375 -4.7736328125 -7.95 -7.7 -6.771875 -9.8326171875 -3.25 -10.9
L -3.25 -10.95
Q -11.1728515625 -18.5560546875 -20.95 -21.05 -24.6181640625 -21.991015625 -27.4 -22.2
M -23.45 -18.55
Q -22.5771484375 -18.3775390625 -21.7 -18.15 -13.21171875 -15.9927734375 -8 -12.05 -9.2578125 -11.2814453125 -10.25 -9.7
L -23.45 -18.55
M -27.65 -19.2
L -27.6 -19.2
Q -26.7892578125 -19.1376953125 -25.9 -19
L -10.75 -8.8
Q -12.330859375 -5.6185546875 -12.35 -0.55 -13.2216796875 0.2173828125 -13.9 1.25
L -34.35 -14.6
Q -34.3427734375 -14.6591796875 -34.35 -14.75
L -34.35 -14.8
Q -34.0263671875 -16.362890625 -33.3 -17.65
L -33.3 -17.7
Q -32.028515625 -19.5138671875 -27.65 -19.2
M -32.05 -0.65
Q -34.996875 -8.25390625 -34.5 -13.45
L -14.4 2.15
Q -15.2939453125 4.047265625 -15.4 6.9 -15.46015625 9.433203125 -14.85 11.7
L -31.25 1.3
Q -31.509765625 0.718359375 -31.75 0.1 -31.8767578125 -0.2734375 -32.05 -0.65
M -13.75 14.55
Q -13.2515625 15.454296875 -12.65 16.3 -13.715234375 19.6021484375 -12.6 22.55 -16.3068359375 20.8330078125 -19.9 17.6 -26.376953125 11.7984375 -30.5 2.95
L -14.45 13.15 -14.4 13.05
Q -14.09296875 13.80234375 -13.75 14.5
L -13.75 14.55 Z"/>
</g>

<g id="FS_Tail_03_11_Layer0_0_FILL">
<path fill="#E781B3" stroke="none" d="
M 2.1 19.8
Q 9.3861328125 16.2412109375 11.7 9.85 14.0607421875 3.48828125 10.35 -4.25 3.38203125 -14.576953125 -6.55 -9.7 -16.4779296875 -4.81953125 -10.9 5.05
L -10.7 5.4
Q -10.0009765625 6.69453125 -9.65 7.95 -9.33671875 9.0818359375 -9.3 10.2 -9.2255859375 14.7806640625 -16.15 16.4 -19.5708984375 17.2123046875 -21.3 15.5 -23.1083984375 13.7875 -21.75 10.55 -20.2298828125 7.01484375 -18.35 8.8 -17.3248046875 9.8255859375 -14 14.1 -13.96015625 14.0796875 -13.95 14.05
L -13.9 14.05
Q -12.0240234375 11.6974609375 -12.25 9.35 -12.4779296875 7.004296875 -14.9 4.4 -16.519140625 2.617578125 -18.85 1.65 -21.5876953125 0.4904296875 -25.3 0.5 -32.108203125 0.5099609375 -36.9 5.5 -41.687890625 10.5541015625 -37.25 16.1 -30.6154296875 24.3224609375 -11.7 23.2 -3.8455078125 22.7431640625 2.1 19.8
M 8.4 -1.9
L 8.35 -1.9
Q 10.10546875 2.82421875 9.35 7.6 8.25703125 14.678515625 0 18.45 -6.776171875 21.5919921875 -15.5 21.35 -24.27109375 21.121875 -30.85 17.6 -35.341015625 15.201953125 -36.05 11.6 -36.565234375 8.7837890625 -34.4 6.25 -32.4115234375 3.9759765625 -29.55 3.1 -27.1068359375 2.365625 -23.65 2.85 -20.23203125 3.413671875 -17.8 4.85 -16.4853515625 5.6470703125 -15.8 6.5 -14.0919921875 8.558203125 -14 11
L -14 11
Q -13.946875 11.2498046875 -14.1 11.85 -17.3494140625 5.6451171875 -20.05 6.4 -22.1517578125 6.9826171875 -22.85 7.7 -24.53359375 9.44609375 -24.55 12.25 -24.53359375 15.052734375 -22.85 16.35 -21.0451171875 17.7009765625 -18.65 17.95 -14.5076171875 18.342578125 -11.05 16.35 -7.603125 14.36171875 -7.4 9.2 -7.2453125 6.4572265625 -9.25 3.4 -13.1318359375 -3.251953125 -5.55 -7.7 4.1072265625 -11.3755859375 8.4 -1.9 Z"/>

<path fill="#F4B6D1" stroke="none" d="
M 8.35 -1.9
L 8.4 -1.9
Q 4.1072265625 -11.3755859375 -5.55 -7.7 -13.1318359375 -3.251953125 -9.25 3.4 -7.2453125 6.4572265625 -7.4 9.2 -7.603125 14.36171875 -11.05 16.35 -14.5076171875 18.342578125 -18.65 17.95 -21.0451171875 17.7009765625 -22.85 16.35 -24.53359375 15.052734375 -24.55 12.25 -24.53359375 9.44609375 -22.85 7.7 -22.1517578125 6.9826171875 -20.05 6.4 -17.3494140625 5.6451171875 -14.1 11.85 -13.946875 11.2498046875 -14 11
L -14 11
Q -14.0919921875 8.558203125 -15.8 6.5 -16.4853515625 5.6470703125 -17.8 4.85 -20.23203125 3.413671875 -23.65 2.85 -27.1068359375 2.365625 -29.55 3.1 -32.4115234375 3.9759765625 -34.4 6.25 -36.565234375 8.7837890625 -36.05 11.6 -35.341015625 15.201953125 -30.85 17.6 -24.27109375 21.121875 -15.5 21.35 -6.776171875 21.5919921875 0 18.45 8.25703125 14.678515625 9.35 7.6 10.10546875 2.82421875 8.35 -1.9 Z"/>
</g>

<g id="FS_Tail_02_11_Layer0_0_FILL">
<path fill="#F4B6D1" stroke="none" d="
M 2.65 -16.6
Q -6.1466796875 -17.758203125 -13.75 -16.2 -26.626953125 -13.5478515625 -32.85 0 -37.044140625 9.17734375 -38.2 22.15 -39.0125 31.4001953125 -38.35 45.1 -37.0505859375 72.9693359375 -26.15 84.7 -23.79609375 87.19140625 -20.85 88.75
L -13.1 72.3
Q -13.948828125 72.237890625 -14.8 72.05 -18.2544921875 71.377734375 -21.2 68.8 -26.5111328125 64.245703125 -28.9 54.95 -33.825390625 36.174609375 -26.7 21.45 -20.78828125 9.3677734375 -9.35 3.4 -3.238671875 0.253515625 2.65 -0.1 11.526171875 -0.480859375 20.65 5.6 19.4818359375 -14.4646484375 2.65 -16.6
M 20.3 7.5
Q 13.625 1.5052734375 2.65 1.35 -3.08515625 1.589453125 -8.95 4.5 -16.701953125 8.4443359375 -22.35 15.8 -30.0486328125 25.983203125 -29.85 41 -29.666796875 54.0544921875 -24.6 62.7 -21.4265625 68.070703125 -17.05 69.9 -16.145703125 70.2908203125 -15.25 70.5 -16.8177734375 69.1091796875 -18.5 67.15 -24.7375 59.8640625 -23 45.55 -21.196875 30.4716796875 -12.15 21.7 -7.705078125 17.4302734375 -1.9 18.25 0.3419921875 18.616796875 2.65 19.7 18.1671875 28.5611328125 20.3 7.5 Z"/>

<path fill="#E781B3" stroke="none" d="
M -14.15 -18.85
Q -26.8884765625 -15.6697265625 -32.85 -5.85 -38.8197265625 4.0185546875 -40.3 14.65 -41.7279296875 25.333203125 -41.1 44.6 -40.475 63.8642578125 -33.75 77.9 -29.6275390625 86.4373046875 -22.8 90.95 -22.4375 91.199609375 -21.45 91.6 -18.185546875 91.6123046875 -20.85 88.75 -23.79609375 87.19140625 -26.15 84.7 -37.0505859375 72.9693359375 -38.35 45.1 -39.0125 31.4001953125 -38.2 22.15 -37.044140625 9.17734375 -32.85 0 -26.626953125 -13.5478515625 -13.75 -16.2 -6.1466796875 -17.758203125 2.65 -16.6 19.4818359375 -14.4646484375 20.65 5.6 11.526171875 -0.480859375 2.65 -0.1 -3.238671875 0.253515625 -9.35 3.4 -20.78828125 9.3677734375 -26.7 21.45 -33.825390625 36.174609375 -28.9 54.95 -26.5111328125 64.245703125 -21.2 68.8 -18.2544921875 71.377734375 -14.8 72.05 -13.948828125 72.237890625 -13.1 72.3 -10.8001953125 71.3498046875 -13.1 69.4 -13.437109375 69.1328125 -13.8 68.85 -21.6982421875 62.123046875 -21.2 50.05 -20.319921875 30.7896484375 -10.35 23.45 -4.5955078125 19.24765625 2.25 22.75 2.4478515625 22.8787109375 2.65 23 21.9705078125 31.7751953125 22.3 5.15 22.593359375 -16.8380859375 2.65 -19.65 -6.5220703125 -20.71953125 -14.15 -18.85
M 2.65 1.35
Q 13.625 1.5052734375 20.3 7.5 18.1671875 28.5611328125 2.65 19.7 0.3419921875 18.616796875 -1.9 18.25 -7.705078125 17.4302734375 -12.15 21.7 -21.196875 30.4716796875 -23 45.55 -24.7375 59.8640625 -18.5 67.15 -16.8177734375 69.1091796875 -15.25 70.5 -16.145703125 70.2908203125 -17.05 69.9 -21.4265625 68.070703125 -24.6 62.7 -29.666796875 54.0544921875 -29.85 41 -30.0486328125 25.983203125 -22.35 15.8 -16.701953125 8.4443359375 -8.95 4.5 -3.08515625 1.589453125 2.65 1.35 Z"/>
</g>

<g id="FS_Tail_01_11_Layer2_0_FILL">
<path fill="#F4B6D1" stroke="none" d="
M 4.35 5.6
Q 4.396875 5.6078125 4.45 5.6
L 4.5 5.6
Q 4.421875 5.595703125 4.35 5.6
M 112.1 -5.95
Q 112.11171875 -5.924609375 112.1 -5.9 122.9234375 9.432421875 124.25 30.3 124.983984375 42.59609375 118.45 54.15 113.29375 63.2048828125 102.6 73.35 96.29375 79.3158203125 83.45 91.05 76.7916015625 97.7044921875 74.3 100.95 69.7953125 106.936328125 68.65 112.95 67.85234375 117.1212890625 68.5 121.3 72.6408203125 122.153125 76.8 122.85 80.948046875 123.6583984375 84.95 124.6 85.0056640625 123.81953125 85.1 123 85.863671875 118.1537109375 90 113 93.56640625 108.6162109375 100.3 102.4 109.1033203125 94.3822265625 111.1 92.3 122.787890625 80.2701171875 128.4 68.6 135.1310546875 54.5826171875 133.8 38.4 132.592578125 23.05 124.4 9.15 119.3662109375 0.6765625 112.1 -5.95
M 0.2 -3.8
Q 0.1875 -3.6498046875 0.15 -3.55 -0.299609375 -1.71875 -0.15 -0.6 0.1033203125 1.2828125 1.95 2.9 1.973828125 2.9265625 2 2.95 2.6888671875 3.3767578125 3.5 3.6
L 3.5 3.6
Q 3.7349609375 3.50078125 3.95 3.4 4.672265625 3.06640625 5.4 2.75 11.1435546875 0.696484375 18.45 1.4
L 18.5 1.35 18.5 1.35
Q 21.539453125 0.2208984375 24.75 -0.55 37.52890625 -3.594921875 51 -0.05 63.37578125 3.2876953125 74.15 11.1 85.6380859375 19.326953125 91.5 29.9 103.216796875 50.8955078125 82.85 77.25 79.5671875 81.5779296875 73.85 87.65 70.715234375 91.076171875 64.3 97.9 54.8890625 108.3583984375 50.5 117.2 54.1318359375 118.0052734375 57.85 118.9 62.4306640625 120.0451171875 67.05 121 65.8357421875 113.405859375 69.25 106.1 71.565625 101.194140625 76.65 95.7 78.340625 93.9216796875 85.8 86.85 98.7908203125 75.2763671875 104.95 69.1 119.5857421875 54.5134765625 122.25 39.8 125.2087890625 24.0228515625 116.85 4.85 113.634765625 -2.4908203125 108.6 -8.9
L 108.6 -8.9
Q 106.0255859375 -10.9677734375 103.15 -12.85 90.68046875 -20.978515625 74.7 -24.35 47.1095703125 -30.020703125 19.7 -17.45 7.7388671875 -11.920703125 1.35 -5.1 0.8787109375 -4.537109375 0.4 -4 0.326171875 -3.8865234375 0.2 -3.8
M 88.6 65.95
Q 96.3646484375 51.7826171875 93.4 38.45 90.397265625 25.2125 77.05 14.45 65.4765625 5.0994140625 50.75 0.8 38.0240234375 -2.8611328125 25.35 0.35 23.11953125 0.9435546875 20.95 1.7 31.3962890625 3.3060546875 42.65 9.6 53.7640625 15.86953125 60.7 27.1 67.4525390625 37.9404296875 68.95 51.05 70.5310546875 64.5912109375 65.05 78.3 63.6900390625 81.7416015625 59.05 91.35 55.1916015625 99.423828125 53.5 104.55 51.9796875 109.1986328125 51.05 113.55 52.6701171875 110.782421875 54.65 108 58.4525390625 102.6119140625 71.1 88.7 83.676171875 75.0041015625 88.6 65.95 Z"/>

<path fill="#000000" stroke="none" d="
M 14 3.4
Q 13.8990234375 3.4607421875 13.75 3.5 13.907421875 3.5138671875 14.05 3.5
L 14 3.4 Z"/>

<path fill="#E781B3" stroke="none" d="
M -0.15 -7.85
L -1.4 -6.5 -1.4 -6.45
Q -1.7837890625 -6.2123046875 -2.5 -3.5 -3.3921875 0.2517578125 -1.45 2.8 0.478125 5.3267578125 4.35 5.6 4.421875 5.595703125 4.5 5.6 4.8375 5.623046875 5.2 5.6
L 5.3 5.6
Q 5.828515625 5.3716796875 6.35 5.15 6.772265625 4.9927734375 7.15 4.85 10.21796875 3.760546875 13.75 3.5 13.8990234375 3.4607421875 14 3.4
L 14.05 3.5
Q 13.907421875 3.5138671875 13.75 3.5 14.0240234375 3.512109375 14.25 3.5 15.433984375 3.4416015625 16.65 3.45
L 16.65 3.45
Q 17.4578125 3.4904296875 18.25 3.55 26.5306640625 4.1666015625 35.8 8.45 54.2875 17.0900390625 61.65 34.55 70.178515625 54.5921875 63.3 74.25 61.178515625 80.278125 55.25 91.55 50.4455078125 102.4240234375 48.5 110.85 47.851171875 113.7826171875 47.45 116.55 48.971875 116.88828125 50.5 117.2 54.8890625 108.3583984375 64.3 97.9 70.715234375 91.076171875 73.85 87.65 79.5671875 81.5779296875 82.85 77.25 103.216796875 50.8955078125 91.5 29.9 85.6380859375 19.326953125 74.15 11.1 63.37578125 3.2876953125 51 -0.05 37.52890625 -3.594921875 24.75 -0.55 21.539453125 0.2208984375 18.5 1.35
L 18.5 1.35 18.45 1.4
Q 11.1435546875 0.696484375 5.4 2.75 4.672265625 3.06640625 3.95 3.4 3.7349609375 3.50078125 3.5 3.6
L 3.5 3.6
Q 2.6888671875 3.3767578125 2 2.95 1.973828125 2.9265625 1.95 2.9 0.1033203125 1.2828125 -0.15 -0.6 -0.299609375 -1.71875 0.15 -3.55 0.1875 -3.6498046875 0.2 -3.8 0.326171875 -3.8865234375 0.4 -4 0.8787109375 -4.537109375 1.35 -5.1 7.7388671875 -11.920703125 19.7 -17.45 47.1095703125 -30.020703125 74.7 -24.35 90.68046875 -20.978515625 103.15 -12.85 106.0255859375 -10.9677734375 108.6 -8.9
L 108.6 -8.9
Q 113.634765625 -2.4908203125 116.85 4.85 125.2087890625 24.0228515625 122.25 39.8 119.5857421875 54.5134765625 104.95 69.1 98.7908203125 75.2763671875 85.8 86.85 78.340625 93.9216796875 76.65 95.7 71.565625 101.194140625 69.25 106.1 65.8357421875 113.405859375 67.05 121 67.780859375 121.176171875 68.5 121.3 67.85234375 117.1212890625 68.65 112.95 69.7953125 106.936328125 74.3 100.95 76.7916015625 97.7044921875 83.45 91.05 96.29375 79.3158203125 102.6 73.35 113.29375 63.2048828125 118.45 54.15 124.983984375 42.59609375 124.25 30.3 122.9234375 9.432421875 112.1 -5.9 112.11171875 -5.924609375 112.1 -5.95 119.3662109375 0.6765625 124.4 9.15 132.592578125 23.05 133.8 38.4 135.1310546875 54.5826171875 128.4 68.6 122.787890625 80.2701171875 111.1 92.3 109.1033203125 94.3822265625 100.3 102.4 93.56640625 108.6162109375 90 113 85.863671875 118.1537109375 85.1 123 85.0056640625 123.81953125 84.95 124.6
L 85 124.6
Q 85.1947265625 129.5404296875 87.45 131.95 88.3677734375 129.9455078125 88 124.7 88.0611328125 121.884765625 89.6 118.85 91.903125 114.5025390625 98.45 108.4 111.5599609375 96.1236328125 116.3 90.95 125.787109375 80.62578125 130.75 70.7 137.3283203125 57.619921875 137.1 42.9 136.8984375 29.1298828125 130.75 15.95 124.8248046875 3.018359375 114.35 -6.9 109.941796875 -11.081640625 105.05 -14.4 105.0232421875 -14.425390625 105 -14.45 104.688671875 -14.663671875 104.35 -14.9
L 103.7 -15.3
Q 102.7955078125 -15.8755859375 101.85 -16.45
L 101.55 -16.65
Q 101.6029296875 -16.5986328125 101.6 -16.6 96.244140625 -19.808984375 90.3 -22.05 63.1443359375 -32.207421875 37.4 -26.2 12.668359375 -20.4115234375 0.7 -8.7 0.278515625 -8.271484375 -0.15 -7.85
M 93.4 38.45
Q 96.3646484375 51.7826171875 88.6 65.95 83.676171875 75.0041015625 71.1 88.7 58.4525390625 102.6119140625 54.65 108 52.6701171875 110.782421875 51.05 113.55 51.9796875 109.1986328125 53.5 104.55 55.1916015625 99.423828125 59.05 91.35 63.6900390625 81.7416015625 65.05 78.3 70.5310546875 64.5912109375 68.95 51.05 67.4525390625 37.9404296875 60.7 27.1 53.7640625 15.86953125 42.65 9.6 31.3962890625 3.3060546875 20.95 1.7 23.11953125 0.9435546875 25.35 0.35 38.0240234375 -2.8611328125 50.75 0.8 65.4765625 5.0994140625 77.05 14.45 90.397265625 25.2125 93.4 38.45 Z"/>
</g>
</defs>

<g transform="matrix( 0.412506103515625, 0, 0, 0.412506103515625, 486.45,301.35) ">
<g transform="matrix( 1, 0, 0, 1, -1.75,149.65) ">
<g transform="matrix( 1.1522064208984375, 0, 0, 1.7481689453125, 4.4,-262.5) ">
<use filter="url(#Filter_1)" xlink:href="#FS_Shadow_0_Layer0_0_FILL"/>
</g>
</g>

<g transform="matrix( -0.827606201171875, -0.06597900390625, -0.312469482421875, 0.807952880859375, -43.1,26.65) ">
<g transform="matrix( 1, 0, 0, 1, 0,0) ">
<use filter="url(#Filter_2)" xlink:href="#FS_WingBack_3_4far_8_Layer6_0_FILL"/>
</g>
</g>

<g transform="matrix( -0.9667816162109375, 0.056610107421875, -0.1165618896484375, 1.0552825927734375, 23.35,33.1) ">
<g transform="matrix( 1, 0, 0, 1, 2.2,86.4) ">
<g transform="matrix( 1, 0, 0, 1, 0,0) ">
<use filter="url(#Filter_3)" xlink:href="#FS_FrontLeg_3_4_hoof_0_Layer0_0_FILL"/>
</g>
</g>

<g transform="matrix( 0.999969482421875, -0.0043792724609375, -0.001129150390625, 1, 0.15,0.35) ">
<g transform="matrix( 1, 0, 0, 1, 0,0) ">
<use filter="url(#Filter_3)" xlink:href="#FS_FrontLeg_3_4_upper_2_Layer1_0_FILL"/>
</g>
</g>
</g>

<g transform="matrix( -1.0099945068359375, 0.005035400390625, 0.0108489990234375, 0.9419708251953125, -2.45,17.15) ">
<g transform="matrix( 1, 0, 0, 1, 0,0) ">
<use xlink:href="#FS_Neck_1_Layer0_0_FILL"/>
</g>
</g>

<g transform="matrix( 1, 0, 0, 1, 44.65,-47.2) ">
<g transform="matrix( -1.0182952880859375, 0.0002899169921875, -0.06036376953125, 0.930694580078125, 9.75,-13.15) ">
<g transform="matrix( 1, 0, 0, 1, 0,0) ">
<use xlink:href="#FS_Skull_4_Layer0_0_FILL"/>
</g>
</g>

<g transform="matrix( -0.9885406494140625, -0.1387786865234375, -0.13067626953125, 0.9883575439453125, 21.5,18.75) ">
<g transform="matrix( 1, 0, 0, 1, 0,0) ">
<use xlink:href="#FS_Mouth_3_4back_0_Layer4_0_FILL"/>
</g>

<g transform="matrix( 1, 0, 0, 1, -34.25,-2.9) ">
<g transform="matrix( 1, 0, 0, 1, 0,0) ">
<use xlink:href="#FS_Nostril_3_4rear_0_Layer13_0_FILL"/>
</g>

<g transform="matrix( 1, 0, 0, 1, 0,0) ">
<use xlink:href="#FS_Nostril_3_4rear_0_Layer12_0_FILL"/>
</g>

<g transform="matrix( 1, 0, 0, 1, 0,0) ">
<use xlink:href="#FS_Nostril_3_4rear_0_Layer11_0_FILL"/>
</g>

<g transform="matrix( 1, 0, 0, 1, 0,0) ">
<use xlink:href="#FS_Nostril_3_4rear_0_Layer10_0_FILL"/>
</g>

<g transform="matrix( 1, 0, 0, 1, 0,0) ">
<use xlink:href="#FS_Nostril_3_4rear_0_Layer9_0_FILL"/>
</g>

<g transform="matrix( 1, 0, 0, 1, 0,0) ">
<use xlink:href="#FS_Nostril_3_4rear_0_Layer8_0_FILL"/>
</g>

<g transform="matrix( 1, 0, 0, 1, 0,0) ">
<use xlink:href="#FS_Nostril_3_4rear_0_Layer7_0_FILL"/>
</g>

<g transform="matrix( 1, 0, 0, 1, 0,0) ">
<use xlink:href="#FS_Nostril_3_4rear_0_Layer6_0_FILL"/>
</g>

<g transform="matrix( 1, 0, 0, 1, 0,0) ">
<use xlink:href="#FS_Nostril_3_4rear_0_Layer5_0_FILL"/>
</g>

<g transform="matrix( 1, 0, 0, 1, 0,0) ">
<use xlink:href="#FS_Nostril_3_4rear_0_Layer4_0_FILL"/>
</g>

<g transform="matrix( 1, 0, 0, 1, 0,0) ">
<use xlink:href="#FS_Nostril_3_4rear_0_Layer3_0_FILL"/>
</g>

<g transform="matrix( 1, 0, 0, 1, 0,0) ">
<use xlink:href="#FS_Nostril_3_4rear_0_Layer2_0_FILL"/>
</g>

<g transform="matrix( 1, 0, 0, 1, 0,0) ">
<use xlink:href="#FS_Nostril_3_4rear_0_Layer1_0_FILL"/>
</g>

<g transform="matrix( 1, 0, 0, 1, 0,0) ">
<use xlink:href="#FS_Nostril_3_4rear_0_Layer0_0_FILL"/>
</g>
</g>
</g>

<g transform="matrix( -0.99969482421875, 0.0050811767578125, 0.0050811767578125, 0.99969482421875, -24.3,-31.75) ">
<g transform="matrix( 1, 0, 0, 1, 0,0) ">
<use xlink:href="#FS_Ear_3_Layer1_0_FILL"/>
</g>
</g>

<mask id="Mask_Mask_1">
<g transform="matrix( -0.430816650390625, 0.0000152587890625, -0.26824951171875, 1.0030517578125, 43.05,-3.4) ">
<g transform="matrix( 1, 0, 0, 1, 0,0) ">
<use xlink:href="#Mask_Mask_FS_EyeWhite_3_4rear_0_Layer0_0_FILL"/>
</g>
</g>
</mask>

<g mask="url(#Mask_Mask_1)">
<g transform="matrix( -0.430816650390625, 0.0000152587890625, -0.26824951171875, 1.0030517578125, 43.05,-3.4) ">
<g transform="matrix( 1, 0, 0, 1, 0,0) ">
<use xlink:href="#FS_EyeWhite_3_4rear_0_Layer0_0_FILL"/>
</g>
</g>
</g>

<g mask="url(#Mask_Mask_1)">
<g transform="matrix( 0.4191436767578125, -0.00213623046875, -0.05133056640625, 0.9085235595703125, 46.7,-6.25) ">
<g transform="matrix( 1, 0, 0, 1, 0,0) ">
<use xlink:href="#FS_Iris_0_Layer1_0_FILL"/>
</g>

<g transform="matrix( 1, 0, 0, 1, 0,0) ">
<use xlink:href="#FS_Iris_0_Layer0_0_FILL"/>
</g>

<g transform="matrix( 1, 0, 0, 1, 0,0) ">
<use xlink:href="#FS_Iris_0_Layer0_1_FILL"/>
</g>
</g>
</g>

<g mask="url(#Mask_Mask_1)">
<g transform="matrix( -0.3971710205078125, 0.00201416015625, -0.127655029296875, 0.91455078125, 47.65,-5.95) ">
<g transform="matrix( 1, 0, 0, 1, 0,0) ">
<use xlink:href="#FS_Pupil_0_Layer0_0_FILL"/>
</g>
</g>
</g>

<g mask="url(#Mask_Mask_1)">
<g transform="matrix( -0.5057830810546875, -0.130096435546875, -0.189300537109375, 0.905242919921875, 45.75,-13.35) ">
<g transform="matrix( 1, 0, 0, 1, 0,0) ">
<use xlink:href="#FS_Hilights_0_Layer1_0_FILL"/>
</g>
</g>
</g>

<g transform="matrix( -0.430816650390625, 0.0000152587890625, -0.26824951171875, 1.0030517578125, 43.05,-3.4) ">
<g transform="matrix( 1, 0, 0, 1, 0,0) ">
<use xlink:href="#FS_Blink_3_4rear_0_Layer0_0_FILL"/>
</g>

<g transform="matrix( 1, 0, 0, 1, 0,0) ">
<use xlink:href="#FS_Blink_3_4rear_0_Layer0_1_FILL"/>
</g>

<g transform="matrix( 1, 0, 0, 1, 0,0) ">
<use xlink:href="#FS_Blink_3_4rear_0_Layer0_2_FILL"/>
</g>

<g transform="matrix( 1, 0, 0, 1, 0,0) ">
<use xlink:href="#FS_Blink_3_4rear_0_Layer0_3_FILL"/>
</g>

<g transform="matrix( 1, 0, 0, 1, 0,0) ">
<use xlink:href="#FS_Blink_3_4rear_0_Layer0_4_FILL"/>
</g>

<g transform="matrix( 1, 0, 0, 1, 0,0) ">
<use xlink:href="#FS_Blink_3_4rear_0_Layer0_5_FILL"/>
</g>

<g transform="matrix( 1, 0, 0, 1, 0,0) ">
<use xlink:href="#FS_Blink_3_4rear_0_Layer0_6_FILL"/>
</g>
</g>

<g transform="matrix( -1, 0, 0, 1, -8.5,-64.9) ">
<g transform="matrix( 1, 0, 0, 1, -0.05,0.25) ">
<g transform="matrix( 1, 0, 0, 1, 0,0) ">
<use xlink:href="#FS_Hair_05_10_Layer1_0_FILL"/>
</g>
</g>

<g transform="matrix( 1, 0, 0, 1, -35.1,133.85) ">
<g transform="matrix( 1, 0, 0, 1, 0,0) ">
<use xlink:href="#FS_Hair_03_10_Layer1_0_FILL"/>
</g>
</g>

<g transform="matrix( 1, 0, 0, 1, 0,0) ">
<use xlink:href="#FS_Hair_01_4_Layer1_0_FILL"/>
</g>

<g transform="matrix( -0.93988037109375, 0.3382110595703125, -0.3382110595703125, -0.93988037109375, -60.4,161.15) ">
<g transform="matrix( 1, 0, 0, 1, 0,0) ">
<use xlink:href="#FS_Hair_04_10_Layer1_0_FILL"/>
</g>
</g>
</g>

<g transform="matrix( -0.9839019775390625, 0.0189361572265625, -0.016571044921875, 1.00592041015625, 17.45,-29.1) ">
<g transform="matrix( 1, 0, 0, 1, 0,0) ">
<use xlink:href="#FS_Ear_7_Layer1_0_FILL"/>
</g>
</g>
</g>

<g transform="matrix( -0.963165283203125, 0.0564727783203125, -0.015533447265625, 1.06597900390625, 31.8,40.05) ">
<g transform="matrix( 1, 0, 0, 1, 2.2,86.4) ">
<g transform="matrix( 1, 0, 0, 1, 0,0) ">
<use xlink:href="#FS_FrontLeg_3_4_hoof_0_Layer0_0_FILL"/>
</g>
</g>

<g transform="matrix( 0.999969482421875, -0.0043792724609375, -0.001129150390625, 1, 0.15,0.35) ">
<g transform="matrix( 1, 0, 0, 1, 0,0) ">
<use xlink:href="#FS_FrontLeg_3_4_upper_2_Layer1_0_FILL"/>
</g>
</g>
</g>

<g transform="matrix( -1, 0, -0.0277557373046875, 1.004180908203125, 31.15,-103.75) ">
<g transform="matrix( 1, 0, 0, 1, 0,0) ">
<use xlink:href="#FS_Mane_01_5_Layer1_0_FILL"/>
</g>
</g>

<g transform="matrix( -1, 0, 0, 1, -11.95,29.8) ">
<g transform="matrix( 1, 0, 0, 1, 0,0) ">
<use xlink:href="#FS_Torso_3_Layer1_0_FILL"/>
</g>
</g>

<g transform="matrix( -1.0279388427734375, -0.04925537109375, -0.0391387939453125, 0.9576568603515625, -35.75,13.1) ">
<g transform="matrix( 0.9970245361328125, 0, 0, 1, 17.55,127.9) ">
<g transform="matrix( 1, 0, 0, 1, 0,0) ">
<use xlink:href="#FS_FrontLeg_3_4_hoof_4_Layer0_0_FILL"/>
</g>
</g>

<g transform="matrix( 1, 0, 0, 1, 5.05,57.05) ">
<g transform="matrix( 1, 0, 0, 1, 0,0) ">
<use xlink:href="#FS_KneePatch_1_Layer0_0_FILL"/>
</g>
</g>

<g transform="matrix( 1, 0, -0.0095977783203125, 1.0159912109375, 5.95,-9.8) ">
<g transform="matrix( 1, 0, 0, 1, 0,0) ">
<use xlink:href="#FS_HindLeg_3_4_top_2_Layer0_0_FILL"/>
</g>
</g>

<g transform="matrix( 1, 0, 0, 1, 8.7,62.65) ">
<g transform="matrix( 1, 0, 0, 1, 0,0) ">
<use xlink:href="#FS_HindLeg_3_4rear_lower_0_Layer1_0_FILL"/>
</g>

<g transform="matrix( 1, 0, 0, 1, 0,0) ">
<use xlink:href="#FS_HindLeg_3_4rear_lower_0_Layer0_0_FILL"/>
</g>
</g>

<g transform="matrix( 1, 0, 0, 1, 5.05,57.05) ">
<g transform="matrix( 1, 0, 0, 1, 0,0) ">
<use xlink:href="#FS_KneePatch_0_Layer0_0_FILL"/>
</g>
</g>

<g transform="matrix( 1, 0, 0, 1, 0,0) ">
<use xlink:href="#FS_HindLeg_3_4rearnomark_0_Layer0_0_FILL"/>
</g>
</g>

<g transform="matrix( -1, 0, 0, 1, -11.95,29.8) ">
<g transform="matrix( 1, 0, 0, 1, 0,0) ">
<use filter="url(#Filter_2)" xlink:href="#FS_Torso_13_Layer1_0_FILL"/>
</g>
</g>

<g transform="matrix( -1.087677001953125, 0, 0, 1.0020599365234375, -21.45,13.75) ">
<g transform="matrix( 0.9942169189453125, 0, 0, 1, 17.55,127.9) ">
<g transform="matrix( 1, 0, 0, 1, 0,0) ">
<use xlink:href="#FS_FrontLeg_3_4_hoof_4_Layer0_0_FILL"/>
</g>
</g>

<g transform="matrix( 1, 0, 0, 1, 5.05,57.05) ">
<g transform="matrix( 1, 0, 0, 1, 0,0) ">
<use xlink:href="#FS_KneePatch_1_Layer0_0_FILL"/>
</g>
</g>

<g transform="matrix( 1, 0, -0.0095977783203125, 1.0159912109375, 5.95,-9.8) ">
<g transform="matrix( 1, 0, 0, 1, 0,0) ">
<use xlink:href="#FS_HindLeg_3_4_top_2_Layer0_0_FILL"/>
</g>
</g>

<g transform="matrix( 1, 0, 0, 1, 8.7,62.65) ">
<g transform="matrix( 1, 0, 0, 1, 0,0) ">
<use xlink:href="#FS_HindLeg_3_4rear_lower_0_Layer1_0_FILL"/>
</g>

<g transform="matrix( 1, 0, 0, 1, 0,0) ">
<use xlink:href="#FS_HindLeg_3_4rear_lower_0_Layer0_0_FILL"/>
</g>
</g>

<g transform="matrix( 1, 0, 0, 1, 5.05,57.05) ">
<g transform="matrix( 1, 0, 0, 1, 0,0) ">
<use xlink:href="#FS_KneePatch_0_Layer0_0_FILL"/>
</g>
</g>

<g transform="matrix( 0.5999908447265625, 0, -0.0133056640625, 0.9998626708984375, -8.2,12.65) ">
<g transform="matrix( 1, 0, 0, 1, 0,0) ">
<use xlink:href="#FS_CutieMark_2_Layer0_0_FILL"/>
</g>
</g>

<g transform="matrix( 1, 0, 0, 1, 0,0) ">
<use xlink:href="#FS_HindLeg_3_4rear_0_Layer0_0_FILL"/>
</g>
</g>

<g transform="matrix( 0.998382568359375, -0.0028839111328125, 0.0028839111328125, 0.998382568359375, 15.55,28.1) ">
<g transform="matrix( 1, 0, 0, 1, 0,0) ">
<use xlink:href="#FS_WingBack_3_4_8_Layer6_0_FILL"/>
</g>
</g>

<g transform="matrix( -1, 0, 0, 1, -42,9.8) ">
<g transform="matrix( 1, 0, 0, -1, 148.6,136.8) ">
<g transform="matrix( 1, 0, 0, 1, 0,0) ">
<use xlink:href="#FS_Tail_03_11_Layer0_0_FILL"/>
</g>
</g>

<g transform="matrix( -0.0039520263671875, -0.999267578125, 0.999267578125, -0.0039520263671875, 67.05,120.3) ">
<g transform="matrix( 1, 0, 0, 1, 0,0) ">
<use xlink:href="#FS_Tail_02_11_Layer0_0_FILL"/>
</g>
</g>

<g transform="matrix( 1, 0, 0, 1, 0.3,-0.8) ">
<g transform="matrix( 1, 0, 0, 1, 0,0) ">
<use xlink:href="#FS_Tail_01_11_Layer2_0_FILL"/>
</g>
</g>
</g>
</g>
</svg>
