
<svg xmlns="http://www.w3.org/2000/svg" version="1.1" xmlns:xlink="http://www.w3.org/1999/xlink" preserveAspectRatio="none" x="0px" y="0px" width="864px" height="486px" viewBox="0 0 864 486">
<defs>
<linearGradient id="Gradient_1" gradientUnits="userSpaceOnUse" x1="-33.8" y1="-21.2875" x2="-46.900000000000006" y2="1.387500000000001" spreadMethod="pad">
<stop  offset="0%" stop-color="#015350"/>

<stop  offset="2.7450980392156863%" stop-color="#025B58"/>

<stop  offset="9.019607843137255%" stop-color="#046B67"/>

<stop  offset="14.901960784313726%" stop-color="#047672"/>

<stop  offset="19.607843137254903%" stop-color="#057975"/>

<stop  offset="28.235294117647058%" stop-color="#058581"/>

<stop  offset="42.35294117647059%" stop-color="#009590"/>

<stop  offset="58.03921568627451%" stop-color="#00A19D"/>

<stop  offset="75.68627450980392%" stop-color="#00AAA5"/>

<stop  offset="100%" stop-color="#00ADA8"/>
</linearGradient>

<filter id="Filter_1" x="-20%" y="-20%" width="140%" height="140%" color-interpolation-filters="sRGB">
<feColorMatrix in="SourceGraphic" type="matrix" values="1 0 0 0 0 0 1 0 0 0 0 0 1 0 0 0 0 0 0.21 0" result="result1"/>
</filter>

<filter id="Filter_2" x="-20%" y="-20%" width="140%" height="140%" color-interpolation-filters="sRGB">
<feColorMatrix in="SourceGraphic" type="matrix" values="1 0 0 0 0.0196078431372549 0 1 0 0 -0.06274509803921569 0 0 1 0 -0.12156862745098039 0 0 0 1 0" result="result1"/>
</filter>

<g id="FS_Shadow_0_Layer0_0_FILL">
<path fill="#000000" stroke="none" d="
M 46.4 155.05
Q 68.65 152.95 68.65 149.95 68.65 146.95 46.4 144.8 24.15 142.7 -7.4 142.7 -38.9 142.7 -61.2 144.8 -83.45 146.95 -83.45 149.95 -83.45 152.95 -61.2 155.05 -38.9 157.2 -7.4 157.2 24.15 157.2 46.4 155.05 Z"/>
</g>

<g id="FS_Mane_01_7_Layer1_0_FILL">
<path fill="#E781B3" stroke="none" d="
M 24.5 -17.9
L 23.85 -20.5
Q -5.3328125 -35.7875 -25.85 -24.95 -18.1857421875 5.2484375 -22.8 35.5 -24.73671875 48.61484375 -30.8 69.05 -36.8197265625 89.5705078125 -36.75 100.85 -36.5486328125 117.6037109375 -29.95 133 -28.3130859375 136.7880859375 -22.15 147.55 -16.9705078125 156.5064453125 -15.2 162.4 -14.1435546875 166.002734375 -14 168.55 -13.515234375 174.013671875 -8.85 176.2 -4.1259765625 178.39140625 0 177.95 9.8087890625 177.3634765625 13.5 170.4 12.898046875 171.9248046875 15.05 166.8 16.2611328125 163.917578125 17.35 160.9
L 17.95 159.3
Q 25.6861328125 137.6626953125 28.2 111.15 31.4708984375 76.9505859375 30.55 38.15 29.799609375 5.055078125 24.45 -17.95
L 24.5 -17.9
M 26.15 12.3
Q 28.6025390625 38.2255859375 26.8 85.7 25.946875 108.3310546875 23.8 121.9 21.936328125 134.4416015625 17.1 151.15 16.591796875 153.0384765625 16.05 154.75 6.726953125 135.7236328125 -1.75 119.45 -16.4400390625 91.15703125 -10.95 48.45 -5.363671875 5.28515625 -16.2 -22.4 -16.8048828125 -24.0140625 -17.5 -25.6 2.39765625 -30.8798828125 21.05 -19.95 24.483984375 -6.0978515625 26.15 12.3
M 15.4 156.85
Q 12.98046875 164.4177734375 11.6 167.1 7.5998046875 175.5818359375 -0.6 175.35 -9.887890625 174.899609375 -11.4 165.6 -11.71953125 163.8185546875 -12.35 162 -14.280078125 156.1640625 -19.35 147.15 -25.39765625 136.483984375 -27.1 132.6 -34.5984375 115.481640625 -33.7 98.3 -33.248046875 90.7162109375 -31 81.3 -29.8171875 76.60234375 -26.3 64.65 -20.8166015625 46.2203125 -19.05 30.65 -15.949609375 2.7865234375 -22.6 -24 -20.7771484375 -24.6298828125 -19 -25.15 -18.259765625 -23.51484375 -17.6 -21.85 -6.95703125 5.55703125 -12.5 48.25 -18.04140625 91.501953125 -3.1 120.15 5.6876953125 137.0228515625 15.4 156.85 Z"/>

<path fill="#F4B6D1" stroke="none" d="
M 11.6 167.1
Q 12.98046875 164.4177734375 15.4 156.85 5.6876953125 137.0228515625 -3.1 120.15 -18.04140625 91.501953125 -12.5 48.25 -6.95703125 5.55703125 -17.6 -21.85 -18.259765625 -23.51484375 -19 -25.15 -20.7771484375 -24.6298828125 -22.6 -24 -15.949609375 2.7865234375 -19.05 30.65 -20.8166015625 46.2203125 -26.3 64.65 -29.8171875 76.60234375 -31 81.3 -33.248046875 90.7162109375 -33.7 98.3 -34.5984375 115.481640625 -27.1 132.6 -25.39765625 136.483984375 -19.35 147.15 -14.280078125 156.1640625 -12.35 162 -11.71953125 163.8185546875 -11.4 165.6 -9.887890625 174.899609375 -0.6 175.35 7.5998046875 175.5818359375 11.6 167.1
M 26.8 85.7
Q 28.6025390625 38.2255859375 26.15 12.3 24.483984375 -6.0978515625 21.05 -19.95 2.39765625 -30.8798828125 -17.5 -25.6 -16.8048828125 -24.0140625 -16.2 -22.4 -5.363671875 5.28515625 -10.95 48.45 -16.4400390625 91.15703125 -1.75 119.45 6.726953125 135.7236328125 16.05 154.75 16.591796875 153.0384765625 17.1 151.15 21.936328125 134.4416015625 23.8 121.9 25.946875 108.3310546875 26.8 85.7 Z"/>
</g>

<g id="FS_Mane_02_7_Layer0_0_FILL">
<path fill="#E781B3" stroke="none" d="
M -12.25 5.4
Q -12.4228515625 3.730859375 -12.7 1.5 -15.0361328125 2.2203125 -15.35 5.25 -15.1546875 7.4451171875 -15.35 9.6 -15.9658203125 16.508203125 -20.35 18.2 -23.6107421875 19.5091796875 -27.05 17.55 -29.881640625 15.9359375 -30.4 13.3 -32.2453125 12.321875 -33.5 12.5 -32.8373046875 16.152734375 -29.7 18.55 -26.602734375 20.9603515625 -22.8 21 -15.22734375 21.0783203125 -13 12.85 -12.01875 9.1693359375 -12.25 5.4
M 11.55 8.2
Q 13.0291015625 4.125 10.75 2.9 8.43203125 7.921484375 7.7 9.2 1.273828125 20.7724609375 -8.6 24.45 -14.6875 26.778515625 -21.3 26.25 -28.8748046875 25.7025390625 -32.95 21.4 -35.031640625 19.2421875 -35.6 16.2 -35.876171875 14.516796875 -35.6 13.05 -39.1021484375 14.04140625 -38.75 16.9 -38.244921875 19.015625 -36.9 21.4 -33.4529296875 27.3228515625 -23.5 29.05 -13.503125 30.848046875 -2.95 24.45 5.8455078125 19.140234375 11.55 8.2 Z"/>

<path fill="#F4B6D1" stroke="none" d="
M 7.7 9.2
Q 8.43203125 7.921484375 10.75 2.9 -1.94296875 10.1517578125 -12.7 1.5 -12.4228515625 3.730859375 -12.25 5.4 -12.01875 9.1693359375 -13 12.85 -15.22734375 21.0783203125 -22.8 21 -26.602734375 20.9603515625 -29.7 18.55 -32.8373046875 16.152734375 -33.5 12.5 -34.5716796875 12.7009765625 -35.6 13.05 -35.876171875 14.516796875 -35.6 16.2 -35.031640625 19.2421875 -32.95 21.4 -28.8748046875 25.7025390625 -21.3 26.25 -14.6875 26.778515625 -8.6 24.45 1.273828125 20.7724609375 7.7 9.2 Z"/>
</g>

<g id="FS_Mane_03_7_Layer0_0_FILL">
<path fill="#F4B6D1" stroke="none" d="
M -0.45 -4.7
Q -0.7 -6.111328125 -0.45 -7.5 -0.4205078125 -7.6783203125 -0.4 -7.9 -0.52578125 -7.73671875 -0.7 -7.6 -1.1021484375 -7.1494140625 -1.45 -6.65 -3.102734375 -4.22890625 -2.55 -1 -2.2978515625 0.2712890625 -1.8 1.35 -1.601953125 1.2939453125 -1.4 1.2 0.1921875 0.4279296875 1.6 -0.3 0.0009765625 -2.2142578125 -0.45 -4.7 Z"/>

<path fill="#E781B3" stroke="none" d="
M 0.8 -10.8
L 0.8 -10.8
Q -2.8693359375 -10.4787109375 -5.05 -6.15 -6.453515625 -3.322265625 -5.55 0.1 -3.9818359375 2.2068359375 -1.8 1.35 -2.2978515625 0.2712890625 -2.55 -1 -3.102734375 -4.22890625 -1.45 -6.65 -1.1021484375 -7.1494140625 -0.7 -7.6 -0.52578125 -7.73671875 -0.4 -7.9 -0.4205078125 -7.6783203125 -0.45 -7.5 -0.7 -6.111328125 -0.45 -4.7 0.0009765625 -2.2142578125 1.6 -0.3 3.0642578125 -0.7255859375 2.9 -3 2.512109375 -4.0138671875 2.5 -5.25 2.52109375 -8.0455078125 3.8 -10.1 3.9943359375 -10.34140625 4.15 -10.6 3.9240234375 -10.614453125 3.65 -10.65 2.12109375 -10.88671875 0.8 -10.8 Z"/>
</g>

<g id="FS_Tail_02_9_Layer0_0_FILL">
<path fill="#F4B6D1" stroke="none" d="
M -13.75 -27.15
L -13.8 -27.1 -13.75 -27.1 -13.75 -27.15
M 15.1 -8
Q 14.3169921875 -12.725 10.1 -16.45 7.316015625 -18.9068359375 1.7 -21.85 0.2470703125 -22.575 -2.05 -23.6 -2.052734375 -23.5875 -2.1 -23.6 -3.296875 -23.6791015625 -4.6 -23.75 -5.1958984375 -23.7451171875 -5.8 -23.75 -3.7197265625 -22.6171875 -2.15 -21.1 -1.40546875 -20.3275390625 -1.05 -19.5
L -1 -19.5 -1 -19.45
Q 0.039453125 -15.0755859375 -1.85 -11.75 -1.39921875 -14.5201171875 -1.85 -16.85 -2.294140625 -19.168359375 -2.3 -19.25 -2.3671875 -19.45546875 -2.45 -19.7
L -2.65 -20.1
Q -2.73359375 -20.3005859375 -2.85 -20.5 -3.3923828125 -21.378125 -4.3 -22.15 -5.35546875 -23.0416015625 -6.6 -23.75 -10.68125 -23.7205078125 -20.3 -21.5
L -15.7 -20.3 -15.7 -20.35
Q -14.9634765625 -20.144140625 -14.2 -19.9 -9.1935546875 -18.4404296875 -7.25 -15.25 -6.1107421875 -13.4818359375 -7.15 -11.7 -7.4083984375 -11.212109375 -9.5 -8.75 -9.5244140625 -8.725 -9.55 -8.7 -12.4853515625 -6.355078125 -13.1 -1.2 -11.2802734375 14.337890625 1.75 12.5 3.1498046875 11.5208984375 4.45 10.45 10.1216796875 5.97421875 12.5 2.55 16.08125 -2.5328125 15.1 -8
M 18.9 -16.6
Q 14.1486328125 -21.61640625 2 -23.2
L 1.95 -23.2
Q 2.1248046875 -23.1283203125 2.25 -23.1 2.305078125 -23.0478515625 2.35 -23.05 14.26796875 -16.919921875 16.6 -7.95 18.6173828125 -0.2990234375 8.65 8.75 6.9333984375 10.334375 5 11.85 8.879296875 11.017578125 11.95 9.9 20.8822265625 6.7302734375 23.2 -1.45 25.542578125 -9.723828125 18.9 -16.6 Z"/>

<path fill="#E781B3" stroke="none" d="
M 26.55 -8.1
Q 25.2728515625 -14.069140625 20.6 -18.05 14.5408203125 -23.181640625 3.65 -24.8 -0.1845703125 -25.38203125 -3.55 -25.6 -3.76015625 -25.6162109375 -4 -25.65
L -7.15 -25.75
Q -9.21328125 -25.77421875 -11.1 -25.65
L -11.1 -25.6
Q -18.5427734375 -25.1646484375 -22.25 -21.2 -15.4869140625 -18.65390625 -14.8 -18.45 -11.4166015625 -17.531640625 -10.25 -15.6 -8.6513671875 -12.99140625 -11.5 -11.1 -11.928125 -10.8158203125 -12.35 -10.6 -16.7037109375 -7.64765625 -16.65 -0.3 -14.0232421875 16.841015625 1.25 14.7
L 1.25 14.65
Q 3.705859375 14.2658203125 6.15 13.75 20.1146484375 11.00546875 24.85 3.25 28.0005859375 -1.8423828125 26.55 -8.1
M 2 -23.2
Q 14.1486328125 -21.61640625 18.9 -16.6 25.542578125 -9.723828125 23.2 -1.45 20.8822265625 6.7302734375 11.95 9.9 8.879296875 11.017578125 5 11.85 6.9333984375 10.334375 8.65 8.75 18.6173828125 -0.2990234375 16.6 -7.95 14.26796875 -16.919921875 2.35 -23.05 2.305078125 -23.0478515625 2.25 -23.1 2.1248046875 -23.1283203125 1.95 -23.2
L 2 -23.2
M 10.1 -16.45
Q 14.3169921875 -12.725 15.1 -8 16.08125 -2.5328125 12.5 2.55 10.1216796875 5.97421875 4.45 10.45 3.1498046875 11.5208984375 1.75 12.5 -11.2802734375 14.337890625 -13.1 -1.2 -12.4853515625 -6.355078125 -9.55 -8.7 -9.5244140625 -8.725 -9.5 -8.75 -7.4083984375 -11.212109375 -7.15 -11.7 -6.1107421875 -13.4818359375 -7.25 -15.25 -9.1935546875 -18.4404296875 -14.2 -19.9 -14.9634765625 -20.144140625 -15.7 -20.35
L -15.7 -20.3 -20.3 -21.5
Q -10.68125 -23.7205078125 -6.6 -23.75 -5.35546875 -23.0416015625 -4.3 -22.15 -3.3923828125 -21.378125 -2.85 -20.5 -2.73359375 -20.3005859375 -2.65 -20.1
L -2.45 -19.7
Q -2.3671875 -19.45546875 -2.3 -19.25 -2.294140625 -19.168359375 -1.85 -16.85 -1.39921875 -14.5201171875 -1.85 -11.75 0.039453125 -15.0755859375 -1 -19.45
L -1 -19.5 -1.05 -19.5
Q -1.40546875 -20.3275390625 -2.15 -21.1 -3.7197265625 -22.6171875 -5.8 -23.75 -5.1958984375 -23.7451171875 -4.6 -23.75 -3.296875 -23.6791015625 -2.1 -23.6 -2.052734375 -23.5875 -2.05 -23.6 0.2470703125 -22.575 1.7 -21.85 7.316015625 -18.9068359375 10.1 -16.45 Z"/>
</g>

<g id="FS_Tail_01_9_Layer2_0_FILL">
<path fill="#F4B6D1" stroke="none" d="
M 99.45 134.8
L 99.45 134.8 99.4 134.8 99.45 134.8
M 81.3 103.4
L 81.3 103.45 81.3 103.4 81.3 103.4
M 58.3 -14.95
Q 45.7279296875 -15.0669921875 31.9 -11.8 16.248046875 -8.0494140625 1.7 1
L -1.65 3.15
Q 0.71640625 6.3720703125 4.6 5.55 10.079296875 2.197265625 21.05 2.2 33.090234375 2.276171875 43.4 5.75 54.09140625 9.38671875 59.8 16.95 60.5119140625 17.364453125 61.15 17.75 68.3083984375 22.1607421875 72.55 29.2 77.387890625 37.347265625 73.65 47.7 71.078515625 54.815625 63.7 64.2 61.736328125 66.697265625 56.35 72.9 51.583984375 78.465234375 49.1 81.75 41.3197265625 92.2623046875 39.95 102.25 37.9291015625 117.1431640625 52.15 130.05 53.8041015625 131.560546875 55.55 132.85 57.2916015625 134.1853515625 59.1 135.3 68.1798828125 137.4380859375 80.15 136.8 91.2708984375 136.246484375 99.4 134.75 88.9732421875 134.86875 97.3 116.95 94.9439453125 119.1337890625 91.25 120.45 86.073828125 122.302734375 79.95 121.9 68.6869140625 121.263671875 62 110.45 58.38203125 104.64609375 59.7 97.65 60.8876953125 91.456640625 65.55 85.7 69.888671875 80.385546875 77.15 74.2 85.7294921875 67.2751953125 89.9 63.85 99.6111328125 55.890625 102.85 52.7 109.83828125 45.9306640625 113.2 39.2 120.5697265625 24.7392578125 109.7 9.1 105.186328125 2.6240234375 98.2 -2.8 91.694140625 -7.9201171875 84.6 -10.95 75.23125 -14.8794921875 58.3 -14.95
M 65.3 21.95
Q 63.216796875 19.9408203125 60.8 18.3
L 60.75 18.3
Q 61.23046875 18.9892578125 61.65 19.7 65.1583984375 25.622265625 65.95 33.75 66.6603515625 41.20078125 65 48.55 63.4689453125 55.30859375 58.4 62.35 55.86015625 65.9599609375 48.45 74.25 35.978515625 88.264453125 34.25 103.1 32.05390625 120.9080078125 46.1 130 50.74140625 133.0248046875 56.75 134.7 56.7654296875 134.667578125 56.8 134.6 55.983203125 134.0791015625 55.15 133.5 54.4408203125 132.9896484375 53.7 132.45 42.233203125 123.7998046875 39.1 112.65 36.3869140625 102.721875 41.2 92 44.6109375 84.6458984375 53.15 74.55 64.3876953125 61.3458984375 66.05 59 72.8869140625 49.35 73.7 40.7 74.684765625 31.0490234375 65.3 21.95
M 1.05 -0.05
L 1.1 -0.05
Q 17.929296875 -10.3103515625 37 -14 70.5029296875 -20.421875 91.7 -8.5 104.424609375 -1.34296875 111.65 9.75 120.14609375 22.8115234375 116.35 35.4 114.487109375 41.8068359375 109.1 48.15 105.72265625 52.0759765625 98.5 58.4 95.917578125 60.6513671875 85.35 69.3 77.2703125 75.9576171875 72.55 80.5 62.161328125 90.3826171875 60.9 99.15 60.0732421875 105.2970703125 63.85 111.15 67.4529296875 116.761328125 73.3 119.4 78.193359375 121.6169921875 84.1 120.9 89.6201171875 120.2650390625 94.5 117.35 97.5814453125 115.57109375 98.6 112.55 99.6998046875 109.539453125 98.25 106.35 97.7998046875 105.3294921875 97 104.5 97.0421875 105.2248046875 96.8 106 96.1091796875 108.5109375 93.6 110.5 91.2775390625 112.3134765625 88.3 112.7 88.022265625 112.8578125 87.7 113 87.5009765625 113.081640625 87.3 113.15 84.61328125 114.141015625 81.05 111.8 81.3849609375 111.9509765625 81.7 112.05 81.398046875 111.946484375 81.1 111.8 77.994140625 109.7109375 77.95 105.85 77.9375 104.65625 78.2 103.5 78.414453125 102.5349609375 78.8 101.6 78.915234375 101.3837890625 79 101.15
L 80.35 98.9 80.95 98.15
Q 81.2642578125 97.800390625 81.6 97.4
L 81.6 97.4
Q 81.9328125 97.072265625 82.25 96.7
L 83.85 95.15 83.9 95.15
Q 85.74140625 93.504296875 88.1 91.85 94.190234375 88.10703125 97 86.3 111.566796875 77.1125 119.7 67.9 132.1806640625 53.8470703125 133.6 38.5 135.025390625 22.351953125 128.85 7.05 121.5732421875 -11.175390625 104.35 -22.35 88.847265625 -32.28671875 64 -31.75 42.2732421875 -31.2876953125 22.7 -20.75 16.436328125 -17.3748046875 7.75 -11 2.4353515625 -7.0943359375 -0.9 -3.5 -3.0697265625 -1.448046875 -2.15 2
L 1.05 -0.05 Z"/>

<path fill="#E781B3" stroke="none" d="
M -0.25 -8.2
Q -1.3478515625 -7.184375 -2.35 -6.2 -2.933984375 -5.5822265625 -3.5 -5 -4.1986328125 -3.594921875 -5.05 -1.15 -5.8541015625 1.3345703125 -2.95 4.75 -0.04453125 8.1705078125 5.95 7.75 10.678125 4.120703125 21.15 4.1 31.0958984375 4.2001953125 38.8 6.25 49.5021484375 9.239453125 54.95 14.75 55.358984375 15.157421875 55.7 15.55 55.748046875 15.5849609375 55.75 15.6 56.23203125 16.112109375 56.65 16.65 63.0408203125 24.8416015625 63.1 37.7 63.1580078125 50.9208984375 55.5 61.4 51.2349609375 67.228125 41.6 77.8 34.9318359375 86.1904296875 32.2 96.35 29.24453125 107.457421875 32.25 116.95 35.96796875 128.8322265625 50.8 134.6 62.4953125 139.17265625 77.05 138.9 86.445703125 138.7435546875 95.65 137.4 96.984765625 137.235546875 98.3 137 99.6587890625 136.310546875 99.45 134.8
L 99.4 134.8 99.4 134.75 99.4 134.75
Q 91.2708984375 136.246484375 80.15 136.8 68.1798828125 137.4380859375 59.1 135.3 57.2916015625 134.1853515625 55.55 132.85 53.8041015625 131.560546875 52.15 130.05 37.9291015625 117.1431640625 39.95 102.25 41.3197265625 92.2623046875 49.1 81.75 51.583984375 78.465234375 56.35 72.9 61.736328125 66.697265625 63.7 64.2 71.078515625 54.815625 73.65 47.7 77.387890625 37.347265625 72.55 29.2 68.3083984375 22.1607421875 61.15 17.75 60.5119140625 17.364453125 59.8 16.95 54.09140625 9.38671875 43.4 5.75 33.090234375 2.276171875 21.05 2.2 10.079296875 2.197265625 4.6 5.55 0.71640625 6.3720703125 -1.65 3.15
L 1.7 1
Q 16.248046875 -8.0494140625 31.9 -11.8 45.7279296875 -15.0669921875 58.3 -14.95 75.23125 -14.8794921875 84.6 -10.95 91.694140625 -7.9201171875 98.2 -2.8 105.186328125 2.6240234375 109.7 9.1 120.5697265625 24.7392578125 113.2 39.2 109.83828125 45.9306640625 102.85 52.7 99.6111328125 55.890625 89.9 63.85 85.7294921875 67.2751953125 77.15 74.2 69.888671875 80.385546875 65.55 85.7 60.8876953125 91.456640625 59.7 97.65 58.38203125 104.64609375 62 110.45 68.6869140625 121.263671875 79.95 121.9 86.073828125 122.302734375 91.25 120.45 94.9439453125 119.1337890625 97.3 116.95 98.9435546875 115.4505859375 99.95 113.5 101.102734375 111.37109375 100.5 108.5 99.95859375 105.794140625 98.2 104 97.51484375 103.345703125 96.1 102.2 95.4962890625 101.415234375 95.5 103.8 95.5369140625 104.18828125 95.5 104.6 95.4583984375 107.0373046875 93.35 109.05 92.3142578125 110.11796875 91.05 110.85 90.4642578125 111.2484375 89.8 111.55
L 89.75 111.55
Q 88.184375 111.6390625 85.3 111.65 84.6314453125 111.5318359375 84.05 111.25 81.378125 109.948046875 80.95 106.8 80.7248046875 105.0423828125 81.25 103.4
L 81.3 103.4 81.3 103.4 81.3 103.45 81.35 103.45
Q 82.046484375 100.895703125 86.55 96.65 86.5755859375 96.6353515625 86.6 96.6
L 86.55 96.6 87.35 95.9
Q 88.9939453125 94.5560546875 90.95 93.2 97.8765625 88.955859375 101.15 86.7 118.11171875 75.222265625 125.05 65.95 136.034765625 51.41640625 136.65 38.05 137.341796875 22.5404296875 132.65 9.25 128.0361328125 -3.7279296875 118 -14 107.8392578125 -24.4169921875 95 -28.95 81.265234375 -33.8353515625 65.75 -33.9 50.472265625 -33.9083984375 36.4 -29.25 23.160546875 -24.79296875 10.05 -15.9 3.1173828125 -11.140625 -0.25 -8.2
M 1.1 -0.05
L 1.05 -0.05 -2.15 2
Q -3.0697265625 -1.448046875 -0.9 -3.5 2.4353515625 -7.0943359375 7.75 -11 16.436328125 -17.3748046875 22.7 -20.75 42.2732421875 -31.2876953125 64 -31.75 88.847265625 -32.28671875 104.35 -22.35 121.5732421875 -11.175390625 128.85 7.05 135.025390625 22.351953125 133.6 38.5 132.1806640625 53.8470703125 119.7 67.9 111.566796875 77.1125 97 86.3 94.190234375 88.10703125 88.1 91.85 85.74140625 93.504296875 83.9 95.15
L 83.85 95.15 82.25 96.7
Q 81.9328125 97.072265625 81.6 97.4
L 81.6 97.4
Q 81.2642578125 97.800390625 80.95 98.15
L 80.35 98.9 79 101.15
Q 78.915234375 101.3837890625 78.8 101.6 78.414453125 102.5349609375 78.2 103.5 77.9375 104.65625 77.95 105.85 77.994140625 109.7109375 81.1 111.8 81.398046875 111.946484375 81.7 112.05 81.3849609375 111.9509765625 81.05 111.8 84.61328125 114.141015625 87.3 113.15 87.5009765625 113.081640625 87.7 113 88.022265625 112.8578125 88.3 112.7 91.2775390625 112.3134765625 93.6 110.5 96.1091796875 108.5109375 96.8 106 97.0421875 105.2248046875 97 104.5 97.7998046875 105.3294921875 98.25 106.35 99.6998046875 109.539453125 98.6 112.55 97.5814453125 115.57109375 94.5 117.35 89.6201171875 120.2650390625 84.1 120.9 78.193359375 121.6169921875 73.3 119.4 67.4529296875 116.761328125 63.85 111.15 60.0732421875 105.2970703125 60.9 99.15 62.161328125 90.3826171875 72.55 80.5 77.2703125 75.9576171875 85.35 69.3 95.917578125 60.6513671875 98.5 58.4 105.72265625 52.0759765625 109.1 48.15 114.487109375 41.8068359375 116.35 35.4 120.14609375 22.8115234375 111.65 9.75 104.424609375 -1.34296875 91.7 -8.5 70.5029296875 -20.421875 37 -14 17.929296875 -10.3103515625 1.1 -0.05
M 60.8 18.3
Q 63.216796875 19.9408203125 65.3 21.95 74.684765625 31.0490234375 73.7 40.7 72.8869140625 49.35 66.05 59 64.3876953125 61.3458984375 53.15 74.55 44.6109375 84.6458984375 41.2 92 36.3869140625 102.721875 39.1 112.65 42.233203125 123.7998046875 53.7 132.45 54.4408203125 132.9896484375 55.15 133.5 55.983203125 134.0791015625 56.8 134.6 56.96640625 134.7224609375 57.1 134.8 56.93515625 134.7775390625 56.75 134.7 50.74140625 133.0248046875 46.1 130 32.05390625 120.9080078125 34.25 103.1 35.978515625 88.264453125 48.45 74.25 55.86015625 65.9599609375 58.4 62.35 63.4689453125 55.30859375 65 48.55 66.6603515625 41.20078125 65.95 33.75 65.1583984375 25.622265625 61.65 19.7 61.23046875 18.9892578125 60.75 18.3
L 60.8 18.3 Z"/>
</g>

<g id="FS_FrontLeg_3_4_hoof_3_Layer0_0_FILL">
<path fill="#EBD463" stroke="none" d="
M 15 -15
Q 8.7578125 -20.846875 0.05 -20.15 -8.81640625 -19.5484375 -12.8 -14.35 -16.5814453125 -9.49140625 -19.05 -4.4 -21.52109375 0.659765625 -22.7 5.85 -24.2189453125 11.8765625 -17.2 16.3 -10.98671875 20.29375 0.6 20.5 12.60546875 20.6666015625 16.75 15
L 16.8 15
Q 21.170703125 9.355078125 21.2 0.1 21.2337890625 -9.1515625 15 -15
M 0.25 -17.15
L 0.25 -17.15
Q 7.6546875 -17.7474609375 12.9 -12.75 18.1953125 -7.7763671875 18 0.4 17.8419921875 8.58203125 14.15 13.3 10.7654296875 17.6328125 0.65 17.5 -9.913671875 17.30625 -15.6 13.75 -20.5744140625 10.62109375 -19.45 6.25 -18.2724609375 1.884765625 -16.1 -3 -13.9228515625 -7.84453125 -10.5 -12.25 -7.0828125 -16.6515625 0.25 -17.15 Z"/>

<path fill="#FDF6AE" stroke="none" d="
M 0.25 -17.15
L 0.25 -17.15
Q -7.0828125 -16.6515625 -10.5 -12.25 -13.9228515625 -7.84453125 -16.1 -3 -18.2724609375 1.884765625 -19.45 6.25 -20.5744140625 10.62109375 -15.6 13.75 -9.913671875 17.30625 0.65 17.5 10.7654296875 17.6328125 14.15 13.3 17.8419921875 8.58203125 18 0.4 18.1953125 -7.7763671875 12.9 -12.75 7.6546875 -17.7474609375 0.25 -17.15 Z"/>
</g>

<g id="FS_FrontLeg_3_4_upper_0_Layer2_0_FILL">
<path fill="#EBD463" stroke="none" d="
M 22.45 39.15
L 22.45 39.1
Q 22.3919921875 32.875390625 17.9 28.4 13.4109375 23.9001953125 7.2 23.9 0.9369140625 23.9021484375 -3.55 28.4 -8.035546875 32.88046875 -8 39.1
L -8 39.15
Q -8.0373046875 45.3677734375 -3.55 49.85 0.9369140625 54.34765625 7.2 54.35 13.4109375 54.349609375 17.9 49.85 22.3939453125 45.3724609375 22.45 39.15
M 15.8 30.5
Q 19.3900390625 34.1064453125 19.45 39.1
L 19.45 39.15
Q 19.3876953125 44.145703125 15.8 47.75 12.1888671875 51.3501953125 7.2 51.35 2.162890625 51.3521484375 -1.45 47.75 -5.0447265625 44.150390625 -5 39.15
L -5 39.1
Q -5.046875 34.1015625 -1.45 30.5 2.162890625 26.89765625 7.2 26.9 12.1888671875 26.899609375 15.8 30.5 Z"/>

<path fill="#FDF6AE" stroke="none" d="
M 19.45 39.1
Q 19.3900390625 34.1064453125 15.8 30.5 12.1888671875 26.899609375 7.2 26.9 2.162890625 26.89765625 -1.45 30.5 -5.046875 34.1015625 -5 39.1
L -5 39.15
Q -5.0447265625 44.150390625 -1.45 47.75 2.162890625 51.3521484375 7.2 51.35 12.1888671875 51.3501953125 15.8 47.75 19.3876953125 44.145703125 19.45 39.15
L 19.45 39.1 Z"/>
</g>

<g id="FS_FrontLeg_3_4_upper_0_Layer1_0_FILL">
<path fill="#EBD463" stroke="none" d="
M -5 38.75
Q -4.9951171875 38.7123046875 -5 38.65 -2.82578125 16.4015625 -6.95 3.35 -6.62421875 20.90546875 -8 38.5
L -7.85 41.25 -5.15 40.25 -5 38.75
M 9.05 0.4
L 9 0.35 9.15 0.7
Q 20.266796875 24.45078125 19.45 38.65 19.448046875 38.6876953125 19.45 38.7
L 19.5 40.2 22.3 41.2 22.45 38.55
Q 22.542578125 18.4734375 9.2 0.7
L 9.1 0.45 9.05 0.4 Z"/>

<path fill="#FDF6AE" stroke="none" d="
M 9.15 0.7
L 9 0.35
Q 5.78515625 -0.679296875 2.7 -0.55 -2.3787109375 -0.31953125 -7 3.2
L -6.95 3.25
Q -6.948828125 3.3078125 -6.95 3.35 -2.82578125 16.4015625 -5 38.65
L 19.45 38.65
Q 20.266796875 24.45078125 9.15 0.7 Z"/>
</g>

<g id="FS_FrontLeg_3_4_lower_3_Layer2_0_FILL">
<path fill="#EBD463" stroke="none" d="
M -17.45 38.7
Q -21.65 19.7 -11.15 0.4
L -10.3 -1.3
Q -13.5 -0.8 -15.35 2.15 -20.65 12.4 -21.7 21.3 -22.65 29.4 -20.4 39.5 -20.231640625 40.13515625 -19.7 40.45 -19.1767578125 40.8099609375 -18.6 40.65 -17.96484375 40.53203125 -17.65 40 -17.2904296875 39.4767578125 -17.45 38.85 -17.44296875 38.79453125 -17.45 38.7
M 12.55 -2.25
Q 12.5548828125 -2.133984375 12.5 -2.05 9.5 15.85 14.65 27.95
L 14.7 28.1
Q 14.95 28.7 15.5 28.9 16.05 29.15 16.65 28.9 17.2 28.65 17.45 28.1 17.7 27.5 17.45 26.95 12.55 15.2 15.5 -1.75 15.5859375 -2.0919921875 15.5 -2.4 15.4287109375 -2.6349609375 15.25 -2.85 14.9130859375 -3.36328125 14.3 -3.5 13.6994140625 -3.5826171875 13.2 -3.25 12.699609375 -2.872265625 12.55 -2.3
L 12.55 -2.25 Z"/>

<path fill="#FDF6AE" stroke="none" d="
M 14.65 27.95
Q 9.5 15.85 12.5 -2.05 12.55 -2 -10.3 -1.3
L -11.15 0.4
Q -21.65 19.7 -17.45 38.7
L 14.65 27.95 Z"/>
</g>

<g id="FS_FrontLeg_3_4_hoof_4_Layer0_0_FILL">
<path fill="#F26F31" stroke="none" d="
M -13.4 -12.85
L -13.4 -12.85 -13.4 -12.85 -13.4 -12.85 Z"/>

<path fill="#EBD463" stroke="none" d="
M -1.15 -18.45
L -1.2 -18.45
Q -9.624609375 -17.8423828125 -13.4 -12.85
L -13.4 -12.85
Q -16.978515625 -8.244140625 -19.45 -3.2
L -19.45 -3.25
Q -21.8619140625 1.6474609375 -24.65 7.7 -26.3091796875 11.4185546875 -25.4 13.65 -24.5841796875 16.204296875 -21 17 -15.576171875 18.259765625 -2.15 18.05 12.0072265625 17.7810546875 15.25 13.85 18.7416015625 10.1349609375 18.9 1.1 19.00546875 -7.925390625 13.05 -13.5 7.154296875 -19.091015625 -1.15 -18.45
M -0.95 -15.45
L -0.95 -15.45
Q 6.0544921875 -16.0005859375 11 -11.3 15.99453125 -6.574609375 15.9 1.05 15.7583984375 8.665625 13 11.85 10.0958984375 14.81875 -2.2 15.05 -15.123828125 15.2400390625 -20.35 14.05 -22.069140625 13.694921875 -22.6 12.65 -22.9419921875 11.2833984375 -21.9 8.95 -19.13828125 2.9525390625 -16.75 -1.9
L -16.75 -1.9
Q -14.421484375 -6.655859375 -11.05 -11
L -11 -11
Q -7.869921875 -14.9509765625 -0.95 -15.45 Z"/>

<path fill="#FDF6AE" stroke="none" d="
M -0.95 -15.45
L -0.95 -15.45
Q -7.869921875 -14.9509765625 -11 -11
L -11.05 -11
Q -14.421484375 -6.655859375 -16.75 -1.9
L -16.75 -1.9
Q -19.13828125 2.9525390625 -21.9 8.95 -22.9419921875 11.2833984375 -22.6 12.65 -22.069140625 13.694921875 -20.35 14.05 -15.123828125 15.2400390625 -2.2 15.05 10.0958984375 14.81875 13 11.85 15.7583984375 8.665625 15.9 1.05 15.99453125 -6.574609375 11 -11.3 6.0544921875 -16.0005859375 -0.95 -15.45 Z"/>
</g>

<g id="FS_KneePatch_2_Layer0_0_FILL">
<path fill="#EBD463" stroke="none" d="
M 0.25 -27.8
L 0.2 -27.8
Q -5.8083984375 -29.447265625 -11.2 -26 -16.50078125 -22.5494140625 -18.1 -16.15 -19.4751953125 -10.2185546875 -17.05 -5.05
L -17 -5
Q -16.9865234375 -4.97578125 -17 -4.95
L -16.95 -4.9
Q -10.8248046875 6.4275390625 -8.05 17.15
L -8.1 17.15 -8.05 17.2
Q -8.0775390625 17.49453125 -8 17.75 -7.7880859375 18.413671875 -5.85 21.6 -3.863671875 24.8244140625 1.05 26.15 5.9177734375 27.444921875 10.2 25.25 14.5810546875 23.012890625 15.8 18.55
L 15.8 18.5
Q 16.9775390625 14.0072265625 14.3 9.85
L 14.25 9.85
Q 13.090234375 8.0783203125 11.4 6.35
L 11.35 6.25 11.35 6.25
Q 6.5607421875 1.2896484375 7.95 -1.2 10.454296875 -4.6970703125 10.95 -6.05
L 10.95 -6.1
Q 11.50546875 -7.4853515625 11.8 -8.7
L 11.85 -8.75
Q 13.3412109375 -15.2044921875 9.75 -20.75
L 9.75 -20.75
Q 6.194921875 -26.25390625 0.25 -27.8
M 7.25 -19.1
L 7.25 -19.15 7.3 -19.1 7.25 -19.1 Z"/>
</g>

<g id="FS_HindLeg_3_4rear_lower_0_Layer1_0_FILL">
<path fill="#F26F31" stroke="none" d="
M 8.6 8
Q 8.6333984375 7.9955078125 8.65 7.95
L 8.65 7.95 8.6 8 Z"/>

<path fill="#EBD463" stroke="none" d="
M 12.35 -6.4
Q 12.1732421875 -6.510546875 11.95 -6.6 1.59140625 -10.1181640625 -6.5 -4.85 -6.526171875 -4.8123046875 -6.6 -4.8 -14.9587890625 1.5962890625 -10.3 12.75 -10.2638671875 12.8216796875 -10.25 12.85 -7.8515625 17.784765625 -2.5 16.05 1.90625 14.6984375 8.65 7.95
L 8.65 7.95
Q 13.7076171875 3.494921875 14.7 0.2 16.0470703125 -3.87109375 12.35 -6.4
M 10.75 -3.8
Q 12.4302734375 -2.605078125 11.85 -0.75 10.8990234375 1.983203125 6.6 5.75 6.5771484375 5.8119140625 6.55 5.85 0.493359375 11.901953125 -3.4 13.2 -6.248828125 14.115234375 -7.55 11.5
L -7.55 11.6
Q -7.5458984375 11.575 -7.6 11.5 -11.2048828125 2.68671875 -4.75 -2.4
L -4.85 -2.35
Q 2.0138671875 -6.721484375 10.75 -3.8 Z"/>

<path fill="#FCBA63" stroke="none" d="
M -7.55 11.5
L -7.6 11.5
Q -7.5458984375 11.575 -7.55 11.6
L -7.55 11.5 Z"/>

<path fill="#FDF6AE" stroke="none" d="
M 11.85 -0.75
Q 12.4302734375 -2.605078125 10.75 -3.8 2.0138671875 -6.721484375 -4.85 -2.35
L -4.75 -2.4
Q -11.2048828125 2.68671875 -7.6 11.5
L -7.55 11.5
Q -6.248828125 14.115234375 -3.4 13.2 0.493359375 11.901953125 6.55 5.85 6.5771484375 5.8119140625 6.6 5.75 10.8990234375 1.983203125 11.85 -0.75 Z"/>
</g>

<g id="FS_HindLeg_3_4rear_lower_0_Layer0_0_FILL">
<path fill="#EBD463" stroke="none" d="
M -8.05 10.15
L -8.2 9.7 -8.45 8.7 -11.35 9.5 -10.95 10.95
Q -3.5580078125 37.8861328125 -11.7 64.6 -11.7875 65.0125 -11.9 65.4
L -8.85 65.4
Q -0.5115234375 37.662109375 -8.05 10.15
M 11.65 -2.95
Q 11.686328125 -2.8736328125 11.7 -2.8 26.2828125 27.8509765625 24.65 64.3
L 27.6 64.1
Q 29.3125 27.137109375 14.35 -4.25
L 14.2 -4.5 11 -4.3 11.65 -2.95 Z"/>

<path fill="#FDF6AE" stroke="none" d="
M 24.65 64.3
Q 26.2828125 27.8509765625 11.7 -2.8
L -8.2 9.7 -8.05 10.15
Q -0.5115234375 37.662109375 -8.85 65.4
L 24.65 64.3 Z"/>
</g>

<g id="FS_HindLeg_3_4_top_1_Layer0_0_FILL">
<path fill="#EBD463" stroke="none" d="
M 4 71.2
L 4 71.2
Q -21.2830078125 68.723828125 -34.85 31.6 -33.9126953125 47.215234375 -21.95 60.3 -9.9767578125 73.4564453125 4 71.2
L 4 71.2
M 0.85 -2.2
L 0.85 -2.25
Q -2.491015625 -3.2591796875 -0.95 0.05 2.7732421875 2.036328125 6.1 7 7.615234375 9.2787109375 8.65 12.35 9.415234375 14.4603515625 10.3 18.25 11.435546875 22.811328125 11.5 28.05 11.5900390625 35.0541015625 9 43.6 6.4283203125 52.1580078125 5.15 55.95 3.89921875 59.748046875 4.6 65.65 5.1115234375 69.5484375 4.05 71.15 4.780078125 70.475 5.2 69.45 5.285546875 69.22265625 5.35 68.95 5.7310546875 67.894140625 5.8 64.2 5.854296875 60.545703125 7.3 56.35 8.8095703125 52.1701171875 11.45 43.95 14.0810546875 35.7177734375 14.35 29.1 14.6220703125 22.4833984375 13.4 17.35 11.5509765625 9.734765625 8.4 5.2 4.976171875 0.173046875 0.85 -2.2 Z"/>

<path fill="#FDF6AE" stroke="none" d="
M 9 43.6
Q 11.5900390625 35.0541015625 11.5 28.05 11.435546875 22.811328125 10.3 18.25 9.415234375 14.4603515625 8.65 12.35 7.615234375 9.2787109375 6.1 7 2.7732421875 2.036328125 -0.95 0.05
L -34.85 31.6
Q -21.2830078125 68.723828125 4 71.2
L 4 71.2 4.05 71.2
Q 4.0642578125 71.203515625 4.05 71.15 5.1115234375 69.5484375 4.6 65.65 3.89921875 59.748046875 5.15 55.95 6.4283203125 52.1580078125 9 43.6 Z"/>
</g>

<g id="FS_KneePatch_3_Layer0_0_FILL">
<path fill="#FDF6AE" stroke="none" d="
M 7.55 -19.2
L 7.55 -19.15
Q 4.64140625 -23.669921875 -0.25 -24.95
L -0.3 -24.95
Q -5.0291015625 -26.2638671875 -9.3 -23.55 -13.591015625 -20.7333984375 -14.85 -15.5
L -14.85 -15.5
Q -16.0048828125 -10.6484375 -14.05 -6.4 -14.00078125 -6.3744140625 -14 -6.35 -7.6837890625 5.3048828125 -4.85 16.4
L -4.85 16.45
Q -4.806640625 16.5302734375 -4.8 16.65 -4.7177734375 16.80625 -4.7 16.95 -4.6609375 17.0494140625 -4.65 17.1 -4.31328125 18.1208984375 -3.7 19.1 -1.664453125 22.21015625 2.1 23.2 5.8501953125 24.2189453125 9.1 22.55 12.2861328125 20.9251953125 13.2 17.7
L 13.2 17.65
Q 14.018359375 14.44921875 12.1 11.45
L 12.1 11.45
Q 11.0275390625 9.87109375 9.5 8.3
L 9.5 8.25 9.45 8.2
Q 2.5619140625 1.0767578125 5.8 -2.95 7.969140625 -6.0158203125 8.45 -7.2
L 8.45 -7.25
Q 8.93828125 -8.43203125 9.2 -9.5
L 9.2 -9.55
Q 10.4259765625 -14.724609375 7.55 -19.2 Z"/>
</g>

<g id="FS_Torso_2_Layer1_0_FILL">
<path fill="#EBD564" stroke="none" d="
M 29.8 -35.85
L 29.8 -35.85
Q 21.915625 -36.7013671875 13.25 -33.2
L 13.2 -33.2
Q 8.2126953125 -31.11171875 0.95 -27.2
L 0.95 -27.15
Q -3.186328125 -24.856640625 -7.65 -23.75 -11.25078125 -23.3837890625 -13.5 -23.3
L -13.55 -23.3
Q -19.9138671875 -23.0044921875 -29.2 -23.5 -39.0865234375 -24.0814453125 -45.55 -19.65
L -45.55 -19.65
Q -52.0306640625 -15.2380859375 -55.85 -4.1 -57.2140625 2.0076171875 -56.65 5.9 -56.088671875 9.8 -52.7 15.9 -49.25390625 22 -41.6 27 -33.4 32.35 -24.1 34.2 -13.65 36.3 -1.85 36.3 7.17890625 36.3328125 15.7 35.1 24.8701171875 34.2482421875 31.55 31.6
L 31.6 31.6
Q 35.9 29.8 37.2 29.15 40.3 27.55 42.7 25.3 49.35 18.9 52.35 11.2 55.45 3.35 55.05 -6.55 54.8943359375 -10.3966796875 54.05 -13.4
L 54.05 -13.4
Q 53.482421875 -15.5984375 51.85 -19.45
L 51.9 -19.45
Q 50.66328125 -22.4138671875 48.6 -25 47.2705078125 -26.70546875 45 -28.8 38.4587890625 -34.896484375 29.8 -35.85
M 14.35 -30.45
L 14.35 -30.4
Q 22.2818359375 -33.5921875 29.45 -32.85 37.141015625 -32.0037109375 42.95 -26.6 45.0294921875 -24.69453125 46.25 -23.15 48.0490234375 -20.886328125 49.1 -18.3 50.617578125 -14.7015625 51.15 -12.65
L 51.15 -12.6
Q 51.9056640625 -9.903515625 52.05 -6.45 52.4 2.75 49.55 10.05 46.75 17.2 40.6 23.15
L 40.65 23.15 40.6 23.15
Q 38.433203125 25.20859375 35.6 26.65 34.65 27.1 30.45 28.8 28.26796875 29.67890625 25.55 30.35
L 25.55 30.35 24.95 30.4 24.85 30.4 24.1 30.5
Q 16.6181640625 31.8421875 9.2 32.45 3.6609375 32.9357421875 -1.85 33 -14 33.1 -23.5 31.25 -32.0958984375 29.5478515625 -39.7 24.75 -47.259375 19.9583984375 -50.6 13.85 -53.944140625 7.7376953125 -54.05 4.7 -54.1501953125 1.70859375 -53 -3.1
L -53 -3.15
Q -49.5736328125 -13.1494140625 -43.9 -17.2
L -43.85 -17.2 -43.85 -17.15
Q -38.1216796875 -21.0130859375 -29.35 -20.5
L -29.35 -20.5
Q -19.904296875 -19.9966796875 -13.4 -20.3 -12.0693359375 -20.34453125 -10.3 -20.5 -10.1337890625 -20.487890625 -10 -20.5 -8.7044921875 -20.607421875 -7.25 -20.75 -2.219140625 -21.9560546875 2.4 -24.55 9.469140625 -28.378515625 14.35 -30.45
L 14.35 -30.45 Z"/>

<path fill="#F4B6D1" stroke="none" d="
M -43.85 -17.15
L -43.85 -17.2 -43.9 -17.2 -43.85 -17.15
M 40.6 23.15
L 40.65 23.15 40.6 23.15 40.6 23.15
M 14.35 -30.45
L 14.35 -30.45 14.35 -30.4 14.35 -30.45
M 1.6 -22
Q 1.526171875 -22.0263671875 1.45 -22.1
L 1.45 -21.8 1.6 -22 Z"/>

<path fill="#FDF6AE" stroke="none" d="
M 14.35 -30.4
L 14.35 -30.4 14.35 -30.45
Q 9.469140625 -28.378515625 2.4 -24.55 -2.219140625 -21.9560546875 -7.25 -20.75 -8.7044921875 -20.607421875 -10 -20.5 -10.1337890625 -20.487890625 -10.3 -20.5 -12.0693359375 -20.34453125 -13.4 -20.3 -19.904296875 -19.9966796875 -29.35 -20.5
L -29.35 -20.5
Q -38.1216796875 -21.0130859375 -43.85 -17.15
L -43.9 -17.2
Q -49.5736328125 -13.1494140625 -53 -3.15
L -53 -3.1
Q -54.1501953125 1.70859375 -54.05 4.7 -53.944140625 7.7376953125 -50.6 13.85 -47.259375 19.9583984375 -39.7 24.75 -32.0958984375 29.5478515625 -23.5 31.25 -14 33.1 -1.85 33 3.6609375 32.9357421875 9.2 32.45 16.6181640625 31.8421875 24.1 30.5
L 24.85 30.4 24.95 30.4 25.55 30.35 25.55 30.35
Q 28.26796875 29.67890625 30.45 28.8 34.65 27.1 35.6 26.65 38.433203125 25.20859375 40.6 23.15
L 40.6 23.15
Q 46.75 17.2 49.55 10.05 52.4 2.75 52.05 -6.45 51.9056640625 -9.903515625 51.15 -12.6
L 51.15 -12.65
Q 50.617578125 -14.7015625 49.1 -18.3 48.0490234375 -20.886328125 46.25 -23.15 45.0294921875 -24.69453125 42.95 -26.6 37.141015625 -32.0037109375 29.45 -32.85 22.2818359375 -33.5921875 14.35 -30.4
M 1.45 -22.1
Q 1.526171875 -22.0263671875 1.6 -22
L 1.45 -21.8 1.45 -22.1 Z"/>

<path fill="#E781B3" stroke="none" d="
M 14.35 -30.4
L 14.35 -30.4 14.35 -30.45 14.35 -30.4 Z"/>
</g>

<g id="FS_CutieMark_0_Layer0_0_FILL">
<path fill="#F4B6D1" stroke="none" d="
M 347.3 394.2
Q 347.9 392.1 344.8 393.05 341.6 394 337.3 397.35 337.5 393.65 336.95 390.8 336.1 386.45 333.75 386.6 331.1 386.75 330.9 390.6 330.65 394.4 332.65 395.75 329.95 395.3 327.4 397.05 324.55 398.95 325.3 401.8 326 404.45 329.25 403.95 331 403.65 334.2 402.15 334.4 402.8 335.15 406.3 336.35 409.35 339 408.7 341.9 408 341.65 404.25 341.4 400.75 339.65 399.9 341.85 399.65 344.2 397.95 346.7 396.15 347.3 394.2 Z"/>
</g>

<g id="FS_CutieMark_0_Layer0_1_FILL">
<path fill="#6CC9C6" stroke="none" d="
M 339.8 387.75
L 339.65 387.5
Q 339.3 387.05 338.85 387.05 338.5 387 338.1 387.3 337.7 387.6 337.65 388.2 337.55 388.8 337.95 389.25
L 338.1 389.35 338.5 389 338.4 388.9
Q 338.15 388.6 338.2 388.25 338.2 387.9 338.45 387.75 338.8 387.4 339.2 387.85
L 339.35 388.05
Q 339.8 388.8 339.15 391.45 338.5 393.55 337.95 394.6
L 338.1 394.65
Q 336.5 396.2 333.5 403.45 335.15 402.1 337.2 399 339.25 395.85 339.2 394.7 339.55 394 340.45 392.9 341.55 391.45 342.45 390.7 343.25 390 343.9 389.9 344.45 389.9 344.55 390.1 344.7 390.25 344.65 390.55 344.6 390.8 344.4 391 344.05 391.3 343.6 391.15
L 343.5 391.7
Q 344.2 391.85 344.75 391.4 345.15 391.1 345.2 390.6 345.3 390.1 345 389.75 344.6 389.35 343.9 389.35 343.1 389.4 342.1 390.25 340.4 391.75 338.8 394.25
L 338.7 394.25
Q 339.35 392.9 339.65 391.6 340.45 388.8 339.8 387.75 Z"/>
</g>

<g id="FS_CutieMark_0_Layer0_2_FILL">
<path fill="#F4B6D1" stroke="none" d="
M 189.05 168
Q 188.55 165.15 187.1 163.9 185.55 162.5 185.1 165.55 184.6 168.65 185.75 173.65 182.7 172 180.1 171.35 176.05 170.35 175.2 172.4 174.25 174.7 177.45 176.45 180.6 178.15 182.55 177 181.05 179.1 181.55 182 182.05 185.2 184.75 185.7 187.3 186.15 188.15 183.2 188.65 181.55 188.65 178.2 189.3 178.35 192.55 179.1 195.65 179.3 196.15 176.75 196.75 174 193.45 172.75 190.35 171.55 188.9 172.7 189.55 170.7 189.05 168 Z"/>
</g>

<g id="FS_CutieMark_0_Layer0_3_FILL">
<path fill="#6CC9C6" stroke="none" d="
M 316.95 405.85
Q 316.45 406 316.15 406.65 315.95 407.2 316.2 408.5 316.75 410.65 318.3 412.95
L 318.3 413
Q 317.4 412 316.35 411.15 314.3 409.4 313.15 409.45
L 312.85 409.5
Q 312.4 409.65 312.15 410 311.95 410.35 312.05 410.75 312.2 411.25 312.65 411.5 313.15 411.8 313.7 411.65
L 313.85 411.6 313.65 411.1 313.55 411.15
Q 313.2 411.25 312.9 411.05 312.65 410.9 312.6 410.65 312.5 410.15 313 410.05
L 313.2 410
Q 314.1 409.85 316 411.55 317.05 412.4 318.25 413.8
L 318.35 413.7
Q 319.1 415.9 324.05 421.15 323.5 419.2 321.7 416.25 319.8 413.15 318.8 412.8
L 318.85 412.8
Q 317.25 410.4 316.7 408.4 316.45 407.25 316.65 406.85 316.85 406.45 317.1 406.35 317.55 406.25 317.75 406.85 317.85 407.3 317.6 407.6
L 318 407.9
Q 318.45 407.4 318.25 406.7 318.15 406.25 317.75 406 317.4 405.75 316.95 405.85 Z"/>
</g>

<g id="FS_CutieMark_0_Layer0_4_FILL">
<path fill="#F4B6D1" stroke="none" d="
M 348.4 419.55
Q 350.4 418 350.85 416.4 351.3 414.65 348.75 415.55 346.1 416.4 342.7 419.3 342.7 416.15 342.2 413.95 341.4 410.4 339.45 410.55 337.3 410.75 337.2 413.95 337.1 417.05 338.8 418.1 336.55 417.8 334.5 419.35 332.25 421 332.95 423.3 333.55 425.45 336.2 424.95 337.7 424.7 340.3 423.35 340.5 423.9 341.2 426.75 342.25 429.2 344.45 428.6 346.8 427.9 346.45 424.85 346.15 422 344.7 421.35 346.5 421.05 348.4 419.55 Z"/>
</g>

<g id="FS_CutieMark_0_Layer0_5_FILL">
<path fill="#6CC9C6" stroke="none" d="
M 344.5 411.3
L 344.3 411.1
Q 344.05 410.75 343.65 410.75 343.3 410.75 343.05 411 342.75 411.3 342.7 411.75 342.65 412.2 343 412.6
L 343.1 412.7 343.4 412.35 343.35 412.3
Q 342.9 411.8 343.35 411.35 343.65 411.1 344 411.4
L 344.1 411.55
Q 344.55 412.25 344 414.35 343.6 416.25 343.15 417
L 343.25 417.05
Q 341.95 418.45 339.75 424.45 341.05 423.25 342.65 420.7 344.25 418 344.15 417.05
L 344.2 417.05
Q 344.5 416.5 345.15 415.55 346.05 414.3 346.75 413.65 347.5 413 347.95 413 348.35 412.95 348.45 413.15 348.8 413.5 348.35 413.85 348.15 414.05 347.7 414
L 347.65 414.45
Q 348.2 414.6 348.65 414.2 349.4 413.55 348.8 412.8 348.5 412.5 347.9 412.55 347.2 412.6 346.45 413.3 345 414.7 343.85 416.7
L 343.75 416.75
Q 344 416.2 344.5 414.5 345 412.15 344.5 411.3 Z"/>
</g>

<g id="FS_Neck_1_Layer0_0_FILL">
<path fill="#FDF6AE" stroke="none" d="
M -17.6 -99.9
L -17.65 -99.9
Q -26.683984375 -109.0083984375 -39.8 -109 -52.8892578125 -108.998828125 -62.3 -99.85 -71.801171875 -90.6611328125 -72.05 -77.85 -72.3279296875 -65.053125 -63.25 -55.9
L -63.25 -55.9
Q -62.7607421875 -55.412890625 -62.25 -54.95
L -60.5 -53.45 -60.5 -53.4 -59.15 -51.9
Q -48.75625 -40.150390625 -47.1 -29.25 -47 -27.9 -46.95 -26.5 -46.9 -23.2 -47.45 -19.75 -50.535546875 -0.3146484375 -45.9 16
L -45.9 15.95
Q -39.7232421875 37.46015625 -19.85 44.45
L -18.45 44.95 -18.55 45
Q -7.184375 45.1412109375 -5.55 29.25 -3.9140625 13.4140625 -2.6 -0.1
L -0.25 -0.05
Q -3.05859375 -1.5416015625 -4.1 -3.15 -5.85234375 -5.197265625 -8.1 -25.15 -9.88515625 -40.952734375 -9.5 -62.95 -9.3767578125 -67.9625 -9.2 -73.3 -9.158984375 -73.5244140625 -9.15 -73.75
L -9.15 -81.3 -8.85 -81.3
Q -9.7095703125 -91.998828125 -17.6 -99.9
M -34.6 -47.4
L -34.7 -47.4
Q -34.6310546875 -47.38359375 -34.6 -47.4
L -34.6 -47.4 Z"/>

<path fill="#EBD564" stroke="none" d="
M -34.7 -47.4
L -34.6 -47.4 -34.6 -47.4
Q -34.6310546875 -47.38359375 -34.7 -47.4
M -17.65 -99.9
L -17.6 -99.9
Q -9.7095703125 -91.998828125 -8.85 -81.3
L -9.15 -81.3 -9.15 -73.75
Q -9.158984375 -73.5244140625 -9.2 -73.3 -9.3767578125 -67.9625 -9.5 -62.95 -9.88515625 -40.952734375 -8.1 -25.15 -5.85234375 -5.197265625 -4.1 -3.15 -3.05859375 -1.5416015625 -0.25 -0.05 -1.4 -1.85 -2.25 -4.8 -3.05 -7.45 -5.1 -25.5 -7.2638671875 -44.648828125 -6.2 -72.95 -5.7958984375 -75.3732421875 -5.75 -77.95 -5.492578125 -92.0048828125 -15.5 -102
L -15.5 -102
Q -25.41640625 -111.9916015625 -39.8 -112 -54.110546875 -112.0013671875 -64.4 -102 -74.7986328125 -91.9388671875 -75.05 -77.9 -75.355078125 -64.5958984375 -66.45 -54.9 -65.9 -54.35 -65.35 -53.8 -63.45 -52 -61.7 -50.1 -60.3 -48.55 -58.95 -46.95 -52.171875 -38.4115234375 -50.45 -29.2 -50 -25.35 -50.3 -21.6 -50.35 -20.65 -50.5 -19.7 -53.575 0.1408203125 -48.8 16.8
L -48.8 16.8
Q -42.1767578125 39.8396484375 -20.85 47.3
L -19.45 47.8 -18.55 45 -18.45 44.95 -19.85 44.45
Q -39.7232421875 37.46015625 -45.9 15.95
L -45.9 16
Q -50.535546875 -0.3146484375 -47.45 -19.75 -46.9 -23.2 -46.95 -26.5 -47 -27.9 -47.1 -29.25 -48.75625 -40.150390625 -59.15 -51.9
L -60.5 -53.4 -61.7 -53.4 -60.5 -53.45 -62.25 -54.95
Q -62.7607421875 -55.412890625 -63.25 -55.9
L -63.25 -55.9
Q -72.3279296875 -65.053125 -72.05 -77.85 -71.801171875 -90.6611328125 -62.3 -99.85 -52.8892578125 -108.998828125 -39.8 -109 -26.683984375 -109.0083984375 -17.65 -99.9 Z"/>
</g>

<g id="FS_FrontLeg_3_4_hoof_0_Layer0_0_FILL">
<path fill="#EBD463" stroke="none" d="
M 14.95 -14.95
Q 8.7541015625 -20.8443359375 0.05 -20.15 -8.81640625 -19.5484375 -12.8 -14.35 -16.526953125 -9.5060546875 -19.15 -4.25 -21.7119140625 0.947265625 -24.6 7.3
L -24.55 7.3
Q -26.32890625 11.167578125 -25.4 13.5 -24.5373046875 16.1365234375 -20.8 17
L -20.8 17
Q -15.0755859375 18.309765625 -1 18.05 13.7875 17.7890625 17.25 13.7
L 17.25 13.7
Q 20.8900390625 9.7828125 21.05 0.3 21.2107421875 -9.126171875 14.95 -14.95
M 0.25 -17.15
L 0.25 -17.15
Q 7.6546875 -17.7474609375 12.9 -12.75 18.1890625 -7.7734375 18.05 0.25 17.9103515625 8.2857421875 15.05 11.65
L 15 11.7
Q 11.8634765625 14.81171875 -1.05 15.05 -14.6240234375 15.2900390625 -20.15 14.05
L -20.15 14.1
Q -22.016015625 13.6626953125 -22.55 12.5 -22.959375 11.0341796875 -21.85 8.55 -18.9880859375 2.2525390625 -16.45 -2.9 -13.9732421875 -7.894140625 -10.45 -12.5 -7.0837890625 -16.6517578125 0.25 -17.15 Z"/>

<path fill="#FDF6AE" stroke="none" d="
M 0.25 -17.15
L 0.25 -17.15
Q -7.0837890625 -16.6517578125 -10.45 -12.5 -13.9732421875 -7.894140625 -16.45 -2.9 -18.9880859375 2.2525390625 -21.85 8.55 -22.959375 11.0341796875 -22.55 12.5 -22.016015625 13.6626953125 -20.15 14.1
L -20.15 14.05
Q -14.6240234375 15.2900390625 -1.05 15.05 11.8634765625 14.81171875 15 11.7
L 15.05 11.65
Q 17.9103515625 8.2857421875 18.05 0.25 18.1890625 -7.7734375 12.9 -12.75 7.6546875 -17.7474609375 0.25 -17.15 Z"/>
</g>

<g id="FS_FrontLeg_3_4_upper_2_Layer1_0_FILL">
<path fill="#EBD463" stroke="none" d="
M -17.3 82.35
L -14.2 82.9
Q -3.4103515625 50.004296875 -7.15 -2.5 -9.971484375 0.565234375 -9.25 14.7 -7.92421875 54.5646484375 -17.3 82.35
M 18.4 19.05
Q 12.98984375 3.2484375 9.05 0.4 26.109765625 43.7232421875 19.95 89.45
L 19.95 89.5
Q 21.0232421875 91.8462890625 22.9 89.9
L 22.9 89.9
Q 27.77265625 53.83984375 18.4 19.05 Z"/>

<path fill="#FDF6AE" stroke="none" d="
M 9.05 0.4
L 9.05 0.35
Q 0.58515625 -2.4958984375 -7.15 -2.5 -3.4103515625 50.004296875 -14.2 82.9
L -13.1 84.35 19.95 89.45
Q 26.109765625 43.7232421875 9.05 0.4 Z"/>
</g>

<g id="FS_Wing_side_9_Layer4_0_FILL">
<path fill="#FFF8AD" stroke="none" d="
M 21.55 14.75
L 21.55 14.7
Q 21.2142578125 14.1181640625 20.8 13.6
L 20.8 13.6
Q 18.1185546875 10.5724609375 10.35 10.55 10.3005859375 3.5751953125 -0.85 1.7
L -8.45 1.25 -8.5 1.3 -9.2 1.9
Q -15.48515625 8.1115234375 -17.1 16 -18.7552734375 24.0869140625 -14.65 30.5 -7.2 41.795703125 10.15 38.55 22.0693359375 32.926953125 19.25 24.6 23.9587890625 19.2478515625 21.55 14.75
M 22.65 27.4
Q 22.66171875 27.693359375 22.65 27.95 22.58046875 32.1900390625 18.55 36.15 30.1486328125 31.27578125 39.5 16.85 40.3603515625 15.5462890625 41.1 14.25
L 22.65 27.4
M 43.05 10.6
Q 44.6708984375 7.1671875 45.45 4.05 46.0837890625 1.4330078125 45.95 -0.45
L 23.55 12.35
Q 23.8908203125 12.809375 24.15 13.3
L 24.15 13.3
Q 27.62890625 19.3095703125 22.3 25.1 22.478515625 25.676953125 22.55 26.25
L 42.25 12.15
Q 42.69375 11.384765625 43.05 10.6
L 43.05 10.6
M 40.2 -5.35
L 40.2 -5.35
Q 39.5380859375 -5.4392578125 38.8 -5.5
L 12 6.4
Q 12.3978515625 7.1595703125 12.6 8.05 19.8712890625 7.8109375 22.95 11.5
L 45.85 -1.5
Q 45.5666015625 -2.65234375 44.85 -3.35
L 44.8 -3.35
Q 43.229296875 -4.827734375 40.2 -5.35
M 36.5 -5.6
Q 32.940625 -5.5923828125 28.2 -4.75 17.980859375 -2.937109375 6.05 1.95 9.87421875 2.86640625 11.5 5.5
L 36.5 -5.6 Z"/>

<path fill="#EBD463" stroke="none" d="
M 46.9 -5.55
Q 44.7744140625 -7.612109375 40.7 -8.3 35.7517578125 -9.144921875 27.65 -7.75 14.734765625 -5.4265625 -0.85 1.7 10.3005859375 3.5751953125 10.35 10.55 18.1185546875 10.5724609375 20.8 13.6
L 20.8 13.6
Q 21.2142578125 14.1181640625 21.55 14.7
L 21.55 14.75
Q 23.9587890625 19.2478515625 19.25 24.6 22.0693359375 32.926953125 10.15 38.55 -7.2 41.795703125 -14.65 30.5 -18.7552734375 24.0869140625 -17.1 16 -15.48515625 8.1115234375 -9.2 1.9
L -8.5 1.3
Q -18.253515625 6.6705078125 -20.05 15.35
L -20.05 15.4
Q -21.9291015625 24.716796875 -17.15 32.1 -8.7962890625 45.237890625 11 41.45 11.162109375 41.4291015625 11.25 41.35 13.279296875 40.975 15.4 40.4 30.3787109375 36.4216796875 42 18.5 44.2009765625 15.115625 45.75 11.95
L 45.75 11.9
Q 47.5208984375 8.1666015625 48.35 4.75 49.3619140625 0.556640625 48.75 -2.1
L 48.75 -2.1
Q 48.2580078125 -4.2615234375 46.85 -5.55
L 46.9 -5.55
M 28.2 -4.75
Q 32.940625 -5.5923828125 36.5 -5.6
L 11.5 5.5
Q 9.87421875 2.86640625 6.05 1.95 17.980859375 -2.937109375 28.2 -4.75
M 40.2 -5.35
L 40.2 -5.35
Q 43.229296875 -4.827734375 44.8 -3.35
L 44.85 -3.35
Q 45.5666015625 -2.65234375 45.85 -1.5
L 22.95 11.5
Q 19.8712890625 7.8109375 12.6 8.05 12.3978515625 7.1595703125 12 6.4
L 38.8 -5.5
Q 39.5380859375 -5.4392578125 40.2 -5.35
M 45.45 4.05
Q 44.6708984375 7.1671875 43.05 10.6
L 43.05 10.6
Q 42.69375 11.384765625 42.25 12.15
L 22.55 26.25
Q 22.478515625 25.676953125 22.3 25.1 27.62890625 19.3095703125 24.15 13.3
L 24.15 13.3
Q 23.8908203125 12.809375 23.55 12.35
L 45.95 -0.45
Q 46.0837890625 1.4330078125 45.45 4.05
M 22.65 27.95
Q 22.66171875 27.693359375 22.65 27.4
L 41.1 14.25
Q 40.3603515625 15.5462890625 39.5 16.85 30.1486328125 31.27578125 18.55 36.15 22.58046875 32.1900390625 22.65 27.95 Z"/>
</g>

<g id="FS_Skull_0_Layer0_0_FILL">
<path fill="#FDF6AE" stroke="none" d="
M -13.1 -42.35
Q -21.1 -39.7 -28.55 -34.05 -31.85 -31.5 -35.3 -27.95 -40.25 -22.8 -42.85 -11.5 -44.6458984375 -3.5529296875 -44.85 1.85 -45.012890625 7.3087890625 -44.25 14.15 -43.4365234375 20.9841796875 -42.3 24.2 -41.1564453125 27.423828125 -40.55 28.85 -39.898046875 30.31015625 -39.95 31.45
L -33.15 31.55
Q -19.908203125 42.349609375 -3.55 45.95 12.84921875 49.6044921875 18.65 48.75 26.2490234375 43.9646484375 33.6 36.15 40.988671875 28.38125 46 11.5 51.009375 -5.39296875 48.1 -15.3 46.64609375 -20.2318359375 44.05 -24.7 41.2005859375 -29.57109375 36.95 -33.85 25.890625 -44.9564453125 5.35 -45.05 -4.85 -45.1 -13.1 -42.35 Z"/>

<path fill="#EBD463" stroke="none" d="
M -30.35 -36.45
Q -32.1 -35.1 -37.65 -29 -42.2 -23.95 -45 -14.9 -47.8490234375 -5.702734375 -47.6 4.85 -47.3529296875 15.408203125 -45.55 22.45 -43.74609375 29.5390625 -41.05 31.4
L -40.8 31.4
Q -39.876171875 32.57734375 -39.95 31.45 -39.898046875 30.31015625 -40.55 28.85 -41.1564453125 27.423828125 -42.3 24.2 -43.4365234375 20.9841796875 -44.25 14.15 -45.012890625 7.3087890625 -44.85 1.85 -44.6458984375 -3.5529296875 -42.85 -11.5 -40.25 -22.8 -35.3 -27.95 -31.85 -31.5 -28.55 -34.05 -21.1 -39.7 -13.1 -42.35 -4.85 -45.1 5.35 -45.05 25.890625 -44.9564453125 36.95 -33.85 41.2005859375 -29.57109375 44.05 -24.7
L 44.05 -30.2
Q 41.857421875 -33.186328125 39.1 -35.95 27.309765625 -47.94375 5.35 -48.05 -5.4 -48.1 -14.15 -45.2 -22.55 -42.4 -30.35 -36.45 Z"/>
</g>

<g id="Mask_Mask_FS_EyeWhite_3_4far_0_Layer0_0_FILL">
<path fill="#FFFFFF" stroke="none" d="
M 18.15 -15.65
Q 9.84765625 -21.6255859375 2.55 -22.05 -4.7708984375 -22.42109375 -11.2 -16 -17.4994140625 -9.6044921875 -19.45 -0.2 -21.3234375 9.20390625 -17.7 16 -14.0943359375 22.9564453125 -6.85 23.35 0.433203125 23.78125 9.85 17 19.302734375 10.2376953125 22.85 0.3 26.469140625 -9.6103515625 18.15 -15.65 Z"/>
</g>

<g id="FS_EyeWhite_3_4far_0_Layer0_0_FILL">
<path fill="#FFFFFF" stroke="none" d="
M 18.15 -15.65
Q 9.84765625 -21.6255859375 2.55 -22.05 -4.7708984375 -22.42109375 -11.2 -16 -17.4994140625 -9.6044921875 -19.45 -0.2 -21.3234375 9.20390625 -17.7 16 -14.0943359375 22.9564453125 -6.85 23.35 0.433203125 23.78125 9.85 17 19.302734375 10.2376953125 22.85 0.3 26.469140625 -9.6103515625 18.15 -15.65 Z"/>
</g>

<g id="FS_Iris_2_Layer1_0_FILL">
<path fill="url(#Gradient_1)" stroke="none" d="
M 17.7 -13.05
Q 13.45 -21.1 5.25 -22.95 -3 -24.85 -10.3 -19.4 -17.6 -14 -19.75 -4.45 -20.922265625 0.6119140625 -20 7.1 -19.662109375 8.449609375 -19.2 9.75
L -18.6 11.2
Q -18.1958984375 12.1607421875 -17.7 13.1 -13.45 21.15 -5.2 23 3 24.85 10.3 19.45 17.6 14 19.8 4.5 21.95 -5 17.7 -13.05 Z"/>
</g>

<g id="FS_Iris_2_Layer0_0_FILL">
<path fill="#8AD2D5" stroke="none" d="
M 5.65 8.25
L 0 6.65 13.2 17
Q 15.85 14.1 17.35 11.3 16.4 11.3 5.65 8.25 Z"/>
</g>

<g id="FS_Iris_2_Layer0_1_FILL">
<path fill="#3DBFBB" stroke="none" d="
M 17.2 11.6
Q 18.75 8.4 19.6 5.3 9.55 6.05 -0.4 6.65
L 17.2 11.6 Z"/>
</g>

<g id="FS_Pupil_0_Layer0_0_FILL">
<path fill="#000000" stroke="none" d="
M 12.45 -9.9
Q 10.5203125 -16.0232421875 5.5 -17.5 0.487109375 -18.9470703125 -4.7 -14.9 -9.854296875 -10.7671875 -12.15 -3.55 -14.402734375 3.7013671875 -12.5 9.8 -10.484375 16.0318359375 -5.45 17.5 -0.4265625 18.9556640625 4.7 14.8 9.91484375 10.7759765625 12.15 3.55 14.43828125 -3.692578125 12.45 -9.9 Z"/>
</g>

<g id="FS_Hilights_0_Layer1_0_FILL">
<path fill="#FFFFFF" stroke="none" d="
M -8.15 11.5
Q -8.11953125 11.614453125 -8.1 11.7 -8.0240234375 11.8134765625 -7.95 11.95 -7.7912109375 12.381640625 -7.55 12.75 -7.4705078125 12.844140625 -7.4 12.9 -7.2078125 13.113671875 -6.95 13.3 -6.50546875 13.6888671875 -6.05 13.8 -5.996875 13.8515625 -5.95 13.85 -5.6171875 13.9560546875 -5.2 13.95 -3.9484375 13.97890625 -3.4 12.75 -3.3849609375 12.698046875 -3.4 12.65 -3.1736328125 12.1291015625 -3.25 11.35 -3.259765625 11.128515625 -3.35 10.85 -3.3462890625 10.7740234375 -3.4 10.7 -3.7330078125 9.7962890625 -4.4 9.15 -4.435546875 9.108203125 -4.5 9.05 -4.72890625 8.870703125 -4.9 8.75 -5.579296875 8.305859375 -6.3 8.4 -7.123828125 8.352734375 -7.65 8.9 -7.813671875 9.0921875 -8 9.35 -8.0568359375 9.446484375 -8.1 9.55 -8.510546875 10.357421875 -8.15 11.5
M 3.85 -8.7
L 3.8 -8.75
Q 1.3921875 -11.8771484375 -1.15 -11.7 -4.233984375 -11.8736328125 -5.6 -8.2
L -5.6 -8.15
Q -6.528125 -5.45625 -5.75 -1.6 -5.0052734375 2.07265625 -3.05 4.6
L -3.05 4.6
Q -0.6041015625 7.82109375 2 7.65 5.12890625 7.837890625 6.4 4 7.375390625 1.40078125 6.6 -2.4
L 6.6 -2.45
Q 5.8041015625 -6.1376953125 3.85 -8.7 Z"/>
</g>

<g id="Mask_Mask_FS_EyeWhite_3_4_4_Layer0_0_FILL">
<path fill="#FFFFFF" stroke="none" d="
M 15.3 -16.8
Q 12.05 -25.85 4.7 -27.8 -2.55 -29.75 -9.55 -23.45 -16.6 -17.15 -19.25 -6.25 -21.95 4.7 -18.7 13.75 -15.45 22.8 -8.2 24.8 -0.9 26.75 6.15 20.4 13.2 14.15 15.9 3.2 18.6 -7.7 15.3 -16.8 Z"/>
</g>

<g id="FS_EyeWhite_3_4_0_Layer0_0_FILL">
<path fill="#FFFFFF" stroke="none" d="
M 15.3 -16.8
Q 12.05 -25.85 4.7 -27.8 -2.55 -29.75 -9.55 -23.45 -16.6 -17.15 -19.25 -6.25 -21.95 4.7 -18.7 13.75 -15.45 22.8 -8.2 24.8 -0.9 26.75 6.15 20.4 13.2 14.15 15.9 3.2 18.6 -7.7 15.3 -16.8 Z"/>
</g>

<g id="FS_Iris_0_Layer1_0_FILL">
<path fill="url(#Gradient_1)" stroke="none" d="
M 17.7 -13.05
Q 13.45 -21.1 5.25 -22.95 -3 -24.85 -10.3 -19.4 -17.6 -14 -19.75 -4.45 -20.922265625 0.6119140625 -20 7.1 -19.662109375 8.449609375 -19.2 9.75
L -18.6 11.2
Q -18.1958984375 12.1607421875 -17.7 13.1 -13.45 21.15 -5.2 23 3 24.85 10.3 19.45 17.6 14 19.8 4.5 21.95 -5 17.7 -13.05 Z"/>
</g>

<g id="FS_Iris_0_Layer0_0_FILL">
<path fill="#8AD2D5" stroke="none" d="
M -6.5 8
Q -17.6794921875 11.2681640625 -18.65 11.25 -17.6072265625 14.0123046875 -15.4 16.75
L 0.1 6.75 -6.5 8 Z"/>
</g>

<g id="FS_Iris_0_Layer0_1_FILL">
<path fill="#3DBFBB" stroke="none" d="
M -20.25 5.4
Q -19.7828125 8.4513671875 -18.6 11.3
L 0.4 6.6 -20.25 5.4 Z"/>
</g>

<g id="FS_Blink_3_4far_100_Layer9_0_FILL">
<path fill="#000000" stroke="none" d="
M 7.7 -10.65
Q 6.848046875 -23.696875 3.45 -23.25 0.54765625 -22.861328125 -2.55 -14.25 -2.29921875 -14.7767578125 -2.05 -15.3 0.6708984375 -20.888671875 2.6 -21.15 4.5849609375 -21.360546875 5.7 -15.1 6.79921875 -8.811328125 6.45 0.25 6.1400390625 9.3076171875 4.55 15.75 4.32890625 16.8455078125 4.05 17.75 4.808984375 15.928125 5.35 13.5 5.7642578125 11.9158203125 6.05 10.15 6.2 9.5484375 6.25 8.8 6.7927734375 5.698046875 7.3 0.6 7.81484375 -4.44296875 7.7 -10.65 Z"/>
</g>

<g id="FS_Blink_3_4_100_Layer5_0_FILL">
<path fill="#000000" stroke="none" d="
M 3.9 -28.3
Q 2.6283203125 -28.579296875 1.35 -28.7 -4.6439453125 -29.078515625 -10.25 -24.75 -11.7181640625 -23.5576171875 -13 -22.2 -17.4087890625 -17.401953125 -18.9 -10.25 -19.5439453125 -6.9607421875 -19.9 -3.95 -20.534765625 1.5740234375 -20.15 6.3 -20.158203125 1.678125 -18.95 -3.35 -18.7609375 -4.0185546875 -18.6 -4.7 -15.8228515625 -14.6240234375 -9.25 -20.6 -8.2265625 -21.4708984375 -7.25 -22.2 -2.98359375 -25.279296875 1.35 -25.4 3.191796875 -25.4208984375 5.05 -24.95 12.382421875 -22.959765625 15.65 -13.95 16.3888671875 -11.873828125 16.8 -9.75 16.4884765625 -14.0923828125 14.85 -18.1 11.35234375 -26.50703125 3.9 -28.3 Z"/>
</g>

<g id="FS_Blink_3_4_100_Layer3_0_FILL">
<path fill="#000000" stroke="none" d="
M 19.9 21.9
Q 19.8900390625 20.123046875 18.8 18.85 17.9013671875 17.8021484375 16.25 17.1 13.638671875 15.9990234375 11.35 16.2
L 10.15 18
Q 14.18828125 17.88203125 16.95 19.45 17.7076171875 19.8939453125 18.4 20.45 19.2048828125 21.0845703125 19.9 21.9
M 10 18.55
L 8.75 20.05
Q 11.8150390625 21.620703125 12.95 24.6 13.6880859375 26.43359375 13.95 28.65 15.7818359375 24.8724609375 13.7 21.65 12.176953125 19.2923828125 10 18.55
M 6.45 22.2
L 4.6 23.6
Q 6.1939453125 26.837109375 5.95 29.8 5.6958984375 32.807421875 7.05 29.05 8.4173828125 25.300390625 6.45 22.2 Z"/>
</g>

<g id="FS_Brow_3_4_29_Layer4_0_FILL">
<path fill="#FDF6AE" stroke="none" d="
M -0.25 -22.3
Q -10.242578125 -28.380078125 -21.65 -26.75 -33.0466796875 -25.1162109375 -39.4 -3.95 -31.1337890625 0.690234375 -25.8 3.3 -20.44140625 5.9060546875 -17.1 8.65 -14.9080078125 10.4009765625 -13 9.25 -12.1193359375 9.43125 -10.95 9.55 -5.0814453125 10.1859375 -5.2 12.15 0.293359375 11.64375 0.85 12.15 3.3615234375 13.0763671875 6.2 13.15 6.58828125 13.233984375 6.85 13.35
L 10.6 12.7
Q 10.987890625 12.481640625 11.4 12.25 14.4958984375 3.4396484375 12.4 -5.25 9.7970703125 -16.213671875 -0.25 -22.3 Z"/>
</g>

<g id="FS_Brow_3_4_29_Layer3_0_FILL">
<path fill="#000000" stroke="none" d="
M 6 12.4
Q 3.5986328125 12.1720703125 0.6 14.45 2.4720703125 14.8287109375 4.55 14.9 10.012890625 15.2470703125 12.75 13.85 15.45546875 12.4181640625 17.1 10.45 11.0330078125 12.9857421875 6 12.4 Z"/>
</g>

<g id="FS_Brow_3_4_29_Layer2_0_FILL">
<path fill="#000000" stroke="none" d="
M -36.3 -13.95
Q -39.115625 -10.8048828125 -40.05 -7.75 -40.6080078125 -5.6642578125 -40.45 -3.95 -33.54375 3.761328125 -16.45 10 -15.81484375 10.213671875 -15.2 10.4
L -15.2 10.45
Q -0.7919921875 15.352734375 7.25 14.8 8.5453125 14.89140625 9.65 14.2 10.009765625 13.9060546875 9.6 13.5 -1.411328125 12.3291015625 -14.3 8.05 -15.1640625 7.8005859375 -16.05 7.5 -32.8822265625 1.0169921875 -37.3 -5.15 -37.3892578125 -5.7390625 -37.35 -6.5 -37.29375 -7.265625 -37.1 -8.1 -36.9033203125 -8.894921875 -36.7 -9.65 -36.57265625 -10.366015625 -35.65 -13.45
L -36.3 -13.95 Z"/>
</g>

<g id="FS_Brow_3_4_29_Layer1_0_FILL">
<path fill="#000000" stroke="none" d="
M -10.5 9.5
Q -8.48203125 12.2962890625 -8.4 12.35 -5.7837890625 13.4919921875 -1.65 10.7 2.52734375 7.851171875 2.55 4.95 -0.3201171875 7.723046875 -3.5 9 -7.1251953125 10.5080078125 -10.5 9.5 Z"/>
</g>

<g id="FS_Brow_3_4_29_Layer0_0_FILL">
<path fill="#000000" stroke="none" d="
M 5 13.4
Q 9.330859375 12.0609375 11.3 8.35 4.1115234375 12.8724609375 -4.05 11.7 -1.82890625 13.35390625 -1.7 13.4 1.215625 14.6572265625 5 13.4 Z"/>
</g>

<g id="FS_Brow_3_4rear_59_Layer5_0_FILL">
<path fill="#FFF8AD" stroke="none" d="
M -8.45 -24.2
Q -13.05 -26.5 -15.25 -6.1 -8.4 1.05 0.8 1.85 1.948046875 -13.9951171875 -8.45 -24.2 Z"/>
</g>

<g id="FS_Brow_3_4rear_59_Layer4_0_FILL">
<path fill="#000000" stroke="none" d="
M 0.45 1.3
L 2.55 2.85
Q 7.4 1.05 7.1 -1.15 4 1.7 0.45 1.3 Z"/>
</g>

<g id="FS_Brow_3_4rear_59_Layer3_0_FILL">
<path fill="#000000" stroke="none" d="
M -15.05 -7.95
Q -14.75 -11.05 -13.75 -14.1 -13.6 -14.75 -14.55 -14.15 -17.15 -10.65 -17.1 -7.8
L -15.05 -7.95 Z"/>
</g>

<g id="FS_Brow_3_4rear_59_Layer2_0_FILL">
<path fill="#000000" stroke="none" d="
M -15.15 -8.15
L -17.15 -7.85
Q -13.05 -1.15 -1.85 2.7 9.3 6.55 12.25 3.95 -6.2 1.65 -15.15 -8.15 Z"/>
</g>

<g id="FS_Brow_3_4rear_59_Layer1_0_FILL">
<path fill="#000000" stroke="none" d="
M 10.5 0.65
Q 10.4 0.7 10.35 0.75 7.5 2.95 3 2.25 3.5 2.95 5.5 3.9 9.5 3.6 10.4 0.8 10.45 0.7 10.5 0.65 Z"/>
</g>

<g id="FS_Cheek_7_Layer1_0_FILL">
<path fill="#FDF6AE" stroke="none" d="
M -2.35 2.5
Q -2.3072265625 2.607421875 -2.25 2.7
L 0.2 9
Q 4.75859375 11.6375 8 12.7 12.8921875 7.344140625 15.05 0.7 9.3966796875 -0.4880859375 4.55 -0.05 2.1732421875 -0.0431640625 -0.1 0 -1.8263671875 0.0095703125 -2.7 -0.1 -3.023046875 -0.033984375 -3.35 0
L -2.35 2.5 Z"/>

<path fill="#EBD564" stroke="none" d="
M 15.55 -0.9
Q 9.4283203125 -2.1779296875 4.1 -1.85 0.9037109375 -1.454296875 -2.1 -1.2
L -2.15 -1.15
Q -4.71953125 -0.3283203125 -2.7 -0.1 -1.8263671875 0.0095703125 -0.1 0 2.1732421875 -0.0431640625 4.55 -0.05 9.3966796875 -0.4880859375 15.05 0.7 15.3103515625 -0.0861328125 15.55 -0.9 Z"/>
</g>

<g id="FS_Mouth_3_4_14_Layer10_0_FILL">
<path fill="#FDF6AE" stroke="none" d="
M -24.5 -8.35
Q -24.592578125 -7.3197265625 -23.95 -6.5 -10.1201171875 11.1193359375 15.85 16.75 19.967578125 17.2029296875 26.5 14.35 -2.0705078125 7.620703125 -11.25 -1.45 -20.419921875 -10.4630859375 -22.15 -12.2 -24.358984375 -9.365234375 -24.5 -8.35 Z"/>
</g>

<g id="FS_Nose_0_Layer1_0_FILL">
<path fill="#EBD463" stroke="none" d="
M -7.75 8.1
Q -4.5 6.85 -3.1 5.35 -1.05 3.05 0 0.2 0.053125 0.082421875 0.1 -0.05 0.0193359375 0.06484375 -0.1 0.15 -0.1197265625 0.2525390625 -0.2 0.3 -1.06796875 1.53046875 -2.1 2.4 -2.786328125 3.0109375 -3.55 3.45 -3.8748046875 3.6556640625 -4.25 3.85 -5.3 4.4 -8 5.15
L -12.35 6.4
Q -13.35 6.8 -13.95 7.2 -14.7142578125 7.8189453125 -15.1 8.6 -16.4 10.85 -15.3 14.1 -13.65 14.25 -12.75 13.7
L -12.35 13.45
Q -12.9 11.85 -12.3 10.55 -11.8 9.35 -10.8 8.95
L -7.75 8.1 Z"/>

<path fill="#FDF6AE" stroke="none" d="
M 0.1 0
L 0 0.2
Q -1.05 3.05 -3.1 5.35 -4.5 6.85 -7.75 8.1
L -10.8 8.95
Q -11.8 9.35 -12.3 10.55 -12.9 11.85 -12.35 13.45
L -12.75 13.7
Q -11.2017578125 19.790234375 -8.2 21.65 -5.2095703125 23.5673828125 -3.45 24.6 -0.59609375 24.3787109375 3.55 21.4 5.2333984375 18.342578125 6.5 15.75 4.45 10.5 3 6.15 1.85 -0.4 1.15 -0.7 0.65 -0.9 0.1 0 Z"/>
</g>

<g id="FS_Mouth_3_4_14_Layer7_0_FILL">
<path fill="#FDF6AE" stroke="none" d="
M 31.2 14
Q 30.612890625 14 30 14 -1.05 14 -14.8 0.5 -16.4630859375 -1.1271484375 -17.8 -2.9
L -17.8 0.6
Q -14.4185546875 8.9435546875 -16.8 13.35 -17.518359375 14.713671875 -18.8 15.7 -18.6265625 16.322265625 -13.3 17.75 -13.0880859375 17.82578125 -12.9 17.85 -4.5541015625 20.055078125 6.35 19.2 16.655859375 18.46171875 31.2 14 Z"/>

<path fill="#EBD463" stroke="none" d="
M 10.7 21.05
Q 25.5837890625 18.8419921875 31.7 14 31.4662109375 13.998046875 31.2 14 16.655859375 18.46171875 6.35 19.2 -4.5541015625 20.055078125 -12.9 17.85 -13.0880859375 17.82578125 -13.3 17.75 -18.6265625 16.322265625 -18.8 15.7
L -24 16.95
Q -19.55 19.2 -14.15 20.7 -4.5 23.3244140625 10.7 21.05 Z"/>
</g>

<g id="FS_Teeth_15_Layer2_0_FILL">
<path fill="#B1D5E6" stroke="none" d="
M -8.85 2.05
Q -5.0044921875 6.314453125 -1 9.15
L 0.8 7.95
Q -1.4328125 6.524609375 -6.45 1.65 -6.6060546875 1.465625 -6.8 1.25 -7.0314453125 1.2892578125 -8.85 2.05
M 5.65 -6.15
Q 5.6404296875 -6.0994140625 5.6 -6.1
L 5.7 -5.95 5.65 -6.15 Z"/>

<path fill="#FFFFFF" stroke="none" d="
M 5.7 -5.95
L 5.7 -5.95 5.6 -6.1 3.3 -10.25
Q 0.97578125 -2.206640625 -3.45 0.1 -5.2927734375 1.08984375 -6.45 1.65 -1.4328125 6.524609375 0.8 7.95
L 0.8 8 0.85 8
Q 4.6091796875 4.0080078125 5.8 1.1 7.298828125 -3.1505859375 5.7 -5.95 Z"/>
</g>

<g id="FS_Teeth_15_Layer0_0_FILL">
<path fill="#B1D5E6" stroke="none" d="
M 6.9 -0.95
L 6.9 -3.35
Q 6.5203125 -2.9240234375 6.45 -2.85 6.1783203125 -2.5427734375 5.9 -2.25 3.9716796875 -0.2205078125 2.1 1.1
L 1.2 1.8
Q 1.90703125 1.766796875 2.6 1.55 2.712890625 1.5283203125 2.8 1.5 2.94765625 1.4560546875 3.1 1.4 4.8927734375 0.7587890625 6.9 -0.95 Z"/>
</g>

<g id="FS_Mouth_3_4_14_Layer4_0_FILL">
<path fill="#EBD463" stroke="none" d="
M -17.4 -0.2
Q -17.4068359375 -0.1623046875 -17.45 -0.15 -18.3173828125 4.8150390625 -20.6 6.8 -24.2 9.9 -27.25 8.9 -32.75 7.1 -35.55 -0.5
L -38.45 0.3
Q -36.9 4.55 -34.05 7.75 -30.95 11.25 -27.7 11.85 -25.15 12.35 -21.9 10.7 -18.65 9.05 -17.65 6.65 -16.98046875 5.0958984375 -16.9 3.45 -15.4951171875 7.3306640625 -17.1 10.75 -18.7 14.15 -24.05 16.95 -22.95 17.15 -20.55 17.3 -16.4 15.85 -15 11.65 -12.7560546875 5.4671875 -17.4 -0.15 -17.387109375 -0.159375 -17.4 -0.2 Z"/>
</g>

<g id="FS_Nostril_3_4_0_Layer0_0_FILL">
<path fill="#EBD463" stroke="none" d="
M 1.2 2.35
Q 2.95 1.9 2.55 -2.4 1.95 0.3 0.6 0.75 -0.8 1 -2.6 0.3 -0.65 2.55 1.2 2.35 Z"/>
</g>

<g id="FS_Cheek_0_Layer1_0_FILL">
<path fill="#FDF6AE" stroke="none" d="
M -13.65 -3.75
Q -16.0267578125 -3.7431640625 -18.3 -3.7 -20.0263671875 -3.6904296875 -20.9 -3.8 -21.223046875 -3.733984375 -21.55 -3.7
L -20.55 -1.2
Q -20.5072265625 -1.092578125 -20.45 -1
L -18 5.3
Q -0.6107421875 15.3609375 11.3 8.45 14.9248046875 5.441796875 14.75 2.15 13.9091796875 2.18671875 12.85 2 11.7677734375 1.863671875 10.45 1.45 9.4078125 1.183203125 8.2 0.75 -4.2572265625 -4.6009765625 -13.65 -3.75 Z"/>

<path fill="#EBD564" stroke="none" d="
M -18.3 -3.7
Q -16.0267578125 -3.7431640625 -13.65 -3.75 -4.2572265625 -4.6009765625 8.2 0.75 9.4078125 1.183203125 10.45 1.45 11.7677734375 1.863671875 12.85 2 13.9091796875 2.18671875 14.75 2.15 14.90078125 2.1408203125 15.05 2.1 14.90234375 2.0078125 14.75 1.9 14.6515625 1.8080078125 14.55 1.7 13.4794921875 0.9662109375 12.35 0.4 -2.715234375 -6.280859375 -14.1 -5.55 -17.2962890625 -5.154296875 -20.3 -4.9
L -20.35 -4.85
Q -22.91953125 -4.0283203125 -20.9 -3.8 -20.0263671875 -3.6904296875 -18.3 -3.7 Z"/>
</g>

<g id="FS_Cheek_0_Layer0_0_FILL">
<path fill="#EBD564" stroke="none" d="
M -18 -1.55
L -17.9 -1.35
Q -17.54609375 -1.069921875 -16.4 -0.6
L -16.4 -0.6
Q -13.845703125 0.619140625 -10.8 1.65
L -7.85 2.15
Q -12.6994140625 -0.2359375 -14.55 -1.05 -17.6279296875 -1.697265625 -18 -1.55 Z"/>
</g>

<g id="FS_Hair_05_6_Layer1_0_FILL">
<path fill="#F4B6D1" stroke="none" d="
M 44.85 -1.7
Q 45.0072265625 -1.6888671875 45.15 -1.65
L 46.75 -15.7
Q 25.59609375 -25.4107421875 14.9 -28.1 4.19453125 -30.730078125 -0.4 -30.85 -1.9265625 -30.899609375 -3.4 -30.9 -13.0154296875 -30.8923828125 -20.3 -28.9 -25.0646484375 -27.6130859375 -28.65 -25.35 -29.1216796875 -25.0056640625 -29.6 -24.7 -31.149609375 -23.5447265625 -32.5 -22.2 -37.7373046875 -16.8763671875 -37.1 -9.8 -36.4919921875 -3.765625 -30.55 1.75 -26.7609375 5.309375 -19.3 9.65 -17.7314453125 10.588671875 -16.2 11.45 -23.896875 1.6408203125 -25.75 -8.35 -26.600390625 -13.3396484375 -24.8 -17.05 -24.262890625 -18.1337890625 -23.55 -19.05 -23.1810546875 -19.4212890625 -22.8 -19.8 -16.8134765625 -23.64453125 -14.4 -23.4 -16.087109375 -22.51796875 -18.1 -20.75 -18.3064453125 -20.5287109375 -19.1 -18.85 -22.6162109375 -16.757421875 -22.9 -11.1 -22.8787109375 -9.66953125 -22.65 -8.05 -21.5970703125 -0.6306640625 -14.4 12.45 -7.7728515625 16.0533203125 -1.85 18.6 2.8609375 10.20625 13 4.75 27.18359375 -2.7615234375 44.85 -1.7 Z"/>

<path fill="#E781B3" stroke="none" d="
M 46.4 -1.05
Q 45.74453125 -1.531640625 45.15 -1.65 45.0072265625 -1.6888671875 44.85 -1.7 27.18359375 -2.7615234375 13 4.75 2.8609375 10.20625 -1.85 18.6 -7.7728515625 16.0533203125 -14.4 12.45 -21.5970703125 -0.6306640625 -22.65 -8.05 -22.8787109375 -9.66953125 -22.9 -11.1 -22.6162109375 -16.757421875 -19.1 -18.85 -18.3064453125 -20.5287109375 -18.1 -20.75 -16.087109375 -22.51796875 -14.4 -23.4 -16.8134765625 -23.64453125 -22.8 -19.8 -23.1810546875 -19.4212890625 -23.55 -19.05 -24.262890625 -18.1337890625 -24.8 -17.05 -26.600390625 -13.3396484375 -25.75 -8.35 -23.896875 1.6408203125 -16.2 11.45 -17.7314453125 10.588671875 -19.3 9.65 -26.7609375 5.309375 -30.55 1.75 -36.4919921875 -3.765625 -37.1 -9.8 -37.7373046875 -16.8763671875 -32.5 -22.2 -31.149609375 -23.5447265625 -29.6 -24.7 -29.1216796875 -25.0056640625 -28.65 -25.35 -25.0646484375 -27.6130859375 -20.3 -28.9 -13.0154296875 -30.8923828125 -3.4 -30.9 -1.9265625 -30.899609375 -0.4 -30.85 4.19453125 -30.730078125 14.9 -28.1 25.59609375 -25.4107421875 46.75 -15.7
L 46.75 -17.45
Q 35.0609375 -24.2701171875 21.35 -28.55 7.63359375 -32.83828125 -1.55 -33.1 -3.0681640625 -33.1498046875 -4.55 -33.15 -7.482421875 -33.1302734375 -10.05 -32.95 -23.183984375 -31.9404296875 -30.75 -27.3 -31.2244140625 -26.97890625 -31.7 -26.65 -32.876171875 -25.8611328125 -33.9 -25 -38.5765625 -20.8259765625 -39.9 -15.2 -41.2564453125 -9.2060546875 -38.2 -4 -33.231640625 4.43046875 -19.85 11.85 -16.0212890625 14.0046875 -12.5 15.8 -7.328125 18.4634765625 -2.8 20.45 -1.280859375 21.08046875 0.15 21.65 0.2982421875 21.348828125 0.45 21.05 0.5068359375 20.92421875 0.55 20.8 0.57578125 20.750390625 0.6 20.7 0.8345703125 20.255859375 1.05 19.8 5.585546875 11.604296875 15.35 6.2 29.0423828125 -1.3970703125 46.15 -0.4 47.4796875 -0.3171875 46.55 -0.95 46.47734375 -1.0060546875 46.4 -1.05 Z"/>
</g>

<g id="FS_Ear_2_Layer1_0_FILL">
<path fill="#FDF6AE" stroke="none" d="
M 1.5 -40.65
L 1.5 -40.65
Q -0.4720703125 -42.0763671875 -1.65 -42.55 -5.2015625 -39.616015625 -8.75 -30.45 -12.8826171875 -19.8533203125 -13.5 -10.8 -13.2416015625 -5.48203125 -6.75 -4.1 10.447265625 18.96171875 13 20.6
L 13.75 19.35 13.75 19.3
Q 18.0880859375 12.2681640625 18.8 3.65 19.183984375 -1.172265625 18.35 -9.35 16.7498046875 -23.881640625 8 -34.45 4.9296875 -38.1494140625 1.5 -40.65
M 6.95 -13.2
Q 6.291796875 -19.99140625 4.05 -26.35 7.77265625 -21.4501953125 8.95 -11.4 10.08671875 -1.7115234375 6.85 4.85 6.771484375 5.1154296875 6.65 5.35 6.691796875 5.0984375 6.7 4.85 6.738671875 4.7623046875 6.75 4.65 7.920703125 -3.00390625 6.95 -13.2 Z"/>

<path fill="#EBD463" stroke="none" d="
M 4.05 -26.35
Q 6.291796875 -19.99140625 6.95 -13.2 7.920703125 -3.00390625 6.75 4.65 6.738671875 4.7623046875 6.7 4.85 6.691796875 5.0984375 6.65 5.35 6.771484375 5.1154296875 6.85 4.85 10.08671875 -1.7115234375 8.95 -11.4 7.77265625 -21.4501953125 4.05 -26.35
M 10.3 -36.35
Q 6.9703125 -40.35078125 3.25 -43.05
L 3.25 -43.1
Q -0.0212890625 -45.455078125 -1.7 -45.7 -2.28046875 -45.777734375 -2.8 -45.45 -7.2623046875 -42.6033203125 -11.55 -31.55 -16.017578125 -20.0462890625 -13.5 -10.8 -12.8826171875 -19.8533203125 -8.75 -30.45 -5.2015625 -39.616015625 -1.65 -42.55 -0.4720703125 -42.0763671875 1.5 -40.65
L 1.5 -40.65
Q 4.9296875 -38.1494140625 8 -34.45 16.7498046875 -23.881640625 18.35 -9.35 19.183984375 -1.172265625 18.8 3.65 18.0880859375 12.2681640625 13.75 19.3
L 13.75 19.35 13 20.6
Q 16.1837890625 19.6201171875 19.2 12.85 20.660546875 8.46875 21.4 3.15 21.8 0.25 21.8 -2.6 21.75 -5.35 21.35 -9.65
L 21.35 -9.7
Q 19.642578125 -25.1271484375 10.3 -36.35 Z"/>
</g>

<g id="FS_Hair_03_9_Layer1_0_FILL">
<path fill="#F4B6D1" stroke="none" d="
M -15.3 20.95
Q -12.4958984375 13.1728515625 -10.55 1.95 -9.33515625 -5.08984375 -9.55 -10.7 -19.1537109375 -4.50703125 -22.45 10.95
L -24.65 20.6
Q -26.1009765625 26.412890625 -27.65 29.9 -30.7328125 37.108203125 -36 40.55 -40.547265625 43.6015625 -46.75 41.9 -53.25546875 40.2078125 -54 34.7 -54.1966796875 33.023046875 -53.4 31.7
L -54.25 31.65
Q -54.567578125 32.483203125 -54.85 33.4 -56.44765625 38.8580078125 -55.55 44.6 -54.0509765625 45.4767578125 -52.3 46.15 -44.3921875 49.1947265625 -37.1 47.4 -24.8828125 44.4599609375 -17 25.3 -16.0857421875 23.177734375 -15.3 20.95
M -45 58.35
Q -47.4171875 57.7123046875 -49.85 56.8 -43.181640625 63.76328125 -30.8 62.4 -19.2693359375 61.159375 -10.15 54.45 -15.8212890625 56.9150390625 -22.25 58.5 -33.6568359375 61.3353515625 -44.95 58.35
L -45 58.35
M 18.55 -4.05
Q 15.61015625 -10.8939453125 2 -12.95 -3.3474609375 -13.4736328125 -7.75 -11.45
L -9.05 1.95
Q -10.46640625 12.28828125 -13.4 21 -15.2298828125 26.7404296875 -17.7 31.55 -26.0580078125 47.8919921875 -39.4 48.65 -46.0513671875 49.0701171875 -52.45 46.6 -53.3029296875 46.301953125 -54.15 45.9 -54.8228515625 45.619140625 -55.45 45.3 -54.4109375 51.08359375 -51.1 55.3 -50.7478515625 55.77734375 -50.4 56.2 -47.5982421875 57.353515625 -44.9 58.05 -32.5521484375 61.378515625 -16 55.6 -11.0904296875 53.905078125 -6.15 51.05
L -6.1 51
Q 1.2689453125 43.7201171875 8.5 29.35 10.1947265625 26.087109375 12 21.95
L 18.55 6.45
Q 19.9310546875 1.2 18.55 -4.05 Z"/>

<path fill="#E781B3" stroke="none" d="
M 15.15 22.05
L 21.05 7.95
Q 27.2802734375 -12.8650390625 1.4 -15.55 -19.2064453125 -17.0857421875 -26.85 16.85 -27.3349609375 18.456640625 -27.8 20.45 -28.283203125 22.6013671875 -28.7 23.95 -30.8541015625 31.1642578125 -34.55 35.45 -37.190234375 38.5373046875 -40.45 39.8 -44.2509765625 41.2671875 -47.6 39.4 -49.7681640625 38.1873046875 -50.7 36.1 -51.13828125 35.01328125 -51 34.05 -50.4685546875 32.0548828125 -53.4 31.7 -54.1966796875 33.023046875 -54 34.7 -53.25546875 40.2078125 -46.75 41.9 -40.547265625 43.6015625 -36 40.55 -30.7328125 37.108203125 -27.65 29.9 -26.1009765625 26.412890625 -24.65 20.6
L -22.45 10.95
Q -19.1537109375 -4.50703125 -9.55 -10.7 -9.33515625 -5.08984375 -10.55 1.95 -12.4958984375 13.1728515625 -15.3 20.95 -16.0857421875 23.177734375 -17 25.3 -24.8828125 44.4599609375 -37.1 47.4 -44.3921875 49.1947265625 -52.3 46.15 -54.0509765625 45.4767578125 -55.55 44.6 -56.44765625 38.8580078125 -54.85 33.4 -54.567578125 32.483203125 -54.25 31.65 -57.707421875 30.8158203125 -58.35 33.45 -58.6986328125 34.9080078125 -58.9 36.55 -59.1798828125 39.5009765625 -59 42.25 -58.9359375 42.7412109375 -58.9 43.2 -58.433984375 47.1412109375 -56.95 50.65 -56.164453125 52.3900390625 -55.2 53.9
L -55.25 53.9
Q -54.94921875 54.3236328125 -54.65 54.7 -50.581640625 60.4970703125 -43.2 63 -34.3453125 66.018359375 -24 63.55 -11.4810546875 60.579296875 -1.55 49.9 0.5052734375 47.6896484375 2.45 45.15 7.0185546875 39.1833984375 10.95 31.4 12.088671875 29.206640625 15.15 22.05
M 2 -12.95
Q 15.61015625 -10.8939453125 18.55 -4.05 19.9310546875 1.2 18.55 6.45
L 12 21.95
Q 10.1947265625 26.087109375 8.5 29.35 1.2689453125 43.7201171875 -6.1 51
L -6.15 51.05
Q -11.0904296875 53.905078125 -16 55.6 -32.5521484375 61.378515625 -44.9 58.05 -47.5982421875 57.353515625 -50.4 56.2 -50.7478515625 55.77734375 -51.1 55.3 -54.4109375 51.08359375 -55.45 45.3 -54.8228515625 45.619140625 -54.15 45.9 -53.3029296875 46.301953125 -52.45 46.6 -46.0513671875 49.0701171875 -39.4 48.65 -26.0580078125 47.8919921875 -17.7 31.55 -15.2298828125 26.7404296875 -13.4 21 -10.46640625 12.28828125 -9.05 1.95
L -7.75 -11.45
Q -3.3474609375 -13.4736328125 2 -12.95
M -49.85 56.8
Q -47.4171875 57.7123046875 -45 58.35
L -44.95 58.35
Q -33.6568359375 61.3353515625 -22.25 58.5 -15.8212890625 56.9150390625 -10.15 54.45 -19.2693359375 61.159375 -30.8 62.4 -43.181640625 63.76328125 -49.85 56.8 Z"/>
</g>

<g id="FS_Hair_01_6_Layer3_0_FILL">
<path fill="#F4B6D1" stroke="none" d="
M 66.05 0.45
L 66.05 0.45
Q 56.248828125 -1.5083984375 46.45 -2.8 50.448046875 1.739453125 53.8 6.3 72.092578125 31.308203125 79.55 67 82.0259765625 78.731640625 83.45 100.25 84.6201171875 118.52109375 82.5 132.75 81.641015625 138.4892578125 80.35 143.6
L 109.75 137.85
Q 111.1134765625 127.9126953125 111.55 118.55 113.2025390625 84.8697265625 107.25 60.5 100.2705078125 31.7341796875 77.5 10.05 72.437890625 5.2201171875 66.05 0.45
M 13.35 -3.6
Q 15.10625 -3.183984375 16.9 -2.7 18.975 -2.1021484375 21.1 -1.4 21.1982421875 -1.333203125 21.3 -1.3 25.7974609375 0.27734375 29.95 2.55 46.06484375 11.2943359375 57.35 30.4 71.2466796875 53.675 74.75 87.8 76.6654296875 105.787109375 74.9 121.3 73.9478515625 129.8154296875 71.4 137.8 70.653515625 140.0859375 68.65 143.1
L 68.65 143.15 78.55 143.5
Q 81.2462890625 133.5765625 82 122.05 82.81953125 108.7810546875 81.1 88.95 77.7703125 51.408203125 61.75 21.15 55.125390625 8.619140625 45 -3 41.5677734375 -3.42265625 38.1 -3.8 23.7828125 -5.3517578125 13.35 -3.6
M 111.45 32.25
Q 103.1365234375 16.4970703125 91.45 9.3 82.89296875 4.08046875 67.8 0.8 72.2009765625 4.134375 76 7.5 99.53125 28.2556640625 107.8 57.25 114.38359375 80.1328125 113.2 115.35 112.94609375 123.46640625 112.35 130.3
L 112.35 130.35
Q 112.69609375 129.507421875 113 128.75 127.9439453125 92.5828125 121.9 61.25 119.28046875 47.2314453125 111.45 32.25
M 16.8 -2.4
Q 14.655078125 -2.9919921875 12.45 -3.45 10.4029296875 -3.0490234375 7.05 -2.15 3.7126953125 -1.23671875 1.35 0.15 -0.9623046875 1.533203125 -0.95 1.6
L 2.25 6.25
Q 2.5501953125 7 2.45 7.1 2.4248046875 7.19765625 2.5 7.4
L 2.2 7.15
Q 2.022265625 7.031640625 1.75 6.8 3.2001953125 8.1384765625 3.2 8.15 3.2505859375 8.1107421875 3.3 8.05 4.423828125 6.7212890625 7.25 5.25 8.6974609375 4.58671875 10.65 4.05 18.69375 1.9888671875 28.75 7.35 38.0328125 12.2271484375 48.1 27.25 55.95390625 38.9048828125 61.1 52 71.6396484375 78.5599609375 71.7 110.9 71.7787109375 124.3935546875 69.55 137.9
L 69.6 137.85
Q 70.4330078125 135.7861328125 71.05 133.45 74.7470703125 119.8767578125 74.15 100.9 73.3439453125 69.95234375 62.95 44.45 50.776171875 14.398046875 29.75 3 25.4693359375 0.66015625 21.15 -0.95 21.051171875 -0.979296875 20.95 -1 18.8939453125 -1.7763671875 16.8 -2.4 Z"/>

<path fill="#E781B3" stroke="none" d="
M 12.45 -3.45
Q 14.655078125 -2.9919921875 16.8 -2.4 18.8939453125 -1.7763671875 20.95 -1 21.051171875 -0.979296875 21.15 -0.95 25.4693359375 0.66015625 29.75 3 50.776171875 14.398046875 62.95 44.45 73.3439453125 69.95234375 74.15 100.9 74.7470703125 119.8767578125 71.05 133.45 70.4330078125 135.7861328125 69.6 137.85
L 69.55 137.9
Q 71.7787109375 124.3935546875 71.7 110.9 71.6396484375 78.5599609375 61.1 52 55.95390625 38.9048828125 48.1 27.25 38.0328125 12.2271484375 28.75 7.35 18.69375 1.9888671875 10.65 4.05 8.6974609375 4.58671875 7.25 5.25 4.423828125 6.7212890625 3.3 8.05
L 3.3 8.05
Q 3.455859375 8.1515625 3.55 8.1 4.234765625 8.259765625 4.65 9.35 4.6900390625 9.4458984375 4.7 9.55 4.8677734375 9.43828125 5 9.3 14.00078125 2.989453125 25.15 8 34.0220703125 12.090625 42.1 23.1 59.97578125 47.247265625 65.55 79.65 71.13203125 112.058984375 68.15 128.3 65.2140625 144.5359375 65.65 143.9
L 68.65 143.15 68.65 143.1
Q 70.653515625 140.0859375 71.4 137.8 73.9478515625 129.8154296875 74.9 121.3 76.6654296875 105.787109375 74.75 87.8 71.2466796875 53.675 57.35 30.4 46.06484375 11.2943359375 29.95 2.55 25.7974609375 0.27734375 21.3 -1.3 21.1982421875 -1.333203125 21.1 -1.4 18.975 -2.1021484375 16.9 -2.7 15.10625 -3.183984375 13.35 -3.6 23.7828125 -5.3517578125 38.1 -3.8 41.5677734375 -3.42265625 45 -3 55.125390625 8.619140625 61.75 21.15 77.7703125 51.408203125 81.1 88.95 82.81953125 108.7810546875 82 122.05 81.2462890625 133.5765625 78.55 143.5
L 80.35 143.6
Q 81.641015625 138.4892578125 82.5 132.75 84.6201171875 118.52109375 83.45 100.25 82.0259765625 78.731640625 79.55 67 72.092578125 31.308203125 53.8 6.3 50.448046875 1.739453125 46.45 -2.8 56.248828125 -1.5083984375 66.05 0.45
L 66.05 0.45
Q 72.437890625 5.2201171875 77.5 10.05 100.2705078125 31.7341796875 107.25 60.5 113.2025390625 84.8697265625 111.55 118.55 111.1134765625 127.9126953125 109.75 137.85 110.8515625 140.176953125 112.65 137.75 114.002734375 134.528125 115.5 130.85 122.5345703125 113.7681640625 124.95 97.65 127.808203125 78.541015625 125.65 65.35 123.0181640625 49.38671875 116.1 35.5 108.194921875 19.4533203125 99.4 12.25 90.0421875 4.54609375 76.3 0.7 71.4796875 -0.615234375 63.85 -2.05
L 63.85 -2.05 62.55 -2.3
Q 62.3439453125 -2.3162109375 62.15 -2.35 56.2626953125 -3.4248046875 48.85 -4.55 46.5068359375 -4.912890625 44.25 -5.25
L 43.9 -5.3
Q 43.359765625 -5.34921875 42.8 -5.45
L 42.85 -5.4
Q 28.2421875 -7.2779296875 18.75 -6.55 11.80625 -6.0287109375 6.4 -4.5
L 5.9 -4.35
Q 1.4357421875 -2.9884765625 -1.95 -0.95 -2.43671875 -0.6041015625 -2.9 -0.1
L -0.95 1.6
Q -0.9623046875 1.533203125 1.35 0.15 3.7126953125 -1.23671875 7.05 -2.15 10.4029296875 -3.0490234375 12.45 -3.45
M 91.45 9.3
Q 103.1365234375 16.4970703125 111.45 32.25 119.28046875 47.2314453125 121.9 61.25 127.9439453125 92.5828125 113 128.75 112.69609375 129.507421875 112.35 130.35
L 112.35 130.3
Q 112.94609375 123.46640625 113.2 115.35 114.38359375 80.1328125 107.8 57.25 99.53125 28.2556640625 76 7.5 72.2009765625 4.134375 67.8 0.8 82.89296875 4.08046875 91.45 9.3 Z"/>
</g>

<g id="FS_Hair_04_9_Layer1_0_FILL">
<path fill="#000000" stroke="none" d="
M 8.7 2.75
L 8.7 2.8 8.75 2.8 8.7 2.75 Z"/>

<path fill="#F4B6D1" stroke="none" d="
M 1.6 -3.15
Q 3.3505859375 -4.7919921875 5.7 -4.3 7.1384765625 -4.0005859375 8.2 -2.75 8.7400390625 -4.8548828125 7.95 -6.95 7.395703125 -8.5333984375 5.1 -7.7 3.3791015625 -7.0580078125 2.1 -5.85 0.4541015625 -4.2232421875 -0.7 -0.4 -0.80390625 -0.021484375 -0.9 0.3
L 0.1 0.35
Q 0.0630859375 -1.7001953125 1.6 -3.15 Z"/>

<path fill="#E781B3" stroke="none" d="
M 5.7 -4.3
Q 3.3505859375 -4.7919921875 1.6 -3.15 0.0630859375 -1.7001953125 0.1 0.35
L 3.1 0.45
Q 3.2353515625 -0.826953125 4.4 -1.9 5.198828125 -2.5912109375 7 0 7.7859375 1.1158203125 8.7 2.75
L 8.75 2.8
Q 8.8837890625 2.687890625 9 2.5 9.5974609375 1.754296875 10.05 0.9 10.905078125 -0.6455078125 11.25 -2.45 11.858984375 -5.4099609375 10.65 -7.7 9.52421875 -9.8265625 6.7 -10.1 4.2296875 -10.3203125 1.95 -9.15 -2.909765625 -6.603125 -4.35 0.2
L -0.9 0.3
Q -0.80390625 -0.021484375 -0.7 -0.4 0.4541015625 -4.2232421875 2.1 -5.85 3.3791015625 -7.0580078125 5.1 -7.7 7.395703125 -8.5333984375 7.95 -6.95 8.7400390625 -4.8548828125 8.2 -2.75 7.1384765625 -4.0005859375 5.7 -4.3 Z"/>
</g>
</defs>

<g transform="matrix( 0.412506103515625, 0, 0, 0.412506103515625, 486.45,301.35) ">
<g transform="matrix( 1.1646728515625, 0, 0, 1, -4.9,146.5) ">
<g transform="matrix( 1.1522064208984375, 0, 0, 1.7481689453125, 4.4,-262.5) ">
<use filter="url(#Filter_1)" xlink:href="#FS_Shadow_0_Layer0_0_FILL"/>
</g>
</g>

<g transform="matrix( -1, 0, -0.0359954833984375, 1, 8.65,23.35) "/>

<g transform="matrix( 0.998443603515625, 0.055755615234375, -0.055755615234375, 0.998443603515625, 65.9,-78.5) ">
<g transform="matrix( -0.9986572265625, -0.0485687255859375, -0.0485687255859375, 0.9986572265625, 0.35,0.35) ">
<g transform="matrix( 1, 0, 0, 1, 0,0) ">
<use xlink:href="#FS_Mane_01_7_Layer1_0_FILL"/>
</g>
</g>

<g transform="matrix( -0.9986572265625, -0.0485687255859375, -0.0485687255859375, 0.9986572265625, -8.8,163.85) ">
<g transform="matrix( 1, 0, 0, 1, 0,0) ">
<use xlink:href="#FS_Mane_02_7_Layer0_0_FILL"/>
</g>
</g>

<g transform="matrix( -0.9986572265625, -0.0485687255859375, -0.0485687255859375, 0.9986572265625, 23.4,182.65) ">
<g transform="matrix( 1, 0, 0, 1, 0,0) ">
<use xlink:href="#FS_Mane_03_7_Layer0_0_FILL"/>
</g>
</g>
</g>

<g transform="matrix( -1, 0, -0.0792694091796875, 1, -43.9,8.55) ">
<g transform="matrix( 1, 0, 0, 1, 98,122.3) ">
<g transform="matrix( 1, 0, 0, 1, 0,0) ">
<use xlink:href="#FS_Tail_02_9_Layer0_0_FILL"/>
</g>
</g>

<g transform="matrix( 1, 0, 0, 1, 0.3,0.25) ">
<g transform="matrix( 1, 0, 0, 1, 0,0) ">
<use xlink:href="#FS_Tail_01_9_Layer2_0_FILL"/>
</g>
</g>
</g>

<g transform="matrix( -0.2198944091796875, 0.985076904296875, 1.124481201171875, 0.092315673828125, 44.55,37.7) ">
<g transform="matrix( 0.9608306884765625, -0.25921630859375, 0.25921630859375, 0.9608306884765625, -8.5,65.75) ">
<g transform="matrix( 1, 0, 0, 1, 0,0) ">
<use xlink:href="#FS_FrontLeg_3_4_hoof_3_Layer0_0_FILL"/>
</g>
</g>

<g transform="matrix( 0.940216064453125, -0.332427978515625, 0.332427978515625, 0.940216064453125, -1.25,0.25) ">
<g transform="matrix( 1, 0, 0, 1, 0,0) ">
<use xlink:href="#FS_FrontLeg_3_4_upper_0_Layer2_0_FILL"/>
</g>

<g transform="matrix( 1, 0, 0, 1, 0,0) ">
<use xlink:href="#FS_FrontLeg_3_4_upper_0_Layer1_0_FILL"/>
</g>
</g>

<g transform="matrix( 0.7852935791015625, 0.6124114990234375, -0.6124114990234375, 0.7852935791015625, 15.45,37.75) ">
<g transform="matrix( 1, 0, 0, 1, 0,0) ">
<use xlink:href="#FS_FrontLeg_3_4_lower_3_Layer2_0_FILL"/>
</g>
</g>
</g>

<g transform="matrix( -1, 0, -0.031890869140625, 0.8859710693359375, -16.8,14.4) ">
<g transform="matrix( 1, 0, 0, 1, 29.15,127.9) ">
<g transform="matrix( 1, 0, 0, 1, 0,0) ">
<use filter="url(#Filter_2)" xlink:href="#FS_FrontLeg_3_4_hoof_4_Layer0_0_FILL"/>
</g>
</g>

<g transform="matrix( 0.9659271240234375, -0.258819580078125, 0.258819580078125, 0.9659271240234375, 7.85,53.3) ">
<g transform="matrix( 1, 0, 0, 1, 0,0) ">
<use filter="url(#Filter_2)" xlink:href="#FS_KneePatch_2_Layer0_0_FILL"/>
</g>
</g>

<g transform="matrix( 0.9970703125, -0.0725250244140625, 0.0725250244140625, 0.9970703125, 15.5,62.05) ">
<g transform="matrix( 1, 0, 0, 1, 0,0) ">
<use filter="url(#Filter_2)" xlink:href="#FS_HindLeg_3_4rear_lower_0_Layer1_0_FILL"/>
</g>

<g transform="matrix( 1, 0, 0, 1, 0,0) ">
<use filter="url(#Filter_2)" xlink:href="#FS_HindLeg_3_4rear_lower_0_Layer0_0_FILL"/>
</g>
</g>

<g transform="matrix( 1, 0, -0.0095977783203125, 1.0159912109375, 10.45,-9.8) ">
<g transform="matrix( 1, 0, 0, 1, 0,0) ">
<use filter="url(#Filter_2)" xlink:href="#FS_HindLeg_3_4_top_1_Layer0_0_FILL"/>
</g>
</g>

<g transform="matrix( 0.9659271240234375, -0.258819580078125, 0.258819580078125, 0.9659271240234375, 7.2,53.3) ">
<g transform="matrix( 1, 0, 0, 1, 0,0) ">
<use filter="url(#Filter_2)" xlink:href="#FS_KneePatch_3_Layer0_0_FILL"/>
</g>
</g>
</g>

<g transform="matrix( -1, 0, -0.0359954833984375, 1, -0.45,28.8) ">
<g transform="matrix( 1, 0, 0, 1, 0,0) ">
<use xlink:href="#FS_Torso_2_Layer1_0_FILL"/>
</g>
</g>

<g transform="matrix( -1, 0, -0.0359954833984375, 1, -30.6,9.75) ">
<g transform="matrix( 1, 0, 0, 1, 29.15,127.9) ">
<g transform="matrix( 1, 0, 0, 1, 0,0) ">
<use xlink:href="#FS_FrontLeg_3_4_hoof_4_Layer0_0_FILL"/>
</g>
</g>

<g transform="matrix( 0.9659271240234375, -0.258819580078125, 0.258819580078125, 0.9659271240234375, 7.85,53.3) ">
<g transform="matrix( 1, 0, 0, 1, 0,0) ">
<use xlink:href="#FS_KneePatch_2_Layer0_0_FILL"/>
</g>
</g>

<g transform="matrix( 0.9970703125, -0.0725250244140625, 0.0725250244140625, 0.9970703125, 15.5,62.05) ">
<g transform="matrix( 1, 0, 0, 1, 0,0) ">
<use xlink:href="#FS_HindLeg_3_4rear_lower_0_Layer1_0_FILL"/>
</g>

<g transform="matrix( 1, 0, 0, 1, 0,0) ">
<use xlink:href="#FS_HindLeg_3_4rear_lower_0_Layer0_0_FILL"/>
</g>
</g>

<g transform="matrix( 1, 0, -0.0095977783203125, 1.0159912109375, 10.45,-9.8) ">
<g transform="matrix( 1, 0, 0, 1, 0,0) ">
<use xlink:href="#FS_HindLeg_3_4_top_1_Layer0_0_FILL"/>
</g>
</g>

<g transform="matrix( 0.9659271240234375, -0.258819580078125, 0.258819580078125, 0.9659271240234375, 7.2,53.3) ">
<g transform="matrix( 1, 0, 0, 1, 0,0) ">
<use xlink:href="#FS_KneePatch_3_Layer0_0_FILL"/>
</g>
</g>

<g transform="matrix( 0.9999847412109375, 0, 0, 1, -2.6,16.6) ">
<g transform="matrix( 0.8685150146484375, 0, 0, 0.8685150146484375, -286.15,-353.9) ">
<use xlink:href="#FS_CutieMark_0_Layer0_0_FILL"/>
</g>

<g transform="matrix( 0.8685150146484375, 0, 0, 0.8685150146484375, -286.15,-353.9) ">
<use xlink:href="#FS_CutieMark_0_Layer0_1_FILL"/>
</g>

<g transform="matrix( 0.8685150146484375, 0, 0, 0.8685150146484375, -169.25,-143.9) ">
<use xlink:href="#FS_CutieMark_0_Layer0_2_FILL"/>
</g>

<g transform="matrix( 0.8685150146484375, 0, 0, 0.8685150146484375, -286.15,-353.9) ">
<use xlink:href="#FS_CutieMark_0_Layer0_3_FILL"/>
</g>

<g transform="matrix( 0.8685150146484375, 0, 0, 0.8685150146484375, -286.15,-353.9) ">
<use xlink:href="#FS_CutieMark_0_Layer0_4_FILL"/>
</g>

<g transform="matrix( 0.8685150146484375, 0, 0, 0.8685150146484375, -286.15,-353.9) ">
<use xlink:href="#FS_CutieMark_0_Layer0_5_FILL"/>
</g>
</g>
</g>

<g transform="matrix( -0.9191131591796875, -0.3296051025390625, -0.344451904296875, 0.91290283203125, 13,12) ">
<g transform="matrix( 1, 0, 0, 1, 0,0) ">
<use xlink:href="#FS_Neck_1_Layer0_0_FILL"/>
</g>
</g>

<g transform="matrix( -0.9997711181640625, 0.0190582275390625, 0.0121917724609375, 1, 24.5,50.55) ">
<g transform="matrix( 1, 0, 0, 1, 2.2,86.4) ">
<g transform="matrix( 1, 0, 0, 1, 0,0) ">
<use xlink:href="#FS_FrontLeg_3_4_hoof_0_Layer0_0_FILL"/>
</g>
</g>

<g transform="matrix( 0.999969482421875, -0.0043792724609375, -0.001129150390625, 1, 0.15,0.35) ">
<g transform="matrix( 1, 0, 0, 1, 0,0) ">
<use xlink:href="#FS_FrontLeg_3_4_upper_2_Layer1_0_FILL"/>
</g>
</g>
</g>

<g transform="matrix( -1, 0, -0.0359954833984375, 1, 9.3,17.05) ">
<g transform="matrix( 1, 0, 0, 1, 0,0) ">
<use xlink:href="#FS_Wing_side_9_Layer4_0_FILL"/>
</g>
</g>

<g transform="matrix( 0.9990692138671875, -0.04351806640625, 0.04351806640625, 0.9990692138671875, 73.85,-30.5) ">
<g transform="matrix( -1, -0.0224761962890625, 0, 1, 8.45,-15.8) ">
<g transform="matrix( 1, 0, 0, 1, 0,0) ">
<use xlink:href="#FS_Skull_0_Layer0_0_FILL"/>
</g>
</g>

<mask id="Mask_Mask_1">
<g transform="matrix( 0.2865753173828125, -0.020233154296875, 0.0965118408203125, 0.959320068359375, 48.45,-12.75) ">
<g transform="matrix( 1, 0, 0, 1, 0,0) ">
<use xlink:href="#Mask_Mask_FS_EyeWhite_3_4far_0_Layer0_0_FILL"/>
</g>
</g>
</mask>

<g mask="url(#Mask_Mask_1)">
<g transform="matrix( 0.2865753173828125, -0.020233154296875, 0.0965118408203125, 0.959320068359375, 48.45,-12.75) ">
<g transform="matrix( 1, 0, 0, 1, 0,0) ">
<use xlink:href="#FS_EyeWhite_3_4far_0_Layer0_0_FILL"/>
</g>
</g>
</g>

<g mask="url(#Mask_Mask_1)">
<g transform="matrix( -0.267364501953125, -0.0431365966796875, -0.10858154296875, 0.5338897705078125, 51.65,-6.6) ">
<g transform="matrix( 1, 0, 0, 1, 0,0) ">
<use xlink:href="#FS_Iris_2_Layer1_0_FILL"/>
</g>

<g transform="matrix( 1, 0, 0, 1, 0,0) ">
<use xlink:href="#FS_Iris_2_Layer0_0_FILL"/>
</g>

<g transform="matrix( 1, 0, 0, 1, 0,0) ">
<use xlink:href="#FS_Iris_2_Layer0_1_FILL"/>
</g>
</g>
</g>

<g mask="url(#Mask_Mask_1)">
<g transform="matrix( -0.2662811279296875, -0.156036376953125, -0.1595611572265625, 0.5136566162109375, 53.2,-5.85) ">
<g transform="matrix( 1, 0, 0, 1, 0,0) ">
<use xlink:href="#FS_Pupil_0_Layer0_0_FILL"/>
</g>
</g>
</g>

<g mask="url(#Mask_Mask_1)">
<g transform="matrix( -0.2389373779296875, -0.228790283203125, -0.1527099609375, 0.4741973876953125, 51.5,-9.75) ">
<g transform="matrix( 1, 0, 0, 1, 0,0) ">
<use xlink:href="#FS_Hilights_0_Layer1_0_FILL"/>
</g>
</g>
</g>

<mask id="Mask_Mask_2">
<g transform="matrix( -0.9999847412109375, 0.0103759765625, 0, 0.9999847412109375, 3.5,-4.3) ">
<g transform="matrix( 1, 0, 0, 1, 0,0) ">
<use xlink:href="#Mask_Mask_FS_EyeWhite_3_4_4_Layer0_0_FILL"/>
</g>
</g>
</mask>

<g mask="url(#Mask_Mask_2)">
<g transform="matrix( -0.9999847412109375, 0.0103759765625, 0, 0.9999847412109375, 3.5,-4.3) ">
<g transform="matrix( 1, 0, 0, 1, 0,0) ">
<use xlink:href="#FS_EyeWhite_3_4_0_Layer0_0_FILL"/>
</g>
</g>
</g>

<g mask="url(#Mask_Mask_2)">
<g transform="matrix( 0.551239013671875, 0.1035614013671875, -0.0889739990234375, 0.7186737060546875, 18.15,-3.95) ">
<g transform="matrix( 1, 0, 0, 1, 0,0) ">
<use xlink:href="#FS_Iris_0_Layer1_0_FILL"/>
</g>

<g transform="matrix( 1, 0, 0, 1, 0,0) ">
<use xlink:href="#FS_Iris_0_Layer0_0_FILL"/>
</g>

<g transform="matrix( 1, 0, 0, 1, 0,0) ">
<use xlink:href="#FS_Iris_0_Layer0_1_FILL"/>
</g>
</g>
</g>

<g mask="url(#Mask_Mask_2)">
<g transform="matrix( -0.5734405517578125, -0.275238037109375, -0.29345703125, 0.664794921875, 20.45,-3.25) ">
<g transform="matrix( 1, 0, 0, 1, 0,0) ">
<use xlink:href="#FS_Pupil_0_Layer0_0_FILL"/>
</g>
</g>
</g>

<g mask="url(#Mask_Mask_2)">
<g transform="matrix( -0.681976318359375, -0.0794677734375, -0.0794677734375, 0.681976318359375, 16.2,-8.35) ">
<g transform="matrix( 1, 0, 0, 1, 0,0) ">
<use xlink:href="#FS_Hilights_0_Layer1_0_FILL"/>
</g>
</g>
</g>

<g transform="matrix( -1.08978271484375, 0.012664794921875, 0.0008087158203125, 1.02630615234375, 50.05,-12.75) ">
<g transform="matrix( 1, 0, 0, 1, 0,0) ">
<use xlink:href="#FS_Blink_3_4far_100_Layer9_0_FILL"/>
</g>
</g>

<g transform="matrix( -1.02740478515625, 0.010650634765625, 0, 0.9999847412109375, 3.35,-6.9) ">
<g transform="matrix( 1, 0, 0, 1, 0,0) ">
<use xlink:href="#FS_Blink_3_4_100_Layer5_0_FILL"/>
</g>

<g transform="matrix( 1, 0, 0, 1, 0,0) ">
<use xlink:href="#FS_Blink_3_4_100_Layer3_0_FILL"/>
</g>
</g>

<g transform="matrix( -0.934814453125, 0.10693359375, 0, 1, -13.25,-19.15) ">
<g transform="matrix( 1, 0, 0, 1, 0,0) ">
<use xlink:href="#FS_Brow_3_4_29_Layer4_0_FILL"/>
</g>

<g transform="matrix( 1, 0, 0, 1, 0,0) ">
<use xlink:href="#FS_Brow_3_4_29_Layer3_0_FILL"/>
</g>

<g transform="matrix( 1, 0, 0, 1, 0,0) ">
<use xlink:href="#FS_Brow_3_4_29_Layer2_0_FILL"/>
</g>

<g transform="matrix( 1, 0, 0, 1, 0,0) ">
<use xlink:href="#FS_Brow_3_4_29_Layer1_0_FILL"/>
</g>

<g transform="matrix( 1, 0, 0, 1, 0,0) ">
<use xlink:href="#FS_Brow_3_4_29_Layer0_0_FILL"/>
</g>
</g>

<g transform="matrix( 0.8271636962890625, -0.0069580078125, 0.171844482421875, 0.99310302734375, 53.85,-20.2) ">
<g transform="matrix( 1, 0, 0, 1, 0,0) ">
<use xlink:href="#FS_Brow_3_4rear_59_Layer5_0_FILL"/>
</g>

<g transform="matrix( 1, 0, 0, 1, 0,0) ">
<use xlink:href="#FS_Brow_3_4rear_59_Layer4_0_FILL"/>
</g>

<g transform="matrix( 1, 0, 0, 1, 0,0) ">
<use xlink:href="#FS_Brow_3_4rear_59_Layer3_0_FILL"/>
</g>

<g transform="matrix( 1, 0, 0, 1, 0,0) ">
<use xlink:href="#FS_Brow_3_4rear_59_Layer2_0_FILL"/>
</g>

<g transform="matrix( 1, 0, 0, 1, 0,0) ">
<use xlink:href="#FS_Brow_3_4rear_59_Layer1_0_FILL"/>
</g>
</g>

<g transform="matrix( 0.4603271484375, -0.1534881591796875, -0.2261505126953125, 0.993072509765625, 45.85,6.15) ">
<g transform="matrix( 1, 0, 0, 1, 0,0) ">
<use xlink:href="#FS_Cheek_7_Layer1_0_FILL"/>
</g>
</g>

<g transform="matrix( -1, 0, -0.003814697265625, 1, 22.2,18.45) ">
<g transform="matrix( 1, 0, 0, 1, 0,0) ">
<use xlink:href="#FS_Mouth_3_4_14_Layer10_0_FILL"/>
</g>

<g transform="matrix( 1.00384521484375, 0.000762939453125, -0.000732421875, 0.9951629638671875, -23.05,-13.6) ">
<g transform="matrix( 1, 0, 0, 1, 0,0) ">
<use xlink:href="#FS_Nose_0_Layer1_0_FILL"/>
</g>
</g>

<g transform="matrix( 1, 0, 0, 1, 0,0) ">
<use xlink:href="#FS_Mouth_3_4_14_Layer7_0_FILL"/>
</g>

<g transform="matrix( 0.7456817626953125, 0, 0, 0.7456817626953125, -20.15,9.4) ">
<g transform="matrix( 1, 0, 0, 1, 0,0) ">
<use xlink:href="#FS_Teeth_15_Layer2_0_FILL"/>
</g>

<g transform="matrix( 1, 0, 0, 1, 0,0) ">
<use xlink:href="#FS_Teeth_15_Layer0_0_FILL"/>
</g>
</g>

<g transform="matrix( 1, 0, 0, 1, 0,0) ">
<use xlink:href="#FS_Mouth_3_4_14_Layer4_0_FILL"/>
</g>
</g>

<g transform="matrix( -1, 0, 0.003814697265625, 1, 48.8,18.45) ">
<g transform="matrix( 1.0126800537109375, 0, -0.0044708251953125, 0.987945556640625, 0.05,-0.1) ">
<g transform="matrix( 1, 0, 0, 1, 0,0) ">
<use xlink:href="#FS_Nostril_3_4_0_Layer0_0_FILL"/>
</g>
</g>
</g>

<g transform="matrix( -0.735748291015625, 0.054901123046875, 0.1544952392578125, 0.796539306640625, 8.9,16.1) ">
<g transform="matrix( 1, 0, 0, 1, 0,0) ">
<use xlink:href="#FS_Cheek_0_Layer1_0_FILL"/>
</g>

<g transform="matrix( 1, 0, 0, 1, 0,0) ">
<use xlink:href="#FS_Cheek_0_Layer0_0_FILL"/>
</g>
</g>

<g transform="matrix( -0.97369384765625, -0.0419464111328125, -0.0408782958984375, 0.9989776611328125, 34.45,-56.7) ">
<g transform="matrix( 1, 0, 0, 1, 0,0) ">
<use xlink:href="#FS_Hair_05_6_Layer1_0_FILL"/>
</g>
</g>

<g transform="matrix( -0.9659271240234375, 0.258819580078125, 0.258819580078125, 0.9659271240234375, -28.55,-32.5) ">
<g transform="matrix( 1, 0, 0, 1, 0,0) ">
<use xlink:href="#FS_Ear_2_Layer1_0_FILL"/>
</g>
</g>
</g>

<g transform="matrix( 0.998443603515625, 0.055755615234375, -0.055755615234375, 0.998443603515625, 131.5,-116.5) ">
<g transform="matrix( -0.973846435546875, -0.0372772216796875, -0.0360870361328125, 0.9991302490234375, -94.25,126.2) ">
<g transform="matrix( 1, 0, 0, 1, 0,0) ">
<use xlink:href="#FS_Hair_03_9_Layer1_0_FILL"/>
</g>
</g>

<g transform="matrix( -0.973846435546875, -0.0372772216796875, -0.0360870361328125, 0.9991302490234375, -0.3,-0.35) ">
<g transform="matrix( 1, 0, 0, 1, 0,0) ">
<use xlink:href="#FS_Hair_01_6_Layer3_0_FILL"/>
</g>
</g>

<g transform="matrix( -0.973846435546875, -0.0372772216796875, -0.0360870361328125, 0.9991302490234375, -42.6,162.85) ">
<g transform="matrix( 1, 0, 0, 1, 0,0) ">
<use xlink:href="#FS_Hair_04_9_Layer1_0_FILL"/>
</g>
</g>
</g>
</g>
</svg>
