
<svg xmlns="http://www.w3.org/2000/svg" version="1.1" xmlns:xlink="http://www.w3.org/1999/xlink" preserveAspectRatio="none" x="0px" y="0px" width="864px" height="486px" viewBox="0 0 864 486">
<defs>
<filter id="Filter_1" x="-20%" y="-20%" width="140%" height="140%" color-interpolation-filters="sRGB">
<feColorMatrix in="SourceGraphic" type="matrix" values="1 0 0 0 0 0 1 0 0 0 0 0 1 0 0 0 0 0 0.21 0" result="result1"/>
</filter>

<filter id="Filter_2" x="-20%" y="-20%" width="140%" height="140%" color-interpolation-filters="sRGB">
<feColorMatrix in="SourceGraphic" type="matrix" values="0.5 0 0 0 0.4627450980392157 0 0.5 0 0 0.41568627450980394 0 0 0.5 0 0.19607843137254902 0 0 0 1 0" result="result1"/>
</filter>

<filter id="Filter_3" x="-20%" y="-20%" width="140%" height="140%" color-interpolation-filters="sRGB">
<feColorMatrix in="SourceGraphic" type="matrix" values="1 0 0 0 0.0196078431372549 0 1 0 0 -0.06274509803921569 0 0 1 0 -0.12156862745098039 0 0 0 1 0" result="result1"/>
</filter>

<g id="FS_Shadow_0_Layer0_0_FILL">
<path fill="#000000" stroke="none" d="
M 46.4 155.05
Q 68.65 152.95 68.65 149.95 68.65 146.95 46.4 144.8 24.15 142.7 -7.4 142.7 -38.9 142.7 -61.2 144.8 -83.45 146.95 -83.45 149.95 -83.45 152.95 -61.2 155.05 -38.9 157.2 -7.4 157.2 24.15 157.2 46.4 155.05 Z"/>
</g>

<g id="FS_WingBack_3_4far_8_Layer6_0_FILL">
<path fill="#FDF6AE" stroke="none" d="
M -3.25 -10.95
L -3.25 -10.9
Q -6.771875 -9.8326171875 -7.95 -7.7 -9.437109375 -4.7736328125 -9.05 0.65 -11.0166015625 2.1763671875 -11.65 3.35
L -11.6 3.3
Q -12.3109375 4.779296875 -12.4 7 -12.5015625 10.356640625 -9.3 15.45 -11.1501953125 20.690625 -8.2 24.1 -4.8490234375 24.80546875 -1.4 24.3 7.390234375 23.14375 10.05 15.55 14.9142578125 1.3421875 -0.4 -15
L -1.4 -16.05 -3.2 -10.9 -3 -12.45 -3.25 -10.95
M -12.65 16.3
Q -13.2515625 15.454296875 -13.75 14.55
L -13.75 14.5
Q -14.09296875 13.80234375 -14.4 13.05
L -14.45 13.15 -30.5 2.95
Q -26.376953125 11.7984375 -19.9 17.6 -16.3068359375 20.8330078125 -12.6 22.55 -13.715234375 19.6021484375 -12.65 16.3
M -34.5 -13.45
Q -34.996875 -8.25390625 -32.05 -0.65 -31.8767578125 -0.2734375 -31.75 0.1 -31.509765625 0.718359375 -31.25 1.3
L -14.85 11.7
Q -15.46015625 9.433203125 -15.4 6.9 -15.2939453125 4.047265625 -14.4 2.15
L -34.5 -13.45
M -21.7 -18.15
Q -22.5771484375 -18.3775390625 -23.45 -18.55
L -10.25 -9.7
Q -9.2578125 -11.2814453125 -8 -12.05 -13.21171875 -15.9927734375 -21.7 -18.15
M -25.9 -19
Q -26.7892578125 -19.1376953125 -27.6 -19.2
L -27.65 -19.2
Q -32.028515625 -19.5138671875 -33.3 -17.7
L -33.3 -17.65
Q -34.0263671875 -16.362890625 -34.35 -14.8
L -34.35 -14.75
Q -34.3427734375 -14.6591796875 -34.35 -14.6
L -13.9 1.25
Q -13.2216796875 0.2173828125 -12.35 -0.55 -12.330859375 -5.6185546875 -10.75 -8.8
L -25.9 -19 Z"/>

<path fill="#EBD463" stroke="none" d="
M -27.4 -22.2
L -27.4 -22.2
Q -34.184375 -22.6814453125 -35.9 -19.15
L -35.9 -19.15
Q -36.8681640625 -17.446875 -37.3 -15.35
L -37.3 -15.35
Q -38.59375 -9.1455078125 -34.8 0.6
L -34.75 0.7
Q -34.660546875 0.89765625 -34.6 1.1 -34.577734375 1.188671875 -34.55 1.25 -29.9048828125 12.7171875 -21.9 19.85 -17.0701171875 24.1734375 -12.05 26.05
L -9.3 26.9
Q -5.23046875 27.8634765625 -1 27.25 9.7099609375 25.85625 12.9 16.55 18.5857421875 0.8576171875 -1.4 -16.05
L -0.4 -15
Q 14.9142578125 1.3421875 10.05 15.55 7.390234375 23.14375 -1.4 24.3 -4.8490234375 24.80546875 -8.2 24.1 -11.1501953125 20.690625 -9.3 15.45 -12.5015625 10.356640625 -12.4 7 -12.3109375 4.779296875 -11.6 3.3
L -11.65 3.35
Q -11.0166015625 2.1763671875 -9.05 0.65 -9.437109375 -4.7736328125 -7.95 -7.7 -6.771875 -9.8326171875 -3.25 -10.9
L -3.25 -10.95
Q -11.1728515625 -18.5560546875 -20.95 -21.05 -24.6181640625 -21.991015625 -27.4 -22.2
M -27.6 -19.2
Q -26.7892578125 -19.1376953125 -25.9 -19
L -10.75 -8.8
Q -12.330859375 -5.6185546875 -12.35 -0.55 -13.2216796875 0.2173828125 -13.9 1.25
L -34.35 -14.6
Q -34.3427734375 -14.6591796875 -34.35 -14.75
L -34.35 -14.8
Q -34.0263671875 -16.362890625 -33.3 -17.65
L -33.3 -17.7
Q -32.028515625 -19.5138671875 -27.65 -19.2
L -27.6 -19.2
M -23.45 -18.55
Q -22.5771484375 -18.3775390625 -21.7 -18.15 -13.21171875 -15.9927734375 -8 -12.05 -9.2578125 -11.2814453125 -10.25 -9.7
L -23.45 -18.55
M -32.05 -0.65
Q -34.996875 -8.25390625 -34.5 -13.45
L -14.4 2.15
Q -15.2939453125 4.047265625 -15.4 6.9 -15.46015625 9.433203125 -14.85 11.7
L -31.25 1.3
Q -31.509765625 0.718359375 -31.75 0.1 -31.8767578125 -0.2734375 -32.05 -0.65
M -13.75 14.55
Q -13.2515625 15.454296875 -12.65 16.3 -13.715234375 19.6021484375 -12.6 22.55 -16.3068359375 20.8330078125 -19.9 17.6 -26.376953125 11.7984375 -30.5 2.95
L -14.45 13.15 -14.4 13.05
Q -14.09296875 13.80234375 -13.75 14.5
L -13.75 14.55 Z"/>
</g>

<g id="FS_FrontLeg_3_4_hoof_0_Layer0_0_FILL">
<path fill="#EBD463" stroke="none" d="
M 14.95 -14.95
Q 8.7541015625 -20.8443359375 0.05 -20.15 -8.81640625 -19.5484375 -12.8 -14.35 -16.526953125 -9.5060546875 -19.15 -4.25 -21.7119140625 0.947265625 -24.6 7.3
L -24.55 7.3
Q -26.32890625 11.167578125 -25.4 13.5 -24.5373046875 16.1365234375 -20.8 17
L -20.8 17
Q -15.0755859375 18.309765625 -1 18.05 13.7875 17.7890625 17.25 13.7
L 17.25 13.7
Q 20.8900390625 9.7828125 21.05 0.3 21.2107421875 -9.126171875 14.95 -14.95
M 0.25 -17.15
L 0.25 -17.15
Q 7.6546875 -17.7474609375 12.9 -12.75 18.1890625 -7.7734375 18.05 0.25 17.9103515625 8.2857421875 15.05 11.65
L 15 11.7
Q 11.8634765625 14.81171875 -1.05 15.05 -14.6240234375 15.2900390625 -20.15 14.05
L -20.15 14.1
Q -22.016015625 13.6626953125 -22.55 12.5 -22.959375 11.0341796875 -21.85 8.55 -18.9880859375 2.2525390625 -16.45 -2.9 -13.9732421875 -7.894140625 -10.45 -12.5 -7.0837890625 -16.6517578125 0.25 -17.15 Z"/>

<path fill="#FDF6AE" stroke="none" d="
M 0.25 -17.15
L 0.25 -17.15
Q -7.0837890625 -16.6517578125 -10.45 -12.5 -13.9732421875 -7.894140625 -16.45 -2.9 -18.9880859375 2.2525390625 -21.85 8.55 -22.959375 11.0341796875 -22.55 12.5 -22.016015625 13.6626953125 -20.15 14.1
L -20.15 14.05
Q -14.6240234375 15.2900390625 -1.05 15.05 11.8634765625 14.81171875 15 11.7
L 15.05 11.65
Q 17.9103515625 8.2857421875 18.05 0.25 18.1890625 -7.7734375 12.9 -12.75 7.6546875 -17.7474609375 0.25 -17.15 Z"/>
</g>

<g id="FS_FrontLeg_3_4_upper_2_Layer1_0_FILL">
<path fill="#EBD463" stroke="none" d="
M -17.3 82.35
L -14.2 82.9
Q -3.4103515625 50.004296875 -7.15 -2.5 -9.971484375 0.565234375 -9.25 14.7 -7.92421875 54.5646484375 -17.3 82.35
M 18.4 19.05
Q 12.98984375 3.2484375 9.05 0.4 26.109765625 43.7232421875 19.95 89.45
L 19.95 89.5
Q 21.0232421875 91.8462890625 22.9 89.9
L 22.9 89.9
Q 27.77265625 53.83984375 18.4 19.05 Z"/>

<path fill="#FDF6AE" stroke="none" d="
M 9.05 0.4
L 9.05 0.35
Q 0.58515625 -2.4958984375 -7.15 -2.5 -3.4103515625 50.004296875 -14.2 82.9
L -13.1 84.35 19.95 89.45
Q 26.109765625 43.7232421875 9.05 0.4 Z"/>
</g>

<g id="FS_Neck_1_Layer0_0_FILL">
<path fill="#FDF6AE" stroke="none" d="
M -17.6 -99.9
L -17.65 -99.9
Q -26.683984375 -109.0083984375 -39.8 -109 -52.8892578125 -108.998828125 -62.3 -99.85 -71.801171875 -90.6611328125 -72.05 -77.85 -72.3279296875 -65.053125 -63.25 -55.9
L -63.25 -55.9
Q -62.7607421875 -55.412890625 -62.25 -54.95
L -60.5 -53.45 -60.5 -53.4 -59.15 -51.9
Q -48.75625 -40.150390625 -47.1 -29.25 -47 -27.9 -46.95 -26.5 -46.9 -23.2 -47.45 -19.75 -50.535546875 -0.3146484375 -45.9 16
L -45.9 15.95
Q -39.7232421875 37.46015625 -19.85 44.45
L -18.45 44.95 -18.55 45
Q -7.184375 45.1412109375 -5.55 29.25 -3.9140625 13.4140625 -2.6 -0.1
L -0.25 -0.05
Q -3.05859375 -1.5416015625 -4.1 -3.15 -5.85234375 -5.197265625 -8.1 -25.15 -9.88515625 -40.952734375 -9.5 -62.95 -9.3767578125 -67.9625 -9.2 -73.3 -9.158984375 -73.5244140625 -9.15 -73.75
L -9.15 -81.3 -8.85 -81.3
Q -9.7095703125 -91.998828125 -17.6 -99.9
M -34.6 -47.4
L -34.7 -47.4
Q -34.6310546875 -47.38359375 -34.6 -47.4
L -34.6 -47.4 Z"/>

<path fill="#EBD564" stroke="none" d="
M -34.7 -47.4
L -34.6 -47.4 -34.6 -47.4
Q -34.6310546875 -47.38359375 -34.7 -47.4
M -17.65 -99.9
L -17.6 -99.9
Q -9.7095703125 -91.998828125 -8.85 -81.3
L -9.15 -81.3 -9.15 -73.75
Q -9.158984375 -73.5244140625 -9.2 -73.3 -9.3767578125 -67.9625 -9.5 -62.95 -9.88515625 -40.952734375 -8.1 -25.15 -5.85234375 -5.197265625 -4.1 -3.15 -3.05859375 -1.5416015625 -0.25 -0.05 -1.4 -1.85 -2.25 -4.8 -3.05 -7.45 -5.1 -25.5 -7.2638671875 -44.648828125 -6.2 -72.95 -5.7958984375 -75.3732421875 -5.75 -77.95 -5.492578125 -92.0048828125 -15.5 -102
L -15.5 -102
Q -25.41640625 -111.9916015625 -39.8 -112 -54.110546875 -112.0013671875 -64.4 -102 -74.7986328125 -91.9388671875 -75.05 -77.9 -75.355078125 -64.5958984375 -66.45 -54.9 -65.9 -54.35 -65.35 -53.8 -63.45 -52 -61.7 -50.1 -60.3 -48.55 -58.95 -46.95 -52.171875 -38.4115234375 -50.45 -29.2 -50 -25.35 -50.3 -21.6 -50.35 -20.65 -50.5 -19.7 -53.575 0.1408203125 -48.8 16.8
L -48.8 16.8
Q -42.1767578125 39.8396484375 -20.85 47.3
L -19.45 47.8 -18.55 45 -18.45 44.95 -19.85 44.45
Q -39.7232421875 37.46015625 -45.9 15.95
L -45.9 16
Q -50.535546875 -0.3146484375 -47.45 -19.75 -46.9 -23.2 -46.95 -26.5 -47 -27.9 -47.1 -29.25 -48.75625 -40.150390625 -59.15 -51.9
L -60.5 -53.4 -61.7 -53.4 -60.5 -53.45 -62.25 -54.95
Q -62.7607421875 -55.412890625 -63.25 -55.9
L -63.25 -55.9
Q -72.3279296875 -65.053125 -72.05 -77.85 -71.801171875 -90.6611328125 -62.3 -99.85 -52.8892578125 -108.998828125 -39.8 -109 -26.683984375 -109.0083984375 -17.65 -99.9 Z"/>
</g>

<g id="FS_Hair_05_4_Layer1_0_FILL">
<path fill="#E781B3" stroke="none" d="
M 8.85 -41.95
Q 4.1453125 -37.525 1.8 -31.6 -0.623828125 -25.60390625 -0.15 -19.3 0.221484375 -15.0275390625 4.35 -5.55 6.8001953125 0.0916015625 11.7 8.9 23.8705078125 30.784375 26.3 36.3 32.908203125 51.159765625 33.3 67.2 33.552734375 76.4685546875 30.9 98.25 30.7453125 99.7525390625 30.6 100.6 33.46328125 111.5416015625 44.45 113.05 54.4103515625 112.8314453125 58.45 98.75 58.3083984375 99.1751953125 58.65 97.75
L 62.85 81.55
Q 68.828515625 60.0115234375 71.45 49.1 76.095703125 30.05625 76 16 75.904296875 -16.0134765625 57.8 -35.4 46.253515625 -47.7859375 32.85 -50.25 20.2212890625 -52.522265625 8.85 -41.95
M 3 -26.7
Q 3.916796875 -31.8771484375 7.35 -36.85 12.2271484375 -43.90078125 19.95 -47.4 27.993359375 -51.05625 38.05 -46.7 45.5353515625 -43.3919921875 53.15 -36.2 44.1814453125 -40.45 34.9 -40.6 20.6740234375 -40.830078125 7 -30.1 4.9833984375 -28.4810546875 3 -26.7
M 6.65 -7.25
Q 7.3162109375 -8.8294921875 8 -10.35 13.3001953125 -21.824609375 22.1 -28.85 32.444140625 -37.0126953125 43.75 -35.15 54.568359375 -33.3224609375 64.35 -21.35 66.82265625 -16.698828125 68.65 -11.4 73.63984375 2.893359375 72.85 20.2 72.298828125 34.0896484375 67.8 51.8 65.03046875 62.7025390625 59.3 84.4 58.073828125 89.373828125 55.6 98.8
L 55.65 98.85
Q 52.9455078125 108.2529296875 46.3 110.75
L 46.9 101.1
Q 47.4287109375 92.559765625 47.35 87.2 47.2958984375 75.4240234375 45 65.7 40.9427734375 48.439453125 32.6 44.75 31.0232421875 39.8861328125 28.8 34.8 25.987890625 28.519921875 14.1 7 8.717578125 -2.6275390625 6.95 -6.55 6.8005859375 -6.884375 6.65 -7.25
M 2.75 -21.2
Q 2.6294921875 -22.9779296875 2.75 -24.75 5.6578125 -27.496875 8.7 -29.8 22.3384765625 -40.1376953125 36.85 -39.4 46.4533203125 -38.9224609375 55.8 -33.5 58.507421875 -30.5625 60.8 -27.25 51.621484375 -35.7453125 41.05 -36.15 31.8384765625 -36.441796875 23 -30.4 15.37890625 -25.0669921875 9.9 -16.4 7.7974609375 -12.9791015625 5.95 -8.9 3.228125 -15.64609375 2.75 -21.2
M 33.1 46.5
Q 34.176953125 47.179296875 35.15 48.15 39.90859375 52.775390625 42.95 63.9 45.6748046875 73.6587890625 45.9 85.7 46.0138671875 91.7541015625 45.45 101.1
L 44.6 110.75
Q 34.0033203125 108.3857421875 33.6 98.2
L 33.55 98.2
Q 36.4958984375 74.8173828125 36.2 65.1 36.0060546875 56.1888671875 33.1 46.5 Z"/>

<path fill="#F4B6D1" stroke="none" d="
M 35.15 48.15
Q 34.176953125 47.179296875 33.1 46.5 36.0060546875 56.1888671875 36.2 65.1 36.4958984375 74.8173828125 33.55 98.2
L 33.6 98.2
Q 34.0033203125 108.3857421875 44.6 110.75
L 45.45 101.1
Q 46.0138671875 91.7541015625 45.9 85.7 45.6748046875 73.6587890625 42.95 63.9 39.90859375 52.775390625 35.15 48.15
M 2.75 -24.75
Q 2.6294921875 -22.9779296875 2.75 -21.2 3.228125 -15.64609375 5.95 -8.9 7.7974609375 -12.9791015625 9.9 -16.4 15.37890625 -25.0669921875 23 -30.4 31.8384765625 -36.441796875 41.05 -36.15 51.621484375 -35.7453125 60.8 -27.25 58.507421875 -30.5625 55.8 -33.5 46.4533203125 -38.9224609375 36.85 -39.4 22.3384765625 -40.1376953125 8.7 -29.8 5.6578125 -27.496875 2.75 -24.75
M 8 -10.35
Q 7.3162109375 -8.8294921875 6.65 -7.25 6.8005859375 -6.884375 6.95 -6.55 8.717578125 -2.6275390625 14.1 7 25.987890625 28.519921875 28.8 34.8 31.0232421875 39.8861328125 32.6 44.75 40.9427734375 48.439453125 45 65.7 47.2958984375 75.4240234375 47.35 87.2 47.4287109375 92.559765625 46.9 101.1
L 46.3 110.75
Q 52.9455078125 108.2529296875 55.65 98.85
L 55.6 98.8
Q 58.073828125 89.373828125 59.3 84.4 65.03046875 62.7025390625 67.8 51.8 72.298828125 34.0896484375 72.85 20.2 73.63984375 2.893359375 68.65 -11.4 66.82265625 -16.698828125 64.35 -21.35 54.568359375 -33.3224609375 43.75 -35.15 32.444140625 -37.0126953125 22.1 -28.85 13.3001953125 -21.824609375 8 -10.35
M 7.35 -36.85
Q 3.916796875 -31.8771484375 3 -26.7 4.9833984375 -28.4810546875 7 -30.1 20.6740234375 -40.830078125 34.9 -40.6 44.1814453125 -40.45 53.15 -36.2 45.5353515625 -43.3919921875 38.05 -46.7 27.993359375 -51.05625 19.95 -47.4 12.2271484375 -43.90078125 7.35 -36.85 Z"/>
</g>

<g id="FS_Hair_03_4_Layer1_0_FILL">
<path fill="#F4B6D1" stroke="none" d="
M 7.65 67.45
Q 11.267578125 68.602734375 14.45 68.1 11.3626953125 67.07578125 9.2 64.35 0.9341796875 54.0390625 -1.05 38.05 -2.340234375 27.4744140625 -0.95 9.4 -0.5455078125 4.455859375 -0.35 0.25 -1.0919921875 -2.9046875 -12.4 0.25 -14.9271484375 21.005859375 -13.75 32.8 -11.8736328125 51.2751953125 -4.1 59.65 1.4345703125 65.5044921875 7.65 67.45
M 18.75 68.3
Q 18.7107421875 68.2439453125 18.65 68.15 18.454296875 68.2671875 18.2 68.35 18.5390625 68.36015625 18.85 68.35 18.809375 68.33203125 18.75 68.3
M 1.15 0.25
Q 0.906640625 4.874609375 0.45 10.55 -0.3673828125 21.46875 -0.35 27.35 -0.2970703125 36.7767578125 1.5 44.05 3.0443359375 50.239453125 6.55 57.25 10.581640625 65.34765625 14.55 67.05 15.4296875 67.44140625 16.25 67.65 18.76640625 66.8712890625 20.95 65 26.5353515625 60.3197265625 27.15 52.85 25.476953125 55.6685546875 21.85 56.9 14.5431640625 59.319921875 7.75 46.55 2.820703125 37.0541015625 5.75 18.65 6.865234375 11.7892578125 9.25 2.25 9.51484375 1.2259765625 9.75 0.25 0.713671875 -2.20625 1.15 0.25 Z"/>

<path fill="#E781B3" stroke="none" d="
M 0.45 10.55
Q 0.906640625 4.874609375 1.15 0.25
L -0.35 0.25
Q -0.5455078125 4.455859375 -0.95 9.4 -2.340234375 27.4744140625 -1.05 38.05 0.9341796875 54.0390625 9.2 64.35 11.3626953125 67.07578125 14.45 68.1 11.267578125 68.602734375 7.65 67.45 1.4345703125 65.5044921875 -4.1 59.65 -11.8736328125 51.2751953125 -13.75 32.8 -14.9271484375 21.005859375 -12.4 0.25 -14.79140625 0.00859375 -15.25 1.75
L -15.25 1.75
Q -17.8353515625 22.7744140625 -16.6 34.75 -14.2521484375 57.884375 0.8 67.15 6.8576171875 70.8890625 14.25 69.45 16.3607421875 69.0837890625 18.2 68.35 18.454296875 68.2671875 18.65 68.15 22.98046875 66.3642578125 26.1 62.7 30.0458984375 58.123828125 30.25 50.6 30.279296875 50.4623046875 30.25 50.3 29.9830078125 48.3154296875 28.05 48 26.0564453125 47.426953125 25.4 50.3 25.3607421875 50.599609375 25.25 50.9 23.0794921875 58.5529296875 17 53.4 12.4654296875 49.5123046875 9.7 43.6 8.989453125 42.0787109375 8.5 40.3
L 8.05 38.65
Q 7.2310546875 34.6935546875 7.4 29.75 7.551171875 24.93046875 9.1 15.6 10.0171875 10.3271484375 11.8 3.05 12.1267578125 0.5884765625 9.75 0.25 9.51484375 1.2259765625 9.25 2.25 6.865234375 11.7892578125 5.75 18.65 2.820703125 37.0541015625 7.75 46.55 14.5431640625 59.319921875 21.85 56.9 25.476953125 55.6685546875 27.15 52.85 26.5353515625 60.3197265625 20.95 65 18.76640625 66.8712890625 16.25 67.65 15.4296875 67.44140625 14.55 67.05 10.581640625 65.34765625 6.55 57.25 3.0443359375 50.239453125 1.5 44.05 -0.2970703125 36.7767578125 -0.35 27.35 -0.3673828125 21.46875 0.45 10.55 Z"/>
</g>

<g id="FS_Hair_04_4_Layer1_0_FILL">
<path fill="#E781B3" stroke="none" d="
M -4.75 -15.75
Q -7.2529296875 -16.63359375 -10.05 -15.85 -12.6490234375 -15.05703125 -14.4 -13.15
L -15.65 -11.45 -12.9 -11.45
Q -10.01953125 -11.16328125 -7.4 -9.5 -4.59453125 -7.6912109375 -3.25 -5.1 -2.0681640625 -2.7021484375 -2.45 -0.25 -2.5916015625 2.497265625 -0.4 2.5 2.3931640625 2.3587890625 2.3 -0.25 2.3587890625 -6.891796875 -0.55 -12.15 -2.022265625 -14.8345703125 -4.75 -15.75
M -10.9 -13.05
Q -11.2396484375 -13.0728515625 -11.6 -13.1 -11.4615234375 -13.20546875 -11.35 -13.3 -7.5884765625 -15.575 -4.9 -13.15 -3.2939453125 -11.6619140625 -2.3 -8.7 -5.4787109375 -12.1650390625 -10.55 -13 -10.7091796875 -12.998828125 -10.9 -13.05 Z"/>

<path fill="#F4B6D1" stroke="none" d="
M -11.6 -13.1
Q -11.2396484375 -13.0728515625 -10.9 -13.05 -10.7091796875 -12.998828125 -10.55 -13 -5.4787109375 -12.1650390625 -2.3 -8.7 -3.2939453125 -11.6619140625 -4.9 -13.15 -7.5884765625 -15.575 -11.35 -13.3 -11.4615234375 -13.20546875 -11.6 -13.1 Z"/>
</g>

<g id="FS_Skull_2_Layer0_0_FILL">
<path fill="#EBD463" stroke="none" d="
M 17.3 -50
Q 10.4 -52.1 0.9 -52.25 -8.45 -52.4 -16.75 -49.2 -25.55 -45.75 -31.05 -39.3 -46.1 -21.6 -46.1 -1.1 -46.1 11.3 -43.4 20.4 -40.6 29.75 -34.65 36.5 -27.65 44.55 -18.5 48.75 -9.25 53.05 1.5 53.05 22.65 53.05 37 36.5 42.8 29.9 45.45 20.1 47.85 11.1 47.9 -1.7 47.85 -23.45 33.4 -39.9 27.2 -47.05 17.3 -50
M 0.9 -49.25
Q 10.95 -48.85 16.65 -47.2 25.35 -44.6 31.15 -37.95 44.85 -22.3 44.9 -1.7 44.85 10.45 42.6 18.95 40.15 28.25 34.75 34.55 21.25 50.05 1.5 50.05 -8.55 50.05 -17.25 46.05 -25.8 42.1 -32.4 34.55 -38 28.1 -40.6 19.25 -43.1 10.65 -43.1 -1.1 -43.1 -21 -28.8 -37.35 -22.85 -44.2 -14.2 -47.15 -7.25 -49.55 0.9 -49.25 Z"/>

<path fill="#FDF6AE" stroke="none" d="
M 16.65 -47.2
Q 10.95 -48.85 0.9 -49.25 -7.25 -49.55 -14.2 -47.15 -22.85 -44.2 -28.8 -37.35 -43.1 -21 -43.1 -1.1 -43.1 10.65 -40.6 19.25 -38 28.1 -32.4 34.55 -25.8 42.1 -17.25 46.05 -8.55 50.05 1.5 50.05 21.25 50.05 34.75 34.55 40.15 28.25 42.6 18.95 44.85 10.45 44.9 -1.7 44.85 -22.3 31.15 -37.95 25.35 -44.6 16.65 -47.2 Z"/>
</g>

<g id="FS_Ear_5_Layer1_0_FILL">
<path fill="#FDF6AE" stroke="none" d="
M -20.1 -26.3
Q -23.571484375 -10.808203125 -20.3 -0.7 -17.3537109375 8.1306640625 -8.85 13.95
L -8.35 14.3 -8.3 14.3
Q -7.203125 15.0419921875 -4.9 16.3
L -3.95 16.85
Q 2.99140625 6.6712890625 2.75 -9.6
L 2.75 -17.95
Q 2.75 -21.5072265625 2.75 -23.35
L 2.75 -23.4
Q 2.4267578125 -39.3626953125 -6.15 -49.6 -16.8560546875 -40.4384765625 -20.1 -26.3 Z"/>

<path fill="#EBD463" stroke="none" d="
M -4.75 -52.5
Q -4.764453125 -52.5748046875 -4.85 -52.65 -5.1345703125 -53.02421875 -5.6 -53.15
L -5.85 -53.2
Q -5.8873046875 -53.20390625 -5.95 -53.2 -6.4943359375 -53.24140625 -6.95 -52.9 -19.4068359375 -42.8458984375 -23.05 -26.95 -26.7287109375 -10.491796875 -23.15 0.25 -20.4 8.6 -10.6 15.3 -8.6201171875 16.63046875 -5.05 16.8 -4.5166015625 16.847265625 -3.95 16.85
L -4.9 16.3
Q -7.203125 15.0419921875 -8.3 14.3
L -8.35 14.3 -8.85 13.95
Q -17.3537109375 8.1306640625 -20.3 -0.7 -23.571484375 -10.808203125 -20.1 -26.3 -16.8560546875 -40.4384765625 -6.15 -49.6 2.4267578125 -39.3626953125 2.75 -23.4
L 2.75 -23.35
Q 2.75 -21.5072265625 2.75 -17.95
L 2.75 -9.6
Q 4.41796875 -13.762109375 5.75 -23.35
L 5.75 -24.9 5.7 -24.9
Q 4.966796875 -41.784765625 -4.75 -52.5 Z"/>
</g>

<g id="FS_Ear_6_Layer1_0_FILL">
<path fill="#FDF6AE" stroke="none" d="
M 21.1 -7.35
Q 23.455078125 -19.7173828125 20 -31.6 16.6439453125 -43.123828125 9 -49.4 0.3212890625 -38.8369140625 -0.55 -21
L -0.6 -19.45
Q -0.6498046875 -17.705078125 -0.65 -15.9
L -0.65 -14.4
Q 0.4736328125 3.6412109375 4.6 19.65
L 5.7 18.7 5.75 18.7
Q 5.75703125 18.69375 5.75 18.7 8.1162109375 16.587890625 9.25 15.4
L 9.9 14.7
Q 18.7443359375 5.3640625 21.1 -7.35 Z"/>

<path fill="#EBD463" stroke="none" d="
M 8.7 -52.95
Q 8.0990234375 -52.9130859375 7.65 -52.45 -1.3 -42.45 -2.35 -25.3 -2.6138671875 -21.296875 -1.1 -15.9 -0.8904296875 -15.16328125 -0.65 -14.4
L -0.65 -15.9
Q -0.6498046875 -17.705078125 -0.6 -19.45
L -0.55 -21
Q 0.3212890625 -38.8369140625 9 -49.4 16.6439453125 -43.123828125 20 -31.6 23.455078125 -19.7173828125 21.1 -7.35 18.7443359375 5.3640625 9.9 14.7
L 9.25 15.4
Q 8.1162109375 16.587890625 5.75 18.7 5.75703125 18.69375 5.75 18.7
L 5.7 18.7 4.6 19.65 4.55 19.65 4.6 19.7 4.6 19.7
Q 10.8576171875 18.2390625 14.9 12.45 22.4810546875 1.691796875 24.05 -6.8 26.5447265625 -19.8826171875 22.9 -32.45 19.01640625 -45.780078125 9.8 -52.6 9.752734375 -52.6173828125 9.7 -52.65 9.2767578125 -52.9833984375 8.7 -52.95 Z"/>
</g>

<g id="FS_FrontLeg_3_4_hoof_7_Layer0_0_FILL">
<path fill="#EBD463" stroke="none" d="
M 4 -11.6
L 4.05 -11.6
Q -0.941796875 -13.1146484375 -5.65 -10.65 -5.684765625 -10.600390625 -5.75 -10.6 -6.2517578125 -10.2625 -6.75 -9.95
L -6.7 -10
Q -7.6634765625 -9.364453125 -8.45 -8.6 -10.3267578125 -6.7533203125 -11.05 -5.1
L -11.05 -5.1
Q -30.0138671875 40.01875 -9.3 66.05 -9.23828125 66.123828125 -9.2 66.15 -5.746875 69.9376953125 -1.15 68.65 2.9451171875 67.65390625 8 62.15 8.0501953125 62.1140625 8.1 62.05 21.908203125 43.6923828125 15.15 28.6 15.0796875 28.4025390625 10.75 21 7.12421875 14.7482421875 8.75 10.2 8.8173828125 10.176171875 8.85 10.1 11.4953125 7.864453125 12.55 4.35
L 12.55 4.3
Q 14.1173828125 -0.7203125 11.55 -5.45
L 11.55 -5.4
Q 9.0748046875 -10.045703125 4 -11.6
M 8.9 -4
L 8.9 -4
Q 10.882421875 -0.3796875 9.7 3.45
L 9.7 3.45
Q 8.9046875 6.1353515625 6.9 7.85 6.6046875 8.15078125 6.45 8.5
L 6.25 8.45
Q 6.007421875 9.424609375 5.85 10.4 4.3818359375 19.5 12.5 30 18.1720703125 43.58515625 5.8 60.1 1.5046875 64.7962890625 -1.9 65.75 -4.803125 66.512109375 -7 64.1 -24.980078125 41.0130859375 -10.8 2.35 -9.69609375 -0.608203125 -8.45 -3.65 -8.29921875 -3.931640625 -8.2 -4.2
L -8.5 -4.3 -8.15 -4.2
Q -6.8884765625 -6.0958984375 -6.15 -6.7 -5.36953125 -7.248046875 -5.1 -7.45
L -5.1 -7.45
Q -4.683203125 -7.7140625 -4.25 -8 -0.6580078125 -9.8853515625 3.15 -8.75
L 3.15 -8.75
Q 7.025 -7.554296875 8.9 -4 Z"/>

<path fill="#949494" stroke="none" d="
M 6.35 8.2
Q 6.3099609375 8.3357421875 6.25 8.45
L 6.45 8.5
Q 6.3904296875 8.3802734375 6.35 8.2 Z"/>

<path fill="#FDF6AE" stroke="none" d="
M 8.9 -4
L 8.9 -4
Q 7.025 -7.554296875 3.15 -8.75
L 3.15 -8.75
Q -0.6580078125 -9.8853515625 -4.25 -8 -4.683203125 -7.7140625 -5.1 -7.45
L -5.1 -7.45
Q -5.36953125 -7.248046875 -6.15 -6.7 -6.8884765625 -6.0958984375 -8.15 -4.2
L -8.2 -4.2
Q -8.29921875 -3.931640625 -8.45 -3.65 -9.69609375 -0.608203125 -10.8 2.35 -24.980078125 41.0130859375 -7 64.1 -4.803125 66.512109375 -1.9 65.75 1.5046875 64.7962890625 5.8 60.1 18.1720703125 43.58515625 12.5 30 4.3818359375 19.5 5.85 10.4 6.007421875 9.424609375 6.25 8.45 6.3099609375 8.3357421875 6.35 8.2 6.3904296875 8.3802734375 6.45 8.5 6.6046875 8.15078125 6.9 7.85 8.9046875 6.1353515625 9.7 3.45
L 9.7 3.45
Q 10.882421875 -0.3796875 8.9 -4 Z"/>
</g>

<g id="FS_FrontLeg_3_4_upper_6_Layer2_0_FILL">
<path fill="#FDF6AE" stroke="none" d="
M -19.3 32.3
L -19.35 32.3 -19.35 32.35 -19.3 32.3
M 5.1 6.7
L 5.1 6.7
Q 4.8970703125 6.7099609375 4.1 6.75 3.3763671875 6.851953125 1.1 7.5 -1.13515625 8.2087890625 -3.5 8.75 -5.8873046875 9.265625 -11.25 8.4 -16.6271484375 7.5392578125 -23.95 9.85
L -24 9.85 -16.35 32.45
Q -13.369921875 27.9671875 -1.45 26.75 1.785546875 26.421484375 5.6 26.3
L 5.5 26.15
Q 6.24765625 26.2146484375 7 26.15
L 7 26.15
Q 10.97890625 25.737890625 13.55 22.6
L 13.55 22.65
Q 16.1224609375 19.473828125 15.75 15.45
L 15.75 15.4
Q 15.3708984375 11.4361328125 12.2 8.85 9.0986328125 6.3505859375 5.1 6.7 Z"/>

<path fill="#EBD463" stroke="none" d="
M 5.1 6.7
L 5.1 6.7
Q 9.0986328125 6.3505859375 12.2 8.85 15.3708984375 11.4361328125 15.75 15.4
L 15.75 15.45
Q 16.1224609375 19.473828125 13.55 22.65
L 13.55 22.6
Q 10.97890625 25.737890625 7 26.15
L 7 26.15
Q 6.24765625 26.2146484375 5.5 26.15
L 5.6 26.3
Q 1.785546875 26.421484375 -1.45 26.75 -13.369921875 27.9671875 -16.35 32.45 -7.978515625 30.5599609375 3.2 29.55 4.9384765625 29.426171875 6.05 29.2 6.651953125 29.18359375 7.25 29.1
L 7.3 29.1
Q 12.4861328125 28.6171875 15.85 24.55
L 15.85 24.5
Q 19.2109375 20.4046875 18.75 15.15
L 18.75 15.15
Q 18.2197265625 9.909375 14.05 6.55 11.694140625 4.615234375 8.9 3.95 5.0951171875 2.5880859375 -0.1 4.55 -5.3130859375 6.56015625 -10.2 5.5 -16.16484375 4.2443359375 -24.6 6.9 -27.1306640625 8.252734375 -24 9.85
L -23.95 9.85
Q -16.6271484375 7.5392578125 -11.25 8.4 -5.8873046875 9.265625 -3.5 8.75 -1.13515625 8.2087890625 1.1 7.5 3.3763671875 6.851953125 4.1 6.75 4.8970703125 6.7099609375 5.1 6.7 Z"/>
</g>

<g id="FS_FrontLeg_3_4_upper_6_Layer1_0_FILL">
<path fill="#EBD463" stroke="none" d="
M -4.8 4.8
Q -5.25078125 3.61484375 -6.05 2.15 -6.7310546875 7.5908203125 -8.05 10.25
L -7.6 9.4
Q -7.8115234375 9.965625 -8 10.5 -7.66796875 10.4953125 -7.4 10.45 -2.8134765625 10.0880859375 -4.8 4.8
M 19.55 15.2
Q 19.548046875 10.151171875 16.45 6.3 13.576171875 2.2455078125 7.9 -0.4 9.5689453125 0.664453125 10.9 1.95 14.6564453125 5.6427734375 15.85 11.25 16.4048828125 13.7087890625 16.45 16.55
L 16.45 16.5
Q 16.285546875 18.300390625 15.55 19.85 13.824609375 25.093359375 5.15 26.6
L 5.1 26.6
Q 0.4158203125 26.549609375 -3.65 27 -1.5599609375 28.8796875 2.25 29.4 11.091015625 29.5318359375 15.3 25.35
L 15.3 25.35
Q 19.54765625 21.112890625 19.55 15.2 Z"/>

<path fill="#FDF6AE" stroke="none" d="
M 15.55 19.85
Q 16.285546875 18.300390625 16.45 16.5
L 16.45 16.55
Q 16.4048828125 13.7087890625 15.85 11.25 14.6564453125 5.6427734375 10.9 1.95 9.5689453125 0.664453125 7.9 -0.4 1.8404296875 -0.3458984375 -6.05 2.15 -5.25078125 3.61484375 -4.8 4.8 -2.8134765625 10.0880859375 -7.4 10.45 -7.66796875 10.4953125 -8 10.5 -8.6787109375 12.6267578125 -8.8 14.25 -8.95546875 17.5822265625 -8.4 19.8 -7.8125 22.023828125 -3.65 27 0.4158203125 26.549609375 5.1 26.6
L 5.15 26.6
Q 13.824609375 25.093359375 15.55 19.85 Z"/>
</g>

<g id="FS_HoofWrinkle_1_Layer0_0_FILL">
<path fill="#EBD463" stroke="none" d="
M 5.1 -10.5
Q 0.6984375 -8.3498046875 -4.6 -7.55 2.472265625 -4.8521484375 5.1 -10.5
M -3.5 16.85
Q -8.258203125 11.0177734375 -6.65 -3.35 -13.3845703125 10.7171875 -3.5 16.85 Z"/>
</g>

<g id="FS_Neck_3_Layer0_0_FILL">
<path fill="#EBD564" stroke="none" d="
M 16.5 -0.95
L 16.5 -1
Q 16.35 -4.15 14.55 -6.45
L 14.55 -6.45 16.75 40.05
Q 15.338671875 52.17109375 -1.45 51 -15.9587890625 49.69609375 -16.35 40.2
L -14.8 -6.45
Q -16.8 -3.35 -16.7 -0.9
L -19.35 39.95 -19.35 40
Q -19.35078125 40.0619140625 -19.35 40.1 -19.450390625 52.4119140625 -1.7 54
L -1.65 54
Q 18.469140625 55.41328125 19.8 40.25
L 19.8 40.25
Q 19.80625 40.179296875 19.8 40.1 19.80546875 40.0416015625 19.8 39.95
L 19.8 39.95 16.5 -0.95 Z"/>

<path fill="#FDF6AE" stroke="none" d="
M 14.55 -6.45
L 14.5 -6.45 14.1 -11.75
Q 13.95 -17.4 9.95 -20.45 6.25 -23.25 0.45 -23 -13.15 -22.45 -14.5 -11.9
L -14.85 -6.45 -14.8 -6.45 -16.35 40.2
Q -15.9587890625 49.69609375 -1.45 51 15.338671875 52.17109375 16.75 40.05
L 14.55 -6.45 Z"/>
</g>

<g id="FS_Mane_01_4_Layer1_0_FILL">
<path fill="#000000" stroke="none" d="
M -19.7 -16.75
L -19.75 -16.8 -19.8 -16.9
Q -19.762109375 -16.8255859375 -19.75 -16.8 -19.7802734375 -16.7255859375 -19.85 -16.7 -19.7609375 -16.7103515625 -19.7 -16.75
M -34.8 22.75
Q -34.7599609375 22.6541015625 -34.75 22.55
L -34.85 22.7
Q -34.7986328125 22.735546875 -34.8 22.75 Z"/>

<path fill="#F4B6D1" stroke="none" d="
M -21.6 -21.15
Q -20.9421875 -19.83359375 -20.35 -18.35 -16.8458984375 -20.423828125 -13.1 -21.7 -9.023828125 -23.0841796875 -4.65 -23.55 -16.0349609375 -27.5384765625 -23.95 -25.35 -22.659375 -23.401953125 -21.6 -21.15
M -35.7 22.25
Q -36.7818359375 21.7201171875 -38.1 21.6 -50.4666015625 20.771484375 -60.7 41.35 -73.0900390625 65.9177734375 -73 100.8 -72.9775390625 114.5125 -69 133.65 -66.2193359375 146.7603515625 -65.45 151.4 -63.819921875 161.4908203125 -63.95 169.4 -64.140234375 180.619921875 -66.75 187.3 -62.2333984375 188.012109375 -59.7 184.45
L -59.75 184.4
Q -55.6650390625 177.91171875 -51.35 164.7 -46.8755859375 149.3669921875 -44.55 141.85 -38.555859375 122.700390625 -37.05 107.25 -36.34296875 99.8970703125 -36.5 89.95 -36.7771484375 78.4517578125 -36.95 72.6 -37.5505859375 43.7048828125 -35.7 22.25
M -34.6 12
Q -35.253125 11.46875 -36 10.95 -40.31484375 8.102734375 -45.25 8 -50.387890625 7.8962890625 -54.55 10.75 -61.5318359375 15.7298828125 -67.5 29.8 -72.4404296875 41.39296875 -75.2 54.3 -80.1306640625 76.9720703125 -78.9 104.3 -78.771875 107.416796875 -78.75 110.25 -74.9943359375 129.055859375 -73.65 140.7 -71.468359375 159.3171875 -72.95 174.2 -73.0705078125 175.6474609375 -73.2 176.45 -74.28828125 183.0326171875 -68.05 186.6 -64.2208984375 175.9087890625 -65.45 162.25 -65.9841796875 155.756640625 -67.7 147 -69.79375 137.1634765625 -70.75 132.6 -77.522265625 99.5779296875 -71.1 69.05 -67.6033203125 52.416796875 -62.6 42.45 -55.92109375 29.1541015625 -48.35 24.2 -44.6697265625 21.815625 -41.1 21.05 -37.9369140625 20.3544921875 -35.6 21.15 -35.13515625 16.4044921875 -34.6 12
M -27.05 -25.1
Q -32.25 -32.334375 -40.05 -34.15 -48.4576171875 -36.05 -54.65 -29.95 -63.537890625 -21.1693359375 -72.15 0.1 -78.9080078125 17.0951171875 -82.95 36.35 -87.1416015625 56.1470703125 -85.45 72.6 -84.6208984375 80.4630859375 -80.55 101.3 -80.7544921875 95.062890625 -80.8 94.45 -81.2416015625 65.9716796875 -72.65 39.55 -68.3501953125 26.4138671875 -64 19.45 -56.9896484375 8.1556640625 -47.5 7.05 -39.95703125 6.1931640625 -34.4 10.6 -34.151171875 8.9072265625 -33.9 7.25 -31.853125 -6.028515625 -26.55 -12.85 -24.863671875 -14.92265625 -22.65 -16.6 -24.569921875 -21.60703125 -27.05 -25.1 Z"/>

<path fill="#E781B3" stroke="none" d="
M -59.4 -28.05
Q -64.958984375 -21.718359375 -71.75 -7.25 -77.891015625 5.9248046875 -82.75 23.45 -88.3259765625 44.2013671875 -88.9 57.65 -89.55234375 71.7271484375 -85.75 91.8 -83.62421875 103.11796875 -79 125.55 -76.2388671875 142.087109375 -75.6 155.95 -75.172265625 163.975 -75.7 171.95 -75.78671875 174.01953125 -76.05 175.75
L -76 175.8
Q -77.218359375 182.616796875 -72.65 187.45 -70.691796875 189.3740234375 -67.45 189.85 -61.63203125 190.4302734375 -60.15 188.55 -58.4478515625 186.4583984375 -55.2 181.05 -51.9044921875 175.6849609375 -47.6 162 -43.1685546875 146.2056640625 -40.85 138.6 -33.921875 116.2451171875 -33.4 94.35 -33.300390625 89.6822265625 -33.6 82.4 -34.023828125 71.9224609375 -34.05 70.45 -34.2943359375 60.152734375 -33.9 46.2 -33.0244140625 17.861328125 -30.55 3.75 -28.4064453125 -8.4869140625 -22 -14.85 -20.9310546875 -15.8859375 -19.75 -16.8 -19.7703125 -16.8330078125 -19.8 -16.9
L -19.8 -16.9 -19.8 -16.9 -19.75 -16.8 -19.7 -16.75
Q -15.71328125 -19.1806640625 -13.1 -20.35 -9.2369140625 -22.05234375 -4.65 -23.55 -9.023828125 -23.0841796875 -13.1 -21.7 -16.8458984375 -20.423828125 -20.35 -18.35 -20.9421875 -19.83359375 -21.6 -21.15 -22.659375 -23.401953125 -23.95 -25.35 -29.4615234375 -33.813671875 -38.55 -36 -49.946484375 -38.7677734375 -59.4 -28.05
M -40.05 -34.15
Q -32.25 -32.334375 -27.05 -25.1 -24.569921875 -21.60703125 -22.65 -16.6 -24.863671875 -14.92265625 -26.55 -12.85 -31.853125 -6.028515625 -33.9 7.25 -34.151171875 8.9072265625 -34.4 10.6 -39.95703125 6.1931640625 -47.5 7.05 -56.9896484375 8.1556640625 -64 19.45 -68.3501953125 26.4138671875 -72.65 39.55 -81.2416015625 65.9716796875 -80.8 94.45 -80.7544921875 95.062890625 -80.55 101.3 -84.6208984375 80.4630859375 -85.45 72.6 -87.1416015625 56.1470703125 -82.95 36.35 -78.9080078125 17.0951171875 -72.15 0.1 -63.537890625 -21.1693359375 -54.65 -29.95 -48.4576171875 -36.05 -40.05 -34.15
M -36 10.95
Q -35.253125 11.46875 -34.6 12 -35.13515625 16.4044921875 -35.6 21.15 -37.9369140625 20.3544921875 -41.1 21.05 -44.6697265625 21.815625 -48.35 24.2 -55.92109375 29.1541015625 -62.6 42.45 -67.6033203125 52.416796875 -71.1 69.05 -77.522265625 99.5779296875 -70.75 132.6 -69.79375 137.1634765625 -67.7 147 -65.9841796875 155.756640625 -65.45 162.25 -64.2208984375 175.9087890625 -68.05 186.6 -74.28828125 183.0326171875 -73.2 176.45 -73.0705078125 175.6474609375 -72.95 174.2 -71.468359375 159.3171875 -73.65 140.7 -74.9943359375 129.055859375 -78.75 110.25 -78.771875 107.416796875 -78.9 104.3 -80.1306640625 76.9720703125 -75.2 54.3 -72.4404296875 41.39296875 -67.5 29.8 -61.5318359375 15.7298828125 -54.55 10.75 -50.387890625 7.8962890625 -45.25 8 -40.31484375 8.102734375 -36 10.95
M -34.75 22.55
Q -34.7599609375 22.6541015625 -34.8 22.75 -34.7986328125 22.735546875 -34.85 22.7
L -34.75 22.55
M -38.1 21.6
Q -36.7818359375 21.7201171875 -35.7 22.25 -37.5505859375 43.7048828125 -36.95 72.6 -36.7771484375 78.4517578125 -36.5 89.95 -36.34296875 99.8970703125 -37.05 107.25 -38.555859375 122.700390625 -44.55 141.85 -46.8755859375 149.3669921875 -51.35 164.7 -55.6650390625 177.91171875 -59.75 184.4
L -59.7 184.45
Q -62.2333984375 188.012109375 -66.75 187.3 -64.140234375 180.619921875 -63.95 169.4 -63.819921875 161.4908203125 -65.45 151.4 -66.2193359375 146.7603515625 -69 133.65 -72.9775390625 114.5125 -73 100.8 -73.0900390625 65.9177734375 -60.7 41.35 -50.4666015625 20.771484375 -38.1 21.6 Z"/>
</g>

<g id="FS_Mane_02_4_Layer0_0_FILL">
<path fill="#F4B6D1" stroke="none" d="
M -16.2 15.2
Q -12.7462890625 17.4095703125 -9.65 16.35 -6.6548828125 15.3677734375 -4.7 11.7 -1.899609375 6.5154296875 -0.7 0
L -7.7 -3.4
Q -10.7814453125 6.4634765625 -16.25 6.85 -19.7416015625 7.0744140625 -22.45 4.7 -23.0666015625 4.1890625 -23.6 3.55 -23.412890625 4.3828125 -23.2 5.15 -21.4279296875 11.901171875 -16.2 15.2
M -25.75 -1.25
Q -25.8720703125 -2.174609375 -25.9 -3.15 -25.86875 -4.3197265625 -27.55 -4.55 -28.915234375 -4.5646484375 -28.75 -3.05 -28.66484375 -1.6568359375 -28.45 -0.25 -26.0521484375 14.54375 -17.95 18.2 -11.6791015625 21.045703125 -5.05 16.75 -0.2453125 13.6984375 5.6 5.05
L 0.5 0
Q -0.524609375 6.49375 -2.85 10.8 -7.0908203125 18.6759765625 -12.9 17.65 -23.6822265625 15.811328125 -25 3.05 -25.1123046875 2.002734375 -25.15 0.9 -25.5345703125 -0.0974609375 -25.75 -1.25 Z"/>

<path fill="#E781B3" stroke="none" d="
M -31.7 -3.7
Q -31.6455078125 -1.9435546875 -31.5 -0.4 -30.083984375 12.226171875 -22.65 18 -16.293359375 22.9671875 -5.5 18.4 -0.5802734375 16.287890625 3.85 10.9 5.5478515625 8.909765625 5.6 5.05 -0.2453125 13.6984375 -5.05 16.75 -11.6791015625 21.045703125 -17.95 18.2 -26.0521484375 14.54375 -28.45 -0.25 -28.66484375 -1.6568359375 -28.75 -3.05 -28.915234375 -4.5646484375 -27.55 -4.55 -25.86875 -4.3197265625 -25.9 -3.15 -25.8720703125 -2.174609375 -25.75 -1.25 -25.5345703125 -0.0974609375 -25.15 0.9 -25.1123046875 2.002734375 -25 3.05 -23.6822265625 15.811328125 -12.9 17.65 -7.0908203125 18.6759765625 -2.85 10.8 -0.524609375 6.49375 0.5 0
L -0.7 0
Q -1.899609375 6.5154296875 -4.7 11.7 -6.6548828125 15.3677734375 -9.65 16.35 -12.7462890625 17.4095703125 -16.2 15.2 -21.4279296875 11.901171875 -23.2 5.15 -23.412890625 4.3828125 -23.6 3.55 -23.0666015625 4.1890625 -22.45 4.7 -19.7416015625 7.0744140625 -16.25 6.85 -10.7814453125 6.4634765625 -7.7 -3.4 -10.3677734375 -3.835546875 -11.55 0 -12.1494140625 1.9513671875 -13.05 3.2 -14.3974609375 5.126953125 -16.55 4.95 -18.44296875 4.8828125 -20.2 3.25 -22.6244140625 0.9580078125 -23.05 -3 -23.4279296875 -6.9173828125 -27.4 -6.9 -31.3205078125 -6.878125 -31.7 -3.7 Z"/>
</g>

<g id="FS_Mane_03_4_Layer0_0_FILL">
<path fill="#F4B6D1" stroke="none" d="
M 9 9.6
Q 8.051171875 10.4890625 6.9 10.85 3.28125 12.0220703125 1.9 6.7 1.0005859375 3.1939453125 1.35 -0.2 -0.05 -2.8837890625 -1.5 -0.2 -1.9181640625 4.3291015625 -1.1 8.95 0.30078125 16.7220703125 5.15 14.5 8.2435546875 13.0927734375 9 9.6 Z"/>

<path fill="#E781B3" stroke="none" d="
M 9.1 3.05
Q 9.0185546875 3.3146484375 8.9 3.55 8.30546875 5.2853515625 7.3 6.85 6.3517578125 8.437890625 6.2 8.55 5.52421875 9.212109375 5.1 7.75 4.5884765625 6.1447265625 4.35 4.7 4.1693359375 2.913671875 4.1 1 2.836328125 0.19375 1.35 -0.2 1.0005859375 3.1939453125 1.9 6.7 3.28125 12.0220703125 6.9 10.85 8.051171875 10.4890625 9 9.6 8.2435546875 13.0927734375 5.15 14.5 0.30078125 16.7220703125 -1.1 8.95 -1.9181640625 4.3291015625 -1.5 -0.2 -3.1341796875 0.1244140625 -4.6 1.05 -4.56328125 3.405078125 -4.6 3.85 -4.4109375 11.9751953125 -0.35 14.6 2.028515625 16.1345703125 4.65 16.15 7.659765625 16.2580078125 9.5 14.35 13.2658203125 10.4716796875 11.9 4.2 11.348828125 1.61796875 9.9 -1.4
L 9.7 0.55
Q 9.619140625 1.08046875 9.5 1.6
L 9.15 2.8
Q 9.1396484375 2.927734375 9.1 3.05 Z"/>
</g>

<g id="FS_Torso_4_Layer1_0_FILL">
<path fill="#EBD564" stroke="none" d="
M 24.3 -25.15
Q 14.44609375 -35.7625 0.5 -35.75 -13.498828125 -35.7625 -23.3 -25.15 -33.146484375 -14.5494140625 -33.1 0.4 -33.146484375 15.3494140625 -23.3 25.9 -13.4990234375 36.614453125 0.5 36.6 14.4466796875 36.6142578125 24.3 25.9 34.1447265625 15.3482421875 34.15 0.45 34.143359375 -14.5498046875 24.3 -25.15
M 0.5 -32.75
Q 13.153515625 -32.7376953125 22.1 -23.1 31.1564453125 -13.350390625 31.15 0.45 31.1548828125 14.1517578125 22.1 23.85 13.1533203125 33.5853515625 0.5 33.6 -12.201171875 33.585546875 -21.1 23.85 -30.15390625 14.1505859375 -30.1 0.4 -30.15390625 -13.3505859375 -21.1 -23.1 -12.2013671875 -32.7376953125 0.5 -32.75 Z"/>

<path fill="#FDF6AE" stroke="none" d="
M 22.1 -23.1
Q 13.153515625 -32.7376953125 0.5 -32.75 -12.2013671875 -32.7376953125 -21.1 -23.1 -30.15390625 -13.3505859375 -30.1 0.4 -30.15390625 14.1505859375 -21.1 23.85 -12.201171875 33.585546875 0.5 33.6 13.1533203125 33.5853515625 22.1 23.85 31.1548828125 14.1517578125 31.15 0.45 31.1564453125 -13.350390625 22.1 -23.1 Z"/>
</g>

<g id="FS_FrontLeg_3_4_hoof_5_Layer0_0_FILL">
<path fill="#FDF6AE" stroke="none" d="
M -12.25 -12.15
Q -15.8 -7.7 -18.1 -3.25 -20.4 1.2 -22.55 7.9 -24.7 14.6 -18.85 17.05 -13.05 19.5 -1 18.7 11.1 17.9 14.15 13.7 17.2 9.5 17.4 1.2 17.6 -7.15 12.2 -12.35 6.75 -17.55 -0.95 -17.05 -8.7 -16.6 -12.25 -12.15 Z"/>
</g>

<g id="FS_KneePatch_1_Layer0_0_FILL">
<path fill="#EBD463" stroke="none" d="
M 10.75 -8.3
L 10.75 -8.45
Q 10.999609375 -9.6171875 11 -10.9 11.0111328125 -16.75078125 6.7 -21.15 2.4033203125 -25.5216796875 -3.55 -25.85 -9.52421875 -26.1814453125 -13.85 -22.55 -18.2634765625 -18.8869140625 -18.25 -13.75
L -18.25 -13.7
Q -18.333203125 -9.8595703125 -15.45 -3.75
L -15.4 -3.65 -15.4 -3.6
Q -12.6767578125 2.0408203125 -9.8 10.1
L -9.75 10.2
Q -9.74140625 10.22421875 -9.75 10.25
L -9.75 10.25
Q -6.684765625 18.7166015625 -4.1 21.8
L -4.05 21.85
Q -1.2443359375 25.3462890625 3.45 25.6
L 3.5 25.6
Q 8.171875 25.7728515625 11.55 22.6 14.949609375 19.4423828125 15.4 15.75 15.955859375 12.0994140625 13.1 9.2 8.4591796875 3.042578125 10.65 -7.8 10.721875 -8.034375 10.75 -8.3 Z"/>
</g>

<g id="FS_HindLeg_3_4_top_2_Layer0_0_FILL">
<path fill="#F4B6D1" stroke="none" d="
M 16.5 17.15
L 16.45 17.15 16.5 17.2
Q 16.4787109375 17.151953125 16.5 17.15 Z"/>

<path fill="#E781B3" stroke="none" d="
M 16.45 17.15
L 16.45 17.2 16.5 17.2 16.45 17.15 Z"/>

<path fill="#EBD463" stroke="none" d="
M 11.8 0.05
Q 13.2087890625 3.594140625 14.4 7.85 15.15546875 10.630859375 15.8 13.7 16.1900390625 15.3919921875 16.5 17.15 16.4787109375 17.151953125 16.5 17.2
L 16.45 17.2
Q 18.162890625 30.0640625 14.3 46.3 13.5052734375 49.713671875 11.7 55.5
L 11.7 55.45
Q 11.6388671875 55.6490234375 11.55 55.8 11.1130859375 57.3369140625 10.6 58.8 9.9380859375 60.802734375 9.5 62.75 9.075 64.9130859375 8.65 67.05 8.3126953125 68.936328125 7.85 70.75 5.5740234375 77.37890625 0.3 77.15 -1.5314453125 77.11015625 -3.25 76.4 -4.5853515625 75.5765625 -5.8 74.55 -7.271875 73.4287109375 -8.4 72 -9.7490234375 70.2783203125 -10.8 68.45 -12.049609375 66.2267578125 -13.15 63.95 -13.2830078125 63.592578125 -13.45 63.2 -14.7404296875 60.454296875 -15.95 57.8 -21.2796875 46.1369140625 -23.5 36.85 -25.8796875 26.25546875 -26.1 20 -28.945703125 26.3833984375 -26.45 37.55
L -26.45 37.55
Q -24.1619140625 47.09453125 -18.7 59.05 -17.7193359375 61.1439453125 -16.7 63.3 -16.528515625 63.6611328125 -16.35 64 -15.3994140625 66.012890625 -14.4 67.95 -13.7240234375 69.2767578125 -12.9 70.5 -11.497265625 72.7162109375 -9.75 74.65 -8.3203125 76.3541015625 -6.5 77.6 -4.9224609375 78.6896484375 -3.15 79.5 -1.578125 79.96328125 0.05 79.9 8.0853515625 79.0001953125 10 71.7 10.137890625 71.2021484375 10.25 70.7
L 14.4 55.75
Q 16.717578125 49.198828125 17.25 47 21.2779296875 30.310546875 19.45 16.75
L 19.45 16.7
Q 19.257421875 15.11875 18.95 13.65 18.2787109375 10.4556640625 17.15 7.8 15.176953125 3.1 11.8 0.05
M 11.45 -0.25
L 11.45 -0.25 10.95 -1.55 11.4 -0.3
Q 11.4265625 -0.2515625 11.45 -0.25 Z"/>

<path fill="#FDF6AE" stroke="none" d="
M 14.4 7.85
Q 13.2087890625 3.594140625 11.8 0.05
L 11.75 0.05
Q -12.2166015625 -0.070703125 -26.1 20 -25.8796875 26.25546875 -23.5 36.85 -21.2796875 46.1369140625 -15.95 57.8 -14.7404296875 60.454296875 -13.45 63.2 -13.2830078125 63.592578125 -13.15 63.95 -12.049609375 66.2267578125 -10.8 68.45 -9.7490234375 70.2783203125 -8.4 72 -7.271875 73.4287109375 -5.8 74.55 -4.5853515625 75.5765625 -3.25 76.4 -1.5314453125 77.11015625 0.3 77.15 5.5740234375 77.37890625 7.85 70.75 8.3126953125 68.936328125 8.65 67.05 9.075 64.9130859375 9.5 62.75 9.9380859375 60.802734375 10.6 58.8 11.1130859375 57.3369140625 11.55 55.8 11.6388671875 55.6490234375 11.7 55.45
L 11.7 55.5
Q 13.5052734375 49.713671875 14.3 46.3 18.162890625 30.0640625 16.45 17.2
L 16.45 17.15 16.5 17.15
Q 16.1900390625 15.3919921875 15.8 13.7 15.15546875 10.630859375 14.4 7.85 Z"/>
</g>

<g id="FS_HindLeg_3_4rear_lower_1_Layer1_0_FILL">
<path fill="#FDF6AE" stroke="none" d="
M 11.5 -5.15
Q 1.85 -8.45 -5.65 -3.6 -13.1 2.15 -8.9 12.2 -5.2 19.7 7.6 6.9 17 -1.4 11.5 -5.15 Z"/>
</g>

<g id="FS_HindLeg_3_4rear_lower_1_Layer0_0_FILL">
<path fill="#FDF6AE" stroke="none" d="
M -10.35 6.85
Q -8.9 34.95 -9.55 62.15 7.85 57.7 26.2 53.5 21.45 27.7 13.4 -2.95 1.7 1.95 -10.35 6.85 Z"/>
</g>

<g id="FS_KneePatch_0_Layer0_0_FILL">
<path fill="#FDF6AE" stroke="none" d="
M 6.95 -3.8
Q 7.6271484375 -8.4921875 7.65 -8.75
L 7.65 -8.75
Q 7.6830078125 -8.7876953125 7.7 -8.85 7.850390625 -9.7474609375 7.85 -10.75 7.8390625 -15.39921875 4.4 -18.9 0.946484375 -22.4283203125 -3.85 -22.7 -8.6259765625 -22.9685546875 -12.1 -20.1 -15.376171875 -17.3716796875 -15.4 -13.55
L -15.4 -13.55
Q -15.40625 -10.530078125 -12.6 -4.2
L -12.4 -3.7
Q -12.324609375 -3.590625 -12.3 -3.5 -12.2001953125 -3.3171875 -12.15 -3.15 -12.0654296875 -3.0400390625 -12 -2.95
L -12 -2.9 -11.95 -2.8
Q -9.565234375 2.4005859375 -7.1 9.35 -7.0333984375 9.4712890625 -7.05 9.6 -4.2322265625 17.2533203125 -1.9 20.1
L -1.9 20.1
Q 0.112890625 22.6044921875 3.45 22.75 6.435546875 22.852734375 8.7 21.1
L 8.7 21.15
Q 19.876171875 11.2931640625 12.45 5.8 11.055859375 5.381640625 9.7 4.45 9.7404296875 4.5390625 9.75 4.6 8.476171875 3.9505859375 7.75 2.7 6.5830078125 1.1353515625 6.75 -1.95 6.7810546875 -2.8294921875 6.9 -3.8
L 6.95 -3.8 Z"/>
</g>

<g id="FS_HoofWrinkle_0_Layer0_0_FILL">
<path fill="#EBD463" stroke="none" d="
M 6.4 0.9
Q 6.229296875 0.7560546875 6.05 0.6 3.57890625 -1.2400390625 -0.2 -1.1 -3.897265625 -1.0052734375 -6.15 0.85 -6.28046875 0.943359375 -6.4 1.05
L -6.05 1
Q 0.6 0 5.95 0.8
L 6.4 0.9 Z"/>
</g>

<g id="FS_HindLeg_3_4rearnomark_1_Layer0_0_FILL">
<path fill="#FDF6AE" stroke="none" d="
M 7.15 55.9
L 21.35 52.35
Q 16.744140625 48.459765625 7.5 47.65
L 7.15 55.9 Z"/>
</g>

<g id="FS_Torso_13_Layer1_0_FILL">
<path fill="#FDF6AE" stroke="none" d="
M 6.75 35.4
Q 21.37890625 32.6923828125 29.45 26
L 24.6 4.35 1.25 11.15 6.75 35.4 Z"/>

<path fill="#EBD564" stroke="none" d="
M 29.45 26
Q 21.37890625 32.6923828125 6.75 35.4 10.15 36 13.35 36 17 36.05 20.5 34.6 26.5 32.2 29.45 26 Z"/>
</g>

<g id="FS_FrontLeg_3_4_hoof_4_Layer0_0_FILL">
<path fill="#F26F31" stroke="none" d="
M -13.4 -12.85
L -13.4 -12.85 -13.4 -12.85 -13.4 -12.85 Z"/>

<path fill="#EBD463" stroke="none" d="
M -1.15 -18.45
L -1.2 -18.45
Q -9.624609375 -17.8423828125 -13.4 -12.85
L -13.4 -12.85
Q -16.978515625 -8.244140625 -19.45 -3.2
L -19.45 -3.25
Q -21.8619140625 1.6474609375 -24.65 7.7 -26.3091796875 11.4185546875 -25.4 13.65 -24.5841796875 16.204296875 -21 17 -15.576171875 18.259765625 -2.15 18.05 12.0072265625 17.7810546875 15.25 13.85 18.7416015625 10.1349609375 18.9 1.1 19.00546875 -7.925390625 13.05 -13.5 7.154296875 -19.091015625 -1.15 -18.45
M -0.95 -15.45
L -0.95 -15.45
Q 6.0544921875 -16.0005859375 11 -11.3 15.99453125 -6.574609375 15.9 1.05 15.7583984375 8.665625 13 11.85 10.0958984375 14.81875 -2.2 15.05 -15.123828125 15.2400390625 -20.35 14.05 -22.069140625 13.694921875 -22.6 12.65 -22.9419921875 11.2833984375 -21.9 8.95 -19.13828125 2.9525390625 -16.75 -1.9
L -16.75 -1.9
Q -14.421484375 -6.655859375 -11.05 -11
L -11 -11
Q -7.869921875 -14.9509765625 -0.95 -15.45 Z"/>

<path fill="#FDF6AE" stroke="none" d="
M -0.95 -15.45
L -0.95 -15.45
Q -7.869921875 -14.9509765625 -11 -11
L -11.05 -11
Q -14.421484375 -6.655859375 -16.75 -1.9
L -16.75 -1.9
Q -19.13828125 2.9525390625 -21.9 8.95 -22.9419921875 11.2833984375 -22.6 12.65 -22.069140625 13.694921875 -20.35 14.05 -15.123828125 15.2400390625 -2.2 15.05 10.0958984375 14.81875 13 11.85 15.7583984375 8.665625 15.9 1.05 15.99453125 -6.574609375 11 -11.3 6.0544921875 -16.0005859375 -0.95 -15.45 Z"/>
</g>

<g id="FS_HindLeg_3_4rear_lower_0_Layer1_0_FILL">
<path fill="#F26F31" stroke="none" d="
M 8.6 8
Q 8.6333984375 7.9955078125 8.65 7.95
L 8.65 7.95 8.6 8 Z"/>

<path fill="#EBD463" stroke="none" d="
M 12.35 -6.4
Q 12.1732421875 -6.510546875 11.95 -6.6 1.59140625 -10.1181640625 -6.5 -4.85 -6.526171875 -4.8123046875 -6.6 -4.8 -14.9587890625 1.5962890625 -10.3 12.75 -10.2638671875 12.8216796875 -10.25 12.85 -7.8515625 17.784765625 -2.5 16.05 1.90625 14.6984375 8.65 7.95
L 8.65 7.95
Q 13.7076171875 3.494921875 14.7 0.2 16.0470703125 -3.87109375 12.35 -6.4
M 10.75 -3.8
Q 12.4302734375 -2.605078125 11.85 -0.75 10.8990234375 1.983203125 6.6 5.75 6.5771484375 5.8119140625 6.55 5.85 0.493359375 11.901953125 -3.4 13.2 -6.248828125 14.115234375 -7.55 11.5
L -7.55 11.6
Q -7.5458984375 11.575 -7.6 11.5 -11.2048828125 2.68671875 -4.75 -2.4
L -4.85 -2.35
Q 2.0138671875 -6.721484375 10.75 -3.8 Z"/>

<path fill="#FCBA63" stroke="none" d="
M -7.55 11.5
L -7.6 11.5
Q -7.5458984375 11.575 -7.55 11.6
L -7.55 11.5 Z"/>

<path fill="#FDF6AE" stroke="none" d="
M 11.85 -0.75
Q 12.4302734375 -2.605078125 10.75 -3.8 2.0138671875 -6.721484375 -4.85 -2.35
L -4.75 -2.4
Q -11.2048828125 2.68671875 -7.6 11.5
L -7.55 11.5
Q -6.248828125 14.115234375 -3.4 13.2 0.493359375 11.901953125 6.55 5.85 6.5771484375 5.8119140625 6.6 5.75 10.8990234375 1.983203125 11.85 -0.75 Z"/>
</g>

<g id="FS_HindLeg_3_4rear_lower_0_Layer0_0_FILL">
<path fill="#EBD463" stroke="none" d="
M -8.05 10.15
L -8.2 9.7 -8.45 8.7 -11.35 9.5 -10.95 10.95
Q -3.5580078125 37.8861328125 -11.7 64.6 -11.7875 65.0125 -11.9 65.4
L -8.85 65.4
Q -0.5115234375 37.662109375 -8.05 10.15
M 11.65 -2.95
Q 11.686328125 -2.8736328125 11.7 -2.8 26.2828125 27.8509765625 24.65 64.3
L 27.6 64.1
Q 29.3125 27.137109375 14.35 -4.25
L 14.2 -4.5 11 -4.3 11.65 -2.95 Z"/>

<path fill="#FDF6AE" stroke="none" d="
M 24.65 64.3
Q 26.2828125 27.8509765625 11.7 -2.8
L -8.2 9.7 -8.05 10.15
Q -0.5115234375 37.662109375 -8.85 65.4
L 24.65 64.3 Z"/>
</g>

<g id="FS_CutieMark_2_Layer0_0_FILL">
<path fill="#F4B6D1" stroke="none" d="
M -4.75 10.5
Q -7.9388671875 7.471484375 -9.1 5.75 -10.8630859375 4.72578125 -12.65 4.5 -16.034375 3.494921875 -16.9 5.45 -17.2947265625 7.34453125 -14.45 8.85 -11.4484375 10.016015625 -10.1 9.25 -10.9953125 11.0345703125 -10.05 13.6 -8.7935546875 16.339453125 -6.4 16.85 -4.03828125 17.021484375 -4.1 14.65 -4.0822265625 12.9478515625 -4.75 10.5
M -6.55 -1.6
Q -7.716796875 -2.4013671875 -8.4 -0.15 -8.8302734375 1.428515625 -8.2 5 -7.5572265625 5.5875 -6.6 7.15 -5.1359375 8.7958984375 -4.4 10.4 -3.36875 10.3982421875 -1.2 11.05 1.7994140625 10.994921875 1.4 9.05 1.4787109375 6.4767578125 -1.35 5.6 -4.06328125 4.328125 -5.25 5.6 -4.7029296875 3.4638671875 -5.3 1.6 -5.5947265625 -0.41171875 -6.55 -1.6
M 11.9 8.45
Q 11.1830078125 6.4232421875 10.95 5.05 9.8658203125 1.878125 8.35 2.2 6.2166015625 1.878125 6.45 5.05 6.555859375 7.501953125 8.35 8.7 5.9689453125 8.3048828125 4.75 9.75 3.1806640625 11.1357421875 4.3 13.15 5.0896484375 14.9509765625 7.55 14.65 8.5314453125 14.1318359375 10.7 13.25 10.8125 9.6755859375 11.9 8.45
M 13.05 8.9
Q 12.70859375 9.51328125 12.3 10.95 11.5140625 12.6140625 11 13.6 11.4232421875 14.267578125 12.5 16.25 13.8470703125 18.3216796875 15.95 17.85 17.7060546875 16.93671875 16.7 14.6 15.715625 11.81171875 14.3 11.5 15.6765625 11.1701171875 17.3 9.95 18.7298828125 8.2943359375 19.05 7.25 18.9439453125 5.3611328125 17.05 6.5 14.9986328125 6.80078125 13.05 8.9
M 9.85 -9.75
Q 8.918359375 -8.804296875 7.75 -7.35 5.667578125 -5.2404296875 4.45 -4.3 4.27421875 -3.33984375 4.65 -1.2 5.4904296875 0.91171875 7.9 0.6 10.2787109375 0.4982421875 10.75 -2.85 10.75859375 -5.7427734375 9.75 -6.6 11.52890625 -6.695703125 14.3 -8.3 16.6421875 -9.6171875 17.9 -11.45 18.8861328125 -12.9513671875 16.1 -12.4 13.5044921875 -11.5201171875 9.85 -9.75
M 8.55 -17.9
Q 5.940625 -17.5779296875 4.85 -14.55 3.4306640625 -11.256640625 4.7 -10.15 2.7861328125 -10.409375 0 -9.1 -2.937890625 -7.1435546875 -3 -5 -2.8068359375 -2.5703125 0.05 -3.2 1.132421875 -3.2556640625 4.2 -4.65 6.851171875 -8.5861328125 8.8 -10.3 9.4345703125 -12.3935546875 9.9 -14.3 10.339453125 -17.7833984375 8.55 -17.9 Z"/>

<path fill="#6CC9C6" stroke="none" d="
M -10.8 -0.45
Q -10.4990234375 -0.8783203125 -10.35 -0.95 -9.8794921875 -0.9158203125 -9.9 -0.55 -9.73828125 -0.0052734375 -10.05 -0.1 -9.8353515625 -0.015625 -9.8 0.05 -9.404296875 0.1115234375 -9.5 -0.7 -9.4890625 -0.9875 -9.8 -1.3 -9.9904296875 -1.240625 -10.4 -1.4 -10.639453125 -1.0341796875 -11.2 -0.65 -11.283984375 -0.0126953125 -11.35 0.6 -10.7419921875 2.3486328125 -9.65 4.2 -9.65 4.249609375 -9.65 4.3 -10.0986328125 3.2322265625 -11.25 2.8 -12.83828125 1.3232421875 -13.9 1.5 -13.961328125 1.415234375 -14.15 1.5 -14.56015625 1.4232421875 -14.8 2 -14.92265625 2.3248046875 -14.9 2.6 -14.4515625 2.7515625 -14.35 3.15 -13.73046875 3.030078125 -13.5 3.2
L -13.35 3.1
Q -13.4115234375 2.6830078125 -13.6 2.75
L -13.65 2.8
Q -13.5447265625 2.5080078125 -14.1 2.7 -14.3474609375 2.56484375 -14.45 2.55 -14.4669921875 2.1513671875 -14 2 -13.958984375 1.5970703125 -13.9 1.95 -12.7337890625 1.723046875 -11.55 3.1 -10.6125 3.808203125 -9.7 5 -9.6375 4.72890625 -9.6 4.9 -9.2529296875 5.1802734375 -9.1 5.75 -7.9388671875 7.471484375 -4.75 10.5 -4.3810546875 10.8736328125 -3.85 11.35 -4.036328125 10.6205078125 -4.4 10.4 -5.1359375 8.7958984375 -6.6 7.15 -7.5572265625 5.5875 -8.2 5 -8.5396484375 4.066015625 -9.2 4.15
L -9.15 4.1
Q -10.517578125 2.019140625 -10.85 0.55 -10.7615234375 -0.1068359375 -10.8 -0.45
M 16.8 4
Q 16.4373046875 3.6701171875 16.05 3.8 14.9498046875 3.75078125 14.8 4.5 13.2873046875 5.5759765625 12.75 7.45
L 12.7 7.4
Q 12.666796875 6.8515625 13.1 5.6 13.300390625 3.2419921875 12.95 2.75 12.8748046875 2.4330078125 12.8 2.6 12.597265625 2.1947265625 12.2 2.4 11.534375 2.1443359375 11.65 2.5 11.2203125 2.5705078125 11.3 3.1 10.9619140625 3.3302734375 11.6 3.85 11.649609375 3.7390625 11.7 3.9 11.6515625 3.6140625 11.9 3.6 11.476171875 2.809765625 11.9 2.8 11.8095703125 2.4607421875 12.5 2.8 12.575 2.73046875 12.6 3 12.925390625 3.3732421875 12.65 5.4 12.21640625 7.0583984375 12.2 7.7 12.1736328125 7.737109375 12.25 7.75 11.7357421875 7.9427734375 11.9 8.45 10.8125 9.6755859375 10.7 13.25 10.4349609375 13.39453125 10.55 13.95 10.558984375 13.746484375 11 13.6 11.5140625 12.6140625 12.3 10.95 12.70859375 9.51328125 13.05 8.9 13.0111328125 7.8623046875 13.1 7.75
L 13.1 7.75
Q 13.0384765625 7.3068359375 13.8 6.5 14.2763671875 5.2220703125 15.05 4.75 15.5998046875 4.208203125 16.15 4.15 16.4470703125 4.0802734375 16.55 4.3 16.825390625 4.259765625 16.5 5 16.01640625 4.9177734375 15.95 5.15 15.7205078125 5.0447265625 15.95 5.55 16.0943359375 5.3615234375 16.85 5.3 17.269921875 4.344140625 16.8 4
M 12.8 -16.8
Q 12.78984375 -16.5642578125 12.9 -16.65 12.7921875 -15.9634765625 11.6 -13.8 10.2130859375 -11.79296875 9.65 -11.15 9.322265625 -10.79453125 9.75 -11.1 9.1390625 -10.454296875 8.8 -10.3 6.851171875 -8.5861328125 4.2 -4.65 3.852734375 -3.722265625 3.65 -3.6 4.11328125 -3.852734375 4.45 -4.3 5.667578125 -5.2404296875 7.75 -7.35 8.918359375 -8.804296875 9.85 -9.75 10.3720703125 -10.3361328125 10.7 -11.05 10.892578125 -11.6431640625 12.35 -12.6 13.4650390625 -13.5349609375 14.7 -14.35 15.4873046875 -14.6365234375 16.25 -15.1 16.3052734375 -14.814453125 16.7 -14.85 16.7 -14.5267578125 16.7 -14.5 16.4275390625 -14.372265625 16.3 -14.1 15.6220703125 -13.770703125 15.7 -14 15.087109375 -13.5080078125 15.4 -13.55 15.8513671875 -13.416796875 16.55 -13.75 16.6205078125 -13.722265625 17.15 -14.5 17.1998046875 -14.6171875 17.2 -15.2 16.943359375 -15.544921875 16.45 -15.55 15.6435546875 -15.4044921875 14.6 -14.75 12.367578125 -13.36328125 10.45 -11.45 10.412109375 -11.425 10.35 -11.45 11.2595703125 -12.537890625 11.95 -13.65 13.293359375 -15.7078125 13.4 -16.9 13.08203125 -16.6822265625 13.35 -17.15 12.866796875 -17.2875 12.8 -17.45 12.2802734375 -17.4560546875 12.05 -17.25 11.5677734375 -16.8279296875 11.4 -16.6 11.0107421875 -16.015625 11.3 -15.65 11.0107421875 -15.5880859375 11.4 -15.55 11.3916015625 -15.369921875 11.85 -15.85 11.8119140625 -15.862890625 11.75 -15.9 11.473046875 -16.1115234375 11.85 -16.45 11.8166015625 -16.5865234375 12.25 -16.85 12.2828125 -17.0162109375 12.8 -16.8 Z"/>
</g>

<g id="FS_HindLeg_3_4rear_0_Layer0_0_FILL">
<path fill="#FDF6AE" stroke="none" d="
M 8.4 62.25
L 16.75 62.25 20.4 60.4
Q 19.5904296875 57.5220703125 10.9 54.35
L 8.4 62.25 Z"/>
</g>

<g id="FS_WingBack_3_4_8_Layer6_0_FILL">
<path fill="#FDF6AE" stroke="none" d="
M -3.25 -10.95
L -3.25 -10.9
Q -6.771875 -9.8326171875 -7.95 -7.7 -9.437109375 -4.7736328125 -9.05 0.65 -11.0166015625 2.1763671875 -11.65 3.35
L -11.6 3.3
Q -12.3109375 4.779296875 -12.4 7 -12.5015625 10.356640625 -9.3 15.45 -11.1501953125 20.690625 -8.2 24.1 -4.8490234375 24.80546875 -1.4 24.3 7.390234375 23.14375 10.05 15.55 14.9142578125 1.3421875 -0.4 -15
L -1.4 -16.05 -3.2 -10.9 -3 -12.45 -3.25 -10.95
M -12.65 16.3
Q -13.2515625 15.454296875 -13.75 14.55
L -13.75 14.5
Q -14.09296875 13.80234375 -14.4 13.05
L -14.45 13.15 -30.5 2.95
Q -26.376953125 11.7984375 -19.9 17.6 -16.3068359375 20.8330078125 -12.6 22.55 -13.715234375 19.6021484375 -12.65 16.3
M -34.5 -13.45
Q -34.996875 -8.25390625 -32.05 -0.65 -31.8767578125 -0.2734375 -31.75 0.1 -31.509765625 0.718359375 -31.25 1.3
L -14.85 11.7
Q -15.46015625 9.433203125 -15.4 6.9 -15.2939453125 4.047265625 -14.4 2.15
L -34.5 -13.45
M -27.6 -19.2
L -27.65 -19.2
Q -32.028515625 -19.5138671875 -33.3 -17.7
L -33.3 -17.65
Q -34.0263671875 -16.362890625 -34.35 -14.8
L -34.35 -14.75
Q -34.3427734375 -14.6591796875 -34.35 -14.6
L -13.9 1.25
Q -13.2216796875 0.2173828125 -12.35 -0.55 -12.330859375 -5.6185546875 -10.75 -8.8
L -25.9 -19
Q -26.7892578125 -19.1376953125 -27.6 -19.2
M -21.7 -18.15
Q -22.5771484375 -18.3775390625 -23.45 -18.55
L -10.25 -9.7
Q -9.2578125 -11.2814453125 -8 -12.05 -13.21171875 -15.9927734375 -21.7 -18.15 Z"/>

<path fill="#EBD463" stroke="none" d="
M -27.4 -22.2
L -27.4 -22.2
Q -34.184375 -22.6814453125 -35.9 -19.15
L -35.9 -19.15
Q -36.8681640625 -17.446875 -37.3 -15.35
L -37.3 -15.35
Q -38.59375 -9.1455078125 -34.8 0.6
L -34.75 0.7
Q -34.660546875 0.89765625 -34.6 1.1 -34.577734375 1.188671875 -34.55 1.25 -29.9048828125 12.7171875 -21.9 19.85 -17.0701171875 24.1734375 -12.05 26.05
L -9.3 26.9
Q -5.23046875 27.8634765625 -1 27.25 9.7099609375 25.85625 12.9 16.55 18.5857421875 0.8576171875 -1.4 -16.05
L -0.4 -15
Q 14.9142578125 1.3421875 10.05 15.55 7.390234375 23.14375 -1.4 24.3 -4.8490234375 24.80546875 -8.2 24.1 -11.1501953125 20.690625 -9.3 15.45 -12.5015625 10.356640625 -12.4 7 -12.3109375 4.779296875 -11.6 3.3
L -11.65 3.35
Q -11.0166015625 2.1763671875 -9.05 0.65 -9.437109375 -4.7736328125 -7.95 -7.7 -6.771875 -9.8326171875 -3.25 -10.9
L -3.25 -10.95
Q -11.1728515625 -18.5560546875 -20.95 -21.05 -24.6181640625 -21.991015625 -27.4 -22.2
M -23.45 -18.55
Q -22.5771484375 -18.3775390625 -21.7 -18.15 -13.21171875 -15.9927734375 -8 -12.05 -9.2578125 -11.2814453125 -10.25 -9.7
L -23.45 -18.55
M -27.65 -19.2
L -27.6 -19.2
Q -26.7892578125 -19.1376953125 -25.9 -19
L -10.75 -8.8
Q -12.330859375 -5.6185546875 -12.35 -0.55 -13.2216796875 0.2173828125 -13.9 1.25
L -34.35 -14.6
Q -34.3427734375 -14.6591796875 -34.35 -14.75
L -34.35 -14.8
Q -34.0263671875 -16.362890625 -33.3 -17.65
L -33.3 -17.7
Q -32.028515625 -19.5138671875 -27.65 -19.2
M -32.05 -0.65
Q -34.996875 -8.25390625 -34.5 -13.45
L -14.4 2.15
Q -15.2939453125 4.047265625 -15.4 6.9 -15.46015625 9.433203125 -14.85 11.7
L -31.25 1.3
Q -31.509765625 0.718359375 -31.75 0.1 -31.8767578125 -0.2734375 -32.05 -0.65
M -13.75 14.55
Q -13.2515625 15.454296875 -12.65 16.3 -13.715234375 19.6021484375 -12.6 22.55 -16.3068359375 20.8330078125 -19.9 17.6 -26.376953125 11.7984375 -30.5 2.95
L -14.45 13.15 -14.4 13.05
Q -14.09296875 13.80234375 -13.75 14.5
L -13.75 14.55 Z"/>
</g>

<g id="FS_Tail_23_Layer2_0_FILL">
<path fill="#F4B6D1" stroke="none" d="
M 106.95 -5
Q 102.4 -18.75 88.1 -29.65 48.08984375 -51.46796875 18.5 -12.9 16.9859375 -6.7818359375 20.95 7.35 24.9705078125 21.53359375 20.35 32.95 15.71875 44.377734375 -1.7 65.5 -19.1228515625 86.61640625 -28.05 95.15 -36.9154296875 103.7353515625 -58 138.8 -79.041796875 173.85703125 -45.05 198.45 -11.0603515625 223.101953125 31 211.3 54.853125 209.194921875 86.4 183.8 64.55 191.8 45.1 190.6 26.9 189.5 16.2 180.8 5.4 172 6.25 158.7 7.15 144.25 21.7 128.55 61.65 85.7 74.8 70.15 98.25 42.3 105.15 25.55 111.75 9.5 106.95 -5 Z"/>
</g>

<path id="FS_FrontLeg_3_4_hoof_5_Layer0_0_1_STROKES" stroke="#EBD463" stroke-width="3" stroke-linejoin="round" stroke-linecap="round" fill="none" d="
M -12.25 -12.15
Q -8.7 -16.6 -0.95 -17.05 6.75 -17.55 12.2 -12.35 17.6 -7.15 17.4 1.2 17.2 9.5 14.15 13.7 11.1 17.9 -1 18.7 -13.05 19.5 -18.85 17.05 -24.7 14.6 -22.55 7.9 -20.4 1.2 -18.1 -3.25 -15.8 -7.7 -12.25 -12.15 Z"/>

<path id="FS_HindLeg_3_4rear_lower_1_Layer1_0_1_STROKES" stroke="#EBD463" stroke-width="3" stroke-linejoin="round" stroke-linecap="round" fill="none" d="
M 7.6 6.9
Q -5.2 19.7 -8.9 12.2 -13.1 2.15 -5.65 -3.6 1.85 -8.45 11.5 -5.15 17 -1.4 7.6 6.9 Z"/>

<path id="FS_HindLeg_3_4rear_lower_1_Layer0_0_1_STROKES" stroke="#EBD463" stroke-width="3" stroke-linejoin="round" stroke-linecap="round" fill="none" d="
M -10.35 6.85
Q -8.9 34.95 -9.55 62.15
M 26.2 53.5
Q 21.45 27.7 13.4 -2.95"/>

<path id="FS_Tail_23_Layer2_0_1_STROKES" stroke="#E781B3" stroke-width="3" stroke-linejoin="miter" stroke-linecap="square" stroke-miterlimit="3" fill="none" d="
M 88.125 -29.625
Q 102.4 -18.75 106.95 -5 111.75 9.5 105.15 25.55 98.25 42.3 74.8 70.15 61.65 85.7 21.725 128.575 7.15 144.25 6.25 158.7 5.4 172 16.2 180.8 26.9 189.5 45.1 190.6 64.55 191.8 86.425 183.825 54.853125 209.194921875 31.025 211.3 -11.0603515625 223.101953125 -45.05 198.475 -79.041796875 173.85703125 -57.975 138.8 -36.9154296875 103.7353515625 -28.025 95.175 -19.1228515625 86.61640625 -1.7 65.5 15.71875 44.377734375 20.35 32.95 24.9705078125 21.53359375 20.975 7.375 16.9859375 -6.7818359375 18.525 -12.875 48.08984375 -51.46796875 88.125 -29.625 Z"/>

<path id="FS_Tail_23_Layer1_0_1_STROKES" stroke="#E781B3" stroke-width="1.5" stroke-linejoin="miter" stroke-linecap="square" stroke-miterlimit="3" fill="none" d="
M 62.5 190.15
Q 51.55 207.65 20.05 213.65
M 19 -2.6
Q 75.1216796875 16.444921875 10.25 102.925 -54.6189453125 189.401171875 -17.1 212.45
M 18.75 -12.8
Q 117.100390625 -46.17265625 94.05 43.5"/>
</defs>

<g transform="matrix( 0.412506103515625, 0, 0, 0.412506103515625, 486.45,301.35) ">
<g transform="matrix( 0.867523193359375, 0, 0.2666015625, 1.4575347900390625, -39.15,142.15) ">
<g transform="matrix( 1.1522064208984375, 0, 0, 1.7481689453125, 4.4,-262.5) ">
<use filter="url(#Filter_1)" xlink:href="#FS_Shadow_0_Layer0_0_FILL"/>
</g>
</g>

<g transform="matrix( -0.827606201171875, -0.06597900390625, -0.312469482421875, 0.807952880859375, -68.5,21.6) ">
<g transform="matrix( 1, 0, 0, 1, 0,0) ">
<use filter="url(#Filter_2)" xlink:href="#FS_WingBack_3_4far_8_Layer6_0_FILL"/>
</g>
</g>

<g transform="matrix( -0.9667816162109375, 0.056610107421875, 0.05731201171875, 1.04510498046875, -20.25,29.1) ">
<g transform="matrix( 1, 0, 0, 1, 2.2,86.4) ">
<g transform="matrix( 1, 0, 0, 1, 0,0) ">
<use filter="url(#Filter_3)" xlink:href="#FS_FrontLeg_3_4_hoof_0_Layer0_0_FILL"/>
</g>
</g>

<g transform="matrix( 0.999969482421875, -0.0043792724609375, -0.001129150390625, 1, 0.15,0.35) ">
<g transform="matrix( 1, 0, 0, 1, 0,0) ">
<use filter="url(#Filter_3)" xlink:href="#FS_FrontLeg_3_4_upper_2_Layer1_0_FILL"/>
</g>
</g>
</g>

<g transform="matrix( -1.00457763671875, -0.1046905517578125, -0.09149169921875, 0.9375762939453125, -48.3,2.8) ">
<g transform="matrix( 1, 0, 0, 1, 0,0) ">
<use xlink:href="#FS_Neck_1_Layer0_0_FILL"/>
</g>
</g>

<g transform="matrix( 0.99505615234375, 0.099212646484375, -0.099212646484375, 0.99505615234375, -8.25,-59.05) ">
<g transform="matrix( 1.015045166015625, 0.1151885986328125, 0.1306304931640625, 1, -5,-57.6) ">
<g transform="matrix( 1, 0, 0, 1, 0.3,-0.2) ">
<g transform="matrix( 1, 0, 0, 1, 0,0) ">
<use xlink:href="#FS_Hair_05_4_Layer1_0_FILL"/>
</g>
</g>

<g transform="matrix( 1, 0, 0, 1, 46.05,98.6) ">
<g transform="matrix( 1, 0, 0, 1, 0,0) ">
<use xlink:href="#FS_Hair_03_4_Layer1_0_FILL"/>
</g>
</g>

<g transform="matrix( 1, 0, 0, 1, 74.15,148.8) ">
<g transform="matrix( 1, 0, 0, 1, 0,0) ">
<use xlink:href="#FS_Hair_04_4_Layer1_0_FILL"/>
</g>
</g>
</g>

<g transform="matrix( 0.99969482421875, 0.0050811767578125, -0.0050811767578125, 0.99969482421875, 1.1,-11.15) ">
<g transform="matrix( 1, 0, 0, 1, 0,0) ">
<use xlink:href="#FS_Skull_2_Layer0_0_FILL"/>
</g>
</g>

<g transform="matrix( 1, 0, 0, 1, -31.15,-26.65) ">
<g transform="matrix( 1, 0, 0, 1, 0,0) ">
<use xlink:href="#FS_Ear_5_Layer1_0_FILL"/>
</g>
</g>

<g transform="matrix( 0.9840087890625, 0.00604248046875, -0.0128326416015625, 1.00531005859375, 33,-27.8) ">
<g transform="matrix( 1, 0, 0, 1, 0,0) ">
<use xlink:href="#FS_Ear_6_Layer1_0_FILL"/>
</g>
</g>
</g>

<g transform="matrix( -0.9339599609375, 0.2419891357421875, 0.1912994384765625, 1.0487518310546875, -14.25,15.55) ">
<g transform="matrix( 0.9151611328125, -0.3969268798828125, 0.3969268798828125, 0.9151611328125, -26.95,9.7) ">
<g transform="matrix( 1, 0, 0, 1, 0,0) ">
<use xlink:href="#FS_FrontLeg_3_4_hoof_7_Layer0_0_FILL"/>
</g>
</g>

<g transform="matrix( 0.995452880859375, 0.0920257568359375, -0.0920257568359375, 0.995452880859375, -3.9,-6.9) ">
<g transform="matrix( 1, 0, 0, 1, 0,0) ">
<use xlink:href="#FS_FrontLeg_3_4_upper_6_Layer2_0_FILL"/>
</g>

<g transform="matrix( 1, 0, 0, 1, 0,0) ">
<use xlink:href="#FS_FrontLeg_3_4_upper_6_Layer1_0_FILL"/>
</g>
</g>

<g transform="matrix( 1.01690673828125, 0.2086181640625, 0.078216552734375, 0.994354248046875, -6.1,49.15) ">
<g transform="matrix( 1, 0, 0, 1, 0,0) ">
<use xlink:href="#FS_HoofWrinkle_1_Layer0_0_FILL"/>
</g>
</g>
</g>

<g transform="matrix( 0.9981231689453125, 0.06121826171875, -0.0733184814453125, 1.27203369140625, -8.75,-25.3) ">
<g transform="matrix( 1, 0, 0, 1, 0,0) ">
<use xlink:href="#FS_Neck_3_Layer0_0_FILL"/>
</g>
</g>

<g transform="matrix( 0.9684295654296875, 0.246826171875, -0.2674713134765625, 0.9165802001953125, 5.8,-124.9) ">
<g transform="matrix( 1.029754638671875, -0.18939208984375, 0.2016754150390625, 0.9801788330078125, 26,13.4) ">
<g transform="matrix( 1, 0, 0, 1, 0,0) ">
<use xlink:href="#FS_Mane_01_4_Layer1_0_FILL"/>
</g>
</g>

<g transform="matrix( 1.029754638671875, -0.18939208984375, 0.2016754150390625, 0.9801788330078125, -5.1,201.85) ">
<g transform="matrix( 1, 0, 0, 1, 0,0) ">
<use xlink:href="#FS_Mane_02_4_Layer0_0_FILL"/>
</g>
</g>

<g transform="matrix( 1.014434814453125, -0.2567596435546875, -0.2249603271484375, -0.974517822265625, -33.4,205.3) ">
<g transform="matrix( 1, 0, 0, 1, 0,0) ">
<use xlink:href="#FS_Mane_03_4_Layer0_0_FILL"/>
</g>
</g>
</g>

<g transform="matrix( 1.4053955078125, 0.2254486083984375, 0, 1, -51.9,19.3) ">
<g transform="matrix( 1, 0, 0, 1, 0,0) ">
<use xlink:href="#FS_Torso_4_Layer1_0_FILL"/>
</g>
</g>

<g transform="matrix( -1.0279388427734375, -0.04925537109375, -0.038055419921875, 0.9310760498046875, -73.3,13.2) ">
<g transform="matrix( 0.971649169921875, -0.2297821044921875, 0.2297821044921875, 0.971649169921875, 11.75,111) ">
<g transform="matrix( 1, 0, 0, 1, 0,0) ">
<use xlink:href="#FS_FrontLeg_3_4_hoof_5_Layer0_0_FILL"/>

<use xlink:href="#FS_FrontLeg_3_4_hoof_5_Layer0_0_1_STROKES"/>
</g>
</g>

<g transform="matrix( 0.8477020263671875, -0.0651397705078125, 0.037017822265625, 0.5640411376953125, 3.85,52.5) ">
<g transform="matrix( 1, 0, 0, 1, 0,0) ">
<use xlink:href="#FS_KneePatch_1_Layer0_0_FILL"/>
</g>
</g>

<g transform="matrix( 1.015380859375, 0, -0.03369140625, 0.9574127197265625, 5.95,-9.8) ">
<g transform="matrix( 1, 0, 0, 1, 0,0) ">
<use xlink:href="#FS_HindLeg_3_4_top_2_Layer0_0_FILL"/>
</g>
</g>

<g transform="matrix( 0.989654541015625, 0.1386871337890625, -0.1386871337890625, 0.9896697998046875, 10.95,54.55) ">
<g transform="matrix( 1, 0, 0, 1, 0,0) ">
<use xlink:href="#FS_HindLeg_3_4rear_lower_1_Layer1_0_FILL"/>

<use xlink:href="#FS_HindLeg_3_4rear_lower_1_Layer1_0_1_STROKES"/>
</g>

<g transform="matrix( 1, 0, 0, 1, 0,0) ">
<use xlink:href="#FS_HindLeg_3_4rear_lower_1_Layer0_0_FILL"/>

<use xlink:href="#FS_HindLeg_3_4rear_lower_1_Layer0_0_1_STROKES"/>
</g>
</g>

<g transform="matrix( 0.7191619873046875, -0.12347412109375, 0.1155242919921875, 0.9023284912109375, 3.7,51.6) ">
<g transform="matrix( 1, 0, 0, 1, 0,0) ">
<use xlink:href="#FS_KneePatch_0_Layer0_0_FILL"/>
</g>
</g>

<g transform="matrix( 1.91107177734375, -0.4984588623046875, 1.7957763671875, 0.83795166015625, 9.5,123.35) ">
<g transform="matrix( 1, 0, 0, 1, 0,0) ">
<use xlink:href="#FS_HoofWrinkle_0_Layer0_0_FILL"/>
</g>
</g>

<g transform="matrix( 1, 0, 0, 1, 0,0) ">
<use xlink:href="#FS_HindLeg_3_4rearnomark_1_Layer0_0_FILL"/>
</g>
</g>

<g transform="matrix( -1, 0, 0, 1, -37.35,24.75) ">
<g transform="matrix( 1, 0, 0, 1, 0,0) ">
<use filter="url(#Filter_2)" xlink:href="#FS_Torso_13_Layer1_0_FILL"/>
</g>
</g>

<g transform="matrix( -1.087677001953125, 0, 0.0732879638671875, 1.0020599365234375, -57.55,8.7) ">
<g transform="matrix( 0.9942169189453125, 0, 0, 1, 17.55,127.9) ">
<g transform="matrix( 1, 0, 0, 1, 0,0) ">
<use xlink:href="#FS_FrontLeg_3_4_hoof_4_Layer0_0_FILL"/>
</g>
</g>

<g transform="matrix( 1, 0, 0, 1, 5.05,57.05) ">
<g transform="matrix( 1, 0, 0, 1, 0,0) ">
<use xlink:href="#FS_KneePatch_1_Layer0_0_FILL"/>
</g>
</g>

<g transform="matrix( 1, 0, -0.0095977783203125, 1.0159912109375, 5.95,-9.8) ">
<g transform="matrix( 1, 0, 0, 1, 0,0) ">
<use xlink:href="#FS_HindLeg_3_4_top_2_Layer0_0_FILL"/>
</g>
</g>

<g transform="matrix( 1, 0, 0, 1, 8.7,62.65) ">
<g transform="matrix( 1, 0, 0, 1, 0,0) ">
<use xlink:href="#FS_HindLeg_3_4rear_lower_0_Layer1_0_FILL"/>
</g>

<g transform="matrix( 1, 0, 0, 1, 0,0) ">
<use xlink:href="#FS_HindLeg_3_4rear_lower_0_Layer0_0_FILL"/>
</g>
</g>

<g transform="matrix( 1, 0, 0, 1, 5.05,57.05) ">
<g transform="matrix( 1, 0, 0, 1, 0,0) ">
<use xlink:href="#FS_KneePatch_0_Layer0_0_FILL"/>
</g>
</g>

<g transform="matrix( 0.5999908447265625, 0, -0.0133056640625, 0.9998626708984375, -8.2,12.65) ">
<g transform="matrix( 1, 0, 0, 1, 0,0) ">
<use xlink:href="#FS_CutieMark_2_Layer0_0_FILL"/>
</g>
</g>

<g transform="matrix( 1, 0, 0, 1, 0,0) ">
<use xlink:href="#FS_HindLeg_3_4rear_0_Layer0_0_FILL"/>
</g>
</g>

<g transform="matrix( 0.9418792724609375, -0.0028839111328125, 0.002716064453125, 0.998382568359375, -3.25,19.1) ">
<g transform="matrix( 1, 0, 0, 1, 0,0) ">
<use xlink:href="#FS_WingBack_3_4_8_Layer6_0_FILL"/>
</g>
</g>

<g transform="matrix( -0.98480224609375, 0.046966552734375, -0.2498779296875, 0.9423675537109375, -63.2,3.9) ">
<g transform="matrix( 1, 0, 0, 1, 0,0) ">
<use xlink:href="#FS_Tail_23_Layer2_0_FILL"/>

<use xlink:href="#FS_Tail_23_Layer2_0_1_STROKES"/>
</g>

<g transform="matrix( 1, 0, 0, 1, 0,0) ">
<use xlink:href="#FS_Tail_23_Layer1_0_1_STROKES"/>
</g>
</g>
</g>
</svg>
