
<svg xmlns="http://www.w3.org/2000/svg" version="1.1" xmlns:xlink="http://www.w3.org/1999/xlink" preserveAspectRatio="none" x="0px" y="0px" width="864px" height="486px" viewBox="0 0 864 486">
<defs>
<filter id="Filter_1" x="-20%" y="-20%" width="140%" height="140%" color-interpolation-filters="sRGB">
<feColorMatrix in="SourceGraphic" type="matrix" values="1 0 0 0 0 0 1 0 0 0 0 0 1 0 0 0 0 0 0.21 0" result="result1"/>
</filter>

<filter id="Filter_2" x="-20%" y="-20%" width="140%" height="140%" color-interpolation-filters="sRGB">
<feColorMatrix in="SourceGraphic" type="matrix" values="1 0 0 0 0.0196078431372549 0 1 0 0 -0.06274509803921569 0 0 1 0 -0.12156862745098039 0 0 0 1 0" result="result1"/>
</filter>

<g id="FS_34Rwalk_Shadow_0_Layer0_0_FILL">
<path fill="#000000" stroke="none" d="
M 46.4 155.05
Q 68.65 152.95 68.65 149.95 68.65 146.95 46.4 144.8 24.15 142.7 -7.4 142.7 -38.9 142.7 -61.2 144.8 -83.45 146.95 -83.45 149.95 -83.45 152.95 -61.2 155.05 -38.9 157.2 -7.4 157.2 24.15 157.2 46.4 155.05 Z"/>
</g>

<g id="FS_34Rwalk_WingBack_3_4far_0_Layer6_0_FILL">
<path fill="#FFF8AD" stroke="none" d="
M -3 -12.45
L -3.25 -10.95 -3.25 -10.9
Q -6.771875 -9.8326171875 -7.95 -7.7 -9.437109375 -4.7736328125 -9.05 0.65 -11.0166015625 2.1763671875 -11.65 3.35
L -11.6 3.3
Q -12.3109375 4.779296875 -12.4 7 -12.5015625 10.356640625 -9.3 15.45 -11.1501953125 20.690625 -8.2 24.1 -4.8490234375 24.80546875 -1.4 24.3 7.390234375 23.14375 10.05 15.55 14.9142578125 1.3421875 -0.4 -15
L -1.4 -16.05 -3.2 -10.9 -3 -12.45
M -12.65 16.3
Q -13.2515625 15.454296875 -13.75 14.55
L -13.75 14.5
Q -14.09296875 13.80234375 -14.4 13.05
L -14.45 13.15 -30.5 2.95
Q -26.376953125 11.7984375 -19.9 17.6 -16.3068359375 20.8330078125 -12.6 22.55 -13.715234375 19.6021484375 -12.65 16.3
M -34.5 -13.45
Q -34.996875 -8.25390625 -32.05 -0.65 -31.8767578125 -0.2734375 -31.75 0.1 -31.509765625 0.718359375 -31.25 1.3
L -14.85 11.7
Q -15.46015625 9.433203125 -15.4 6.9 -15.2939453125 4.047265625 -14.4 2.15
L -34.5 -13.45
M -21.7 -18.15
Q -22.5771484375 -18.3775390625 -23.45 -18.55
L -10.25 -9.7
Q -9.2578125 -11.2814453125 -8 -12.05 -13.21171875 -15.9927734375 -21.7 -18.15
M -25.9 -19
Q -26.7892578125 -19.1376953125 -27.6 -19.2
L -27.65 -19.2
Q -32.028515625 -19.5138671875 -33.3 -17.7
L -33.3 -17.65
Q -34.0263671875 -16.362890625 -34.35 -14.8
L -34.35 -14.75
Q -34.3427734375 -14.6591796875 -34.35 -14.6
L -13.9 1.25
Q -13.2216796875 0.2173828125 -12.35 -0.55 -12.330859375 -5.6185546875 -10.75 -8.8
L -25.9 -19 Z"/>

<path fill="#EBD463" stroke="none" d="
M -27.4 -22.2
L -27.4 -22.2
Q -34.184375 -22.6814453125 -35.9 -19.15
L -35.9 -19.15
Q -36.8681640625 -17.446875 -37.3 -15.35
L -37.3 -15.35
Q -38.59375 -9.1455078125 -34.8 0.6
L -34.75 0.7
Q -34.660546875 0.89765625 -34.6 1.1 -34.577734375 1.188671875 -34.55 1.25 -29.9048828125 12.7171875 -21.9 19.85 -17.0701171875 24.1734375 -12.05 26.05
L -9.3 26.9
Q -5.23046875 27.8634765625 -1 27.25 9.7099609375 25.85625 12.9 16.55 18.5857421875 0.8576171875 -1.4 -16.05
L -0.4 -15
Q 14.9142578125 1.3421875 10.05 15.55 7.390234375 23.14375 -1.4 24.3 -4.8490234375 24.80546875 -8.2 24.1 -11.1501953125 20.690625 -9.3 15.45 -12.5015625 10.356640625 -12.4 7 -12.3109375 4.779296875 -11.6 3.3
L -11.65 3.35
Q -11.0166015625 2.1763671875 -9.05 0.65 -9.437109375 -4.7736328125 -7.95 -7.7 -6.771875 -9.8326171875 -3.25 -10.9
L -3.25 -10.95
Q -11.1728515625 -18.5560546875 -20.95 -21.05 -24.6181640625 -21.991015625 -27.4 -22.2
M -27.6 -19.2
Q -26.7892578125 -19.1376953125 -25.9 -19
L -10.75 -8.8
Q -12.330859375 -5.6185546875 -12.35 -0.55 -13.2216796875 0.2173828125 -13.9 1.25
L -34.35 -14.6
Q -34.3427734375 -14.6591796875 -34.35 -14.75
L -34.35 -14.8
Q -34.0263671875 -16.362890625 -33.3 -17.65
L -33.3 -17.7
Q -32.028515625 -19.5138671875 -27.65 -19.2
L -27.6 -19.2
M -23.45 -18.55
Q -22.5771484375 -18.3775390625 -21.7 -18.15 -13.21171875 -15.9927734375 -8 -12.05 -9.2578125 -11.2814453125 -10.25 -9.7
L -23.45 -18.55
M -32.05 -0.65
Q -34.996875 -8.25390625 -34.5 -13.45
L -14.4 2.15
Q -15.2939453125 4.047265625 -15.4 6.9 -15.46015625 9.433203125 -14.85 11.7
L -31.25 1.3
Q -31.509765625 0.718359375 -31.75 0.1 -31.8767578125 -0.2734375 -32.05 -0.65
M -13.75 14.55
Q -13.2515625 15.454296875 -12.65 16.3 -13.715234375 19.6021484375 -12.6 22.55 -16.3068359375 20.8330078125 -19.9 17.6 -26.376953125 11.7984375 -30.5 2.95
L -14.45 13.15 -14.4 13.05
Q -14.09296875 13.80234375 -13.75 14.5
L -13.75 14.55 Z"/>
</g>

<g id="FS_34Rwalk_FrontLeg_3_4rear_0_Layer2_0_FILL">
<path fill="#FDF6AE" stroke="none" d="
M -4.8 91.25
Q -4.38984375 81.5298828125 -10 76.05 -15.6125 70.625390625 -23.6 70.65 -31.5689453125 70.7126953125 -36.25 77.6 -40.937890625 84.5431640625 -44.55 91.6 -48.169140625 98.7091796875 -47.35 101.8 -46.465234375 104.930859375 -30.7 104.4 -14.9072265625 103.9373046875 -10.2 102.55 -5.2060546875 100.9677734375 -4.8 91.25 Z"/>
</g>

<g id="FS_34Rwalk_FrontLeg_3_4rear_0_Layer1_0_FILL">
<path fill="#FDF6AE" stroke="none" d="
M -45.7 93.85
L -4.85 92.9
Q 0.725 47.1 6.3 1.3
L -12.3 -5 -45.7 93.85 Z"/>
</g>

<g id="FS_Hair_05_4_Layer1_0_FILL">
<path fill="#E781B3" stroke="none" d="
M 8.85 -41.95
Q 4.1453125 -37.525 1.8 -31.6 -0.623828125 -25.60390625 -0.15 -19.3 0.221484375 -15.0275390625 4.35 -5.55 6.8001953125 0.0916015625 11.7 8.9 23.8705078125 30.784375 26.3 36.3 32.908203125 51.159765625 33.3 67.2 33.552734375 76.4685546875 30.9 98.25 30.7453125 99.7525390625 30.6 100.6 33.46328125 111.5416015625 44.45 113.05 54.4103515625 112.8314453125 58.45 98.75 58.3083984375 99.1751953125 58.65 97.75
L 62.85 81.55
Q 68.828515625 60.0115234375 71.45 49.1 76.095703125 30.05625 76 16 75.904296875 -16.0134765625 57.8 -35.4 46.253515625 -47.7859375 32.85 -50.25 20.2212890625 -52.522265625 8.85 -41.95
M 3 -26.7
Q 3.916796875 -31.8771484375 7.35 -36.85 12.2271484375 -43.90078125 19.95 -47.4 27.993359375 -51.05625 38.05 -46.7 45.5353515625 -43.3919921875 53.15 -36.2 44.1814453125 -40.45 34.9 -40.6 20.6740234375 -40.830078125 7 -30.1 4.9833984375 -28.4810546875 3 -26.7
M 6.65 -7.25
Q 7.3162109375 -8.8294921875 8 -10.35 13.3001953125 -21.824609375 22.1 -28.85 32.444140625 -37.0126953125 43.75 -35.15 54.568359375 -33.3224609375 64.35 -21.35 66.82265625 -16.698828125 68.65 -11.4 73.63984375 2.893359375 72.85 20.2 72.298828125 34.0896484375 67.8 51.8 65.03046875 62.7025390625 59.3 84.4 58.073828125 89.373828125 55.6 98.8
L 55.65 98.85
Q 52.9455078125 108.2529296875 46.3 110.75
L 46.9 101.1
Q 47.4287109375 92.559765625 47.35 87.2 47.2958984375 75.4240234375 45 65.7 40.9427734375 48.439453125 32.6 44.75 31.0232421875 39.8861328125 28.8 34.8 25.987890625 28.519921875 14.1 7 8.717578125 -2.6275390625 6.95 -6.55 6.8005859375 -6.884375 6.65 -7.25
M 2.75 -21.2
Q 2.6294921875 -22.9779296875 2.75 -24.75 5.6578125 -27.496875 8.7 -29.8 22.3384765625 -40.1376953125 36.85 -39.4 46.4533203125 -38.9224609375 55.8 -33.5 58.507421875 -30.5625 60.8 -27.25 51.621484375 -35.7453125 41.05 -36.15 31.8384765625 -36.441796875 23 -30.4 15.37890625 -25.0669921875 9.9 -16.4 7.7974609375 -12.9791015625 5.95 -8.9 3.228125 -15.64609375 2.75 -21.2
M 33.1 46.5
Q 34.176953125 47.179296875 35.15 48.15 39.90859375 52.775390625 42.95 63.9 45.6748046875 73.6587890625 45.9 85.7 46.0138671875 91.7541015625 45.45 101.1
L 44.6 110.75
Q 34.0033203125 108.3857421875 33.6 98.2
L 33.55 98.2
Q 36.4958984375 74.8173828125 36.2 65.1 36.0060546875 56.1888671875 33.1 46.5 Z"/>

<path fill="#F4B6D1" stroke="none" d="
M 35.15 48.15
Q 34.176953125 47.179296875 33.1 46.5 36.0060546875 56.1888671875 36.2 65.1 36.4958984375 74.8173828125 33.55 98.2
L 33.6 98.2
Q 34.0033203125 108.3857421875 44.6 110.75
L 45.45 101.1
Q 46.0138671875 91.7541015625 45.9 85.7 45.6748046875 73.6587890625 42.95 63.9 39.90859375 52.775390625 35.15 48.15
M 2.75 -24.75
Q 2.6294921875 -22.9779296875 2.75 -21.2 3.228125 -15.64609375 5.95 -8.9 7.7974609375 -12.9791015625 9.9 -16.4 15.37890625 -25.0669921875 23 -30.4 31.8384765625 -36.441796875 41.05 -36.15 51.621484375 -35.7453125 60.8 -27.25 58.507421875 -30.5625 55.8 -33.5 46.4533203125 -38.9224609375 36.85 -39.4 22.3384765625 -40.1376953125 8.7 -29.8 5.6578125 -27.496875 2.75 -24.75
M 8 -10.35
Q 7.3162109375 -8.8294921875 6.65 -7.25 6.8005859375 -6.884375 6.95 -6.55 8.717578125 -2.6275390625 14.1 7 25.987890625 28.519921875 28.8 34.8 31.0232421875 39.8861328125 32.6 44.75 40.9427734375 48.439453125 45 65.7 47.2958984375 75.4240234375 47.35 87.2 47.4287109375 92.559765625 46.9 101.1
L 46.3 110.75
Q 52.9455078125 108.2529296875 55.65 98.85
L 55.6 98.8
Q 58.073828125 89.373828125 59.3 84.4 65.03046875 62.7025390625 67.8 51.8 72.298828125 34.0896484375 72.85 20.2 73.63984375 2.893359375 68.65 -11.4 66.82265625 -16.698828125 64.35 -21.35 54.568359375 -33.3224609375 43.75 -35.15 32.444140625 -37.0126953125 22.1 -28.85 13.3001953125 -21.824609375 8 -10.35
M 7.35 -36.85
Q 3.916796875 -31.8771484375 3 -26.7 4.9833984375 -28.4810546875 7 -30.1 20.6740234375 -40.830078125 34.9 -40.6 44.1814453125 -40.45 53.15 -36.2 45.5353515625 -43.3919921875 38.05 -46.7 27.993359375 -51.05625 19.95 -47.4 12.2271484375 -43.90078125 7.35 -36.85 Z"/>
</g>

<g id="FS_Hair_03_4_Layer1_0_FILL">
<path fill="#F4B6D1" stroke="none" d="
M 7.65 67.45
Q 11.267578125 68.602734375 14.45 68.1 11.3626953125 67.07578125 9.2 64.35 0.9341796875 54.0390625 -1.05 38.05 -2.340234375 27.4744140625 -0.95 9.4 -0.5455078125 4.455859375 -0.35 0.25 -1.0919921875 -2.9046875 -12.4 0.25 -14.9271484375 21.005859375 -13.75 32.8 -11.8736328125 51.2751953125 -4.1 59.65 1.4345703125 65.5044921875 7.65 67.45
M 18.75 68.3
Q 18.7107421875 68.2439453125 18.65 68.15 18.454296875 68.2671875 18.2 68.35 18.5390625 68.36015625 18.85 68.35 18.809375 68.33203125 18.75 68.3
M 1.15 0.25
Q 0.906640625 4.874609375 0.45 10.55 -0.3673828125 21.46875 -0.35 27.35 -0.2970703125 36.7767578125 1.5 44.05 3.0443359375 50.239453125 6.55 57.25 10.581640625 65.34765625 14.55 67.05 15.4296875 67.44140625 16.25 67.65 18.76640625 66.8712890625 20.95 65 26.5353515625 60.3197265625 27.15 52.85 25.476953125 55.6685546875 21.85 56.9 14.5431640625 59.319921875 7.75 46.55 2.820703125 37.0541015625 5.75 18.65 6.865234375 11.7892578125 9.25 2.25 9.51484375 1.2259765625 9.75 0.25 0.713671875 -2.20625 1.15 0.25 Z"/>

<path fill="#E781B3" stroke="none" d="
M 0.45 10.55
Q 0.906640625 4.874609375 1.15 0.25
L -0.35 0.25
Q -0.5455078125 4.455859375 -0.95 9.4 -2.340234375 27.4744140625 -1.05 38.05 0.9341796875 54.0390625 9.2 64.35 11.3626953125 67.07578125 14.45 68.1 11.267578125 68.602734375 7.65 67.45 1.4345703125 65.5044921875 -4.1 59.65 -11.8736328125 51.2751953125 -13.75 32.8 -14.9271484375 21.005859375 -12.4 0.25 -14.79140625 0.00859375 -15.25 1.75
L -15.25 1.75
Q -17.8353515625 22.7744140625 -16.6 34.75 -14.2521484375 57.884375 0.8 67.15 6.8576171875 70.8890625 14.25 69.45 16.3607421875 69.0837890625 18.2 68.35 18.454296875 68.2671875 18.65 68.15 22.98046875 66.3642578125 26.1 62.7 30.0458984375 58.123828125 30.25 50.6 30.279296875 50.4623046875 30.25 50.3 29.9830078125 48.3154296875 28.05 48 26.0564453125 47.426953125 25.4 50.3 25.3607421875 50.599609375 25.25 50.9 23.0794921875 58.5529296875 17 53.4 12.4654296875 49.5123046875 9.7 43.6 8.989453125 42.0787109375 8.5 40.3
L 8.05 38.65
Q 7.2310546875 34.6935546875 7.4 29.75 7.551171875 24.93046875 9.1 15.6 10.0171875 10.3271484375 11.8 3.05 12.1267578125 0.5884765625 9.75 0.25 9.51484375 1.2259765625 9.25 2.25 6.865234375 11.7892578125 5.75 18.65 2.820703125 37.0541015625 7.75 46.55 14.5431640625 59.319921875 21.85 56.9 25.476953125 55.6685546875 27.15 52.85 26.5353515625 60.3197265625 20.95 65 18.76640625 66.8712890625 16.25 67.65 15.4296875 67.44140625 14.55 67.05 10.581640625 65.34765625 6.55 57.25 3.0443359375 50.239453125 1.5 44.05 -0.2970703125 36.7767578125 -0.35 27.35 -0.3673828125 21.46875 0.45 10.55 Z"/>
</g>

<g id="FS_Hair_04_4_Layer1_0_FILL">
<path fill="#E781B3" stroke="none" d="
M -4.75 -15.75
Q -7.2529296875 -16.63359375 -10.05 -15.85 -12.6490234375 -15.05703125 -14.4 -13.15
L -15.65 -11.45 -12.9 -11.45
Q -10.01953125 -11.16328125 -7.4 -9.5 -4.59453125 -7.6912109375 -3.25 -5.1 -2.0681640625 -2.7021484375 -2.45 -0.25 -2.5916015625 2.497265625 -0.4 2.5 2.3931640625 2.3587890625 2.3 -0.25 2.3587890625 -6.891796875 -0.55 -12.15 -2.022265625 -14.8345703125 -4.75 -15.75
M -10.9 -13.05
Q -11.2396484375 -13.0728515625 -11.6 -13.1 -11.4615234375 -13.20546875 -11.35 -13.3 -7.5884765625 -15.575 -4.9 -13.15 -3.2939453125 -11.6619140625 -2.3 -8.7 -5.4787109375 -12.1650390625 -10.55 -13 -10.7091796875 -12.998828125 -10.9 -13.05 Z"/>

<path fill="#F4B6D1" stroke="none" d="
M -11.6 -13.1
Q -11.2396484375 -13.0728515625 -10.9 -13.05 -10.7091796875 -12.998828125 -10.55 -13 -5.4787109375 -12.1650390625 -2.3 -8.7 -3.2939453125 -11.6619140625 -4.9 -13.15 -7.5884765625 -15.575 -11.35 -13.3 -11.4615234375 -13.20546875 -11.6 -13.1 Z"/>
</g>

<g id="FS_Skull_2_Layer0_0_FILL">
<path fill="#EBD463" stroke="none" d="
M 17.3 -50
Q 10.4 -52.1 0.9 -52.25 -8.45 -52.4 -16.75 -49.2 -25.55 -45.75 -31.05 -39.3 -46.1 -21.6 -46.1 -1.1 -46.1 11.3 -43.4 20.4 -40.6 29.75 -34.65 36.5 -27.65 44.55 -18.5 48.75 -9.25 53.05 1.5 53.05 22.65 53.05 37 36.5 42.8 29.9 45.45 20.1 47.85 11.1 47.9 -1.7 47.85 -23.45 33.4 -39.9 27.2 -47.05 17.3 -50
M 0.9 -49.25
Q 10.95 -48.85 16.65 -47.2 25.35 -44.6 31.15 -37.95 44.85 -22.3 44.9 -1.7 44.85 10.45 42.6 18.95 40.15 28.25 34.75 34.55 21.25 50.05 1.5 50.05 -8.55 50.05 -17.25 46.05 -25.8 42.1 -32.4 34.55 -38 28.1 -40.6 19.25 -43.1 10.65 -43.1 -1.1 -43.1 -21 -28.8 -37.35 -22.85 -44.2 -14.2 -47.15 -7.25 -49.55 0.9 -49.25 Z"/>

<path fill="#FDF6AE" stroke="none" d="
M 16.65 -47.2
Q 10.95 -48.85 0.9 -49.25 -7.25 -49.55 -14.2 -47.15 -22.85 -44.2 -28.8 -37.35 -43.1 -21 -43.1 -1.1 -43.1 10.65 -40.6 19.25 -38 28.1 -32.4 34.55 -25.8 42.1 -17.25 46.05 -8.55 50.05 1.5 50.05 21.25 50.05 34.75 34.55 40.15 28.25 42.6 18.95 44.85 10.45 44.9 -1.7 44.85 -22.3 31.15 -37.95 25.35 -44.6 16.65 -47.2 Z"/>
</g>

<g id="FS_Ear_5_Layer1_0_FILL">
<path fill="#FDF6AE" stroke="none" d="
M -20.1 -26.3
Q -23.571484375 -10.808203125 -20.3 -0.7 -17.3537109375 8.1306640625 -8.85 13.95
L -8.35 14.3 -8.3 14.3
Q -7.203125 15.0419921875 -4.9 16.3
L -3.95 16.85
Q 2.99140625 6.6712890625 2.75 -9.6
L 2.75 -17.95
Q 2.75 -21.5072265625 2.75 -23.35
L 2.75 -23.4
Q 2.4267578125 -39.3626953125 -6.15 -49.6 -16.8560546875 -40.4384765625 -20.1 -26.3 Z"/>

<path fill="#EBD463" stroke="none" d="
M -4.75 -52.5
Q -4.764453125 -52.5748046875 -4.85 -52.65 -5.1345703125 -53.02421875 -5.6 -53.15
L -5.85 -53.2
Q -5.8873046875 -53.20390625 -5.95 -53.2 -6.4943359375 -53.24140625 -6.95 -52.9 -19.4068359375 -42.8458984375 -23.05 -26.95 -26.7287109375 -10.491796875 -23.15 0.25 -20.4 8.6 -10.6 15.3 -8.6201171875 16.63046875 -5.05 16.8 -4.5166015625 16.847265625 -3.95 16.85
L -4.9 16.3
Q -7.203125 15.0419921875 -8.3 14.3
L -8.35 14.3 -8.85 13.95
Q -17.3537109375 8.1306640625 -20.3 -0.7 -23.571484375 -10.808203125 -20.1 -26.3 -16.8560546875 -40.4384765625 -6.15 -49.6 2.4267578125 -39.3626953125 2.75 -23.4
L 2.75 -23.35
Q 2.75 -21.5072265625 2.75 -17.95
L 2.75 -9.6
Q 4.41796875 -13.762109375 5.75 -23.35
L 5.75 -24.9 5.7 -24.9
Q 4.966796875 -41.784765625 -4.75 -52.5 Z"/>
</g>

<g id="FS_Ear_6_Layer1_0_FILL">
<path fill="#FDF6AE" stroke="none" d="
M 21.1 -7.35
Q 23.455078125 -19.7173828125 20 -31.6 16.6439453125 -43.123828125 9 -49.4 0.3212890625 -38.8369140625 -0.55 -21
L -0.6 -19.45
Q -0.6498046875 -17.705078125 -0.65 -15.9
L -0.65 -14.4
Q 0.4736328125 3.6412109375 4.6 19.65
L 5.7 18.7 5.75 18.7
Q 5.75703125 18.69375 5.75 18.7 8.1162109375 16.587890625 9.25 15.4
L 9.9 14.7
Q 18.7443359375 5.3640625 21.1 -7.35 Z"/>

<path fill="#EBD463" stroke="none" d="
M 8.7 -52.95
Q 8.0990234375 -52.9130859375 7.65 -52.45 -1.3 -42.45 -2.35 -25.3 -2.6138671875 -21.296875 -1.1 -15.9 -0.8904296875 -15.16328125 -0.65 -14.4
L -0.65 -15.9
Q -0.6498046875 -17.705078125 -0.6 -19.45
L -0.55 -21
Q 0.3212890625 -38.8369140625 9 -49.4 16.6439453125 -43.123828125 20 -31.6 23.455078125 -19.7173828125 21.1 -7.35 18.7443359375 5.3640625 9.9 14.7
L 9.25 15.4
Q 8.1162109375 16.587890625 5.75 18.7 5.75703125 18.69375 5.75 18.7
L 5.7 18.7 4.6 19.65 4.55 19.65 4.6 19.7 4.6 19.7
Q 10.8576171875 18.2390625 14.9 12.45 22.4810546875 1.691796875 24.05 -6.8 26.5447265625 -19.8826171875 22.9 -32.45 19.01640625 -45.780078125 9.8 -52.6 9.752734375 -52.6173828125 9.7 -52.65 9.2767578125 -52.9833984375 8.7 -52.95 Z"/>
</g>

<g id="FS_34Rwalk_Neck_1_Layer0_0_FILL">
<path fill="#EBD564" stroke="none" d="
M -11.15 -5.4
Q -9.85 -4 -6.9 -2.85 -8.3 -4.5 -9.55 -7.3 -10.7 -9.85 -15.25 -27.35 -15.8 -29.65 -16.35 -32 -17.6294921875 -40.6798828125 -20 -44.45 -18.7 -28.95 -18.15 -26.6 -13.15 -7.2 -11.15 -5.4
M -56.8 -22.6
Q -56.9 -23.05 -59.15 -31.05 -60.5283203125 -28.413671875 -60.15 -22.85 -59.65 -20.05 -59.45 -17.3 -59.35 -16.3 -59.35 -15.35 -59.7 4.7 -52.65 20.55
L -52.65 20.6
Q -42.95 42.45 -20.75 46.95
L -19.2 47.25 -18.75 44.25
Q -18.705078125 44.2443359375 -18.65 44.25
L -20.15 43.95
Q -40.75 39.75 -49.9 19.35 -56.75 3.85 -56.35 -15.85 -56.3 -19.35 -56.8 -22.6 Z"/>

<path fill="#FDF6AE" stroke="none" d="
M -59.15 -31.05
Q -56.9 -23.05 -56.8 -22.6 -56.3 -19.35 -56.35 -15.85 -56.75 3.85 -49.9 19.35 -40.75 39.75 -20.15 43.95
L -18.65 44.25
Q -7.5521484375 42.7859375 -8.1 26.9 -8.65 10.95 -9.2 -2.55
L -6.9 -2.85
Q -9.85 -4 -11.15 -5.4 -13.15 -7.2 -18.15 -26.6 -18.7 -28.95 -20 -44.45
L -59.15 -31.05 Z"/>
</g>

<g id="FS_34Rwalk_FrontLeg_3_4rear_12_Layer2_0_FILL">
<path fill="#FDF6AE" stroke="none" d="
M 24.1 80.85
Q 19.6 86.75 16.2 92.85 12.75 98.95 13.7 102.05 14.6 105.15 29.7 104.55 44.7 103.9 48.05 101.9 54.4 98.75 55.7 89.8 56.95 80.8 50.6 77.65 44.3 74.5 36.45 74.7 28.6 74.85 24.1 80.85 Z"/>
</g>

<g id="FS_34Rwalk_FrontLeg_3_4rear_12_Layer1_0_FILL">
<path fill="#FDF6AE" stroke="none" d="
M 6 45.8
Q 20 84.55 13.85 98.35 34.65 93.1 55.55 88.45 57.15 77.9 40.15 48.6 26.95 26.6 11.3 -0.85 -0.65 -2.4 -12.6 -4 -3.25 21.75 6 45.8 Z"/>
</g>

<g id="FS_34Rwalk_Torso_15_Layer0_0_FILL">
<path fill="#F4B6D1" stroke="none" d="
M 42.7 25.75
L 42.75 25.75 42.75 25.75 42.7 25.75
M 2.1 -21.05
L 2.25 -21.2
Q 2.176171875 -21.2513671875 2.1 -21.3
L 2.1 -21.05
M 15.5 -29.05
L 15.45 -29.05 15.45 -29.05 15.5 -29.05 Z"/>

<path fill="#FDF6AE" stroke="none" d="
M 15.5 -29.05
L 15.45 -29.05 15.45 -29.05
Q 10.4220703125 -27.2283203125 3.1 -23.7 -1.6998046875 -21.34765625 -6.9 -20.4 -8.4333984375 -20.2998046875 -9.75 -20.25 -9.9087890625 -20.2501953125 -10.1 -20.25 -10.880078125 -20.2330078125 -11.6 -20.25 -12.4955078125 -20.1751953125 -13.25 -20.15 -19.754296875 -19.8466796875 -29.2 -20.35
L -29.2 -20.35
Q -31.389453125 -20.478125 -33.4 -20.35
L -46.3 19.55
Q -43.4794921875 22.4015625 -39.55 24.9 -31.9458984375 29.6978515625 -23.35 31.4 -17.9095703125 32.459375 -11.6 32.85 -6.713671875 33.4189453125 -1.35 33.6 4.3974609375 33.8220703125 10.15 33.6 17.84140625 33.3275390625 25.6 32.3
L 27.1 32.25 27.1 32.25
Q 29.9279296875 31.70390625 32.2 30.9 36.5482421875 29.4255859375 37.5 29 40.4701171875 27.7109375 42.75 25.75
L 42.7 25.75
Q 49.1001953125 20.0904296875 52 13.05 54.959765625 5.8994140625 54.6 -3.35 54.4419921875 -6.7767578125 53.65 -9.5
L 53.65 -9.55
Q 53.098046875 -11.629296875 51.55 -15.3 50.4369140625 -17.9326171875 48.6 -20.25 47.30703125 -21.8880859375 45.15 -23.9 39.1251953125 -29.5736328125 31.15 -30.8 23.7076171875 -31.85078125 15.5 -29.05
M 2.25 -21.2
L 2.1 -21.05 2.1 -21.3
Q 2.176171875 -21.2513671875 2.25 -21.2 Z"/>

<path fill="#E781B3" stroke="none" d="
M 15.5 -29.05
L 15.5 -29.05 15.45 -29.05 15.5 -29.05 Z"/>

<path fill="#EBD564" stroke="none" d="
M 31.55 -33.75
L 31.5 -33.75
Q 23.342578125 -34.970703125 14.35 -31.9
L 14.3 -31.85
Q 9.1166015625 -30.0224609375 1.6 -26.45
L 1.6 -26.4
Q -2.7056640625 -24.299609375 -7.35 -23.4 -9.7572265625 -23.2759765625 -11.6 -23.25 -12.5587890625 -23.1794921875 -13.35 -23.15
L -13.4 -23.15
Q -16.6396484375 -22.9990234375 -19.3 -22.35
L -33.4 -20.35
Q -31.389453125 -20.478125 -29.2 -20.35
L -29.2 -20.35
Q -19.754296875 -19.8466796875 -13.25 -20.15 -12.4955078125 -20.1751953125 -11.6 -20.25 -10.880078125 -20.2330078125 -10.1 -20.25 -9.9087890625 -20.2501953125 -9.75 -20.25 -8.4333984375 -20.2998046875 -6.9 -20.4 -1.6998046875 -21.34765625 3.1 -23.7 10.4220703125 -27.2283203125 15.45 -29.05
L 15.5 -29.05 15.5 -29.05
Q 23.7076171875 -31.85078125 31.15 -30.8 39.1251953125 -29.5736328125 45.15 -23.9 47.30703125 -21.8880859375 48.6 -20.25 50.4369140625 -17.9326171875 51.55 -15.3 53.098046875 -11.629296875 53.65 -9.55
L 53.65 -9.5
Q 54.4419921875 -6.7767578125 54.6 -3.35 54.959765625 5.8994140625 52 13.05 49.1001953125 20.0904296875 42.7 25.75
L 42.75 25.75 42.75 25.75
Q 40.4701171875 27.7109375 37.5 29 36.5482421875 29.4255859375 32.2 30.9 29.9279296875 31.70390625 27.1 32.25
L 27.1 32.25 25.6 32.3
Q 17.84140625 33.3275390625 10.15 33.6 4.3974609375 33.8220703125 -1.35 33.6 -6.713671875 33.4189453125 -11.6 32.85 -17.9095703125 32.459375 -23.35 31.4 -31.9458984375 29.6978515625 -39.55 24.9 -43.4794921875 22.4015625 -46.3 19.55
L -47.3 22.6
Q -44.7525390625 24.992578125 -41.45 27.15 -33.25 32.5 -23.95 34.35 -17.994140625 35.546875 -11.6 36.05 -6.5919921875 36.681640625 -1.35 36.9 8.03828125 37.38203125 16.85 36.55 26.3916015625 36.1185546875 33.3 33.75
L 33.35 33.75
Q 37.8435546875 32.1822265625 39.2 31.6 42.4130859375 30.1412109375 44.9 28 51.793359375 21.9099609375 54.9 14.35 58.1154296875 6.6439453125 57.7 -3.3 57.54453125 -7.1306640625 56.65 -10.2
L 56.65 -10.15
Q 56.0892578125 -12.3994140625 54.4 -16.3
L 54.45 -16.3
Q 53.165625 -19.3453125 51.05 -22 49.637109375 -23.797265625 47.3 -26 40.4974609375 -32.3984375 31.55 -33.75 Z"/>
</g>

<g id="FS_34Rwalk_HindLeg_3_4rear_nocutie_8_Layer7_0_FILL">
<path fill="#FDF6AE" stroke="none" d="
M 34.7 115.4
Q 29.421875 110.35 21.75 110.95 14.0724609375 111.5 10.45 116 6.8419921875 120.45 4.3 125.35 1.75390625 130.2 -1.15 136.25 -4.035546875 142.25 1.2 145.05 6.4333984375 147.85 19.6 146.6 32.7623046875 145.4 35.95 139.45 39.0263671875 133.5 39.5 127 40.0361328125 120.45 34.7 115.4 Z"/>
</g>

<g id="FS_34Rwalk_KneePatch_6_Layer0_0_FILL">
<path fill="#EBD564" stroke="none" d="
M 13.2 -29.25
Q 7.9017578125 -32.071875 1.7 -29.8 -4.4501953125 -27.5310546875 -7.9 -21.6 -10.987109375 -16.1328125 -10.2 -10.6
L -10.15 -10.55
Q -10.1490234375 -10.5130859375 -10.15 -10.5
L -10.15 -10.4
Q -7.755859375 1.134375 -8.1 11.55 -8.104296875 14.0126953125 -7.75 15.85
L -7.8 15.85
Q -7.571484375 16.658984375 -7.3 17.65 -6.3517578125 21.19921875 -2 23.5 2.3009765625 25.747265625 7.05 24.45 11.96875 23.191796875 14.5 19.1
L 14.5 19.05
Q 16.9498046875 14.91484375 15.6 10.35
L 15.55 10.3
Q 14.9630859375 8.3404296875 13.85 6.3
L 13.85 6.2 13.8 6.2
Q 10.692578125 0.391796875 12.75 -1.75 16.228515625 -4.641796875 17.1 -5.85
L 17.15 -5.9
Q 18.0646484375 -7.1494140625 18.7 -8.3
L 18.75 -8.3
Q 22.1267578125 -14.289453125 20.3 -20.4
L 20.35 -20.45
Q 18.5283203125 -26.5119140625 13.25 -29.25
L 13.2 -29.25
M 17.45 -19.35
L 17.45 -19.35 17.45 -19.35 17.45 -19.35 Z"/>
</g>

<g id="FS_34Rwalk_HindLeg_3_4_top_5_Layer0_0_FILL">
<path fill="#F4B6D1" stroke="none" d="
M 14.05 16.95
Q 14.0044921875 16.9025390625 14.05 16.9
L 14 16.9 14.05 16.95 Z"/>

<path fill="#EBD564" stroke="none" d="
M 14.05 16.95
L 14 16.95
Q 16.7115234375 29.4509765625 14.5 45.25 14.058984375 48.5287109375 12.85 54.1 12.826171875 54.2990234375 12.75 54.45 12.476171875 55.9486328125 12.1 57.35 11.6728515625 59.3142578125 11.45 61.2 11.2265625 63.3005859375 11.05 65.4 10.87421875 67.2107421875 10.6 68.95 9.0341796875 75.4060546875 4.05 75.2 2.3259765625 75.13828125 0.65 74.45 -0.684375 73.6486328125 -1.95 72.65 -3.398046875 71.5615234375 -4.6 70.15 -5.998046875 68.5017578125 -7.15 66.7 -8.51796875 64.5634765625 -9.75 62.35 -9.9078125 62.005078125 -10.1 61.65 -11.55625 58.95625 -12.95 56.4 -18.9673828125 45.05859375 -21.9 36.05 -25.0306640625 25.755078125 -25.8 19.65 -27.89609375 25.8765625 -24.6 36.7
L -24.6 36.75
Q -21.5869140625 45.9919921875 -15.4 57.6 -14.2962890625 59.6326171875 -13.15 61.7 -12.9533203125 62.073828125 -12.75 62.4 -11.683203125 64.362109375 -10.6 66.25 -9.827734375 67.5376953125 -8.95 68.7 -7.43828125 70.8748046875 -5.65 72.75 -4.1283203125 74.4107421875 -2.3 75.65 -0.719140625 76.6861328125 1 77.5 2.5326171875 77.9189453125 4.05 77.85 11.531640625 76.984765625 12.7 69.9 12.7869140625 69.4150390625 12.85 68.9
L 15.45 54.4
Q 17.0353515625 48.03671875 17.35 45.9 19.6654296875 29.69375 16.75 16.5
L 16.75 16.45
Q 16.437109375 14.9328125 16 13.5 15.10390625 10.4009765625 13.8 7.8 11.536328125 3.2615234375 8.1 0.3 9.7322265625 3.7421875 11.2 7.85 12.1767578125 10.5728515625 13.05 13.55 13.57265625 15.1931640625 14.05 16.9 14.0044921875 16.9025390625 14.05 16.95
M 7.15 -1.25
L 7.7 -0.05
Q 7.7263671875 -0.0015625 7.75 0
L 7.75 0 7.15 -1.25 Z"/>

<path fill="#E781B3" stroke="none" d="
M 14 16.9
L 14 16.95 14.05 16.95 14 16.9 Z"/>

<path fill="#FDF6AE" stroke="none" d="
M 8.1 0.3
L 8.05 0.3
Q -14.487890625 0.18046875 -25.8 19.65 -25.0306640625 25.755078125 -21.9 36.05 -18.9673828125 45.05859375 -12.95 56.4 -11.55625 58.95625 -10.1 61.65 -9.9078125 62.005078125 -9.75 62.35 -8.51796875 64.5634765625 -7.15 66.7 -5.998046875 68.5017578125 -4.6 70.15 -3.398046875 71.5615234375 -1.95 72.65 -0.684375 73.6486328125 0.65 74.45 2.3259765625 75.13828125 4.05 75.2 9.0341796875 75.4060546875 10.6 68.95 10.87421875 67.2107421875 11.05 65.4 11.2265625 63.3005859375 11.45 61.2 11.6728515625 59.3142578125 12.1 57.35 12.476171875 55.9486328125 12.75 54.45 12.826171875 54.2990234375 12.85 54.1 14.058984375 48.5287109375 14.5 45.25 16.7115234375 29.4509765625 14 16.95
L 14 16.9 14.05 16.9
Q 13.57265625 15.1931640625 13.05 13.55 12.1767578125 10.5728515625 11.2 7.85 9.7322265625 3.7421875 8.1 0.3 Z"/>
</g>

<g id="FS_34Rwalk_HindLeg_3_4rear_nocutie_8_Layer4_0_FILL">
<path fill="#FDF6AE" stroke="none" d="
M 24.6 59.8
Q 24.4841796875 59.4 24.25 58.95 23.8748046875 58.35 23.45 57.75 23.206640625 57.35 22.9 57.05 22.034765625 56.4 20.95 55.9 12.009375 53.85 5.25 58.4 4.7658203125 58.75 4.3 59.15 -1.8130859375 64.75 1.65 73.95 10.1466796875 100.35 3.25 127.65 12.240625 126.9 21.15 126.2 30.2408203125 125.4 39.25 124.65 39.569921875 88.75 24.6 59.8 Z"/>
</g>

<g id="FS_34Rwalk_KneePatch_7_Layer0_0_FILL">
<path fill="#FDF6AE" stroke="none" d="
M 12.25 -26.6
Q 7.8052734375 -28.8138671875 2.55 -27 -2.7322265625 -25.1638671875 -5.7 -20.35
L -5.7 -20.3
Q -8.4123046875 -15.8380859375 -7.75 -11.3 -7.70078125 -11.2623046875 -7.7 -11.25 -4.901953125 1.4126953125 -5.5 12.8
L -5.5 12.85
Q -5.4966796875 12.9298828125 -5.5 13.05 -5.48671875 13.2080078125 -5.5 13.35 -5.5109375 13.4498046875 -5.55 13.5 -5.503515625 14.565234375 -5.2 15.65 -4.0818359375 19.1017578125 -0.5 20.85 3.00546875 22.5927734375 6.9 21.6 10.6408203125 20.6939453125 12.6 17.75
L 12.65 17.7
Q 14.4806640625 14.7388671875 13.45 11.45
L 13.4 11.4
Q 12.82578125 9.665234375 11.75 7.85
L 11.75 7.8 11.75 7.75
Q 6.9478515625 -0.618359375 11.55 -3.9 14.7388671875 -6.434765625 15.6 -7.5
L 15.65 -7.55
Q 16.4875 -8.587109375 17.1 -9.55
L 17.1 -9.6
Q 20.0099609375 -14.426953125 18.5 -19.35
L 18.5 -19.35
Q 16.916796875 -24.3189453125 12.3 -26.55
L 12.25 -26.6 Z"/>
</g>

<g id="FS_34Rwalk_HindLeg_taperline_0_Layer0_0_FILL">
<path fill="#EBD564" stroke="none" d="
M 1.6 -0.95
Q 1.277734375 -1.4619140625 0.65 -1.6 -1.36015625 -1.948828125 -3.55 -1.4 -6.2587890625 -0.1974609375 -7 2.25 -5.433203125 1.94765625 -3.55 1.65 -1.653515625 1.4013671875 -0.25 1.5 1.1904296875 1.650390625 1.45 1.2 1.76328125 0.78359375 1.85 0.15 1.9830078125 -0.4359375 1.6 -0.95 Z"/>
</g>

<g id="Temp0009_FS_34Rwalk_12_Layer0_0_FILL">
<path fill="#FDF6AE" stroke="none" d="
M 27.45 -1.95
Q 23.95 -7.15 18.9 -7.15 13.9 -7.15 10.35 -1.95 6.85 3.3 6.8 10.65 6.8 18.05 10.3 23.25 13.85 28.45 18.85 28.45 23.9 28.45 27.4 23.25 30.95 18.05 31 10.65 31 3.3 27.45 -1.95 Z"/>
</g>

<g id="FS_34Rwalk_Torso_14_Layer0_0_FILL">
<path fill="#FDF6AE" stroke="none" d="
M 16.75 38.6
L 16.75 38.65
Q 22.178125 38.5134765625 24.8 38.1 27.4740234375 37.7453125 30.2 39.2 30.712890625 38.9923828125 31.15 38.8 43.570703125 19.4423828125 32.6 3.05 15.6279296875 -8.183984375 1.55 10.2 -3.5578125 16.9125 5.5 38
L 5.5 37.95
Q 10.3640625 38.3779296875 15.3 38.5
L 16.1 38.55 16.2 38.55 16.75 38.6
M 32.95 34.6
L 32.95 34.6 33 34.6 32.95 34.6 Z"/>

<path fill="#F4B6D1" stroke="none" d="
M 32.95 34.6
L 32.95 34.6 33 34.6 32.95 34.6
M 3.8 -17.4
Q 3.7638671875 -17.463671875 3.7 -17.55
L 3.65 -17.25 3.8 -17.4
M 18 -23.1
L 18 -23.1 18 -23.15 18 -23.1 Z"/>

<path fill="#EBD564" stroke="none" d="
M 5.1 41.25
Q 5.6333984375 41.2923828125 6.15 41.3 15.32890625 42.30390625 22.4 41.05
L 22.45 41.05
Q 27.02109375 40.1751953125 28.4 39.8 29.3365234375 39.5427734375 30.2 39.2 27.4740234375 37.7453125 24.8 38.1 22.178125 38.5134765625 16.75 38.65
L 16.75 38.6 16.2 38.55 16.1 38.55 15.3 38.5
Q 10.3640625 38.3779296875 5.5 37.95
L 5.5 38 5.1 41.25 Z"/>

<path fill="#E781B3" stroke="none" d="
M 18 -23.1
L 18 -23.1 18 -23.1 18 -23.1 Z"/>
</g>

<g id="FS_34Rwalk_Mane_3_Layer2_0_FILL">
<path fill="#000000" stroke="none" d="
M -19.75 -16.8
L -19.8 -16.9
Q -19.762109375 -16.8255859375 -19.75 -16.8 -19.7802734375 -16.7255859375 -19.85 -16.7 -19.7609375 -16.7103515625 -19.7 -16.75
L -19.75 -16.8
M -34.8 22.75
Q -34.7599609375 22.6541015625 -34.75 22.55
L -34.85 22.7
Q -34.7986328125 22.735546875 -34.8 22.75 Z"/>

<path fill="#E781B3" stroke="none" d="
M -59.4 -28.05
Q -64.958984375 -21.718359375 -71.75 -7.25 -77.891015625 5.9248046875 -82.75 23.45 -88.3259765625 44.2013671875 -88.9 57.65 -89.55234375 71.7271484375 -85.75 91.8 -83.62421875 103.11796875 -79 125.55 -76.2388671875 142.087109375 -75.6 155.95 -75.172265625 163.975 -75.7 171.95 -76.0888671875 179.622265625 -78.35 182.85 -79.6974609375 184.776953125 -81.85 184.6 -83.74296875 184.5328125 -85.5 182.9 -88.362109375 180.1970703125 -88.35 174.6 -88.279296875 172.4091796875 -87.4 169.65 -86.97578125 168.187890625 -86.3 168.85 -86.1482421875 168.962109375 -85.2 170.55 -84.19453125 172.1146484375 -83.6 173.8 -83.4814453125 174.0853515625 -83.4 174.35 -83.3603515625 174.472265625 -83.35 174.6
L -83 175.8
Q -82.880859375 176.31953125 -82.8 176.85
L -82.6 178.75
Q -81.151171875 175.78203125 -80.6 173.2 -79.2341796875 166.9283203125 -83 163.05 -84.840234375 161.1419921875 -87.85 161.2 -90.471484375 161.2654296875 -92.85 162.75 -98.20546875 166.2642578125 -96.8 179.25 -95.383984375 191.876171875 -87.95 197.65 -81.593359375 202.6171875 -70.8 198.05 -63.3814453125 194.8650390625 -57.05 184.3 -51.9064453125 175.681640625 -47.6 162 -43.1685546875 146.2056640625 -40.85 138.6 -33.921875 116.2451171875 -33.4 94.35 -33.300390625 89.6822265625 -33.6 82.4 -34.023828125 71.9224609375 -34.05 70.45 -34.2943359375 60.152734375 -33.9 46.2 -33.0244140625 17.861328125 -30.55 3.75 -28.4064453125 -8.4869140625 -22 -14.85 -20.9310546875 -15.8859375 -19.75 -16.8 -19.7703125 -16.8330078125 -19.8 -16.9
L -19.8 -16.9 -19.8 -16.9 -19.75 -16.8 -19.7 -16.75
Q -15.71328125 -19.1806640625 -13.1 -20.35 -9.2369140625 -22.05234375 -4.65 -23.55 -9.023828125 -23.0841796875 -13.1 -21.7 -16.8458984375 -20.423828125 -20.35 -18.35 -20.9421875 -19.83359375 -21.6 -21.15 -27.37890625 -33.311328125 -38.55 -36 -49.946484375 -38.7677734375 -59.4 -28.05
M -40.05 -34.15
Q -32.25 -32.334375 -27.05 -25.1 -24.569921875 -21.60703125 -22.65 -16.6 -24.863671875 -14.92265625 -26.55 -12.85 -31.853125 -6.028515625 -33.9 7.25 -34.151171875 8.9072265625 -34.4 10.6 -39.95703125 6.1931640625 -47.5 7.05 -56.9896484375 8.1556640625 -64 19.45 -68.3501953125 26.4138671875 -72.65 39.55 -81.2416015625 65.9716796875 -80.8 94.45 -80.7544921875 95.062890625 -80.55 101.3 -84.6208984375 80.4630859375 -85.45 72.6 -87.1416015625 56.1470703125 -82.95 36.35 -78.9080078125 17.0951171875 -72.15 0.1 -63.537890625 -21.1693359375 -54.65 -29.95 -48.4576171875 -36.05 -40.05 -34.15
M -36 10.95
Q -35.253125 11.46875 -34.6 12 -35.13515625 16.4044921875 -35.6 21.15 -37.9369140625 20.3544921875 -41.1 21.05 -44.6697265625 21.815625 -48.35 24.2 -55.92109375 29.1541015625 -62.6 42.45 -67.6033203125 52.416796875 -71.1 69.05 -77.522265625 99.5779296875 -70.75 132.6 -69.79375 137.1634765625 -67.7 147 -65.9841796875 155.756640625 -65.45 162.25 -63.86328125 179.958984375 -70 191.35 -71.9548828125 195.0177734375 -74.95 196 -78.0462890625 197.0595703125 -81.5 194.85 -86.7279296875 191.551171875 -88.5 184.8 -88.712890625 184.0328125 -88.9 183.2 -88.3666015625 183.8390625 -87.75 184.35 -85.0416015625 186.7244140625 -81.55 186.5 -74.1267578125 185.974609375 -72.95 174.2 -71.468359375 159.3171875 -73.65 140.7 -74.9943359375 129.055859375 -78.75 110.25 -78.771875 107.416796875 -78.9 104.3 -80.1306640625 76.9720703125 -75.2 54.3 -72.4404296875 41.39296875 -67.5 29.8 -61.5318359375 15.7298828125 -54.55 10.75 -50.387890625 7.8962890625 -45.25 8 -40.31484375 8.102734375 -36 10.95
M -34.75 22.55
Q -34.7599609375 22.6541015625 -34.8 22.75 -34.7986328125 22.735546875 -34.85 22.7
L -34.75 22.55
M -38.1 21.6
Q -36.7818359375 21.7201171875 -35.7 22.25 -37.5505859375 43.7048828125 -36.95 72.6 -36.7771484375 78.4517578125 -36.5 89.95 -36.34296875 99.8970703125 -37.05 107.25 -38.555859375 122.700390625 -44.55 141.85 -46.8755859375 149.3669921875 -51.35 164.7 -55.661328125 177.915234375 -60.95 186.35 -65.0435546875 193.0271484375 -70.35 196.4 -76.9791015625 200.695703125 -83.25 197.85 -91.3521484375 194.19375 -93.75 179.4 -94.5810546875 173.9908203125 -93.6 168.45 -92.19921875 160.6779296875 -87.35 162.9 -84.2564453125 164.3072265625 -83.5 167.8 -84.448828125 166.9109375 -85.6 166.55 -89.21875 165.3779296875 -90.6 170.65 -91.6119140625 174.6361328125 -91.05 178.4 -90.8345703125 179.5525390625 -90.45 180.55 -90.4123046875 181.652734375 -90.3 182.7 -88.9822265625 195.461328125 -78.2 197.3 -72.3908203125 198.3259765625 -68.15 190.45 -64.1822265625 183.0849609375 -63.95 169.4 -63.819921875 161.4908203125 -65.45 151.4 -66.2193359375 146.7603515625 -69 133.65 -72.9775390625 114.5125 -73 100.8 -73.0900390625 65.9177734375 -60.7 41.35 -50.4666015625 20.771484375 -38.1 21.6 Z"/>

<path fill="#F4B6D1" stroke="none" d="
M -35.7 22.25
Q -36.7818359375 21.7201171875 -38.1 21.6 -50.4666015625 20.771484375 -60.7 41.35 -73.0900390625 65.9177734375 -73 100.8 -72.9775390625 114.5125 -69 133.65 -66.2193359375 146.7603515625 -65.45 151.4 -63.819921875 161.4908203125 -63.95 169.4 -64.1822265625 183.0849609375 -68.15 190.45 -72.3908203125 198.3259765625 -78.2 197.3 -88.9822265625 195.461328125 -90.3 182.7 -90.4123046875 181.652734375 -90.45 180.55 -90.8345703125 179.5525390625 -91.05 178.4 -91.6119140625 174.6361328125 -90.6 170.65 -89.21875 165.3779296875 -85.6 166.55 -84.448828125 166.9109375 -83.5 167.8 -84.2564453125 164.3072265625 -87.35 162.9 -92.19921875 160.6779296875 -93.6 168.45 -94.5810546875 173.9908203125 -93.75 179.4 -91.3521484375 194.19375 -83.25 197.85 -76.9791015625 200.695703125 -70.35 196.4 -65.0435546875 193.0271484375 -60.95 186.35 -55.661328125 177.915234375 -51.35 164.7 -46.8755859375 149.3669921875 -44.55 141.85 -38.555859375 122.700390625 -37.05 107.25 -36.34296875 99.8970703125 -36.5 89.95 -36.7771484375 78.4517578125 -36.95 72.6 -37.5505859375 43.7048828125 -35.7 22.25
M -34.6 12
Q -35.253125 11.46875 -36 10.95 -40.31484375 8.102734375 -45.25 8 -50.387890625 7.8962890625 -54.55 10.75 -61.5318359375 15.7298828125 -67.5 29.8 -72.4404296875 41.39296875 -75.2 54.3 -80.1306640625 76.9720703125 -78.9 104.3 -78.771875 107.416796875 -78.75 110.25 -74.9943359375 129.055859375 -73.65 140.7 -71.468359375 159.3171875 -72.95 174.2 -74.1267578125 185.974609375 -81.55 186.5 -85.0416015625 186.7244140625 -87.75 184.35 -88.3666015625 183.8390625 -88.9 183.2 -88.712890625 184.0328125 -88.5 184.8 -86.7279296875 191.551171875 -81.5 194.85 -78.0462890625 197.0595703125 -74.95 196 -71.9548828125 195.0177734375 -70 191.35 -63.86328125 179.958984375 -65.45 162.25 -65.9841796875 155.756640625 -67.7 147 -69.79375 137.1634765625 -70.75 132.6 -77.522265625 99.5779296875 -71.1 69.05 -67.6033203125 52.416796875 -62.6 42.45 -55.92109375 29.1541015625 -48.35 24.2 -44.6697265625 21.815625 -41.1 21.05 -37.9369140625 20.3544921875 -35.6 21.15 -35.13515625 16.4044921875 -34.6 12
M -27.05 -25.1
Q -32.25 -32.334375 -40.05 -34.15 -48.4576171875 -36.05 -54.65 -29.95 -63.537890625 -21.1693359375 -72.15 0.1 -78.9080078125 17.0951171875 -82.95 36.35 -87.1416015625 56.1470703125 -85.45 72.6 -84.6208984375 80.4630859375 -80.55 101.3 -80.7544921875 95.062890625 -80.8 94.45 -81.2416015625 65.9716796875 -72.65 39.55 -68.3501953125 26.4138671875 -64 19.45 -56.9896484375 8.1556640625 -47.5 7.05 -39.95703125 6.1931640625 -34.4 10.6 -34.151171875 8.9072265625 -33.9 7.25 -31.853125 -6.028515625 -26.55 -12.85 -24.863671875 -14.92265625 -22.65 -16.6 -24.569921875 -21.60703125 -27.05 -25.1 Z"/>
</g>

<g id="FS_34Rwalk_HindLeg_3_4rear_20_Layer7_0_FILL">
<path fill="#FDF6AE" stroke="none" d="
M 16.1 85.1
Q 13.0490234375 77.80703125 5.9 76.05 -1.2107421875 74.369140625 -8.25 78.7 -15.262109375 83.048828125 -16.85 88.65 -18.4568359375 94.3041015625 -18.85 98.85 -19.23359375 103.44375 -17.7 110.55 -16.169921875 117.63515625 -8.85 117.55 -1.491796875 117.5298828125 8 110.7 17.5380859375 103.8833984375 18.3 98.15 19.1359375 92.384375 16.1 85.1 Z"/>
</g>

<g id="FS_34Rwalk_HindLeg_3_4rear_20_Layer4_0_FILL">
<path fill="#FDF6AE" stroke="none" d="
M 22.4 46.25
Q 22.79921875 45.4865234375 22.85 44.75 23.063671875 43.2296875 21.9 41.8 13.7931640625 36.621484375 5.05 39.85 0.4822265625 41.9818359375 -1.6 45.75 -1.75390625 46.066015625 -1.9 46.35 -16.394140625 72.9431640625 -18.85 100.75
L 18.2 91.6
Q 14.416796875 75.3130859375 22.4 46.25 Z"/>
</g>

<g id="FS_34Rwalk_CutieMark_2_Layer0_0_FILL">
<path fill="#F4B6D1" stroke="none" d="
M -4.35 10
Q -7.4142578125 7.11640625 -8.5 5.5 -10.200390625 4.49609375 -11.9 4.3 -15.123828125 3.3291015625 -15.95 5.2 -16.3294921875 6.9990234375 -13.65 8.45 -10.7626953125 9.533203125 -9.5 8.8 -10.32578125 10.50390625 -9.4 12.95 -8.227734375 15.562109375 -5.95 16.05 -3.7072265625 16.2109375 -3.75 13.95 -3.747265625 12.3306640625 -4.35 10
M -6.1 -1.55
Q -7.2046875 -2.2912109375 -7.85 -0.15 -8.2673828125 1.3509765625 -7.7 4.75 -7.06171875 5.3107421875 -6.15 6.8 -4.7521484375 8.369921875 -4.05 9.9 -3.0654296875 9.901953125 -1 10.55 1.8572265625 10.4755859375 1.5 8.6 1.54765625 6.1671875 -1.15 5.3 -3.7267578125 4.113671875 -4.85 5.3 -4.330078125 3.2958984375 -4.9 1.55 -5.184765625 -0.39140625 -6.1 -1.55
M 11.45 8.05
Q 10.7951171875 6.114453125 10.6 4.8 9.544140625 1.7869140625 8.1 2.1 6.06171875 1.7869140625 6.3 4.8 6.384765625 7.1353515625 8.1 8.25 5.834765625 7.89921875 4.65 9.3 3.1705078125 10.601953125 4.25 12.55 4.980078125 14.2390625 7.3 13.95 8.259765625 13.461328125 10.3 12.65 10.4357421875 9.21953125 11.45 8.05
M 12.55 8.5
Q 12.2451171875 9.05859375 11.85 10.4 11.10859375 12.0103515625 10.6 12.95 11.026953125 13.5865234375 12.05 15.45 13.32890625 17.4486328125 15.35 17 17.0041015625 16.128515625 16.05 13.9 15.106640625 11.246484375 13.75 10.95 15.0712890625 10.6365234375 16.65 9.45 17.9796875 7.8970703125 18.3 6.9 18.177734375 5.1087890625 16.4 6.2 14.4267578125 6.481640625 12.55 8.5
M 9.5 -9.3
Q 8.63828125 -8.3796875 7.55 -7 5.538671875 -4.992578125 4.35 -4.1 4.2125 -3.185546875 4.55 -1.15 5.3779296875 0.8677734375 7.65 0.6 9.9333984375 0.4716796875 10.35 -2.75 10.384375 -5.469140625 9.4 -6.3 11.115625 -6.3685546875 13.75 -7.9 15.9919921875 -9.153125 17.2 -10.9 18.133984375 -12.3267578125 15.45 -11.8 13.0044921875 -10.9615234375 9.5 -9.3
M 8.3 -17.05
Q 5.7904296875 -16.737109375 4.75 -13.85 3.4078125 -10.7205078125 4.6 -9.7 2.803515625 -9.9220703125 0.15 -8.7 -2.6556640625 -6.8134765625 -2.7 -4.75 -2.5296875 -2.4544921875 0.2 -3.05 1.2310546875 -3.0994140625 4.15 -4.45 6.67265625 -8.1701171875 8.5 -9.8 9.1306640625 -11.8009765625 9.55 -13.65 9.987109375 -16.9400390625 8.3 -17.05 Z"/>

<path fill="#6CC9C6" stroke="none" d="
M -9.75 -1.3
Q -9.996484375 -0.9830078125 -10.55 -0.65 -10.6080078125 -0.0126953125 -10.65 0.6 -10.0923828125 2.2392578125 -9.05 4 -9.05 4.0498046875 -9.05 4.1 -9.4771484375 3.084765625 -10.55 2.65 -12.0875 1.2626953125 -13.1 1.4 -13.1517578125 1.3443359375 -13.35 1.4 -13.7185546875 1.351953125 -13.95 1.9 -14.0685546875 2.2125 -14.05 2.5 -13.62109375 2.62109375 -13.5 3 -12.9384765625 2.88828125 -12.7 3.05
L -12.6 2.95
Q -12.626953125 2.5576171875 -12.8 2.6
L -12.85 2.65
Q -12.747265625 2.3951171875 -13.3 2.6 -13.518359375 2.4439453125 -13.6 2.45 -13.6421875 2.0458984375 -13.2 1.9 -13.1578125 1.51640625 -13.1 1.85 -11.9826171875 1.6375 -10.85 2.95 -9.9625 3.6203125 -9.1 4.75 -9.0375 4.502734375 -9 4.7 -8.6693359375 4.9384765625 -8.5 5.5 -7.4142578125 7.11640625 -4.35 10 -4.0259765625 10.3517578125 -3.5 10.8 -3.701953125 10.1076171875 -4.05 9.9 -4.7521484375 8.369921875 -6.15 6.8 -7.06171875 5.3107421875 -7.7 4.75 -7.996484375 3.8654296875 -8.6 3.95
L -8.55 3.9
Q -9.8796875 1.921875 -10.2 0.55 -10.114453125 -0.098828125 -10.15 -0.45 -9.864453125 -0.831640625 -9.7 -0.9 -9.265625 -0.8693359375 -9.3 -0.5 -9.124609375 -0.006640625 -9.45 -0.1 -9.2265625 -0.01484375 -9.2 0.05 -8.8154296875 0.1037109375 -8.9 -0.7 -8.89609375 -0.95 -9.2 -1.25 -9.3818359375 -1.18203125 -9.75 -1.3
M 16.15 3.8
Q 15.7998046875 3.494921875 15.45 3.65 14.385546875 3.57109375 14.25 4.3 12.798046875 5.3087890625 12.25 7.1
L 12.25 7.05
Q 12.2154296875 6.523046875 12.6 5.3 12.8123046875 3.0865234375 12.45 2.6 12.3998046875 2.3201171875 12.3 2.5 12.1306640625 2.084765625 11.75 2.25 11.1287109375 2.034375 11.25 2.4 10.8326171875 2.4451171875 10.9 2.95 10.5853515625 3.17578125 11.2 3.7 11.2373046875 3.57109375 11.25 3.7 11.2337890625 3.44609375 11.45 3.45 11.0712890625 2.67890625 11.45 2.65 11.39140625 2.351953125 12.05 2.65 12.125 2.6009765625 12.15 2.85 12.4623046875 3.2126953125 12.2 5.15 11.777734375 6.721875 11.75 7.3 11.7267578125 7.3623046875 11.8 7.4 11.314453125 7.56328125 11.45 8.05 10.4357421875 9.21953125 10.3 12.65 10.081640625 12.75546875 10.2 13.3 10.2068359375 13.0859375 10.6 12.95 11.10859375 12.0103515625 11.85 10.4 12.2451171875 9.05859375 12.55 8.5 12.5392578125 7.485546875 12.6 7.4
L 12.65 7.4
Q 12.5587890625 6.961328125 13.25 6.2 13.73359375 4.97890625 14.45 4.5 14.9998046875 4.0078125 15.5 3.95 15.8056640625 3.8884765625 15.9 4.1 16.1623046875 4.05390625 15.85 4.75 15.3900390625 4.67578125 15.35 4.9 15.1076171875 4.797265625 15.35 5.25 15.4720703125 5.101953125 16.2 5.05 16.598828125 4.134375 16.15 3.8
M 12.9 -16.1
Q 12.597265625 -15.884765625 12.85 -16.3 12.3904296875 -16.4625 12.35 -16.65 11.8384765625 -16.6259765625 11.65 -16.45 11.1634765625 -16.0193359375 11 -15.8 10.626953125 -15.24453125 10.9 -14.9 10.626953125 -14.837890625 11 -14.8 10.990234375 -14.6349609375 11.4 -15.1 11.387109375 -15.1126953125 11.35 -15.15 11.0642578125 -15.351953125 11.4 -15.7 11.390234375 -15.8021484375 11.8 -16.05 11.8326171875 -16.20703125 12.35 -16 12.3189453125 -15.7712890625 12.45 -15.85 12.3294921875 -15.201953125 11.2 -13.15 9.8708984375 -11.23671875 9.35 -10.6 9.01640625 -10.284765625 9.45 -10.6 8.8462890625 -9.9529296875 8.5 -9.8 6.67265625 -8.1701171875 4.15 -4.45 3.8193359375 -3.5416015625 3.6 -3.45 4.0603515625 -3.6693359375 4.35 -4.1 5.538671875 -4.992578125 7.55 -7 8.63828125 -8.3796875 9.5 -9.3 10.0181640625 -9.8392578125 10.35 -10.55 10.5115234375 -11.088671875 11.9 -12 12.969140625 -12.893359375 14.15 -13.65 14.9 -13.939453125 15.6 -14.35 15.6759765625 -14.108984375 16.05 -14.15 16.05 -13.8337890625 16.05 -13.8 15.794140625 -13.680859375 15.7 -13.4 15.02890625 -13.1078125 15.1 -13.3 14.5103515625 -12.8576171875 14.8 -12.9 15.2333984375 -12.7779296875 15.9 -13.1 15.9703125 -13.06640625 16.5 -13.8 16.525 -13.915625 16.55 -14.5 16.27578125 -14.79921875 15.8 -14.8 15.0384765625 -14.6673828125 14.05 -14.05 11.92578125 -12.725 10.1 -10.9 10.0623046875 -10.875 10 -10.9 10.86796875 -11.937890625 11.55 -13 12.8025390625 -14.9615234375 12.9 -16.1 Z"/>
</g>

<g id="FS_34Rwalk_HindLeg_3_4rear_20_Layer0_0_FILL">
<path fill="#EBD564" stroke="none" d="
M 8.05 95.6
Q 7.7876953125 95.5716796875 7.5 95.55 2.1443359375 95.386328125 -3.3 99.35 -8.85703125 103.380078125 -10.3 108.85 -10.3759765625 109.2453125 -10.45 109.65
L -9.95 109
Q -3.1595703125 101.862890625 7.5 95.9
L 8.05 95.6 Z"/>
</g>

<g id="FS_Pwalk_Tail_12_Layer4_0_FILL">
<path fill="#F4B6D1" stroke="none" d="
M 76.9 -48.55
Q 44.5 -48.1 19 -25.9
L -0.25 -6.25
Q -0.95 -2.05 0.2 -0.3 1.35 1.5 5.45 2.35 10.7 -1.65 16.7 -4.45 42.55 -16.4 55 9 66 31.65 52.85 54.15 39.7 76.6 29.1 95.55 18.45 114.5 24.55 127.3 30.6 140.05 44.75 142.05 83.35 147.8 131.15 138.5
L 132.25 126.1
Q 102.55 129.6 85.8 126.5 69.1 123.4 70.55 115.65 71.95 107.85 84.6 100.85 97.25 93.8 114 73.5 130.7 53.2 130.55 20.25 130.4 -12.7 114.8 -29.8 99.15 -46.95 76.9 -48.55 Z"/>
</g>

<g id="tailtip_FS_10_Layer3_0_FILL">
<path fill="#F4B6D1" stroke="none" d="
M 34.75 10.75
Q 42.65 19.25 36.45 29.4 51.75 20.7 46.1 7.15 35.4 -12.1 -0.8 -7.4
L -1.85 4.9
Q 23.55 0.8 34.75 10.75 Z"/>
</g>

<g id="curlytip_0_Layer0_0_FILL">
<path fill="#E781B3" stroke="none" d="
M 8.45 -2.15
Q 7.8255859375 -1.687109375 6.85 -1.15 4.4201171875 0.24921875 1.95 1 -3.6892578125 2.8279296875 -6.4 1.9 -9.75703125 0.743359375 -6.5 -4.55 -12.0328125 0.1283203125 -9.55 2.7 -7.3111328125 5.023828125 -0.8 4.45 3.188671875 4.058203125 9.85 1.3 14.5697265625 -3.06875 8.45 -2.15 Z"/>
</g>

<g id="tailtip_FS_10_Layer0_0_FILL">
<path fill="#F4B6D1" stroke="none" d="
M -28.35 -15.9
Q -31.6232421875 -13.155859375 -29.8 -10.2 -27.9232421875 -7.23984375 -22.7 -8.35 -17.48203125 -9.4642578125 -16.2 -12.95 -14.926171875 -16.44140625 -20 -17.55 -25.024609375 -18.648046875 -28.35 -15.9 Z"/>
</g>

<g id="FS_34Rwalk_WingBack_3_4_0_Layer6_0_FILL">
<path fill="#FFF8AD" stroke="none" d="
M -3.25 -10.95
L -3.25 -10.9
Q -6.771875 -9.8326171875 -7.95 -7.7 -9.437109375 -4.7736328125 -9.05 0.65 -11.0166015625 2.1763671875 -11.65 3.35
L -11.6 3.3
Q -12.3109375 4.779296875 -12.4 7 -12.5015625 10.356640625 -9.3 15.45 -11.1501953125 20.690625 -8.2 24.1 -4.8490234375 24.80546875 -1.4 24.3 7.390234375 23.14375 10.05 15.55 14.9142578125 1.3421875 -0.4 -15
L -1.4 -16.05 -3.2 -10.9 -3 -12.45 -3.25 -10.95
M -12.65 16.3
Q -13.2515625 15.454296875 -13.75 14.55
L -13.75 14.5
Q -14.09296875 13.80234375 -14.4 13.05
L -14.45 13.15 -30.5 2.95
Q -26.376953125 11.7984375 -19.9 17.6 -16.3068359375 20.8330078125 -12.6 22.55 -13.715234375 19.6021484375 -12.65 16.3
M -34.5 -13.45
Q -34.996875 -8.25390625 -32.05 -0.65 -31.8767578125 -0.2734375 -31.75 0.1 -31.509765625 0.718359375 -31.25 1.3
L -14.85 11.7
Q -15.46015625 9.433203125 -15.4 6.9 -15.2939453125 4.047265625 -14.4 2.15
L -34.5 -13.45
M -27.6 -19.2
L -27.65 -19.2
Q -32.028515625 -19.5138671875 -33.3 -17.7
L -33.3 -17.65
Q -34.0263671875 -16.362890625 -34.35 -14.8
L -34.35 -14.75
Q -34.3427734375 -14.6591796875 -34.35 -14.6
L -13.9 1.25
Q -13.2216796875 0.2173828125 -12.35 -0.55 -12.330859375 -5.6185546875 -10.75 -8.8
L -25.9 -19
Q -26.7892578125 -19.1376953125 -27.6 -19.2
M -21.7 -18.15
Q -22.5771484375 -18.3775390625 -23.45 -18.55
L -10.25 -9.7
Q -9.2578125 -11.2814453125 -8 -12.05 -13.21171875 -15.9927734375 -21.7 -18.15 Z"/>

<path fill="#EBD463" stroke="none" d="
M -27.4 -22.2
L -27.4 -22.2
Q -34.184375 -22.6814453125 -35.9 -19.15
L -35.9 -19.15
Q -36.8681640625 -17.446875 -37.3 -15.35
L -37.3 -15.35
Q -38.59375 -9.1455078125 -34.8 0.6
L -34.75 0.7
Q -34.660546875 0.89765625 -34.6 1.1 -34.577734375 1.188671875 -34.55 1.25 -29.9048828125 12.7171875 -21.9 19.85 -17.0701171875 24.1734375 -12.05 26.05
L -9.3 26.9
Q -5.23046875 27.8634765625 -1 27.25 9.7099609375 25.85625 12.9 16.55 18.5857421875 0.8576171875 -1.4 -16.05
L -0.4 -15
Q 14.9142578125 1.3421875 10.05 15.55 7.390234375 23.14375 -1.4 24.3 -4.8490234375 24.80546875 -8.2 24.1 -11.1501953125 20.690625 -9.3 15.45 -12.5015625 10.356640625 -12.4 7 -12.3109375 4.779296875 -11.6 3.3
L -11.65 3.35
Q -11.0166015625 2.1763671875 -9.05 0.65 -9.437109375 -4.7736328125 -7.95 -7.7 -6.771875 -9.8326171875 -3.25 -10.9
L -3.25 -10.95
Q -11.1728515625 -18.5560546875 -20.95 -21.05 -24.6181640625 -21.991015625 -27.4 -22.2
M -23.45 -18.55
Q -22.5771484375 -18.3775390625 -21.7 -18.15 -13.21171875 -15.9927734375 -8 -12.05 -9.2578125 -11.2814453125 -10.25 -9.7
L -23.45 -18.55
M -27.65 -19.2
L -27.6 -19.2
Q -26.7892578125 -19.1376953125 -25.9 -19
L -10.75 -8.8
Q -12.330859375 -5.6185546875 -12.35 -0.55 -13.2216796875 0.2173828125 -13.9 1.25
L -34.35 -14.6
Q -34.3427734375 -14.6591796875 -34.35 -14.75
L -34.35 -14.8
Q -34.0263671875 -16.362890625 -33.3 -17.65
L -33.3 -17.7
Q -32.028515625 -19.5138671875 -27.65 -19.2
M -32.05 -0.65
Q -34.996875 -8.25390625 -34.5 -13.45
L -14.4 2.15
Q -15.2939453125 4.047265625 -15.4 6.9 -15.46015625 9.433203125 -14.85 11.7
L -31.25 1.3
Q -31.509765625 0.718359375 -31.75 0.1 -31.8767578125 -0.2734375 -32.05 -0.65
M -13.75 14.55
Q -13.2515625 15.454296875 -12.65 16.3 -13.715234375 19.6021484375 -12.6 22.55 -16.3068359375 20.8330078125 -19.9 17.6 -26.376953125 11.7984375 -30.5 2.95
L -14.45 13.15 -14.4 13.05
Q -14.09296875 13.80234375 -13.75 14.5
L -13.75 14.55 Z"/>
</g>

<path id="FS_34Rwalk_FrontLeg_3_4rear_0_Layer2_0_1_STROKES" stroke="#EBD564" stroke-width="3" stroke-linejoin="round" stroke-linecap="round" fill="none" d="
M -4.8 91.25
Q -5.2060546875 100.9677734375 -10.2 102.55 -14.9072265625 103.9373046875 -30.675 104.425 -46.465234375 104.930859375 -47.325 101.825 -48.169140625 98.7091796875 -44.55 91.625 -40.937890625 84.5431640625 -36.25 77.625 -31.5689453125 70.7126953125 -23.6 70.675 -15.6125 70.625390625 -10 76.075 -4.38984375 81.5298828125 -4.8 91.25 Z"/>

<path id="FS_34Rwalk_FrontLeg_3_4rear_0_Layer1_0_1_STROKES" stroke="#EBD564" stroke-width="3" stroke-linejoin="round" stroke-linecap="round" fill="none" d="
M -45.7 93.85
L -12.3 -5
M 6.3 1.3
Q 0.725 47.1 -4.85 92.9"/>

<path id="FS_34Rwalk_FrontLeg_3_4rear_12_Layer2_0_1_STROKES" stroke="#EBD564" stroke-width="3" stroke-linejoin="round" stroke-linecap="round" fill="none" d="
M 24.1 80.85
Q 28.6 74.85 36.45 74.7 44.3 74.5 50.6 77.65 56.95 80.8 55.7 89.8 54.4 98.75 48.05 101.9 44.7 103.9 29.7 104.55 14.6 105.15 13.7 102.05 12.75 98.95 16.2 92.85 19.6 86.75 24.1 80.85 Z"/>

<path id="FS_34Rwalk_FrontLeg_3_4rear_12_Layer1_0_1_STROKES" stroke="#EBD564" stroke-width="3" stroke-linejoin="round" stroke-linecap="round" fill="none" d="
M -12.6 -4
Q -3.25 21.75 6 45.8 20 84.55 13.85 98.35
M 55.55 88.45
Q 57.15 77.9 40.15 48.6 26.95 26.6 11.3 -0.85"/>

<path id="FS_34Rwalk_HindLeg_3_4rear_nocutie_8_Layer7_0_1_STROKES" stroke="#EBD564" stroke-width="3" stroke-linejoin="round" stroke-linecap="round" fill="none" d="
M 34.7 115.4
Q 40.0361328125 120.45 39.525 127 39.0263671875 133.5 35.95 139.45 32.7623046875 145.4 19.6 146.6 6.4333984375 147.85 1.2 145.05 -4.035546875 142.25 -1.15 136.25 1.75390625 130.2 4.3 125.35 6.8419921875 120.45 10.475 116 14.0724609375 111.5 21.75 110.95 29.421875 110.35 34.7 115.4 Z"/>

<path id="FS_34Rwalk_HindLeg_3_4rear_nocutie_8_Layer4_0_1_STROKES" stroke="#EBD564" stroke-width="3" stroke-linejoin="round" stroke-linecap="round" fill="none" d="
M 3.25 127.65
Q 10.1466796875 100.35 1.675 73.95 -1.8130859375 64.75 4.325 59.15 4.7658203125 58.75 5.25 58.4 12.009375 53.85 20.95 55.9 22.034765625 56.4 22.9 57.05 23.206640625 57.35 23.45 57.75 23.8748046875 58.35 24.25 58.95 24.4841796875 59.4 24.625 59.8 39.569921875 88.75 39.25 124.65"/>

<path id="FS_34Rwalk_HindLeg_3_4rear_20_Layer7_0_1_STROKES" stroke="#EBD564" stroke-width="3" stroke-linejoin="round" stroke-linecap="round" fill="none" d="
M 16.1 85.1
Q 19.1359375 92.384375 18.325 98.15 17.5380859375 103.8833984375 8.025 110.7 -1.491796875 117.5298828125 -8.825 117.575 -16.169921875 117.63515625 -17.7 110.55 -19.23359375 103.44375 -18.85 98.875 -18.4568359375 94.3041015625 -16.85 88.675 -15.262109375 83.048828125 -8.25 78.725 -1.2107421875 74.369140625 5.925 76.075 13.0490234375 77.80703125 16.1 85.1 Z"/>

<path id="FS_34Rwalk_HindLeg_3_4rear_20_Layer4_0_1_STROKES" stroke="#EBD564" stroke-width="3" stroke-linejoin="round" stroke-linecap="round" fill="none" d="
M -18.85 100.75
Q -16.394140625 72.9431640625 -1.9 46.375 -1.75390625 46.066015625 -1.6 45.775 0.4822265625 41.9818359375 5.05 39.875 13.7931640625 36.621484375 21.9 41.825 23.063671875 43.2296875 22.875 44.75 22.79921875 45.4865234375 22.4 46.25 14.416796875 75.3130859375 18.2 91.6"/>

<path id="FS_Pwalk_Tail_12_Layer4_0_1_STROKES" stroke="#E781B3" stroke-width="3" stroke-linejoin="miter" stroke-linecap="round" stroke-miterlimit="7" fill="none" d="
M 76.9 -48.55
Q 99.15 -46.95 114.8 -29.8 130.4 -12.7 130.55 20.25 130.7 53.2 114 73.5 97.25 93.8 84.6 100.85 71.95 107.85 70.55 115.65 69.1 123.4 85.8 126.5 102.55 129.6 132.25 126.1
L 131.15 138.5
Q 83.35 147.8 44.75 142.05 30.6 140.05 24.55 127.3 18.45 114.5 29.1 95.55 39.7 76.6 52.85 54.15 66 31.65 55 9 42.55 -16.4 16.7 -4.45 10.7 -1.65 5.45 2.35 1.35 1.5 0.2 -0.3 -0.95 -2.05 -0.25 -6.25
L 19 -25.9
Q 44.5 -48.1 76.9 -48.55 Z"/>

<path id="FS_Pwalk_Tail_12_Layer3_0_1_STROKES" stroke="#E781B3" stroke-width="1.5" stroke-linejoin="miter" stroke-linecap="round" stroke-miterlimit="7" fill="none" d="
M -0.25 -0.9
Q 51.7 -40.5 83.85 -8.7 109.1 22.35 66.9 78.4 17.35 146.1 59.2 144.4"/>

<path id="FS_Pwalk_Tail_12_Layer2_0_1_STROKES" stroke="#E781B3" stroke-width="1.5" stroke-linejoin="miter" stroke-linecap="round" stroke-miterlimit="7" fill="none" d="
M 128.8 5.2
Q 129.65 36.3 70.55 93.8 33.1 133.75 69.1 144.7"/>

<path id="tailtip_FS_10_Layer3_0_1_STROKES" stroke="#E781B3" stroke-width="3" stroke-linejoin="miter" stroke-linecap="round" stroke-miterlimit="4" fill="none" d="
M 34.75 10.75
Q 23.55 0.8 -1.85 4.9
L -0.8 -7.4
Q 35.4 -12.1 46.1 7.15 51.75 20.7 36.45 29.4 42.65 19.25 34.75 10.75 Z"/>

<path id="tailtip_FS_10_Layer2_0_1_STROKES" stroke="#E781B3" stroke-width="1" stroke-linejoin="miter" stroke-linecap="round" stroke-miterlimit="7" fill="none" d="
M 5.2 -7.35
Q 41.3 -2.1 39.7 19"/>
</defs>

<g transform="matrix( 0.412506103515625, 0, 0, 0.412506103515625, 486.45,301.35) ">
<g transform="matrix( 1.01934814453125, 0, 0, 1.01934814453125, -109.3,-27.85) ">
<g transform="matrix( 1, 0, 2.4957275390625, 1.5121917724609375, -1.75,146.5) ">
<g transform="matrix( 1.1522064208984375, 0, 0, 1.7481689453125, 4.4,-262.5) ">
<use filter="url(#Filter_1)" xlink:href="#FS_34Rwalk_Shadow_0_Layer0_0_FILL"/>
</g>
</g>

<g transform="matrix( 1, 0, 0, 1, 33.9,13.1) ">
<g transform="matrix( 0.6611328125, 0, 0.263885498046875, 0.8859710693359375, -1.05,8.15) ">
<g transform="matrix( 1, 0, 0, 1, 0,0) ">
<use filter="url(#Filter_2)" xlink:href="#FS_34Rwalk_WingBack_3_4far_0_Layer6_0_FILL"/>
</g>
</g>
</g>

<g transform="matrix( 1, 0, 0, 1, -48.7,87.65) ">
<g transform="matrix( 1, 0.0000152587890625, 0.029693603515625, 0.9674224853515625, 20.45,-53.9) ">
<g transform="matrix( 1, 0, 0, 1, 0,0) ">
<use filter="url(#Filter_2)" xlink:href="#FS_34Rwalk_FrontLeg_3_4rear_0_Layer2_0_FILL"/>

<use filter="url(#Filter_2)" xlink:href="#FS_34Rwalk_FrontLeg_3_4rear_0_Layer2_0_1_STROKES"/>
</g>

<g transform="matrix( 1, 0, 0, 1, 0,0) ">
<use filter="url(#Filter_2)" xlink:href="#FS_34Rwalk_FrontLeg_3_4rear_0_Layer1_0_FILL"/>

<use filter="url(#Filter_2)" xlink:href="#FS_34Rwalk_FrontLeg_3_4rear_0_Layer1_0_1_STROKES"/>
</g>
</g>
</g>

<g transform="matrix( 0.9986572265625, 0.0435791015625, -0.0435791015625, 0.9986572265625, -20.3,54.9) ">
<g transform="matrix( 0.9998779296875, -0.039459228515625, 0.02349853515625, 0.9991912841796875, -27.4,-101.6) ">
<g transform="matrix( 1.0021209716796875, -0.0628204345703125, 0.0720977783203125, 0.9933624267578125, -8,-57.95) ">
<g transform="matrix( 1, 0, 0, 1, 0.3,-0.2) ">
<g transform="matrix( 1, 0, 0, 1, 0,0) ">
<use xlink:href="#FS_Hair_05_4_Layer1_0_FILL"/>
</g>
</g>

<g transform="matrix( 1, 0, 0, 1, 46.05,98.6) ">
<g transform="matrix( 1, 0, 0, 1, 0,0) ">
<use xlink:href="#FS_Hair_03_4_Layer1_0_FILL"/>
</g>
</g>

<g transform="matrix( 1, 0, 0, 1, 74.15,148.8) ">
<g transform="matrix( 1, 0, 0, 1, 0,0) ">
<use xlink:href="#FS_Hair_04_4_Layer1_0_FILL"/>
</g>
</g>
</g>

<g transform="matrix( 0.99969482421875, 0.0050811767578125, -0.0050811767578125, 0.99969482421875, 1.1,-11.15) ">
<g transform="matrix( 1, 0, 0, 1, 0,0) ">
<use xlink:href="#FS_Skull_2_Layer0_0_FILL"/>
</g>
</g>

<g transform="matrix( 1, 0, 0, 1, -31.15,-26.65) ">
<g transform="matrix( 1, 0, 0, 1, 0,0) ">
<use xlink:href="#FS_Ear_5_Layer1_0_FILL"/>
</g>
</g>

<g transform="matrix( 0.9840087890625, 0.00604248046875, -0.0128326416015625, 1.00531005859375, 33,-27.8) ">
<g transform="matrix( 1, 0, 0, 1, 0,0) ">
<use xlink:href="#FS_Ear_6_Layer1_0_FILL"/>
</g>
</g>
</g>

<g transform="matrix( 0.9704742431640625, 0.02288818359375, -0.0365753173828125, 0.969085693359375, 20.9,-43.05) ">
<g transform="matrix( 1, 0, 0, 1, 0,0) ">
<use xlink:href="#FS_34Rwalk_Neck_1_Layer0_0_FILL"/>
</g>
</g>
</g>

<g transform="matrix( 1, 0, 0, 1, -65.4,95.1) ">
<g transform="matrix( 1, 0.0000152587890625, -0.0899658203125, 1.0281982421875, 20.45,-53.25) ">
<g transform="matrix( 1, 0, 0, 1, 0,0) ">
<use xlink:href="#FS_34Rwalk_FrontLeg_3_4rear_12_Layer2_0_FILL"/>

<use xlink:href="#FS_34Rwalk_FrontLeg_3_4rear_12_Layer2_0_1_STROKES"/>
</g>

<g transform="matrix( 1, 0, 0, 1, 0,0) ">
<use xlink:href="#FS_34Rwalk_FrontLeg_3_4rear_12_Layer1_0_FILL"/>

<use xlink:href="#FS_34Rwalk_FrontLeg_3_4rear_12_Layer1_0_1_STROKES"/>
</g>
</g>
</g>

<g transform="matrix( 0.9804840087890625, 0.04278564453125, -0.0435791015625, 0.9986572265625, 28.9,-6.85) ">
<g transform="matrix( 0.963470458984375, -0.3124237060546875, 0.3577117919921875, 0.9569091796875, -14.5,29.85) ">
<g transform="matrix( 1, 0, 0, 1, 0,0) ">
<use xlink:href="#FS_34Rwalk_Torso_15_Layer0_0_FILL"/>
</g>
</g>
</g>

<g transform="matrix( 1, 0, 0.0467987060546875, 1.0372314453125, 52.75,76.6) ">
<g transform="matrix( 1.0763397216796875, 0, 0.0025482177734375, 1.016876220703125, -5.55,-71.25) ">
<g transform="matrix( 1, 0, 0, 1, 0,0) ">
<use xlink:href="#FS_34Rwalk_HindLeg_3_4rear_nocutie_8_Layer7_0_FILL"/>

<use xlink:href="#FS_34Rwalk_HindLeg_3_4rear_nocutie_8_Layer7_0_1_STROKES"/>
</g>

<g transform="matrix( 0.9515838623046875, -0.2603759765625, 0.38311767578125, 1.23187255859375, 4.5,61.15) ">
<g transform="matrix( 1, 0, 0, 1, 0,0) ">
<use xlink:href="#FS_34Rwalk_KneePatch_6_Layer0_0_FILL"/>
</g>
</g>

<g transform="matrix( 1.09271240234375, 0.005950927734375, -0.0406036376953125, 1.03253173828125, 9.05,-9.5) ">
<g transform="matrix( 1, 0, 0, 1, 0,0) ">
<use xlink:href="#FS_34Rwalk_HindLeg_3_4_top_5_Layer0_0_FILL"/>
</g>
</g>

<g transform="matrix( 1, 0, 0, 1, 0,0) ">
<use xlink:href="#FS_34Rwalk_HindLeg_3_4rear_nocutie_8_Layer4_0_FILL"/>

<use xlink:href="#FS_34Rwalk_HindLeg_3_4rear_nocutie_8_Layer4_0_1_STROKES"/>
</g>

<g transform="matrix( 0.9516143798828125, -0.2603759765625, 0.377197265625, 1.21026611328125, 3.8,58.85) ">
<g transform="matrix( 1, 0, 0, 1, 0,0) ">
<use xlink:href="#FS_34Rwalk_KneePatch_7_Layer0_0_FILL"/>
</g>
</g>

<g transform="matrix( 1.066650390625, 0, 0, 1, 16.35,55.3) ">
<g transform="matrix( 1, 0, 0, 1, 0,0) ">
<use xlink:href="#FS_34Rwalk_HindLeg_taperline_0_Layer0_0_FILL"/>
</g>
</g>
</g>
</g>

<g transform="matrix( 1, 0, 0, 1, 6.35,1.2) ">
<g transform="matrix( 1, 0, 0, 1, 0,0) ">
<use xlink:href="#Temp0009_FS_34Rwalk_12_Layer0_0_FILL"/>
</g>
</g>

<g transform="matrix( 0.9986572265625, 0.0435791015625, -0.0435791015625, 0.9986572265625, 28.15,-6.9) ">
<g transform="matrix( 0.963470458984375, -0.3124237060546875, 0.3577117919921875, 0.9569091796875, -16.75,30) ">
<g transform="matrix( 1, 0, 0, 1, 0,0) ">
<use xlink:href="#FS_34Rwalk_Torso_14_Layer0_0_FILL"/>
</g>
</g>
</g>

<g transform="matrix( 0.99053955078125, -0.021453857421875, 0.1255950927734375, 1.00604248046875, -1.65,50.15) ">
<g transform="matrix( 0.9953155517578125, -0.0619354248046875, 0.0555572509765625, 0.9774169921875, 11.65,-143.25) ">
<g transform="matrix( 1, 0, 0, 1, 0,0) ">
<use xlink:href="#FS_34Rwalk_Mane_3_Layer2_0_FILL"/>
</g>
</g>
</g>

<g transform="matrix( 1, 0, 0, 1, 10.7,4.75) ">
<g transform="matrix( 1, 0, 0, 1, 0,0) ">
<use xlink:href="#Temp0009_FS_34Rwalk_12_Layer0_0_FILL"/>
</g>
</g>

<g transform="matrix( 1, 0, 0, 1, 27.4,84.5) ">
<g transform="matrix( 1.076324462890625, 0, -0.007293701171875, 0.9944915771484375, -6.55,-71.1) ">
<g transform="matrix( 1, 0, 0, 1, 0,0) ">
<use xlink:href="#FS_34Rwalk_HindLeg_3_4rear_20_Layer7_0_FILL"/>

<use xlink:href="#FS_34Rwalk_HindLeg_3_4rear_20_Layer7_0_1_STROKES"/>
</g>

<g transform="matrix( 0.725982666015625, -0.39776611328125, 0.154449462890625, 0.583343505859375, 1.45,44.75) ">
<g transform="matrix( 1, 0, 0, 1, 0,0) ">
<use xlink:href="#FS_34Rwalk_KneePatch_6_Layer0_0_FILL"/>
</g>
</g>

<g transform="matrix( 1.0980224609375, 0, -0.20831298828125, 0.922088623046875, 10.15,-9.8) ">
<g transform="matrix( 1, 0, 0, 1, 0,0) ">
<use xlink:href="#FS_34Rwalk_HindLeg_3_4_top_5_Layer0_0_FILL"/>
</g>
</g>

<g transform="matrix( 1, 0, 0, 1, 0,0) ">
<use xlink:href="#FS_34Rwalk_HindLeg_3_4rear_20_Layer4_0_FILL"/>

<use xlink:href="#FS_34Rwalk_HindLeg_3_4rear_20_Layer4_0_1_STROKES"/>
</g>

<g transform="matrix( 0.725982666015625, -0.39776611328125, 0.154449462890625, 0.583343505859375, 1.45,44.75) ">
<g transform="matrix( 1, 0, 0, 1, 0,0) ">
<use xlink:href="#FS_34Rwalk_KneePatch_7_Layer0_0_FILL"/>
</g>
</g>

<g transform="matrix( 1.093017578125, -0.1200408935546875, 0.109130859375, 0.9936676025390625, 11.45,38.55) ">
<g transform="matrix( 1, 0, 0, 1, 0,0) ">
<use xlink:href="#FS_34Rwalk_HindLeg_taperline_0_Layer0_0_FILL"/>
</g>
</g>

<g transform="matrix( 0.5991668701171875, 0.031402587890625, -0.2923736572265625, 0.956298828125, -7.65,10.75) ">
<g transform="matrix( 1.04998779296875, 0, 0, 1.04998779296875, -0.15,0) ">
<use xlink:href="#FS_34Rwalk_CutieMark_2_Layer0_0_FILL"/>
</g>
</g>

<g transform="matrix( 1, 0, 0, 1, 0,0) ">
<use xlink:href="#FS_34Rwalk_HindLeg_3_4rear_20_Layer0_0_FILL"/>
</g>
</g>
</g>

<g transform="matrix( 1.0164031982421875, 0.4091339111328125, -0.1402587890625, 0.988311767578125, 39.85,-3.75) ">
<g transform="matrix( 1, 0, 0, 1, 0,0) ">
<use xlink:href="#FS_Pwalk_Tail_12_Layer4_0_FILL"/>

<use xlink:href="#FS_Pwalk_Tail_12_Layer4_0_1_STROKES"/>
</g>

<g transform="matrix( 1, 0, 0, 1, 0,0) ">
<use xlink:href="#FS_Pwalk_Tail_12_Layer3_0_1_STROKES"/>
</g>

<g transform="matrix( 1, 0, 0, 1, 0,0) ">
<use xlink:href="#FS_Pwalk_Tail_12_Layer2_0_1_STROKES"/>
</g>

<g transform="matrix( 1, 0, 0, 1, 131.7,134) ">
<g transform="matrix( 1, 0, 0, 1, 0,0) ">
<use xlink:href="#tailtip_FS_10_Layer3_0_FILL"/>

<use xlink:href="#tailtip_FS_10_Layer3_0_1_STROKES"/>
</g>

<g transform="matrix( 1, 0, 0, 1, 0,0) ">
<use xlink:href="#tailtip_FS_10_Layer2_0_1_STROKES"/>
</g>

<g transform="matrix( 0.8616485595703125, -0.1103363037109375, 0.2410888671875, 1.0811767578125, 29.7,29.45) ">
<g transform="matrix( 1, 0, 0, 1, 0,0) ">
<use xlink:href="#curlytip_0_Layer0_0_FILL"/>
</g>
</g>

<g transform="matrix( 1, 0, 0, 1, 22.35,11.65) ">
<use xlink:href="#tailtip_FS_10_Layer0_0_FILL"/>
</g>
</g>
</g>

<g transform="matrix( 1, 0, 0, 1, -13.15,20.5) ">
<g transform="matrix( -0.998382568359375, -0.0028839111328125, -0.0028839111328125, 0.998382568359375, 1.35,10.4) ">
<g transform="matrix( 1, 0, 0, 1, 0,0) ">
<use xlink:href="#FS_34Rwalk_WingBack_3_4_0_Layer6_0_FILL"/>
</g>
</g>
</g>
</g>
</g>
</svg>
