
<svg xmlns="http://www.w3.org/2000/svg" version="1.1" xmlns:xlink="http://www.w3.org/1999/xlink" preserveAspectRatio="none" x="0px" y="0px" width="864px" height="486px" viewBox="0 0 864 486">
<defs>
<linearGradient id="Gradient_1" gradientUnits="userSpaceOnUse" x1="-33.8" y1="-21.2875" x2="-46.900000000000006" y2="1.387500000000001" spreadMethod="pad">
<stop  offset="0%" stop-color="#015350"/>

<stop  offset="2.7450980392156863%" stop-color="#025B58"/>

<stop  offset="9.019607843137255%" stop-color="#046B67"/>

<stop  offset="14.901960784313726%" stop-color="#047672"/>

<stop  offset="19.607843137254903%" stop-color="#057975"/>

<stop  offset="28.235294117647058%" stop-color="#058581"/>

<stop  offset="42.35294117647059%" stop-color="#009590"/>

<stop  offset="58.03921568627451%" stop-color="#00A19D"/>

<stop  offset="75.68627450980392%" stop-color="#00AAA5"/>

<stop  offset="100%" stop-color="#00ADA8"/>
</linearGradient>

<filter id="Filter_1" x="-20%" y="-20%" width="140%" height="140%" color-interpolation-filters="sRGB">
<feColorMatrix in="SourceGraphic" type="matrix" values="1 0 0 0 0 0 1 0 0 0 0 0 1 0 0 0 0 0 0.21 0" result="result1"/>
</filter>

<filter id="Filter_2" x="-20%" y="-20%" width="140%" height="140%" color-interpolation-filters="sRGB">
<feColorMatrix in="SourceGraphic" type="matrix" values="1 0 0 0 0.0196078431372549 0 1 0 0 -0.06274509803921569 0 0 1 0 -0.12156862745098039 0 0 0 1 0" result="result1"/>
</filter>

<g id="FS_Shadow_0_Layer0_0_FILL">
<path fill="#000000" stroke="none" d="
M 46.4 155.05
Q 68.65 152.95 68.65 149.95 68.65 146.95 46.4 144.8 24.15 142.7 -7.4 142.7 -38.9 142.7 -61.2 144.8 -83.45 146.95 -83.45 149.95 -83.45 152.95 -61.2 155.05 -38.9 157.2 -7.4 157.2 24.15 157.2 46.4 155.05 Z"/>
</g>

<g id="FS_Mane_01_6_Layer1_0_FILL">
<path fill="#E781B3" stroke="none" d="
M 42.75 41.25
Q 42.751171875 41.11171875 42.7 40.95 42.2412109375 38.311328125 41.65 36 38.65546875 26.197265625 34.2 17.35
L 34.2 17.35
Q 33.7041015625 16.2806640625 33.35 15.6 32.04921875 13.0935546875 30.65 10.75 28.480859375 7.1076171875 26.1 3.95 17.712109375 -7.1375 6.35 -14 -5.0142578125 -20.815625 -31.15 1.7 -56.1814453125 21.8888671875 -55 32.9 -47.675 42.042578125 -43.95 51.75 -38.4744140625 65.9626953125 -38.6 83.65 -38.63671875 89.4166015625 -38.75 100.85 -38.6345703125 108.130859375 -37.75 113.95 -37.4904296875 118.039453125 -34 123.95 -25.8181640625 137.18125 -5.45 138.35 5.7357421875 137.4982421875 11.6 134.75 23.1158203125 129.4537109375 29.1 114.9 34.792578125 100.50546875 37.4 92.15 38.1509765625 89.86015625 38.8 87.6 39.1669921875 86.3625 39.5 85.1 42.6091796875 73.66640625 43.5 64.05
L 43.55 64.1
Q 43.6865234375 62.7994140625 43.75 61.5
L 43.75 61.5
Q 43.880859375 59.7697265625 43.9 58.1 44.1189453125 48.4568359375 42.75 41.25
M 24.65 5.85
Q 26.3982421875 8.368359375 27.85 10.75 29.92265625 14.1615234375 31.45 17.35 36.16796875 26.3228515625 38.75 36 39.3556640625 38.4736328125 39.75 40.95 41.1970703125 49.0263671875 40.95 57.4 35.421484375 49.8076171875 30.45 47 19.9435546875 40.9845703125 11.9 55.5 11.891796875 55.5283203125 11.85 55.55 11.842578125 55.62421875 11.8 55.7 11.7546875 55.90546875 11.8 56.1 11.8443359375 56.2046875 11.85 56.25 11.9876953125 56.47734375 12.2 56.6 12.261328125 56.6322265625 12.3 56.65 12.5423828125 56.7205078125 12.75 56.65 12.8544921875 56.6302734375 12.9 56.6 19.4037109375 53.2896484375 26.45 62.75 31.575390625 69.6232421875 36.9 82.8 34.8513671875 90.7919921875 31.75 99.35 29.6083984375 105.36796875 27.5 110.85 18.82109375 134.8279296875 -7.15 135.1 -32.2953125 132.5134765625 -35 110.75 -35.9619140625 102.7984375 -35.8 94.45 -35.5828125 82.98515625 -35.8 78.25 -36.126953125 69.2625 -37.85 62.25 -41.3560546875 47.84921875 -49.45 36.5 -55.4498046875 28.091796875 -29.9 5.5 -3.6947265625 -20.2474609375 12.7 -7.65 19.4576171875 -1.6259765625 24.65 5.85
M 40.3 65.55
Q 39.4314453125 72.63671875 37.55 80.25 32.5326171875 68.283984375 27.7 61.85 20.8619140625 52.6544921875 14.35 54.35 21.1521484375 43.6328125 29.7 48.35 34.937109375 51.355078125 40.85 59.9
L 40.85 59.9
Q 40.675 62.7390625 40.3 65.55 Z"/>

<path fill="#F4B6D1" stroke="none" d="
M 37.55 80.25
Q 39.4314453125 72.63671875 40.3 65.55 40.675 62.7390625 40.85 59.9
L 40.85 59.9
Q 34.937109375 51.355078125 29.7 48.35 21.1521484375 43.6328125 14.35 54.35 20.8619140625 52.6544921875 27.7 61.85 32.5326171875 68.283984375 37.55 80.25
M 27.85 10.75
Q 26.3982421875 8.368359375 24.65 5.85 19.4576171875 -1.6259765625 12.7 -7.65 -3.6947265625 -20.2474609375 -29.9 5.5 -55.4498046875 28.091796875 -49.45 36.5 -41.3560546875 47.84921875 -37.85 62.25 -36.126953125 69.2625 -35.8 78.25 -35.5828125 82.98515625 -35.8 94.45 -35.9619140625 102.7984375 -35 110.75 -32.2953125 132.5134765625 -7.15 135.1 18.82109375 134.8279296875 27.5 110.85 29.6083984375 105.36796875 31.75 99.35 34.8513671875 90.7919921875 36.9 82.8 31.575390625 69.6232421875 26.45 62.75 19.4037109375 53.2896484375 12.9 56.6 12.8544921875 56.6302734375 12.75 56.65 12.5423828125 56.7205078125 12.3 56.65 12.261328125 56.6322265625 12.2 56.6 11.9876953125 56.47734375 11.85 56.25 11.8443359375 56.2046875 11.8 56.1 11.7546875 55.90546875 11.8 55.7 11.842578125 55.62421875 11.85 55.55 11.891796875 55.5283203125 11.9 55.5 19.9435546875 40.9845703125 30.45 47 35.421484375 49.8076171875 40.95 57.4 41.1970703125 49.0263671875 39.75 40.95 39.3556640625 38.4736328125 38.75 36 36.16796875 26.3228515625 31.45 17.35 29.92265625 14.1615234375 27.85 10.75 Z"/>
</g>

<g id="FS_Mane_02_6_Layer0_0_FILL">
<path fill="#F4B6D1" stroke="none" d="
M 14.95 43.7
Q 16.1619140625 39.583984375 21.9 26.7 26.228125 17.139453125 30.75 5.25
L -31.95 5.25
Q -30.7103515625 15.451171875 -27.6 25 -25.8326171875 30.4224609375 -21.95 41.05 -18.601171875 50.609375 -17.2 57.35 -14.5216796875 69.8390625 -19.2 76.65 -21.637890625 80.2623046875 -26.1 80.85 -28.982421875 81.2685546875 -32.1 80.4 -33.510546875 79.7591796875 -34.25 81.65 -35.104296875 85.0013671875 -32.05 87.15 -29.26875 88.779296875 -25.45 89.15 -23.337890625 88.4267578125 -21.5 87.25 -13.805078125 82.391796875 -10.25 69.1 -7.4888671875 59.1630859375 -7.2 45.1 -7.3712890625 28.8091796875 -7.4 20.8 -7.375390625 20.7607421875 -7.4 20.7 -5.8705078125 30.69375 -5.75 47.85 -6.3033203125 63.3400390625 -10.15 74.05 -14.2025390625 85.3087890625 -22.9 89.25 -22.926171875 89.287109375 -22.95 89.3 -22.4560546875 89.29765625 -21.95 89.25 -12.5291015625 88.8474609375 -4.8 82.05 4.50078125 73.9205078125 10.7 57.05 12.69609375 51.8103515625 14.95 43.7 Z"/>

<path fill="#E781B3" stroke="none" d="
M 32.15 9.75
Q 33.428125 6.1599609375 30.75 5.25 26.228125 17.139453125 21.9 26.7 16.1619140625 39.583984375 14.95 43.7 12.69609375 51.8103515625 10.7 57.05 4.50078125 73.9205078125 -4.8 82.05 -12.5291015625 88.8474609375 -21.95 89.25 -22.4560546875 89.29765625 -22.95 89.3 -22.926171875 89.287109375 -22.9 89.25 -14.2025390625 85.3087890625 -10.15 74.05 -6.3033203125 63.3400390625 -5.75 47.85 -5.8705078125 30.69375 -7.4 20.7 -7.375390625 20.7607421875 -7.4 20.8 -7.3712890625 28.8091796875 -7.2 45.1 -7.4888671875 59.1630859375 -10.25 69.1 -13.805078125 82.391796875 -21.5 87.25 -23.337890625 88.4267578125 -25.45 89.15 -29.26875 88.779296875 -32.05 87.15 -35.104296875 85.0013671875 -34.25 81.65 -33.510546875 79.7591796875 -32.1 80.4 -28.982421875 81.2685546875 -26.1 80.85 -21.637890625 80.2623046875 -19.2 76.65 -14.5216796875 69.8390625 -17.2 57.35 -18.601171875 50.609375 -21.95 41.05 -25.8326171875 30.4224609375 -27.6 25 -30.7103515625 15.451171875 -31.95 5.25 -35.2314453125 5.79296875 -34.35 10.4 -34.124609375 11.5845703125 -33.9 12.7 -31.3814453125 23.8486328125 -23.35 45.15 -20.61953125 53.65546875 -19.85 58.2 -18.56953125 65.7728515625 -20.25 71.5 -22.3666015625 78.6099609375 -27.2 79.35 -29.8626953125 79.776171875 -32.2 78.95 -35.3505859375 77.7150390625 -35.8 81.55 -36.6486328125 84.8291015625 -33.25 88.15 -27.2744140625 91.2470703125 -20.25 90.95 -9.41171875 90.49453125 -1.2 82.4 6.661328125 74.811328125 11.55 63.25 13.27421875 59.228515625 15.55 51.85 18.040234375 43.771484375 19.3 40.45 27.0755859375 22.3890625 30.75 13.2 31.4814453125 11.462890625 32.15 9.75 Z"/>
</g>

<g id="FS_Mane_03_6_Layer0_0_FILL">
<path fill="#F4B6D1" stroke="none" d="
M -3.85 -4.5
Q -7.7412109375 -6.130859375 -9.35 -9.85 -10.696875 -12.8255859375 -10.2 -16.25 -12.32734375 -13.48671875 -11.35 -9.2 -10.47109375 -5.4375 -7.9 -2.2 -5.108203125 1.3296875 -1.5 3.15 2.7447265625 1.5392578125 0.35 -3.35 -2.6482421875 -3.9771484375 -3.85 -4.5 Z"/>

<path fill="#E781B3" stroke="none" d="
M -6.35 -19.15
Q -6.1607421875 -19.47421875 -6 -19.85 -5.4234375 -20.829296875 -4.75 -21.65
L -4.8 -21.65
Q -10.565625 -20.77421875 -13.2 -17.05 -15.7025390625 -13.44609375 -14 -8.2 -12.4681640625 -3.5953125 -9 -0.4 -6.253515625 2.156640625 -3.25 3.8 -1.63125 4.23125 -1.5 3.15 -5.108203125 1.3296875 -7.9 -2.2 -10.47109375 -5.4375 -11.35 -9.2 -12.32734375 -13.48671875 -10.2 -16.25 -10.696875 -12.8255859375 -9.35 -9.85 -7.7412109375 -6.130859375 -3.85 -4.5 -2.6482421875 -3.9771484375 0.35 -3.35 0.42265625 -4.0828125 -2.75 -5.6
L -2.75 -5.6
Q -2.7478515625 -5.6109375 -2.8 -5.65 -5.73046875 -7.1673828125 -6.75 -10.35 -8.2234375 -14.9365234375 -6.35 -19.15 Z"/>
</g>

<g id="FS_Tail_21_Layer2_0_FILL">
<path fill="#F4B6D1" stroke="none" d="
M 90.8 -28.5
Q 31.763671875 -38.2013671875 2.45 -5.05
L 8.2 3.2
Q 20.39140625 1.744140625 24.4 1.7 28.55 1.65 32.7 1.9 36.45 2.15 40.15 2.75 43.5 3.3 46.6 4.25 50.35 5.35 53.85 7.2 56.35 8.45 58.4 10.2 60.45 11.9 61.9 13.8 63.35 15.7 64.45 18.05 65.2 19.6 65.75 21.25 66.3 22.9 66.6 24.6 66.95 26.45 67.15 28.3 67.25 29.35 67.3 30.4
L 68.15 30.05
Q 68.25 30.6 68.25 31.2 68.35 35.95 67.85 40.45 67.5 43.45 66.3 46.15 63.95 51.45 61.15 56.4 58.35 61.3 55.35 66.25 52.45 71 49.45 75.6 46.85 79.5 44.2 83.4 41.2 87.7 38.35 92 35.25 96.65 31.8 101.25 28.35 106 25.35 111.15 22.65 115.75 20.8 120.75 19.2 125.15 18.35 129.95 17.5 134.45 17.9 138.9 18.4 144.9 20.7 150.3 22.5 154.6 25.15 158.45 28.05 162.75 31.75 166.4 34.9576171875 169.5283203125 38.55 172.35 79.3494140625 195.3005859375 129.2 157.3 161.56328125 118.441796875 113.25 102.1 123.130859375 131.0759765625 102.2 148.4 72.9392578125 158.8052734375 68.2 134.85 68.0609375 119.572265625 101.6 89.75 135.13125 59.9791015625 135.05 39.1 137.1447265625 -15.0009765625 90.8 -28.5 Z"/>
</g>

<g id="FS_FrontLeg_3_4_hoof_0_Layer0_0_FILL">
<path fill="#EBD463" stroke="none" d="
M 14.95 -14.95
Q 8.7541015625 -20.8443359375 0.05 -20.15 -8.81640625 -19.5484375 -12.8 -14.35 -16.526953125 -9.5060546875 -19.15 -4.25 -21.7119140625 0.947265625 -24.6 7.3
L -24.55 7.3
Q -26.32890625 11.167578125 -25.4 13.5 -24.5373046875 16.1365234375 -20.8 17
L -20.8 17
Q -15.0755859375 18.309765625 -1 18.05 13.7875 17.7890625 17.25 13.7
L 17.25 13.7
Q 20.8900390625 9.7828125 21.05 0.3 21.2107421875 -9.126171875 14.95 -14.95
M 0.25 -17.15
L 0.25 -17.15
Q 7.6546875 -17.7474609375 12.9 -12.75 18.1890625 -7.7734375 18.05 0.25 17.9103515625 8.2857421875 15.05 11.65
L 15 11.7
Q 11.8634765625 14.81171875 -1.05 15.05 -14.6240234375 15.2900390625 -20.15 14.05
L -20.15 14.1
Q -22.016015625 13.6626953125 -22.55 12.5 -22.959375 11.0341796875 -21.85 8.55 -18.9880859375 2.2525390625 -16.45 -2.9 -13.9732421875 -7.894140625 -10.45 -12.5 -7.0837890625 -16.6517578125 0.25 -17.15 Z"/>

<path fill="#FDF6AE" stroke="none" d="
M 0.25 -17.15
L 0.25 -17.15
Q -7.0837890625 -16.6517578125 -10.45 -12.5 -13.9732421875 -7.894140625 -16.45 -2.9 -18.9880859375 2.2525390625 -21.85 8.55 -22.959375 11.0341796875 -22.55 12.5 -22.016015625 13.6626953125 -20.15 14.1
L -20.15 14.05
Q -14.6240234375 15.2900390625 -1.05 15.05 11.8634765625 14.81171875 15 11.7
L 15.05 11.65
Q 17.9103515625 8.2857421875 18.05 0.25 18.1890625 -7.7734375 12.9 -12.75 7.6546875 -17.7474609375 0.25 -17.15 Z"/>
</g>

<g id="FS_FrontLeg_3_4_upper_2_Layer1_0_FILL">
<path fill="#EBD463" stroke="none" d="
M -17.3 82.35
L -14.2 82.9
Q -3.4103515625 50.004296875 -7.15 -2.5 -9.971484375 0.565234375 -9.25 14.7 -7.92421875 54.5646484375 -17.3 82.35
M 18.4 19.05
Q 12.98984375 3.2484375 9.05 0.4 26.109765625 43.7232421875 19.95 89.45
L 19.95 89.5
Q 21.0232421875 91.8462890625 22.9 89.9
L 22.9 89.9
Q 27.77265625 53.83984375 18.4 19.05 Z"/>

<path fill="#FDF6AE" stroke="none" d="
M 9.05 0.4
L 9.05 0.35
Q 0.58515625 -2.4958984375 -7.15 -2.5 -3.4103515625 50.004296875 -14.2 82.9
L -13.1 84.35 19.95 89.45
Q 26.109765625 43.7232421875 9.05 0.4 Z"/>
</g>

<g id="FS_FrontLeg_3_4_hoof_5_Layer0_0_FILL">
<path fill="#FDF6AE" stroke="none" d="
M -12.25 -12.15
Q -15.8 -7.7 -18.1 -3.25 -20.4 1.2 -22.55 7.9 -24.7 14.6 -18.85 17.05 -13.05 19.5 -1 18.7 11.1 17.9 14.15 13.7 17.2 9.5 17.4 1.2 17.6 -7.15 12.2 -12.35 6.75 -17.55 -0.95 -17.05 -8.7 -16.6 -12.25 -12.15 Z"/>
</g>

<g id="FS_KneePatch_2_Layer0_0_FILL">
<path fill="#EBD463" stroke="none" d="
M 0.25 -27.8
L 0.2 -27.8
Q -5.8083984375 -29.447265625 -11.2 -26 -16.50078125 -22.5494140625 -18.1 -16.15 -19.4751953125 -10.2185546875 -17.05 -5.05
L -17 -5
Q -16.9865234375 -4.97578125 -17 -4.95
L -16.95 -4.9
Q -10.8248046875 6.4275390625 -8.05 17.15
L -8.1 17.15 -8.05 17.2
Q -8.0775390625 17.49453125 -8 17.75 -7.7880859375 18.413671875 -5.85 21.6 -3.863671875 24.8244140625 1.05 26.15 5.9177734375 27.444921875 10.2 25.25 14.5810546875 23.012890625 15.8 18.55
L 15.8 18.5
Q 16.9775390625 14.0072265625 14.3 9.85
L 14.25 9.85
Q 13.090234375 8.0783203125 11.4 6.35
L 11.35 6.25 11.35 6.25
Q 6.5607421875 1.2896484375 7.95 -1.2 10.454296875 -4.6970703125 10.95 -6.05
L 10.95 -6.1
Q 11.50546875 -7.4853515625 11.8 -8.7
L 11.85 -8.75
Q 13.3412109375 -15.2044921875 9.75 -20.75
L 9.75 -20.75
Q 6.194921875 -26.25390625 0.25 -27.8
M 7.25 -19.1
L 7.25 -19.15 7.3 -19.1 7.25 -19.1 Z"/>
</g>

<g id="FS_HindLeg_3_4rear_lower_1_Layer1_0_FILL">
<path fill="#FDF6AE" stroke="none" d="
M 11.5 -5.15
Q 1.85 -8.45 -5.65 -3.6 -13.1 2.15 -8.9 12.2 -5.2 19.7 7.6 6.9 17 -1.4 11.5 -5.15 Z"/>
</g>

<g id="FS_HindLeg_3_4rear_lower_1_Layer0_0_FILL">
<path fill="#FDF6AE" stroke="none" d="
M -10.35 6.85
Q -8.9 34.95 -9.55 62.15 7.85 57.7 26.2 53.5 21.45 27.7 13.4 -2.95 1.7 1.95 -10.35 6.85 Z"/>
</g>

<g id="FS_HindLeg_3_4_top_1_Layer0_0_FILL">
<path fill="#EBD463" stroke="none" d="
M 4 71.2
L 4 71.2
Q -21.2830078125 68.723828125 -34.85 31.6 -33.9126953125 47.215234375 -21.95 60.3 -9.9767578125 73.4564453125 4 71.2
L 4 71.2
M 0.85 -2.2
L 0.85 -2.25
Q -2.491015625 -3.2591796875 -0.95 0.05 2.7732421875 2.036328125 6.1 7 7.615234375 9.2787109375 8.65 12.35 9.415234375 14.4603515625 10.3 18.25 11.435546875 22.811328125 11.5 28.05 11.5900390625 35.0541015625 9 43.6 6.4283203125 52.1580078125 5.15 55.95 3.89921875 59.748046875 4.6 65.65 5.1115234375 69.5484375 4.05 71.15 4.780078125 70.475 5.2 69.45 5.285546875 69.22265625 5.35 68.95 5.7310546875 67.894140625 5.8 64.2 5.854296875 60.545703125 7.3 56.35 8.8095703125 52.1701171875 11.45 43.95 14.0810546875 35.7177734375 14.35 29.1 14.6220703125 22.4833984375 13.4 17.35 11.5509765625 9.734765625 8.4 5.2 4.976171875 0.173046875 0.85 -2.2 Z"/>

<path fill="#FDF6AE" stroke="none" d="
M 9 43.6
Q 11.5900390625 35.0541015625 11.5 28.05 11.435546875 22.811328125 10.3 18.25 9.415234375 14.4603515625 8.65 12.35 7.615234375 9.2787109375 6.1 7 2.7732421875 2.036328125 -0.95 0.05
L -34.85 31.6
Q -21.2830078125 68.723828125 4 71.2
L 4 71.2 4.05 71.2
Q 4.0642578125 71.203515625 4.05 71.15 5.1115234375 69.5484375 4.6 65.65 3.89921875 59.748046875 5.15 55.95 6.4283203125 52.1580078125 9 43.6 Z"/>
</g>

<g id="FS_KneePatch_3_Layer0_0_FILL">
<path fill="#FDF6AE" stroke="none" d="
M 7.55 -19.2
L 7.55 -19.15
Q 4.64140625 -23.669921875 -0.25 -24.95
L -0.3 -24.95
Q -5.0291015625 -26.2638671875 -9.3 -23.55 -13.591015625 -20.7333984375 -14.85 -15.5
L -14.85 -15.5
Q -16.0048828125 -10.6484375 -14.05 -6.4 -14.00078125 -6.3744140625 -14 -6.35 -7.6837890625 5.3048828125 -4.85 16.4
L -4.85 16.45
Q -4.806640625 16.5302734375 -4.8 16.65 -4.7177734375 16.80625 -4.7 16.95 -4.6609375 17.0494140625 -4.65 17.1 -4.31328125 18.1208984375 -3.7 19.1 -1.664453125 22.21015625 2.1 23.2 5.8501953125 24.2189453125 9.1 22.55 12.2861328125 20.9251953125 13.2 17.7
L 13.2 17.65
Q 14.018359375 14.44921875 12.1 11.45
L 12.1 11.45
Q 11.0275390625 9.87109375 9.5 8.3
L 9.5 8.25 9.45 8.2
Q 2.5619140625 1.0767578125 5.8 -2.95 7.969140625 -6.0158203125 8.45 -7.2
L 8.45 -7.25
Q 8.93828125 -8.43203125 9.2 -9.5
L 9.2 -9.55
Q 10.4259765625 -14.724609375 7.55 -19.2 Z"/>
</g>

<g id="FS_Torso_2_Layer1_0_FILL">
<path fill="#EBD564" stroke="none" d="
M 29.8 -35.85
L 29.8 -35.85
Q 21.915625 -36.7013671875 13.25 -33.2
L 13.2 -33.2
Q 8.2126953125 -31.11171875 0.95 -27.2
L 0.95 -27.15
Q -3.186328125 -24.856640625 -7.65 -23.75 -11.25078125 -23.3837890625 -13.5 -23.3
L -13.55 -23.3
Q -19.9138671875 -23.0044921875 -29.2 -23.5 -39.0865234375 -24.0814453125 -45.55 -19.65
L -45.55 -19.65
Q -52.0306640625 -15.2380859375 -55.85 -4.1 -57.2140625 2.0076171875 -56.65 5.9 -56.088671875 9.8 -52.7 15.9 -49.25390625 22 -41.6 27 -33.4 32.35 -24.1 34.2 -13.65 36.3 -1.85 36.3 7.17890625 36.3328125 15.7 35.1 24.8701171875 34.2482421875 31.55 31.6
L 31.6 31.6
Q 35.9 29.8 37.2 29.15 40.3 27.55 42.7 25.3 49.35 18.9 52.35 11.2 55.45 3.35 55.05 -6.55 54.8943359375 -10.3966796875 54.05 -13.4
L 54.05 -13.4
Q 53.482421875 -15.5984375 51.85 -19.45
L 51.9 -19.45
Q 50.66328125 -22.4138671875 48.6 -25 47.2705078125 -26.70546875 45 -28.8 38.4587890625 -34.896484375 29.8 -35.85
M 14.35 -30.45
L 14.35 -30.4
Q 22.2818359375 -33.5921875 29.45 -32.85 37.141015625 -32.0037109375 42.95 -26.6 45.0294921875 -24.69453125 46.25 -23.15 48.0490234375 -20.886328125 49.1 -18.3 50.617578125 -14.7015625 51.15 -12.65
L 51.15 -12.6
Q 51.9056640625 -9.903515625 52.05 -6.45 52.4 2.75 49.55 10.05 46.75 17.2 40.6 23.15
L 40.65 23.15 40.6 23.15
Q 38.433203125 25.20859375 35.6 26.65 34.65 27.1 30.45 28.8 28.26796875 29.67890625 25.55 30.35
L 25.55 30.35 24.95 30.4 24.85 30.4 24.1 30.5
Q 16.6181640625 31.8421875 9.2 32.45 3.6609375 32.9357421875 -1.85 33 -14 33.1 -23.5 31.25 -32.0958984375 29.5478515625 -39.7 24.75 -47.259375 19.9583984375 -50.6 13.85 -53.944140625 7.7376953125 -54.05 4.7 -54.1501953125 1.70859375 -53 -3.1
L -53 -3.15
Q -49.5736328125 -13.1494140625 -43.9 -17.2
L -43.85 -17.2 -43.85 -17.15
Q -38.1216796875 -21.0130859375 -29.35 -20.5
L -29.35 -20.5
Q -19.904296875 -19.9966796875 -13.4 -20.3 -12.0693359375 -20.34453125 -10.3 -20.5 -10.1337890625 -20.487890625 -10 -20.5 -8.7044921875 -20.607421875 -7.25 -20.75 -2.219140625 -21.9560546875 2.4 -24.55 9.469140625 -28.378515625 14.35 -30.45
L 14.35 -30.45 Z"/>

<path fill="#F4B6D1" stroke="none" d="
M -43.85 -17.15
L -43.85 -17.2 -43.9 -17.2 -43.85 -17.15
M 40.6 23.15
L 40.65 23.15 40.6 23.15 40.6 23.15
M 14.35 -30.45
L 14.35 -30.45 14.35 -30.4 14.35 -30.45
M 1.6 -22
Q 1.526171875 -22.0263671875 1.45 -22.1
L 1.45 -21.8 1.6 -22 Z"/>

<path fill="#FDF6AE" stroke="none" d="
M 14.35 -30.4
L 14.35 -30.4 14.35 -30.45
Q 9.469140625 -28.378515625 2.4 -24.55 -2.219140625 -21.9560546875 -7.25 -20.75 -8.7044921875 -20.607421875 -10 -20.5 -10.1337890625 -20.487890625 -10.3 -20.5 -12.0693359375 -20.34453125 -13.4 -20.3 -19.904296875 -19.9966796875 -29.35 -20.5
L -29.35 -20.5
Q -38.1216796875 -21.0130859375 -43.85 -17.15
L -43.9 -17.2
Q -49.5736328125 -13.1494140625 -53 -3.15
L -53 -3.1
Q -54.1501953125 1.70859375 -54.05 4.7 -53.944140625 7.7376953125 -50.6 13.85 -47.259375 19.9583984375 -39.7 24.75 -32.0958984375 29.5478515625 -23.5 31.25 -14 33.1 -1.85 33 3.6609375 32.9357421875 9.2 32.45 16.6181640625 31.8421875 24.1 30.5
L 24.85 30.4 24.95 30.4 25.55 30.35 25.55 30.35
Q 28.26796875 29.67890625 30.45 28.8 34.65 27.1 35.6 26.65 38.433203125 25.20859375 40.6 23.15
L 40.6 23.15
Q 46.75 17.2 49.55 10.05 52.4 2.75 52.05 -6.45 51.9056640625 -9.903515625 51.15 -12.6
L 51.15 -12.65
Q 50.617578125 -14.7015625 49.1 -18.3 48.0490234375 -20.886328125 46.25 -23.15 45.0294921875 -24.69453125 42.95 -26.6 37.141015625 -32.0037109375 29.45 -32.85 22.2818359375 -33.5921875 14.35 -30.4
M 1.45 -22.1
Q 1.526171875 -22.0263671875 1.6 -22
L 1.45 -21.8 1.45 -22.1 Z"/>

<path fill="#E781B3" stroke="none" d="
M 14.35 -30.4
L 14.35 -30.4 14.35 -30.45 14.35 -30.4 Z"/>
</g>

<g id="FS_FrontLeg_3_4_hoof_4_Layer0_0_FILL">
<path fill="#F26F31" stroke="none" d="
M -13.4 -12.85
L -13.4 -12.85 -13.4 -12.85 -13.4 -12.85 Z"/>

<path fill="#EBD463" stroke="none" d="
M -1.15 -18.45
L -1.2 -18.45
Q -9.624609375 -17.8423828125 -13.4 -12.85
L -13.4 -12.85
Q -16.978515625 -8.244140625 -19.45 -3.2
L -19.45 -3.25
Q -21.8619140625 1.6474609375 -24.65 7.7 -26.3091796875 11.4185546875 -25.4 13.65 -24.5841796875 16.204296875 -21 17 -15.576171875 18.259765625 -2.15 18.05 12.0072265625 17.7810546875 15.25 13.85 18.7416015625 10.1349609375 18.9 1.1 19.00546875 -7.925390625 13.05 -13.5 7.154296875 -19.091015625 -1.15 -18.45
M -0.95 -15.45
L -0.95 -15.45
Q 6.0544921875 -16.0005859375 11 -11.3 15.99453125 -6.574609375 15.9 1.05 15.7583984375 8.665625 13 11.85 10.0958984375 14.81875 -2.2 15.05 -15.123828125 15.2400390625 -20.35 14.05 -22.069140625 13.694921875 -22.6 12.65 -22.9419921875 11.2833984375 -21.9 8.95 -19.13828125 2.9525390625 -16.75 -1.9
L -16.75 -1.9
Q -14.421484375 -6.655859375 -11.05 -11
L -11 -11
Q -7.869921875 -14.9509765625 -0.95 -15.45 Z"/>

<path fill="#FDF6AE" stroke="none" d="
M -0.95 -15.45
L -0.95 -15.45
Q -7.869921875 -14.9509765625 -11 -11
L -11.05 -11
Q -14.421484375 -6.655859375 -16.75 -1.9
L -16.75 -1.9
Q -19.13828125 2.9525390625 -21.9 8.95 -22.9419921875 11.2833984375 -22.6 12.65 -22.069140625 13.694921875 -20.35 14.05 -15.123828125 15.2400390625 -2.2 15.05 10.0958984375 14.81875 13 11.85 15.7583984375 8.665625 15.9 1.05 15.99453125 -6.574609375 11 -11.3 6.0544921875 -16.0005859375 -0.95 -15.45 Z"/>
</g>

<g id="FS_HindLeg_3_4rear_lower_0_Layer1_0_FILL">
<path fill="#F26F31" stroke="none" d="
M 8.6 8
Q 8.6333984375 7.9955078125 8.65 7.95
L 8.65 7.95 8.6 8 Z"/>

<path fill="#EBD463" stroke="none" d="
M 12.35 -6.4
Q 12.1732421875 -6.510546875 11.95 -6.6 1.59140625 -10.1181640625 -6.5 -4.85 -6.526171875 -4.8123046875 -6.6 -4.8 -14.9587890625 1.5962890625 -10.3 12.75 -10.2638671875 12.8216796875 -10.25 12.85 -7.8515625 17.784765625 -2.5 16.05 1.90625 14.6984375 8.65 7.95
L 8.65 7.95
Q 13.7076171875 3.494921875 14.7 0.2 16.0470703125 -3.87109375 12.35 -6.4
M 10.75 -3.8
Q 12.4302734375 -2.605078125 11.85 -0.75 10.8990234375 1.983203125 6.6 5.75 6.5771484375 5.8119140625 6.55 5.85 0.493359375 11.901953125 -3.4 13.2 -6.248828125 14.115234375 -7.55 11.5
L -7.55 11.6
Q -7.5458984375 11.575 -7.6 11.5 -11.2048828125 2.68671875 -4.75 -2.4
L -4.85 -2.35
Q 2.0138671875 -6.721484375 10.75 -3.8 Z"/>

<path fill="#FCBA63" stroke="none" d="
M -7.55 11.5
L -7.6 11.5
Q -7.5458984375 11.575 -7.55 11.6
L -7.55 11.5 Z"/>

<path fill="#FDF6AE" stroke="none" d="
M 11.85 -0.75
Q 12.4302734375 -2.605078125 10.75 -3.8 2.0138671875 -6.721484375 -4.85 -2.35
L -4.75 -2.4
Q -11.2048828125 2.68671875 -7.6 11.5
L -7.55 11.5
Q -6.248828125 14.115234375 -3.4 13.2 0.493359375 11.901953125 6.55 5.85 6.5771484375 5.8119140625 6.6 5.75 10.8990234375 1.983203125 11.85 -0.75 Z"/>
</g>

<g id="FS_HindLeg_3_4rear_lower_0_Layer0_0_FILL">
<path fill="#EBD463" stroke="none" d="
M -8.05 10.15
L -8.2 9.7 -8.45 8.7 -11.35 9.5 -10.95 10.95
Q -3.5580078125 37.8861328125 -11.7 64.6 -11.7875 65.0125 -11.9 65.4
L -8.85 65.4
Q -0.5115234375 37.662109375 -8.05 10.15
M 11.65 -2.95
Q 11.686328125 -2.8736328125 11.7 -2.8 26.2828125 27.8509765625 24.65 64.3
L 27.6 64.1
Q 29.3125 27.137109375 14.35 -4.25
L 14.2 -4.5 11 -4.3 11.65 -2.95 Z"/>

<path fill="#FDF6AE" stroke="none" d="
M 24.65 64.3
Q 26.2828125 27.8509765625 11.7 -2.8
L -8.2 9.7 -8.05 10.15
Q -0.5115234375 37.662109375 -8.85 65.4
L 24.65 64.3 Z"/>
</g>

<g id="FS_CutieMark_0_Layer0_0_FILL">
<path fill="#F4B6D1" stroke="none" d="
M 347.3 394.2
Q 347.9 392.1 344.8 393.05 341.6 394 337.3 397.35 337.5 393.65 336.95 390.8 336.1 386.45 333.75 386.6 331.1 386.75 330.9 390.6 330.65 394.4 332.65 395.75 329.95 395.3 327.4 397.05 324.55 398.95 325.3 401.8 326 404.45 329.25 403.95 331 403.65 334.2 402.15 334.4 402.8 335.15 406.3 336.35 409.35 339 408.7 341.9 408 341.65 404.25 341.4 400.75 339.65 399.9 341.85 399.65 344.2 397.95 346.7 396.15 347.3 394.2 Z"/>
</g>

<g id="FS_CutieMark_0_Layer0_1_FILL">
<path fill="#6CC9C6" stroke="none" d="
M 339.8 387.75
L 339.65 387.5
Q 339.3 387.05 338.85 387.05 338.5 387 338.1 387.3 337.7 387.6 337.65 388.2 337.55 388.8 337.95 389.25
L 338.1 389.35 338.5 389 338.4 388.9
Q 338.15 388.6 338.2 388.25 338.2 387.9 338.45 387.75 338.8 387.4 339.2 387.85
L 339.35 388.05
Q 339.8 388.8 339.15 391.45 338.5 393.55 337.95 394.6
L 338.1 394.65
Q 336.5 396.2 333.5 403.45 335.15 402.1 337.2 399 339.25 395.85 339.2 394.7 339.55 394 340.45 392.9 341.55 391.45 342.45 390.7 343.25 390 343.9 389.9 344.45 389.9 344.55 390.1 344.7 390.25 344.65 390.55 344.6 390.8 344.4 391 344.05 391.3 343.6 391.15
L 343.5 391.7
Q 344.2 391.85 344.75 391.4 345.15 391.1 345.2 390.6 345.3 390.1 345 389.75 344.6 389.35 343.9 389.35 343.1 389.4 342.1 390.25 340.4 391.75 338.8 394.25
L 338.7 394.25
Q 339.35 392.9 339.65 391.6 340.45 388.8 339.8 387.75 Z"/>
</g>

<g id="FS_CutieMark_0_Layer0_2_FILL">
<path fill="#F4B6D1" stroke="none" d="
M 189.05 168
Q 188.55 165.15 187.1 163.9 185.55 162.5 185.1 165.55 184.6 168.65 185.75 173.65 182.7 172 180.1 171.35 176.05 170.35 175.2 172.4 174.25 174.7 177.45 176.45 180.6 178.15 182.55 177 181.05 179.1 181.55 182 182.05 185.2 184.75 185.7 187.3 186.15 188.15 183.2 188.65 181.55 188.65 178.2 189.3 178.35 192.55 179.1 195.65 179.3 196.15 176.75 196.75 174 193.45 172.75 190.35 171.55 188.9 172.7 189.55 170.7 189.05 168 Z"/>
</g>

<g id="FS_CutieMark_0_Layer0_3_FILL">
<path fill="#6CC9C6" stroke="none" d="
M 316.95 405.85
Q 316.45 406 316.15 406.65 315.95 407.2 316.2 408.5 316.75 410.65 318.3 412.95
L 318.3 413
Q 317.4 412 316.35 411.15 314.3 409.4 313.15 409.45
L 312.85 409.5
Q 312.4 409.65 312.15 410 311.95 410.35 312.05 410.75 312.2 411.25 312.65 411.5 313.15 411.8 313.7 411.65
L 313.85 411.6 313.65 411.1 313.55 411.15
Q 313.2 411.25 312.9 411.05 312.65 410.9 312.6 410.65 312.5 410.15 313 410.05
L 313.2 410
Q 314.1 409.85 316 411.55 317.05 412.4 318.25 413.8
L 318.35 413.7
Q 319.1 415.9 324.05 421.15 323.5 419.2 321.7 416.25 319.8 413.15 318.8 412.8
L 318.85 412.8
Q 317.25 410.4 316.7 408.4 316.45 407.25 316.65 406.85 316.85 406.45 317.1 406.35 317.55 406.25 317.75 406.85 317.85 407.3 317.6 407.6
L 318 407.9
Q 318.45 407.4 318.25 406.7 318.15 406.25 317.75 406 317.4 405.75 316.95 405.85 Z"/>
</g>

<g id="FS_CutieMark_0_Layer0_4_FILL">
<path fill="#F4B6D1" stroke="none" d="
M 348.4 419.55
Q 350.4 418 350.85 416.4 351.3 414.65 348.75 415.55 346.1 416.4 342.7 419.3 342.7 416.15 342.2 413.95 341.4 410.4 339.45 410.55 337.3 410.75 337.2 413.95 337.1 417.05 338.8 418.1 336.55 417.8 334.5 419.35 332.25 421 332.95 423.3 333.55 425.45 336.2 424.95 337.7 424.7 340.3 423.35 340.5 423.9 341.2 426.75 342.25 429.2 344.45 428.6 346.8 427.9 346.45 424.85 346.15 422 344.7 421.35 346.5 421.05 348.4 419.55 Z"/>
</g>

<g id="FS_CutieMark_0_Layer0_5_FILL">
<path fill="#6CC9C6" stroke="none" d="
M 344.5 411.3
L 344.3 411.1
Q 344.05 410.75 343.65 410.75 343.3 410.75 343.05 411 342.75 411.3 342.7 411.75 342.65 412.2 343 412.6
L 343.1 412.7 343.4 412.35 343.35 412.3
Q 342.9 411.8 343.35 411.35 343.65 411.1 344 411.4
L 344.1 411.55
Q 344.55 412.25 344 414.35 343.6 416.25 343.15 417
L 343.25 417.05
Q 341.95 418.45 339.75 424.45 341.05 423.25 342.65 420.7 344.25 418 344.15 417.05
L 344.2 417.05
Q 344.5 416.5 345.15 415.55 346.05 414.3 346.75 413.65 347.5 413 347.95 413 348.35 412.95 348.45 413.15 348.8 413.5 348.35 413.85 348.15 414.05 347.7 414
L 347.65 414.45
Q 348.2 414.6 348.65 414.2 349.4 413.55 348.8 412.8 348.5 412.5 347.9 412.55 347.2 412.6 346.45 413.3 345 414.7 343.85 416.7
L 343.75 416.75
Q 344 416.2 344.5 414.5 345 412.15 344.5 411.3 Z"/>
</g>

<g id="FS_Neck_1_Layer0_0_FILL">
<path fill="#FDF6AE" stroke="none" d="
M -17.6 -99.9
L -17.65 -99.9
Q -26.683984375 -109.0083984375 -39.8 -109 -52.8892578125 -108.998828125 -62.3 -99.85 -71.801171875 -90.6611328125 -72.05 -77.85 -72.3279296875 -65.053125 -63.25 -55.9
L -63.25 -55.9
Q -62.7607421875 -55.412890625 -62.25 -54.95
L -60.5 -53.45 -60.5 -53.4 -59.15 -51.9
Q -48.75625 -40.150390625 -47.1 -29.25 -47 -27.9 -46.95 -26.5 -46.9 -23.2 -47.45 -19.75 -50.535546875 -0.3146484375 -45.9 16
L -45.9 15.95
Q -39.7232421875 37.46015625 -19.85 44.45
L -18.45 44.95 -18.55 45
Q -7.184375 45.1412109375 -5.55 29.25 -3.9140625 13.4140625 -2.6 -0.1
L -0.25 -0.05
Q -3.05859375 -1.5416015625 -4.1 -3.15 -5.85234375 -5.197265625 -8.1 -25.15 -9.88515625 -40.952734375 -9.5 -62.95 -9.3767578125 -67.9625 -9.2 -73.3 -9.158984375 -73.5244140625 -9.15 -73.75
L -9.15 -81.3 -8.85 -81.3
Q -9.7095703125 -91.998828125 -17.6 -99.9
M -34.6 -47.4
L -34.7 -47.4
Q -34.6310546875 -47.38359375 -34.6 -47.4
L -34.6 -47.4 Z"/>

<path fill="#EBD564" stroke="none" d="
M -34.7 -47.4
L -34.6 -47.4 -34.6 -47.4
Q -34.6310546875 -47.38359375 -34.7 -47.4
M -17.65 -99.9
L -17.6 -99.9
Q -9.7095703125 -91.998828125 -8.85 -81.3
L -9.15 -81.3 -9.15 -73.75
Q -9.158984375 -73.5244140625 -9.2 -73.3 -9.3767578125 -67.9625 -9.5 -62.95 -9.88515625 -40.952734375 -8.1 -25.15 -5.85234375 -5.197265625 -4.1 -3.15 -3.05859375 -1.5416015625 -0.25 -0.05 -1.4 -1.85 -2.25 -4.8 -3.05 -7.45 -5.1 -25.5 -7.2638671875 -44.648828125 -6.2 -72.95 -5.7958984375 -75.3732421875 -5.75 -77.95 -5.492578125 -92.0048828125 -15.5 -102
L -15.5 -102
Q -25.41640625 -111.9916015625 -39.8 -112 -54.110546875 -112.0013671875 -64.4 -102 -74.7986328125 -91.9388671875 -75.05 -77.9 -75.355078125 -64.5958984375 -66.45 -54.9 -65.9 -54.35 -65.35 -53.8 -63.45 -52 -61.7 -50.1 -60.3 -48.55 -58.95 -46.95 -52.171875 -38.4115234375 -50.45 -29.2 -50 -25.35 -50.3 -21.6 -50.35 -20.65 -50.5 -19.7 -53.575 0.1408203125 -48.8 16.8
L -48.8 16.8
Q -42.1767578125 39.8396484375 -20.85 47.3
L -19.45 47.8 -18.55 45 -18.45 44.95 -19.85 44.45
Q -39.7232421875 37.46015625 -45.9 15.95
L -45.9 16
Q -50.535546875 -0.3146484375 -47.45 -19.75 -46.9 -23.2 -46.95 -26.5 -47 -27.9 -47.1 -29.25 -48.75625 -40.150390625 -59.15 -51.9
L -60.5 -53.4 -61.7 -53.4 -60.5 -53.45 -62.25 -54.95
Q -62.7607421875 -55.412890625 -63.25 -55.9
L -63.25 -55.9
Q -72.3279296875 -65.053125 -72.05 -77.85 -71.801171875 -90.6611328125 -62.3 -99.85 -52.8892578125 -108.998828125 -39.8 -109 -26.683984375 -109.0083984375 -17.65 -99.9 Z"/>
</g>

<g id="FS_FrontLeg_3_4_hoof_3_Layer0_0_FILL">
<path fill="#EBD463" stroke="none" d="
M 15 -15
Q 8.7578125 -20.846875 0.05 -20.15 -8.81640625 -19.5484375 -12.8 -14.35 -16.5814453125 -9.49140625 -19.05 -4.4 -21.52109375 0.659765625 -22.7 5.85 -24.2189453125 11.8765625 -17.2 16.3 -10.98671875 20.29375 0.6 20.5 12.60546875 20.6666015625 16.75 15
L 16.8 15
Q 21.170703125 9.355078125 21.2 0.1 21.2337890625 -9.1515625 15 -15
M 0.25 -17.15
L 0.25 -17.15
Q 7.6546875 -17.7474609375 12.9 -12.75 18.1953125 -7.7763671875 18 0.4 17.8419921875 8.58203125 14.15 13.3 10.7654296875 17.6328125 0.65 17.5 -9.913671875 17.30625 -15.6 13.75 -20.5744140625 10.62109375 -19.45 6.25 -18.2724609375 1.884765625 -16.1 -3 -13.9228515625 -7.84453125 -10.5 -12.25 -7.0828125 -16.6515625 0.25 -17.15 Z"/>

<path fill="#FDF6AE" stroke="none" d="
M 0.25 -17.15
L 0.25 -17.15
Q -7.0828125 -16.6515625 -10.5 -12.25 -13.9228515625 -7.84453125 -16.1 -3 -18.2724609375 1.884765625 -19.45 6.25 -20.5744140625 10.62109375 -15.6 13.75 -9.913671875 17.30625 0.65 17.5 10.7654296875 17.6328125 14.15 13.3 17.8419921875 8.58203125 18 0.4 18.1953125 -7.7763671875 12.9 -12.75 7.6546875 -17.7474609375 0.25 -17.15 Z"/>
</g>

<g id="FS_FrontLeg_3_4_upper_0_Layer2_0_FILL">
<path fill="#EBD463" stroke="none" d="
M 22.45 39.15
L 22.45 39.1
Q 22.3919921875 32.875390625 17.9 28.4 13.4109375 23.9001953125 7.2 23.9 0.9369140625 23.9021484375 -3.55 28.4 -8.035546875 32.88046875 -8 39.1
L -8 39.15
Q -8.0373046875 45.3677734375 -3.55 49.85 0.9369140625 54.34765625 7.2 54.35 13.4109375 54.349609375 17.9 49.85 22.3939453125 45.3724609375 22.45 39.15
M 15.8 30.5
Q 19.3900390625 34.1064453125 19.45 39.1
L 19.45 39.15
Q 19.3876953125 44.145703125 15.8 47.75 12.1888671875 51.3501953125 7.2 51.35 2.162890625 51.3521484375 -1.45 47.75 -5.0447265625 44.150390625 -5 39.15
L -5 39.1
Q -5.046875 34.1015625 -1.45 30.5 2.162890625 26.89765625 7.2 26.9 12.1888671875 26.899609375 15.8 30.5 Z"/>

<path fill="#FDF6AE" stroke="none" d="
M 19.45 39.1
Q 19.3900390625 34.1064453125 15.8 30.5 12.1888671875 26.899609375 7.2 26.9 2.162890625 26.89765625 -1.45 30.5 -5.046875 34.1015625 -5 39.1
L -5 39.15
Q -5.0447265625 44.150390625 -1.45 47.75 2.162890625 51.3521484375 7.2 51.35 12.1888671875 51.3501953125 15.8 47.75 19.3876953125 44.145703125 19.45 39.15
L 19.45 39.1 Z"/>
</g>

<g id="FS_FrontLeg_3_4_upper_0_Layer1_0_FILL">
<path fill="#EBD463" stroke="none" d="
M -5 38.75
Q -4.9951171875 38.7123046875 -5 38.65 -2.82578125 16.4015625 -6.95 3.35 -6.62421875 20.90546875 -8 38.5
L -7.85 41.25 -5.15 40.25 -5 38.75
M 9.05 0.4
L 9 0.35 9.15 0.7
Q 20.266796875 24.45078125 19.45 38.65 19.448046875 38.6876953125 19.45 38.7
L 19.5 40.2 22.3 41.2 22.45 38.55
Q 22.542578125 18.4734375 9.2 0.7
L 9.1 0.45 9.05 0.4 Z"/>

<path fill="#FDF6AE" stroke="none" d="
M 9.15 0.7
L 9 0.35
Q 5.78515625 -0.679296875 2.7 -0.55 -2.3787109375 -0.31953125 -7 3.2
L -6.95 3.25
Q -6.948828125 3.3078125 -6.95 3.35 -2.82578125 16.4015625 -5 38.65
L 19.45 38.65
Q 20.266796875 24.45078125 9.15 0.7 Z"/>
</g>

<g id="FS_FrontLeg_3_4_lower_0_Layer2_0_FILL">
<path fill="#FDF6AE" stroke="none" d="
M -12.85 -7.1
Q -20.6220703125 21.835546875 -21.45 45.8
L 15.8 39.85
Q 13.0513671875 20.797265625 14.65 -5.6
L -12.85 -7.1 Z"/>
</g>

<g id="FS_Wing_side_9_Layer4_0_FILL">
<path fill="#FFF8AD" stroke="none" d="
M 21.55 14.75
L 21.55 14.7
Q 21.2142578125 14.1181640625 20.8 13.6
L 20.8 13.6
Q 18.1185546875 10.5724609375 10.35 10.55 10.3005859375 3.5751953125 -0.85 1.7
L -8.45 1.25 -8.5 1.3 -9.2 1.9
Q -15.48515625 8.1115234375 -17.1 16 -18.7552734375 24.0869140625 -14.65 30.5 -7.2 41.795703125 10.15 38.55 22.0693359375 32.926953125 19.25 24.6 23.9587890625 19.2478515625 21.55 14.75
M 22.65 27.4
Q 22.66171875 27.693359375 22.65 27.95 22.58046875 32.1900390625 18.55 36.15 30.1486328125 31.27578125 39.5 16.85 40.3603515625 15.5462890625 41.1 14.25
L 22.65 27.4
M 43.05 10.6
Q 44.6708984375 7.1671875 45.45 4.05 46.0837890625 1.4330078125 45.95 -0.45
L 23.55 12.35
Q 23.8908203125 12.809375 24.15 13.3
L 24.15 13.3
Q 27.62890625 19.3095703125 22.3 25.1 22.478515625 25.676953125 22.55 26.25
L 42.25 12.15
Q 42.69375 11.384765625 43.05 10.6
L 43.05 10.6
M 40.2 -5.35
L 40.2 -5.35
Q 39.5380859375 -5.4392578125 38.8 -5.5
L 12 6.4
Q 12.3978515625 7.1595703125 12.6 8.05 19.8712890625 7.8109375 22.95 11.5
L 45.85 -1.5
Q 45.5666015625 -2.65234375 44.85 -3.35
L 44.8 -3.35
Q 43.229296875 -4.827734375 40.2 -5.35
M 36.5 -5.6
Q 32.940625 -5.5923828125 28.2 -4.75 17.980859375 -2.937109375 6.05 1.95 9.87421875 2.86640625 11.5 5.5
L 36.5 -5.6 Z"/>

<path fill="#EBD463" stroke="none" d="
M 46.9 -5.55
Q 44.7744140625 -7.612109375 40.7 -8.3 35.7517578125 -9.144921875 27.65 -7.75 14.734765625 -5.4265625 -0.85 1.7 10.3005859375 3.5751953125 10.35 10.55 18.1185546875 10.5724609375 20.8 13.6
L 20.8 13.6
Q 21.2142578125 14.1181640625 21.55 14.7
L 21.55 14.75
Q 23.9587890625 19.2478515625 19.25 24.6 22.0693359375 32.926953125 10.15 38.55 -7.2 41.795703125 -14.65 30.5 -18.7552734375 24.0869140625 -17.1 16 -15.48515625 8.1115234375 -9.2 1.9
L -8.5 1.3
Q -18.253515625 6.6705078125 -20.05 15.35
L -20.05 15.4
Q -21.9291015625 24.716796875 -17.15 32.1 -8.7962890625 45.237890625 11 41.45 11.162109375 41.4291015625 11.25 41.35 13.279296875 40.975 15.4 40.4 30.3787109375 36.4216796875 42 18.5 44.2009765625 15.115625 45.75 11.95
L 45.75 11.9
Q 47.5208984375 8.1666015625 48.35 4.75 49.3619140625 0.556640625 48.75 -2.1
L 48.75 -2.1
Q 48.2580078125 -4.2615234375 46.85 -5.55
L 46.9 -5.55
M 28.2 -4.75
Q 32.940625 -5.5923828125 36.5 -5.6
L 11.5 5.5
Q 9.87421875 2.86640625 6.05 1.95 17.980859375 -2.937109375 28.2 -4.75
M 40.2 -5.35
L 40.2 -5.35
Q 43.229296875 -4.827734375 44.8 -3.35
L 44.85 -3.35
Q 45.5666015625 -2.65234375 45.85 -1.5
L 22.95 11.5
Q 19.8712890625 7.8109375 12.6 8.05 12.3978515625 7.1595703125 12 6.4
L 38.8 -5.5
Q 39.5380859375 -5.4392578125 40.2 -5.35
M 45.45 4.05
Q 44.6708984375 7.1671875 43.05 10.6
L 43.05 10.6
Q 42.69375 11.384765625 42.25 12.15
L 22.55 26.25
Q 22.478515625 25.676953125 22.3 25.1 27.62890625 19.3095703125 24.15 13.3
L 24.15 13.3
Q 23.8908203125 12.809375 23.55 12.35
L 45.95 -0.45
Q 46.0837890625 1.4330078125 45.45 4.05
M 22.65 27.95
Q 22.66171875 27.693359375 22.65 27.4
L 41.1 14.25
Q 40.3603515625 15.5462890625 39.5 16.85 30.1486328125 31.27578125 18.55 36.15 22.58046875 32.1900390625 22.65 27.95 Z"/>
</g>

<g id="FS_Mane_01_14_Layer1_0_FILL">
<path fill="#E781B3" stroke="none" d="
M 0.75 -16.45
Q 6.9904296875 -12.6869140625 12.3 -8.05
L 12.3 -10.55
Q 9.6802734375 -12.68125 6.9 -14.6 -5.4021484375 -23.1400390625 -20.05 -26.95 -27.1185546875 -28.8080078125 -34.3 -29.45 -35.3138671875 -29.5279296875 -36.35 -29.6 -42.953125 -30.016015625 -49.65 -29.4 -66.1296875 -27.795703125 -80.25 -21.55 -90.0892578125 -17.1865234375 -93.1 -11.35 -93.2119140625 -11.0765625 -93.35 -10.8 -93.3541015625 -10.7376953125 -93.4 -10.7 -94.728515625 -7.590234375 -94.25 -4.1 -91.3724609375 1.3197265625 -86.1 5.15 -75.7140625 12.75625 -68.55 19
L -65.85 19
Q -68.7103515625 16.496875 -71.9 13.9 -73.9728515625 12.266015625 -83.8 4.8 -88.7701171875 1.0607421875 -91.35 -4.1
L -91.3 -4.1
Q -91.6861328125 -7.6064453125 -90.1 -10.7 -90.0490234375 -10.7376953125 -90.05 -10.8 -89.8822265625 -11.0767578125 -89.75 -11.35 -87.703125 -14.6931640625 -83.25 -17.5 -77.578515625 -21.0298828125 -66.65 -24.2 -49.9322265625 -28.9677734375 -34.7 -27.85 -33.5181640625 -27.7267578125 -32.4 -27.6 -31.2443359375 -27.4921875 -30.15 -27.35 -13.59140625 -25.1111328125 0.75 -16.45
M -74.2 -6.6
Q -72.863671875 -8.8583984375 -70.15 -10.1 -74.5326171875 -9.6875 -77.75 -6.1 -78.2984375 -5.472265625 -78.6 -4.75 -79.94921875 -1.1228515625 -74.35 4.75 -71.70859375 7.4982421875 -67.4 10.85 -63.0908203125 14.1171875 -62.05 14.95 -61.4279296875 15.4259765625 -60.1 15.3 -58.77890625 15.226953125 -59.7 14.5 -68.087890625 7.8455078125 -68.95 7.05 -72.58046875 3.726953125 -73.8 2.2 -76.30078125 -0.9576171875 -75.9 -3.25 -75.7984375 -3.58515625 -75.65 -3.95 -75.4841796875 -4.3435546875 -74.2 -6.6 Z"/>

<path fill="#F4B6D1" stroke="none" d="
M 12.3 -8
L 12.3 -8.05
Q 6.9904296875 -12.6869140625 0.75 -16.45 -13.59140625 -25.1111328125 -30.15 -27.35 -31.2443359375 -27.4921875 -32.4 -27.6 -33.5181640625 -27.7267578125 -34.7 -27.85 -49.9322265625 -28.9677734375 -66.65 -24.2 -77.578515625 -21.0298828125 -83.25 -17.5 -87.703125 -14.6931640625 -89.75 -11.35 -89.8822265625 -11.0767578125 -90.05 -10.8 -90.0490234375 -10.7376953125 -90.1 -10.7 -91.6861328125 -7.6064453125 -91.3 -4.1
L -91.35 -4.1
Q -88.7701171875 1.0607421875 -83.8 4.8 -73.9728515625 12.266015625 -71.9 13.9 -68.7103515625 16.496875 -65.85 19 -12.921875 20.0822265625 12.3 -8
M -70.15 -10.1
Q -72.863671875 -8.8583984375 -74.2 -6.6 -75.4841796875 -4.3435546875 -75.65 -3.95 -75.7984375 -3.58515625 -75.9 -3.25 -76.30078125 -0.9576171875 -73.8 2.2 -72.58046875 3.726953125 -68.95 7.05 -68.087890625 7.8455078125 -59.7 14.5 -58.77890625 15.226953125 -60.1 15.3 -61.4279296875 15.4259765625 -62.05 14.95 -63.0908203125 14.1171875 -67.4 10.85 -71.70859375 7.4982421875 -74.35 4.75 -79.94921875 -1.1228515625 -78.6 -4.75 -78.2984375 -5.472265625 -77.75 -6.1 -74.5326171875 -9.6875 -70.15 -10.1 Z"/>
</g>

<g id="FS_Skull_9_Layer0_0_FILL">
<path fill="#FDF6AE" stroke="none" d="
M 36.95 -33.85
Q 25.890625 -44.9564453125 5.35 -45.05 -4.85 -45.1 -13.1 -42.35 -21.1 -39.7 -28.55 -34.05 -31.85 -31.5 -35.3 -27.95 -40.25 -22.8 -42.85 -11.5 -44.6458984375 -3.5529296875 -44.85 1.85 -45.012890625 7.3087890625 -44.25 14.15 -43.7205078125 18.5232421875 -43.1 21.4 -42.7091796875 23.0419921875 -42.3 24.2 -41.5669921875 26.26640625 -41.3 26.5 -38.796484375 26.38984375 -35 30.85 -34.760546875 31.0935546875 -34.55 31.35 -27.3 41.25 -18.85 45.45 -15.342578125 47.1587890625 -11.05 48.25 -4.28984375 49.967578125 6.1 50.55 7.6087890625 50.638671875 9.5 50.55 19.1060546875 47.5568359375 32.25 36.5 38.3267578125 30.5923828125 40.2 28.15 42.5498046875 25.1298828125 44.05 22.25 45.566015625 19.4197265625 46.3 16.35 52.246484375 -1.18515625 48.1 -15.3 46.64609375 -20.2318359375 44.05 -24.7 41.2005859375 -29.57109375 36.95 -33.85 Z"/>

<path fill="#EBD463" stroke="none" d="
M 5.35 -45.05
Q 25.890625 -44.9564453125 36.95 -33.85 41.2005859375 -29.57109375 44.05 -24.7
L 44.05 -30.2
Q 41.857421875 -33.186328125 39.1 -35.95 27.309765625 -47.94375 5.35 -48.05 -5.4 -48.1 -14.15 -45.2 -22.55 -42.4 -30.35 -36.45 -32.1 -35.1 -37.65 -29 -42.2 -23.95 -45 -14.9 -47.8490234375 -5.702734375 -47.6 4.85 -47.3720703125 14.593359375 -45.85 21.35 -45.6890625 21.9296875 -45.55 22.45 -45.123046875 24.1470703125 -44.65 25.5 -44.567578125 25.761328125 -44.5 26 -42.79765625 26.7697265625 -41.3 26.5 -41.5669921875 26.26640625 -42.3 24.2 -42.7091796875 23.0419921875 -43.1 21.4 -43.7205078125 18.5232421875 -44.25 14.15 -45.012890625 7.3087890625 -44.85 1.85 -44.6458984375 -3.5529296875 -42.85 -11.5 -40.25 -22.8 -35.3 -27.95 -31.85 -31.5 -28.55 -34.05 -21.1 -39.7 -13.1 -42.35 -4.85 -45.1 5.35 -45.05 Z"/>
</g>

<g id="Mask_Mask_FS_EyeWhite_3_4_0_Layer0_0_FILL">
<path fill="#FFFFFF" stroke="none" d="
M 15.3 -16.8
Q 12.05 -25.85 4.7 -27.8 -2.55 -29.75 -9.55 -23.45 -16.6 -17.15 -19.25 -6.25 -21.95 4.7 -18.7 13.75 -15.45 22.8 -8.2 24.8 -0.9 26.75 6.15 20.4 13.2 14.15 15.9 3.2 18.6 -7.7 15.3 -16.8 Z"/>
</g>

<g id="FS_EyeWhite_3_4_0_Layer0_0_FILL">
<path fill="#FFFFFF" stroke="none" d="
M 15.3 -16.8
Q 12.05 -25.85 4.7 -27.8 -2.55 -29.75 -9.55 -23.45 -16.6 -17.15 -19.25 -6.25 -21.95 4.7 -18.7 13.75 -15.45 22.8 -8.2 24.8 -0.9 26.75 6.15 20.4 13.2 14.15 15.9 3.2 18.6 -7.7 15.3 -16.8 Z"/>
</g>

<g id="FS_Iris_0_Layer1_0_FILL">
<path fill="url(#Gradient_1)" stroke="none" d="
M 17.7 -13.05
Q 13.45 -21.1 5.25 -22.95 -3 -24.85 -10.3 -19.4 -17.6 -14 -19.75 -4.45 -20.922265625 0.6119140625 -20 7.1 -19.662109375 8.449609375 -19.2 9.75
L -18.6 11.2
Q -18.1958984375 12.1607421875 -17.7 13.1 -13.45 21.15 -5.2 23 3 24.85 10.3 19.45 17.6 14 19.8 4.5 21.95 -5 17.7 -13.05 Z"/>
</g>

<g id="FS_Iris_0_Layer0_0_FILL">
<path fill="#8AD2D5" stroke="none" d="
M -6.5 8
Q -17.6794921875 11.2681640625 -18.65 11.25 -17.6072265625 14.0123046875 -15.4 16.75
L 0.1 6.75 -6.5 8 Z"/>
</g>

<g id="FS_Iris_0_Layer0_1_FILL">
<path fill="#3DBFBB" stroke="none" d="
M -20.25 5.4
Q -19.7828125 8.4513671875 -18.6 11.3
L 0.4 6.6 -20.25 5.4 Z"/>
</g>

<g id="FS_Pupil_0_Layer0_0_FILL">
<path fill="#000000" stroke="none" d="
M 12.45 -9.9
Q 10.5203125 -16.0232421875 5.5 -17.5 0.487109375 -18.9470703125 -4.7 -14.9 -9.854296875 -10.7671875 -12.15 -3.55 -14.402734375 3.7013671875 -12.5 9.8 -10.484375 16.0318359375 -5.45 17.5 -0.4265625 18.9556640625 4.7 14.8 9.91484375 10.7759765625 12.15 3.55 14.43828125 -3.692578125 12.45 -9.9 Z"/>
</g>

<g id="FS_Hilights_0_Layer1_0_FILL">
<path fill="#FFFFFF" stroke="none" d="
M -8.15 11.5
Q -8.11953125 11.614453125 -8.1 11.7 -8.0240234375 11.8134765625 -7.95 11.95 -7.7912109375 12.381640625 -7.55 12.75 -7.4705078125 12.844140625 -7.4 12.9 -7.2078125 13.113671875 -6.95 13.3 -6.50546875 13.6888671875 -6.05 13.8 -5.996875 13.8515625 -5.95 13.85 -5.6171875 13.9560546875 -5.2 13.95 -3.9484375 13.97890625 -3.4 12.75 -3.3849609375 12.698046875 -3.4 12.65 -3.1736328125 12.1291015625 -3.25 11.35 -3.259765625 11.128515625 -3.35 10.85 -3.3462890625 10.7740234375 -3.4 10.7 -3.7330078125 9.7962890625 -4.4 9.15 -4.435546875 9.108203125 -4.5 9.05 -4.72890625 8.870703125 -4.9 8.75 -5.579296875 8.305859375 -6.3 8.4 -7.123828125 8.352734375 -7.65 8.9 -7.813671875 9.0921875 -8 9.35 -8.0568359375 9.446484375 -8.1 9.55 -8.510546875 10.357421875 -8.15 11.5
M 3.85 -8.7
L 3.8 -8.75
Q 1.3921875 -11.8771484375 -1.15 -11.7 -4.233984375 -11.8736328125 -5.6 -8.2
L -5.6 -8.15
Q -6.528125 -5.45625 -5.75 -1.6 -5.0052734375 2.07265625 -3.05 4.6
L -3.05 4.6
Q -0.6041015625 7.82109375 2 7.65 5.12890625 7.837890625 6.4 4 7.375390625 1.40078125 6.6 -2.4
L 6.6 -2.45
Q 5.8041015625 -6.1376953125 3.85 -8.7 Z"/>
</g>

<g id="FS_Blink_3_4_3_Layer5_0_FILL">
<path fill="#000000" stroke="none" d="
M 3.9 -28.3
Q 2.6283203125 -28.579296875 1.35 -28.7 -4.6439453125 -29.078515625 -10.25 -24.75 -11.7181640625 -23.5576171875 -13 -22.2 -17.4087890625 -17.401953125 -18.9 -10.25 -19.5439453125 -6.9607421875 -19.9 -3.95 -20.534765625 1.5740234375 -20.15 6.3 -20.158203125 1.678125 -18.95 -3.35 -18.7609375 -4.0185546875 -18.6 -4.7 -15.9060546875 -14.323046875 -9.65 -20.2 1.74921875 -30.1068359375 10.75 -21.8 10.882421875 -21.6779296875 11 -21.55 13.90546875 -18.748828125 15.65 -13.95 16.3888671875 -11.873828125 16.8 -9.75 16.4884765625 -14.0923828125 14.85 -18.1 11.35234375 -26.50703125 3.9 -28.3 Z"/>
</g>

<g id="FS_Blink_3_4_3_Layer4_0_FILL">
<path fill="#FDF6AE" stroke="none" d="
M 16.4 -17.65
Q 12.496484375 -27.56875 4.35 -29.75 -3.7302734375 -31.8421875 -11.25 -24.95 -18.7919921875 -17.9697265625 -21.4 -6.05 -23.9580078125 5.993359375 -20.05 15.9 -16.1890625 25.887109375 -8.15 28 0.0255859375 30.1982421875 7.55 23.25 15.1416015625 16.3619140625 17.7 4.3 20.319921875 -7.6388671875 16.4 -17.65 Z"/>
</g>

<g id="FS_Blink_3_4_3_Layer2_0_FILL">
<path fill="#000000" stroke="none" d="
M 10.9 16.15
Q 6.015234375 23.390625 0.25 25.65 -7.4982421875 28.3275390625 -13.35 23.3 -17.98046875 19.555859375 -19.45 12.65 -21.23359375 5.22265625 -19.85 -3.25 -22.2560546875 3.9392578125 -20.85 13 -19.3849609375 22.05078125 -13.35 26.05 -7.3091796875 30.1099609375 -1.05 28.15 5.2533203125 26.1896484375 9.85 20.1 14.447265625 14.0125 15.7 8.7 17.175390625 2.5373046875 16.85 -2.9 15.9384765625 7.728125 10.9 16.15 Z"/>
</g>

<g id="FS_Blink_3_4_3_Layer1_0_FILL">
<path fill="#000000" stroke="none" d="
M 14.75 10.45
L 14.1 12.35 15.1 12.95
Q 21.6 15.7 24.9 10.35 20.75 13.25 15.75 11.05
L 14.75 10.45 Z"/>
</g>

<g id="FS_Blink_3_4_3_Layer1_1_FILL">
<path fill="#000000" stroke="none" d="
M 24.9 17.5
Q 17.15 18.95 13.2 13.75
L 12.25 15.8
Q 18.5 21.95 24.9 17.5 Z"/>
</g>

<g id="FS_Blink_3_4_3_Layer1_2_FILL">
<path fill="#000000" stroke="none" d="
M 11.15 19.4
L 10.2 18.45 9.05 20 9.95 20.9
Q 15.6 26 21.15 22.35 15 23.15 11.15 19.4 Z"/>
</g>

<g id="FS_Brow_3_4_30_Layer4_0_FILL">
<path fill="#FDF6AE" stroke="none" d="
M -0.25 -22.3
Q -10.242578125 -28.380078125 -21.65 -26.75 -33.0466796875 -25.1162109375 -39.4 -3.95 -31.1337890625 0.690234375 -25.8 3.3 -20.44140625 5.9060546875 -17.1 8.65 -14.9080078125 10.4009765625 -13 9.25 -12.1193359375 9.43125 -10.95 9.55 -5.0814453125 10.1859375 -5.2 12.15 0.293359375 11.64375 0.85 12.15 3.3615234375 13.0763671875 6.2 13.15 6.58828125 13.233984375 6.85 13.35
L 10.6 12.7
Q 10.987890625 12.481640625 11.4 12.25 14.4958984375 3.4396484375 12.4 -5.25 9.7970703125 -16.213671875 -0.25 -22.3 Z"/>
</g>

<g id="FS_Brow_3_4_30_Layer2_0_FILL">
<path fill="#000000" stroke="none" d="
M -36.3 -13.95
Q -39.115625 -10.8048828125 -40.05 -7.75 -40.6080078125 -5.6642578125 -40.45 -3.95 -33.54375 3.761328125 -16.45 10 -15.81484375 10.213671875 -15.2 10.4
L -15.2 10.45
Q -0.7919921875 15.352734375 7.25 14.8 8.5453125 14.89140625 9.65 14.2 10.009765625 13.9060546875 9.6 13.5 -1.411328125 12.3291015625 -14.3 8.05 -15.1640625 7.8005859375 -16.05 7.5 -32.8822265625 1.0169921875 -37.3 -5.15 -37.3892578125 -5.7390625 -37.35 -6.5 -37.29375 -7.265625 -37.1 -8.1 -36.9033203125 -8.894921875 -36.7 -9.65 -36.57265625 -10.366015625 -35.65 -13.45
L -36.3 -13.95 Z"/>
</g>

<g id="FS_Nose_1_Layer1_0_FILL">
<path fill="#EBD463" stroke="none" d="
M -2.55 3.7
Q -4.0583984375 0.9703125 -4.7 1.2 -4.734375 2.1412109375 -5.25 2.8
L -5.5 3.05
Q -8.8025390625 5.372265625 -11.65 6.4 -14.4482421875 7.433203125 -15.4 9.15 -16.35078125 10.90546875 -15.25 14.15 -13.6 14.3 -12.7 13.75
L -12.3 13.5
Q -13.4 10.25 -10.8 8.95 -3.7501953125 5.45 -2.65 3.9 -2.5890625 3.81953125 -2.55 3.7 Z"/>

<path fill="#F4B6D1" stroke="none" d="
M -2.1 0.1
L -2.05 0.1
Q -2.059375 0.071484375 -2.1 0.05 -2.069921875 0.083203125 -2.1 0.1 Z"/>

<path fill="#FDF6AE" stroke="none" d="
M 6.25 9.15
Q 4.4181640625 7.8712890625 1.3 4.1 -1.8056640625 0.3236328125 -1.9 0.2 -2.00859375 0.1306640625 -2.05 0.1
L -2.1 0.1
Q -2.06875 0.1642578125 -2.1 0.2 -2.040625 0.34765625 -2.05 0.45 -1.8798828125 1.4244140625 -1.9 1.75 -1.9001953125 2.18046875 -2.05 2.6 -2.07109375 2.7412109375 -2.15 2.85
L -2.3 3.25
Q -2.3865234375 3.5166015625 -2.55 3.7 -2.5890625 3.81953125 -2.65 3.9 -3.7501953125 5.45 -10.8 8.95 -13.4 10.25 -12.3 13.5
L -12.7 13.75
Q -10.9865234375 20.030078125 -8.05 21.8 -5.125 23.627734375 -3.4 24.65 -0.54609375 24.4287109375 3.6 21.45 6.482421875 18.1421875 6.25 9.15 Z"/>
</g>

<g id="FS_Mouth_side_0_Layer7_0_FILL">
<path fill="#EBD463" stroke="none" d="
M -29.3 8.45
L -29.4 8.35
Q -31.9056640625 7.3849609375 -30.45 11.1 -24.633203125 15.9396484375 -15.95 19 -6.737109375 22.224609375 7.75 21.15 21.9259765625 20.1240234375 27.8 15.95 27.3583984375 15.9619140625 26.9 15.95 13.3044921875 19.110546875 3.6 19.1 -7.03125 19.0892578125 -14.65 16.35 -22.253125 13.6697265625 -29.3 8.45 Z"/>

<path fill="#FDF6AE" stroke="none" d="
M -14.4 -0.65
Q -15.0962890625 -1.5875 -15.75 -2.55 -17.0337890625 -3.9638671875 -18.2 -5.45 -18.2490234375 -5.3505859375 -18.35 -5.25 -19.2423828125 -6.4646484375 -20.1 -7.75
L -18.6 -4.9
Q -22.8447265625 0.775 -29.3 8.45 -22.253125 13.6697265625 -14.65 16.35 -7.03125 19.0892578125 3.6 19.1 13.3044921875 19.110546875 26.9 15.95 25.484765625 16 24 16 23.325 16 22.65 16 23.384375 15.9212890625 24.1 15.85 -0.56796875 13.658984375 -14.4 -0.65 Z"/>
</g>

<g id="FS_Mouth_side_0_Layer5_0_FILL">
<path fill="#EBD463" stroke="none" d="
M -36.4 -1.7
Q -37.426171875 -1.3474609375 -39.15 -1.2 -37.771484375 3.1099609375 -34.65 6.85 -32.9458984375 8.9130859375 -32.15 9.65 -30.4615234375 11.2599609375 -29.3 12 -23.6494140625 11.7115234375 -21.2 9.7 -17.82734375 6.963671875 -19.35 0.6 -19.6837890625 6.0904296875 -22.5 7.95 -24.599609375 9.3345703125 -27.6 9.65 -29.0806640625 8.543359375 -30.4 7.3 -31.5095703125 6.2197265625 -32.5 5.05 -35.1875 1.809375 -36.4 -1.7 Z"/>
</g>

<g id="FS_MouthPatch_0_Layer0_0_FILL">
<path fill="#FDF6AE" stroke="none" d="
M -3.25 -4.55
L -5 -4.3
Q -3.96796875 0.4646484375 -2.55 4.5
L -0.55 4 -3.25 -4.55 Z"/>
</g>

<g id="FS_Nostril_3_4_1_Layer0_0_FILL">
<path fill="#EBD463" stroke="none" d="
M -5.4 1
Q -3.92109375 2.0861328125 -2.7 1.55 -1.4849609375 1.0111328125 -1.4 0 -1.3048828125 -1.0041015625 -2.15 -2 -2.25 -1 -3.35 0.15 -3.9 0.8 -5.4 1 Z"/>
</g>

<g id="FS_Ear_0_Layer1_0_FILL">
<path fill="#FDF6AE" stroke="none" d="
M 10.9 -33.85
Q 8.059765625 -37.566015625 5.1 -40.15 2.2234375 -42.6314453125 -0.05 -43.3 -2.1841796875 -41.090234375 -4.2 -36.15
L -4.25 -36.15
Q -6.737109375 -30.0154296875 -7.55 -23.3 -8.1765625 -17.771484375 -8.25 -11.5
L -8.3 -11.5
Q -4.85078125 -2.74609375 4.45 10.55 12.7986328125 22.5275390625 16.1 18.9
L 16.7 17.95
Q 16.74453125 17.91953125 16.75 17.9 19.0888671875 14.229296875 20 9.85
L 20.05 9.8
Q 22.31953125 1.102734375 20.95 -11.25 19.6306640625 -22.544140625 10.9 -33.85
L 10.9 -33.85
M 10.6 -27.55
L 10.55 -28.05
Q 10.6376953125 -27.8240234375 10.7 -27.6 13.915234375 -19.097265625 12.6 -11.45 11.1984375 -3.765625 5.85 1 5.688671875 1.1880859375 5.5 1.35
L 5.8 0.95
Q 13.25 -10.5 10.6 -27.55 Z"/>

<path fill="#EBD564" stroke="none" d="
M 10.55 -28.05
L 10.6 -27.55
Q 13.25 -10.5 5.8 0.95
L 5.5 1.35
Q 5.688671875 1.1880859375 5.85 1 11.1984375 -3.765625 12.6 -11.45 13.915234375 -19.097265625 10.7 -27.6 10.6376953125 -27.8240234375 10.55 -28.05
M 5.1 -40.15
Q 8.059765625 -37.566015625 10.9 -33.85
L 10.9 -33.85
Q 19.6306640625 -22.544140625 20.95 -11.25 22.31953125 1.102734375 20.05 9.8
L 20 9.85
Q 19.0888671875 14.229296875 16.75 17.9 16.74453125 17.91953125 16.7 17.95
L 16.1 18.9 15.9 19.2 15.95 19.2
Q 16.54921875 18.821875 17.1 18.4 21.24609375 15.203125 22.55 9.4 22.5912109375 9.3884765625 22.6 9.35
L 22.55 9.4
Q 23.85 4.5 24.25 -0.15 24.65 -5.35 23.95 -11.6 22.45 -24.25 13.7 -35.65 11.3 -38.75 7.05 -42.4 2.926171875 -45.9802734375 -0.2 -46.45 -0.5275390625 -46.481640625 -0.85 -46.4 -1.1564453125 -46.3099609375 -1.4 -46.1 -4.35703125 -43.71640625 -7 -37.3
L -7 -37.3
Q -8.15 -34.45 -8.8 -30.6 -9.05 -29.15 -9.75 -23.6 -10.55 -16.4 -8.25 -11.5 -8.1765625 -17.771484375 -7.55 -23.3 -6.737109375 -30.0154296875 -4.25 -36.15
L -4.2 -36.15
Q -2.1841796875 -41.090234375 -0.05 -43.3 2.2234375 -42.6314453125 5.1 -40.15 Z"/>
</g>

<g id="FS_Hair_01_5_Layer3_0_FILL">
<path fill="#F4B6D1" stroke="none" d="
M 23.05 -20.5
L 22.55 -20.95
Q 23.4482421875 -20.0919921875 24.35 -19.2 32.7353515625 -11.1939453125 36.1 -7.65 46.0498046875 2.8064453125 54.65 18.7 62.7984375 33.7681640625 66.75 49.35 69.6529296875 60.8240234375 69.7 78.5 69.913671875 78.5130859375 69.75 82.9
L 69.75 86.05
Q 88.708203125 82.2486328125 84.2 70.55 77.88828125 48.4998046875 62.15 3.85 61.5228515625 1.9251953125 60.1 -5.15 59.775390625 -5.9359375 59.4 -6.75
L 58.25 -7.8
Q 45.9224609375 -21.666796875 23.05 -20.5
M 10.4 -13.55
Q 11.9822265625 -12.8224609375 13.25 -12.15 23.3525390625 -6.958984375 32.35 4.4 47.871875 24.158984375 56.65 53.6 59.853125 64.3244140625 61 78.8
L 61.4 86 68.25 86 68.2 78.55
Q 68.2689453125 61.65625 65.25 49.15 61.705078125 34.3818359375 52.6 17.55 44.7048828125 2.919921875 34 -8.35 30.753125 -11.771875 22.75 -19.45 22.255859375 -19.89765625 21.75 -20.35 21.8140625 -20.2806640625 21.85 -20.2 12.5900390625 -15.95703125 10.4 -13.55
M 3.55 -15.65
L 9.7 -12.85
Q 5.82265625 -10.6259765625 3.55 -8.45 0 -6.55 -1.45 -2.65 -1.75 -1.85 -1.9 -0.95 -1.81640625 -1.062890625 -1.75 -1.2 -1.1310546875 -1.896484375 -0.2 -2.5 0.06796875 -2.655078125 0.3 -2.8 4.971484375 -5.0740234375 15 1.2 21.924609375 5.60546875 28.8 13.5 44.213671875 31.2626953125 51.3 63.4 52.283203125 67.8296875 53 72.2 53.746875 85.7916015625 59.95 86.2
L 59.5 78.85
Q 58.6142578125 66.2224609375 55.5 54.75 48.1908203125 27.49765625 31.95 5.85 22.964453125 -6.0513671875 11.6 -11.9 8.3724609375 -13.587109375 3.55 -15.65 Z"/>

<path fill="#E781B3" stroke="none" d="
M 20.2 -21.9
L 20.15 -21.9
Q 20.953515625 -21.14765625 21.75 -20.35 22.255859375 -19.89765625 22.75 -19.45 30.753125 -11.771875 34 -8.35 44.7048828125 2.919921875 52.6 17.55 61.705078125 34.3818359375 65.25 49.15 68.2689453125 61.65625 68.2 78.55
L 68.25 86 61.4 86 61 78.8
Q 59.853125 64.3244140625 56.65 53.6 47.871875 24.158984375 32.35 4.4 23.3525390625 -6.958984375 13.25 -12.15 11.9822265625 -12.8224609375 10.4 -13.55 6.7828125 -15.200390625 1.65 -17.15 1.177734375 -16.8900390625 0.8 -16.75
L 0.95 -16.7 3.55 -15.65 3.55 -15.65
Q 8.3724609375 -13.587109375 11.6 -11.9 22.964453125 -6.0513671875 31.95 5.85 48.1908203125 27.49765625 55.5 54.75 58.6142578125 66.2224609375 59.5 78.85
L 59.95 86.2
Q 53.746875 85.7916015625 53 72.2 52.283203125 67.8296875 51.3 63.4 44.213671875 31.2626953125 28.8 13.5 21.924609375 5.60546875 15 1.2 4.971484375 -5.0740234375 0.3 -2.8 0.06796875 -2.655078125 -0.2 -2.5 -1.1310546875 -1.896484375 -1.75 -1.2 -1.81640625 -1.062890625 -1.9 -0.95 -2.167578125 -0.5771484375 -2.35 -0.2 -2.3951171875 -0.0580078125 -2.45 0.05 -2.4439453125 0.123046875 -2.45 0.2 -1.8666015625 1.9341796875 -1 2.1 -0.4265625 2.2578125 0.25 1.7 0.326171875 1.3396484375 0.45 1 0.6033203125 0.58046875 0.8 0.2 2.9126953125 -3.524609375 9.7 -0.1 14.07890625 2.1583984375 19.3 6.7 27.341796875 13.66328125 33.6 24.05 47.117578125 46.550390625 51 78.95 51.01015625 79.0568359375 51 79.15
L 51.05 79.15
Q 51.685546875 86.5931640625 60.65 88.6 69.117578125 89.077734375 73.2 88.55 90.7125 84.89921875 87.5 70.65 77.3611328125 32.6595703125 59.75 -6.95 59.9544921875 -5.998828125 60.1 -5.15 61.5228515625 1.9251953125 62.15 3.85 77.88828125 48.4998046875 84.2 70.55 88.708203125 82.2486328125 69.75 86.05
L 69.75 82.9
Q 69.913671875 78.5130859375 69.7 78.5 69.6529296875 60.8240234375 66.75 49.35 62.7984375 33.7681640625 54.65 18.7 46.0498046875 2.8064453125 36.1 -7.65 32.7353515625 -11.1939453125 24.35 -19.2 23.4482421875 -20.0919921875 22.55 -20.95
L 21.4 -22.1
Q 20.434765625 -22.2341796875 20.2 -21.9 Z"/>
</g>

<g id="FS_Hair_03_5_Layer1_0_FILL">
<path fill="#F4B6D1" stroke="none" d="
M -10.15 -0.8
L -16 -0.6
Q -11.683203125 24.009375 -14.15 46.9 -14.558984375 50.9087890625 -15.65 54.7
L -15.65 54.65
Q -11.16796875 46.903515625 -9.6 35.8 -8.2396484375 26.05234375 -9.2 9.6 -9.4814453125 4.308203125 -10.15 -0.8
M -0.85 -1.15
L -8.7 -0.85
Q -7.959765625 4.8025390625 -7.6 11.1 -6.7548828125 26.701171875 -8.25 37.2 -9.9005859375 48.735546875 -15.25 56.9 -16.3310546875 58.5794921875 -17.55 60 -20.3873046875 66.768359375 -25.5 72.75 -28.8685546875 76.784765625 -33.35 78 -34.0462890625 78.222265625 -34.75 78.3 -33.81640625 78.6357421875 -32.8 78.8 -26.4107421875 80.0126953125 -20.8 75.7 -14.88828125 71.166796875 -10 59.3 -1.287109375 38.40234375 -0.75 9.8 -0.609765625 4.1115234375 -0.85 -1.15
M 15.2 -1.7
L 0.65 -1.2
Q 0.875 4.1822265625 0.8 10.2 0.42109375 39.7455078125 -9.55 62.15 -13.792578125 71.81953125 -20 76.4 -27.6763671875 82.237109375 -36.8 78.6 -37.075 78.52265625 -37.35 78.4 -40.074609375 78.132421875 -42.5 76.35 -42.8125 76.1228515625 -43.1 75.85 -48.09453125 70.78359375 -46.25 65 -46.1201171875 64.5568359375 -45.9 64.15
L -47.1 64.2
Q -47.3541015625 64.83046875 -47.6 65.5 -48.4845703125 68.3380859375 -48.5 71.95 -48.55859375 77.7875 -46.5 82.6 -41.9625 93.2494140625 -28.1 94.95 -16.2716796875 96.3994140625 -5.55 91.4 27.433203125 75.970703125 19.3 15.55 18.6052734375 10.1412109375 15.2 -1.7 Z"/>

<path fill="#E781B3" stroke="none" d="
M 0.8 10.2
Q 0.875 4.1822265625 0.65 -1.2
L -0.85 -1.15
Q -0.609765625 4.1115234375 -0.75 9.8 -1.287109375 38.40234375 -10 59.3 -14.88828125 71.166796875 -20.8 75.7 -26.4107421875 80.0126953125 -32.8 78.8 -33.81640625 78.6357421875 -34.75 78.3 -34.0462890625 78.222265625 -33.35 78 -28.8685546875 76.784765625 -25.5 72.75 -20.3873046875 66.768359375 -17.55 60 -16.3310546875 58.5794921875 -15.25 56.9 -9.9005859375 48.735546875 -8.25 37.2 -6.7548828125 26.701171875 -7.6 11.1 -7.959765625 4.8025390625 -8.7 -0.85
L -10.15 -0.8
Q -9.4814453125 4.308203125 -9.2 9.6 -8.2396484375 26.05234375 -9.6 35.8 -11.16796875 46.903515625 -15.65 54.65
L -15.65 54.7
Q -14.558984375 50.9087890625 -14.15 46.9 -11.683203125 24.009375 -16 -0.6
L -18.95 -0.5
Q -18.35546875 3.170703125 -17.9 6.95 -16.101953125 21.514453125 -16.5 34.9 -17.0759765625 52.5869140625 -22.5 62.85 -22.6123046875 63.0638671875 -22.75 63.25 -22.930859375 63.6599609375 -23.15 64 -23.74296875 65.1009765625 -24.35 66.1 -27.296875 70.9220703125 -30.65 73.9 -34.375390625 77.3357421875 -37.5 77 -38.574609375 76.9208984375 -39.6 76.35
L -39.9 76.15 -39.9 76.15
Q -41.0353515625 75.4708984375 -42.1 74.15 -45.929296875 69.3732421875 -44.4 65.65 -43.816796875 64.290234375 -45.9 64.15 -46.1201171875 64.5568359375 -46.25 65 -48.09453125 70.78359375 -43.1 75.85 -42.8125 76.1228515625 -42.5 76.35 -40.074609375 78.132421875 -37.35 78.4 -37.075 78.52265625 -36.8 78.6 -27.6763671875 82.237109375 -20 76.4 -13.792578125 71.81953125 -9.55 62.15 0.42109375 39.7455078125 0.8 10.2
M 18.45 -1.8
L 15.2 -1.7
Q 18.6052734375 10.1412109375 19.3 15.55 27.433203125 75.970703125 -5.55 91.4 -16.2716796875 96.3994140625 -28.1 94.95 -41.9625 93.2494140625 -46.5 82.6 -48.55859375 77.7875 -48.5 71.95 -48.4845703125 68.3380859375 -47.6 65.5 -47.3541015625 64.83046875 -47.1 64.2 -50.239453125 63.373828125 -50.6 65.5 -51.136328125 67.7068359375 -51.3 70.45 -51.9310546875 81.478125 -45.8 87.75 -39.58203125 94.167578125 -29.55 96.2 -20.3673828125 98.0837890625 -11.3 95.75 -2.1908203125 93.4376953125 5.15 87.6 12.5396484375 81.7501953125 16.75 73.4 25.310546875 56.5859375 24.15 31.9 23.739453125 22.8888671875 21.8 11.5 20.2669921875 4.8751953125 18.45 -1.8 Z"/>
</g>

<g id="FS_Hair_04_5_Layer1_0_FILL">
<path fill="#F4B6D1" stroke="none" d="
M 0.85 -1.45
Q 1.3521484375 -3.164453125 3.35 -4.5 7.3958984375 -7.170703125 11.95 -4.25 12.7083984375 -3.73828125 14.1 -1.9 13.24140625 -4.9525390625 10 -6.85
L 10.05 -6.85
Q 8.8724609375 -7.5796875 7.2 -7.65 3.60546875 -7.7849609375 1.35 -4.7 0.6126953125 -3.6119140625 0.05 -2.35 -0.2384765625 -1.6689453125 -0.5 -0.95 -0.8376953125 0.196484375 -1.05 1.45
L 0.35 1.4
Q 0.38828125 -0.0021484375 0.85 -1.45 Z"/>

<path fill="#E781B3" stroke="none" d="
M 3.35 -4.5
Q 1.3521484375 -3.164453125 0.85 -1.45 0.38828125 -0.0021484375 0.35 1.4 2.3203125 1.5896484375 2.4 0.1 2.58125 -0.59140625 2.9 -1.25 3.9267578125 -3.176953125 6.1 -3.95 8.4419921875 -4.7578125 10.35 -3.45 12.751171875 -1.816015625 14.45 1.1
L 14.45 1.15
Q 14.6701171875 1.4845703125 14.85 1.85
L 14.85 1.85
Q 14.9578125 2.038671875 15.05 2.2
L 15.25 2.65 15.3 2.7 15.3 2.65
Q 16.5521484375 0.5943359375 15.55 -2.5 14.3626953125 -6.1646484375 10.75 -8.2 7.051171875 -10.238671875 3.35 -9.2 -1.572265625 -7.7728515625 -3.3 -1.65 -3.7373046875 1.214453125 -1.05 1.45 -0.8376953125 0.196484375 -0.5 -0.95 -0.2384765625 -1.6689453125 0.05 -2.35 0.6126953125 -3.6119140625 1.35 -4.7 3.60546875 -7.7849609375 7.2 -7.65 8.8724609375 -7.5796875 10.05 -6.85
L 10 -6.85
Q 13.24140625 -4.9525390625 14.1 -1.9 12.7083984375 -3.73828125 11.95 -4.25 7.3958984375 -7.170703125 3.35 -4.5 Z"/>
</g>

<path id="FS_Tail_21_Layer1_0_1_STROKES" stroke="#E781B3" stroke-width="1.5" stroke-linejoin="miter" stroke-linecap="square" stroke-miterlimit="3" fill="none" d="
M 3.15 -2.8
Q 105.79765625 -50.7984375 122.05 19.825 127.46640625 57.5982421875 108.95 83.45
M 115.5 114.05
Q 141.9189453125 126.2033203125 130.15 156.1
M 8.5 1.8
Q 134.093359375 -21.2392578125 70.125 81.025 6.153125 183.29140625 92.1 178.5"/>

<path id="FS_Tail_21_Layer0_0_1_STROKES" stroke="#E781B3" stroke-width="3" stroke-linejoin="miter" stroke-linecap="square" stroke-miterlimit="3" fill="none" d="
M 31.75 166.4
Q 28.05 162.75 25.15 158.45 22.5 154.6 20.7 150.3 18.4 144.9 17.9 138.9 17.5 134.45 18.35 129.95 19.2 125.15 20.8 120.75 22.65 115.75 25.35 111.15 28.35 106 31.8 101.25 35.25 96.65 38.35 92 41.2 87.7 44.2 83.4 46.85 79.5 49.45 75.6 52.45 71 55.35 66.25 58.35 61.3 61.15 56.4 63.95 51.45 66.3 46.15 67.5 43.45 67.85 40.45 68.35 35.95 68.25 31.2 68.25 30.6 68.15 30.05
L 67.3 30.4
Q 67.25 29.35 67.15 28.3 66.95 26.45 66.6 24.6 66.3 22.9 65.75 21.25 65.2 19.6 64.45 18.05 63.35 15.7 61.9 13.8 60.45 11.9 58.4 10.2 56.35 8.45 53.85 7.2 50.35 5.35 46.6 4.25 43.5 3.3 40.15 2.75 36.45 2.15 32.7 1.9 28.55 1.65 24.4 1.7 20.39140625 1.744140625 8.2 3.225
L 2.475 -5.025
Q 31.763671875 -38.2013671875 90.825 -28.475 137.1447265625 -15.0009765625 135.05 39.1 135.13125 59.9791015625 101.6 89.775 68.0609375 119.572265625 68.2 134.85 72.9392578125 158.8052734375 102.225 148.425 123.130859375 131.0759765625 113.275 102.125 161.56328125 118.441796875 129.225 157.325 79.3494140625 195.3005859375 38.575 172.35 34.9576171875 169.5283203125 31.75 166.4 Z"/>

<path id="FS_FrontLeg_3_4_hoof_5_Layer0_0_1_STROKES" stroke="#EBD463" stroke-width="3" stroke-linejoin="round" stroke-linecap="round" fill="none" d="
M -12.25 -12.15
Q -8.7 -16.6 -0.95 -17.05 6.75 -17.55 12.2 -12.35 17.6 -7.15 17.4 1.2 17.2 9.5 14.15 13.7 11.1 17.9 -1 18.7 -13.05 19.5 -18.85 17.05 -24.7 14.6 -22.55 7.9 -20.4 1.2 -18.1 -3.25 -15.8 -7.7 -12.25 -12.15 Z"/>

<path id="FS_HindLeg_3_4rear_lower_1_Layer1_0_1_STROKES" stroke="#EBD463" stroke-width="3" stroke-linejoin="round" stroke-linecap="round" fill="none" d="
M 7.6 6.9
Q -5.2 19.7 -8.9 12.2 -13.1 2.15 -5.65 -3.6 1.85 -8.45 11.5 -5.15 17 -1.4 7.6 6.9 Z"/>

<path id="FS_HindLeg_3_4rear_lower_1_Layer0_0_1_STROKES" stroke="#EBD463" stroke-width="3" stroke-linejoin="round" stroke-linecap="round" fill="none" d="
M -10.35 6.85
Q -8.9 34.95 -9.55 62.15
M 26.2 53.5
Q 21.45 27.7 13.4 -2.95"/>

<path id="FS_FrontLeg_3_4_lower_0_Layer2_0_1_STROKES" stroke="#EBD463" stroke-width="3" stroke-linejoin="round" stroke-linecap="round" fill="none" d="
M -21.45 45.8
Q -20.6220703125 21.835546875 -12.85 -7.1
M 14.65 -5.6
Q 13.0513671875 20.797265625 15.8 39.85"/>
</defs>

<g transform="matrix( 0.412506103515625, 0, 0, 0.412506103515625, 486.45,301.35) ">
<g transform="matrix( 1.0582427978515625, 0, 0, 0.9999847412109375, -20.55,144.95) ">
<g transform="matrix( 1.1522064208984375, 0, 0, 1.7481689453125, 4.4,-262.5) ">
<use filter="url(#Filter_1)" xlink:href="#FS_Shadow_0_Layer0_0_FILL"/>
</g>
</g>

<g transform="matrix( 0.99786376953125, 0.0653228759765625, -0.0653228759765625, 0.99786376953125, 41.95,-94.05) ">
<g transform="matrix( -1, 0, 0, 1, -0.1,0) ">
<g transform="matrix( 1, 0, 0, 1, 0,0) ">
<use xlink:href="#FS_Mane_01_6_Layer1_0_FILL"/>
</g>
</g>

<g transform="matrix( -1, 0, 0, 1, 3.1,105.65) ">
<g transform="matrix( 1, 0, 0, 1, 0,0) ">
<use xlink:href="#FS_Mane_02_6_Layer0_0_FILL"/>
</g>
</g>

<g transform="matrix( -1, 0, 0, 1, 33.05,190) ">
<g transform="matrix( 1, 0, 0, 1, 0,0) ">
<use xlink:href="#FS_Mane_03_6_Layer0_0_FILL"/>
</g>
</g>
</g>

<g transform="matrix( -0.9885711669921875, 0.1562042236328125, -0.0296173095703125, 0.9969635009765625, -61.45,0.4) ">
<g transform="matrix( 1, 0, 0, 1, 0,0) ">
<use xlink:href="#FS_Tail_21_Layer2_0_FILL"/>
</g>

<g transform="matrix( 1, 0, 0, 1, 0,0) ">
<use xlink:href="#FS_Tail_21_Layer1_0_1_STROKES"/>
</g>

<g transform="matrix( 1, 0, 0, 1, 0,0) ">
<use xlink:href="#FS_Tail_21_Layer0_0_1_STROKES"/>
</g>
</g>

<g transform="matrix( -1.008819580078125, -0.03125, -0.2343902587890625, 1.103515625, 8.2,22.6) ">
<g transform="matrix( 1, 0, 0, 1, 2.2,86.4) ">
<g transform="matrix( 1, 0, 0, 1, 0,0) ">
<use filter="url(#Filter_2)" xlink:href="#FS_FrontLeg_3_4_hoof_0_Layer0_0_FILL"/>
</g>
</g>

<g transform="matrix( 0.999969482421875, -0.0043792724609375, -0.001129150390625, 1, 0.15,0.35) ">
<g transform="matrix( 1, 0, 0, 1, 0,0) ">
<use filter="url(#Filter_2)" xlink:href="#FS_FrontLeg_3_4_upper_2_Layer1_0_FILL"/>
</g>
</g>
</g>

<g transform="matrix( -1, 0, 0.090118408203125, 0.8859710693359375, -36.25,14.4) ">
<g transform="matrix( 0.971649169921875, -0.2297821044921875, 0.2297821044921875, 0.971649169921875, 21.7,111) ">
<g transform="matrix( 1, 0, 0, 1, 0,0) ">
<use filter="url(#Filter_2)" xlink:href="#FS_FrontLeg_3_4_hoof_5_Layer0_0_FILL"/>

<use filter="url(#Filter_2)" xlink:href="#FS_FrontLeg_3_4_hoof_5_Layer0_0_1_STROKES"/>
</g>
</g>

<g transform="matrix( 0.6596832275390625, -0.5961151123046875, 0.4954681396484375, 0.643402099609375, 9.8,50.15) ">
<g transform="matrix( 1, 0, 0, 1, 0,0) ">
<use filter="url(#Filter_2)" xlink:href="#FS_KneePatch_2_Layer0_0_FILL"/>
</g>
</g>

<g transform="matrix( 0.9972076416015625, 0.06536865234375, -0.062103271484375, 0.9974365234375, 16.1,53.4) ">
<g transform="matrix( 1, 0, 0, 1, 0,0) ">
<use filter="url(#Filter_2)" xlink:href="#FS_HindLeg_3_4rear_lower_1_Layer1_0_FILL"/>

<use filter="url(#Filter_2)" xlink:href="#FS_HindLeg_3_4rear_lower_1_Layer1_0_1_STROKES"/>
</g>

<g transform="matrix( 1, 0, 0, 1, 0,0) ">
<use filter="url(#Filter_2)" xlink:href="#FS_HindLeg_3_4rear_lower_1_Layer0_0_FILL"/>

<use filter="url(#Filter_2)" xlink:href="#FS_HindLeg_3_4rear_lower_1_Layer0_0_1_STROKES"/>
</g>
</g>

<g transform="matrix( 1.04901123046875, 0, -0.0475006103515625, 0.96978759765625, 10.45,-9.8) ">
<g transform="matrix( 1, 0, 0, 1, 0,0) ">
<use filter="url(#Filter_2)" xlink:href="#FS_HindLeg_3_4_top_1_Layer0_0_FILL"/>
</g>
</g>

<g transform="matrix( 0.6596832275390625, -0.5961151123046875, 0.4954681396484375, 0.643402099609375, 9.5,50.3) ">
<g transform="matrix( 1, 0, 0, 1, 0,0) ">
<use filter="url(#Filter_2)" xlink:href="#FS_KneePatch_3_Layer0_0_FILL"/>
</g>
</g>
</g>

<g transform="matrix( -1.048370361328125, -0.021453857421875, -0.0359954833984375, 1, -21.4,23.95) ">
<g transform="matrix( 1, 0, 0, 1, 0,0) ">
<use xlink:href="#FS_Torso_2_Layer1_0_FILL"/>
</g>
</g>

<g transform="matrix( -1, 0, 0.151611328125, 1, -57.95,9.75) ">
<g transform="matrix( 1, 0, 0, 1, 29.15,127.9) ">
<g transform="matrix( 1, 0, 0, 1, 0,0) ">
<use xlink:href="#FS_FrontLeg_3_4_hoof_4_Layer0_0_FILL"/>
</g>
</g>

<g transform="matrix( 0.9659271240234375, -0.258819580078125, 0.258819580078125, 0.9659271240234375, 7.85,53.3) ">
<g transform="matrix( 1, 0, 0, 1, 0,0) ">
<use xlink:href="#FS_KneePatch_2_Layer0_0_FILL"/>
</g>
</g>

<g transform="matrix( 0.9970703125, -0.0725250244140625, 0.0725250244140625, 0.9970703125, 15.5,62.05) ">
<g transform="matrix( 1, 0, 0, 1, 0,0) ">
<use xlink:href="#FS_HindLeg_3_4rear_lower_0_Layer1_0_FILL"/>
</g>

<g transform="matrix( 1, 0, 0, 1, 0,0) ">
<use xlink:href="#FS_HindLeg_3_4rear_lower_0_Layer0_0_FILL"/>
</g>
</g>

<g transform="matrix( 1, 0, -0.0095977783203125, 1.0159912109375, 10.45,-9.8) ">
<g transform="matrix( 1, 0, 0, 1, 0,0) ">
<use xlink:href="#FS_HindLeg_3_4_top_1_Layer0_0_FILL"/>
</g>
</g>

<g transform="matrix( 0.9659271240234375, -0.258819580078125, 0.258819580078125, 0.9659271240234375, 7.2,53.3) ">
<g transform="matrix( 1, 0, 0, 1, 0,0) ">
<use xlink:href="#FS_KneePatch_3_Layer0_0_FILL"/>
</g>
</g>

<g transform="matrix( 0.9999847412109375, 0, 0, 1, -2.6,16.6) ">
<g transform="matrix( 0.8685150146484375, 0, 0, 0.8685150146484375, -286.15,-353.9) ">
<use xlink:href="#FS_CutieMark_0_Layer0_0_FILL"/>
</g>

<g transform="matrix( 0.8685150146484375, 0, 0, 0.8685150146484375, -286.15,-353.9) ">
<use xlink:href="#FS_CutieMark_0_Layer0_1_FILL"/>
</g>

<g transform="matrix( 0.8685150146484375, 0, 0, 0.8685150146484375, -169.25,-143.9) ">
<use xlink:href="#FS_CutieMark_0_Layer0_2_FILL"/>
</g>

<g transform="matrix( 0.8685150146484375, 0, 0, 0.8685150146484375, -286.15,-353.9) ">
<use xlink:href="#FS_CutieMark_0_Layer0_3_FILL"/>
</g>

<g transform="matrix( 0.8685150146484375, 0, 0, 0.8685150146484375, -286.15,-353.9) ">
<use xlink:href="#FS_CutieMark_0_Layer0_4_FILL"/>
</g>

<g transform="matrix( 0.8685150146484375, 0, 0, 0.8685150146484375, -286.15,-353.9) ">
<use xlink:href="#FS_CutieMark_0_Layer0_5_FILL"/>
</g>
</g>
</g>

<g transform="matrix( -0.9191131591796875, -0.3296051025390625, -0.212615966796875, 0.9524078369140625, -8.25,7.15) ">
<g transform="matrix( 1, 0, 0, 1, 0,0) ">
<use xlink:href="#FS_Neck_1_Layer0_0_FILL"/>
</g>
</g>

<g transform="matrix( -0.98614501953125, 0.16552734375, 0.226226806640625, 0.9760589599609375, 17.35,44.05) ">
<g transform="matrix( 0.8846282958984375, -0.4425048828125, 0.4467010498046875, 0.89300537109375, 0.95,86.3) ">
<g transform="matrix( 1, 0, 0, 1, 0,0) ">
<use xlink:href="#FS_FrontLeg_3_4_hoof_3_Layer0_0_FILL"/>
</g>
</g>

<g transform="matrix( 0.9961090087890625, 0.0847320556640625, -0.0847320556640625, 0.9961090087890625, 0.2,0.3) ">
<g transform="matrix( 1, 0, 0, 1, 0,0) ">
<use xlink:href="#FS_FrontLeg_3_4_upper_0_Layer2_0_FILL"/>
</g>

<g transform="matrix( 1, 0, 0, 1, 0,0) ">
<use xlink:href="#FS_FrontLeg_3_4_upper_0_Layer1_0_FILL"/>
</g>
</g>

<g transform="matrix( 0.9983978271484375, -0.0420379638671875, 0.0420379638671875, 0.9983978271484375, 3.45,45.6) ">
<g transform="matrix( 1, 0, 0, 1, 0,0) ">
<use xlink:href="#FS_FrontLeg_3_4_lower_0_Layer2_0_FILL"/>

<use xlink:href="#FS_FrontLeg_3_4_lower_0_Layer2_0_1_STROKES"/>
</g>
</g>
</g>

<g transform="matrix( -1, 0, -0.0359954833984375, 1, -8.9,13.4) ">
<g transform="matrix( 1, 0, 0, 1, 0,0) ">
<use xlink:href="#FS_Wing_side_9_Layer4_0_FILL"/>
</g>
</g>

<g transform="matrix( 0.9976348876953125, 0.0688629150390625, -0.0688629150390625, 0.9976348876953125, 54.75,-35.95) ">
<g transform="matrix( -1, 0, 0, 1.2132568359375, -22.8,-56.95) ">
<g transform="matrix( 1, 0, 0, 1, 0,0) ">
<use xlink:href="#FS_Mane_01_14_Layer1_0_FILL"/>
</g>
</g>

<g transform="matrix( -1, -0.0224761962890625, -0.0673675537109375, 0.9984893798828125, 9.75,-15.15) ">
<g transform="matrix( 1, 0, 0, 1, 0,0) ">
<use xlink:href="#FS_Skull_9_Layer0_0_FILL"/>
</g>
</g>

<mask id="Mask_Mask_1">
<g transform="matrix( -1.001922607421875, -0.080535888671875, -0.0961456298828125, 0.9934539794921875, 15.05,-3.95) ">
<g transform="matrix( 1, 0, 0, 1, 0,0) ">
<use xlink:href="#Mask_Mask_FS_EyeWhite_3_4_0_Layer0_0_FILL"/>
</g>
</g>
</mask>

<g mask="url(#Mask_Mask_1)">
<g transform="matrix( -1.001922607421875, -0.080535888671875, -0.0961456298828125, 0.9934539794921875, 15.05,-3.95) ">
<g transform="matrix( 1, 0, 0, 1, 0,0) ">
<use xlink:href="#FS_EyeWhite_3_4_0_Layer0_0_FILL"/>
</g>
</g>
</g>

<g mask="url(#Mask_Mask_1)">
<g transform="matrix( 0.8421173095703125, -0.148590087890625, 0.1092681884765625, 1.01715087890625, 22.95,-4.9) ">
<g transform="matrix( 1, 0, 0, 1, 0,0) ">
<use xlink:href="#FS_Iris_0_Layer1_0_FILL"/>
</g>

<g transform="matrix( 1, 0, 0, 1, 0,0) ">
<use xlink:href="#FS_Iris_0_Layer0_0_FILL"/>
</g>

<g transform="matrix( 1, 0, 0, 1, 0,0) ">
<use xlink:href="#FS_Iris_0_Layer0_1_FILL"/>
</g>
</g>
</g>

<g mask="url(#Mask_Mask_1)">
<g transform="matrix( -0.971588134765625, -0.3142852783203125, -0.340972900390625, 0.9784698486328125, 24,-3.75) ">
<g transform="matrix( 1, 0, 0, 1, 0,0) ">
<use xlink:href="#FS_Pupil_0_Layer0_0_FILL"/>
</g>
</g>
</g>

<g mask="url(#Mask_Mask_1)">
<g transform="matrix( -1.2066650390625, 0.01092529296875, -0.1359405517578125, 0.9016265869140625, 18.05,-11.2) ">
<g transform="matrix( 1, 0, 0, 1, 0,0) ">
<use xlink:href="#FS_Hilights_0_Layer1_0_FILL"/>
</g>
</g>
</g>

<g transform="matrix( -1.014862060546875, -0.081573486328125, -0.0961456298828125, 0.9934539794921875, 15.3,-6.35) ">
<g transform="matrix( 1, 0, 0, 1, 0,0) ">
<use xlink:href="#FS_Blink_3_4_3_Layer5_0_FILL"/>
</g>

<g transform="matrix( 1, 0, 0, 1, 0,0) ">
<use xlink:href="#FS_Blink_3_4_3_Layer4_0_FILL"/>
</g>

<g transform="matrix( 1, 0, 0, 1, 0,0) ">
<use xlink:href="#FS_Blink_3_4_3_Layer2_0_FILL"/>
</g>

<g transform="matrix( 1, 0, 0, 1, 0,0) ">
<use xlink:href="#FS_Blink_3_4_3_Layer1_0_FILL"/>
</g>

<g transform="matrix( 1, 0, 0, 1, 0,0) ">
<use xlink:href="#FS_Blink_3_4_3_Layer1_1_FILL"/>
</g>

<g transform="matrix( 1, 0, 0, 1, 0,0) ">
<use xlink:href="#FS_Blink_3_4_3_Layer1_2_FILL"/>
</g>
</g>

<g transform="matrix( -0.934814453125, 0.10693359375, 0, 1, -2.25,-21.45) ">
<g transform="matrix( 1, 0, 0, 1, 0,0) ">
<use xlink:href="#FS_Brow_3_4_30_Layer4_0_FILL"/>
</g>

<g transform="matrix( 1, 0, 0, 1, 0,0) ">
<use xlink:href="#FS_Brow_3_4_30_Layer2_0_FILL"/>
</g>
</g>

<g transform="matrix( -1, 0, 0, 1, 25.25,18.5) ">
<g transform="matrix( 0.954986572265625, 0.056243896484375, 0, 0.961029052734375, -24.45,-13.7) ">
<g transform="matrix( 1, 0, 0, 1, 0,0) ">
<use xlink:href="#FS_Nose_1_Layer1_0_FILL"/>
</g>
</g>

<g transform="matrix( 1, 0, 0, 1, 0,0) ">
<use xlink:href="#FS_Mouth_side_0_Layer7_0_FILL"/>
</g>

<g transform="matrix( 1, 0, 0, 1, 0,0) ">
<use xlink:href="#FS_Mouth_side_0_Layer5_0_FILL"/>
</g>

<g transform="matrix( 1, 0, -0.0732421875, 0.9117584228515625, -22.6,-13.7) ">
<g transform="matrix( 1, 0, 0, 1, 0,0) ">
<use xlink:href="#FS_MouthPatch_0_Layer0_0_FILL"/>
</g>
</g>

<g transform="matrix( 0.95989990234375, 0.0554962158203125, 0, 0.9616546630859375, -27.3,-1.3) ">
<g transform="matrix( 1, 0, 0, 1, 0,0) ">
<use xlink:href="#FS_Nostril_3_4_1_Layer0_0_FILL"/>
</g>
</g>
</g>

<g transform="matrix( -0.9962005615234375, 0.087158203125, 0.087158203125, 0.9962005615234375, -25.25,-33.15) ">
<g transform="matrix( 1, 0, 0, 1, 0,0) ">
<use xlink:href="#FS_Ear_0_Layer1_0_FILL"/>
</g>
</g>
</g>

<g transform="matrix( 0.9866943359375, 0.221282958984375, -0.065673828125, 1.055572509765625, 112.45,-94.35) ">
<g transform="matrix( -1, 0.0000152587890625, 0.0000152587890625, 1, -0.55,-0.4) ">
<g transform="matrix( 1, 0, 0, 1, 0,0) ">
<use xlink:href="#FS_Hair_01_5_Layer3_0_FILL"/>
</g>
</g>

<g transform="matrix( -1, 0.0000152587890625, 0.0000152587890625, 1, -69.35,71.55) ">
<g transform="matrix( 1, 0, 0, 1, 0,0) ">
<use xlink:href="#FS_Hair_03_5_Layer1_0_FILL"/>
</g>
</g>

<g transform="matrix( -1, 0.0000152587890625, 0.0000152587890625, 1, -22.3,137.75) ">
<g transform="matrix( 1, 0, 0, 1, 0,0) ">
<use xlink:href="#FS_Hair_04_5_Layer1_0_FILL"/>
</g>
</g>
</g>
</g>
</svg>
